<svg xmlns="http://www.w3.org/2000/svg" viewBox="0 0 595.3 466.8" xml:space="preserve">
  <path fill="#fff" d="M0 0h595.3v466.8H0z"/>
  <path d="M595.3 466.8H0V0h595.3v466.8zm-8.5-450.3c.7-13 1.7-13.2-11.2-13.1-13.2.1-26.5.6-39.7.6-23.7-.1-47.4-.5-71.1-.6-22-.1-43.9 0-65.9 0H229.8c-33.4 0-66.8 0-100.2.1-19.8 0-39.6.2-59.4.2-11.2 0-22.5-.3-33.7-.3-7.4 0-14.7.7-22.1.6-7.8-.3-11 2.5-11 10.1 0 27.6-.1 55.3 0 82.9 0 11.7.6 23.4.6 35.1 0 14.5-.4 29.1-.5 43.6-.1 16-.1 31.9-.1 47.9 0 21 0 42.1.2 63.1.1 13.8.8 27.5.8 41.3 0 11.3-.8 22.6-.9 34-.1 12.4.2 24.9.2 37.3 0 17.8-.2 35.6-.2 53.4 0 5.3 2.4 7.5 7.8 7.5 41.4 0 82.9-.1 124.3.1 9.5 0 18.9 1 28.4.9 12.9 0 25.7-.9 38.6-.9 9.6 0 19.3.9 28.9 1 29.4.1 58.9 0 88.3 0 26.3 0 52.5 0 78.8.2 16.9.1 33.8.6 50.7.7 10.1.1 20.2-.6 30.4-.5 20.8.3 41.6 1 62.4 1.3 11.2.2 22.5-.3 33.7-.4 4.1-.1 8.3.2 12.4-.2 1.1-.1 2.8-2.3 2.8-3.5 0-14.1-.1-28.3-.4-42.4-.3-14.1-1.3-28.2-1.4-42.3-.1-17.5.8-35.1.5-52.6-.6-31-2.4-62-2.8-93-.5-41.5 0-83 0-124.5-.1-29.3-.1-58.5-.1-87.6z" fill="#fff"/>
  <path d="M586.8 16.5V104c0 41.5-.5 83 0 124.5.4 31 2.2 62 2.8 93 .4 17.5-.6 35-.5 52.6.1 14.1 1 28.2 1.4 42.3.3 14.1.4 28.3.4 42.4 0 1.2-1.7 3.4-2.8 3.5-4.1.4-8.2.2-12.4.2-11.2.1-22.5.5-33.7.4-20.8-.3-41.6-1-62.4-1.3-10.1-.1-20.2.6-30.4.5-16.9-.1-33.8-.6-50.7-.7-26.3-.2-52.5-.1-78.8-.2-29.4 0-58.9.1-88.3 0-9.7 0-19.3-1-28.9-1-12.9 0-25.7.9-38.6.9-9.5 0-18.9-.9-28.4-.9-41.4-.1-82.9-.1-124.3-.1-5.4 0-7.8-2.2-7.8-7.5 0-17.8.2-35.6.2-53.4 0-12.4-.3-24.9-.2-37.3.1-11.3.9-22.7.9-34 0-13.8-.6-27.5-.8-41.3-.2-21-.2-42.1-.2-63.1 0-16 0-31.9.1-47.9.2-14.4.6-29 .6-43.5 0-11.7-.5-23.4-.6-35.1-.1-27.6 0-55.3 0-82.9 0-7.6 3.3-10.4 10.9-10.2 7.4.2 14.7-.5 22.1-.6 11.2 0 22.5.3 33.7.3 19.8 0 39.6-.2 59.4-.2 33.4-.1 66.8-.1 100.2-.1h169.1c22 0 43.9-.1 65.9 0 23.7.1 47.4.5 71.1.6 13.2 0 26.5-.5 39.7-.6 13 0 12.1.2 11.3 13.2zm-2 342.4s.3-.9.3-1.7c-.1-21.2.1-42.4-.3-63.6-.3-16.4-1.2-32.7-1.7-49.1-.3-10.4-.2-20.8-.4-31.3-.3-19.1-.9-38.2-1-57.3-.1-15.4.3-30.9.4-46.3.1-11.3-.2-22.7 0-34 .4-20.1 1.1-40.2 1.4-60.3 0-1.4-1.8-3.8-3-4-5.9-.8-12-1.3-18-1.3-16.8 0-33.6.3-50.4.4-13.8.1-27.5 0-41.3 0l-69.6-.3c-16.2-.1-32.4-.2-48.6-.1-13 0-26.1.4-39.1.4-11.1 0-22.1-.6-33.2-.7-13.2-.1-26.5 0-39.7.2-12.8.1-25.6.6-38.4.6-12.1 0-24.3-.6-36.4-.6-10.8 0-21.6.7-32.4.7-16.1 0-32.1-.6-48.2-.6-12.7 0-25.5.7-38.2.7-11.2 0-22.3-.4-33.5-.8-3.7-.1-5.3.8-5 4.9.4 5.6 0 11.2.1 16.7.2 13.2.6 26.4.5 39.6C9 82 8 92.8 7.9 103.7c-.1 9.1 1 18.2 1 27.3 0 76-.1 152-.1 228 0 6.2.8 12.3.8 18.5 0 5.3-.7 10.5-.8 15.8 0 1.4 1 2.8 1.6 4.2 1.5-.6 3-1.1 4.4-1.8 2.2-1.1 4.2-2.6 6.5-3.4 3.4-1.2 7.9-1 10.1-3.2 5.5-5.4 12.9-7.6 20.7-4.3 9.8-11.8 19.7-23.6 27.1-32.5-6.3-8-11-14.7-16.5-20.7-8.1-8.8-14.5-18.7-17.5-30.2-4-15 3.8-27.1 11.1-39.2 1.6-2.6 2.5-5.9 3-9 .6-3.6.6-6.9 5.7-7 1.3 0 2.5-2.2 3.8-3.4.4-.3.9-.6 1.6-1 .6 1.1 1.1 2.1.9 1.7 8.5-3.2 16.5-8.5 24.6-8.8 19.6-.6 36.4 6.8 49.8 22.1 9.3 10.6 20.1 19.7 30.4 29.4 2.6 2.4 6.1 3.9 8.3 6.6 2 2.4 4.6 6.8 3.7 8.7-1.6 3.3-5.6 5.7-8.8 7.9-2.5 1.8-6 2.4-8.3 4.3-4.5 3.6-8.4 7.8-12.6 11.8.8.2 1.5.3 2.3.5 1.3 2.8 4.1 6.1 3.5 8.4-.9 3.1-4.5 5.4-6.9 8-1.1 6.2-3.2 11.9-10 15.8-5.7 3.3-11.7 3.7-17.8 3.4-6.1-.3-12.2-1.6-18.3-2.2-1.4-.1-2.9 1.2-4.3 1.8.9 1.3 1.6 3 2.8 3.9 1.4 1 3.4 1.4 5.1 1.8 13.3 3.3 25.9-.7 38.5-3.7 3.1-.7 6.1-2.4 9.3-2.7 4.6-.5 9.2-.1 13.7-.1.5-3.5.8-6.3 1.5-9.1.3-1.1 1.7-2.7 2.7-2.8 7.2-.6 14.5-1.2 21.8-1.3 6.5 0 13.1.6 19.6 1 4.6.3 9.2.7 13.8 1 0-.3.1-.6.1-.9-1.6-.2-3.3-.4-5.7-.6 6.3-6.2-4.5-5.1-2.8-9.4-1.8.4-3.3.8-5.7 1.4 1.9-2.5 3.2-4.2 4.6-5.9-.2-.4-.4-.7-.6-1.1-4.9 1-9.7 2-15.1 3.1v11.1c-.6.1-1.1.2-1.7.3-1.1-2.7-2.2-5.4-3.5-8.6-4.6 2.6-9.9-.1-15.5 3.3-5.4 3.3-13.8 1.7-20.8 2.2-.1-.6-.2-1.2-.3-1.7 5.9-1.7 11.7-3.7 17.6-4.9 6.1-1.3 12.4-1.8 19.6-2.8-.7-2.8-1.4-5.4-2.1-8.1-.5-2.1-2.1-4.5-1.5-6.2 1.3-3.9-1-4.7-3.4-6.6-2.1-1.7-4.1-4.8-4.4-7.4-.4-3.6.6-7.5 1.5-11.2 2.3-9.6 4.8-19.2 7.3-28.8.4-1.7.7-3.3 1-4.9-9-3.3-17.3-6.1-23.7-12.9-2.8-3-6.9-5.5-10.9-6.3-5.8-1.1-12.1-7.6-10-13.2 1.9-4.9.2-8-2.3-11.8-2.5-3.7-5.7-7.6-6.2-11.8-1.8-13.2 12.7-35.4 25.2-40.9 11-4.8 21.9-4.6 33.5-2.4 16.6 3.2 33 6.7 47.6 15.7 7.5 4.6 11.6 12.3 7.7 19.2-5.1 9.1-3.7 18.1-1.7 27.3 2.6 12.7.9 16.8-10.7 23.4-5 2.8-9.8 5.8-15.1 9 2.8 3.2 4.8 6 7.3 8.4 5.1 5.1 7.9 4.6 11.5-1.4 2.1-3.6 4.5-7 7.3-11.2 1.7 3.8 2.9 6.3 3.9 8.9.9 2.4 2.4 5.1 2.1 7.5-1.1 8.7-2.7 17.3-4.3 25.9-.1.8-.9 1.6-1.6 2.1-4.4 3.9-4.3 8.2-1.8 13.3 1.2 2.4 1.5 5.7 1.2 8.5-.7 6-2.2 11.9-3.7 19.7 4.1-1.7 6.8-2.8 10.6-4.4 6.2.6 13.9 1.3 21.6 2.1-.1 1-.2 1.9-.2 2.9h-30.7c-.6 4.4-1 7.8-1.5 11.2-.6 0-1.2.1-1.8.1-1.1-2.6-2.2-5.2-3-7l-12.5 5c-.1-.1.3.6.8.7 5.5.8 11.2 1.2 16.6 2.4 8.4 2 16.5 5.9 17.9 15.3 1.5 9.8 1.3 19.9 1.3 29.9 0 4.6-1.1 9.4-2.3 13.9-.4 1.7-2.5 3-3.9 4.5-.7-1.5-1.5-3-1.9-4.6-.4-1.6-.4-3.4-.7-6-7.5 5.2-20.1 2.9-18.8 17 5.2.2 10.7 1.2 13.3-3.6 10.6 1.1 20.9 2.1 32 3.3-15.9 2.4-30.8 4.6-45.7 6.9.1.7.2 1.3.3 2 14.1-3.7 28.4-5.2 42.9-5.1.1.6.1 1.2.2 1.8-5.2.7-10.3 1.4-15.7 2.1 2.2.8 4.1 1.6 6.7 2.6-5.2 3-10.2 2-14.6 5.8-3.7 3.2-11.5 1.7-17.5 2.3 0-.3-.1-.5-.1-.8 1.5-.7 3-1.5 4.9-2.4-6.9-.5-7.9.3-8.7 6.3-.3 2.5-1.1 5-1.7 7.5-.7.1-1.4.2-2 .3-1.2-2.5-2.4-5-3.2-6.6-12.9 1.1-25.8 2.9-38.7 3.1-17.3.2-34.6-.9-52-1.2-1.8 0-3.9 1.4-5.3 2.8-1.3 1.3-2 3.3-2.9 5-1.6-1.5-4-2.8-4.7-4.7-1.5-4-2.1-8.3-3-12.6-8.4-.2-16.3-.1-20.7 8.5-.3.6-1 1.1-1.5 1.6-5 4.9-8.3 3.7-11.3-2.6-2.3-4.7-6.1-8.7-9.6-12.7-.5-.6-3.9.2-4.4 1.1-1.7 3.3-4.1 4.4-7.4 3.9l-8.1-1.2c-11-1.7-21.9-3.3-32.9-5.1-4.1-.7-8.2-2.2-12.4-2.3-6-.1-11.9.7-18.1 1.1v26.2h104.6c19.9 0 39.8-.1 59.8-.1 24.8-.1 49.5-.3 74.3-.2 14.4.1 28.7 1.1 43.1 1.4 13.6.3 27.2.1 40.7.1h75.1c18.4 0 36.7-.1 55.1.1 25 .2 50 .4 75 .8 14.5.2 29.1.7 43.6 1 3.1.1 5.2-1.5 5.3-4.9.2-8.5.6-17.1.5-25.6-.1-9.1-.8-18.1-.9-27.2-.2-11.1 0-22.2 0-33.3-.6-.3-1.3-.6-1.9-.9-3.3 4.4-6.1 9.4-10.2 12.9-4.4 3.8-9.8 6.4-15 9.3-5.9 3.3-11.9 4.3-16.3 3.2 12.4-6.3 22.1-15.5 29.9-27-1.8-.3-3.9-.7-6.4-1.2.7-1.4 1.2-2.3 1.9-3.6-2.1-.2-3.7-.3-5.6-.4.2-1.1.3-2.1.4-3-3.9-.8-7.8-1.6-11.6-2.3.2-.9.4-1.7.7-2.6 10.9 2.3 21.9 4.9 33.5 7.6zm-453.7-25.1c-2 7.1.5 11.9 4.2 16.2 1.7 2 4.9 5.7 5.6 5.3 3.5-2 6.6-4.8 9.4-7.7 1.1-1.1.9-3.4 1.3-5.1.5-2.5 1-5.1 1.5-7.5 2.5-.1 4.2-.2 6.1-.3-3.8-6.2-7.3-6.9-12.1-3.1-.8.7-2 1.7-2.7 1.5-1-.3-2.6-1.5-2.6-2.4 0-5.6 8-10.6 12.8-8.2 3.7-3.4 7.5-6.7 11-10.3.9-1 .6-3.1.8-4.8-5.9.2-5.8-5.6-8.9-8.3 5.4-4.4 15.4-3.8 19.9.6 1.6 1.6 3.9 2.5 5.9 3.7.4-.5.8-1.1 1.2-1.6-1-1.1-1.7-2.5-2.9-3.3-4-2.8-8.7-4.7-12.1-8.1-9.2-8.9-17.8-18.5-26.8-27.6-4.7-4.8-9.5-9.6-14.9-13.6-9.3-6.8-20.7-7.1-31.6-8.8-10.8-1.7-27.6 9.5-30.2 19.8-.4 1.6-2.5 2.9-3.9 4.2-1.1 1.1-2.8 2-3.3 3.3-2.3 5.8-4.9 11.6-6.3 17.6-1 4.5-1.3 9.8-.1 14.2 4.7 16.9 15.6 29.6 29 40.4 1.5 1.2 3 2.7 4.2 4.3 3.2 4.3 6 9 9.6 13 1.8 2.1 4.8 3.1 7.5 4.7.7-1.5 1-2 1.1-2.5 1.6-6.7 1.8-6.5 8.4-5 6.7 1.5 13.6 2.2 20.4 3.2.2-.6.5-1.2.7-1.8-2.9-4.7-5.4-9.7-8.8-14-2.3-2.9-1.8-4.3 1-5.8 1.4-.5 2.9-1.1 5.6-2.2zm80.3-148c-2-.2-3.3-.4-4.8-.6.1-.6.3-1.1.4-1.6.1-.5 0-1 0 .1-14.1-4.6-28-9-38.3 5.5.9 2.9 2 6.4 2.8 8.8-1.1 5.8-2.1 10.8-3.2 16.9-.5.2-2.5 1.2-4.6 2.3 2.7 3 5 5.5 7.9 8.8-3 .4-4.8.6-6.5.9-1.6 5.4.4 7.8 5.4 9.5 4 1.4 7.9 3.8 11.1 6.6 8.6 7.4 18.4 12 29.6 12.9 15.3 1.2 28.4-5.7 41.4-12.5 8.9-4.7 11.3-12.5 5.9-20.6-3.3-5-2.9-9.6-.8-14.9 1.8-4.6 2.9-9.7 3.6-14.6.7-4.7-1.6-6.9-6.5-5.3-4.4 1.4-7.8.9-9-4.2-3.1 4-5.6 8-8.9 11.2-2.8 2.7-6.4 3.5-8.4-1.5-2.2 1.4-3.9 2.9-5.8 3.7-2 .8-4.6 1.7-6.5 1.1-1-.3-1.2-3.5-2-6-2.9-2.1-7.4 5.9-10.9-1.2 2.6-1.8 5.1-3.4 8.1-5.3zm-26.8 214.5c0 .4.1.8.1 1.3.7.1 1.4.5 2 .3 12.1-3.4 24.3-6.8 36.3-10.5 14.1-4.3 28.2-9 42.2-13.6 5.6-1.8 8.4-6.3 6.7-10.6-2.1-5.6-11.3-10.8-15.5-8.9-3.8 1.6-7.5 3.2-11.4 4.5-15.3 5.1-30.5 10.2-45.9 15-15.9 5-15.9 4.8-14.6 17.8 0 .3.4.5.5.6 26.4-7.9 52.7-15.8 79-23.7l.6 1.8c-12.7 5.3-25.8 9.1-39.2 12.8-13.6 3.7-27.1 8.7-40.8 13.2zm2 14.1c.1.7.2 1.3.4 2 3.4 0 6.8-.4 10.1.1 14.7 1.9 29.4 1 43.9-1.9 1.8-.4 4.4-1.4 4.9-2.7 1.7-4.9-1.8-8.7-4.4-12.2-.8-1-4.3-.6-6.4-.1-12 3.3-24 6.7-36 10.2-4.2 1.2-8.3 3-12.5 4.6zm40.8-111.1c6.7 2.8 11.8 4.9 17 7.1 2.3 1 4.4 1.2 4.8-2.1 1.2-9.7 2.3-19.3 3.3-29 .1-1.3-.2-3.5-1-3.9-6.3-3.1-12.8-5.9-19.2-8.9-.5.5-1 1-1.6 1.5 1.2 2.1 2.4 4.1 3.5 6.3 1.2 2.4 3 5 2.9 7.5-.1 8-1.6 15.8-9.7 21.5zM32.8 418.4c0 .1.1-.3.1-.7 0-.4 0-.9-.2-1-5.6-4.3-3.4-7.8.7-11.9 4.1-4.1 7.5-8.8 11.4-13.6h-9.9c2.2 1.4 3.3 2.2 4.7 3.1-9.3 1.9-17.9 3.8-26.5 5.3-3.4.6-4.4 2.4-4.3 5.2.1 5.2.6 10.4.8 14.9 8.1-.4 15.4-.8 23.2-1.3zm149.9-46.8c17.5-5.5 33.3-10.4 50.3-15.8-2.9-.5-4.5-1-6-1.1-11.2-.5-22.4-.9-33.6-1.2-2.7-.1-5.5.2-8.1.7-1.1.2-2.9 1.6-2.9 2.4-.2 4.9.1 9.7.3 15zm-49 21.8c2 2.4 3.4 4.2 5.3 6.6-.7-3.9-1.2-6.7-1.9-11l-1.7-3.4c1.8-.2 3.6-.3 5.4-.5 1-.1 2.1-.2 3.1-.3 0-.2-.1-.4-.1-.5-12.7-1.5-25.3-3.1-37.7-4.6-1.8 4.1-3.5 8.1-5.4 12.4 7.9.4 15.3.5 22.7 1.2 3 .3 5.8 2 9.1 3.1 0 0 .5-1.1 1.2-3zm123.7-86.3c-4.4 5.8-6.1 12.8-13.9 9.5-.1-.1-.4.1-.5.2-3.9 5.6-7.1.8-10.6-.6-1.8-.8-5-2-5.7-1.3-3.9 4.2-8.8 3.6-13.7 3.8-2 .1-4 .4-6.1.6l-1.5 2.4c1.6.8 3.1 2 4.8 2.3 6 1.1 12.4 3.5 18.1 2.6 10.4-1.8 20.5-5.6 31.3-8.8-.6-3.3-1.2-6.1-2.2-10.7zM140.8 423.2c.5.7.9 1.3 1.4 2 11 0 22.1-.1 33.1 0 4 0 6.8-.9 6.2-6.7-7.1 0-14.3.1-21.5-.1-1.7 0-3.3-.8-5-1.1-3.4-.6-7-2.1-10-1.2-2 .6-2.9 4.6-4.2 7.1zm63-137.9c6.7.5 10.6-1.2 13-6.9 1.6-3.9 2.5-9.7 9.3-8.6.4.1 1-1.2 1.4-2 1.5-2.8 2.9-5.6 4.3-8.2-6.2 1-13.4 2.1-21.6 3.3 3.4 2.7 5.8 4.7 8.3 6.7-.2.4-.4.7-.6 1.1h-5.7c.2 1.6.4 3.1.7 5.4-2.3-1.7-3.8-2.8-6.2-4.6-1.1 4.9-1.9 9.1-2.9 13.8zm24.4-8.8c-4.2-2.2-6.5-.8-8.1 2.7-1.5 3.2-2.9 6.7-5 9.5-2.5 3.2-2.4 6.2-.9 9.6 1.6 3.6 4.3 4.6 6.5 4.1 3-2.9 5.2-4.9 7.4-7-1.7-1.6-3.5-3.7.7-4.5-1.2-1.5-2.3-2.9-3.5-4.3 1.5-1 3-1.9 4.4-2.8-5.8-3.2-6-4-1.5-7.3zm-49.4 127.6h-6.4c-6.7-.2-13.4.1-20-.7-5.7-.6-7.6.9-6.8 7.3h33.2v-6.6zm-71.3 40.8c2.4-1.7 5.1-2.6 5.8-4.3 3.5-8.5 6.6-17.1 9.4-25.8.7-2.3-.1-5.1-.3-7.7-4.9 3.6-7.5 6.9-5.9 12.7.7 2.7-1.1 7.4-3.4 9.3-5.2 4.3-7.7 8.5-5.6 15.8zM97.4 400c.2-.8.4-1.7.6-2.5-5.7-1.4-11.4-2.9-17.2-4.1-6.2-1.3-12.5-2.2-18.7-3.8-2.3-.6-4.3-5.6-6.8-1-2.4 4.3 2.4 4.5 4.6 6 .6.4 1.3.7 2 .8 11.7 1.6 23.6 3.1 35.5 4.6zm44.2 3.8c-7.8.9-13.3-1.2-18.5-5.7 7.4 5.7 5.1 13.2 4.3 20 3.4.5 6.1.8 9.2 1.2 1.5-4.7 3-9.4 5-15.5zm66-112.1c-.4.3-1.5 1.4-2.8 2.4-3.2 2.4-6.2 10.4-4.4 13.1 2.9 4.3 6.9 2.6 10.8 1.6 1.3-.3 2.7-.6 3.8-.8-2.6-5.7-5-11-7.4-16.3zM92.1 425.1c3.2 1.6 5.8 3 9 4.6 1.2-4.4 2.6-8.3 3-12.3.2-1.6-1.9-3.5-3-5.3-1.5 1.1-3.4 1.8-4.3 3.2-1.7 2.9-3 6.1-4.7 9.8zm167.6-155.8h-2l-3 32.7c.6.2 1.3.4 1.9.7 1.4-3.1 3.9-6.2 4-9.3.2-8-.6-16.1-.9-24.1zM148.3 396.4c.1.8.2 1.7.3 2.5l30-2.1c-10.2-1.8-20.5-4.6-30.3-.4zm-8.7-23.2h-24.9c0 .5-.1 1.1-.1 1.6 5.3.8 10.7 1.2 15.9 2.5 4.7 1.2 7.7.2 9.1-4.1zm38 17.1c.2-.5.5-1 .7-1.6-1.2-.7-2.4-2-3.6-2-5.8-.2-11.6-.1-17.4.2-.7 0-1.3 1.7-2.6 3.5 8.2-.1 15.5-.1 22.9-.1zm68.3-.4c-.1-.8-.3-1.6-.4-2.4-11.6 3.5-23.2 7-34.9 10.4.1.5.3.9.4 1.4 11.7-3.1 23.3-6.3 34.9-9.4zm-156.4-3.1c.5.5 1.1 1 1.6 1.6 1.5-1.1 3.7-2 4.5-3.5 1.4-2.7 2.1-5.8 3-8.8-1.4-.1-3.7-.7-4-.2-1.9 3.5-3.4 7.3-5.1 10.9zm123.1-17.6c.2.5.3 1 .5 1.6 12.9-4.2 25.8-8.5 38.7-12.7-.2-.5-.3-1-.5-1.5-12.8 4.2-25.7 8.4-38.7 12.6zM73.7 384c.6-.7 1.3-1.4 1.9-2.2-1.7-2-3.1-4.6-5.3-5.9-1.1-.7-3.6 1-5.5 1.7 0 .6.1 1.1.1 1.7 3 1.6 5.9 3.1 8.8 4.7zm176.8 47.5c.1.8.2 1.7.3 2.5l22.2-4.2c0-.4-.1-.8-.1-1.2-7.5 1.1-14.9 2-22.4 2.9zM56.1 405c0-.6.1-1.2.1-1.8-2.3-1.2-4.6-2.8-7-3.6-1.4-.5-3.2.2-4.8.4 1 1.1 1.7 2.8 2.9 3.2 2.8.9 5.8 1.2 8.8 1.8zm26.7-20.5c3-5.5 5.2-9.5 7.6-13.8-5.2-.1-7.5 4-7.6 13.8zm92.5-11c-.1-.3-.1-.6-.2-.9-5.7-.3-11.3-.6-17-1v1.9h17.2zm2.3 5.9V378c-6 .5-12 .9-18 1.5-.4 0-.6 1.3-.9 2.1 6.7-.8 12.8-1.5 18.9-2.2zm25.6 21.6c-.1-.4-.2-.9-.4-1.3-6 1.9-12.1 3.7-18.1 5.6.2.6.3 1.1.5 1.7l18-6z"/>
  <path d="M131.1 333.8c-2.7 1.1-4.2 1.7-5.7 2.4-2.9 1.4-3.3 2.8-1 5.8 3.4 4.3 5.9 9.3 8.8 14-.2.6-.5 1.2-.7 1.8-6.8-1-13.7-1.7-20.4-3.2-6.6-1.5-6.9-1.6-8.4 5-.1.5-.4 1-1.1 2.5-2.7-1.6-5.7-2.6-7.5-4.7-3.5-4-6.3-8.7-9.6-13-1.2-1.6-2.6-3.1-4.2-4.3-13.4-10.8-24.3-23.5-29-40.4-1.2-4.4-.9-9.7.1-14.2 1.4-6.1 4-11.8 6.3-17.6.5-1.3 2.2-2.2 3.3-3.3 1.4-1.4 3.5-2.6 3.9-4.2 2.6-10.3 19.4-21.5 30.2-19.8 10.9 1.7 22.3 2 31.6 8.8 5.4 4 10.2 8.8 14.9 13.6 9 9.1 17.6 18.7 26.8 27.6 3.4 3.3 8.1 5.3 12.1 8.1 1.2.8 1.9 2.2 2.9 3.3-.4.5-.8 1.1-1.2 1.6-2-1.2-4.3-2.1-5.9-3.7-4.5-4.4-14.4-5-19.9-.6 3.1 2.7 3.1 8.5 8.9 8.3-.2 1.6.1 3.8-.8 4.8-3.4 3.7-7.3 6.9-11 10.4-4.8-2.4-12.7 2.6-12.8 8.2 0 .8 1.5 2.1 2.6 2.4.7.2 1.9-.8 2.7-1.5 4.8-3.9 8.3-3.1 12.1 3.1-1.9.1-3.6.2-6.1.3-.5 2.4-1 4.9-1.5 7.5-.4 1.8-.2 4-1.3 5.1-2.8 3-5.9 5.8-9.4 7.7-.7.4-3.8-3.3-5.6-5.3-3.6-4.6-6.1-9.4-4.1-16.5zm-33.1-21c1.9-2.8 2.8-5.7 4.2-5.9 2-.3 4.4 1.1 6.6 1.9 1.2.4 2.3 1.1 3.5 1.7.2-1.2.9-2.5.5-3.4-3.1-7.4-10.4-8.3-15.2-2-.9 1.1-2.1 2.3-2.3 3.6-.4 3.8-1.6 8.2-.1 11.2 1.3 2.6 5.7 3.8 9 5.2.7.3 2.2-1.2 3.4-1.9-.7-.9-1.4-1.8-2.2-2.6-2.3-2.5-4.7-5-7.4-7.8zM211.4 185.8c-3 1.9-5.6 3.5-8 5.1 3.5 7.1 8.1-.8 10.9 1.2.8 2.5 1 5.7 2 6 1.9.5 4.4-.3 6.5-1.1 2-.8 3.7-2.3 5.8-3.7 2.1 5 5.7 4.2 8.4 1.5 3.3-3.2 5.8-7.2 8.9-11.2 1.2 5.2 4.6 5.7 9 4.2 4.9-1.6 7.2.6 6.5 5.3-.7 5-1.8 10-3.6 14.6-2.1 5.3-2.5 9.9.8 14.9 5.4 8.2 3 15.9-5.9 20.6-13 6.9-26.1 13.7-41.4 12.5-11.2-.9-21-5.5-29.6-12.9-3.2-2.8-7.1-5.3-11.1-6.6-4.9-1.7-6.9-4.1-5.4-9.5 1.7-.2 3.5-.5 6.5-.9-2.9-3.3-5.2-5.8-7.9-8.8 2.1-1.1 4.1-2 4.6-2.3 1.2-6.1 2.1-11.1 3.2-16.9-.8-2.4-1.9-5.9-2.8-8.8 10.3-14.5 24.2-10.1 38.3-5.5v-.1c-.1.5-.2 1-.4 1.6 1.4.4 2.8.6 4.7.8zm16.4 64.7c1.2-.3 3-.5 4.7-1.1 10.7-4 15.1-12.8 17.1-23.2.1-.6-3.2-2.8-3.9-2.4-10.8 6.4-22.2 10.4-35 10.4-2.6 0-5.8 1.9-3.2 4.8 5.2 5.8 11.1 11.1 20.3 11.5zm7-33.4c-2.2 1.2-3.9 1.7-4.9 2.8-.6.7-.1 2.4 0 3.6 2.1-.4 4.5-.1 6-1.2 1.8-1.3 4-3.9 3.8-5.7-.6-4.6-7.2-6.7-12.8-4 2.7 1.5 4.9 2.8 7.9 4.5zm-24.1 10.5c5.8-3.7 6.6-7.7 2.9-12.1-.9-1.1-3.5-2.1-4.4-1.6-1.3.8-2.8 3.2-2.5 4.5.7 3.1 2.5 5.9 4 9.2zm35.1-20.7c-.7.1-1.3.2-2 .3-.7 1.3-2.2 2.9-1.8 3.7 1.2 2.8-.8 8 4.7 7.6 1.2-.1 3.3-3.1 3-4.4-.6-2.5-2.5-4.8-3.9-7.2zm-35.3-2c.2-.6.4-1.3.6-1.9-2.3-.7-4.9-2.3-6.8-1.7-2 .6-3.5 3.2-5.7 5.5 4.8-.8 8.4-1.3 11.9-1.9zm28-5.1c2.5-.2 4.8-.3 7.1-.6 1.2-.2 2.4-.6 3.6-1-.8-1.1-1.3-2.6-2.3-3.2-3.7-2.1-6.2-.5-8.4 4.8zM184.6 400.3c13.7-4.4 27.2-9.4 41-13.2 13.4-3.6 26.5-7.5 39.2-12.8l-.6-1.8c-26.3 7.9-52.6 15.8-79 23.7-.1-.1-.5-.4-.5-.6-1.4-12.9-1.3-12.8 14.6-17.8 15.4-4.8 30.6-9.9 45.9-15 3.9-1.3 7.7-2.9 11.4-4.5 4.2-1.8 13.4 3.4 15.5 8.9 1.6 4.3-1.1 8.8-6.7 10.6-14.1 4.6-28.1 9.2-42.2 13.6-12 3.7-24.2 7-36.3 10.5-.6.2-1.3-.2-2-.3-.2-.5-.2-.9-.3-1.3zM186.6 414.4c4.1-1.5 8.2-3.3 12.4-4.6 11.9-3.6 23.9-7 36-10.2 2-.6 5.6-1 6.4.1 2.6 3.5 6.1 7.3 4.4 12.2-.5 1.3-3.1 2.3-4.9 2.7-14.5 3-29.1 3.8-43.9 1.9-3.3-.4-6.7-.1-10.1-.1 0-.7-.1-1.4-.3-2zM227.4 303.3c8.1-5.7 9.6-13.5 9.8-21.5 0-2.5-1.8-5.1-2.9-7.5-1-2.2-2.3-4.2-3.5-6.3.5-.5 1-1 1.6-1.5 6.4 2.9 12.9 5.7 19.2 8.9.8.4 1.2 2.6 1 3.9-1 9.7-2.1 19.4-3.3 29-.4 3.2-2.5 3-4.8 2.1-5.3-2.2-10.4-4.3-17.1-7.1zM32.8 418.4c-7.8.4-15.1.9-23.1 1.3-.3-4.5-.7-9.7-.8-14.9-.1-2.7.9-4.6 4.3-5.2 8.6-1.5 17.2-3.4 26.5-5.3-1.5-1-2.5-1.7-4.7-3.1h9.9c-3.9 4.7-7.3 9.5-11.4 13.6-4.1 4.1-6.3 7.6-.7 11.9.2.2.2.7.2 1-.1.4-.2.8-.2.7zM182.7 371.6c-.2-5.3-.5-10.2-.4-15 0-.9 1.8-2.2 2.9-2.4 2.7-.5 5.4-.8 8.1-.7 11.2.3 22.4.8 33.6 1.2 1.6.1 3.1.5 6 1.1-16.9 5.4-32.7 10.3-50.2 15.8zM133.7 393.4c-.8 1.9-1.2 3-1.2 2.9-3.3-1.2-6.1-2.8-9.1-3.1-7.4-.7-14.8-.8-22.7-1.2 1.9-4.3 3.6-8.3 5.4-12.4 12.3 1.5 25 3 37.7 4.6 0 .2.1.4.1.5-1 .1-2.1.2-3.1.3-1.8.2-3.6.3-5.4.5.8 1.6 1.7 3.2 1.7 3.4.7 4.3 1.2 7.1 1.9 11-1.8-2.2-3.3-4-5.3-6.5z" fill="#fff"/>
  <path d="M257.4 307.1c1 4.6 1.6 7.4 2.3 10.7-10.8 3.2-20.9 7-31.3 8.8-5.7 1-12.1-1.4-18.1-2.6-1.7-.3-3.2-1.5-4.8-2.3l1.5-2.4c2-.2 4-.5 6.1-.6 4.8-.2 9.7.4 13.7-3.8.7-.7 3.9.5 5.7 1.3 3.5 1.5 6.7 6.2 10.6.6.1-.1.4-.2.5-.2 7.7 3.3 9.5-3.7 13.8-9.5zM140.8 423.2c1.3-2.5 2.2-6.5 4.1-7 3-.8 6.7.7 10 1.2 1.7.3 3.3 1.1 5 1.1 7.2.1 14.4.1 21.5.1.7 5.8-2.1 6.7-6.2 6.7-11-.1-22.1 0-33.1 0-.4-.8-.8-1.5-1.3-2.1zM203.8 285.3c1-4.7 1.9-8.8 2.9-13.7 2.4 1.8 3.9 2.9 6.2 4.6-.3-2.3-.5-3.8-.7-5.4h5.7c.2-.4.4-.7.6-1.1-2.5-2-4.9-3.9-8.3-6.7 8.2-1.3 15.3-2.4 21.6-3.3-1.3 2.6-2.8 5.4-4.3 8.2-.4.7-1.1 2-1.4 2-6.8-1.1-7.6 4.6-9.3 8.6-2.4 5.6-6.4 7.2-13 6.8zM228.2 276.5c-4.6 3.3-4.3 4.1 1.5 7.2-1.4.9-2.9 1.9-4.4 2.8 1.1 1.4 2.3 2.9 3.5 4.3-4.2.8-2.4 2.9-.7 4.5-2.2 2.1-4.4 4.1-7.4 7-2.2.5-5-.5-6.5-4.1-1.5-3.4-1.5-6.4.9-9.6 2.1-2.8 3.5-6.2 5-9.5 1.7-3.5 4-4.9 8.1-2.6zM178.8 404.1v6.7h-33.2c-.9-6.4 1.1-8 6.8-7.3 6.6.7 13.3.5 20 .7 2 0 4-.1 6.4-.1zM107.5 444.9c-2.1-7.3.4-11.5 5.7-15.9 2.3-1.9 4.1-6.6 3.4-9.3-1.6-5.8 1-9.1 5.9-12.7.1 2.6 1 5.4.3 7.7-2.8 8.7-5.9 17.3-9.4 25.8-.8 1.9-3.6 2.7-5.9 4.4zM97.4 400c-11.9-1.5-23.7-3.1-35.6-4.6-.7-.1-1.4-.4-2-.8-2.2-1.6-7-1.7-4.6-6 2.6-4.5 4.5.5 6.8 1 6.2 1.5 12.5 2.4 18.7 3.8 5.8 1.2 11.5 2.7 17.2 4.1-.2.8-.4 1.7-.5 2.5zM141.6 403.8c-2 6.1-3.5 10.8-5 15.5-3.1-.4-5.8-.8-9.2-1.2.9-6.8 3.1-14.3-4.3-20 5.1 4.5 10.7 6.6 18.5 5.7zM207.6 291.7c2.4 5.3 4.8 10.6 7.4 16.3-1.1.2-2.5.5-3.8.8-3.8 1-7.9 2.7-10.8-1.6-1.8-2.7 1.2-10.7 4.4-13.1 1.3-1 2.4-2.1 2.8-2.4zM92.1 425.1c1.8-3.7 3-6.9 4.8-9.8.9-1.4 2.8-2.2 4.3-3.2 1.1 1.8 3.1 3.6 3 5.3-.4 4-1.9 7.9-3 12.3-3.3-1.6-5.9-3-9.1-4.6zM259.7 269.3c.4 8 1.1 16.1.9 24.1-.1 3.1-2.6 6.2-4 9.3-.6-.2-1.3-.4-1.9-.7l3-32.7h2zM148.3 396.4c9.8-4.2 20.1-1.4 30.3.4l-30 2.1c-.1-.8-.2-1.7-.3-2.5zM139.6 373.2c-1.4 4.3-4.4 5.3-9.2 4.1-5.2-1.2-10.6-1.7-15.9-2.5 0-.5.1-1.1.1-1.6h25zM177.6 390.3h-23c1.3-1.8 1.9-3.4 2.6-3.5 5.8-.3 11.6-.3 17.4-.2 1.2 0 2.4 1.3 3.6 2-.2.7-.4 1.2-.6 1.7zM245.9 389.9c-11.6 3.1-23.3 6.3-34.9 9.4-.1-.5-.3-.9-.4-1.4 11.6-3.5 23.2-7 34.9-10.4.1.8.3 1.6.4 2.4zM89.5 386.8c1.6-3.7 3.2-7.4 5.1-10.9.3-.5 2.6.1 4 .2-1 3-1.6 6.1-3 8.8-.8 1.5-2.9 2.4-4.5 3.5l-1.6-1.6zM212.6 369.2c12.9-4.2 25.8-8.4 38.8-12.6.2.5.3 1 .5 1.5-12.9 4.2-25.8 8.5-38.7 12.7-.2-.5-.4-1.1-.6-1.6zM73.7 384c-2.9-1.6-5.8-3.1-8.7-4.7 0-.6-.1-1.1-.1-1.7 1.9-.6 4.4-2.3 5.5-1.7 2.2 1.2 3.6 3.8 5.3 5.9-.7.7-1.4 1.5-2 2.2zM250.5 431.5c7.4-.9 14.9-1.9 22.3-2.8 0 .4.1.8.1 1.2l-22.2 4.2c0-.9-.1-1.7-.2-2.6zM56.1 405c-2.9-.5-6-.8-8.8-1.8-1.2-.4-2-2.1-2.9-3.2 1.6-.2 3.4-.9 4.8-.4 2.5.8 4.7 2.4 7 3.6 0 .6-.1 1.2-.1 1.8zM82.8 384.5c0-9.8 2.4-13.8 7.6-13.8-2.4 4.2-4.6 8.3-7.6 13.8zM175.3 373.5h-17.2v-1.9c5.7.3 11.3.6 17 1 .1.2.2.6.2.9zM177.6 379.4c-6.1.7-12.2 1.4-18.8 2.1.3-.8.6-2.1.9-2.1 6-.6 12-1 18-1.5-.1.5-.1 1-.1 1.5zM203.2 401l-18 6c-.2-.6-.3-1.1-.5-1.7 6-1.9 12.1-3.7 18.1-5.6.2.5.3.9.4 1.3z" fill="#fff"/>
  <path d="M375.1 229.5c4-3.7 6.9-6.2 9.5-9.1.9-1 1.3-2.9 1.2-4.4-.5-5.7-1.3-11-7.4-14.6-5.8-3.4-4.1-14.3 2.2-16.8 3.5-1.4 7.3-2.3 11-3 12.6-2.5 25.2-5.5 37.9-7 7-.9 14.6-.4 21.4 1.5 6 1.6 11.3 6 17 9.1 1 .6 2.4 1.1 3.5.9 15-2.3 29.9-4.9 44.9-7.2 5.7-.9 11.5-1.8 17.3-2 17.7-.7 30.3 8 38.3 23 4.4 8.2 4.8 17.7.3 26.2-5.4 10.2-11.9 19.8-17.6 29.9-.7 1.3-.5 3.7.2 5.2 3.2 6.3 3 12.3-1.3 18-2.1 2.8-4.5 5.2-8.8.3 0 5.4.5 9.7-.2 13.7-.4 2-2.8 4.3-4.9 5-3.2 1.1-6.5 0-6.6-4.2-.1-4.5.5-9 .8-13.8-2.6-.4-4.5.8-4.2 4.1 2.3 20.7 3.1 41.7 12.8 60.8 3.5 6.9 2.3 10.1-5.1 13.2-.8.3-1.7.7-2.5 1-8.1 2.5-8.4 3-7.8 11.3.5 6.7.8 13.4 1.2 20.1v1.1c.6 11.5.6 11.5-11.5 11.6-5.2 0-10.5.1-15.7.1-8.8 0-13.8-6.3-18.9-12-1.1-1.2-1.2-3.9-.6-5.5.4-1.1 2.8-2 4.4-2.1 3.8-.3 7.6-.1 11.6-.1.4-7.3.8-14.2 1.2-20.6-6.4-5-12.7-9.8-18.7-14.9-1-.9-.9-3.4-.9-5.2 0-1.3.8-2.5 1.2-3.8-1.7-.4-3.3-1-5-1.1-2.4-.1-4.8.3-7.2.1-2.1-.2-4.5-2.4-5.4 1.6-.1.4-1.3.8-1.9.7-6.3-1.1-12.6-2.3-19.2-3.5 10.5-5.4 21.2-4.4 31.8-3.1 1.9.2 3.7 1.1 5.5 1.8 4.8 1.9 9.8-.8 10.8-5.7.5-2.3 1.2-4.5 2.1-7.7-4.8-4-10-8.3-15.1-12.6-.1-.1-.3-.4-.4-.4-12.6.2-11.2-11.7-15.7-18.4-3.2-4.7-4.7-10.5-7.1-15.8-1.9-4.3-.7-7.9 2.1-11.1 2.2-2.5 5.3-4.4 7.3-7 2.9-3.7 5-2.2 6.7.7 4.3 7.3 8.2 14.9 12.5 22.1 1.4 2.3 3.8 3.9 5.6 5.8l8.1 8.7c.5.5 1.2.8 2.2 1.5 3-4.3 7.2-7.6 5-13.7-.4-1-.2-2.8.5-3.6 4.3-4.9.1-5.4-3.1-6-9.6-1.8-18.5-4.9-25-13 2.7-2.9 5.4-5.8 9.1-9.8-5.6-2.4-10.1-4.1-14.3-6.1-3.3-1.5-6.2-3.2-3.9-7.9.5-1-1.5-3.1-2-4.8-.8-2.7-2.1-5.7-1.7-8.3.2-1.3 4.1-1.8 6-3 1.3-.8 3-2.5 2.9-3.6-.5-4.2-1.8-8.4-2.7-12.4-9.4-.9-11.8-7.4-6.6-17-13.8-7.5-28-9.9-43.2-4.7-7 2.4-14.2 4.2-21.5 5.8-5 1.1-10.3 1.3-15.3 2.3-1.4.3-3.5 2.5-3.3 3.5.3 1.8 1.9 3.7 3.5 4.8.4.3 2.7-1.8 4-2.8.5-.4.9-1 1.7-2 3.1 2.9 6 5.8 9.7 9.2.1-2.6.2-4.2.3-6.4 3.4 2.2 6 3.9 9.7 6.2-.3-2.6-.5-4.1-.9-7.2 3.8 2.5 6.6 4.3 9.5 6.1.5-1.6 1-3.2 1.6-5.1 2.9 2.6 5.3 4.8 8.2 7.4.4-6 1.4-6.5 6.1-4.2 2.9 1.4 5.9 2.5 8.9 4.7-12.2 3.1-24.5 2.8-37.6 1.1 1.1 2.3 1.9 4 2.9 6.2h-10.4c.9-1.8 1.5-2.9 2.2-4.1-.2-2.2-7.8-4.2-10.3-2.8 1.1 4.5 2.6 8.9 3.2 13.5.3 2.1-.5 4.8-1.8 6.5-8.6 11-3.3 17.4 5 22.5 10.2 6.3 21.9 9.8 34.2 8.7 4.2-.4 8.3-2.1 12.4-3.2-.4-.4-.7-.9-1.1-1.3.4-1.9.5-3.9 1.3-5.6 2.4-4.4 5.7-8.5 7.6-13.1 4.2-10 3.9-19.8-3.1-28.7-2.2-2.8-4-5.8-.5-9 14.4 20.2 14.2 26.4.7 49.1 4.7 1.8 9.4 3.5 14.7 5.5-2.7 2.5-5.6 4.2-9.6 4.2-10.9-.1-13.7 3.9-10.1 14 2.9 8.2 4.9 16.7 8.4 24.6 3.4 7.7 1 14.1-6.7 17.9 1.6 3.9 3.2 7.9 4.9 11.8 2.1 4.8.5 8.4-4.3 9.7-5.8 1.5-6.1 5.7-6.2 10.3 0 1.2-.2 2.4-.3 3.6l-1.5.3c-.8-3.5-1.5-6.9-2.3-10.3-5.8.7-11.7 2.1-17.5 1.9-5.7-.2-11.4-1.9-17.6-3.1-.2 4.1-.4 7.6-.6 11.1-.6.1-1.2.2-1.7.3-.4-2.6-1.5-5.2-1-7.6 1-4.9-1.4-7.4-5-9.6-5.9-3.4-6.3-5.5-2.5-11.1.7-1 1.5-2.1 2.4-2.9 2.9-2.7 3.4-5.4 0-8.2-1.5-1.3-2.9-2.7-4.3-4.2-1.2-1.3-3.4-2.8-3.4-4.1.4-10-7.6-18.5-5.3-28.8.4-1.8.9-3.7 1.5-5.5.6-2 1.4-3.9 2.1-5.9.5-1.4.9-3.8 1.6-3.9 1.5-.2 3.8.2 4.8 1.3 3.2 3.7 6.5 7.4 8.7 11.7 1.9 3.8 3.9 4.1 7.2 2.5 2.6-1.3 5.3-2.2 8.1-3.4-.4-2.2-.7-4.4-1.1-6.7-.3.4-.5.8-.8 1.2-6.8-4.2-13.5-8.6-20.3-12.7-7-4.3-8.1-10.7-6.7-18.1-2 1.3-3.8 2.4-5.9 3.8 3.8 5.7 1 10.1-2.9 14.6-3.8 4.4-6.5 9.8-10.6 13.7-4.6 4.3-10.4 7.5-16.1 11.5 3.9 8.4 8 17.2 12 26.1.6 1.3.9 2.7 1.3 4.1 2.6 9.5 2.1 8.9-5.7 15.2-3.3 2.7-4.1 8.6-6.6 14.2 15.2-2.1 28.6-3.3 42 .1-13.2 3.7-26.8 3.8-40.2 3.8-.5 8.1-.9 15.5-1.4 23-.5.2-1 .3-1.6.5 2.6 1.7 5.2 3.5 7.8 5.2 4.3 3 4.6 6.3-.1 8.6-3.2 1.6-7.6 2.8-10.9 2.1-7.9-1.9-15.5-5.6-23.4-7.6-4.2-1-8.9.3-13.3.5-5.1.2-10.3 1-15.4.5-2.7-.3-5.4-2.6-7.5-4.6-.7-.6-.1-3.5.8-4.6 1.2-1.5 3.2-3.1 4.9-3.2 6.6-.3 6.3-4.8 6.3-9.2-.1-5.7-.4-11.4-.7-17-.1-1.4-.7-2.8-1-4.2-1.5-5.9-2.9-11.8-4.5-17.7-.4-1.5-.7-3.4-1.8-4.4-7.9-8-6.7-17.3-1.5-26.3.8-1.4 1-3 1.6-4.6 4.5 1.2 8.8 2.6 13.2 3.4.6.1 1.7-2.4 2.4-3.4-6.1-3.7-12-6.9-17.5-10.8-2.5-1.8-4.8-4.4-6.3-7.2-2.7-4.8-4.9-10-7.1-15.1-.5-1.3-.9-3-.4-4.2 3.5-8.9 5.9-18.6 11.1-26.4 12-18 34.2-26.8 56.5-20.6 7.3 2 14.7 5.1 21.2 9 10.9 6.5 18.1 15.6 14.9 30.8zm-97.3 5.7c1.7 5.8 2.5 12.1 5.2 17.5 5.3 10.7 16.4 13.3 26.6 16.2 6.5 1.9 13.8 2.8 20.4 2 7.7-.9 15.4-3.8 22.6-6.7 6.2-2.5 11.5-6.6 13.7-13.6.6-2.1 3-3.6 4.1-5.6 1.1-2 2.8-5.9 2.2-6.4-3.8-2.9-1.9-6-1.6-9.4.4-3.2.2-6.5-.3-9.7-1.5-10.5-9.9-15.3-17.9-19.7-11.3-6.2-23.2-7.3-36.3-5.9-21.1 2.3-38.5 20.7-38.7 41.3zm233.7 42.7c3.3-1.5 7.2-2 8.6-4.1 3.7-5.7 6.9-11.9 9-18.4 1-3-1-6.9-1.7-10.4-7.7 0-7.7 0-9.2-5.1 2.2 0 4.4.3 6.4-.1 4.3-.7 6.1-3.5 5.8-7.7-.3-4.5-3.7-4-6.5-3.5-3 .5-5.3.6-7.4-2.2-1.1-1.4-3.2-2.5-5-2.8-5.8-1.1-3.4-4.9-2.7-7.9.2-1.1 1.1-2 1.8-3.2-21.1-1.3-31.6-6.8-33.1-17.5l4.5-1.5v-2c-4-.2-7.9-.5-11.5-.7 1.5 2.8 3.4 5 3.8 7.3 1.1 7.3 1.7 14.7 2.3 20.9 2.2 1.5 4.9 2.4 4.9 3.4.1 3.9-.6 7.8-1 12-7.1-1.9-3.6-7.1-5.1-9.6h-10c2.2 1.6 3.5 2.2 4.2 3.2 1 1.4 2.6 3.8 2.1 4.5-3.4 5-.5 5.9 3.6 7.3 5.3 1.8 11.1 3.4 14.5 8.5-2.8 3.7-5.4 7-9 11.8 7.1 2 12.9 3.8 18.8 5.2 9.9 2.3 9.9 2.1 11.9 12.6zm-179.7 56.5c.5 0 1.1 0 1.6-.1.4.4 1 .7 1 1.2.6 6.2 1.1 12.4 1.6 18.6.2 2.2-.8 5.2 3.1 5.2 3.3-.1 4.8-1.9 4.9-5.2.2-6.3.4-12.7 1-19 .5-5-2-6.1-6.1-5.4-12.1 1.9-24 5.7-37.3.9 1 7.3 2 13.5 2.7 19.7.4 3.8 3.9 7.1 7.6 6.7 4.5-.5 3.6-3.9 3.4-6.7-.1-2.9-.9-5.8-1.1-8.6-.1-1.4.6-2.8.9-4.1.7 0 1.4.1 2.1.1.3 4.6.5 9.1.8 13.7.4 5.8 7.9 10.9 13.2 8.8.7-.3 1.4-1.6 1.4-2.5-.1-5.3-.4-10.5-.6-15.8-.3-2.7-.2-5.1-.2-7.5zm150.8 9.3c7 4.8 12.8 9.9 19.6 13.2 14.1 6.8 26.5-1.6 40.3-5.2-2.2-4.1-3.9-7.2-5.5-10.4-2-4-4.8-3.5-8.1-1.7-11.7 6.3-23.2 6.8-34.1-1.6-2.9-2.2-5.1-2.5-7.4.4-1.4 1.6-2.9 3.1-4.8 5.3zm42.4-62.4c-4.9 2.2-9 3.7-12.8 5.8-4.8 2.6-11.3 4-9.6 12.6 1.7-1.3 3.3-2.1 4.4-3.4 4.1-5.3 10.9-4.8 13.6 1.2 1.4 3.1 2.3 6.5 3 9.8 1.2 5.4-2.4 12.5-7 15.9-6.3 4.7-12.6 8.8-21.2 7.9 1.7 1.6 3.3 2.4 4.7 3.4 9.7 7 19.8 6.1 30 1.7 2.4-1 3.6-2.3 2.6-5.8-2.2-7.4-3.3-15.1-4.5-22.8-1.2-8.7-2.1-17.5-3.2-26.3zm-100.6-13c-.5-.6-.9-1.2-1.4-1.9-7 2.6-14.1 5.1-21.1 7.9-1 .4-2.1 2.3-2.1 3.4.2 11.2.7 22.4 1.1 34.3 5.8-2.7 10.7-5.5 16-7.3 7.4-2.6 7.5-2.4 6.7-9.9-7.3-2.2-8.7-6-8.6-13.3.2-6.8 3-10.8 9.4-13.2zm-92.1 46c-.7-2.3-.9-4.9-2.2-6.4-7.7-8.8-8.1-15-1-23.9.2-.2.1-.7.2-1.5-1.3.1-2.5 0-3.5.4-4.4 1.8-8.5 4.1-13 5.5-3.2 1-3.7 2.8-3.5 5.6.5 6.5.9 13 1.7 19.4.4 2.9 1.6 5.7 2.6 8.8 6.3-2.7 12-5 18.7-7.9zm148.1-28.4c-3.4-6.4-6.6-12.8-10.2-19.1-1.3-2.3-3.6-4.1-5.5-6.1-2.2 2.3-5.3 4.2-6.5 6.9-1 2.2-.4 5.6.4 8.1 1.1 3.4 3 6.6 4.5 9.9 2.6 5.6 5.2 11.3 7.8 16.9.7-.1 1.4-.2 2.1-.2 0-1.4-.1-2.9 0-4.3.1-1.9-.3-4.2.6-5.6 1.7-2.4 4.2-4.1 6.8-6.5zm-172.6 34.3c.1-2.7.4-4.6.3-6.5-.3-3.4-1.6-6.8-1.2-10.1 1.4-10.1-2.7-16.9-11.4-21.4-1-.5-1.9-1.3-3.6-2.5-.2 3-.3 5.3-.6 7.6-.7 6.3 2.3 12.5 0 19-.6 1.6 1.7 5.1 3.6 6.5 3.6 2.8 7.8 4.6 12.9 7.4zm197.8.6c-1.1-5.3-1.8-8.8-2.6-12.3-.3-1.3-.5-2.9-1.3-3.8-3-3.1-6.7-5.6-9.4-8.9-4.1-5-10.4-6.2-15.6-2.3 3.9 15.1 14.3 22.9 28.9 27.3zm-85.1-45.6c3.1.6 7.7-1.9 5.1 4-.7 1.6-.6 3.7-.4 5.5.2 1.9.7 4 1.8 5.4 1.9 2.6 5.3 4.5 6.5 7.4 2 5 6 5.8 10.2 6.7 1 .2 3.4-1.2 3.4-1.6-.6-4.2-.7-8.7-2.6-12.3-2.1-4.2-6.2-7.3-8.7-11.3-4.2-6.7-7-7.7-15.3-3.8zM395.6 304c0-7.3-.9-14.6.2-21.6 1.7-10.4-4.8-15.7-10.4-21.3 0 8 .6 16.2-.2 24.2-1 11.5-.8 12.7 10.4 18.7zm-60.8-8.4c.7 7.8 5.6 12.6 11.9 15.8 2.7 1.3 6.2.9 9.3 1.3-.1-3 0-6-.4-8.9-.1-1-1.5-1.8-2.4-2.6-3.5-3.2-7.5-6.1-10.5-9.7-5-5.9-6.7-6.4-13.4-2.1 1.5.7 2.9 1.4 5 2.3-2.3 1.5-3.9 2.5-5.9 3.8 2.3.1 4.2.1 6.4.1zm175.9 73.7c0 3.2-1.1 7.1.3 9.5 1.4 2.3 5.2 3.6 8.2 4.4 1.2.3 4.2-1.8 4.4-3.1.7-3.3.2-6.9.2-10.7-4.8-.1-8.8-.1-13.1-.1zm3.5-73.6c-2.2 2.8-4.2 4.2-4.1 5.3.4 4.6 1.2 9.3 2.5 13.8.3 1 3.4 2 5 1.7 1.1-.2 2.2-2.6 2.4-4.1.3-2.1 0-4.4-.7-6.4-1.2-3.1-3-6-5.1-10.3zm49.9-59.3c10.6-11.2 6.5-38.1-3.9-39.5.2.9.1 2.2.7 2.5 7.5 4.2 7.2 10.9 5.9 18-1.1 6.1-1.7 12.2-2.7 19zM320 327.5c7.5-1.1 14.9-2.3 22.4-3.4 2.3-.3 5.4-.1 4.6-3.7-.5-2-2.4-3.7-3.7-5.7-6.6 8.8-15.7 8.9-23.3 12.8zm173.6 65.9c0 .5-.1 1.1-.1 1.6 5.4 4.3 24.3 5 29.3.6-10-.8-19.6-1.5-29.2-2.2zM317 361.6c-9.9-3.8-19.2 3.1-29 .9 9.8 6 19.4.4 29-.9zm81.6-36.8c-1.7-2-3.7-4.4-5.9-7 .3-.5 1-1.8 1.8-3.1-.3-.2-.5-.4-.8-.6-1.9 2.4-3.9 4.7-6.2 7.6 5.3 5.6 12.4 7.2 18.9 10 .3-.5.6-1 .8-1.6-2.8-1.7-5.7-3.5-8.6-5.3zm-46.2 44.7c-4.8-.9-9.8-1.2-14.3-2.8-5.3-1.9-10.5-2.9-14.8-1.1 8.3 4 21.9 6.5 29.1 3.9zm180.1-107.9c-5.4 2.8-8.3 12-5.9 14.7.6.7 2.6 1.2 3.2.8 1.1-.7 2-2.2 2.4-3.5.3-.9-.6-2.2-.6-3.2.2-2.6.5-5.2.9-8.8zM348 290.9c1-6.3-2.2-10.1-5.2-12.8-1.3-1.1-5.9 1.5-8.5 2.3 4.5 3.5 8.7 6.7 13.7 10.5zm86.4 36.7c1.2 3.5 5 1.7 7.5.4 1.3-.7 1.8-4.2 1.6-6.3-.2-2.7-.6-6-5.9-6.2 10.6 8.9-3.6 6.2-3.2 12.1zm116.5-49c3.8-2.5 2.7-6.6 1.5-10.5-.4-1.4-1.5-2.6-2.3-4-1.1.7-2.9 1.1-3.3 2.1-.4 1.1.2 2.8.7 4.1.9 2.6 2.1 5.2 3.4 8.3zm-244-3.9c-2.1 3.1-3.4 5-4.6 6.8 3.9 4.1 7.5 5.6 12.7 1.2-2.3-1-4.1-1.7-6.3-2.6-.2-.7-.7-2.2-1.8-5.4zm110.5 49.2c6.8 6.1 7.2 6.1 10.8.8-5.1-5.3-5.1-5.3-10.8-.8zm-8.8 8.2c5.2.3 9.5.6 15.4.9-9.3-7.4-10.1-7.5-15.4-.9zm-109.5 0c-1.4 6.9-2.3 13.9 1 20.4.5-.1 1.1-.1 1.6-.2-.9-6.8-1.7-13.5-2.6-20.2zm138.1-12.7c-3.9-5.4-7.1-1.6-11.2-.3 2.3 1.9 4 3.4 5.8 4.9 2-1.6 3.5-3 5.4-4.6zm84.9-135.2v1H546v-1h-23.9zm-114 145.4c1.8-2.5 4-4.5 3.6-5.5-.6-1.6-2.7-2.9-4.5-3.6-.6-.2-3.1 2.2-2.9 2.9.5 2 2.1 3.5 3.8 6.2zm103.2 57.7c2.6 4.1 6.2 4 9.4 3.7 1.2-.1 2.3-1.8 4.3-3.7h-13.7zm31.5-180.6c.2-4.2.2-4.2-9.8-3.8 1 7.3 7.5-.3 9.8 3.8zm-35.7 160.1c-5.8 2.6-6.2 4.3-1.3 10.3.4-3.2.8-6.4 1.3-10.3zM324.2 279c-.1-.3-.1-.7-.2-1h-10.2c.8 1.9 1.4 3.4 2 5 3-1.4 5.7-2.7 8.4-4zM506 389.4c-.1-.6-.1-1.2-.2-1.8-6.1.3-12.1.6-18.2.9 0 .3 0 .6.1.9H506z"/>
  <path d="M412.5 342.7c3.6.3 7.1.8 10.6 1 5.4.3 9.8 2.3 12.8 7 3.8 6 8.4 11.8 11.1 18.3 3.1 7.5.9 15.3-1.8 22.7-1.3 3.5-7.2 5.3-11.7 4-1.9-.5-3.9-.9-5.8-1.5-1.7-.6-3.3-1.5-5.3-2.5 7.1 10.7 15.2 19.7 24.9 27.1.4.3.9.8 1.1 1.2 2.5 6.4 7.6 10.1 13.1 13.8 4.3 2.9 3.2 10.5-2 13.2-2.9 1.6-6.5 1.9-9.8 2.8-.3-.5-.6-1-.8-1.6 1-2.3 2.1-4.6 2.6-5.9-11 0-21.7.1-32.4-.1-1.5 0-2.9-1.3-4.4-1.7-1.4-.3-3.2-.8-4.3-.2-6.9 3.7-14.3 2.3-21.4 1.4-6-.8-7.3-3.7-6.2-9h-19.7c-.1-.3-.2-.7-.3-1 2.7-1.1 5.5-2.1 9.1-3.5-6.3.8-12 1.5-17.6 2.3-.1-.4-.2-.9-.2-1.3 4.1-.9 8.2-1.8 12.2-2.7h-11.1c0-.5-.1-1-.1-1.5 6.1-.7 12.1-1.4 18.2-2 1-.1 2.8-.1 3.1.4 3.6 5.9 5.9 1.3 7.9-1.1 2.6-3.2 5-4.8 9.3-3.2 3.1 1.2 6.4-2.7 4.7-6.7-3-7 2.7-12 2.3-18.6-2.7-.5-6-.8-8.9-1.8-2.1-.7-4.3-2.2-5.5-4-2.5-3.9-1.1-5.7 3.5-6.4 2.7-.4 7.1-1.4 7.5-2.9 1.1-4.4-3.5-5.1-6.5-6.5-3.3-1.5-6.6-3-9.8-4.7-7.3-3.9-8-11.6-9.7-18.5-.2-.9 1.1-2.7 2.1-3.1.9-.4 2.7.2 3.6 1 8.1 7 20.1 7.4 28.6.8 2.3-2 4.9-3.5 7-5zm-8.5 11.8c3.4 3.9 8.2 5.8 5.1 12.7-3-4.1-5.2-7.1-7.7-10.5-6.2 2.7-12.7 2.4-19-.7-1.1-.5-2.6-.2-3.9-.3.2 1.4-.1 3.1.6 4 1.4 1.6 3.2 3 5.1 3.9 4.5 2.3 9.3 4.1 13.6 6.7 6.4 3.8 6.7 10.4.7 14.5-1.7 1.1-3.9 1.4-5.9 2.1 3.4 1.3 6.8 2 10.1 1.8 4.9-.4 7.5.4 4.2 6.1 3.8 1 7.7 4.2 9.8-1 1.3-3.4 1.2-7.5 1.3-11.2.4-11.4 3.9-20.7 16.3-24.9-3.8-4.6-7.2-8.3-12.5-7-1.5 3.5-2.6 6.2-3.7 8.8l-1.5-.6v-10.5c-4.6 2.2-8.3 4-12.6 6.1zm19 77.6c-.2.5-.5.9-.7 1.4 2 1 3.9 2.7 6 2.9 4 .4 8.1.5 12-.1 2.3-.3 5.6-1.7 6.3-3.4 1.4-3.3-2.5-10.3-5.3-10.9-10.4-2.2-16.5-8.6-18.9-18.5h-20.6c2.1 4.1 3.8 7.3 6 11.6-1.3 6-3.7 13-10.6 18.2-3.3-6.2-6.4-3.5-9.8-.4 3.1 1.1 5.8 1.9 8.5 3.6 7.1 4.4 13.9.6 16.3-7.5.4-1.2.6-2.5.9-3.7 1-3.8 2-7.5 2.7-10.1 4.3 1.7 7.9 3.1 12.5 5-4.2 1.3-7.6 2.4-12.1 3.8 5.7 5.7 13.9 1.5 18.9 8.2-4.8-.1-8.5-.1-12.1-.1zM505.4 116.2c3.8-4 7.4-7.8 11.1-11.8-4.1-1.2-7-2.3-10-2.8-2.7-.5-5.9-1.4-8.2-.5-3.9 1.6-5.1-.3-6.2-3-1.9-4.4-3.8-8.5-9.2-9.7-1.1-.2-2.8-2.4-2.6-3.5.2-1.2 1.9-2.7 3.3-3.2 1.4-.6 3.2-.2 4.9-.2 3.8-.1 7.4-.5 7.4-5.4 6.7 2.1 13.1 4.2 19.9 6.4.5 2.2 1.3 5.4 2 8.4 2.7-2.4 4.5-5.3 6.7-5.6 1.5-.2 3.4 3.3 5.5 5.5-.4 0 .2.1.3 0 2.5-6.9 8.4-9 14.7-11.2 3-1 5.3-4.2 7.4-5.9 5.8 2.7 12.2 5.7 18.9 8.9-5.1 6.5-11.8 12.1-8.8 22.3-6.9 1.2-16.1-6.1-20.1 5.1-2.7-1.2-4.9-2.3-7.6-3.5 1.7 5.1-1.4 7.1-6.7 8.6 3 4.8 5.5 8.8 8.2 13.2-1.7 1.3-4.7 2.6-5.5 4.7-1.3 3.1-1 6.8-1.4 10.3-.2 1.2-.6 2.3-1 3.5-1.1-.4-2.5-.4-3.3-1.1-2.6-2.2-4.8-5-7.6-7-1.5-1.1-3.9-1.9-5.8-1.7-3.6.4-4.4-.7-3.1-3.8 2.5-6.3.4-11.6-3.2-17zm27.7-17.8c4.1 4.2 7.5 5.8 12.4 1.8 2-1.6 5.6-1.1 8.5-1.7 1.4-.3 3.5-.4 4-1.3 1.7-3.1 2.9-6.6 4.5-10.4-11.6-.3-20.7 4.2-29.4 11.6zm-8 38.5c1.5-3.7 4.3-7.1 3.9-10-.6-4.6-3.2-8.9-5.3-13.2-.5-1.1-2.1-1.7-3.3-2.2-.3-.1-1.7 1-1.7 1.5-.6 8.3-1.1 16.7 6.4 23.9zm-33.3-50.3c2.2 5.5 3.7 10.8 11.2 8.9 1.5-.4 3.4.8 5.1 1.1 2 .5 4 .9 6.6 1.4-3.8-7.7-15-13.2-22.9-11.4zm64.5-5.4c-2.5 0-4.2-.5-5.5.1-3.6 1.6-7.1 3.5-10.4 5.5-3.3 2-6.5 4.2-9.8 6.4.4.6.8 1.3 1.1 1.9 7.6-4.3 15.2-8.6 24.6-13.9zm-40.8 31.1c-8.7 4.1.2 11.2-2.4 16.3-.2.3 1.4 1.6 2.4 2.7v-19zM437 76.5c3.6 12.1 16.3 10.3 23 17-8.3 14.5-5.9 32.4-13.2 47.2-.7.1-1.5.2-2.2.3-2.7-3.3-5.8-6.4-7.9-10-.8-1.4-.2-4.6 1-6 .7-.8 3.7.1 5.6.5.8.2 1.5 1 3.1 2.1 2-7.6 4-14.8 6.1-22.9-4.4-2-8.8-4.3-13.5-5.9-.9-.3-3.5 1.5-3.8 2.7-1.8 7.5-3.2 15.1-4.7 22.7-.7 3.6-4.5 5.5-7.7 3.7-4.2-2.3-8.1-10-7.6-14.8.4-4.1 2.8-4.2 5.1-1.9 1.9 1.8 3 4.5 5.4 6.3 6.2-13.7 9.6-26.9 11.3-41zm14.7 21.1c.2-.6.5-1.2.7-1.9-4.1-1.8-8.3-3.6-12.4-5.5-.2.5-.5 1-.7 1.5 4.1 2.1 8.3 4 12.4 5.9zM53.5 139.4c1.2 7 2.3 14.1 3.8 21.1.6 3 2.4 5.7 2.9 8.6.4 2.3.2 5.1-.9 7.1-1.6 3-4.4 3.5-7.3 1-3.5-3-7.1-5.9-10.3-9.2-.9-.9-.9-4-.1-4.8 1.3-1.3 3.7-2.1 5.5-2 2 .1 4 1.5 6.8 2.6-.8-4.2-1.4-7.9-2.3-11.5-2.1-9.1-4.3-18.1-6.3-27.2-.4-1.6-.6-3.2-.4-4.8.1-.8 1.1-2.1 1.8-2.2.7-.1 2.1.9 2.4 1.6 2.2 7 6.5 11.1 14.2 11.2 1.2 0 2.4 1.6 3.6 2.5-1 1.2-1.8 3-3.1 3.4-3 1.3-6.2 1.7-10.3 2.6zM408.3 234c7 1 14.8 2 22.6 3.4 3.5.7 4.5 3.1 2.7 6.6-3.5 6.8-11.7 9.9-19.3 8.1-6.2-1.4-11.2-3.1-12.9-10.3-1.5-7.2-1.5-7.8 6.9-7.8zM431 232.5c-4.8-4-4.6-8.9.4-13.8 4.6 3.7 4.6 8.5-.4 13.8zM417.9 219.4c-2.3 2.2-3.5 3.3-4.7 4.5 1.7 1.2 3.5 2.5 5.9 4.1-4.2 2.7-7.4 2.3-10.2-.1-.8-.7-1.1-3-.6-4.1 1.6-3.1 3.8-5.6 9.6-4.4zM399.6 217c.6.1.9 0 1 .1 3.4 2.8 4.4 8.1 1.7 10.2-.9.7-3.9.6-4.4-.1-3-4-.6-7.2 1.7-10.2zM429.6 208.8c1.5-.3 3.5-1.2 4.5-.6 2.1 1.3 3.7 3.4 5.6 5.1-.4.6-.9 1.1-1.3 1.7-3-1.5-5.9-2.9-8.9-4.4-.1-.5 0-1.1.1-1.8zM98 312.8c2.7 2.9 5.1 5.3 7.4 7.8.8.8 1.5 1.7 2.2 2.6-1.1.7-2.6 2.2-3.4 1.9-3.2-1.4-7.7-2.6-9-5.2-1.5-3-.3-7.5.1-11.2.1-1.3 1.4-2.5 2.3-3.6 4.9-6.3 12.2-5.3 15.2 2 .4.9-.3 2.3-.5 3.4-1.2-.6-2.3-1.3-3.5-1.7-2.2-.8-4.6-2.3-6.6-1.9-1.4.1-2.4 3-4.2 5.9zM227.8 250.5c-9.2-.4-15.1-5.7-20.2-11.6-2.6-2.9.6-4.8 3.2-4.8 12.7 0 24.2-4 35-10.4.6-.4 4 1.8 3.9 2.4-2 10.4-6.4 19.2-17.1 23.2-1.8.7-3.6.9-4.8 1.2zM234.8 217.1c-3-1.7-5.2-3-7.9-4.5 5.6-2.7 12.2-.5 12.8 4 .2 1.8-2 4.4-3.8 5.7-1.5 1.1-4 .9-6 1.2 0-1.2-.6-2.9 0-3.6 1-1.1 2.7-1.6 4.9-2.8zM210.7 227.6c-1.5-3.3-3.3-6.1-3.9-9.1-.3-1.3 1.2-3.7 2.5-4.5.8-.5 3.4.5 4.4 1.6 3.6 4.3 2.7 8.3-3 12zM245.8 206.9c1.4 2.4 3.3 4.7 3.8 7.3.3 1.2-1.9 4.3-3 4.4-5.5.3-3.5-4.9-4.7-7.6-.4-.8 1.2-2.4 1.8-3.7.8-.2 1.5-.3 2.1-.4zM210.5 204.9c-3.5.6-7.1 1.1-12 1.9 2.2-2.3 3.7-4.9 5.7-5.5 2-.5 4.5 1.1 6.8 1.7-.1.6-.3 1.3-.5 1.9zM238.5 199.8c2.2-5.3 4.7-6.9 8.4-4.8 1 .6 1.6 2.1 2.3 3.2-1.2.3-2.4.8-3.6 1-2.3.3-4.6.4-7.1.6z"/>
  <path d="M277.8 235.2c.2-20.6 17.6-38.9 38.7-41.2 13.1-1.4 25-.3 36.3 5.9 8 4.4 16.4 9.2 17.9 19.7.5 3.2.6 6.5.3 9.7-.4 3.3-2.2 6.5 1.6 9.4.6.4-1.1 4.3-2.2 6.4-1.1 2-3.4 3.5-4.1 5.6-2.2 7-7.5 11.1-13.7 13.6-7.3 3-14.9 5.8-22.6 6.7-6.7.8-13.9-.1-20.4-2-10.1-3-21.3-5.6-26.6-16.2-2.7-5.5-3.6-11.8-5.2-17.6zm54.8 31.6c1.6 0 3.3.3 4.9 0 4.6-.9 9.2-2.7 10-7.8.8-5.4-3.8-7.5-8.1-8.8-8.1-2.4-16.2-5.5-24.8-2.9-2.3.7-4.9 2.6-5.8 4.6-1.3 3-.5 6.2 2.9 8.4 6.5 4.3 13.4 6.4 20.9 6.5zm-21.1-62.5c-.2 11.5 4.1 12.4 17.4 8.5-1.1-2.6-2.1-5-3.2-7.5-.3.5-.6 1.1-.9 1.6h-6.9c-.1 1.1-.1 2.5-.3 4.7-2-2.4-3.6-4.4-6.1-7.3zm12.1 38.5c.3-.3 1.6-1.2 2.8-2.2-1.1-.7-2.3-1.5-3.4-2.2l-4.5-3c1.4-1.2 2.7-2.4 4.1-3.5.2-.2.9.1 1.1-.1.8-.8 1.6-1.7 2.4-2.6-1-.6-1.9-1.7-3-1.8-4.1-.4-8.7 3.9-8.9 8-.3 4 3.3 7.3 9.4 7.4zm17.1-1.1c1.2-1.1 2.7-1.8 2.7-2.5.3-3 .2-6.1-.1-9.1 0-.3-3.5-.8-3.6-.5-1 2.7-2.1 5.5-2.2 8.3 0 1.1 2 2.4 3.2 3.8zm-35.8-15c-.9-.3-1.7-.5-2.6-.8-1.2 2.7-3.1 5.3-3.3 8.1-.1 1.6 2.4 3.4 3.8 5 1.2-1.6 3.3-3.1 3.5-4.8.3-2.4-.8-5-1.4-7.5zm45.2-4.5c.1-1 1-3.5.4-3.8-2.7-1.7-5.7-3.2-8.7-4.1-.8-.3-2.3 1.5-3.5 2.3 1 .8 1.8 1.9 2.9 2.4 2.6 1 5.4 1.9 8.9 3.2zm-52.1-3.3c2.9.2 5.5.6 8.1.6 1 0 2.1-.9 3.1-1.3-.5-.9-.8-2.1-1.5-2.6-2.9-2.1-8.3-.1-9.7 3.3zM511.5 277.9c-2-10.4-2-10.3-11.8-12.6-5.9-1.4-11.7-3.2-18.8-5.2 3.6-4.8 6.2-8.1 9-11.8-3.4-5.1-9.2-6.6-14.5-8.5-4.1-1.4-7-2.4-3.6-7.3.5-.7-1.1-3.2-2.1-4.5-.7-1-2-1.6-4.2-3.2h10c1.5 2.6-2.1 7.7 5.1 9.6.4-4.2 1.2-8.1 1-12 0-1-2.7-1.9-4.9-3.4-.6-6.2-1.2-13.6-2.3-20.9-.4-2.4-2.3-4.5-3.8-7.3 3.6.2 7.5.5 11.5.7v2l-4.5 1.5c1.5 10.6 12 16.2 33.1 17.5-.7 1.2-1.6 2.1-1.8 3.2-.6 3.1-3.1 6.8 2.7 7.9 1.8.3 3.9 1.4 5 2.8 2.1 2.8 4.4 2.8 7.4 2.2 2.7-.5 6.2-1 6.5 3.5.2 4.2-1.5 7.1-5.8 7.7-2.1.3-4.2.1-6.4.1 1.5 5.2 1.5 5.2 9.2 5.1.7 3.5 2.7 7.4 1.7 10.4-2.1 6.4-5.3 12.6-9 18.4-1.5 2.1-5.4 2.6-8.7 4.1zM331.8 334.4c0 2.4-.1 4.9 0 7.3.2 5.3.5 10.5.6 15.8 0 .8-.7 2.2-1.4 2.5-5.3 2.1-12.8-3-13.2-8.8-.3-4.6-.5-9.1-.8-13.7-.7 0-1.4-.1-2.1-.1-.3 1.4-1 2.8-.9 4.1.2 2.9 1 5.8 1.1 8.6.1 2.8 1 6.2-3.4 6.7-3.7.4-7.1-2.9-7.6-6.7-.7-6.2-1.7-12.4-2.7-19.7 13.3 4.8 25.3 1 37.3-.9 4.2-.7 6.6.4 6.1 5.4-.6 6.3-.9 12.6-1 19-.1 3.4-1.6 5.2-4.9 5.2-3.8.1-2.9-2.9-3.1-5.2-.5-6.2-1-12.4-1.6-18.6 0-.4-.7-.8-1-1.2-.3.2-.9.2-1.4.3zM482.6 343.7c1.9-2.1 3.4-3.7 4.8-5.4 2.4-2.9 4.5-2.6 7.4-.4 10.9 8.3 22.5 7.9 34.1 1.6 3.4-1.8 6.1-2.3 8.1 1.7 1.6 3.2 3.3 6.3 5.5 10.4-13.9 3.6-26.3 12-40.3 5.2-6.8-3.2-12.6-8.3-19.6-13.1z" fill="#fff"/>
  <path d="M525 281.3c1.1 8.9 2 17.6 3.3 26.3 1.2 7.7 2.3 15.4 4.5 22.8 1 3.6-.2 4.8-2.6 5.8-10.2 4.4-20.4 5.3-30-1.7-1.4-1-3-1.9-4.7-3.4 8.5.9 14.9-3.2 21.2-7.9 4.6-3.4 8.2-10.5 7-15.9-.7-3.3-1.6-6.7-3-9.8-2.7-6-9.5-6.5-13.6-1.2-1 1.3-2.7 2.1-4.4 3.4-1.7-8.6 4.8-10.1 9.6-12.6 3.7-2.1 7.8-3.7 12.7-5.8zM424.4 268.3c-6.4 2.4-9.2 6.4-9.4 13.2-.2 7.3 1.3 11 8.6 13.3.9 7.6.8 7.3-6.7 9.9-5.2 1.9-10.2 4.6-16 7.3-.4-11.9-.9-23.1-1.1-34.3 0-1.2 1.1-3 2.1-3.4 7-2.8 14-5.3 21.1-7.9.5.7.9 1.3 1.4 1.9zM332.3 314.3c-6.7 2.8-12.4 5.2-18.8 7.9-.9-3.1-2.2-5.9-2.6-8.8-.8-6.4-1.1-12.9-1.7-19.4-.2-2.7.3-4.6 3.5-5.6 4.5-1.4 8.7-3.7 13-5.5 1-.4 2.3-.3 3.5-.4-.1.8 0 1.3-.2 1.5-7.1 8.9-6.7 15.1 1 23.9 1.4 1.6 1.5 4.2 2.3 6.4zM480.4 285.9c-2.7 2.5-5.1 4.2-6.7 6.5-.9 1.4-.5 3.7-.6 5.6-.1 1.4 0 2.9 0 4.3-.7.1-1.4.2-2.1.2-2.6-5.6-5.2-11.3-7.8-16.9-1.5-3.3-3.5-6.5-4.5-9.9-.8-2.6-1.4-5.9-.4-8.1 1.2-2.7 4.3-4.6 6.5-6.9 1.9 2 4.1 3.8 5.5 6.1 3.5 6.2 6.8 12.7 10.1 19.1zM307.8 320.2c-5.1-2.8-9.3-4.6-12.8-7.3-1.9-1.4-4.2-4.9-3.6-6.5 2.3-6.5-.7-12.7 0-19 .3-2.3.3-4.6.6-7.6 1.6 1.2 2.5 2 3.6 2.5 8.7 4.5 12.8 11.3 11.4 21.4-.4 3.2.9 6.7 1.2 10.1 0 1.8-.3 3.7-.4 6.4z" fill="#fff"/>
  <path d="M505.6 320.8c-14.6-4.4-25-12.2-29-27.3 5.2-3.9 11.6-2.7 15.6 2.3 2.7 3.3 6.4 5.8 9.4 8.9.9.9 1 2.5 1.3 3.8.9 3.5 1.6 6.9 2.7 12.3zM420.5 275.2c8.3-3.9 11.1-2.8 15.3 3.9 2.5 4 6.6 7.1 8.7 11.3 1.8 3.6 2 8.1 2.6 12.3.1.4-2.4 1.8-3.4 1.6-4.2-.9-8.2-1.8-10.2-6.7-1.1-2.9-4.5-4.7-6.5-7.4-1.1-1.5-1.6-3.6-1.8-5.4-.2-1.8-.3-3.9.4-5.5 2.6-6-2.1-3.5-5.1-4.1zM395.6 304c-11.2-6-11.4-7.2-10.3-18.6.8-8.1.2-16.3.2-24.2 5.6 5.5 12 10.9 10.4 21.3-1.2 6.9-.3 14.2-.3 21.5zM334.8 295.6h-6.4c2-1.3 3.6-2.3 5.9-3.8-2.1-1-3.5-1.7-5-2.3 6.7-4.3 8.5-3.8 13.4 2.1 3.1 3.6 7 6.5 10.5 9.7.9.8 2.2 1.6 2.4 2.6.4 2.9.3 5.9.4 8.9-3.1-.4-6.7 0-9.3-1.3-6.4-3.2-11.2-8.1-11.9-15.9zM510.7 369.3h13.1c0 3.8.4 7.4-.2 10.7-.3 1.4-3.2 3.4-4.4 3.1-3-.8-6.8-2-8.2-4.4-1.4-2.3-.3-6.1-.3-9.4zM514.2 295.7c2.2 4.3 4 7.2 5.2 10.3.7 2 1 4.3.7 6.4-.2 1.5-1.3 3.9-2.4 4.1-1.6.3-4.7-.6-5-1.7-1.3-4.5-2.1-9.1-2.5-13.8-.2-1.2 1.7-2.5 4-5.3zM564.1 236.4c.9-6.7 1.6-12.9 2.7-19 1.3-7.1 1.7-13.8-5.9-18-.5-.3-.4-1.6-.7-2.5 10.5 1.4 14.5 28.3 3.9 39.5zM320 327.5c7.5-3.9 16.7-4 23.2-12.8 1.4 2 3.2 3.7 3.7 5.7.8 3.6-2.3 3.3-4.6 3.7-7.4 1.1-14.8 2.2-22.3 3.4zM493.6 393.4c9.6.7 19.2 1.5 29.2 2.3-5.1 4.3-24 3.7-29.3-.6 0-.7.1-1.2.1-1.7zM317 361.6c-9.6 1.2-19.2 6.8-29 .9 9.7 2.2 19.1-4.6 29-.9zM398.6 324.8c3 1.9 5.8 3.6 8.6 5.4-.3.5-.6 1-.8 1.6-6.5-2.8-13.6-4.4-18.9-10 2.4-2.9 4.3-5.3 6.2-7.6.3.2.5.4.8.6-.8 1.3-1.5 2.6-1.8 3.1 2.2 2.5 4.2 4.9 5.9 6.9zM352.4 369.5c-7.2 2.6-20.7.2-29.1-3.9 4.3-1.8 9.5-.8 14.8 1.1 4.5 1.6 9.5 1.9 14.3 2.8zM532.5 261.6c-.4 3.6-.7 6.2-.9 8.8 0 1.1.9 2.3.6 3.2-.4 1.3-1.3 2.8-2.4 3.5-.7.4-2.6-.1-3.2-.8-2.4-2.7.5-11.9 5.9-14.7zM348 290.9c-5-3.9-9.2-7.1-13.7-10.6 2.5-.7 7.2-3.4 8.5-2.3 2.9 2.8 6.2 6.6 5.2 12.9zM434.4 327.6c-.4-5.9 13.8-3.2 3.2-12.1 5.2.2 5.7 3.5 5.9 6.2.2 2.1-.3 5.6-1.6 6.3-2.5 1.3-6.3 3.1-7.5-.4zM550.9 278.6c-1.3-3.1-2.4-5.6-3.4-8.2-.5-1.3-1.1-3-.7-4.1.4-1 2.1-1.4 3.3-2.1.8 1.3 1.9 2.5 2.3 4 1.2 3.8 2.2 7.9-1.5 10.4zM306.9 274.7c1.1 3.2 1.6 4.7 1.8 5.4 2.3.9 4 1.6 6.3 2.6-5.2 4.4-8.7 3-12.7-1.2 1.2-1.8 2.5-3.7 4.6-6.8zM417.4 323.9c5.7-4.5 5.7-4.5 10.8.8-3.6 5.3-4 5.3-10.8-.8zM408.6 332.1c5.3-6.5 6.1-6.5 15.4.9-5.9-.4-10.2-.6-15.4-.9zM299.1 332.1c.9 6.7 1.7 13.4 2.6 20.2-.5.1-1.1.1-1.6.2-3.3-6.5-2.4-13.5-1-20.4z" fill="#fff"/>
  <path d="M437.2 319.4c-1.8 1.6-3.4 3-5.4 4.7-1.8-1.5-3.5-3-5.8-4.9 4.1-1.4 7.3-5.2 11.2.2zM522.1 184.2H546v1h-23.9v-1zM408.1 329.6c-1.8-2.7-3.3-4.3-3.8-6.1-.2-.7 2.3-3.1 2.9-2.9 1.8.7 3.9 2 4.5 3.6.4 1-1.8 2.9-3.6 5.4zM511.3 387.3H525c-2.1 1.8-3.1 3.5-4.3 3.7-3.3.3-6.8.5-9.4-3.7zM542.8 206.7c-2.3-4.1-8.8 3.5-9.8-3.8 10-.4 10-.4 9.8 3.8zM507.1 366.8c-.5 3.9-.9 7.1-1.3 10.3-4.9-6-4.5-7.7 1.3-10.3zM324.2 279c-2.7 1.3-5.5 2.5-8.4 3.9-.6-1.5-1.2-3.1-2-5H324c.1.4.2.8.2 1.1zM506 389.4h-18.3c0-.3 0-.6-.1-.9 6.1-.3 12.1-.6 18.2-.9.1.6.1 1.2.2 1.8zM404 354.5c4.3-2.1 8-3.9 12.8-6.2v10.5l1.5.6c1.1-2.7 2.3-5.4 3.7-8.8 5.3-1.3 8.7 2.4 12.5 7-12.4 4.2-15.9 13.5-16.3 24.9-.1 3.8 0 7.8-1.3 11.2-2.1 5.3-6 2-9.8 1 3.3-5.6.8-6.4-4.2-6.1-3.3.3-6.7-.5-10.1-1.8 2-.7 4.2-1 5.9-2.1 6-4.1 5.8-10.7-.7-14.5-4.3-2.6-9.1-4.3-13.6-6.7-1.9-1-3.7-2.3-5.1-3.9-.7-.9-.4-2.6-.6-4 1.3.1 2.8-.2 3.9.3 6.3 3.2 12.8 3.4 19 .7 2.5 3.4 4.7 6.5 7.7 10.5 3-6.8-1.9-8.7-5.3-12.6zM423 432.1h12c-5-6.7-13.3-2.4-18.9-8.2 4.5-1.4 7.9-2.5 12.1-3.8-4.7-1.9-8.2-3.3-12.5-5-.7 2.6-1.7 6.4-2.7 10.1-.3 1.2-.5 2.5-.9 3.7-2.4 8.1-9.3 11.9-16.3 7.5-2.8-1.7-5.4-2.6-8.5-3.6 3.4-3.1 6.5-5.7 9.8.4 6.9-5.2 9.3-12.2 10.6-18.2-2.2-4.3-3.9-7.5-6-11.6h20.6c2.4 9.9 8.6 16.3 18.9 18.5 2.8.6 6.7 7.6 5.3 10.9-.7 1.8-4 3.1-6.3 3.4-3.9.6-8 .5-12 .1-2.1-.2-4-1.9-6-2.9.3-.4.5-.8.8-1.3zM533.1 98.4c8.7-7.3 17.8-11.9 29.4-11.6-1.6 3.8-2.7 7.3-4.5 10.4-.5.9-2.6 1-4 1.3-2.9.6-6.5.1-8.5 1.7-4.9 4-8.3 2.3-12.4-1.8zM525.1 136.9c-7.4-7.2-6.9-15.6-6.5-23.9 0-.6 1.4-1.7 1.7-1.5 1.2.5 2.8 1.2 3.3 2.2 2.1 4.3 4.7 8.6 5.3 13.2.4 3-2.3 6.4-3.8 10zM491.8 86.6c7.8-1.9 19 3.6 22.9 11.4-2.6-.6-4.6-1-6.6-1.4-1.7-.4-3.6-1.5-5.1-1.1-7.5 1.9-9-3.4-11.2-8.9zM556.3 81.2c-9.3 5.3-17 9.6-24.6 13.9-.4-.6-.8-1.3-1.1-1.9 3.3-2.1 6.4-4.4 9.8-6.4 3.4-2 6.9-3.9 10.4-5.5 1.2-.6 3-.1 5.5-.1zM515.5 112.3v19c-1-1.1-2.6-2.4-2.4-2.7 2.6-5.1-6.4-12.2 2.4-16.3zM451.7 97.6c-4.1-1.9-8.3-3.8-12.4-5.8.2-.5.5-1 .7-1.5 4.1 1.8 8.3 3.6 12.4 5.5-.2.6-.4 1.2-.7 1.8z" fill="#fff"/>
  <path d="M332.6 266.8c-7.6-.1-14.5-2.2-20.9-6.4-3.4-2.3-4.2-5.4-2.9-8.4.9-2 3.6-3.9 5.8-4.6 8.6-2.7 16.7.4 24.8 2.9 4.3 1.3 8.9 3.4 8.1 8.8-.8 5.1-5.4 6.9-10 7.8-1.5.2-3.2-.1-4.9-.1zM311.5 204.3c2.4 2.9 4.1 4.9 6.1 7.3.1-2.2.2-3.6.3-4.7h6.9c.3-.5.6-1.1.9-1.6 1 2.5 2.1 5 3.2 7.5-13.2 3.9-17.5 3-17.4-8.5zM323.6 242.8c-6.1-.1-9.7-3.4-9.5-7.4.2-4.1 4.8-8.4 8.9-8 1 .1 2 1.2 3 1.8-.8.9-1.5 1.8-2.4 2.6-.2.2-.8-.1-1.1.1-1.4 1.1-2.7 2.3-4.1 3.5l4.5 3c1.1.8 2.3 1.5 3.4 2.2-1.1.9-2.3 1.9-2.7 2.2zM340.7 241.7c-1.2-1.4-3.2-2.7-3.2-3.9.1-2.8 1.2-5.6 2.2-8.3.1-.3 3.6.2 3.6.5.3 3 .3 6.1.1 9.1 0 .8-1.5 1.5-2.7 2.6zM304.9 226.7c.5 2.5 1.6 5.1 1.4 7.6-.2 1.7-2.2 3.2-3.5 4.8-1.4-1.7-3.9-3.5-3.8-5 .2-2.8 2.1-5.4 3.3-8.1.9.2 1.8.5 2.6.7zM350.1 222.2c-3.5-1.3-6.2-2.1-8.9-3.3-1.1-.5-1.9-1.6-2.9-2.4 1.2-.8 2.6-2.6 3.5-2.3 3.1 1 6 2.4 8.7 4.1.5.4-.3 2.8-.4 3.9zM298 218.9c1.4-3.5 6.7-5.5 9.7-3.4.7.5 1 1.7 1.5 2.6-1 .5-2.1 1.3-3.1 1.3-2.5.1-5.1-.2-8.1-.5z"/>
  <text transform="translate(3.567 58.692)"><tspan x="0" y="0" font-family="Peanuts" font-size="45">“A VERY MERRY CHRISTMAS</tspan><tspan x="147.9" y="54" font-family="Peanuts" font-size="45">TO YOU ALL”</tspan></text>
  <text transform="translate(481.56 449.874)" font-family="Peanuts" font-size="25" letter-spacing="2">SCHULZ</text>
</svg>
