<svg xmlns="http://www.w3.org/2000/svg" viewBox="0 0 595.3 469.8" xml:space="preserve">
  <path fill="#fff" stroke="#000" stroke-miterlimit="10" d="M0 0h595.3v469.8H0z"/>
  <path d="M0 469.8V0h595.3v469.8H0zm589.9-137.9h1.8c0-28.1.1-56.3 0-84.4-.1-16.3-.5-32.6-.7-48.8-.2-15.9-.1-31.8-.5-47.7-.3-14.8-1.4-29.6-1.5-44.5-.3-31.5-.2-63-.1-94.6 0-4.7-1.9-6.5-6.6-6.5-17-.1-34-.4-51-.6-38.7-.5-77.4-1-116.2-1.4-12.4-.1-24.8-.1-37.2-.1-27.9 0-55.8 0-83.8.1-23.2.1-46.4.6-69.7.8-20.2.1-40.4.1-60.7 0-30.1-.2-60.3-.7-90.4-.9-19.6-.1-39.2 0-58.8.1C7.4 3.5 6.1 5 6 12.2c-.1 26.7-.2 53.5-.5 80.2-.1 10.5-.9 20.9-1 31.4-.1 32.7 0 65.4 0 98.1v36.2c0 29.8-.1 59.7-.2 89.5-.1 24.1-.2 48.2-.4 72.4-.1 12.1-.2 24.1-.5 36.2-.1 5 2.3 7 6.9 7.1 10.4.3 20.8 1 31.2 1 23.6.1 47.3 0 70.9 0h136.7c16.2 0 32.4.3 48.6.4 25.6.1 51.2 0 76.7 0 18 .1 36.1.3 54.1.5 28.4.3 56.7.8 85.1.9 10.8.1 21.7-.9 32.5-.7 11.3.2 22.6 1.1 33.9 1.9 7.6.5 9.7-1.1 9.7-8.6.2-42.2.2-84.5.2-126.8z" fill="#fff"/>
  <path d="M589.9 331.9v126.9c0 7.5-2.1 9.2-9.7 8.6-11.3-.8-22.6-1.7-33.9-1.9-10.8-.2-21.7.8-32.5.7-28.4-.2-56.7-.6-85.1-.9-18-.2-36.1-.5-54.1-.5-25.6-.1-51.2 0-76.7 0-16.2 0-32.4-.4-48.6-.4-45.6-.1-91.1 0-136.7 0-23.6 0-47.3.1-70.9 0-10.4-.1-20.8-.7-31.2-1-4.6-.1-7-2.1-6.9-7.1.3-12.1.4-24.1.5-36.2.2-24.1.3-48.2.4-72.4.1-29.8.1-59.7.2-89.5V222c0-32.7-.1-65.4 0-98.1 0-10.5.9-20.9 1-31.4L6 12.2C6 5 7.4 3.5 14.6 3.5c19.6-.1 39.2-.2 58.8-.1 30.1.2 60.3.7 90.4.9 20.2.1 40.4.2 60.7 0 23.2-.2 46.4-.7 69.7-.8 27.9-.2 55.8-.1 83.8-.1 12.4 0 24.8 0 37.2.1 38.7.4 77.4.9 116.2 1.4 17 .2 34 .5 51 .6 4.7 0 6.6 1.8 6.6 6.5-.1 31.5-.2 63 .1 94.6.1 14.8 1.2 29.6 1.5 44.5.3 15.9.3 31.8.5 47.7.2 16.3.6 32.6.7 48.8.1 28.1 0 56.3 0 84.4-.7-.1-1.3-.1-1.9-.1zM468.8 11.2C476.4 22.4 484 33 491 43.9c6.4 9.9 7.7 21.7 4.4 32.2-5.1 16.7-18.6 27.1-34.2 33.6-10.5 4.4-21.7 7.1-32.8 9.5-10.8 2.3-21.8 4-32.8 4.6-14.2.8-28.5.3-42.7.3-2.8 0-4.1 1-3.6 4 .8 5 1.5 10 2.1 15 .1 1.3 0 3.3-.8 3.8s-3.1.1-3.9-.7c-3.5-3.7-7.7-7.1-9.9-11.6-4.1-8.3-9.7-10.9-18.9-10.7-22.3.5-44.5-.2-66.8-.6-17.5-.3-35-.8-52.4-1.6-14.2-.7-28.4-1.7-42.6-2.9-20-1.7-40.1-3.5-60.1-5.6-13.3-1.4-26.1-4.8-37.9-11.4-15.7-8.8-22.6-28-14.4-43.7C51.9 42.3 61.1 27 76.9 17.2c3.2-2 6.2-4.4 9.3-6.6l-.3-1.8H17.6c-4.3 0-5.6 1.8-5.6 6-.3 59.2-.7 118.4-1 177.6-.1 23 .1 46.1 0 69.1 0 25.9-.1 51.9-.2 77.8-.1 14.7-.2 29.4-.4 44.1 0 3 1 4.6 4.3 3.6 3.4-1 6.9-1.8 10.8-2.8.1-1 .5-2.6.2-3.9-2-8.3 6.3-15.8 13.8-16 9.5-.2 18.9-1.1 28.4-1.1 4.6 0 7.1-1.9 9-5.6 2.3-4.7 4.3-9.7 7-14.1 7.9-13 16.2-25.8 24.3-38.7l19.2-30.6c1.5-2.4 1.8-4.3-1.3-5.6-3.2-1.4-6.3-2.8-9.3-4.6-15-9.2-26.7-21.2-32.1-38.5-.6-1.9-2.1-3.9-3.7-5.1-7.4-5.6-8.2-11.2-3.1-19.2 1.8-2.8 2.8-6.6 2.9-10 .5-19.2 7.3-35.9 22-47.8 13.8-11.1 29.7-18.1 48.7-17.1 24.9 1.4 45.7 10.4 63 28.2 10.6 10.9 17.1 24.3 20.4 38.7 2.4 10.6 2.4 21.9 2.4 32.9 0 3.3-3.6 6.6-5 10.1-5.2 13.4-14 23.7-26.9 29.9-7.7 3.7-15.9 6.3-24.3 9.5 2.5 6.6 2 15.1 10.9 18.5 2.5 1 4.7 2.8 6.9 4.4 4.6 3.4 5.5 3 7.8-2.2 2.8-6.3 6-12.5 9.6-18.4.9-1.4 3.9-1.6 5.9-2.3.5 1.7 1.4 3.4 1.3 5.1-.3 4.9-.8 9.8-1.5 14.7-1.5 10.2-2.4 20.5-8 29.8-4 6.6-6.8 14-10.1 21.1 2.9 1.4 5.1 2.3 7.1 3.4 5 2.8 6.9 8.9 5.1 13.5-3.5 9.3-6.6 18.7-10 28.6 2.3.8 4.2 1.3 6 2 5.1 1.7 10.4 3.2 15.3 5.4 1.9.9 4.4 3.7 4.1 5.3-.3 2.1-2.6 4.6-4.7 5.7-10.4 5.6-21.8 3.4-32.8 2.8-7.6-.4-15.2-2.4-22 2.8-1.3 1-2.9 1.6-4.5 2-22.2 5.1-43.3 1.9-63.6-8-3.2-1.5-6.4-3.5-9.8-3.8-11.9-1-24.1-1-36.1-2.3-7-.8-14.7-.5-20.4-6.4-.9-.9-2.7-1.2-4.1-1.1-6.4.3-12.8.6-19.1 1.4-1.3.2-3.2 2.2-3.4 3.5-.5 5.1-.3 10.2-.4 15.3-.2 11.6-.4 23.2-.4 34.8 0 2.7.1 5.4 4.3 5.5 13 .2 25.9 1.1 38.8 1.1 39.3 0 78.7-.5 118-.5 23.2 0 46.3.4 69.5.6 48.8.4 97.6.8 146.4 1 35.9.2 71.9-.2 107.8.1 28.5.2 57.1 1 85.6 1.7 4.1.1 4.4-1.8 4.4-5-.1-20.8 0-41.6 0-62.5 0-8-.8-16.1-.6-24.1.3-17.4 1.3-34.8 1.5-52.3.2-16.3-.5-32.5-.5-48.8 0-12.5.7-25.1.8-37.6.1-13.5-.3-27-.5-40.6-.1-10.4-.1-20.7-.3-31.1-.2-9.1-.8-18.2-1.1-27.3-.3-10.5-.3-21.1-.4-31.7-.2-15.3-.5-30.5-.4-45.8 0-12.3.4-24.7.7-37 .1-3.2-1.1-4.8-4.4-4.8-24.9-.4-49.8-.8-74.6-1.2-9.9-.2-19.8-.7-29.6-.8-2.4 0-4.7.7-6.8 1.1zM344.4 132.7V127c0-9.1.1-9.4 9.2-9.2 24.3.5 48.5-.6 72.4-5.3 8.9-1.8 17.8-3.6 26.4-6.3 6.4-2.1 12.6-5.4 18.5-8.7 16-9 23.3-22.6 19-40.7-4.2-17.5-15.1-30.8-28-42.7-1.8-1.7-4.7-3-7.1-3-14.9-.3-29.8-.2-44.7-.2-21 0-42.1.1-63.1.1-48.3 0-96.6.1-144.8 0-14.2 0-28.4-.3-42.6-.4-18.1-.2-36.1-.3-54.2-.7-5.1-.1-9.7.5-13.8 3.8-4.7 3.7-9.5 7.1-14.4 10.5C63.7 33.6 55 46.6 49.8 62c-1.9 5-2.4 11-1.6 16.4 1.9 13.5 12.3 19.9 23.8 22.7 16.1 4 32.7 6.8 49.2 8.6 21.4 2.4 42.9 3.5 64.3 4.7 17.4 1 34.9 1.6 52.3 2.2 8.8.3 17.6.1 26.4.1h38.6c15.7.1 32.7-3.2 40.9 16.1 0 .1.3 0 .7-.1zm-254.6 69c-6.6-.5-8.4.6-8.9 6.8-.4 4.1 1.2 7.6 5.5 9.6 1.6.7 3.5 2.4 3.8 3.9 3.2 14.4 11.5 25.4 23.3 33.3 6.7 4.5 14.6 7.8 22.5 10 9.5 2.7 19.4 4.3 29.2 5.2 10.7 1.1 20.5-3.1 30.6-6.1 16.1-4.9 26.1-15.2 31.8-30.6 8.2-22.1 2.9-42.7-8-62.1-12.5-22.4-32.3-35.1-57.7-37.9-10.1-1.1-20.8-1.8-30.5.5-17.1 4-31 14.1-38.3 30.7-5.1 11.5-9.5 23.5-3.3 36.7zM140.5 344c5.7 5.1 12.6 8.7 15.3 14.4 2.9 6 7.5 7.8 12.1 10.6 2 1.2 4.3 2 6.2 3.3 3.3 2.3 5.9 1.6 7.7-1.8 2.2-4.2 4-8.5 6.3-12.7 7.2-13.2 14.5-26.4 21.6-39.6.6-1.1.1-3.9-.8-4.5-11.6-7.9-23.3-15.5-35.1-23-1.3-.8-4.5-1.2-4.8-.7-1 1.9-2.3 4.8-1.5 6.4 1.8 3.8 1.2 6.8-.8 10.2-1.6 2.8-2.3 6.1-3.9 8.9-2.5 4.2-4.7 10-8.6 11.8-8.6 3.6-9.3 12.1-13.7 16.7zm17.2-38.6c-6-2.9-6.3-3.8-1.4-8-11.4 1.7-14.9 11.7-22.2 16.5-7.5 5-14.7 10.3-22.1 15.5-.4-.3-.7-.5-1.1-.8 1.2-2.3 2.3-4.6 3.5-7-7.2-1-8.2-.1-8.3 6.5-.1 3.1-.1 6.2-.1 9.3-.1 4.6 2.3 6.6 6.8 6.6 6.6-.1 13.2-.1 19.8-.2 1.3 0 3.3-.4 3.9-1.3 3.1-5.4 5.9-11 8.9-16.5.7-1.2 1.8-2.5 3-3.1 1.4-.7 3.2-.6 5.7-1-2.5-1.6-4.1-2.6-7.3-4.5 4.1-1.5 6.7-2.5 9.3-3.5-1.8-1-3.6-2-6.5-3.5 3.2-2 5.4-3.4 8.1-5zm-36.3 84.2c6.7 0 13.3.1 19.8-.1 1.3 0 3.4-1.3 3.7-2.4 1.9-7 4.2-14 4.8-21.2.3-3.2-2.5-7.5-5.1-9.9-3.3-3.1-7.1-.7-10.3 1.8-9.7 7.9-14.9 17.8-12.9 31.8zm-84.5-3c9.2 1.5 17.1 3.3 25.1 4 8.3.7 16.8.5 25.2.6 7.9.1 15.8 0 23.7 0v-1.6H88.6c-1.4 0-3.6.3-4.2-.5-3.3-4.4-7.9-3.5-12.3-3.7-3.6-.2-7.3-.3-10.8-1.2-9.3-2.2-18.5-4.8-27.7-7.3-1.7 7.6 3 15.7 12.8 18.1 11 2.7 22.4 4.2 33.7 5.6 8.3 1 16.8.8 25.1 1.2 4.6.2 5.6-2.2 4.8-6.6h-5c-15.4 0-30.8.3-46.2-.2-7.7-.4-14.9-3-21.9-8.4zM142.1 292c-.8.5-1.6.9-2.4 1.4-3-4.4-6-8.9-10-14.8-7 12.3-13.6 23.7-20.5 35.8 4.4-.4 7.4-.9 10.4-.8 5.2.1 9.3-1.5 13.1-5.3 4.8-4.9 10.5-8.9 15.6-13.5.7-.7 1.2-2.9.7-3.4-2.7-3-5.7-5.8-8.6-8.6-.3.2-.6.5-1 .7.8 2.8 1.8 5.7 2.7 8.5zm30.1 116.5c-8.5-2.2-16.4-7.5-25.8-3.7-2.2.9-5.6 1.6-7.3.6-6.6-3.8-13.6-4.1-20.8-4-3.9.1-5.9 1.3-4.4 5.4 19.4 4.4 38.4 13.9 58.3 1.7zm9.9-25.6c5.3.8 10.7 2 16.1 2.2 2 .1 5.1-1.6 5.8-3.3 2-4.6 3.1-9.6 4.1-14.5.2-1.2-1.1-3.6-2.2-4-3.8-1.4-10 1.8-12.5 5.2-3.5 4.8-4.3 12-11.3 14.4zM37.5 369.4c11.7 7.1 31.1 11 38.8 9.6-1.3-3-2.5-6.4-4.3-9.5-.7-1.2-2.5-2.6-3.9-2.6-5.5-.1-10.9.2-16.4.7-4.7.4-9.5 1.2-14.2 1.8zm134.1 31.7c17 8.1 34.5 6.7 52.2 3.4-5.8-2.1-12.4-5.1-17.7-3.6-9.7 2.8-17-3-25.5-4.3-4.8-.7-7.3-1.1-9 4.5zm-3.8-120.9h-22.5c6.1 4.9 8.7 12 16.8 12.4 1.8-3.8 3.5-7.5 5.7-12.4zm-8.4 116.2c3.4 3.4 6.3 3.4 8.8-.5 3-4.8 5.3-10.1 8.2-15.9-3.6-.7-6.1-1.2-8.8-1.7-1.9 7 4.5 16.9-8.2 18.1zm-71-46.3c.3.4.6.9.8 1.3 3.3-1 6.7-1.8 9.9-3.2 1.1-.5 2.5-2.4 2.3-3.4-.4-2.1-1.4-4.4-2.8-5.9-.5-.5-3.8.4-4.6 1.6-2.3 3-3.8 6.4-5.6 9.6zm126.3-60.4c-2.2 4.5-4 7.8-5.5 11.2-2.6 6-1.7 7.2 5.5 7.9v-19.1z"/>
  <path d="M89.8 201.7c-6.2-13.1-1.8-25.1 3.3-36.6 7.4-16.6 21.2-26.7 38.3-30.7 9.7-2.3 20.4-1.6 30.5-.5 25.4 2.8 45.2 15.5 57.7 37.9 10.9 19.4 16.2 39.9 8 62.1-5.7 15.3-15.7 25.7-31.8 30.6-10.1 3.1-20 7.2-30.6 6.1-9.8-1-19.7-2.6-29.2-5.2-7.8-2.2-15.8-5.5-22.5-10-11.8-8-20.1-19-23.3-33.3-.3-1.5-2.3-3.2-3.8-3.9-4.3-2-5.8-5.5-5.5-9.6.5-6.4 2.2-7.5 8.9-6.9zm101-1.7c.1-.6.1-1.3.2-1.9-2.2-.7-4.3-2-6.5-2.1-4.5-.2-8.9 2.2-13.3-1.7-2.7-2.4-13.4.2-16 3.1 2.7 2 5.2 5.3 8.2 5.8 7.6 1.3 15.1 5.5 22.9 3.5 4.6-1.1 8.8-4.4 13-7 .6-.4.3-2.2.4-3.4-1.2 0-2.5-.3-3.5.2-2 .9-3.6 2.3-5.4 3.5zm-18.9 28.4v1.9c3.2 3.2 7.8 4.5 11.1 2.5s7.3-7.3 6.6-10c-1-4-5.8-7.2-9.2-10.5-.3-.3-2.6.5-3 1.3-.4.7.3 2.2.9 3.1.5.6 1.9.6 2.3 1.3 1.5 2.2 2.7 4.6 4 6.9-2.1 1-4 2.4-6.2 3-2 .5-4.3.3-6.5.5zm-15.4-18.6c-4.2.7-9.4 5.8-8.4 8.9.8 2.5 3.3 5.2 5.7 6.3 2.3 1 7.1-5 6.5-8.6-.3-2.4-2.5-4.4-3.8-6.6zm50.1 11.2c-3-2.6-4.7-4.1-6.3-5.6-2.1 2.6-4.8 5-6 8-.4 1.1 2.7 3.6 4.2 5.5 2.4-2.3 4.8-4.6 8.1-7.9zm-31 35.4c.4-.8.8-1.6 1.1-2.4-1.7-1-3.5-2.9-5.2-2.9-2.8 0-5.6 1.2-8.4 2 .7 1.1 1.4 3.1 2.2 3.2 3.4.3 6.9.1 10.3.1zM140.5 344c4.4-4.6 5.1-13.2 13.6-17 3.9-1.7 6.1-7.5 8.6-11.8 1.7-2.7 2.3-6.1 3.9-8.9 2-3.4 2.5-6.4.8-10.2-.7-1.6.5-4.5 1.5-6.4.3-.5 3.5-.1 4.8.7 11.8 7.5 23.5 15.2 35.1 23 .9.6 1.4 3.4.8 4.5-7.1 13.3-14.4 26.4-21.6 39.6-2.2 4.1-4.1 8.5-6.3 12.7-1.8 3.4-4.3 4.1-7.7 1.8-1.9-1.3-4.2-2.1-6.2-3.3-4.6-2.8-9.2-4.6-12.1-10.6-2.6-5.3-9.5-9-15.2-14.1z" fill="#fff"/>
  <path d="M157.7 305.4c-2.7 1.6-4.9 3-8.2 4.9 2.9 1.6 4.7 2.5 6.5 3.5-2.6 1-5.2 2-9.3 3.5 3.2 2 4.8 3 7.3 4.5-2.4.4-4.2.3-5.7 1-1.2.6-2.4 1.9-3 3.1-3 5.5-5.7 11.1-8.9 16.5-.5.9-2.5 1.3-3.9 1.3-6.6.2-13.2.2-19.8.2-4.5.1-6.9-2-6.8-6.6 0-3.1.1-6.2.1-9.3.1-6.6 1.2-7.4 8.3-6.5-1.2 2.4-2.4 4.7-3.5 7 .4.3.7.5 1.1.8 7.4-5.2 14.6-10.5 22.1-15.5 7.3-4.8 10.8-14.8 22.2-16.5-4.8 4.3-4.6 5.2 1.5 8.1zM121.4 389.6c-2.1-13.9 3.1-23.9 13-31.8 3.2-2.5 6.9-4.9 10.3-1.8 2.6 2.4 5.4 6.7 5.1 9.9-.6 7.2-2.9 14.2-4.8 21.2-.3 1.1-2.4 2.4-3.7 2.4-6.6.2-13.1.1-19.9.1zM36.9 386.6c7 5.4 14.2 8 21.7 8.3 15.4.5 30.8.2 46.2.2h5c.8 4.4-.1 6.8-4.8 6.6-8.4-.4-16.8-.2-25.1-1.2-11.3-1.3-22.7-2.9-33.7-5.6-9.9-2.4-14.6-10.5-12.8-18.1 9.2 2.5 18.4 5.1 27.7 7.3 3.5.8 7.2 1 10.8 1.2 4.4.3 9-.7 12.3 3.7.6.8 2.8.5 4.2.5h22.3v1.6c-7.9 0-15.8.1-23.7 0-8.4-.1-16.8.1-25.2-.6-7.8-.6-15.8-2.4-24.9-3.9z" fill="#fff"/>
  <path d="M142.1 292c-.9-2.9-1.9-5.7-2.8-8.6.3-.2.6-.5 1-.7 2.9 2.8 5.9 5.6 8.6 8.6.5.6 0 2.8-.7 3.4-5.1 4.6-10.8 8.7-15.6 13.5-3.8 3.8-7.9 5.4-13.1 5.3-3 0-6.1.4-10.4.8 7-12.1 13.5-23.5 20.5-35.8 4 5.9 7 10.3 10 14.8.9-.3 1.7-.8 2.5-1.3zM172.2 408.5c-19.9 12.2-39 2.6-58.4-1.7-1.6-4.1.5-5.4 4.4-5.4 7.2-.1 14.2.3 20.8 4 1.8 1 5.1.3 7.3-.6 9.5-3.8 17.4 1.5 25.9 3.7zM182.1 382.9c7-2.4 7.8-9.5 11.3-14.4 2.5-3.4 8.7-6.6 12.5-5.2 1.1.4 2.5 2.8 2.2 4-1 4.9-2.2 9.9-4.1 14.5-.7 1.7-3.9 3.4-5.8 3.3-5.5-.3-10.8-1.5-16.1-2.2zM37.5 369.4c4.8-.6 9.5-1.4 14.3-1.8 5.4-.5 10.9-.7 16.4-.7 1.3 0 3.2 1.3 3.9 2.6 1.7 3.1 3 6.5 4.3 9.5-7.8 1.4-27.3-2.5-38.9-9.6zM171.6 401.1c1.7-5.6 4.2-5.3 9.1-4.5 8.4 1.3 15.8 7.1 25.5 4.3 5.3-1.5 11.8 1.5 17.7 3.6-17.8 3.3-35.3 4.7-52.3-3.4zM167.8 280.2c-2.2 4.9-3.9 8.6-5.7 12.4-8.1-.4-10.7-7.5-16.8-12.4h22.5zM159.4 396.4c12.7-1.2 6.3-11.1 8.1-18.1 2.7.5 5.3 1 8.8 1.7-2.9 5.7-5.2 11-8.2 15.9-2.4 3.9-5.2 3.9-8.7.5zM88.4 350.1c1.8-3.2 3.4-6.6 5.6-9.5.9-1.1 4.1-2.1 4.6-1.6 1.5 1.5 2.5 3.8 2.8 5.9.2 1-1.2 2.9-2.3 3.4-3.2 1.3-6.6 2.1-9.9 3.2-.3-.5-.6-.9-.8-1.4zM214.7 289.7v19.1c-7.2-.7-8-1.9-5.5-7.9 1.5-3.4 3.3-6.7 5.5-11.2z" fill="#fff"/>
  <path d="M469.5 244.7c2.1.8 3.8 1.3 5.4 2 4.8 2.2 8 5.7 7.8 11.3-.2 3.6-.3 7.3-1.2 10.7-1.8 7.1-19 12.1-24.4 7.3-1.9-1.7-3.7-3.4-5.4-4.9-9 4.4-18 8.7-27.3 13.2 2 3 3.7 5.7 5.6 8.6 9-5.5 16.2-1.4 22.8 4.9 2 1.9 3.9 3.9 5.8 5.8 4.2 4.3 4.2 10.1 1.5 14-5.6 8.1-4.2 16-1.9 24.4 2.1 7.5 4.2 15.1 6.2 22.7.8 3.1 1.8 5.2 5.9 4.1 3.5-1 7-.2 8.8 3.6 2.1 4.2 5.9 5 10 5.2 13.7.8 27.4 1.5 41.1 2.3.9.1 2.3-.2 2.7.2 4.7 5.7 10.8 3.4 16.6 3.3 2.3 0 4.6.7 6.9 1.1v1.4c-1.2.7-2.3 1.3-3.4 1.9.7 1 1.4 1.9 2.4 3.2h-52.1l-.3-1.5c2.5-.6 5-1.1 7.5-1.7v-.9c-3.2 0-6.4-.1-9.6 0-4.2.1-8.4 1.6-12.5-1.7-1.5-1.2-5-.5-7.3.4-5.9 2.1-11.4 4.9-17.6.5-2.8-2-5.5-1.8-7.3 2.3-2.4 5.3-7.4 3.8-10.1 1.1-5.5-5.6-11.7-6.7-18.9-6.1-1.3.1-2.7-.7-4.3-1.2-7.5 14.3-21 16-34.9 17.1-13.1 1-25.6-2.4-38.3-4.9-.5-.1-1.2-.2-1.5-.5-9.4-8-21.9-6.7-32.5-11-7.2-2.9-14.3-6.1-21.7-8.6-2.9-1-6.6-4.6-9.5 1.5-.9 2-6.7 2.1-10.3 2.3-10.3.5-20.7.7-31.1.8-1.2 0-2.5-.6-3.8-.9 0-.6.1-1.2.1-1.8 13.7-.9 27.4-1.7 41.1-2.6v-.9c-8.7.4-17.4.9-26.2 1.3-4.8.2-9.5.1-14.3.1-1.6 0-3.3 0-4.9.3-3.7.6-7.8 3-9.7-2.9-.2-.7-2.2-.9-3.4-1.4 2.6-3.1 44.2-6 52.9-3.5-2.2.8-3.6 1.4-5 1.7-1.3.3-2.8.3-4.1 1.3 6.9.3 13.7.7 21 1-.3-1.4-.3-2-.5-2.4-2.4-3.4-4.5-7.5-1.7-11 3.2-3.9 8.2-3.3 12.8-2.3 5.1 1.1 10.2 2.3 15.6 3.5 1.9-11 3.7-21.5 5.4-31.3-1.6-1.7-4.2-3.3-4-4.5.3-2.3 1.6-5.2 3.5-6.3 5.1-3 10.5-6.1 17-4.7 1.1.2 2.6.1 3.5-.5 5.2-3.2 10.3-6.4 15.3-9.9 3-2.1 5.4-4.3 3.8-9-1.5-4.3 1.6-7.2 5.5-8.7 3-1.1 6.1-1.6 9.5-2.5-7.8-5.1-15.8-9.5-22.7-15.2-6-4.9-12.3-7.3-19.8-8.1-6.5-.6-10.1-11.7-6.1-17.9 4.4-6.9 6.2-7.8 14.4-7.1-2.6-3.7-2.3-6.5 1.8-8.8 2.4-1.3 3.8-3.2 1.5-6.2-1.4-1.8-3-4.5-2.6-6.4 1.3-7-2.9-10-8-12.8-2.2-1.2-3.8-3.2-5.8-4.8-7.8-6.3-4.1-16.2.7-21.6 8.5-9.8 19.2-10.2 30.4-7.8 5.7 1.2 10.8.6 15.6-2.3 12.4-7.6 25.7-13.5 40.4-13.2 19.4.4 38.2 4.6 53.1 18.1 5.6 5.1 10.3 11.9 13.5 18.7 4.9 10.6 1.2 21.1-4.2 30.7-2.2 3.9-3.2 6.8-1 11.4 1.4 3 0 7.5-.8 11.2-.1 2.1-1.9 3.7-3.4 5.8zm-125.2-41.2c1.7 5.8 3.1 11.7 5.2 17.4 1.7 4.6 1.3 8-1.7 12-6.6 8.7-6.1 17.8 1.2 24 5.3 4.5 11.1 8.8 17.2 12.1 20.5 10.9 42.1 13.7 64.3 5.9 6.1-2.1 12.1-5 17.6-8.4 6.9-4.2 11.5-15.8 9.2-22.6 2.6-1 5.3-2 7.9-3.1 3.2-1.3 4.5-3.7 3.1-7-1-2.3-.3-7.5-4.5-5.8-7.3 2.9-9-2.8-12.5-6.3-2-2-4.1-5-6.4-5.2-7-.6-9.8-5.4-12.4-10.6-1.4-2.9-2.9-4.1-6.3-2.4-4.3 2.2-8.8 4.2-14 1.6-1.5-.8-4.4-.1-6 .9-6.6 4.3-12.9 3.9-19.6.2-1.7-1-4-1.1-6.1-1.2-6.3-.4-13.3 1-18.6-1.5-6-2.6-10.8-2.3-17.6 0zm73.3 101c-6.9-.3-13.1-1.4-19-.7-8.6 1.1-10.9-8.2-17.8-9.5-.5-6.1-4.9-6.4-9.4-6-3 .2-5.9 1-8.8 1.6.7 3.5.5 7.5 2.3 10.3 2.5 3.9 6 7.4 9.8 10 4 2.7 2.4 5.1.7 7.7-.9 1.3-2.4 2.2-3.6 3.3-5.8 5-6.1 20.9 0 25.4 6.4 4.8 13.2 9 20 13.2 5.2 3.2 10.7 6.1 16.1 9 4.1 2.2 8.4 4.1 12.5 6.1 1.9-8 3.3-14.5 5-21 1-3.8 3.8-7.8 3.3-11.3-.6-4.8-3.1-9.6-5.7-13.8-4.7-7.7-12.2-14.1-5.4-24.3zm-16.8 80.8c-.2.4-.5.7-.7 1.1-1.1-.3-2.4-.3-3.2-1-2.6-2.3-4.9-4.8-7.4-7.2-5-4.8-8.8-11.3-16.8-11.8-4.5-.3-9.1-.7-13.6-1.1-3.1-.3-6.2-.7-9.1-1.1 2.1 4.2 4.1 7.9 5.8 11.8 4.1 9.1 9.8 16.5 20.7 16.7 12.1.2 24.4 1.4 35.9-4-2.4-6.7-18.1-18.6-25.1-18.5 2.5 2.6 4.8 4.9 7 7.3 2.3 2.6 4.4 5.2 6.5 7.8zm34.8-54.8c3.2-.5 6.5-.8 9.7-1.5 7-1.6 12.4-13.3 8.8-19.6-3.7-6.5-10.2-9.7-16.8-12.1-1.7-.6-4.2-.3-5.8.5-12 5.7-14.5 15.2-7.5 26.3 2.7 4.4 6.1 6.9 11.6 6.4zm37.2 44.3c-1.9-.3-3.2-.9-4.5-.7-4.5.6-7.2-1.9-8.4-5.5-2.4-7.3-4.4-14.7-6.3-22.2-.9-3.3-1.3-6.7-1.9-10.2-5.6 1-10.5 1.8-15.9 2.8.1 1.4 0 2.9.4 4.2 2 6.4 4.2 12.7 6.1 19.1 1.2 4.3 3.2 8.9 2.7 13.1-.6 4.6.7 6.8 4.4 8.6 2-6.3 4.4-6.8 16.2-3.9 2.3-1.8 4.4-3.3 7.2-5.3zm-124.7-25.2c2.1-2 3.1-3.2 4.4-4 1.2-.8 2.6-1.9 4-1.9 5.4.2 6.6-1.2 6.7-6.4.1-4.7-.1-10.3 2.2-13.9 4.4-6.8 5.2-6.3-.8-12.5-1.1-1.2-1.9-2.7-2.9-3.9-.8-.9-1.7-2-2.8-2.3-4.3-1-13.8 6.8-13.8 11.2v25.2c.2 0 1.6-.3 3.1-.6-.1 2.5-.1 5-.1 9.1zm-11.7-8.5c.8-.6 1.4-1 1.8-1.5 2.5-3 2.3-18.4-.3-21.3-.6-.6-1.5-1.2-2.4-1.3-5.1-.4-10.2-.7-13.7 3.1 4.9 7 9.6 13.8 14.6 21zm1.7 22.6c-5-11.2-9.3-20.7-13.6-30.3-.5 0-1.1.1-1.6.1l-1.2 15.9c0 .6.5 1.5 1 1.9 4.8 3.9 9.6 7.7 15.4 12.4zm17 25.5c-1.4-3-2.7-5.5-4-8.1-1.2-2.6-2.2-5.3-3.6-7.8-.8-1.4-2.2-2.4-3.3-3.5-1.3 1.5-3.4 2.9-3.8 4.6-1.6 6.9 4.6 13.1 14.7 14.8zm14.8-41.2c-12.2 10.9-22.1 5.2-32.7-2.8 1.5 4.2 2.7 7.1 3.6 9.7h28.7c-.1-.2-.1-.4-.2-.6 2.1.9 4.3 1.8 6.4 2.7.3-.5.6-.9.9-1.4-2.2-2.7-4.6-5.3-6.7-7.6zm-79.7 11.4c.4 6.1 8 12.2 14.5 11.6.2-11.1-4.4-13.4-14.5-11.6zm137.5 11.7c4.3-.6 7.5-1 10.8-1.5-1.7-6.1-3.3-11.8-4.9-17.4h-1.7c-1.3 6-2.7 12-4.2 18.9zm-89.4-2c-6.3-3.8-12-7.2-18.7-11.3 3 9 11.6 13.8 18.7 11.3zm62-77.7v1.1c4.9 0 9.8.2 14.7-.1 1.2-.1 2.2-1.8 3.3-2.8-.4-.3-.7-.6-1.1-.8-5.6.8-11.2 1.7-16.9 2.6zm149.9 97.2v-1.2h-23.4v1.2h23.4zm-143.7-13.8c3.4 2.6 6.8 5.3 10.2 7.9.4-.6.9-1.1 1.3-1.7-2.4-3.9-7-5-11.5-6.2zM190.8 200c1.8-1.2 3.4-2.6 5.3-3.5 1-.5 2.3-.1 3.5-.2-.1 1.2.2 3-.4 3.4-4.2 2.6-8.3 5.8-13 7-7.8 1.9-15.3-2.3-22.9-3.5-3-.5-5.5-3.8-8.2-5.8 2.6-2.8 13.3-5.5 16-3.1 4.4 4 8.8 1.5 13.3 1.7 2.2.1 4.4 1.4 6.5 2.1 0 .6 0 1.2-.1 1.9zM171.9 228.4c2.2-.2 4.5 0 6.5-.6 2.2-.6 4.1-2 6.2-3-1.3-2.3-2.5-4.7-4-6.9-.4-.7-1.9-.6-2.3-1.3-.6-.9-1.3-2.5-.9-3.1.5-.8 2.7-1.6 3-1.3 3.4 3.3 8.2 6.5 9.2 10.5.7 2.8-3.4 8-6.6 10-3.3 2.1-8 .7-11.1-2.5v-1.8zM156.5 209.8c1.4 2.2 3.5 4.3 3.9 6.6.6 3.7-4.2 9.7-6.5 8.6-2.4-1.1-4.9-3.8-5.7-6.3-1.1-3.1 4-8.2 8.3-8.9zM206.6 221c-3.4 3.2-5.8 5.5-8.2 7.8-1.5-1.9-4.6-4.4-4.2-5.5 1.2-3 3.9-5.3 6-8 1.8 1.6 3.5 3.1 6.4 5.7zM175.6 256.4c-3.4 0-6.9.2-10.3-.2-.8-.1-1.5-2.1-2.2-3.2 2.8-.7 5.6-2 8.4-2 1.7 0 3.5 1.9 5.2 2.9-.3.9-.7 1.7-1.1 2.5z"/>
  <path d="M344.3 203.5c6.8-2.3 11.6-2.7 17.6.1 5.3 2.4 12.4 1 18.6 1.5 2.1.1 4.3.2 6.1 1.2 6.6 3.7 13 4.1 19.6-.2 1.6-1 4.5-1.7 6-.9 5.2 2.5 9.7.6 14-1.6 3.4-1.7 4.8-.6 6.3 2.4 2.6 5.2 5.4 10 12.4 10.6 2.3.2 4.4 3.3 6.4 5.2 3.5 3.5 5.2 9.2 12.5 6.3 4.2-1.7 3.5 3.5 4.5 5.8 1.4 3.3.1 5.7-3.1 7-2.6 1.1-5.3 2.1-7.9 3.1 2.3 6.8-2.3 18.4-9.2 22.6-5.5 3.4-11.5 6.2-17.6 8.4-22.2 7.8-43.8 5.1-64.3-5.9-6.1-3.3-11.9-7.6-17.2-12.1-7.3-6.2-7.8-15.3-1.2-24 3.1-4.1 3.4-7.5 1.7-12-2.1-5.7-3.5-11.7-5.2-17.5zm59.5 69.3.3-.9c1.1-.1 2.4.2 3.3-.3 2.8-1.7 5.4-3.7 8.1-5.6-2.3-2.1-4.4-5.2-7.1-6-5.8-1.5-11.8-2.4-17.8-2.3-2.5 0-4.9 3-7.4 4.7 1.6 1.7 2.8 4.3 4.7 5.1 5.2 2.2 10.6 3.6 15.9 5.3zm-7.1-42c-3.2-2.8-5.7-5.8-9-2.6-1.6 1.5-3.1 5.2-2.3 6.6 1.2 2.2 4.2 4 6.9 4.7 1.1.3 3.1-2.6 5.4-4.7-3.4-.8-5.2-1.2-7.9-1.9 2.7-.7 4.3-1.3 6.9-2.1zm13.2 8.9c2.7-3.4 5.6-5.4 5.5-7.3-.1-2-3-3.8-4.7-5.7-1.5 1.6-4.2 3.1-4.3 4.8-.1 2 1.8 4.3 3.5 8.2zm-34.1-15c-3.3 2.5-6.7 5.1-3.8 9.6.7 1.1 4.5 1.9 5.2 1.2 3.6-3.7 1.9-7.3-1.4-10.8zm30.1-8c4 1.2 7.5 2.4 11.1 3.3.9.2 2.3 0 3-.7.6-.6 1.1-2.5.7-2.8-1.9-1.5-4.1-3.9-6.1-3.8-3.1.1-7.2 0-8.7 4zm-38.2 1.8c1.4-.3 2.8-.7 4.1-.8 1.4-.1 3 .3 4.3-.1 1.2-.3 2.2-1.4 3.3-2.2-.8-1.1-1.3-2.6-2.3-3.2-3.8-2.2-8.3.8-9.4 6.3zm1.4 7.9c-.3-.2-.7-.4-1-.6-1 .9-2.7 1.7-2.9 2.7-.3 1.9.1 3.9.6 5.8.1.5 1.7.6 2.6.9 0-1.4-.1-2.9 0-4.3.1-1.5.4-3 .7-4.5zM417.6 304.5c-6.8 10.2.7 16.6 5.4 24.1 2.6 4.2 5.1 9 5.7 13.8.5 3.6-2.3 7.5-3.3 11.3-1.7 6.5-3.1 13-5 21-4.2-2-8.4-3.9-12.5-6.1-5.4-2.9-10.9-5.7-16.1-9-6.8-4.2-13.6-8.5-20-13.2-6-4.5-5.7-20.4 0-25.4 1.2-1.1 2.8-2 3.6-3.3 1.7-2.6 3.3-4.9-.7-7.7-3.8-2.6-7.3-6.1-9.8-10-1.8-2.8-1.6-6.8-2.3-10.3 2.9-.5 5.9-1.3 8.8-1.6 4.5-.4 8.9-.1 9.4 6 6.9 1.3 9.2 10.6 17.8 9.5 5.9-.6 12.1.5 19 .9zM380.2 318c-2.9 3.1-2.8 6.7.4 8.5 6.6 3.8 13.6 6.8 20.6 9.9.8.3 2.8-.7 3.3-1.6.8-1.7 1.2-3.7 1.1-5.5 0-.6-2.2-1.3-3.4-1.6-3.2-.8-6.8-1-9.7-2.3-4.2-1.9-7.9-4.7-12.3-7.4zm5.3-13c-4.4 2.4-3.9 5.5-.5 7.9 2.4 1.7 5.6 2.3 8.5 3 4.7 1.2 9.5 2.4 14.3 2.8 1.1.1 2.4-3 3.7-4.7-1.5-.6-2.9-1.5-4.4-1.7-7.8-.8-15.6-1.4-21.6-7.3zM400.8 385.3c-2.1-2.5-4.2-5.2-6.5-7.6-2.2-2.4-4.5-4.7-7-7.3 7-.1 22.7 11.8 25.1 18.5-11.5 5.3-23.8 4.2-35.9 4-10.9-.2-16.6-7.6-20.7-16.7-1.7-3.9-3.8-7.6-5.8-11.8 2.8.3 5.9.8 9.1 1.1 4.5.4 9 .8 13.6 1.1 8 .5 11.8 7 16.8 11.8 2.5 2.4 4.8 4.9 7.4 7.2.8.7 2.1.7 3.2 1 .3-.6.5-1 .7-1.3z" fill="#fff"/>
  <path d="M435.6 330.5c-5.5.5-8.9-2-11.7-6.5-7-11.1-4.4-20.5 7.5-26.3 1.7-.8 4.2-1.1 5.8-.5 6.7 2.5 13.2 5.6 16.8 12.1 3.6 6.3-1.8 18-8.8 19.6-3.1.8-6.4 1.1-9.6 1.6zM472.8 374.8c-2.8 2-4.8 3.6-7.3 5.3-11.8-2.9-14.2-2.4-16.2 3.9-3.7-1.8-5-4-4.4-8.6.5-4.2-1.5-8.8-2.7-13.1-1.9-6.4-4.1-12.7-6.1-19.1-.4-1.3-.3-2.8-.4-4.2 5.3-.9 10.3-1.8 15.9-2.8.6 3.5 1 6.9 1.9 10.2 2 7.4 3.9 14.9 6.3 22.2 1.2 3.6 3.9 6.1 8.4 5.5 1.3-.2 2.7.3 4.6.7zM348.1 349.6v-9.2c-1.4.3-2.9.6-3.1.6v-25.2c0-4.4 9.6-12.1 13.8-11.2 1.1.2 2 1.4 2.8 2.3 1.1 1.2 1.8 2.7 2.9 3.9 6 6.2 5.2 5.7.8 12.5-2.4 3.6-2.1 9.2-2.2 13.9-.1 5.2-1.3 6.6-6.7 6.4-1.3 0-2.8 1-4 1.9-1.2 1-2.2 2.2-4.3 4.1zM336.4 341.1c-5-7.2-9.6-13.9-14.5-20.9 3.5-3.8 8.6-3.6 13.7-3.1.8.1 1.8.6 2.4 1.3 2.6 2.9 2.8 18.2.3 21.3-.5.4-1.2.7-1.9 1.4zM338.1 363.7c-5.8-4.7-10.6-8.5-15.3-12.3-.5-.4-1-1.3-1-1.9.3-5.3.8-10.6 1.2-15.9.5 0 1.1-.1 1.6-.1 4.2 9.5 8.5 19 13.5 30.2zM355.1 389.2c-10.1-1.8-16.2-7.9-14.6-14.9.4-1.7 2.5-3.1 3.8-4.6 1.1 1.2 2.5 2.2 3.3 3.5 1.4 2.5 2.4 5.2 3.6 7.8 1.1 2.7 2.4 5.3 3.9 8.2z" fill="#fff"/>
  <path d="M369.9 348c2.1 2.3 4.5 4.9 6.8 7.5-.3.5-.6.9-.9 1.4-2.1-.9-4.3-1.8-6.4-2.7.1.2.1.4.2.6h-28.7c-1-2.6-2.1-5.5-3.6-9.7 10.5 8.1 20.4 13.8 32.6 2.9zM290.2 359.4c10.1-1.8 14.7.5 14.5 11.6-6.5.6-14.1-5.5-14.5-11.6zM427.7 371.1c1.5-6.9 2.9-12.9 4.2-18.9h1.7c1.6 5.6 3.2 11.3 4.9 17.4-3.4.4-6.5.9-10.8 1.5zM338.3 369.1c-7.1 2.5-15.7-2.4-18.7-11.3 6.7 4.1 12.4 7.5 18.7 11.3zM400.3 291.4c5.6-.9 11.3-1.8 16.9-2.7.4.3.7.6 1.1.8-1.1 1-2.1 2.7-3.3 2.8-4.9.3-9.8.1-14.7.1v-1zM550.2 388.6h-23.4v-1.2h23.4v1.2zM406.5 374.8c4.5 1.1 9.1 2.2 11.5 6.2-.4.6-.9 1.1-1.3 1.7-3.4-2.6-6.8-5.2-10.2-7.9z" fill="#fff"/>
  <path d="M403.8 272.8c-5.3-1.7-10.7-3.2-15.8-5.3-1.9-.8-3.2-3.3-4.7-5.1 2.5-1.7 4.9-4.7 7.4-4.7 5.9 0 12 .8 17.8 2.3 2.7.7 4.7 3.9 7.1 6-2.7 1.9-5.3 3.9-8.1 5.6-.8.5-2.2.2-3.3.3-.2.3-.3.6-.4.9zM396.7 230.8c-2.6.8-4.2 1.3-6.9 2.2 2.7.7 4.5 1.1 7.9 1.9-2.3 2.1-4.3 5-5.4 4.7-2.6-.7-5.6-2.5-6.9-4.7-.8-1.4.7-5.1 2.3-6.6 3.4-3.3 5.9-.3 9 2.5zM409.9 239.7c-1.8-3.9-3.7-6.1-3.5-8.3.1-1.7 2.8-3.2 4.3-4.8 1.7 1.9 4.6 3.7 4.7 5.7.1 1.9-2.7 4-5.5 7.4zM375.8 224.7c3.3 3.4 5.1 7.1 1.4 10.8-.7.7-4.5-.1-5.2-1.2-2.9-4.5.4-7.1 3.8-9.6zM405.9 216.7c1.4-4 5.6-3.9 8.7-4 2-.1 4.2 2.2 6.1 3.8.3.3-.1 2.2-.7 2.8-.6.6-2.1.9-3 .7-3.6-.9-7.1-2.1-11.1-3.3zM367.7 218.5c1.1-5.6 5.6-8.5 9.4-6.2 1 .6 1.6 2.1 2.3 3.2-1.1.8-2.1 1.8-3.3 2.2-1.3.4-2.9-.1-4.3.1-1.3 0-2.6.4-4.1.7zM369.1 226.4c-.2 1.5-.6 3-.7 4.5-.1 1.4 0 2.8 0 4.3-.9-.3-2.5-.4-2.6-.9-.5-1.9-.9-3.9-.6-5.8.2-1 1.9-1.8 2.9-2.7.3.2.6.4 1 .6zM380.2 318c4.3 2.7 8.1 5.5 12.3 7.4 3 1.4 6.5 1.5 9.7 2.3 1.2.3 3.4 1 3.4 1.6.1 1.8-.2 3.9-1.1 5.5-.4.9-2.5 1.9-3.3 1.6-7-3.1-14-6.1-20.6-9.9-3.1-1.8-3.2-5.4-.4-8.5zM385.5 305c6.1 5.9 13.9 6.5 21.6 7.4 1.5.2 2.9 1.1 4.4 1.7-1.2 1.6-2.6 4.8-3.7 4.7-4.8-.4-9.6-1.7-14.3-2.8-2.9-.7-6.1-1.3-8.5-3-3.4-2.5-3.9-5.6.5-8z"/>
  <text transform="translate(110.965 54.968)"><tspan x="0" y="0" font-family="Peanuts" font-size="35" letter-spacing="5">WHAT A WAY TO</tspan><tspan x="3.2" y="42" font-family="Peanuts" font-size="35" letter-spacing="5">MAKE A LIVING!</tspan></text>
  <text transform="translate(475.731 453.793)" font-family="Peanuts" font-size="25" letter-spacing="2">SCHULZ</text>
  <text transform="translate(140.816 451.408)" font-family="BaskervilleT-Bold" font-size="12">Copr 1951 by United Feature Syndicate, Inc.</text>
  <text transform="translate(15.262 451.408)" font-family="BaskervilleT-Bold" font-size="26" letter-spacing="2">12-15</text>
</svg>
