<svg xmlns="http://www.w3.org/2000/svg" viewBox="0 0 595.3 467" xml:space="preserve">
  <path fill="#fff" d="M0 0h595.3v467H0z"/>
  <path d="M0 467V0h595.3v467H0zm461.7-4.4v-.3c15.9 0 31.7.1 47.6 0 24.6-.2 49.3-.5 73.9-.8 8.3-.1 8.8-.4 8.8-8.6-.2-25.6-.7-51.2-.8-76.7-.2-25.7-.1-51.5-.1-77.2v-82c0-27.5.1-55 .1-82.6 0-41.3-.1-82.5-.2-123.8 0-7.2-.3-7.5-7.8-7.5-15.7 0-31.4.1-47.1.2-52 .2-104 .3-155.9.5-14.3.1-28.6.5-42.9.5-21.8 0-43.6-.5-65.3-.5-27.1 0-54.1.5-81.2.5-47.3.1-94.5 0-141.8 0-14 0-28 .3-41.9.7C5.6 5 3 7.1 3 8.3c-.5 15.5-.6 30.9-.6 46.3.1 9.7.7 19.5.7 29.2.1 13.7 0 27.4 0 41.1v66.5c0 55.4.1 110.8.1 166.2 0 30.3-.3 60.6-.2 90.9.1 15.1.3 15.2 15.4 15.1 106.6-.3 213.2-.8 319.9-1.1 41.2 0 82.3.1 123.4.1z" fill="#fff"/>
  <path d="M461.7 462.6c-41.1 0-82.2-.1-123.3 0-106.6.3-213.2.7-319.9 1.1-15.1 0-15.3 0-15.4-15.1-.1-30.3.2-60.6.2-90.9 0-55.4-.1-110.8-.1-166.2V125c0-13.7.2-27.4 0-41.1-.1-9.8-.7-19.5-.7-29.2-.1-15.4 0-30.8.4-46.3 0-1.2 2.7-3.2 4.1-3.3 14-.5 28-.7 41.9-.7 47.3-.1 94.5.1 141.8 0 27.1-.1 54.1-.5 81.2-.5 21.8 0 43.6.5 65.3.5 14.3 0 28.6-.5 42.9-.5C432 3.6 484 3.5 536 3.3c15.7-.1 31.4-.1 47.1-.2 7.5 0 7.8.3 7.8 7.5.1 41.3.2 82.5.2 123.8 0 27.5-.1 55-.1 82.6v82c0 25.7 0 51.5.1 77.2.2 25.6.6 51.2.8 76.7.1 8.1-.4 8.5-8.8 8.6-24.6.2-49.3.6-73.9.8-15.9.1-31.7 0-47.6 0 .1.1.1.2.1.3zm-159-453c0 1.2-.1 1.6 0 1.9 8.2 12.4 12.4 26.1 13.2 40.8.3 5.6.5 12.2-2 16.8-4.7 8.6-12.5 14.9-21.3 19.6-12.3 6.6-25.5 9.8-39.3 11-14.8 1.3-29.6 2.7-44.4 3-22.9.5-45.8.2-68.8-.1-11.4-.2-22.8-1-34.2-1.7-7.6-.5-15.1-1.6-22.7-2.1-7.2-.6-14.4-.8-21.8-1.2 0 6.4-.4 11.9.1 17.3.4 4 2.1 7.9 3 11.9.3 1.3-.1 2.7-.2 4-1-.1-2.4.3-2.9-.3-2.5-2.3-5.6-4.5-6.9-7.5-3.3-7.2-5.6-14.8-8.5-22.1-.6-1.6-2.2-3.5-3.7-3.8-6.7-1.5-13.5-2.4-20.2-3.6-4.3-.8-8.7-1.6-13.8-2.6-.6 122.6-1.1 244.7-.2 367h9.5c25.4.2 50.9.5 76.3.6 13.5.1 27-.3 40.5-.3 12.6.1 25.2.7 37.9.7 13 0 26.1-.6 39.1-.7 53.3-.2 106.5-.3 159.8-.5 20.3-.1 40.7-.3 61-.4 19.2-.1 38.4.1 57.6-.1 12.7-.1 25.3-.8 37.9-1 18.2-.2 36.3-.3 54.5-.2 4 0 5.1-1.8 5.1-5.1 0-2.4 0-4.7-.1-7.1 0-17.1-.1-34.1-.1-51.2-.1-20.5-.1-41-.3-61.6-.2-20.1-.8-40.1-.9-60.2-.1-17.5.3-34.9.4-52.4 0-29.3 0-58.5-.1-87.8V74.3c-2.3 1.6-2.9 1.9-3.4 2.3-9.3 8.9-20.6 13.9-32.9 16.7-4.8 1.1-9.8 1-8.5 8.2.2.9-.5 2.1-1.1 3-5.1 7.3-10.1 14.5-15.4 21.7-.7.9-2.1 1.3-4.7 2.7.9-3 1.3-4.2 1.6-5.5 1.5-7 3.1-14 4.2-21.1.7-4.4-1.8-6.4-6.2-6-3.8.4-7.6 1.1-11.3 1-17-.2-34.1-.3-51.1-.9-14.8-.5-29.5-1.4-43.9-5.5-14.4-4.1-28.6-8.2-41.2-16.7-10.1-6.9-19.8-14.1-25.2-25.8-4.1-8.8-8.1-17.5-5-27.4 1.3-4.1 4.1-7.8 6.1-11.6-15.1.2-30.3.2-45.5.2zM58.1 123.7c0-8.7-.1-15.5 0-22.4.2-7.6.5-7.9 7.9-8.1 2.2 0 4.4-.2 6.5 0 12.7 1 25.3 2.5 38 3.1 15.3.8 30.6 1.5 45.8 1.3 27.6-.3 55.3-1.3 82.9-2 19.7-.5 39-2.8 56.4-13.3 9.2-5.6 16.3-12.6 15.6-24.6-.9-15.1-3.6-29.5-12.1-42.6-2.9-4.5-5.6-5.5-10.4-5.5-55.6.1-111.3.1-166.9.1-36.3 0-72.6.1-109 .1-3.3 0-4.5.5-4.5 4.5.3 21.3-.1 42.5-.2 63.7-.1 8 .3 8.4 8.4 9.6 9.5 1.5 19 2.8 28.5 4.5 1.5.3 3.7 1.5 4.1 2.8 1.8 5.8 3 11.9 4.7 17.8.9 3.3 2.5 6.5 4.3 11zM530.4 113c5.8-6.9 7.4-13.6 5.7-20.9.8-.4 1.3-.9 1.8-.9 12.8-.6 24.5-5.1 35-12 5.9-3.8 13.2-7.2 13.4-15.9.2-12.1-.4-24.1.1-36.2.2-4.7-1.9-7.3-4.8-9.4-7-4.9-13.8-10.4-23.4-9.2-5 .6-10.1.3-15.1.1-7.8-.2-15.5-.8-23.3-.8-21.2.1-42.4.6-63.5.8-32.1.3-64.2.7-96.3.7-5.9 0-9 2.8-11.1 7.7-5.4 12.2-1.7 23.3 5.1 33.3 13.4 19.9 34.7 27.6 56.4 33.9 10.5 3 21.6 4.7 32.5 5.8 16.4 1.6 32.9 2.1 49.4 3 1.6.1 3.2 0 4.7-.1 7.9-.2 15.8.1 23.7-.7 7.9-.7 13.6 5.2 11.6 13.1-.4 2.2-1 4.3-1.9 7.7zM575.7 8.7c4.1 2.4 6.9 4.1 10.7 6.3-.2-2.9-.4-4.5-.5-6.3h-10.2z"/>
  <path d="M302.7 9.6h45.6c-2.1 3.8-4.8 7.5-6.1 11.6-3.1 9.9.9 18.6 5 27.4 5.4 11.6 15.1 18.9 25.2 25.8 12.5 8.5 26.8 12.6 41.2 16.7 14.4 4.1 29.1 5 43.9 5.5 17 .6 34.1.8 51.1.9 3.8 0 7.6-.7 11.3-1 4.4-.4 6.9 1.5 6.2 6-1.1 7.1-2.8 14.1-4.2 21.1-.3 1.3-.7 2.6-1.6 5.5 2.6-1.4 4-1.8 4.7-2.7 5.2-7.2 10.3-14.4 15.4-21.7.6-.8 1.2-2.1 1.1-3-1.3-7.2 3.7-7.1 8.5-8.2 12.3-2.8 23.6-7.8 32.9-16.7.5-.5 1.1-.8 3.4-2.3v56.3c0 29.3.1 58.5.1 87.8 0 17.5-.4 34.9-.4 52.4.1 20.1.7 40.1.9 60.2.2 20.5.2 41 .3 61.6.1 17.1.1 34.1.1 51.2 0 2.4.1 4.7.1 7.1-.1 3.3-1.2 5.2-5.1 5.1-18.2-.1-36.3 0-54.5.2-12.7.2-25.3.8-37.9 1-19.2.2-38.4 0-57.6.1-20.3.1-40.7.3-61 .4-53.3.2-106.5.3-159.8.5-13 .1-26.1.7-39.1.7-12.6 0-25.2-.6-37.9-.7-13.5-.1-27 .3-40.5.3-25.4-.1-50.9-.4-76.3-.6H8.2c-.8-122.4-.3-244.4.2-367 5.1 1 9.4 1.8 13.8 2.6 6.7 1.2 13.5 2.1 20.2 3.6 1.5.3 3 2.3 3.7 3.8 3 7.3 5.2 14.9 8.5 22.1 1.3 2.9 4.4 5.1 6.9 7.5.6.5 1.9.2 2.9.3.1-1.3.5-2.8.2-4-.9-4-2.6-7.9-3-11.9-.5-5.4-.1-10.9-.1-17.3 7.4.4 14.6.6 21.8 1.1 7.6.6 15.1 1.6 22.7 2.1 11.4.8 22.8 1.6 34.2 1.7 22.9.3 45.8.6 68.8.1 14.8-.3 29.6-1.7 44.4-3 13.7-1.2 27-4.4 39.3-11 8.8-4.7 16.6-11 21.3-19.6 2.5-4.6 2.3-11.2 2-16.8-.8-14.7-5-28.4-13.2-40.8-.3-.4-.1-.8-.1-2zm-73 371.5c9.7-1.3 19.4-2.6 29-3.9-1.9 1.7-4 2.6-6.3 3.1-2.4.5-5.4.2-4.2 4.3 14-4.1 37.6-6.9 40.8-4.7-14.3 1.7-14.3 1.7-14.6 4.8 7.5-1 14.9-2.5 22.4-3 7.5-.5 15.1-.1 22.7-.1.1.1.1.2.2.3-8.6 1.3-17.2 2.7-25.7 4l.3 2.4c10.5-.9 21-1.7 31.6-2.6 0 .4.1.8.1 1.2-3.8.8-7.5 1.6-11.3 2.5.1.8.2 1.6.4 2.5 5.5-.4 11-1 16.4-1 5 0 10.7-.5 14.7 1.7 2.2 1.2 1.7 7.6 2 11.7.1 2.1-.8 4.2-1.2 6.4-8.2.9-16.3 2.1-24.4 2.7-3.5.3-4.8 1.5-4.8 5 0 6.5 4 10.8 11.3 12.5 6.4 1.5 13.3 1.5 19.9 2.4 1.8.3 3.5 1.6 5 2.8 4.1 3.4 7.5 8.5 12.2 10.3 13.8 5.3 28.2 3.7 42.4 1.4 6.5-1.1 12.7-3.5 19.1-5.3 2.4 6.5 7.4 9.7 14.4 8.2 11.1-2.4 8.8-11.3 8.3-19.4h7.9c-2.6 2.7-2.6 3.9.3 3.9 4.8.1 9.6-.8 14.4-1.2 10.3-.9 20.6-1.7 30.9-2.4 1-.1 2.1.4 3.2.7-4.4 1.2-8.7 1.5-13 1.6-6.1.2-9.3 1.1-11.8 4.1 16.5-1.1 32.5-2.2 48.6-3.3.1.8.1 1.6.2 2.3-10 1-20.1 2.1-30.1 2.8-3.6.2-5.8.7-3.8 4.3-2.6 1.1-4.8 2-7 2.9l.3 1.5H503c0 .5 0 1 .1 1.4-7.9.9-15.8 1.9-23.7 2.8.1.6.1 1.2.2 1.8 1.5.2 3.1.6 4.6.4 9.5-1.3 18.9-2.7 28.3-4.1 1.2-.2 2.3-1 3.3-1.6 1.9-1.2 3.5-2.9 5.5-3.6 2.3-.8 5-.7 7.5-1.1 3-.5 5.5-1.4 3.4-5.3 1.5-.3 3.1-.3 4.4-.9 1.5-.7 2.7-1.9 4-2.9-1.4-.7-2.8-1.8-4.3-1.9-5.2-.6-10.4-.6-15.6-1.3-4.9-.7-9.8-2.4-14.7-2.8-6.2-.5-12.4-.1-17.8-.1-.4-5.4-.9-10.6-1-15.7-.1-4.3-.9-8.5 2.5-12.4 4.1-4.7 3.4-8.7-1.9-12.2-2.7-1.8-3.1-3.3-2.3-6.2 3.7-14.8 7.3-29.7 6-45.2-.6-7.5-4-13.4-10.8-16.2-7.3-2.9-15.1-4.4-22.6-6.7-1.5-.5-3.6-1.9-3.9-3.2-2.6-13.1-5-26.2-7.1-39.4-.4-2.6.6-5.5 1-8.3.5 0 1 .1 1.5.1-.7 4.6-.8 9.2 4.4 11 7.1 2.4 10.1-3.6 14.2-8-.7 10.8-1.3 21-2.1 32.2 4.5-1.7 7.3-3.1 10.3-3.7 4.1-.8 6.3-3.8 6.1-7.9-.4-6.7-.1-13.4-.1-20.4 10.5 2.9 12.4 2.4 14.1-3.8 1.4-5.4 2.6-10.9 3.1-16.4.3-3.1-.1-7-1.8-9.4-1.5-2.1-5.2-2.7-8.3-4.1 5.1-10.3 11.6-20.9 15.7-32.4 4.1-11.3 7.8-23.4 7.9-35.2.1-12.3-3.6-24.4-10.5-35.8-8.8-14.5-22.1-22-37.1-24.7-15.6-2.8-31.9-2-47.2 3.7-12.6 4.7-25.9 4.6-39 6.5-12.9 1.8-25.8 3.3-38.5 5.9-9.9 2-18.8 6.7-24.1 16-1 1.8-.9 4.8-.1 6.8 2.2 6 8 7.8 13.2 10.2 1.6.7 3.2 2.6 3.7 4.3 2.3 7.7 4.4 15.4 6 23.3.5 2.4-.2 5.9-1.8 7.6-2.7 2.9-3.9 6.1-2.8 9.4 1.4 4.3-.1 7.6-1.9 11.3-3 6.1-6.1 13-3 19.2 4.8 10 11.4 19.1 22.7 22.8 4.9 1.6 4.9 3.8 2.7 7.5-6.4 10.3-5.7 14.8 4 22.1 3.7 2.8 7.7 5.1 11.7 7.7-3.3 5.1-6.9 9.6-9.3 14.6-2.6 5.4-4.7 11.3-6.1 17.2-.7 3 .2 6.1-2.9 8.7-1.4 1.2-1.2 4.5-1.3 6.8-.1 1.7.7 3.4 1.1 5.3-10 2.2-15.9 7.5-18.9 17.1-2.4 7.6-2.3 9.3 5.7 10.8 1.4.3 3.7 1 3.9 1.9 1.2 5.2 1.8 10.6 2.7 16.2-1.9.1-3.4.2-5.2.3-1-8.4-7.4-2.8-11.1-4.6.5-1.1 1-2.2 1.9-4.3-2.8 0-4.7.1-6.6 0-6.3-.2-13.2 1-18.7-1.2-6.2-2.5-12-1.7-18-1.9-4.9-.2-10 1.7-14.6.7-14.1-3.1-27.7-.3-41.3 2.5-.8.2-1.3 1.3-2 2-3.2-.3-6.3-.6-9.3-.8 5.5-12.9 7.8-24.8 2.1-37.3 1.2-.4 2.2-.8 3.2-1 10.2-2.6 11.2-6 4.3-13.7-2.4-2.7-4.9-5.5-6.5-8.8-1.5-3-1.1-7-2.9-9.8-2.7-4.3-4.7-10.4-12.2-8.5-.8.2-2.7-2.2-3.4-3.7-2.7-5.3-5.1-10.7-7.6-16-2.5-5.2-5-10.3-7.4-15.2 8.6-3.9 16.2-6.8 23.3-10.6 13.1-7 21.9-17.9 27.7-31.5 2.4-5.6 4.4-11.5 7.8-16.4 4.6-6.7 5.5-13.4.8-20-.7-1-1.7-2-2-3.1-1.9-7-3.6-14-5.5-21-2.6-9.7-7.2-18.6-14.1-25.4-10.1-10-20.8-18.9-34.7-24.4-15.7-6.2-31.8-8.7-48.2-9.2-9.4-.3-19.3 1.1-28.2 4-9.2 3-18.1 7.9-26.1 13.5s-12.9 14.3-16.1 23.5c-4.3 12.3-7.9 24.8-6.5 37.2-2.2 3-4.5 5.3-5.8 8.1-5.8 12.9-1 22.9 12.3 27.1 1.1.3 2.2 1.3 2.7 2.3 5.5 10.5 12.9 19.3 22.5 26.2 4.1 3 8.5 5.5 12.6 8.4 3.9 2.7 9.6 4.3 7.7 11.1-.2.7.3 1.9.9 2.5 3.3 3.6 1.9 7.3.6 11.1-1.1 3.1-1.5 6.4-2.8 9.3-1.4 3.1-2.9 7.4-5.4 8.4-8.3 3.1-12.9 7.7-12.4 16.7.7 10.6 2.4 21.2 3.4 31.8.4 4.7 1.9 10.4-.1 13.8-2.7 4.6-3.6 7.8-.1 12.4-4-.8-7.3-1.6-10.7-2.1-8.4-1.2-16.5.5-22.2 6.6-5.9 6.4-12.8 6.4-20.2 6.7-7 .3-14.1.5-21 1.4-4.7.6-9.4 2.3-14.4 3.5 5.4 6.3 10.2 1.5 13.1 1.1 10.2 4.6 18.3-4.5 27.4.4-6.1 3.6-12 6.8-17.6 10.5-5.8 3.8-12.4 7.3-14.2 14.8-.8 3.2-1.9 5.2-4.6 7.3-2.9 2.2-6.8 5.8-3.1 10.1 6.8 7.7 15.5 13.4 25.8 13.2 10.9-.2 21.9-2.3 32.7-4.4 16.3-3.1 32.5-6.6 48.6-10.6 4.3-1.1 8.6-4 11.7-7.2 4.2-4.3 7.3-9.7 11.1-15 4.9 1.1 10.5 2.5 16.1 3.8 11.8 2.8 23.4 2.4 34.7-2.6 4.6-2.1 7.2-5.2 5.3-11.1 6.1.6 11.7 1.9 17.2 1.6 5.7-.3 11.8-1.2 17-3.6 5.7-2.6 5.1-8.7-.4-12-2.8-1.7-5.2-2.8-7.6-4zM575.7 8.7h10.1c.2 1.8.3 3.4.5 6.3-3.7-2.2-6.5-3.8-10.6-6.3z" fill="#fff"/>
  <path d="M229.9 381.3c.7-.7 1.2-1.8 2-1.9 13.6-2.8 27.2-5.6 41.3-2.5 4.6 1 9.7-.9 14.6-.7 6 .2 11.8-.5 18 1.9 5.5 2.2 12.4.9 18.7 1.2 1.9.1 3.9 0 6.6 0-.9 2.1-1.4 3.2-1.9 4.3 3.7 1.8 10.2-3.8 11.1 4.6 1.8-.1 3.3-.2 5.2-.3-.9-5.7-1.5-11-2.7-16.2-.2-.9-2.5-1.7-3.9-1.9-8-1.5-8.1-3.1-5.7-10.8 3-9.6 8.9-14.9 18.9-17.1-.4-2-1.2-3.7-1.1-5.3.1-2.3-.1-5.6 1.3-6.8 3.1-2.6 2.2-5.7 2.9-8.7 1.4-5.9 3.5-11.7 6.1-17.2 2.4-5 6-9.5 9.3-14.6-4-2.6-8-5-11.7-7.7-9.6-7.2-10.4-11.7-4-22.1 2.3-3.7 2.2-5.9-2.7-7.5-11.3-3.7-17.9-12.9-22.7-22.8-3-6.3 0-13.2 3-19.2 1.8-3.7 3.3-6.9 1.9-11.3-1-3.3.2-6.5 2.8-9.4 1.6-1.7 2.3-5.2 1.8-7.6-1.6-7.8-3.7-15.6-6-23.3-.5-1.7-2.1-3.6-3.7-4.3-5.3-2.4-11-4.2-13.2-10.2-.8-2-.9-5.1.1-6.8 5.3-9.2 14.2-13.9 24.1-16 12.7-2.6 25.7-4.1 38.5-5.9 13-1.9 26.4-1.8 39-6.5 15.3-5.7 31.7-6.5 47.2-3.7 15 2.7 28.3 10.2 37.1 24.7 6.9 11.3 10.6 23.5 10.5 35.8-.1 11.8-3.8 23.9-7.9 35.2-4.1 11.5-10.6 22.1-15.7 32.4 3.1 1.4 6.8 2 8.3 4.1 1.7 2.4 2.1 6.3 1.8 9.4-.5 5.5-1.7 11-3.1 16.4-1.6 6.2-3.6 6.7-14.1 3.8 0 7.1-.3 13.8.1 20.4.2 4.1-2 7.1-6.1 7.9-3 .6-5.8 2-10.3 3.7.7-11.2 1.4-21.4 2.1-32.2-4.1 4.4-7.1 10.4-14.2 8-5.2-1.8-5.1-6.4-4.4-11-.5 0-1-.1-1.5-.1-.4 2.8-1.4 5.7-1 8.3 2.1 13.2 4.5 26.3 7.1 39.4.3 1.3 2.4 2.8 3.9 3.2 7.5 2.3 15.3 3.8 22.6 6.7 6.8 2.7 10.2 8.7 10.8 16.2 1.2 15.5-2.4 30.3-6 45.2-.7 2.9-.4 4.4 2.3 6.2 5.3 3.5 6.1 7.5 1.9 12.2-3.4 3.9-2.7 8.1-2.5 12.4.2 5.2.7 10.3 1 15.7 5.4 0 11.6-.4 17.8.1 4.9.4 9.8 2.1 14.7 2.8 5.2.7 10.4.7 15.6 1.3 1.5.2 2.9 1.3 4.3 1.9-1.3 1-2.6 2.2-4 2.9-1.3.6-2.8.6-4.4.9 2 3.9-.5 4.8-3.4 5.3-2.5.4-5.1.3-7.5 1.1-2 .7-3.7 2.4-5.5 3.6-1 .7-2.1 1.4-3.3 1.6-9.4 1.5-18.9 2.8-28.3 4.1-1.5.2-3.1-.3-4.6-.4-.1-.6-.1-1.2-.2-1.8 7.9-.9 15.8-1.9 23.7-2.8 0-.5 0-1-.1-1.4H490l-.3-1.5c2.2-.9 4.4-1.8 7-2.9-2-3.6.2-4 3.8-4.3 10.1-.7 20.1-1.8 30.1-2.8-.1-.8-.1-1.6-.2-2.3-16.1 1.1-32.1 2.2-48.6 3.3 2.5-3 5.7-3.9 11.8-4.1 4.3-.1 8.6-.5 13-1.6-1.1-.2-2.1-.7-3.2-.7l-30.9 2.4c-4.8.4-9.6 1.3-14.4 1.2-2.9-.1-2.9-1.2-.3-3.9h-7.9c.5 8.1 2.8 17-8.3 19.4-7.1 1.5-12-1.7-14.4-8.2-6.4 1.8-12.6 4.2-19.1 5.3-14.2 2.4-28.6 3.9-42.4-1.4-4.7-1.8-8.1-6.9-12.2-10.3-1.5-1.2-3.2-2.5-5-2.8-6.6-1-13.4-.9-19.9-2.4-7.2-1.7-11.3-6-11.3-12.5 0-3.5 1.4-4.7 4.8-5 8.1-.7 16.2-1.8 24.4-2.7.4-2.2 1.3-4.3 1.2-6.4-.3-4.1.2-10.5-2-11.7-4-2.2-9.7-1.7-14.7-1.7-5.5 0-11 .6-16.4 1-.1-.8-.2-1.6-.4-2.5 3.8-.8 7.5-1.6 11.3-2.5 0-.4-.1-.8-.1-1.2-10.5.9-21 1.7-31.6 2.6l-.3-2.4c8.6-1.3 17.2-2.7 25.7-4-.1-.1-.1-.2-.2-.3-7.6 0-15.1-.4-22.7.1-7.5.5-14.9 2-22.4 3 .3-3 .3-3 14.6-4.8-3.1-2.1-26.7.6-40.8 4.7-1.2-4.1 1.8-3.7 4.2-4.3 2.2-.5 4.3-1.4 6.3-3.1-9.7 1.3-19.4 2.6-29 3.9.5.3.7.5.7.5zm228.5-217.2c8.1-10.2 18.5-15.7 30.5-19.1-5.7-9.1-13.8-3.9-21.5-4.8 2.4 1.4 4.2 2.4 6.3 3.7-2.7 2.3-4.7 4.4-7 6.1-8.5 6.2-16.2 14.4-28.4 12.3-1.1-.2-2.4.5-3.6.8-2.8.8-5.5 2.1-8.3 2.4-10.1 1.1-19.7-.4-28.4-7.1-1.3 4.5-1.5 9.4-7.3 8.3-10.4-2-21.4-3-30.1-9.9-6.9-5.5-14.6-10.3-18.1-19.7-1.3 3.5-1.7 7.2-2.9 10.7-1.4 4.1-.2 6.1 4 7 1.2.3 2.1 1.8 3.1 2.7l-1.1 1.1c-2.1-.4-4.3-.8-7.9-1.5 2.7 7.8 5.5 14.2 7.2 20.9 1.4 5.1 2.7 10.8 1.8 15.8-.9 5-4.8 9.5-7.1 14.3-3.6 7.4-7.5 15.1-1.9 22.9 3.3 4.7 7.5 9.2 12.2 12.5 6 4.2 12.7 8.2 20.4 3.2.7-.4 1.9-.7 2.6-.4 6.1 2.5 12.6 4.6 18.1 8.2 3.4 2.2 8.9 2.5 9.7 8.1 0 .3 1.3.4 2 .6 11.5 2.9 22.7.2 33.8-2.1 10-2 17.2-7.1 19.1-18.6 1.2-7.3 6.5-8.3 12.6-3.8 1.1.8 2.4 1.3 3.9 2.2.4-4.5.7-8.4 1.1-12.4.6-6.7 6.8-2.1 9.5-4.7.4-.4.8-.7 1.3-1 8.4-4.2 8.2-12.1 7.9-19.7-.2-4.4-3.4-5.6-7.5-3.6-1.6.8-3.2 1.6-4.8 2.3-.4-.3-.8-.7-1.1-1 2.2-3.4 9.1-5.4 3.9-11.1-2 .3-4.4 1.3-6.3.7-3.3-1-6.2-2.9-9.3-4.4 1.8-2.2 3.3-5 5.6-6.4 4.3-2.7 9-4.7 13.6-6.9-7.1.7-14.2 5.4-21.1-1.2 2.2-5.4-3.3-5-6.5-7.4zm-86.5 88.1c-10.2.9-14.5 7.3-16.5 15.5-1.7 7.1 4 10.2 8.9 13.4l5.4 3.6c4.8 3.2 5.2 5.1 2.1 10.1-1 1.5-2.2 2.9-3 4.5-4.9 8.9-9.5 17.9-7 28.8 1.2 5.1 3.3 7 8.8 6.1 7-1.1 8.7-3 7.7-8.2-1.4-7.4-.5-9.1 6.3-11.7 1-.4 2.1-1.5 2.4-2.5 2.7-8.8 5.4-17.5 7.5-26.5.4-1.6-1.9-4.1-3.4-5.7-1-1-2.8-1.3-4.9-2.1 2.9-3.7 5.6-6.8 7.9-10.2.8-1.1.2-3.1.3-4.7-1.4.4-3.3.3-4.2 1.2-2.7 2.9-4.9 6.1-7.3 9.2-.7-.6-1.3-1.2-2-1.8-1.1-6 5.4-7.9 8-13.5-7.6.5-9.2 8.7-16.3 8.6 2.4-3.5 4.7-6.9 7.1-10.4-7.8-.3-8.2 8.2-14 10.5-2.9-6.9 3.9-9.4 6.2-14.2zm13.9 79.8c-3.7 1.7-7.2 3.4-10.8 5-7.2 3.4-10.5 2.6-15.9-3.3-.7-.7-2.1-.8-3.1-1.2 0 1.1-.5 2.7 0 3.3 2.9 3.5 4.7 8.4 10.4 8.6 1.1 0 2.8 1.5 2.9 2.5.7 5.5 4.7 5.2 8.5 4.9 2.1-.1 4.3-1.3 6.4-1.2 1.8.1 3.6 1 5.2 1.9 2.7 1.5 5.4 4.7 8 4.6 7.1-.3 12.4 3.1 18.4 5.7 3.8 1.7 8.5 1.2 12.6 2.5 3.8 1.1 6.9 1 9.2-2.2 3.9-5.4 7.5-11 12.1-17.8-12.4 1.2-20-4-27-11.2-.1 8-1.7 9.2-8.8 6.9-5.3-1.7-10.5-4-15.8-5.7-5-1.6-7.9-4.8-9.1-9.8-.3-1.4-.7-3-1.5-4-.9-1.1-2.4-1.7-3.6-2.5-.7 1.4-2.4 3.1-2.1 4.3.9 2.7 2.5 5.4 4 8.7zm22.9 82.1c9.3-.9 11-3 10.3-12.1-.4-6-.8-12.2.3-18.1 1-5.4.2-9.8-3.9-12.6-5-3.4-10.5-6.3-16.2-8.1-5-1.6-11.4 4.3-10.7 8.6 1.7 10.5 3.3 21 5.1 31.5.4 2.1 1.1 5.1 2.6 6 3.9 2.1 8.4 3.3 12.5 4.8zm-7.5-122c-3.9 9.5-7.6 16.8-9.7 24.5-.9 3.2.5 9.4 2.8 10.5 6.8 3.5 14.5 5.3 22 7.5.9.3 3.4-1.3 3.5-2.1 1.5-13.2 9.8-23.6 14.2-35.5.5-1.3 1.7-2.7 2.9-3.1 5.7-2.2 5-6.3 3.5-11.7-4 5.5-7.4 10.2-10.2 14.1-5 .3-4.1-8.9-9.9-4.5-3 2.3-5.1 5.8-8.2 9.6-.3-.2-2.1-.8-3.5-2-2.4-2-4.2-4.2-7.4-7.3zm22.9 78.8c0-.2-.2.3 0 .8 3.1 8.6 6 17.3 9.6 25.7.8 1.8 4.3 3.8 6.3 3.6 6-.7 12.1-2.1 17.8-4.1 2.4-.8 4.9-3.7 5.7-6.2 2.5-8.3 4.3-16.8 1.4-25.5-2.4-7.3-4.9-14.6-7.8-23.4-2.5 7-4.5 12.3-6 17.6-.3 1.2.7 3.3 1.8 4.3 2.5 2.4 5.6 4.2 7.9 6.7 1 1.1.7 3.3 1 5-1.5-.4-3.3-.4-4.5-1.2-2.8-1.8-5.3-4-9.1-6.9.6 2.1.6 2.9 1 3.3 2.5 2.5 5.4 4.9 7.7 7.6.9 1.1.8 3.1 1.2 4.6-1.7-.2-3.8.1-5-.8-3.5-2.6-6.5-5.8-9.9-8.6-1.3-1.1-3-2.3-4.6-2.4-4.7-.3-9.3-.1-14.5-.1zM346 355.3c.6 3.6.9 5.5 1.3 7.4 1.9 9.1 4.1 18.2 5.6 27.4 1.3 8.3 1.8 9.4 9.9 10.7 2.7.4 5.6 1.2 8 .5 2-.6 4.9-3.3 4.9-4.9-.2-8.1-1.1-16.2-2-24.2-.2-1.3-1.5-2.9-2.7-3.6-7.9-4.3-15.8-8.4-25-13.3zM469.2 387c-1.1 5.8 2.7 6.3 6.9 6.3 4.9 0 5.2-3.6 5.2-7.2 0-1.2-.7-2.4-.5-3.6 1.7-12.1 4.1-24.1 5.3-36.2 1.1-12.1-1.7-17.9-11.9-21.9-1.7-.7-4.9.3-6.3 1.6-1.9 2-1.1 4.1 1.5 6.2 2.7 2.2 5.9 5.8 6 8.8.3 7.5-.6 15.1-1.7 22.6-1.1 8-3 15.7-4.5 23.4zM349.7 138.8c-.4.5-.7 1-1.1 1.5 11.5 12.5 25.8 19.2 44.9 19.8-2.7-4.3-4.9-7.4-6.7-10.7-.7-1.2-.3-3-.5-4.6 1.5.1 3.3-.2 4.5.5 3.4 2.1 6.3 4.8 9.8 6.8 8.8 5 17.9 9 28.4 6.5-2.4-2.9-4.7-5.6-7.5-8.9-1.3 6.5-6 5.5-9.8 4.5-4.1-1.1-8.5-2.9-11.6-5.7-7.5-6.9-17.1-6.6-26.4-8.8 4.1 3.8 8.2 7.6 13.6 12.4-9.3.5-16.4.1-23-4.6-4.6-3.2-9.7-5.8-14.6-8.7zM443 299.3c-8.9 3.6-14.1 13.1-10.1 18.8 4.6 6.5 9.8 12.9 19.6 15.2-3.3-11.7-6.4-22.6-9.5-34zm22.7-35.9c-.6.3-1.2.6-1.7 1-.7-1.6-2.1-3.1-2-4.6.1-1.2 1.7-2.6 3-3.4 1.3-.8 3.3-.7 4.5-1.6 1.2-.9 3-3 2.6-3.8-1.4-3.3-3-6.8-5.5-9.1-2.2-2.1-5.9-2.8-7.4 1.6-2 5.8-4.1 11.6-5.3 17.6-.5 2.6 1.3 5.6 2 8.4 2.7-1.1 5.4-2 8-3.3.9-.5 1.2-1.9 1.8-2.8zm30.6-130c-4.2-8.5-11.3-13.5-19.5-17.2-11.3-5.1-23.2-7.8-35.4-6.1-11 1.5-21.8 4.9-32.6 7.6-2.2.5-4.2 1.4-6.3 2.2.1.5.3 1 .4 1.6 6-4.6 13-1 20-4.6 10.6-5.5 23.3-5.2 35.1-2.8 14.3 2.8 27.8 8.1 38.3 19.3zm-62.2 310c8 3.6 11.8 2 11.5-4.4-.3-4.5-.9-9-1.2-13.5-.4-5.7-4.8-1.9-7.2-2.9-.5-.2-2.9 1.9-3 3-.2 6-.1 12-.1 17.8zm15.6-19c7.2-.6 13.7-1.1 20.2-1.6v-12.6c-7.1 1.7-13.6 3.3-20.2 4.9v9.3zm-25-18.2c-.8.8-1.6 1.7-2.3 2.5 1.3.3 2.5.7 3.8.7 4.6.3 9.4 1.4 13.9.7 12.8-2.2 25.5-5 38.2-8.1 5.6-1.4 9.3-2 8.6-10.4-1.9 1.3-3.3 2.3-4.9 3.1-3.2 1.7-6.4 3.5-9.9 4.7-2.6.9-6 0-8.1 1.3-12.5 7.8-25.5 9-39.3 5.5zm67.4-140.8c.1-1.9.1-2.8.2-3.7.7-6.4 1.6-12.8 2.1-19.3.3-3.2-1.8-5.7-4.5-3.2-3.1 2.9-5.4 7-7.2 11-1.8 4 2 5.4 4.6 7.4 2.3 1.8 5 4.2-1.5 6.7 2.9.5 4.3.8 6.3 1.1zM323.7 141.5c1.8-4.6 3.1-8.5 8.5-8.9 7.3-.5 14.6-1.4 21.9-2.2 1.4-.2 2.8-.7 4-1-.3-2-.6-3.7-1.1-6.6-10.3 3.3-20.3 6.1-30 9.7-5.1 1.9-7 6.8-5.5 10.8 1.3 3.5 7.5 6.5 11.8 5.7-3.2-2.4-6.3-4.9-9.6-7.5zm71.5 275.1c.9 1.8 1.4 4.4 2.8 5.3 5.8 3.4 12.4 4.9 18.5 1.7 2-1 1.9-6 2.8-9.2-8.1 4-15.3 4.8-24.1 2.2zm37.1-140.9c-.3-.5-.6-.9-.9-1.4-7.4.4-14.7.8-22.1 1.1-.1 5 4.8 11.9 7.6 10.4 5.4-2.8 10.3-6.6 15.4-10.1zm-3.2 45.9c-3.5 3.9-4 6.9.1 9.6 1.2.8 2.1 2.1 3.3 2.8 4.3 2.5 8.7 5.1 13.2 7.2 1.1.5 3-1 4.6-1.6-1-1.2-1.8-3.2-3-3.5-7.8-2.1-13.7-6.9-18.2-14.5zM376 404.8c-7.6.4-14.7.8-23.2 1.3 6.7 5.2 12.8 7.3 19.7 7.4 4.7.1 5.1-2.4 4.5-5.9-.3-1.4-1-2.7-1-2.8zM499.8 137c-.5.1-1 .2-1.6.3.5 1.6 1 3.2 1.4 4.9.4 1.4.6 2.9 1.2 5.7-3-1.9-4.5-2.8-5.2-3.3-1.3 1.6-2.5 3.2-4.3 5.4.2 4.7.2 4.7 14.8 1.9-2.1-5.1-4.2-10-6.3-14.9zm-24 275.3c0 5.2-.2 9 .1 12.8.1 1.2 1.7 2.6 3 3.1 1.1.4 3.7-.4 3.7-.7.3-4.2.6-8.6 0-12.7-.2-1.1-3.9-1.6-6.8-2.5zm-92.4-7.9c-.8.6-1.5 1.2-2.3 1.8 2.1 5.7 4.2 11.3 6.7 18 4.6-5.8 1.6-10.8.3-15.5-.4-1.7-3-2.9-4.7-4.3zM346.7 349c7.6 3.7 14.2 6.8 21 10.1-2-3.3-3.3-6.7-5.6-9-4.3-4.2-9.4-3.4-15.4-1.1zm31.9 91.9.3 2.7 36.3-2.1c0-.7-.1-1.3-.1-2-5.3.3-10.9-.3-15.9 1.2-3.1.9-5.1.5-8-.1-4-.8-8.3.1-12.6.3zm83.8-105.3c2.2 7 4.3 13.7 6.4 20.4 3.3-14 1.8-18.9-6.4-20.4zm-90.7 25c6.5 5.7 11.5 5.9 18.2 0h-18.2zM394.2 120c-4.9.8-9.5 1.5-14.1 2.2 0 .6-.1 1.2-.1 1.7 4.3.9 8.7 1.8 13.1 2.7.5-2.7.7-4.3 1.1-6.6zm48.4 150.9c-9.6 6.5-10.4 8-8.3 15.2 3.1-5.6 5.7-10.4 8.3-15.2zM336.2 414.1c0 .8 0 1.6.1 2.4 6-.4 12.1-.8 18.1-1.1v-1.2c-6.1-.1-12.2-.1-18.2-.1zm88.1.2c-.5 6.4.6 7.3 6.3 5.8 1.1-5.5-3.6-4.2-6.3-5.8zm-91 10.6c-4.2-3.2-7.7-6-11.3-8.8 1 6.9 5.4 8.5 11.3 8.8zm169.6-240.8 2.1.3c.8-5.5 1.6-10.9 2.4-16.4-.5-.1-1-.1-1.5-.2-1.1 5.4-2 10.9-3 16.3zm3.9-29.8c-.5-.1-1-.2-1.4-.3-1.1 2.4-2.2 4.7-3 6.4 2 1.5 3.4 2.6 4.5 3.4-.1-2.4-.1-5.9-.1-9.5zm-77.6 270.3h-2.1v10.9h2.1v-10.9z"/>
  <path d="M229.7 381.1c2.4 1.2 4.8 2.3 7.1 3.7 5.5 3.2 6.1 9.3.4 12-5.1 2.4-11.2 3.3-17 3.6-5.5.3-11.1-1-17.2-1.6 1.9 5.9-.7 9.1-5.3 11.1-11.2 5.1-22.8 5.4-34.7 2.6-5.6-1.3-11.2-2.6-16.1-3.8-3.9 5.3-6.9 10.7-11.1 15-3.1 3.2-7.5 6.2-11.7 7.2-16.1 4-32.3 7.5-48.6 10.6-10.8 2.1-21.8 4.1-32.7 4.4-10.3.2-19-5.5-25.8-13.2-3.7-4.2.2-7.9 3.1-10.1 2.7-2.1 3.8-4.1 4.6-7.3 1.8-7.5 8.4-11 14.2-14.8 5.6-3.7 11.5-6.9 17.6-10.5-9-4.9-17.2 4.3-27.4-.4-2.8.5-7.7 5.3-13.1-1.1 5.1-1.3 9.7-2.9 14.4-3.5 7-.9 14-1.1 21-1.4 7.4-.3 14.3-.3 20.2-6.7 5.6-6 13.8-7.8 22.2-6.6 3.4.5 6.7 1.3 10.7 2.1-3.5-4.6-2.6-7.9.1-12.4 2-3.4.6-9.2.1-13.8-1-10.6-2.8-21.2-3.4-31.8-.6-9 4.1-13.6 12.4-16.7 2.5-.9 4.1-5.3 5.4-8.4 1.3-2.9 1.7-6.2 2.8-9.3 1.4-3.8 2.7-7.5-.6-11.1-.6-.6-1.1-1.8-.9-2.5 1.9-6.8-3.8-8.4-7.7-11.1-4.1-2.9-8.5-5.5-12.6-8.4-9.5-7-17-15.7-22.5-26.2-.5-1-1.6-2-2.7-2.3-13.4-4.2-18.1-14.3-12.3-27.1 1.3-2.8 3.6-5.1 5.8-8.1-1.4-12.4 2.3-24.9 6.5-37.2 3.2-9.3 8.2-17.9 16.1-23.5 8-5.6 16.9-10.5 26.1-13.5 8.9-2.9 18.8-4.3 28.2-4 16.4.5 32.5 2.9 48.2 9.2 13.8 5.5 24.6 14.4 34.7 24.4 6.9 6.9 11.5 15.8 14.1 25.4 1.9 7 3.6 14 5.5 21 .3 1.1 1.3 2.1 2 3.1 4.7 6.6 3.9 13.4-.8 20-3.4 4.9-5.5 10.8-7.8 16.4-5.7 13.6-14.6 24.5-27.7 31.5-7.1 3.8-14.8 6.8-23.3 10.6 2.4 4.9 4.9 10 7.4 15.2 2.5 5.3 4.9 10.7 7.6 16 .8 1.5 2.6 3.9 3.4 3.7 7.5-1.9 9.5 4.2 12.2 8.5 1.7 2.8 1.4 6.8 2.9 9.8 1.6 3.2 4.1 6.1 6.5 8.8 7 7.7 5.9 11.1-4.3 13.7-1 .3-2 .6-3.2 1 5.7 12.6 3.4 24.4-2.1 37.3 2.9.3 6.1.5 9.3.8 0-.1-.2-.3-.2-.3zm-109.1 27.8-10.8 6c-9.7 5.1-19.2 10.8-29.3 15.1-7 3-13.9 0-19.9-4.4 2.5-.4 4.8 0 7.2.3 3.5.4 7.4 1.9 10.4.8 9-3.2 17.7-7.2 26.4-11.3 2.8-1.3 4.9-4 7.6-5.6 6-3.5 12.1-6.9 18.3-10 .8-.4 2.4.7 3.8 1.2 2.3-2 4.7-4.1 7.6-6.7-2.3-1.9-3.9-3.9-5.9-4.7-13.7-5.1-27.4-10.1-41.2-14.8-6.2-2.1-12.4-1.7-17.7 2.2-7.4 5.4-14.5 11.3-21.7 16.9-3.2 2.5-6.4 5.2-9.9 7.4-4.8 3.2-9.9 6-14.6 9.2-5.1 3.5-4.6 6.8 1 9.6 2.9 1.4 6.1 2.7 8.6 4.7 16.3 13.1 34.8 11.6 53.5 8.2 9.3-1.7 18.5-4.4 27.8-6.5 12.6-2.9 18.2-10.8 17.9-26.3-5.3 3.1-10.4 6.1-15.6 9-1.2-.1-2.3-.2-3.5-.3zm-45-218c-5-2.4-7-.6-8.3 3.1-2.2 6.6 1.9 15.9 8 18.7 2.5 1.2 4.7 3.2 6.6 5.3 6.1 6.8 11.4 14.6 18.2 20.7 16.7 15 37 22.4 59.1 22.7 12.6.2 25.3-2.2 37.7-4.7 18.1-3.7 30.4-15.8 38.9-31.4 11.9-22.2 7.5-44.4-1.6-66.4-4.6-11.1-11.9-19.8-21.4-26.6-6.1-4.4-12.5-8.5-19.3-11.7-12.2-5.7-25.6-7.2-38.8-9-15.4-2.2-30.3-.3-44.8 5.1-10.6 4-18.6 11-24.5 20.5-7.5 12.1-9.6 25.5-9.7 39.4-.1 4.4-.1 8.7-.1 14.3zm155.1 144.7c-2.6-2.9-4.7-4.9-6.4-7.3-3.5-4.9-7.7-7.7-14.1-6.6-1.5.3-4.1-1.1-4.9-2.4-3.8-6.3-5.1-7.1-12.3-4.9-6.2 1.9-12.4 3.9-18.4 6.3-7.5 3-7.3 3.2-5.8 11.1.1.8-.3 1.6-.6 2.9-3.1-1.4-5.7-2.5-8.6-3.8-1 2.1-1.8 3.6-2.7 5.4 6.9 3 10.5 8.4 12.8 14.9 1.1 2.9 2.5 5.6 3.8 8.4 1.2 2.5 2.4 3.6 5.4 1.7 5.4-3.3 11-6.3 16.7-9 10.7-5.1 21.5-9.9 32.2-14.9.8-.4 1.7-1.1 2.9-1.8zm-72.8-58.7c-5.7 4.4-11.9 9.4-17.9 14.1 2 2.8 3.7 5.9 6.2 8.2 1.7 1.5 4.7 2.9 6.7 2.5 5-1 9.4 1.8 8 6.5-1.9 6.3 1.4 9.8 4.4 13.2 5.1-2.4 9.7-4.8 14.5-6.9 4.7-2.2 9.5-4.1 14.4-6.3-1.9-8.3-3.7-16.3-5.5-24h-1.6c-6.8 1.3-14.3 5.5-18.1-4.7-.2-.5-1.5-.8-2.3-1-2.9-.6-5.8-1.1-8.8-1.6zm-2.8 40.3c-2.9-6-14.3-10.1-19.2-7.4-1.2.7-2.7 1.9-2.9 3-1.6 9-1.5 17.9 4.5 25.6 2.5 3.2 10.7 2.1 12.2-1.4.8-1.9 1.6-3.9 2.3-5.6-1.2-.3-3.1-.9-6.1-1.7 3.4-2.2 5.7-3.7 9.1-6-2.6-.8-4-1-5.1-1.6-1.7-.9-3.2-2.1-4.8-3.2 1.7-.5 3.4-1.2 5.1-1.6 1.4-.3 2.8-.1 4.9-.1zm-.2-45.6c-1.6-1.2-3.2-3.5-5.2-3.9-8-1.7-16.2-2.7-24.5-4.1 0 .5-.4 1.4-.1 1.8 4.3 5.5 8.7 11.1 13.3 16.4.5.6 3.1.1 4.1-.7 4.1-2.9 8-6.1 12.4-9.5zm-24.2 11.7c-.1-.6-.2-1.2-.3-1.7-1.4.1-3.8-.3-4 .2-4 9.4-7.8 18.9-6.8 29.3 3.6.9 6.7 1.6 8.9 2.1 2.6-3.4 4.7-6.3 7.3-9.7-3.4-4.4-7.2-9.4-11.9-15.7 2.6-1.7 4.7-3.1 6.8-4.5zm-2.5 38.8c-3.3 0-6.1.2-8.9 0-3.2-.3-5 .9-6.2 3.9-1.9 4.6-2.4 10 1.2 12.8 3.8 3 9.5 3.6 14.4 5.2.3-.5.6-1 1-1.5-5.9-6.5-4.2-13.5-1.5-20.4zm29.3 74.8c-.1.9-.3 1.7-.4 2.6 13.7 2.5 26.4 13.2 41.9 3.6-.8-.9-1.5-2.1-2.5-2.8-5.6-3.6-11.1-2.5-17-.5-3.3 1.1-7.4.4-11-.1-3.7-.6-7.3-1.9-11-2.8zM51 439.4c-.1-.4-.2-.9-.3-1.3-5.7-3.5-11.2-7.3-17.1-10.5-2.7-1.5-5.9-2.1-9-2.5-1.1-.2-2.5 1.4-3.7 2.1.8 1.3 1.4 3 2.6 3.7 4.9 2.7 9.8 5.6 15.1 7.4 3.8 1.3 8.3.8 12.4 1.1zm171.3-42.8c6.3-.3 12.2.2 14.6-7-8.7-2.6-17.2-6.7-26.2 2 4.6.4 8.4.8 12.2 1.2-.2 1.3-.3 2.4-.6 3.8zm-116.2-32.8c-.3.9-.5 1.7-.8 2.6 10.4 2.8 20.7 5.7 31.2 8.1 1 .2 2.7-2 4-3-.3-.6-.6-1.1-.8-1.7-7.7-.7-14.3-7.2-23-2.9-1.5.8-4.3-1-6.5-1.7-1.4-.3-2.7-.9-4.1-1.4zm8.7-62.6c-10.1 3.9-12.7 15.8-5.6 25.4 1.9-8.8 3.7-16.7 5.6-25.4zm56.8-31.7c3.7 3.3 6.7 5.8 9.5 8.5 3 2.8 4.8 2.2 5.5-1.7.5-3.1.7-6.2 1.3-10.8-6.3 1.5-11.2 2.7-16.3 4zm22.4 14.7-.6.3c1.3 6.6 2.5 13.3 3.9 19.9.3 1.2.9 2.4 1.7 3.5.1.2 2-.4 2.2-.9.5-1.3.9-2.9.6-4.2-.7-2.9-1.8-5.8-3-8.5-1.5-3.4-3.2-6.8-4.8-10.1zm17.1 23.1c-1.6 3.6-2.8 6-3.9 8.5.3.5.6.9 1 1.4 2.2-.7 6.2-1.6 6.2-2-.3-3.2-1.1-6.5-2.7-9.2-.4-.7-4.5.8-6.9 1.3.1.5.3 1 .4 1.5 1.6-.3 3.2-.8 5.9-1.5zm-42 60.5c0 .4-.1.8-.1 1.2.9.3 2 .4 2.8.9 1 .7 1.6 1.9 2.6 2.5 2.9 1.7 6.3-1.8 5.4-5.3-3.5.2-7.1.4-10.7.7zm.7-6.2c-1.9-3.1-3.1-5-4.7-7.6-2 2.7-3.3 4.6-5.2 7.2 3.4.1 6 .3 9.9.4zm43.3-3.7c2.8.8 5.3 1.4 8.2 2.2-.2-3-.4-5.5-.6-8.3-2.7 2.2-5 4-7.6 6.1zm-76.4 27.7c-.1-5.5-1.9-6.1-10.5-4.3 3.9 1.6 6.9 2.8 10.5 4.3zm83.2-19.6c-2.8 1.3-4.7 2.1-6.7 3 1.6 2.2 2.9 3.9 5.1 6.8.6-3.6 1-6.1 1.6-9.8zm-38.8 13.8c-1.2 3.1-2.4 6.2-3.3 8.7 5.8-1.3 6.7-3.3 3.3-8.7zm-68.6-23.3c1.8-3.4 2.8-5.3 4.1-7.9-2.2-.5-3.9-.8-6.4-1.3.9 3.3 1.4 5.5 2.3 9.2z"/>
  <path d="M458.4 164.1c3.2 2.4 8.7 1.9 6.5 7.2 6.9 6.6 14 1.9 21.1 1.2-4.6 2.3-9.3 4.2-13.6 6.9-2.3 1.5-3.7 4.2-5.6 6.4 3.1 1.5 6.1 3.5 9.3 4.4 1.9.6 4.3-.4 6.3-.7 5.2 5.7-1.7 7.7-3.9 11.1.4.3.8.7 1.1 1 1.6-.8 3.2-1.6 4.8-2.3 4.1-2 7.3-.8 7.5 3.6.4 7.6.5 15.4-7.9 19.7-.5.2-.9.6-1.3 1-2.7 2.6-8.9-2-9.5 4.7-.4 3.9-.7 7.9-1.1 12.4-1.5-.8-2.8-1.4-3.9-2.2-6.1-4.5-11.4-3.5-12.6 3.8-1.9 11.5-9.1 16.6-19.1 18.6-11.1 2.2-22.3 5-33.8 2.1-.7-.2-2-.3-2-.6-.8-5.6-6.4-5.9-9.7-8.1-5.5-3.6-12-5.6-18.1-8.2-.7-.3-1.9 0-2.6.4-7.8 5-14.5 1-20.4-3.2-4.7-3.3-8.9-7.8-12.2-12.5-5.6-7.8-1.6-15.6 1.9-22.9 2.3-4.8 6.2-9.3 7.1-14.3.9-5-.5-10.7-1.8-15.8-1.8-6.7-4.5-13.1-7.2-20.9 3.6.7 5.8 1.1 7.9 1.5l1.1-1.1c-1-.9-1.9-2.5-3.1-2.7-4.2-.9-5.4-2.8-4-7 1.2-3.5 1.6-7.2 2.9-10.7 3.5 9.4 11.2 14.2 18.1 19.7 8.7 6.9 19.6 7.9 30.1 9.9 5.8 1.1 6-3.8 7.3-8.3 8.7 6.8 18.3 8.2 28.4 7.1 2.8-.3 5.5-1.6 8.3-2.4 1.2-.3 2.5-1 3.6-.8 12.2 2.2 19.9-6 28.4-12.3 2.3-1.7 4.3-3.7 7-6.1-2.1-1.2-3.9-2.3-6.3-3.7 7.7.9 15.8-4.2 21.5 4.8-12 3.6-22.4 9.2-30.5 19.3zm-56 87.5.3-.9c3.4-.6 6.8-1.3 10.2-1.7 4.3-.5 7.3-3 6.6-7-.4-2.4-3.5-5.5-6-6.2-8.7-2.5-17.6-4.6-26.6-5.6-3.1-.3-7.8 2.4-9.7 5.1-2.7 4 1.2 7.4 4.5 8.8 6.7 3 13.8 5.1 20.7 7.5zm-18.5-45c-.2-.8-.3-1.5-.5-2.3 3.8-2.9 7.7-5.7 11.5-8.6l-1.2-2.1c-4.6 2.3-9.4 4.2-13.6 7.1-3 2-2.6 5.1-.3 8 5.9 7.1 12 6.9 18.9-2.1h-14.8zm43.2-1.1c-.2-.1-.4-.1-.7-.2 0-1.3.4-2.7-.1-3.8-.7-1.9-2-3.5-3-5.3-1.4 1.2-3.6 2.2-4.1 3.7-1.2 3.9-2 8-2.3 12.1-.1 1.2 1.8 3.2 3.2 3.7 1.1.4 3.5-.6 4.1-1.7 1.4-2.6 2-5.7 2.9-8.5zm-61.6 4.7c5.3-3.7 6.7-9.3 4-16.6-.4-1.1-1.7-2.6-2.7-2.6-1.1 0-2.7 1-3.4 2.1-3.2 4.7-2.3 12.2 2.1 17.1zm68.3-29.6c3.3-3.6.6-6.6-1.3-8.3-1.9-1.7-5.4-3-7.9-2.6-4.6.8-9 3-10.4 9.3 4.1-1.8 7.5-4.6 10.5-4.2 3.3.4 6.1 3.8 9.1 5.8zm-56.9-3.8c.1-.7.1-1.3.2-2-3.9-3.2-6.8-9.5-13.3-6.3-2.6 1.3-7.9 2.1-6 7.7 6.5-3 6.5-2.9 13.2.1 1.6.9 3.9.4 5.9.5z" fill="#fff"/>
  <path d="M371.9 252.2c-2.3 4.8-9.1 7.2-6.3 14.3 5.8-2.3 6.3-10.7 14-10.5-2.4 3.5-4.7 6.9-7.1 10.4 7.2.1 8.8-8.2 16.3-8.6-2.6 5.5-9.2 7.5-8 13.5.7.6 1.3 1.2 2 1.8 2.4-3.1 4.7-6.3 7.3-9.2.8-.9 2.7-.8 4.2-1.2-.1 1.6.4 3.6-.3 4.7-2.2 3.4-5 6.5-7.9 10.2 2.1.9 3.9 1.1 4.9 2.1 1.5 1.6 3.8 4.1 3.4 5.7-2.1 8.9-4.8 17.7-7.5 26.5-.3 1-1.4 2.1-2.4 2.5-6.8 2.6-7.7 4.3-6.3 11.7 1 5.3-.7 7.1-7.7 8.2-5.5.9-7.6-1-8.8-6.1-2.6-10.9 2.1-19.8 7-28.8.9-1.6 2.1-3 3-4.5 3.2-5.1 2.8-6.9-2.1-10.1-1.8-1.2-3.6-2.5-5.4-3.6-5-3.2-10.6-6.3-8.9-13.4 2.1-8.3 6.4-14.7 16.6-15.6z" fill="#fff"/>
  <path d="M385.8 332c-1.5-3.3-3.1-6-3.8-8.8-.3-1.2 1.3-2.8 2.1-4.3 1.2.8 2.7 1.4 3.6 2.5.8 1.1 1.2 2.6 1.5 4 1.2 5 4.2 8.2 9.1 9.8 5.3 1.7 10.5 4 15.8 5.7 7.1 2.3 8.8 1 8.8-6.9 7 7.2 14.6 12.5 27 11.2-4.6 6.8-8.2 12.4-12.1 17.8-2.3 3.2-5.5 3.4-9.2 2.2-4.1-1.2-8.8-.8-12.6-2.5-6-2.6-11.4-6-18.4-5.7-2.6.1-5.3-3.1-8-4.6-1.6-.9-3.5-1.9-5.2-1.9-2.1-.1-4.2 1.1-6.4 1.2-3.8.2-7.8.6-8.5-4.9-.1-1-1.9-2.5-2.9-2.5-5.7-.2-7.5-5.1-10.4-8.6-.6-.7-.1-2.2 0-3.3 1.1.4 2.4.5 3.1 1.2 5.5 6 8.8 6.7 15.9 3.3 3.3-1.5 6.9-3.2 10.6-4.9zM408.7 414.1c-4.2-1.5-8.6-2.7-12.4-4.8-1.5-.9-2.2-3.9-2.6-6-1.8-10.5-3.4-21-5.1-31.5-.7-4.4 5.8-10.2 10.7-8.6 5.7 1.8 11.3 4.7 16.2 8.1 4.1 2.8 4.9 7.2 3.9 12.6-1.1 5.8-.7 12.1-.3 18.1.6 9.1-1.1 11.3-10.4 12.1z" fill="#fff"/>
  <path d="M401.2 292.1c3.1 3.2 5 5.3 7.2 7.2 1.4 1.2 3.2 1.8 3.5 2 3.2-3.8 5.2-7.3 8.2-9.6 5.8-4.4 4.9 4.8 9.9 4.5 2.9-3.9 6.3-8.6 10.2-14.1 1.5 5.5 2.2 9.5-3.5 11.7-1.2.5-2.4 1.9-2.9 3.1-4.5 11.9-12.8 22.3-14.2 35.5-.1.9-2.6 2.4-3.5 2.1-7.5-2.2-15.2-4-22-7.5-2.2-1.1-3.6-7.4-2.8-10.5 2.3-7.6 6-14.9 9.9-24.4zM424.1 370.9c5.2 0 9.8-.2 14.4.1 1.6.1 3.3 1.3 4.6 2.4 3.4 2.8 6.4 6 9.9 8.6 1.2.9 3.3.6 5 .8-.4-1.6-.3-3.5-1.2-4.6-2.3-2.7-5.1-5-7.7-7.6-.4-.4-.4-1.2-1-3.3 3.8 2.9 6.3 5.1 9.1 6.9 1.2.8 3 .8 4.5 1.2-.3-1.7 0-4-1-5-2.3-2.5-5.4-4.3-7.9-6.7-1.1-1-2.1-3.1-1.8-4.3 1.5-5.3 3.6-10.5 6-17.6 2.9 8.8 5.4 16.1 7.8 23.4 2.9 8.7 1.1 17.2-1.4 25.5-.8 2.5-3.3 5.3-5.7 6.2-5.7 2-11.7 3.4-17.8 4.1-2 .2-5.5-1.7-6.3-3.6-3.6-8.4-6.5-17.1-9.6-25.7-.1-.5.1-1 .1-.8zM346 355.3c9.2 4.9 17.2 9 25 13.3 1.2.7 2.6 2.3 2.7 3.6.9 8 1.8 16.1 2 24.2 0 1.7-2.9 4.3-4.9 4.9-2.4.7-5.4-.1-8-.5-8.1-1.2-8.6-2.3-9.9-10.7-1.4-9.2-3.7-18.3-5.6-27.4-.4-1.9-.7-3.8-1.3-7.4zM469.2 387c1.5-7.7 3.4-15.4 4.5-23.2 1.1-7.5 2-15.1 1.7-22.6-.1-3.1-3.3-6.6-6-8.8-2.6-2.1-3.4-4.2-1.5-6.2 1.3-1.4 4.6-2.3 6.3-1.6 10.2 4 13.1 9.8 11.9 21.9-1.2 12.1-3.5 24.1-5.3 36.2-.2 1.1.5 2.4.5 3.6-.1 3.6-.3 7.2-5.2 7.2-4.2-.1-8-.7-6.9-6.5zM349.7 138.8c4.9 2.9 10 5.5 14.6 8.8 6.6 4.7 13.7 5.1 23 4.6-5.3-4.9-9.4-8.7-13.6-12.4 9.2 2.2 18.9 2 26.4 8.8 3.1 2.8 7.5 4.6 11.6 5.7 3.7 1 8.5 2.1 9.8-4.5 2.7 3.2 5 6 7.5 8.9-10.5 2.5-19.6-1.6-28.4-6.5-3.4-1.9-6.4-4.7-9.8-6.8-1.2-.7-3-.3-4.5-.5.1 1.5-.2 3.3.5 4.6 1.8 3.3 4 6.4 6.7 10.7-19.1-.7-33.4-7.3-44.9-19.8.4-.6.8-1.1 1.1-1.6z" fill="#fff"/>
  <path d="M443 299.3c3.2 11.4 6.2 22.3 9.5 34-9.8-2.3-15-8.6-19.6-15.2-4-5.7 1.2-15.2 10.1-18.8zM465.7 263.4c-.5.9-.9 2.3-1.7 2.7-2.6 1.3-5.3 2.2-8 3.3-.7-2.8-2.5-5.8-2-8.4 1.2-6 3.3-11.8 5.3-17.6 1.5-4.4 5.2-3.6 7.4-1.6 2.5 2.4 4.1 5.9 5.5 9.1.3.8-1.4 2.9-2.6 3.8-1.3.9-3.2.8-4.5 1.6-1.3.8-3 2.2-3 3.4-.1 1.5 1.3 3.1 2 4.6.4-.3 1-.6 1.6-.9zM496.3 133.4c-10.5-11.1-24-16.5-38.3-19.5-11.8-2.4-24.5-2.8-35.1 2.8-7 3.7-14 0-20 4.6-.1-.5-.3-1-.4-1.6 2.1-.7 4.2-1.6 6.3-2.2 10.8-2.7 21.6-6.1 32.6-7.6 12.2-1.6 24.1 1 35.4 6.1 8.2 3.9 15.3 8.8 19.5 17.4zM434.1 443.4c0-5.9-.2-11.9.1-17.8.1-1.1 2.5-3.2 3-3 2.4 1 6.8-2.8 7.2 2.9.3 4.5.9 9 1.2 13.5.3 6.5-3.5 8-11.5 4.4zM449.7 424.4V415c6.6-1.6 13.2-3.2 20.2-4.9v12.6c-6.5.6-13 1.1-20.2 1.7zM424.7 406.2c13.8 3.5 26.9 2.2 39.2-5.4 2.2-1.3 5.6-.5 8.1-1.3 3.4-1.2 6.6-3 9.9-4.7 1.6-.8 3-1.9 4.9-3.1.6 8.4-3 9-8.6 10.4-12.6 3.1-25.4 5.8-38.2 8.1-4.4.8-9.2-.3-13.9-.7-1.3-.1-2.5-.5-3.8-.7.8-.9 1.6-1.7 2.4-2.6zM492.1 265.4c-2-.3-3.4-.5-6.4-1 6.6-2.5 3.8-4.9 1.5-6.7-2.6-2-6.3-3.5-4.6-7.4 1.8-4 4.1-8.1 7.2-11 2.7-2.5 4.7 0 4.5 3.2-.5 6.4-1.4 12.8-2.1 19.3 0 .7 0 1.6-.1 3.6zM323.7 141.5c3.3 2.6 6.4 5.1 9.5 7.6-4.3.8-10.5-2.2-11.8-5.7-1.5-4 .4-8.9 5.5-10.8 9.7-3.6 19.7-6.5 30-9.7.5 2.8.8 4.6 1.1 6.6-1.2.3-2.6.9-4 1-7.3.8-14.6 1.7-21.9 2.2-5.3.2-6.6 4.1-8.4 8.8zM395.2 416.6c8.9 2.6 16 1.9 24.2-2.2-.9 3.2-.8 8.2-2.8 9.2-6.1 3.2-12.7 1.7-18.5-1.7-1.5-.9-2-3.5-2.9-5.3zM432.3 275.7c-5.1 3.4-10 7.3-15.4 10.2-2.8 1.5-7.7-5.4-7.6-10.4 7.4-.4 14.7-.8 22.1-1.1.3.4.6.9.9 1.3zM429.1 321.6c4.5 7.6 10.3 12.4 18.3 14.5 1.2.3 2 2.3 3 3.5-1.6.6-3.5 2.1-4.6 1.6-4.6-2.1-8.9-4.7-13.2-7.2-1.2-.7-2.1-2-3.3-2.8-4.1-2.8-3.6-5.7-.2-9.6zM376 404.8c0 .1.8 1.4 1 2.7.6 3.5.2 6-4.5 5.9-7-.1-13-2.2-19.7-7.4 8.4-.4 15.5-.8 23.2-1.2zM499.8 137c2.1 4.9 4.2 9.8 6.3 14.8-14.6 2.8-14.6 2.8-14.8-1.9 1.8-2.3 3-3.8 4.3-5.4.8.5 2.2 1.4 5.2 3.3-.6-2.9-.9-4.3-1.2-5.7-.4-1.6-.9-3.3-1.4-4.9.6 0 1.1-.1 1.6-.2zM475.8 412.3c2.9 1 6.7 1.4 6.8 2.4.7 4.1.3 8.5 0 12.7 0 .4-2.7 1.1-3.7.7-1.2-.5-2.9-1.9-3-3.1-.4-3.7-.1-7.6-.1-12.7zM383.4 404.4c1.7 1.4 4.3 2.6 4.8 4.3 1.2 4.7 4.2 9.7-.3 15.5-2.5-6.7-4.6-12.4-6.7-18 .7-.7 1.4-1.2 2.2-1.8zM346.7 349c6.1-2.3 11.2-3.1 15.4 1.1 2.3 2.3 3.6 5.7 5.6 9-6.8-3.3-13.5-6.5-21-10.1zM378.6 440.9c4.2-.2 8.6-1.1 12.6-.3 2.9.6 4.9 1 8 .1 5-1.5 10.6-.9 15.9-1.2 0 .7.1 1.3.1 2l-36.3 2.1-.3-2.7zM462.4 335.6c8.2 1.6 9.7 6.5 6.4 20.4-2.1-6.7-4.2-13.5-6.4-20.4zM371.7 360.6h18.2c-6.6 5.9-11.7 5.7-18.2 0zM394.2 120c-.4 2.3-.6 3.9-1.1 6.7-4.4-.9-8.8-1.8-13.1-2.7 0-.6.1-1.2.1-1.7 4.6-.8 9.2-1.5 14.1-2.3zM442.6 270.9c-2.6 4.8-5.2 9.6-8.3 15.2-2-7.2-1.3-8.6 8.3-15.2zM336.2 414.1h18.2v1.2c-6 .4-12.1.8-18.1 1.1-.1-.7-.1-1.5-.1-2.3zM424.3 414.3c2.6 1.6 7.4.3 6.3 5.8-5.7 1.5-6.8.6-6.3-5.8zM333.3 424.9c-5.9-.3-10.3-1.9-11.3-8.8 3.6 2.8 7.2 5.6 11.3 8.8zM502.9 184.1c1-5.4 2-10.8 3-16.3.5.1 1 .1 1.5.2-.8 5.5-1.6 10.9-2.4 16.4-.8-.1-1.4-.2-2.1-.3zM506.8 154.3v9.5c-1-.8-2.5-1.9-4.5-3.4.8-1.7 1.9-4.1 3-6.4l1.5.3zM429.2 424.6v10.9h-2.1v-10.9h2.1zM75.6 190.9v-14.2c.1-13.9 2.2-27.3 9.7-39.4 5.9-9.5 13.9-16.5 24.5-20.5 14.5-5.5 29.5-7.3 44.8-5.1 13.2 1.9 26.6 3.3 38.8 9 6.8 3.2 13.2 7.3 19.3 11.7 9.5 6.9 16.8 15.6 21.4 26.6 9.1 22 13.5 44.2 1.6 66.4-8.4 15.7-20.7 27.8-38.9 31.4-12.4 2.5-25.1 4.9-37.7 4.7-22.1-.3-42.4-7.7-59.1-22.7-6.8-6.1-12-13.9-18.2-20.7-1.9-2.1-4.1-4.1-6.6-5.3-6.1-2.9-10.2-12.1-8-18.7 1.4-3.8 3.4-5.6 8.4-3.2zm127.3 35.7c-22.8.6-45.3 1.1-67.7 1.7 1.7 8.1 13.9 21.8 29.5 22.9 15.7 1.1 36.1-13 38.2-24.6zm-40.6-62.5c0 .6 0 1.5-.1 2.4-.8 5.4 1.3 7.1 6.5 5.4 1.2-.4 2.2-1.5 3.4-1.7 1.6-.2 3.2 0 4.8.3 1 .2 2 1.1 3 1.1 5 .3 16.4-10.7 14.6-16.7-11.3 10.5-11.3 10.5-14 9.9 1.1-2.3 2.4-4.5 3.2-6.9.5-1.4.3-3.1.4-4.6-1.4.9-2.9 1.5-4 2.7-.8.8-.7 2.6-1.6 3.4-3.3 2.9-6.8 5.5-10.2 8.3-.5-.6-1.1-1.1-1.6-1.7 1.7-2.9 3.4-5.8 4.9-8.7.4-.8.7-2 .4-2.8-.2-.5-1.7-1.2-2.2-.9-5.2 2.5-10.4 5.2-15.6 7.8 0 .6-.1 1.1-.1 1.7 2.6.2 5.1.5 8.2 1zm27.3 33.8c.1-7.1-1.9-9.5-9.6-11.3-1.6-.4-3.5.7-5.2 1 1.2 1.2 2.2 2.9 3.7 3.6 3.1 1.5 6.9 2.1 6.6 6.7-.3 4.8-4.7 4.8-8 5.8-.7.2-1.6-.2-2.1.1-1 .5-2.6 1.6-2.5 2 .4 1.2 1.2 2.9 2.3 3.2 6.3 2.1 14.7-4.3 14.8-11.1zm-42.8-2.6c-.3-1.9-.3-4.8-1.2-7.5-.5-1.4-2.3-3.2-3.6-3.3-1.4-.2-3.9 1.2-4.3 2.4-1.1 3.2-2.1 6.8-1.5 10 .6 3.1 3.1 8.3 4.9 8.4 4.5.2 5.2-4.5 5.8-8.3-.1-.4-.1-.5-.1-1.7zm65.5.2c-.7-2.5-1.1-5.5-2.4-7.9-1.7-3.1-5.7-2.8-6.7.6-1.1 3.9-1.6 8.2-1.4 12.2.1 1.9 2.2 4.1 4 5.2.7.4 3.6-1.6 4.5-3.1 1.1-1.8 1.3-4.2 2-7zm-63.8-20.4c.3-.8.5-1.6.8-2.5-3.2-3.2-6.5-6.4-9.6-9.4-8.9 6.7-11 9.6-10.1 14.2 1-.9 2-1.7 2.7-2.6 4.8-6.3 5.4-6.3 10.9-1 1.1 1.1 3.5.9 5.3 1.3zm47.9-2.8c.5.6 1 1.2 1.4 1.7.6-.1 1.4-.1 1.8-.4 4.3-3.7 8.4-5.8 12.6.3.2.3 2.5-.7 3.8-1.1.5-.9 1-1.7 1.5-2.6-2.7-2.9-5.4-5.8-8.1-8.8-1.2.3-2.3.6-3.5 1-3.1 3.3-6.3 6.6-9.5 9.9zM124 409.2c5.1-3 10.3-6 15.6-9 .3 15.6-5.3 23.5-17.9 26.3-9.3 2.1-18.4 4.8-27.8 6.5-18.7 3.5-37.2 5-53.5-8.2-2.5-2-5.6-3.3-8.6-4.7-5.6-2.8-6.1-6.1-1-9.6 4.7-3.3 9.8-6 14.6-9.2 3.4-2.3 6.6-4.9 9.9-7.4 7.2-5.6 14.3-11.5 21.7-16.9 5.3-3.9 11.5-4.3 17.7-2.2 13.8 4.8 27.5 9.7 41.2 14.8 2 .8 3.6 2.8 5.9 4.7-2.9 2.6-5.3 4.7-7.6 6.7-1.4-.5-3-1.6-3.8-1.2-6.2 3.2-12.3 6.5-18.3 10-2.7 1.6-4.8 4.3-7.6 5.6-8.7 4.1-17.4 8.1-26.4 11.3-3 1.1-6.9-.4-10.4-.8-2.4-.3-4.7-.7-7.2-.3 6.1 4.4 12.9 7.4 19.9 4.4 10.1-4.3 19.6-10 29.3-15.1 3.6-1.9 7.2-4 10.8-6-7.2 5.5-14.4 11-22 16.9 4.2-1.5 7.9-2.8 11.6-4.2 1.6-.2 3.4 0 4.6-.7 5.5-3.1 10.9-6.5 16.2-9.8.7-.5 1.1-1.4 1.7-2.2-.2-.3-.4-.5-.7-.8L110 421.6c.9-1.2 1.6-2.6 2.8-3.6 3.7-2.9 7.5-5.8 11.2-8.8zm-46.6-7.8c4.5-2.1 8.5-3.4 11.6-5.7 3.8-2.8 2.7-6.6-1.5-8.7-4.6-2.3-8.9-1.4-12.7 1.5-2.3 1.8-3.7 4.6-5.5 7 2.6 1.9 5.2 3.8 8.1 5.9zM230.7 335.6c-1.2.7-2 1.4-3 1.9-10.7 5-21.5 9.8-32.2 14.9-5.7 2.7-11.3 5.7-16.7 9-3 1.9-4.3.8-5.4-1.7-1.3-2.8-2.7-5.5-3.8-8.4-2.4-6.5-5.9-11.9-12.8-14.9.9-1.8 1.7-3.3 2.7-5.4 2.9 1.3 5.6 2.5 8.6 3.8.3-1.3.7-2.2.6-2.9-1.6-7.9-1.7-8.1 5.8-11.1 6-2.4 12.2-4.4 18.4-6.3 7.3-2.2 8.5-1.4 12.3 4.9.8 1.4 3.4 2.7 4.9 2.4 6.4-1.1 10.6 1.7 14.1 6.6 1.7 2.3 3.9 4.3 6.5 7.2zM157.9 276.9c3 .5 5.9 1 8.8 1.6.8.2 2.1.4 2.3 1 3.9 10.2 11.4 6 18.1 4.7h1.6c1.8 7.7 3.6 15.7 5.5 24-4.9 2.1-9.7 4.1-14.4 6.3-4.7 2.2-9.4 4.5-14.5 6.9-3.1-3.4-6.3-6.9-4.4-13.2 1.4-4.8-3-7.6-8-6.5-2 .4-5-1-6.7-2.5-2.5-2.3-4.1-5.4-6.2-8.2 6-4.8 12.3-9.7 17.9-14.1zM155.1 317.2c-2.1 0-3.5-.2-4.9.1-1.7.3-3.4 1-5.1 1.6 1.6 1.1 3.1 2.3 4.8 3.2 1.1.6 2.5.8 5.1 1.6-3.4 2.3-5.7 3.7-9.1 6 3 .9 4.9 1.4 6.1 1.7-.7 1.8-1.5 3.7-2.3 5.6-1.4 3.6-9.6 4.7-12.2 1.4-6-7.7-6.1-16.5-4.5-25.6.2-1.2 1.7-2.4 2.9-3 4.9-2.7 16.3 1.3 19.2 7.4zM154.9 271.6c-4.4 3.4-8.3 6.6-12.4 9.5-1.1.8-3.6 1.3-4.1.7-4.6-5.3-9-10.8-13.3-16.4-.3-.4 0-1.3.1-1.8 8.3 1.3 16.5 2.4 24.5 4.1 2 .4 3.6 2.7 5.2 3.9zM130.7 283.3c-2.1 1.4-4.2 2.8-6.8 4.6 4.7 6.2 8.5 11.2 11.9 15.7-2.6 3.4-4.8 6.3-7.3 9.7-2.2-.5-5.3-1.3-8.9-2.1-1-10.5 2.8-20 6.8-29.3.2-.6 2.6-.2 4-.2.1.5.2 1 .3 1.6zM128.2 322.1c-2.7 6.9-4.4 13.8 1.4 20.4-.3.5-.6 1-1 1.5-4.9-1.6-10.6-2.3-14.4-5.2-3.5-2.8-3.1-8.2-1.2-12.8 1.2-3 3.1-4.2 6.2-3.9 2.8.2 5.6 0 9 0zM157.5 396.9c3.6.9 7.2 2.2 10.9 2.7 3.6.5 7.7 1.2 11 .1 6-2 11.5-3 17 .5 1 .7 1.7 1.9 2.5 2.8-15.5 9.6-28.2-1.1-41.9-3.6.3-.8.4-1.7.5-2.5zM51 439.4c-4.2-.3-8.6.1-12.5-1.2-5.3-1.7-10.2-4.7-15.1-7.4-1.2-.6-1.7-2.4-2.6-3.7 1.3-.8 2.6-2.3 3.7-2.1 3.1.4 6.3 1.1 9 2.5 5.9 3.2 11.4 7 17.1 10.5.3.5.4 1 .4 1.4zM222.3 396.6c.2-1.5.4-2.5.6-3.9-3.8-.4-7.6-.7-12.2-1.2 9-8.7 17.5-4.6 26.2-2-2.4 7.4-8.3 6.8-14.6 7.1zM106.1 363.8c1.4.5 2.7 1 4.1 1.5 2.2.7 5 2.4 6.5 1.7 8.6-4.3 15.3 2.1 23 2.9.3.5.6 1.1.8 1.7-1.4 1.1-3 3.3-4 3-10.4-2.5-20.8-5.4-31.2-8.1.3-.9.5-1.8.8-2.7zM114.8 301.2c-1.9 8.7-3.7 16.5-5.6 25.4-7.1-9.5-4.5-21.4 5.6-25.4zM171.6 269.5c5.2-1.3 10-2.5 16.3-4-.5 4.5-.7 7.7-1.3 10.8-.7 3.9-2.5 4.5-5.5 1.7-2.9-2.8-5.9-5.3-9.5-8.5zM194 284.2c1.6 3.4 3.3 6.7 4.8 10.1 1.2 2.8 2.2 5.6 3 8.5.3 1.3-.1 2.9-.6 4.2-.2.5-2.1 1.1-2.2.9-.7-1.1-1.4-2.3-1.7-3.5-1.4-6.6-2.6-13.3-3.9-19.9.3-.1.4-.2.6-.3z" fill="#fff"/>
  <path d="M211.1 307.3c-2.7.7-4.3 1.2-6 1.6-.1-.5-.3-1-.4-1.5 2.4-.5 6.5-2.1 6.9-1.3 1.6 2.7 2.4 6 2.7 9.2 0 .4-4 1.3-6.2 2-.3-.5-.6-.9-1-1.4 1.2-2.6 2.4-5 4-8.6z" fill="#fff"/>
  <path d="M110.2 421.6c-3.7 1.3-7.4 2.7-11.5 4.2 7.6-5.9 14.8-11.4 22-16.9 1.1.1 2.3.2 3.4.3-3.7 3-7.5 5.9-11.2 9-1.1.9-1.9 2.4-2.8 3.6l.1-.2z"/>
  <path d="M169.1 367.8c3.6-.3 7.2-.5 10.8-.8.9 3.5-2.5 7-5.4 5.3-1-.6-1.6-1.8-2.6-2.5-.8-.5-1.9-.6-2.8-.9v-1.1zM169.8 361.6c-3.9-.2-6.5-.3-9.9-.5 1.9-2.6 3.3-4.5 5.2-7.2 1.6 2.7 2.8 4.7 4.7 7.7zM213.1 357.9c2.6-2.1 4.9-3.9 7.6-6.1.2 2.8.4 5.3.6 8.3-2.9-.7-5.4-1.4-8.2-2.2zM136.7 385.6c-3.6-1.5-6.6-2.7-10.5-4.3 8.6-1.8 10.4-1.1 10.5 4.3zM219.9 366c-.6 3.8-1 6.2-1.6 9.8-2.2-2.9-3.5-4.7-5.1-6.8 2.1-.9 3.9-1.8 6.7-3zM181.1 379.8c3.4 5.4 2.5 7.5-3.3 8.7 1-2.6 2.1-5.6 3.3-8.7zM112.5 356.5c-.9-3.8-1.5-5.9-2.3-9.2 2.5.5 4.2.9 6.4 1.3-1.3 2.6-2.3 4.5-4.1 7.9z" fill="#fff"/>
  <path d="M402.4 251.6c-6.9-2.4-14-4.5-20.7-7.5-3.3-1.5-7.2-4.9-4.5-8.8 1.9-2.7 6.6-5.5 9.7-5.1 9 .9 17.9 3.1 26.6 5.6 2.5.7 5.6 3.8 6 6.2.7 4-2.3 6.5-6.6 7-3.4.4-6.8 1.1-10.2 1.7l-.3.9zM383.9 206.6h14.9c-6.9 9-13 9.2-18.9 2.1-2.4-2.9-2.7-6 .3-8 4.2-2.8 9.1-4.7 13.6-7.1l1.2 2.1c-3.8 2.9-7.7 5.7-11.5 8.6.1.8.2 1.6.4 2.3zM427.1 205.5c-.9 2.9-1.5 5.9-2.9 8.5-.6 1.1-3 2.1-4.1 1.7-1.4-.5-3.3-2.5-3.2-3.7.3-4.1 1.1-8.2 2.3-12.1.5-1.5 2.7-2.5 4.1-3.7 1 1.7 2.3 3.4 3 5.3.4 1.1.1 2.5.1 3.8.2 0 .5.1.7.2zM365.5 210.2c-4.3-4.9-5.2-12.4-2.1-17.1.7-1 2.3-2.1 3.4-2.1.9 0 2.3 1.5 2.7 2.6 2.6 7.3 1.3 12.9-4 16.6zM433.8 180.6c-3-2.1-5.9-5.5-9-5.8-3.1-.3-6.5 2.5-10.5 4.2 1.4-6.3 5.7-8.5 10.4-9.3 2.5-.4 6 .8 7.9 2.6 1.8 1.8 4.6 4.7 1.2 8.3zM376.9 176.8c-2-.1-4.3.3-6-.4-6.7-3-6.6-3.1-13.2-.1-1.9-5.6 3.5-6.4 6-7.7 6.5-3.2 9.3 3.1 13.3 6.3 0 .6 0 1.3-.1 1.9zM202.9 226.6c-2.1 11.6-22.5 25.7-38.2 24.6-15.6-1.1-27.7-14.8-29.5-22.9 22.4-.6 45-1.1 67.7-1.7zM162.3 164.1c-3.1-.5-5.7-.8-8.2-1.2 0-.6.1-1.1.1-1.7 5.2-2.6 10.4-5.3 15.6-7.8.5-.2 2 .4 2.2.9.3.8 0 2-.4 2.8-1.6 3-3.3 5.8-4.9 8.7.5.6 1.1 1.1 1.6 1.7 3.4-2.7 6.9-5.4 10.2-8.3.9-.8.8-2.5 1.6-3.4 1.1-1.1 2.7-1.8 4-2.7-.1 1.5.1 3.2-.4 4.6-.8 2.4-2.1 4.6-3.2 6.9 2.6.6 2.6.6 14-9.9 1.8 5.9-9.7 16.9-14.6 16.7-1-.1-1.9-1-3-1.1-1.6-.3-3.2-.5-4.8-.3-1.2.2-2.2 1.3-3.4 1.7-5.2 1.7-7.3 0-6.5-5.4.1-.7.1-1.6.1-2.2zM189.6 197.9c-.1 6.8-8.5 13.2-14.9 11.2-1-.3-1.9-2-2.3-3.2-.1-.4 1.5-1.5 2.5-2 .6-.3 1.5.1 2.1-.1 3.3-1 7.6-1 8-5.8.3-4.5-3.6-5.2-6.6-6.7-1.5-.7-2.5-2.4-3.7-3.6 1.7-.4 3.6-1.4 5.2-1 7.8 1.7 9.7 4.1 9.7 11.2zM146.8 195.3v1.5c-.6 3.8-1.3 8.6-5.8 8.3-1.9-.1-4.3-5.2-4.9-8.4-.6-3.2.5-6.8 1.5-10 .4-1.2 2.9-2.5 4.3-2.4 1.4.2 3.2 1.9 3.6 3.3 1 2.9 1 5.8 1.3 7.7zM212.3 195.5c-.7 2.7-.8 5.2-2 7.1-.9 1.5-3.8 3.5-4.5 3.1-1.8-1.1-3.9-3.3-4-5.2-.2-4.1.3-8.3 1.4-12.2.9-3.4 4.9-3.7 6.7-.6 1.3 2.3 1.6 5.3 2.4 7.8zM148.5 175.1c-1.8-.4-4.2-.1-5.4-1.2-5.5-5.3-6.1-5.3-10.9 1-.7.9-1.7 1.7-2.7 2.6-.9-4.6 1.2-7.5 10.1-14.2 3.1 3.1 6.4 6.3 9.6 9.4-.2.7-.4 1.6-.7 2.4zM196.4 172.3c3.2-3.3 6.4-6.6 9.5-9.9 1.2-.3 2.3-.6 3.5-1 2.7 2.9 5.4 5.8 8.1 8.8-.5.9-1 1.7-1.5 2.6-1.3.4-3.5 1.5-3.8 1.1-4.2-6.1-8.3-3.9-12.6-.3-.4.4-1.2.3-1.8.4-.4-.5-.9-1.1-1.4-1.7zM77.4 401.4c-2.9-2.2-5.5-4.1-8.1-6 1.8-2.4 3.3-5.2 5.5-7 3.7-2.9 8-3.8 12.7-1.5 4.2 2.1 5.3 5.9 1.5 8.7-3.1 2.5-7.1 3.7-11.6 5.8zm-1.8-9.1.3 2.1c2.9 0 5.8.2 8.6-.1.8-.1 2.2-2.2 2-2.6-.6-1.1-2.1-2.5-2.9-2.4-2.8.7-5.4 2-8 3zM110.1 421.7l21.9-13.5c.2.3.4.5.7.8-.6.7-1 1.7-1.7 2.2-5.4 3.4-10.7 6.7-16.2 9.8-1.3.7-3.1.5-4.6.7 0-.1-.1 0-.1 0z"/>
  <path d="M75.6 392.3c2.6-1 5.2-2.3 7.9-2.9.8-.2 2.3 1.3 2.9 2.4.2.4-1.2 2.5-2 2.6-2.8.3-5.7.1-8.6.1 0-.7-.1-1.4-.2-2.2z" fill="#fff"/>
  <text transform="translate(27.393 44.662)"><tspan x="0" y="0" font-family="Peanuts" font-size="30">WHAT DO YOU</tspan><tspan x="0" y="36" font-family="Peanuts" font-size="30">THINK YOU</tspan><tspan x="148.7" y="36" font-family="MyriadPro-Regular" font-size="30">’</tspan><tspan x="154.9" y="36" font-family="Peanuts" font-size="30">D LIKE?</tspan></text>
  <text transform="translate(396.941 41.554)"><tspan x="0" y="0" font-family="Peanuts" font-size="30">WELL, LET&apos;S</tspan><tspan x="0" y="36" font-family="Peanuts" font-size="30">SEE NOW...</tspan></text>
</svg>
