<svg xmlns="http://www.w3.org/2000/svg" viewBox="0 0 595.3 466.2" xml:space="preserve">
  <path fill="#fff" d="M0 0h595.3v466.2H0z"/>
  <path d="M0 466.2V0h595.3v466.2H0zm549.7-4.8v.3H583c6.9 0 8.9-1.8 8.9-8.5 0-25.2.1-50.5 0-75.7-.1-14.3-.8-28.6-.9-42.9-.3-48.1-.4-96.3-.5-144.4-.1-24.5-.1-48.9-.1-73.4 0-15.5-.2-31-.3-46.5l-.3-57.9c0-6.6-1.2-7.9-7.4-7.9-30.4 0-60.8.1-91.3.1-26.6 0-53.1-.1-79.7 0-19.8.1-39.7.8-59.5.9-27.1.2-54.2.1-81.3.1-41.9 0-83.9-.1-125.8 0-43.5.2-87 .6-130.5 1-10 0-10.9 1.1-10.8 11.2 0 7.1-.3 14.2-.2 21.3.2 50.1.5 100.3.7 150.4.1 28.3.3 56.7.4 85 .1 51.2.1 102.4.1 153.5 0 10.1.1 20.2-.1 30.3-.1 3.2 1 4.6 4.3 4.6 14.3-.1 28.5 0 42.8 0 43.2 0 86.4.1 129.6.1 72.8 0 145.5-.1 218.3-.2 25.5-.1 50.9-.5 76.4-.8 9.6-.1 19.2-.4 28.8-.4 15-.2 30.1-.2 45.1-.2z" fill="#fff"/>
  <path d="M549.7 461.4c-15 0-30.1-.1-45.1 0-9.6 0-19.2.3-28.8.4-25.5.3-50.9.8-76.4.8-72.8.2-145.5.2-218.3.2-43.2 0-86.4 0-129.6-.1-14.3 0-28.5-.1-42.8 0-3.4 0-4.4-1.4-4.3-4.6.2-10.1.1-20.2.1-30.3 0-51.1 0-102.3-.1-153.4 0-28.4-.2-56.7-.4-85-.2-50-.5-100.2-.7-150.3 0-7.1.3-14.2.2-21.3-.1-10.1.8-11.2 10.8-11.3 43.5-.3 87-.8 130.5-1 41.9-.2 83.9 0 125.8 0 27.1 0 54.2.1 81.3-.1 19.8-.1 39.7-.8 59.5-.9 26.6-.2 53.1 0 79.7 0 30.4 0 60.8-.1 91.3-.1 6.2 0 7.4 1.3 7.4 7.9l.3 57.9.3 46.5c.1 24.5.1 48.9.1 73.4.1 48.1.2 96.3.5 144.4.1 14.3.8 28.6.9 42.9.2 25.2 0 50.5 0 75.7 0 6.7-1.9 8.6-8.9 8.5h-33.3v-.2zm-330.9-51.1c1.9-2.1 3.9-4.2 5.9-6.4-12.9-2.4-19.6 5.7-26.9 13.7 2.8-1.1 5.1-2 7.5-2.9 4.5-1.5 8.1-6 13.6-4.4-4.1 3.2-8.3 6.3-12.4 9.5.6.7 1.3 1.3 1.9 2 3.4-3.8 6.9-7.7 10.4-11.5zm8.7-33.7c-.3-4 0-8.3-1.1-12-1.9-6.1-5.7-11.8-6.8-17.9-.9-5.3-2.5-9.5-6.1-13.3-2.7-2.8-5.1-3.7-8.3-.7-2.3 2.2-4.9 4.4-7.7 5.9-4.4 2.3-4.6 5.3-2.9 9.4 1.3 0 2.3-.1 3.4 0 8.8.8 11.6 3.6 12.6 12.1.2 2.1 1.2 4.2 2.2 7.2 1-4.4 1.7-7.5 2.4-10.7l1.5.3c-.3 1.6-.8 3.1-.8 4.7 0 1.7.1 3.4.7 5 .2.7 1.5 1.2 2.2 1.7-1 .2-2.1.3-3.1.6-.4.1-.7.7-1.3 1.4.9 1 1.7 2 2.9 3.5-1.6-.2-2.4-.3-3.8-.5.6 1.6 1 2.8 1.5 3.9 2.5 5.6 2.8 5.7 7.5 2.1 1.6-1.2 3.5-2 5.3-3-1 1.3-2.1 2.6-2.3 2.9 3.1 1.7 7.5 2.6 8.4 4.9.9 2.2-1.9 5.9-3.1 8.9-.3-.2-.6-.5-.9-.7-.3-2.4-.6-4.8-.8-7.1-2.5.4-5.6-.1-7.2 1.2-5 4.4-9.5 9.4-14.1 14.3-.6.6-.5 1.8-.7 2.6 7.1-2.6 13.8-5.1 21.9-8-1.9 5.6-2.3 11.8-5.6 15.8-7.2 8.9-16.2 16.1-26.8 20.7 10.5.7 19.8-8.6 30.9-4.3 4.1-4.7 7.8.9 11.7.5.1 1.3.2 2.7.3 3.7h12.9c-4.2 1.8-8.4 2.8-12.8 3.2-9.3 1-18.8 2.6-28 2-4.3-.3-8.2-.8-12.3.3-.6.2-1.5-1.3-2.3-1.3-3 .1-6.2-6.7-9 .4-.4.9-2.9.9-4.8 1.4.1-1.3.2-2.2.4-5.2-3.5 2.3-6.1 3.4-7.9 5.3-6.6 6.7-11.2 7-19.2 1.1-1.4-1-3.7-1.1-5.6-1.2-3.3-.2-6.7 0-11.2 0-.7.6-2.5 2-4.4 3.6 4.9 8.6-3.6 11.6-7.4 17.2H221.7l93.6-.3c17.8-.1 35.6.1 53.4-.1 16.6-.2 33.2-1 49.7-1.3 7.7-.1 15.5.4 23.2.4 15.2 0 30.4-.1 45.7-.2 5.6 0 11.1-.5 16.7-.4 5.9.1 11.8.7 17.7.8 8.3.1 16.7-.2 25-.2 12 0 24 .3 36 .3 3.6 0 5.1-2.2 5-5.7l-.3-37.7c-.2-13.7-.5-27.3-.6-41-.1-14.5.1-28.9 0-43.4-.1-17.2-.5-34.4-.6-51.6-.2-17.6-.1-35.2-.3-52.8-.1-10.9-.5-21.7-.5-32.6 0-12.6.5-25.1.5-37.7 0-14-.3-27.9-.5-41.9-.2-15.9-.5-31.9-.8-47.8-.1-7.2-.3-14.4-.3-21.6 0-9.7.1-19.4.2-29.1 0-3.2-1.3-4.8-4.9-4.8-8.7-.1-17.4-.7-26.1-.8-4.9 0-9.8.5-15 .9 1.9 3 3.3 5.3 4.8 7.5 6.6 10 6.3 20.5 1 30.7-9.2 17.8-25.2 27.6-42.9 35.1-15.4 6.5-31.5 10.5-48.1 12.7-15.3 2.1-30.5 6.1-45.9 6.9-29.3 1.6-58.6 1.4-87.9 2-18.6.4-37.3 1-55.9 1.5-.7 0-1.3.3-2.9.8 1.9 2.5 3.3 4.8 5.1 6.6 5.8 5.8 11.9 11.4 17.7 17.3.8.8.5 2.7.9 5-15.4-5.4-29.1-11-39.6-22.6-2.3-2.6-5.6-5.3-8.8-5.9-6.7-1.2-13.7-1.1-20.6-1.3-24.7-.5-49.4-.9-74.1-1.5-5.8-.1-11.6-.5-17.4-.9-18.2-1.3-36.3-2.6-54.5-4-7.7-.6-15.5-1.4-23.2-2.2-12.2-1.3-24.4-2.6-37.4-4v6c0 63.2-.2 126.5-.1 189.7 0 55 .3 109.9.3 164.8 0 4 1.1 4.5 4.5 4.5 12.4-.1 24.8 0 37.2-.1 2.7 0 5.5-.2 8.2-.4-1.7-2.1-3.7-2.9-5.5-4-4.7-2.6-10-4.7-13.7-8.3-3.8-3.6-7.2-5.6-12.4-5-1 .1-2.2-.6-3.2-1.1-1-.6-1.9-1.7-3-2-3.4-.9-6.8-1.4-10.3-2.1.1-.6.2-1.1.2-1.7 6.8-2.3 13.6-3.1 21.7 1.2-1.4-3.3-2-5.2-2.9-6.9-3.8-7.6-3.6-9.8 2.4-15.8 8.9-9 21.1-12.2 32-17.4 11.1-5.3 22.7-8.4 35.5-6.1-.2-1.5-.3-2.2-.4-2.9-2.5-13.5-5.3-26.9-7.5-40.5-2.7-17 2.9-19.1 16.2-19.9.5-5.8 1.3-11.7 1.5-17.6.3-9.4.7-18.8.2-28.2-.2-3.6-.4-8.1-5.8-9.5-16.4-4-29.4-13.5-40.5-26-16.1-18.1-20-39.1-15.8-62.2.6-3.5.2-6.1-2.7-8.7-1.7-1.5-2.9-4.1-3.2-6.4-.3-2.5.7-5.1 1.1-7.7 7.7-1 1.7-11 8.4-13.6-.4 3.7-.8 6.9-1.2 10.4 1.1-.3 1.5-.3 1.7-.6.3-.4.6-.9.8-1.4 6.5-14.2 18.4-23.4 31.3-30.4 11.5-6.3 24.4-10.3 38.1-9.1 6.5.6 13 1.2 19.4 2.2 15.7 2.6 30.8 6.6 43.5 16.9 4.9 4 9.6 7.6 16.9 7.4 7.9-.3 12.9 7.6 10.6 15.8-3.1-4.1-5.5-9.1-11.3-8.8-7.2.4-12-3.7-17.3-7.7-6.7-5-14.1-9.6-21.9-12.4-10-3.5-20.5-5.9-31-7-9.4-1-19.1-.1-28.6 1.1-12.6 1.6-22.9 8.7-32.6 16.4-6.5 5.2-12.7 11.4-14.7 19.6-2.4 10.2-3.4 20.8-4.5 31.3-.4 3.5.6 7.2.8 10.8 1.1 21.6 12 38.1 28.4 50.9 11.5 9 25.2 13.4 39.5 16.5 16.5 3.6 33 3.4 48.8-1.3 13.7-4.1 26.8-9.9 36.7-21.6 7.1-8.5 12.8-16.9 11.9-28.4-.2-3.3 1.2-4.9 4.6-5.4 4.5-.6 6.6-3 5.3-8-1-4.1-3.6-5.2-7.1-5-3.5.2-4.3-1.1-5.1-4.5-1.8-7.7-4.4-15.2-6.9-22.6-1.6-4.8-3.7-9.4-5.6-14.1.6-.4 1.3-.8 1.9-1.1 1.8 2.2 4.1 4.3 5.2 6.8 3.4 8.1 6.6 16.4 9.2 24.8 1.1 3.7 2.4 5.9 6.4 6.7 1.7.3 3.4 2.1 4.4 3.7 4.8 7.7 1.1 15.7-9.1 19 1.9 15.4-7.5 25.6-17.2 35.6-9.8 10.2-22.1 16.2-35.6 20.8 2.1 4.4 4 8.3 5.7 12.3.6 1.4.7 3 .7 4.5.1 2.7-.6 5.5 0 8 1.7 7.6 4.1 15 5.9 22.5 1.7 7.2 5.4 12.8 12.4 15.2 6 2.1 9.6-3 13.5-6.3 1.5-1.2 2.6-2.8 4.8-5.1 3.4 4 7 7.5 9.7 11.6 7.1 10.9 8 23.9 11.4 36 .8 2.4.7 5.5-3.5 4.9zM254.3 105c1.6-1.1 2.2-2 3-2 17.5-1.2 35.1-2.4 52.7-3.2 9-.4 18 0 26.9-.1 21.1-.3 42.2-.4 63.3-1.2 12.1-.5 24.2-1.5 36.1-3.5 15.8-2.6 31.6-5.7 47-9.8 18.9-4.9 36.5-12.7 49.7-28.1 11.3-13.2 12.3-31.4-.6-44.9-1.6-1.7-4.4-2.9-6.7-3-12.4-.3-24.8-.4-37.2-.2-6.6.1-13.2.8-19.8.9-10.4.1-20.8-.1-31.2-.2-17.4-.1-34.8-.3-52.2-.2-38.6.3-77.2.9-115.8 1.1-76.4.3-152.8.5-229.2.2-11.1 0-20.1 3.7-28.6 9.8-1.7 1.2-3.3 4-3.3 6.1-.1 19.3.2 38.7.2 58 0 3.1 1 4.6 4.2 5 9.9 1.1 19.7 2.5 29.6 3.5 16.8 1.6 33.6 3 50.4 4.3 7.6.6 15.3.5 22.9 1 16.4 1 32.8 2.6 49.3 3.1 18.9.6 37.9.1 56.8.4 10.2.2 20.7.1 28 9.5 1.3 1.7 3 3.3 4.8 4.5 4.8 3.3 9.7 6.4 14.6 9.5.1-.3.3-.6.4-.8-5-6.4-10-12.8-15.3-19.7zM35.8 415.4c-1 1.7-2.2 3.4-2.8 5.3-1.5 5.1 3 7.4 5.4 10.5 10.1 13.3 23.1 21.8 40.3 22.1 6.2.1 12.3-.3 18.5-.1 16.7.5 28.6-9.2 40.4-19 2.6-2.2 2.4-5.9-.9-9.2-1.1 2-1.7 3.4-2.4 4.7-.4-.1-.7-.1-1.1-.2v-10.8c-.2 0-.5 0-.7.1l-2.7 12.9c-.7-3.5-.8-6.7-.7-10 .1-4.9-.8-9-5.8-11.7-3.9-2.1-7.4-5.1-10.6-8.2-8.3-7.9-19.1-9.2-28.8-6.7-13.6 3.5-26.5 10.1-39.7 15.2-4.1 1.6-4.1 4.2-2.9 7.9 3.7 11.3 12.3 18 21.8 24 .9.6 1.8 1.4 2.6 2.1-15.1-5.8-23.1-13.6-29.9-28.9zm132-53.5c7.2 2.3 10.4-2.3 13.8-5.8 5.1-5.2 4.8-8.9.6-15.1-1.7-2.5-3.2-5.3-4-8.2-3.4-12.2-6.2-24.7-9.8-36.8-1-3.3-3.9-6.2-6.4-8.7-1.7-1.7-9.4 1.2-9.9 3.4-2.5 10.6-6.2 12.4-15.4 6.5-.2-.1-.3-.2-.5-.3-6.7-4.1-13.3-8.2-20.1-12.3-2.4 6.6 2.4 39.9 6.4 45.9 1.7-.9 3.5-1.8 5.1-2.7-.6-1.1-1.7-3-1.6-3 3.5-2.1 7-4.1 10.9-6.2-2.5-4.7-5-9.4-7.4-14.1.4-.3.8-.6 1.3-.9 5.3 3.7 8 9.2 9.3 15.9 1.9-.1 3.6-.2 5.7-.4-.3-5.1-.5-9.7-.8-14.4.8-.2 1.7-.3 2.5-.5 3.1 14.1 5.9 28.3 12.1 41.3 1.2-4.4 1.4-8.8 2.3-12.9.4-1.8 1.7-4.2 3.2-4.8 1.2-.5 4.5.7 4.9 1.8 1 2.8 1.5 6.1 1.2 9.1-.8 7.9-2.2 15.8-3.4 23.2zm-63.1 28.6c1 .5 2.2 1.5 3.5 1.8 1.9.3 3.8.1 5.7.1 0-1.6.2-3.3-.1-4.9-1.8-10.8-3.4-21.7-5.6-32.4-1.3-6.3 1-13.8-5.1-18.7-1.7-1.4-4.3-1.6-6.6-2.4-.4 1.9-1.5 3.9-1.2 5.7 2.3 13.3 5 26.5 7.4 39.7.9 3.5 1.3 7 2 11.1zm37.4-27.8c-2.2 2.7-4 5-5.8 7.2.5.6.9 1.1 1.4 1.7 2-1.1 4-2.4 6.1-3.2 1.4-.6 3.1-.5 4.7-.7-.5 1.4-.8 2.9-1.5 4.3-.4.8-1.3 1.3-2 1.9.1.2.3.4.4.6 2.6-1.6 5.2-3.3 7.9-4.9.2.3.5.6.7 1-.6 1.5-1.3 2.9-1.9 4.4.2.1.5.2.7.3 1.7-2.4 3.4-4.7 5.4-7.4 1.6 2.6 2.5 4.2 3.5 5.7.5-.1 1-.3 1.5-.4.3-1.9 1.1-3.9.6-5.6-1.2-4.4-2.6-8.7-4.4-12.8-3.2-7-3.4-7-10-3.2-1.7 1-3.3 2.3-5.2 3-4.8 1.7-5.7 4.4-2.1 8.1zm-28.7-89.3c1.3 2.1 1.8 3.4 2.7 4 8.9 5.5 17.8 10.9 26.8 16 1.1.6 3.9-.2 4.8-1.3 4.8-5.6 3.7-8.8-2.5-12.8-6.7-4.2-14.3-2.6-21.4-4.6-2.9-.8-6.1-.8-10.4-1.3zm.2 56.7c-5.4 9.2-2.1 31.2 5.7 40.6 2.1-.5 4.1-1 7.2-1.7-4.3-13-8.6-25.8-12.9-38.9zm17.9 80c4.4 6.4 7.9 11.5 11.5 16.6.4.6 1.5 1.1 2.3 1 2.8-.3 5.5-.9 8.4-1.4v-14.8c-7.2-.5-14.1-.9-22.2-1.4zm26.7 5.1c.5 6.4.8 12.3 1.6 18.2.7 4.5 4.7 4.7 8.1 4.2 1.4-.2 3.7-2.7 3.6-4-.8-6.7-2.2-13.3-3.4-20.4-3.4.8-6.2 1.3-9.9 2zm7.6-12c0-.7.1-1.3.1-2-3.9-.2-7.8-.4-11.7-.5-4.4-.1-8.9.2-13.3-.5-6.4-1-12.6-2.9-18.9-4.1-1.3-.3-2.9.8-4.3 1.3.8 1.2 1.4 3.2 2.5 3.6 3.9 1.5 8 2.8 12.2 3.7 2.8.6 5.8 0 8.7.6 8.5 1.5 16.7.4 24.7-2.1zm-43-69.6c2.9 4.1 5.6 8.2 8.6 12.1.6.7 2.5 1.2 3.3.9 5.7-2.6 11.2-5.4 17.1-8.3-1.3-2-2.7-4.2-4.1-6.5-4.8 1.9-8.8 5.9-14.9 3.8.9-1.5 1.7-2.6 2.7-4.1-4.1.7-7.7 1.3-12.7 2.1zm68.8 42c-1.6-6-11.9-10-22.4-8.4-1.1 3.5-2.2 6.9-3.3 10.4 4.6-2.9 8.8-5.5 13.1-8.2.7.5 1.4.9 2 1.4-1 2.9-2.1 5.8-3 8.3 4.2-1.2 8.9-2.4 13.6-3.5zm-58.3 68.6c-11.8 4-19.4 15.7-32.7 13.5 18.9 2.1 31.6-2.9 32.7-13.5zm18.9-98.4c-.3-.6-.5-1.2-.8-1.8-5.9 1.1-11.3 3.1-15.8 7 .4.8.7 1.5 1.1 2.3 5.1-2.5 10.3-5 15.5-7.5zm11.1 9.6c.5 0 .9-.1 1.4-.1 1.1-4.6 2.4-9.1 3.3-13.7.2-1-1-2.2-1.5-3.3-1.1.9-2.9 1.8-3.1 2.8-.4 2.8-.1 5.7-.1 8.5v5.8zm-21.5 25.1c-6.2-6.1-6.2-6.1-12.7-.3 4.5-5.2 8 5.8 12.7.3zm56.8 8.6c-1.5-3-2.9-5.8-5-9.8-1.2 4.4-2 7.2-2.7 9.8h7.7zM17.6 13c-.1-.7-.2-1.3-.3-2-2.7.4-5.5.7-8.2 1.5-.3.1 0 2.5 0 4.7 3.6-1.7 6-3 8.5-4.2z"/>
  <path d="M227.5 376.6c4.2.6 4.3-2.5 3.6-4.9-3.4-12.1-4.3-25.1-11.4-36-2.7-4.1-6.3-7.6-9.7-11.6-2.1 2.3-3.3 3.9-4.8 5.1-4 3.3-7.5 8.4-13.5 6.3-7-2.4-10.7-8-12.4-15.2-1.8-7.5-4.2-14.9-5.9-22.5-.6-2.5.1-5.3 0-8 0-1.5-.1-3.2-.7-4.5-1.7-4-3.6-7.9-5.7-12.3 13.4-4.6 25.8-10.5 35.6-20.8 9.6-10.1 19.1-20.2 17.2-35.6 10.2-3.3 13.9-11.2 9.1-19-1-1.6-2.7-3.3-4.4-3.7-4-.8-5.3-3-6.4-6.7-2.6-8.4-5.8-16.6-9.2-24.8-1.1-2.5-3.4-4.5-5.2-6.8-.6.4-1.3.8-1.9 1.1 1.9 4.7 4 9.3 5.6 14.1 2.5 7.5 5.1 15 6.9 22.6.8 3.4 1.6 4.7 5.1 4.5 3.5-.2 6.1.9 7.1 5 1.3 5-.8 7.4-5.3 8-3.4.5-4.9 2.2-4.6 5.4.9 11.5-4.8 19.9-11.9 28.4-9.8 11.7-23 17.5-36.7 21.6-15.8 4.7-32.3 4.9-48.8 1.3-14.3-3.1-28-7.5-39.5-16.5-16.4-12.8-27.3-29.3-28.4-50.9-.2-3.6-1.2-7.2-.8-10.8 1.2-10.5 2.1-21.1 4.5-31.3 1.9-8.2 8.1-14.4 14.7-19.6 9.7-7.7 20-14.8 32.6-16.4 9.4-1.2 19.2-2.1 28.6-1.1 10.5 1.1 21.1 3.5 31 7 7.8 2.7 15.2 7.4 21.9 12.4 5.4 4 10.2 8.1 17.3 7.7 5.9-.3 8.2 4.7 11.3 8.8 2.3-8.2-2.7-16.1-10.6-15.8-7.3.3-12-3.4-16.9-7.4-12.7-10.3-27.9-14.3-43.5-16.9-6.4-1-12.9-1.7-19.4-2.2-13.7-1.2-26.6 2.8-38.1 9.1-13 7-24.9 16.2-31.3 30.4-.2.5-.5 1-.8 1.4-.2.2-.6.2-1.7.6.4-3.5.8-6.7 1.2-10.4-6.8 2.6-.7 12.6-8.4 13.6-.4 2.6-1.4 5.2-1.1 7.7.3 2.3 1.5 4.9 3.2 6.4 2.9 2.5 3.3 5.1 2.7 8.7-4.2 23.1-.3 44.1 15.8 62.2 11.1 12.5 24.1 21.9 40.5 26 5.5 1.3 5.7 5.9 5.8 9.5.5 9.4.1 18.8-.2 28.2-.2 5.9-1 11.8-1.5 17.6-13.4.8-19 2.9-16.2 19.9 2.2 13.5 5 27 7.5 40.5.1.7.2 1.4.4 2.9-12.8-2.3-24.5.8-35.5 6.1-11 5.2-23.1 8.4-32 17.4-6 6-6.2 8.2-2.4 15.8.9 1.7 1.5 3.5 2.9 6.9-8.1-4.3-14.9-3.5-21.7-1.2-.1.6-.2 1.1-.2 1.7 3.4.7 6.9 1.2 10.3 2.1 1.1.3 1.9 1.4 3 2 1 .5 2.2 1.3 3.2 1.1 5.1-.7 8.6 1.4 12.4 5 3.8 3.6 9.1 5.6 13.7 8.3 1.8 1 3.8 1.8 5.5 4-2.7.1-5.5.4-8.2.4-12.4 0-24.8-.1-37.2.1-3.4 0-4.5-.4-4.5-4.5 0-54.9-.3-109.8-.4-164.7-.2-63.3 0-126.5 0-189.8v-6c12.9 1.4 25.1 2.7 37.4 4 7.7.8 15.4 1.6 23.2 2.2 18.2 1.4 36.3 2.7 54.5 4 5.8.4 11.6.8 17.4.9 24.7.5 49.4.9 74.1 1.5 6.9.2 13.8.1 20.6 1.3 3.2.6 6.5 3.3 8.8 5.9 10.5 11.6 24.3 17.2 39.6 22.6-.4-2.3-.1-4.2-.9-5-5.8-5.9-11.9-11.5-17.7-17.3-1.8-1.8-3.2-4.1-5.1-6.6 1.6-.4 2.2-.7 2.9-.8 18.6-.5 37.3-1.1 55.9-1.5 29.3-.6 58.7-.5 87.9-2 15.4-.8 30.6-4.9 45.9-6.9 16.6-2.2 32.7-6.2 48.1-12.7 17.7-7.5 33.7-17.3 42.9-35.1 5.3-10.3 5.6-20.7-1-30.7-1.5-2.3-2.9-4.6-4.8-7.5 5.2-.3 10.1-.9 15-.9 8.7.1 17.4.7 26.1.8 3.6 0 4.9 1.6 4.9 4.8-.1 9.7-.2 19.4-.2 29.1 0 7.2.2 14.4.3 21.6.3 15.9.6 31.9.8 47.8.2 14 .5 27.9.5 41.9 0 12.6-.5 25.1-.5 37.7 0 10.9.4 21.7.5 32.6.1 17.6.1 35.2.3 52.8.1 17.2.5 34.4.6 51.6.1 14.5-.1 28.9 0 43.4.1 13.7.4 27.3.6 41l.3 37.7c0 3.5-1.5 5.7-5 5.7-12 0-24-.2-36-.3-8.3 0-16.7.3-25 .2-5.9-.1-11.8-.7-17.7-.8-5.6-.1-11.1.4-16.7.4-15.2.1-30.4.2-45.7.2-7.7 0-15.5-.6-23.2-.4-16.6.3-33.2 1.1-49.7 1.3-17.8.3-35.6.1-53.4.1l-93.6.3H127.8c3.8-5.6 12.3-8.6 7.4-17.2 1.9-1.6 3.7-3 4.4-3.6 4.5 0 7.9-.1 11.2 0 1.9.1 4.2.1 5.6 1.2 8 5.9 12.6 5.6 19.2-1.1 1.8-1.9 4.4-3 7.9-5.3-.3 3-.3 3.9-.4 5.2 1.9-.5 4.4-.5 4.8-1.4 2.8-7 6.1-.3 9-.4.8 0 1.7 1.5 2.3 1.3 4.1-1.1 8.1-.6 12.3-.3 9.3.6 18.7-1 28-2 4.3-.4 8.6-1.4 12.8-3.2h-12.9c-.1-1.1-.2-2.4-.3-3.7-3.9.4-7.6-5.2-11.7-.5-11.1-4.3-20.3 5-30.9 4.3 10.7-4.6 19.6-11.8 26.8-20.7 3.2-4 3.7-10.3 5.6-15.8-8.1 3-14.8 5.4-21.9 8 .2-.8.1-2 .7-2.6 4.6-4.9 9.1-9.9 14.1-14.3 1.6-1.4 4.8-.9 7.2-1.2.3 2.4.6 4.8.8 7.1.3.2.6.5.9.7 1.2-3 4-6.7 3.1-8.9-.9-2.3-5.3-3.3-8.4-4.9.2-.3 1.3-1.6 2.3-2.9l-.2.3zM481 427.3c1.4 1.7 3.7 3.1 3.6 4.5-.2 4.1 1.7 6.8 5.2 7.1 3.1.3 7-.6 9.5-2.3 5.6-4 8.6-5 15.3-2.8.6.2 1.4 0 2.2-.1 3.8-.5 7.7-.6 11.3-1.6 3.5-1 6.6-3.1 9.9-4.7-.3-.6-.6-1.3-.8-1.9-6.2 2.1-12.4 4.3-18.6 6.4 0-.7.1-1.5.1-2.2-1.2-.5-2.6-1.5-3.7-1.4-3.7.5-7.3 1.4-11.2 2.3-1.6-7.6-3.1-14.4-4.5-21.3 4.1-3.5 8.4-6.7 2.5-12.3-1-1-.5-3.8-.4-5.8.2-3 .6-6.1.8-9.1.8-9 1.6-18 2.2-27 .5-8.1 1.4-16.3.9-24.4-.2-3.3-2.7-7.7-5.5-9.2-4.9-2.7-10.8-4.2-16.4-4.8-6.9-.8-10.1 1.9-12.7 8.3-.8 2.1-1.3 4.3-1.9 6.5-.5.2-.9.4-1.4.6-7-11.8-13.9-23.6-21.4-36.2 10.7.3 11.9-1.8 10-10.6-1.4-6.6-1.9-13.6.6-20.5 10.4 4 16.2 1.7 18-8.8 1.3-7.6.6-15.8 0-23.6-.3-4.6-2.6-8.5-8.3-7.2 5.6-15.3 13.5-29.3 14.6-45.8.9-13.3 1.8-26.3-4.4-38.8-8.2-16.6-21.8-25.3-39.5-27.8-11.8-1.7-23.2 2-34.6 4.8-15.2 3.7-30.6 7.3-46.1 9-18.4 2-35.6 7.3-52.6 13.8-5.8 2.2-7.7 6.2-5.9 11.9 1.9 6 5.1 11.1 11.8 13.2 1.7.6 3.5 2.7 4.2 4.6 2.7 6.8 5.1 13.7 7.4 20.7 1.6 5 3 10 4.8 16-3.4 0-5.5-.5-7.2.1-2.1.7-4.7 1.9-5.8 3.6-3.1 5.3-1.1 8.9 6.4 11.3 3 1 3.6 1.8 2.8 4.9-1.7 6.6.5 9.5 7.7 10.5 8.9 1.3 17.9 2.2 26.9 3.4 4.7.6 9.4 1.5 15.9 2.5-3.9 6.1-7.2 10.9-10.2 15.9-1.4 2.2-3.3 4.8-3.1 7.1.1 1.3 4 2.3 6.3 3.3.8.3 1.8.3 2.7.3 11.9.7 23.8 1.4 37.2 2.1-.6 2.5-1.2 5.2-1.9 7.8-1.3 4.7-2.6 9.3-4.2 14.7 2.7-.4 3.8-.6 5-.8-.3 4.1-.3 7.9-.8 11.6-.6 5-.6 10.3-2.3 15-1.7 4.6-5 8.6-7.9 12.8-2 2.8-4.7 5.1-8.2 2.6-4.8-3.3-7.6-.8-10.5 2.6-2.6 3.1-4.3 6.3-4.2 10.6.1 3.7-1.2 7.4-1.7 10.2 6.6 14.4 6.7 29.7 10.1 44.9-2.6 0-4.6-.2-6.5 0-6.4.9-12.9 1.6-19.1 3.3-4.5 1.2-6.8 4.4-2.2 9.1 2.4 2.4 5.2 4.3 7.9 6.4-2.2 4.5.1 9.2 6.7 11.2 7.4 2.3 15.1 4.3 22.8 4.6 9.5.4 19.1-1.2 28.7-1.7 1.3-.1 3.2.9 4 2 4.4 6.4 14.4 5.9 18-1 1.2-2.3 2.7-4.4 4.1-6.6-.7-.3-2.1-1-4.2-2 3.4-2.2 4.9-3.1 7.6-4.8h-5.4c-.4-3.3-.8-6.2-1.2-9.2 12.1-1.1 24.1-2.2 36.2-3.3 1.9 8.2 1 9.1-7.2 8.8-3.5-.1-7 .6-10.5.9.1.7.1 1.4.2 2.2 8.2-.7 16.3-1.4 24.5-2.2.1.5.1 1.1.2 1.6-1.8.4-3.6.9-6.9 1.7 2.9.7 4.2 1 5.9 1.5-1 .6-1.5 1-1.6 1zM132.5 203.6c.4-.7.9-1.4 1.3-2.1-3.3-1.8-6.5-5-9.8-5.1-2.9-.1-6.9 2.6-8.5 5.3-2.2 3.6-3.3 8.3-3.5 12.6-.5 8.7 11 17 19 14.1 1.4-.5 2.3-2.4 3.5-3.7-1.3-.6-2.6-1.7-4-1.8-10.8-1-13.6-4.5-12.4-15.8.5-4.8 4.6-7.5 9.3-5.8 1.7.6 3.4 1.5 5.1 2.3zM325.2 428h29.3c-.3-2.8-.5-4.5-.7-6.7-6.4-.4-12.5-.8-18.6-1.2-1.5 1-3.2 3.1-4.9 3-4.1.1-4.6 2.5-5.1 4.9zM203.9 193.1c-.8.3-1.6.5-2.4.8.3 5.9.5 11.9 1 17.7.1 1.3 1.6 2.5 2.4 3.8 1.2-1.2 3.5-2.3 3.5-3.5.2-4.6 0-9.3-.8-13.8-.1-1.8-2.3-3.3-3.7-5zm2.1-12.6c.5-4.4-1.5-6.8-4.9-7.4-3.5-.6-7.4 5-6.8 9 3.2-4.4 3.2-4.4 11.7-1.6zm335.7 254.1c.1.8.3 1.5.4 2.3 6.4-1.1 12.9-2.3 19.3-3.4 0-.8-.1-1.6-.1-2.4-1.7-.2-3.4-.8-5-.5-1.7.3-3.1 1.7-4.8 2.1-3.2.8-6.5 1.3-9.8 1.9z" fill="#fff"/>
  <path d="M35.8 415.4c6.8 15.3 14.8 23.1 29.9 28.8-.9-.7-1.7-1.5-2.6-2.1-9.4-6-18-12.7-21.8-24-1.2-3.7-1.1-6.3 2.9-7.9 13.2-5.2 26.1-11.7 39.7-15.2 9.7-2.5 20.4-1.2 28.8 6.7 3.2 3.1 6.7 6.1 10.6 8.2 5 2.7 5.9 6.8 5.8 11.7-.1 3.2 0 6.5.7 10l2.7-12.9c.2 0 .5 0 .7-.1v10.8c.4.1.7.1 1.1.2.7-1.3 1.3-2.6 2.4-4.7 3.3 3.3 3.5 7 .9 9.2-11.8 9.8-23.7 19.5-40.4 19-6.2-.2-12.3.2-18.5.1-17.3-.3-30.2-8.8-40.3-22.1-2.4-3.2-6.9-5.4-5.4-10.5.5-1.8 1.8-3.5 2.8-5.2zm49.7 6.2c2.8-.8 5.8-1.5 8.6-2.6 4.3-1.9 4.4-5.4.9-8.8-4.9-4.9-10.1-2.3-14.9-.6-2 .7-4.1 3.8-4.3 5.9-.1 1.5 2.9 3.4 4.8 4.7 1.3.8 3.1.9 4.9 1.4zM167.8 361.9c1.1-7.4 2.6-15.2 3.4-23.1.3-3-.2-6.3-1.2-9.1-.4-1.1-3.7-2.3-4.9-1.8-1.5.7-2.8 3-3.2 4.8-.9 4.2-1.1 8.5-2.3 12.9-6.2-13.1-9-27.2-12.1-41.3-.8.2-1.7.3-2.5.5.2 4.7.5 9.3.8 14.4-2.1.1-3.8.3-5.7.4-1.4-6.7-4.1-12.2-9.3-15.9-.4.3-.8.6-1.3.9 2.5 4.7 4.9 9.4 7.4 14.1-3.9 2.1-7.4 4.1-10.9 6.2 0 0 1.1 2 1.6 3-1.6.9-3.4 1.8-5.1 2.7-4-6-8.8-39.3-6.4-45.9 6.8 4.1 13.4 8.2 20.1 12.3.2.1.3.2.5.3 9.2 5.8 12.9 4.1 15.4-6.5.5-2.2 8.2-5 9.9-3.4 2.6 2.5 5.4 5.5 6.4 8.7 3.6 12.2 6.4 24.6 9.8 36.8.8 2.9 2.3 5.7 4 8.2 4.3 6.2 4.5 9.9-.6 15.1-3.4 3.4-6.6 7.9-13.8 5.7zM227.7 376.4c-1.8 1-3.7 1.8-5.3 3-4.8 3.6-5.1 3.6-7.5-2.1-.5-1.1-.9-2.3-1.5-3.9 1.4.2 2.3.3 3.8.5-1.2-1.5-2-2.4-2.9-3.5.5-.6.8-1.2 1.3-1.4 1-.3 2-.4 3.1-.6-.8-.6-2-1-2.2-1.7-.5-1.6-.7-3.3-.7-5 0-1.6.5-3.1.8-4.7l-1.5-.3c-.7 3.1-1.4 6.3-2.4 10.7-1-3.1-2-5.1-2.2-7.2-1-8.5-3.8-11.4-12.6-12.1-1.1-.1-2.1 0-3.4 0-1.7-4.1-1.5-7.1 2.9-9.4 2.8-1.5 5.4-3.7 7.7-5.9 3.2-3.1 5.6-2.2 8.3.7 3.6 3.8 5.2 8 6.1 13.3 1.1 6.2 5 11.8 6.8 17.9 1.2 3.8.8 8 1.1 12l.3-.3zM104.7 390.5c-.6-4.1-1.1-7.6-1.8-11.1-2.5-13.2-5.1-26.4-7.4-39.7-.3-1.8.7-3.8 1.2-5.7 2.2.8 4.8 1 6.6 2.4 6.1 4.9 3.7 12.4 5.1 18.7 2.2 10.7 3.8 21.6 5.6 32.4.3 1.6.1 3.3.1 4.9-1.9 0-3.9.2-5.7-.1-1.5-.3-2.7-1.3-3.7-1.8z" fill="#fff"/>
  <path d="M142.1 362.7c-3.6-3.7-2.7-6.4 2.2-8.2 1.8-.7 3.4-2 5.2-3 6.6-3.8 6.8-3.8 10 3.2 1.8 4.1 3.3 8.4 4.4 12.8.4 1.7-.4 3.7-.6 5.6-.5.1-1 .3-1.5.4-1-1.6-1.9-3.1-3.5-5.7-2 2.7-3.7 5.1-5.4 7.4-.2-.1-.5-.2-.7-.3.6-1.5 1.3-2.9 1.9-4.4-.2-.3-.5-.6-.7-1-2.6 1.6-5.2 3.3-7.9 4.9-.1-.2-.3-.4-.4-.6.7-.6 1.6-1.1 2-1.9.7-1.3 1-2.9 1.5-4.3-1.6.2-3.3.2-4.7.7-2.1.8-4.1 2.1-6.1 3.2-.5-.6-.9-1.1-1.4-1.7 1.7-2.2 3.5-4.4 5.7-7.1zM113.4 273.4c4.2.5 7.5.5 10.4 1.4 7 2 14.7.3 21.4 4.6 6.2 4 7.3 7.2 2.5 12.8-.9 1.1-3.7 1.9-4.8 1.3-9.1-5.1-18-10.6-26.8-16-.9-.7-1.3-2.1-2.7-4.1zM113.6 330.1c4.3 13 8.6 25.8 12.9 38.9-3 .7-5.1 1.2-7.2 1.7-7.8-9.4-11.1-31.4-5.7-40.6zM131.5 410.1c8.1.5 15 .9 22.1 1.3v14.8c-2.8.5-5.6 1.1-8.4 1.4-.7.1-1.8-.4-2.3-1-3.5-5-7-10.1-11.4-16.5zM158.2 415.2c3.7-.7 6.4-1.2 9.9-1.9 1.2 7 2.6 13.7 3.4 20.4.1 1.2-2.1 3.8-3.6 4-3.4.5-7.4.3-8.1-4.2-.8-5.9-1-11.9-1.6-18.3zM165.8 403.2c-8.1 2.4-16.2 3.6-24.7 2-2.8-.5-5.9 0-8.7-.6-4.1-.9-8.2-2.1-12.2-3.7-1.1-.4-1.7-2.4-2.5-3.6 1.4-.5 3-1.5 4.3-1.3 6.3 1.2 12.6 3.1 18.9 4.1 4.3.7 8.9.3 13.3.5 3.9.1 7.8.3 11.7.5 0 .8 0 1.5-.1 2.1zM122.8 333.6c4.9-.8 8.5-1.5 12.5-2.2-1 1.5-1.7 2.6-2.7 4.1 6 2.2 10.1-1.8 14.9-3.8 1.4 2.3 2.9 4.5 4.1 6.5-5.9 2.9-11.4 5.7-17.1 8.3-.8.4-2.7-.1-3.3-.9-2.7-3.7-5.5-7.8-8.4-12zM191.6 375.6c-4.7 1.2-9.4 2.4-13.6 3.4.9-2.6 2-5.5 3-8.3-.7-.5-1.4-.9-2-1.4-4.3 2.7-8.5 5.3-13.1 8.2 1.1-3.5 2.2-6.8 3.3-10.4 10.5-1.6 20.8 2.4 22.4 8.5zM133.3 444.2c-1.1 10.7-13.8 15.6-32.7 13.5 13.3 2.1 20.9-9.6 32.7-13.5zM218.9 410.4c-5.5-1.6-9.1 2.9-13.6 4.4-2.4.8-4.8 1.8-7.5 2.9 7.3-8 14-16.1 26.9-13.7-2 2.2-4 4.3-5.9 6.4h.1zM152.2 345.8c-5.2 2.5-10.4 5-15.5 7.4-.4-.8-.7-1.5-1.1-2.3 4.5-3.9 10-5.9 15.8-7 .3.7.5 1.3.8 1.9zM163.3 355.4v-5.8c0-2.9-.3-5.7.1-8.5.2-1.1 2-1.9 3.1-2.8.6 1.1 1.7 2.3 1.5 3.3-.9 4.6-2.1 9.2-3.3 13.7-.4 0-.9 0-1.4.1zM141.8 380.5c-4.7 5.5-8.2-5.5-12.7-.3 6.5-5.8 6.5-5.8 12.7.3zM198.6 389.1h-7.7c.7-2.6 1.5-5.4 2.7-9.8 2.1 4.1 3.5 6.9 5 9.8zM17.6 13c-2.5 1.2-5 2.4-8.5 4.2 0-2.2-.3-4.6 0-4.7 2.7-.7 5.4-1 8.2-1.5.1.7.2 1.3.3 2z" fill="#fff"/>
  <path d="M218.8 410.3c-3.5 3.8-7 7.7-10.4 11.5-.6-.7-1.3-1.3-1.9-2 4.1-3.2 8.3-6.3 12.4-9.5 0 .1-.1 0-.1 0z" fill="#fff"/>
  <path d="M481 427.3c.1-.1.7-.5 1.7-1.2-1.7-.4-3-.8-5.9-1.5 3.4-.8 5.1-1.2 6.9-1.7-.1-.5-.1-1.1-.2-1.6-8.2.7-16.3 1.4-24.5 2.2-.1-.7-.1-1.4-.2-2.2 3.5-.3 7-1 10.5-.9 8.2.3 9.2-.6 7.2-8.8-12 1.1-24 2.2-36.2 3.3.4 3 .8 6 1.2 9.2h5.4c-2.6 1.7-4.1 2.6-7.6 4.8 2.1 1 3.5 1.7 4.2 2-1.4 2.3-2.9 4.4-4.1 6.6-3.7 6.9-13.6 7.4-18 1-.7-1.1-2.7-2-4-2-9.6.5-19.2 2.1-28.7 1.7-7.7-.3-15.4-2.3-22.8-4.6-6.7-2-8.9-6.8-6.7-11.2-2.6-2.1-5.5-4-7.9-6.4-4.7-4.7-2.3-7.9 2.2-9.1 6.2-1.7 12.7-2.3 19.1-3.3 1.9-.3 3.9 0 6.5 0-3.5-15.3-3.6-30.6-10.1-44.9.5-2.8 1.8-6.5 1.7-10.2-.1-4.4 1.7-7.5 4.2-10.6 2.8-3.4 5.7-6 10.5-2.6 3.5 2.5 6.3.2 8.2-2.6 2.9-4.1 6.2-8.2 7.9-12.8 1.7-4.6 1.7-9.9 2.3-15 .4-3.7.5-7.5.8-11.6-1.2.2-2.3.4-5 .8 1.5-5.4 2.9-10.1 4.2-14.7.7-2.6 1.3-5.2 1.9-7.8-13.4-.8-25.3-1.4-37.2-2.1-.9-.1-1.9 0-2.7-.3-2.3-1-6.2-2-6.3-3.3-.2-2.3 1.7-4.9 3.1-7.1 3-5 6.3-9.8 10.2-15.9-6.6-1-11.2-1.9-15.9-2.5-9-1.2-18-2.1-26.9-3.4-7.2-1-9.4-4-7.7-10.5.8-3.1.2-3.9-2.8-4.9-7.5-2.5-9.4-6.1-6.4-11.3 1-1.8 3.6-2.9 5.8-3.6 1.7-.6 3.8-.1 7.2-.1-1.8-6-3.1-11.1-4.8-16-2.3-6.9-4.7-13.9-7.4-20.7-.7-1.8-2.5-4-4.2-4.6-6.7-2.1-9.9-7.2-11.8-13.2-1.8-5.8.2-9.7 5.9-11.9 17-6.5 34.3-11.7 52.6-13.8 15.5-1.7 30.9-5.3 46.1-9 11.5-2.8 22.8-6.4 34.6-4.8 17.7 2.5 31.3 11.2 39.5 27.8 6.2 12.5 5.3 25.5 4.4 38.8-1.1 16.4-9 30.5-14.6 45.8 5.7-1.2 8 2.6 8.3 7.2.5 7.9 1.3 16 0 23.6-1.8 10.4-7.6 12.8-18 8.8-2.5 6.8-2 13.8-.6 20.5 1.9 8.8.7 10.9-10 10.6 7.4 12.6 14.4 24.4 21.4 36.2.5-.2.9-.4 1.4-.6.6-2.2 1-4.4 1.9-6.5 2.5-6.5 5.8-9.1 12.7-8.3 5.6.6 11.5 2.2 16.4 4.8 2.8 1.5 5.3 6 5.5 9.2.5 8.1-.4 16.3-.9 24.4-.6 9-1.4 18-2.2 27-.3 3-.7 6.1-.8 9.1-.1 2-.7 4.8.4 5.8 6 5.6 1.6 8.8-2.5 12.3 1.4 6.8 2.9 13.6 4.5 21.3 3.9-.8 7.5-1.8 11.2-2.3 1.2-.2 2.5.9 3.7 1.4 0 .7-.1 1.5-.1 2.2 6.2-2.1 12.4-4.3 18.6-6.4.3.6.6 1.3.8 1.9-3.3 1.6-6.5 3.6-9.9 4.7-3.6 1.1-7.5 1.2-11.3 1.6-.7.1-1.5.3-2.2.1-6.7-2.2-9.7-1.2-15.3 2.8-2.5 1.8-6.3 2.6-9.5 2.3-3.5-.3-5.4-3-5.2-7.1-.1-1.1-2.3-2.6-3.7-4.3zM331.4 138.7c4.1.7 8.3 1.5 12.4 2.2-.2-.5-.3-1-.5-1.5 2.2-.9 4.4-2.3 6.6-2.5 5.2-.4 10.4.2 15.6-.2 6.5-.5 13-1.7 19-2.5 0-.4-.1-2.2-.2-3.9 7.4 1 14.8 2 21.6 3-1-1.3-2.4-3.2-3.9-5.2.3-.5.7-.9 1-1.4 2.2.3 4.5.8 6.7.9 5.5.3 10.4 2 16.2-2.8 3.7-3.1 12-1.6 18.1-.6 12.7 1.9 19.7 10.8 23.5 22.4 1.2 3.8 1.4 7.9 2.2 12.3.8-1.8 1.3-3.1 2-4.7 1.4 2.1 2.4 3.6 3.5 5.2-.7 11.6-1.4 23.2-2 34.8 3.8-11.4 5.8-22.9 1.9-34.7-.2-2.5.1-5.3-.7-7.6-9-24-25.4-35.2-51.1-32-10.1 1.3-20 4.6-29.9 7.2-3 .8-5.9 2.2-8.9 3.3-2 .2-4 .3-6 .6-8.7 1.2-17.5 2.4-26.2 3.8-7 1.1-13.9 2.7-20.8 4-8 2.6-16 5.1-23.9 8-1.2.5-2.5 3-2.4 4.6.2 3.6 6 7.8 9.5 7.9-2.2-2.9-4.6-6-7.1-9.3 8.3-4.6 17.4-5.1 23.8-11.3zM468 399.1c-2.6-.8-6.3-3.1-7.7-2.2-4.7 3.3-7.7.2-11-1.4-6.7 6.6-7.6-3.5-11.7-3.6-1.9.4-4.5 1.5-5.6.7-4.9-3.8-11.1-6.6-12.7-13.9 4.5 3.8 8.5 7.2 12.6 10.6.4-.2.8-.3 1.2-.5-.5-2.6-1.1-5.2-1.9-9.2 3.8 4.4 5.7 9.6 11.8 6.3.7-.4 2.7 1.5 4 2.4 1.4 1.1 2.6 2.4 4.8 4.4 1.4-9.3 7.7-.7 13.2-6.1-1.9-.7-3.6-1.1-5.1-1.9-6.4-3.7-12.4-8-19-11.1-5.4-2.6-11.3-4.6-17.2-5.2-3.4-.4-7.2 2.3-10.8 3.6 1.4 5.7 2.8 11.5 4.4 17.2 1 3.7 3.2 5.9 7.2 7.2 13.2 4.6 26.8 4.6 40.4 4.3 1 0 2-1.1 3.1-1.6 8.2 1.5 12.5-.5 12.2-5.8-4.1 1.9-8.1 3.9-12.2 5.8zm-46.8-126.9c-2.3-4.5-5.7-8.1-5.7-11.6 0-8.2.9-16.6 6.2-23.6.8-1.1 2.1-2.8 1.7-3.7-2.1-5.3-4.6-10.4-7.1-15.8-11.6 9.3-10.5 7.2-14.4 4.1.3-.4.6-1.1 1-1.2 8.5-1 12.2-6.6 12.4-14.4.1-3.3-2.1-6.6-3.2-9.9-2.8 1.1-5.7 2-8.5 3.2-1.2.5-2.2 1.5-3.4 2.3-.4-.4-.8-.9-1.2-1.3 2.2-2.7 4.4-5.4 6.6-8-.1-.4-.3-.9-.4-1.3-4.7.6-9.5 1.1-14.2 2-3.9.7-6.8-.3-9-3.2 1.3-2 2.5-3.4 3.2-5.1.7-1.8.4-4.2 1.4-5.8 1.4-2.4 3.5-4.3 5.3-6.5-7.6 5.1-15.3 8.1-23.4 1.3-7.3 7.6-9.9 8.1-19.5 3.5-6.8-3.3-10.9-9.2-14.3-15.5-2-3.6-4.6-4.9-8.7-4.1-4.2.8-5.2 3.5-5.3 7.6 2.8.2 5.5.4 9.4.7-2.4 1.8-4 3.8-6 4.3-3.6 1-4 2.6-2.9 6 2.7 7.8 4.9 15.8 7.3 23.7 2.4 7.8.6 10.4-7.8 11.5-1.2.2-2.3 1.6-3.4 2.5 1.1.9 2.2 2.6 3.3 2.7 4.4.3 5.5 2.7 5.3 6.5-.1 1.5-.5 3.1.1 4.3.9 1.8 2.2 4.3 3.8 4.7 5 1.2 10.3 1.6 15.5 2.1 7.7.9 15.6 1.2 23.2 2.6 7.8 1.4 8.7 3.4 5.7 10.7-2.2 5.4-5 10.6-7.5 15.8 3.9.4 7.5 1.1 11.1 1.2 6.4.1 12.9.3 19.3-.2 7.8-.5 10.4.7 13.9 7.6.8 1.6 1.7 3.1 2.6 4.8 3.2-1.9 5.8-3.4 7.6-4.5zm13.7 84.9c5.8 1.7 10.6 2.5 15 4.4 9.1 4 17.9 8.4 26.7 13 1.3.7 1.7 3.1 2.6 4.7-1.7-.2-3.7.1-5.2-.6-7.5-3.5-14.8-7.6-22.3-11-9-4.1-14.2-4.8-18.5-3.8 9.4 5.7 19.7 11.8 29.7 18.1 1.9 1.2 3.1 3.7 5.4 6.7 3.3-.3 8.1-.8 13.4-1.3.6-5.9 1.5-11.8 1.8-17.7.1-2.2-1.2-4.6-2.4-6.6-5.6-8.8-11.5-17.4-17.1-26.2-3.7-5.8-7.2-11.7-11.4-18.6-.3 3.1-1 5-.5 6.5 2.5 6.8-1.2 12-4.6 16.9-3.7 5.4-8.1 10.1-12.6 15.5zm-41.2 7.4c3-.3 4.4 0 5.1-.5 3.7-3 6.8-2 10.1.7 4.2 3.4 8.2 1.4 12.1-.9 9.6-5.7 13.9-15.1 18.1-25.4-7-2.2-13.6-4.3-20.8-6.5-3.1 5.5-6.5 11.4-9.7 17-6.4-1.5-12.1-3.1-17.9-4.2-4.8-.9-5.9 2.7-7.9 6.6 3.7-1.3 4.7-7.1 9-3.9-2.2 2.8-4.1 5.1-5.9 7.5.3.2.7.4 1 .7 2.7-1.5 5.3-3.1 8-4.6.2.4.4.8.6 1.1-2.3 2.9-4.6 5.8-6.9 8.6.5.4.9.8 1.4 1.2 2.6-2.6 5.2-5.1 7.7-7.7.3.4.5.7.8 1.1-1.5 2.6-2.9 5.3-4.8 9.2zm-8.4-.3c2.2 13.4 4.1 25.5 6.2 37.5.3 1.5 1.2 3.3 2.4 4 7.6 4.1 15.5 2.8 22.8 1.9-1.5-7.5-2.7-14.3-4.2-21.2-1.1-4.9-2-10-4.1-14.4-1.2-2.4-5.9-5.6-7.2-4.9-5.8 3.1-10.3.5-15.9-2.9zm103.3-38.8c0 4.1-.1 8 0 11.9.3 8.1 1.5 16.2 1 24.2-.6 11.3-2.3 22.6-3.3 34-.1 1.2 1.5 3.1 2.7 3.6 4 1.5 6.4-.3 6.7-4.4.8-9.6 1.3-19.2 2-28.8.7-10.4 1.8-20.8 2.1-31.3.3-7.2-3.1-10.1-11.2-9.2zm-46.6 3.9c3.1-8.3 7.3-15.1 2.6-22.9-2.1-3.4-4-6.9-6.4-10.1-5.3-7.2-12.1-7.2-15.4-.1 4 .3 4.6 2.8 3.7 6.1-.9 3.5-2 6.9-2.6 10.4-.3 1.8-.3 4.7.7 5.4 5.4 3.9 11.2 7.3 17.4 11.2zm-16.6-169.9 1.2 1.2c2-1.8 5.4-3.5 5.7-5.5.5-3.9-.7-8-1.2-11.7-2.9-.7-5.3-1.2-6.9-1.6-15.1 13.2-32.3 12.5-49.9 11 3.2 1.2 6.6 1.9 9.7 3.1 3.1 1.2 7.3 1.5 8.2 6.9-15.5 2.6-29.1-1.5-41.9-9.9 1.7 2.9 3.3 5.5 5.6 6.8 5.3 2.9 10.9 5.2 16.4 7.8 4.6 2.1 9.3 5 14.4 2.4 6.8-3.5 13.4-7.4 19.9-11.3 4.9-2.9 9.7-6.2 14.6-9.1 1.3-.8 4.2-1.3 4.5-.7 1.1 1.6 1.7 3.8 1.6 5.8 0 1.5-1.2 3.1-1.9 4.8zm-17.2 135.2c-2.1 13.8-1.1 26.8 2 39.9 1.7-2.6 3.5-5.5 3-7.9-3-11.9 1.4-22.1 7-31.9 5.5-9.6 6.8-9.8 16.4-4.3.7.4 1.3.8 3.3 2-2.9-8.1-5.3-14.8-7.9-22.2-7.2 10.3-13.6 19.3-20.2 28.7-1.6-1.8-2.4-2.8-3.6-4.3zm60.9-35.2c-1.4.8-2.3 1.5-3.2 1.9-.8.3-1.8.1-2.7.3-.7.1-1.5.4-3 .9 6.7 1.6 10.6-.1 11.4-5.8.9-7.3.5-14.7 0-22.1-.3-4.4-3-5.3-6-1.9-3.4 3.9-6.5 8.3-9 12.8-1.7 3.1-1.1 6.1 3.1 7.7 3 1.2 5.6 3.6 9.4 6.2zm-40.6-1.3c-.2-.5-.5-.9-.7-1.4 2.7-1.7 5.4-3.3 8-5.1 1.1-.8 2.9-2.9 2.8-3-2.7-3.1-5.2-6.8-8.7-8.6-3.2-1.6-6.3 1.1-7.2 4.6-1.2 4.3-2.3 8.8-2.3 13.2 0 3 .2 7.4 4.8 7.9 3.9.4 8-3.5 7.9-7.2-1.5-.1-3.1-.2-4.6-.4zm19.6-65.6c4.7-15.1 2.1-29 .8-41.6-3.7-1.3-6.1-2.1-9.6-3.3 2.9 14.9 5.7 29.3 8.8 44.9zm-11.2 224.6c-4 .9-9.5 1.2-9.7 2.4-1 5.2-1.1 10.8 0 15.9.3 1.5 5.8 2 9.7 3.2v-21.5zm51.2-.2c0 3.2-.1 6.2 0 9.3.2 7.4 1.7 8.7 9.4 8 0-3.9.2-7.8 0-11.7-.2-5.6-3-8-9.4-5.6zM335.7 152.1c5.4 14.1 18 24.9 27.4 21.7-1.9-7.1-4.2-8.7-11.2-9-2.3-.1-4.9-1.3-6.7-2.8-3.3-2.9-6-6.2-9.5-9.9zm95.3 71.1c.3-.1.6-.3 1-.4-3.2-12.2-6.4-24.3-9.7-36.9-2.8 1.5-4.9 2.6-6 3.2 5.1 11.8 9.9 23 14.7 34.1zM417.9 411c-8.2.8-15.5 1.5-23.5 2.3 7.2 7 15.2 7.4 25.6 2-.7-1.5-1.5-3.1-2.1-4.3zM392 339.5c4 1.4 7 2.7 10.2 3.3 1 .2 3.6-1.5 3.5-1.9-.9-4.9-2.3-9.8-3.7-15.5-3.6 5.1-6.6 9.4-10 14.1zm69.5-176.3c1.1-16-3.9-27.1-12.3-27.9 4.1 9.1 8.1 18.3 12.3 27.9zm-34.4 110.2c-.4-.4-.8-.7-1.1-1.1-2.7 2-5.3 4.2-8.1 6-4.9 3.4-6.1 7-3.7 14 4.5-6.5 8.7-12.7 12.9-18.9zm-42.4 119.3c.1-.8.4-1.7.2-2.5-1.3-7.6-2.5-15.2-4.2-22.8-.6-2.7-2.4-5.1-3.7-7.7-.6.3-1.2.6-1.9.9 5.8 10 2.7 22.4 9.6 32.1zm99.8-35.6v-19c-2.2 1.6-4.1 2.2-4.7 3.5-3 6.1-2.2 8.7 4.7 15.5zm-7.7-32.5c-5.7 6.1-5.9 15-.9 19 .3-6.2.6-12.3.9-19zM379 347.8c2-2.1 3.8-3.6 5.1-5.5.6-.9.3-2.4.4-3.7-2.7.3-5.7-.2-7.9 1-2 1.1-2.7 3.8.6 5.4.8.5 1.1 1.8 1.8 2.8zm62.4-14.9c-6.7-3-12.8-5.7-19.4-8.7 3.3 5.6 12.8 9.9 19.4 8.7zm3 74.7c-7.2-1.7-14.4-3.3-21.6-5 6.1 6.2 13.9 5.6 21.6 5zm-10.7-218c-.5-5.9-1-11.9-1.5-17.8-.7.1-1.3.1-2 .2-2.5 6.2 1.5 11.8 3.5 17.6zm10 60.8c2.1.9 3.9 1.8 5.9 2.4.4.1 1.6-1.3 1.8-2.2.7-2.4 1-4.9 1.6-8.2-1.6 1.5-2.8 2.7-4.1 3.8-1.3 1-2.7 2.1-5.2 4.2zm-5 24c1.9-3.7 3.4-7.3-1.5-9.9-3.9 4.2 1.1 6.7 1.5 9.9zm-56.3 135.4c0-.7-.1-1.3-.1-2l-19.8 1.5c0 .2 0 .3.1.5h19.8zM132.5 203.6c-1.7-.8-3.4-1.7-5.2-2.4-4.6-1.7-8.8 1-9.3 5.8-1.1 11.3 1.7 14.8 12.4 15.8 1.4.1 2.7 1.2 4 1.8-1.1 1.3-2.1 3.2-3.5 3.7-8 2.9-19.5-5.4-19-14.1.2-4.3 1.3-9 3.5-12.6 1.6-2.6 5.6-5.4 8.5-5.3 3.3.1 6.5 3.3 9.8 5.1-.3.8-.8 1.5-1.2 2.2z"/>
  <path d="M325.2 428c.5-2.4 1-4.9 5-4.8 1.7 0 3.4-2 4.9-3 6.1.4 12.2.8 18.6 1.2.2 2.1.4 3.9.7 6.7-9.8-.1-19.4-.1-29.2-.1zM203.9 193.1c1.3 1.7 3.5 3.2 3.8 5 .8 4.5.9 9.2.8 13.8 0 1.2-2.3 2.3-3.5 3.5-.8-1.2-2.3-2.4-2.4-3.8-.5-5.9-.7-11.8-1-17.7.8-.2 1.6-.5 2.3-.8zM206 180.5c-8.5-2.8-8.5-2.8-11.7 1.6-.6-4.1 3.3-9.7 6.8-9 3.3.6 5.4 3 4.9 7.4zM541.7 434.6c3.3-.6 6.6-1.1 9.8-1.9 1.7-.4 3.1-1.8 4.8-2.1 1.6-.3 3.3.3 5 .5 0 .8.1 1.6.1 2.4-6.4 1.1-12.9 2.3-19.3 3.4-.1-.8-.2-1.6-.4-2.3zM85.5 421.6c-1.8-.5-3.6-.6-4.8-1.5-1.9-1.3-4.9-3.2-4.8-4.7.1-2.1 2.3-5.2 4.3-5.9 4.8-1.7 10-4.2 14.9.6 3.4 3.4 3.4 6.9-.9 8.8-2.9 1.3-5.9 1.9-8.7 2.7zm-5.3-6h14.6c-4.9-5.4-8.3-5.4-14.6 0z"/>
  <path d="M421.2 272.2c-1.8 1.1-4.4 2.7-7.3 4.5-.9-1.6-1.8-3.2-2.6-4.8-3.5-6.9-6.1-8.1-13.9-7.6-6.4.4-12.9.3-19.3.2-3.6-.1-7.2-.7-11.1-1.2 2.5-5.3 5.3-10.4 7.5-15.8 3-7.3 2.1-9.3-5.7-10.7-7.7-1.4-15.5-1.7-23.2-2.6-5.2-.6-10.4-1-15.5-2.1-1.6-.4-2.9-2.9-3.8-4.7-.6-1.2-.2-2.9-.1-4.3.2-3.8-.9-6.3-5.3-6.5-1.2-.1-2.2-1.8-3.3-2.7 1.1-.9 2.2-2.4 3.4-2.5 8.4-1.1 10.2-3.7 7.8-11.5-2.4-7.9-4.6-15.9-7.3-23.7-1.1-3.4-.7-4.9 2.9-6 2-.6 3.5-2.5 6-4.3-3.9-.3-6.7-.5-9.4-.7.1-4.1 1.1-6.8 5.3-7.6 4.1-.8 6.8.5 8.7 4.1 3.5 6.4 7.5 12.3 14.3 15.5 9.7 4.6 12.2 4.1 19.5-3.5 8.1 6.8 15.8 3.8 23.4-1.3-1.8 2.1-3.9 4.1-5.3 6.5-1 1.6-.7 4-1.4 5.8-.7 1.7-1.9 3.2-3.2 5.1 2.1 3 5.1 3.9 9 3.2 4.7-.9 9.4-1.3 14.2-2 .1.4.3.9.4 1.3-2.2 2.7-4.4 5.4-6.6 8 .4.4.8.9 1.2 1.3 1.1-.8 2.1-1.8 3.4-2.3 2.8-1.2 5.6-2.1 8.5-3.2 1.1 3.3 3.3 6.6 3.2 9.9-.2 7.8-3.9 13.3-12.4 14.4-.4 0-.6.8-1 1.2 4 3.1 2.8 5.2 14.4-4.1 2.5 5.4 5 10.5 7.1 15.8.3.9-.9 2.6-1.7 3.7-5.4 7-6.2 15.4-6.2 23.6-.3 3.5 3 7.1 5.4 11.6zm-81.5-51.4c3.8-3.9 4.7-13.1 1.7-17.3-.7-.9-2-1.9-3-1.9-.8 0-2 1.3-2.4 2.3-2 4.6.1 13.5 3.7 16.9zm-9.9-35.4c1.6 0 13.7-.2 13.8-.3 2.4-4.1-.1-6.9-3.4-8.1-6.9-2.3-6.3 5-10.4 8.4zM434.9 357.1c4.5-5.4 9-10.1 12.6-15.3 3.5-4.9 7.1-10.1 4.6-16.9-.5-1.5.2-3.4.5-6.5 4.2 6.9 7.7 12.8 11.4 18.6 5.6 8.8 11.5 17.4 17.1 26.2 1.2 1.9 2.5 4.4 2.4 6.6-.2 5.9-1.1 11.8-1.8 17.7-5.4.5-10.2 1-13.4 1.3-2.3-2.9-3.5-5.4-5.4-6.7-10-6.4-20.3-12.4-29.7-18.1 4.3-1 9.5-.3 18.5 3.8 7.5 3.4 14.8 7.4 22.3 11 1.5.7 3.5.4 5.2.6-.8-1.6-1.3-4-2.6-4.7-8.8-4.6-17.7-9-26.7-13-4.4-2.1-9.3-2.9-15-4.6zM393.7 364.5c1.9-3.8 3.3-6.5 4.6-9.2-.3-.4-.5-.7-.8-1.1-2.6 2.6-5.2 5.1-7.7 7.7-.5-.4-.9-.8-1.4-1.2 2.3-2.9 4.6-5.8 6.9-8.6-.2-.4-.4-.8-.6-1.1-2.7 1.5-5.3 3.1-8 4.6-.3-.2-.7-.4-1-.7 1.9-2.3 3.7-4.7 5.9-7.5-4.4-3.1-5.3 2.6-9 3.9 2-3.9 3.2-7.5 7.9-6.6 5.8 1.1 11.5 2.7 17.9 4.2 3.3-5.7 6.6-11.6 9.7-17 7.1 2.2 13.7 4.3 20.8 6.5-4.2 10.2-8.5 19.6-18.1 25.4-3.8 2.3-7.9 4.3-12.1.9-3.3-2.7-6.4-3.7-10.1-.7-.5.5-1.9.2-4.9.5zM385.3 364.2c5.6 3.4 10.1 6 16 2.9 1.3-.7 6 2.5 7.2 4.9 2.2 4.4 3 9.5 4.1 14.4 1.5 6.8 2.8 13.7 4.2 21.2-7.3.9-15.3 2.2-22.8-1.9-1.2-.6-2.2-2.5-2.4-4-2.2-12.1-4.1-24.2-6.3-37.5zM467.9 399c-1 .6-2 1.7-3.1 1.7-13.6.3-27.2.3-40.4-4.3-3.9-1.4-6.2-3.5-7.2-7.2-1.6-5.7-2.9-11.5-4.4-17.2 3.6-1.3 7.4-4 10.8-3.6 5.9.7 11.8 2.7 17.2 5.2 6.6 3.1 12.7 7.4 19 11.1 1.5.9 3.3 1.3 5.1 1.9-5.6 5.4-11.8-3.2-13.2 6.1-2.2-2-3.4-3.3-4.8-4.4-1.3-1-3.3-2.8-4-2.4-6.1 3.3-8-1.9-11.8-6.3.8 4 1.4 6.6 1.9 9.2-.4.2-.8.3-1.2.5-4.1-3.4-8.2-6.9-12.6-10.6 1.7 7.3 7.9 10.1 12.7 13.9 1.1.8 3.7-.3 5.6-.7 4.1 0 5 10.2 11.7 3.6 3.3 1.6 6.3 4.7 11 1.4 1.4-1 5.1 1.4 7.7 2.2v-.1zM488.6 325.4c8-.8 11.5 2 11.2 9.2-.4 10.4-1.4 20.9-2.1 31.3-.7 9.6-1.2 19.2-2 28.8-.3 4.1-2.7 6-6.7 4.4-1.2-.5-2.8-2.4-2.7-3.6 1-11.3 2.8-22.6 3.3-34 .4-8-.7-16.2-1-24.2-.1-3.9 0-7.8 0-11.9zM442 329.3c-6.1-3.9-12-7.3-17.4-11.2-1-.7-1-3.7-.7-5.4.6-3.5 1.8-6.9 2.6-10.4.8-3.2.3-5.8-3.7-6.1 3.3-7.1 10.1-7 15.4.1 2.4 3.2 4.4 6.7 6.4 10.1 4.6 7.8.4 14.6-2.6 22.9z" fill="#fff"/>
  <path d="M425.4 159.4c.7-1.7 1.9-3.3 2-5 .1-1.9-.5-4.2-1.6-5.8-.4-.6-3.2-.1-4.5.7-5 2.9-9.7 6.2-14.6 9.1-6.6 3.9-13.2 7.8-19.9 11.3-5.2 2.7-9.8-.2-14.4-2.4-5.5-2.5-11.1-4.8-16.4-7.8-2.3-1.3-3.9-4-5.6-6.8 12.8 8.4 26.4 12.5 41.9 9.9-.9-5.4-5.1-5.6-8.2-6.9-3.1-1.3-6.5-1.9-9.7-3.1 17.6 1.4 34.8 2.1 49.9-11 1.5.4 4 .9 6.9 1.6.5 3.7 1.8 7.9 1.2 11.7-.3 2.1-3.7 3.7-5.7 5.5-.5-.2-.9-.6-1.3-1z" fill="#fff"/>
  <path d="M475.3 159.4c-1-1.6-2.1-3.1-3.5-5.2-.7 1.6-1.3 3-2 4.7-.7-4.4-1-8.5-2.2-12.3-3.7-11.6-10.7-20.5-23.5-22.4-6-.9-14.3-2.4-18.1.6-5.8 4.8-10.7 3-16.2 2.8-2.3-.1-4.5-.6-6.7-.9-.3.5-.7.9-1 1.4 1.5 2 3 3.9 3.9 5.2-6.7-.9-14.1-1.9-21.6-3l.2.1c2.9-1.1 5.8-2.5 8.9-3.3 9.9-2.6 19.8-5.9 29.9-7.2 25.7-3.3 42.1 7.9 51.1 32 .9 2.3.5 5 .7 7.6l.1-.1zM408.2 294.6c1.2 1.5 2 2.4 3.6 4.4 6.6-9.4 12.9-18.4 20.2-28.7 2.6 7.3 5 14 7.9 22.2-2-1.2-2.6-1.7-3.3-2-9.6-5.5-10.9-5.4-16.4 4.3-5.6 9.8-10 19.9-7 31.9.6 2.3-1.2 5.3-3 7.9-3.1-13.2-4.1-26.2-2-40zM469.1 259.4c-3.8-2.5-6.4-5-9.4-6.1-4.3-1.6-4.8-4.6-3.1-7.7 2.5-4.6 5.6-8.9 9-12.8 3-3.4 5.7-2.6 6 1.9.5 7.3.9 14.8 0 22.1-.7 5.7-4.7 7.4-11.4 5.8 1.6-.5 2.3-.8 3-.9.9-.2 1.9 0 2.7-.3 1-.5 1.8-1.2 3.2-2zM428.5 258.1c1.5.1 3.1.3 4.6.4 0 3.7-4 7.6-7.9 7.2-4.6-.4-4.8-4.9-4.8-7.9 0-4.4 1.1-8.9 2.3-13.2.9-3.5 4.1-6.2 7.2-4.6 3.5 1.8 6 5.5 8.7 8.6.1.1-1.7 2.2-2.8 3-2.6 1.8-5.3 3.4-8 5.1.2.5.5 1 .7 1.4z" fill="#fff"/>
  <path d="M448.1 192.5c-3.1-15.6-5.9-30-8.8-44.9 3.5 1.2 5.9 2 9.6 3.3 1.3 12.7 3.9 26.5-.8 41.6zM436.9 417.1v21.5c-4-1.2-9.4-1.6-9.7-3.2-1.1-5.1-1-10.7 0-15.9.2-1.3 5.6-1.5 9.7-2.4zM488.1 416.9c6.4-2.5 9.1-.1 9.4 5.6.2 3.9 0 7.8 0 11.7-7.7.8-9.3-.6-9.4-8v-9.3zM335.7 152.1c3.5 3.7 6.2 7 9.5 9.8 1.8 1.5 4.4 2.7 6.7 2.8 6.9.4 9.2 2 11.2 9-9.4 3.3-22-7.5-27.4-21.6zM431 223.2c-4.8-11.2-9.6-22.3-14.7-34.1 1-.6 3.2-1.7 6-3.2 3.3 12.5 6.5 24.7 9.7 36.9-.3.2-.6.3-1 .4zM384.4 130.3c.1 1.7.2 3.5.2 3.9-6 .8-12.5 1.9-19 2.5-5.2.4-10.4-.2-15.6.2-2.3.2-4.4 1.6-6.6 2.5.2.5.3 1 .5 1.5-4.1-.7-8.3-1.5-12.4-2.2l.1.2c6.9-1.4 13.9-2.9 20.8-4 8.7-1.4 17.5-2.6 26.2-3.8 2-.3 4-.4 6-.6-.1 0-.2-.2-.2-.2zM417.9 411c.6 1.2 1.3 2.7 2 4.3-10.3 5.5-18.4 5-25.6-2 8.1-.7 15.4-1.4 23.6-2.3zM392 339.5c3.3-4.7 6.4-9 9.9-14.1 1.4 5.7 2.8 10.5 3.7 15.5.1.4-2.4 2.1-3.5 1.9-3-.6-6-1.9-10.1-3.3zM461.5 163.2c-4.2-9.6-8.3-18.8-12.3-27.9 8.4.7 13.4 11.8 12.3 27.9zM331.4 138.7c-6.4 6.2-15.5 6.7-23.8 11.4 2.5 3.2 4.9 6.4 7.1 9.3-3.5-.1-9.3-4.3-9.5-7.9-.1-1.5 1.1-4.1 2.4-4.6 7.9-2.9 15.9-5.4 23.9-8 .1 0-.1-.2-.1-.2zM427.1 273.4c-4.2 6.2-8.4 12.4-12.9 19-2.4-7-1.2-10.6 3.7-14 2.8-1.9 5.4-4 8.1-6 .3.3.7.7 1.1 1zM384.7 392.7c-7-9.8-3.8-22.1-9.5-32.1.6-.3 1.2-.6 1.9-.9 1.3 2.6 3.1 5 3.7 7.7 1.7 7.5 2.9 15.2 4.2 22.8.1.8-.2 1.7-.3 2.5zM484.5 357.1c-6.9-6.8-7.8-9.4-4.7-15.5.6-1.3 2.5-1.9 4.7-3.5v19zM475.1 159.6c3.8 11.7 1.9 23.2-1.9 34.7.7-11.6 1.4-23.2 2-34.8l-.1.1zM476.8 324.6c-.3 6.8-.6 12.8-.9 19-5-4.1-4.8-12.9.9-19zM379 347.8c-.6-1-1-2.3-1.8-2.7-3.3-1.6-2.5-4.4-.6-5.4 2.2-1.2 5.2-.8 7.9-1-.1 1.3.2 2.8-.4 3.7-1.4 1.8-3.2 3.3-5.1 5.4zM441.4 332.9c-6.6 1.2-16.1-3.1-19.4-8.7 6.5 2.9 12.7 5.7 19.4 8.7zM444.4 407.6c-7.7.6-15.5 1.1-21.6-5 7.2 1.7 14.4 3.4 21.6 5zM433.7 189.6c-1.9-5.8-6-11.4-3.5-17.6.7-.1 1.3-.1 2-.2.5 5.9 1 11.9 1.5 17.8zM443.7 250.4c2.5-2.1 3.9-3.1 5.2-4.3 1.3-1.1 2.5-2.3 4.1-3.8-.6 3.3-1 5.8-1.6 8.2-.2.9-1.4 2.3-1.8 2.2-2-.5-3.8-1.4-5.9-2.3zM468 399.1c4.1-1.9 8.1-3.8 12.2-5.8.3 5.3-4 7.2-12.2 5.8-.1-.1 0 0 0 0zM438.7 274.4c-.4-3.2-5.4-5.7-1.5-9.9 4.9 2.6 3.4 6.2 1.5 9.9zM382.4 409.8h-19.9c0-.2 0-.3-.1-.5l19.8-1.5c.1.7.2 1.4.2 2zM331.4 62c-2.5 0-5 .2-7.4-.2-.3 0-.2-2.8-.3-4.3 2.7.7 5.3 1.4 8 2.1l-.3 2.4zM80.2 415.6c6.3-5.3 9.6-5.4 14.6 0H80.2z" fill="#fff"/>
  <path d="M339.7 220.8c-3.7-3.4-5.7-12.3-3.7-16.8.4-1 1.6-2.3 2.4-2.3 1 0 2.3 1 3 1.9 3.1 4.1 2.1 13.3-1.7 17.2zM329.8 185.4c4-3.4 3.5-10.8 10.4-8.3 3.3 1.2 5.8 3.9 3.4 8.1-.1 0-12.2.2-13.8.2z"/>
  <text transform="translate(46.596 47.284)"><tspan x="0" y="0" font-family="Peanuts" font-size="34">A NEW TRICYCLE, A PAIR OF</tspan><tspan x="0" y="40.8" font-family="Peanuts" font-size="34">SKATES AND A PIANO!</tspan></text>
</svg>
