<svg xmlns="http://www.w3.org/2000/svg" viewBox="0 0 595.3 461.8" xml:space="preserve">
  <path fill="#fff" d="M0 0h595.3v461.8H0z"/>
  <path d="M595.3 461.8H0V0h595.3v461.8zm-592-31.4v20.8c0 7 1.2 8.2 8.3 8.1 19.7-.1 39.5 0 59.2-.1 6.9-.1 13.8-.9 20.7-1 10.9 0 21.7.5 32.6.5 16.5-.1 33-.8 49.5-.8 25.1 0 50.1.5 75.2.5 12.8 0 25.6-.8 38.5-.9 10.8 0 21.7.8 32.5.8 11.7 0 23.3-.9 35-.9 12.4 0 24.8.8 37.3.9 8.3 0 16.7-.9 25-.8 11.1 0 22.2.8 33.3.8 9.9 0 19.8-.8 29.8-.9 9.6 0 19.2.6 28.8.8 24.4.4 48.8.8 73.3 1.2 6.9.1 9.4-2.2 9.6-9.3.2-4.4.3-8.7.2-13.1-.3-18.6-.8-37.1-.9-55.7 0-10.4.6-20.9.8-31.3.1-2.7-.6-5.3-.6-8 .1-5.1.6-10.1.5-15.2-.1-10.4-.7-20.8-.7-31.3 0-11.5.7-23 .7-34.5 0-10.6-.8-21.2-.8-31.9 0-11.6.6-23.1.8-34.7.2-13 .1-25.9.2-38.9 0-2.7.4-5.4.4-8.2-.1-11.4-.5-22.9-.5-34.3 0-9.4.5-18.9.6-28.3 0-9.6-.3-19.2-.4-28.9-.2-15.7-.2-31.4-.5-47.1-.1-3.2-1.2-6-5.4-5.9C570 3.5 554 3.9 537.9 4c-12.4.1-24.7-.4-37.1-.3-17.4.1-34.9.6-52.3.6-63.5.1-126.9.2-190.4.1-64.4-.1-128.8-.4-193.3-.5-5.4 0-10.9.3-16.3.4-13.5.1-27-.1-40.5.5-1.6.1-4.2 3.6-4.3 5.7-.5 11.5-.5 23-.4 34.5.1 10.4.8 20.8 1 31.2.2 13.8.1 27.6 0 41.4-.2 15.9-.7 31.9-.8 47.8-.1 21.6 0 43.2 0 64.9v46.5c0 16.4-.1 32.8-.1 49.3V363c-.1 22.4-.1 44.9-.1 67.4z" fill="#fff"/>
  <path d="M3.3 430.4V326c0-16.4.1-32.8.1-49.3 0-15.5.1-31 0-46.5 0-21.6-.2-43.2 0-64.9.1-15.9.7-31.9.8-47.8.2-13.8.2-27.6 0-41.4-.1-10.4-.9-20.8-1-31.2-.1-11.5-.1-23 .4-34.5.1-2 2.7-5.6 4.3-5.7 13.5-.5 27-.4 40.6-.5 5.4 0 10.9-.4 16.3-.4 64.5.2 128.9.5 193.3.6 63.4.1 126.9 0 190.3-.1 17.4 0 34.9-.5 52.3-.6 12.4-.1 24.7.4 37.1.3 16.2-.1 32.2-.5 48.3-.9 4.3-.1 5.4 2.7 5.4 5.9.3 15.7.3 31.4.5 47.1.1 9.6.5 19.2.4 28.9 0 9.4-.6 18.9-.6 28.3 0 11.4.4 22.9.5 34.3 0 2.7-.4 5.4-.4 8.2-.1 13-.1 25.9-.2 38.9-.2 11.6-.8 23.1-.8 34.7 0 10.6.8 21.2.8 31.9 0 11.5-.7 23-.7 34.5 0 10.4.6 20.8.7 31.3.1 5.1-.5 10.1-.5 15.2 0 2.7.6 5.3.6 8-.2 10.4-.9 20.9-.8 31.3.1 18.6.6 37.1.9 55.7.1 4.4-.1 8.7-.2 13.1-.3 7.1-2.8 9.4-9.6 9.3-24.4-.4-48.9-.7-73.3-1.2-9.6-.2-19.2-.8-28.8-.8-9.9 0-19.8.9-29.8.9-11.1 0-22.2-.8-33.3-.8-8.3 0-16.7.9-25 .8-12.4-.1-24.8-.9-37.3-.9-11.7 0-23.3.8-35 .9-10.8 0-21.7-.8-32.5-.8-12.8 0-25.6.9-38.5.9-25.1 0-50.1-.5-75.2-.5-16.5 0-33 .7-49.5.8-10.9.1-21.7-.5-32.6-.5-6.9 0-13.8.9-20.7 1-19.7.1-39.5 0-59.2.1-7 0-8.3-1.1-8.3-8.1.2-7.2.2-14.1.2-21.1zm381-169.8c.2.9.4 1.9.6 3.1 2.5-1.7 4.9-3.4 8-5.4-.4 1.7-.7 2.8-.9 3.6 2.8-1 5.5-2 8.2-3l1.5 1.5v-10.7c-.5-.3-1-.6-1.6-.9-5.2 4-10.4 8.1-15.6 12.1-7 1-12.3 4.9-17.1 9.5.3.5.6 1.1 1 1.6 5.3-4 10.6-7.7 15.9-11.4zm-206 16.2c-.1 3.2-.3 6.3-.2 9.5 0 1.8.1 5.1.5 5.1 2.7.4 6.2 1.1 8.2-.2 9.2-5.9 18.1-12.3 26.8-18.8 4.2-3.2 7.8-7.2 11.7-10.8-.3-.3-.6-.7-.9-1-9 6.6-18 13.3-27.9 20.6.6-1.7.6-2.5 1-2.9 4.7-3.6 9.1-7.7 14.2-10.7 13.3-7.8 14.3-9.4 11-22.7 0-.1-.2-.2-.6-.5-1.1.3-2.3.6-3.5.9.8-1.6 2.5-3.4 2.3-4.9-1.6-9.4-3.6-18.7-5.7-28.9-4.7.8-9.3 1.3-13.8 2.5-4.9 1.2-9.6 3.1-14.5 4.5-.9.2-2.1-.7-3.1-1.1.5-.9.8-2.1 1.5-2.6 1.2-.8 2.6-1.2 4-1.6 7.3-2 14.7-3.8 22-5.8 4.8-1.3 8.7-1.9 8.9 5 0 1.4 1.4 2.8 1.9 3.9 4.6-1.3 9.1-1.9 12.9-3.7 5-2.4 7.5-.9 9.1 3.7 8.2 22.6 19.6 44.1 24 68 1.5 7.9 3.8 15.7 5.4 23.6.3 1.3-1.2 3.1-1.9 4.6-1.2-.7-3-1.2-3.6-2.3-1.8-3.2-3.2-6.6-4.9-10.3-1.1.4-2.4.8-3.7 1.3-13.4 4.7-26.8 9.4-40.1 14.3-1.3.5-2.8 2.3-2.9 3.6-.3 5.9-1.6 11.8 2.7 17.4 1.9 2.4 3 3.9 6.1 3.9 10.7.1 21.5.9 32.2.4 5.8-.2 12.6-.1 16.2-6.7.4-.7 2.6-.6 4-.6 1.7-.1 3.6.6 5 0 5.3-2.2 10.4-4.7 15.5-7.4 9.4-4.9 18.7-9.9 28.2-15-.8-1.7-1.1-2.7-1.6-3.6-3.8-6.7-3.6-9 1.7-14.8 3-3.3 6.4-6.4 9.2-9.9.9-1.1 1.2-3.5.6-4.7-1.3-2.5-3.2-4.8-5.1-7-4.8-5.6-5.3-13.5-1.2-19.6 2.8-4.1 6.2-4.4 8.1.2 2.8 6.9 4.3 14.4 6.7 21.5 1.3 3.9-.8 9.9 6.5 11.2-.4-10.5 7.3-15.7 14.2-20.4 9.6-6.6 20.3-11.5 30.3-17.4 2.6-1.6 4.6-4.2 6.9-6.4-2.3-1.9-4.4-4.1-6.8-5.7-10.1-6.9-18.7-15.2-22.5-26.9-1.8-5.5-1.3-11.7-1.9-18.5-7.6 3.5-11.8-1.4-15.8-6.8-4.9-6.7-5.9-13.1-1.2-19.4.8-1.1.9-3.5.2-4.6-3.5-5.4-4.4-11.5-.5-16.1 4.7-5.4 10.6-10 16.9-13.6 7.3-4.1 15.5-7 23.4-9.9 5.2-2 7.6-3.9 2.3-8.6-.8-.7-.6-3.4.1-4.6.4-.7 2.7-.6 4.1-.4.9.1 1.8.9 1.6.8 3.3-2 5.9-3.6 8.4-5.1 1.2 2.3 2.4 4.7 4 7.8-.8-.1-.2.1.2 0 11.7-2.1 23.3-4.8 35.1-6.1 11.1-1.3 22.9-3.1 31.3 7.4 2.6 3.2 4.4 7.1 7 10.3 1 1.3 2.9 2.3 4.6 2.4 9.5 1 19 1.5 28.5 2.6 1.5.2 2.8 2.1 4.5 3.5-9.4 7.9-20.5 3-30.5 6.9 2.1 2.4 4.2 4.6 6 7 4 5.4 7.7 10.5 15.1 12.2 4.4 1 7.5 5.1 6.8 10.5-.2 1.5-1.1 2.9-1.7 4.4-1.1-1.2-2.7-2.3-3.1-3.7-1.2-4.3-3.8-6.1-8.2-6.4-1.9-.1-4.4-1-5.6-2.4-4.6-5.5-9.7-10.8-12.9-17.1-2.9-5.6-6.6-4.8-10.8-3.6-5.5 1.6-10.4 5.6-16.7 4.7-.7-.1-1.6.7-2.4 1.1-11.6 5.2-23.2 10.5-34.9 15.5-15.6 6.7-30.2 15.1-43.6 25.4-3.6 2.8-8.9 5.9-6.6 12.4 1.2 3.4 2.1 6.8 3.4 10.2 5.3 14.3 18.6 21.3 28.7 31.6 1.2-4.8 4.8-3.6 6.9-2.5 4.9 2.6 9.3 6.1 13.9 9.2 1.6 1.1 3 3.1 4.6 3.2 6.5.4 13.1.7 19.5 0 5.3-.6 10.5-2.5 14.2-3.5-.9-5.2-3.2-9.7-1.9-12.4 2.9-5.8 9-8.2 15.4-9.1 8.2-1.1 16.4-2.2 24.6-3.4 3.5-.5 6.6-1.6 6-6.5-.5-4.1.8-7.3 6-7.8 1.7-.2 4.4-3 4.4-4.5-.1-1.9-2.4-4.6-4.2-5.1-5.2-1.5-6.5-4.9-6.9-9.6-.3-4.2-1-8.4-1.2-10.8-4.8-.9-8.4-1.6-12.1-2.4 2.4-6.7 6.4-2.9 9.9-2.4.4-1.2.8-2.5 1.6-4.9 1.9 1.8 3.9 2.9 4.3 4.4 1.5 5.2 2.3 10.5 3.7 15.7.5 1.7 1.8 3.3 3 4.8 2.4 2.8 6.2 5 7.3 8.2 1.8 5.1-2.6 8-6.4 10.8-1.8 1.3-3.1 3.4-4.2 5.4-2.3 4.6-4.2 9.3-10.5 9.7-6.5.4-13 1-19.4 1.8-6.7.8-13.2 2.4-18.6 7.7 1.9 1.8 3.4 3.1 4.8 4.5 4.1 4.2 4.2 6.9-1 9.2-6.3 2.9-13.2 4.5-19.9 6.5-1.6.5-3.4.6-5.1.9 7.2 4.5 7.9 9.7 4.6 16.3-.6 1.2-.2 3.2.2 4.7 2.6 10.5 9.5 18 17.9 24.2 9.3 6.9 17.5 14.4 21.1 25.9 1.3 4.1 1.7 8.2-1.6 11-3.5 3-7.6 5.4-11.8 7.2-10.1 4.5-15.4 1.4-17.6-9.3-.2-1.1-1.2-2.2-2.2-2.8-3.8-2.4-7.7-4.6-11.9-7.1-4.3 6.8-9 14.3-13.6 21.6 0 2.7.6 6.1-.1 9.3-.9 4-3 7.6-4.2 11.5-1.7 5.2-3.1 10.5-4.6 15.7 3.9.8 6.4 1.1 8.8 1.9 3.8 1.2 4.9 4.6 2.2 7.4-6.9 7.2-15.4 12.9-24.9 14.8-12.1 2.4-24.6 2.7-37 3.3-5.1.2-10.6-.6-13.3-6.2.8-1.4 1.6-2.8 2.5-4.4-13.3 2-26.1 3.6-38.8 6-9.3 1.8-33 1.1-37.2-1.9 9.8-1 19.7-1.8 29.6-3 15.1-1.7 30.2-3.6 45.3-5.6 1.5-.2 3.7-1.4 4.2-2.6 2.3-5.8 4-11.8 6.3-18.7-13.9 8.4-24 .4-34.4-8.9-.6 2.3-1.2 3.6-1.3 4.9-.4 4.1-9.1 14-13.1 13.7-2.2-.2-5.5-2.8-6.1-4.9-1.1-4.4-1.9-9.5-.9-13.8 3.4-14.7 9.5-28.3 19-40.3 4.3-5.5 7.9-5.7 12.1-.3.8 1.1 1.8 2.1 3.1 3.4.9-4.7 1.7-8.8 2.4-12-6 .7-11.8 1.2-17.4 2.3-1.9.4-3.7 2-5.1 3.6-6.3 6.9-12.7 13.8-18.6 21-3.4 4.1-7.5 8.4-8.7 13.3-.9 3.5-1.8 7.3-2.3 10.9-.6 4.4-2.4 4.5-5.4 3.7-3.2 6.1-5.7 12.3-9.3 17.6-2.5 3.7-6 7.8-9.9 9-8.4 2.6-17.3 3.7-26 5-8.6 1.3-17.1 2.9-26.1 2.6-9.6-.4-19.4 1.4-29 3-12.7 2.2-26-1.4-38.3 6.6-6.8 4.4-15.9 5.6-24.1 7.5-13.8 3.2-27.7 5.9-41.5 8.8-1 .2-1.8.8-2.6 1.2 6.8 4.1 14 2 20.6 1.4 9.8-.9 19.5-4.2 29-7.2 12.1-3.9 23.9-8.6 35.9-12.7 1.6-.6 3.6-.1 5.7-.1-.7 1.3-1.1 2.1-1.8 3.4 3.5-.9 6.3-1.7 9.1-2.4-5.3 4.2-5.8 4.3-12.4 2.5-.7-.2-2.3.7-2.2.8 1.1 4.9-3 3.9-5.2 4.4-10.1 2.4-20.3 4.4-30.4 6.8-3.5.9-6.9 2.6-9.9 3.8 14.3.4 28.5.8 42.8 1.3 4.3.2 8.6.8 12.9 1.1 7.8.6 15.6 1 23.4 1.5 8.5.6 16.6 1.8 25.5.4 13.5-2 27.5-.6 41.3-.4 14.1.2 28.2.8 42.4 1.2 5.2.1 10.3-.3 15.5.1 8.5.6 16.9 2.2 25.3 2.4 7.5.1 15.1-.8 22.6-1.9 14.2-2.1 28 3.1 42.7-.2 11.4-2.6 24.1.8 36.2 1.5 7.4.4 14.7.8 22.1 1 4 .1 7.9 0 11.9 0 .1.7.3 1.3.4 2-2.1.6-4.3 1.7-6.4 1.6-12.8-.7-25.7-2.4-38.5-2.3-9.9.1-19.9-2.2-30 2.5-4.4 2.1-11.1-.9-16.7-1-9.4-.3-19.2-1.9-28.2.1-7.5 1.7-14.6 1.5-21.8 1.3-15.6-.6-31.1-2-46.6-2.8-3.4-.2-6.9 1.1-10.2.9-8.1-.5-16.2-1.8-24.3-2.2-9.9-.4-20-1.2-29.7.2-4.5.6-8.5 3-13.7 2.3-10.2-1.5-20.6-1.9-30.9-2.7-17.7-1.3-35.4-3.1-53.1-3.6-5.6-.1-13-1.7-16.8 5.5-.3.5-1.7.7-2.5.6-7.2-.9-14.3-1.8-21.5-2.9-11.6-1.7-23.1-4.1-34.8-5.3-11.2-1.1-22.5-1.1-33.8-1.7-7.4-.3-14.8-.7-22.7-1.1v22.2h25.7c10.3 0 20.5 0 30.8-.1 16-.2 31.9-.7 47.9-.8 9.8 0 19.5.7 29.3.7 12.8 0 25.7-.7 38.5-.7 15.7 0 31.4.5 47.2.6 12.3 0 24.7-.5 37-.5 12.7 0 25.3.6 38 .5 9.1 0 18.2-.9 27.3-1 9.2 0 18.4.8 27.6.9 5.9.1 11.8-.5 17.7-.5 5.2 0 10.3.5 15.5.5 8.6-.1 17.2-.6 25.8-.6 19 .1 38.1.5 57.1.6 9.2 0 18.3-.4 27.5-.5 19.3-.1 38.5 0 57.8 0 6.9 0 13.9-.6 20.7.2 4.6.6 6-.4 5.7-4.8-.4-6.5-.8-13-.8-19.5 0-4.9 1-9.9.9-14.8-.2-9.9-.9-19.8-1.1-29.8-.1-4.3.9-8.6.9-13 .1-11-.2-22-.2-33.1 0-3.8.5-7.5.5-11.3 0-9.3-.2-18.5-.2-27.8 0-5.9.2-11.8.1-17.6 0-2.1-.3-5.8-1-5.9-5.8-1-11.7-1.4-17.6-2 0 0-.1.4-.2.5-1.4.5-3 1.5-4.3 1.3-11.3-2.1-22.6-4.8-34-6.5-3.6-.5-7.6 2.2-11.4 2-7.4-.3-14.7-1.3-22-2.5-11.2-1.8-21.9-6.1-33.5-5.2-.6.1-1.3-.8-3.2-2 2.5-.6 3.7-1.2 4.9-1.2 4.5.2 9.2 0 13.5 1.1 15.4 4 31.1 3.4 46.8 4 20.6.8 41.1 3.2 61.4 5V9.1c-9.1.4-17.2 1.1-25.4 1.1-9.1 0-18.3-.9-27.4-.9-15.3 0-30.6.4-45.9.6-3.2 0-6.4-.7-9.6-.5-9.4.5-18.7 1.6-28.1 1.7-15.9.2-31.8-.5-47.6-.4-22.3.1-44.5.6-66.8.7-42.1.1-84.2 0-126.3.1-47.5-.5-94.7-.3-141.9-.2-3.4 0-6.7-1-10.1-1.1-9.4-.1-18.8-.1-28.2.1-6.6.2-13.2.9-19.5 1.4v209.4h14.7c4.7 0 9.5-.4 14.5 3.7H9.8c-.4 5.5-1 11.1-1 16.7.1 11.4.7 22.8.7 34.2 0 21.5-.3 43-.7 64.4-.1 5 1.2 7.7 6.7 6.8 3.8-.6 7.7-.9 11.6-1.4 0-.3-.1-.7-.1-1-3.8.3-7.5.5-11.3.8-.1-.5-.2-1.1-.3-1.6 1.8-.4 3.7-1 5.5-1.1 10.3-.5 20.6-.8 31-1.2 3.4-.1 5.1-.9 4.2-5.3-2.6-12.6-4.7-25.4-6.6-38.2-.7-4.6-1.3-9.5 3.9-11.9-5.7-4.2-11.5-7.9-16.6-12.3-4.1-3.5-3.9-6.8.2-10.1 3.6-2.9 7.6-5.4 11.7-7.7 4.4-2.4 9-4.3 12.4-5.8-1.5-6.1-2.7-11.2-4-16.4-.4-1.5-1-3.1-2-4.3-4.1-4.6-5.8-9.8-5.6-15.9.2-5.9 0-11.7 0-17.6-7.9.4-9.5-2.3-9-10.5.3-5.7 4.2-8 7.2-11.4 4.3-4.8 7-5.9 11.4-1.6 3.2 3.1 4.8 1.6 7.2-.2 7.7-5.8 15.5-11.2 25.3-13 3.2-.6 6.2-2.4 9.2-3.8 3.9-1.9 7.5-3.4 12.2-1.4 6.5 2.8 13.5 4.5 20.3 6.7 1.9.6 3.7 1.4 5.4 2.4 11.5 6.8 23.1 13 36.8 14.5 3 .3 7.1 3.2 8.2 5.9 1.9 4.6-1.4 8.3-5.4 11.5-.6-1.6-1-2.7-1.4-3.8-.5 0-1-.1-1.5-.1-2.4 7.5-4.8 15-7.5 23.4 9.4-2 11.9.7 10.4 8.4-.6 3.2-.7 6.5-.4 9.7.6 6-1.5 10.8-5.8 14.6-5.1 4.5-10.4 8.8-16.1 12.5-7.1 4.7-11.1 13.1-7.5 19.3 1.7 2.9 5.2 4.6 8 6.8 2.9 2.3 5 2.1 6.6-1.9 2-4.8 11-10.1 15.4-9.7-.2 1-.2 1.8-.2 2.6zM104.7 413c-16.7 3-58.9.9-62.4-2.6 1.9-2.9 3.7-5.7 5.6-8.3.8-1 1.9-2.3 3-2.4 4.4-.3 8.9.3 13.2-.5 4.1-.7 8-2.8 12-4.3-.1-.6-.3-1.1-.4-1.7-19.3 1.3-38.7 2.5-58 3.8-.1-.6-.3-1.2-.4-1.8 1.5-.6 3-1.6 4.5-1.7 19.3-1.4 38.5-2.8 57.8-3.9 3.9-.2 5.8-1.1 4.4-5.1-20.3 1.1-40.3 2.2-60.2 3.3-.1-1-.1-2-.2-3 18.7-1.7 37.4-3 56.3-3.7-4.7-1.2-9.4-2.2-14.1-2.5-7.3-.4-8.9-1.4-11.2-8.5-.2-.5-.4-1-.7-1.4-3.9-5.1-3.7-5.8 2.2-9.1 1.4-.8 2.4-2.5 3.5-3.8-.3-.4-.7-.9-1-1.3-14.9 1-29.8 2-44.6 3-.1-.7-.1-1.4-.2-2.1 2.5-.6 4.9-1.3 7.4-1.9-.1-.3-.2-.6-.3-1H9.2v75.1c18.7-3.4 36.8-6.7 54.9-10 .1.9.3 1.8.4 2.7-9.2 1.7-18.5 3.4-27.7 5.1.1.6.2 1.1.3 1.7 20.2-2.9 40.5-5.8 60.6-8.6-.2-.3-.7-1-1-1.5 2.8-1.5 5.4-2.9 7.9-4.2 2.9 3.9 6.4 3.7 10.6 2.2 3.8-1.4 8-1.7 12.1-2.5-.1-.4-.1-.7-.2-1.1-7.4.6-14.9 1.1-22.4 1.6zm73.1-224.1c.3-.7.7-1.3 1-2-2.3-1-4.5-2.6-7-3-11.3-1.8-21.8-5.5-31.3-12.1-4-2.7-8.6-4.7-13.1-6.4-3.1-1.2-6-1.1-5.7 4.1.2 3.7-.9 7.5-1.9 11.1-3.6 11.9-7.4 23.7-11 35.3 2.5 2 5.1 4 7.6 6-.3.5-.7.9-1 1.4-.8-.2-1.6-.7-2.4-.7-1.8 0-4.2-.4-5.2.6s-1.1 3.5-.8 5.2c.6 4.6 4.6 5.5 8.2 6.8 2.2.8 4.3 1.7 6.5 2.5l-.3 2.1c-3.2.5-7.1 2.3-9.4 1.2-4.7-2.3-8.6-6.3-10.9-8.1-7.1 6.4-14.5 13.1-22.4 20.3 3.9 1.8 7.3 4 11.1 5 12 3.2 24.1 5.9 36.2 8.8 1.1.3 2.6.6 3.6.1 10.3-4.7 21-8.9 30.8-14.5 12.9-7.4 14.4-12.4 10.9-26.3-.2-1 .8-2.2 1.3-3.4l1.2-2.7c-.9-.3-1.8-.9-2.7-.9-5.5 0-7.5-2.7-5.8-7.8 1.4-4.2 2.7-8.5 4.1-12.7-9.1-6.6-11.3-11.8-4.2-14.6.4 1.6.8 3.1 1.4 5.3 1.7-1.9 2.9-3.1 3.9-4.3 2.5 1.2 4.9 2.4 7.3 3.7zM62.3 331.4c0 1.5-.5 3.6.2 5.4.5 1.4 2.2 2.9 3.7 3.3 2 .5 4.2.3 6.3 0 13.6-1.4 27.1-3.3 40.7-4.4 17.3-1.3 34.6-1.9 51.9-3.1 8.2-.6 16.3-1.8 24.5-2.8v-1.6c-3.7 0-7.4.1-11.1 0-9-.2-16.4-2.1-19.3-12.5-2.2-8.1-6.1-15.8-9.5-23.5-1-2.1-2.9-3.9-4.7-5.6-5.5-5.3-11.9-2.1-17.9-1.5-12.7 1.4-25.4 3.3-38.1 4.8-11.1 1.4-22.2 2.5-33.2 3.8 1.5 10.7 2.9 21.3 4.5 31.8.5 3 2 5 5.6 3.9 1.7-.5 3.6-.7 5.4-1l.3 2.1c-2.7.3-5.5.5-9.3.9zm3.7 22.8c0 6.5 3.3 7.4 7.9 7 5.8-.5 11.6-.8 17.3-1 17.2-.6 34.4-.9 51.6-1.7 15.1-.7 30.3-1.7 45.4-2.9 10-.8 20-2.2 29.8-3.3 1-10.7-7.7-20.1-17.5-19.6-5.6.3-11.2.8-16.8 1.2-18.9 1.4-37.9 2.8-56.8 4.2-2.5.2-5.2-.3-7.6.2-17 3.3-34.1 3.4-51.3 3.7-4 .1-5.5 1-4 5 .5 1.3.8 2.7 1.1 4 16.9-1 33.5-2 50.1-3 .1.7.1 1.5.2 2.2-16.4 1.3-32.9 2.6-49.4 4zm50.5-188.4c.4-7.3-5.8-5.9-9.4-6.9-4.3-1.2-6.9 1.5-7.6 5.7-2.3 13.7-8.1 25.9-15.5 37.5-7.1 11-14.3 22-21.5 32.9-3 4.6-.5 8.3 2.3 11.1 1.5 1.5 6.1 2.2 7.6 1 7.9-6.2 16.4-12.1 22.6-19.8 9.1-11.3 13.9-25 16.6-39.4 1.5-7.5 3.3-14.8 4.9-22.1zM196.1 373c3.5 4.7 5.3 9.1 8.6 10.9 8.3 4.7 16.7 8.6 27.4 6.1 11.7-2.7 24-2.7 36-4 2-.2 4.6-.8 5.6-2.2 2.6-3.6 4.6-7.7 6.5-11.7 1.4-2.9-1.6-8.1-4.7-8-7.4.3-14.9.7-22.2 1.6-12.3 1.5-24.6 3.5-36.9 5.2-6.1.7-12.3 1.3-20.3 2.1zm224.1-23.8c.1.5.3 1.1.4 1.6-11 9.8-25.1 8.6-37.3 10.1-1.7 5.2-3.1 9.5-4.6 14.2 1.3-.4 2.1-.6 2.9-.8 10.4-3.3 20.8-5 31.7-2.8 5.3 1.1 9.8-.1 10.5-6.8.2-1.9 1.5-3.7 2.1-5.6 2.1-5.9-2.4-18.5-7.6-21.5-.8-.4-1.7-.7-2.5-.8-5.7-.6-11.5-1.1-17.2-1.6-15.2-1.4-30.8-1.5-43.8-13.2-.2 6.4 2.9 10.3 6.8 13.5 3.9 3.2 9 5.2 12.2 8.9 3.3 3.8 5.7 3.4 9.6 1.4 3.7-1.9 8-2.7 12.1-4 .3.7.6 1.3.9 2-2.7 2.6-5.5 5.2-8.3 7.9 10.9-.7 21.5-1.6 32.1-2.5zM100.9 384c-.3.7-.6 1.5-.9 2.2 1.9 1.1 3.7 3 5.6 3 5 .1 10.1-.8 15.1-1.1 11.6-.6 23.1-1.2 34.7-1.7.7 0 1.3.7 2 1-.1.3-.1.7-.2 1-15.8 1.1-31.6 2.3-47.4 3.4-.1.6-.1 1.2-.2 1.8 6 1.2 12.1 3.6 18 3.2 16.3-1.1 32.6-3.4 48.8-5 7.6-.8 14.6-10.3 13.1-18.4-30.2 3.1-60.7 1.9-90.8 6.4 1.8.9 3.5 1 5.2.9 12.2-.7 24.4-1.4 36.7-2 1.7-.1 3.3.7 5 1-.1.5-.3 1-.4 1.5-14.8 1.1-29.6 1.9-44.3 2.8zm-5.1-222.3c-11.5 2.7-20 8.2-27.9 14.9-2.6 2.2-5.8 4.4-7 7.4-2.7 6.4-4.8 13.1-6.1 19.8-1.1 6.1-1.3 12.5 2.3 18.3 2.9 4.6 5.9 4.8 8.8.2 5.3-8.3 10.7-16.5 16.1-24.8 6.9-10.7 11-22.4 13.8-35.8zm-33.6 208v1.9c8.4.6 16.9 2 25.3 1.6 15.7-.7 31.2-2.6 46.9-3.5 14.9-.8 29.8-.4 44.6-1.3 15.6-.9 31.2-2.8 46.8-4.2 7.3-.7 14.7-1.4 22-2.3.5-.1.9-.9 2.1-2.3-2.3-.3-3.8-.7-5.3-.6-6.9.3-13.7.6-20.6 1.1-10.6.7-21.2 1.3-31.8 2.1-13.3 1-26.6 2.2-39.9 3.2-10.7.8-21.5 1.5-32.2 2.2-11.1.7-22.3 1.6-33.4 2.1-8.2.3-16.4 0-24.5 0zm204.4 23.4v-1.2c-2.5 0-5.1-.2-7.6 0-11.5 1.3-22.9 3.1-34.4 4.1-17.9 1.4-35.8 2.2-53.7 3.5-17 1.2-33.9 3-50.9 3.9-19.2.9-38.5 1-57.7 1.6-3.3.1-6.7.7-10 1.1 0 .5.1 1 .1 1.5 1.7.2 3.5.5 5.2.5 3.7.1 7.5 0 11.2 0 5.1 0 10.2.1 15.2-.2 9.7-.5 19.4-1.2 29.1-1.7 10.2-.5 20.5-.6 30.7-1.4 11.7-.8 23.4-2.3 35.1-3.2 15.9-1.2 31.9-2 47.8-3.2 6.4-.5 12.9-1.4 19.3-2.3 6.9-.9 13.7-2 20.6-3zm94.1-89.2c-3.8-6.5-6.7-13.6-14.7-16.8-3.4-1.3-6.4-3.4-9.4-.3-3.9 4-9.7 7.1-8.2 14.1.2 1.2 1.1 2.3 1.9 3.2 8.5 10.2 20 10.2 30.4-.2zm5.2 99.9c9.1 0 17.1.4 25-.1 11-.7 21.9-2 31.2-8.8 2.4-1.7 4.7-3.5 7.1-5.2-.3-.5-.6-1-1-1.5-6.5.9-13.6-2.3-19 5.2-1.8 2.5-8.7 4.3-10.8 2.9-3.3-2.2-4.6-.1-6.8.4-1.7-1.5-3.4-3-5.3-4.8-6.1 4.1-16.3.5-20.4 11.9zm59.8-145.9c-6.5-4.6-12.6-8.9-18.7-13.3l-1.2 1.2c1.1 3.2 2.3 6.3 3.1 9.6 1.2 4.7 4 4.6 7.8 3.5 2.2-.6 4.8-.1 7-.1-1.2 4.1-3.2 7.2-2.5 9.5 1.3 4.4 14.5 10.7 19.4 10.2.7-11.5-4.2-21-13.2-25.4-.4 1.5-1 2.9-1.7 4.8zm-318.8 15.5c.5.2 1 .3 1.5.5v7.6c8.5-1.1 16.5-2.1 24.6-3.2-1-1.6-2.1-2.2-3.2-2.6-10.7-3.8-21.3-7.6-32-11.3-5-1.7-7.8 1.2-10.3 4.7-1.9 2.6-1.4 4.5 1.6 6.1 6.3 3.3 12.3 4.7 17.8-1.8zM340 324.6c-1.4 1.6-3.5 3.9-5.3 6.4-8.5 11.3-12.1 24.4-13.7 38.2-.2 2.1 1.4 4.4 2.6 6.4.3.4 3.1.1 3.2-.2.5-2.1.7-4.3.6-6.4-.1-2.8-2.4-5.8 1.7-7.9.9-.5.6-3.2.8-4.9.1-1.2-.2-2.7.3-3.6 4.7-7.2 9.7-14.3 14.3-21.6 1.7-2.6-.4-6.6-4.5-6.4zm-53 12.5c3.9 2.9 7.1 5.7 10.6 7.7 1.3.7 4.2.3 5.3-.8 7.1-7.1 13.9-14.6 20.7-22 1.4-1.5 2.3-3.3 4.2-6.1-14.2 7.4-27.1 14.1-40.8 21.2zm135.2-5.4c-2.3-1.5-3.3-2.7-4.4-2.9-10.7-2.5-21.4-4.7-32.1-7.1-8.2-1.8-17-2.7-19.4-13.2-.1-.6-3.6-1.3-4.3-.7-1.4 1.3-3.2 4.1-2.7 5.2 1.4 3.2 3.4 7.6 6.2 8.5 9.6 3 19.4 5.1 29.3 6.9 8.6 1.5 17.3 2.1 27.4 3.3zm-2.3 47.4c-.5-.6-.9-1.1-1.4-1.7-2.5-.3-5-.7-7.4-.9-11.3-.9-22.4-.8-33.1 3.9-3.6 1.6-6.3 3.4-5.5 7.9 7.3-1 14.3-2.1 21.4-2.9 7.1-.8 14.3-1.2 21.4-2.3 1.7-.3 3.1-2.6 4.6-4zM81.6 284.3c-4.2-2.8-8-6.2-12.5-8.4-8.1-3.9-16.5-7.1-24.8-10.4-1.6-.6-3.6-.1-5.5 0 .9 1.5 1.4 3.8 2.7 4.5 8.2 4.4 16.6 8.5 25 12.6 4.4 2.3 8.7 5.3 15.1 1.7zm324.4-136c1.9.5 3.4.9 5 1.2 6.4 1.3 12.9 3 18.9-1 1.3-.9 2.4-3.6 2-5.2-.4-1.7-2.5-2.9-3.9-4.4-.8 1.7-1.8 3.3-2.3 5-.5 1.7-.4 3.6-.7 6.3-6-4.1-3-8.7-2.8-12.8-12.6-3.9-16.3-1.5-16.2 10.9zm75.2 167.9c-.6.2-1.1.4-1.7.7-.1.9-.3 1.8-.2 2.6.9 5.6-1.3 9-7 10-.5.1-1.1.4-1.3.9-1.2 2-3.1 4.1-3.3 6.3-.1 1 3.1 3.3 4.7 3.3 3.1-.1 6.1-1.6 9.2-2.3 5.6-1.2 6.9-4.9 5.3-9.6-1.4-4.2-3.8-7.9-5.7-11.9zm-307.6-31c-5.9-1.4-7.4 3.3-5.4 8.9 2.1 5.7 4.1 11.4 6.5 18 1.5.2 4.3 1 7.1.9 4.2-.2 5.8-3.6 6.2-7 .1-1.4-1.9-3.6-3.4-4.5-4.8-3-9.9-5.6-15.1-8.4 1.8-3.5 2.8-5.5 4.1-7.9zM472 112c-.6 1.8-1.1 3.6-1.8 5.5 2.8 1.4 5.4 2.7 8 4.1-3.1 3.3-7.8-3.5-9.6 2.4-1 3.3-1.1 6.9-1.8 11.3 7.8-1.7 14.4-3.2 21-4.7 0-.4-.1-.9-.1-1.3h-12.8c2.4-1.5 5.1-2.6 6.9-4.6 2.6-2.8-5.2-12.9-9.8-12.7zM44.6 261.2c2.6.7 4.2.9 5.7 1.5 8.3 3.2 16.5 6.6 24.8 9.8 1.4.6 3.1.6 4.6.9.2-.6.3-1.3.5-1.9-1.9-1.1-3.7-2.3-5.8-3.2-4.8-2-9.7-3.8-14.6-5.8-.8-.3-1.3-1.5-1.9-2.2.9-.7 1.8-1.8 2.8-1.9 1.4-.1 2.8.6 4.2.9 4.4.9 7.8-.8 11.4-3.5-11.7-5-21.2-.6-31.7 5.4zm167.7 24.4c.2.5.5.9.7 1.4 3-1.4 6-3 9-4.2 7.9-3.3 8.7-5.4 4.8-13.5l-24.6 18.6c-.4-.5-.7-.9-1.1-1.4 5.1-3.9 10.2-7.9 15.2-11.8-.4-.5-.8-.9-1.1-1.4-7 5.2-14 10.4-21.6 16 13.7 2.1 19.9-9.8 30.3-12.8-3.7 3-7.7 6-11.6 9.1zM477 312.2c-2-3.5-6.4-3.6-10.3-2.2-4.9 1.7-7.4 6-8.2 11.1-.8 5.2 3.6 5.9 7.3 8.7.1-2.6.2-4.3.3-5.9.1-2.6 0-5.3.5-7.9.2-1.1 1.5-2 2.3-3 .3 1.3.9 2.6.7 3.9-.8 5.2 1.2 7.3 6.3 6.5.3-3.4.6-6.7 1.1-11.2zm-115.6 58.3c-10-8.7-9.2-19.7-8.5-30.9-2.3 3.8-4.4 7.7-6.2 11.8-4.6 10.7 1.9 19.5 14.7 19.1zm89-254.4c-3.6 11.4-2.9 12.2 12.2 15.3 1.2-12.9 1.2-12.9-9.8-15.3-.7-.1-1.4 0-2.4 0zM235.5 281.4c.8 3.9 2.4 5.2 6.4 3.3 6.3-3 12.9-5.3 19.8-8.1-.7-1.9-1.6-4.1-2.4-6.3-8.3 3.8-15.9 7.3-23.8 11.1zm-25.4 43.3c-1.3-6.8-2.4-12.4-3.6-17.9-.2-1-1.5-2.3-2.4-2.3-.9-.1-2.3 1.1-2.6 2-1.5 4.8-2.7 9.7-4.1 14.7 4.4 1.2 7.8 2.1 12.7 3.5zM44.5 186.3c.6.7 1.7 3 3.4 3.8 2.4 1.1 4.8.5 6.1-2.7.9-2.3 2.6-4.4 3.9-6.5 2.3-3.7.4-5.3-3.1-5.9-5.6-.9-10.2 3.5-10.3 11.3zm382.7-65c14.1 4.8 14.8 4.6 16.5-4.9-7.7-5.5-14.8-3.5-16.5 4.9zm-1.5 5c.9 6.4 6.5 11.1 14.4 12.4.3-2.3.6-4.6.9-6.8.4-2.8-.7-4.6-3.5-4.9-3.8-.3-7.6-.4-11.8-.7zm36 10.3c.1-.6.2-1.3.3-1.9-4.9-1.6-9.8-3.2-15.4-5-.9 4.5-1.7 8.4-2.8 13.5 6.9-2.5 12.4-4.5 17.9-6.6zm-306 274.7c-.2-.7-.3-1.4-.5-2.1-5.7 2-12.5-2.8-17.3 4.3-.4.6-1.5 1-2.3 1.2-6.3 1.6-12.6 3.1-18.8 4.6-2.5.6-5 1.3-7.5 2 .2.7.4 1.3.5 2 15.3-4.1 30.6-8.1 45.9-12zm245.7-249.7c-1.7-12.4-1.8-10.8-10.6-9.7-4.7.6-3.6 5.1-3.1 8.4 4.9.4 9.3.9 13.7 1.3zm-17.5-28c-4.1.7-7.7.3-9.5 1.9-1.7 1.5-1.7 5.1-2.4 7.8 3.5.9 6.9 1.8 10.5 2.7.6-5 .9-8.5 1.4-12.4zM286 363.5c2.4-3.5 3.9-6 5.7-8.2 1.8-2.1 3.5-4.1.8-6.4-2.6-2.1-5.6-3.7-9.8-6.4 4.1 7.5-1 15.3 3.3 21zm-52.2-92.8c.3.5.6 1.1 1 1.6 6.2-1.5 12.5-2.7 18.6-4.5 3.2-.9 5.1-2.9 1.7-6.6-7 3.5-15.5 3.7-21.3 9.5zM56.4 342.3c-9 .9-17.3 1.7-24 2.4 7.5 1.8 16.4 3.8 25.8 6-.6-2.6-1.1-5.1-1.8-8.4zm137.1 39.5c-2.6 4-5.1 7.9-8.2 12.7 6.2-.9 11.8-1.7 17.2-2.5-3.3-3.5-6-6.7-9-10.2zm194.4-236.5c3.1-1.7 4.8-2.3 6.1-3.4 2.5-1.9 4.8-4.1 7.2-6.2-3.3-.7-6.7-1.4-10-2.1-.3-.1-.7.2-1.6.6-.4 3-.9 6.2-1.7 11.1zM367.1 292h-3.5c3.1-5 .7-8.4-2.3-11.7-3.8 2.8-3 8 1.9 14.4 3.7 4.7 5.6 5.5 8.2 3.4-1.3-1.8-2.5-3.6-4.3-6.1zm90.8-185.8c-.7.3-1.5.5-2.3 1-1.4.9-2.8 1.9-4.2 2.9 1.4 1 2.8 2 4.3 2.9.8.4 1.7.9 2.5.9 2.7 0 5.4-.1 8-.5.4-.1.9-3 .6-3.2-2.8-1.6-5.8-2.7-8.9-4zM279.7 355.9c.3-.6.6-1.2.8-1.9-1.2-.9-2.5-2.7-3.7-2.6-6.8.4-13.6 1.2-20.3 2.1-.7.1-1.2 1.5-1.8 2.4h25zm59.8-81.1c-.6-7.7-.7-14.5-5.7-20.5-3.4 7.4-1.4 14.9 5.7 20.5zm60.9-2.3c3.8-.2 7.3-.4 10.9-.4 1.1 0 2.2.7 3.3 1.1.1-1.1.2-2.2.2-3.3-.1-1.5-.3-3-.5-4.6-5.4 1.9-12.9-1.1-13.9 7.2zM102.3 398.2c-8.2-7.9-15.5-7.8-19.1 0h19.1zm268.4-227.6h12.2c-1-6.8-2-7.4-12.2-7.3v7.3zm-138.5 91.7c.2.5.4 1 .5 1.5 7-2.5 14.1-5 21.6-7.7-4.5-4.2-14.7-.9-22.1 6.2zm190-137c-4.6-.8-8-2-11.2-1.7-1.4.1-2.5 3.2-3.8 5 1.5.7 3 2.1 4.5 2.1 2.5 0 5-.7 7.3-1.6 1.1-.5 1.8-2.1 3.2-3.8zM229.4 253.4c7.2-2.3 12.8-4 18.4-5.9.9-.3 1.4-1.5 2.1-2.3-.9-.5-2.1-1.6-2.8-1.3-5.3 1.6-10.6 3.3-15.7 5.3-.9.3-1.2 2.3-2 4.2zM94.7 423.5c-.1-.4-.2-.9-.3-1.3-9 2-18 4.1-27.8 6.3 11.5 6.1 19-3.4 28.1-5zM165 311.6c4.4-3.4 2-7.4.7-9.5-2-3-1.7-8.9-8.3-8.7 2.6 6.2 4.9 11.8 7.6 18.2zm173.9 47c3-8.8 6-17.7 9-26.4-6.1 3.2-12.2 21-9 26.4zm-69.5 32.5c9.5 1.7 13.7-6.3 18-20.2-1.8 1.2-3.4 2.6-4.2 4.4-2.8 6.7-4.2 14.6-13.8 15.8zm112.8-125c-.2-.3-.5-.6-.7-.8-3.5 2.5-6.9 5.2-10.5 7.6-3.7 2.4-4 4.6 0 7.3 2.9-2.3 5.7-4.6 8.6-6.9-.2-.3-.5-.6-.7-.9-2.1 1.1-4.1 2.2-6.2 3.4-.3-.3-.5-.7-.8-1 3.4-2.9 6.8-5.8 10.3-8.7zm-10.8-81.8c4.2-3.3 7.2-5.6 11.5-9H370c.5 2.7.8 4.9 1.4 9zm19.9-58.7c.1.8.3 1.6.4 2.3 3 .7 6 1.3 9.4 2 .6-2.8 1-4.9 1.4-7.1-.3-.5-.7-1.1-1-1.6-3.4 1.6-6.8 3-10.2 4.4zm19.2-8c4.3.7 7.3 1.3 10.5 1.8.9-2.1 1.8-4.1 2.9-6.5-5.5-.4-9.9-.3-13.4 4.7zm79.2 9c-.1.8-.1 1.6-.2 2.3 7.4 3.7 15-.9 22.4.4 0-.5 0-1 .1-1.4-7.5-.4-14.9-.8-22.3-1.3zm-33.1 188.2c3.9-3.6 7.5-7 11.1-10.3-5.6-3.2-10.8 1.5-11.1 10.3zm-92.4-144.2c.4-2.8.7-5.1 1.1-7.3-7.4-1.2-8.4-.1-7 7.6 1.8-.1 3.7-.1 5.9-.3zm-5.4-22.1c-.3.7-.7 1.5-1 2.2 2.2 1.5.2 7.6 5.8 5.1 1.3-.6 1.7-3.1 2.5-4.8-2.4-.8-4.9-1.7-7.3-2.5zm-115.9 76.1c-2.8-4.4-3.1-4.3-16.7 5.4 5.5-1.7 10.9-3.5 16.7-5.4zm-16.5 9.5c4.5 2.2 16.7-2.2 17.3-5.8-6.1 2-11.7 3.9-17.3 5.8zm20.7 4.5c-7.6-3.6-12.1 2.9-18.2 4.3.2.5.3 1 .5 1.5 5.8-2 11.7-3.9 17.7-5.8zm125.3-82.4.6 2.1c2.8.4 5.5.9 8.4 1.3.5-2 .9-3.9 1.7-7.3-4.2 1.5-7.5 2.7-10.7 3.9zm26 9c-10.6-1.9-11.6-1.3-10.3 6 3.2-1.9 6.1-3.6 10.3-6zM364 369.7c9.6-.7 12.1-2.2 10.7-5.9-1.7.8-3.5 2.3-5.2 2.2-4.5-.5-4.5-.8-5.5 3.7zm18.5-61c-3.1 2.7-8.6-3.3-11.2 3.6 5 1.8 8.5.6 11.2-3.6zm24.4-148.2c3.3-2.3 5.7-4 8.7-6.1h-11.3c1 2.3 1.6 3.8 2.6 6.1zm-41.7-16.1c.5-2.8 1-5 1.4-7.1-.5-.3-.9-.6-1.4-.9-2 2.1-3.9 4.3-6.9 7.5 3.4.2 4.9.3 6.9.5zm1.3 41c.4-.3.8-.5 1.1-.8-3.6-8.6-3.6-8.6-7.3-8.5 2.3 3.4 4.2 6.3 6.2 9.3z"/>
  <path d="M177.8 188.9c-2.4-1.2-4.9-2.5-7.6-3.8-1.1 1.2-2.2 2.4-3.9 4.3-.6-2.2-1-3.7-1.4-5.3-7.1 2.8-4.9 8 4.2 14.6-1.3 4.2-2.6 8.5-4.1 12.7-1.7 5.1.3 7.7 5.8 7.8.9 0 1.8.6 2.7.9l-1.2 2.7c-.5 1.1-1.6 2.4-1.3 3.4 3.6 13.9 2 19-10.9 26.3-9.8 5.6-20.5 9.8-30.8 14.5-1 .4-2.4.1-3.6-.1-12.1-2.9-24.2-5.6-36.2-8.8-3.7-1-7.2-3.2-11.1-5 7.9-7.2 15.3-13.9 22.4-20.3 2.3 1.8 6.2 5.8 10.9 8.1 2.4 1.2 6.2-.7 9.4-1.2l.3-2.1c-2.2-.8-4.3-1.7-6.5-2.5-3.6-1.3-7.6-2.2-8.2-6.8-.2-1.7-.2-4.2.8-5.2s3.4-.5 5.2-.6c.8 0 1.6.4 2.4.7.3-.5.7-.9 1-1.4-2.5-2-5.1-4-7.6-6 3.6-11.6 7.5-23.4 11-35.3 1.1-3.6 2.1-7.4 1.9-11.1-.2-5.1 2.6-5.2 5.7-4.1 4.5 1.7 9.1 3.7 13.1 6.4 9.5 6.6 20 10.3 31.3 12.1 2.4.4 4.7 1.9 7 3 0 .7-.3 1.4-.7 2.1zm-20.2 32c.1.5-.1 2.6.7 4.3.6 1.4 2.3 2.3 3.6 3.4.8-1.5 2.2-2.9 2.1-4.4 0-2.8-.7-5.7-1.5-8.4-.3-.9-1.7-2.1-2.7-2.1-.8 0-1.8 1.4-2.2 2.4-.3 1 0 2.2 0 4.8zM62.3 331.4c3.7-.4 6.5-.6 9.3-.9l-.3-2.1c-1.8.3-3.6.5-5.4 1-3.6 1.1-5.2-.9-5.6-3.9-1.6-10.5-3-21.1-4.5-31.8 11.1-1.3 22.2-2.4 33.2-3.8 12.7-1.6 25.4-3.4 38.1-4.8 6-.7 12.4-3.8 17.9 1.5 1.8 1.7 3.7 3.4 4.7 5.6 3.4 7.7 7.3 15.4 9.5 23.5 2.9 10.5 10.3 12.3 19.3 12.5 3.7.1 7.4 0 11.1 0v1.6c-8.2.9-16.3 2.2-24.5 2.8-17.3 1.2-34.7 1.8-51.9 3.1-13.6 1.1-27.2 2.9-40.7 4.4-2.1.2-4.4.5-6.3 0-1.5-.4-3.2-1.9-3.7-3.3-.6-1.8-.2-3.9-.2-5.4zm2-17c.1.8.2 1.7.2 2.5 1.7.1 3.4.5 5.1.3 14.9-1.4 29.8-3.1 44.8-4.4 9.7-.9 19.4-1.3 29.1-2.2 2.9-.3 5.8-1.5 8.7-2.3-.2-.8-.3-1.5-.5-2.3-29.1 2.9-58.2 5.7-87.4 8.4zM104.7 412.9c-2.5 1.4-5.1 2.8-7.9 4.3.3.5.8 1.3 1 1.5-20.1 2.9-40.3 5.7-60.6 8.6-.1-.6-.2-1.1-.3-1.7 9.2-1.7 18.5-3.4 27.7-5.1-.1-.9-.3-1.8-.4-2.7-18.1 3.3-36.2 6.6-54.9 10v-75.1H21c.1.3.2.6.3 1-2.5.6-4.9 1.3-7.4 1.9.1.7.1 1.4.2 2.1 14.9-1 29.8-2 44.6-3 .3.4.7.9 1 1.3-1.2 1.3-2.1 3-3.5 3.8-5.8 3.3-6.1 4.1-2.2 9.1.3.4.6.9.7 1.4 2.3 7.1 3.8 8.1 11.2 8.5 4.7.3 9.4 1.3 14.1 2.5-18.9.7-37.6 2-56.3 3.7.1 1 .1 2 .2 3 20-1.1 40-2.2 60.2-3.3 1.4 4-.5 4.9-4.4 5.1-19.3 1.2-38.6 2.5-57.8 3.9-1.5.1-3 1.1-4.5 1.7.1.6.3 1.2.4 1.8 19.3-1.3 38.7-2.5 58-3.8.1.6.3 1.1.4 1.7-4 1.5-7.9 3.6-12 4.3-4.3.8-8.8.1-13.2.5-1.1.1-2.3 1.4-3 2.4-2 2.6-3.7 5.4-5.6 8.3 3.5 3.5 45.7 5.6 62.4 2.6l-.1-.3zM66 354.2c16.5-1.3 33-2.7 49.4-4-.1-.7-.1-1.5-.2-2.2-16.6 1-33.2 2-50.1 3-.4-1.4-.7-2.8-1.1-4-1.5-4 0-4.9 4-5 17.2-.3 34.3-.4 51.3-3.7 2.5-.5 5.1 0 7.6-.2 18.9-1.4 37.9-2.8 56.8-4.2 5.6-.4 11.2-.9 16.8-1.2 9.8-.5 18.5 8.9 17.5 19.6-9.9 1.1-19.8 2.5-29.8 3.3-15.1 1.2-30.3 2.2-45.4 2.9-17.2.8-34.4 1.1-51.6 1.7-5.8.2-11.6.5-17.3 1-4.6.4-7.9-.5-7.9-7z" fill="#fff"/>
  <path d="M116.5 165.8c-1.6 7.3-3.5 14.7-4.9 22.1-2.7 14.3-7.5 28.1-16.6 39.4-6.2 7.7-14.7 13.7-22.6 19.8-1.5 1.2-6.1.5-7.6-1-2.8-2.8-5.3-6.5-2.3-11.1 7.3-11 14.5-21.9 21.6-33 7.4-11.5 13.2-23.8 15.5-37.5.7-4.2 3.3-6.9 7.6-5.7 3.5 1.1 9.7-.4 9.3 7zM196.1 373c8-.8 14.1-1.4 20.2-2.2 12.3-1.7 24.6-3.7 36.9-5.2 7.4-.9 14.8-1.3 22.2-1.6 3.1-.1 6.1 5.1 4.7 8-1.9 4-3.9 8.1-6.5 11.7-1 1.4-3.6 2-5.6 2.2-12 1.3-24.3 1.3-36 4-10.7 2.4-19.1-1.5-27.4-6.1-3.1-1.7-4.9-6.1-8.5-10.8zM420.2 349.2c-10.6.9-21.2 1.7-32.2 2.6 2.8-2.7 5.6-5.3 8.3-7.9-.3-.7-.6-1.3-.9-2-4 1.3-8.4 2.1-12.1 4-3.9 2-6.2 2.4-9.6-1.4-3.3-3.7-8.3-5.7-12.2-8.9-3.9-3.2-7-7.1-6.8-13.5 13 11.7 28.6 11.8 43.8 13.2 5.7.5 11.5 1 17.2 1.6.9.1 1.8.4 2.5.8 5.3 3 9.8 15.6 7.6 21.5-.7 1.9-1.9 3.7-2.1 5.6-.8 6.7-5.2 7.9-10.5 6.8-10.9-2.2-21.3-.5-31.7 2.8-.8.3-1.6.5-2.9.8 1.5-4.7 2.9-9 4.6-14.2 12.2-1.5 26.3-.3 37.3-10.1 0-.6-.2-1.1-.3-1.7zM100.9 384c14.8-.9 29.5-1.8 44.3-2.6.1-.5.3-1 .4-1.5-1.7-.4-3.4-1.1-5-1-12.2.6-24.4 1.3-36.7 2-1.7.1-3.4 0-5.2-.9 30.1-4.5 60.7-3.3 90.8-6.4 1.6 8.1-5.4 17.6-13.1 18.4-16.3 1.7-32.5 4-48.8 5-5.9.4-12-2.1-18-3.2.1-.6.1-1.2.2-1.8 15.8-1.1 31.6-2.3 47.4-3.4.1-.3.1-.7.2-1-.7-.4-1.4-1-2-1-11.6.5-23.2 1-34.7 1.7-5 .3-10.1 1.2-15.1 1.1-1.9 0-3.7-1.9-5.6-3 .3-.9.6-1.7.9-2.4z" fill="#fff"/>
  <path d="M95.8 161.7c-2.9 13.4-6.9 25.1-13.8 35.8-5.3 8.3-10.8 16.5-16.1 24.8-2.9 4.6-5.9 4.4-8.8-.2-3.6-5.8-3.4-12.2-2.3-18.3 1.3-6.8 3.4-13.5 6.1-19.8 1.2-2.9 4.4-5.2 7-7.4 8-6.7 16.5-12.2 27.9-14.9zM215.7 247.3c1-.7 2.1-1.4 3.1-2.1 1.2-.3 2.4-.6 3.5-.9.3.3.5.4.6.5 3.3 13.3 2.3 14.8-11 22.7-5.1 3-9.5 7-14.2 10.7-.4.3-.4 1.2-1 2.9 9.9-7.3 18.9-13.9 27.9-20.6.3.3.6.7.9 1-3.9 3.6-7.5 7.6-11.7 10.8-8.7 6.6-17.6 12.9-26.8 18.8-2 1.3-5.5.6-8.2.2-.4-.1-.5-3.3-.5-5.1 0-3.2.1-6.3.2-9.5 6.6-5 13.2-10.1 19.8-15.1 5.7-4.8 11.5-9.6 17.4-14.3zM62.2 369.7c8.2 0 16.3.3 24.5-.1 11.1-.5 22.3-1.3 33.4-2.1 10.7-.7 21.5-1.4 32.2-2.2 13.3-1 26.6-2.2 39.9-3.2 10.6-.8 21.2-1.5 31.8-2.1 6.9-.4 13.7-.8 20.6-1.1 1.4-.1 2.9.3 5.3.6-1.2 1.4-1.6 2.2-2.1 2.3-7.3.8-14.7 1.6-22 2.3-15.6 1.5-31.2 3.3-46.8 4.2-14.8.9-29.8.5-44.6 1.3-15.6.8-31.2 2.8-46.9 3.5-8.4.4-16.9-1-25.3-1.6v-1.8zM266.6 393.1c-6.9 1-13.7 2.1-20.6 3-6.4.9-12.8 1.8-19.3 2.3-15.9 1.2-31.9 2-47.8 3.2-11.7.9-23.4 2.3-35.1 3.2-10.2.7-20.4.8-30.7 1.4-9.7.5-19.4 1.3-29.1 1.7-5.1.2-10.2.1-15.2.2-3.7 0-7.5.1-11.2 0-1.7 0-3.5-.3-5.2-.5 0-.5-.1-1-.1-1.5 3.3-.4 6.6-1 10-1.1 19.2-.6 38.5-.7 57.7-1.6 17-.8 34-2.7 50.9-3.9 17.9-1.3 35.8-2 53.7-3.5 11.5-.9 22.9-2.8 34.4-4.1 2.5-.3 5.1 0 7.6 0v1.2zM360.7 303.9c-10.4 10.3-21.9 10.4-30.4.3-.8-.9-1.6-2.1-1.9-3.2-1.5-7.1 4.3-10.2 8.2-14.1 3-3.1 6.1-1 9.4.3 8 3.1 11 10.2 14.7 16.7zM365.9 403.8c4.2-11.4 14.3-7.8 20.3-12.1 2 1.8 3.6 3.3 5.3 4.8 2.2-.5 3.6-2.6 6.8-.4 2.2 1.4 9-.4 10.8-2.9 5.5-7.5 12.6-4.3 19-5.2.3.5.6 1 1 1.5-2.4 1.7-4.7 3.5-7.1 5.2-9.3 6.8-20.3 8.1-31.2 8.8-7.8.7-15.8.3-24.9.3zM425.7 257.9c.7-1.8 1.3-3.3 1.8-4.7 9 4.4 13.9 13.8 13.2 25.4-5 .4-18.1-5.9-19.4-10.2-.7-2.3 1.3-5.3 2.5-9.5-2.2 0-4.8-.5-7 .1-3.9 1.1-6.6 1.2-7.8-3.5-.8-3.3-2.1-6.4-3.1-9.6l1.2-1.2c6 4.3 12.1 8.6 18.6 13.2zM106.9 273.4c-5.5 6.5-11.5 5.1-17.8 1.8-3-1.6-3.5-3.5-1.6-6.1 2.5-3.5 5.4-6.5 10.3-4.7 10.7 3.8 21.3 7.5 32 11.3 1.1.4 2.2 1.1 3.2 2.6-8.1 1-16.1 2.1-24.6 3.2v-7.6c-.5-.2-1-.3-1.5-.5zM340 324.6c4.2-.2 6.3 3.8 4.5 6.6-4.7 7.3-9.6 14.3-14.3 21.6-.6.9-.2 2.4-.3 3.6-.2 1.7.1 4.5-.8 4.9-4.1 2.1-1.8 5.1-1.7 7.9.1 2.1-.1 4.3-.6 6.4-.1.3-2.9.6-3.2.2-1.2-2-2.8-4.4-2.6-6.4 1.6-13.8 5.2-26.9 13.7-38.2 1.8-2.6 3.9-4.9 5.3-6.6zM287 337.1c13.7-7.1 26.6-13.8 40.8-21.2-1.9 2.7-2.8 4.6-4.2 6.1-6.8 7.4-13.6 14.8-20.7 22-1 1.1-4 1.5-5.3.8-3.5-2-6.6-4.8-10.6-7.7zM422.2 331.7c-10.1-1.2-18.8-1.8-27.3-3.4-9.9-1.8-19.8-3.9-29.3-6.9-2.7-.9-4.8-5.3-6.2-8.5-.5-1.2 1.3-3.9 2.7-5.2.7-.6 4.1.1 4.3.7 2.4 10.5 11.2 11.4 19.4 13.2 10.7 2.4 21.4 4.7 32.1 7.1 1 .3 2 1.5 4.3 3zM419.9 379.1c-1.5 1.4-2.9 3.7-4.6 4-7.1 1.1-14.3 1.4-21.4 2.3-7.1.8-14.1 1.9-21.4 2.9-.8-4.5 1.9-6.3 5.5-7.9 10.7-4.7 21.8-4.7 33.1-3.9 2.5.2 5 .6 7.4.9.5.6 1 1.1 1.4 1.7zM81.6 284.3c-6.5 3.6-10.7.6-15.1-1.6-8.4-4.2-16.8-8.2-25-12.6-1.3-.7-1.8-3-2.7-4.5 1.8 0 3.9-.6 5.5 0 8.4 3.3 16.7 6.5 24.8 10.4 4.5 2.1 8.4 5.5 12.5 8.3zM406 148.3c-.2-12.4 3.6-14.8 16.2-10.7-.2 4-3.2 8.7 2.8 12.8.3-2.7.2-4.6.7-6.3.5-1.8 1.5-3.4 2.3-5 1.4 1.4 3.5 2.7 3.9 4.4.3 1.6-.7 4.3-2 5.2-6 3.9-12.5 2.3-18.9 1-1.6-.5-3.1-.9-5-1.4zM481.2 316.2c1.9 3.9 4.3 7.7 5.7 11.8 1.6 4.7.3 8.4-5.3 9.6-3.1.7-6.1 2.2-9.2 2.3-1.6 0-4.8-2.2-4.7-3.3.2-2.2 2-4.2 3.3-6.3.3-.4.9-.8 1.3-.9 5.7-1 7.9-4.4 7-10-.1-.8.1-1.7.2-2.6.5-.1 1.1-.3 1.7-.6zM173.6 285.2c-1.3 2.4-2.3 4.4-4.1 7.9 5.1 2.8 10.2 5.4 15.1 8.4 1.6 1 3.6 3.1 3.4 4.5-.4 3.4-2 6.8-6.2 7-2.8.1-5.6-.7-7.1-.9-2.4-6.6-4.4-12.3-6.5-18-2.1-5.6-.5-10.3 5.4-8.9zM472 112c4.6-.2 12.4 10 9.9 12.7-1.8 1.9-4.5 3-6.9 4.6h12.8c0 .4.1.9.1 1.3-6.6 1.5-13.2 3-21 4.7.7-4.4.8-8 1.8-11.3 1.8-5.9 6.5.9 9.6-2.4-2.6-1.3-5.1-2.6-8-4.1.6-1.9 1.1-3.8 1.7-5.5zM44.6 261.2c10.6-6 20-10.5 31.7-5.4-3.6 2.7-7 4.5-11.4 3.5-1.4-.3-2.8-1-4.2-.9-1 .1-1.9 1.2-2.8 1.9.6.8 1.1 1.9 1.9 2.2 4.8 2 9.7 3.8 14.6 5.8 2 .8 3.8 2.1 5.8 3.2-.2.6-.3 1.3-.5 1.9-1.6-.3-3.2-.3-4.6-.9-8.3-3.2-16.5-6.6-24.8-9.8-1.5-.6-3.1-.8-5.7-1.5zM212.3 285.6c3.9-3 7.9-6.1 11.8-9.1-10.4 3-16.6 14.9-30.3 12.8 7.6-5.6 14.6-10.8 21.6-16 .4.5.8.9 1.1 1.4-5.1 3.9-10.2 7.9-15.2 11.8.4.5.7.9 1.1 1.4 8.2-6.2 16.3-12.4 24.6-18.6 3.9 8.1 3.1 10.1-4.8 13.5-3.1 1.3-6 2.8-9 4.2-.4-.5-.7-1-.9-1.4z" fill="#fff"/>
  <path d="M477 312.2c-.5 4.4-.8 7.8-1.2 11.2-5.1.8-7-1.3-6.3-6.5.2-1.2-.4-2.6-.7-3.9-.8 1-2.1 1.9-2.3 3-.4 2.6-.3 5.3-.5 7.9-.1 1.6-.2 3.3-.3 5.9-3.7-2.8-8.1-3.5-7.3-8.7.8-5.2 3.3-9.4 8.2-11.1 4-1.4 8.4-1.3 10.4 2.2zM361.4 370.5c-12.8.4-19.3-8.4-14.7-19.2 1.7-4 3.8-7.9 6.2-11.8-.7 11.3-1.4 22.3 8.5 31zM450.4 116.1c1 0 1.7-.1 2.4 0 10.9 2.4 10.9 2.4 9.8 15.3-15.1-3-15.8-3.9-12.2-15.3zM235.5 281.4c8-3.7 15.5-7.3 23.7-11.1.9 2.2 1.7 4.4 2.4 6.3-6.9 2.8-13.5 5.1-19.8 8.1-3.9 1.9-5.5.5-6.3-3.3zM210.1 324.7c-4.9-1.4-8.3-2.3-12.8-3.5 1.4-5 2.6-9.9 4.1-14.7.3-.9 1.8-2.1 2.6-2 .9.1 2.2 1.4 2.4 2.3 1.3 5.5 2.3 11.1 3.7 17.9zM44.5 186.3c.1-7.9 4.7-12.2 10.3-11.3 3.5.6 5.4 2.1 3.1 5.9-1.3 2.2-3 4.2-3.9 6.5-1.2 3.2-3.7 3.8-6.1 2.7-1.7-.8-2.8-3.1-3.4-3.8zM427.2 121.3c1.7-8.4 8.8-10.4 16.5-4.9-1.7 9.5-2.5 9.7-16.5 4.9zM425.7 126.3c4.2.2 8 .3 11.8.7 2.9.3 3.9 2.1 3.5 4.9-.3 2.3-.6 4.5-.9 6.8-7.9-1.3-13.5-6-14.4-12.4zM461.7 136.6c-5.5 2-11 4.1-17.9 6.6 1.1-5.1 1.8-9 2.8-13.5 5.6 1.8 10.5 3.4 15.4 5-.1.7-.2 1.3-.3 1.9zM155.7 411.3c-15.3 4-30.6 7.9-45.9 11.9-.2-.7-.4-1.3-.5-2 2.5-.7 5-1.3 7.5-2 6.3-1.5 12.6-3 18.8-4.6.8-.2 1.9-.6 2.3-1.2 4.8-7.2 11.7-2.3 17.3-4.3.2.7.3 1.5.5 2.2zM401.4 161.6c-4.4-.4-8.8-.9-13.7-1.4-.5-3.3-1.6-7.8 3.1-8.4 8.8-1 8.9-2.6 10.6 9.8zM383.9 133.6c-.4 3.9-.8 7.4-1.4 12.4-3.6-.9-7.1-1.8-10.5-2.7.7-2.7.6-6.3 2.4-7.8 1.8-1.6 5.4-1.2 9.5-1.9zM384.5 260.7c5.2-4 10.4-8.1 15.6-12.1.5.3 1 .6 1.6.9v10.7l-1.5-1.5c-2.7 1-5.4 2-8.2 3 .2-.8.5-1.9.9-3.6-3 2.1-5.5 3.7-8 5.4-.2-1.2-.4-2.1-.6-3.1l.2.3zM286 363.5c-4.3-5.6.8-13.4-3.3-21 4.2 2.7 7.2 4.3 9.8 6.4 2.7 2.3 1 4.3-.8 6.4-1.9 2.1-3.3 4.6-5.7 8.2zM233.8 270.7c5.8-5.8 14.3-6 21.3-9.4 3.4 3.6 1.5 5.7-1.7 6.6-6.1 1.7-12.4 3-18.6 4.5-.4-.7-.7-1.2-1-1.7zM56.4 342.3c.7 3.3 1.2 5.8 1.8 8.4-9.3-2.2-18.2-4.3-25.8-6 6.7-.7 15-1.5 24-2.4zM193.5 381.8c3 3.5 5.8 6.6 8.9 10.2-5.4.8-10.9 1.6-17.2 2.5 3.2-4.8 5.7-8.6 8.3-12.7zM387.9 145.3c.8-4.9 1.3-8.2 1.7-11.1.9-.4 1.3-.7 1.6-.6 3.4.7 6.7 1.4 10 2.1-2.4 2.1-4.7 4.3-7.2 6.2-1.3 1.1-3 1.7-6.1 3.4zM367.1 292c1.8 2.6 3.1 4.4 4.3 6.1-2.5 2.1-4.5 1.3-8.2-3.4-5-6.4-5.7-11.6-1.9-14.4 2.9 3.4 5.4 6.7 2.3 11.7h3.5zM457.9 106.2c3.2 1.3 6.2 2.5 9 3.9.3.2-.2 3.1-.6 3.2-2.6.4-5.3.5-8 .5-.8 0-1.8-.4-2.5-.9-1.5-.9-2.9-1.9-4.3-2.9 1.4-1 2.8-2 4.2-2.9.6-.4 1.5-.6 2.2-.9zM279.7 355.9h-25c.6-.8 1.1-2.3 1.8-2.4 6.8-.9 13.5-1.7 20.3-2.1 1.2-.1 2.4 1.7 3.7 2.6-.2.7-.5 1.3-.8 1.9zM339.5 274.8c-7.1-5.6-9.1-13.2-5.7-20.5 5 6.1 5.1 12.9 5.7 20.5z" fill="#fff"/>
  <path d="M198.1 261.6c-6.6 5-13.2 10.1-19.8 15.1 0-.8 0-1.5-.1-2.3 5.2-4.3 10.3-8.6 15.5-12.9 1.1-.4 2.3-.8 3.4-1.2.4.5.7.9 1 1.3z"/>
  <path d="M400.4 272.5c1.1-8.3 8.6-5.3 13.9-7.2.2 1.6.4 3.1.5 4.6 0 1.1-.1 2.2-.2 3.3-1.1-.4-2.2-1.1-3.3-1.1-3.6-.1-7.2.2-10.9.4zM102.3 398.2H83.2c3.5-7.8 10.8-7.9 19.1 0zM370.7 170.6v-7.3c10.2-.2 11.2.4 12.2 7.3h-12.2zM232.2 262.3c7.3-7 17.5-10.4 22.2-6.2-7.6 2.7-14.6 5.2-21.6 7.7l-.6-1.5zM422.2 125.3c-1.4 1.7-2.1 3.3-3.2 3.8-2.3.9-4.9 1.6-7.3 1.6-1.5 0-3-1.3-4.5-2.1 1.3-1.8 2.4-4.9 3.8-5 3.2-.3 6.5.9 11.2 1.7zM229.4 253.4c.9-2 1.1-3.9 2-4.2 5.2-2 10.4-3.7 15.7-5.3.7-.2 1.8.9 2.8 1.3-.7.8-1.2 2-2.1 2.3-5.6 2-11.3 3.7-18.4 5.9zM94.7 423.5c-9.1 1.5-16.6 11.1-28.1 5 9.8-2.2 18.8-4.3 27.8-6.3.1.4.2.9.3 1.3zM165 311.6c-2.7-6.4-5-12-7.6-18.2 6.6-.2 6.3 5.7 8.3 8.7 1.3 2 3.7 6-.7 9.5zM338.9 358.6c-3.2-5.4 2.9-23.2 9-26.4-3 8.7-6 17.6-9 26.4zM269.4 391.1c9.6-1.2 11-9.1 13.9-15.8.8-1.8 2.4-3.3 4.2-4.4-4.4 13.9-8.6 21.9-18.1 20.2zM382.2 266.1c-3.4 2.9-6.9 5.8-10.3 8.6.3.3.5.7.8 1 2.1-1.1 4.1-2.2 6.2-3.4.2.3.5.6.7.9-2.9 2.3-5.7 4.6-8.6 6.9-4.1-2.8-3.7-5 0-7.3 3.6-2.3 7-5 10.5-7.6.2.4.5.6.7.9zM371.4 184.3c-.6-4.1-.9-6.3-1.3-9H383c-4.4 3.4-7.4 5.7-11.6 9zM391.3 125.6c3.4-1.4 6.8-2.9 10.2-4.3.3.5.7 1.1 1 1.6-.4 2.2-.9 4.4-1.4 7.1-3.4-.7-6.4-1.4-9.4-2-.1-.8-.2-1.6-.4-2.4zM410.5 117.6c3.5-5 7.9-5.2 13.4-4.7-1.1 2.4-1.9 4.4-2.9 6.5-3.2-.5-6.2-1.1-10.5-1.8zM104.7 413c7.5-.5 15-1 22.4-1.5.1.4.1.7.2 1.1-4 .8-8.2 1.1-12.1 2.5-4.3 1.5-7.7 1.8-10.6-2.2.1 0 .1.1.1.1zM489.7 126.6c7.4.4 14.9.9 22.3 1.3 0 .5 0 1-.1 1.4-7.4-1.3-15.1 3.2-22.4-.4.1-.7.1-1.5.2-2.3zM456.6 314.8c.3-8.8 5.5-13.6 11.1-10.3-3.6 3.4-7.2 6.7-11.1 10.3zM364.2 170.6c-2.2.1-4.1.2-6 .3-1.4-7.7-.4-8.8 7-7.6-.3 2.3-.6 4.5-1 7.3zM358.8 148.5c2.4.8 4.9 1.7 7.3 2.5-.8 1.6-1.2 4.2-2.5 4.8-5.6 2.6-3.6-3.6-5.8-5.1.3-.7.6-1.5 1-2.2zM242.9 224.6c-5.8 1.9-11.2 3.6-16.7 5.4 13.7-9.7 13.9-9.7 16.7-5.4zM226.4 234.1c5.6-1.9 11.2-3.8 17.3-5.8-.7 3.6-12.8 8-17.3 5.8zM247.1 238.6c-5.9 1.9-11.8 3.9-17.7 5.8-.2-.5-.3-1-.5-1.5 6-1.4 10.5-7.9 18.2-4.3zM372.4 156.2c3.3-1.2 6.5-2.4 10.7-4-.8 3.5-1.2 5.3-1.7 7.3-2.9-.4-5.6-.9-8.4-1.3-.2-.6-.4-1.3-.6-2zM398.4 165.2c-4.2 2.4-7.1 4.1-10.3 6-1.3-7.3-.3-7.9 10.3-6zM384.3 260.6c-5.3 3.7-10.6 7.5-16 11.2-.3-.5-.6-1.1-1-1.6 4.8-4.6 10.1-8.5 17.1-9.5.1 0-.1-.1-.1-.1zM364 369.7c1.1-4.5 1-4.2 5.5-3.7 1.6.2 3.5-1.4 5.2-2.2 1.4 3.6-1.2 5.2-10.7 5.9zM382.5 308.7c-2.7 4.3-6.2 5.5-11.2 3.6 2.6-6.9 8.1-.9 11.2-3.6zM406.9 160.5c-1-2.3-1.6-3.8-2.6-6.1h11.3c-3 2.2-5.4 3.8-8.7 6.1zM365.2 144.4c-1.9-.2-3.5-.3-6.9-.6 2.9-3.2 4.9-5.4 6.9-7.5.5.3.9.6 1.4.9-.5 2.2-.9 4.4-1.4 7.2zM366.5 185.4c-2-2.9-3.9-5.9-6.2-9.3 3.7-.1 3.7-.1 7.3 8.5-.4.2-.8.5-1.1.8z" fill="#fff"/>
  <path d="M394.1 420.8c1.8-.6 3.6-1.1 5.5-1.7-.1-.4-.1-.9-.2-1.3-1.9.2-3.9.3-5.8.8-7.9 1.9-15.5 6.1-24.1 3.9-1.3-.3-2.8.4-4.3.5-7.7.7-15.5 2.1-23.2 1.6-3.2-.2-6.6-1.6-10.1-1.1-.8.1-2.2-.4-2.3-.9-1.1-3.6-3.4-2.1-5.6-1.6-5.3 1.1-10.6 2.8-15.9 2.9-4.9.1-9.9-1.5-15.3-2.4-1.7-9.6-10.1 2.9-13.8-3.2 2.2-1 4.3-2.7 6.4-2.7 9.1-.3 18.1 0 27.2-.1 3 0 6-.9 9-.9 3.7 0 7.3.8 11 .8s7.4-.6 11.1-.6c2.3 0 4.6.6 7 .9.9.1 1.8.3 2.7.3 8.5-.6 16.9-1.5 25.4-1.9 3.1-.2 6.3.9 9.5.9 5.1 0 10.3-.6 15.4-.7 3.2 0 6.9-2.1 9.4 1.9.3.5 2 .2 2.9 0 6.4-1.1 12.7-2.2 19.2-2.6-13.2 5-27.1 6.6-41.1 7.2zM445.1 352.5c1.2-.5 2.5-1.5 3.7-1.4 11.6.9 23.3 2.2 34.9 2.9 8.1.5 16.3-.1 24.5.3 16.8.9 33.5 2.1 50.3 3.2 1.6.1 3.9.6 4.8-.2 5.6-5.1 10.9-1.1 16.7 0-.5 1.3-.8 2.9-1.3 2.9-4.7.8-9.6 2.1-14.3 1.9-11.2-.6-22.4-2-33.6-3-6.8-.6-13.6-1-20.5-1.4-.9-.1-2-.2-2.7.2-9.3 5.6-18.5.2-27.8-.3-9.7-.5-19.5-1.4-29.2-2.2-1.8-.1-3.6-.6-5.4-.8.1-.8 0-1.4-.1-2.1zM377.2 249.7c-3.2-1.1-6.3-2.5-9.6-3.1-6.6-1.2-13.4-1.8-20-2.7-7.2-1-14.3-2.5-21.4-3.2-22.8-2.2-45.3-8.5-68.5-6.6-.5 0-1-.3-2-.6 2.6-3.9 6.4-4 10-3.7 14.2 1.3 28.5 2.7 42.7 4.5 11.3 1.4 22.4 3.6 33.7 5.2 7.9 1.1 16 1.3 23.9 2.7 4.3.7 8.2 3 12.4 4.7-.4.9-.8 1.8-1.2 2.8zM442.1 186.4c-1.7-.8-3.3-2.1-5.1-2.4-6.5-1.3-8.2.3-10.3 8.9-1.3 5 1.7 9.9 6.8 12 1.7.7 3.1 2.2 4.6 3.3-1.9.7-3.8 1.9-5.7 2-7.9.1-12.3-6.6-11.4-14.7.8-6.7 3.6-11.9 8.8-15.4 1.9-1.3 5.5-1 7.8-.1s4 3.4 6 5.2c-.6.4-1.1.8-1.5 1.2zM212.3 235.3c-19 14.9-38.1 29.9-57.1 44.8-.4-.5-.7-.9-1.1-1.4 19-15.1 38-30.1 57-45.2.4.7.8 1.2 1.2 1.8zM508 197.2c-.9 2.2-2 5.6-3.7 8.7-.6 1-3 1.9-4.1 1.5-.9-.3-1.9-2.6-1.7-3.9.3-3.7.8-7.5 2-11 .5-1.7 2.6-2.9 4-4.4 1 1.5 2.1 3 2.9 4.6.3 1 .3 2.1.6 4.5zM197.2 260.4c-1.1.4-2.3.8-3.4 1.2.1-1-.2-2.5.4-2.9 8.2-6.6 16.5-13 24.8-19.5.3.4.6.7.9 1.1-5.6 4.9-11.3 9.8-16.9 14.7-2 1.7-3.9 3.5-5.8 5.4zM187.2 260.3c-7.5 6-15 12.1-22.5 18.1-.3-.4-.6-.8-1-1.1 7.4-6.2 14.8-12.3 22.2-18.5.4.5.8 1 1.3 1.5z"/>
  <path d="M197.2 260.4c1.9-1.8 3.8-3.7 5.8-5.5 4.3-2.5 8.5-5.1 12.8-7.6-5.9 4.8-11.7 9.6-17.6 14.4-.4-.5-.7-.9-1-1.3zM157.6 220.9c0-2.6-.3-3.8.1-4.7.4-1 1.4-2.4 2.2-2.4.9 0 2.4 1.1 2.7 2.1.8 2.7 1.4 5.6 1.5 8.4 0 1.5-1.4 2.9-2.1 4.4-1.2-1.1-3-2-3.6-3.4-.9-1.9-.8-4-.8-4.4zM64.3 314.4c29.2-2.8 58.3-5.5 87.5-8.3.2.8.3 1.5.5 2.3-2.9.8-5.8 2-8.7 2.3-9.7.9-19.4 1.3-29.1 2.2-14.9 1.4-29.8 3-44.8 4.4-1.7.2-3.4-.2-5.1-.3-.1-.9-.2-1.7-.3-2.6z"/>
  <text transform="translate(16.628 26.583)" font-family="BaskervilleT-Bold" font-size="10">Copr 1951 by United Feature Syndicate, Inc.</text>
  <text transform="translate(501.402 446.762)" font-family="BaskervilleT-Bold" font-size="26" letter-spacing="2">12-25</text>
</svg>
