<svg xmlns="http://www.w3.org/2000/svg" viewBox="0 0 595.3 460.4" xml:space="preserve">
  <path d="M595.3 460.4H0V0h595.3v460.4zM57.9 6.4c-15.5 0-31.1 0-46.6.1-6.1 0-8.2 2-8.1 8.2l.6 65.2c.2 23.3.4 46.6.5 69.9.1 20.4-.1 40.9-.1 61.3 0 11.4.2 22.8.2 34.2.1 13 .3 26 .2 38.9-.1 12.5-.4 25-.6 37.5-.2 8.5-.5 17-.5 25.5.1 10.5.7 20.9.7 31.4 0 10.3-.8 20.6-.8 31 0 13.6.3 27.2.5 40.8.1 3.7 1.5 6.5 5.6 6.6 11.2.4 22.4 1.1 33.7 1.1 12 0 24.1-.8 36.1-.9 14.8-.2 29.5 0 44.3 0 39.7 0 79.5-.1 119.2-.1 37.5 0 74.9-.1 112.4 0 9.6 0 19.3 1 28.9 1 38.1.1 76.2 0 114.3-.1 19.3-.1 38.5-.4 57.8-.6 9.6-.1 19.3 0 28.9 0 4.1 0 6.1-1.4 5.9-6.3-.4-13.7-.2-27.4-.2-41 .1-47.8.4-95.5.3-143.3 0-20.1-.9-40.2-1-60.3-.1-12.1.8-24.1.8-36.2 0-10.5-.9-20.9-.9-31.4 0-12.8.7-25.6.8-38.4.4-29.2.7-58.5 1-87.8.1-6.8-1.7-8.4-8.4-8.4-65.7 0-131.3.1-197 .2-21.8.1-43.5.5-65.3.7-14.7.1-29.3.1-44 .1-14.8.1-29.7.3-44.5.1-10.1-.1-20.2-1.1-30.2-1.2-14.6 0-29.2.4-43.8.7-22.2.4-44.4 1-66.7 1.3-11.3.3-22.6.2-34 .2z" fill="#fff"/>
  <path d="M57.9 6.4c11.3 0 22.6.1 34 0 22.2-.4 44.4-.9 66.7-1.4 14.6-.3 29.2-.7 43.8-.7 10.1 0 20.2 1 30.2 1.2 14.8.2 29.7-.1 44.5-.1 14.7-.1 29.3 0 44-.1 21.8-.2 43.5-.7 65.3-.7 65.7-.2 131.3-.2 197-.2 6.8 0 8.5 1.6 8.4 8.4-.3 29.3-.6 58.5-1 87.8-.2 12.8-.8 25.6-.8 38.4 0 10.5.9 20.9.9 31.4 0 12.1-.9 24.1-.8 36.2.1 20.1 1 40.2 1 60.3.1 47.8-.2 95.5-.3 143.3 0 13.7-.3 27.4.2 41 .2 4.9-1.8 6.2-5.9 6.3h-28.9c-19.3.2-38.5.5-57.8.6-38.1.1-76.2.2-114.3.1-9.6 0-19.3-1-28.9-1-37.5-.1-74.9 0-112.4 0-39.7 0-79.5.1-119.2.1-14.8 0-29.5-.1-44.3 0-12 .1-24.1.9-36.1.9-11.2 0-22.4-.6-33.7-1.1-4.2-.2-5.6-2.9-5.6-6.6-.2-13.6-.5-27.2-.5-40.8 0-10.3.8-20.6.8-31 0-10.5-.6-20.9-.7-31.4-.1-8.5.3-17 .5-25.5.2-12.5.5-25 .6-37.5.1-13-.1-25.9-.2-38.9-.1-11.4-.2-22.8-.2-34.2 0-20.4.2-40.9.1-61.3-.1-23.4-.3-46.7-.5-70l-.6-65.3c0-6.2 2-8.2 8.1-8.2h46.6zm177.5 237.1c1.7 1.2 3.5 2.4 4.7 3.3v-16.7c-2.9 4.3 1.5 10.6-4.9 13.6-1.4-3.7-2.7-7.4-4.1-11-2.4 2.6-5 5.4-8.2 8.9 4.5.6 8.5 1.3 12.5 1.9zm-33.8-48.4c-.7-.4-1.5-.9-2.2-1-6.3-.7-12 .6-17.4 4.2-7.7 5.2-15.7 10-23.6 14.9-.2.8-.5 1.6-.7 2.4 3.9 3.1 7.9 6.2 11.7 9.2 2.3-4.9 4.5-10.2 7.1-15.3.7-1.3 2.2-2.2 3.4-3.4 1 1.7 2.9 3.5 2.9 5.2 0 3.8-1 7.7-1.8 12.5 1.2-1.6 1.9-2.4 2.4-3.3 3.3-6 6.2-12.2 10-17.8 2.1-3.1 5.5-5.2 8.4-7.8-.4 2.5-.1 5.5-1.4 7.4-4.5 6.3-6.7 13.1-7.1 20.4 6.5-2.6 6.7-15.9 19.2-10.9-2.8 3.6-4.9 6.5-7.9 10.4 5.4-2.5 9.5-4.4 13.6-6.2.3.4.5.7.8 1.1-1.5 2-2.9 3.9-4.4 5.9l.6.6c7.7-3.9 15.4-7.8 23.8-12.1-10.2-5.1-18.8-9.6-27.6-13.7-3.1-1.3-6.5-1.8-9.8-2.7zM161 254.8c-5.2 2.7-11.4 2.8-14.7-1.2-5.2-6.3-9.5-13.8-12.4-21.5-2.9-7.6 3.8-12 9.1-15.5 11.8-7.7 23.9-15 36-22.3 10.2-6.1 20.8-8.2 32-2.2 8.3 4.4 16.7 8.7 25.2 12.9 3.1 1.5 6.5 2.4 9.8 3.6.3-.5.7-1.1 1-1.6-5.7-11.9-17.5-20.9-16.9-34.9-3.3-.2-7 .7-8.9-.7-7.1-5.4-11.4-12.9-13.4-21.6-.8-3.4-1.2-7-2.8-10-2.7-5-3.5-9.8.2-14.3 4.2-5.1 8.7-10.2 13.7-14.4 4.9-4.1 10.8-7.2 16.3-10.6 4.3-2.7 8.7-5.3 14.1-8.6-2.8-1-4.3-1.5-5.7-2.1-1.4-.7-3.5-1.4-3.7-2.5-.3-1.1 1-2.9 2.1-4 3.4-3.4 8.6-2.8 12.9 1.6 1.9 1.9 3.1 3.2 6.3 1.7 16.8-7.4 34.5-11.3 52.5-14.5 5.1-.9 9.3.2 12.7 2.8 3.6 2.8 6.6 6.8 8.9 10.8 2 3.4 3.6 4.9 7.6 2.9 10.4-5.4 22.1-5.1 33.3-6.3 2.6-.3 6.1-.4 6.4 3.8.2 3.8.3 7.6-4.8 8.3-6.3.8-12.7 1.3-18.9 2.3-4.8.8-10.1.6-14.6 4.6 1.2.9 1.7 1.4 2.3 1.7 8.2 4.9 17 9 24.4 14.9 8.8 6.9 18.3 11.9 28.7 15.9 5.9 2.3 11.5 6.1 16.5 10.1 4.2 3.3 3.9 11.9-.2 14.5-3.3 2.1-7.2 3.2-10.7 5-1.7.9-3.5 1.9-4.6 3.4-4.5 5.8-8.8 11.7-13.1 17.7-2.4 3.4-4.6 7-5.9 8.9 4.3 4.4 8.9 7.1 10.1 10.9 1.8 5.5-3.7 8.1-8.2 10.3 6.8.3 13.4.3 19.9.3 2.3 0 4.6-.2 3.7 3.4-1.6 6.3-3.2 12.6-4.4 19-2.5 12.7-6.3 25.5-6.7 38.3-.3 9.4-9 12.3-10.8 19.8-.1.4-2.7.5-4.1.4-5.1-.3-10.2-1-15.3-1-13.3-.1-26.6.1-39.8.2-5.6 0-7-1.5-5.8-6.3 3-11.8 5.9-23.5 9.2-35.2 1.1-3.9-.8-4.3-3.7-4.5-6.9-.4-13.8-.9-21.3-1.3 0 2.8-.5 6.5.1 10 1.9 12.5-.2 24.4-4.5 36.2-2.8 7.6-10.2 15-2 23.7.2.2 0 .7.1 1.1.9 5.8-2.7 8.8-6.7 11.9-7 5.6-18.1 6.8-17.9 20.1.2 10-3.2 20.1-5 30.4 2.9-.5 5.4-1.1 7.8-1.2 2.6-.1 7.1-.4 7.5.7 1 2.5 1.1 6.5-.4 8.6-8.8 13.2-19.8 23.5-36.4 25.9-4.8.7-9.6 1.8-14.3 2.7v1.6c3.3.2 6.6.7 9.8.4 3.7-.3 7.3-1.1 11.1-1.8v4.8c16.2-6.6 30.3-6.7 35.5-.1-6 .6-11.7 1.1-17.5 1.8-8.9 1-17.7 2.1-26.6 3.2-.4 0-.8.3-1.1.1-4.8-3.3-9.1 0-13.6.8l-6.5 1.3c.6-1.9.9-3 1.2-4-6.4 1.3-12.5 2.5-18.8 3.8.1-1.8.2-2.7.3-3.6-7.4 1.6-14.5 3.1-21.5 4.6-.2-.6-.3-1.1-.5-1.7 1.1-1 2.2-2 4.4-4.1-2.7.7-4.2.8-5.3 1.5-8 4.8-16.8 1.3-25.1 2.2-.3 0-.9-.1-1-.3-2.6-5.2-5.9-2.3-9.4-1.3-3.1.8-6.5.5-9.8.3-1.8-.1-3.7-1.8-5.4-1.6-2.8.4-5.5 1.7-8.2 2.6-3.9 1.2-4.7-.5-3.5-4-3.3-1-8.9 5.2-9.4-3-4.4.7-8.7 1.4-13 2.1-.2-.7-.5-1.4-.7-2.1 2.2-1.1 4.4-2.6 6.7-3.2 7.4-1.9 14.8-3.7 22.3-5.1 3.5-.7 7.2-.4 10.8-.4 2.8 0 5.5 0 8.3.2 4.5.3 9.1.8 13.6 1.2 1.4.1 2.7.6 4.1.5 4-.2 7.9-.8 11.9-.8 3 0 6 .8 9.1.8 3.2.1 6.6-.5 5.3 4.4h22.9c-4.7-6.6-1.6-10.7 2.3-14.6.9-.9 1.8-2 2-3.2.2-.9-.6-2.6-1.3-2.8-6.7-2.3-7-2.8-4.8-9.3 2.7-8.2 7.3-16.1 3.9-25.5-.9.4-2.2.7-3.1 1.5-5.3 3.9-11.1 5.6-17.3 3.3-8.2-3.2-16.3-6.7-24.2-10.7-4.7-2.4-13.3-3.5-16-.9-3 2.9-6.1 5.6-8.9 8.7-3.5 3.7-7.3 4.3-11 1-2.3-2.1-3.8-5.1-5.7-7.8-2 0-4.7-.2-7.5.1-1.1.1-2.5.8-3 1.7-.4.6.2 2.5.9 2.9 4.9 2.9 7.9 9.4 15.6 7.2 3.3-1 7.2.4 10.8.1 5.4-.4 10.9-1.4 17.4-2.3-2.6-3.1-4.2-5-6.6-7.9 8 2.4 9 3.7 9.2 9.2 2.1.5 4.1.9 6.2 1.4-1.4 1.8-2.7 2.4-4 2.9-1.5.6-3 1.1-4.4 1.6.8 4.9-3.4 8.2-8.1 6.8-1.8-.5-3.9-.4-5.7-.1-4.5.9-8.6.6-11.9-3.1-.8-.9-1.9-1.5-2.9-2.2-.2.3-.5.5-.7.8.7 1.4 1.3 2.8 1.9 4-6.5 4.7-12.9 3-17.3-2-4.2-4.7-9.1-1.6-13.3-3.4-.6 3.4-1.2 6.8-1.7 10.2-.1.4.4.9.6 1.4 2-.7 3.9-1.3 5.7-1.9.7.8 1.3 1.7 2 2.5-1.6.7-3.4 1.2-4.8 2.3-5.7 4.2-11.2 8.6-16.9 12.9-1.1.8-2.8 1.3-3.4 2.4-1.9 3.6-3.2 7.6-5.2 11.1-2.2 3.9-4.6 7.8-8.9 7.4 2.4 5.2 5 10.8 7.9 17.1 2.9-.2 7-.8 11.1-.7 19.9.5 39.9 1.4 59.8 1.7 11.4.2 22.7-.8 34.1-1 11.6-.2 23.3-.2 34.9-.3 11.5-.1 22.9-.1 34.4-.3 9.6-.1 19.2-.5 28.8-.7 9.7-.2 19.4-.3 29.1-.3 11.7-.1 23.4 0 35.8 0-4-10.1-7.8-19.5-11.4-29.1-1.7-4.5-2.7-9.3-4.4-13.7-.7-1.8-2.4-4.4-3.9-4.5-4.9-.5-10-.1-15-.1h-26.7c-.2-1-.3-2-.5-2.9 1.6-.5 3.3-1.4 4.9-1.5 10.7-.2 21.5.2 32.2-.3 7-.3 10.8 3.3 13.4 8.9 1.9 4.1 3.1 8.6 5.3 12.6 2.1 3.7 2.6 8.6 9.4 8.4 13.1-.4 26.2 1.2 39.3.8 7.5-.2 13.1 1.6 17.7 7.3 1.9 2.4 3.5 5 5.2 7.6 4.3 6.5 7.8 8 15.4 6.7 3.2-.5 6.6-1.1 9.7-.7 7.3.9 14.3 3.9 21.9 1.5.9-.3 2.1.3 3.2.5 2 .4 4 .9 6 1.3 1.3.2 2.6.3 3.9.5 0 .5.1 1.1.1 1.6-7.5 1.5-14.9 3-22.4 4.2-.9.1-2.2-2-3.1-2.9-6.6.6-13.4 1.2-20.5 1.9-.7 3.2 1.4 3.5 4.4 3.5 17.1-.1 34.2 0 51.3 0 17.7 0 35.3.1 53 .2 8.2.1 16.5.6 24.7.7 6.8.1 13.7 0 20.5-.3 1.1-.1 3-2.2 3.1-3.5.3-5.8.1-11.6.1-17.3-12.8-1-24.9-2-36.6-2.9.1 1 .3 2.7.4 4.4-1.1.1-2.3.5-3.4.3-7.2-1.6-14.3-3.2-21.5-4.9.1.7.1 1.3.2 2-1.5.8-3.2 2.5-4.3 2.2-4.4-1.2-8.5-1.4-12.3 1.6-.7.6-2.1.6-3.1.4-8-2.2-15.9-4.5-23.8-6.9-.7-.2-1.1-1.2-1.7-1.8.2-.5.3-1.1.5-1.6 3.7.6 7.4 1.3 11.1 1.8 3.8.6 7.6 1.2 11.5 1.4 2.2.1 4.3-.8 6.5-1 1.6-.1 3.8.9 4.6.2 4.6-4.1 9.6-2.6 14.7-2.1 3.9.4 7.8.3 11.7.2 3.5-.1 7-1.1 10.4-.9 4.3.3 8.5 1.8 12.9 2 7.2.4 14.3.1 22 .1v-33.2c0-21.4 0-42.7-.1-64.1 0-1.8-.8-4.7-1.8-5-4.5-1.3-9.2-2.2-13.8-2.6-4.2-.4-8.6.5-12.7-.1-7.3-1.1-14.5-2.9-21.7-4.3-7.3-1.4-14.7-2.7-22.4-4.1 1-1.7 1.5-2.4 2.4-3.9h-10.6c3.4-3.6 9.8-3.4 15.4-.1-.5.7-1 1.4-1.4 2 22.3 3 44.1 6 66.7 9v-23.5c-1.6-.2-3.1 0-3.7-.6-3.3-4-7.2-2.7-11.4-1.9-10.6 2-14.9.1-19.8-7.9 8-9.1 25.7-13.5 34.9-8.2v-6.6c-9.5 1-18.1 3.1-26.2-2.1-1.2-.7-2.4-2.9-2.2-4 1.4-5.3 2.3-11.2 7.1-14.7 1.8-1.3 4.6-1.2 7.8-2-3-1.8-6.4-2.8-7.9-5s-1.2-5.7-1.6-8.1c-2.3-4.9-4.5-9.6-6.7-14.3-4.7 5.7-.8 11.2.9 17.1-4.4 2.5-8.8 5.1-13.9 8 2 1.7 3.6 2.5 4.3 3.7.8 1.4 1.8 4 1.1 4.7-3.2 3.5-.2 7.2 1.4 7.9 6.1 2.6.7 3.9 0 4.9 2.4 2.4 4.4 4.5 6.5 6.7-10.1 9.2-22.5 6.1-33.4 9.7 3.4 1.8 6.3 3.3 9.3 4.8-.2.6-.3 1.3-.5 1.9-2.6.4-5.2.5-7.7 1.2-5.8 1.6-13 1-16 9.9-.9-1.9-2.2-3.2-1.9-3.9 2.5-6.4 8.6-7.4 14.4-8.8-3.4-3.6-4-3.8-.7-10.6 1.6-3.4 5.9-5.6 9.7-8.9-3.8-.5-7.3-1-9.9-1.3-.5 3.7-.5 7.5-1.2 7.6-6.8 1.2-5.9 5.3-3.5 10.6-2.5-.2-4.2-.4-5.8-.5-.9 1.4-1.8 2.9-2.8 4.4-3-1.7-5.7-3.3-8.6-4.9.1-1.4.2-2.9.3-4.2-2.3-.3-4.4-.5-6.5-.8.6-1.9 1.1-3.9 2.1-7.1-26.8 8.3-54 8.3-81.4 5.9 3.2-1.1 6.5-2.4 9.9-2.5 8.9-.3 17.9.2 26.9-.3 9.2-.6 18.3-1.9 27.4-3.3 4-.6 8-2 12.7-3.3-4-6.1-1.6-8.9 3.1-10.7-4.4-4.4-4.1-6.8.9-9.8 3-1.8 6.6-2.7 6.2-7.5-.3-3.5 1-7 .9-10.5-.1-3.5-.9-6.8 3.1-9.1.5.9 1.1 1.5 1.1 2-1.3 9-.1 17.1 6 24.3 1.4 1.7.8 5 2.2 6.8 3.9 5 3.9 5.8-2.1 8.5 3.3 1.2 6.7 1.8 10.2 2.1 4.2.3 8.4.4 13.8.7 1.7-1.1 4.7-3.2 7.9-5.5-5-3.9 1.9-5.2 3-8.9-2.3-1.7-4.8-3.4-6.6-4.7 2.4-7.7 10.6-11.5 8.6-18 1.8-4.7 4.6-8.5 3.9-11.3-1.5-6.1.6-11.1 2.4-16.4 1.3-4.1 2.1-8.4 3.3-12.6.2-.9.8-1.6 1.4-2.5 1.1 7.2 2 13.9 3.2 20.6.4 2.2 2.5 4.8 1.9 6.5-2.3 6.1.2 10.7 3.1 15.8 1.8 3.2 6.9 6.7 1.8 10.8 3.3 3.3 6.3 6.4 9.9 10.1-3.4 2-5.8 3.4-7.8 4.6 5.1 4.6 10 8.9 16.3 14.5V250c-.1-43.4-.3-86.9-.3-130.3 0-34.5.2-69 .5-103.5 0-4.2-1.4-5.6-5.2-5.6h-25c-91.4 0-182.7 0-274.1.1h-8.2V19c0 8.4.1 16.8-.2 25.2-.1 1.7-1.6 4.5-2.8 4.7-6.8 1.1-13.6 1.9-20.4 2-8 .1-15.9-.8-23.9-.9-14.2-.1-28.4.1-42.5.1h-23c1.6 50.1 3.3 99.6 4.9 149.1-.6.2-1.2.5-1.8.7-1-.7-2.9-1.2-3-2.1-.7-3.9-1.2-7.9-1.2-11.8 0-6.2.6-12.4.8-18.7.1-3.5.1-7.1-.2-10.6-.3-3.7-1.3-7.4-1.6-11.2-.3-4.7-.2-9.4-.2-14.1 0-7 .3-13.9-.1-20.9-.2-3.2-.8-7.1-2.7-9.3-2-2.3-6.1-2.5-9-4.2-8.4-4.7-16.6-9.6-24.8-14.4l1.5-2.7c11.1 6.4 22.2 12.9 33.7 19.6V49.7h-37.6c-.2 3.1-.6 5.5-.3 7.8.3 2.2.7 5 2.1 6.2 3.4 2.7 7.7 4.3 11.3 6.8 7.3 5.2 14.4 10.7 21.5 16-.3.5-.6.9-1 1.4-10.8-7.4-21.7-14.8-32.9-22.4 0 6.4-.7 12.2.2 17.8 1 6.4 0 14 8.7 16.9 5.9 2 11.5 5.1 17.2 7.8 3.4 1.6 6.7 3.5 10.1 5.3-.3.5-.5 1.1-.8 1.6-12.4-3.5-23.5-10.2-35-15.9-1.1 12.3 0 15.1 9.6 18.7 1.2.4 2.4.9 3.5 1.4 7.1 2.8 14.3 5.7 21.4 8.5-.3.7-.5 1.4-.8 2-11.4-3.9-22.7-7.9-34-11.8-1.1 4 4.9 9-.6 13.4-.2.2.2 1 .3 1.6 1.1 4.8 1.8 9.6 3.3 14.2.7 2 2.6 4.5 4.4 5 7.4 2.2 15 3.6 22.4 5.5 1 .3 1.8 1.8 2.7 2.7-1.1.5-2.3 1.5-3.2 1.3-4.4-.9-8.7-2.1-13-3.3-5.1-1.4-10.1-3-15.7-4.7 1.1 6.1 2.1 12 3.1 17.9-.5.1-.9.2-1.4.3-1.1-1.1-2.2-2.3-4-4.2 1.8 10.3 3.4 19.6 5.2 30.2-2.5-1.6-3.4-2.2-5.6-3.6 2.3 9.7 4.2 18 6.1 26.3-.5.1-1 .3-1.5.4l-3.3-3.9c-.5.2-1 .4-1.5.5 1.5 9.9 3.1 19.8 4.6 29.9-3.9-.2-4.9 2.2-4.6 5.6.3 3.1.4 6.2.9 9.2.7 3.9 1.8 7.7 2.7 11.7 9.2-4.1 15.2-12.5 25.1-12.7l.9 1.5c-9.7 6-19.5 12-29.3 18 .9 5.6 2 12.1 3 17.9 9-6 18.1-12 27.2-18 .5.6.9 1.3 1.4 1.9-1.4 1.2-2.6 2.6-4.1 3.7-7.1 5.4-14.1 10.7-21.3 16-1.8 1.3-3.7 2.5-6.2 4.1 0 .1 0 1.5.6 2.5 1.6 3.1 6.5 6.9-1.9 7.5-.5 0-1 1.3-1.5 1.9-.7-.1-1.4-.1-2.1-.2-.2-44.7.4-89.4.9-134.1.5-44.6.1-89.2.1-134.2H48.8v124.9c0 14.9-.4 29.7-.5 44.6-.1 22.6 0 45.2-.1 67.7-.1 17.7-.5 35.3-.6 53 0 .9.7 2 1.4 2.7 5.4 5.6 11 11 16.3 16.8 1 1.1 1.6 4 .9 5.1-1.7 2.9-4.2 5.4-6.6 7.7-1.8 1.7-4.1 3-7.4 5.3 3.4 0 5.9.7 6.8-.1 2.9-2.8 5.7-3.5 9.4-2 3.3 1.4 6.8 2.5 10.1 3.9.7.3 1 1.7 1.5 2.5-.9.5-1.7 1-2.6 1.5-4.7 2.5-11.4-1.9-15.2 4.3-.3.5-2.2.5-2.9.1-5.4-3.6-9-.7-11.5 2 3.5 1.4 7.4 2.8 11.1 4.7.6.3-.2 3.2-.3 4.7-2.9-1.7-5.1-3-8-4.7.8 5.2 1.4 9.2 2 13.8 7.9-2.6 14.2.2 19.8 5.8 1.3 1.3 5.5 2 6.1 1.2 1.6-2.2 2.7-5.2 2.5-7.8-.1-1.8-2.5-3.9-4.3-5-5.3-3.2-10.8-6-16.4-9.1 6.2-4.3 8.8-3.4 25.6 9.1 8.3-6.8 18.4-12.7 13.5-26.7-7.2.2-15.2.1-22.2-4.1.1-.6.1-1.1.2-1.7h21.9c2.2-9.5 1.2-10.3-8.1-10.8-5.9-.3-11.7-1.9-17.6-3-1.3-.2-2.5-.4-3.8-.6.7-1 1.4-1.9 2.1-2.9H101c-.2-3.8-.3-6.9-.5-10l-7.8-3c.1-.4.1-.8.2-1.2 2.6-.2 5.1-.4 7.7-.7v-73.1c-.5 0-1-.1-1.6-.1-.3 3.3-.5 6.5-.9 9.8-.2 1.2-.6 2.8-1.4 3.2-.8.4-2.4-.2-3.3-.8-4.2-2.8-2.5-6.7-1.6-10.2 2.3-8.4 4.1-16.8 2.8-25.5-.7-4.8-2.3-9.4-3.4-14.1-.9-4.3-2.2-8.7-2.3-13.1-.2-6.4 4.5-7.8 12.7-3.2.4-53.3.9-106.1 1.3-158.9.7 0 1.5-.1 2.2-.1.3 4.1.9 8.3.9 12.4 0 13-.2 26.1-.1 39.1 0 3.2 1 6.4.9 9.5-.3 10.5-1 21-1.1 31.5-.1 9.6.7 19.1.7 28.7-.1 10.7-.6 21.5-1.1 32.2-.1 2.9-1.1 5.8-.7 8.6 1 6.1 2.7 12.2 3.8 18.3.3 1.5-.5 3.2-.4 4.9.4 7.5-9.4 13.5-3.2 21.9l.3 61.8v18.5c4.3-.8 7.5-1.3 11.3-2-8.4-6-8.2-9.5 0-14 1-.5 1.9-1.2 2.9-1.6 5.3-2.4 10.8-2.2 16.5-.5-7.3 1.9-14.6 3.9-21.9 5.8 0 .7-.1 1.5-.1 2.2 5.2 3.6 10.3 7.2 14.6 10.2-3.9 2.5-8.7 5.5-13.8 8.6 3.2 3.4 15.5 4.1 17.5 1.9.3-.4.5-.9.7-1.4 4.1-10.2 7.7-20.6 12.5-30.5 3.1-6.5 8-12.1 12.4-18.7-8.9-13.1 5.3-17 11.9-24.3-3.2-6-1.6-9.9 5-11.8 1.4-.4 2.8-.9 4.2-1 5.7-.4 5.7-3.5 4.3-8-1.3-4.3-1.8-8.9-2.6-13.2-6.4-.7-11.4 2.2-14.8 8.5-1.1 2.6-3.2 4-4.7 5.7zm83.8-66.4c1.5 2.8 2.4 5 3.8 6.9 5 6.6 10.4 13 15.3 19.7 1.2 1.7 1.2 4.5 1.4 6.8.4 6.8.6 13.7 1.1 20.5.1 1.2 1.2 2.8 2.3 3.2 9.2 3.4 19.6-.3 22.9-10.3 13.4 3.5 26.6 9.4 41.2 7.9.8-2.5 1.6-5 2.2-6.6-1.7-2-2.9-3.4-4.1-4.7 1.5-.9 2.8-2.2 4.4-2.6 10.9-2.3 21.9-4.5 32.8-6.6 7.3-1.4 7.8-2.1 6.9-9.2-.5-3.6.3-5.8 4.6-5.1 1.4.2 3 .2 4.4 0 .9-.2 2.4-1 2.5-1.6.1-1.1-.4-2.7-1.2-3.4-1-.8-2.7-.9-4-1.4-6.1-2.2-7.5-5.8-3.8-11.1 3.1-4.4 6.9-8.3 10.1-12.7 3.1-4.1 5.7-8.6 8.4-12.6-2-1.6-3.3-2.7-4.6-3.8 1.5-.7 3-1.3 4.3-2.2.6-.4.6-1.5 1-2.6-1.4-.2-2.5-.3-3.5-.4-6.9-.4-14-.3-20.8-1.3-7-1-8.6-4.9-5-10.2-4-6-3.8-8 1.7-9.6-.3 4.6 2.1 5.7 6.1 4.7 4.1-1 8.2-1.9 11.8-2.8-16.8-11.5-34-23.2-51.5-35.1-1.9.9-4.3 2.1-6.8 3.3.1.3.2.5.2.8h7.4c-2.1 6.3 5.2 3.7 6.1 6.5-10.3 1-20.3 1.9-30.4 2.9-.1-.7-.2-1.3-.3-2 4.1-.9 8.3-1.8 12.7-2.8-4.4-2.2-21.3 3.7-22.8 7.6l4.2 2.1c-6.9 1.8-12.6 3.4-18.3 4.9l.3 1.2 39.6-7.2c0-.3-.1-.7-.1-1-1.6-.5-3.3-.9-4.9-1.4 9.9-.7 19.7-2.6 29.1.4 0 .5.1 1 .1 1.5-2.7.6-5.4 1.1-7.9 1.7 5.8.5 11.7 1.1 17.6 1.6v1.9c-2.6.1-5.1.4-7.6.4-9.8-.1-19.7-1-29.4-.2-12 1-23.9 3.5-35.8 5.4-5.1.8-10.9 0-15 5.5 5.9-1.2 11.3-2.2 16.7-3.3 5.5-1.1 10.9-2.4 16.4-3.2 5.3-.8 10.6-1.1 15.9-1.7-8.4 5.4-19.2 3.3-26.9 10.2 7.4-1.1 14.9-2.3 22.3-3.4.2.8.3 1.5.5 2.3-6.2 1.5-12.4 2.9-18.5 4.4.1.5.2 1 .4 1.4l5.1-.6c.1.3.1.6.2.9-5.9 2.1-11.9 4.3-17.8 6.4l.3.6c5.1-.3 10.2-.6 15.4-.9 0 .4 0 .8.1 1.2-4.7 1.6-9.5 3.3-14.2 4.9.2.6.3 1.2.5 1.8h7.7c-6.3 5.3-17.6 3.5-15.2 13.3-2.7 3.4-6.4 6.1-6.4 8.7.1 5-2.3 6.3-6 8.3-2.3 1.3-3.9 4.8-4.6 7.6-.7 2.9.2 6.6-4.4 6.5-3.8-.1-7.3-.9-6.8-6.1.1-.9-1-2.3-1.9-2.8-2-1-4.3-1.9-7.5-3.4zM24 50.4V87c.4-.3.9-.5 1.3-.8 1.7 1.9 5.1 4.2 4.8 5.8-.5 2.6-3.3 4.7-5.2 7-1.2 16-1.2 32.5-1.2 49 0 11.4.1 22.9.1 34.3 0 8.6.1 17.3.1 25.9 0 8.7-.3 17.4-.3 26.1 0 5.7.3 11.5.3 17.2 0 3.2-.9 6.5-.9 9.7.2 10.4.7 20.9.9 31.3.2 9.4-.2 18.8 0 28.1.1 6.6.6 13.2 1.1 19.8.4 4.6 3.5 5.9 7.2 3.5 3.3-2.1 7-3.8 11.4-6.2V50.3c-6.8.1-13 .1-19.6.1zm300.9 238.9c12.2-2.1 23-4.6 33.9-5.6 10.7-.9 21.6-.2 33.1-.2-2.9-23.4 9.5-42.7 10.8-64.7-8.7.2-17.8-4.6-24.7 4.7-.8 1-2.4 1.7-3.8 2-9.6 2.4-19.2 5-29 6.6-3.7.6-5.6 1.7-6.5 5-3 10.7-6 21.5-8.9 32.2-1.6 6.5-3.1 12.9-4.9 20zm-41.8-165.9c2.4-1.2 5.3-2.7 8.1-4.3 14.7-8.2 28.2-18.9 45.7-21.4 10.9-1.6 21.7-3.7 32.6-5.7 2.4-.4 4.8-1.3 7.2-1.9-.1-.7-.1-1.4-.2-2.1-2.3-.4-4.8-1.5-7-1.1-9.2 1.6-18.4 3.5-27.5 5.5-3 .6-6.8 3.3-8.7 2.2-4.2-2.4-7.5-.5-11.1.5-4.9 1.4-9.8 2.9-14.7 4.4-.2-.5-.4-1-.7-1.5 7.5-3.1 15.1-6.2 22.6-9.4-.1-.7-.2-1.3-.3-2-4.7.4-9.5.8-15.9 1.4 4.3-2.9 7.4-5 12.1-8.2-4.7-1.2-8.4-2.9-12.2-2.9-4.4-.1-9 .7-13.3 2C288 82.3 276 85.6 264.4 90c-8.2 3.1-15.9 7.7-23.7 11.7-11.1 5.7-20.9 13.1-29.1 22.5-3 3.4-2.9 4.8-.5 8.6l24.6-20.4c.4.4.8.9 1.2 1.3-8.8 7.6-18.5 14.4-24.6 24.6 2.6-1.2 4.3-3.3 6.5-4.9 12-8.9 24.2-17.5 36.2-26.5 4.9-3.7 10.2-2.6 14.8-.8 2.9 1.1 4 .7 6-.8 2.9-2.3 6.1-4.3 9.2-6.4.3.4.5.7.8 1.1-3.4 2.7-6.7 5.4-10.1 8l.8.8c4.8-3.3 9.7-6.6 14.5-9.9l.9 1.5c-3.9 2.7-7.9 5.5-11.8 8.2-2.8 2-4 3.8-.9 6.9 1.9 1.9 2.5 4.9 3.9 7.9zm-20 249.5c1.7-8.1 2.9-14.9 4.7-21.5 3.5-12.8-3.2-26.3-15.8-29.5-5.8-1.4-12-1.1-16.8-1.5-1 3.5-1.8 6-2.6 8.5-.4 1.3-1.4 3.4-.9 3.9 1 1 2.8 1.2 4.3 1.4 1 .2 2.2-.1 3.2-.4 7.5-2.1 7.5-2.1 7.2 5.3 2.1-.1 4.3-.5 6.4-.2 2 .2 4 1.1 5.9 1.7-.7 2-.9 4.3-2 5.9-5.4 7.7-19.9 10.8-28.6 6.5-1.4-.7-3-.9-5.2-1.6 5 8.5-.6 16.1 1.5 23.5 9.1.8 13.6-7.4 20.7-10.9v11.7c6.3-1 12.5-2 18-2.8zM422.6 451c.9-.7 1.8-1.3 2.7-2-5.2-4.1-10.2-8.6-15.9-12.1-2-1.2-5.5.2-8.3.4-.3 0-.8-.1-1-.3-3.6-3.6-7.4-1.2-11.2-.7-2.3.3-4.8-.4-7.2-.7 0-.6 0-1.2.1-1.8-9.6 3.6-19 2.5-29.3-1.1 1.5 6.2 2.9 11.9 4.4 18.3h65.7zM23.2 372.7c.4.6.9 1.1 1.3 1.7 3.4-2.5 7-4.9 10.3-7.6 2.6-2.2 6.1-5.1 8.5-2 4.8 6 8.6 6.8 14.8 1.8 3.1-2.5 3.3-3.5.9-6-3-3.1-5.8-6.4-9-9.4-3.6-3.4-7.9-8.5-12.8-4.5-4.8 3.9-9.6 4.2-15 4.5-9.1.5-12.9 4.7-11.4 12 9.6-.1 14.7 1.4 12.4 9.5zm193.2-106.9c3.1-2.2 5.3-3.7 7.5-5.2.2.3.4.5.6.8-2.2 2.7-4.5 5.4-6.7 8.1.3.3.7.5 1 .8 2.5-1.8 5-3.5 8.3-5.8-4.5 10.3-4.5 10.3-2.8 12.7 1.5-1.9 1.6-6.4 6-3.2 4.6 3.3 9.4 6.5 14.1 9.7 5.9-6.2 5.6-12.6 5.6-18.9 0-.7-.8-1.5-1.4-2-3.9-3.4-7.8-6.8-11.8-10-5-3.9-10.9-4.3-16.8-3.7-.9.1-1.7 2.2-2.5 3.3 1.3.4 2.7 1.2 4 1.1 1.4-.1 2.7-1 4.8-1.8-1.9 6.4-11.4 5.5-9.9 14.1zm62.9-141.2c-1.6-1.4-3.8-3-5.5-5-3.1-3.5-5.6-2.1-8.1.5-.8.8-1.3 1.8-2.1 2.5-13.6 12.3-27.2 24.5-40.9 36.7-2.4 2.1-2.2 4.4 0 5.8 1.2.8 4.2.5 5.3-.4 4-3.4 7.3-7.7 11.4-10.8 13-10 26.3-19.5 39.9-29.3zm-62.5 285.2c2.2.6 4.3 1.6 6.5 1.8 7.7.4 15.2-.3 22.7-3 11.4-4 22.2-8.9 31.2-17.1 1.6-1.5 2.1-4.2 3.2-6.3-2.2 0-4.8-.8-6.5.2-9.3 5.3-18.3 11.1-27.7 16.9-.1-.6-.4-2.4-.7-3.5-5.9.8-11.9 2.3-17.9 2.3-6.1-.1-9 2.6-10.8 8.7zM18.6 211.4c.4.2.7.5 1.1.7 0-1.8.2-3.6 0-5.4-1.1-9.8-2.1-19.6-3.6-29.4-.2-1.5-3.1-2.5-6-4.6v35.2c1.9-.2 3.4-.3 4.9-.4l.6 1.2c-1.9 1.2-3.8 2.4-6 3.8 1.1 10.9-1.6 22.2 1.7 33 3.1.6 5.6 1.1 9 1.7-1.1-6.3-2.4-12.1-3.1-18-.6-5.1-.8-10.2-.9-15.4-.1-.8 1.5-1.6 2.3-2.4zm-7.9-103.8c0 3.4.2 6.6 0 9.8-.6 8.7-3.7 17.9 5.7 24.9-2.2.1-3.8.2-6 .3v26.9c2.9.3 5.9.6 10.1 1.1-.5-5.4-1.5-10.3-1.4-15.2.1-4.9-5.8-10.3 1.1-14.9.8-.5.1-3.4-.1-5.1-1.1-7.1-2.5-14.1-3.5-21.2-.5-3.9-1.9-6.5-5.9-6.6zM214.1 151c12.9-14.8 27.7-25.7 43.1-35.6-3.2 3.5-6.8 6.4-10.4 9.4-3.6 2.9-7.3 5.8-10.8 8.9-3.7 3.2-7.3 6.5-10.8 9.9-8.1 7.9-8.1 8-7.4 11.6 13.4-17.4 31.4-29 48-43-4.4-3.8-8.3-3.2-11.8-1.2-3.9 2.3-7.3 5.3-10.9 8-6.9 5.2-14.2 10-20.5 15.9-4.1 3.8-9.4 7.8-8.5 16.1zm20.2 134.6c-.5-.4-1-.8-1.5-1.3-1.2 1.4-3.5 2.8-3.6 4.3-.3 7.7-.2 15.5.1 23.2.1 1.3 2 3.5 3.2 3.6 7.6.7 15.2 1.1 22.8 1.4.8 0 2.1-.9 2.3-1.6.2-.6-.6-1.9-1.3-2.4-2.2-1.5-5.1-2.4-6.9-4.3-6.5-6.7-18-10.1-15.1-22.9zm-214.1 117c4.1 3 8.4 6.3 12.9 9.2 1 .6 4.2 0 4.3-.3.6-6.2 5.6-6.8 10.2-7.6l-.4-2c-1.9-9.6-10.6-15.3-19.8-12.7-1.1.3-2.5 1.2-2.9 2.2-1.6 3.8-2.9 7.6-4.3 11.2zm243.9-158.4c-5.6 0-9.6.1-13.6 0-4.2-.1-4.2 3.2-4.2 5.7 0 1.9 1.5 5.1 2.7 5.3 4.9.8 6.9 4.3 9 8 1 1.7 1.8 4 3.3 4.9 2.6 1.6 6.2 3.7 8.6 3.1 3.5-1 3.4-5 2.5-8.4-1-3.4-1.8-6.9-2.8-10.8-3.2 2.2-6.6 4.6-9.9 6.9-.4-.5-.9-1.1-1.3-1.6 1.7-1.6 4.2-3 5-5 .9-2.6.5-5.5.7-8.1zm-248.4 7.3c-5.3.8-6.8 4.7-5.7 12 .8 5.1.5 10.5.6 15.7.1 4.1 0 8.2 0 12.7 5.9-3 10.5-5.1 9.3-12-1.7-9.4-2.8-18.9-4.2-28.4zm-.6 41.7c-1.9 3.1-4 5.1-4.3 7.3-.7 6-.7 12-.8 18.1-.1 5.6 0 11.2 0 16.8.7.2 1.3.3 2 .5.6-.9 1-2.1 1.9-2.6 6.2-3.2 6.4-7.8 4.9-14.1-2-7.8-2.4-16-3.7-26zm187.8 50.6c2.8 9.6 2.3 13.1-2.5 15.8-1.4-2.9-2.8-5.9-4.4-9.3-.8 2.1-1.2 3.7-2 5.1-1.9 3.5-4.5 3.3-7.1.9-4-3.8-3.9-3.9-9.3-2.4 16.7 9.4 30.2 12.6 38 3-3.4-5.2-4.5-12.4-12.7-13.1zM9.7 72.3v24.9c0 6.7 2.2 8.7 9.8 8.5-.9-8.7-1.5-17.5-2.7-26.1-.6-3.3-1.5-7.2-7.1-7.3zm215 209.5c-1.3 1.5-3 3-3.9 4.8-.9 1.9-1 4.2-1.2 5.2 1.1 4.1 2.1 7.6 3.1 11.4-3 1.1-5.8 2.1-9 3.3 2.9.5 5.3 1 7.7 1.5 0 .5 0 1.1-.1 1.6-3.6 1.1-7.1 2.1-11.9 3.6 5.1 2.8 8.5 4.7 12.5 7-1.9 2.8-3.6 5.2-5.3 7.6 8-.4 8.1-.5 8.1-8.2v-37.8zm-30.8 36.3c-3 0-5.5-.3-8 .1-6 .8-9.2-2.2-9.8-8.5-.2-2.7-1.1-5.8-2.7-7.8-4.7-5.5-7.6-11.2-5-19.1-8 6.8-8.1 8-2.5 15.4 1.6 2.1 3 4.5 4.3 6.9 2.1 3.7 3.6 8 6.4 11.1 8.1 9 19.7 7.6 30 10.1.1-.4.2-.9.3-1.3-5-1-9.9-2.1-15.1-3.2.8-1.4 1.4-2.4 2.1-3.7zm208.8-159.6c4.4.8 9.1.4 10.3-3.5.7-2.2-2.3-6.7-4.8-8.6-3.7-2.8-8.5-4.3-12.8-6.3-1.3-.6-2.6-1-3.8-1.4-.4 1.5-.6 2.6-.9 3.8 1.9.3 4 .3 5.8.9 1.3.5 3.1 1.6 3.4 2.8 1.2 3.9 1.9 8.1 2.8 12.3zM263.9 377.2c-7.4 1.5-14.4 3.3-21.5 4.1-4.4.5-8.1 1.1-10.3 5.8 7.7-.4 15.1-.6 22.5-1.3 5.5-.5 9.2-4.2 9.3-8.6zM403.8 428c-1.3-3.3-3.7-4.6-7.7-3.7-2.8.7-5.7.9-8.6.7-11.5-.8-23-1.9-34.5-2.7-1.5-.1-3.1 1-4.6 1.5l.3 1.8c18.4.7 36.8 1.6 55.1 2.4zM240.2 163.3c11.1-8.3 21.3-15.9 31.4-23.5-2-.3-4-.3-5.3.6-5.9 4-11.8 8.1-17.5 12.5-4.5 3.5-8.8 7.4-13 11.3-.8.7-1.2 2.2-1.1 3.3.1.5 1.9 1.4 2.6 1.2 3.1-.9 6.1-2.1 9.1-3.2-.1-.3-.2-.7-.3-1-1.6-.4-3.1-.7-5.9-1.2zm324.2 128.4c2.9-1 5.3-1.1 6.3-2.4 1.4-1.7 2.4-4.3 2.5-6.6.1-1.2-2-3.4-3.3-3.5-2.1-.2-4.5.5-6.4 1.6-2.8 1.7-5.3 4.1-7.9 6.2 3.1 1.6 6.1 3.2 8.8 4.7zM27.9 422.1c-.1-.5-.2-1-.2-1.6-2.3.9-4.9 1.4-6.7 2.8-2.1 1.7-3.4 4.3-5.1 6.6 5.2 5.5 10 7.2 17.3 5.2-2.1-2.5-3.7-4.6-5.5-6.5-1.2-1.3-2.8-2.4-4.2-3.6 1.5-.9 2.9-1.9 4.4-2.9zM18.7 71c-1.4-7-2.8-13.7-4.2-20.7-1.5.1-3 .2-4.6.2-.2 1.8-.3 3.2-.4 4.7v6c.1 6.9 1 7.9 9.2 9.8zm152.6 250.8c-.9 1.9-1.8 3.3-2.1 4.9-1.3 6.1-2.6 12.3-3.3 18.5-.1 1.1 2.2 2.5 3.4 3.7 1.1-1.4 3.2-2.8 3.1-4.1-.3-3.3-1.6-6.5-2.6-10.1 1-.7 2.8-2.1 4.8-3.6-1.5-.8-2.6-1.4-4.2-2.3 2-1.5 3.5-2.6 5.4-4-1.7-1.1-3-1.9-4.5-3zm71-28.1c3.9 3.2 7.4 6.2 10.8 9.1.8-3 1.4-5.2 2-7.4-6.9-3.8-6.6-5.4-2.4-10.9 1.4-1.8 1.9-4.2 2.8-6.3-.3-.1-.5-.2-.8-.3-3.8 5-7.7 9.9-12.4 15.8zm310.2-19.5c-6.8-4.2-21.2-2.4-27.3 3.9 9.3.8 17.9 0 27.3-3.9zm-497.7 154c6.5 5 11 12.2 20.3 11.9-4.3-9.3-14.4-15.3-20.3-11.9zM19 335.6c-2.6 1.3-5.4 2.7-8.5 4.2v11c4.9-4.4 12.4-6.5 8.5-15.2zm544-79.5c.4 2.3.7 4.2 1 6.1-1.1.7-2.3 1.6-5.2 3.5 4.2 1.2 7.1 2.4 10.1 2.6 1.6.1 3.3-1.5 5-2.4-1.1-1.6-1.9-3.4-3.2-4.6-1.9-1.6-4.2-2.8-7.7-5.2zm-311.1-16.3c3.9.7 6.7 1.3 8.7 1.6-.5-6-1-11.9-1.5-17.9-.5-.1-.9-.2-1.4-.3-1.9 5.3-3.7 10.6-5.8 16.6zm131.6 49.1h-33.3v1.4c11.1-1.1 22.3 3.5 33.3-1.4zm-206.7-56.7c-3.8 2.4-7 4.1-10 6.3s-5.3 5.7-8.5 6.8c-2.9 1-6.6-.4-9.5-.7 3.3 5.8 12 6.6 15.5.4 2.6-4.6 6.4-7.2 11.3-8.5 1-.3 1.9-.8 3.1-1.3-.7-1.1-1.3-2-1.9-3zM16.3 369.7c-1.3-.3-3.5-.8-6.2-1.3v11.5c1.7.3 2.9.4 4.2.7 1.5.3 2.9.6 3.6.7-.6-3.9-1-7.2-1.6-11.6zm127.6-27.1c2-4.5 4-8.9 6-13.4l-2.1-.9c-3 7-6 13.9-9.6 22.4 4.1-.2 7.6.6 8.6-.6 3.7-4.5-5.5-3.8-2.9-7.5zm92.2-170.2c1.7 9 5.4 14 10.5 13.3-2-2.5-3.7-4.8-5.5-7.1 1.8-.7 3.5-1.5 5.3-2.2-.1-.2-.2-.4-.3-.7-1.4.1-2.9.2-4.3.2-.5-.6-1-1.2-1.4-1.9 1.7-.8 3.5-1.6 5.2-2.4l-.6-.9c-3.1.6-6 1.1-8.9 1.7zm-128 180.5c3.3-4.3 5.8-7.5 8.1-10.5h-11v10.4c1.7.1 3 .1 2.9.1zm189.8-107.6c-.1-.5-.2-1-.2-1.5-1.2.1-2.6-.2-3.6.3-2.7 1.6-5.3 3.5-7.7 5.5-1 .8-1.5 2.1-2.2 3.1 1.1-.1 2.2-.4 3.2-.2.9.2 1.7 1 2.6 1.6-.6-.8-1.1-1.5-1.7-2.3 3.1-2.1 6.3-4.3 9.6-6.5zm-197.9.1c5.1-7.9 1.6-22.1-6.4-23.8 7.8 6.7 5.7 15.2 6.4 23.8zM22.7 451.7c-2.1-4.5-4.9-6.4-9.2-5.2-1.1.3-2.7 2.2-2.5 2.8.5 1.2 1.9 2.7 3 2.8 2.7.3 5.4-.2 8.7-.4zm155-104.4h6.6c.4-2.4.9-4.6 1.3-6.7-6.9-2.3-7.7 1.6-7.9 6.7zM34.4 374.5c3.4 3.2 6.1 5.6 9.7 8.9-1.3-5.1-2.3-8.8-3.4-13.2-2.2 1.5-4 2.8-6.3 4.3zm21.7 39-.9 1.5c2.2 6.7 8.3 6.2 13.6 7.3-4.3-3-8.5-5.9-12.7-8.8zm529.7-131.3c-2.8 2-5.2 3.6-8.1 5.7 2.4 1.4 4.7 2.8 8.1 4.9v-10.6zm-438.5 76.9c-.5-1.1-.9-2.2-1.4-3.3-2.5 1-5 1.9-7.5 2.9.6 1.2 1.5 3.4 1.7 3.3 2.4-.8 4.8-1.9 7.2-2.9zM143 234c.2-4.3.4-7.7.6-12.1-5.5 4.3-5.5 6.5-.6 12.1zm83.7 160.4c.1.6.2 1.2.2 1.9 5.6-.7 11.3-1.4 16.9-2.1l-.3-2.1c-5.6.8-11.2 1.6-16.8 2.3zm-113.5-34.9c-1 2.3-1.9 3.9-2.5 5.5-.4 1.2-.8 2.7-.3 3.7.4.8 2.7 1.5 3.1 1.1.9-.8 1.5-2.4 1.4-3.6-.2-2.1-1.1-4.2-1.7-6.7zm160.4-56.1V292c-2.4 3.4-5 6.9 0 11.4zm-54.7 42c.8-.9 2.1-2.4 4.2-4.6-4-.2-6.8-.3-9.6-.4l1.5-.9c1.2 1.8 2.4 3.6 3.9 5.9z"/>
  <path d="M160.9 254.8c1.6-1.7 3.7-3.2 4.7-5.2 3.3-6.4 8.4-9.2 14.8-8.5.8 4.4 1.3 8.9 2.6 13.2 1.4 4.5 1.3 7.5-4.3 8-1.4.1-2.8.5-4.2 1-6.6 2-8.2 5.8-5 11.8-6.6 7.3-20.8 11.2-11.9 24.3-4.5 6.6-9.3 12.2-12.4 18.7-4.8 9.9-8.4 20.3-12.5 30.5-.2.5-.3 1.1-.7 1.4-2 2.2-14.3 1.5-17.5-1.9 5-3.2 9.9-6.2 13.8-8.6-4.2-3-9.4-6.6-14.6-10.2 0-.7.1-1.5.1-2.2 7.3-1.9 14.6-3.9 21.9-5.8-5.7-1.6-11.1-1.9-16.5.5-1 .4-1.9 1.1-2.9 1.6-8.2 4.5-8.4 8 0 14-3.8.7-7.1 1.2-11.3 2v-18.5l-.3-61.8c-6.2-8.4 3.6-14.4 3.2-21.9-.1-1.6.7-3.3.4-4.9-1.2-6.1-2.9-12.1-3.8-18.3-.4-2.7.6-5.7.7-8.6.4-10.7 1-21.5 1.1-32.2.1-9.6-.7-19.1-.7-28.7.1-10.5.9-21 1.1-31.5.1-3.2-.9-6.4-.9-9.5 0-13 .2-26.1.1-39.1 0-4.1-.6-8.3-.9-12.4-.7 0-1.5.1-2.2.1-.4 52.8-.9 105.5-1.3 158.9-8.3-4.6-12.9-3.3-12.7 3.2.1 4.4 1.4 8.7 2.3 13.1 1 4.7 2.7 9.4 3.4 14.1 1.2 8.7-.5 17.1-2.8 25.5-1 3.5-2.6 7.4 1.6 10.2.9.6 2.6 1.2 3.3.8.8-.5 1.3-2 1.4-3.2.4-3.2.6-6.5.9-9.8.5 0 1 .1 1.6.1v73.1c-2.6.2-5.2.4-7.7.7-.1.4-.1.8-.2 1.2l7.8 3c.2 3.1.3 6.2.5 10H71.8c-.7 1-1.4 1.9-2.1 2.9 1.3.2 2.5.4 3.8.6 5.9 1 11.7 2.7 17.6 3 9.3.5 10.2 1.3 8.1 10.8H77.3c-.1.6-.1 1.1-.2 1.7 7 4.1 14.9 4.3 22.2 4.1 4.9 14-5.3 19.9-13.5 26.7-16.8-12.4-19.4-13.4-25.6-9.1 5.6 3.1 11.1 5.9 16.4 9.1 1.8 1.1 4.2 3.2 4.3 5 .2 2.6-1 5.7-2.5 7.8-.5.7-4.8 0-6.1-1.2-5.6-5.6-11.8-8.3-19.8-5.8-.7-4.5-1.3-8.5-2-13.8 2.9 1.7 5.1 3 8 4.7.1-1.5.9-4.3.3-4.7-3.6-2-7.6-3.3-11.1-4.7 2.5-2.7 6.1-5.6 11.5-2 .7.5 2.7.4 2.9-.1 3.8-6.2 10.5-1.8 15.2-4.3.9-.5 1.7-1 2.6-1.5-.5-.9-.8-2.2-1.5-2.5-3.3-1.5-6.7-2.6-10.1-3.9-3.6-1.5-6.5-.8-9.4 2-.9.9-3.4.1-6.8.1 3.3-2.3 5.6-3.5 7.4-5.3 2.4-2.3 4.9-4.8 6.6-7.7.7-1.2.2-4-.9-5.1C60 354 54.4 348.6 48.9 343c-.7-.7-1.4-1.8-1.4-2.7.2-17.7.5-35.3.6-53 .1-22.6 0-45.2.1-67.7.1-14.9.4-29.7.5-44.6.1-41.4 0-82.7 0-124.9h66.4c0 45 .4 89.6-.1 134.2-.5 44.7-1.1 89.4-.9 134.1.7.1 1.4.1 2.1.2.5-.7 1-1.9 1.5-1.9 8.4-.7 3.5-4.4 1.9-7.5-.5-1.1-.5-2.4-.6-2.5 2.5-1.6 4.4-2.8 6.2-4.1 7.1-5.3 14.2-10.6 21.3-16 1.5-1.1 2.7-2.5 4.1-3.7-.5-.6-.9-1.3-1.4-1.9-9.1 6-18.2 12-27.2 18-1-5.8-2.1-12.3-3-17.9 9.8-6.1 19.6-12.1 29.3-18l-.9-1.5c-9.9.2-15.9 8.6-25.1 12.7-.9-4-2-7.8-2.7-11.7-.5-3-.6-6.1-.9-9.2-.3-3.4.7-5.8 4.6-5.6-1.6-10.1-3.1-20-4.6-29.9.5-.2 1-.4 1.5-.5l3.3 3.9c.5-.1 1-.3 1.5-.4-1.9-8.3-3.9-16.6-6.1-26.3 2.2 1.4 3.1 2 5.6 3.6-1.8-10.6-3.4-19.9-5.2-30.2 1.8 1.9 2.9 3 4 4.2.5-.1.9-.2 1.4-.3-1-5.9-2-11.8-3.1-17.9 5.6 1.7 10.6 3.3 15.7 4.7 4.3 1.2 8.7 2.4 13 3.3.9.2 2.1-.9 3.2-1.3-.9-.9-1.6-2.4-2.7-2.7-7.4-1.9-15-3.3-22.4-5.5-1.8-.5-3.7-3-4.4-5-1.5-4.6-2.2-9.5-3.3-14.2-.1-.5-.5-1.4-.3-1.6 5.5-4.4-.6-9.3.6-13.4 11.3 3.9 22.7 7.9 34 11.8.3-.7.5-1.4.8-2-7.1-2.8-14.3-5.7-21.4-8.5-1.2-.5-2.3-.9-3.5-1.4-9.6-3.6-10.7-6.5-9.6-18.7 11.5 5.7 22.6 12.4 35 15.9.3-.5.5-1.1.8-1.6-3.4-1.8-6.7-3.6-10.1-5.3-5.7-2.7-11.2-5.8-17.2-7.8-8.8-2.9-7.8-10.6-8.7-16.9-.9-5.6-.2-11.4-.2-17.8 11.2 7.7 22.1 15.1 32.9 22.4.3-.5.6-.9 1-1.4-7.2-5.4-14.2-10.9-21.5-16-3.6-2.5-7.9-4.1-11.3-6.8-1.5-1.1-1.9-4-2.1-6.2-.3-2.3.2-4.7.3-7.8h37.6V100c-11.5-6.7-22.6-13.1-33.7-19.6l-1.5 2.7c8.3 4.8 16.5 9.7 24.8 14.4 2.9 1.6 7 1.9 9 4.2 2 2.2 2.6 6.1 2.7 9.3.4 6.9.1 13.9.1 20.9 0 4.7-.1 9.4.2 14.1.3 3.7 1.3 7.4 1.6 11.2.3 3.5.3 7 .2 10.6-.2 6.2-.8 12.4-.8 18.7 0 3.9.5 7.9 1.2 11.8.1.8 2 1.4 3 2.1.6-.2 1.2-.5 1.8-.7-1.6-49.5-3.2-99-4.9-149.1h23c14.2 0 28.4-.2 42.5-.1 8 .1 15.9 1 23.9.9 6.8-.1 13.7-1 20.4-2 1.2-.2 2.7-3 2.8-4.7.3-8.4.2-16.8.2-25.2v-8.3h8.2c91.4 0 182.7 0 274.1-.1h25c3.8 0 5.3 1.4 5.2 5.6-.3 34.5-.5 69-.5 103.5 0 43.4.2 86.9.3 130.3v19.1c-6.3-5.6-11.1-9.9-16.3-14.5 2-1.2 4.3-2.5 7.8-4.6-3.6-3.7-6.6-6.7-9.9-10.1 5.1-4.2 0-7.6-1.8-10.8-2.9-5.1-5.3-9.7-3.1-15.8.6-1.7-1.5-4.2-1.9-6.5-1.2-6.7-2.1-13.5-3.2-20.6-.5.9-1.1 1.7-1.4 2.5-1.1 4.2-1.9 8.5-3.3 12.6-1.7 5.4-3.9 10.3-2.4 16.4.7 2.9-2.2 6.6-3.9 11.3 2.1 6.5-6.2 10.3-8.6 18 1.8 1.3 4.3 3 6.6 4.7-1.1 3.7-8 5-3 8.9-3.3 2.2-6.3 4.3-7.9 5.5-5.4-.3-9.6-.4-13.8-.7-3.5-.3-6.9-.9-10.2-2.1 6.1-2.7 6.1-3.5 2.1-8.5-1.4-1.7-.8-5.1-2.2-6.8-6.1-7.2-7.3-15.4-6-24.3.1-.5-.6-1.2-1.1-2-3.9 2.4-3.2 5.7-3.1 9.1.1 3.5-1.2 7.1-.9 10.5.4 4.9-3.2 5.7-6.2 7.5-5 3-5.3 5.4-.9 9.8-4.7 1.8-7.1 4.6-3.1 10.7-4.7 1.3-8.6 2.7-12.7 3.3-9.1 1.4-18.2 2.7-27.4 3.3-8.9.6-17.9 0-26.9.3-3.4.1-6.7 1.5-9.9 2.5 27.5 2.4 54.6 2.4 81.4-5.9-.9 3.3-1.5 5.2-2.1 7.1 2.1.2 4.1.5 6.5.8-.1 1.3-.2 2.9-.3 4.2 2.9 1.6 5.6 3.2 8.6 4.9 1-1.6 1.9-3 2.8-4.4 1.6.1 3.3.3 5.8.5-2.4-5.4-3.3-9.5 3.5-10.6.6-.1.6-3.9 1.2-7.6 2.6.3 6.1.8 9.9 1.3-3.8 3.4-8.1 5.5-9.7 8.9-3.2 6.8-2.6 7 .7 10.6-5.8 1.4-11.9 2.4-14.4 8.8-.3.7.9 2 1.9 3.9 3-8.9 10.1-8.3 16-9.9 2.5-.7 5.1-.8 7.7-1.2.2-.6.3-1.3.5-1.9-3-1.5-5.9-3.1-9.3-4.8 10.9-3.6 23.4-.5 33.4-9.7-2.1-2.2-4.2-4.3-6.5-6.7.7-1 6.1-2.2 0-4.9-1.6-.7-4.7-4.4-1.4-7.9.6-.7-.3-3.3-1.1-4.7-.8-1.3-2.3-2.1-4.3-3.7 5-2.9 9.5-5.4 13.9-8-1.7-5.9-5.6-11.4-.9-17.1 2.2 4.7 4.4 9.3 6.7 14.3.4 2.4.1 5.8 1.6 8.1 1.5 2.2 4.8 3.2 7.9 5-3.2.8-6 .7-7.8 2-4.8 3.5-5.7 9.3-7.1 14.7-.3 1.1 1 3.3 2.2 4 8.1 5.2 16.7 3.1 26.2 2.1v6.6c-9.1-5.3-26.9-.9-34.9 8.2 4.9 8 9.2 9.8 19.8 7.9 4.2-.8 8.1-2.1 11.4 1.9.5.6 2.1.4 3.7.6v23.5c-22.6-3.1-44.5-6-66.7-9 .5-.7 1-1.4 1.4-2-5.6-3.3-12-3.6-15.4.1h10.6c-.9 1.5-1.4 2.3-2.4 3.9 7.7 1.4 15.1 2.7 22.4 4.1 7.3 1.4 14.4 3.2 21.7 4.3 4.2.6 8.5-.3 12.7.1 4.7.4 9.3 1.3 13.8 2.6 1 .3 1.8 3.3 1.8 5 .1 21.4.1 42.7.1 64.1v33.2c-7.7 0-14.9.3-22-.1-4.3-.2-8.5-1.7-12.9-2-3.4-.2-7 .7-10.4.9-3.9.1-7.8.2-11.7-.2-5.1-.6-10.2-2-14.7 2.1-.8.7-3.1-.3-4.6-.2-2.2.2-4.4 1.1-6.5 1-3.8-.2-7.6-.8-11.5-1.4-3.7-.5-7.4-1.2-11.1-1.8-.2.5-.3 1.1-.5 1.6.6.6 1 1.6 1.7 1.8 7.9 2.4 15.8 4.7 23.8 6.9.9.3 2.4.2 3.1-.4 3.8-3.1 7.9-2.8 12.3-1.6 1.1.3 2.9-1.4 4.3-2.2-.1-.7-.1-1.3-.2-2 7.1 1.6 14.3 3.3 21.5 4.9 1.1.2 2.3-.2 3.4-.3-.2-1.7-.3-3.4-.4-4.4 11.7.9 23.8 1.9 36.6 2.9 0 5.7.2 11.5-.1 17.3-.1 1.3-1.9 3.4-3.1 3.5-6.8.4-13.7.4-20.5.3-8.2-.1-16.5-.6-24.7-.7-17.6-.2-35.3-.2-53-.2-17.1 0-34.2-.1-51.3 0-2.9 0-5-.3-4.4-3.5 7.1-.6 13.8-1.3 20.5-1.9 1 .9 2.2 3.1 3.1 2.9 7.5-1.2 15-2.7 22.4-4.2 0-.5-.1-1.1-.1-1.6-1.3-.2-2.6-.3-3.9-.5-2-.4-4-.8-6-1.3-1.1-.2-2.3-.8-3.2-.5-7.5 2.4-14.6-.6-21.9-1.5-3.2-.4-6.5.1-9.7.7-7.6 1.2-11.1-.2-15.4-6.7-1.7-2.6-3.3-5.2-5.2-7.6-4.5-5.7-10.2-7.5-17.7-7.3-13.1.4-26.2-1.2-39.3-.8-6.8.2-7.4-4.7-9.4-8.4-2.2-3.9-3.4-8.4-5.3-12.6-2.6-5.6-6.4-9.2-13.4-8.9-10.7.4-21.4.1-32.2.3-1.7 0-3.3.9-4.9 1.5.2 1 .3 2 .5 2.9h26.7c5 0 10.1-.5 15 .1 1.5.2 3.2 2.7 3.9 4.5 1.7 4.5 2.7 9.2 4.4 13.7 3.6 9.6 7.4 19 11.4 29.1h-35.8c-9.7 0-19.4.1-29.1.3-9.6.2-19.2.5-28.8.7-11.4.2-22.9.2-34.4.3-11.6.1-23.3.1-34.9.3-11.4.2-22.7 1.2-34.1 1-19.9-.3-39.9-1.2-59.8-1.7-4.1-.1-8.2.5-11.1.7-2.9-6.3-5.5-11.8-7.9-17.1 4.3.4 6.7-3.5 8.9-7.4 2-3.6 3.3-7.5 5.2-11.1.6-1.1 2.3-1.5 3.4-2.4 5.6-4.3 11.2-8.7 16.9-12.9 1.4-1 3.2-1.5 4.8-2.3-.7-.8-1.3-1.7-2-2.5-1.9.6-3.7 1.2-5.7 1.9-.2-.5-.7-1-.6-1.4.5-3.4 1.1-6.8 1.7-10.2 4.2 1.8 9.1-1.4 13.3 3.4 4.4 5 10.7 6.8 17.3 2-.6-1.2-1.2-2.6-1.9-4 .2-.3.5-.5.7-.8 1 .7 2.1 1.3 2.9 2.2 3.3 3.7 7.4 4 11.9 3.1 1.9-.4 4-.5 5.7.1 4.7 1.4 8.9-1.9 8.1-6.8 1.5-.5 3-1 4.4-1.6 1.3-.5 2.6-1.1 4-2.9-2.1-.5-4.1-.9-6.2-1.4-.2-5.5-1.3-6.8-9.2-9.2 2.4 2.9 4 4.7 6.6 7.9-6.5.9-11.9 1.9-17.4 2.3-3.6.3-7.5-1.1-10.8-.1-7.6 2.2-10.7-4.3-15.6-7.2-.7-.4-1.2-2.3-.9-2.9.5-.9 1.9-1.6 3-1.7 2.7-.2 5.4-.1 7.5-.1 1.9 2.7 3.4 5.7 5.7 7.8 3.7 3.3 7.5 2.7 11-1 2.8-3 5.9-5.8 8.9-8.7 2.8-2.6 11.3-1.5 16 .9 7.8 4 16 7.6 24.2 10.7 6.2 2.4 12 .6 17.3-3.3 1-.7 2.2-1 3.1-1.5 3.4 9.4-1.2 17.3-3.9 25.5-2.2 6.5-1.9 7 4.8 9.3.7.2 1.4 2 1.3 2.8-.2 1.2-1.2 2.3-2 3.2-3.9 3.9-7 8-2.3 14.6h-22.9c1.3-4.9-2-4.3-5.3-4.4-3 0-6-.8-9.1-.8-4 0-7.9.6-11.9.8-1.3.1-2.7-.4-4.1-.5-4.5-.4-9.1-.9-13.6-1.2-2.8-.2-5.5-.2-8.3-.2-3.6 0-7.3-.2-10.8.4-7.5 1.4-14.9 3.2-22.3 5.1-2.4.6-4.5 2.1-6.7 3.2.2.7.5 1.4.7 2.1 4.3-.7 8.6-1.4 13-2.1.5 8.2 6.1 2.1 9.4 3-1.2 3.4-.4 5.2 3.5 4 2.8-.9 5.4-2.2 8.2-2.6 1.7-.2 3.6 1.4 5.4 1.6 3.3.2 6.7.6 9.8-.3 3.6-1 6.9-3.9 9.4 1.3.1.2.7.4 1 .3 8.4-.9 17.1 2.6 25.1-2.2 1.1-.7 2.6-.8 5.3-1.5-2.2 2.1-3.3 3.1-4.4 4.1.2.6.3 1.1.5 1.7 7.1-1.5 14.1-3 21.5-4.6-.1 1-.1 1.9-.3 3.6 6.3-1.3 12.4-2.5 18.8-3.8l-1.2 4 6.5-1.3c4.5-.8 8.8-4.1 13.6-.8.2.1.7-.1 1.1-.1 8.9-1.1 17.7-2.2 26.6-3.2 5.7-.7 11.4-1.2 17.5-1.8-5.2-6.6-19.3-6.4-35.5.1v-4.8c-3.8.6-7.4 1.5-11.1 1.8-3.2.2-6.5-.3-9.8-.4v-1.6c4.8-.9 9.5-2 14.3-2.7 16.6-2.3 27.7-12.6 36.4-25.9 1.4-2.1 1.3-6.1.4-8.6-.4-1-4.9-.8-7.5-.7-2.5.1-4.9.7-7.8 1.2 1.8-10.3 5.1-20.4 5-30.4-.2-13.3 10.9-14.5 17.9-20.1 4-3.2 7.6-6.2 6.7-11.9-.1-.4.1-.9-.1-1.1-8.2-8.6-.7-16.1 2-23.7 4.3-11.8 6.4-23.7 4.5-36.2-.5-3.5-.1-7.2-.1-10 7.5.5 14.4 1 21.3 1.3 3 .2 4.8.6 3.7 4.5-3.2 11.7-6.2 23.4-9.2 35.2-1.2 4.8.2 6.3 5.8 6.3 13.3-.1 26.6-.3 39.8-.2 5.1 0 10.2.7 15.3 1 1.4.1 4 .1 4.1-.4 1.8-7.5 10.5-10.3 10.8-19.8.4-12.8 4.2-25.6 6.7-38.3 1.3-6.4 2.9-12.7 4.4-19 .9-3.6-1.5-3.4-3.7-3.4-6.6 0-13.1 0-19.9-.3 4.5-2.2 9.9-4.8 8.2-10.3-1.2-3.8-5.8-6.4-10.1-10.9 1.3-1.9 3.5-5.5 5.9-8.9 4.3-6 8.6-11.9 13.1-17.7 1.1-1.5 2.9-2.5 4.6-3.4 3.5-1.8 7.4-2.9 10.7-5 4.1-2.6 4.5-11.2.2-14.5-5.1-4-10.6-7.8-16.5-10.1-10.4-4-19.9-9-28.7-15.9-7.4-5.8-16.2-10-24.4-14.9-.6-.4-1.1-.8-2.3-1.7 4.4-4 9.7-3.8 14.6-4.6 6.3-1 12.6-1.5 18.9-2.3 5.1-.7 5-4.5 4.8-8.3-.3-4.2-3.8-4.1-6.4-3.8-11.3 1.2-22.9 1-33.3 6.3-4 2.1-5.6.5-7.6-2.9-2.4-4-5.3-8-8.9-10.8-3.4-2.6-7.6-3.7-12.7-2.8-18 3.2-35.8 7-52.5 14.5-3.2 1.4-4.5.2-6.3-1.7-4.2-4.4-9.5-5-12.9-1.6-1 1.1-2.3 2.9-2.1 4 .3 1.1 2.4 1.8 3.7 2.5 1.4.7 2.9 1.1 5.7 2.1-5.4 3.3-9.8 5.9-14.1 8.6-5.5 3.4-11.3 6.5-16.3 10.6-5.1 4.2-9.5 9.3-13.7 14.4-3.7 4.5-2.9 9.3-.2 14.3 1.6 3 2 6.6 2.8 10 2 8.8 6.3 16.3 13.4 21.6 1.9 1.5 5.6.5 8.9.7-.6 14 11.2 23 16.9 34.9-.3.5-.7 1.1-1 1.6-3.3-1.2-6.7-2.1-9.8-3.6-8.5-4.1-16.9-8.5-25.2-12.9-11.2-5.9-21.7-3.9-32 2.2-12.1 7.3-24.2 14.6-36 22.3-5.4 3.5-12 7.9-9.1 15.5 2.9 7.7 7.2 15.2 12.4 21.5 3.3 3.5 9.6 3.5 14.7.7-3.7 5-2.8 16.9 2.3 21.6 1.6-7.7.7-14.7-2.3-21.6zm308.7 85.3c-2.9 6.6-9.1 10.8-14.5 15.6-.5.5-2.8-.8-4.1-1.6-1.4-.9-2.6-2.1-3.9-3.2-1 1.5-2 3-3.7 5.8-10.2-4.5-21-9.2-31.6-14.1-10.7-4.9-21.8-9.1-31.7-15.3-9.6-6.1-17.7-14.3-26.7-21.8 1.1 4.5 1.1 8.9 3.2 11.9 3.7 5.3 8.5 9.8 13.1 14.3 2.2 2.2 5.1 3.7 7.6 5.5-6.9 8-10.3 8.8-17.9 3.7-2.9-1.9-5.4-2.3-8.5-.6-2.4 1.3-4.9 2.6-7.5 3.3-1.7.5-4.6.6-5.5-.3-4.7-5.5-10.8-3.9-16.4-3.2-6.4.8-10.4 6.2-9 10.8 1.6 5.2 11.4 12.9 17.1 12.9 5.1 0 10.1-.2 14.4 3.7 1.4 1.2 4.3 1.7 6.2 1.3 5.8-1.4 11-.1 16.3 2.1 1.9.8 4.5 0 6.6.5 5.3 1.1 11 .3 15.7 4.5 10 8.9 21.8 14.2 35.2 15.5 3.5.3 5.5 1.7 6.1 5.5 1.4 9.2 5.6 17 12.2 23.7 11.3 11.5 15.2 11.7 30.1 6.4 9.9-3.6 13.1-13.3 21.1-18.2-6-8.9-10.6-10.2-20-5.7-3.2 1.5-5.4 1.5-7.6-1.3-3.9-4.9-7.9-9.7-12.6-15.5 3.8-1.2 5.9-1.9 8.1-2.6 1.1-.4 2.7-.3 3.3-1.1 3.7-4.1 8.8-5.2 12.9-1.7 2.8 2.4 5.2 5.5 6.9 8.8 3.7 7.2 12.6 10.4 18.9 5.8-1.2-1.5-2.5-3-3.4-4.6-2-3.4-4.1-6.8-5.5-10.5-.4-1 1.7-4.3 2.3-4.2 5 .7 10.2 1.3 14.7 3.3 16.6 7.3 29.7 5.1 42.4-7.8 1.1-1.2 2-3.8 1.5-5.1-.5-1.2-3-1.6-4.8-2.1-1.3-.4-2.8-.2-4.2-.6-5.6-1.4-11.1-3.2-16.8-4.4-7.5-1.7-11.9-11.4-7.1-19.1-5.9-4.6-12-9.2-18.1-13.9-.8-.6-1.8-1.3-2.3-2.2-4.4-7.4-8.6-15-13.2-22.2-4.2-6.5-10.3-8.5-17.9-6.5-2.9.8-5.7 1.7-8.6 2.4-10.8 2.9-21.3 6.3-29.1 14.8-1.4 1.5-2.7 4.8-2 6.1 1.9 3.3 4.3 7.1 7.6 8.6 9.6 4.6 19.6 8.2 30.7 12.6zm49.7-37.7c3.8 5.2 9 7.5 15.3 8 5 .4 9.9 1.9 14.9 2.4 3.3.3 6.7-.3 10-.5 1.6-.1 3.2-.1 4.8.2 1.5.3 2.8 1.2 4.2 1.8.5-1.7 1.1-3.4 1.5-4.7 4.8-2.5 9.2 4.8 15.7.2-3.3-1.6-5.4-2.6-7.6-3.6 2.4-2.5 8-4 3-10-1.8 4.8-4.7 4.6-8 2.9-4-2.1-5.5-.1-5.5 4.3-4.4-1.5-8.3-2.9-12.2-4.2-3.9 9.3-10.9-.5-15.7 2.7.1 1.3.2 2.5.3 4.9-7.3-1.5-14-2.9-20.7-4.4zm-402.6 85.8c.2.7.5 1.4.7 2.1 9.4 0 18.7-.1 28.1 0 18.1.3 36.2.7 54.3.9 1.7 0 3.5-1.7 5.3-2.7-1.7-.9-3.4-2.5-5.1-2.5-10.7 0-21.5.6-32.2.5-5.2 0-10.3-1.4-15.5-1.4-10.2 0-20.4.4-30.6.9-1.8.1-3.4 1.5-5 2.2zm300.7 7.3-72-3.9c0 .7-.1 1.4-.1 2.1 23.8 4.3 47.9 4.3 72.1 1.8zm20.6 34.1c.1-.5.3-1 .4-1.5-10-7.8-11.9-7.9-17.9-1.4-1.4-.6-2.8-1.3-4.3-1.8-1.4-.5-2.8-.7-5.3-1.2 8.1 9.1 16.5 10.4 19 3.8 2.7.6 5.4 1.3 8.1 2.1zM155.3 174.9c.2-.5.3-1 .5-1.5-1.1-.4-2.2-1.1-3.3-1.2-3.6-.2-7.2-.2-10.8-.1-4.9.1-9.8.2-14.7.7-1.1.1-2 1.7-2.9 2.7 1.1.7 2.3 2 3.3 2 9.2-.8 18.6-1.7 27.9-2.6zM123.8 131c4.7 7.7 23.4 14.8 30.6 11.8-10.8-4.1-20.7-8-30.6-11.8zm1.9 68.5c11.2-.4 20.6-4.3 31.4-8.5-7.7-2.1-27.9 3.5-31.4 8.5zm220.1 182c-.1 1-.2 1.9-.3 2.9 11 1 22 2 33 3.1.1-.8.2-1.5.2-2.3-10.9-1.2-21.9-2.4-32.9-3.7zm90.9-84.2c-6.5-3.3-28.5-3.2-31.4 0h31.4zM133.5 57.7c-.3.4-.7.9-1 1.3 3.1 2.5 6 5.2 9.2 7.4 7.9 5.5 8 5.5 10.3 4.2-6.2-4.3-12.4-8.6-18.5-12.9zm-10.1 191.5c.4.6.7 1.3 1.1 1.9l10.2-5.7c-.3-.6-.7-1.2-1-1.9-3.5 2-6.9 3.9-10.3 5.7z" fill="#fff"/>
  <path d="M244.8 188.4c3.2 1.6 5.4 2.5 7.5 3.7.9.6 1.9 1.9 1.9 2.8-.5 5.2 3.1 6 6.8 6.1 4.6.1 3.7-3.5 4.4-6.5.7-2.8 2.3-6.3 4.6-7.6 3.6-2 6.1-3.3 6-8.3 0-2.6 3.7-5.2 6.4-8.7-2.5-9.9 8.9-8 15.2-13.3h-7.7c-.2-.6-.3-1.2-.5-1.8 4.7-1.6 9.5-3.3 14.2-4.9 0-.4 0-.8-.1-1.2-5.1.3-10.2.6-15.4.9l-.3-.6c5.9-2.1 11.9-4.3 17.8-6.4-.1-.3-.1-.6-.2-.9l-5.1.6c-.1-.5-.2-1-.4-1.4 6.2-1.5 12.4-2.9 18.5-4.4-.2-.8-.3-1.5-.5-2.3-7.4 1.1-14.9 2.3-22.3 3.4 7.6-7 18.4-4.8 26.9-10.2-5.3.5-10.6.9-15.9 1.7-5.5.8-11 2.1-16.4 3.2-5.4 1.1-10.7 2.1-16.7 3.3 4.1-5.5 9.9-4.7 15-5.5 11.9-1.9 23.8-4.3 35.8-5.4 9.7-.8 19.6.1 29.4.2 2.5 0 5.1-.3 7.6-.4v-1.9c-5.9-.5-11.8-1.1-17.6-1.6 2.5-.5 5.2-1.1 7.9-1.7 0-.5-.1-1-.1-1.5-9.5-3-19.2-1.1-29.1-.4 1.6.5 3.3.9 4.9 1.4 0 .3.1.7.1 1l-39.6 7.2-.3-1.2c5.7-1.5 11.4-3.1 18.3-4.9l-4.2-2.1c1.6-4 18.4-9.9 22.8-7.6-4.5 1-8.6 1.9-12.7 2.8.1.7.2 1.3.3 2 10.1-1 20.1-1.9 30.4-2.9-.9-2.8-8.2-.3-6.1-6.5h-7.4c-.1-.3-.2-.5-.2-.8 2.4-1.2 4.9-2.4 6.8-3.3 17.5 11.9 34.7 23.7 51.5 35.1-3.6.8-7.7 1.8-11.8 2.8-4 1-6.4-.2-6.1-4.7-5.5 1.6-5.7 3.6-1.7 9.6-3.6 5.3-2 9.2 5 10.2 6.9 1 13.9.9 20.8 1.3 1.1.1 2.1.2 3.5.4-.4 1.1-.4 2.2-1 2.6-1.3.9-2.9 1.5-4.3 2.2 1.3 1.1 2.6 2.1 4.6 3.8-2.7 4-5.3 8.5-8.4 12.6-3.2 4.4-7.1 8.3-10.1 12.7-3.7 5.4-2.3 8.9 3.8 11.1 1.3.5 3 .5 4 1.4.8.7 1.3 2.3 1.2 3.4-.1.6-1.5 1.5-2.5 1.6-1.4.3-2.9.3-4.4 0-4.3-.7-5.1 1.5-4.6 5.1.9 7.2.4 7.8-6.9 9.2-10.9 2.1-21.9 4.3-32.8 6.6-1.6.3-3 1.7-4.4 2.6 1.2 1.4 2.3 2.7 4.1 4.7-.5 1.6-1.4 4.1-2.2 6.6-14.6 1.5-27.8-4.4-41.2-7.9-3.3 10.1-13.8 13.7-22.9 10.3-1-.4-2.2-2.1-2.3-3.2-.5-6.8-.7-13.7-1.1-20.5-.2-2.3-.1-5.1-1.4-6.8-4.8-6.7-10.2-13.1-15.3-19.7-1.3-2.2-2.2-4.4-3.8-7.2zM303 179c-.3-7-7.8-12.7-12.5-9.6-5.9 3.9-9.1 10-9.9 17.2-.8 6.9 3.5 11 8.6 14.3 4.9 3.2 6.7 2.5 10-3.3-2.1-1.2-4.3-2.5-6.4-3.7-6-3.5-8.1-9.9-5.3-16.2 2.3-5.1 6.5-5.9 11-2.3 1.4 1.3 2.8 2.3 4.5 3.6zm68.8 14.9c-1.6-2.3-2.4-4.1-3.7-5.4-.3-.3-2.7.4-2.9 1.1-2 4.9-3.9 9.9-5.4 15-.4 1.2.8 2.9 1.3 4.3 1.4-.6 3.5-.8 4.1-1.8 2.4-4.3 4.4-8.8 6.6-13.2zM334.6 126c0 .8-.1 1.6-.1 2.3h28.1v-1c-9.4-.3-18.7-.8-28-1.3zm31.4 45.7c2.4.7 5 1.6 7.7 2.2 1.1.2 2.7.3 3.3-.3.6-.6.4-2.4 0-3.3-2.9-5.2-7.5-4.2-11 1.4zM24 50.4h19.6v287.4c-4.5 2.4-8.1 4.1-11.4 6.2-3.7 2.3-6.8 1-7.2-3.5-.5-6.6-1-13.2-1.1-19.8-.2-9.4.1-18.8 0-28.1-.2-10.4-.7-20.9-.9-31.3-.1-3.2.8-6.5.9-9.7.1-5.7-.3-11.5-.3-17.2 0-8.7.2-17.4.3-26.1 0-8.6 0-17.3-.1-25.9 0-11.4-.1-22.9-.1-34.3 0-16.5 0-33.1 1.2-49 1.8-2.3 4.7-4.5 5.2-7 .3-1.6-3.1-3.8-4.8-5.8-.4.3-.9.5-1.3.8V50.4z" fill="#fff"/>
  <path d="M324.9 289.3c1.8-7.1 3.3-13.5 5-19.9 2.9-10.8 6-21.5 8.9-32.2.9-3.3 2.8-4.4 6.5-5 9.8-1.6 19.3-4.3 29-6.6 1.4-.3 3-.9 3.8-2 6.9-9.3 16-4.4 24.7-4.7-1.3 21.9-13.7 41.3-10.8 64.7-11.5 0-22.4-.7-33.1.2-11 .9-21.8 3.5-34 5.5zm38.7-14.1 1.5 1.8c8.6-6 17.2-11.9 25.9-17.9l-1.2-1.8c-8.8 6-17.5 11.9-26.2 17.9zM283.1 123.4c-1.4-3-1.9-6-3.7-7.8-3.1-3.1-2-5 .9-6.9 3.9-2.8 7.9-5.5 11.8-8.2l-.9-1.5c-4.8 3.3-9.7 6.6-14.5 9.9l-.8-.8c3.4-2.7 6.7-5.4 10.1-8-.3-.4-.5-.7-.8-1.1-3.1 2.1-6.3 4.1-9.2 6.4-2 1.6-3.2 1.9-6 .8-4.6-1.8-9.9-2.9-14.8.8-12 9-24.2 17.6-36.2 26.5-2.1 1.6-3.9 3.7-6.5 4.9 6.1-10.2 15.8-17 24.6-24.6-.4-.4-.8-.9-1.2-1.3l-24.6 20.4c-2.5-3.8-2.5-5.3.5-8.6 8.2-9.4 18-16.8 29.1-22.5 7.9-4 15.5-8.6 23.7-11.7 11.6-4.3 23.6-7.7 35.5-11.1 4.3-1.2 8.9-2.1 13.3-2 3.8.1 7.5 1.7 12.2 2.9-4.6 3.2-7.8 5.3-12.1 8.2 6.4-.6 11.1-1 15.9-1.4.1.7.2 1.3.3 2-7.5 3.1-15.1 6.2-22.6 9.4.2.5.4 1 .7 1.5 4.9-1.5 9.8-3 14.7-4.4 3.6-1 6.8-2.8 11.1-.5 1.9 1.1 5.7-1.6 8.7-2.2 9.1-2 18.3-3.9 27.5-5.5 2.2-.4 4.6.7 7 1.1.1.7.1 1.4.2 2.1-2.4.6-4.8 1.5-7.2 1.9-10.9 2-21.7 4.1-32.6 5.7-17.5 2.5-31 13.2-45.7 21.4-3.1 1.5-6 3-8.4 4.2zM263.1 372.9c-5.5.8-11.6 1.7-18 2.7v-11.7c-7.2 3.5-11.7 11.7-20.7 10.9-2.1-7.3 3.5-15-1.5-23.5 2.1.6 3.8.9 5.2 1.6 8.8 4.3 23.3 1.2 28.6-6.5 1.1-1.6 1.4-3.9 2-5.9-2-.6-3.9-1.4-5.9-1.7-2.1-.2-4.2.1-6.4.2.3-7.3.3-7.3-7.2-5.3-1 .3-2.2.6-3.2.4-1.5-.2-3.3-.5-4.3-1.4-.5-.5.5-2.6.9-3.9.7-2.5 1.5-5.1 2.6-8.5 4.9.4 11.1 0 16.8 1.5 12.6 3.2 19.3 16.7 15.8 29.5-1.8 6.7-3 13.5-4.7 21.6zM249 355.8c-.4-.5-.8-1-1.2-1.4-7.5 5.7-15 11.3-22.5 17 .4.5.8 1.1 1.2 1.6 8.8-4.2 16.8-9.3 22.5-17.2zM422.6 451h-65.7c-1.5-6.4-2.9-12.1-4.4-18.3 10.3 3.6 19.7 4.6 29.3 1.1 0 .6 0 1.2-.1 1.8 2.4.3 4.9 1 7.2.7 3.8-.5 7.6-2.8 11.2.7.2.2.7.3 1 .3 2.8-.2 6.4-1.6 8.3-.4 5.6 3.5 10.6 8 15.9 12.1-.9.7-1.8 1.3-2.7 2zM23.2 372.7c2.2-8.1-2.8-9.6-12.5-9.6-1.5-7.3 2.3-11.5 11.4-12 5.4-.3 10.2-.6 15-4.5 5-4 9.2 1.1 12.8 4.5 3.1 3 6 6.3 9 9.4 2.4 2.5 2.2 3.5-.9 6-6.2 5-10 4.1-14.8-1.8-2.4-3-5.9-.1-8.5 2-3.3 2.7-6.9 5.1-10.3 7.6-.3-.5-.7-1.1-1.2-1.6zM216.4 265.8c-1.5-8.7 8.1-7.8 9.7-14.2-2.1.9-3.5 1.8-4.8 1.8-1.3.1-2.7-.7-4-1.1.8-1.2 1.6-3.2 2.5-3.3 6-.6 11.9-.2 16.8 3.7 4.1 3.2 7.9 6.6 11.8 10 .6.5 1.4 1.4 1.4 2 0 6.3.3 12.7-5.6 18.9-4.7-3.2-9.4-6.3-14.1-9.7-4.4-3.2-4.5 1.3-6 3.2-1.6-2.4-1.6-2.4 2.8-12.7-3.3 2.3-5.8 4-8.3 5.8-.3-.3-.7-.5-1-.8 2.2-2.7 4.5-5.4 6.7-8.1-.2-.3-.4-.5-.6-.8-2 1.6-4.2 3.1-7.3 5.3z" fill="#fff"/>
  <path d="M279.3 124.6c-13.5 9.8-26.9 19.3-39.9 29.2-4.2 3.1-7.4 7.5-11.4 10.8-1.2 1-4.1 1.2-5.3.4-2.2-1.4-2.4-3.7 0-5.8 13.7-12.2 27.3-24.4 40.9-36.7.8-.7 1.4-1.7 2.1-2.5 2.5-2.6 5.1-4 8.1-.5 1.7 2 3.9 3.6 5.5 5.1zM216.8 409.8c1.8-6.2 4.7-8.9 10.8-8.9 6 0 12-1.5 17.9-2.3.2 1.1.5 2.9.7 3.5 9.4-5.8 18.4-11.5 27.7-16.9 1.7-1 4.3-.2 6.5-.2-1 2.1-1.5 4.8-3.2 6.3-9 8.2-19.7 13.1-31.2 17.1-7.5 2.6-15 3.4-22.7 3-2.2.1-4.3-.9-6.5-1.6zM201.6 195.1c3.2.9 6.7 1.4 9.7 2.8 8.8 4.1 17.4 8.6 27.6 13.7-8.4 4.3-16.1 8.2-23.8 12.1l-.6-.6c1.5-2 2.9-3.9 4.4-5.9-.3-.4-.5-.7-.8-1.1-4.1 1.9-8.2 3.7-13.6 6.2 3-4 5.2-6.8 7.9-10.4-12.4-4.9-12.7 8.3-19.2 10.9.4-7.3 2.6-14.1 7.1-20.4 1.3-1.9 1-4.9 1.4-7.4l-.1.1zM18.6 211.4c-.8.8-2.3 1.6-2.3 2.4.1 5.1.2 10.3.9 15.4.7 5.9 2 11.7 3.1 18-3.4-.6-5.9-1.1-9-1.7-3.3-10.8-.6-22.1-1.7-33 2.2-1.4 4.1-2.6 6-3.8l-.6-1.2c-1.5.1-3 .3-4.9.4v-35.2c2.9 2.1 5.8 3.1 6 4.6 1.5 9.7 2.5 19.6 3.6 29.4.2 1.8 0 3.6 0 5.4-.4-.2-.8-.4-1.1-.7zM10.7 107.6c4 .1 5.3 2.7 5.9 6.5 1 7.1 2.4 14.1 3.5 21.2.3 1.7.9 4.6.1 5.1-7 4.6-1.1 10-1.1 14.9-.1 4.9.9 9.8 1.4 15.2-4.3-.5-7.2-.8-10.1-1.1v-26.9c2.2-.1 3.8-.2 6-.3-9.3-6.9-6.3-16.1-5.7-24.9.2-3.1 0-6.3 0-9.7z" fill="#fff"/>
  <path d="M201.7 195c-2.8 2.6-6.3 4.7-8.4 7.8-3.8 5.7-6.7 11.9-10 17.8-.5.9-1.2 1.7-2.4 3.3.8-4.8 1.7-8.6 1.8-12.5 0-1.7-1.9-3.4-2.9-5.2-1.1 1.1-2.7 2-3.4 3.4-2.6 5.1-4.8 10.3-7.1 15.3-3.8-3-7.7-6.1-11.7-9.2.2-.8.5-1.6.7-2.4 7.9-5 15.9-9.7 23.6-14.9 5.4-3.6 11.1-4.9 17.4-4.2.8.1 1.5.7 2.2 1l.2-.2zM214.1 151c-.9-8.3 4.4-12.3 8.5-16.1 6.3-5.9 13.6-10.7 20.5-15.9 3.6-2.7 7-5.7 10.9-8 3.5-2.1 7.5-2.6 11.8 1.2-16.5 13.9-34.6 25.6-48 43-.7-3.6-.8-3.7 7.4-11.6 3.5-3.4 7.1-6.7 10.8-9.9 3.5-3 7.2-5.9 10.8-8.9 3.6-3 7.3-5.9 10.4-9.4-15.5 9.9-30.2 20.7-43.1 35.6zM234.3 285.6c-2.9 12.8 8.6 16.3 15.1 22.9 1.8 1.9 4.7 2.7 6.9 4.3.7.5 1.5 1.8 1.3 2.4-.2.7-1.5 1.6-2.3 1.6-7.6-.3-15.2-.6-22.8-1.4-1.2-.1-3.1-2.3-3.2-3.6-.3-7.7-.4-15.5-.1-23.2.1-1.5 2.3-2.9 3.6-4.3.5.4 1 .8 1.5 1.3zM20.2 402.6c1.4-3.6 2.7-7.5 4.3-11.1.4-1 1.8-1.9 2.9-2.2 9.2-2.6 17.9 3 19.8 12.7l.4 2c-4.6.8-9.6 1.4-10.2 7.6 0 .3-3.3.9-4.3.3-4.5-2.9-8.8-6.3-12.9-9.3zM264.1 244.2c-.2 2.5.2 5.5-.7 7.9-.8 2-3.3 3.3-5 5 .4.5.9 1.1 1.3 1.6 3.3-2.3 6.7-4.6 9.9-6.9 1 3.9 1.8 7.4 2.8 10.8 1 3.4 1 7.5-2.5 8.4-2.4.7-6-1.5-8.6-3.1-1.5-.9-2.3-3.1-3.3-4.9-2.1-3.7-4-7.2-9-8-1.2-.2-2.7-3.5-2.7-5.3 0-2.4 0-5.8 4.2-5.7 4 .3 8 .2 13.6.2zM15.7 251.5c1.4 9.5 2.5 19 4.2 28.4 1.2 6.9-3.3 9-9.3 12 0-4.6.1-8.6 0-12.7-.1-5.2.2-10.6-.6-15.7-1.1-7.3.4-11.2 5.7-12zM15.1 293.2c1.3 10 1.7 18.2 3.7 26 1.6 6.3 1.4 10.9-4.9 14.1-.8.4-1.3 1.7-1.9 2.6-.7-.2-1.3-.3-2-.5 0-5.6-.1-11.2 0-16.8.1-6 .1-12.1.8-18.1.3-2.2 2.4-4.2 4.3-7.3zM202.9 343.8c8.2.7 9.3 7.9 12.7 13-7.7 9.7-21.3 6.4-38-3 5.3-1.5 5.3-1.4 9.3 2.4 2.6 2.4 5.2 2.7 7.1-.9.7-1.4 1.2-2.9 2-5.1 1.6 3.4 3 6.4 4.4 9.3 4.8-2.6 5.3-6.1 2.5-15.7zM9.7 72.3c5.6.1 6.5 4.1 7 7.4 1.3 8.6 1.9 17.4 2.7 26.1-7.5.1-9.8-1.9-9.8-8.5.1-8.3.1-16.5.1-25zM224.7 281.8v37.6c0 7.8 0 7.8-8.1 8.2 1.7-2.4 3.4-4.9 5.3-7.6-4-2.2-7.4-4.1-12.5-7 4.8-1.4 8.4-2.5 11.9-3.6 0-.5 0-1.1.1-1.6-2.4-.5-4.8-.9-7.7-1.5 3.1-1.2 6-2.2 9-3.3-1-3.8-2-7.2-3.1-11.4.2-1 .3-3.3 1.2-5.2.9-1.7 2.6-3.1 3.9-4.6zM193.9 318.1c-.8 1.3-1.3 2.3-2.1 3.6 5.2 1.1 10.1 2.1 15.1 3.2-.1.4-.2.9-.3 1.3-10.3-2.5-22-1.1-30-10.1-2.8-3.1-4.2-7.4-6.4-11.1-1.3-2.3-2.7-4.7-4.3-6.9-5.6-7.5-5.5-8.7 2.5-15.4-2.6 7.9.4 13.6 5 19.1 1.7 2 2.5 5.1 2.7 7.8.6 6.3 3.8 9.3 9.8 8.5 2.5-.3 5 0 8 0zM402.7 158.5c-.9-4.3-1.6-8.4-2.8-12.4-.4-1.2-2.1-2.3-3.4-2.8-1.8-.7-3.8-.6-5.8-.9.3-1.2.5-2.3.9-3.8 1.2.5 2.6.9 3.8 1.4 4.3 2 9.1 3.5 12.8 6.3 2.5 1.9 5.5 6.4 4.8 8.6-1.2 4.1-6 4.4-10.3 3.6zM263.9 377.2c-.1 4.4-3.9 8-9.3 8.6-7.4.7-14.8.9-22.5 1.3 2.2-4.7 5.9-5.3 10.3-5.8 7.1-.7 14.1-2.6 21.5-4.1zM403.8 428c-18.3-.8-36.7-1.6-55.1-2.5l-.3-1.8c1.5-.5 3.1-1.6 4.6-1.5 11.5.8 23 1.9 34.5 2.7 2.8.2 5.8 0 8.6-.7 4-.8 6.4.5 7.7 3.8zM240.2 163.3c2.8.5 4.4.8 5.9 1 .1.3.2.7.3 1-3 1.1-6 2.3-9.1 3.2-.7.2-2.5-.7-2.6-1.2-.1-1.1.3-2.6 1.1-3.3 4.2-3.9 8.4-7.8 13-11.3 5.7-4.4 11.5-8.5 17.5-12.5 1.3-.9 3.3-1 5.3-.6-10.1 7.8-20.3 15.4-31.4 23.7zM564.4 291.7c-2.7-1.5-5.7-3.1-8.8-4.7 2.6-2.1 5-4.5 7.9-6.2 1.8-1.1 4.3-1.8 6.4-1.6 1.3.1 3.4 2.3 3.3 3.5-.1 2.3-1 4.8-2.5 6.6-1 1.3-3.4 1.4-6.3 2.4zM27.9 422.1c-1.5 1-2.9 2-4.4 3 1.4 1.2 2.9 2.3 4.2 3.6 1.8 1.9 3.4 4 5.5 6.5-7.2 2.1-12.1.3-17.3-5.2 1.7-2.3 3-4.9 5.1-6.6 1.8-1.5 4.5-1.9 6.7-2.8 0 .5.1 1 .2 1.5zM18.7 71c-8.2-1.9-9.1-3-9.1-9.9 0-2-.1-4 0-6 0-1.4.2-2.8.4-4.7 1.6-.1 3.1-.2 4.6-.2 1.3 7.1 2.7 13.8 4.1 20.8zM171.3 321.8c1.6 1.1 2.8 1.9 4.6 3-1.9 1.4-3.4 2.6-5.4 4 1.5.8 2.6 1.4 4.2 2.3-2 1.5-3.8 2.9-4.8 3.6 1 3.6 2.3 6.8 2.6 10.1.1 1.2-2 2.7-3.1 4.1-1.2-1.3-3.5-2.7-3.4-3.7.8-6.2 2.1-12.4 3.3-18.5.2-1.6 1.1-3 2-4.9zM242.3 293.7c4.7-5.9 8.6-10.9 12.5-15.8.3.1.5.2.8.3-.9 2.1-1.5 4.5-2.8 6.3-4.2 5.5-4.5 7.1 2.4 10.9-.6 2.2-1.2 4.4-2 7.4-3.5-2.8-7.1-5.8-10.9-9.1zM552.5 274.2c-9.4 3.9-18 4.7-27.3 3.9 6.1-6.3 20.5-8 27.3-3.9zM54.8 428.2c6-3.4 16.1 2.6 20.3 11.9-9.3.2-13.9-7-20.3-11.9zM19 335.6c3.9 8.7-3.6 10.8-8.5 15.2v-11c3.1-1.5 5.9-2.9 8.5-4.2zM563 256.1c3.6 2.4 5.8 3.6 7.7 5.3 1.4 1.2 2.2 3.1 3.2 4.6-1.7.8-3.4 2.5-5 2.4-3-.2-5.8-1.4-10.1-2.6 2.8-1.9 4.1-2.8 5.2-3.5-.4-2.1-.7-3.9-1-6.2zM251.9 239.8c2.1-6 3.9-11.3 5.8-16.5.5.1.9.2 1.4.3.5 5.9 1 11.9 1.5 17.9-2-.4-4.8-1-8.7-1.7zM383.5 288.9c-11 4.9-22.2.3-33.3 1.4v-1.4h33.3zM176.8 232.2c.6 1 1.1 1.9 1.8 3-1.1.5-2 1.1-3.1 1.3-4.9 1.3-8.7 3.9-11.3 8.5-3.6 6.2-12.2 5.4-15.5-.4 2.9.3 6.6 1.7 9.5.7 3.2-1.1 5.6-4.6 8.5-6.8 3.1-2.1 6.4-3.9 10.1-6.3zM16.3 369.7c.6 4.4 1 7.7 1.5 11.5-.6-.1-2.1-.4-3.6-.7-1.2-.2-2.5-.4-4.2-.7v-11.5c2.8.6 5 1.1 6.3 1.4zM143.9 342.6c-2.5 3.7 6.7 3 2.8 7.5-1.1 1.2-4.5.4-8.6.6 3.7-8.5 6.6-15.5 9.6-22.4l2.1.9c-2 4.5-4 8.9-5.9 13.4zM236.1 172.4c2.9-.5 5.9-1.1 8.8-1.6l.6.9c-1.7.8-3.5 1.6-5.2 2.4.5.6 1 1.2 1.4 1.9 1.4-.1 2.9-.2 4.3-.2.1.2.2.4.3.7-1.7.7-3.5 1.4-5.3 2.2 1.8 2.4 3.6 4.6 5.5 7.1-5.1.5-8.7-4.5-10.4-13.4zM108.1 352.9c.1 0-1.3-.1-2.9-.1v-10.4h11c-2.3 3-4.7 6.2-8.1 10.5zM235.4 243.5c-4-.6-8-1.3-12.5-2 3.2-3.5 5.8-6.2 8.2-8.9 1.4 3.7 2.7 7.3 4.1 11l.2-.1zM297.9 245.3c-3.2 2.2-6.4 4.4-9.7 6.6.6.8 1.1 1.5 1.7 2.3-.9-.6-1.7-1.4-2.6-1.6-1-.2-2.1.1-3.2.2.7-1.1 1.3-2.3 2.2-3.1 2.5-2 5-3.9 7.7-5.5.9-.6 2.4-.3 3.6-.3.1.4.2.9.3 1.4zM100 245.4c-.7-8.6 1.4-17.1-6.4-23.8 8 1.7 11.5 15.9 6.4 23.8zM22.7 451.7c-3.3.2-6 .6-8.6.3-1.2-.1-2.6-1.6-3-2.8-.2-.6 1.4-2.5 2.5-2.8 4.1-1.1 7 .8 9.1 5.3zM177.7 347.3c.2-5.1 1-9 7.8-6.7-.4 2.2-.8 4.4-1.3 6.7h-6.5zM34.4 374.5l6.3-4.2c1.1 4.3 2.1 8 3.4 13.2-3.7-3.4-6.3-5.8-9.7-9zM56.1 413.5c4.2 2.9 8.5 5.9 12.7 8.8-5.3-1.1-11.4-.6-13.6-7.3l.9-1.5zM585.8 282.2v10.6c-3.4-2.1-5.7-3.5-8.1-4.9 2.9-2.1 5.3-3.7 8.1-5.7zM147.3 359.1c-2.4 1-4.8 2.1-7.2 2.9-.2.1-1.1-2.1-1.7-3.3 2.5-1 5-1.9 7.5-2.9.4 1 .9 2.1 1.4 3.3zM143 234c-5-5.6-4.9-7.8.6-12.1-.2 4.4-.3 7.8-.6 12.1zM226.7 394.4c5.6-.8 11.3-1.5 16.9-2.3l.3 2.1c-5.6.7-11.3 1.4-16.9 2.1-.2-.6-.3-1.2-.3-1.9zM113.2 359.5c.6 2.4 1.5 4.6 1.7 6.7.1 1.2-.5 2.8-1.4 3.6-.4.4-2.7-.3-3.1-1.1-.5-.9 0-2.5.3-3.7.6-1.6 1.4-3.2 2.5-5.5z" fill="#fff"/>
  <path d="M235.3 243.7c6.4-3 2-9.3 4.9-13.6v16.7c-1.2-.9-3-2.1-4.7-3.2-.1-.1-.2.1-.2.1zM273.6 303.4c-4.9-4.6-2.4-8 0-11.4v11.4zM218.9 345.4c-1.6-2.4-2.8-4.2-3.9-5.9l-1.5.9c2.8.1 5.6.3 9.6.4-2 2.3-3.3 3.7-4.2 4.6z" fill="#fff"/>
  <path d="M469.6 340.1c-11.1-4.4-21.1-7.9-30.7-12.4-3.2-1.5-5.7-5.3-7.6-8.6-.7-1.3.6-4.6 2-6.1 7.9-8.4 18.4-11.9 29.1-14.8 2.9-.8 5.7-1.7 8.6-2.4 7.6-2 13.7-.1 17.9 6.5 4.6 7.3 8.8 14.8 13.2 22.2.5.9 1.4 1.5 2.3 2.2 6 4.7 12.1 9.3 18.1 13.9-4.8 7.7-.4 17.4 7.1 19.1 5.6 1.3 11.2 3 16.8 4.4 1.4.3 2.9.2 4.2.6 1.7.5 4.3.9 4.8 2.1.5 1.3-.3 3.9-1.5 5.1-12.6 13-25.8 15.1-42.4 7.8-4.5-2-9.7-2.5-14.7-3.3-.6-.1-2.7 3.2-2.3 4.2 1.4 3.7 3.5 7.1 5.5 10.5 1 1.6 2.3 3.1 3.4 4.6-6.4 4.6-15.3 1.4-18.9-5.8-1.7-3.3-4.1-6.5-6.9-8.8-4.2-3.5-9.2-2.4-12.9 1.7-.7.7-2.2.7-3.3 1.1-2.2.7-4.3 1.4-8.1 2.6 4.8 5.8 8.7 10.6 12.6 15.5 2.2 2.8 4.4 2.8 7.6 1.3 9.4-4.5 14-3.1 20 5.7-8 4.9-11.2 14.6-21.1 18.2-14.9 5.4-18.8 5.1-30.1-6.4-6.6-6.7-10.8-14.5-12.2-23.7-.6-3.8-2.6-5.2-6.1-5.5-13.4-1.3-25.2-6.5-35.2-15.5-4.7-4.2-10.4-3.4-15.7-4.5-2.2-.5-4.7.3-6.6-.5-5.3-2.2-10.5-3.6-16.3-2.1-1.9.5-4.8 0-6.2-1.3-4.3-3.8-9.2-3.6-14.4-3.7-5.7 0-15.5-7.7-17.1-12.9-1.4-4.6 2.7-10 9-10.8 5.6-.7 11.6-2.3 16.4 3.2.9 1 3.7.8 5.5.3 2.6-.7 5.1-2 7.5-3.3 3-1.7 5.6-1.4 8.5.6 7.6 5.1 11 4.3 17.9-3.7-2.6-1.8-5.4-3.4-7.6-5.5-4.6-4.5-9.4-9-13.1-14.3-2.1-3-2.1-7.4-3.2-11.9 9 7.4 17.1 15.7 26.7 21.8 9.8 6.2 21 10.4 31.7 15.3 10.6 4.9 21.4 9.5 31.6 14.1 1.8-2.7 2.7-4.3 3.7-5.8 1.3 1.1 2.5 2.3 3.9 3.2 1.3.8 3.6 2 4.1 1.6 5.4-5 11.6-9.3 14.5-15.8zm-145.7 6.1c-.8 5.5-2.4 10 3.2 11 5.3.9 10.8 1.6 16 .9 6.4-.9 12.1-1.1 17.4 3.5 4.7 4.1 10.3 5.7 16.8 3.8 5.3-1.6 9.4.4 13.8 4.1 7.7 6.6 16.2 12.1 26.4 14.3 4.1.9 8.2 4.9 12.6-.9.8 2.5 1.4 4.2 1.9 5.9 2.9 10.1 6 20 13.3 28.2 8.4 9.4 18.5 11.3 28.1 4.6-1.5-1.2-3-2.5-4.4-3.7.2-.6.4-1.1.6-1.7 2.6.6 5.2 1.3 7.6 1.9-4.1-7-4.2-7.3-11-4.1-3.7 1.7-6.1.9-9.1-1.5-8-6.7-10.3-16.5-14.4-25.2-.3-.6 1.6-2.8 2.8-3.2 3.1-1.1 6.3-1.7 10-2.6-2.4-5.4-4.3-9.9-6.3-14.3-2.8-6.1-13.1-8.6-19.1-5.5-3.1 1.6-7.1 2.6-10.4 2-5.5-1-10.9-3-15.9-5.6-1.6-.8-2.9-5.5-2-7.2 3-5.3 3.2-5.4-2.6-7.9-2.3-1-4.7-1.9-6.9-3.2-4.1-2.4-7.6-1-11.2 1-4.5 2.6-8.9 5.6-13.6 7.7-2 .9-5.6 1-7-.2-5.5-4.7-10.8-3.1-16-.3-3.8 2.1-6.3 1.2-9.4-1.1-1.9-1.4-4.4-2.1-7.2-3.3-.3 3.2-.5 5.1-.7 6.9-.4.2-.8.4-1.1.6-.5-1.3-1.1-2.6-2.2-4.9zm155.8-7.3c-2.5.9-4.4 1-5.4 2-6.2 6.1-12.2 12.3-18.2 18.6-.6.7-1.3 2-1 2.7 1.7 4 3.4 8 5.6 11.7.6 1 3.4 1.6 4.8 1.2 11.2-3.6 18.8 3.5 23.4 11.5 1.2 2.1 3.2 3.6 4.9 5.4.4-.4.9-.8 1.3-1.2-1-1.5-2.1-3-3-4.6-2.2-3.8-3.3-7.4-.3-11.6 2.9-4 6.4-4.2 10.6-3 5.1 1.4 10.1 2.8 15.1 4.3 7.3 2.2 14.6 3.2 22 1.1 2.1-.6 3.6-3.1 5.3-4.7-1.6-1.4-3-3.4-4.9-4-8.5-2.8-18.5-2-23.8-11.3-1 3.1-1.5 5.8-2.9 8-.5.8-4 1.1-4.5.4-3-3.7 1.4-12.6 6.5-13.2-2.4-8.2-6.2-14.8-13.4-20.5-9.8-7.8-16.4 3.6-24.9 1.4 1.1 2.2 1.8 3.9 2.8 5.8zm-14.9 70.4c-5-6.4-10.2-13.2-15.6-20.2.9 9.6 10.3 20.9 15.6 20.2zM519.3 302.4c6.7 1.4 13.4 2.9 20.6 4.5-.2-2.5-.2-3.6-.3-4.9 4.9-3.2 11.9 6.6 15.7-2.7 3.9 1.4 7.8 2.7 12.2 4.2 0-4.4 1.5-6.4 5.5-4.3 3.3 1.7 6.2 2 8-2.9 4.9 6-.7 7.5-3 10 2.2 1.1 4.3 2 7.6 3.6-6.4 4.6-10.8-2.7-15.7-.2-.4 1.3-1 3-1.5 4.7-1.4-.6-2.8-1.4-4.2-1.8-1.5-.3-3.2-.3-4.8-.2-3.3.1-6.7.8-10 .5-5-.5-9.9-2-14.9-2.4-6.2-.5-11.4-2.9-15.2-8.1zM116.7 388.2c1.6-.8 3.2-2.1 4.8-2.2 10.2-.5 20.4-.9 30.6-.9 5.2 0 10.3 1.4 15.5 1.4 10.7.1 21.5-.5 32.2-.5 1.7 0 3.4 1.6 5.1 2.5-1.8.9-3.5 2.7-5.3 2.7-18.1-.1-36.2-.6-54.3-.9-9.4-.1-18.7 0-28.1 0 0-.7-.2-1.4-.5-2.1z"/>
  <path d="M417.4 395.5c-24.2 2.6-48.3 2.6-72.1-1.8 0-.7.1-1.4.1-2.1l72 3.9zM438 429.6c-2.7-.7-5.4-1.5-8.2-2.2-2.5 6.6-10.9 5.4-19-3.8 2.5.6 3.9.8 5.3 1.2 1.5.5 3 1.2 4.3 1.8 6-6.5 7.9-6.3 17.9 1.4 0 .6-.2 1.1-.3 1.6zM155.3 174.9c-9.3.9-18.7 1.9-28 2.6-1 .1-2.2-1.3-3.3-2 1-.9 1.9-2.6 2.9-2.7 4.9-.5 9.8-.6 14.7-.7 3.6-.1 7.2-.1 10.8.1 1.1 0 2.2.7 3.3 1.2-.1.4-.2.9-.4 1.5zM123.8 131c9.9 3.8 19.8 7.6 30.6 11.8-7.2 3-25.9-4-30.6-11.8zM125.7 199.5c3.6-5.1 23.7-10.7 31.4-8.5-10.8 4.2-20.2 8.2-31.4 8.5zM345.8 381.5l33 3.6c-.1.8-.2 1.5-.2 2.3-11-1-22-2-33-3.1 0-.8.1-1.8.2-2.8zM436.7 297.3h-31.4c2.9-3.2 24.9-3.3 31.4 0zM160.9 254.8c3 6.8 4 13.8 2.3 21.6-5.1-4.6-6-16.6-2.3-21.6.1 0 0 0 0 0zM133.5 57.7c6.2 4.3 12.3 8.6 18.5 12.9-2.3 1.2-2.4 1.3-10.3-4.2-3.2-2.3-6.1-4.9-9.2-7.4.3-.4.6-.9 1-1.3zM123.4 249.2c3.4-1.9 6.8-3.8 10.3-5.7.3.6.7 1.2 1 1.9l-10.2 5.7c-.4-.6-.8-1.2-1.1-1.9zM303 179c-1.7-1.3-3.2-2.4-4.5-3.5-4.5-3.6-8.7-2.8-11 2.3-2.8 6.3-.8 12.6 5.3 16.2 2.1 1.2 4.3 2.5 6.4 3.7-3.2 5.8-5 6.5-10 3.3-5.2-3.3-9.4-7.4-8.6-14.3.8-7.2 4-13.3 9.9-17.2 4.7-3.2 12.3 2.5 12.5 9.5zM371.8 193.9c-2.2 4.4-4.2 9-6.7 13.2-.6 1-2.7 1.2-4.1 1.8-.5-1.5-1.7-3.1-1.3-4.3 1.5-5.1 3.4-10.1 5.4-15 .3-.7 2.6-1.4 2.9-1.1 1.4 1.3 2.2 3 3.8 5.4zM334.6 126c9.3.5 18.7.9 28 1.4v1h-28.1c0-.8 0-1.6.1-2.4zM366 171.7c3.5-5.7 8.1-6.6 10.9-1.3.5.9.6 2.7 0 3.3-.6.6-2.2.5-3.3.3-2.6-.7-5.2-1.6-7.6-2.3zM363.6 275.2c8.7-6 17.4-11.9 26.1-17.9l1.2 1.8c-8.6 6-17.2 11.9-25.9 17.9-.4-.6-.9-1.2-1.4-1.8zM249 355.8c-5.8 7.9-13.7 13-22.4 17.1-.4-.5-.8-1.1-1.2-1.6 7.5-5.7 15-11.3 22.5-17 .3.5.7 1 1.1 1.5z"/>
  <path d="M323.9 346.2c1.1 2.3 1.7 3.6 2.3 4.9.4-.2.8-.4 1.1-.6.2-1.9.4-3.7.7-6.9 2.8 1.2 5.3 1.9 7.2 3.3 3.1 2.3 5.6 3.2 9.4 1.1 5.1-2.9 10.5-4.5 16 .3 1.4 1.2 5 1.1 7 .2 4.7-2.1 9.1-5.1 13.6-7.7 3.6-2 7.1-3.4 11.2-1 2.2 1.3 4.5 2.2 6.9 3.2 5.8 2.5 5.5 2.6 2.6 7.9-.9 1.6.4 6.3 2 7.2 4.9 2.6 10.4 4.6 15.9 5.6 3.3.6 7.4-.4 10.4-2 6-3.1 16.3-.6 19.1 5.5 2 4.4 3.9 8.8 6.3 14.3-3.7.9-6.9 1.5-10 2.6-1.2.5-3.1 2.7-2.8 3.2 4.1 8.8 6.5 18.6 14.4 25.2 2.9 2.4 5.4 3.2 9.1 1.5 6.8-3.1 6.9-2.9 11 4.1-2.3-.6-5-1.2-7.6-1.9-.2.6-.4 1.1-.6 1.7 1.5 1.2 2.9 2.4 4.4 3.7-9.6 6.7-19.8 4.8-28.1-4.6-7.3-8.2-10.4-18.1-13.3-28.2-.5-1.7-1.1-3.4-1.9-5.9-4.4 5.8-8.5 1.8-12.6.9-10.2-2.2-18.8-7.7-26.4-14.3-4.3-3.7-8.5-5.7-13.8-4.1-6.4 1.9-12 .2-16.8-3.8-5.3-4.6-11-4.3-17.4-3.5-5.2.7-10.8 0-16-.9-5.7-.9-4.1-5.5-3.3-11zM479.7 338.9c-.9-1.9-1.7-3.6-2.8-5.8 8.5 2.2 15.1-9.2 24.9-1.4 7.2 5.7 11 12.3 13.4 20.5-5.1.5-9.6 9.4-6.5 13.2.6.7 4 .4 4.5-.4 1.4-2.2 1.9-4.9 2.9-8 5.3 9.3 15.3 8.4 23.8 11.3 1.9.6 3.3 2.6 4.9 4-1.8 1.6-3.3 4.1-5.3 4.7-7.3 2.1-14.7 1.2-22-1.1-5-1.5-10.1-2.9-15.1-4.3-4.1-1.1-7.6-.9-10.6 3-3.1 4.2-1.9 7.8.3 11.6.9 1.6 2 3.1 3 4.6-.4.4-.9.8-1.3 1.2-1.7-1.8-3.7-3.3-4.9-5.4-4.5-8.1-12.1-15.1-23.4-11.5-1.4.4-4.2-.1-4.8-1.2-2.3-3.7-4-7.7-5.6-11.7-.3-.7.4-2 1-2.7 6-6.3 12-12.5 18.2-18.6 1-1 2.9-1.1 5.4-2z" fill="#fff"/>
  <path d="M464.8 409.3c-5.4.7-14.7-10.5-15.6-20.2 5.5 7 10.7 13.8 15.6 20.2z" fill="#fff"/>
  <text transform="translate(28.474 39.367)" fill="#fff" font-family="BaskervilleT-Bold" font-size="35" letter-spacing="5">PEANUTS</text>
</svg>
