<svg xmlns="http://www.w3.org/2000/svg" viewBox="0 0 595.3 469.6" xml:space="preserve">
  <path fill="#fff" d="M0 0h595.3v469.6H0z"/>
  <path d="M595.3 469.6H0V0h595.3v469.6zm-4.6-383.2h.2V13c0-7.5-2.3-9.6-9.6-9.5-20.8.3-41.6.6-62.5.7-22.9.1-45.7-.1-68.6 0-56.9.4-113.7.9-170.6 1.4-29.2.2-58.5.4-87.7.8-12.2.2-24.3 1.2-36.5 1.3-39.1.1-78.2 0-117.4.1-10 0-20.1.2-30.2.2-3.7 0-5.3 1.2-5.3 5.1 0 17.8-.2 35.7-.3 53.5-.1 11.4-.1 22.8 0 34.3.3 19.1.8 38.3 1 57.4.1 16.7-.3 33.3-.2 50 .3 43.1.9 86.2 1.2 129.3.2 27.8 0 55.7.2 83.5.1 12.6.7 25.1.9 37.7.1 7.5 0 7.5 7.7 7.5l142.3-.9c29.4-.2 58.9-.1 88.3-.3 34.2-.3 68.3-.8 102.5-1 21.5-.2 43 0 64.6 0 56.5-.1 113.1-.2 169.6-.4 8.7 0 10.5-1.4 10.4-10-.1-17.4-.8-34.7-.9-52.1-.2-45-.1-89.9-.1-134.9 0-23.1 0-46.3-.2-69.4-.1-8-.9-16-.9-24 0-4.3 1.7-8.6 1.8-12.9.4-24.6.3-49.3.3-74z" fill="#fff"/>
  <path d="M590.7 86.4c0 24.7.1 49.4-.1 74.1 0 4.3-1.7 8.6-1.8 12.9 0 8 .8 16 .9 24 .2 23.1.1 46.3.2 69.4 0 45 0 89.9.1 134.9.1 17.4.8 34.7.9 52.1.1 8.6-1.7 10-10.4 10-56.5.1-113.1.3-169.6.4-21.5 0-43-.2-64.6 0-34.2.2-68.3.8-102.5 1-29.4.2-58.9.2-88.3.3-47.4.2-94.9.6-142.3.9-7.6 0-7.5 0-7.7-7.5-.2-12.6-.8-25.1-.9-37.7-.2-27.8 0-55.7-.2-83.5-.3-43.1-.9-86.2-1.2-129.3-.1-16.7.3-33.3.2-50-.2-19.1-.7-38.3-1-57.4-.3-11.5-.2-23-.1-34.4.1-17.8.3-35.7.3-53.5C2.6 9.2 4.2 8 7.8 8 17.9 8 28 7.8 38 7.8c39.1 0 78.3.1 117.4-.1 12.2-.1 24.3-1.1 36.5-1.3 29.2-.4 58.5-.5 87.7-.8 56.9-.5 113.7-1 170.6-1.4 22.9-.2 45.7.1 68.6 0 20.8-.1 41.6-.4 62.5-.7 7.4-.1 9.6 2 9.6 9.5v73.4h-.2zM366.5 428c3.1-7.2 6.4-14.4 9.2-21.7.6-1.5.4-4-.5-5.2-3.5-4.4-7.2-8.6-11.4-12.3-.9-.8-5.2.2-5.9 1.4-2.4 4.4-4.3 9.2-5.5 14.1-.6 2.7-.3 6.4 1.2 8.6 3.1 4.3 7.4 7.8 11.1 11.8.9 1 1.3 2.4 1.9 3.5-8.3.4-11.5-7.3-17.7-10.8 2.4 5.4 5.3 10.5 8.6 15.2 3.3 4.8 6.1 4.5 8.5-.8.6-1.2.4-2.6.5-3.8zm172.7-6.7-.2-.2c-1.6 2.5-3.2 4.9-4.8 7.4.2.3.4.5.7.8 12.9-12.2 25.7-24.3 38.6-36.5.5.5.9 1 1.4 1.5-11.7 11.1-23.4 22.3-35.1 33.4l1.2 1.5c1.2-.8 2.5-1.4 3.4-2.3 10.4-10 20.8-20 30.9-30.3 1.3-1.3 1-4.3 1.5-6.4-1.8.5-4 .6-5.4 1.7-3.9 3.1-7.5 6.6-11.2 10-.4-.5-.8-.9-1.2-1.4 4.2-4 8.4-7.9 12.7-11.9-4.8-4-8.3-4.5-12.9.2-9.8 9.9-20.3 19.2-30.7 28.5-4.3 3.8-4.8 7.7-1 13 2.4-1.9 4.8-3.9 7.3-5.8 1.5-1.1 3.2-2.1 4.8-3.2zM464 291c6.9 1.3 10.6 6.5 8.8 11.9-1.8 5.5-3.5 11.4-6.6 16.1-5.5 8.2-8.3 11.2-17.3 3-.4 4.5-.8 8.5-1 12.5-.2 4.4 0 8.8 0 14.5-2.3-.6-5.8-.6-7.4-2.3-2.6-2.8-4.4-4.8-7.9-1.5-.5.5-2 .1-2.4.1-3.4-5.7-4.1-10.8-1.4-16.7 2.3-5 3-10.7 4.7-17.2-3.4 2-6.6 3.5-9.5 5.4-4.1 2.7-7.9 6.4-14 3.7.4 2.1.5 3.5.9 4.9 3.7 13.2 7.3 26.5 11.2 39.6 2.8 9.4 5.5 18.7 8.9 27.8 3.8 10.1 10.5 19.3 7.1 31.5 7.6-.8 14.5-1.6 21.4-2.3.1.6.1 1.2.2 1.8-7.1 5-17.1.1-23.8 6.5 14.3-1.8 28.6-3.6 43.1-5.4-9-1-20-6.6-25.1-13.1-1-1.3-.8-3.6-1.2-6 5.5 2 9.6 3.4 13.9 4.9-5.3-15.3-10.3-29.5-15.3-44 1.7-1.1 3.5-2.2 5.3-3.3-.7-2.3-1.4-4.3-2-6.2 5.3-5.6 10.7-1.1 14.5-.8 4.3-4.5 7.2-9.8 11.6-11.9 10.7-4.9 22.1-5.8 33.1 0 2.5 1.3 5.5 4.5 7.3 4 7.2-2.3 6.5 2.7 7.2 6.6.8 4.4 1.9 7.4 7.5 8.3 5.6.9 11 3.9 16.3 6.3 4.2 2 8 5 12.4 6.6 6.8 2.5 13.8 4.3 21.5 6.6v-18.4c-.1-20.9-.4-41.7-.3-62.6.1-30 .3-60.1.5-90.1.1-9.7.4-19.4.5-29.1.1-9.6 0-19.2 0-28.8 0-6.1.1-12.3 0-18.4-.1-5.2-.3-10.5-.5-16.1-8.9 4.2-16.2 8.3-23.9 11.2-9.7 3.6-19.6 6.7-29.6 9.2-11.5 2.9-23.3 5.2-35 7.3-6.6 1.2-13.3 1.7-19.9 2.3-15 1.5-30.1 3.3-45.1 4.2-10.8.7-21.6.1-32.4.1-26.6 0-53.3 1.2-79.3-6.4-3.4-1-7.7-2.1-10.6-.9-15.1 6.2-29.8 13.3-44.8 19.8-1.5.7-3.7-.1-5.6-.3 2-3.1 4-4.9 6.1-6.5 8.3-6.2 16.8-12.2 25.1-18.4 5.2-3.9 4.9-4.7.2-8.5-16.2-13.3-23.3-28.6-19.3-50.1 3.3-17.5 9.1-33.9 18.7-49 4.7-7.3 9.4-14.6 14.6-22.6-9.7 0-19-.1-28.2.1-.9 0-2.4 1.8-2.5 2.8-.3 3.2-.2 6.4-.2 9.6 0 9.5-.1 19-.1 28.5 0 2.6.2 5-3.8 5.2-17 .5-33.9 1.6-50.9 1.8-13.9.2-27.8-.6-41.8-.8-11.1-.2-22.2-.1-33.2-.1-23.5.1-46.9.1-70.4.3-7.9.1-15.8.8-23.7.8-7.3 0-14.7-.8-22-.8-6.7 0-13.5.6-20.4 1 0 .3-.2 1.1-.2 1.8-.4 24.9-.5 49.4-.5 74 0 20.4.1 40.7.3 61.1.3 40 .7 79.9 1.2 119.9.2 17.8.7 35.5.9 53.3.2 17.4.1 34.8.1 52.1v11.4c3.4-.8 5.8-1.6 8.2-2 7.3-1.4 14.5-3.5 21.8-3.7 7.8-.3 15.7 1.2 23.6 1.8.9.1 2.4.4 2.7-.1 1.5-2.2 4.1-6.2 3.7-6.6-5.2-4.6-1.1-9.6-1.1-14.3-.1-7.9.8-15.9-.1-23.6-.8-6.7-3.6-13.2-5.7-19.7-.6-1.9-2.2-3.5-2.9-5.3-.9-2.5-1.5-5.2-2.1-7.8-.3-1.4.4-3.1-.3-4.3-5.7-10.4-2.1-21.4-.7-31.6 1.1-8.3 6.7-16 10.6-23.9 4.8-9.5 9.3-19.2 15-28.2 5.1-7.9 9.8-15.5 8.9-25.5-3.2-2-7-3.6-9.8-6.1-17-15.6-26.8-34.4-24.9-58.2.1-1-.7-2.4-1.5-3.2-3.9-4.2-8.3-8-11.9-12.5-6.6-8.2-9.7-12.4-5-19.8 3.1-4.9 6.7-9.6 10.9-13.5 10.3-9.6 21.1-18.6 30.1-26.4.8-4 .5-7.5 2-8.6 5.2-4.1 11-7.5 16.7-10.9 1.2-.7 3.2-.7 4.7-.5 3 .4 6 1.7 9 1.8 16.3.8 32.7 1.3 49 1.9 10.5.4 21.1.8 31.6 1.5 9.2.6 11.9 3.8 11.6 12.8.7-.1 1.4-.2 2-.2 7.9-.1 15.8-.4 23.6-.2 1.6 0 3.1 2 4.7 3.1-1.5 1.1-2.8 2.9-4.4 3.3-9 2.2-18.1 4.1-27.5 6.2 3.9 4.3 8.8 8.2 11.8 13.4 5.4 9.3 9.6 19.4 14.5 29 1.1 2.1 2.8 4.4 4.8 5.2 4.5 1.8 6.3 5.3 7.1 9.5 1.3 7-2.6 12.4-8.3 11.7 3.9-7.1 2.3-11.8-4.6-16.3-2.4-1.5-4.6-4.5-5.4-7.2-3.5-12.2-8.4-23.7-16.8-33.1-6.2-6.9-12.5-15.9-24.5-10-3.1 1.5-6.4 2.5-9.7 3.3-20.1 4.8-38.1 14.8-56.6 23.4-14.3 6.7-28.2 14.1-41.9 22-4.8 2.8-11.9 4.9-11.3 12.9.3 4.5.6 9.1 1.3 13.5 2.5 15.5 8.8 28.8 21.3 38.9 8.1 6.5 16.6 12.6 22.7 21.4 2.8 4.1 7 7.5 13.1 4.6 1.2-.6 3.4.6 5.1 1.2 12.5 4.4 25.3 4.5 39.1 3.8-1-2.5-1.9-4.4-2.5-6.4-1.3-4.1-3-8.2-3.7-12.4-.8-4.6 1.6-6.7 6.3-6.4 3.8.3 7.6.9 11.4 1.3 8.5 1 16.9 1.9 25.4 2.9 9.1 1.1 13.4-.7 14.8-7.6 1-4.8 3.2-5.7 7.6-5.3 6.1.6 8.1-1.1 7.1-7-.5-2.9-3-6.1-5.5-7.9-2.8-1.9-4.1-3.5-3.5-7 1.1-6.8 1.7-13.7 2.7-20.5.5-3.2 1.3-6.4 2-9.6.6-.1 1.2-.1 1.9-.2.9 2.4 2.5 4.8 2.5 7.2-.2 5.9-.4 12.2-2.2 17.7-1.8 5.6-1 8.7 4 11.6 4.7 2.7 6.1 7.4 4.5 12.3-1.6 5.1-5 9.3-11 8.9-4.6-.3-6.1 2-7.3 5.6-1.3 4.2-4.1 6.7-8.8 6.6-4.5-.1-9 .4-13.4-.1-9.1-1.1-18.2-2.4-27.2-4-4.5-.8-6.1.4-4.7 5 .9 3.1 2.1 6.2 3.7 9 4.7 8.3 2.8 11.7-7.1 12.1-2.7.1-5.5 0-8.2.2-1.7.1-3.5.7-5.3 1.1 2.5 7.1.7 13.1-2.4 19-.6 1.2-1 2.8-.9 4.1.9 11 1.9 22 3 33 .3 2.6 1 5.1 1.6 7.6h1.4c1.2-5 2.1-10.1 3.7-14.9.7-2.1 2.8-3.8 4.2-5.7 1.4 1.9 3.4 3.5 4.1 5.7.6 1.9.1 4.4-.4 6.5-1.8 7.1-3.9 14.1-5.7 20.7 10 5.1 21.7.6 31.3 6.5-.7 2.3-1.4 4-1.8 5.7-2.6 13.7-5.2 27.3-7.8 41-1.1 6.1-3.1 7.1-9.1 5.2-4.1-1.3-8.4-2.1-12.6-3.2-4.6-1.2-9.3-2.5-13.9-3.8-1.6 5.4-2.9 10.1-4.3 14.7-.8 2.8-.2 4 2.9 4.3 3.2.3 6.6 1 9.4 2.4 2.2 1.1 5.3 3.6 5.1 5.3-.2 2.6-2.3 5.7-4.6 7.2-2.9 2-6.7 2.7-10.3 4.1.2 8.4-6.2 10.6-12.5 11.6-9.1 1.4-18.3 1.7-27.5 2.4-10.5.9-20.5-1.4-30.4-4.6-3.2-1-6.9-1.1-10.4-1.1-3.4 0-8.3 2.2-9.9.7-3-2.9-5.6-1.6-8.5-1.6-3.4 0-7.2 4.3-10.2-.9-.1-.2-1.3.3-2 .5-2.3.6-4.7.8-6.8 1.7-4 1.9-4.2-.1-3.5-3.3-3.2.5-6.1 1-9 1.5v20.5c0 4.8 2 6.5 7 6.4 27.6-.5 55.3-.5 82.9-.9 24.1-.3 48.1-1.1 72.2-1.2 56.7-.2 113.3-.1 170-.2 36.2 0 72.4-.2 108.7-.3 12.6 0 25.2.1 37.8-.1 10.7-.2 21.3-.9 32-1.3 4.3-.2 8.6-.4 12.8-.3 15.9.3 31.8.7 47.7.8 1.4 0 4-1.7 4.1-2.9.5-3.8.2-7.8.2-13.2-4.7 8.5-7.5 9.9-14.7 7.8 3-1 5.3-1.7 7.7-2.5-.1-.4-.3-.9-.4-1.3-4 1-8.5 1.1-11.9 3.1-10.2 6.1-21.2 7.6-32.6 6.8-14.3-1-26.8-6-35.4-18.4 4.4-7.9 11.9-1.1 18-3.7-10.4-5.3-18.9-6.2-26.4-3h11.2c-4.6 1.8-8.3 4.4-12.3 4.7-9.8.8-19.8 1-29.6.2-2-.2-4.2-1.3-6.8-.8-5.2 1-10.4 1.8-15.6 2.3-1.1.1-2.4-1.3-4.5-2.6-1.7 1.4-4.1 4.1-7 6-9.8 6.6-19.8 4.3-29.6 0-7.2-3.1-14.3-6.7-22.6-10.6-.9 4.8-2.1 8.7-2.3 12.6-.5 7.7-3.3 10.2-11 8.8-1.8-.3-3.4-1.4-5.2-1.7-10.4-1.7-18.7-12.3-31-6.4 0-.8-.1-1.5-.1-2.3 2.3-.9 4.6-1.7 6.9-2.6-1.9-.9-3.7-.8-5.4-.6-5.4.5-10.8 1.3-16.3 1.4-2 .1-4.1-1.3-6.5-2.1-3.7 0-8.6 1.4-12.1-.4-4.1-2-7.4-1.7-11.3-.9-3.5.7-7.2 1.3-10.8 1.6-1.1.1-2.4-1.2-3.6-1.9.2-.5.4-1 .5-1.5-4.4 1-8.7 2.2-13.2 3-1.7.3-3.5-.5-5.3-.8 1.5-1.2 2.9-3 4.7-3.4 6-1.4 12-2.4 18.1-3.5-1.6-.9-3-.8-4.4-.5-7.8 1.5-15.7 3.2-23.5 4.6-2.1.4-5.1 1-6.4 0-3.6-2.9-7-1.9-10.8-1-2.1.5-4.3.3-6.5.4-.1-.6-.1-1.2-.2-1.7 3.6-.7 7.2-1.3 10.7-2.1 9.2-2 18.3-4.5 27.9-2.9 3.1.5 6.5-.6 9.7-.9 5.6-.5 11.6-2.7 16.6-1.2 5.6 1.7 10.2.5 16.1-.1-5.6-2.7-10.5-4.6-15-7.2-4.4-2.6-5.5-8.3-3.3-13.2 2.5-5.6 6.7-3.4 10.8-2.5 6.9 1.6 13.4 7 21 .3 2.3-2 3.8-3 3.7-5.9-.4-7.3-1.2-14.5-1-21.8.1-6.1.1-11.4-9-12.5 5.8-6.5 10.7-12 15.6-17.5 3.6 2.7 6.7 5.2 10 7.4 3.9 2.6 6.8 1.6 10.3-1.9 5.6-5.7 12.4-10.3 18.4-15.6 2.4-2.1 4.5-4.7 6.4-7.4 2.2-3.3 3.7-7.2 6.1-10.4 2.1-2.8 2.1-7-.9-8.3-2.5-1-5.1-1.6-7.6-2.5-12.6-4.2-24.1-10.4-34-19.3-6.4-5.8-9.7-12.8-5.7-21.5 2-4.4 3.9-8.8 5.8-13.2-.5-.4-1-.7-1.4-1-6.5-3.6-7.4-6-5-12.7 2-5.5 5.8-4.2 9.9-2.8 3.6 1.2 5.2-.8 5.1-4.3-.3-7.8-1.3-15.7-1-23.4.3-7.1-3.6-10.2-8.9-12.9-.3-.2-.7-.3-1-.5-7.8-5.1-9.6-12.6-2.6-17.5 6.3-4.4 14.1-8.1 21.6-8.9 16.4-1.8 33 .8 49.5-1.5 16.2-2.2 32.6-3.3 48.9-4.4 19.8-1.3 44.7 15.6 50.8 34.3 3.3 10.2 5.7 20.5 5 31.5-.9 14.6-10.6 24.9-17.6 36.5-5.2 9.6-12.2 18-19 27.3zM282.4 153.6c.1.3.3.6.4.9 6.1-3 12.3-6 18.3-9 2.7-1.4 5.2-3.1 7.9-4.4 1.8-.9 4-2 5.8-1.7 10.4 2.3 20.6 5.8 31.2 7.2 12.1 1.6 24.4 1.4 36.6 1.8 7.9.3 15.8.1 23.6.3 6.1.1 12.2 1 18.3.7 9.8-.4 19.5-1.4 29.3-2.3 12.8-1.2 25.7-1.9 38.4-4 12.7-2 25.1-6.1 37.8-8 18.4-2.8 34.8-10.6 51.2-18.8 2.3-1.2 4.9-4.5 5-7 .5-11 .3-22 .2-32.9-.1-12.8-.3-25.6-.4-38.3 0-3.8 1.4-8 0-11.1-2.1-4.7-6-8.8-9.3-12.9-5.7-7.1-14-4.5-21.2-4.8-11.1-.4-22.2.8-33.3.8-23.2 0-46.5-.6-69.7-.5-25.5.2-51 1.2-76.6 1.5-18.9.3-37.8.3-56.7-.1-6.1-.1-10 2-13.2 6.6-10.9 15.5-20.6 31.6-25.1 50.3-1.9 7.9-4.5 15.9-4.4 23.8.1 15.8 7.2 28.7 20.1 37.9 6.7 4.8 5.5 6.4.7 11.4-4.5 4.5-9.9 8.4-14.9 12.6zm124.1 116c9.3 2.1 13.8 1.2 17.2-5.3 1.8-3.5 1.7-8.2 1.4-12.3 0-.6-5.6-.9-8.7-1.3-.7-.1-1.4-.1-2.6-.2.7-1.4 1.2-2.6 1.7-3.7-5.7-5.5-15.4-4.1-19.8-12.3 4.5-2.1 8.7-4.1 13.4-6.3-4.1-1.3-7.5-2.4-11.9-3.9 3-2.4 4.8-3.8 6.9-5.5-3.9-1.7-7.2-3.1-10.5-4.5-2.2 5.1-4 6.8-7.5 5.2-6.2-2.9-12.4-6-17.7-10.1-8.1-6.1-12.3-15.1-15.9-24.3-7.3 4-7.3 4-9.4 12.1 2 1.7 4 3.5 7.2 6.2h-6.4v26.3c0 8-3.3 10.9-10.8 10.1-1.7-.2-3.4.2-5.2.3-.3.7-.6 1.4-.9 2 1.6 1.1 3 2.6 4.8 3.2 4.2 1.5 5.2 3.6 3 7.7-1.6 3.1-3.1 6.2-4.6 9.3-3.1 6.3-1.2 15.9 4 20 10.7 8.3 22.2 15.1 35.7 18.2 6.1 1.4 8.5 5.1 8.7 11.9.2 3.8.5 7.6 1.3 11.3.2.9 3.2 2.3 4 1.8 5.8-3.3 12.5-6 16.9-10.8 5.4-5.9 8.8-13.5 13-20.4 3.2-5.3 3.5-13.1 12.7-13.2-.9-3.4-1.6-6.3-2.4-9.3-3.7 1.6-6.7 3.6-9.9 4.1-4 .7-6.8-1.4-7.7-6.3zM198 96c-.8-1.3-1.6-5-3.3-5.4-6.5-1.7-13.2-2.9-19.8-3.2-20.9-1-41.9-1.7-62.8-2.1-3.9-.1-7.9 1.5-11.7 2.8-7.2 2.4-11.9 8.7-17.8 13-11.9 8.7-22.5 19.4-33.1 29.8-7.1 7-7.7 11.7-3.2 18.4 2.9 4.4 6.5 8.4 10.2 12.1 1 1 4.1 1 5.4.2 7-4.4 13.4-9.9 20.6-13.9 10.4-5.8 21.4-10.7 32-16.1 17.9-9.2 36.3-17.4 55.7-23.1 3.5-1 7-2 10.2-3.5 5.5-2.6 10.9-5.6 17.6-9zm161.7 282.2c2.6 1.7 5.2 3 7.3 4.9 6.4 6 13.7 11.4 15.9 20.7 1.9 7.9 3.5 15.8 5.7 23.6.6 2.1 2.6 4.5 4.6 5.5 8 3.8 16.4 6.3 25.4 5.1 12.8-1.7 20.5-14.7 14.4-26.2-3.3-6.2-6.2-12.7-9-19.2-2.4-5.6-4.2-11.4-6.5-17.5-6.5 10.6-7.3 11.4-10.8 11.5 6.9-10.7 5.5-32.9-5-40.6-2.5-1.8-6.5-3.4-9.1-2.5-4.8 1.5-9.6 13.6-8.7 19.6 3-6 5.8-11.6 8.5-17.2.5.3 1 .5 1.5.8-.8 3.5-1.1 7.2-2.5 10.4-3.8 8.4.7 15 4.7 21.2 2.8 4.3 7.3 7.5 10.9 11.4 8.6 9.2 17.7 18 23.5 31.1-6.3-2.7-10.5-6.3-14.4-10.4-12.2-13-24.3-26.1-36.6-39-3.8-4-8.1-3.8-12.1-.3-2.5 2.2-5 4.5-7.7 7.1zm159.1 49.2c-.6-3.3-.9-5.4-1.3-7.5-1.4-7.6-3.3-15.2-4.1-22.9-.3-3.4-1.4-4.9-4.2-6-14.8-5.9-29.6-12-44.4-17.9-1.4-.6-3.1-.4-5.2-.7.4 2.1.4 3.5.9 4.8 2.5 7.1 5 14.3 7.9 21.3.8 1.9 2.2 4 3.9 5 8.5 4.9 17.1 9.6 25.8 14.1 6.4 3.3 13.1 6.2 20.7 9.8zM141.2 385c10 2.3 19.2 4.5 28.4 6.4 1.1.2 3.4-1 3.7-1.9 2.5-10 4.8-20 7-30.1.6-2.6 1.3-5.4 1.1-8-.1-1.7-1.6-4.5-2.7-4.7-7.7-1.1-15.4-1.6-22.8-2.3-1.9 4.3-3.4 8.5-5.4 12.4-1.9 3.9-4.2 7.6-7.1 12.8-1-3.2-1.5-4.9-2.1-6.5-4.3 7.4 2 14.1-.1 21.9zM98.7 246.3c-.6.4-1.2.8-1.8 1.3 6.3 10.4 12.2 21.1 18.9 31.2 3.6 5.5 5.3 5.3 10.2.7 1.1-1.1 2.5-1.8 5-3.7-3.4 8.8-10.1 13.8-15.8 12.8 1.2 5.5 2.4 11 3.7 16.4.3 1.3 1.3 2.6 2.2 3.7 3 4 7.2 7.6 8.8 12.1 2.3 6.5 6.2 6.6 12.3 5.4-.6-11-1-21.9-1.9-32.8-.4-5.2-1.7-10.3-2.9-15.3-.3-1.2-1.9-3.2-2.8-3.1-8 .9-12-4.8-16.7-9.7-6.2-6.5-12.7-12.7-19.2-19zm275.4 85.9c-5.9 1.7-6.4 6.3-7.6 11-2.5 9.6-5.6 19.1-8.4 28.6 7.5-3.1 11.4-12 19.6-9.1 4.1-7.2 7.8-13.9 11.8-20.4 3.5-5.6 7.4-6.5 13.4-3.6 1.9.9 3.8 2 6.5 3.5-1.7-7.1-3.2-13.3-4.8-20.1-1.8 1.1-2.7 1.6-3.6 2.2-5.6 3.9-11 8.2-17 11.5-6.3 3.6-6.5 3.2-9.9-3.6zm94.7-143.7c-.2.5-.4 1.1-.6 1.6-3-.8-6.1-1.6-9.1-2.4-1-.3-2-.9-3-.7-3.2.5-6.4 1.2-10.2 2 .9 5.6-3.3 6.6-8.7 6.3.4 2.5.8 4.7 1.2 7.1 5-1.8 9.6-3.5 15.1-5.5.9 4.2 2 8.6 2.9 13.1.6 2.9 2 6 1.6 8.8-1.6 13.4-3.6 26.8-5.4 40.2 10.2-21 11.9-43.6 14-66.3 7.4 12.4 7.5 25.6 6.3 39.2 1.2-1.9 2.2-3.8 2.5-5.8.9-6.1 2.2-12.2 2.2-18.3.1-4.1-1.1-8.4-2.7-12.1-1.3-2.9-4.1-4.9-6.1-7.2zm91.7 195.7c-.1-.5-.2-1.1-.3-1.6-4.5-.7-9.5-3-13.4-1.7-10.1 3.3-19.7 8.1-29.9 12.4 1.5 4.1 2.7 7.3 4.2 11.2-.1.1-.8 1.7-1.7 3.6 1.5.2 2.5.3 3.4.4-.4 1.5-.9 3.1-1.3 4.7.4.2.8.5 1.2.7 1.2-1.2 2.3-2.5 3.5-3.7 1.1-1.1 2.4-2.1 3.6-3.1.3.3.6.6.9 1-2.7 3-5.4 5.9-8.2 8.9l1.5 1.5c12.2-11.5 24.3-22.9 36.5-34.3zM94.3 268.9h1.5c5.5 11.8.4 24.5 2.5 36.5 5 .3 9.7.5 14.1.8 1.1-20.2-11.7-35.1-19.4-53.7-4.3 8.4-7.9 15.4-11.2 21.8 6.7 5.9 4.7 13.9 7.2 22.1 1.9-10.1 3.6-18.8 5.3-27.5zM516.6 355c-1.2-1.2-2.4-3.1-4-3.9-10.3-5.3-21.2-4.5-31.9-1.7-2.2.6-5.1 4.5-5 6.8.3 7 4.5 12.5 9.9 16.8 1.6 1.3 4.8 1.8 6.6 1.1 4.6-1.8 8.9-4.5 12.9-6.6-1.3-2.8-2.5-5.2-4.5-9.3 5.6-1.1 10.4-2 16-3.2zm-198 11.6c.8 9.7 1.4 18.3 2.2 26.9.3 3-.4 7.4 1.3 8.8 5.8 4.9 12.5 8.8 19.9 13.8-.3-7.8 1.3-13.5-5.3-18.3-6.7-4.9-5.5-8.7-.5-15.9 1.4-2 .2-8.3-1.9-9.7-4-2.8-9.5-3.6-15.7-5.6zm-192.3-11.3c.4-.2.8-.5 1.2-.7.3 1.3.6 2.7.6 2.9 3.9 1.1 7 1.9 9.1 2.5 3.5-2.9 6.9-5.6 10.5-8.6-1.2-3.3-3.2-7.9-4.4-12.7-1.3-5.3-5.9-4.8-9.4-5.9-1-.3-2.9 2.3-4.4 3.6-1.9 1.7-3.6 3.6-5.7 4.9-3.8 2.2-5.8 5.8-4.7 9.5.6 1.9 4.7 3 7.2 4.5zm351.4-172.1c.1.9-.1 1.7.2 2.3 2.9 5.3 6.7 10.3 4.5 17.1-.5 1.4 1.6 3.7 2.7 5.5 1.3 2.2 4.1 4.2 4 6.3-.2 7.1-.9 14.2-2.2 21.1-1.4 7.6-3.7 15.1-5.6 22.4 18.3-17.9 19.4-59.6-3.6-74.7zM78.6 333.4c.5-.7.9-1.3 1.4-2-1.7-1.2-3.2-3.2-5-3.5-4.9-.9-9.9-1.2-15.2-1.7 0 .1-.3.8-.2 1.4.1 1.1.2 2.2.5 3.2 3 9.1 7 16.7 18.4 17 8 .2 16 1.5 25.1 2.4-3.8-5.6-7.6-8.5-13-7.6-7.5 1.2-20.4-5-24.7-12.9 4.5 1.3 8.6 2.5 12.7 3.7zm-19.1-13c6.1 0 10.3-.1 14.5 0 3.5.2 4.2-1.6 4.2-4.7 0-4.2.7-8.3.8-12.5.1-6.6 0-13.2 0-19.7l-1.2-.3c-5.9 12-11.8 24-18.3 37.2zm374-18.8c-1.7-6.5-5.3-11.9-11.1-15.9-6.1 4.9-5.9 11.9-7.5 18-.9 3.4-1.5 8.4.3 10.5 3.4 3.9 7.1-.7 10.5-2.3.4-.2.7-.8.8-.9-4.1-8.2 4.9-5.9 7-9.4zm-17.1-131.5c-7.5 1-15.8 1.4-23.6 3.3-12.8 3.2-25.5 2.2-38.3.6-8.9-1.1-17.5.4-24.9 5.8-1.5 1.1-2.9 3.5-2.8 5.2.2 3.9 7.4 8.6 12.3 8.2-1.7-1.9-3.3-3.4-4.6-5-3.7-4.6-3.3-7.9 2.2-9.6 5.2-1.6 11-2 16.5-2.2 4.1-.1 9.3-.2 12 2.1 3.5 3 6.3 1.7 9.5 1.5 6.4-.3 12.8-.9 19.2-1.4 2-.2 4.1-.2 5.9-.9 5.6-2.4 11-5.1 16.6-7.6zm35.8 149c3.6 4.9 7.1 6 9.9 2.4 4.7-6.1 6.3-13.1 5.5-20.6-.4-3.8-2.5-5.5-6.4-3.8-5 2.2-8.7 5.5-10.7 10.8 1.9 1.5 3.3 2.9 5 3.8 2.6 1.5 5.1 3.4 3 6.3-.8 1.2-4.1.7-6.3 1.1zM63.3 349.7C63 359 89.4 364 112 358.5c-15.8-4.2-33-1.5-48.7-8.8zm361.3-147.9c-2.3 2.3-4.4 5.4-5.1 5.1-4.6-2-9.6-.8-13.9-2-5.3-1.4-10-5.4-14.8-8.4-1.2-.7-2.2-2.6-3.4-2.6-1.5 0-2.9 1.3-4.4 2 1 .8 2 1.6 3 2.3 2.3 1.6 5.1 2.8 7 4.8 9.1 9.7 21.3 12 31.1 5.3 2.3-1.6 4.4-3.3 7.1-5.3-2.9-.5-5.4-1-6.6-1.2zM119.4 319.4c-.3 2.1 0 3.8-.7 4.4-2.6 2.2-5.4 4.1-8.2 6.1-1.6-3.5-4.2-.4-6.2-1-3.5-1-7.3-1.9-10-4-2-1.6-2.4-5.2-3.5-7.9-2.7 7.8 5.2 14.7 13.8 17.9 6.3 2.3 15.6-2.7 20.7-11-1.7-1.3-3.4-2.6-5.9-4.5zm223.4 39.1c-.6.4-1.3.9-1.9 1.3.5 5.3 1 10.5 1.4 15.5 8.2 3.2 8.2 3.2 13-9.7-4.1-2.3-8.3-4.7-12.5-7.1zm-224.4 60.6c17.2 5.4 26.3 4.5 32.9 0-5.1-5.7-12.8-3.6-19.4-.9-3.4-1.8-5.8-4.1-8.4-4.2-1.5-.2-3.2 3.1-5.1 5.1zM577.8 431c1.7.2 4.2.5 7.5.9-2.4 3.4-4.1 5.9-6.1 8.8 2.6-.4 4.7-.7 6.1-.9v-40.5h-.9c-2.2 10.6-4.4 21.2-6.6 31.7zM358.5 184.9c4.5 15.2 15.9 22.8 29.4 28.8 1-5 0-9.4-4.4-10.2-9-1.5-16.3-5.1-21.4-12.8-1.3-1.9-2.4-3.9-3.6-5.8zm-44.4 172.8c7.1 2.4 13.4 4.4 19.7 6.5 1.7-6.7-.6-9.6-10.2-13.4-6.1-2.3-6.7 2.9-9.5 6.9zm-181 10.7 1.5-.9c-.9-1.5-1.6-4.1-2.6-4.2-6.9-.9-13.6.1-19.8 3.7 5.4 5.3 2.5 11.5 3 17.4 1.6-.4 3.1-.8 4-1 3.4-6.1-3.3-13 2.9-18.7 1.1 1.3 2 2.3 3.2 3.6 2.4-6.2 5.1-1.3 7.8.1zM110 417.2c1.9-.7 4.7-.9 5.5-2.2 5.1-8.4 4.3-18 4.3-27.5-2 2.9-4 5.9-6.1 8.9 2.3 3.3-.1 15-3.7 20.8zm391.7-37.3c2.6 1.3 4.1 2.8 5.1 2.5 10.4-2.5 20.8-5.3 31.4-8.1-8.3-5.7-14.8 4.3-23.1 2.6 1.7-1 2.9-1.7 4-2.4-.1-.3-.3-.6-.4-.9-5.2 1.9-10.4 3.8-17 6.3zm-6.8-2.4c2.7.4 4 1.1 4.9.8 9.6-3.5 19-7.2 28.7-10.8-12.1-1.5-22.1 4-33.6 10zM136.4 433c-8.3-7.1-19.4-7.4-23.3-.6 2.8-.4 5-.8 7.2-1 2.9-.3 5.3-.1 2.5 4.6 4.7-1.1 8.7-1.9 13.6-3zm381.3 12.1c21.8 9.4 33.4 4.6 45.8-.6-15.2 5.2-30.5 6.3-45.8.6zm-80.6-179.5c-.6-7-1.1-13.3-1.6-20.2-1.9.1-3.5.3-5.3.4.8 3.1 2.3 5.6 1.8 7.8-1 5 .5 8.5 5.1 12zm-95.5 88.7c5.7 1.9 10.6 3.5 15.5 5.1l.9-1.5c-2.8-3.2-5.7-6.4-8.8-10-2.8 2.4-5 4.2-7.6 6.4zm205.9 74.2c.2.2.4.5.6.7 9.6-9.3 19.1-18.7 28.7-28-1.3-.6-2.1-.6-2.5-.1-9 9.1-17.9 18.3-26.8 27.4zM76 425.4c8.8 2.4 17.6 4.8 27.4 7.5-7.8-11.3-18.7-5.4-27.4-7.5zm501.3-17.9c-.4-.4-.8-.7-1.2-1.1-7.4 6.6-14.8 13.1-22.2 19.7.7.7 1.5 1.4 2.2 2.2 7-6.9 14.1-13.9 21.2-20.8zm-446.7-1c5-2 7.7-15.5 4.8-25.8-1.6 8.4-3.2 17.1-4.8 25.8zm-30-323.3c-4.7-.7-13.2 3.1-14.4 6.3-.4 1.1.5 2.6 1 4.9C92 90.3 96 87 100.6 83.2zm411.7 300c.1.6.2 1.1.3 1.7 8 2.3 14.1-2.6 20.7-5.4-.2-.6-.3-1.1-.5-1.7-6.8 1.7-13.7 3.5-20.5 5.4zm-37.7-15.1c.4-.6.7-1.2 1.1-1.8-4.7-2.2-9.3-4.4-14.4-6.8.5 5.4 2.3 6.4 13.3 8.6zm-113.2-21.4c1.6-4.2 3-7.9 4.6-12.4-10.3 6.3-10.4 6.6-4.6 12.4zM448 210.8c-4.7 3-8.8 5.6-13.9 8.8 14.8-3.1 14.8-3.1 13.9-8.8zM334.7 418.3c.3-.5.6-.9.8-1.4-5.7-3.6-11.4-7.3-17.1-10.9-.4.6-.8 1.2-1.1 1.9 5.8 3.4 11.6 6.9 17.4 10.4zM421 169.6v1.4c3.5.5 7 1 10.5 1.3 1 .1 2-.7 3-1.1-.8-.9-1.7-2.5-2.5-2.5-3.7.1-7.4.6-11 .9zM117 338.3c6.7-.5 10.5-3.8 10.4-9.7-3.7 3.3-7 6.5-10.4 9.7zm26.6-64c.8-.2 1.5-.5 2.3-.7-1.3-3.4-2.7-6.7-4-10.1-.9.4-1.8.8-2.6 1.1 1.4 3.2 2.8 6.5 4.3 9.7zm169.3 131.2c-.9 2.3-2.2 4-1.8 4.6 1.9 2.9 4.3 5.5 6.5 8.2.2-.2.4-.5.6-.7-1.6-3.5-3.1-6.9-5.3-12.1zM562 425.4c.9.9 1.8 1.8 2.6 2.7 3.5-4.3 7.1-8.5 10.6-12.8-.4-.4-.8-.8-1.2-1.3l-12 11.4zM394.9 324.5c-.3-.5-.7-.9-1-1.4-3.5 3.9-10.1 3.9-12.3 11.3 5.1-3.8 9.2-6.8 13.3-9.9z"/>
  <path d="M464 291c6.8-9.3 13.8-17.7 19.4-26.9 7-11.5 16.7-21.9 17.6-36.5.7-10.9-1.7-21.3-5-31.5-6.2-18.7-31.1-35.6-50.8-34.3-16.3 1.1-32.7 2.2-48.9 4.4-16.6 2.2-33.2-.3-49.5 1.5-7.5.8-15.3 4.5-21.6 8.9-6.9 4.9-5.2 12.4 2.6 17.5.3.2.7.3 1 .5 5.3 2.7 9.2 5.8 8.9 12.9-.4 7.8.6 15.6 1 23.4.1 3.5-1.5 5.4-5.1 4.3-4.1-1.3-7.8-2.6-9.9 2.8-2.5 6.7-1.5 9.1 5 12.7.5.3.9.6 1.4 1-2 4.4-3.9 8.8-5.8 13.2-3.9 8.7-.7 15.7 5.7 21.5 9.9 8.9 21.4 15 34 19.3 2.5.9 5.1 1.5 7.6 2.5 3 1.2 3 5.5.9 8.3-2.4 3.2-3.8 7.1-6.1 10.4-1.8 2.7-3.9 5.2-6.4 7.4-6.1 5.3-12.8 9.9-18.4 15.6-3.5 3.5-6.3 4.5-10.3 1.9-3.3-2.2-6.4-4.8-10-7.4-4.9 5.5-9.9 11-15.6 17.5 9.2 1 9.2 6.4 9 12.5-.2 7.3.6 14.5 1 21.8.2 2.9-1.4 3.9-3.7 5.9-7.6 6.7-14.1 1.4-21-.3-4-1-8.2-3.1-10.8 2.5-2.3 5-1.2 10.7 3.3 13.2 4.5 2.6 9.4 4.5 15 7.2-5.9.6-10.5 1.8-16.1.1-5-1.5-11 .6-16.6 1.2-3.2.3-6.6 1.4-9.7.9-9.6-1.5-18.7 1-27.9 2.9-3.6.8-7.2 1.4-10.7 2.1.1.6.1 1.2.2 1.7 2.2-.1 4.4.1 6.5-.4 3.8-.9 7.1-1.9 10.8 1 1.3 1 4.2.4 6.4 0 7.9-1.4 15.7-3.1 23.5-4.6 1.4-.3 2.8-.3 4.4.5-6 1.1-12.1 2.1-18.1 3.5-1.7.4-3.1 2.2-4.7 3.4 1.8.3 3.6 1.1 5.3.8 4.4-.8 8.8-2 13.2-3-.2.5-.4 1-.5 1.5 1.2.7 2.4 1.9 3.6 1.9 3.6-.2 7.2-.8 10.8-1.6 3.9-.8 7.2-1.1 11.3.9 3.5 1.7 8.4.4 12.1.4 2.4.8 4.5 2.2 6.5 2.1 5.4-.2 10.9-.9 16.3-1.4 1.7-.2 3.4-.2 5.4.6-2.3.9-4.6 1.7-6.9 2.6 0 .8.1 1.5.1 2.3 12.3-5.9 20.6 4.7 31 6.4 1.8.3 3.4 1.3 5.2 1.7 7.7 1.4 10.6-1.2 11-8.8.2-4 1.4-7.9 2.3-12.6 8.3 3.9 15.4 7.5 22.6 10.6 9.8 4.2 19.9 6.5 29.6 0 2.9-2 5.4-4.6 7-6 2.1 1.2 3.3 2.7 4.5 2.6 5.2-.5 10.5-1.3 15.6-2.3 2.6-.5 4.8.6 6.8.8 9.8.8 19.8.5 29.6-.2 3.9-.3 7.7-2.9 12.3-4.7H490c7.5-3.3 15.9-2.3 26.4 3-6.1 2.6-13.6-4.2-18 3.7 8.7 12.4 21.2 17.4 35.4 18.4 11.4.8 22.4-.8 32.6-6.8 3.4-2 7.9-2.1 11.9-3.1.1.4.3.9.4 1.3-2.4.8-4.7 1.5-7.7 2.5 7.2 2.1 10 .7 14.7-7.8 0 5.4.3 9.4-.2 13.2-.2 1.2-2.7 2.9-4.1 2.9-15.9-.1-31.8-.6-47.7-.8-4.3-.1-8.6.2-12.8.3-10.7.4-21.3 1.1-32 1.3-12.6.2-25.2.1-37.8.1l-108.7.3c-56.7.1-113.3 0-170 .2-24.1.1-48.1.9-72.2 1.2-27.6.4-55.3.4-82.9.9-5 .1-7-1.6-7-6.4.1-6.7 0-13.4 0-20.5 2.9-.5 5.9-1 9-1.5-.7 3.2-.5 5.2 3.5 3.3 2.1-1 4.5-1.2 6.8-1.7.7-.2 1.9-.7 2-.5 3 5.2 6.8.9 10.2.9 2.9 0 5.5-1.2 8.5 1.6 1.6 1.5 6.5-.7 9.9-.7 3.5 0 7.1.1 10.4 1.1 9.9 3.2 19.9 5.5 30.4 4.6 9.2-.7 18.4-1 27.5-2.4 6.3-1 12.7-3.2 12.5-11.6 3.7-1.4 7.5-2.1 10.3-4.1 2.2-1.6 4.3-4.6 4.6-7.2.1-1.7-2.9-4.2-5.1-5.3-2.9-1.4-6.2-2-9.4-2.4-3.1-.3-3.8-1.5-2.9-4.3 1.4-4.6 2.7-9.3 4.3-14.7 4.6 1.3 9.2 2.6 13.9 3.8 4.2 1.1 8.5 1.9 12.6 3.2 6 1.9 8 .9 9.1-5.2 2.6-13.7 5.1-27.3 7.8-41 .3-1.8 1.1-3.5 1.8-5.7-9.7-5.9-21.3-1.4-31.3-6.5 1.8-6.6 3.9-13.6 5.7-20.7.5-2.1 1-4.5.4-6.5-.7-2.1-2.7-3.8-4.1-5.7-1.5 1.9-3.5 3.6-4.2 5.7-1.6 4.9-2.5 9.9-3.7 14.9h-1.4c-.5-2.5-1.3-5-1.6-7.6-1.1-11-2.1-22-3-33-.1-1.3.2-2.9.9-4.1 3.2-5.9 5-11.9 2.4-19 1.9-.4 3.6-.9 5.3-1.1 2.7-.2 5.5-.1 8.2-.2 9.9-.4 11.8-3.8 7.1-12.1-1.6-2.8-2.8-5.9-3.7-9-1.4-4.6.3-5.8 4.7-5 9 1.6 18.1 3 27.2 4 4.4.5 8.9 0 13.4.1 4.7.1 7.5-2.3 8.8-6.6 1.1-3.6 2.7-5.9 7.3-5.6 6 .4 9.4-3.8 11-8.9 1.6-4.9.2-9.6-4.5-12.3-5-2.9-5.8-6-4-11.6 1.8-5.6 2-11.8 2.2-17.7.1-2.4-1.6-4.8-2.5-7.2-.6.1-1.2.1-1.9.2-.7 3.2-1.5 6.3-2 9.6-1 6.8-1.6 13.7-2.7 20.5-.6 3.5.7 5 3.5 7 2.5 1.7 5 4.9 5.5 7.9 1.1 5.9-.9 7.6-7.1 7-4.4-.4-6.6.5-7.6 5.3-1.4 6.9-5.7 8.7-14.8 7.6-8.5-1-16.9-1.9-25.4-2.9-3.8-.4-7.6-1-11.4-1.3-4.7-.3-7 1.7-6.3 6.4.7 4.2 2.3 8.3 3.7 12.4.6 2 1.5 3.9 2.5 6.4-13.8.7-26.6.6-39.1-3.8-1.7-.6-3.9-1.8-5.1-1.2-6.1 2.9-10.3-.5-13.1-4.6-6.1-8.8-14.6-14.9-22.7-21.4-12.5-10.1-18.8-23.5-21.3-38.9-.7-4.5-1-9-1.3-13.5-.6-8 6.5-10.1 11.3-12.9 13.6-7.9 27.6-15.3 41.9-22 18.5-8.7 36.5-18.7 56.6-23.4 3.3-.8 6.7-1.8 9.7-3.3 12-5.9 18.3 3.1 24.5 10 8.4 9.4 13.3 21 16.8 33.1.8 2.7 3 5.6 5.4 7.2 6.9 4.4 8.5 9.2 4.6 16.3 5.6.8 9.6-4.7 8.3-11.7-.8-4.2-2.6-7.7-7.1-9.5-2-.8-3.8-3.1-4.8-5.2-4.9-9.6-9.1-19.7-14.5-29-3-5.1-7.9-9.1-11.8-13.4 9.4-2.1 18.5-4 27.5-6.2 1.6-.4 2.9-2.1 4.4-3.3-1.6-1.1-3.1-3.1-4.7-3.1-7.9-.2-15.7.1-23.6.2-.7 0-1.3.1-2 .2.3-9-2.5-12.2-11.6-12.8-10.5-.7-21.1-1.1-31.6-1.5-16.3-.7-32.7-1.2-49-1.9-3-.1-6-1.4-9-1.8-1.5-.2-3.5-.2-4.7.5-5.7 3.4-11.5 6.8-16.7 10.9-1.5 1.2-1.2 4.6-2 8.6-9 7.8-19.8 16.9-30.1 26.4-4.2 3.9-7.8 8.7-10.9 13.5-4.7 7.4-1.6 11.6 5 19.8 3.6 4.5 8 8.3 11.9 12.5.8.8 1.6 2.2 1.5 3.2-1.9 23.8 7.8 42.6 24.9 58.2 2.8 2.6 6.5 4.1 9.8 6.1.9 10-3.8 17.6-8.9 25.5-5.7 8.9-10.3 18.7-15 28.2-3.9 7.8-9.5 15.6-10.6 23.9-1.4 10.2-5 21.2.7 31.6.6 1.1 0 2.9.3 4.3.5 2.6 1.1 5.3 2.1 7.8.7 1.9 2.3 3.4 2.9 5.3 2.1 6.5 4.8 13 5.7 19.7 1 7.8 0 15.7.1 23.6 0 4.7-4.1 9.7 1.1 14.3.4.4-2.2 4.4-3.7 6.6-.3.4-1.7.1-2.7.1-7.9-.7-15.8-2.1-23.6-1.8-7.3.3-14.6 2.4-21.8 3.7-2.4.5-4.8 1.2-8.2 2v-11.4c0-17.4.1-34.8-.1-52.1-.2-17.8-.7-35.5-.9-53.3-.5-40-.8-79.9-1.2-119.9-.2-20.4-.2-40.7-.3-61.1 0-24.6.1-49.2.2-73.7 0-.7.2-1.4.2-1.8 6.9-.4 13.7-1 20.4-1 7.3 0 14.7.8 22 .8 7.9 0 15.8-.7 23.7-.8 23.5-.2 46.9-.2 70.4-.3 11.1 0 22.2-.1 33.2.1 13.9.2 27.8 1 41.8.8 17-.2 33.9-1.3 50.9-1.8 4-.1 3.8-2.5 3.8-5.2.1-9.5.1-19 .1-28.5 0-3.2-.2-6.4.2-9.6.1-1.1 1.6-2.8 2.5-2.8 9.3-.2 18.5-.1 28.2-.1-5.1 8-9.9 15.2-14.6 22.6-9.6 15-15.4 31.5-18.7 49-4.1 21.6 3.1 36.8 19.3 50.1 4.7 3.9 5 4.6-.2 8.5-8.3 6.3-16.7 12.3-25.1 18.4-2.1 1.6-4.1 3.4-6.1 6.5 1.9.1 4.1.9 5.6.3 15-6.5 29.7-13.6 44.8-19.8 2.9-1.2 7.2-.1 10.6.9 26 7.7 52.7 6.5 79.3 6.4 10.8 0 21.7.5 32.4-.1 15.1-.9 30.1-2.7 45.1-4.2 6.7-.7 13.4-1.1 19.9-2.3 11.7-2.1 23.4-4.4 35-7.3 10-2.5 19.9-5.6 29.6-9.2 7.7-2.9 15-6.9 23.9-11.2.2 5.6.5 10.8.5 16.1.1 6.1 0 12.3 0 18.4 0 9.6.1 19.2 0 28.8-.1 9.7-.4 19.4-.5 29.1-.2 30-.4 60.1-.5 90.1 0 20.9.2 41.7.3 62.6v18.4c-7.7-2.3-14.7-4.1-21.5-6.6-4.3-1.6-8.1-4.7-12.4-6.6-5.3-2.4-10.6-5.4-16.3-6.3-5.6-.9-6.7-4-7.5-8.3-.7-3.9 0-8.9-7.2-6.6-1.8.6-4.8-2.6-7.3-4-11-5.8-22.4-4.9-33.1 0-4.4 2-7.3 7.3-11.6 11.9-3.8-.4-9.2-4.9-14.5.8.6 1.9 1.3 3.9 2 6.2-1.8 1.1-3.6 2.3-5.3 3.3 5.1 14.5 10 28.8 15.3 44-4.3-1.5-8.4-3-13.9-4.9.4 2.3.2 4.7 1.2 6 5.1 6.5 16.1 12.1 25.1 13.1-14.5 1.8-28.8 3.6-43.1 5.4 6.7-6.3 16.7-1.5 23.8-6.5-.1-.6-.1-1.2-.2-1.8-6.9.7-13.7 1.5-21.4 2.3 3.4-12.2-3.2-21.4-7.1-31.5-3.5-9.1-6.2-18.5-8.9-27.8-3.9-13.2-7.5-26.4-11.2-39.6-.4-1.3-.5-2.8-.9-4.9 6.2 2.7 9.9-1 14-3.7 2.9-1.9 6-3.5 9.5-5.4-1.7 6.5-2.4 12.2-4.7 17.2-2.7 5.9-2 11 1.4 16.7.4 0 1.8.4 2.4-.1 3.5-3.3 5.2-1.3 7.9 1.5 1.6 1.7 5.1 1.7 7.4 2.3 0-5.7-.1-10.1 0-14.5.1-4 .6-8 1-12.5 9 8.2 11.8 5.2 17.3-3 3.2-4.7 4.8-10.6 6.6-16.1 1.7-6.1-2-11.4-8.9-12.6zm-329.5-89c-1.4-.7-2.7-1-3.5-1.8-3.8-3.6-10.3-6-8.6-12.6 1.1-4.4 3.7-9.2 7.1-11.9 4-3.1 7.5 1.2 10.6 4.1 1 .9 2.3 1.5 3.5 2.3.5-.6 1-1.1 1.5-1.7-3.5-3.3-6.8-7.1-10.7-9.8-1.5-1-5.6-.5-6.8.8-4.6 5.4-9.3 11.1-12.5 17.4-2 3.9-.1 8.6 4 11.5 4.2 3 8.6 5.6 14.1 3.6.4-.1.7-1 1.3-1.9zm76.3-6.9c-8.2 5.7-8.7 13.7-10.9 20.8-.3.9 1.6 2.8 2.8 3.6.6.4 2.8-.1 3.1-.7 2.7-5.6 5.4-11.2 7.4-17.1.6-1.5-1.4-3.9-2.4-6.6z" fill="#fff"/>
  <path d="M406.5 269.6c.9 4.9 3.7 7 7.6 6.3 3.2-.6 6.2-2.5 9.9-4.1.8 3.1 1.5 6 2.4 9.3-9.2.1-9.5 7.9-12.7 13.2-4.2 6.9-7.6 14.6-13 20.4-4.4 4.8-11 7.5-16.9 10.8-.8.5-3.8-.9-4-1.8-.8-3.7-1.1-7.5-1.3-11.3-.3-6.9-2.6-10.5-8.7-11.9-13.4-3.1-24.9-9.9-35.7-18.2-5.3-4.1-7.1-13.6-4-20 1.5-3.1 3-6.2 4.6-9.3 2.1-4.1 1.2-6.2-3-7.7-1.8-.6-3.2-2.1-4.8-3.2.3-.7.6-1.4.9-2 1.7-.1 3.5-.4 5.2-.3 7.5.8 10.8-2.2 10.8-10.1v-26.3h6.4c-3.1-2.7-5.2-4.4-7.2-6.2 2.1-8.1 2.1-8.1 9.4-12.1 3.7 9.2 7.9 18.2 15.9 24.3 5.4 4.1 11.6 7.2 17.7 10.1 3.5 1.6 5.3-.1 7.5-5.2 3.3 1.4 6.6 2.8 10.5 4.5-2.1 1.7-3.8 3.1-6.9 5.5 4.5 1.4 7.8 2.5 11.9 3.9-4.7 2.2-8.9 4.2-13.4 6.3 4.3 8.2 14.1 6.8 19.8 12.3-.5 1.1-1 2.2-1.7 3.7 1.2.1 1.9.1 2.6.2 3 .4 8.6.7 8.7 1.3.3 4.1.4 8.8-1.4 12.3-3.4 6.4-7.8 7.4-17.1 5.3zm-57-36.9c-5.6 3.6-6.3 13.8-4.8 18.6.2.7 3.8 1.4 4.7.7 3.4-2.8 3.2-15.8.1-19.3zM198 96c-6.7 3.4-12.1 6.4-17.6 9-3.3 1.5-6.8 2.5-10.2 3.5-19.4 5.7-37.7 13.9-55.7 23.1-10.6 5.5-21.6 10.3-32 16.1-7.2 4-13.6 9.4-20.6 13.9-1.3.8-4.4.8-5.4-.2-3.7-3.7-7.3-7.7-10.2-12.1-4.5-6.7-3.9-11.4 3.2-18.4 10.6-10.4 21.2-21.1 33.1-29.8 5.9-4.3 10.6-10.5 17.8-13 3.8-1.3 7.8-2.9 11.7-2.8 20.9.4 41.9 1.1 62.8 2.1 6.7.3 13.4 1.5 19.8 3.2 1.6.4 2.5 4.1 3.3 5.4zM94.9 121.8c-3.7 2.5-7.5 5-11.2 7.5.2.4.5.9.7 1.3 7-3.6 13.9-7.2 20.9-10.8-.1-.3-.3-.6-.4-1-3.4 1-6.8 2.1-10.2 3.1 1.5-1.1 2.9-2.3 4.5-3.2 3.9-2.1 8-4 12-6-.3-.6-.6-1.1-.9-1.7-11.9 5.7-23.7 11.5-35.6 17.2.3.6.5 1.2.8 1.8 1.5-.6 3.1-1.2 4.6-1.9 5-2 9.9-4.2 14.8-6.3zm15.4-15.1c-20 5-59.3 25.4-62.3 31.8 19.7-10.1 40.5-20.6 62.3-31.8zm19-4.2c-.2-.7-.4-1.5-.6-2.3-.9 1.6-1.7 3.3-3.1 5.9 11.9-4.1 22.7-7.8 33.4-11.5-.2-.6-.4-1.3-.6-1.9-9.7 3.2-19.4 6.5-29.1 9.8zm-60.8 31.9c-.4-.5-.7-1-1.1-1.6-6.6 3.9-13.2 7.9-19.7 11.8l.9 1.5c6.6-3.9 13.3-7.8 19.9-11.7zM359.7 378.2c2.8-2.5 5.3-4.9 7.8-7.2 3.9-3.5 8.3-3.7 12.1.3 12.3 12.9 24.4 26 36.6 39 3.8 4.1 8.1 7.7 14.4 10.4-5.8-13.1-14.9-21.9-23.5-31.1-3.6-3.9-8.2-7-10.9-11.4-4-6.3-8.5-12.8-4.7-21.2 1.4-3.2 1.7-6.9 2.5-10.4-.5-.3-1-.5-1.5-.8-2.8 5.6-5.6 11.2-8.5 17.2-.9-6.1 3.9-18.1 8.7-19.6 2.5-.8 6.6.8 9.1 2.5 10.6 7.7 11.9 29.9 5 40.6 3.5-.1 4.3-.9 10.8-11.5 2.2 6.1 4.1 11.9 6.5 17.5 2.7 6.5 5.6 13 9 19.2 6.2 11.5-1.5 24.5-14.4 26.2-9 1.2-17.4-1.3-25.4-5.1-2-.9-4-3.3-4.6-5.5-2.2-7.8-3.8-15.7-5.7-23.6-2.2-9.3-9.5-14.7-15.9-20.7-2.2-1.9-4.9-3.1-7.4-4.8zm32.6 22.7-.9.3c1.4 3.6 2.3 7.3 4.1 10.6 3.8 6.9 7.9 13.7 12.1 20.4.4.6 2.2.4 3.3.6.2-.4.5-.8.7-1.3 1.8 1.4 3.6 2.8 5.5 4.3.3-.3.5-.6.8-.9-1.3-1.8-2.5-3.6-4.6-6.6 3.4 1.7 5.7 2.9 8 4-2.1-3.5-3-8.9-8.7-6.1-6.8-8.4-13.5-16.9-20.3-25.3zm-8.7-11.9-1.5.6c-.8 5.9 10.1 30.8 16.3 35-5.2-12.8-10-24.2-14.8-35.6zM518.8 427.4c-7.6-3.6-14.3-6.4-20.8-9.8-8.7-4.5-17.3-9.2-25.8-14.1-1.7-1-3.2-3.1-3.9-5-2.8-7-5.3-14.2-7.9-21.3-.5-1.3-.5-2.7-.9-4.8 2.1.2 3.8.1 5.2.7 14.8 5.9 29.6 11.9 44.4 17.9 2.8 1.1 3.8 2.7 4.2 6 .8 7.7 2.7 15.3 4.1 22.9.5 2.1.8 4.2 1.4 7.5zM141.2 385c2.1-7.9-4.2-14.6.2-21.9.5 1.7 1 3.3 2.1 6.5 2.9-5.1 5.2-8.8 7.1-12.8 2-4 3.5-8.1 5.4-12.4 7.4.7 15.1 1.2 22.8 2.3 1.2.2 2.6 3 2.7 4.7.2 2.6-.5 5.4-1.1 8-2.2 10-4.5 20.1-7 30.1-.2.9-2.6 2.1-3.7 1.9-9.3-1.9-18.4-4.1-28.5-6.4zM98.7 246.3c6.4 6.3 13 12.5 19.3 19 4.7 4.8 8.6 10.5 16.7 9.7.8-.1 2.5 1.9 2.8 3.1 1.2 5.1 2.5 10.2 2.9 15.3.9 10.9 1.3 21.9 1.9 32.8-6.1 1.2-10 1.1-12.3-5.4-1.6-4.5-5.8-8.1-8.8-12.1-.9-1.2-1.9-2.4-2.2-3.7-1.4-5.4-2.5-10.8-3.7-16.4 5.6 1 12.3-4 15.8-12.8-2.5 1.8-3.9 2.6-5 3.7-4.9 4.6-6.6 4.9-10.2-.7-6.6-10.2-12.6-20.8-18.9-31.2.5-.5 1.1-.9 1.7-1.3z" fill="#fff"/>
  <path d="M374.1 332.2c3.4 6.7 3.6 7.1 9.9 3.6 6-3.3 11.3-7.6 17-11.5.9-.6 1.8-1.1 3.6-2.2 1.6 6.7 3.1 13 4.8 20.1-2.8-1.5-4.6-2.5-6.5-3.5-5.9-2.9-9.9-2-13.4 3.6-4 6.5-7.7 13.2-11.8 20.4-8.2-3-12.1 5.9-19.6 9.1 2.8-9.5 5.9-19 8.4-28.6 1.2-4.6 1.7-9.3 7.6-11zM468.8 188.5c2.1 2.3 4.9 4.3 6 7 1.6 3.8 2.8 8.1 2.7 12.1-.1 6.1-1.3 12.3-2.2 18.3-.3 2-1.3 3.9-2.5 5.8 1.2-13.6 1.1-26.9-6.3-39.2-2 22.7-3.8 45.4-14 66.3 1.9-13.4 3.9-26.7 5.4-40.2.3-2.8-1-5.9-1.6-8.8-1-4.5-2-9-2.9-13.1-5.5 2-10.1 3.7-15.1 5.5-.4-2.4-.8-4.6-1.2-7.1 5.4.3 9.6-.7 8.7-6.3 3.9-.8 7-1.5 10.2-2 .9-.1 2 .5 3 .7 3 .8 6.1 1.6 9.1 2.4.3-.4.5-.9.7-1.4zM539.2 421.3c-1.6 1.1-3.2 2-4.7 3.2-2.5 1.9-4.9 3.9-7.3 5.8-3.7-5.3-3.2-9.2 1-13 10.4-9.3 20.9-18.6 30.7-28.5 4.6-4.7 8.2-4.2 12.9-.2-4.2 4-8.5 7.9-12.7 11.9.4.5.8.9 1.2 1.4 3.7-3.4 7.3-6.9 11.2-10 1.4-1.1 3.6-1.2 5.4-1.7-.5 2.2-.2 5.1-1.5 6.4-10.1 10.3-20.5 20.2-30.9 30.3-1 1-2.3 1.6-3.4 2.3l-1.2-1.5c11.7-11.1 23.4-22.3 35.1-33.4-.5-.5-.9-1-1.4-1.5-12.9 12.2-25.7 24.3-38.6 36.5-.2-.3-.4-.5-.7-.8 1.6-2.5 3.2-4.9 4.8-7.4 6.5-5.6 13.1-11.3 19.6-16.9-.5-.6-1-1.1-1.6-1.7-4.5 4.3-9.1 8.5-13.4 12.9-1.8 1.7-3.1 3.9-4.5 5.9zM560.5 384.2c-12.1 11.4-24.3 22.8-36.4 34.2l-1.5-1.5c2.7-3 5.4-5.9 8.2-8.9-.3-.3-.6-.6-.9-1-1.2 1-2.5 2-3.6 3.1-1.2 1.2-2.4 2.5-3.5 3.7-.4-.2-.8-.5-1.2-.7.5-1.6.9-3.1 1.3-4.7-.9-.1-1.9-.2-3.4-.4.9-1.9 1.6-3.5 1.7-3.6-1.5-3.9-2.7-7.1-4.2-11.2 10.2-4.4 19.8-9.2 29.9-12.4 3.9-1.3 8.9 1 13.4 1.7-.1.6.1 1.2.2 1.7zM94.3 268.9c-1.7 8.7-3.4 17.5-5.4 27.5-2.5-8.1-.5-16.2-7.2-22.1 3.3-6.4 6.9-13.4 11.2-21.8 7.8 18.6 20.5 33.5 19.4 53.7-4.3-.2-9.1-.5-14.1-.8-2.1-12 3-24.7-2.5-36.5h-1.4zM516.6 355c-5.6 1.1-10.4 2.1-16.1 3.2 2 4 3.2 6.5 4.5 9.3-4 2.1-8.3 4.8-12.9 6.6-1.8.7-5 .1-6.6-1.1-5.3-4.3-9.5-9.8-9.9-16.8-.1-2.3 2.8-6.2 5-6.8 10.7-2.8 21.6-3.6 31.9 1.7 1.8.9 2.9 2.7 4.1 3.9zm-28 9.7c.2.8.4 1.5.6 2.3 1.9-.8 4-1.2 5.6-2.4 1.3-1 2.1-2.7 3.1-4.1-.5-.3-.9-.7-1.4-1-2.7 1.8-5.3 3.5-7.9 5.2zM318.6 366.6c6.2 2 11.7 2.8 15.8 5.7 2 1.4 3.3 7.7 1.9 9.7-5 7.2-6.3 11.1.5 15.9 6.6 4.8 5 10.4 5.3 18.3-7.4-5-14.1-8.9-19.9-13.8-1.7-1.5-1.1-5.8-1.3-8.8-.9-8.7-1.5-17.3-2.3-27zM366.7 428.1c-.6-1.2-1-2.6-1.9-3.5-3.7-4-7.9-7.5-11.1-11.8-1.5-2.1-1.9-5.9-1.2-8.6 1.2-4.9 3.1-9.6 5.5-14.1.7-1.3 5-2.2 5.9-1.4 4.2 3.7 7.9 8 11.4 12.3.9 1.2 1.1 3.7.5 5.2-2.9 7.3-6.1 14.5-9.2 21.7-.1.1.1.2.1.2zM126.3 355.3c-2.5-1.5-6.5-2.6-7.2-4.6-1.1-3.6.9-7.2 4.7-9.5 2.1-1.2 3.8-3.2 5.7-4.9 1.5-1.3 3.4-3.9 4.4-3.6 3.5 1.1 8.1.6 9.4 5.9 1.2 4.8 3.2 9.4 4.4 12.7-3.7 3-7 5.7-10.5 8.6-2.1-.6-5.2-1.4-9.1-2.5 0-.2-.3-1.5-.6-2.9-.5.3-.8.5-1.2.8zM477.7 183.2c23 15.1 21.9 56.8 3.5 74.6 1.9-7.3 4.1-14.8 5.6-22.4 1.3-6.9 2.1-14 2.2-21.1.1-2-2.7-4.1-4-6.3-1.1-1.8-3.1-4.1-2.7-5.5 2.2-6.8-1.5-11.8-4.5-17.1-.2-.5-.1-1.3-.1-2.2zM78.6 333.4c-4.1-1.2-8.1-2.3-12.8-3.7 4.3 7.9 17.2 14.1 24.7 12.9 5.4-.9 9.2 2 13 7.6-9.2-.9-17.1-2.2-25.1-2.4-11.4-.3-15.4-7.9-18.4-17-.3-1-.5-2.1-.5-3.2 0-.7.2-1.3.2-1.4 5.3.6 10.3.8 15.2 1.7 1.8.3 3.3 2.3 5 3.5-.4.7-.9 1.3-1.3 2zM59.5 320.4c6.5-13.2 12.4-25.2 18.3-37.1l1.2.3c0 6.6.1 13.2 0 19.7-.1 4.2-.8 8.3-.8 12.5 0 3.1-.7 4.8-4.2 4.7-4.2-.2-8.4-.1-14.5-.1zM433.5 301.6c-2.1 3.5-11.1 1.2-7.1 9.4-.1.1-.3.7-.8.9-3.4 1.7-7.1 6.2-10.5 2.3-1.8-2.1-1.1-7.1-.3-10.5 1.6-6.1 1.4-13.1 7.5-18 5.9 4 9.5 9.4 11.2 15.9zM416.4 170.1c-5.6 2.6-11 5.2-16.6 7.6-1.8.8-3.9.8-5.9.9-6.4.5-12.8 1.1-19.2 1.4-3.1.1-6 1.5-9.5-1.5-2.6-2.3-7.9-2.2-12-2.1-5.5.1-11.3.6-16.5 2.2-5.5 1.7-5.9 5-2.2 9.6 1.3 1.6 2.9 3.1 4.6 5-4.9.4-12.1-4.3-12.3-8.2-.1-1.7 1.3-4.2 2.8-5.2 7.4-5.3 16-6.9 24.9-5.8 12.8 1.6 25.5 2.6 38.3-.6 7.8-1.9 16-2.3 23.6-3.3zM452.2 319.1c2.3-.3 5.5.1 6.4-1.1 2-2.9-.4-4.8-3-6.3-1.7-1-3.2-2.4-5-3.8 1.9-5.3 5.7-8.6 10.7-10.8 3.9-1.7 6.1 0 6.4 3.8.7 7.5-.9 14.5-5.5 20.6-3 3.5-6.5 2.5-10-2.4zM63.3 349.7c15.7 7.3 32.8 4.6 48.6 8.7-22.5 5.6-48.9.6-48.6-8.7zM424.6 201.8c1.2.2 3.7.7 6.7 1.3-2.7 2-4.8 3.8-7.1 5.3-9.8 6.7-22 4.4-31.1-5.3-1.9-2-4.7-3.2-7-4.8-1.1-.7-2-1.6-3-2.3 1.5-.7 3-2 4.4-2 1.1 0 2.1 1.8 3.4 2.6 4.9 3 9.5 6.9 14.8 8.4 4.3 1.2 9.3-.1 13.9 2 .6.1 2.7-2.9 5-5.2zM119.4 319.4c2.5 1.9 4.2 3.3 5.9 4.6-5.1 8.3-14.4 13.4-20.7 11-8.6-3.2-16.5-10.1-13.8-17.9 1.1 2.7 1.5 6.3 3.5 7.9 2.7 2.2 6.6 3 10 4 2 .6 4.6-2.5 6.2 1 2.8-2 5.6-3.9 8.2-6.1.7-.7.4-2.5.7-4.5zM342.8 358.5c4.2 2.4 8.4 4.8 12.5 7.1-4.8 12.9-4.8 12.9-13 9.7-.5-5-.9-10.3-1.4-15.5.6-.5 1.3-.9 1.9-1.3zM118.4 419.1c1.9-2 3.6-5.2 5.1-5.1 2.6.2 5 2.4 8.4 4.2 6.7-2.7 14.3-4.9 19.4.9-6.6 4.4-15.7 5.4-32.9 0zM577.8 431c2.2-10.6 4.4-21.1 6.6-31.6h.9v40.5c-1.4.2-3.5.5-6.1.9 2-2.9 3.7-5.3 6.1-8.8-3.3-.4-5.8-.7-7.5-1z" fill="#fff"/>
  <path d="M358.5 184.9c1.2 2 2.3 3.9 3.6 5.9 5.1 7.7 12.4 11.3 21.4 12.8 4.5.8 5.5 5.2 4.4 10.2-13.5-6.1-25-13.8-29.4-28.9zM314.1 357.7c2.8-3.9 3.5-9.1 9.5-6.8 9.7 3.7 12 6.6 10.2 13.4-6.4-2.2-12.6-4.3-19.7-6.6zM133.1 368.4c-2.7-1.4-5.4-6.3-8-.1-1.1-1.3-2-2.3-3.2-3.6-6.2 5.7.5 12.6-2.9 18.7-.9.2-2.4.6-4 1-.4-5.8 2.5-12.1-3-17.4 6.3-3.6 12.9-4.6 19.8-3.7 1 .1 1.8 2.8 2.6 4.2-.3.3-.8.6-1.3.9zM110 417.2c3.6-5.8 6-17.5 3.7-20.9 2-3 4.1-5.9 6.1-8.9 0 9.5.8 19.1-4.3 27.5-.9 1.4-3.7 1.6-5.5 2.3zM501.7 379.9c6.6-2.4 11.8-4.3 16.9-6.2.1.3.3.6.4.9-1.1.7-2.3 1.4-4 2.4 8.3 1.7 14.9-8.3 23.1-2.6-10.6 2.8-21 5.6-31.4 8.1-.9.1-2.4-1.3-5-2.6zM366.5 428c-.1 1.3 0 2.7-.5 3.8-2.4 5.3-5.2 5.6-8.5.8s-6.2-9.8-8.6-15.2c6.2 3.5 9.3 11.2 17.7 10.8.1-.1-.1-.2-.1-.2zM494.9 377.5c11.5-6 21.4-11.6 33.6-10.1-9.6 3.7-19.1 7.3-28.7 10.8-.9.4-2.2-.2-4.9-.7zM136.4 433c-4.9 1.1-8.9 1.9-13.7 2.9 2.8-4.6.4-4.9-2.5-4.6-2.2.2-4.4.6-7.2 1 4-6.7 15.1-6.4 23.4.7zM517.7 445.1c15.3 5.7 30.5 4.6 45.8-.6-12.3 5.1-24 10-45.8.6zM437.1 265.6c-4.6-3.5-6.1-7-5.1-12 .5-2.2-1-4.8-1.8-7.8 1.7-.1 3.3-.3 5.3-.4.6 6.8 1.1 13.2 1.6 20.2zM341.6 354.3c2.6-2.1 4.8-4 7.6-6.3 3.1 3.5 5.9 6.7 8.8 10l-.9 1.5c-4.9-1.7-9.8-3.4-15.5-5.2zM547.5 428.5c8.9-9.2 17.9-18.3 26.8-27.4.4-.4 1.2-.5 2.5.1-9.6 9.3-19.1 18.7-28.7 28-.2-.2-.4-.4-.6-.7zM76 425.4c8.8 2.1 19.6-3.8 27.4 7.5-9.8-2.7-18.6-5.1-27.4-7.5zM577.3 407.5c-7.1 6.9-14.2 13.9-21.2 20.8-.7-.7-1.5-1.4-2.2-2.2 7.4-6.6 14.8-13.1 22.2-19.7.3.4.8.8 1.2 1.1zM130.6 406.5c1.6-8.7 3.2-17.4 4.8-25.8 2.9 10.2.2 23.8-4.8 25.8zM100.6 83.2C96 87 92 90.3 87.2 94.3c-.5-2.3-1.4-3.8-1-4.9 1.2-3.2 9.7-6.9 14.4-6.2zM512.3 383.2c6.9-1.8 13.7-3.6 20.6-5.4.2.6.3 1.1.5 1.7-6.6 2.8-12.7 7.7-20.7 5.4-.2-.6-.3-1.2-.4-1.7zM474.6 368.1c-11.1-2.1-12.8-3.2-13.3-8.6 5.1 2.4 9.7 4.6 14.4 6.8-.3.6-.7 1.2-1.1 1.8zM361.4 346.7c-5.8-5.8-5.7-6.1 4.6-12.4-1.7 4.4-3.1 8.1-4.6 12.4zM448 210.8c.9 5.6.9 5.6-13.9 8.8 5.1-3.2 9.3-5.8 13.9-8.8zM334.7 418.3l-17.4-10.5c.4-.6.8-1.2 1.1-1.9 5.7 3.6 11.4 7.3 17.1 10.9-.2.6-.5 1-.8 1.5zM421 169.6c3.7-.3 7.3-.8 11-.9.8 0 1.7 1.6 2.5 2.5-1 .4-2.1 1.2-3 1.1-3.5-.3-7-.9-10.5-1.3v-1.4zM117 338.3c3.4-3.2 6.8-6.3 10.4-9.7 0 5.8-3.8 9.2-10.4 9.7zM143.6 274.3c-1.5-3.2-2.9-6.4-4.4-9.7.9-.4 1.8-.8 2.6-1.1 1.3 3.4 2.7 6.7 4 10.1-.7.2-1.5.4-2.2.7zM312.9 405.5c2.2 5.1 3.8 8.6 5.3 12.1-.2.2-.4.5-.6.7-2.2-2.7-4.6-5.3-6.5-8.2-.4-.6.9-2.3 1.8-4.6zM562 425.4l12-11.4c.4.4.8.8 1.2 1.3-3.5 4.3-7.1 8.5-10.6 12.8-.8-.9-1.7-1.8-2.6-2.7zM394.9 324.5c-4.1 3.1-8.2 6.1-13.3 9.9 2.3-7.5 8.9-7.4 12.3-11.3.4.5.7.9 1 1.4z" fill="#fff"/>
  <path d="M134.5 202c-.6.9-.9 1.7-1.5 1.9-5.5 2.1-9.9-.5-14.1-3.6-4-2.9-6-7.6-4-11.5 3.2-6.3 7.9-12 12.5-17.4 1.1-1.3 5.3-1.8 6.8-.8 3.9 2.7 7.2 6.5 10.7 9.8-.5.6-1 1.1-1.5 1.7-1.2-.8-2.5-1.4-3.5-2.3-3.1-2.9-6.6-7.2-10.6-4.1-3.4 2.6-6 7.5-7.1 11.9-1.7 6.5 4.8 9 8.6 12.6 1 .8 2.3 1.1 3.7 1.8zM210.8 195.1c1.1 2.7 3 5.1 2.5 6.6-2 5.9-4.7 11.5-7.4 17.1-.3.7-2.5 1.2-3.1.7-1.2-.8-3.1-2.7-2.8-3.6 2-7.1 2.6-15.1 10.8-20.8zM349.5 232.7c3.1 3.5 3.3 16.5-.1 19.3-.9.7-4.5 0-4.7-.7-1.5-4.8-.8-15 4.8-18.6zM110.3 106.7c-21.8 11.1-42.6 21.7-62.3 31.8 3-6.3 42.3-26.7 62.3-31.8zM94.9 121.8c-4.9 2.2-9.8 4.3-14.7 6.5-1.5.7-3.1 1.2-4.6 1.9-.3-.6-.5-1.2-.8-1.8 11.9-5.7 23.7-11.5 35.6-17.2.3.6.6 1.1.9 1.7-4 2-8 3.9-12 6-1.6.9-3 2.1-4.5 3.2-.1-.1.1-.3.1-.3zM129.3 102.5c9.7-3.3 19.4-6.5 29.1-9.8.2.6.4 1.3.6 1.9-10.8 3.7-21.5 7.4-33.4 11.5 1.4-2.6 2.3-4.3 3.1-5.9.2.7.4 1.5.6 2.3z"/>
  <path d="M94.7 122c3.4-1 6.8-2.1 10.2-3.1.1.3.3.6.4 1-7 3.6-13.9 7.2-20.9 10.8-.2-.4-.5-.9-.7-1.3 3.7-2.5 7.5-5 11.2-7.5 0-.1-.2.1-.2.1zM68.5 134.4c-6.6 3.9-13.3 7.9-19.9 11.8l-.9-1.5c6.6-3.9 13.2-7.9 19.7-11.8.4.4.8 1 1.1 1.5zM392.3 400.9c6.8 8.4 13.5 16.9 20.3 25.3 5.7-2.7 6.6 2.7 8.7 6.1-2.3-1.2-4.5-2.3-8-4 2.1 3 3.3 4.8 4.6 6.6-.3.3-.5.6-.8.9-1.8-1.4-3.6-2.8-5.5-4.3-.2.4-.5.8-.7 1.3-1.1-.2-2.9 0-3.3-.6-4.2-6.7-8.4-13.4-12.1-20.4-1.8-3.3-2.8-7.1-4.1-10.6l.9-.3zM383.6 389c4.8 11.4 9.5 22.9 14.8 35.6-6.3-4.1-17.2-29.1-16.3-35l1.5-.6zM539.2 421.3c1.5-2 2.7-4.2 4.4-5.9 4.4-4.4 8.9-8.6 13.4-12.9.5.6 1 1.1 1.6 1.7-6.5 5.6-13.1 11.3-19.6 16.9 0 .1.2.2.2.2zM488.6 364.7c2.6-1.7 5.2-3.4 7.9-5.2.5.3.9.7 1.4 1-1 1.4-1.7 3.2-3.1 4.1-1.6 1.1-3.7 1.6-5.6 2.4-.2-.7-.4-1.5-.6-2.3z"/>
  <text transform="translate(29.847 43.346)" fill="#fff" font-family="BaskervilleT-Bold" font-size="35" letter-spacing="5">PEANUTS</text>
  <text transform="translate(309.736 49.684)"><tspan x="0" y="0" font-family="Peanuts" font-size="34">I</tspan><tspan x="14" y="0" font-family="MyriadPro-Regular" font-size="34">’</tspan><tspan x="21" y="0" font-family="Peanuts" font-size="34">M MAKING OUT</tspan><tspan x="0" y="40.8" font-family="Peanuts" font-size="34">MY CHRISTMAS</tspan><tspan x="0" y="81.6" font-family="Peanuts" font-size="34">LIST, VIOLET...</tspan></text>
</svg>
