<svg xmlns="http://www.w3.org/2000/svg" viewBox="0 0 595.3 465.5" xml:space="preserve">
  <path fill="#fff" d="M0 0h595.3v465.5H0z"/>
  <path d="M0 0h595.3v465.5H0V0zm159.1 460.2c54.5.1 109 0 163.6.1 11.9 0 23.9.8 35.8.9 37.2.4 74.4.8 111.5 1.1 14.2.1 28.3 0 42.5.1 23.5.1 47.1.1 70.6.3 5 0 6.8-2.2 6.9-6.9.1-9.6.4-19.2.5-28.7.1-23 .1-46.1.2-69.1.2-54.5.5-108.9.8-163.4.2-33.6.4-67.3.5-100.9V13c0-5.6-1.9-7.3-7.5-7.4l-59.3-.3c-24.4-.1-48.9 0-73.3-.2-30.3-.2-60.7-.7-91-.8-11.2 0-22.4 1-33.6 1-19.8.1-39.6 0-59.5-.2-12.7-.1-25.3-.8-38-.7-44.8 0-89.5.4-134.3.4-27.1 0-54.3-.2-81.4-.5-4.5-.1-7 1.5-7.5 5.9-.4 5-1 9.8-1.1 14.7-.4 30.1-.8 60.3-1.1 90.5-.4 39.4-.7 78.7-.8 118.1-.1 35.6 0 71.2-.1 106.8 0 13.7 0 27.5-.2 41.2-.3 22.9-.7 45.9-1.1 68.8-.1 5.7 2.1 9.6 5.7 9.7 4.1.1 8.2.2 12.3.2h138.9z" fill="#fff"/>
  <path d="M159.1 460.2H20.2c-4.1 0-8.2-.1-12.3-.2-3.6-.1-5.8-4.1-5.7-9.7.4-22.9.8-45.8 1.1-68.8.2-13.7.2-27.5.2-41.2 0-35.6-.1-71.2.1-106.8.2-39.4.5-78.7.8-118.1.3-30.2.7-60.4 1.1-90.5.1-4.9.6-9.7 1.2-14.6.5-4.4 3-5.9 7.5-5.9 27.1.3 54.3.5 81.4.5 44.8 0 89.5-.4 134.3-.4 12.7 0 25.3.6 38 .7 19.8.2 39.6.3 59.5.2 11.2-.1 22.4-1.1 33.6-1 30.3.1 60.7.6 91 .8 24.4.2 48.9.1 73.3.2l59.3.3c5.6 0 7.5 1.7 7.5 7.4 0 26.9 0 53.8-.1 80.7-.1 33.6-.3 67.3-.5 100.9-.3 54.5-.5 108.9-.8 163.4-.1 23-.1 46.1-.2 69.1 0 9.6-.4 19.2-.5 28.7 0 4.7-1.9 6.9-6.9 6.9-23.5-.2-47.1-.3-70.6-.3-14.2 0-28.3 0-42.5-.1-37.2-.3-74.4-.6-111.5-1.1-11.9-.1-23.9-.9-35.8-.9-54.5-.2-109-.1-163.6-.2zM10.8 104.9v289.9c15.3 0 30.9-.1 46.5 0 14.9.1 29.7.6 44.6.8 8.8.1 17.7-.4 26.5-.3 2 0 3.9 1.3 5.9 2l-.6 2.4h-30.6c-13.4 0-26.8.2-40.2.1-7.3 0-14.5-.5-21.8-.7-9.1-.3-18.2-.8-27.3-.9-1.3 0-2.7 1.6-4 2.4 1.3.6 2.7 1.7 4 1.7 14.3.5 28.6.9 43 1.1 25.5.4 51 .7 76.4 1.1 2.1 0 4.2.9 6.3 1.4 0 .7.1 1.5.1 2.2-2.4.5-4.8 1.5-7.2 1.5-9.1-.3-18.2-1.2-27.3-1.3-28.6-.3-57.2-.3-85.9-.5-2.9 0-5.9-.7-9.7-1.2 0 14.1.3 27.5-.1 40.9-.2 5.2 1.5 6.4 6.4 6.3 31.5-.2 63.1-.1 94.7-.1 17.9 0 35.9-.1 53.8-.1 17.6-.1 35.1-.4 52.7-.4 34 .1 68 .5 102 .6 29.1.1 58.1 0 87.2.1 8.6 0 17.3.5 25.9.5 8.1 0 16.3-.7 24.4-.5 11.3.3 22.5 1.5 33.8 1.7 19.4.4 38.8.4 58.2.5 11.2.1 22.4 0 34 0 .2-4.1.5-7.5.6-10.9.3-9.6.5-19.1 1-28.7.1-3.4-1.3-4.3-4.5-4.3-29.7-.2-59.5-.5-89.2-.9-8.2-.1-16.3-.7-25.1-1.1.8-1.6 1.1-2.5 1.3-2.5 38.9-.1 77.9-.1 116.9-.1 1.3-5.6-3-4.6-5.6-4.6-8.9-.1-17.7.2-26.6.3-11.9.1-23.8.2-35.7 0-13-.2-26-.8-39-1.3-1.8-.1-3.6-.6-5.3-1 0-.7.1-1.4.1-2.1H584V123.1c-20 15.7-43 23.1-67 28 5.4 11.2-8.5 44.4-20.3 50.1-.1-.5-.3-1.1-.3-1.6s.1-1.2.4-1.6c7.4-9.7 7.9-20.7 6.2-32.1-1.5-10.5-5.2-16.5-17-15.1-8.3 1-17 .5-25.4-.2-19.3-1.7-38.2-6.2-56-13.8-13.8-5.9-26.6-13.9-30.8-30.1-1 0-1.8-.2-2.4 0-15 5.3-30.6 4.7-46.1 4.1-9.1-.3-18.2-.1-27.1-.1-.2 1.4-.3 1.8-.3 2.1 1 4.6 2.1 9.1 3.1 13.7 1.5 6.9-.5 11.2-7 14.1-4.1 1.8-8.4 3.7-12.7 4-15.9 1.1-31.9 2.4-47.9 2.2-21.8-.3-43.7-1.8-65.5-3.1-14.5-.9-16.4 1.2-14.3 16 .3 2.3-.5 5.2-1.9 7-.7.9-4.1.3-5.9-.4-6.5-2.5-9.2-7.9-9.3-14.5 0-4.2-1.8-5.7-5.9-5.9-12.6-.6-25.2-1.4-37.8-2.1-11.5-.7-23.1-1-34.6-2.4-9.3-1.1-18.3-3.7-24.4-12.1-4.7-6.4-4.4-11.6 1.6-16.8 1.9-1.6 3.8-3.4 5.7-5.1-10.1-.7-19.4-1.5-30.3-2.5zM149 163.3c-5-16.1 1.2-24.9 16.7-24.6 14.3.3 28.5 1.8 42.7 1.9 26.2.3 52.5 1.2 78.5-3.1 7.3-1.2 9.8-3.8 8.5-10.5-.9-4.9-2.1-9.9-3.3-14.7-1.6-6.2-1.1-7.3 5.4-7.5 7.8-.3 15.6.2 23.4 0 14.4-.3 28.9 1.4 43.2-2.3 10.4-2.7 15.1-10.5 9.9-19.1-2.5-4.1-5.1-8.2-8.2-11.8-2.6-2.9-1.7-4.2 1.1-5.7 6.2-3.2 12.4-6.5 18.6-9.9 15.7-8.6 19.5-21.5 12.3-37.8-2.7-6.1-6.7-7.5-12.4-7.5-5 .1-10-.1-15 0-20.7.3-41.3.7-62 .9-5.8.1-11.7-.7-17.5-.7-6.6 0-13.2.7-19.8.7-20 0-40.1-.5-60.1-.6-13.9-.1-27.8.5-41.7.5-17.4 0-34.7-.3-52.1-.3-11.3 0-22.5.5-33.8.4-13.6-.1-27.2-.6-40.8-.7-2.2 0-4.8.6-6.5 1.8-5.8 4.1-11.3 8.7-17 13-5.4 4.1-8.2 9.2-7.3 16.3.6 4.3.1 8.7.1 13.1v42.3c13.1 5 27.7-1.7 40.5 6.7-1.8 1.3-3.1 2-4.2 3.1-3.4 3.3-7.5 6.3-9.9 10.3-1.3 2.2-.8 7.5.9 9 3.8 3.3 8.7 6.4 13.5 7.2 12.6 2.2 25.3 3.7 38 4.6 14.5 1 29.1.9 43.7 1.3 6.3.2 7.3.9 7.1 7.3 0 6.2 1.1 11.7 7.5 16.4zm362.9 2.2c.4-.1.8-.2 1.1-.2-.6-3.3-.9-6.6-1.9-9.8-.9-2.9-2.5-5.6-3.9-8.4 3-1.1 6-2.3 9-3.4 1-.4 2.1-.7 3.1-.8 20.9-2.8 40.2-9.8 57.4-21.8 3.7-2.6 7.6-5.9 7.7-11.6.1-11.5.6-22.9.8-34.4.2-9-.1-18.1.3-27.1.2-4.9-.9-8.9-4.9-11.9-8-6.1-15.6-12.7-24.2-17.9-6.8-4.1-14.2-7.3-22.9-7.2-34.3.6-68.6.8-102.9.5-7.5-.1-13.1 2-17.7 7.6-2.2 2.7-5.6 4.3-5.2 8.9 1.3 15.7-6.8 26.4-20.2 32.8-9.2 4.4-10 12.1-8.3 20.7 1.2 6 2.7 11.8-.3 17.8-.8 1.7-.6 4.3 0 6.2 3 9.7 9.9 16.3 18.3 21 12.8 7.1 27 10.9 41.3 13.9 16.3 3.4 32.7 5.3 49.5 4.7 7.8-.3 14.5 2.5 18.7 9.4 2.2 3.4 3.5 7.3 5.2 11zm44.7-153.8c9.8 6.7 18.8 12.8 28.7 19.5 0-5.4-.1-10 0-14.6.1-3.3-1.3-4.3-4.5-4.4-6.5-.1-12.9-.8-19.4-1.1-1.2-.1-2.6.3-4.8.6zm-529.9.5H12.2V25c5.2-4.5 9.4-8.2 14.5-12.8zm386.9-.1h-13c1.9 2.8 3.3 4.8 5.2 7.5 2.4-2.3 4.5-4.4 7.8-7.5z"/>
  <path d="M10.8 104.9c10.9 1 20.2 1.8 30.2 2.7-1.9 1.7-3.8 3.5-5.7 5.1-6 5.1-6.3 10.3-1.6 16.8 6.1 8.4 15.1 11 24.4 12.1 11.5 1.4 23.1 1.7 34.6 2.4 12.6.8 25.2 1.6 37.8 2.1 4.1.2 5.8 1.7 5.9 5.9 0 6.6 2.8 12 9.3 14.5 1.8.7 5.2 1.3 5.9.4 1.4-1.7 2.3-4.7 1.9-7-2.1-14.9-.3-16.9 14.3-16 21.8 1.3 43.6 2.8 65.5 3.1 15.9.2 31.9-1 47.9-2.2 4.3-.3 8.7-2.2 12.7-4 6.5-2.9 8.5-7.2 7-14.1-1-4.6-2.1-9.1-3.1-13.7-.1-.3.1-.7.3-2.1 8.9 0 18-.2 27.1.1 15.6.5 31.1 1.1 46.1-4.1.6-.2 1.4 0 2.4 0 4.2 16.2 17 24.3 30.8 30.1 17.8 7.6 36.7 12.1 56 13.8 8.4.7 17.1 1.2 25.4.2 11.8-1.4 15.5 4.7 17 15.1 1.7 11.4 1.2 22.4-6.2 32.1-.3.4-.4 1-.4 1.6 0 .5.2 1 .3 1.6 11.8-5.7 25.8-38.8 20.3-50.1 24-5 47-12.3 67-28v275.8H471.3c0 .7-.1 1.4-.1 2.1 1.8.3 3.5.9 5.3 1 13 .5 26 1.1 39 1.3 11.9.2 23.8 0 35.7 0 8.9-.1 17.7-.4 26.6-.3 2.6 0 6.9-1 5.6 4.6-39 0-77.9 0-116.9.1-.2 0-.5.8-1.3 2.5 8.8.4 17 1 25.1 1.1 29.7.4 59.5.7 89.2.9 3.2 0 4.7.9 4.5 4.3-.4 9.5-.6 19.1-1 28.7-.1 3.4-.4 6.8-.6 10.9h-34c-19.4-.1-38.8-.1-58.2-.5-11.3-.2-22.5-1.4-33.8-1.7-8.1-.2-16.2.5-24.4.5-8.6 0-17.3-.5-25.9-.5-29.1-.1-58.1 0-87.2-.1-34-.1-68-.5-102-.6-17.6 0-35.1.3-52.7.4-17.9.1-35.9.1-53.8.1-31.6 0-63.1-.1-94.7.1-4.9 0-6.6-1.1-6.4-6.3.4-13.4.1-26.8.1-40.9 3.8.5 6.7 1.2 9.7 1.2 28.6.2 57.2.2 85.9.5 9.1.1 18.2 1.1 27.3 1.3 2.4.1 4.8-.9 7.2-1.5 0-.7-.1-1.5-.1-2.2-2.1-.5-4.2-1.3-6.3-1.4-25.5-.4-51-.7-76.4-1.1-14.3-.2-28.6-.6-43-1.1-1.4 0-2.7-1.1-4-1.7 1.3-.8 2.7-2.4 4-2.4 9.1.1 18.2.6 27.3.9 7.3.3 14.5.7 21.8.7 13.4.1 26.8-.1 40.2-.1h30.6l.6-2.4c-2-.7-3.9-2-5.9-2-8.8-.1-17.7.3-26.5.3-14.9-.1-29.7-.6-44.6-.8-15.6-.1-31.2 0-46.5 0 .1-97.7.1-193.7.1-290.1zm232.6 271.8c4.4-2.6 8.8-5.1 12.9-8 .9-.6 1.3-2.5 1.3-3.8.3-8.4-3.2-15.5-8.2-21.8-4.2-5.3-6.5-5.1-11.7-.6-1.3 1.2-2.7 2.3-5.5 4.8-.5-9-1.1-16.9-1.4-24.8-.2-3.8.8-7.9-.2-11.5-2.1-7.9-5.8-14.9-13.7-15.2-1.4-3.9-1.9-7-3.4-9.3-2.9-4.2-.2-7.6 1-11.2.1-.3 4.2 1.1 6.4 1.1 2.4 0 4.7-.5 7.1-1 1.7-.4 3.7-2 4.9-1.5 9.4 3.7 15.1-2.1 20.7-7.7 4.1-4.1 3.6-10.7-1-14.3-3.2-2.5-6.7-4.6-10.2-6.8.2-.7.2-1.3.4-1.7 3.9-7.7 7.6-15.5 11.6-23.1 4.4-8.2 4.3-16.3.1-24.2-6.6-12.7-16.5-22.4-28.7-29.6-9.2-5.5-20-7.2-29.9-4-10.3 3.3-20.1 9-29.1 15.1-8.1 5.5-16.5 7.6-25.9 7-7-.4-13.7.8-19.6 4.7-4.5 3-7.7 10.1-4 16.1 3.6 5.7 9.2 7.8 14.6 10.6 1.5.8 3.5 1.6 4 2.9 2.6 6.4 4.8 13 7.1 19.7-1.2.4-1.7.6-2.1.7-8.4 1.9-9.1 3.7-4.6 10.8.6 1.1.8 2.8.5 4-1.6 5.9-.5 8.3 5.5 10.2 2.4.8 5 .8 7.5 1.5 1.5.4 2.9 1.4 5.3 2.7-9.1 3.2-10.3 7.5-3.8 12.2 4 3 9.2 4.7 14.1 6.1 4.6 1.3 9.5 1.5 15.5 2.3-1.5 3.5-2.7 6.2-3.9 9 1.3 2.8 2.1 5.9 1.6 8.8-1 5.8-3.1 11.4-4.1 17.2-2.3 12.3-6.5 23.5-15.7 32.5-3.4 3.3-2.7 6.7 1.8 9.1 3.5 1.8 3.7 4 1.8 6.9-.9 1.4-1.6 2.8-2.5 4.1-4.3 6.2-4 7.5 2.9 10.4 2.5 1.1 5.1 1.9 7.4 3.2 1.3.7 2.3 2.2 3.7 3.5-5.6 1.3-10.4 2.4-15.7 3.7-8.2-5.8-11.3-4.4-14.8 1.3-2.1 3.5 0 5.6 1.2 8.4 6.2 14.2 17 23.3 31 29.1 3.6 1.5 7.1 3.4 11.9 5.7-26.4.6-51.2-2.4-77 3.3 2 1.3 3 2.4 3.9 2.4 9.9.3 19.9.3 29.8.6 6.3.2 12.5 1.1 18.8 1 10.5-.2 21.1-1.3 31.6-1.4 7.2-.1 14.5 1 21.7 1.2 3.1.1 6.3-.9 9.5-.9 3.5 0 7.1 1 10.6.9 6.9-.2 13.7-.9 20.6-1.5 3.2-.3 6.3-.9 9.5-1.4-.1-.8-.1-1.6-.2-2.3-25.3-2.5-50.8-2.2-75.2-1.9 3.5-13.4.7-29 11.9-41.2 6.6 11.5 15.3 18.2 29.2 15.7-1.8 5.2-3 9.4-4.5 13.4-1.5 3.9-.3 6.8 3.1 8.7 3.5 1.9 11.8-.4 13.6-4 6-11.7 10.4-24.1 11.7-37.3.7-6.8-.4-7.6-7.2-6.5-2.1.3-4.1 1.3-6.2 1.6-1.5.3-3.1.1-6.2.1 3.5-2.1 5.4-3.4 7.4-4.6 5.9-3.3 6.1-6 .7-10.1-.7-.7-1.4-1.2-1.2-1.1zm104.2 29.7c-2.6-.3-4.6-.6-6.6-.6-25.8-.1-51.5-.1-77.3-.1-1.6 0-3.2 1-4.8 1.5.1.8.2 1.5.3 2.3h87.2c2.3 4.1 3.4 7.3 5.5 9.6 11.8 13.2 27.6 19.3 44.1 23.5 3.5.9 5.8-1 6.5-5.2 1.3-7.4 3.5-14.6 5.4-21.8 1.2-4.6 4.3-4.1 7.6-2.6 4.7 2 9.4 4.1 14.5 6.2-1.3 3.4-2.3 7.5-4.2 11.1-2.9 5.3-1.9 9.9 4 10.5 3.8.4 8.9-.8 11.8-3.3 10.5-9.1 17.2-20.7 19.9-34.5 1.4-6.9-.9-9-8.1-8.3-3.8.4-7.7-.3-11.6-.8-.8-.1-1.5-1.3-2.3-1.9.8-.8 1.5-2.2 2.4-2.4 2.8-.6 5.8-.4 8.6-1.3 2-.6 4.9-2.1 5.2-3.7 3.7-17.6 7.6-35.3 6.4-53.5-.1-2.1-2.3-5.1-4.2-5.8-3.9-1.4-8.3-1.9-12.6-2.2-3.6-.3-5.9-1-7.1-5.1-1.7-5.8-4.5-11.3-6.6-17.1-.8-2.2-.9-4.6-1.1-6.9-.2-3.6 0-7.2 0-11.2 10.2-5.7 19.7-13 27.9-22.9 11.6-14.1 14.8-29.8 13.2-47-.8-9.1-3.6-18.2 5.4-25 .2-.1.1-.6.2-2.3-2.8 1.5-5 2.6-6 3.1-2.2-2.3-3.6-3.8-5.1-5.2-1.2-1.1-2.8-1.7-3.8-3-8.6-10.9-18.9-19.2-33.1-21.6-29.5-4.9-55.2 1.4-74.8 25.4-2.4 2.9-3.9 4.5-8.2 3.7-4.4-.8-8.5 1.4-9.7 6.6-.7 3.3-1.6 6.5 2.6 8.9.7-1.5 1.4-2.5 1.6-3.7.8-4.1 2-6.7 7.2-4.7 1.4.6 4.6-1 5.8-2.5 6.7-8.8 13.9-16.3 24.1-21.6 9.4-4.9 19-8 29.2-8.2 8-.2 16.1 1.6 24 3 10.5 1.9 19.6 7.2 24.8 16.5 4 7.1 6.3 15.2 8.5 23.1 7.1 24.5-4.4 51.5-24.5 65.8-6 4.3-15.3 4.8-17.6 14-.2.7-1.8 1-2.8 1.4-4.6 1.6-9.2 3.3-13.8 4.7-3.3 1-6.8 1.8-10.2 2.7-2-10.1-3-10.8-12.3-12.7-6.2-1.3-12.3-3.1-18.3-4.9-1.9-.6-3.6-1.9-5.8-3 .9-1.2 1.3-1.8 1.8-2.2 6.3-5.8 5.6-10.1-2.4-12.8-4.8-1.6-9.8-2.5-14.7-3.4-2.5-.5-4.5-1.3-3.4-4.1 1.5-3.9.1-5.5-3.6-6.8-1.4-.5-2.9-3.1-2.7-4.5.2-1.4 2.2-3 3.8-3.8 1.8-1 4-1.3 5.8-1.9 1.1 3 2.2 6.2 3.5 9.8 5.1-3.9 4.4-8.2 3.2-12.1-.4-1.3-3.4-1.8-5.4-2.8.5-4.4.8-9.6 1.6-14.7.7-4.9 1.8-9.8 2.8-14.6-.7-.2-1.3-.3-2-.5-.8 1.5-1.8 3-2.3 4.6-2.1 7.6-3.9 15.3-6.1 22.8-.6 1.9-1.9 4-3.6 5-7.5 4.8-9.4 12.3-1.6 17.2.9.6 2.2 2.2 1.9 2.9-2.3 6.3 2.6 7.1 6.4 8.1 4.3 1.2 8.9 1.6 13.2 2.6 1.3.3 2.8 1.5 3.3 2.7.3.6-1.3 2.2-2.2 3.2-.5.5-1.2.8-1.9 1-4.8 1.8-4.5 4.4-.8 6.8 4.3 2.8 8.6 5.8 13.4 7.7 5.8 2.2 12 3.4 19.6 5.4-6.5 1.6-10.1 4.4-9 9.8.8 4.2 3.6 7 7.1 6-2.1 9.5-4.8 19.1-6.4 28.9-1.6 9.9-8 16.8-13.6 24.2-4.2 5.5-3.6 9.2 2.4 12.6 10.9 6.3 11.6 8.3 5.9 19.5-2.1 4 .3 6.1 2.9 7.4 4.6 2.4 2.9 5.5 1.5 8.5-1.7 3.8-4.4 1.1-6.4.5-2.8-.9-5.4-2.3-9.2-4 3.1-.7 5-1.2 6.9-1.6l.3-1.8c-2.7-.7-5.3-1.9-8-1.9-10.2-.2-20.4.1-30.5.1-14.1 0-28.2-.2-42.3-.2-8.1 0-16.2-.1-24.3.1-1.1 0-2.2 1.6-3.4 2.5 1.2.6 2.4 1.6 3.6 1.7 16.5.1 32.9.2 49.4.2h35.3c-.5 2.2-.8 3.5-1.2 4.9zm-16.7 38.1c7.5 1.3 14 6 21.4 3.9.7-.2 1.7-.2 2.1.2 5.2 4.9 10.8 1.7 16.4 1.1 4-.5 8.1-.6 12.1-.3 2.5.2 4.8 1.7 7.2 2.1 7.3 1.4 14.9-5 22.1.9.5.4 1.7-.2 2.6-.4 3.6-.5 7.1-1.5 10.7-1.5 4.7 0 9.4 1.1 14.1 1.1 8.3.1 16.6-.1 24.9-.4 3.8-.1 7.5-.6 11.3-.7 7.9-.3 15.8-.4 23.7-.7.7 0 1.4-1.2 2.1-1.9-.1-.6-.1-1.1-.2-1.7-6-.4-11.9-.8-17.9-1-5.7-.2-11.5-.1-17.2-.4-4-.2-8-1-12-.9-4.1 0-8.2 1-12.3 1-2.4 0-4.7-1.6-7.1-1.7-7.1 0-14.2.4-21.3.6-1.6 0-3.2-.4-4.8-.5-7.7-.5-15.3-.9-23-1.3-2.1-.1-4.3.1-6.4.3-2.1.2-4.4 1-6.4.5-12.8-3.1-25.5.2-38.2.2-1.1-.1-2.5.9-3.9 1.5zm71.9-216.3c.5.7.9 1.4 1.4 2.1 1.3-.5 2.5-.9 3.8-1.5 4.6-1.9 6.9-.5 7.4 4.3.6 5-1.8 7.2-6.5 8-1.5.3-2.8 2-4.2 3.1 1.7.7 3.8 2.5 5 2 3.5-1.5 6.9-3.5 9.9-5.9 3.8-3.1 3.6-7.7 1.5-11.3-1.7-2.9-5.4-6.5-8.2-6.5-3.4.2-6.8 3.7-10.1 5.7zM556.6 11.7c2.2-.3 3.5-.7 4.8-.6 6.5.3 12.9 1 19.4 1.1 3.2.1 4.6 1 4.5 4.4-.1 4.6 0 9.2 0 14.6-9.9-6.8-18.8-12.8-28.7-19.5zM26.7 12.2c-5.1 4.5-9.4 8.3-14.5 12.8V12.2h14.5zM413.6 12.1c-3.3 3.1-5.4 5.1-7.8 7.5-1.8-2.7-3.2-4.7-5.2-7.5h13z" fill="#fff"/>
  <path d="M243.4 376.7c-.2-.1.5.3 1.1.8 5.4 4.1 5.2 6.8-.7 10.1-2 1.1-4 2.4-7.4 4.6 3 0 4.6.2 6.2-.1 2.1-.4 4.1-1.3 6.2-1.6 6.8-1.1 7.9-.3 7.2 6.5-1.3 13.2-5.7 25.5-11.7 37.3-1.8 3.6-10.2 6-13.6 4-3.4-1.9-4.6-4.8-3.1-8.7 1.6-4 2.8-8.2 4.5-13.4-13.9 2.5-22.6-4.2-29.2-15.7-11.2 12.2-8.4 27.8-11.9 41.2 24.5-.3 49.9-.6 75.2 1.9.1.8.1 1.6.2 2.3-3.2.5-6.3 1.1-9.5 1.4-6.8.6-13.7 1.3-20.6 1.5-3.5.1-7.1-.8-10.6-.9-3.2 0-6.3 1-9.5.9-7.2-.2-14.5-1.3-21.7-1.2-10.5.1-21 1.2-31.6 1.4-6.2.1-12.5-.8-18.8-1-9.9-.3-19.9-.3-29.8-.6-.9 0-1.8-1.1-3.9-2.4 25.8-5.7 50.6-2.8 77-3.3-4.9-2.3-8.3-4.2-11.9-5.7-14-5.8-24.8-14.9-31-29.1-1.2-2.8-3.3-4.9-1.2-8.4 3.5-5.7 6.6-7.1 14.8-1.3 5.4-1.3 10.1-2.4 15.7-3.7-1.4-1.4-2.3-2.8-3.7-3.5-2.3-1.3-4.9-2.1-7.4-3.2-7-3-7.3-4.2-2.9-10.4.9-1.3 1.7-2.8 2.5-4.1 1.9-3 1.7-5.1-1.8-6.9-4.5-2.3-5.2-5.7-1.8-9.1 9.2-9 13.4-20.2 15.7-32.5 1.1-5.8 3.1-11.4 4.1-17.2.5-2.9-.3-6-1.6-8.8 1.2-2.8 2.4-5.5 3.9-9-6-.8-10.9-1-15.5-2.3-4.9-1.4-10.1-3.1-14.1-6.1-6.4-4.7-5.3-9 3.8-12.2-2.4-1.2-3.8-2.3-5.3-2.7-2.4-.7-5.1-.7-7.5-1.5-6-1.9-7.2-4.4-5.5-10.2.3-1.2.1-2.9-.5-4-4.4-7.2-3.7-8.9 4.6-10.8.5-.1 1-.3 2.1-.7-2.4-6.7-4.5-13.3-7.1-19.7-.5-1.3-2.5-2.2-4-2.9-5.4-2.8-11-4.8-14.6-10.6-3.7-6-.5-13.1 4-16.1 5.9-4 12.6-5.2 19.6-4.7 9.4.6 17.7-1.5 25.9-7 9-6.1 18.8-11.7 29.1-15.1 9.8-3.2 20.7-1.4 29.9 4 12.2 7.2 22.1 17 28.7 29.6 4.2 8 4.3 16.1-.1 24.2-4.1 7.6-7.8 15.4-11.6 23.1-.2.4-.2 1-.4 1.7 3.4 2.3 7 4.3 10.2 6.8 4.6 3.6 5.1 10.3 1 14.3-5.7 5.6-11.4 11.5-20.7 7.7-1.2-.5-3.2 1.2-4.9 1.5-2.3.5-4.7 1-7.1 1-2.2 0-6.4-1.4-6.4-1.1-1.1 3.6-3.9 7-1 11.2 1.6 2.3 2 5.3 3.4 9.3 7.9.3 11.6 7.2 13.7 15.2.9 3.6 0 7.6.2 11.5.4 7.9.9 15.8 1.4 24.8 2.8-2.4 4.1-3.6 5.5-4.8 5.2-4.5 7.5-4.7 11.7.6 5 6.3 8.5 13.4 8.2 21.8 0 1.3-.4 3.2-1.3 3.8-4.1 3.2-8.5 5.7-12.8 8.3zm-90-101.7c5.1 4.1 10.5 5.5 16.3 6.5 6.5 1.2 15.8-2 16.2 10.3 7-2 13.6-3.1 19.5-6 2.2-1 2.4-6 3.6-9.1.4-1.1 1-2.2 2-4.4-2.8-1.1-5.2-2.5-7.8-2.9-5.1-.6-9.6-4.9-10.4-10.1-.4-2.6-1.6-5-2.7-8.2.1-.1.9-1.9 2-2.1 6.3-1.1 5.5-5.7 5.3-10.1-.1-4-2.2-4-5.1-2.5-1.8.9-3.5 1.9-6.2 3.3.6-2.3.8-3.2 1.3-5-9.8 5.2-15.1-1.9-22.1-6.3 7-5.5 1.1-11.4 3.1-17.6-7 1.7-13 3.1-17.4-2.5-10 7.6-10.2 8-5.1 15.2 4.2-3.5 7.3-2.8 9.3 3.2-3.1.3-5.7.5-9.6.8 2 3.2 3.8 8.1 5.3 8 7.7-.4 5.3 5 5.6 8.7.1 1.5-1 4.4-1.7 4.4-2.3.1-4.7-.6-6.9-1.3-1.5-.5-2.9-1.6-3.7-2.1 0 2.5.5 4.3-.1 5.8-2.8 7.5-.5 8.1 6.3 9.1 1.1.2 2.6-.5 3.2.1 2.3 2 5.1 4 6.3 6.6.6 1.2-1.9 4-3.2 5.9-.7.9-1.8 1.3-3.3 2.3zm89.9 107c-3.2-3-5.5-5.1-7.7-7.3-2.6-2.6-4.8-3.9-8.9-2-6 2.8-12.5 4-18.1-1.5-.5-.5-1.7-.3-2.6-.3-8.5-.7-17.2-.8-25.6-2.2-9.6-1.7-15 1.6-16.6 12.3 6.5 2.3 13.3 4.3 19.6 7.1 18.5 8.3 36.3 7.4 53.8-2.6 1.9-1.1 3.8-2.2 6.1-3.5zm-36.9-14.9c1.9-18.6-2.1-33.8-15.2-45-3.3.4-5.9.4-8.3 1-1.4.4-3.6 1.5-3.8 2.6-1.7 10.1-3.3 20.2-4.4 30.4-.2 1.7 1.6 5.1 2.9 5.4 9.3 2.2 18.9 3.7 28.8 5.6zm18-42.1c.2-1.6.7-3.6.8-5.5.6-7.5-3.5-15.5-8.8-17.4-7.7-2.8-22.3 6.1-23.3 14.2-.5 3.6 4.9 9.8 8.1 9.4.5-1.4.9-2.8 1.6-4.7 1.9 1.2 3.4 2.1 4.9 3.1 1.1-1 2.1-2 3.4-3.3 3.4 4.3 6.9 8.1 13.3 4.2zm-5.1 43.4c.1-1.2.2-2.7.3-4.5 1.7.2 3.3.9 4.4.5 1.4-.6 3.4-2.1 3.4-3.2-.4-8.7-1.2-17.4-1.8-26.1-6.2.4-11.6.8-16.2 1.1 1 9.5 1.9 18.6 2.6 25.7 3.2 2.9 5.2 4.7 7.3 6.5zm25.7-22.5c-.6.1-1.2.3-1.8.4-2.6 4.5-5.7 8.8-7.7 13.5-1.7 4.1 1.2 6.6 4.9 7.9 5.3 1.8 11.8.4 12.5-2.7.1-.5.2-1.2 0-1.6-2.6-5.8-5.3-11.6-7.9-17.5zm-51.2 60c-.9-1.3-1.5-2.7-2.5-3.3-3.1-2.1-6.4-3.9-9.7-5.7-1.1-.6-3.3-.9-3.7-.4-1.1 1.5-2.5 4.1-1.9 5.2 2.7 4.8 6 9.3 9.3 13.7.5.7 3.3.9 3.6.4 1.7-3 3.1-6.3 4.9-9.9zm7.8-107.7c-.5-.1-1.3-.6-1.5-.4-3.4 2.9-6.9 4.1-11.2 1.9-.7-.4-2.1.8-3.2 1.2.7 1.3 1.1 2.9 2.1 3.7 3 2.6 2.7 4.2-.8 6-1.9 1-3.3 3-4.9 4.5 1.9.9 3.9 1.8 4.4 2.1 5.4-6.8 10.1-12.8 15.1-19zm-42.4 120.2c4.4-8.9 2-15.2-6-17.9-1.1-.4-3.1-.3-3.8.5-.7.7-.7 2.9-.1 3.8 3 4.5 6.4 8.8 9.9 13.6zm71.7-20.6c-.4-.5-.9-1.1-1.3-1.6-3.5 1.7-7.1 3.2-10.4 5.2-1.7 1-2.8 2.9-4.2 4.4 2 1.3 4 3.1 6.2 3.8 1.5.5 4.5-.1 5.2-1.2 2-3.2 3.1-7 4.5-10.6zm14 23.7c-7.6-.4-11 2.7-11.8 10.6 6.2 3.2 7.1 2.4 11.8-10.6zM232 409.8c5.4-1.7 4.8-6.7 5.9-10.8-5.6 1.5-5 6.6-5.9 10.8zm18.1-5.8c.7-3.3 1.1-5.6 1.8-8.6-2.6.5-4.7.8-8 1.4 2.5 2.8 4.1 4.7 6.2 7.2zm-70.5 25.3c.1.9.2 1.8.3 2.6h6.2c-.2-1.3-.4-2.7-.6-4-1.9.5-3.9.9-5.9 1.4z"/>
  <path d="M347.6 406.4c.4-1.4.8-2.7 1.5-5h-35.3c-16.5 0-32.9 0-49.4-.2-1.2 0-2.4-1.1-3.6-1.7 1.1-.9 2.2-2.5 3.4-2.5 8.1-.2 16.2-.1 24.3-.1 14.1.1 28.2.2 42.3.2 10.2 0 20.4-.2 30.5-.1 2.7 0 5.3 1.2 8 1.9l-.3 1.8c-1.9.4-3.8.9-6.9 1.6 3.8 1.7 6.4 3.2 9.2 4 2.1.6 4.7 3.4 6.4-.5 1.4-3.1 3.1-6.1-1.5-8.5-2.6-1.4-5-3.4-2.9-7.4 5.7-11.1 5-13.2-5.9-19.5-6-3.5-6.6-7.2-2.4-12.6 5.6-7.4 12-14.3 13.6-24.2 1.6-9.8 4.3-19.5 6.4-28.9-3.5 1-6.3-1.8-7.1-6-1.1-5.4 2.5-8.2 9-9.8-7.6-2-13.9-3.2-19.6-5.4-4.7-1.8-9.1-4.8-13.4-7.7-3.7-2.5-4-5 .8-6.8.7-.3 1.4-.5 1.9-1 .9-1 2.5-2.5 2.2-3.2-.5-1.2-2-2.4-3.3-2.7-4.4-1.1-8.9-1.4-13.2-2.6-3.8-1.1-8.7-1.8-6.4-8.1.2-.7-1-2.3-1.9-2.9-7.7-5-5.8-12.4 1.6-17.2 1.6-1 3-3.1 3.6-5 2.2-7.6 4-15.2 6.1-22.8.4-1.6 1.5-3.1 2.3-4.6.7.2 1.3.3 2 .5-.9 4.9-2.1 9.7-2.8 14.6-.8 5.1-1.1 10.3-1.6 14.7 2 1 5 1.5 5.4 2.8 1.1 3.9 1.9 8.2-3.2 12.1-1.3-3.6-2.4-6.7-3.5-9.8-1.8.6-4 .9-5.8 1.9-1.6.9-3.6 2.4-3.8 3.8-.2 1.4 1.4 4 2.7 4.5 3.7 1.3 5.1 2.9 3.6 6.8-1.1 2.8.9 3.6 3.4 4.1 5 .9 10 1.9 14.7 3.4 8 2.6 8.7 7 2.4 12.8-.5.5-.9 1.1-1.8 2.2 2.2 1.2 3.9 2.5 5.8 3 6.1 1.8 12.1 3.7 18.3 4.9 9.3 1.9 10.2 2.6 12.3 12.7 3.4-.9 6.9-1.7 10.2-2.7 4.6-1.5 9.2-3.1 13.8-4.7 1-.4 2.7-.7 2.8-1.4 2.3-9.2 11.6-9.7 17.6-14 20.1-14.3 31.6-41.3 24.5-65.8-2.3-7.9-4.6-16.1-8.5-23.1-5.2-9.3-14.3-14.5-24.8-16.5-7.9-1.5-16-3.2-24-3-10.2.2-19.8 3.3-29.2 8.2-10.2 5.3-17.4 12.8-24.1 21.6-1.2 1.5-4.4 3.1-5.8 2.5-5.2-2-6.4.6-7.2 4.7-.2 1.1-.9 2.2-1.6 3.7-4.2-2.3-3.4-5.6-2.6-8.9 1.2-5.2 5.3-7.4 9.7-6.6 4.3.8 5.8-.8 8.2-3.7 19.6-24 45.3-30.4 74.8-25.4 14.2 2.4 24.5 10.7 33.1 21.6 1 1.2 2.6 1.9 3.8 3 1.5 1.4 2.9 3 5.1 5.2 1-.5 3.2-1.7 6-3.1-.2 1.7-.1 2.2-.2 2.3-9 6.8-6.2 16-5.4 25 1.6 17.2-1.6 32.9-13.2 47-8.2 9.9-17.7 17.2-27.9 22.9 0 4-.1 7.6 0 11.2.1 2.3.3 4.8 1.1 6.9 2.1 5.7 4.9 11.3 6.6 17.1 1.2 4.1 3.5 4.8 7.1 5.1 4.2.4 8.6.8 12.6 2.2 1.9.7 4.1 3.7 4.2 5.8 1.2 18.2-2.7 35.9-6.4 53.5-.3 1.6-3.2 3.1-5.2 3.7-2.7.8-5.8.6-8.6 1.3-.9.2-1.6 1.6-2.4 2.4.7.7 1.4 1.8 2.3 1.9 3.8.5 7.8 1.2 11.6.8 7.2-.7 9.5 1.4 8.1 8.3-2.7 13.8-9.4 25.4-19.9 34.5-2.8 2.5-7.9 3.7-11.8 3.3-5.8-.6-6.9-5.2-4-10.5 2-3.6 3-7.7 4.2-11.1-5-2.2-9.8-4.2-14.5-6.2-3.3-1.4-6.4-2-7.6 2.6-1.9 7.3-4.1 14.5-5.4 21.8-.8 4.2-3 6.1-6.5 5.2-16.6-4.2-32.3-10.3-44.1-23.5-2-2.3-3.1-5.4-5.5-9.6h-87.2c-.1-.8-.2-1.5-.3-2.3 1.6-.5 3.2-1.5 4.8-1.5 25.8-.1 51.5 0 77.3.1 1.7.1 3.6.4 6.3.7zm77.9-25.5c8.2.8 15.3 1.8 22.4 2.1 1.4.1 3.8-2.1 4.2-3.7 1.2-5.6 2-11.4 2.6-17.1.9-8.9 1.3-17.9 2.4-26.8.5-4.4-.2-6.5-5.2-6.2-3.2.2-6.5-.4-9.6-1.3-5.4-1.6-5.7.9-6.2 5.4-.9 8.9-2.3 17.7-4.2 26.4-1.5 7.1-4.1 13.8-6.4 21.2zm-26.3 3.1c5.5 0 11.1.1 16.7 0 3.2-.1 5.4-.5 4.7-5.1-.5-3.1 1.1-6.6 2-9.9 2.1-7.1 4.6-14 6.7-21.1 1.4-4.7 0-6-5-6.1-3.4-.1-6.8-.5-10.1-1.1-6.4-1.2-7.9.3-8.4 6.8-.5 5.7-1.8 11.4-3.6 16.7-.7 2.1-3.8 3.4-4.7 4.1.5 5.1 1 9.7 1.7 15.7zm-12.7-63.9c7-.7 13-1.4 19-1.6.9 0 2.6 2.2 2.8 3.5.3 3-.4 6.2-.1 9.2.1 1.2 1.6 3 2.6 3.2 5.7.8 11.4 1.3 17.2 1.6 1 .1 2.9-1.2 3-2 .8-5 2.4-10.3 1.5-15-1.4-7.3-4.7-14.3-7.4-21.8-7.5 4.3-14.5 8.3-21.5 12.3-2.5 1.4-5.1 3.3-7.7 3.4-1.4.1-2.9-3.3-5-5.9-1.4 4.4-2.8 8.3-4.4 13.1zm6.8 57.5c.2-.5.4-1.1.6-1.6-.5-.8-1-1.7-1.6-2.5-1.6-2.1-3.3-4.2-4.9-6.4 2.4-1.4 4.8-2.7 7.2-4.2 1.3-.8 3.3-1.7 3.5-2.8 1.9-11.1 3.5-22.3 5.2-33.5-3.2-.7-5.4-1.2-7.7-1.6-4-.7-6.4.2-7.1 5-.8 5.9-2.7 11.6-3.7 17.5-1.6 9.3-2.8 18.7-4.3 28.6 5.2.6 9 1.1 12.8 1.5zm-39.8 27.7c.4 12.9 25.4 30.1 41.9 28.9.6-1.8 1.2-3.6 2-6.2-7.7-2.2-13.3-9.1-22.5-7.2-5.9 1.2-8.2-3.4-10-8.3-2.4-7-5.3-8.7-11.4-7.2zm102.8-5.9c-.8.1-2.2 0-2.4.5-2.9 5.1-5.5 10.2-8.3 15.3-1.9 3.4-3.7 9.2-6.1 9.6-6.3.8-6.9 5-9 9 10.7 3.4 28.1-20.1 25.8-34.4zm-70.1 2.9c-.6.4-2.1.9-2.2 1.5-.1 1.2.2 3 1.1 3.7 4.1 3.3 8.3 6.5 12.7 9.2 1 .6 4.1-.6 4.8-1.8.9-1.6 1.1-5.4.4-5.8-5.3-2.6-10.9-4.5-16.8-6.8zm13.9-96.1c9.3-5.8 18.7-10.3 26.5-17.3-7.6 1.9-14.4 5.4-21.8 7.2-5.7 1.3-6.7 3.7-4.7 10.1zm29 104.5c.7.5 1.3 1 2 1.4 2.7-3.2 5.6-6.3 8.1-9.7.5-.7-.4-3.4-1.4-3.9-.9-.5-3.5.2-3.9 1.1-1.9 3.6-3.3 7.4-4.8 11.1zm8.1 2.4c6.2-1.8 8.6-5.6 10.6-9.6.4-.8-.3-2.1-.5-3.2-1.1.4-2.6.5-3.2 1.2-2.2 3.3-4.1 6.8-6.9 11.6zm-40.8 10.2c.4-.6.7-1.3 1.1-1.9-4.3-2.4-8.6-4.9-12.9-7.3-.2.3-.4.7-.6 1 4.2 2.7 8.3 5.5 12.4 8.2z"/>
  <path d="M330.9 444.5c1.4-.5 2.8-1.6 4.2-1.6 12.7-.1 25.4-3.3 38.2-.2 2 .5 4.3-.4 6.4-.5 2.1-.2 4.3-.4 6.4-.3 7.7.4 15.3.8 23 1.3 1.6.1 3.2.6 4.8.5 7.1-.2 14.2-.6 21.3-.6 2.4 0 4.7 1.6 7.1 1.7 4.1 0 8.2-1 12.3-1 4 0 8 .8 12 .9 5.7.2 11.5.2 17.2.4 6 .2 12 .7 17.9 1 .1.6.1 1.1.2 1.7-.7.7-1.4 1.8-2.1 1.9-7.9.3-15.8.5-23.7.7-3.8.1-7.5.6-11.3.7-8.3.2-16.6.5-24.9.4-4.7-.1-9.4-1.1-14.1-1.1-3.6 0-7.1 1-10.7 1.5-.9.1-2.1.7-2.6.4-7.2-5.9-14.8.5-22.1-.9-2.5-.5-4.8-2-7.2-2.1-4-.3-8.1-.2-12.1.3-5.6.6-11.2 3.8-16.4-1.1-.4-.4-1.5-.4-2.1-.2-7.7 2.2-14.3-2.5-21.7-3.8zM402.8 228.2c3.3-2 6.6-5.6 9.9-5.6 2.8 0 6.5 3.6 8.2 6.5 2.1 3.5 2.2 8.2-1.5 11.3-3 2.4-6.4 4.4-9.9 5.9-1.2.5-3.3-1.3-5-2 1.4-1.1 2.7-2.8 4.2-3.1 4.7-.8 7.1-3 6.5-8-.5-4.8-2.8-6.2-7.4-4.3-1.2.5-2.5 1-3.8 1.5-.3-.8-.7-1.5-1.2-2.2z"/>
  <path d="M153.4 275c1.5-1 2.6-1.4 3.2-2.2 1.3-1.9 3.8-4.7 3.2-5.9-1.2-2.6-3.9-4.6-6.3-6.6-.6-.5-2.1.1-3.2-.1-6.9-1-9.1-1.6-6.3-9.1.5-1.5.1-3.3.1-5.8.9.5 2.2 1.6 3.7 2.1 2.2.7 4.6 1.4 6.9 1.3.7 0 1.8-2.9 1.7-4.4-.3-3.7 2.1-9.1-5.6-8.7-1.5.1-3.2-4.8-5.3-8 3.9-.3 6.6-.6 9.6-.8-2.1-5.9-5.2-6.7-9.3-3.2-5.1-7.3-5-7.6 5.1-15.2 4.4 5.6 10.4 4.2 17.4 2.5-2 6.2 3.9 12.1-3.1 17.6 6.9 4.5 12.2 11.5 22.1 6.3-.4 1.7-.7 2.7-1.3 5 2.7-1.5 4.5-2.4 6.2-3.3 2.9-1.5 4.9-1.4 5.1 2.5.2 4.4.9 9-5.3 10.1-1.1.2-1.9 1.9-2 2.1 1.1 3.2 2.3 5.6 2.7 8.2.8 5.2 5.3 9.5 10.4 10.1 2.6.3 5 1.8 7.8 2.9-1 2.2-1.6 3.2-2 4.4-1.2 3.2-1.5 8.1-3.6 9.1-5.8 2.8-12.4 3.9-19.5 6-.4-12.3-9.7-9.1-16.2-10.3-5.7-1.1-11.1-2.5-16.2-6.6zM243.3 382c-2.3 1.3-4.2 2.4-6.1 3.5-17.5 10-35.4 10.9-53.8 2.6-6.4-2.9-13.1-4.8-19.6-7.1 1.6-10.7 7-14 16.6-12.3 8.4 1.5 17 1.5 25.6 2.2.9.1 2.1-.2 2.6.3 5.7 5.5 12.1 4.3 18.1 1.5 4.1-1.9 6.3-.5 8.9 2 2.2 2.2 4.5 4.3 7.7 7.3zM206.4 367.1c-10-1.9-19.5-3.4-28.9-5.6-1.4-.3-3.1-3.6-2.9-5.4 1.1-10.2 2.7-20.3 4.4-30.4.2-1.1 2.4-2.2 3.8-2.6 2.4-.6 5-.6 8.3-1 13.2 11.2 17.2 26.4 15.3 45zM224.4 325c-6.5 3.9-10 .1-13.4-4.1-1.3 1.3-2.3 2.2-3.4 3.3-1.5-1-2.9-1.9-4.9-3.1-.6 1.9-1.1 3.3-1.6 4.7-3.2.4-8.5-5.9-8.1-9.4 1-8.2 15.6-17 23.3-14.2 5.3 1.9 9.3 9.8 8.8 17.4 0 1.8-.4 3.8-.7 5.4zM219.3 368.4c-2-1.8-4-3.7-7.2-6.5-.7-7.1-1.7-16.3-2.6-25.7 4.6-.3 10-.6 16.2-1.1.7 8.7 1.4 17.4 1.8 26.1 0 1.1-2 2.6-3.4 3.2-1.1.5-2.7-.2-4.4-.5-.2 1.8-.3 3.3-.4 4.5zM245 345.9c2.6 5.8 5.3 11.6 7.9 17.4.2.4.1 1.1 0 1.6-.7 3.1-7.1 4.6-12.5 2.7-3.7-1.3-6.6-3.8-4.9-7.9 2-4.7 5.1-9 7.7-13.5.6 0 1.2-.1 1.8-.3zM193.8 405.9c-1.7 3.6-3.2 6.8-5 9.9-.3.5-3.1.3-3.6-.4-3.3-4.4-6.6-8.9-9.3-13.7-.6-1.1.9-3.7 1.9-5.2.4-.5 2.6-.1 3.7.4 3.3 1.7 6.6 3.6 9.7 5.7 1.1.7 1.7 2.1 2.6 3.3zM201.6 298.2c-5 6.3-9.7 12.2-15.1 19.1-.5-.2-2.5-1.2-4.4-2.1 1.6-1.5 3-3.5 4.9-4.5 3.5-1.8 3.8-3.4.8-6-1-.9-1.4-2.5-2.1-3.7 1.1-.4 2.5-1.6 3.2-1.2 4.3 2.2 7.8 1 11.2-1.9.2-.3 1 .2 1.5.3zM159.2 418.4c-3.6-4.8-6.9-9.1-9.9-13.6-.6-.9-.6-3.1.1-3.8.7-.7 2.7-.9 3.8-.5 8 2.7 10.4 9.1 6 17.9zM230.9 397.8c-1.4 3.6-2.6 7.3-4.5 10.6-.6 1.1-3.6 1.6-5.2 1.2-2.2-.7-4.1-2.5-6.2-3.8 1.4-1.5 2.5-3.4 4.2-4.4 3.3-2 6.9-3.5 10.4-5.2.5.6.9 1.1 1.3 1.6zM244.9 421.5c-4.7 12.9-5.6 13.7-11.8 10.6.8-7.9 4.2-11 11.8-10.6zM232 409.8c.9-4.2.3-9.3 5.9-10.8-1.1 4.1-.5 9-5.9 10.8zM250.1 404c-2.1-2.5-3.7-4.3-6.2-7.2 3.3-.6 5.4-.9 8-1.4-.6 3-1.1 5.3-1.8 8.6zM179.6 429.3c2-.5 4-.9 6-1.4.2 1.3.4 2.7.6 4H180c-.2-.8-.3-1.7-.4-2.6zM425.5 380.9c2.3-7.5 4.9-14.2 6.4-21.1 1.9-8.7 3.3-17.5 4.2-26.4.4-4.4.8-7 6.2-5.4 3.1.9 6.4 1.5 9.6 1.3 5-.3 5.7 1.7 5.2 6.2-1.1 8.9-1.5 17.9-2.4 26.8-.6 5.7-1.4 11.5-2.6 17.1-.3 1.5-2.8 3.7-4.2 3.7-7.1-.4-14.2-1.3-22.4-2.2zM399.2 384c-.7-6.1-1.2-10.7-1.8-15.7 1-.8 4-2.1 4.7-4.1 1.8-5.4 3.1-11.1 3.6-16.7.5-6.4 2-8 8.4-6.8 3.3.6 6.8 1.1 10.1 1.1 5 .1 6.4 1.4 5 6.1-2.1 7.1-4.6 14-6.7 21.1-1 3.2-2.6 6.8-2 9.9.8 4.6-1.5 5.1-4.7 5.1-5.5.1-11.2 0-16.6 0zM386.5 320.1c1.6-4.8 2.9-8.8 4.5-13.2 2.1 2.6 3.6 5.9 5 5.9 2.6-.1 5.2-2 7.7-3.4 7.1-3.9 14-8 21.5-12.3 2.7 7.6 5.9 14.5 7.4 21.8.9 4.7-.7 10-1.5 15-.1.8-2 2-3 2-5.7-.3-11.5-.8-17.2-1.6-1-.1-2.5-2-2.6-3.2-.3-3 .4-6.2.1-9.2-.1-1.3-1.8-3.5-2.8-3.5-6.1.4-12.1 1.1-19.1 1.7z" fill="#fff"/>
  <path d="M393.3 377.6c-3.8-.5-7.6-.9-12.8-1.6 1.5-9.9 2.7-19.2 4.3-28.6 1-5.9 2.9-11.6 3.7-17.5.7-4.7 3.1-5.7 7.1-5 2.3.4 4.5 1 7.7 1.6-1.7 11.2-3.3 22.4-5.2 33.5-.2 1.1-2.2 2-3.5 2.8-2.3 1.5-4.8 2.8-7.2 4.2 1.6 2.1 3.3 4.2 4.9 6.4.6.8 1.1 1.7 1.6 2.5-.2.6-.4 1.2-.6 1.7zM353.5 405.3c6-1.5 9 .2 11.5 7.2 1.8 4.9 4.1 9.6 10 8.3 9.2-1.9 14.7 5 22.5 7.2-.8 2.6-1.4 4.4-2 6.2-16.6 1.2-41.6-16-42-28.9zM456.3 399.4c2.4 14.3-15.1 37.8-25.9 34.4 2.1-4 2.8-8.2 9-9 2.4-.3 4.2-6.1 6.1-9.6 2.8-5.1 5.5-10.3 8.3-15.3.3-.5 1.6-.4 2.5-.5zM386.2 402.3c5.9 2.3 11.5 4.3 16.8 6.8.7.3.5 4.2-.4 5.8-.7 1.2-3.8 2.4-4.8 1.8-4.5-2.7-8.7-5.9-12.7-9.2-.9-.7-1.2-2.5-1.1-3.7.1-.6 1.6-1.1 2.2-1.5zM400.1 306.2c-2-6.4-1-8.7 4.7-10.1 7.3-1.7 14.2-5.3 21.8-7.2-7.9 7-17.2 11.5-26.5 17.3zM429.1 410.7c1.5-3.7 2.9-7.5 4.8-11.1.5-.9 3.1-1.6 3.9-1.1 1 .5 1.9 3.2 1.4 3.9-2.4 3.4-5.3 6.5-8.1 9.7-.7-.4-1.3-.9-2-1.4zM437.2 413.1c2.8-4.8 4.7-8.3 7-11.6.5-.8 2.1-.8 3.2-1.2.2 1.1.9 2.4.5 3.2-2.1 4-4.5 7.8-10.7 9.6zM396.4 423.3c-4.1-2.7-8.2-5.4-12.3-8.2.2-.3.4-.7.6-1 4.3 2.4 8.6 4.9 12.9 7.3-.4.6-.8 1.3-1.2 1.9zM424.7 85c-9.6-.1-14.5-3.4-14.5-9.9 0-6.3 3.7-9.5 11.7-9.2 5.8.3 11.3 4 11.1 11.3-.1 5.9-2 7.8-8.3 7.8z" fill="#fff"/>
  <text transform="translate(33.799 48.904)"><tspan x="0" y="0" font-family="Peanuts" font-size="35">AND HE DOES THAT</tspan><tspan x="27.8" y="42" font-family="Peanuts" font-size="35">IN EVERY HOUSE</tspan><tspan x="81.2" y="84" font-family="Peanuts" font-size="35">IN TOWN?</tspan></text>
  <text transform="translate(458.711 48.904)"><tspan x="0" y="0" font-family="Peanuts" font-size="35">ALL</tspan><tspan x="-47.8" y="42" font-family="Peanuts" font-size="35">OVER THE</tspan><tspan x="-27.1" y="84" font-family="Peanuts" font-size="35">WORLD!</tspan></text>
</svg>
