<svg xmlns="http://www.w3.org/2000/svg" viewBox="0 0 595.3 458.7" xml:space="preserve">
  <path fill="#fff" d="M0 0h595.3v458.7H0z"/>
  <path d="M0 458.7V0h595.3v458.7H0zM591 269h.9V162.1c0-23.7.1-47.5.1-71.2 0-26.2 0-52.4.2-78.6 0-4.9-1.7-7.7-6.6-7.8-12.5-.4-25-.9-37.4-.9-17.4 0-34.8.6-52.2.7-53.3.1-106.6.1-159.9.1-65.6 0-131.2 0-196.9.1-17.4 0-34.8.2-52.2.2-23 0-45.9.1-68.8.1-13.1 0-13.1-.1-12.7 13.3v.5c-.3 36.3-.6 72.6-1 108.9-.2 17.8-1 35.7-1 53.5 0 14.9 1 29.8 1.3 44.7.2 11.3-.2 22.6-.2 33.8 0 32.9.2 65.9.1 98.8 0 19.6-.2 39.2-.3 58.8-.1 10.8-.4 21.6-.5 32.4 0 3.8.4 7.3 6.1 6.1 3.3-.7 6.8-.2 10.3-.2h90.2c39 0 78 0 117.1-.1 28.2-.1 56.5-.3 84.7-.4 12.9-.1 25.8-.3 38.7-.2 10.1.1 20.1.8 30.2.5 11.1-.3 22.2-1.7 33.3-1.9 10.8-.2 21.6.8 32.4.9 29.8.5 59.6.8 89.4 1.1 13.6.1 27.1.1 40.7-.1 2.8 0 5.9-.4 8.4-1.5 1.7-.8 3.6-3.3 3.7-5.1.9-18.2 1.9-36.5 2-54.7.1-41.5-.1-83.2-.1-124.9z" fill="#fff"/>
  <path d="M591 269c0 41.7.2 83.4-.1 125.1-.1 18.3-1.1 36.5-2 54.7-.1 1.8-2 4.3-3.7 5.1-2.5 1.2-5.5 1.5-8.4 1.5-13.6.2-27.1.2-40.7.1-29.8-.3-59.6-.6-89.4-1.1-10.8-.2-21.6-1.1-32.4-.9-11.1.2-22.2 1.6-33.3 1.9-10.1.2-20.1-.5-30.2-.5-12.9-.1-25.8.1-38.7.2-28.2.2-56.5.4-84.7.4-39 .1-78 .1-117.1.1H20.1c-3.4 0-7-.5-10.3.2-5.7 1.2-6.1-2.3-6.1-6.1.1-10.8.4-21.6.5-32.4.2-19.6.3-39.2.3-58.8 0-32.9-.1-65.9-.1-98.8 0-11.3.4-22.6.2-33.8-.1-15-1.1-29.9-1.1-44.9 0-17.8.8-35.7 1-53.5.4-36.3.7-72.6 1-108.8v-.5C5.1 4.7 5.1 4.8 18.2 4.8c22.9 0 45.8-.1 68.8-.2 17.4-.1 34.8-.2 52.2-.2 65.6 0 131.2-.1 196.9-.1 53.3 0 106.6 0 159.9-.1 17.4 0 34.8-.7 52.2-.7 12.5 0 25 .5 37.4.9 4.9.2 6.6 2.9 6.6 7.8-.2 26.2-.2 52.4-.2 78.6 0 23.7-.1 47.5-.1 71.2v106.9c-.3.1-.6.1-.9.1zM39.5 397.6c6.5.3 13 .6 19.6.9v-1.9c-6.6.4-13.1.8-19.6 1 .5-3.2 1.9-4.2 5.6-4 7 .3 14.1-.4 21.2-.9 6.8-.4 13.5-1 20.3-1.5 8-.6 15.9-1.2 23.9-1.8V388c-11.8-.5-23.6-1.6-35.3-1.2-14.4.5-28.1-1-41.3-7-3.7-1.7-7.4-3.5-11.2-5.2-.6.4-1.3.8-1.9 1.1.9 5.7 2.2 11.3 2.5 17 .4 6.8 4.6 9.4 10.2 10.6 10.6 2.4 21.2 5.1 32 6.4 7.9 1 16.1-.1 24.1-.2 0-.5 0-.9-.1-1.4-8.4-1-17.1.9-25.3-2.2 1.1-1.4 2.1-2.1 3.2-2.1 17.4-.8 34.9-1.6 52.3-2.2 5.8-.2 7.9-2.9 6.8-7.7-2.5 1-5.2 2.2-7.9 3-1.3.4-2.9 0-4.3.1-20.7 2.1-41.3 4.7-62 6.2-6.2.5-12.6-1.9-18.9-3 .1-.8.2-1.7.2-2.5 1.9 0 3.9 0 5.9-.1zm254.1 3.9c-1.2-5.3-2.8-9.3-3-13.4-.6-12.5-.7-25-1-37.5-.1-4.6 2.7-7.4 6.7-8.7 4.9-1.6 10.7.6 12.5 4.8 2 4.8 3.4 9.8 5 14.8 1.4 4.5 2.8 9.1 4.1 13.7 2-.4 3.6-1.3 4.6-.8 6.5 2.8 7.4-1.2 8.5-6.1 1.1-5.1 5.1-7.3 10-8.5 2.8-.7 6.4-2.4 7.5-4.7 4-8.5 7.2-17.5 10.6-26.3.5-1.2.3-2.7.5-4.1.8-6.3-1.7-13.8 4.5-16.9-.3-3.7-1.5-6.9-.5-8.8 1.5-2.6 4.7-4.1 8.4-7.1-2.8-1.4-4.6-2.8-6.7-3.3-9.1-2.5-17.3-6.1-22-14.9-.7-1.4-.9-4.3-.1-5 2.9-2.3 6.4-3.9 10.2-6.1.5-4.4.7-4.9-5.4-7.9-5.7-2.8-12-4.4-18-6.7-4.1-1.6-8-4.3-6.3-9.1 1.3-3.6 1-5.8-.5-9.2-3.1-7 .1-10.7 7.7-10.4 1 0 3.2-2.5 3.2-3.7-.6-7.8-1.6-15.6-2.7-23.3-.2-1.3-1.8-2.5-3-3.4-4-3.2-8.8-5.7-12.1-9.4-5.7-6.3-8.9-14-3.6-22 4.6-7.1 10.4-13.6 20.1-13.1 3.9.2 7.7 1.6 11.6 2.4 5.7 1.1 11.4 2.2 16.3 3.1 2.1-7.2 3.9-13.3 5.7-19.4-4.1-.6-8.1-1.2-12.2-1.7-13.8-1.6-27.2-4.8-39.2-11.9-20.4-12.1-22.1-22.1-18.8-43.4 1.6-10.2 6-19.2 11.1-28.2 6.9-12.2 15.4-22.6 26.4-31.2.9-.7 1.5-1.7 2.5-2.9h-63.7v5.7c.3 10.1.6 20.1 1.1 30.2.2 3.6-1.2 5.4-4.9 5.5-10 .4-20.1 1.2-30.1 1.3-19.3.3-38.6-.1-57.9.3-20.5.4-41 1.5-61.4 2-23 .5-46 .7-69.1.9-11 .1-22 .2-33.1.1-3.7 0-5.3 1.1-5 5 .3 4.7.1 9.4 0 14-.6 32.1-1.4 64.1-1.8 96.2-.2 14.2.7 28.3.8 42.5.2 27.3 0 54.5.1 81.8.1 21.6.8 43.2.9 64.7.1 10.9-.6 21.8-.7 32.7 0 1.9 1.2 3.9 2.2 5.6.3.5 3.3.1 3.3-.2.3-1.8.3-3.8.2-5.7-.5-5.7-2-11.5-1.4-17.1 1.6-14.5 4.3-15.7 17.4-13.8 4.6.7 9 2.2 13.6 3 2.4.4 5.3 1 7.4.1 4-1.8 7.5-11.9 6.4-16.4 1.3-1.6 2.7-3 3.7-4.7 6-9.7 11.8-19.5 17.9-29.1 7.4-11.7 15.1-23.1 22.4-34.8 2.6-4.1 4.7-8.6 6.4-13.2 1.1-2.9 1-6.2 1.6-10-.6-.3-2.3-1.2-4.1-2-17.2-7.7-30.8-19.4-39.8-36.1-7.7-14.3-12-29.4-8.5-45.9 2.3-10.9 5.7-21.5 12.7-30.3 3-3.7 5.3-6.6 4-11.8-1.3-5.4 2.7-8.5 8.2-7.3 1-3 1.7-6.2 3.1-9.1 1.1-2.4-.5-7.2 5.1-6.9-1.1 4.2-2 7.8-3 11.8 1.4-.1 2 0 2.5-.2.8-.3 1.7-.7 2.3-1.3 12.3-11.5 28.1-12.7 43.5-13 13.1-.2 25.6 4.1 37.6 10.2 16.1 8.2 29.1 19.2 37.6 35.3.6 1.2 2.9 1.4 4.4 2.2 3.6 1.9 8.4 2.9 10.3 5.9 2.2 3.5 2.4 8.8-1.5 13.1-.8-1.5-1.6-2.3-1.8-3.3-1-5.6-3.4-9.3-9.9-9-1.7.1-3.8-1.8-5.1-3.4-2.3-2.9-4.2-6.2-6.2-9.4-12.1-19.3-31.2-28.4-52.1-33.4-13.4-3.2-27.7-3.2-40.8 2.3-10.5 4.4-21.7 8.6-26.3 20.8-.6 1.6-1.8 3.3-3.1 4.3-7 5.2-9.6 12.7-12.4 20.5-7.1 19.5-3.9 37.9 5.6 55.5 3.2 5.8 7.4 11.5 12.3 16 8 7.4 16.7 13.9 27.3 17.6 2.9 1 5.8 2.7 6 6.7.1 1.3 1.8 3.1 3.2 3.8 9.5 4.7 19 9.2 28.6 13.8.3-1.8.8-4.4 1.1-7 .8-5.9 3.8-8.2 9.8-9.3 7.7-1.4 15.3-3.8 23.4-5.8-3.8-4.5-6.8-7.5-9.1-11.1-3.2-4.9-.3-10.1 5.6-10.1 7.7 0 15.5.4 23.2.8 4.6.2 8.2-.4 8.4-6.4.1-3.4 1.7-5.9 6.2-5.5 1.7.1 4.6-2.4 5.4-4.3 1.1-2.8.9-6.1-3.7-6.7-2.5-.3-5.2-1.1-4.9-5 .9-12.6-.5-25.1-3.6-37.4-.3-1.2.6-2.6 1.3-5.6 2.1 3.2 3.9 4.9 4.2 6.7 1.4 8.6 2.6 17.3 3.3 26 .4 5.3-.6 10.3 5.8 13.4 2.2 1 4.2 6 3.6 8.4-1.1 4.1-3 9-9.1 9.3-1.5.1-3.8 1.9-4.2 3.3-1.5 6.8-5.5 9.2-12.3 8.3-8.1-1-16.3-.9-24.8-1.3.1 9.2 9.2 10.4 12 16.7-10.3 8.8-22.9 11.8-36.1 15.5 5.5 1.7 7.6 4.8 7 10-.5 4.5 1.3 9.7-5.6 11.3 1 2.8 1.9 5.2 2.8 7.7 8.4-4.9 16.8-8.4 20.8-17.5 1.8-4.2 5.3-7.7 8.1-11.4.6-.7 1.6-1.6 2.4-1.6 4.7-.1 9.3 0 13 3.8 3 3 6.4 5.7 9.9 8.3 3.7 2.7 4.4 5.4 1.7 9.4-12.7 18.4-25.2 37-37.7 55.6-2.5 3.7-4.8 7.4-10.1 3.4-1.3-1-3.5-1.5-5.1-1.2-1.1.2-3 2.4-2.8 3 1.7 4.4 4 8.6 5.8 12.9.7 1.7 1.3 3.8 1.2 5.6-.2 5.7-.8 11.3-1.2 16.7 4.3 1 8.1 2.2 12.1 2.6 8.4 1 10.5 3.4 9.3 11.6 11.6.6 23.2 1 34.9 1.8 4.4.3 8.8 2 13.2 2 14.3-.1 28.6-.6 42.9-1 3.4.3 7.7.4 13.3.4zm-114.3 1.2c0 .3-.1.5-.1.8.9.4 2.1.5 2.8 1.1 2.7 2.5 6.4 4.8 7.6 8 1.7 4.7-3.3 5.5-6.4 7-11.6 5.4-23.5 2.9-35.4 1.8-12.9-1.1-25.6-5.4-38.8-3.9-3.7.4-7.5 1-11.2 1.1-26.8.6-53.6 1.1-80.4 1.4-5 .1-6.7 2.3-6.6 6.8.1 5.6.3 11.2-.1 16.8-.3 4.6 1.4 5.7 5.9 5.7 41.3-.6 82.7-1 124-1.2 33.6-.2 67.3 0 100.9-.1 60.2-.2 120.4-.6 180.6-.8 15.3 0 30.5.6 45.8.7 27.2.2 54.4.1 81.6.3 9.4.1 18.9.6 28.3.6 1.5 0 4.3-1.9 4.3-3 .4-9.9.1-19.8.3-29.7.3-14.5.8-29 1-43.5.1-7.6-.7-15.2-.5-22.7.3-16.4 1.2-32.7 1.5-49.1.3-12.4.1-24.8.1-37.2 0-17.7.1-35.4 0-53.1 0-6.7-.7-13.3-1-20-.1-2.2 0-4.3.1-6.5.3-6.3.7-12.5 1.1-19.2-2.1.5-3.9.6-5.6 1.2-13.6 5.3-27.7 8.5-42.2 9.9-1.8.2-3.8 2.6-4.8 4.4-1.9 3.3-3 7-4.9 10.3-2.1 3.5-4.5 7-7.2 10-2.2 2.4-5.1 4.2-7.7 6.2-.4-.5-.7-.9-1.1-1.4 1.3-2.3 2.9-4.4 3.9-6.8 1-2.5 1.4-5.2 1.9-7.8 1-5-3-13-7.1-12.9-9.6.1-19.2.8-29.4 1.3 1.3 3.3 2.7 5.8 3.4 8.5 1.9 7.1 5.2 13.8 3.4 21.9-2.7 12.2-10.6 21-18.1 30.1-3.2 3.9-6.4 7.8-9.3 11.3 4.5 3 8.6 4.9 11.6 7.9 3.5 3.5 4.3 7.7.8 12.6-5.6 7.8-14.3 10.3-22.4 13.5-2.3.9-5.9-1.3-8.9-2-1.3-.3-3.8-.7-4-.2-2.4 5-5.2 9.9-6.3 15.2-1.4 6.7-1 13.8-2.1 20.7-1.8 12-5.1 23.8.4 35.9.5-.7.9-1.2 1.2-1.8 2.3-5.6 4.9-6 8.6-1.2.5.7.9 1.6 1.4 2.3 1.5 2.2 2.7 3.3 4.6-.1 1.6-2.9 3.9-5.4 6.4-7.7 5.4-5 8.2-4.6 11.2 2.2 3.5 8 7 16.2 8.8 24.7 1.3 6.3 2.5 13.7-4.5 18.8-1 .7-.9 3.1-1 4.8-.1 1.5.2 3 .5 5.9-5.6-1.5-10.3-2.7-14.9-3.9.5 6.5 2.3 8.5 8.3 8.5 21.5-.2 43-.7 64.4-.9 2.6 0 6.4.1 3.3 4.8 9.8 1.1 20.2-2.5 29.8 6.5-7.4.8-13.8 1.4-20.4 2.1 1.5 4-1.4 8.1-5.5 8.5-15.3 1.2-30.7 2.7-46 3.6-13.8.8-27.8.4-41.6 1.3-12.6.8-25.1 2.8-37.6 3.9-6.2.5-12.8 3.1-18.4-2.2-.6-.6-2-.5-3.1-.4-10 .9-19.9 2-29.9 2.9-5.4.5-10.9.4-16.1 1.5-8.7 1.9-14.3-.7-16.3-9-.8-3.3-.8-6.9-1.2-11.1h-9.6c1.8 1.6 2.9 2.5 4.1 3.6-.8.5-1.1.8-1.4.8-17.6.3-35.2.6-52.8.7-1 0-2-1.6-3-2.5.3-.6.5-1.1.8-1.7h-47.5c-.1-.5-.2-.9-.3-1.4 1.3-.5 2.6-1.3 3.9-1.3 20-.6 39.9-1.2 59.9-1.6 9.5-.2 18.9 0 28.4 0v-2c-33.8.6-67.6 1.1-101.3 1.7 0-.7-.1-1.5-.1-2.2H222c0-.5 0-1-.1-1.5-5.8-2.7-13.4 2.7-19.2-3.5h-7.5c4.8-5.2 11.2-3.3 16.8-4.7-10.8-.3-21.7-.3-32.7-.3zm186.2-279.1c8.9.6 10.3 2.7 5.9 10.2-4.2 7.1-2.3 17.4 5 21 8 3.9 16.5 6.9 25.1 9.2 21.5 5.7 43.6 8.1 65.9 8.8 11.8.4 23.7-.7 35.6-.8 4 0 8.4.2 12 1.7 6.4 2.8 7.1 9.1 8 15.8.7-1.3 1.8-2.6 2.1-4 .7-3.7.7-7.5 1.5-11.1.3-1.4 1.8-3.5 3.1-3.7 13.1-2.6 26.5-4 39.4-7.4 16.2-4.2 16-4.8 15.9-21.7-.1-18.2-.3-36.4-.1-54.5.1-11.1.8-22.2.9-33.3 0-6.7.9-13.5-5.2-18.9-6.7-6-12.7-12.8-19.3-18.9-5-4.6-10.8-6.7-17.9-6.4-16.9.7-33.8.9-50.7 1-32.4.1-64.7.1-97.1.1-14.8 0-29.6.2-44.4 0-4.9-.1-8.9.8-13 4.2-9 7.4-16.6 15.9-23 25.6-8.2 12.4-12.8 26.2-14.4 40.9-.8 7 .7 13.7 4.7 19.9 5.9 9.4 16.1 11.4 25 15.6 4 1.9 8.6 2.3 13.6 3.6m22.7 208.1c-3 6.6-2.9 6.5 4.4 9.6 1.2.5 1.8 2.4 2.8 3.6-1.5 1-3 2.5-4.6 2.8-1.4.3-3-1.3-4.5-1.3-1.2 0-3.3 1.1-3.4 1.9-1.6 10.1-3.1 20.1-4.1 30.3-.4 3.6 1.2 7.4 1 11-.1 4.1 1.1 6.1 5.4 6.1 4.9 0 9.8-.2 14.5.7 14 2.9 28 6.4 41.9 9.7 1.7.4 3.3 1.4 6.5 2.8-2.8 1.1-4.2 2.2-5.2 2-10.5-2.7-21-4.9-31.8-5.6-5.1-.3-10.1-1.6-16.3-2.6 7.3 11.1 13.4 20.6 19.8 29.9.8 1.2 3.2 2.2 4.7 2.1 5.9-.5 11.7-1.4 17.5-2.5 10.5-2 21-4.2 31.4-6.5 4.2-.9 5.4-3.7 3.5-7.8-2.1-4.6-4-9.2-5.9-13.9-3.1-7.9-8.5-11.3-17.3-10.8-6.5.4-13.1-1.4-19.7-1.6-12-.4-24-.2-36.1-.4-3.8-.1-8 1.6-11.1-2.5 24.1-3.5 48.3-.8 72.6-2.6-1.2-1.6-2.7-3.3-4-3.2-7.9.3-15.7 1.2-23.6 1.6-6.9.3-13.8.1-20.7.1v-2.3c14.6-1.3 29.1-2.7 44.2-4.1-2.7-9.9-5.1-19.1-7.8-29.2-2.8 2-5.1 3.9-7.6 5.4-7.8 4.5-22.1 2.4-28.1-4.1-5.4-5.8-8.1-24-4.1-29.9.6-.9 3-.7 5.3-1.2.4-1.1 1.2-3.2 2.3-6.4-6.1 1.4-11.4 2.7-17.9 4.2-.4 1.2-1.4 3.7-2.1 5.8 2.7.8 5.4.8 6.1 2 .7 1.3.2 4.4-.9 5.3-1.5 1.2-4.1 1-7.1 1.6zm41-58.4c-2.7-3.4-5-7.2-8.1-9.9-5.3-4.7-7.8-9.7-3.5-15.8-2.3-1.6-4.1-2.8-5.9-3.9l.6-1.5c1.3-.2 2.7-.4 4-.5 6.1-.6 10-3.7 10.3-9.6.1-2.1-1.6-4.6-3.3-6.2-.7-.7-3.3.5-5 1-1.1.4-2 1.1-3.3 1.8-1.2-5.5-5-6.5-9.4-6.8-4.1-.3-8.1-1.1-8.6-6.3-.4-4.2-.6-8.4-.9-13.8.1-.2 1.3-1.5 2.8-3.4-5.6-2.8-11.1-6.2-16.8-3.9-4.9 1.9-8.7.7-12.7-1.2-3.1-1.5-6.4-3.1-8.7.2-1.4 2-1 5.2-1.6 8.8 7.7-4 10.9-4 13.1-.1.8 1.5 0 3.9 0 5.9-2.9-.8-3.9-2.5-5-2.5-2-.1-5.9 1-5.9 1.2.5 4.2.3 9.3 2.5 12.4 3.9 5.3 3.5 13.3-2.9 17.1-.6-2.9-1.2-5.6-1.6-7.8-3.5-.3-6.8-.5-10.1-.7-.3.4-.5.7-.8 1.1 2.2 1.9 4.5 3.8 6.7 5.8-.4.9-.5 1.7-.9 2.2-5 6.7-4.7 7.3 3.2 9.8 5 1.6 10.2 3.3 14.5 6.1 12.8 8.4 12.4 14.4-1 22 4.8 6.8 12.2 9.1 19.6 11.3 4.8 1.4 8.6 3.4 7.7 9.6-.5 3.2 1.1 4.3 4.5 3.7 4.7-.7 9.5-.6 14.8-.8 3.5-7.6 7.5-16.2 11.7-25.3zM93 326.8c4.7-.8 6.6-2.7 5-7.5-.9-2.7-.4-5.8-.6-8.7.5-.2 1-.4 1.6-.6 1.2 1.6 2.7 3 3.5 4.7 1.9 4.2 3.5 8.5 5.3 12.7 1 2.2 2.2 4.8 5.1 2.6 7-5.2 13.7-10.6 20.6-15.9-7.1-11.1-9.2-17.1-7.1-22.3 1.7 2.2 3.3 4 4.6 6 2.2 3.2 3.9 6.8 6.2 9.8 4.8 6 7.2 6.2 13.4 1.4.7-.5 1.3-1.2 2-1.8 3.7-3.2 3.6-12.5-.2-15.7-2.2-1.8-4.5-3.5-7-5.6-1 1.3-2 3.6-3.7 4.6-2 1.1-5.4 2.3-6.9 1.3-4.8-3-9-6.9-13.3-10.6-2.3-2.1-4.3-4.6-6.6-7.1-5.9 9.3-11.9 17.6-16.7 26.5-4.2 7.8-12.5 15.1-5.8 25.5.2.1.3.2.6.7zm339.3-108.1c-.9.1-1.8.2-2.6.3-.8 3.8-1.6 7.6-2.4 11.5-.7 3.4-1 7-2.3 10.2-4.6 11.1-9.7 22-14.3 33.1-.7 1.6-.1 3.9.3 5.7 1.3 6.6 6.4 10.3 11.3 13.8 2.3 1.6 4.7 2.3 6.5-2 5.2-12.2 11.2-24.2 17.2-36.1 2.9-5.8 6.4-11.4 9.7-17-5.4 3.1-14-3.8-17.2 5.6-.4-2.4-.7-4.8-1.1-7.1-7.9-.4-10.3-3.2-7.3-9 .8.8 1.4 1.7 2.2 2.4 1 .8 2.1 1.4 3.1 2 .6-1.2 1.9-2.7 1.6-3.6-1.4-3.4-3.2-6.6-4.7-9.8zm-8.4 97c.3-2.6 1.8-6.3.6-8-1.4-1.9-5.5-1.6-8-3-5.2-3.1-10.2-6.7-15.5-10.2-.8 1.1-2.4 3.1-3.2 4.2.3 1.9 1 3.2.6 4-1.1 2.2-2.7 4.2-4 6.3-7.2 11.4-6.7 18.6 1.5 29.2.6.8.6 2 .8 3.2-6.9.1-8.8-5.2-12-9.7-.9 14.2 13.5 21.1 25 16.3-1.1-1.2-2.1-2.3-3.9-4.4 3-1 5.6-1.4 7.6-2.7 1.9-1.2 3.2-3.3 5.6-6-3.4 1.2-5.5 1.9-7.5 2.6 4.5-7.4 1.6-18.4 12.4-21.8zm-252.6-1.3c-.9-1.4-2.9-3.2-2.8-4.9.1-1.5 2.6-2.7 4.1-4.2-6.1-1.8-10.6.7-15.4 4.1-5 3.6-8.7 10.4-16 9.4-5.8-.8-9.6 2.6-13.7 5-3.5 2-6.4 5.1-9.3 7.9-1.5 1.5-3.9 4-3.5 5.3 1 3.6 4.2 4.5 8.1 4.5 7.9.1 15.9.7 23.7 1.6 4.1.5 6.9.3 9.6-3.5 3.7-5.3 5.5-12.8 15.7-12.6-5.9-3-6.3-5.3-1.8-7.6-3.1-3.6-2.8-4.1 1.3-5zm28.3-41c-.6.3-1.2.5-1.5.9-6.2 8.7-12.3 17.5-18.4 26.3-.5.8-.2 2.2-.1 3.4.3 3.2 1.6 6.6 1 9.6-1.2 5.7-1.4 12.1-6.6 16.1-2.1 1.6-4.9 2.1-7.1 3.5-1.5 1-2.8 2.6-3.7 4.2-.3.5.4 2 1.1 2.6 3.9 3.2 11.2 2.3 14.3-1.9 3.6-4.9 7-9.9 10.4-14.9 8.4-12.5 16.7-25.1 25.1-37.6-5.2-4.5-9.8-8.3-14.5-12.2zm142.7 146.1c4-13 6.7-25.2 5.4-37.8-.4-4.3-2-8.6-3.9-12.5-.7-1.5-3.8-2.4-5.8-2.4-1 0-2.6 2.4-3 3.9-1.6 7.5-3 15-4.2 22.5-.6 3.6-1.9 8.1-.4 10.9 2.8 5.5 7.4 9.8 11.9 15.4zm103.5-34.7c3.1 1.7 6.1 3.7 9.3 5.1 6.4 2.7 11.9-.7 11.1-7.6-.9-7.1-3.2-14.1-5-21.1-.7-2.8-1.9-5.4-3.4-9.6-5.2 8.8-9.6 16.3-13.7 23.1 3 2.1 5 3.4 7 4.8-1.5 1.6-3.1 3.1-5.3 5.3zm-313.4 5.6c8.6 0 15.9.2 23.2-.1 1.3-.1 3.5-1.9 3.7-3.1 1-6.9 1.8-13.8 2.2-20.7.1-1.7-1.4-3.5-2.3-5.6-9.1 10-17.4 19.2-26.8 29.5zm163.1-40c-2.7 15.8-2.4 26.1 2.5 38.8 7.8-3 8.1-3.6 6.8-11.1-1.1-6.7-2-13.4-3.5-20-.7-3.1-.8-7.4-5.8-7.7zm-171 59.8c.2.6.4 1.3.7 1.9 19.3.2 38.5 7.1 58.6 2-3.4-4.3-13.6-7.6-16.7-5.6-3.6 2.4-6.7 2.7-11.1 1.8-8.6-1.6-17.5-1.9-26.3-2.4-1.7.1-3.5 1.5-5.2 2.3zm459.3-382c.5-.1 1-.3 1.6-.4 0-4.8.1-9.6-.1-14.4-.1-.9-1.7-2.5-2.7-2.5-5.9-.2-11.8-.1-19-.1 7.5 6.4 13.9 11.9 20.2 17.4zM26.5 366.9c-.1.5-.2.9-.3 1.4 12.1 7.8 25.3 12.5 41.3 13.7-4.9-2.5-9.1-3.5-11.6-6.1-3-3.3-6.3-5-10.4-5.8-6.3-1.2-12.6-2.2-19-3.2zM118 265.2c-.4.6-.8 1.1-1.3 1.7 6.6 6.2 13.1 12.4 19.8 18.4.7.6 3-.2 4.4-.8 1.8-.7 3.5-1.8 5.9-3.1-7.2-9.1-20.4-8.3-28.8-16.2zm-39.3 67.4c-3.7 5.3-7.3 10.2-10.6 15.3-.3.4 1.9 3.5 2.7 3.4 5.6-.6 11.1-1.8 16.6-2.8-8.8-2.3-4.7-10.6-8.7-15.9zm300.4 95.8c-5.3-6.2-3.2-15.3-11.3-20.6 0 6.5.7 11.7-.2 16.6-1.1 6-1 6.9 5.1 6.2 1.9-.3 3.7-1.3 6.4-2.2zM295 406.8v-2.2c-1.9 0-3.9-.1-5.8 0-12.5.4-25.1.8-37.6 1.1-6.5.2-13-.1-19.5 0-2 0-4 .6-6.3 1 23.3.1 46.2.1 69.2.1zm34.5 8.4c-3.6 4.8-2 9.5-.1 13.7.7 1.5 3.5 2.4 5.5 2.8 1.2.3 4-.9 4-1.4-.1-2.2-.4-4.6-1.6-6.3-2.1-3-4.8-5.5-7.8-8.8zm101.8-201c4.5 1.3 5.9-.1 5.8-3.8-.1-3.9.4-7.9.5-11.8.1-1.8 0-3.6 0-6.6-9.8 6.5-4.5 15-6.3 22.2zM131.4 399.8c18.6 3.5 24 2.3 25.3-3.8-7 .3-14.1.6-21.2 1.2-1.4 0-2.7 1.6-4.1 2.6zm-23.6-56.2c-1.4-2.8-2.6-5.1-4.2-8.3-4.8 3.9-9.1 7.3-13.4 10.7.3.4.5.9.8 1.3 5.3-1.2 10.6-2.4 16.8-3.7zm54.2 55c6.6 0 12 .3 17.4-.2 1.4-.1 2.5-2.7 3.7-4.1-2.1-.3-4.3-1.1-6.3-.8-4 .5-8 1.5-11.9 2.5-.7.2-1.3 1.2-2.9 2.6zm145-6.8c-8 1.5-9.1 6.1 0 14.7v-14.7zm25.8-241.4c-10.8.6-18.4 12.3-13.3 20.2-.2-9.8 6.4-14.8 13.3-20.2zm18.3 30.2c5.6-5.5 6.3-8.7 3.2-13.2-4.8 3.2-4.5 7.6-3.2 13.2zm101.6 39.2c-2.2-1.7-5-1.5-7 2-1.4 2.4-4.5 4.9-3 6.6 3.6-3.2 6.7-5.8 10-8.6zm6.1 12.1c.5-.2 1-.3 1.5-.5-.6-1.9-.7-5-2-5.5-3.2-1.4-6.5-.2-8.1 3.2-.6 1.3.3 3.3.5 5 .5.4 1.1.7 1.6 1.1.9-5.3 2.6-8.1 6.5-3.3zm-80.1 76.5c1.9-2.3 2.9-4.5 4.5-5.2 1.7-.7 4.1.3 6 0 .7-.1 1.2-1.8 1.9-3-8.9-.2-12.1 1.7-12.4 8.2zm-87.3 109.9c.1.3.1.5.2.8h16.3v-.8h-16.5zm67.6 13.2c6.3-5.3 3.5-11.1 4.1-16.6-1.2 5.3-2.5 10.3-4.1 16.6z"/>
  <path d="M293.6 401.5c-5.6 0-9.9-.1-14.2 0-14.3.3-28.6.9-42.9 1-4.4 0-8.8-1.7-13.2-2-11.6-.8-23.3-1.2-34.9-1.8 1.2-8.2-.9-10.7-9.3-11.6-4-.5-7.8-1.7-12.1-2.6.4-5.4 1-11.1 1.2-16.7.1-1.9-.5-3.9-1.2-5.6-1.8-4.4-4.1-8.5-5.8-12.9-.2-.6 1.7-2.8 2.8-3 1.6-.2 3.8.2 5.1 1.2 5.3 4 7.6.3 10.1-3.4 12.5-18.5 25-37.1 37.7-55.6 2.8-4.1 2-6.7-1.7-9.4-3.4-2.6-6.8-5.2-9.9-8.3-3.7-3.8-8.3-3.9-13-3.8-.8 0-1.8.9-2.4 1.6-2.8 3.7-6.2 7.2-8.1 11.4-4 9.1-12.4 12.7-20.8 17.5-.9-2.5-1.8-4.9-2.8-7.7 6.8-1.6 5-6.8 5.6-11.3.6-5.2-1.4-8.3-7-10 13.2-3.7 25.8-6.7 36.1-15.5-2.7-6.3-11.9-7.5-12-16.7 8.5.4 16.7.2 24.8 1.3 6.8.9 10.8-1.5 12.3-8.3.3-1.4 2.7-3.3 4.2-3.3 6.1-.3 7.9-5.1 9.1-9.3.7-2.4-1.4-7.3-3.6-8.4-6.3-3.1-5.4-8.2-5.8-13.4-.7-8.7-1.9-17.3-3.3-26-.3-1.8-2.1-3.5-4.2-6.7-.7 3-1.6 4.4-1.3 5.6 3.1 12.3 4.5 24.7 3.6 37.4-.3 4 2.4 4.7 4.9 5 4.7.6 4.8 3.9 3.7 6.7-.7 1.9-3.6 4.5-5.4 4.3-4.6-.4-6.1 2.2-6.2 5.5-.2 6-3.8 6.6-8.4 6.4-7.7-.3-15.5-.8-23.2-.8-5.8 0-8.7 5.3-5.6 10.1 2.3 3.5 5.4 6.6 9.1 11.1-8.1 2.1-15.6 4.4-23.4 5.8-6 1.1-9 3.4-9.8 9.3-.3 2.6-.8 5.2-1.1 7-9.5-4.6-19.1-9.1-28.6-13.8-1.4-.7-3.1-2.4-3.2-3.8-.2-4.1-3.2-5.8-6-6.7-10.6-3.6-19.3-10.2-27.3-17.6-4.9-4.5-9.1-10.1-12.3-16-9.6-17.6-12.7-36-5.6-55.5 2.8-7.8 5.4-15.3 12.4-20.5 1.4-1 2.5-2.7 3.1-4.3 4.6-12.2 15.9-16.4 26.3-20.8 13.1-5.5 27.4-5.5 40.8-2.3 21 5 40 14.1 52.1 33.4 2 3.2 3.9 6.5 6.2 9.4 1.2 1.5 3.4 3.4 5.1 3.4 6.6-.2 8.9 3.4 9.9 9 .2 1 1 1.9 1.8 3.3 3.9-4.4 3.7-9.6 1.5-13.1-1.9-3-6.7-4-10.3-5.9-1.5-.8-3.8-1-4.4-2.2-8.5-16.1-21.5-27.1-37.6-35.3-12-6.1-24.5-10.5-37.6-10.2-15.4.3-31.2 1.5-43.5 13-.6.6-1.5 1-2.3 1.3-.5.2-1.1.1-2.5.2 1-4 2-7.6 3-11.8-5.6-.3-4 4.5-5.1 6.9-1.4 2.9-2.1 6-3.1 9.1-5.4-1.3-9.4 1.9-8.2 7.3 1.2 5.3-1 8.1-4 11.8-7 8.8-10.4 19.4-12.7 30.3-3.5 16.5.8 31.6 8.5 45.9 9 16.7 22.6 28.4 39.8 36.1 1.8.8 3.5 1.7 4.1 2-.5 3.8-.5 7.1-1.6 10-1.7 4.6-3.9 9.1-6.4 13.2-7.3 11.7-15 23.2-22.4 34.8-6.1 9.6-11.9 19.4-17.9 29.1-1 1.7-2.5 3.1-3.7 4.7 1.1 4.5-2.3 14.6-6.4 16.4-2.1.9-5 .4-7.4-.1-4.6-.8-9-2.3-13.6-3-13.2-1.9-15.8-.7-17.4 13.8-.6 5.6.9 11.4 1.4 17.1.2 1.9.2 3.8-.2 5.7-.1.3-3 .7-3.3.2-1.1-1.7-2.3-3.7-2.2-5.6.1-10.9.8-21.8.7-32.7-.1-21.6-.7-43.2-.9-64.7-.2-27.3 0-54.5-.1-81.8-.1-14.2-1-28.3-.8-42.5.4-32.1 1.2-64.1 1.8-96.2.1-4.7.3-9.4 0-14-.2-3.9 1.4-5 5-5 11 .1 22 0 33.1-.1 23-.3 46-.4 69.1-.9 20.5-.5 41-1.6 61.4-2 19.3-.4 38.6 0 57.9-.3 10-.1 20.1-.9 30.1-1.3 3.7-.1 5.1-1.9 4.9-5.5-.4-10.1-.7-20.1-1.1-30.2-.1-1.8 0-3.5 0-5.7h63.7c-1.1 1.2-1.7 2.2-2.5 2.9-11 8.6-19.5 19.1-26.4 31.2-5.1 9-9.5 18-11.1 28.2-3.3 21.2-1.6 31.3 18.8 43.4 11.9 7.1 25.4 10.3 39.2 11.9 4.1.5 8.1 1.1 12.2 1.7-1.8 6-3.6 12.2-5.7 19.4-4.8-.9-10.6-2-16.3-3.1-3.9-.8-7.7-2.2-11.6-2.4-9.7-.5-15.4 6-20.1 13.1-5.2 8-2 15.7 3.6 22 3.4 3.8 8.1 6.3 12.1 9.4 1.2.9 2.8 2.2 3 3.4 1.2 7.7 2.1 15.5 2.7 23.3.1 1.2-2.1 3.7-3.2 3.7-7.6-.3-10.8 3.3-7.7 10.4 1.5 3.4 1.8 5.6.5 9.2-1.7 4.8 2.2 7.5 6.3 9.1 6 2.3 12.3 3.9 18 6.7 6.1 3 5.9 3.5 5.4 7.9-3.8 2.2-7.3 3.8-10.2 6.1-.8.6-.6 3.6.1 5 4.7 8.8 12.9 12.5 22 14.9 2.1.6 4 1.9 6.7 3.3-3.7 3-6.9 4.5-8.4 7.1-1.1 1.9.2 5.1.5 8.8-6.2 3.1-3.6 10.5-4.5 16.9-.2 1.4 0 2.8-.5 4.1-3.4 8.8-6.6 17.8-10.6 26.3-1.1 2.3-4.7 4-7.5 4.7-5 1.2-8.9 3.3-10 8.5-1.1 4.8-2 8.9-8.5 6.1-1-.5-2.7.4-4.6.8-1.4-4.6-2.7-9.2-4.1-13.7-1.6-5-3-10-5-14.8-1.7-4.2-7.5-6.4-12.5-4.8-4 1.3-6.8 4.1-6.7 8.7.3 12.5.4 25 1 37.5 1 3.7 2.6 7.7 3.9 13zm-71-144.8c-.2.5-.4 1.1-.6 1.6 2.4 2.8 4.7 5.7 7.1 8.5 2.5 2.9 3.5 5.8 2 9.8-1.9 5.3-3.5 10.9-4.2 16.5-1.2 10-.1 19.6 6.4 28 11.1 14.2 26.1 18.3 43.3 17.1 9.4-.6 18.6-2.2 26.3-7.7 20.7-14.7 27.1-34.7 21.5-59.4-3.4-15.1-20.5-34.8-39.2-36.8-2.5-.3-5-1.4-7.3-1.1-14.3 1.9-25.8 8.7-34 20.7-2.4 3.6-5.6 4.6-9.8 3.8-3.7-.5-7.6-.6-11.5-1zM147.5 206c-3.8-1.1-6.9-1.9-9.8-2.9-4.1-1.4-6.1-4.5-5.6-8.7.5-4 4.5-6.6 8.3-5.5 1.6.5 2.8 2.2 4.3 2.9.9.4 2.2.1 3.3.1-.2-1.1-.1-2.5-.7-3.2-4.5-5.1-9.9-5.6-15.2-1.7-6.4 4.7-7.3 11.6-2.2 18 5.1 6.3 10.8 7 17.6 1zm57.6 6.6c1 1.4 2.2 3.2 3.5 5 1.4-1.4 3.4-2.6 4.1-4.4 1.1-2.9 1.6-6.1 1.7-9.2 0-1.2-1.5-2.9-2.7-3.5-.7-.4-2.9.7-3.3 1.6-1.2 3.2-2 6.5-3.3 10.5z" fill="#fff"/>
  <path d="M179.3 402.7h32.9c-5.7 1.4-12-.4-16.8 4.7h7.5c5.8 6.2 13.3.8 19.2 3.5 0 .5 0 1 .1 1.5h-19.9c0 .7.1 1.5.1 2.2 33.8-.6 67.6-1.1 101.3-1.7v2c-9.5 0-18.9-.2-28.4 0-20 .4-39.9 1-59.9 1.6-1.3 0-2.6.9-3.9 1.3.1.5.2.9.3 1.4h47.5c-.3.6-.5 1.1-.8 1.7 1 .9 2 2.5 3 2.5 17.6-.1 35.2-.4 52.8-.7.3 0 .6-.3 1.4-.8-1.2-1.1-2.3-2-4.1-3.6h9.6c.4 4.3.4 7.8 1.2 11.1 2 8.2 7.6 10.9 16.3 9 5.2-1.1 10.7-1 16.1-1.5 10-1 19.9-2 29.9-2.9 1-.1 2.4-.1 3.1.4 5.6 5.3 12.2 2.8 18.4 2.2 12.6-1.1 25-3.1 37.6-3.9 13.8-.9 27.7-.5 41.6-1.3 15.4-.8 30.7-2.3 46-3.6 4.1-.3 7-4.4 5.5-8.5 6.6-.7 13-1.4 20.4-2.1-9.6-9.1-20-5.4-29.8-6.5 3.2-4.6-.7-4.8-3.3-4.8-21.5.2-43 .6-64.4.9-6 .1-7.8-2-8.3-8.5 4.7 1.2 9.3 2.4 14.9 3.9-.3-2.9-.6-4.4-.5-5.9.1-1.6 0-4.1 1-4.8 7-5 5.8-12.5 4.5-18.8-1.8-8.5-5.3-16.7-8.8-24.7-3-6.8-5.8-7.2-11.2-2.2-2.4 2.3-4.8 4.8-6.4 7.7-1.8 3.4-3 2.3-4.6.1-.5-.7-.9-1.6-1.4-2.3-3.7-4.8-6.3-4.4-8.6 1.2-.3.6-.8 1.2-1.2 1.8-5.5-12.1-2.3-23.9-.4-35.9 1-6.8.6-13.9 2.1-20.7 1.1-5.3 3.9-10.3 6.3-15.2.2-.5 2.7-.1 4 .2 3 .6 6.5 2.9 8.9 2 8.1-3.2 16.7-5.7 22.4-13.5 3.5-4.8 2.7-9-.8-12.6-3-3-7.1-5-11.6-7.9 2.9-3.5 6.1-7.4 9.3-11.3 7.5-9.2 15.3-17.9 18.1-30.1 1.8-8-1.4-14.7-3.4-21.9-.7-2.7-2.1-5.2-3.4-8.5 10.3-.5 19.8-1.2 29.4-1.3 4 0 8.1 7.9 7.1 12.9-.5 2.6-.9 5.3-1.9 7.8-1 2.4-2.6 4.6-3.9 6.8.4.5.7.9 1.1 1.4 2.6-2.1 5.5-3.8 7.7-6.2 2.7-3 5.1-6.5 7.2-10 1.9-3.3 2.9-7 4.9-10.3 1.1-1.8 3.1-4.3 4.8-4.4 14.6-1.3 28.6-4.6 42.2-9.9 1.6-.6 3.4-.8 5.6-1.2-.4 6.7-.8 12.9-1.1 19.2-.1 2.2-.2 4.3-.1 6.5.3 6.7.9 13.3 1 20 .1 17.7 0 35.4 0 53.1 0 12.4.2 24.8-.1 37.2-.3 16.4-1.2 32.7-1.5 49.1-.2 7.6.6 15.2.5 22.7-.2 14.5-.8 29-1 43.5-.2 9.9.1 19.8-.3 29.7 0 1.1-2.8 3-4.3 3-9.4 0-18.9-.5-28.3-.6-27.2-.2-54.4-.1-81.6-.3-15.3-.1-30.5-.8-45.8-.7-60.2.2-120.4.6-180.6.8-33.6.1-67.3-.1-100.9.1-41.3.2-82.7.7-124 1.2-4.5.1-6.2-1.1-5.9-5.7.3-5.6.1-11.2.1-16.8-.1-4.6 1.6-6.8 6.6-6.8 26.8-.3 53.6-.9 80.4-1.4 3.7-.1 7.5-.6 11.2-1.1 13.2-1.5 25.8 2.8 38.8 3.9 11.9 1.1 23.9 3.5 35.4-1.8 3.1-1.4 8.1-2.3 6.4-7-1.2-3.2-4.9-5.5-7.6-8-.7-.6-1.9-.8-2.8-1.1-.2.1-.2-.2-.1-.5z" fill="#fff"/>
  <path d="M366.8 328.6c3-.5 5.6-.3 7-1.5 1.1-.9 1.6-4 .9-5.3-.7-1.2-3.4-1.2-6.1-2 .7-2 1.7-4.6 2.1-5.8 6.4-1.5 11.7-2.7 17.9-4.2-1.2 3.2-1.9 5.3-2.3 6.4-2.3.5-4.7.2-5.3 1.2-4 5.9-1.3 24.1 4.1 29.9 6 6.4 20.3 8.6 28.1 4.1 2.5-1.5 4.8-3.4 7.6-5.4 2.7 10 5.2 19.3 7.8 29.2-15.1 1.4-29.7 2.7-44.2 4.1v2.3c6.9 0 13.8.2 20.7-.1 7.9-.3 15.7-1.2 23.6-1.6 1.4-.1 2.8 1.6 4 3.2-24.3 1.7-48.5-.9-72.6 2.6 3.1 4.2 7.4 2.5 11.1 2.5 12 .2 24 0 36.1.4 6.6.2 13.2 2 19.7 1.6 8.8-.5 14.2 2.9 17.3 10.8 1.9 4.7 3.8 9.3 5.9 13.9 1.9 4.1.7 6.8-3.5 7.8-10.4 2.3-20.9 4.5-31.4 6.5-5.8 1.1-11.6 1.9-17.5 2.5-1.5.1-3.8-.9-4.7-2.1-6.4-9.4-12.6-18.9-19.8-29.9 6.2 1 11.2 2.2 16.3 2.6 10.8.7 21.4 2.9 31.8 5.6 1 .3 2.4-.9 5.2-2-3.2-1.4-4.8-2.4-6.5-2.8-14-3.3-27.9-6.8-41.9-9.7-4.7-1-9.7-.7-14.5-.7-4.3 0-5.5-1.9-5.4-6.1.1-3.7-1.4-7.4-1-11 1-10.1 2.5-20.2 4.1-30.3.1-.8 2.2-1.9 3.4-1.9 1.5 0 3.1 1.5 4.5 1.3 1.7-.3 3.1-1.8 4.6-2.8-.9-1.2-1.5-3.1-2.8-3.6-7.2-3.2-7.3-3.1-4.3-9.7zM407.8 270.2c-4.2 9.1-8.2 17.7-11.7 25.3-5.3.3-10.1.1-14.8.8-3.5.5-5-.5-4.5-3.7.9-6.2-2.9-8.2-7.7-9.6-7.4-2.2-14.8-4.5-19.6-11.3 13.4-7.7 13.8-13.6 1-22.1-4.3-2.8-9.5-4.5-14.5-6.1-7.9-2.5-8.2-3-3.2-9.8.4-.6.6-1.3.9-2.2-2.2-1.9-4.5-3.8-6.7-5.8.3-.4.5-.7.8-1.1 3.3.2 6.7.5 10.1.7.5 2.2 1 4.9 1.6 7.8 6.4-3.8 6.7-11.7 2.9-17.1-2.3-3.2-2.1-8.2-2.5-12.4 0-.2 3.9-1.3 5.9-1.2 1.1 0 2.1 1.7 5 2.5.1-2 .8-4.4 0-5.9-2.2-3.9-5.4-3.9-13.1.1.6-3.6.2-6.8 1.6-8.8 2.3-3.3 5.6-1.7 8.7-.2 4 1.9 7.8 3.1 12.7 1.2 5.8-2.2 11.2 1.1 16.8 3.9-1.6 1.9-2.7 3.2-2.8 3.4.4 5.4.5 9.6.9 13.8.5 5.2 4.6 6 8.6 6.3 4.5.3 8.2 1.2 9.4 6.8 1.3-.7 2.2-1.5 3.3-1.8 1.7-.6 4.3-1.7 5-1 1.6 1.6 3.4 4.1 3.3 6.2-.3 5.8-4.2 9-10.3 9.6-1.4.1-2.7.3-4 .5l-.6 1.5c1.8 1.2 3.5 2.4 5.9 3.9-4.3 6.1-1.9 11.1 3.5 15.8 3.1 2.8 5.4 6.6 8.1 10zm-60.6-53.3c-.3 6.9 1.3 13.4-4.8 18.1 5.6.5 6.9-3.5 8.1-7 1.2-3.7 3.6-8.2-3.3-11.1zM93 326.8c-.3-.4-.4-.6-.5-.7-6.7-10.4 1.5-17.7 5.8-25.5 4.8-8.9 10.8-17.2 16.7-26.5 2.3 2.5 4.3 5 6.6 7.1 4.3 3.7 8.5 7.6 13.3 10.6 1.5.9 4.9-.2 6.9-1.3 1.7-1 2.7-3.2 3.7-4.6 2.6 2 4.8 3.8 7 5.6 3.8 3.2 3.9 12.5.2 15.7-.7.6-1.3 1.3-2 1.8-6.2 4.7-8.6 4.6-13.4-1.4-2.4-3-4.1-6.6-6.2-9.8-1.3-2-2.9-3.8-4.6-6-2.1 5.1 0 11.2 7.1 22.3-6.8 5.3-13.6 10.7-20.6 15.9-2.9 2.2-4.2-.4-5.1-2.6-1.9-4.2-3.4-8.6-5.3-12.7-.8-1.7-2.3-3.1-3.5-4.7-.5.2-1 .4-1.6.6.2 2.9-.3 6 .6 8.7 1.5 4.8-.4 6.7-5.1 7.5zM432.3 218.7c1.6 3.2 3.3 6.3 4.6 9.7.3.9-1 2.4-1.6 3.6-1-.7-2.2-1.3-3.1-2-.8-.7-1.4-1.5-2.2-2.4-3 5.8-.6 8.6 7.3 9 .4 2.4.7 4.8 1.1 7.1 3.2-9.5 11.8-2.6 17.2-5.6-3.2 5.7-6.8 11.2-9.7 17-6 11.9-11.9 23.9-17.2 36.1-1.9 4.3-4.2 3.7-6.5 2-5-3.5-10-7.2-11.3-13.8-.4-1.9-.9-4.1-.3-5.7 4.6-11.1 9.7-22 14.3-33.1 1.3-3.2 1.6-6.8 2.3-10.2.8-3.8 1.6-7.6 2.4-11.5.9 0 1.8-.1 2.7-.2z" fill="#fff"/>
  <path d="M423.9 315.7c-10.8 3.4-7.9 14.4-12.4 21.8 2-.7 4.1-1.4 7.5-2.6-2.4 2.6-3.7 4.8-5.6 6-2 1.3-4.6 1.7-7.6 2.7 1.8 2.1 2.8 3.2 3.9 4.4-11.5 4.8-25.9-2.1-25-16.3 3.2 4.4 5.1 9.8 12 9.7-.3-1.2-.2-2.4-.8-3.2-8.2-10.6-8.6-17.8-1.5-29.2 1.3-2.1 2.9-4.1 4-6.3.4-.8-.3-2.1-.6-4 .8-1.1 2.4-3.1 3.2-4.2 5.3 3.5 10.2 7.1 15.5 10.2 2.5 1.4 6.6 1.1 8 3 1.2 1.6-.3 5.3-.6 8zM39.5 397.7h-6c-.1.8-.2 1.7-.2 2.5 6.3 1.1 12.7 3.5 18.9 3 20.7-1.5 41.3-4.1 62-6.2 1.4-.1 3 .3 4.3-.1 2.7-.8 5.4-2 7.9-3 1.1 4.7-1 7.4-6.8 7.7-17.4.7-34.9 1.4-52.3 2.2-1.1 0-2.1.7-3.2 2.1 8.3 3.1 17 1.2 25.3 2.2 0 .5 0 .9.1 1.4-8.1.2-16.2 1.2-24.1.2-10.8-1.3-21.4-4.1-32-6.4-5.6-1.2-9.8-3.9-10.2-10.6-.3-5.7-1.6-11.3-2.5-17 .6-.4 1.3-.8 1.9-1.1 3.7 1.7 7.4 3.5 11.2 5.2 13.1 6 26.9 7.5 41.3 7 11.8-.4 23.6.7 35.3 1.2v1.4c-8 .6-15.9 1.2-23.9 1.8-6.8.5-13.5 1.1-20.3 1.5-7.1.4-14.2 1.2-21.2.9-3.6-.2-5 .9-5.5 4.1zM171.3 314.4c-4.1.9-4.4 1.4-1.4 5.1-4.5 2.3-4.1 4.6 1.8 7.6-10.2-.2-12 7.3-15.7 12.6-2.6 3.8-5.5 4-9.6 3.5-7.9-1-15.8-1.6-23.7-1.6-3.9 0-7.1-.9-8.1-4.5-.4-1.4 2-3.8 3.5-5.3 2.9-2.9 5.8-5.9 9.3-7.9 4.2-2.4 8-5.7 13.7-5 7.3 1 11-5.8 16-9.4 4.8-3.4 9.3-5.9 15.4-4.1-1.6 1.5-4 2.8-4.1 4.2 0 1.6 2 3.4 2.9 4.8z" fill="#fff"/>
  <path d="M199.6 273.4c4.7 3.9 9.3 7.7 14.5 12.1-8.3 12.5-16.7 25.1-25.1 37.6-3.4 5-6.8 10-10.4 14.9-3.1 4.2-10.3 5.1-14.3 1.9-.7-.6-1.4-2.1-1.1-2.6 1-1.6 2.2-3.2 3.7-4.2 2.2-1.4 5.1-1.9 7.1-3.5 5.2-4 5.4-10.4 6.6-16.1.6-3-.7-6.4-1-9.6-.1-1.1-.4-2.6.1-3.4 6-8.8 12.2-17.6 18.4-26.3.4-.3 1-.5 1.5-.8zM342.3 419.5c-4.5-5.6-9.1-10-11.9-15.3-1.5-2.8-.2-7.3.4-10.9 1.2-7.5 2.6-15.1 4.2-22.5.3-1.5 2-3.9 3-3.9 2 0 5.1.9 5.8 2.4 1.9 3.9 3.5 8.2 3.9 12.5 1.3 12.6-1.4 24.7-5.4 37.7zM445.8 384.8c2.2-2.2 3.8-3.7 5.4-5.3-2-1.4-4-2.7-7-4.8 4-6.8 8.4-14.3 13.7-23.1 1.5 4.2 2.6 6.8 3.4 9.6 1.8 7 4.1 13.9 5 21.1.8 6.8-4.7 10.3-11.1 7.6-3.3-1.4-6.3-3.4-9.4-5.1zM132.4 390.4c9.3-10.3 17.7-19.5 26.8-29.6.9 2.1 2.4 3.9 2.3 5.6-.4 6.9-1.1 13.9-2.2 20.7-.2 1.2-2.4 3.1-3.7 3.1-7.3.4-14.6.2-23.2.2zM295.5 350.4c5 .2 5.1 4.6 5.8 7.7 1.5 6.6 2.3 13.3 3.5 20 1.3 7.5 1 8-6.8 11.1-4.9-12.6-5.2-23-2.5-38.8zM124.5 410.2c1.7-.8 3.4-2.2 5.1-2.1 8.8.5 17.7.7 26.3 2.4 4.4.8 7.5.6 11.1-1.8 3.1-2.1 13.4 1.3 16.7 5.6-20.1 5.1-39.2-1.9-58.6-2-.1-.8-.3-1.5-.6-2.1zM583.8 28.2c-6.3-5.5-12.7-10.9-20.2-17.4 7.2 0 13.1-.1 19 .1 1 0 2.7 1.6 2.7 2.5.3 4.8.1 9.6.1 14.4-.5.1-1.1.2-1.6.4zM26.5 366.9c6.4 1.1 12.7 2 19.1 3.2 4 .8 7.3 2.5 10.4 5.8 2.4 2.7 6.7 3.7 11.6 6.1-16.1-1.2-29.2-5.9-41.3-13.7 0-.5.1-.9.2-1.4zM118 265.2c8.4 7.9 21.6 7.1 28.9 16.2-2.4 1.3-4.1 2.4-5.9 3.1-1.4.5-3.7 1.4-4.4.8-6.7-6-13.2-12.2-19.8-18.4.4-.6.8-1.1 1.2-1.7zM78.7 332.6c4 5.3-.1 13.6 8.7 15.9-5.5 1-11.1 2.1-16.6 2.8-.8.1-3-2.9-2.7-3.4 3.2-5.1 6.9-10.1 10.6-15.3zM379.1 428.4c-2.8 1-4.5 2-6.4 2.2-6.1.7-6.3-.2-5.1-6.2.9-4.9.2-10.1.2-16.6 8.1 5.2 6 14.4 11.3 20.6zM295 406.8h-69.2c2.3-.4 4.3-1 6.3-1 6.5-.1 13 .1 19.5 0 12.5-.3 25.1-.8 37.6-1.1 1.9-.1 3.9 0 5.8 0-.1.6 0 1.3 0 2.1zM329.5 415.2c3 3.3 5.7 5.8 7.8 8.9 1.2 1.7 1.5 4.2 1.6 6.3 0 .4-2.8 1.6-4 1.4-2-.4-4.8-1.3-5.5-2.8-1.9-4.4-3.4-9 .1-13.8zM431.3 214.2c1.8-7.2-3.5-15.8 6.3-22.2 0 3.1.1 4.9 0 6.6-.2 3.9-.6 7.9-.5 11.8.1 3.7-1.3 5.1-5.8 3.8zM131.4 399.8c1.4-.9 2.7-2.5 4.1-2.7 7.1-.6 14.2-.8 21.2-1.2-1.3 6.2-6.7 7.4-25.3 3.9zM107.8 343.6c-6.2 1.4-11.5 2.6-16.8 3.8-.3-.4-.5-.9-.8-1.3 4.3-3.4 8.5-6.8 13.4-10.7 1.6 3.1 2.8 5.4 4.2 8.2zM162 398.6c1.5-1.4 2.1-2.4 2.9-2.6 3.9-1 7.9-2 11.9-2.5 2-.3 4.2.5 6.3.8-1.2 1.4-2.4 4-3.7 4.1-5.4.5-10.8.2-17.4.2zM307 391.8v14.7c-9.1-8.6-8-13.2 0-14.7zM332.8 150.4c-6.9 5.4-13.5 10.4-13.3 20.2-5.1-7.9 2.6-19.6 13.3-20.2zM351.1 180.6c-1.3-5.6-1.7-10 3.2-13.2 3.1 4.5 2.4 7.7-3.2 13.2zM452.7 219.8c-3.3 2.8-6.4 5.4-10 8.5-1.5-1.6 1.6-4.1 3-6.6 1.9-3.5 4.7-3.6 7-1.9zM458.8 231.9c-3.9-4.8-5.6-2-6.5 3.2-.5-.4-1.1-.7-1.6-1.1-.2-1.7-1.1-3.7-.5-5 1.5-3.3 4.8-4.6 8.1-3.2 1.2.6 1.4 3.6 2 5.5-.6.3-1.1.4-1.5.6zM378.7 308.4c.3-6.5 3.5-8.4 12.4-8.1-.7 1.2-1.2 2.9-1.9 3-2 .3-4.4-.8-6 0-1.7.6-2.7 2.9-4.5 5.1zM291.4 418.3h16.5v.8h-16.3c-.1-.2-.2-.5-.2-.8zM359 431.5c1.6-6.3 2.8-11.3 4.1-16.6-.5 5.4 2.2 11.3-4.1 16.6zM39.4 397.7c6.5-.3 13.1-.7 19.6-1v1.9c-6.5-.3-13-.6-19.6-.9.1 0 0 0 0 0z" fill="#fff"/>
  <path d="M222.6 256.7c3.8.4 7.7.4 11.5 1.2 4.2.8 7.4-.2 9.8-3.8 8.2-12 19.7-18.8 34-20.7 2.4-.3 4.9.8 7.3 1.1 18.7 2 35.9 21.7 39.2 36.8 5.5 24.7-.8 44.6-21.5 59.4-7.7 5.5-17 7.1-26.3 7.7-17.1 1.1-32.1-2.9-43.3-17.1-6.6-8.4-7.7-18-6.4-28 .7-5.6 2.3-11.2 4.2-16.5 1.5-4 .5-6.9-2-9.8-2.4-2.8-4.7-5.7-7.1-8.5.2-.7.4-1.2.6-1.8zm13.6 9.2c.3 1.6 1.7 4.6.9 6.5-4 9.1-5.6 18.5-5.1 28.3.5 9 4 16.2 11.5 21.9 14 10.5 29.7 11.8 45.7 8 12.7-3.1 22.9-10.6 27.7-23.6 5.4-14.7 4.8-29.1-1.9-43.2-4.5-9.5-11.8-16.8-21.2-20.3-20.4-7.5-36.9-.5-50.2 16.4-1.9 2.4-4.9 4.1-7.4 6zM147.5 206c-6.9 6.1-12.6 5.3-17.6-1-5.1-6.4-4.2-13.4 2.2-18 5.4-3.9 10.7-3.3 15.2 1.7.6.7.5 2.1.7 3.2-1.1 0-2.4.3-3.3-.1-1.6-.7-2.8-2.4-4.3-2.9-3.8-1.1-7.8 1.5-8.3 5.5-.5 4.2 1.5 7.3 5.6 8.7 3 .9 6 1.7 9.8 2.9zM205.1 212.6c1.2-4 2-7.3 3.3-10.4.4-.9 2.6-1.9 3.3-1.6 1.2.6 2.7 2.3 2.7 3.5-.1 3.1-.6 6.3-1.7 9.2-.7 1.7-2.7 2.9-4.1 4.4-1.2-1.9-2.5-3.7-3.5-5.1zM347.2 216.9c6.9 2.9 4.4 7.4 3.3 11.1-1.1 3.5-2.4 7.5-8.1 7 6.1-4.7 4.5-11.3 4.8-18.1z"/>
  <path d="M505.8 27.7c.9 2.1 1.8 4.3 3 7.2h-8.3l3.6-7.2h1.7z" fill="#fff"/>
  <text transform="translate(31.506 44.523)" fill="#fff" font-family="BaskervilleT-Bold" font-size="35" letter-spacing="5">PEANUTS</text>
  <text transform="translate(382.602 41.523)"><tspan x="0" y="0" font-family="Peanuts" font-size="33">YOU MEAN</tspan><tspan x="-29.4" y="39.6" font-family="Peanuts" font-size="33">SANTA COMES</tspan><tspan x="-6.4" y="79.2" font-family="Peanuts" font-size="33">DOWN THIS</tspan><tspan x="4.1" y="118.8" font-family="Peanuts" font-size="33">CHIMNEY?</tspan></text>
  <text transform="translate(256.472 280.024)"><tspan x="0" y="0" font-family="Peanuts" font-size="32">UH</tspan><tspan x="-8.7" y="38.4" font-family="Peanuts" font-size="32">HUH</tspan></text>
</svg>
