<svg xmlns="http://www.w3.org/2000/svg" viewBox="0 0 595.3 463" xml:space="preserve">
  <path fill="#fff" d="M56.2 3h493.6v120.1H56.2z"/>
  <path d="M0 0h595.3v463H0V0zm473.5 457.6v.2H494c20.6-.1 41.2-.2 61.7-.1 3.5 0 7 1.8 10.5 1.8 5.5-.1 10.9-1.4 16.4-1.7 3-.2 4.2-1.1 4.1-4.2-.2-6.4-.2-12.9 0-19.3.2-8.8.9-17.6 1-26.4.1-5-.8-10-.7-14.9.2-6.5 1.3-12.9 1.3-19.4.1-18.9-.4-37.7-.4-56.6 0-14.7.7-29.4.6-44.1-.1-19.4-.8-38.8-.8-58.1 0-15.2.8-30.5.8-45.7 0-15.3-.8-30.6-.7-45.9.1-17.2 1.1-34.3 1.2-51.5.2-20.7-.1-41.4-.1-62.1 0-3.7-1.3-5.3-4.9-5.3h-12.8c-16.5.2-33 .7-49.5.7-22.2 0-44.4-.6-66.6-.7-21.6-.1-43.2 0-64.8 0-30.8 0-61.6-.1-92.4-.2-12.2 0-24.3.1-36.5.1-6.5 0-12.9-.1-19.4-.2-8.2-.2-16.4-.9-24.6-.9-7.1 0-14.2 1-21.3 1.1-13.7.2-27.5.1-41.2 0-12.1-.2-24.2-.7-36.4-1-13.8-.4-27.5-.8-41.3-1-6.8-.1-13.9.6-21 .8-5.9.2-11.7.3-17.6.3-5.9-.1-11.8-.3-17.8-.3-3.8 0-7.8-.2-11.5.6-1.3.3-2.7 3-3 4.8-.5 2.6.1 5.3.1 8 .1 14.3 0 28.5.2 42.8.1 8.9.9 17.8.9 26.7 0 8.1-.8 16.1-.9 24.2-.2 14.3 0 28.5 0 42.8-.1 19.7-.3 39.4-.4 59.1 0 11.1.4 22.2.3 33.3-.1 9.2-.9 18.4-.9 27.6-.3 39.6-.6 79.2-.6 118.9 0 19.1.4 38.1.6 57.2.1 6.3 1.3 7.6 7.7 7.6h121.8c7.5 0 14.9-.3 22.4-.3l58.4.3c7.6 0 15.1-.2 22.7 0 16.9.6 33.8 1.5 50.7 1.9 7.6.2 15.3-.9 23-.9 27.9-.2 55.8-.1 83.7-.1 25.6.1 51.6.1 77.5.1z" fill="#fff"/>
  <path d="M473.5 457.6h-77.8c-27.9 0-55.8 0-83.7.1-7.7 0-15.3 1.1-23 .9-16.9-.4-33.8-1.4-50.7-1.9-7.5-.2-15.1 0-22.7 0-19.5-.1-38.9-.3-58.4-.3-7.5 0-14.9.3-22.4.3H13c-6.3 0-7.6-1.3-7.7-7.6-.2-19.1-.6-38.1-.6-57.2.1-39.6.3-79.2.6-118.9.1-9.2.9-18.4.9-27.6.1-11.1-.3-22.2-.3-33.3 0-19.7.3-39.4.4-59.1.1-14.3-.1-28.5 0-42.8.3-8.2 1.2-16.2 1.2-24.3 0-8.9-.8-17.8-.9-26.6-.2-14.3-.1-28.6-.2-42.8 0-2.7-.6-5.4-.1-8 .3-1.9 1.7-4.6 3-4.9C13 2.8 17 3 20.8 3c5.9 0 11.9.2 17.8.2s11.7-.1 17.6-.3c7.1-.2 14.2-.8 21.3-.7 13.8.1 27.5.6 41.3 1 12.1.3 24.2.8 36.4 1 13.7.2 27.5.2 41.2 0 7.1-.1 14.2-1.1 21.3-1.1 8.2 0 16.4.6 24.6.9 6.5.2 12.9.2 19.4.2 12.2 0 24.3-.1 36.5-.1 30.8 0 61.6.1 92.4.2 21.6 0 43.2-.1 64.8 0 22.2.2 44.4.7 66.6.8 16.5 0 33-.4 49.5-.7 4.3-.1 8.5 0 12.8 0 3.6 0 4.9 1.6 4.9 5.3-.1 20.7.3 41.4.1 62.1-.2 17.2-1.1 34.3-1.2 51.5-.1 15.3.7 30.6.7 45.9 0 15.2-.8 30.5-.8 45.7 0 19.4.8 38.8.8 58.1.1 14.7-.6 29.4-.6 44.1 0 18.9.4 37.7.4 56.6 0 6.5-1.2 12.9-1.3 19.4-.1 5 .8 10 .7 14.9-.1 8.8-.8 17.6-1 26.4-.2 6.4-.1 12.9 0 19.3.1 3.1-1.1 4-4.1 4.2-5.5.3-10.9 1.6-16.4 1.7-3.5.1-7-1.8-10.5-1.8-20.6-.1-41.2 0-61.7.1h-20.5c-.3-.2-.3-.2-.3-.3zm-144.8-343c-.6.3-1.1.7-1.7 1-1.3-1.1-3.2-1.9-3.8-3.3-2.7-5.9-4.9-12-7.6-17.9-.8-1.7-2.4-4.1-3.9-4.2-7.4-.7-14.8-1.1-22.2-1.1-8.2-.1-16.5.8-24.7.4-10-.5-19.9.6-30-1.2-11.4-2.1-23.2-1.5-34.9-2.2-13.1-.8-26.2-1.3-39.2-2.7-15.9-1.7-31.7-4.3-47.6-6.4-9.2-1.2-18.3-2.5-25.6-9.1-.3-.3-.9-.5-1.4-.5-8.7-.7-18.3-8.2-21.1-16.4-4.2-12.5 2.9-23.5 12-32.5 3.1-3.1 6.6-5.9 10.9-9.8-2.6.4-3.9.7-5.1.7-13.2-.2-26.5-.4-39.7-.7-8.1-.2-16.2-.4-24.4-1.1-4.2-.3-5.9.6-5.8 5.1.2 16 .1 32.1 0 48.1-.2 14.5-.9 28.9-.9 43.4 0 19.7.6 39.4.7 59.1.1 20.7 0 41.5-.1 62.2-.1 12.9-.5 25.7-.6 38.6-.3 35.1-.6 70.3-.8 105.4-.1 12.9.5 25.8.5 38.7 0 12.4-.4 24.7-.8 37-.1 3.3 1.3 4.7 4.2 4.8 4 .2 8 .1 12 .1 22.1-.3 44.3-.8 66.4-.9 13.1 0 26.1.8 39.2.8 64.2.1 128.4 0 192.6.1 12.3 0 24.6.6 36.8.7 31.6.2 63.1.3 94.7.3 39.9 0 79.9 0 119.8.1 3.9 0 5-1.5 4.9-5.1-.2-6.5-.1-13-.1-19.5v-69.2c0-19.6-.1-39.2 0-58.8.1-23.8.4-47.6.6-71.4.1-6.2.5-12.4.4-18.6-.2-8.8-1-17.6-.9-26.4 0-9.9.9-19.8 1-29.7.3-30.8.5-61.6.8-92.4 0-2.9.1-5.8 0-8.8-.4-7.3-1.2-14.5-1.3-21.8-.1-6 .5-12.1.9-18.9h-84.7c2.9 5.4 6.1 10.6 8.7 16.2 5.1 10.9 6.3 22-1.2 32.2-3.9 5.3-9 9.7-14 14.1-8 7.2-18.1 10.4-28.2 12.4-8.6 1.7-17.6 1.1-26.4 1.5-13 .7-26.1 1.4-39.1 2-4 .2-8-.1-12 .1-16.7.7-33.4 1.5-50.1 2.1-3.9.1-4.8 1.5-4.9 5.2-.7 5.9-1.6 12-2.3 18.2zM346.1 86c1.6-.5 3.5-1.6 5.4-1.7 11.2-.4 22.4-.4 33.6-.8 11.9-.5 23.7-1.4 35.6-2.1 13.8-.8 27.7-.6 41.3-2.5 10-1.4 20-4.7 29.2-8.8 4.3-1.9 6.9-7.7 10-12 7.7-10.7 3.7-32.2-5.3-42.1-2.2-2.5-5.1-5.5-8.1-5.9-6.7-.9-13.5-.4-20.3-.3-9.2.2-18.3.9-27.4.8-11.3 0-22.5-.8-33.8-.8-26.1-.1-52.2 0-78.3 0H228.3c-23.1 0-46.3 0-69.4-.2-12.6-.1-25.3-1.1-37.9-.4-13 .6-27.3-3-37.4 9.2-4.5 5.5-9.7 10.7-12.6 17-2.7 6-2.6 13 2.6 18.8 6.8 7.7 16.2 10.7 25.4 13.3 3.6 1 5.6 2.4 7.4 5.1.1.2.4.2 1 .5-.2-1.4-.3-2.4-.4-3.5.3-.1.7-.2 1-.3.6 1.4 1.1 2.9 1.7 4.3.9-1 1.9-2.1 2.6-2.9 2.2.7 3.9 1.6 5.8 1.9 4.4.6 8.9.7 13.3 1.2 17.9 2.1 35.9 4.5 53.8 6.2 9.7 1 19.5 1 29.3 1.3 4.9.2 10.3-1.2 14.6.5 6.7 2.6 13.5.7 20.2 2 6.9 1.4 14.3 0 21.5 0 12.7 0 25.4 0 38.1.4 4 .1 8.8-.3 10.6 5 1.3 3.8 2.3 7.7 3.6 11.6.4 1.2 1.2 2.3 2 3.6 1-6.1 1.8-11.3 2.9-16.5.3-1.3 1.9-3 3.1-3.1 3.8-.4 7.6-.3 11.4-.1 1.3 0 2.5.8 3.6 1.3z"/>
  <path d="M328.7 114.6c.7-6.1 1.7-12.3 2-18.4.2-3.6 1.1-5 4.9-5.2 16.7-.5 33.4-1.4 50.1-2.1 4-.2 8 .1 12-.1 13-.6 26.1-1.3 39.1-2 8.8-.4 17.9.2 26.4-1.5 10.1-2 20.2-5.2 28.2-12.4 4.9-4.4 10.1-8.8 14-14.1 7.5-10.2 6.3-21.3 1.2-32.2-2.6-5.5-5.8-10.8-8.7-16.2h84.7c-.3 6.9-1 12.9-.9 18.9.1 7.3.9 14.5 1.3 21.8.2 2.9 0 5.8 0 8.8-.2 30.8-.4 61.6-.8 92.4-.1 9.9-.9 19.8-1 29.7 0 8.8.8 17.6.9 26.4.1 6.2-.3 12.4-.4 18.6-.2 23.8-.5 47.6-.6 71.4-.1 19.6 0 39.2 0 58.8v69.2c0 6.5-.1 13 .1 19.5.1 3.6-1 5.2-4.9 5.1-39.9-.1-79.9 0-119.8-.1-31.6 0-63.1-.1-94.7-.3-12.3-.1-24.6-.7-36.8-.7-64.2-.1-128.4 0-192.6-.1-13.1 0-26.1-.9-39.2-.8-22.1.1-44.3.6-66.4.9-4 .1-8 .1-12-.1-2.9-.1-4.3-1.6-4.2-4.8.4-12.3.8-24.7.8-37 0-12.9-.5-25.8-.5-38.7.2-35.1.5-70.3.8-105.4.1-12.9.5-25.7.6-38.6.1-20.7.2-41.5.1-62.2-.1-19.7-.7-39.4-.7-59.1 0-14.4.7-28.9.9-43.3.2-16 .2-32.1 0-48.1 0-4.5 1.7-5.5 5.8-5.1 8.5.8 16.6 1 24.7 1.2 13.2.3 26.5.5 39.7.7 1.3 0 2.5-.3 5.1-.7-4.3 3.8-7.8 6.6-10.9 9.8-9.1 9.1-16.2 20-12 32.5 2.7 8.2 12.3 15.6 21.3 16.4.5 0 1 .2 1.4.5 7.3 6.6 16.4 7.9 25.6 9.1 15.9 2.1 31.7 4.7 47.6 6.4 13 1.4 26.1 1.9 39.2 2.7 11.6.7 23.5.1 34.9 2.2 10.1 1.8 20 .7 30 1.2 8.2.4 16.4-.5 24.7-.4 7.4.1 14.8.4 22.2 1.1 1.4.1 3.1 2.5 3.9 4.2 2.7 5.9 4.9 12 7.6 17.9.6 1.4 2.5 2.2 3.8 3.3.3-.3.9-.7 1.5-1zm88.1 242.9c-1.1-8.8-1.5-16.9-3.4-24.6-2.4-10.3-5.9-20.3-9-30.3-3.1-9.7-6.4-19.3-9.4-29-.3-1.1.9-3.5 2-4 10.1-4.8 20.6-8.7 29.2-16.2.7-.6 2.1-.3 3-.7 3.4-1.2 7.2-2 9.9-4 4-2.9 7.2-6.9 10.7-10.4.3.3.6.5.8.8-1 1.4-1.9 2.8-2.9 4.2 3.8-1.7 6.2-5.4 9.5-6.5 7.9-2.6 9.5-9.8 13.4-15.4 3.9-5.6 3.2-14.3 12.1-16.6-1.1-.6-1.9-.5-2.5-.9-1.4-.8-2.7-1.7-4-2.6.7-1 1.7-2 2.2-3.1 1.3-3 3.2-6.1 3.4-9.2.7-9.2-1.8-17.9-7.1-25.3-2.9-4.1-6.6-9-10.9-10.3-4.9-1.4-6.5-4.1-8.5-7.7-.5-.9-.9-2-1.6-2.7-7.9-7.6-15.5-15.6-23.9-22.7-10.2-8.7-23.1-12.9-35.8-12.6-10.5.3-21.5 4.2-31.2 8.7-12.9 5.9-24.6 14.4-37.4 20.9-4.9 2.5-11.1 2.5-16.8 3.3-5.3.7-11 .1-16.1 1.5-9.2 2.6-15 9.7-19.1 18-2 4-1.8 8.1 1 11.5 3.7 4.7 8.7 7.5 14.4 9.5 3.7 1.3 7.7 3.4 10.2 6.4 2.2 2.6 3.2 6.8 3.6 10.4.4 4 1 9-.9 12.1-3.5 5.8-8.7 10.6-13.3 15.8-1.8 2.1-4.6 3.9-5.2 6.2-1.7 7.3 2 11.1 11.1 11.6-1.7-3.1-3.2-5.7-4.5-8.5-.6-1.2-1.3-2.8-1-3.7 3.4-8.9 10.7-14.4 18.2-21.4-3.6 7.3-7.2 13.1-9.5 19.5-2.8 7.6 3.1 12.7 8 18.8-3.8.5-6.8 1.7-9.6 1.2-6.1-1-12-2.8-18-4.4-5.1-1.3-10.1-3.1-15.2-4.1-4.5-.9-5.2 2.2-4.5 5.6 1.3 6 2.9 12 4 18.1.4 2 .2 5.9-.5 6.1-9 2.5-1.7 11.5-6.4 15.5 3.5 3.2.2 9.5 5.4 12.1.8.4 1 1.8 1.7 2.6 2.4 2.5 4.5 6.5 7.3 7.1 6.3 1.4 6.9 5.2 8.1 10.3 1.3 5.5 3.3 12.2 7.4 15.3 7.6 5.7 16.9 9.3 25.6 13.6 2.5 1.2 5.4 1.7 8.4 2.6-2.6 7.5-4.9 14.1-7.2 20.7-2 5.8-2 5.2-8.8 5.3-9.2 0-18.4.8-27.6 1.9-4 .5-5.8-.7-6.7-4.2-1.1-4.4-1.8-9.1-3.5-13.3-4-9.9-17.4-17.2-26.5-12.4-5.1 2.7-8.7 8.3-12.8 12.4-1.9 0-4.4-.1-6.9 0-2.6.1-5.4 1.1-7.7.4-5.5-1.5-10.8-4-16.2-5.7-6.3-1.9-6.7-3-4.4-9.3 2.2-6 3.6-12.3 5.6-18.3.4-1.2 2-2.1 3.1-2.9.9-.7 2.9-1.2 2.9-1.8 0-3.6.5-7.7-1.2-10.5-1.4-2.3-5.5-3-8.4-4.5-1.1-.5-2.9-1.1-3-1.7-.4-10.4-6.9-18.5-10.9-27.5-4.3-9.6-9.3-18.9-14-28.3 5-2.4 9.9-5 15-7.1 11.3-4.6 19.1-12.5 23.8-23.6 2.2-5.2 4.7-10.2 6.9-15.4 1.7-3.8 4.1-7.5 1.8-12.1-1.2-2.3-1.6-4.9-2.2-7.4-1.5-6.3-2-13-4.5-18.9-8.6-20.6-23.2-35.5-44.6-42.6-6.7-2.2-13.9-3.4-20.9-3.8-9.2-.5-18.6-.6-27.7.9-10 1.7-18.9 6.9-26.8 13.5-11.2 9.5-17.8 21.7-20.7 36-1 4.9-.7 10.1-1.1 15.8-4.1 4.2-8.9 8.9-13.3 13.9-1 1.1-1.5 3.7-.8 4.8 1.2 1.9 2.9 4.5 6 1.8.8-.7 2.7-1.4 3.4-.9 4.5 3.2 10.3 5.8 12.8 10.3 7.4 13.1 18.4 21.4 31.5 27.5 3.5 1.7 7 3.3 9.8 4.6-3.7 7.3-7 13.9-10.5 20.4-4.5 8.3-9.1 16.6-13.8 24.8-4 6.8-8.4 13.4-12.2 20.3-1.3 2.3-1.3 5.4-2.5 7.9-2.6 5.2-6 9.9-8.5 15.2-3.1 6.6-1.6 11.9 3.6 13 3.8.8 7.8.6 11.6 1.3 2.3.4 4.5 1.5 6.7 2.3-1.4 2.4-2.8 4.7-5 8.5-2.5-10.6-7.7-4.3-9.9-4.3-2.7-2.4-4.5-5.3-6.1-5.2-9.3.6-18.5 2-27.8 2.8-7.7.7-15.5 1-23.2 1.4v1.9c5.7 3.6 12.1-1.6 19.1.9-2.7.1-4.3-.1-5.8.4-1.1.4-2 1.6-2.9 2.5 1 .9 2 2.6 2.9 2.5 4.6-.3 9.1-1 13.6-1.5l-.6 1.2c2 .9 4 2.8 6 2.7 7.8-.5 15.6-1.7 23.5-2.3 2.6-.2 5.4 1 5.8-3.2 0-.3 2.1-.5 3.3-.6.2 0 .4.5.8.9-.7 1.1-1.5 2.2-2.6 3.8 1.7 1 3.1 2.1 4.7 2.7 5.5 1.8 11.2 3.2 16.6 5.1 12.4 4.4 25.2 4.9 37.6 2.1 8.7-2 16.6-5.5 25.9-2.9 5.3 1.5 11.2.9 16.8 1.3 10.6.9 20.8.3 30.2-5.5 1.1-.7 2.8-1.1 3.9-.7 4.8 1.6 8.6.5 12.2-4.9 0 3.2.1 5 0 6.7-.8 8-.2 16 2.4 23.6 2.9 8.4 3.4 8.3-5.5 8.2-.9 0-1.7-1.2-2.6-1.7-1.9-1.1-3.6-2.7-5.6-3.1-1.9-.3-4 .9-6 .9-7.3.2-14.6.1-21.9.2-5.4.1-10.8.4-16.2.5-8.1.2-16.2.3-24.3.6-1.3 0-2.6.8-4 1.2.1.6.2 1.2.3 1.9 5.3-.3 10.5-.8 15.8-1 12.5-.4 24.9-.7 37.4-1.1 3.7-.1 7.4-.9 11.2-.9 3.5 0 7 .5 10.5.7-11.3 4-23.1 1.3-34.1 4.5.1.5.1 1.1.2 1.6 11.7-.6 23.3-1.1 35-1.7 0 .3.1.7.1 1-2.2.7-4.3 1.4-7.7 2.6 5.4 0 9.6.8 13.4-.2 8.1-1.9 13.1 1.9 18.5 7.2 9.1 9.1 22.8 7.7 30.8-.1 3.9-3.7 8.2-4.5 13-4.9 2-.1 4.2.5 5.9-.3 5.5-2.5 9 1.7 13.3 3.4 5.6 2.2 7.4 5.4 3.9 10.8-.2.3 0 .7 0 1.1-1.3 11.1 13.6 21.3 24.7 18 16.3-4.7 32.1-10.9 47.5-16.2 3.1 3.4 4.9 6.5 7.5 7.9 2.6 1.4 6.8 2.6 9.2 1.4 8.1-3.9 16.7-4.8 25.3-5.4 18.4-1.2 36.8-1.7 55.2-2.4 3.5-.1 6.4-.5 4.5-5.1 8.1-.5 15.9-.9 23.6-1.4 5.3-.4 10.6-.9 15.9-1.5 1-.1 2-.7 3-1.1-.9-.9-1.6-2.4-2.6-2.5-2.8-.3-5.6-.1-8.5-.1 0-.6-.1-1.1-.1-1.7 5.2-.2 10.5-.1 15.7-.6 5.4-.5 10.7-1.5 16.1-2.3-.1-.7-.2-1.3-.2-2-2.7-.6-5.5-1.2-8.2-1.8 0-.3.1-.7.1-1 3.6-.2 7.1-.4 10.7-.6v-2.4c-3.8-.4-7.5-.7-12-1.2 1.6-1.2 2.5-1.9 4.2-3.3-2-.4-3.2-.8-4.4-.8-6.2 0-12.8 1.2-18.6-.2-8.5-2.2-16.9-2.8-25.6-2.2-4.2.3-8.5.3-12.7.5-6.9.2-13.9.5-20.8.7-4.1.1-8.4-.5-12.4.3-9.8 2.2-10.6-1.1-13.5-7.6 5.6-2.5 11.7-4.2 16.7-7.6 4.9-3.3 10-7.4 10.1-16.2-2.3 1.6-3.9 2.2-4.6 3.4-6.6 10.6-15.5 14.3-28.9 11.1 1.7-2.2 3-4 4.5-5.5.8-.8 2.5-.9 3.1-1.8 5-8.1 10.2-16.1 14.5-24.6 1-1.9-.5-6-2.1-8-1.2-1.5-5-2.5-6.8-1.8-4.5 1.7-9 4.1-12.6 7.2-4.2 2.9-7.2 7.2-11.3 11.9z" fill="#fff"/>
  <path d="M416.8 357.5c4.1-4.7 7.1-9 11-12.3 3.7-3.1 8.2-5.4 12.6-7.2 1.9-.7 5.6.2 6.8 1.8 1.6 2 3.1 6.1 2.1 8-4.3 8.5-9.5 16.5-14.5 24.6-.6.9-2.3 1-3.1 1.8-1.5 1.6-2.8 3.4-4.5 5.5 13.4 3.2 22.3-.5 28.9-11.1.7-1.2 2.3-1.8 4.6-3.4 0 8.8-5.2 12.9-10.1 16.2-5 3.4-11.1 5.1-16.7 7.6 2.8 6.5 3.7 9.8 13.5 7.6 3.9-.9 8.2-.2 12.4-.3 6.9-.2 13.9-.5 20.8-.7 4.2-.1 8.5-.2 12.7-.5 8.7-.6 17 .1 25.6 2.2 5.8 1.5 12.4.2 18.6.2 1.2 0 2.4.4 4.4.8-1.8 1.4-2.7 2.1-4.2 3.3 4.5.4 8.2.8 12 1.2v2.4c-3.6.2-7.1.4-10.7.6 0 .3-.1.7-.1 1 2.7.6 5.5 1.2 8.2 1.8.1.7.2 1.3.2 2-5.4.8-10.7 1.8-16.1 2.3-5.2.5-10.5.4-15.7.6 0 .6.1 1.1.1 1.7 2.8 0 5.7-.2 8.5.1 1 .1 1.7 1.6 2.6 2.5-1 .4-2 1-3 1.1-5.3.6-10.6 1.1-15.9 1.5-7.7.6-15.5.9-23.6 1.4 1.9 4.6-1 5-4.5 5.1-18.4.7-36.9 1.2-55.2 2.4-8.6.6-17.2 1.5-25.3 5.4-2.4 1.1-6.6 0-9.2-1.4-2.7-1.4-4.4-4.5-7.5-7.9-15.4 5.3-31.2 11.4-47.5 16.2-11.2 3.2-26-6.9-24.7-18 0-.4-.1-.8 0-1.1 3.5-5.4 1.7-8.6-3.9-10.8-4.3-1.7-7.8-5.9-13.3-3.4-1.7.8-3.9.1-5.9.3-4.8.3-9.1 1.1-13 4.9-8.1 7.8-21.7 9.2-30.8.1-5.4-5.3-10.4-9.1-18.5-7.2-3.8.9-8 .2-13.4.2 3.3-1.1 5.5-1.8 7.7-2.6 0-.3-.1-.7-.1-1-11.7.6-23.3 1.1-35 1.7-.1-.5-.1-1.1-.2-1.6 11-3.2 22.8-.5 34.1-4.5-3.5-.3-7-.8-10.5-.7-3.7 0-7.4.8-11.2.9-12.5.4-24.9.7-37.4 1.1-5.3.2-10.5.7-15.8 1-.1-.6-.2-1.2-.3-1.9 1.3-.4 2.6-1.2 4-1.2 8.1-.3 16.2-.4 24.3-.6 5.4-.1 10.8-.4 16.2-.5 7.3-.1 14.6 0 21.9-.2 2 0 4.1-1.3 6-.9 2 .4 3.8 2 5.6 3.1.9.5 1.7 1.7 2.6 1.7 8.9.2 8.4.3 5.5-8.2-2.6-7.5-3.2-15.5-2.4-23.6.2-1.8 0-3.5 0-6.7-3.5 5.4-7.3 6.5-12.2 4.9-1.1-.4-2.9 0-3.9.7-9.3 5.9-19.6 6.4-30.2 5.5-5.6-.5-11.5.1-16.8-1.3-9.3-2.5-17.2 1-25.9 2.9-12.4 2.9-25.2 2.3-37.6-2.1-5.5-2-11.1-3.3-16.6-5.1-1.6-.5-3-1.7-4.7-2.7 1.1-1.6 1.8-2.7 2.6-3.8-.4-.4-.6-.9-.8-.9-1.2.1-3.3.3-3.3.6-.4 4.2-3.2 3-5.8 3.2-7.8.6-15.6 1.8-23.5 2.3-1.9.1-4-1.7-6-2.7l.6-1.2c-4.5.6-9.1 1.3-13.6 1.5-.9.1-1.9-1.6-2.9-2.5 1-.9 1.8-2.1 2.9-2.5 1.4-.5 3.1-.3 5.8-.4-7-2.5-13.4 2.7-19.1-.9v-1.9c7.8-.5 15.5-.7 23.2-1.4 9.3-.8 18.5-2.3 27.8-2.8 1.6-.1 3.4 2.8 6.1 5.2 2.3 0 7.4-6.4 9.9 4.3 2.2-3.8 3.6-6.1 5-8.5-2.2-.8-4.4-1.9-6.7-2.3-3.8-.6-7.9-.4-11.6-1.3-5.2-1.1-6.7-6.4-3.6-13 2.5-5.2 5.9-10 8.5-15.2 1.2-2.4 1.2-5.5 2.5-7.9 3.9-6.9 8.3-13.4 12.2-20.3 4.7-8.2 9.3-16.5 13.8-24.8 3.5-6.5 6.8-13.2 10.5-20.4-2.8-1.3-6.3-2.9-9.8-4.6-13.1-6.2-24.1-14.5-31.5-27.5-2.5-4.4-8.3-7.1-12.8-10.3-.6-.4-2.5.2-3.4.9-3.1 2.7-4.9.1-6-1.8-.7-1.1-.1-3.7.8-4.8 4.5-5 9.3-9.7 13.3-13.9.4-5.7.1-10.9 1.1-15.8 2.8-14.2 9.4-26.5 20.7-36 7.9-6.6 16.8-11.8 26.8-13.5 9-1.5 18.5-1.4 27.7-.9 7 .3 14.2 1.6 20.9 3.8 21.5 7.1 36.1 22 44.6 42.6 2.5 5.9 3 12.6 4.5 18.9.6 2.5 1 5.2 2.2 7.4 2.4 4.6-.1 8.2-1.8 12.1-2.3 5.2-4.7 10.2-6.9 15.4-4.7 11.1-12.5 19.1-23.8 23.6-5.1 2.1-10 4.7-15 7.1 4.7 9.3 9.7 18.6 14 28.3 4 9 10.5 17 10.9 27.5 0 .6 1.9 1.2 3 1.7 2.9 1.4 7 2.1 8.4 4.5 1.7 2.8 1.1 6.9 1.2 10.5 0 .6-2 1.1-2.9 1.8-1.1.9-2.7 1.7-3.1 2.9-2 6.1-3.4 12.3-5.6 18.3-2.3 6.3-1.8 7.4 4.4 9.3 5.5 1.7 10.7 4.2 16.2 5.7 2.4.7 5.1-.3 7.7-.4 2.5-.1 4.9 0 6.9 0 4.1-4.1 7.7-9.7 12.8-12.4 9.1-4.8 22.5 2.5 26.5 12.4 1.7 4.2 2.4 8.8 3.5 13.3.9 3.5 2.7 4.7 6.7 4.2 9.1-1.1 18.4-1.9 27.6-1.9 6.8 0 6.8.6 8.8-5.3 2.3-6.6 4.6-13.2 7.2-20.7-2.9-.9-5.8-1.3-8.4-2.6-8.7-4.3-18-7.9-25.6-13.6-4.1-3.1-6.1-9.8-7.4-15.3-1.2-5.1-1.8-9-8.1-10.3-2.8-.6-5-4.6-7.3-7.1-.7-.7-.9-2.2-1.7-2.6-5.2-2.6-1.9-8.9-5.4-12.1 4.8-4-2.5-13 6.4-15.5.7-.2.9-4.1.5-6.1-1.1-6.1-2.8-12-4-18.1-.7-3.5 0-6.6 4.5-5.6 5.1 1 10.1 2.8 15.2 4.1 6 1.6 11.9 3.4 18 4.4 2.8.5 5.8-.7 9.6-1.2-5-6.1-10.8-11.2-8-18.8 2.3-6.3 5.9-12.2 9.5-19.5-7.5 7-14.8 12.5-18.2 21.4-.4 1 .4 2.6 1 3.7 1.3 2.7 2.9 5.4 4.5 8.5-9.1-.5-12.8-4.3-11.1-11.6.5-2.3 3.4-4.1 5.2-6.2 4.5-5.2 9.7-10 13.3-15.8 1.9-3.1 1.3-8 .9-12.1-.4-3.6-1.3-7.8-3.6-10.4-2.5-2.9-6.5-5-10.2-6.4-5.7-2-10.7-4.8-14.4-9.5-2.7-3.5-2.9-7.6-1-11.5 4.2-8.3 9.9-15.4 19.1-18 5.1-1.5 10.7-.8 16.1-1.5 5.7-.8 11.9-.8 16.8-3.3 12.7-6.4 24.4-14.9 37.4-20.9 9.8-4.5 20.7-8.4 31.2-8.7 12.8-.3 25.6 3.9 35.8 12.6 8.4 7.1 16 15 23.9 22.7.7.7 1.1 1.7 1.6 2.7 1.9 3.5 3.6 6.3 8.5 7.7 4.3 1.2 8 6.2 10.9 10.3 5.3 7.4 7.8 16.1 7.1 25.3-.2 3.1-2.1 6.2-3.4 9.2-.5 1.1-1.5 2.1-2.2 3.1 1.3.9 2.6 1.8 4 2.6.6.3 1.3.3 2.5.9-8.8 2.3-8.2 11-12.1 16.6-3.9 5.6-5.5 12.8-13.4 15.4-3.3 1.1-5.7 4.7-9.5 6.5 1-1.4 1.9-2.8 2.9-4.2-.3-.3-.6-.5-.8-.8-3.5 3.5-6.8 7.5-10.7 10.4-2.8 2.1-6.6 2.8-9.9 4-1 .4-2.3.1-3 .7-8.6 7.5-19.1 11.5-29.2 16.2-1.1.5-2.3 2.9-2 4 2.9 9.7 6.3 19.3 9.4 29 3.2 10.1 6.6 20.1 9 30.3 2.2 8.1 2.6 16.2 3.7 25zM356 371.8c.3-2.2.7-4.4 1.1-7.6-1.6-1.9-4.1-4.7-6.6-7.6-3.6 2.5-6.8 4.8-9.9 7 4 5.8 9 8.3 15.6 8.1.2.6.1 1.6.5 1.8 5.2 3.2 9.2 7.3 12.3 12.7.4.7 5.4.1 5.9-1 1.6-3.6 2.1-7.7 3-11.6-.8-.3-1.7-.6-2.5-1-1.2 2.1-2.4 4.2-3.7 6.7-1-.3-2.9-.7-4.7-1.1-1.8-8.7-5.5-10.9-11-6.4zm98.1-174.7c-.2.7-.6 1.7-.7 2.7-.8 9.7-9.4 14.2-18.2 9.6-9.9-5.2-18.8-21.8-17.8-33.2.2-2.2-.1-4.4.2-6.5.7-4.5 2.7-8.3 7.9-7.3 5.1 1 10.6 2.2 14.8 5 3.2 2.1 5.1 2.1 7-.3 2.6-3.2 5-6.7 6.9-10.4.6-1.1-.4-3.5-1.4-4.8-2.7-3.7-5.4-7.4-8.6-10.6-5.5-5.6-10.8-11.4-17.1-15.9-5.4-3.9-12-6.4-18.3-8.8-8.1-3.1-16.7-5-25.4-2.5-9.9 2.8-19.6 6.1-28.4 11.7-6.9 4.4-13.7 8.9-20.7 13.1-7.5 4.5-15.2 7.1-24.4 6.7-7.3-.4-15 .4-22 3.9-5.6 2.8-7.4 7.9-7.8 13-.2 2.8 2.4 6.6 4.8 8.8 2.5 2.2 6.2 2.9 9.3 4.5 4.1 2.1 6.7 1 8.2-3.3 1.2-3.3 2.7-6.5 4-9.7.5.2 1.1.4 1.6.7-.8 2.8-1.6 5.5-2.4 8 2.5 1.5 4.7 3 7 4.2 3.1 1.7 5.7 1.3 7-2.3 1.8-4.7 3.2-5.2 7.5-2.7 4.4 2.5 8.9 5 13.5 7.2 2.9 1.4 6 2.3 10.4 3.9-2.4-3.5-4.3-5.5-5.2-7.8-.5-1.1.7-2.9 1.1-4.4 1.4.5 3.2.5 4 1.5 5.7 6.7 12.9 10.5 21.9 11.1-1.5-1.9-3.7-3.1-5.3-4.9-1.1-1.1-1.3-3-1.9-4.6 1.6-.3 3.4-1.2 4.8-.8 2.5.8 4.6 2.6 7.1 3.6 3.9 1.6 7.9 2.8 13.2 4.7-5.5-11.5-5.6-15.1-1.8-18 1.9 5.2 3.9 10.5 6 16.1 6.1-2.9 10.9-5.2 15.7-7.5.4.5.8 1.1 1.2 1.6-3.2 4-9.2 4.5-12 7.1 7.7 8.8 16 17.1 22.6 26.5 2.8 4.1 4 11.5 2.3 16-3.5 9.5-9.5 18.1-14.6 26.9-.5.9-2.1 1.1-3.2 1.7-.6-.5-1.1-.9-1.7-1.4 2.9-5.6 5.8-11.1 8.5-16.7 2-4.1 5.2-8.3 5-12.4-.2-4.8-2.7-9.9-5.6-14-4.5-6.6-10.9-12-15-18.8-4.5-7.4-11.6.4-16.1-4.1-.4-.4-1.4 0-2.1 0-.2 0-.4.1-.5.3-4.6 7.8-11.9 3.7-17.6 3.1-11.1-1.1-22-3.2-33.1-1.2-3.5.6-6.5 1.6-10 0-2.5-1.2-5.3-1.9-8.1-2.2-1.8-.2-4.7-.1-5.5 1-.9 1.3-.7 4-.1 5.8 1 3 2.6 5.8 4.1 8.6 5.8 11 5.9 11.4-2 20.8-5.2 6.2-5.6 13.5-1.8 20.6 4 7.4 5.9 7.7 14 4.5 7.3-2.9 14.8-5.4 23-8.4 1.8 3.2 3.8 6.1 5 9.3 2.1 5.6 3.7 11.4 5.7 17 .4 1.1 1.4 2.5 2.4 2.7 3.4.7 6.9 1.2 10.4 1.1 6.8-.2 13.7-.5 20.5-1.3 7.4-.9 15.1-.3 20.1-8.4 3.3-5.3 9.1-9.1 14.1-13.3 3.5-2.9 6.6-1.8 8.1 2.4 3-2.6 5.9-5.2 9-7.7 2.1-1.7 3.8-5.8 7.5-1.8.3.3 2.6-.8 3.5-1.7 2-2 4.3-4.1 5.4-6.6 1.5-3.8 3.6-4.1 6.1-2.6 2-2.6 4.4-4.7 5.4-7.3 1.4-3.4 3.6-8.8 2.2-10.5-3-4.1-8.5-6.7-13.6-10.3zM90.7 168.3c2.7 6.3-.3 9.7-3.6 12.6-3.7 3.4-8 6.2-12.1 9.1-1.9 1.3-3.8 3.7-6.7 1.1-.6-.5-3 .2-3.7 1-2.7 3 1.1 13.7 5 13.3 4.1-.4 4.6 2.2 6 4.4 2.9 4.6 5 10.2 8.9 13.7 8.7 7.8 18.3 14.6 30 17.4 8.4 2 17 5.3 25.3 4.8 9.7-.6 19.5.2 29.3-3.4 11-4.1 21.2-8.3 28-18.1 6.9-10 8.9-21.9 8.5-33.4-.3-9.1-1.2-18.7-6.2-27.1-5.8-9.8-11.6-19.6-21.4-26.3-10-6.8-20.4-11.5-32.9-13.1-12.4-1.5-24.9-2.1-36.4 1.3-13.3 3.9-24.8 11.9-30.9 25.5-1.4 3.2-3.6 6.2-4.7 9.5-2.3 6.6-4.2 13.4-2.2 20.4 6.7-4.2 12.9-8.2 19.8-12.7zm173.3 79c-.2.8-.5 1.4-.4 1.9 3.2 11.4 6.4 22.9 9.9 34.3 1.7 5.5 4.9 10.7 5.7 16.3.6 5 1.3 9.7 2.7 14.6 3 10.5 8.6 17.7 19.2 21.2 5.4 1.8 10.2 5.6 15.6 7.5 6.3 2.2 12.6 4.9 19.7 1 9.2-5 19.1-8.9 28.5-13.5.7-.3 1-2.7.7-3.9-3.9-15-7.9-29.9-12.1-44.8-2.4-8.6-5.2-17.2-7.9-25.7-1.4-4.5-2.8-8.9-3.9-12.6-14.5 3.9-28.1 8.1-41.9 10.9-6.8 1.4-14.2 1.4-21-1.6-4.8-2.2-9.8-3.7-14.8-5.6zm-149.1 4.8c-4.6 9.3-9.4 18.8-14.5 29.1 5.3 1.9 10 3.4 14.6 5.2 6.9 2.8 7 2.8 8.5-4.3.2-1-.2-2.3.2-3.2.8-1.6 2-3.1 3-4.6l1.2.6c-.4 5.5-.8 11.1-1.3 17.9 2.1-1.7 3.1-2.4 4-3.2 9.7-9.3 9.7-9.3 16.9 2.7 3.7 6.1 3.8 6.1 8.3.3.4-.6 1.1-1 1.5-1.6 2.6-3.6 6.3-6.7 4.8-12.2-.6-2.3.6-5.1 1-7.6.4 0 .9.1 1.3.1.3 5.7.7 11.3 1 17.5 3.7-.6 7.3-1.1 11.7-1.8-4.6-10-9-19.5-13.9-30.2-1.8 4.8-3.2 8.5-4.8 12.7-2.1-1-4.2-1.4-4.7-2.5-3-5.9-5.6-3-8.3 0-.6.6-15.5 1.2-16.1.7-.5-.5-1.1-1-1.5-1.5-4.1-4.6-8.3-9.1-12.9-14.1zm234.8 177.7c1-1.7 1.8-3.2 2.8-4.5 7.8-10 13.4-20.6 12-34-.4-4.3-1.7-7.5-4.8-10.2-10.2-8.9-19.8-7.6-24.9 2.7-3.1 6.2-6 12.6-8.3 19.2-.8 2.1-.2 6 1.3 7.4 6.9 6.5 14.3 12.6 21.9 19.4zm-82.8-38.5c-.9-7.3-1-14.1-2.6-20.6-1.8-7.2-4.1-14.5-12-18.2-6.5-3.1-11.5-1.5-16.4 4-7.5 8.3-3 31.9 2.1 39.1.6.9 2.6 1.5 3.7 1.3 8.3-1.7 16.5-3.7 25.2-5.6zm140.7-48.6c-7.6 1.2-14 2.4-20.5 3.2-2.9.4-4.5.4-3.5 4.4 1 4.3.8 9 .4 13.5-.6 6-1.9 12-2.8 18-.5 3.5-1.1 7-1.1 10.4 0 1.2 1.8 2.4 2.8 3.5.2-1.4.3-2.8.6-4.2.5-2.2 1.2-4.3 1.7-6.4 1.4 1.8 3.1 3.4 4 5.4 1.2 2.4 1.7 5.2 2.5 7.8.7-.2 1.3-.3 2-.5-.5-3.7-.9-7.4-1.4-11.3 7.9-1.8 3.8 7.3 9.1 8.3-.3-3.4-.6-6.4-.8-9.4 5.7-2.1 4.7 9.8 11.1 5.6-.8-4.2-2.2-8.1-2.3-12.1-.2-8.5.6-17 .4-25.6-.1-3.5-1.4-7-2.2-10.6zm-287.3 5.4c0-.5 0-.9-.1-1.4 6.2 1.6 9-1.5 11-6.7 2.6-7.1 5.8-13.9 8.6-21 1.3-3.3-1.3-9.5-4-9.9-9.5-1.3-25.7 3.6-30.1 13.1-1.5 3.3-2.4 6.9-3.6 10.3-.8 2.1-1.4 4.3-2.5 6.3-1.7 2.9-.6 4.6 2.1 5.2 6.1 1.6 12.4 2.8 18.6 4.1zm34.5-15c1.8-7.3 8.2-9.3 13.4-12.6 4.1-2.6 8.6-4.8 12.7-7.4 5.2-3.3 4.2-17.2-1.4-20-2.3-1.2-11.9.7-14.1 2.8 2.8.8 7.2-1.1 8.1 3.5-4.9.8-9.7.7-13.4 2.6-4.1 2.1-7.2 6.1-10.8 9.1-2.3 1.9-2.1 3.4-.2 5.9 3.5 4.4 8 8.8 5.7 16.1zm5.1 14c4.4 0 7.8.1 11.2 0 3.2-.1 6.4-.3 9.4-.9 2.3-.5 6-1.2 6.5-2.7 2.2-6.5 3.6-13.3 4.8-20 .1-.8-2.7-3.2-3.8-3-6.4 1.1-12.5 3.1-17.9 7-6.7 4.8-7 12.4-10.2 19.6zM87.2 363c7.8 1.8 15 2.8 21.8 5.1 12 4.1 23.7 3 35.5 0 1.5-.4 2.7-1.5 4.1-2.2-1.2-1.2-2.3-3-3.7-3.4-5.3-1.7-12.2-5.7-15.8-3.8-9.1 4.8-18.2.5-27 2.3-1.4.3-3.3-2.1-5.1-3-1.8-.9-3.7-1.6-5.7-2.5-1.2 2.1-2.5 4.5-4.1 7.5zm337.5 9.7c8.3-2.6 16.2-14.3 18.9-23.7 1.6-5.6-.8-8.4-5.8-5.7-5.8 3.1-10.8 7.8-15.7 12.3-3.2 2.9-3.4 6.5-.7 10.2 1.3 1.9 2.1 4.3 3.3 6.9zm-271.4-15.6c-.6 6.8.1 7.6 6.3 8.4 8.1 1.1 16.2 2.8 24.3 3 7.7.2 15.8.9 23.5-3.8-6.6-4.4-13.2-6.2-20.1-5.4-4.7.6-8.7 3-14.2 1-6.1-2.1-13-2.2-19.8-3.2zm-33-60.4c.1-.5.2-1.1.4-1.6-4.6-1.8-9.1-3.7-13.7-5.5-8.8-3.5-8.8-3.5-13.1 5.2-.2.5-.7 1-.7 1.4 0 2.7-1 6 .3 7.8 1.8 2.5 4.9 2.8 8.3.9 5.9-3.2 12.3-5.5 18.5-8.2zm223.2 136c-7.9-6.9-15.2-13.3-22.7-19.9-2.9 6.3-6 12.9-.6 17.6 6.2 5.3 14.1 7.9 23.3 2.3zm-101.8-29.1c4.2 3.5 7.6 6.7 11.4 9.3 2.8 1.9 14.8 0 16.7-2.4 3.1-3.8.4-7.4-.9-11-.2-.5-.5-.9-.7-1.3-8.3 1.6-16.5 3.3-26.5 5.4zM427.2 420c1.1-.4 1.9-.8 2.7-1 8.5-2.4 10-6.4 5.3-13.8-2.9-4.6-5.5-9.4-8.1-14.2-1.5-2.7-7-4.3-9.8-2.6-.5.3-.9 1.4-.8 1.7.3.6 1.2 1.3 1.8 1.3 1.8-.1 3.6-.5 6-.9-4 9.2 7.2 11.4 7.1 18.5-6.9 3.4-7.8 5.5-4.2 11zM295 401.1l-4.7-9.4c-4.4-8.8-8.1-10.6-18-8.1 6.2 5.2 11 10.9 10.1 19.5 4.7-.7 8.7-1.3 12.6-2zm103.3-93c-.2.9-.5 1.8-.7 2.6-5.6-9.1-8.6-1.7-13.5.2 2.5 3.1 4.7 5.7 6.8 8.3 2.3-1.4 3.8-2.6 5.6-3.4 4.2-2 5.8-4.7 3.7-9.4-1.8-4.2-2.9-8.7-4.4-13-.5-1.5-1.6-2.7-2.5-4.1-1.1 1.9-2.8 3.8-3.2 5.8-.3 1.3 1.3 3.1 2.2 4.5 2 2.9 4 5.7 6 8.5zm-6.2 96.7c1.6 0 2.9-.3 3.2 0 3.1 4.9 5.3 2 8-.5 2-1.9 4.6-3.2 6.9-4.8 1.7-1.2 3.3-2.6 5.3-4.1-5.8 1.4-10.9 2.4-15.8 3.8-5.2 1.5-10.3 3.4-15.4 5.2-2.5.9-4 3.5-1.5 4.6 3.3 1.5 3.6 8.4 9.2 5.4 1.7-.9 3.3-2.2 4.8-3.2-2.1-2.8-3.2-4.3-4.7-6.4zm-32.5-126-1.5 1.5c3.3 4 6.6 7.9 10.4 12.4 7.2-5.7 13.7-10.8 20.3-15.9-.3-.4-.7-.8-1-1.2-9.2 3.9-18.4 6.1-28.2 3.2zm-34.7 94.9c-1.9-4-3.2-6.7-4.6-9.5.5-.2 1-.4 1.4-.7 2 2.1 4 4.3 6 6.4 1.3-1.1 2.4-2 3.4-3.1 1.4-1.6 2.6-3.3 3.8-5-2.3-1.7-4.3-4.4-6.8-4.8-5.9-1.1-9.8 3.7-10.5 12-.1 1.5.3 3.8 1.3 4.4 1.4.9 3.5.3 6 .3zm84.8 29.8c-8.3 7.5-8.3 7.5-2.1 14.5.4.4.6 1 1 1.2 1.4.5 3.3 1.6 4.4 1.1 5.7-2.7 6.1-5.5 1.9-10.3-1.8-2-3.3-4.2-5.2-6.5zm-19.5 18.3c2.2 6.3 7.9 8.6 13 6.3 4-1.8 4.7-5.1 1.8-8.4-2-2.3-3.8-4.6-5.8-7-2.8 2.7-6 4.4-6.2 6.3-.2 2.1 2.5 4.4 3.9 6.6l-.7.7c-2.1-1.5-4-3-6-4.5zm-236.4-74.7c-6.5.4-12.6.4-18.6 1.1-2.1.2-4 2-6.4 3.2 5.1 1.3 9.3 2.1 13.3 3.3 5.5 1.7 8.8.2 10.8-5.2.4-.9.7-1.8.9-2.4zm162.4 37.1c-3.3 2.7-5.9 4.8-8.5 6.9 1.7 2.4 2.7 4.5 4.4 6 1.1 1 3.4 2 4.4 1.5 9-4.2 8.9-4.3 1.6-11.6-.6-.6-1-1.5-1.9-2.8zm95.8 17.7c2.9 3.2 5.5 6.6 8.6 9.3.8.7 3.6-.3 5-1.3.9-.7 1.5-2.8 1.2-4-2.1-6.8-7.9-8.7-14.8-4zm-51.6-37.5c.2-.7.5-1.4.7-2 2.5-2.3 5-4.5 7.2-6.6-2.4-2.5-4.7-5-7.3-7.7-2.6 2.1-5.1 4.2-9.7 7.9 3.4 3 6.3 5.7 9.1 8.4zM131.7 255.1c2.4 1.9 4.3 3.6 6.5 5.1 1.8 1.3 4.7 3.7 5.6 3.2 4.2-2.7 8-6.1 12.1-9.6-8.6.4-15.9.8-24.2 1.3zm236.4 118.2c5.8-.9 9-3.4 9-7.6 0-1.8-3.4-5.3-5-5.1-2.6.2-6.5 2.4-7 4.5-.7 2.2 1.8 5.3 3 8.2zm3-18.7c8.9-4.3 8.8-6.3 0-14.1-2.2 1.9-4.4 3.8-6.7 5.8 2.3 2.9 4.4 5.5 6.7 8.3zm-58.5 27.7h-20.9c3 4.2 5.7 8 8.5 11.7.7-.3 1.3-.5 2-.8l-1.8-9c4.9 4.6 5.2 4.5 12.2-1.9zm174.2 25c-.1-.7-.1-1.4-.2-2.1-14.3 1.2-28.6 2.3-42.9 3.5.1.8.1 1.6.2 2.4 14.3-1.2 28.6-2.5 42.9-3.8zm-85.3-76.9c8.1-2.4.6-7.8 2.3-11.5.1-.3-1.2-1.6-1.3-1.5-2.8 1.6-5.5 3.4-8.7 5.4 3.2 3.2 5.5 5.4 7.7 7.6zm-36.9 94.8c4.3-1.4 6.6-2.1 8.8-3 .5-.2 1-1.6.8-2-1.9-3.2-4-6.3-6-9.4-.7.1-1.3.2-2 .3-.5 4.2-.9 8.3-1.6 14.1zM375 293.7c10.5-.1 18.1-7.2 16.5-14.3-5.3 4.6-10.4 9-16.5 14.3zm11.3 34.4c4.7 8.9 6.2 9.6 11.6 5.3-3.8-9-5.3-9.8-11.6-5.3zm-82.5 64.8c-.9 2.7-2.6 5.2-2 6.8.8 2.2 3.3 3.9 5.3 5.3.5.4 2.8-.5 3.2-1.4.6-1.2.9-3.3.2-4.2-1.4-2-3.6-3.6-6.7-6.5zm67.9-58.1c4.8-1.5 7.5-7.8 4.6-12-.8-1.1-2.2-1.8-3.4-2.7-.7 1.4-1.9 2.7-1.9 4.1-.1 3.5.4 7.1.7 10.6zm-219.6-5.9c-3.1-4.1-5.2-6.9-7.8-10.4-4.5 12.5-4.5 12.5.3 15.3.3-2 .6-4.1.9-6.1 2 .4 3.4.7 6.6 1.2zm227.5-18.3c-5.2-8.3-5.9-8.4-11.1-.7l6.9 5.1c1.8-1.9 3-3.2 4.2-4.4zm11.6 29c-5.8-7.9-6.5-8.4-9.2-7.8v10.4c3.1-.9 5.8-1.6 9.2-2.6zm38.6-173.4c-.3.4-.5.7-.8 1.1 3.2 3.8 6.4 7.7 10.4 12.5 1-2.8 2.9-6.4 2.5-6.7-3.8-2.7-8-4.7-12.1-6.9zm1.5 28.4c-.5.3-1 .6-1.4.9 1.6 2.2 2.8 5 4.9 6.5 2.2 1.6 5.9 3.4 7.9 2.6 2.2-.9 3.3-4.7 4.8-7.3l-2.1-1.2c-1.3 2.2-2.6 4.5-4.5 7.6-3.3-3.2-6.4-6.2-9.6-9.1zm-92.9 171.6c-3 2.1-6 4.1-9.1 6.2 3.9 4.1 3.9 4.1 12-1.9-.8-1.2-1.7-2.5-2.9-4.3zm98.4-184.3c-2.7-1.9-4.5-3.9-6.6-4.5-.9-.2-4 3-3.7 3.7.9 2 2.6 4.5 4.5 5 1.2.5 3.3-2.3 5.8-4.2zm-54 143.5c.5.2 1.1.4 1.6.6 1.3-1.9 3.4-3.7 3.6-5.7.4-2.5-5.5-6.4-7.9-6.2.9 3.8 1.8 7.5 2.7 11.3zm-10.5 66.2c-.4 1-1.6 2.9-1.2 3.5 2.2 3 4.7 5.7 7.5 8.2.5.5 2.5-.6 3.7-1.2.2-.1 0-1.7-.4-2.2-2.9-2.6-6-5.2-9.6-8.3zm89.3-232.8c-.7 2.4-2.1 4.5-1.6 5.9.6 1.9 2.5 3.4 4.1 4.7.5.4 2.9-.6 2.9-.9 0-1.8-.1-3.9-1-5.4-.8-1.5-2.5-2.6-4.4-4.3zm-81.8 147.4c5.5 1.9 7.1-1.8 9.2-4.2.4-.5-.4-2.4-1.1-3.2-.5-.5-2.4-.4-2.8.1-1.8 2.1-3.3 4.5-5.3 7.3zm58.6-109.5c.8-4 1.4-6.7 2-9.5-1.5 0-3.5-.7-4.4 0-3.5 2.8-1.5 5.5 2.4 9.5zM457 413.8c.1.7.3 1.3.4 2 8.7-.7 17.4-1.3 26.8-2H457zM91.1 311.3c.1-.7.2-1.4.3-2-1.9-.7-4.3-2.5-5.6-1.9-1.7.7-2.6 3.4-3.8 5.2.4.5.9 1 1.3 1.5 2.5-1 5.1-1.9 7.8-2.8zm266.7 29.4c8.6.6 10-.6 8.8-6.7-3.2 2.5-6 4.6-8.8 6.7zm-42.4 70.9c2.1-3.9 3.9-7.3 5.8-10.7-.4-.3-.8-.7-1.1-1-2.7 2.5-5.4 5-8.3 7.7.7.8 1.8 2 3.6 4zm174.8-6.4v2.1c6.1-.3 12.2-.5 18.3-.8 0-.4-.1-.9-.1-1.3h-18.2zM456 177.6c.6.2 1.2.4 1.7.6.7-2.1 2.4-4.6 1.8-6.2-.8-2.2-3.3-4.4-5.6-.9.8 2.2 1.4 4.4 2.1 6.5zm-50.1 152.6c-3 2.8-5.5 5.1-8 7.4 3.5-1.3 11 1.8 8-7.4zm-68.8 26.9c.2.7.5 1.5.7 2.2 5.1 2.4 6.3-4.1 10-4.8-.2-.5-.4-1.1-.7-1.6-3.3 1.5-6.6 2.8-10 4.2zM459.6 181c3.6 1.1 6 1.8 8.4 2.5.8-1 1.5-2 2.3-3-2.2-1.3-4.3-2.8-6.6-3.6-.7-.1-2.1 2.1-4.1 4.1zM263.3 293c-.2.5-.4 1-.6 1.4 2.4.7 4.8 1.7 7.2 2.1.7.1 1.7-1.8 3.2-3.5h-9.8z"/>
  <path d="M454.1 197.1c5.1 3.6 10.6 6.2 14.2 10.4 1.4 1.7-.8 7.1-2.2 10.5-1.1 2.6-3.4 4.7-5.4 7.3-2.4-1.5-4.5-1.2-6.1 2.6-1 2.5-3.4 4.6-5.4 6.6-.9.9-3.2 2-3.5 1.7-3.7-4-5.4.1-7.5 1.8-3 2.5-6 5.1-9 7.7-1.5-4.2-4.6-5.3-8.1-2.4-5 4.1-10.8 8-14.1 13.3-5.1 8.1-12.8 7.6-20.1 8.4-6.8.8-13.6 1.1-20.5 1.3-3.5.1-7-.5-10.4-1.1-1-.2-2-1.6-2.4-2.7-2-5.6-3.5-11.4-5.7-17-1.2-3.2-3.2-6.1-5-9.3-8.2 3-15.6 5.5-23 8.4-8.1 3.2-10 2.9-14-4.5-3.9-7.1-3.5-14.3 1.8-20.6 7.9-9.4 7.8-9.8 2-20.8-1.5-2.8-3.1-5.6-4.1-8.6-.6-1.8-.9-4.5.1-5.8.8-1.1 3.6-1.2 5.5-1 2.8.4 5.6 1 8.1 2.2 3.5 1.7 6.5.7 10 0 11.1-2 22 .1 33.1 1.2 5.8.6 13 4.7 17.6-3.1.1-.1.3-.3.5-.3.7 0 1.8-.4 2.1 0 4.5 4.5 11.6-3.3 16.1 4.1 4.1 6.8 10.5 12.2 15 18.8 2.8 4.1 5.4 9.2 5.6 14 .2 4.1-3.1 8.3-5 12.4-2.7 5.6-5.7 11.1-8.5 16.7.6.5 1.1.9 1.7 1.4 1.1-.5 2.7-.8 3.2-1.7 5.1-8.9 11-17.5 14.6-26.9 1.7-4.5.5-12-2.3-16-6.5-9.5-14.9-17.7-22.6-26.5 2.8-2.6 8.8-3.1 12-7.1-.4-.5-.8-1.1-1.2-1.6-4.8 2.3-9.6 4.6-15.7 7.5-2.1-5.6-4.1-10.9-6-16.1-3.8 2.9-3.6 6.5 1.8 18-5.3-1.9-9.3-3.1-13.2-4.7-2.5-1-4.6-2.8-7.1-3.6-1.4-.4-3.2.5-4.8.8.6 1.6.8 3.4 1.9 4.6 1.6 1.7 3.7 2.9 5.3 4.9-9-.6-16.1-4.4-21.9-11.1-.8-.9-2.6-1-4-1.5-.4 1.5-1.6 3.3-1.1 4.4 1 2.3 2.8 4.3 5.2 7.8-4.5-1.6-7.6-2.5-10.4-3.9-4.6-2.2-9.1-4.7-13.5-7.2-4.3-2.5-5.7-2-7.5 2.7-1.3 3.6-3.9 4-7 2.3-2.3-1.2-4.5-2.7-7-4.2.7-2.5 1.6-5.2 2.4-8-.5-.2-1.1-.4-1.6-.7-1.4 3.2-2.9 6.4-4 9.7-1.5 4.4-4.1 5.5-8.2 3.3-3.1-1.6-6.9-2.3-9.3-4.5-2.4-2.2-5.1-6-4.8-8.8.4-5.1 2.3-10.2 7.8-13 7-3.5 14.7-4.3 22-3.9 9.2.4 16.9-2.2 24.4-6.7 7-4.2 13.8-8.7 20.7-13.1 8.8-5.6 18.5-8.9 28.4-11.7 8.6-2.5 17.2-.6 25.4 2.5 6.3 2.4 12.9 4.9 18.3 8.8 6.3 4.5 11.7 10.4 17.1 15.9 3.2 3.2 5.9 6.9 8.6 10.6.9 1.3 2 3.7 1.4 4.8-1.9 3.7-4.3 7.1-6.9 10.4-2 2.5-3.8 2.4-7 .3-4.2-2.8-9.7-4-14.8-5-5.2-1-7.2 2.8-7.9 7.3-.3 2.1-.1 4.3-.2 6.5-1 11.3 7.9 28 17.8 33.2 8.8 4.6 17.3.1 18.2-9.6-.6-1.1-.1-2.1.1-2.8zm-95.3-5.5c1.6 1.1 2.5 2 3.6 2.5 9.4 4.1 18.5 8.7 26.1 15.8.9.9 3 .5 4.5.7-.3-1.4-.1-3.2-.9-4.1-8.2-9-19.5-12.7-30.2-17.1-.6-.3-1.8 1.1-3.1 2.2zm.8 22.1c-.8-2.6-4.8-4-9.2-2.8-2.4.7-5.2 1.1-4.4 4.7 1.1 5.1 7.8 9.7 13.1 8.8 3.4-.6 4.8-2.7 4.2-4.9-4.5-.8-8.3-1.5-12.1-2.2.1-.9.1-1.9.2-2.8 2.6-.2 5.2-.5 8.2-.8zm14.1-5.4c-1.7 1.9-3.8 3.6-3.5 4.1 1.8 3.6 4 7 6.3 10.3.2.3 3.3-.8 3.3-1.2-.1-2.4-.3-5-1.3-7.2-1-2.1-2.9-3.7-4.8-6zm-41.4 2.3c-.7 8.5 1.9 12 7.9 11.1.7-8-1.4-11.2-7.9-11.1zm10.6-18.6c-8.3 4.7-14.2 11.5-20.1 18.4l1.4 1.4c6.2-6.7 12.4-13.3 18.7-19.8zm23.9 64.3c.3-1 .6-1.9.9-2.9-3.2-1.4-6.3-2.9-9.5-4.2-.9-.3-2.1.3-3.1.5.3 1.3.3 3.4.9 3.6 3.5 1.3 7.2 2 10.8 3zM90.7 168.3c-7 4.5-13.1 8.5-19.6 12.7-2-7-.1-13.8 2.2-20.4 1.1-3.3 3.3-6.2 4.7-9.5 6.1-13.6 17.7-21.6 30.9-25.5 11.6-3.4 24-2.8 36.4-1.3 12.4 1.5 22.9 6.3 32.9 13.1 9.8 6.6 15.5 16.4 21.4 26.3 5 8.4 5.8 18 6.2 27.1.4 11.6-1.6 23.5-8.5 33.4-6.8 9.8-17 14.1-28 18.1-9.8 3.6-19.7 2.8-29.3 3.4-8.3.5-16.9-2.8-25.3-4.8-11.7-2.8-21.3-9.6-30-17.4-3.9-3.5-5.9-9.1-8.9-13.7-1.4-2.2-1.9-4.8-6-4.4-3.9.4-7.7-10.3-5-13.3.7-.8 3.2-1.5 3.7-1 2.9 2.6 4.8.2 6.7-1.1 4.1-2.9 8.4-5.7 12.1-9.1 3.1-2.9 6.1-6.3 3.4-12.6zm28.3 44.9c-1.9 4-3.1 6.7-4.4 9.6 3.2.7 5.6.8 7.7 1.8 10.4 5 21.5 6.1 32.6 4.3 7.4-1.2 14.7-3.5 22-5.5.8-.2 1.9-2 1.7-2.6-1-2.6-2.5-5-3.6-7-3.3 3-5.4 5.9-8.2 7.2-10.4 4.8-21.7 3-32.5 2.1-5-.7-12.3-1.3-15.3-9.9zm58.9-41.8c-5.9-2.8-6.1 2.5-8.6 3.7-2.8 1.3-5.4 2.7-8.2 4 5.4-9.1 5.4-9.1 3.8-11.2-1.7 1.3-3.4 2.7-5.5 4.3-2.3-6.7-6.2-4.8-10.7-2.1-3.5 2.1-7.6 3.3-12.1 5.1.4-2.3.5-3.5.9-5.6-1.4 1-2.3 1.4-2.8 2-1.2 1.7-2.3 3.6-3.4 5.4 1.9 1 3.8 2.7 5.8 2.8 5.4.2 10.7-.4 16.1-.7.6 0 1.6.1 1.9.5 5.5 6.2 10.3 1.4 14.8-1.3 2.9-1.5 5.1-4.2 8-6.9zm-31.2 30.2c1.6 5.5 6.1 3.5 8.8 3.1 5-.7 6.6-5.7 6.7-9.7.1-2.4-3.2-6-5.8-7.1-2.5-1.1-7.3-3.7-8.7 1.9 2.6 2.8 8.2.5 8.4 6 .4 7.1-5.9 3.7-9.4 5.8zm-19.2-2.3c6.7 0 6.1-4.8 6.3-7.7.1-1.9-2.9-4-4.5-6.1-1.8 2.6-4.5 5.1-5.1 8-.3 1.8 2.4 4.3 3.3 5.8zm49.4-4.8c-3.1-3.1-5-5-6.9-6.8-1.5 2.3-3.6 4.3-4.2 6.8-.6 2.4-.7 6.5 3.4 5.9 2.3-.4 4.3-3.2 7.7-5.9z" fill="#fff"/>
  <path d="M264 247.3c5 1.9 10 3.5 14.8 5.5 6.9 3 14.2 3 21 1.6 13.8-2.8 27.3-7 41.9-10.9 1.1 3.6 2.5 8.1 3.9 12.6 2.6 8.6 5.5 17.1 7.9 25.7 4.2 14.9 8.2 29.9 12.1 44.8.3 1.2 0 3.5-.7 3.9-9.5 4.6-19.3 8.5-28.5 13.5-7.1 3.9-13.4 1.2-19.7-1-5.4-1.9-10.2-5.7-15.6-7.5-10.6-3.6-16.2-10.8-19.2-21.2-1.4-4.9-2-9.6-2.7-14.6-.7-5.6-4-10.8-5.7-16.3-3.5-11.4-6.6-22.9-9.9-34.3-.1-.4.2-1 .4-1.8zm23.4 34.2c7 20.5 14.8 39.5 26 56.8-7.4-18.5-15.1-36.8-22.8-55.1-.3-.6-1.5-.8-3.2-1.7zm31.6-5c-.6.2-1.3.5-1.9.7 6.5 19 12.9 38.1 19.4 57.1.8-.3 1.5-.5 2.3-.8l-19.8-57zm2.5-5.3-1.8.6c6.5 18.5 12.9 37 19.4 55.5.7-.2 1.4-.5 2.1-.7-6.6-18.4-13.1-36.9-19.7-55.4zM114.9 252.1c4.6 5 8.8 9.6 13 14.1l1.5 1.5c.6.6 15.5 0 16.1-.7 2.8-3 5.4-6 8.3 0 .6 1.1 2.7 1.5 4.7 2.5 1.6-4.1 3-7.8 4.8-12.7 4.9 10.7 9.3 20.2 13.9 30.2-4.3.7-8 1.2-11.7 1.8-.4-6.2-.7-11.8-1-17.5-.4 0-.9-.1-1.3-.1-.4 2.5-1.6 5.3-1 7.6 1.4 5.5-2.2 8.5-4.8 12.2-.4.6-1.1 1-1.5 1.6-4.5 5.8-4.7 5.8-8.3-.3-7.2-12-7.2-12-16.9-2.7-.9.8-1.8 1.5-4 3.2.5-6.8.9-12.4 1.3-17.9l-1.2-.6c-1 1.5-2.2 3-3 4.6-.4.9 0 2.2-.2 3.2-1.5 7.1-1.7 7.1-8.5 4.3-4.6-1.9-9.3-3.3-14.6-5.2 5-10.3 9.8-19.8 14.4-29.1zM349.7 429.8c-7.7-6.7-15.1-12.9-22-19.5-1.5-1.5-2-5.3-1.3-7.4 2.3-6.6 5.2-12.9 8.3-19.2 5.2-10.3 14.8-11.5 24.9-2.7 3.1 2.7 4.4 5.9 4.8 10.2 1.4 13.4-4.2 24-12 34-.9 1.3-1.6 2.9-2.7 4.6zM266.9 391.3c-8.7 2-17 3.9-25.3 5.6-1.1.2-3.1-.4-3.7-1.3-5.1-7.2-9.6-30.9-2.1-39.1 5-5.5 10-7 16.4-4 7.9 3.8 10.2 11 12 18.2 1.8 6.4 1.9 13.3 2.7 20.6zM407.6 342.7c.8 3.6 2.1 7.1 2.1 10.7.1 8.5-.6 17-.4 25.6.1 3.9 1.5 7.9 2.3 12.1-6.4 4.2-5.4-7.7-11.1-5.6.3 3 .5 6 .8 9.4-5.3-1-1.2-10-9.1-8.3.5 3.9 1 7.6 1.4 11.3-.7.2-1.3.3-2 .5-.8-2.6-1.3-5.4-2.5-7.8-.9-2-2.7-3.6-4-5.4-.6 2.1-1.2 4.3-1.7 6.4-.3 1.4-.4 2.8-.6 4.2-1-1.2-2.8-2.4-2.8-3.5 0-3.5.6-7 1.1-10.4.9-6 2.2-12 2.8-18 .4-4.5.6-9.2-.4-13.5-1-4 .6-4 3.5-4.4 6.6-.9 13-2.1 20.6-3.3zM120.3 348.1c-6.2-1.3-12.5-2.5-18.6-4-2.7-.7-3.8-2.4-2.1-5.2 1.1-1.9 1.8-4.2 2.5-6.3 1.2-3.4 2.1-7 3.6-10.3 4.4-9.6 20.7-14.5 30.1-13.1 2.7.4 5.3 6.6 4 9.9-2.8 7-6 13.9-8.6 21-1.9 5.2-4.7 8.4-11 6.7 0 .4.1.8.1 1.3zM154.8 333.1c2.3-7.3-2.2-11.7-5.7-16.2-1.9-2.4-2-3.9.2-5.9 3.6-3.1 6.7-7.1 10.8-9.1 3.7-1.9 8.5-1.7 13.4-2.6-.8-4.6-5.2-2.6-8.1-3.5 2.2-2.1 11.8-4 14.1-2.8 5.6 2.8 6.7 16.7 1.4 20-4.1 2.6-8.6 4.8-12.7 7.4-5.2 3.4-11.6 5.4-13.4 12.7zM159.9 347.1c3.2-7.2 3.5-14.8 10.1-19.6 5.4-4 11.5-6 17.9-7 1.1-.2 3.9 2.2 3.8 3-1.2 6.8-2.6 13.5-4.8 20-.5 1.5-4.1 2.2-6.5 2.7-3.1.6-6.3.8-9.4.9-3.3.1-6.7 0-11.1 0zM87.2 363c1.6-3 2.9-5.4 4.1-7.5 2 .8 3.9 1.5 5.7 2.5 1.8.9 3.7 3.3 5.1 3 8.8-1.9 17.9 2.5 27-2.3 3.6-1.9 10.5 2.1 15.8 3.8 1.5.5 2.5 2.3 3.7 3.4-1.4.8-2.6 1.8-4.1 2.2-11.8 3-23.6 4.1-35.5 0-6.9-2.3-14.1-3.3-21.8-5.1zM424.7 372.7c-1.2-2.6-1.9-5-3.4-7-2.7-3.7-2.5-7.3.7-10.2 5-4.4 9.9-9.2 15.7-12.3 5-2.7 7.4.2 5.8 5.7-2.6 9.5-10.5 21.2-18.8 23.8zM153.3 357.1c6.8 1 13.7 1 19.8 3.3 5.4 2 9.4-.4 14.2-1 6.9-.8 13.6 1 20.1 5.4-7.7 4.8-15.8 4.1-23.5 3.8-8.1-.2-16.2-1.9-24.3-3-6.2-.9-6.9-1.7-6.3-8.5zM120.3 296.7c-6.2 2.7-12.6 5-18.4 8.2-3.5 1.9-6.6 1.6-8.3-.9-1.3-1.8-.3-5.1-.3-7.8 0-.5.4-1 .7-1.4 4.2-8.7 4.2-8.7 13.1-5.2 4.6 1.8 9.1 3.6 13.7 5.5-.3.5-.4 1-.5 1.6zM343.5 432.7c-9.1 5.6-17 3-23.3-2.3-5.5-4.7-2.4-11.3.6-17.6 7.4 6.6 14.7 13 22.7 19.9zM241.7 403.6c10-2 18.2-3.7 26.6-5.4.2.4.5.9.7 1.3 1.2 3.6 4 7.1.9 11-1.9 2.4-13.9 4.3-16.7 2.4-4-2.6-7.3-5.8-11.5-9.3zM427.2 420c-3.6-5.5-2.7-7.7 4.3-11 .1-7.1-11.1-9.3-7.1-18.5-2.4.4-4.2.8-6 .9-.6 0-1.5-.7-1.8-1.3-.2-.3.3-1.4.8-1.7 2.7-1.7 8.3-.1 9.8 2.6 2.6 4.8 5.2 9.6 8.1 14.2 4.7 7.3 3.2 11.4-5.3 13.8-1 .2-1.7.6-2.8 1zM295 401.1c-3.9.6-7.8 1.3-12.7 2 .9-8.6-3.9-14.3-10.1-19.5 9.9-2.4 13.6-.7 18 8.1 1.5 2.9 2.9 5.7 4.8 9.4zM398.3 308.1c-2-2.8-4.1-5.6-6-8.4-1-1.4-2.5-3.2-2.2-4.5.4-2.1 2.1-3.9 3.2-5.8.8 1.4 1.9 2.6 2.5 4.1 1.6 4.3 2.6 8.8 4.4 13 2 4.7.5 7.4-3.7 9.4-1.7.8-3.3 2-5.6 3.4-2.1-2.6-4.3-5.2-6.8-8.3 4.8-1.9 7.8-9.3 13.5-.2.3-.9.5-1.8.7-2.7zM392.1 404.8c1.5 2.1 2.7 3.6 4.7 6.4-1.5 1-3.1 2.3-4.8 3.2-5.6 3-5.9-3.9-9.2-5.4-2.5-1.1-1-3.7 1.5-4.6 5.1-1.8 10.2-3.7 15.4-5.2 5-1.4 10.1-2.5 15.8-3.8-2 1.5-3.6 2.9-5.3 4.1-2.3 1.6-4.9 2.9-6.9 4.8-2.7 2.6-4.9 5.4-8 .5-.3-.3-1.7 0-3.2 0zM359.6 278.8c9.8 2.8 19 .7 28.1-3.2.3.4.7.8 1 1.2-6.5 5.1-13 10.2-20.3 15.9-3.7-4.4-7-8.4-10.4-12.4.5-.5 1-1 1.6-1.5zM324.9 373.7c-2.6 0-4.7.6-5.9-.2-1-.6-1.4-2.9-1.3-4.4.6-8.3 4.6-13.1 10.5-12 2.5.5 4.6 3.2 6.8 4.8-1.3 1.7-2.5 3.4-3.8 5-.9 1.1-2.1 1.9-3.4 3.1-2-2.2-4-4.3-6-6.4-.5.2-1 .4-1.4.7 1.3 2.7 2.6 5.4 4.5 9.4zM356 371.8c5.5-4.5 9.2-2.3 11 6.3 1.8.4 3.6.9 4.7 1.1 1.4-2.4 2.5-4.5 3.7-6.7.8.3 1.7.6 2.5 1-.9 3.9-1.4 8-3 11.6-.5 1.1-5.5 1.7-5.9 1-3.1-5.3-7.1-9.5-12.3-12.7-.4-.3-.4-1.2-.5-1.8l-.2.2zM409.7 403.5c1.8 2.3 3.4 4.5 5.2 6.5 4.2 4.8 3.8 7.6-1.9 10.3-1.1.5-2.9-.6-4.4-1.1-.4-.1-.7-.8-1-1.2-6.2-7-6.2-7 2.1-14.5zM390.2 421.8c2 1.5 3.9 3 5.9 4.6l.7-.7c-1.4-2.2-4.1-4.6-3.9-6.6.2-2 3.4-3.6 6.2-6.3 1.9 2.4 3.8 4.7 5.8 7 2.9 3.3 2.2 6.6-1.8 8.4-5 2.2-10.7-.1-12.9-6.4z" fill="#fff"/>
  <path d="M356.2 371.7c-6.6.2-11.5-2.3-15.6-8.1 3.2-2.2 6.3-4.4 9.9-7 2.5 2.9 5 5.7 6.6 7.6-.5 3.2-.8 5.4-1.1 7.6l.2-.1zM153.8 347.1c-.2.5-.5 1.5-.9 2.5-2 5.4-5.3 6.9-10.8 5.2-4-1.2-8.2-2.1-13.3-3.3 2.3-1.2 4.3-3 6.4-3.2 6-.7 12.1-.8 18.6-1.2zM316.2 384.2c.9 1.3 1.3 2.1 2 2.8 7.3 7.3 7.4 7.3-1.6 11.6-1 .5-3.4-.5-4.4-1.5-1.6-1.5-2.7-3.6-4.4-6 2.5-2.1 5-4.1 8.4-6.9zM412 401.9c6.9-4.7 12.7-2.8 14.8 4 .4 1.2-.3 3.3-1.2 4-1.3 1-4.2 2-5 1.3-3.1-2.7-5.7-6.1-8.6-9.3zM360.4 364.4c-2.9-2.7-5.7-5.3-9-8.4 4.6-3.7 7.1-5.8 9.7-7.9 2.5 2.7 4.9 5.2 7.3 7.7-2.2 2-4.7 4.3-7.2 6.6-.3.6-.5 1.3-.8 2zM131.7 255.1c8.3-.5 15.6-.9 24.2-1.3-4.2 3.4-7.9 6.9-12.1 9.6-.9.5-3.8-1.9-5.6-3.2-2.2-1.5-4.2-3.3-6.5-5.1zM368.1 373.3c-1.1-2.8-3.6-6-3-8.3.6-2.1 4.5-4.2 7-4.5 1.6-.1 5 3.3 5 5.1-.1 4.3-3.3 6.8-9 7.7zM371.1 354.6c-2.3-2.8-4.4-5.4-6.7-8.3 2.2-1.9 4.5-3.9 6.7-5.8 8.8 7.8 8.8 9.8 0 14.1zM312.6 382.3c-7 6.4-7.3 6.5-12.2 2l1.8 9c-.7.3-1.3.5-2 .8-2.7-3.8-5.5-7.6-8.5-11.7 6.9-.1 13.6-.1 20.9-.1zM486.8 407.3c-14.3 1.3-28.6 2.6-42.9 3.8-.1-.8-.1-1.6-.2-2.4 14.3-1.2 28.6-2.3 42.9-3.5.1.8.1 1.4.2 2.1zM401.5 330.4c-2.3-2.2-4.5-4.4-7.8-7.6 3.2-2 5.9-3.8 8.7-5.4.1-.1 1.5 1.3 1.3 1.5-1.6 3.7 5.9 9.1-2.2 11.5zM364.6 425.2c.6-5.7 1.1-9.9 1.6-14.1.7-.1 1.3-.2 2-.3 2 3.1 4.1 6.2 6 9.4.2.4-.3 1.8-.8 2-2.2.8-4.5 1.5-8.8 3zM375 293.7c6.2-5.3 11.3-9.7 16.5-14.3 1.6 7-6.1 14.1-16.5 14.3zM386.3 328.1c6.2-4.5 7.8-3.7 11.6 5.3-5.3 4.3-6.9 3.6-11.6-5.3zM303.8 392.9c3.2 2.9 5.3 4.5 6.8 6.5.7.9.4 3.1-.2 4.2-.5.9-2.7 1.8-3.2 1.4-2.1-1.5-4.5-3.2-5.3-5.3-.7-1.6 1-4.1 1.9-6.8zM371.7 334.8c-.2-3.5-.7-7.1-.7-10.6 0-1.4 1.2-2.7 1.9-4.1 1.1.9 2.6 1.5 3.4 2.7 2.8 4.1.2 10.5-4.6 12zM152.1 328.9c-3.2-.6-4.6-.9-6.5-1.2-.3 2-.6 4.1-.9 6.1-4.9-2.7-4.9-2.7-.3-15.3 2.5 3.6 4.6 6.3 7.7 10.4zM379.6 310.6c-1.2 1.2-2.4 2.5-4.1 4.4-2.3-1.7-4.7-3.4-6.9-5.1 5.1-7.7 5.8-7.6 11 .7zM391.2 339.6c-3.3.9-6 1.7-9.2 2.6v-10.4c2.7-.6 3.3-.1 9.2 7.8zM429.8 166.2c4.1 2.2 8.3 4.2 12.1 6.8.4.3-1.4 4-2.5 6.7-4-4.8-7.2-8.6-10.4-12.5.3-.3.5-.6.8-1zM431.3 194.6c3.1 3 6.3 5.9 9.6 9 1.8-3.1 3.1-5.3 4.5-7.6l2.1 1.2c-1.6 2.5-2.6 6.3-4.8 7.3-2 .8-5.6-1-7.9-2.6-2.1-1.5-3.3-4.3-4.9-6.5.5-.3.9-.6 1.4-.8zM338.4 366.2c1.3 1.8 2.1 3.1 3 4.3-8.1 6.1-8.1 6.1-12 1.9 3-2.1 6-4.1 9-6.2zM436.8 181.9c-2.4 1.9-4.6 4.6-5.8 4.3-1.9-.6-3.7-3-4.5-5-.3-.7 2.8-3.9 3.7-3.7 2.1.5 3.9 2.5 6.6 4.4zM382.8 325.4c-.9-3.7-1.8-7.5-2.7-11.2 2.4-.3 8.3 3.6 7.9 6.2-.3 2-2.4 3.8-3.6 5.7-.5-.3-1.1-.5-1.6-.7zM372.3 391.6c3.5 3.1 6.6 5.6 9.6 8.3.5.4.6 2.1.4 2.2-1.2.6-3.2 1.6-3.7 1.2-2.7-2.5-5.3-5.2-7.5-8.2-.4-.6.9-2.4 1.2-3.5zM461.6 158.8c1.8 1.7 3.6 2.8 4.5 4.4.8 1.5.9 3.6 1 5.4 0 .3-2.4 1.3-2.9.9-1.6-1.3-3.5-2.9-4.1-4.7-.5-1.5.8-3.6 1.5-6zM379.8 306.2c2-2.8 3.5-5.2 5.2-7.3.4-.5 2.3-.6 2.8-.1.7.8 1.5 2.7 1.1 3.2-2 2.4-3.6 6.1-9.1 4.2z" fill="#fff"/>
  <path d="M438.4 196.7c-4-4.1-5.9-6.7-2.4-9.5.9-.7 2.9-.1 4.4 0-.6 2.8-1.1 5.6-2 9.5zM457 413.8h27.1c-9.3.7-18 1.4-26.8 2 0-.6-.2-1.3-.3-2zM91.1 311.3c-2.6.9-5.3 1.8-7.9 2.7-.4-.5-.9-1-1.3-1.5 1.2-1.8 2.1-4.5 3.8-5.2 1.4-.6 3.7 1.2 5.6 1.9 0 .7-.1 1.4-.2 2.1zM357.8 340.7c2.8-2.1 5.6-4.2 8.8-6.7 1.2 6.2-.2 7.3-8.8 6.7zM315.4 411.6c-1.8-2-2.9-3.2-3.7-4 2.9-2.7 5.6-5.2 8.3-7.7.4.3.8.7 1.1 1-1.8 3.4-3.6 6.7-5.7 10.7zM490.2 405.2h18.1c0 .4.1.9.1 1.3-6.1.3-12.2.5-18.3.8.1-.6.1-1.3.1-2.1zM456 177.6c-.7-2.2-1.3-4.3-2.1-6.6 2.3-3.5 4.8-1.3 5.6.9.6 1.6-1.1 4.1-1.8 6.2-.5-.1-1.1-.3-1.7-.5zM405.9 330.2c3 9.2-4.5 6.1-8 7.4 2.5-2.3 5-4.6 8-7.4zM337.1 357.1c3.4-1.4 6.7-2.8 10.1-4.2.2.5.4 1.1.7 1.6-3.7.7-5 7.2-10 4.8-.3-.7-.5-1.4-.8-2.2zM459.6 181c2-2 3.4-4.2 4-4 2.4.8 4.4 2.3 6.6 3.6-.8 1-1.5 2-2.3 3-2.3-.8-4.6-1.5-8.3-2.6zM263.3 293h9.8c-1.5 1.8-2.5 3.6-3.2 3.5-2.5-.3-4.8-1.3-7.2-2.1.3-.4.5-.9.6-1.4z" fill="#fff"/>
  <path d="M358.8 191.6c1.4-1.1 2.5-2.5 3-2.3 10.8 4.5 22.1 8.1 30.2 17.1.8.9.6 2.7.9 4.1-1.5-.2-3.6.1-4.5-.7-7.6-7.1-16.7-11.7-26.1-15.8-1.1-.4-2-1.3-3.5-2.4zM359.6 213.7c-3 .3-5.6.5-8.2.8-.1.9-.1 1.9-.2 2.8 3.8.7 7.5 1.3 12.1 2.2.6 2.3-.7 4.4-4.2 4.9-5.3.9-12-3.7-13.1-8.8-.8-3.6 2-4.1 4.4-4.7 4.4-1.2 8.4.3 9.2 2.8zM373.7 208.3c1.9 2.3 3.9 3.9 4.8 5.9 1 2.2 1.2 4.8 1.3 7.2 0 .4-3.1 1.5-3.3 1.2-2.3-3.3-4.5-6.7-6.3-10.3-.3-.5 1.8-2.1 3.5-4zM332.3 210.6c6.5-.1 8.7 3.1 7.9 11.1-6 .9-8.6-2.6-7.9-11.1zM342.9 192c-6.2 6.6-12.5 13.2-18.7 19.7l-1.4-1.4c5.9-6.8 11.8-13.7 20.1-18.3zM366.8 256.3c-3.6-.9-7.3-1.7-10.8-2.9-.7-.2-.6-2.4-.9-3.6 1-.2 2.2-.8 3.1-.5 3.2 1.2 6.4 2.7 9.5 4.2-.3.8-.6 1.8-.9 2.8zM119 213.2c3 8.7 10.4 9.2 15.3 9.7 10.7 1 22 2.8 32.5-2.1 2.8-1.3 4.9-4.2 8.2-7.2 1.1 2 2.5 4.4 3.6 7 .2.6-.9 2.4-1.7 2.6-7.3 2-14.5 4.3-22 5.5-11.2 1.8-22.2.7-32.6-4.3-2-1-4.4-1.1-7.7-1.8 1.2-2.7 2.5-5.4 4.4-9.4zM177.9 171.4c-2.9 2.6-5 5.4-7.8 7-4.6 2.6-9.3 7.4-14.8 1.3-.4-.4-1.3-.5-1.9-.5-5.4.2-10.7.8-16.1.7-2-.1-3.9-1.8-5.8-2.8 1.1-1.8 2.2-3.7 3.4-5.4.5-.7 1.3-1 2.8-2-.3 2.1-.5 3.3-.9 5.6 4.5-1.9 8.5-3 12.1-5.1 4.5-2.7 8.4-4.6 10.7 2.1 2.1-1.6 3.8-2.9 5.5-4.3 1.6 2.1 1.6 2.1-3.8 11.2 2.7-1.3 5.4-2.7 8.2-4 2.3-1.3 2.5-6.6 8.4-3.8zM146.7 201.6c3.5-2.1 9.8 1.3 9.4-5.7-.3-5.5-5.9-3.2-8.4-6 1.4-5.6 6.2-3 8.7-1.9 2.6 1.1 5.8 4.7 5.8 7.1-.1 3.9-1.7 9-6.7 9.7-2.7.3-7.2 2.4-8.8-3.2zM127.5 199.3c-.9-1.5-3.6-4-3.2-5.8.6-2.9 3.3-5.3 5.1-8 1.6 2 4.6 4.2 4.5 6.1-.3 2.9.3 7.7-6.4 7.7zM176.9 194.5c-3.4 2.7-5.3 5.5-7.7 5.9-4.1.6-4-3.5-3.4-5.9.6-2.5 2.8-4.6 4.2-6.8 1.9 1.8 3.8 3.7 6.9 6.8zM287.4 281.5c1.7.9 2.9 1.1 3.2 1.7 7.7 18.3 15.4 36.7 22.8 55.1-11.2-17.4-19-36.3-26-56.8zM319 276.5l19.8 57c-.8.3-1.5.5-2.3.8-6.5-19-12.9-38.1-19.4-57.1.6-.3 1.2-.5 1.9-.7zM321.5 271.2c6.5 18.5 13.1 37 19.6 55.5-.7.2-1.4.5-2.1.7-6.5-18.5-12.9-37-19.4-55.5.7-.3 1.3-.5 1.9-.7z"/>
  <text transform="translate(122.406 63.328)" font-family="Peanuts" font-size="42" letter-spacing="4">SINF..SNIF..SOB</text>
</svg>
