<svg xmlns="http://www.w3.org/2000/svg" viewBox="0 0 595.3 468.8" xml:space="preserve">
  <path fill="#fff" d="M12.1 6.6h574.5v178.7H12.1z"/>
  <path d="M0 7.7V2.2c1.9 1.6 7.6-.5 5.1 5.4 2.4-.4 4.6-1.1 6.9-1 29.6.3 59.1-.4 88.7 0 16.8.2 33.6.1 50.4.1 34.3 0 68.5 0 102.8-.2 11.5-.1 23-.8 34.5-.8 15.2 0 30.4.7 45.5.7 7.9 0 15.8-1.1 23.7-1.2 12.5-.3 24.9-.2 37.4-.3l20.6-.3c6.8-.1 13.5-.1 20.3 0 9.6 0 19.2 0 28.8.1 6.7 0 13.4.1 20.1-.1 5.4-.2 10.8-1.1 16.2-1 7.7.1 15.3 1 23 1 8 0 16-1 24-1 8.8 0 17.7.7 26.5.9 2 .1 4-.3 5.9-.7 6.4-1.5 12.1 1.8 12.1 7.4 0 11.9 0 23.8-.1 35.6-.1 8.2-.5 16.3-.5 24.5 0 4.2 1 8.4 1 12.5-.1 14.6-.2 29.2-.6 43.7-.2 9.3-1.2 18.5-1.4 27.7-.3 15.2-.2 30.4-.1 45.5 0 5.8.5 11.7.5 17.5 0 4.6-.5 9.3-.4 13.9.2 9.8 1 19.7.9 29.5-.1 14.9-1 29.8-1.1 44.7-.1 48.5-.1 97 0 145.4 0 8.4-1.7 10.3-10 10.5-7 .1-14.1-.2-21.1-.1-21.5.1-43 .4-64.5.5-18.8 0-37.5-.2-56.3-.4-8.1-.1-16.2 0-24.3-.2-10.2-.2-20.3-.9-30.5-.9-13.4 0-26.9.8-40.3.8-14.5 0-29-.8-43.5-.8-16.7 0-33.3.5-50 .6-19.4.1-38.8-.1-58.2 0-7.4 0-14.7.8-22.1.6-13.8-.5-27.6-1.8-41.4-2.1-10.7-.2-21.4.9-32.2 1-28.2.1-56.4-.1-84.6-.2-7.5 0-8.5-1.2-8.6-8.5-.2-9.5-.4-18.9-.4-28.4-.1-15.5-.2-31.1-.2-46.6.1-14.9.6-29.8.5-44.7 0-9.8-.9-19.6-.8-29.5.1-5.9 1.8-11.8 1.8-17.7-.1-24.8-.7-49.6-.9-74.4-.1-14.1.1-28.2.1-42.4 0-16.4-.3-32.9-.1-49.3.1-11.1.9-22.2 1-33.3.3-15.4-.1-31-.1-46.6 0-7.2.5-14.3.2-21.5C4.1 14.4 5.8 9.4 0 7.7zm76.2 398.4H59.3c0-3.4 0-3.2-3.2-2.9-6.8.6-13.8 2-20.4 1-7-1.1-13.6-1.9-20.7-.9-4 .6-5.2 1.6-5.2 5.5 0 12.2-.4 24.3-.7 36.5-.1 8 .6 8.6 8.9 8.4 3.1-.1 6.3-.1 9.4 0 6.8 0 13.7 0 20.5.1 3.6 0 7.2-.1 10.8 0 5.7.2 11.3.9 17 .8 6.1-.1 12.1-1.2 18.1-1.2 9-.1 18.1.4 27.1.5 3.5 0 7.1-.9 10.6-.8 3.7.1 7.3 1.4 11 1.4 13.3 0 26.6-.6 39.8-.6 20.7 0 41.4.2 62.1.4 15.9.1 31.8.5 47.7.4 15.6-.1 31.2-.6 46.9-.8 11.3-.1 22.5 0 34 0v-3.3c.1-8.1 8.4-14.2 15.6-10.6 5.3 2.7 8.2-1.4 12.2-2-9.2-.7-18.5-1.5-27.5-.5-10.9 1.2-21.6 4-32.5 6-1.9.4-4 .4-5.9.3-7.4-.2-10.7-3.8-9.9-10.8.6-5 5.6-7.7 12-6.5 2.8.5 5.8 1.3 8.5.9 10.2-1.5 20.3-3.6 30.4-5.3 16.6-2.9 33-.5 49.2 2.5 4.3.8 8.5 3.9 12 6.8 1.8 1.5 2.4 3.1 5.4 2 3.7-1.5 7.9-1.9 12-2.4 13.4-1.9 26.9-3.7 40.3-5.5 6.6-.9 7.8-2.8 6.6-9.3-.7-3.5-.6-7.1-.8-10.7-.1-3.9-.3-7.7 0-11.6.3-4.4.1-9.1 1.7-13.1 2.7-6.7 6.8-8.4 12.4-6.5 5.8 1.9 9.3 7.4 8.6 13.4-1.1 10.3-2.4 20.6-3.1 30.9-.2 2.8.4 6.2 4.9 7 11.2 1.9 22.4 4.2 33.6 6.4 7 1.4 13.9 2.7 20.8 4.5 4.2 1.1 5.1-.6 4.9-4.2-.2-3 0-6 0-9 .3-27.1.7-54.1.7-81.2 0-22.9-.6-45.8-.7-68.8-.1-10.1.4-20.1.6-30.2.1-6 .5-12 .4-18.1-.2-11.1-.8-22.2-1-33.3-.1-3 1-6 .9-9-.2-9.8-.7-19.6-.9-29.4 0-2.6.8-5.1 1.3-8.5-6.1 2.7-11.2 5.6-16.7 7.3-8.1 2.5-16.5 4.3-24.8 6.1-6.6 1.4-13.2 2.5-19.9 3.2-5.1.5-10.4-.2-15.5.3-13.7 1.3-27.4 3.1-41.3 2.5-6.7-.3-13.3.3-20 .3-5.8 0-11.7-.6-17.5-.6-12.5 0-25.1.3-37.6.4-.8 0-1.6-.2-2.4-.3-3.3-.4-6.7-1.1-10-1.2-10.6-.2-21.2-.1-31.6-.1-2 9.3-3.9 18.2-5.8 27.1-.6.1-1.1.2-1.7.3-1-1.4-2.5-2.7-2.9-4.2-1.6-6.3-2.8-12.8-4.4-19.2-.4-1.5-1.8-3.8-2.8-3.8-5.8-.5-11.6-.2-17.4-.5-13-.7-26.1-1.3-39.1-2.4-15.9-1.3-31.7-2.9-47.5-4.7-9.9-1.1-19.8-2.5-29.6-3.9-6.4-.9-12.9-1.4-19-3.2-11.5-3.4-23.2-6.6-34-11.7-7.3-3.4-13.3-9.6-19.6-15-1.8-1.5-2.2-4.5-3.2-6.9-.2.5-.3 1.1-.5 1.6-12.5 1.4-25 2.7-38.7 4.3v43.6c-.6.1-1.1.3-1.7.4-2.8-5.2-6.4-10.2-8.3-15.8-3-8.8-4.7-18-7.3-27-.8-3-1-7-5.5-7.4-13.3-1.1-23-8.7-31.7-17.7-7.7-8-13.2-17.5-11.2-29.2C18.7 54.5 24 42.6 31.8 32c5.1-6.9 11.3-13 17.3-19.8H9.8c0 14.3-.1 28.2 0 42 .1 9.2.9 18.5.9 27.7 0 10.7-.9 21.4-.9 32.1 0 10.3.9 20.6.9 30.9 0 9.6-.9 19.2-.9 28.8 0 12.5 1 25 .9 37.5-.1 25.1-.8 50.3-1 75.4-.2 32.9-.1 65.8 0 98.6 0 2.1.3 4.3.9 6.3.4 1.4 1.5 2.6 2.3 3.9 1.1-1.3 3.2-2.7 3.2-3.9-.2-5.9 3.5-8.6 8.1-10 4.2-1.3 8.7-1.9 13.1-2.3 6.8-.6 14-6.2 12.6-10.7-1.4-4.2.6-6.3 2.8-8.9 3.3-3.9 6.4-7.9 9.3-12.1 2-2.8 3.2-6.3 5.4-8.9 4.5-5.3 9.5-10.1 14-15.3 9.2-10.8 18.1-21.7 27.2-32.6 2.2-2.7 1.8-3.9-1.5-5.4-11-5-21.2-10.9-27.4-22-1.8-3.2-4.9-5.9-7.8-8.3-5.3-4.5-9.1-8.8-4.4-15.7 1-1.4 1.7-3.6 1.4-5.2-4.4-22.5 13-49.1 35.4-55.2 13.7-3.7 27-5.1 40.4-2.2 19 4.1 33 16.3 42.3 32.7 4.8 8.4 6.1 18.7 8.9 28.2.3.9-.2 2.1-.5 3.1-1.6 4.9-3.2 9.9-4.7 14.4 3.6-.8 7.8-3.1 10-1.9 3.1 1.8 4.2 6.2-.2 10.9 2.7-.8 3.9-1.6 4.9-1.4 2.4.6 5.6 1 6.6 2.6s.3 6.1-1 6.7c-4.8 2.4-6.4 6.7-8.1 11.1-.4 1-1.5 1.9-2.4 2.5-10 6.1-19.9 12.3-30.1 18-3.6 2-5.2 3.5-2 7.2 2.2 2.5 3.6 5.8 5.8 8.3 6.2 6.8 11.8 14 21 17.4 2.5.9 4.6 4.3 5.8 7 .4.9-2.7 3.3-3.4 4.1-1.4 3.1-1.9 6-3.5 7.2-1.5 1.1-4.3.2-7.1.2-3.6 4.3-8.7 4.6-15.6-.3-1.2-.9-1.9-2.6-2.6-4-1.7-3.5-2.2-7.9-7.1-8.6-.6 1.8-1.2 3.3-1.5 4.9-.6 2.8-1.9 5.8-1.4 8.5 1.2 6.2 3.4 12.2 5.1 18.4.3.9.3 2.6-.2 2.9-3.8 2.9-3.6 7.4-2.3 10.4 2 5-.4 8.8-1.4 13.2 7.4 6 16.2 6.5 24.9 6.9 5.9.3 11.8-.2 16.6 4.3.3.3 1.2.5 1.5.3 4.4-3.3 7.2.1 10.3 2.6-4 .4-8 .1-12-.2-3.4-.3-7.1-1.1-8.1 4-9.5.2-19.1-1.2-27.9 4.2-2.2 1.4-5.7 1.7-8.4 1.1-10.5-2.3-20.9-5-31.3-7.8-3.2-.9-5.7-2.9-3.8-7-3.6.7-6.9 1.8-10 1.8-4.6-.1-9.1-1.1-13.7-1.7-.6-.1-1.3-.3-1.9-.5-2.1-.4-4.2-1.3-6.3-1.2-3.2.1-6.3 1.1-9.5 1.2-1 .3-2.2-1-4.2-2.3zm263.3-237.3c.5.1.9.2 1.4.2.5-1.8 1.3-3.5 1.4-5.3.3-4.4 2.4-6.6 6.7-6.7h26.7c16 0 32.1.1 48.1 0 23.1-.2 46.1-.1 69.2-1.2 18.7-.9 37.3-3.3 55.9-5.3 11.9-1.3 23-5.5 33.6-11 1.4-.7 3.1-2.6 3.2-4 .6-5.5.8-11 .7-16.6 0-4.5-.7-8.9-.8-13.4-.2-9.2-.2-18.4-.1-27.6 0-4.6.8-9.1.4-13.6-.5-6.4 1.9-13.2-1.9-19-2.1-3.2-5-6.1-8.1-8.4-9.3-6.8-18.5-13.8-28.5-19.5-6.2-3.5-12.8-7.3-20.8-7.1-12.4.3-24.8-.2-37.2-.3-11.1-.2-22.4-1-33.4.2-6.8.7-13 1.4-19.9.1-7.6-1.4-15.7.1-23.6.2-6.8.1-13.4-.5-20.2 1.2-9.1 2.3-18.6-2.3-28.2 0-5.9 1.4-12.4.3-18.6.3H305c-40 0-79.9 0-119.9.1-2.4 0-5.6.9-7.1 2.5-6.9 7.8-13.1 16.3-20.1 24.1-4.3 4.8-3.6 9.2-1 14.2 4.1 7.7 5.5 16.4 5.2 24.8-.5 10.9-8.1 18.5-16.4 24.7-5.6 4.2-12.1 7.2-18.1 10.6 1.7 7 6.9 11.5 12.6 14.2 10.8 5.1 21.9 9.4 33.2 13.2 7.7 2.6 15.9 4.3 23.9 5.4 11.7 1.6 23.6 2.5 35.4 3.5 14.5 1.3 29 2.5 43.5 3.6 5.5.4 11.1.4 16.6.8 8.6.6 17.1 1.5 25.7 2.1 6.4.5 12.8.7 19 1.1.8 4.6 1.4 8.2 2 11.9zM75 136.8c.4 0 .9-.1 1.3-.1 0-6-.2-11.9.1-17.9.2-3.9.5-7.5 6.7-5.7 4 1.2 8.8.8 13.1.1 10.1-1.8 20.3-3.6 30.1-6.5 10-2.9 19.7-7.7 25-17 2.8-4.8 3.2-11.4 3.4-17.2.3-9.9-3.6-18.8-8.4-27.2-5.5-9.6-12.5-17.7-21.2-24.7-6.1-5-11.6-9.5-20.1-8.6-5.4.5-10.7 0-15.9 0-5.5 0-11-.1-16.4 0-5.7.2-13.4-1.5-16.8 1.5-9.1 8.3-17.4 17.9-24 28.3-4.7 7.6-6.5 17.1-8.8 26-.9 3.2-.2 7.3.9 10.5 2.5 7.4 6.3 14 13.1 18.8 7.1 5 13.9 10.1 22.9 10.8 6.6.5 9.3 3.8 10 10.6.7 6.3 3.3 12.3 5 18.3zm56.5 146.9c3-.3 6.4.2 9.1-.9 7.7-3.1 15.2-6.8 22.8-10.2 5.9-2.6 11.2-5.4 10.2-13.6-.2-1.8 2.1-4.6 4-5.7.9-.6 3.5 1.5 5.3 2.4.8.4 2 1.6 2.3 1.4.9-.7 1.8-1.7 2.1-2.8 3.3-12.4 2.3-24.8-2.1-36.6-3.7-10-11.7-17.2-19.4-24.4-10.6-9.8-23.9-11.3-37-13.5-9.1-1.5-17.3 1.7-25.4 5.1-5.8 2.4-12.7 4.3-16.6 8.7-9.6 10.8-15.5 23.4-11.7 38.7.5 2.2-.3 5.6-1.8 7.2-4 4.1-3.7 7.8 1.1 10.9 3.3 2.1 6 5.2 8.5 8.2 2.6 3.2 4 7.8 7.1 10.1 12.2 9.4 25.5 16.3 41.5 15zM118 343.9c7.9-4.5 15.2-8.7 22.8-13.1 1.6 2 3.4 3.9 4.8 6.2 1.6 2.8 2.6 3 4.3.1 1.6-2.6 3.7-4.8 5.8-7 3.6-3.8 4.9-13.1 2.2-18.5-7.3 3.8-14.7 7.7-23 12 1.1-9.2 10.4-7.1 12.9-12.9-6.7-5.9-4.7-13.8-3.7-22.3-6.5 1.4-12.4 2.8-18.2 3.9-1.6.3-3.8.8-4.9 0-5.3-3.5-6-3.4-9.8 1.8-4.1 5.7-8.5 11.1-12.7 16.7-3.1 4.1-6.8 8-9 12.5-1.2 2.4.1 6 .6 9 .1.5 1.9 1.2 2.8 1 2.9-.6 5.7-1.5 8.5-2.4 6-1.9 8.6-.7 11.7 5 1.4 2.8 3.1 5.3 4.9 8zm339.9 102.2c.2-.2.5-.4.7-.7l-4.8-5.4c.3-.4.5-.8.8-1.1 4.6 1.7 9.1 3.3 14.8 5.4-2-2.9-3.1-4.6-4.2-6.2.3-.2.6-.5.9-.7 3.8 1.6 7.6 3.2 12.3 5.2-1.4-3.1-2.1-4.8-2.9-6.6.4-.2.8-.3 1.2-.5 3.9 2 7.7 4.1 11.6 6.1-.2.7-.5 1.3-.7 2-2.1-.5-4.1-1.1-6.4-1.6-.3 1.1-.8 2.5-1.2 4-2.1-.3-4.8-1.3-5.3-.7-3.5 4.6-7.3 2-10.8.6-6.3 8.7-15.5 5-23.4 6.2 0 .6 0 1.3.1 1.9h116.3c-3.2-.5-6.7-2.8-9.7-2.3-4.7.8-7.2.1-7.8-3.4-3.6-.7-7.2-.5-9.5-2.1-8.6-5.9-17.7-4-26.1-4.1-2.8-1.9-5.6-3.7-7.8-5.2.8-1.9 1.7-3.8 2.9-6.5-7.9.7-14.7 1-21.4 1.9-10.5 1.4-21 3.7-31.5 4.6-6.1.6-9.8 2.8-11.6 8.6 1.9.9 3.8 1.7 6.5 2.9-1.2-2.8-1.9-4.5-2.7-6.3.3-.2.6-.5.9-.7 4.1 2.4 8.1 4.7 12.2 7.1.1-.3.3-.6.4-.8l-7.8-6.6c.3-.6.7-1.2 1-1.8 4.3 2.3 8.7 4.6 13 6.8zM179.2 259.6c-.6-.3-1.2-.5-1.8-.8 2.9 13.6-7.1 16.3-15.4 20.4-1.1.6-2.2 1.3-3.3 1.8-8.5 4.2-12 11-10.4 19.9 1.1 6.4 5 8.2 10.6 5 11.9-6.7 23.8-13.3 35.5-20.3 1.8-1 3.8-3.6 3.7-5.3-.2-5.4 2.2-7.9 7-9 1.1-.2 2.1-.7 3.1-1.1-.5-.8-1-1.5-1.5-2.3-2.6.5-5.2 1.2-7.9 1.5-1.5.2-3.1-.4-4.7-.6.3-1.5.4-3.2 1.1-4.5 1-1.8 2.4-3.3 3.6-5-.6-.5-1.2-1.1-1.9-1.6-2.5 2.3-5.1 4.5-7.5 6.8-4 3.8-6.5 3.4-8.9-1.7-.4-1-.8-2.1-1.3-3.2zM147 354c-2.1-2.2-3.6-4.4-5.7-5.8-1.8-1.1-4.5-2.2-6.4-1.7-5.2 1.6-10.2 4-15.2 6.3-5.8 2.6-8.4 1.9-11.8-3.7-1.2-2-2.2-4.1-3.5-6-.5-.8-1.7-1.8-2.4-1.7-5.4.8-10.9 1.5-16.1 2.9-3.5.9-5 0-5.3-3.2-.2-2.4 0-4.8 0-7.3-3.9 2.2-6.4 4.9-8.9 7.5-4.4 4.5-4.3 6.5 1.1 9.7 12.5 7.5 26.5 10.2 40.7 10.6 9.4.3 19.1-1.1 28.3-3.2 7.8-1.8 14.2-4.2 14.7-15.1-3.3 3.8-6 6.8-9.5 10.7zm-78.7 43.1h60.9c.9-5.1-.2-6.6-5.5-7.9-6.2-1.5-12.6-3.2-12.8-11.9-1.3 1-2.1 1.7-3 2.2-3.5 2.1-6.9 5-10.7 5.8-4.3.9-9.1-.3-13.6-.3-5.7-.2-12.8 4.9-15.3 12.1zm56.8-384.2c8.3 8.6 16.9 17.5 25.2 26.1 7.3-8.5 14.5-16.9 22.3-26.1h-47.5zm397.4 426.5c7.6 1.7 15.4 3.5 24.4 5.5-2.1 1-3.5 1.8-4.9 2.5.1.3.1.7.2 1 5.8-.8 11.6-1.7 17.6-2.5-.5 1.4-.9 2.4-1.7 4.6 4.8-1.6 8.5-3 12.3-4 1.5-.4 4.5-.4 4.5-.2 1.1 6.5 4.9 1.4 7.3 1.7.6.1 2-1.4 1.9-2.1-.1-1.1-.9-2.7-1.8-3-6.6-2-13.2-4.1-19.9-5.5-11.6-2.4-23.2-4.2-34.8-6.2-1.3-.2-2.6-.2-3.9-.4-.4 3-.8 5.4-1.2 8.6zM586.6 36V13.6c0-3-1.1-4.1-4.4-3.4-2.6.5-5.5-.2-8.3-.2h-27.6c14 9.1 26.9 17.4 40.3 26zm-401 302.9c-.3.4-.6.9-.8 1.3-4.1-5.2-8.1-10.4-12.2-15.5-.4-.5-1.6-1.1-1.8-.9-2.6 2.1-5.8 3.9-7.5 6.6-.9 1.4-.1 5 1.2 6.6 3.6 4.3 7.8 8.1 13.1 13.4 1.2-1.2 3.1-3 5.3-5.2.4.3 2.1 1.5 4.5 3.2-.7-3.7-1.2-6.6-1.8-9.5zm324 82.2c3.3 1.4 5.6.5 6-3.9.8-9.8 1.3-19.7 1.6-29.5 0-1.2-2.3-2.8-3.8-3.6-.5-.2-2.9 1.7-3 2.7-.2 4.5.5 9 .3 13.5-.1 6.8-.7 13.6-1.1 20.8zM134 390.6c.4.9.9 2.6 1.7 4 2.5 4.3 6.7 2.8 10.4 2.8 11.2 0 11.2 0 9.8-10.9-.1-.7-.1-1.4-.1-1.3-6.9 1.7-13.9 3.4-21.8 5.4zm-80.9-16.7c-.7 1.2-1.3 2.1-1.8 3-3.1 5.4-2.9 6.4 2.9 9 2.9 1.3 6.2 2.3 9.3 2.2 3.1-.1 6.2-1.7 9.3-2.7-.3-.9-.4-2.2-.9-2.5-6.1-3.1-12.3-6-18.8-9zm341.4 71.5c7.1 4.8 35.1-5.7 37.1-13.1-4.7-1.4-9.4-2.7-14.2-4.1 4.9 5.8 4.7 8.5-1.7 11.4-3.2 1.4-6.7 2.2-10.1 3.1-3.2.8-6.5 1.5-11.1 2.7zm-218.8-33.5c-4.6-.4-8.8-2.1-11-.6-6.3 4.2-12.1 1.9-18.3.6-5.4-1.1-11-1.2-16.5-1.7 14.2 6.7 37.6 11.3 45.8 1.7zM57.2 394.2c-5.1.2-10.7-.8-15.1 1-5 2.1-7.5.2-9.9-2.9-1.7-2.1-2.5-4.8-3.8-7.4-2.6 1.6-5.2 3.2-7.9 4.9 6.4 8.8 26.6 12.3 36.7 4.4zm452.1 40.5h8.3v-7c-8 .3-8.4.7-8.3 7zm-124.2 13-1.5-1.5c-2 1.1-4 2.2-6.1 3.3 1.7 1.9 3.3 3.8 5 5.7.5-.2 1.1-.4 1.6-.6.3-2.3.6-4.6 1-6.9zM163.3 325.4c2.1-2.8 4.4-4.5 4.3-6-.1-2-2.3-3.8-4.3-6.7v12.7zm-27.9 77.5c4.6 1.9 9.3 4.7 14.6 0h-14.6z"/>
  <path d="M0 7.7c5.8 1.7 4.1 6.7 4.2 10.4.3 7.1-.2 14.3-.2 21.5 0 15.6.4 31.2.3 46.8-.1 11.1-.9 22.2-1 33.3-.1 16.4.1 32.9.1 49.3 0 14.1-.2 28.2-.1 42.4.2 24.8.8 49.6.9 74.4 0 5.9-1.8 11.8-1.8 17.7-.1 9.8.8 19.6.8 29.5 0 14.9-.5 29.8-.5 44.7-.1 15.5.1 31.1.2 46.6.1 9.5.3 18.9.4 28.4.1 7.3 1.2 8.4 8.6 8.5 28.2.1 56.4.3 84.6.2 10.7 0 21.5-1.2 32.2-1 13.8.3 27.6 1.7 41.4 2.1 7.3.3 14.7-.5 22.1-.6 19.4-.1 38.8.1 58.2 0 16.7-.1 33.3-.6 50-.6 14.5 0 29 .8 43.5.8 13.4 0 26.9-.8 40.3-.8 10.2 0 20.3.7 30.5.9 8.1.2 16.2.1 24.3.2 18.8.1 37.5.4 56.3.4 21.5 0 43-.3 64.5-.5 7 0 14.1.3 21.1.1 8.3-.2 10-2.1 10-10.5 0-48.5-.1-97 0-145.4 0-14.9 1-29.8 1.1-44.7.1-9.8-.7-19.7-.9-29.5-.1-4.6.4-9.3.4-13.9 0-5.8-.5-11.7-.5-17.5-.1-15.2-.2-30.4.1-45.5.2-9.3 1.1-18.5 1.4-27.7.4-14.6.6-29.2.6-43.7 0-4.2-1-8.4-1-12.5 0-8.2.4-16.3.5-24.5.1-11.9.1-23.8.1-35.6 0-5.6-5.7-8.9-12.1-7.4-1.9.5-4 .8-5.9.7-8.8-.3-17.7-.9-26.5-.9-8 0-16 1-24 1-7.7 0-15.3-.9-23-1-5.4 0-10.8.9-16.2 1-6.7.2-13.4.1-20.1.1-9.6 0-19.2 0-28.8-.1h-20.3l-20.6.3c-12.5.1-24.9 0-37.4.3-7.9.2-15.8 1.2-23.7 1.2-15.2 0-30.4-.7-45.5-.7-11.5 0-23 .7-34.5.8-34.3.1-68.5.1-102.8.2-16.8 0-33.6.2-50.4-.1-29.6-.4-59.1.3-88.7 0-2.3 0-4.6.7-6.9 1C7.6 1.7 1.9 3.9 0 2.3.4 1.6.6.4 1.1.2 2.3-.1 3.6.1 4.9.1h590.4v468.7H0V7.7z" fill="#fff"/>
  <path d="M76.2 406.1c2 1.3 3.2 2.7 4.4 2.6 3.2-.1 6.3-1.1 9.5-1.2 2.1-.1 4.2.8 6.3 1.2.6.1 1.3.4 1.9.5 4.6.6 9.1 1.6 13.7 1.7 3.2.1 6.4-1.1 10-1.8-1.9 4.1.6 6.1 3.8 7 10.4 2.8 20.8 5.5 31.3 7.8 2.6.6 6.2.3 8.4-1.1 8.8-5.4 18.4-3.9 27.9-4.2 1-5.1 4.6-4.3 8.1-4 4 .3 7.9.6 12 .2-3.1-2.5-5.9-6-10.3-2.6-.3.2-1.1 0-1.5-.3-4.8-4.4-10.6-4-16.6-4.3-8.6-.4-17.4-.9-24.9-6.9 1-4.3 3.4-8.2 1.4-13.2-1.2-3-1.5-7.6 2.3-10.4.5-.4.5-2 .2-2.9-1.7-6.1-3.9-12.2-5.1-18.4-.5-2.6.8-5.6 1.4-8.5.3-1.6.9-3 1.5-4.9 4.9.8 5.4 5.2 7.1 8.6.7 1.4 1.4 3.2 2.6 4 6.9 4.8 12.1 4.6 15.6.3 2.8 0 5.6.8 7.1-.2 1.7-1.2 2.1-4.1 3.5-7.2.7-.8 3.8-3.2 3.4-4.1-1.2-2.7-3.3-6.1-5.8-7-9.2-3.4-14.9-10.6-21-17.4-2.2-2.5-3.6-5.7-5.8-8.3-3.3-3.7-1.6-5.2 2-7.2 10.2-5.8 20.1-11.9 30.1-18 1-.6 2.1-1.5 2.4-2.5 1.7-4.4 3.3-8.7 8.1-11.1 1.3-.6 1.9-5.2 1-6.7-1-1.6-4.3-2.1-6.6-2.6-1-.2-2.2.6-4.9 1.4 4.3-4.7 3.2-9.1.2-10.9-2.2-1.2-6.4 1.1-10 1.9 1.5-4.5 3.1-9.5 4.7-14.4.3-1 .8-2.2.5-3.1-2.8-9.5-4.1-19.9-8.9-28.2-9.4-16.4-23.4-28.6-42.3-32.7-13.4-2.9-26.7-1.5-40.4 2.2-22.5 6-39.9 32.5-35.5 55.1.3 1.6-.4 3.8-1.4 5.2-4.7 6.9-.9 11.2 4.4 15.7 2.9 2.4 6 5.1 7.8 8.3 6.2 11.1 16.4 17 27.4 22 3.4 1.5 3.8 2.8 1.5 5.4-9.1 10.8-18 21.8-27.2 32.6-4.5 5.3-9.6 10-14 15.3-2.2 2.6-3.4 6.1-5.4 8.9-2.9 4.2-6 8.2-9.3 12.1-2.2 2.6-4.2 4.7-2.8 8.9 1.5 4.5-5.8 10.1-12.6 10.7-4.4.4-8.9.9-13.1 2.3-4.6 1.5-8.3 4.1-8.1 10 0 1.3-2.1 2.6-3.2 3.9-.8-1.3-1.9-2.5-2.3-3.9-.6-2-.9-4.2-.9-6.3 0-32.9-.2-65.8 0-98.6.1-25.1.9-50.3 1-75.4.1-12.5-.9-25-.9-37.5 0-9.6.9-19.2.9-28.8 0-10.3-.9-20.6-.9-30.9 0-10.7.9-21.4.9-32.1 0-9.2-.8-18.5-.9-27.7-.2-13.9 0-27.7 0-42h39.3c-6 6.8-12.3 12.9-17.3 19.8-7.7 10.5-13.1 22.5-15.3 35.4-2 11.7 3.5 21.2 11.2 29.2 8.7 9 18.4 16.6 31.7 17.7 4.4.4 4.6 4.4 5.5 7.4 2.5 9 4.3 18.2 7.3 27 1.9 5.6 5.5 10.5 8.3 15.8.6-.1 1.1-.3 1.7-.4v-43.6c13.7-1.5 26.2-2.9 38.7-4.3.2-.5.3-1.1.5-1.6 1 2.3 1.5 5.4 3.2 6.9 6.2 5.4 12.3 11.6 19.6 15 10.8 5.1 22.5 8.3 34 11.7 6.1 1.8 12.6 2.3 19 3.2 9.9 1.4 19.7 2.8 29.6 3.9 15.8 1.7 31.6 3.4 47.5 4.7 13 1.1 26 1.7 39.1 2.4 5.8.3 11.6 0 17.4.5 1.1.1 2.5 2.4 2.8 3.8 1.6 6.3 2.8 12.8 4.4 19.2.4 1.5 1.9 2.8 2.9 4.2.6-.1 1.1-.2 1.7-.3 1.9-8.9 3.8-17.8 5.8-27.1 10.4 0 21-.1 31.6.1 3.4 0 6.7.8 10 1.2.8.1 1.6.3 2.4.3 12.5-.1 25.1-.4 37.6-.4 5.8 0 11.7.6 17.5.6 6.7 0 13.4-.6 20-.3 13.9.6 27.6-1.2 41.3-2.5 5.1-.5 10.4.2 15.5-.3 6.7-.7 13.3-1.8 19.9-3.2 8.3-1.8 16.7-3.6 24.8-6.1 5.5-1.7 10.6-4.5 16.7-7.3-.5 3.3-1.4 5.9-1.3 8.5.2 9.8.7 19.6.9 29.4.1 3-1 6-.9 9 .2 11.1.8 22.2 1 33.3.1 6-.3 12-.4 18.1-.2 10.1-.6 20.1-.6 30.2.1 22.9.7 45.8.7 68.8 0 27.1-.5 54.1-.7 81.2 0 3-.1 6 0 9 .2 3.6-.7 5.3-4.9 4.2-6.9-1.8-13.9-3.1-20.8-4.5-11.2-2.2-22.3-4.5-33.6-6.4-4.5-.8-5.1-4.2-4.9-7 .6-10.3 1.9-20.6 3.1-30.9.7-6-2.8-11.5-8.6-13.4-5.6-1.8-9.8-.2-12.4 6.5-1.6 4-1.4 8.7-1.7 13.1-.2 3.8-.1 7.7 0 11.6.1 3.6.1 7.2.8 10.7 1.2 6.5 0 8.4-6.6 9.3-13.4 1.8-26.9 3.6-40.3 5.5-4 .6-8.2 1-12 2.4-3 1.2-3.6-.5-5.4-2-3.6-2.9-7.7-6-12-6.8-16.2-3-32.6-5.4-49.2-2.5-10.1 1.8-20.2 3.8-30.4 5.3-2.7.4-5.7-.3-8.5-.9-6.4-1.2-11.5 1.5-12 6.5-.8 6.9 2.5 10.5 9.9 10.8 2 .1 4 0 5.9-.3 10.8-2 21.6-4.8 32.5-6 9-1 18.3-.2 27.5.5-4.1.5-6.9 4.7-12.2 2-7.2-3.7-15.6 2.5-15.6 10.6v3.3c-11.5 0-22.8-.1-34 0-15.6.2-31.2.8-46.9.8-15.9.1-31.8-.3-47.7-.4-20.7-.2-41.4-.4-62.1-.4-13.3 0-26.6.5-39.8.6-3.6 0-7.3-1.3-11-1.4-3.5-.1-7 .8-10.6.8-9 0-18.1-.6-27.1-.5-6.1.1-12.1 1.2-18.1 1.2-5.7.1-11.3-.6-17-.8-3.6-.1-7.2 0-10.8 0-6.8 0-13.7 0-20.5-.1-3.2 0-6.3-.1-9.4 0-8.3.3-9-.4-8.9-8.4.2-12.2.6-24.3.7-36.5 0-4 1.3-5 5.2-5.5 7.1-1 13.7-.2 20.7.9 6.6 1.1 13.6-.4 20.4-1 3.2-.3 3.2-.5 3.2 2.9 5.9-.2 12-.2 16.8-.2zm209.3-49.8c-1.2.1-2.3.3-3.3.2-9.9-1.2-16.3 4.4-16 14.6.2 4.8 1.7 9.5 2.5 14.3-.8-.1-2.2-.7-3.1-.2-6.7 3.4-13.9 3.1-21.1 3.1-1.9 0-3.9-1-5.8-1.3-3.3-.5-6.6-1-9.9-1.1-1.6-.1-3.3.6-4.9 1-1.4.4-2.8.9-3.7 1.2 6.2 1.2 12.3 2.7 18.4 3.3 6.4.6 13.3 1.3 19.2.6 8.4-1.1 14.8 2.4 21.4 5 7.7 3 12.2 2.7 17.7-3.8 1.8-2.2 6.5-3.1 9.6-2.8 3.3.3 6.3 2.8 9.5 4.3-.7 9.7 10.9 15.7 18.6 8.7 3-2.7 6.9-4.5 10.6-6.1 1.2-.5 3.9 0 4.7 1 1.8 2.3 2.9 1.8 5.3.8 7-2.8 14.3-6.4 21.5-6.8 22.1-1 44.2-.6 66.3-.8 1.3 0 2.6-.3 4.6-.6-1.2-1.3-1.8-2.5-2.4-2.4-5.9.2-11.7 0-17.6-1.6-3.3-.9-7.2.1-10.8.1-3.1 0-7.9.9-8.9-.6-2.5-3.7-5.6-2.9-8.3-3.2-.4 1.4-.8 2.5-1.1 3.7-.9-.4-2.3-.6-2.6-1.3-1.4-3-4-2.4-6.3-2.5-2.9 0-5.8.6-8.7.5-3.1-.1-6.1-.7-9.2-1.1.1-.6.1-1.2.2-1.8 2.5-.2 4.9-.5 7.6-.7-.7-7-8.9-1.7-10.6-6.6 7-6.8 10.2-14.9 1-22.8-3.3 4-6.7 8-10.1 12-.3-.6-.8-1.3-1.1-2.1-1.9-6.1-3.5-12.2-5.6-18.2-1.5-4.3-3.6-8.4-5.7-12.5-1.8-3.6.4-4.7 3.1-5.9 3.1-1.4 6.1-3.3 9-5 1.4-.8 2.7-2.1 4.3-2.5 3.3-.8 7.4-.2 9.8-2 4.9-3.6 9.9-7.8 13-12.9 3.1-5.1 3.6-11.7 6-17.4 4-9.3 2.9-15-5-21.5-.5-.4-.8-1.1-1.1-1.8-5-10.4-12.7-17.1-24.2-19.7-10.9-2.4-21.5-1.4-31.9 1.5-11.1 3.2-21.5 8.4-33.7 7.3-6.6-.6-11.9 5-13.3 11.7-.9 4.3 2.6 9.1 7.6 12.9 2.8 2.1 5.5 5.9 6 9.2.2 1.8-4 4.8-6.8 6.2-4.9 2.6-8.2 8.3-5.3 11.4 1.8 1.9 5.1 2.3 7.7 3.3 6.8 10.9 19.2 14.6 30.1 20.1-2 6.3-7.4 8.5-15.1 7.3-7.8-1.2-15.7-1.7-24-2.6.7 9.6 1.3 18.1 1.9 26.9zM495.3 258c-2.5.5-4.4.6-6 1.2-16.6 5.7-25.3 18.4-30.3 34.4-1.6 5.1-1.7 9.9 1.9 14.1 2.7 3.3 5.4 6.8 8.7 9.3 8.1 6.1 16.6 11.7 24.9 17.5 9.2 6.4 11.7 5.8 18.1-3.9 2.6-4 .5-12.1-3.5-13.3-11.7-3.4-20.3-11.7-29.1-19.2-5.3-4.5-4.7-11.1-.2-17.5 2.6-3.7 12-6.6 16.1-4.7 3.9 1.9 7.7 4.1 11.3 6.5 7.9 5.3 15.5 11 23.5 16.2 1.5 1 4.7.9 6.2-.1 2.4-1.7 4.4-4.3 5.8-6.9 2.1-3.9-1.7-11.9-4.8-10.9-3.9 1.3-5.9-.9-8.6-2.8-8.2-5.9-16.4-11.6-24.9-17-2.9-1.6-6.4-2.1-9.1-2.9zm-264.1-11.9c.1.6.2 1.1.3 1.7 1.1-.1 2.4 0 3.4-.4 7.8-3.5 15.4-7.5 23.4-10.7 14.1-5.7 28.2-11.2 42.5-16.3 20.3-7.2 40.5-15.1 61.4-20.4 18.9-4.8 38-10.2 57.9-10.2 10.8 0 21.4-.2 31.8 3.8 14.8 5.7 26.2 14.5 32.4 29.4 3.2 7.6 6.9 14.9 10.4 22.3.6 0 1.1-.1 1.7-.1.1-1.8.5-3.7.2-5.4-.4-1.7-1.8-3.1-2.3-4.8-3.8-13.5-10.3-25.1-21.3-34.3-8.9-7.4-18.6-12.9-30-14.7-6.4-1-13-.3-19.5-.7-15.5-.9-30.3 3.1-45.1 6.2-12.2 2.6-24.2 6.4-36.2 9.8-7.8 2.2-15.7 4.4-23.3 7.3-13.7 5.2-27.2 10.9-40.8 16.5-7.6 3.1-15.1 6.3-22.5 9.7-8.2 3.6-16.3 7.5-24.4 11.3zm20.6 4.5c.2.4.3.7.5 1.1.7 0 1.5.3 2.1.1 8.4-3.6 16.7-7.6 25.2-10.9 17.8-6.8 35.6-14 53.8-19.7 20.5-6.4 41.2-12.5 62.2-16.8 13.9-2.8 28.3-2.3 42.7 1.2 8.5 2.1 14.6 6.2 18.3 12.8 5.3 9.5 8.8 20 13.3 30 .9 2 2.3 3.8 3.5 5.7.6-.2 1.2-.5 1.7-.7-.3-1.8-.2-3.6-.8-5.2-2.1-6.4-4.5-12.7-6.6-19.1-4.7-14.4-13.6-24.4-28.7-28.2-16.3-4.2-32.7-3-48.8.7-11.3 2.6-22.3 7-33.7 8.7-14.4 2.2-27.6 7.5-41 12.4-16.4 6.1-32.4 13.3-48.5 20.2-5.2 2.1-10.1 5-15.2 7.7z" fill="#fff"/>
  <path d="M131.5 283.7c-16.1 1.2-29.4-5.7-41.6-14.8-3.1-2.3-4.5-7-7.1-10.1-2.5-3-5.3-6.1-8.5-8.2-4.8-3.1-5.1-6.8-1.1-10.9 1.5-1.6 2.3-5 1.8-7.2-3.8-15.3 2.1-27.9 11.7-38.7 3.9-4.4 10.8-6.2 16.6-8.7 8.1-3.4 16.4-6.6 25.4-5.1 13.2 2.1 26.5 3.7 37 13.5 7.8 7.2 15.7 14.3 19.4 24.4 4.4 11.8 5.4 24.2 2.1 36.6-.3 1.1-1.2 2.1-2.1 2.8-.2.2-1.5-1-2.3-1.4-1.8-.9-4.4-3-5.3-2.4-1.9 1.2-4.2 3.9-4 5.7 1 8.2-4.2 10.9-10.2 13.6-7.6 3.4-15.1 7.1-22.8 10.2-2.6.9-5.9.5-9 .7zm11.2-13.6c0 .2.1.4.1.6 4.2-.9 8.4-1.7 12.4-2.8.8-.2 1.1-1.9 1.6-3-1-.5-2.1-1.6-3-1.4-3.5.6-6.9 1.8-10.3 2.2-4.7.5-9.7 2.3-12.7-4.2-1.9-4.2-5.8-3.8-10.6-1-4.6 2.7-2.3 5.7-.9 8.7 1.9 4.1 5.3 3.7 9 3.1 4.8-1 9.6-1.5 14.4-2.2zm-26.1-51.5c0 .5.1 1.1.1 1.6 6.7 1.8 12.8 4.4 20.2 5.1 8.7.8 13.4-3 18.7-7.6.7-.6.4-2.4.6-4-4.1 2.8-7.2 4.8-10.3 6.9-.3-.4-.7-.9-1-1.3 1.2-1.5 2.3-3 3.7-4.7-6.5-4-8.3 6.6-13.6 4.4.7-1.9 1.2-3.6 1.8-5.2-1.7.3-3.4.5-5.1.8-4 .8-8 1.6-12 2.5-1.1.2-2.1 1-3.1 1.5zm24.7 25.4c2.7 5.1 6.8 3.1 8.8 1.8 3.2-2 7-4.7 4.7-10-2.3-5.1-5.7-6.6-13.2-4.3 1.2 1.3 2.9 2 4.3 2.9 1.5 1 3.7 2.1 3.9 3.5.2 1.2-1.7 3.1-3.1 4.1-1.4 1-3.3 1.2-5.4 2zm-19.7-14.7c-7.1 6.2-6.8 8.8 2 13.7 5.3-4.8 4.9-7.4-2-13.7zm46.5 5.2c-3.4-3-5.5-4.8-7.5-6.6-1.2 2.2-3.3 4.3-3.3 6.5 0 1.8 2.5 3.6 3.8 5.4 1.9-1.3 3.7-2.7 7-5.3zM118 343.9c-1.8-2.7-3.6-5.2-4.9-7.8-3.1-5.8-5.7-7-11.7-5-2.8.9-5.6 1.8-8.5 2.4-.9.2-2.7-.5-2.8-1-.5-3-1.8-6.6-.6-9 2.2-4.6 5.9-8.4 9-12.5 4.2-5.6 8.6-11 12.7-16.7 3.8-5.2 4.5-5.3 9.8-1.8 1.2.8 3.3.3 4.9 0 5.9-1.2 11.7-2.5 18.2-3.9-1 8.5-3 16.4 3.7 22.3-2.5 5.8-11.7 3.7-12.9 12.9 8.4-4.4 15.7-8.2 23-12 2.6 5.4 1.3 14.7-2.2 18.5-2.1 2.2-4.2 4.5-5.8 7-1.8 2.9-2.7 2.7-4.3-.1-1.3-2.3-3.2-4.2-4.8-6.2-7.6 4.2-14.9 8.4-22.8 12.9zM457.9 446.1c-4.4-2.2-8.7-4.5-13.1-6.7-.3.6-.7 1.2-1 1.8l7.8 6.6c-.1.3-.3.6-.4.8-4.1-2.4-8.1-4.7-12.2-7.1-.3.2-.6.5-.9.7.7 1.8 1.5 3.5 2.7 6.3-2.7-1.2-4.5-2-6.5-2.9 1.8-5.8 5.5-8.1 11.6-8.6 10.6-1 21-3.2 31.5-4.6 6.7-.9 13.5-1.2 21.4-1.9-1.2 2.7-2.1 4.6-2.9 6.5 2.2 1.5 5 3.3 7.8 5.2 8.4.1 17.5-1.8 26.1 4.1 2.3 1.6 5.9 1.4 9.5 2.1.6 3.4 3.1 4.2 7.8 3.4 3-.5 6.5 1.8 9.7 2.3H440.5c0-.6 0-1.3-.1-1.9 7.9-1.2 17.2 2.5 23.4-6.2 3.5 1.4 7.3 4 10.8-.6.5-.7 3.2.4 5.3.7.5-1.5.9-2.9 1.2-4 2.2.6 4.3 1.1 6.4 1.6.2-.7.5-1.3.7-2-3.9-2-7.7-4.1-11.6-6.1-.4.2-.8.3-1.2.5.8 1.7 1.5 3.5 2.9 6.6-4.7-2-8.5-3.6-12.3-5.2-.3.2-.6.5-.9.7 1.1 1.6 2.2 3.3 4.2 6.2-5.7-2.1-10.2-3.7-14.8-5.4-.3.4-.5.8-.8 1.1l4.8 5.4c-.1.2-.3.4-.6.6zm38.6-5.6c-3.6-2.2-6.1-3.7-8.6-5.2-.3.7-1 1.6-.8 2 1.7 2.7 3.6 5.2 9.4 3.2z" fill="#fff"/>
  <path d="M179.2 259.6c.4 1.1.8 2.2 1.4 3.3 2.5 5.1 4.9 5.5 8.9 1.7 2.5-2.3 5-4.5 7.5-6.8.6.5 1.2 1.1 1.9 1.6-1.2 1.6-2.7 3.2-3.6 5-.7 1.3-.8 3-1.1 4.5 1.6.2 3.2.8 4.7.6 2.7-.3 5.3-1 7.9-1.5.5.8 1 1.5 1.5 2.3-1 .4-2 .8-3.1 1.1-4.8 1.1-7.3 3.6-7 9 .1 1.8-2 4.3-3.7 5.3-11.7 6.9-23.7 13.6-35.5 20.3-5.6 3.2-9.5 1.3-10.6-5-1.6-9 1.9-15.7 10.4-19.9 1.1-.6 2.2-1.3 3.3-1.8 8.3-4.1 18.2-6.9 15.4-20.4.5.2 1.1.4 1.7.7zM147 354c3.5-3.9 6.2-6.9 9.6-10.6-.5 10.9-6.9 13.4-14.7 15.1-9.2 2.1-18.9 3.5-28.3 3.2-14.2-.5-28.2-3.2-40.7-10.6-5.4-3.3-5.4-5.2-1.1-9.7 2.5-2.6 5-5.3 8.9-7.5 0 2.4-.2 4.9 0 7.3.3 3.3 1.8 4.2 5.3 3.2 5.3-1.4 10.7-2.1 16.1-2.9.7-.1 1.9.9 2.4 1.7 1.3 1.9 2.3 4 3.5 6 3.4 5.5 5.9 6.3 11.8 3.7 5-2.2 10-4.6 15.2-6.3 1.8-.6 4.6.5 6.4 1.7 2 1.2 3.5 3.5 5.6 5.7zM68.3 397.1c2.5-7.2 9.6-12.2 15.3-12.2 4.6 0 9.3 1.2 13.6.3 3.8-.8 7.2-3.8 10.7-5.8.9-.5 1.7-1.2 3-2.2.2 8.7 6.6 10.4 12.8 11.9 5.3 1.3 6.4 2.9 5.5 7.9-20.1.1-40.1.1-60.9.1zM125.1 12.9h47.6c-7.9 9.2-15.1 17.6-22.3 26.1-8.4-8.6-17-17.5-25.3-26.1zM522.5 439.4c.4-3.2.8-5.6 1.2-8.6 1.3.1 2.6.1 3.9.4 11.6 2 23.3 3.9 34.8 6.2 6.7 1.4 13.3 3.5 19.9 5.5.9.3 1.7 1.9 1.8 3 .1.7-1.3 2.1-1.9 2.1-2.4-.3-6.2 4.8-7.3-1.7 0-.2-3.1-.2-4.5.2-3.8 1.1-7.4 2.4-12.3 4 .8-2.2 1.2-3.2 1.7-4.6-6 .9-11.8 1.7-17.6 2.5-.1-.3-.1-.7-.2-1 1.4-.7 2.9-1.5 4.9-2.5-9-2.1-16.8-3.8-24.4-5.5zM586.6 36c-13.4-8.7-26.2-17-40.3-26h27.6c2.8 0 5.6.7 8.3.2 3.3-.7 4.4.4 4.4 3.4V36zM185.6 338.9c.6 2.9 1.1 5.8 1.8 9.5-2.4-1.7-4.1-2.9-4.5-3.2-2.3 2.2-4.2 4.1-5.3 5.2-5.3-5.3-9.6-9.1-13.1-13.4-1.3-1.6-2.1-5.2-1.2-6.6 1.7-2.7 4.8-4.5 7.5-6.6.2-.2 1.4.4 1.8.9 4.1 5.1 8.1 10.3 12.2 15.5.3-.4.5-.8.8-1.3zM509.6 421.1c.4-7.2 1-14 1.1-20.9.1-4.5-.5-9-.3-13.5 0-1 2.5-3 3-2.7 1.5.8 3.8 2.4 3.8 3.6-.2 9.9-.8 19.7-1.6 29.5-.4 4.6-2.7 5.5-6 4zM134 390.6c8-2 14.9-3.7 21.8-5.5 0-.1 0 .6.1 1.3 1.4 10.9 1.4 10.9-9.8 10.9-3.8 0-7.9 1.5-10.4-2.8-.9-1.3-1.3-2.9-1.7-3.9zM53.1 373.9c6.5 3.1 12.7 5.9 18.7 9 .6.3.6 1.6.9 2.5-3.1 1-6.2 2.6-9.3 2.7-3.1.1-6.4-.9-9.3-2.2-5.8-2.6-6-3.6-2.9-9 .6-1 1.2-1.9 1.9-3zM394.5 445.4c4.6-1.1 7.9-1.8 11.2-2.7 3.4-.9 6.9-1.7 10.1-3.1 6.4-2.9 6.6-5.6 1.7-11.4 4.7 1.4 9.5 2.7 14.2 4.1-2.1 7.4-30.2 17.8-37.2 13.1zM175.7 411.9c-8.2 9.6-31.7 4.9-45.8-1.7 5.5.5 11.1.6 16.5 1.7 6.2 1.3 12 3.5 18.3-.6 2.2-1.4 6.4.3 11 .6zM57.2 394.2c-10.1 7.9-30.3 4.3-36.7-4.4 2.7-1.6 5.3-3.3 7.9-4.9 1.3 2.6 2.2 5.3 3.8 7.4 2.5 3.1 5 5 9.9 2.9 4.4-1.8 10-.8 15.1-1zM509.3 434.7c-.1-6.4.3-6.7 8.3-7v7h-8.3zM385.1 447.7c-.3 2.3-.7 4.6-1 6.9-.5.2-1.1.4-1.6.6-1.7-1.9-3.3-3.8-5-5.7 2-1.1 4-2.2 6.1-3.3l1.5 1.5zM163.3 325.4v-12.7c2 2.9 4.1 4.7 4.3 6.7.1 1.5-2.2 3.2-4.3 6zM135.4 402.9H150c-5.3 4.7-10 1.9-14.6 0z" fill="#fff"/>
  <path d="M285.5 356.3c-.6-8.8-1.2-17.3-1.8-26.8 8.3.9 16.2 1.4 24 2.6 7.7 1.2 13.1-1 15.1-7.3-10.9-5.5-23.2-9.2-30.1-20.1-2.6-1.1-5.9-1.5-7.7-3.3-2.9-3.1.4-8.7 5.3-11.4 2.8-1.5 7.1-4.5 6.8-6.2-.5-3.3-3.1-7.1-6-9.2-4.9-3.7-8.5-8.6-7.6-12.9 1.4-6.7 6.7-12.3 13.3-11.7 12.2 1.1 22.6-4.1 33.7-7.3 10.4-3 21-4 31.9-1.5 11.5 2.6 19.3 9.3 24.2 19.7.3.6.6 1.3 1.1 1.8 7.9 6.4 8.9 12.2 5 21.5-2.4 5.6-2.9 12.3-6 17.4-3.1 5.1-8.1 9.3-13 12.9-2.4 1.8-6.5 1.1-9.8 2-1.5.4-2.8 1.7-4.3 2.5-3 1.7-5.9 3.5-9 5-2.7 1.3-4.9 2.3-3.1 5.9 2 4.1 4.1 8.2 5.7 12.5 2.1 6 3.7 12.1 5.6 18.2.2.8.8 1.5 1.1 2.1 3.4-4.1 6.8-8.1 10.1-12 9.2 8 5.9 16-1 22.8 1.7 4.9 9.9-.4 10.6 6.6-2.7.3-5.1.5-7.6.7-.1.6-.1 1.2-.2 1.8 3.1.4 6.1 1 9.2 1.1 2.9.1 5.8-.6 8.7-.5 2.3 0 5-.6 6.3 2.5.3.7 1.7.9 2.6 1.3.4-1.2.7-2.3 1.1-3.7 2.7.4 5.8-.5 8.3 3.2 1 1.5 5.8.6 8.9.6 3.6 0 7.4-1 10.8-.1 5.9 1.6 11.6 1.8 17.6 1.6.6 0 1.2 1.2 2.4 2.4-2 .3-3.3.6-4.6.6-22.1.2-44.2-.2-66.3.8-7.3.3-14.5 4-21.5 6.8-2.5 1-3.5 1.4-5.3-.8-.8-1-3.5-1.6-4.7-1-3.7 1.7-7.7 3.4-10.6 6.1-7.6 7-19.3 1-18.6-8.7-3.2-1.6-6.3-4-9.5-4.3-3.2-.3-7.8.6-9.6 2.8-5.5 6.5-10 6.8-17.7 3.8-6.6-2.5-13-6.1-21.4-5-5.9.8-12.8.1-19.2-.6-6.1-.6-12.2-2.1-18.4-3.3.9-.3 2.3-.8 3.7-1.2 1.6-.4 3.3-1.1 4.9-1 3.3.1 6.6.6 9.9 1.1 2 .3 3.9 1.3 5.8 1.3 7.2 0 14.4.3 21.1-3.1.9-.4 2.3.1 3.1.2-.9-4.7-2.4-9.5-2.5-14.3-.3-10.2 6.1-15.8 16-14.6.9 0 2-.2 3.2-.3zm67.2-38.3c1-3.6 1-6.5 2.4-8.3 6.1-7.9 9.5-16 3.9-25.5-1.2-2.1-2.3-4.8-4.2-5.9-2.1-1.2-5.8-1.9-7.6-.8-6.6 4-12.9 3-19.5.8-.9-.3-2 .3-3 .5-6.6 1.3-13.2 2.5-19.1-2.1-.9-.7-1.9-1.3-3.3-2.3-.1 1.5-.5 2.5-.3 3.2 2.4 6.2.4 11.4-3.6 16.2-2.9 3.6-1.7 6.5 1 9.6 5.2 6 11.6 9.6 19 12.6 11.8 4.7 23.2 6.4 34.3 2zm-13.2-43.5c-.4-3.9-.7-6.6-1-9.2.5-.1 1.1-.2 1.6-.3 3 2.2 6 4.5 9.1 6.7.2-2.1-.9-3.5-.9-4.9 0-1.3 1-2.6 1.6-3.9 2.5 1.5 6.5-.6 7.9 3.9.8 2.6 3.6 4.6 5.5 6.8 1.4-1.8 3-3.6 4.2-5.5 3.4-5.5 7.1-5.5 10.3.1.4.7.9 1.4 1.7 2.9 1.2-1.9 3-3.3 2.9-4.6-.3-6.1-10.5-17.8-17-19-6.6-1.1-13.3-1.5-20-1.8-10.6-.5-20.4 3.3-29.7 7.6-5.6 2.6-11 3.4-16.6 2.3-4.9-.9-7.6 1.7-8.4 5-.6 2.4 1.9 5.5 3 8.3 1.5-1.4 3.1-2.6 4.4-4.1 1.6-1.9 3.1-3.9 5.4-7 1.6 14.6 1.6 14.6 5.9 15.2-.8-2.6-1.6-5.5-2.5-8.4.5-.3 1-.5 1.5-.8 2.9 2.5 5.8 5.1 8.9 7.8 1-1.8 1.9-3.2 2.8-4.7 2.9 1.7 5.5 3.2 7.3 4.2.9-2.3 1.6-3.9 2.3-5.7 3.8 3.6 6.6 6.1 9.8 9.1zm-49.4 60.2c0-.4-.1-.8-.1-1.2-.9.7-2.7 1.4-2.6 1.9.4 3 .5 6.7 2.2 8.9 4 5.2 4.4 10.9 4.9 17.1.4 5.1 1.9 10.1 3.4 15 .4 1.3 2.5 2.5 4 2.9 3.8 1.1 8 1 11.5 2.6 4.6 2.1 6.3-.7 8.1-3.6 2.3-3.7 4.5-7.6 6.5-11.5.5-1 .5-3-.2-3.7-5.1-5.3-4.5-15 1.3-20.2.9-.8 2.1-2.9 1.8-3.4-.9-1.2-2.5-2.3-3.9-2.5-5-.6-10-.8-15.1-1.1-7.2-.4-14.5-.8-21.8-1.2zm71-26.1c2.7 0 6.5.5 10.1-.1 6.4-1 14.5-9.7 14.4-15.9 0-2.6-2.4-5.3-3.9-7.8-.1-.1-2 .3-2.2.7-2.2 6.7-6 7.3-10.4 3.1-2.8 7-5.6 13.9-8 20zm-83.9 50.1c-5.3 3.2-7.5 6.4-6.8 10.3.6 3.1 1.4 6.2 2.6 9.2 3.3 8.2 3.8 8.4 12.1 4.7 1.1-.5 2.4-.5 4.2-.8-2.3-8.9-3.8-17.9-12.1-23.4zm60.5 36.1c2.6-8.6 6.9-16.8.3-25.3-2.5-3.2-6-3.1-7.8.6-1.6 3.3-2.7 6.9-4.3 10.3-2.1 4.2-.9 7 3.1 9.1 2.7 1.5 5.3 3.3 8.7 5.3zm13.2-23.1c.3-4 1-7.3-3.4-10-3-1.8-4.7-5.9-7-8.8-1.8-2.3-3.7-4.5-5.5-6.7-.4.2-.9.5-1.3.7 0 3.7-1.4 8.4.3 10.9 3.5 5.1 8.6 9.2 13.2 13.5.6.7 2.2.3 3.7.4zm20.4-14.9c-3.6.5-9.9 9.1-8.4 11.9.5.9 3.9 1.6 4.2 1.1 2.8-3.8 6.3-7.5 4.2-13zm-80.6 28.5c-3.3 1.6-6.5 3-10.1 4.7 3.9 3.5 7.8 5.2 11.3 2.7 2.4-1.8 2.3-5.3-1.2-7.4zm32 6.7c-.6.4-1.1.7-1.7 1.1.9 2 1.3 4.5 2.8 5.8 2.1 2 5 2.9 7.6-.8-2.9-2-5.8-4.1-8.7-6.1zM495.3 258c2.6.8 6.2 1.3 8.9 3 8.5 5.4 16.7 11.2 24.9 17 2.7 1.9 4.7 4 8.6 2.8 3.1-1 6.9 7 4.8 10.9-1.4 2.6-3.4 5.2-5.8 6.9-1.4 1-4.7 1-6.2.1-8-5.1-15.6-10.8-23.5-16.2-3.6-2.4-7.4-4.6-11.3-6.5-4.1-2-13.5 1-16.1 4.7-4.5 6.4-5.1 13 .2 17.5 8.9 7.5 17.4 15.8 29.1 19.2 4 1.2 6.1 9.3 3.5 13.3-6.4 9.7-8.9 10.3-18.1 3.9-8.3-5.8-16.8-11.4-24.9-17.5-3.4-2.5-6-6.1-8.7-9.3-3.6-4.2-3.5-9-1.9-14.1 5-16 13.7-28.7 30.3-34.4 1.9-.7 3.7-.8 6.2-1.3zm34.1 28.8.6-1.5c-10.3-7.4-19.6-16.4-32-20.4-3-1-6.8-1.2-9.8-.2-9.3 3-16.1 9.9-20.2 18.2-3.8 7.9-4.3 15.2 4.9 22.5 7.4 5.9 15 11.6 22.9 16.9 1.7 1.1 5.4 5.2 7.7-.9-.5-.4-1.2-1-2-1.5-7.6-5.3-15.4-10.2-22.6-15.9-8.4-6.6-10.4-12.1-6.6-19.4 2.4-4.7 5.6-9.6 9.8-12.5 7.9-5.5 11.6-7.5 21.3-1.4 7.7 4.8 15.1 10 22.7 15 1 .7 2.2.8 3.3 1.1z"/>
  <path d="M231.2 246.1c8.1-3.8 16.2-7.7 24.4-11.3 7.5-3.3 15-6.5 22.5-9.7 13.5-5.6 27.1-11.3 40.8-16.5 7.6-2.9 15.5-5.1 23.3-7.3 12-3.4 24-7.2 36.2-9.8 14.8-3.2 29.6-7.1 45.1-6.2 6.5.4 13.1-.4 19.5.7 11.3 1.9 21.1 7.3 30 14.7 11 9.2 17.5 20.8 21.3 34.3.5 1.7 1.9 3.1 2.3 4.8.4 1.7-.1 3.6-.2 5.4-.6 0-1.1.1-1.7.1-3.5-7.4-7.3-14.8-10.4-22.3-6.2-15-17.7-23.7-32.4-29.4-10.4-4-21-3.8-31.8-3.8-19.9 0-39 5.4-57.9 10.2-20.8 5.3-41 13.2-61.4 20.4-14.3 5-28.4 10.6-42.5 16.3-7.9 3.2-15.5 7.2-23.4 10.7-1 .4-2.2.3-3.4.4-.1-.6-.2-1.2-.3-1.7z"/>
  <path d="M251.8 250.6c5.1-2.6 10-5.6 15.3-7.8 16.1-6.9 32.1-14.1 48.5-20.2 13.4-5 26.6-10.3 41-12.4 11.4-1.7 22.4-6.2 33.7-8.7 16.2-3.7 32.5-4.9 48.8-.7 15.1 3.8 24 13.8 28.7 28.2 2.1 6.4 4.5 12.7 6.6 19.1.5 1.7.5 3.5.8 5.2-.6.2-1.2.5-1.7.7-1.2-1.9-2.7-3.7-3.5-5.7-4.4-10-7.9-20.5-13.3-30-3.7-6.6-9.8-10.8-18.3-12.8-14.4-3.5-28.8-4-42.7-1.2-21 4.3-41.7 10.3-62.2 16.8-18.2 5.7-36 12.9-53.8 19.7-8.5 3.3-16.8 7.3-25.2 10.9-.6.2-1.4 0-2.1-.1-.3-.3-.5-.7-.6-1zM142.7 270.1c-4.8.7-9.6 1.2-14.3 2.1-3.7.7-7.1 1-9-3.1-1.4-3-3.7-6 .9-8.7 4.7-2.8 8.6-3.2 10.6 1 3 6.5 8 4.7 12.7 4.2 3.5-.4 6.9-1.7 10.3-2.2.9-.1 2 .9 3 1.4-.5 1-.9 2.8-1.6 3-4.1 1.2-8.3 1.9-12.4 2.8-.1-.1-.2-.3-.2-.5zM116.6 218.6c1-.5 2-1.3 3-1.5 4-.9 8-1.7 12-2.5 1.7-.3 3.4-.5 5.1-.8-.6 1.7-1.2 3.3-1.8 5.2 5.4 2.3 7.1-8.4 13.6-4.4-1.4 1.7-2.5 3.2-3.7 4.7.3.4.7.9 1 1.3 3.1-2.1 6.2-4.2 10.3-6.9-.2 1.6.1 3.3-.6 4-5.3 4.7-10 8.5-18.7 7.6-7.4-.7-13.5-3.3-20.2-5.1v-1.6zM141.3 244c2.2-.8 4.1-1 5.4-2 1.4-1 3.3-2.8 3.1-4.1-.2-1.3-2.4-2.5-3.9-3.5-1.4-.9-3-1.6-4.3-2.9 7.6-2.3 11-.9 13.2 4.3 2.3 5.2-1.5 8-4.7 10-2.1 1.3-6.2 3.3-8.8-1.8zM121.6 229.3c6.9 6.3 7.3 8.9 2 13.7-8.7-4.9-9.1-7.5-2-13.7zM168.1 234.5c-3.3 2.5-5.2 3.9-7 5.3-1.4-1.8-3.8-3.6-3.8-5.4 0-2.2 2.1-4.3 3.3-6.5 2 1.8 4.1 3.6 7.5 6.6zM496.5 440.5c-5.8 1.9-7.7-.5-9.4-3.2-.2-.4.5-1.3.8-2 2.5 1.5 5 3 8.6 5.2z"/>
  <path d="M352.7 318c-11 4.4-22.5 2.7-34.2-1.9-7.3-2.9-13.8-6.6-19-12.6-2.7-3.1-4-6-1-9.6 4-4.8 6-10 3.6-16.2-.3-.7.1-1.7.3-3.2 1.4.9 2.4 1.6 3.3 2.3 5.9 4.6 12.5 3.4 19.1 2.1 1-.2 2.1-.8 3-.5 6.6 2.1 13 3.2 19.5-.8 1.8-1.1 5.5-.4 7.6.8 1.9 1 3 3.8 4.2 5.9 5.7 9.5 2.3 17.6-3.9 25.5-1.5 1.7-1.5 4.6-2.5 8.2zm-17.8-.9c.1 0 .7-.5 1-.3 3.8 1.6 5.4-1.3 6-3.7.4-1.5-1.4-4.8-2.9-5.2-5.4-1.6-11-2.8-16.6-3.3-1.2-.1-3.8 3.2-3.8 5 0 1.8 2 4.5 3.8 5.1 3.9 1.4 8.1 1.6 12.5 2.4zm-5.8-28.2c-1.4-3.4-4.4-4.1-6.6-1.1-1.1 1.4-1.3 4.7-.3 6.3 1.9 3.2 5.1 3.5 7.5 1.3-.2-2.5-.4-4.5-.6-6.5zm5.1-.1c1.9 2.7 3.2 4.7 4.5 6.6 1.6-1.7 4-3.1 4.4-5 .3-1.2-2.2-3.6-3.9-4.4-.8-.4-2.8 1.5-5 2.8zm-20.2-5.5c-4.5 7.1-4.5 7.2 1.5 10.9 4.4-4.2 4.2-5.8-1.5-10.9zM339.5 274.5c-3.2-2.9-6-5.4-9.7-8.8-.7 1.8-1.4 3.5-2.3 5.7-1.7-1-4.4-2.6-7.3-4.2-.9 1.4-1.7 2.9-2.8 4.7-3.1-2.7-6-5.3-8.9-7.8-.5.3-1 .5-1.5.8.8 2.9 1.7 5.8 2.5 8.4-4.3-.6-4.3-.6-5.9-15.2-2.3 3-3.7 5.1-5.4 7-1.3 1.5-2.9 2.7-4.4 4.1-1.1-2.8-3.6-5.9-3-8.3.8-3.3 3.5-6 8.4-5 5.6 1.1 10.9.3 16.6-2.3 9.3-4.3 19.1-8.1 29.7-7.6 6.7.3 13.4.6 20 1.8 6.5 1.1 16.7 12.8 17 19 .1 1.3-1.7 2.7-2.9 4.6-.9-1.5-1.3-2.2-1.7-2.9-3.2-5.6-6.9-5.6-10.3-.1-1.2 2-2.8 3.7-4.2 5.5-1.9-2.3-4.6-4.2-5.5-6.8-1.5-4.6-5.5-2.4-7.9-3.9-.6 1.3-1.6 2.6-1.6 3.9 0 1.4 1.1 2.8.9 4.9-3-2.2-6-4.5-9.1-6.7-.5.1-1.1.2-1.6.3.2 2.3.5 5 .9 8.9zM290.1 334.7l21.9 1.2c5 .3 10.1.5 15.1 1.1 1.4.2 3.1 1.3 3.9 2.5.4.5-.8 2.6-1.8 3.4-5.8 5.2-6.4 14.8-1.3 20.2.7.7.7 2.7.2 3.7-2 3.9-4.2 7.7-6.5 11.5-1.8 2.9-3.5 5.7-8.1 3.6-3.5-1.6-7.7-1.5-11.5-2.6-1.5-.4-3.6-1.6-4-2.9-1.5-4.9-3-9.9-3.4-15-.5-6.1-.9-11.8-4.9-17.1-1.7-2.3-1.8-5.9-2.2-8.9-.1-.5 1.7-1.3 2.6-1.9-.1.4 0 .8 0 1.2zM361.1 308.6c2.5-6.1 5.3-13 8.1-20 4.4 4.2 8.2 3.6 10.4-3.1.2-.5 2.1-.9 2.2-.7 1.5 2.6 3.9 5.2 3.9 7.8.1 6.2-8 14.9-14.4 15.9-3.8.6-7.6.1-10.2.1zM277.2 358.7c8.3 5.5 9.8 14.4 12.2 23.4-1.8.3-3.1.3-4.2.8-8.3 3.6-8.9 3.5-12.1-4.7-1.2-3-2-6.1-2.6-9.2-.8-3.9 1.4-7 6.7-10.3zM337.7 394.8c-3.4-2.1-6-3.8-8.8-5.3-4-2.1-5.2-4.9-3.1-9.1 1.6-3.3 2.7-6.9 4.3-10.3 1.8-3.7 5.3-3.9 7.8-.6 6.8 8.5 2.5 16.8-.2 25.3zM350.9 371.7c-1.4-.1-3.1.3-3.8-.4-4.6-4.3-9.7-8.4-13.2-13.5-1.7-2.6-.3-7.2-.3-10.9.4-.2.9-.5 1.3-.7 1.8 2.2 3.7 4.4 5.5 6.7 2.3 3 4 7 7 8.8 4.4 2.7 3.7 6 3.5 10zM371.3 356.8c2.1 5.4-1.4 9.2-4.2 13-.3.5-3.8-.2-4.2-1.1-1.5-2.8 4.9-11.3 8.4-11.9zM290.7 385.3c3.5 2.2 3.6 5.6 1.2 7.4-3.5 2.6-7.4.9-11.3-2.7 3.6-1.7 6.8-3.2 10.1-4.7zM322.7 392c2.9 2.1 5.8 4.1 8.7 6.2-2.6 3.7-5.5 2.8-7.6.8-1.5-1.4-1.9-3.9-2.8-5.8.6-.5 1.2-.8 1.7-1.2zM529.4 286.8c-1.1-.3-2.3-.4-3.2-1-7.6-5-15.1-10.2-22.7-15-9.7-6.1-13.5-4.1-21.3 1.4-4.2 2.9-7.4 7.9-9.8 12.5-3.7 7.3-1.8 12.8 6.6 19.4 7.2 5.7 15.1 10.6 22.6 15.9.7.5 1.5 1.1 2 1.5-2.3 6.1-6.1 2-7.7.9-7.9-5.2-15.5-11-22.9-16.9-9.2-7.3-8.7-14.7-4.9-22.5 4.1-8.4 10.9-15.3 20.2-18.2 3-1 6.8-.8 9.8.2 12.5 3.9 21.8 12.9 32 20.4-.3.4-.5.9-.7 1.4zM418.5 41c1.2-3.1 2-5.1 3.4-8.8 1.8 3.8 3 6.3 4.6 9.4-3-.2-5.2-.4-8-.6z" fill="#fff"/>
  <path d="M334.9 317.1c-4.5-.8-8.6-1-12.5-2.3-1.7-.6-3.8-3.4-3.8-5.1 0-1.8 2.6-5.1 3.8-5 5.6.5 11.2 1.6 16.6 3.3 1.4.4 3.3 3.7 2.9 5.2-.6 2.4-2.2 5.3-6 3.7-.3-.3-.9.2-1 .2zM329.1 288.9c.2 2 .3 3.9.5 6.5-2.4 2.2-5.5 1.9-7.5-1.3-.9-1.5-.8-4.8.3-6.3 2.4-2.9 5.3-2.2 6.7 1.1zM334.2 288.8c2.2-1.3 4.2-3.3 5.1-2.8 1.7.8 4.1 3.2 3.9 4.4-.5 1.9-2.9 3.4-4.4 5-1.5-1.9-2.8-3.9-4.6-6.6zM314 283.3c5.7 5 5.9 6.6 1.5 10.9-6-3.7-6-3.7-1.5-10.9z"/>
  <text transform="translate(69.622 54.432)"><tspan x="0" y="0" font-family="Peanuts" font-size="35">UH</tspan><tspan x="-16.2" y="42" font-family="Peanuts" font-size="35">HUH..</tspan></text>
  <text transform="translate(187.448 54.431)"><tspan x="0" y="0" font-family="Peanuts" font-size="35">IT SOUNDS A LOT</tspan><tspan x="0" y="42" font-family="Peanuts" font-size="35">LIKE THE ONE YOU</tspan><tspan x="0" y="84" font-family="Peanuts" font-size="35">WROTE LAST CHRISTMAS</tspan></text>
</svg>
