<svg xmlns="http://www.w3.org/2000/svg" viewBox="0 0 595.3 470" xml:space="preserve">
  <path fill="#fff" d="M0 0h595.3v470.4H0z"/>
  <path d="M595.3 6.7v2.2c-.7 2.2-2.1 4.4-2.1 6.6 0 21.9.4 43.9.4 65.8 0 28-.3 55.9-.6 83.9-.2 17.9-.7 35.8-1 53.8-.4 23.8-.8 47.6-.9 71.4 0 14.3.7 28.6.8 42.9.1 13.9-.3 27.8-.5 41.8-.3 28.1-.5 56.2-.7 84.3 0 4.3-1.1 6.8-6.5 6.8-27.7-.4-55.3-.3-83-.5-18.8-.2-37.6-1-56.3-1-64.3-.1-128.6 0-192.9-.1-20 0-40-.7-60-.9-15.2-.1-30.4.1-45.6.1-9.3 0-18.7 0-28-.4-2.7-.1-5.5-1.8-8.2-1.7-4.3.1-8.6 1.7-12.9 1.6-20.1-.4-40.1-1.2-60.1-1.9-10-.3-19.9-.9-29.9-1.2-3.2-.1-3.6-1.3-3.5-4.4.5-11.7.4-23.4.6-35 0-2.1.5-4.1.9-6.6h-.8c0-9.6-.1-18.8 0-28.1.1-5 .5-9.9.6-14.9.2-6.9.6-13.8.5-20.7-.1-5.6-1.2-11.3-1.2-16.9 0-11.3.5-22.7.8-34 .2-8.2.1-16.5.2-24.7.2-11.5.9-23.1.9-34.6 0-15.6-.6-31.2-.9-46.8-.1-5.4 0-10.9 0-16.3 0-6 0-11.9.2-17.9.3-7.6 1.3-15.2 1.3-22.8.2-16.6-.1-33.2-.1-49.7 0-10 .6-20 .6-30 0-7.1-1-14.3-.8-21.4.5-8.4 2.1-16.7 1.9-24.9C8.4 5.3 10.2 5 14.1 6c.7.2 1.4.6 2.1.6 8.9-.2 17.8-.3 26.7-.6 11.3-.4 22.7-1.1 34-1.5 7.3-.2 14.6 0 22 0 6.8 0 13.5-.1 20.3 0 4.8.1 9.6.8 14.4.6 8.3-.4 16.6-1.7 24.9-1.8 12.1-.2 24.3.6 36.4.6 18.5 0 36.9-.5 55.4-.5 23-.1 46.1 0 69.1 0 13.5 0 27-.1 40.4 0 7.7.1 15.5.9 23.2 1 14.8.2 29.5.1 44.3.1 52.3 0 104.5 0 156.8.1 3.8 0 7.5 1.3 11.2 2.1zm-8.9 133.2c-1.1-.1-1.8-.3-2.2-.1-15 6.3-30.8 8.6-47 9-16.3.4-32.7 1.5-49 1.9-13.2.3-26.3 0-39.5-.1-4.7-.1-9.3-.4-14-.9-5.5-.6-10.9-1.8-16.4-2.4-5.5-.5-11.2-.2-16.7-.9-9-1.2-18-2.6-26.8-4.7-7.1-1.7-14.1-4.1-20.8-6.9-3.2-1.3-5.7-2-9.2-.4-5.7 2.6-11.8 4.1-17.6 6.5-14.5 5.9-28.9 12.1-43.4 18.1-1.2.5-2.7.2-4.1.3.7-1.4 1.1-3.2 2.3-4 3.4-2.3 7.2-4.1 10.7-6.2 13.6-8 27.1-16.1 41.1-24.4-1.7-1.2-3.1-2.4-4.7-3.3-9.8-5.9-15.1-15.6-19.7-25.3-6.8-14-5.4-28.8-.4-42.8 4.7-13.1 11.7-25.2 22.2-34.8 2.9-2.7 5.3-5.9 8.6-9.5h-40.4c-7.8 0-15.6-.2-23.3.3-1.6.1-4.3 2.9-4.2 4.4.2 10.4.9 20.8 1.5 31.2.3 5.4-2.7 8.4-8.3 8.5-24.9.3-49.8.8-74.7 1.1-33.8.3-67.6.5-101.5.7-17.9.1-35.8.2-53.8.5-6.9.1-13.8.6-21.4.9.1-.3-.3.7-.4 1.7-.4 8.4-.6 16.9-1 25.3-.3 5.6-.9 11.2-.9 16.8.1 12.8.7 25.5.7 38.3 0 8.9-.9 17.7-1 26.6-.2 16.3 0 32.6-.1 48.8 0 10.9-.1 21.7-.1 32.6 0 17.8.1 35.7.1 53.5 0 17.4.1 34.7-.1 52.1-.1 13.5-.9 27.1-1 40.6-.2 18.9.4 37.9-.3 56.8-.2 5.4 1.9 5.8 5.5 6.1 3.5.3 7 0 10.5.1 13.7.2 27.3.3 41 .7 12.3.4 24.6 1.2 36.9 1.7 2 .1 4.7-1.4 6.1-.5 4.7 3 10.4 1.7 14.4 1.1 7.7-1.3 15.1-1.7 22.7-.9 3.3.3 6.7 1.2 10 1.2 3.9-.1 7.9-1.3 11.8-1.3 7.9 0 15.7.6 23.6.9 2.2.1 4.5-.5 6.7-.4 4.1.2 8.1 1 12.1 1 5.5 0 11-.8 16.5-.8 3.4 0 6.8 1 10.3 1 31.4 0 62.8 0 94.2-.2 14.8-.1 29.7-.8 44.5-.7 13.6 0 27.2.8 40.8 1 5.7.1 11.4-.6 17.1-.6 11.6.1 23.3.6 34.9.7 14.7.1 29.4-.1 44 .1 11.7.1 23.4.8 35.1.9 9.7.2 19.5.2 29.2-.2 2.6-.1 6.5.1 6.7-4.6.3-9.1.9-18.1 1-27.2.2-11.9 0-23.8 0-35.6v-42.1c0-23.7-.1-47.4 0-71.1.1-13 .9-25.9 1-38.9.2-22.4.1-44.8.1-67.2.1-11.9.1-22.9.1-34zm-266.5-1.5.3.9c9-3.5 18-7.1 27.1-10.3 2.1-.8 4.8-.9 7-.3 6.2 1.8 12.2 4.7 18.4 6 11.8 2.5 23.8 4.4 35.8 6 7.3 1 14.8.8 22.2 1.3 13.9 1 27.9 2.8 41.8 2.9 16.1.1 32.2-1.8 48.3-1.7 21.3.1 41.9-3.6 62.3-9.1 1.3-.4 3-2.5 3-3.8.2-6.8-.2-13.7 0-20.5.4-13.2 1.2-26.5 1.4-39.7.2-14.8 0-29.7-.2-44.5 0-1.5-.6-3.6-1.7-4.4-7.2-5.7-14.3-11.9-24.2-11.9-7.8 0-15.5.7-23.3.8-13.6.1-27.3.1-40.9 0-6.6-.1-13.2-1-19.8-.9-9.1.1-18.3 1.4-27.4 1.3-18.1-.2-36.2-1.3-54.3-1.4-15.8-.3-31.8.4-47.7.9-2 .1-4.4.9-5.9 2.2-3.4 3.1-6.4 6.7-9.4 10.3-9 10.9-16.6 22.6-19.8 36.6-5.9 25.4 4 47.5 24.3 61.2 3.1 2.1 3.9 3.8.3 6.2-5.9 3.9-11.7 7.9-17.6 11.9zM119.5 13.9c-.1-.1-.2-.3-.3-.4-.1.1-.4.2-.4.4 0 .1.2.4.3.4.2-.1.3-.3.4-.4z"/>
  <path d="M595.3 6.7c-3.7-.7-7.4-2.1-11.1-2.1-52.3-.1-104.5-.1-156.8-.1-14.8 0-29.5.1-44.3-.1-7.7-.1-15.5-.9-23.2-1-13.5-.2-27 0-40.4 0-23 0-46.1-.1-69.1 0-18.5.1-36.9.5-55.4.5-12.1 0-24.3-.8-36.4-.6-8.3.1-16.6 1.4-24.9 1.8-4.8.2-9.6-.5-14.4-.6-6.8-.1-13.5 0-20.3 0-7.3 0-14.7-.2-22 0-11.3.3-22.7 1-34 1.5-9 .3-17.9.4-26.8.6-.7 0-1.4-.4-2.1-.6-3.9-1-5.7-.7-5.6 4.5.2 8.2-1.4 16.5-1.6 24.7-.2 7.1.8 14.3.8 21.4 0 10-.6 20-.6 30-.1 16.6.2 33.2.1 49.7-.1 7.6-1 15.2-1.3 22.8-.3 6-.2 11.9-.2 17.9 0 5.4-.1 10.9 0 16.3.3 15.6.8 31.2.9 46.8 0 11.5-.7 23.1-.9 34.6-.2 8.2-.1 16.5-.2 24.7-.2 11.3-.7 22.7-.8 34 0 5.6 1.1 11.3 1.2 16.9.1 6.9-.3 13.8-.5 20.7-.2 5-.6 9.9-.6 14.9-.1 9.2 0 18.5 0 28.1h.8c-.3 2.5-.8 4.5-.9 6.6-.2 11.7-.1 23.4-.6 35-.1 3.1.2 4.3 3.5 4.4 10 .3 19.9.8 29.9 1.2 20 .7 40.1 1.5 60.1 1.9 4.3.1 8.6-1.5 12.9-1.6 2.7-.1 5.4 1.6 8.2 1.7 9.3.3 18.7.4 28 .4 15.2 0 30.4-.2 45.6-.1 20 .2 40 .9 60 .9 64.3.1 128.6 0 192.9.1 18.8 0 37.6.8 56.3 1 27.7.3 55.3.2 83 .5 5.3.1 6.4-2.5 6.5-6.8.2-28.1.4-56.2.7-84.3.1-13.9.5-27.8.5-41.8-.1-14.3-.8-28.6-.8-42.9.1-23.8.5-47.6.9-71.4.3-17.9.8-35.8 1-53.8.3-28 .5-55.9.6-83.9 0-21.9-.4-43.9-.4-65.8 0-2.2 1.4-4.4 2.1-6.6v461.1H.3C0 313.3 0 156.7 0 0h595.3v6.7z" fill="#fff"/>
  <path d="M119.5 13.9c-.1.1-.3.3-.4.3-.1 0-.3-.2-.3-.4 0-.1.2-.2.4-.4.1.2.2.3.3.5z" fill="#fff"/>
  <path d="M253.2 374c10.5-.2 21-.3 31.5-.5.8 0 1.8-1.2 2.2-2.1 3.1-6.1 11.6-9.8 18-8 5.1-9.3 10.3-18.8 15.4-28.2 1.9-3.5 4.3-6.8 5.4-10.5.7-2.5-.2-5.6-.9-8.4-1.7-6-4.5-11.8-5.4-17.9-1.2-8.3 5.1-12.4 14.6-9.9 5.2 1.4 10.3 3.4 15.3 5.3 4.3 1.6 4.3 1.7 7.5-2.5-5.5-2.1-10.8-4.6-16.4-6.3-12.2-3.6-20.8-12.2-29.6-20.5-2.1-2-3.3-2.6-6.3-2-5.5 1-14.5-4.3-16.2-10.7-1.4-5.3 3-8.3 6.3-11.1 2-1.7 4.8-2.5 7.3-3.6 2.9-1.2 5.2-2.2 5.3-6.4 0-2 3.7-3.7 5.3-5.8 1.1-1.5 2.4-3.7 2-5.1-1.8-6.6-2-13.8-9-18.2-3.3-2.1-5.4-6.3-7.8-9.7-3.3-4.7-1.3-9.2 1.6-12.9 7.8-9.7 18.4-11.9 30.4-10.5 5.9.7 12.2 0 18-1.3 13.4-3.2 26.5-8.5 40.1-10.3 8.9-1.2 18.7 1.6 27.7 4.1 16.3 4.5 26.6 15.7 32.5 31.5 5.3 14.2.9 26.9-5.6 39.3-1.5 2.9-4.6 5.1-6.2 8-.9 1.6-.3 4.1-.1 6.1.1.9 1.6 1.9 1.4 2.5-2.4 8.1 1.8 14 6.2 19.9 2.9 3.8 1.2 7.5-1.4 9.7-6.8 5.8-15.8 8.7-23.3 0-.6-.7-1.3-1.3-2-1.9-8.4 6-16.7 11.9-25 17.7.3.5.6 1 .8 1.6 2.1-1 4.8-1.4 6.2-3 3.2-3.4 6.6-4.8 10.9-3 8.2 3.4 17.1 6.1 17.7 17.4.1 1.1 2 2.6 3.3 3.1 5.2 1.8 10.5 3.3 15.8 5 1.7.5 3.6 1.1 4.7 2.2 7.3 7.4 17 12.7 20 22.7-7.8 10.6-7.6 22.7-10.5 34.6 5.6-1.7 10.3-2.9 14.8-4.4 4.2-1.4 7.7-1.4 10.8 2.4 3.3 4 .5 7.1-1.2 10.3-.4.7-1 1.4-2.2 3.2 9.9 0 18.8-.3 27.7.1 7.7.3 15.5 1.4 23.1 2.4 1.4.2 2.4 2.2 3.8 3 1 .6 2.3.9 3.4.8 4.8-.3 9.7-.7 14.7.2-6.7 3.1-14 3.1-22.4 3.7 3 .8 4.8 1.2 7.7 2-1.8 1.1-2.5 2-3.3 2-9.8.3-19.7.4-29.5.6-5.1.1-10.2.5-15.3.6-5.7.2-11.4.2-17 .5-9 .4-18.2 2.6-26.9 1.1-7.6-1.3-13.6 1.2-20.4 2.6-16.7 3.5-33.2-.7-49.6-4-6.3-1.3-12.7-3-18.2-6.1-3.4-1.9-5.5-6.5-7.6-10.2-3.3-5.8-2.9-5.6-8.7-2.2-1.9 1.2-5 .6-7.6.5-3.3-.1-5.5.1-7 4.2-1.1 3.1-4.6 6.1-7.7 7.6-6.8 3.3-11.1-.7-9.8-9.3-1.8.1-3.5.1-5.1.4-5 .8-9.9 2-14.9 2.5-1.5.1-4.3-1.6-4.6-2.9-1.6-7-5.7-9.6-12.8-9.2-12.7.7-25.5.8-38.2 1.2-1.4 0-2.9-.1-4.5-.2 1.8-3.1 1.8-2.9 9.7-2.7 4.2.1 7.7-.7 11.1-1.1.1 0 0 0 0 0zm127-153.5c-2.8-2.8-5.5-5.6-8.2-8.2-10.6 8.6-17.8 7.6-26.8-1.9-3.7-.3-6.7-.4-9.6-.7-2.6-.3-5.3-1.1-7.9-1.2-2.7-.1-5.5.3-8.2.5.5 3.6 1 7.2 1.6 10.7 0 .2.2.3.2.5 2.7 7.4.6 13.8-5.2 18.4-6.8 5.3-8.1 14-.8 21.6 4.5 4.7 9.8 8.7 14.9 12.9 11.3 9.3 25.4 11.5 38.9 13.1 8.4 1 17.5.5 26.4-1.8 9.6-2.5 20.6-10.1 22.8-19.2 1.2-5.1 3.8-7.5 8.9-8.1 3.1-.4 6.2-1.2 5.7-5.7-.8-7.4-1.9-8.3-9.8-5.8 1-2.3 1.7-4 2.1-4.9-4 0-8.6 1.1-12.2-.3-5.9-2.2-1.7-6.9-.8-9.6-2.4-1.6-4.3-2.9-6.1-4.1 2.2-2.7 4.4-5.5 6.6-8.2-4.1-1.3-8.8-4.3-13.7-.4-4.9 3.9-10.4 4.4-16.3 3.7-1-.5-1.7-.9-2.5-1.3zm-10.3 167.7c-.4-.7-.7-1.3-1.1-2l42.9-30c-.3-.4-.6-.9-.9-1.3-16.7 8.3-33.4 16.6-50.4 25.2.3-1 .2-1.7.5-1.9 9.1-5.6 18.1-11.6 27.5-16.6 7.7-4.1 16.1-7 24-10.7 7.4-3.5 9.1-11 4.7-17.7-2-3-3.6-6.3-5.3-9.5-3.8-7.5-1.9-12.5 6-15.8 1.7-.7 3.7-.9 5.7-1.3-.9-6.7-4.9-10.3-10.9-11.5-4.9-1-10.5-4-14.3 2.6.9 1 1.8 2.2 2.6 3.2-5.5 7.9-14 9.7-21.8 12.7-1.5.6-4.8-.7-5.8-2.2-1.8-2.8-3.3-2.2-5.3-1-3.8 2.3-6.9.3-8.3-2.6-3-6.2-8.9-8.7-14.1-11.5-4.9-2.6-11.1-2.8-16.7-3.7-4.3-.7-6.5 1.6-5 5.6 3 8.2 6.5 16.3 10.4 24.1 1.1 2.1 4.7 3 6.9 4.3 1.6-2.9 2.5-4.6 3.9-7.4.8 8 1.7 14.4 2.2 20.8 1.2 15 5.5 29.3 11.2 43.1 1.5 3.7 5.3 7.6 8.9 9.2 5.6 2.5 12 3.2 18.1 4.6 1.8.4 3.7.5 5.5.8 0-.5.1-.9.1-1.4-1.8-.4-3.5-.7-5.3-1.1 0-.6.1-1.1.1-1.7 8.3-2.1 16.7-1.3 25.7 1-5.5 5.7-12.9-.5-18.9 4.1 8.5.7 16.2.7 23.6 2.1 5.3 1 5.1-1.1 4.6-4.6-2.9.6-5.6 1.2-8.3 1.8-.1-.5-.3-1-.4-1.6 1.6-.5 3.3-.8 4.8-1.6 2.2-1.3 4.9-2.5 6.2-4.4 2.8-4.1 4.9-8.7 7.2-13.1 1.2-2.3 2.2-4.7 3.8-8.2-10.4 3-16.8-2.3-23.7-7.5-13.3 8.7-27 17.7-40.6 26.7zm-52.2 2.7c3.7.6 5.7.6 7.4-3.1 4.7-10.4 10.1-20.6 15.3-30.8 1.1-2.3 3.1-4.6 3.2-6.9.1-5.7-.6-11.5-1-17.2-5.5-.3-10.4-.5-15.2-.8-5.2 9.3-10.4 18.8-15.8 28.2-2 3.6-3 8-8.9 8.2-2.4.1-5.7 3.5-1.9 8.1-4.7.2-8.5.4-12.3.6 0 .6 0 1.1.1 1.7h14c0 .4.1.8.1 1.2-3.2 1.2-6.4 2.3-9.6 3.5 9.3 2.5 18.7-7.8 27.4 1.6-1.1 1.9-1.8 3.6-2.8 5.7zm123.6-29.3c0-3.2-1-6.4.2-8.3 3-5.1 6.7-10 10.7-14.4 6.7-7.5 6.3-13-2.9-17.6-5.2-2.6-11.1-3.7-16.6-5.8-8-3-12.4-1.9-18.1 4.7 2.4 4 4.8 8 7.3 12.1 2.7-3.9 5.4-7.9 8.1-11.8.6.3 1.1.6 1.7.9-5.4 13.1-10.7 26.2-16.1 39.3.6.3 1.3.7 1.9 1 1.2-2.3 2.5-4.7 3.6-6.9 4.3 2.4-.6 9.6 6 11.2v-7.8c.4-.2.8-.4 1.2-.7 1.8 2.4 3.5 4.8 5.7 7.6.3-3.3.5-5.7.8-8.6 2.8 2.3 4.7 3.7 6.5 5.1zm-3.2 8.2c2.8 8.3 7.8 3.9 11.3 2.2 3.6-1.7 7.5-4.5 9.2-7.8 2.3-4.6 2.6-10.1 3.7-15.2.2-1 0-2 0-2.8-4 2-7.5 3.6-10.8 5.6-2.2 1.3-5.6 3.2-5.7 4.9-.1 5.1-1.1 8.9-6.4 10.6-.7.3-1.1 2.1-1.3 2.5zm-4 5.8c-2.7 8-8.7 15.1-5.2 24.4 11.2-3.4 13.7-6.3 13.4-15-.2-5.1-2.8-8.3-8.2-9.4zm28.4 15.1.9 1.8c5.3-2.9 11-5.4 15.9-8.9 2.5-1.8 3.7-5.4 5.6-8.4-10.2-4-14.3-.9-22.4 15.5zm-100-98.6c-.4 5.1 2.9 6.8 7 7.1 4.2.3 8.5.2 12.7.1 5.4-.1 6.7-2.2 5-7.2h-24.7zm-13.3 84.2c-1.6-5.8-3.2-11.8-5.1-18.7-3.5 6.5-6.5 12-9.7 17.8 5.3.3 9.8.6 14.8.9zm113.4-43.9c-5.6 5.9-10.8 11.4-16 16.9.3.4.7.8 1 1.3 5.9-3.8 11.8-7.6 18.1-11.6-.9-1.9-1.9-4.1-3.1-6.6z"/>
  <path d="M147.3 133.1c-4.8.4-9.8 0-14.3 1.3-6.7 1.9-13.5 4.2-19.5 7.7-4.2 2.4-7.5 6.8-10.7 10.8-4.8 6-9.6 12.1-13.3 18.8-5.4 9.7-8.2 20.2-6.5 31.7 1 7.2-.7 15.1 1.6 21.8 6 17.4 14.8 32.8 32.3 42.1 16.2 8.5 33.3 12.4 51.2 11.8 8.4-.3 16.7-4 24.9-6.5 2.2-.7 1.9-2.8.1-4.7-2-2-3.7-4.5-5.5-6.8 3.2-2 6.2-5 9.6-5.9 8-1.9 16.3-3.1 24.5-4 5.4-.6 6.3-3.5 5.8-8-.5-4.9 1.8-7.1 6.9-6.8 1.2.1 3.7-1.4 3.7-1.8-.5-2.8 2.7-7.6-1.5-8-9.6-1-8.1-8.6-9.1-14.2-1-5.8-1.9-7.1-7.8-5.8-.9.2-1.7.5-3.6-.3 1-1.1 1.8-3 3-3.3 2.3-.5 4.8-.2 8.4-.2-2.3-8.3-4.8-17.1-7.3-26 .5-.3 1-.5 1.4-.8 1.1 1 2.7 1.9 3.2 3.1 3 7.5 7.5 14.5 7 23.1-.3 4.9.3 9.9 1.2 14.7.3 1.7 2.1 4.1 3.7 4.5 5.8 1.5 7.6 5.4 7.1 10.6-.5 5.1-3.1 8.6-8.8 9.1-1.2.1-2.9 2-3.2 3.4-1.9 9.5-5 12-15.1 12.6-6.9.4-13.7 1.3-20.6 2.2-1.2.2-2.2 1.5-3.2 2.3 1 1 1.9 2.5 3.2 3.1 2.6 1 5.3 1.5 8.7 2.4-7.7 10.1-18.7 12.2-28.7 17.4 5.6 8 11.2 16.1 16.7 24.2 1.8 2.7 2.7 5.3 2.3 9.2-.4 3.6 3 8.2 5.7 11.4 3 3.5 6.5 6.2 5.5 11.6-.2 1.2 1.8 3.1 3.2 4.1 8.4 6.5 9.4 9.4 6.7 20.2-1.6 6.5-.4 7.7 6.1 7 9.4-1 18.9-1.8 28.4-2.2 8.6-.4 17.2-.1 26.8-.1-1.3 1.1-1.9 2.1-2.5 2-5.7-.2-11.4-.7-17.2-.7-1.5 0-3.1 1.5-4.6 2.3l.1.1c-3.9-.5-7.7-1.4-11.6-1.4-5.7 0-11.5.5-17.2 1-3 .2-6 .9-9.1 2.6 12.5 1 25 2.1 37.6 3.2-.6.4-1.6 1.7-2.7 1.8-4.9.6-9.8 1.3-14.7 1.1-3.2-.1-6.9 2.1-9.8-2.8-1.8-3.1-12.9.4-14.7 4.2-5.2 11.2-15.3 17.5-24.9 24.1-3.2 2.2-7 3.6-10.8 4.8-2.3.8-5 .6-7.5.9-1.4.2-3 .2-4.1.9-8.2 5.7-16.2 5-25.6 2.1-7.4-2.3-14.3-4.7-20.8-8.9-1.6-1-4.5.1-6.8.1-9.1.1-18.1.1-27.2.1-3.4 0-6.9 1-9.8-2.8-1.2-1.5-5.2-1.3-7.9-1.2-5.3.2-10.6 1-16 1.3-3 .2-6.1.4-9.1 0-2.4-.3-5.4-1.2-2.2-4.7-5.6-.5-11.7 3-16.3-3.3-.9-1.3-4.4-.9-6.7-1.2-.1-.8-.2-1.7-.3-2.5 3.6-1.2 7.9-1.5 10.6-3.7 8.2-6.9 17.7-2.7 26.5-3.9 3.4-.5 7 .2 10.4-.4 1.5-.3 3-2.2 3.8-3.7 2.5-4.7 4.7-9.6 6.9-14.5.5-1.1 1.3-2.8.8-3.5-3.9-6.5 1.5-10.9 4-15.2 6.4-10.8 14.1-20.8 20.8-31.4 5.4-8.6 10-17.6 15.3-26.3 1.9-3.2 4.4-6.3 7-9 2.9-3 1.7-4.9-1-6.6-3.3-2.1-7.2-3.5-10.1-6.1-6.9-6-14.3-11.9-19.8-19-5-6.6-8.6-14.6-11.6-22.4-3.6-9.6-3-20-2.1-30 1-11.1 4-21.8 10.2-31.2 2.8-4.2 6.3-8 9-12.3 1-1.5.5-4 .8-6 .3-2.3.1-5.1 1.3-6.6.7-.9 3.9.2 6 .3 1.2.1 2.4 0 3.7 0 .6-.7 1.2-1.4 1.8-2.2 1 0 2.4.4 2.9-.1 7.4-7.1 16.4-10.2 26.4-11 2.5-.2 4.9-.6 7.4-.9-.8 2.4 5.4 3.1 1.2 5.8zm-30.8 197.4c3.6-1.4 7.1-2.8 12-4.7 2-5.2-2.1-13.2 1.6-19.7.6.1 1.1.1 1.7.2l2.4 24c.6.1 1.3.3 1.9.4 2.9-2.2 5.8-4.4 7.3-5.6 3.1 0 5 .5 6.6-.1 2.6-1 4.1-1 6.5 1.1 4.1 3.5 8.6 7.6 14.9 4.2 1.3-.7 3.3-1.6 3.5-2.7.9-4.8 1.2-9.6 1.8-14.4.4-2.7 1-5.4 1.5-8.1.5 0 1.1.1 1.6.1v14.5c2.6-1.3 4.6-2.9 6.8-3.4 3.9-1 3.6-2.7 1.8-5.4-2.8-4.2-5.5-8.5-8.4-12.7-.5-.8-2-.8-1.5-.7-2 4.6-2.8 9.4-5.6 12.5-3.4 3.9-4.9-2.6-8.4-3.1-2.2 2.5-4.6 5.3-8.1 9.2-.2-2.9-.7-4.5-.2-5.4 2.1-3.7.3-5.1-2.5-7.4-7.3-6-14-12.7-21-19.1-.7-.6-1.7-.9-2.6-1.4 2 5 4.9 9.2 7.4 13.7 2.1 3.8 3.3 8.4 9.3 7 .5-.1 1.1.6 1.7 1-6.4 6.2-9.8 5.6-13.3-1.6-3.3-6.6-7-13.1-11.1-20.6-9.6 15.8-20.8 29.1-23.8 46.2 1.7 1.2 2.9 2.1 4.7 3.4 2.2-.7 5.6-1.8 8.9-2.8.9.6 1.7 1 2.6 1.4zm55.1 34.7c-.4-3.1 0-5.5-1-7.3-1.8-3.5-3.8-8.7-6.5-9.3-3.3-.7-5.5-1.3-7.9-3.8-2-2-4.9-3.3-7.6-4.5-3-1.4-6.5-1.9-9.4-3.5-4.8-2.6-8.9-6.1-15.2-3.5-3.4 1.4-7.7 1.2-11.5 1.4-4.4.2-9.9-1.4-12.9.7-2.3 1.6-1.5 7.7-2.2 11.8-.1.3-.6.7-.5 1 .9 3.1-.1 7.3 5 7.8 7.1.6 14.2 1.9 21.3 2 10.1.1 20.2-.7 30.2-.9 1.6 0 3.4.4 4.9 1.1 4.4 2.1 8.5 4.4 13.3 7zm-2.6 45.2c4.3-1.2 7.6-1.4 10.1-2.9 6.4-4 12.8-8.2 18.7-12.9 9.8-7.8 14.5-23 10.5-33.3-1.4-3.6-3.3-7.3-8.2-6.5-4.3.6-8.8 8.4-8.6 12.8.2 4.2 2.9 8.9-1.6 12.5-2.8 2.2-5.3 5-8.5 6.3-11.1 4.4-9.2 14.8-12.4 24zm-1.4-12.4c.7-8-1.3-13.3-10.6-16.2-7.1-2.2-14.3-.2-21.1 2.7-5 2.1-6 5.5-4 10.5 1.4 3.5 2.4 7.2 3.2 10.8.7 3.2 2.3 5.1 5.7 5.5 3.7.4 7.3 1.3 11 1.5 13 .5 11.3 0 14.9-7.3 1.2-2.1.7-5 .9-7.5zm2.5-65.3c0 5.8-.8 10.2.2 14.2 2 8.6 9.6 12.5 18.1 9.5 3.3-1.2 6.1-3.8 9.2-5.7 6.9-4.4 7.5-9.7 2.1-16.3-2.2-2.7-5-5.2-6.6-8.3-3.5-6.8-4.7-7.3-10.4-2.7-.8.7-1.3 1.8-1.9 2.7 1 .7 2.4 2.1 3 1.8 4.3-1.9 5.1 1.6 7.9 4.8h-21.6zm-36 47.1c.4.3.8.6 1.3 1 9.6-4.7 19.2-8.8 29.3-.9.6.5 3.5-.6 4.1-1.6 2.2-3.7 3.1-7.3-2.3-9.6-2.8-1.2-4.9-4.2-7.7-4.9-3.7-1-9.4-2.5-11.5-.7-5.2 4.5-8.9 11-13.2 16.7zm9.5-92.7c4.5 4.7 9.6 10.2 14.9 15.5.6.6 3.1.8 3.4.3 2.8-4.1 5.4-8.4 7.6-11.9-9.5-1.5-18.3-2.8-25.9-3.9zm-63.7 73c2.4-1.3 4.1-2.6 6.1-3.3 7.4-2.7 8-4 4.3-11.1-.7-1.3-1.1-2.7-1.8-4.3-9.9 9.8-11.6 14.4-8.6 18.7zm46.8 30.1c-6.2 2.3-9.2 6.2-7.9 10.4 1.2 3.9 6.2 6.4 11.1 5.4-1.1-5.2-2.1-10.3-3.2-15.8zm46.2-.5c2-5.7 3.6-10 5.5-15.4-7 2-9.9 9.6-5.5 15.4zm-121.8 9.1h20.5c-2.3-2.2-12.9-3-20.5 0zm122.7-105.6c-.6-.3-1.1-.7-1.7-1-1.6 3.4-3.3 6.8-4.6 10.3-.2.4 2.1 1.8 3.7 3 1.1-4.7 1.9-8.5 2.6-12.3zM159.6 344c.9.8 1.8 1.5 2.7 2.3 1.7-2.3 3.4-4.6 5-7-1.1-.8-2.1-1.5-3.2-2.3-1.5 2.4-3 4.7-4.5 7zm16.1 17.5c.6 2.6 1.2 4.9 1.7 7.2 2.4-1.5 4.7-3.1 7.1-4.6l-.9-1.2c-2.2-.5-4.5-.8-7.9-1.4zm-20.2-21.7c2.1-2.3 4.2-4.5 6.4-7-5.9-2.1-7.4-.7-6.4 7z"/>
  <path d="M147.3 133.1c4.1-2.6-2.1-3.3-1-5.4 7.1 1 14.4 1.3 21.3 3.3 8 2.4 15.8 5.8 23.3 9.6 10.9 5.5 19 14.5 27.4 23.1.9.9 1.3 2.4 1.8 3.6 15.3.8 19.2 4.7 14.4 15.6-1.1-1.2-2.3-2-2.8-3.2-2.8-7.1-3.5-7.5-11.1-6.4-1.1.2-2.8-.3-3.6-1.1-4.8-5.3-9-11.2-14.2-16.1-9.7-9.2-21.2-15.6-34.4-18.6-6.8-1.6-13.9-3-21.1-4.4zM156.3 228.6c-2.9 2.6-5.1 6-9.5 4.2-7.4-3-11.1-7.5-10.3-12.8.8-5.4 2.9-10.7 7.8-12.9 2.7-1.2 6.9.6 10.2 1.5.9.3 1.4 2.3 2.7 4.8-7.8-4-11.3-3.7-13.1.3-1.9 4-2.7 8.5.8 11.2 2.8 2.2 7.2 2.5 11.4 3.7zM220 237.1c-1.8-2.8-1.7-14.3.1-16.3.6-.7 2-1.2 2.8-1 .8.2 1.7 1.4 1.9 2.3 1.6 4.8-.4 10.8-4.8 15zM109.5 139.7c-.6.7-1.2 1.4-1.8 2.2-1.3-6.8 2.3-16.2 6.6-17.4-1.5 5-3.2 10.1-4.8 15.2z"/>
  <path d="M382.5 221.7c5.9.7 11.4.2 16.3-3.7 4.9-3.9 9.6-.9 13.7.4-2.2 2.7-4.4 5.5-6.6 8.2 1.9 1.2 3.7 2.5 6.1 4.1-.9 2.8-5.1 7.4.8 9.6 3.6 1.4 8.2.3 12.2.3-.4 1-1.2 2.7-2.1 4.9 7.9-2.5 9-1.6 9.8 5.8.5 4.6-2.5 5.4-5.7 5.7-5.1.6-7.7 3-8.9 8.1-2.1 9.1-13.2 16.7-22.8 19.2-8.9 2.3-18 2.8-26.4 1.8-13.6-1.6-27.7-3.8-38.9-13.1-5.1-4.2-10.3-8.2-14.9-12.9-7.3-7.6-6-16.4.8-21.6 5.9-4.6 8-11 5.2-18.4-.1-.2-.2-.3-.2-.5-.5-3.6-1-7.2-1.6-10.7 2.7-.2 5.5-.6 8.2-.5 2.6.1 5.3.9 7.9 1.2 2.9.3 5.9.4 9.6.7 9 9.6 16.2 10.5 26.8 1.9 2.7 2.7 5.4 5.5 8.2 8.2-2.5 1.1-5.1 2.2-7.6 3.2 4.4 2.5 8 4.5 12.9 7.4-.5-2.6-.7-4.2-1.2-5.7-.1-1.2-.9-2.3-1.6-3.6zM345.8 236c0-11-6.1-3.6-9.4-3.9-.9-.1-2.8 2.7-2.9 4.3-.3 5.2 3.8 2.5 6.2 3.4 5.2 1.8 6.1-1.3 6.1-3.8zm8.8 2.4c2-1.2 3.3-1.8 4.4-2.7.2-.2-.6-2.2-1-2.2-1.6-.1-3.7-.3-4.9.6-1.3.9-3 3.6-2.5 4.4 1.6 2.8 3.8 5.3 6.3 7.3.6.5 3.2-1.6 4.9-2.6-3-2-5-3.3-7.2-4.8zm20.9-4.8c-3.3 3.7-4.1 7.5-1.8 11.6.2.4 3.4 0 4.4-1 3.3-3.3 2.7-6-2.6-10.6zm-26.5-8.3c3.1-2.9.4-5.2-2.1-7.5-2.9-2.7-5.3-.5-7.4 1.1-.5.4-.4 3 0 3.2 2.9 1.2 5.9 2 9.5 3.2zm14.2 44.3c-3.6-1.5-6.3-2.6-9-3.6-.6-.2-1.5.1-2.3.2.1.8 0 1.9.4 2.3 2.9 2.8 6 4.5 10.9 1.1zm20.5-32.9c-1.1 4.1-2 7.6-3 11 .5.1 1 .2 1.4.3 1.9-3.2 6-6 1.6-11.3zM369.9 388.2c13.6-9 27.3-18.1 40.7-26.9 6.9 5.2 13.3 10.6 23.7 7.5-1.6 3.5-2.6 5.9-3.8 8.2-2.3 4.4-4.4 9-7.2 13.1-1.4 2-4 3.2-6.2 4.4-1.4.8-3.2 1.1-4.8 1.6.1.5.3 1 .4 1.6 2.7-.6 5.3-1.1 8.3-1.8.4 3.5.6 5.6-4.6 4.6-7.4-1.4-15.1-1.4-23.6-2.1 6-4.6 13.5 1.6 18.9-4.1-9-2.3-17.4-3.1-25.7-1 0 .6-.1 1.1-.1 1.7 1.8.4 3.5.7 5.3 1.1 0 .5-.1.9-.1 1.4-1.8-.2-3.7-.4-5.5-.8-6.1-1.4-12.5-2.1-18.1-4.6-3.7-1.7-7.4-5.5-8.9-9.2-5.7-13.8-10-28.1-11.2-43.1-.5-6.4-1.3-12.8-2.2-20.8-1.5 2.8-2.4 4.5-3.9 7.4-2.2-1.3-5.8-2.2-6.9-4.3-4-7.8-7.4-15.9-10.4-24.1-1.5-4 .7-6.3 5-5.6 5.7.9 11.9 1.1 16.7 3.7 5.2 2.8 11.1 5.3 14.1 11.5 1.4 2.9 4.5 4.9 8.3 2.6 2-1.2 3.6-1.8 5.3 1 .9 1.4 4.2 2.7 5.8 2.2 7.8-2.9 16.4-4.8 21.8-12.7-.8-1-1.8-2.2-2.6-3.2 3.9-6.6 9.4-3.6 14.3-2.6 6 1.2 10 4.7 10.9 11.5-2 .4-3.9.6-5.7 1.3-7.9 3.3-9.8 8.3-6 15.8 1.6 3.2 3.3 6.5 5.3 9.5 4.5 6.7 2.8 14.2-4.7 17.7-7.9 3.8-16.3 6.6-24 10.7-9.4 5.1-18.4 11-27.5 16.6-.3.2-.3.9-.5 1.9 17.1-8.5 33.8-16.8 50.4-25.2.3.4.6.9.9 1.3l-42.9 30c.3.9.6 1.6 1 2.2zm4.1-51.5c-.2 4.2 3.2 8.4 5.5 6.5 4-3.5 8.6-1.9 12.8-2.9 4.5-1 9-2.1 13.3-3.6 1-.3 2.2-3.1 1.9-3.5-1.8-2.1-4.1-3.7-7.4-6.6.7 6.3-.8 8.3-5.8 8.3-6.7 0-13.5 1.2-20.3 1.8zm22.6-23.1c-2 2.8-2.8 5.2-4 5.4-6.8 1.1-13.6 1.7-20.5 2.4-1.4.1-2.9-.1-4.4-.2 0 1.3-.5 3.1.1 3.8 1.3 1.3 3.4 3.1 4.8 2.8 5.4-1 10.7-2.7 16.1-4 1.9-.5 4.2-1.5 5.8-1 3 1.1 5.5 1.2 5.6-2.2.2-2.1-2-4.3-3.5-7zm9.5 57c-.5-.6-1-1.3-1.6-1.9-5.2 4.1-10.5 8.2-15.7 12.3l1.2 1.5c5.4-3.9 10.7-7.9 16.1-11.9z" fill="#fff"/>
  <path d="M317.7 390.9c1-2.1 1.7-3.8 2.6-5.7-8.8-9.4-18.2.9-27.4-1.6 3.2-1.2 6.4-2.3 9.6-3.5 0-.4-.1-.8-.1-1.2h-14c0-.6 0-1.1-.1-1.7 3.8-.2 7.6-.4 12.3-.6-3.8-4.7-.4-8.1 1.9-8.1 6-.2 6.9-4.6 8.9-8.2 5.4-9.4 10.6-18.9 15.8-28.2 4.8.2 9.7.5 15.2.8.4 5.7 1.2 11.5 1 17.2-.1 2.3-2 4.6-3.2 6.9-5.1 10.3-10.6 20.4-15.3 30.8-1.5 3.7-3.5 3.7-7.2 3.1zM441.3 361.6c-1.8-1.4-3.7-2.8-6.6-5-.3 2.9-.5 5.4-.8 8.6-2.1-2.9-3.9-5.3-5.7-7.6-.4.2-.8.4-1.2.7v7.8c-6.6-1.6-1.7-8.7-6-11.2-1.2 2.2-2.4 4.5-3.6 6.9-.6-.3-1.3-.7-1.9-1 5.4-13.1 10.7-26.2 16.1-39.3-.6-.3-1.1-.6-1.7-.9-2.7 4-5.4 7.9-8.1 11.8-2.5-4.1-4.9-8.1-7.3-12.1 5.7-6.6 10.1-7.6 18.1-4.7 5.5 2 11.4 3.2 16.6 5.8 9.1 4.5 9.6 10 2.9 17.6-4 4.4-7.6 9.3-10.7 14.4-1 1.8-.1 5-.1 8.2zM438.1 369.8c.2-.4.6-2.2 1.4-2.5 5.3-1.8 6.3-5.5 6.4-10.6 0-1.7 3.5-3.6 5.7-4.9 3.3-2 6.8-3.5 10.8-5.6 0 .8.2 1.8 0 2.8-1.1 5.1-1.4 10.7-3.7 15.2-1.7 3.3-5.6 6.1-9.2 7.8-3.6 1.7-8.6 6.1-11.4-2.2zM434.1 375.6c5.4 1.1 8 4.3 8.2 9.4.4 8.7-2.2 11.6-13.4 15-3.5-9.3 2.5-16.4 5.2-24.4zM462.5 390.7c8.1-16.4 12.2-19.5 22.4-15.6-1.9 3-3.1 6.6-5.6 8.4-4.9 3.5-10.6 6-15.9 8.9-.3-.5-.6-1.1-.9-1.7zM362.5 292.1h24.6c1.7 5 .4 7.1-5 7.2-4.2.1-8.5.3-12.7-.1-4-.3-7.2-2-6.9-7.1zM349.2 376.3c-5-.3-9.5-.6-14.8-.9 3.2-5.8 6.2-11.3 9.7-17.8 1.9 6.9 3.5 12.8 5.1 18.7z" fill="#fff"/>
  <path d="M462.6 332.4c1.2 2.5 2.2 4.7 3.1 6.6-6.3 4-12.2 7.8-18.1 11.6-.3-.4-.7-.8-1-1.3 5.2-5.5 10.4-11 16-16.9z" fill="#fff"/>
  <path d="M382.5 221.7c.6 1.2 1.4 2.4 1.9 3.7.5 1.5.7 3.1 1.2 5.7-5-2.8-8.5-4.9-12.9-7.4 2.5-1.1 5-2.1 7.6-3.2.7.4 1.4.8 2.2 1.2z"/>
  <path d="M114 329.3c-3.3 1.1-6.7 2.1-8.9 2.8-1.8-1.3-3.1-2.2-4.7-3.4 3-17.1 14.3-30.4 23.8-46.2 4.1 7.6 7.8 14 11.1 20.6 3.5 7.1 6.9 7.7 13.3 1.6-.6-.4-1.3-1.1-1.7-1-6 1.4-7.2-3.2-9.3-7-2.5-4.5-5.5-8.7-7.4-13.7.9.4 1.9.7 2.6 1.4 7 6.4 13.7 13.1 21 19.1 2.8 2.3 4.6 3.8 2.5 7.4-.5.9 0 2.5.2 5.4 3.4-3.9 5.8-6.6 8.1-9.2 3.5.5 5 6.9 8.4 3.1 2.8-3.1 3.6-7.9 5.6-12.5-.5-.2 1-.1 1.5.7 2.9 4.1 5.6 8.5 8.4 12.7 1.8 2.7 2.1 4.5-1.8 5.4-2.2.6-4.2 2.1-6.8 3.4v-14.5c-.5 0-1.1-.1-1.6-.1-.5 2.7-1.1 5.4-1.5 8.1-.6 4.8-.9 9.7-1.8 14.4-.2 1.1-2.2 1.9-3.5 2.7-6.3 3.4-10.8-.8-14.9-4.2-2.4-2.1-3.9-2.1-6.5-1.1-1.5.6-3.4.1-6.6.1-1.5 1.2-4.4 3.4-7.3 5.6-.6-.1-1.3-.3-1.9-.4l-2.4-24c-.6-.1-1.1-.1-1.7-.2-3.8 6.6.3 14.5-1.6 19.7-4.9 1.9-8.4 3.3-12 4.7-1-.6-1.8-1-2.6-1.4z" fill="#fff"/>
  <path d="M171.6 365.2c-4.8-2.6-8.8-4.9-13.1-7-1.5-.7-3.3-1.2-4.9-1.1-10.1.2-20.2 1-30.2.9-7.1-.1-14.2-1.4-21.3-2-5.1-.4-4.1-4.7-5-7.8-.1-.2.4-.6.5-1 .6-4.1-.2-10.2 2.2-11.8 3-2.1 8.5-.5 12.9-.7 3.9-.2 8.1.1 11.5-1.4 6.3-2.6 10.4 1 15.2 3.5 2.9 1.6 6.3 2.1 9.4 3.5 2.7 1.2 5.6 2.4 7.6 4.5 2.4 2.5 4.6 3.1 7.9 3.8 2.7.6 4.7 5.8 6.5 9.3.7 1.8.4 4.2.8 7.3zM169 410.4c3.2-9.2 1.3-19.6 12.3-24 3.2-1.3 5.7-4.1 8.5-6.3 4.5-3.6 1.8-8.3 1.6-12.5-.2-4.5 4.3-12.2 8.6-12.8 4.9-.7 6.8 2.9 8.2 6.5 4 10.3-.7 25.5-10.5 33.3-5.9 4.7-12.2 9-18.7 12.9-2.3 1.5-5.7 1.7-10 2.9zM167.6 398c-.2 2.5.3 5.4-.8 7.5-3.7 7.3-2 7.8-14.9 7.3-3.7-.1-7.3-1.1-11-1.5-3.4-.4-5-2.2-5.7-5.5-.8-3.7-1.8-7.4-3.2-10.8-2.1-5-1-8.4 4-10.5 6.8-2.9 14-4.9 21.1-2.7 9.2 2.9 11.2 8.2 10.5 16.2zM170.1 332.7h21.6c-2.8-3.2-3.6-6.7-7.9-4.8-.6.3-2-1.2-3-1.8.6-.9 1.1-2.1 1.9-2.7 5.8-4.6 7-4.1 10.4 2.7 1.6 3.1 4.3 5.6 6.6 8.3 5.4 6.6 4.7 11.9-2.1 16.3-3 2-5.8 4.6-9.2 5.7-8.5 3-16.1-.9-18.1-9.5-1-4-.2-8.4-.2-14.2zM134.1 379.8c4.3-5.7 8-12.2 13.3-16.8 2.1-1.8 7.7-.4 11.5.7 2.8.8 4.9 3.8 7.7 4.9 5.4 2.3 4.5 5.9 2.3 9.6-.6 1.1-3.5 2.1-4.1 1.6-10.1-7.9-19.7-3.8-29.3.9-.6-.3-1-.6-1.4-.9zM143.6 287.1c7.6 1.1 16.3 2.4 25.9 3.8-2.2 3.5-4.7 7.8-7.6 11.9-.3.5-2.8.4-3.4-.3-5.3-5.3-10.4-10.8-14.9-15.4zM79.9 360.1c-3-4.4-1.3-8.9 8.6-18.8.7 1.6 1.1 3 1.8 4.3 3.7 7.1 3.2 8.4-4.3 11.1-2 .8-3.7 2.1-6.1 3.4zM126.7 390.2c1.1 5.5 2.1 10.6 3.2 15.8-4.9 1-9.9-1.5-11.1-5.4-1.3-4.2 1.7-8.1 7.9-10.4zM172.9 389.7c-4.4-5.8-1.5-13.4 5.5-15.4-1.9 5.4-3.5 9.7-5.5 15.4zM51.1 398.8c7.6-3 18.2-2.3 20.5 0H51.1zM173.8 293.2c-.8 3.8-1.6 7.6-2.5 12.2-1.5-1.2-3.8-2.5-3.7-3 1.3-3.5 3-6.9 4.6-10.3.5.4 1.1.8 1.6 1.1zM159.6 344l4.5-6.9c1.1.8 2.1 1.5 3.2 2.3-1.7 2.3-3.4 4.6-5 7-.9-.9-1.8-1.6-2.7-2.4zM175.7 361.5c3.4.6 5.7 1 7.9 1.4l.9 1.2c-2.4 1.5-4.7 3.1-7.1 4.6-.5-2.3-1.1-4.6-1.7-7.2zM155.5 339.8c-1-7.7.6-9.1 6.4-7-2.3 2.5-4.4 4.7-6.4 7zM114 329.3l2.4 1.2-2.4-1.2z" fill="#fff"/>
  <path d="M345.8 236c0 2.6-.9 5.6-6 3.8-2.4-.8-6.6 1.8-6.2-3.4.1-1.6 2-4.4 2.9-4.3 3.1.3 9.3-7.1 9.3 3.9zM354.6 238.4c2.2 1.4 4.3 2.8 7.2 4.8-1.7 1-4.4 3-4.9 2.6-2.5-2-4.7-4.6-6.3-7.3-.4-.8 1.2-3.4 2.5-4.4 1.2-.8 3.2-.7 4.9-.6.4 0 1.2 2 1 2.2-1.1.9-2.4 1.5-4.4 2.7zM375.5 233.6c5.3 4.6 6 7.3 2.5 10.6-1 .9-4.1 1.4-4.4 1-2.2-4-1.4-7.8 1.9-11.6zM349 225.3c-3.7-1.2-6.7-2-9.5-3.2-.4-.2-.6-2.8 0-3.2 2.2-1.6 4.5-3.8 7.4-1.1 2.5 2.3 5.2 4.6 2.1 7.5zM363.2 269.6c-4.9 3.4-8 1.8-10.9-1.1-.5-.5-.3-1.5-.4-2.3.8-.1 1.6-.5 2.3-.2 2.8.9 5.5 2.1 9 3.6zM383.7 236.7c4.5 5.3.3 8.1-1.5 11.3-.5-.1-1-.2-1.4-.3.8-3.4 1.7-6.9 2.9-11zM374 336.7c6.8-.6 13.5-1.8 20.3-1.8 5 0 6.5-2 5.8-8.3 3.3 2.8 5.6 4.5 7.4 6.6.3.4-.9 3.2-1.9 3.5-4.3 1.5-8.8 2.6-13.3 3.6-4.2 1-8.8-.6-12.8 2.9-2.2 2-5.7-2.3-5.5-6.5zM396.6 313.6c1.5 2.7 3.7 4.9 3.7 7-.1 3.5-2.7 3.3-5.6 2.2-1.6-.6-3.8.5-5.8 1-5.4 1.4-10.7 3.1-16.1 4-1.4.3-3.5-1.5-4.8-2.8-.7-.7-.1-2.5-.1-3.8 1.5.1 2.9.3 4.4.2 6.8-.7 13.7-1.3 20.5-2.4 1-.2 1.8-2.6 3.8-5.4zM406.1 370.6c-5.4 4-10.7 8-16.1 12l-1.2-1.5c5.2-4.1 10.5-8.2 15.7-12.3.6.5 1.1 1.2 1.6 1.8z"/>
  <text transform="translate(355.093 47.658)"><tspan x="0" y="0" font-family="Peanuts" font-size="33">“ &apos;TWAS THE</tspan><tspan x="0" y="39.6" font-family="Peanuts" font-size="33">NIGHT BEFORE</tspan><tspan x="0" y="79.2" font-family="Peanuts" font-size="33">CHRISTMAS...</tspan></text>
  <text transform="translate(30.955 41.296)" fill="#fff" font-family="BaskervilleT-Bold" font-size="35" letter-spacing="4">PEANUTS</text>
  <text transform="translate(290.765 449.491)" fill="#010101" font-family="BaskervilleT-Bold" font-size="12">Copr 1951 by United Feature Syndicate, Inc.</text>
</svg>
