<svg xmlns="http://www.w3.org/2000/svg" viewBox="0 0 595.3 464.7" xml:space="preserve">
  <path fill="#fff" d="M0 0h595.3v408.1H0z"/>
  <path d="M0 464.7V0h595.3v464.7H0zM79.1 3.2H30.7c-7.3 0-14.6-.2-21.8.2-1.6.1-4.4 2-4.5 3.2-.6 8.4-.7 16.7-.8 25.1-.1 14 2 27.8-.1 41.9-1.2 8.4-.3 17.1-.2 25.7.2 32.4.6 64.8.5 97.3 0 13.5-1.4 26.9-1.6 40.4-.4 41.8-.4 83.6-.6 125.4-.1 11.2-.1 22.3-.2 33.5-.1 18-.2 35.9-.2 53.9 0 5.2 2.7 7.4 7.9 7.4 11.5 0 23 .1 34.5 0 9.8-.1 19.6-.5 29.4-.4 13.6.1 27.1.5 40.7.6 16.4.1 32.7-.4 49.1-.2 36.8.5 73.7.3 110.5.8 79.5 1.1 159 .3 238.6.3H551c8.1 0 16.2-.7 24.2.1 10.4 1.1 13.7-1.2 13.6-11-.2-17.6-.3-35.2-.2-52.8.1-23.5.5-47 .6-70.6.1-25.2.1-50.4.1-75.6 0-13.4-.2-26.7-.3-40.1-.1-12.8-.1-25.6-.1-38.3 0-7.4.3-14.7.5-22.1.2-7.6.5-15.1.5-22.7 0-13.9-.4-27.8-.4-41.8 0-10.3.3-20.6.5-30.8.2-14.2.5-28.5.7-42.7.1-3.2-1.1-4.8-4.6-4.7-12.4.5-24.8.8-37.3.8-14.1 0-28.2-.5-42.3-.7-15-.1-30 0-45-.1-8-.1-16-.8-24-.8-13.7 0-27.4.8-41 .6-13.3-.2-26.6-1.4-39.9-1.7-9.8-.2-19.5.9-29.3.8-13.3-.1-26.7-.9-40-.9-14.7 0-29.4.8-44.1 1-11.3.1-22.7-.3-34-.4-21.4-.2-42.8-.5-64.2-.6-22-.1-44 0-65.9 0z" fill="#fff"/>
  <path d="M79.1 3.2c22 0 43.9-.1 65.9 0 21.4.1 42.8.4 64.2.6 11.3.1 22.7.5 34 .4 14.7-.1 29.4-.9 44.1-1 13.3 0 26.7.8 40 .9 9.8 0 19.5-1 29.3-.8 13.3.2 26.6 1.5 39.9 1.7 13.7.2 27.3-.6 41-.6 8 0 16 .7 24 .8 15 .2 30 0 45 .1 14.1.2 28.2.7 42.3.7 12.4 0 24.9-.3 37.3-.7 3.6-.1 4.7 1.4 4.6 4.7-.3 14.2-.5 28.5-.7 42.7-.2 10.3-.5 20.6-.5 30.8 0 13.9.3 27.8.4 41.8 0 7.6-.4 15.1-.5 22.7-.2 7.4-.4 14.7-.5 22.1-.1 12.8 0 25.6.1 38.3.1 13.4.3 26.7.3 40.1 0 25.2 0 50.4-.1 75.6-.1 23.5-.5 47-.6 70.6-.1 17.6 0 35.2.2 52.8.1 9.9-3.2 12.1-13.6 11-8-.9-16.1-.1-24.2-.1h-39.1c-79.5 0-159.1.8-238.6-.3-36.8-.5-73.7-.3-110.5-.8-16.4-.2-32.7.2-49.1.2-13.6-.1-27.1-.5-40.7-.6-9.8 0-19.6.4-29.4.4-11.5.1-23 0-34.5 0-5.2 0-7.8-2.2-7.9-7.4-.1-18 .1-35.9.2-53.9.1-11.2.1-22.3.2-33.5.2-41.8.2-83.6.6-125.4.1-13.5 1.5-26.9 1.6-40.4.1-32.4-.3-64.8-.5-97.3-.1-8.6-1-17.3.2-25.7 2.1-14.1-.1-27.9.1-41.9.1-8.5.2-16.8.8-25.2.1-1.2 2.9-3.2 4.5-3.2 7.2-.4 14.5-.2 21.7-.2h48.5zM261.5 227c5.1-.3 9.9 3.1 10.6 7.1.9 5.8-1.8 12.7-6.2 12.6-5 0-5.2 2.4-6 5.9-1.2 5.3-6.6 8.4-12.1 9.1-7.8 1-15.6 2.7-23.3 4.4-1.4.3-2.4 2.2-3.6 3.4 1.3.6 2.6 1.2 4 1.7 1.5.6 3.3.8 4.6 1.6 1.5 1 3.4 2.4 3.8 4 .3 1.2-1.2 3.8-2.4 4.2-9.1 3.2-18.3 6.3-27.7 8.8-3.5.9-6.7 1.3-7.9 5.2-1.2 3.8-1 7.2 2.4 10.2 5.2 4.5 16.9 6 22.4 1.7 4.1-3.2 7.1-7.7 10.5-11.8 2.7-3.2 5-8.3 10-6.3 4.4 1.8 3.3 6.5 2 10.4-.2.5 0 1.1-.2 1.6-1.1 2.6-1.1 3.7 2.6 3.6 4.1-.2 6.7 3.2 7.6 6.8.5 2-1.2 4.6-2.1 6.9-.7 1.9-2.2 3.7-2.3 5.6-.6 7-9.9 13.7-16.7 12-1.5-.4-3.4.4-4.9 1.1-3.5 1.7-6.6 4.5-10.2 5.5-7.5 2.1-15.2 4.1-22.9 4.5-5.7.3-7.7.6-8 6.6.3.1.7.4 1 .3 10.6-3.6 13.7-2.2 18.6 8.6.7 1.5 2.2 2.6 3.5 4.1 2.9-5 5.8-9 7.7-13.4 2.4-5.6 7.1-11.2 9.9-10.7 3.6.6 7.8 6.6 8.7 12.3.1.4.1.7 0 1.1-1.6 8.8-2.9 17.6-5 26.3-1.4 5.8-3.9 11.3-5.9 17h54.9c-6-17.7-11.1-34.9-3.7-52.6 7.3-.8 13.2-.1 16 6.9 1.8 4.4 3.3 9 4.6 13.6 2.1 7.6 5.3 9.5 12.7 7.5 3-.8 6.5-1.3 9.5-.7 4.7 1 8.3 1.9 10.9-3.9 1.6-3.6 5.5-6.1 8.3-9.2.1-.1-.2-.6.1.1-4.3-2.3-8.1-3.8-11.3-6.1-7.1-5.2-8.4-11.6-2.9-18.5 3.6-4.5 8.5-8.3 13.3-11.6 5.3-3.7 6.8-7.2 3.1-11.6-3.8-4.6-3.7-9.9-.9-14.8 1.9-3.4 4.7-6.2 7-9.2-8.5-5.2-17.2-10.3-25.7-15.7-7.5-4.8-9.8-10.2-5.9-16.9 3.2-5.5 3.8-9.5-.3-14.5-.9-1.1.5-4.7 1.7-6.7.6-1 3.1-1.7 4.6-1.4 3.4.8 4.1.1 3.4-3.3-1.4-6.6-2.1-13.3-3.5-20-.5-2.5-1.5-5.2-3.1-7.1-2.7-3.1-6.2-5.4-9.1-8.3-7.4-7.3-5.3-20.7 2.5-26.2 7-4.9 15.1-4.5 22.9-2.7 10.5 2.5 20.4 1.3 30.6-2.1 8.8-2.9 17.9-5 27.1-6.4 8.8-1.3 18.2-3 26.7-1.4 16.7 3.2 32.4 10 41.4 25.8 8.6 15 12.2 30.9 2.8 47.1-4.9 8.5-11 16.4-16.4 24.6-1 1.5-1.7 3.4-1.7 5.1 0 .8 2.1 2.3 3.2 2.2 5.3-.3 6.4 3.3 7.2 7.2 1.9 10-13.1 24.1-21.6 24.7-3.2.2-6.7 1.1-9.5 2.7-6.5 3.7-8.7 3.7-13.8-1.5-2-2-3.7-4.3-5.4-6.3-5.5 4.2-7 12.4-3.6 14.7 6 4.1 5.9 5.7-.9 9 1.2.8 2.1 1.4 3 2.1 4.7 3.2 9.9 5.8 13.8 9.8 3.3 3.4 6.2 8.1 7.2 12.7 1.6 7.3-3.9 12.1-8.6 16.8-2.4 2.4-6.5 3.8-6 9.8 3.3-2.8 5.7-4.7 8.1-6.8 8.1-7.4 13.1-6 15.6 4.6 1.1 4.8 1 10 2.3 14.7 2.1 7.2 1.4 13-5.6 16.5 1.4 2.3 2.4 4.3 3.4 5.9-5.5 6.2-6.8-3-10.8-2.1 2.1 8.6 4.7 10.1 13.3 8.2 2.2-.5 4.6-.9 6.9-.8 7.1.2 14.1.3 21.1.9 11.2 1 22.5-1.5 33.6 3 4.7 1.9 10.8.4 16.2.3 3.7-.1 3.6 1.6 3 3.4-7 .4-13.5.8-19.9 1.2 0 .6 0 1.3.1 1.9h26.4c.1.8.1 1.5.2 2.3-2 .3-4.1.9-6.1.9-6.7.1-13.5-.4-20.1.2-4.5.4-8.8 2.7-13.2 3-7.1.5-14.2 0-21.4.2-6.3.2-12.6.8-18.9 1-8.7.2-17.6-.6-26.2.2-11.4 1.2-22.8 3.6-34.1 5.5-6 1-12.1 3.2-16-4.2-.3-.6-2.5-.7-3.6-.4-10.9 2.6-22.4 2.2-32.9 6.9-7.6 3.4-14.2-1.2-14.2-9.4v-11.4c-3.8-.5-7.1-.9-10.6-1.4.8 5.1.7 5.1-3.3 4.6-1.6-.2-3.3-.2-4.9-.2-16.1.3-32.1.6-48.2.8-1.3 0-2.6-1-3.9-1.5.2-.6.3-1.1.5-1.7h13.5v-1.3H230V406c4.5 0 9.1.2 13.6 0 7.9-.3 15.9-1 23.8-1.3 4.6-.2 9.2.2 13.8.1 1.1 0 2.1-1.1 4.2-2.4-6.7-.3-11.7-.8-16.6-.7-12.1.1-24.1.8-36.2.5-6.9-.2-12.3 1.5-16.6 7-3.5 4.6-6 4.4-9.3-.3-2.3-3.2-4.5-6.4-7.1-9.4-2.3-2.7-3.7-3.6-6.6.6-5.7 8.5-12.4 16.3-19.4 23.9-2 2.1-7 3.9-9.2 2.8-3.9-1.9-6.7-6.2-10.1-9.3-6.1-5.5-12.4-10.8-19-16.5-5.9 8.7-13.6 11.2-22.8 10.4-3.5-.3-7 .2-10.5-.1-9-.9-17.9-2.5-26.9-3.1-12.2-.8-24.5-.4-36.6-1.4-7.7-.6-15.4-2.9-23-4.5.1-.5.3-1 .4-1.5.8-.4 1.7-.8 3-1.3-3.2-.7-5.6-1.3-8.1-1.8.1-.6.1-1.3.2-1.9h38.6c.4-3.6.3-5.9.9-8.1 2.3-9.1 8-16.2 14-23.2 1.4-1.6 3.1-4.5 2.5-5.9-2-4.6-.3-7.8 2.7-10.9 3.6-3.7 7.2-7.4 11-10.9 7.9-7.3 15.7-14.8 24-21.7 11.9-9.8 24.2-19.1 36.3-28.6 4.1-3.2 3.9-8-.5-10.5-9.7-5.5-18-12.6-23.8-22-4.7-7.6-9.6-15.7-11.6-24.2-2-8.3-1-17.6-.2-26.3.5-6.1 2.4-12.1 4.4-17.9 2.4-7 8.6-12.9 5.3-21.3-.3-.8.1-1.8.1-2.7 7.5.6 5.3-8 10.1-10.5.4 2.1.8 3.9 1.3 6.1 2.7-3 4.9-5.4 7.3-8.1h-5.3c-14.7.2-29.3.8-44 .5-10.3-.2-20.6-1.3-30.8-3-7.6-1.2-15.1-3.6-22.4-6.3-5.9-2.2-11.4-5.6-17.1-8.4-1.8-.9-4.6-2.7-4.7 1.1-.3 11.3-.1 22.6-.1 33.9 0 23.9 0 47.7-.1 71.6-.1 7.9-.9 15.9-.9 23.8.1 12.4.7 24.8.9 37.2.1 13.2-.1 26.4-.3 39.6-.2 22.1-.6 44.2-.7 66.3-.1 14.7 0 29.5 0 43.9 3.7.5 7.4 1.3 11.1 1.3 9.7-.1 19.4-.8 29.1-.7 19.5.1 38.9.8 58.4.9 22.5.2 45-.1 67.6.1 32.8.2 65.6.7 98.5.9 14.9.1 29.9-.2 44.8-.3 7.8-.1 15.6-.6 23.4-.5 6.7.1 13.3.9 20 1 9.6.2 19.2-.1 28.8-.1 7.5 0 15 .1 22.5.1 26.7 0 53.3-.1 80 0 28.4.1 56.9.4 85.3.3 1.4 0 4-2.2 4.1-3.6.7-7.5 1-15.1 1.2-22.7.1-6.4-.1-12.9-.1-19.3 0-12.6.2-25.2.2-37.7 0-4.9-1.1-9.9-.9-14.8.3-9.4 1.5-18.8 1.6-28.2.1-13.6-.6-27.2-.6-40.8 0-23.7.2-47.4.3-71.1 0-9.8-.1-19.7 0-29.5.2-20.8.5-41.5.7-62.3 0-1.4-.5-2.8-.7-3.9-8.6 7-16.4 14.5-25.3 20-10.1 6.3-21.9 8.9-33.9 9.8-18 1.3-36 3.3-54 3.6-27.7.5-55.4-.3-83.1-.5-1.5 0-2.9.1-4.4 0-15.7-1.5-31.3-1.9-47.1-.2-10.8 1.1-21.9.3-32.8.2-1.2 0-2.3-1.2-2.8-1.4-2.8.8-5.4 1.5-8.2 2.2-.6 13.8-7.6 24.4-19.2 32.5-.2-1.8.2-3.4.9-4.8 3.1-6.6 4.3-13.1.9-20-3-6.1-6.8-10-14.2-7.3-.3.1-.7 0-1.1 0h-33.6c7.3 8.6 16 18.8 24.8 28.9 1 1.1 3.3 1.9 4.8 1.6 8.4-1.8 12.6 2.4 10.2 11.7-1.6-1.5-3.4-2.5-4.2-4-1.9-3.4-5.1-3.5-7.1-1.8-4.9 4-6.7.6-8.2-2.9-4.5-10.4-12-18.6-20.9-24.8-8.4-5.9-17.8-10.6-27.4-14.5-5.8-2.3-12.8-1.6-19.1-3-9-1.9-17.2 1-24.9 4.2-11.5 4.8-23.4 9.8-29.6 22.1-3.1 6.2-7.9 12-9.4 18.6-2.3 10.2-2.7 20.8-3.5 31.3-.9 11.4 3.9 21 10.5 29.8 2.4 3.2 5.3 6 7.9 9.1 1.5 1.8 2.6 4.2 4.5 5.5 5.4 3.7 11.1 7 16.7 10.5 1.3.8 2.8 1.7 3.7 2.9 1.9 2.5 3.1 5.5 5.1 7.8 6.5 7.5 13.1 14.8 19.8 22.1 1.1 1.3 2.6 2.2 3.9 3.3 1.4-2 3-3.8 4-5.9 3-6.2 5.7-12.5 8.7-18.6.5-1 2.4-1.6 3.8-1.8 4.9-.7 10-.8 14.8-1.9 3.8-.9 7.4-2.8 10.5-4.1-3.5-3.2-6.5-5.9-9.6-8.7 2.8-3.1 4.6-7 7.4-7.8 8-2.3 16.4-3.2 24.6-4.9 3.4-.7 8 .2 9.2-4.7.7-3.1 1.1-6.2 1.6-9.4 2 0 3.2-.2 4.5 0 5.4.8 6.2-3.2 6-6.7-.2-3.2-2-6-6.5-4.5-.9.3-3.1-1-3.5-2-1-2.2-1.2-4.8-1.7-7.2-.9-4-.1-9-5.4-10.6-2-.6-4.2-.1-6.4-.1-.2-.5-.5-1.1-.7-1.6 2.1-.8 4.4-1.4 6.3-2.6 1.1-.8 2.4-2.7 2.2-4-.5-3.5-1.7-7-2.8-10.9 5 1.3 6.8 6.8 11.6 34.1zm19.5-61.2c3.8-3.2 5.4-11.2 3.2-14.9-1.9-3.2-1.3-4.9 2.3-5 6.5-.2 13.1 0 19.7-.1 15.5-.3 31.1-.7 46.6-1.1 2.6-.1 5.2 0 7.8 0 12.6.1 25.2.1 37.8.4 4.9.1 9.8 1.6 14.6 1.6 25.5.2 51 .3 76.5 0 8.2-.1 16.3-2.3 24.4-2.3 13.1 0 25.3-3.6 37.1-8.2 12.9-5 21.6-15.8 30.9-25.5 1.4-1.4 1.6-4.3 1.6-6.6.1-12.9.1-25.9.1-38.9V38.5c0-4.4.2-8.7.2-13.1 0-4.2-.1-8.4-.4-12.6-.1-.7-1.7-1.7-2.6-1.8-3.7-.2-7.5.1-11.2.1l-77.1-.3c-27.7-.1-55.5-.1-83.2-.1-6.6 0-13.2-.2-19.8-.2-10.6 0-21.2.1-31.8 0-6.7-.1-13.5-.7-20.2-.6-5.3 0-10.5.9-15.8.8-7.6-.1-15.2-.8-22.8-.9-10.5-.2-21.1.3-31.6-.2-9.8-.5-19.4 1.6-29.4.4-12.3-1.4-24.8-.3-37.3-.3-37.7 0-75.4.2-113.2-.1-13 0-25.9-1.4-38.9-1.6-7.6-.1-15.2 1-22.8 1.5-3.6.2-7.5.8-10.9-.2-4.6-1.4-5.1.6-5 4.1v26.8c0 24.3.5 48.7-.3 73-.3 9.3 3.8 13.6 11 17.5 20.4 11.1 42.6 13.2 65 13.9 18.8.7 37.7 0 56.5-.1 1.2 0 2.5-.3 3.5-.8 14.3-7.7 29.7-8.3 44.9-5.2 9.9 2 19.3 6.7 29.2 10.2 1.2-.4 3.2-1.7 5.4-1.7 14-.2 28-.2 42 0 1.9 0 4.1 1.2 5.8 2.3 5.6 3.7 8.3 9 8.2 16.5zm47.2 72c-2.2.2-4.7.3-7.2.7-1.1.2-2 1.1-3 1.7.8.8 1.5 2.4 2.3 2.4 5.8.1 3.4 3.6 2.6 6.2-.5 1.5-1.7 2.7-2.6 4-3.9 5.2-3.7 11.7 1.6 15 9.2 5.9 18.9 11 28.4 16.4 6.3 3.6 14.1 4.7 18.4 10.1-.8 2.6-2.3 5-1.7 5.7 1.1 1.4 3.4 2.4 5.2 2.5 4.9.3 9.8.5 14.6-.1 2.2-.3 4.8-2.1 5.9-4 1.4-2.4 1.5-5.7 2.2-8.7-6.1-3.6-8.9-9.2-11.8-15.6-3.4-7.7-.4-15.6-4.6-24.4 9.1 4.3 12.5-.7 14.8-6.9.5-1.5.2-4.3-.8-5.1-1.4-1.1-3.8-1.1-5.9-1.1-1.2 0-2.4.7-3.5 1.1.3-1.3.6-2.7 1-4.5-4.7 2.4-9.3 2.9-13.7-.2-1.3-.9-2.9-1.3-4.1-2.3-2.4-1.8-5.2-3.6-6.7-6-.5-.9 2.1-3.8 2.9-5.2-2.8-2.5-6-5.1-8.8-8.1-2.5-2.6-7.2-3.9-10.8-4.9-6.3-1.7-11 1.5-16.6 3.3 1.4 8.7-.4 18.3 9.1 23.8 1.5.7 3.7 1.6 4 3 1.1 4.5-2.5 10.2-8 12.5 1.2-2.4 2.1-3.9 2.7-5.6.5-1.6.7-3.3 1-4.9-.4-.1-.9-.2-1.3-.3l-3 7.5h-1.6c-.4-3-.8-6-1-8zm-180.4 69.7c.7-.3 1.4-.7 2.1-1 1.5 2.2 3.3 4.3 4.5 6.6 4.9 9.5 9.5 19.1 14.3 28.6 2.5 5 5.1 5.7 9.2 3.2 7.2-4.4 12.4-16.4 10.3-24.4-.4-1.4-2-3-3.5-3.5-.8-.3-2.6 1.1-3.5 2.1-1.4 1.4-2.3 3.2-3.7 4.6-.8.7-2.3.8-3.4 1.1.1-1.1 0-2.4.5-3.2 1.2-2.1 2.8-4 4.1-6-8.8-9.4-17.4-18.5-26-27.6-.2.2-.3.5-.5.7 3.9 8 7.8 16 11.4 23.4 2.7-.6 4.7-1 6.6-1.4.1.4.2.7.3 1.1-2.4 2.4-4.8 4.7-7.9 7.8-1.8-2.3-3.8-4.3-5.1-6.8-3.4-6.7-6.5-13.7-9.7-20.5-1.3-2.8-3.2-3.7-5.8-1.5-9.5 8.3-18.8 17-28.7 24.8-8.1 6.4-9.7 9.5-6.9 19.9 3.5-1.3 8.1-1.4 6.8-7.7 1.6.9 3 1.3 3.7 2.2 3.4 4.3 6.7 8.5 9.8 13 2 2.8 3.2 3.8 6.6 1.3 5.4-4.1 11.3-7.5 17.2-10.7 3.7-2 5.4-4.5 3.8-8.5-1.5-4-3.3-7.8-4.9-11.7-.6-2-1-4-1.6-5.9zM351.2 337c-2.8 8.2-5 16-8 23.5-2 4.9-.9 8.4 3 11.1 3.5 2.4 4 5.8 4.3 9.4.2 2.3 0 4.7 0 7.4 3.8.7 7.4 1.3 11.1 2 3.4-6.8 6.8-13.3 9.9-20 4.6-9.9 8.7-19.7 4.2-31.2-2.6-6.5-2.3-13.4 3.4-18.8 1.7-1.6 3.5-3.1 4.7-4.3-8.7-4.1-16.4-3.3-23.1 5.9 2.1-.1 3.5-.2 4.8-.3 1.5-.1 3.4-.9 4.5-.3 2.3 1.4 2.7 4 .6 5.7-.9.8-3.3.3-4.8-.1-7.9-2.4-10-5.4-11.9 5.6 3.6.6 7.3 1.2 11.7 1.9-.2 1.5.3 4.3-.8 5.7-.8 1-3.9.7-5.8.2-2.5-.5-4.8-2-7.8-3.4zm23.1 65.5c1.6-2.7 2.8-4.7 3.8-6.5 1.9 2.7 3.2 4.4 5.2 7.2.6-3.5.8-5.2 1.2-7.7 2.2 1.8 3.5 2.8 5 4 2.1-14.1 14.2-24.2 13-37.9-5.3-2.4-9.9-4.5-14.6-6.5-2.5-1.1-5.4-3.2-7 1.2-2.5 6.6-4.7 13.2-7.5 19.7-2.7 6.3-5.8 12.5-8.8 18.7.5.3.9.6 1.4.9 1.3-1.5 2.6-3 4.6-5.2 1.3 4 2.3 7.5 3.7 12.1zm-130.9-77.9c-1.1-7.6-1.2-7.4-8-6.9-2.1.2-4.4-1.2-6.6-1.9 1.8-.8 3.5-1.6 5.3-2.3 1-.4 2.6-.5 2.8-1.1.4-1.2 0-2.7 0-4.1-4.3.5-9.6-.3-12.7 1.9-6.2 4.4-12.5 5-19.5 5-1.8 0-4.9 1.4-5.1 2.6-1.5 7.4-2.4 14.9-3.5 23 14-.5 25.7-2.8 34.6-11.8 2.2 1.3 4.1 2.3 6.2 3.5.6-4 1.1-7.1 1.6-10.7 2 1.2 3.3 1.9 4.9 2.8zm115.3 70.6c2.5 4.5 4.8 8.6 7 12.9 2 3.9 3.5 8 5.8 11.7.8 1.3 3.4 2.4 4.9 2.2 11.7-2.2 23.4-4.2 34.8-7.4 3.1-.9 7.1-5.3 7.4-8.4.3-4.3-2.5-8.8-3.8-12.8-6.7.8-12.5 1.5-16.9 2.1-2.2 3.4-3.2 7-5.3 7.9-6.2 2.5-12.8 3.5-19.6 2.7-.7-.1-1.5-.3-1.9-.8-3.4-3.2-6.7-6.5-10.2-9.7-.4-.5-1.3-.3-2.2-.4zm-158.3-26.3c-1.5-3.6-2.2-7.8-4.6-10.5-2.4-2.8-6.1-.8-7.8 1.9-2.1 3.2-7.3 5.3-4.2 10.9 1.3 2.4 2.6 6.3 1.6 8.3-2.7 5.3-6.8 9.9-10.2 14.8-3.9 5.6-7.2 11.6-11.5 17-3.5 4.4-.4 7.1 1.9 9.7.8.9 4.4.1 6-.9 2.6-1.7 4.9-4.1 6.9-6.6 3.1-3.9 6-7.9 8.5-12.2 5.8-9.9 12.3-19.6 13.4-32.4zm154.8-57.4c2.5-2.6 5.1-5.2 7.6-7.7-.4-.5-.8-.9-1.2-1.4-3.1 1.8-6.2 3.7-9.8 5.9-3.1-7.4 5.6-6.8 7.1-11-6.4-3.9-8.1 6.5-14.8 4.7 2.2-2.9 4.1-5.3 6-7.8-7.6.3-11.5 9.6-7.2 16.8 5 8.3 3.2 13.7-5.4 18-3.5 1.7-6.9 4-9.5 6.7-6.7 7.1-3.5 17.3 6 19.6 2.8.7 6 1.1 6.9-3.6.7-3.8 2.4-7.4 3.8-11 3.9-10.2 7-21.1 17.9-26.7.9-.5 1.4-1.7 2.5-3.2-7.9 2.6-7.9 2.6-9.9.7zm38.7 36.9c5.1-3.8 9.6-7.1 14-10.4.3.4.6.9.9 1.3-.8 1.5-1.6 3-2.5 4.6 1.1.8 2 1.5 2.7 2 .4 3.3-7.1 3.2-1.6 8.9 3.3-4.9 7.7-9.1 9.2-14.1 2.9-9.5-9.9-20.7-18-21.5-10.3-1-16.6-.3-19.8 10.1-.8 2.6.9 5.9.9 8.9 0 4.4 2.4 5.7 6.6 5.9 0-2-.3-3.6.1-5.2.3-1.2 1.3-2.2 2.1-3.3 1 .8 2.5 1.5 2.8 2.5 1.1 2.9 1.6 6 2.6 10.3zm-213.4 11.9c-8.6-6.5-18.2-13-22.1-24.6-.2-.6-2.9-1-3.8-.5-6.2 3.8-12.2 7.9-18.2 12-1.1.8-1.7 2.3-2.5 3.5 1.6 1 3.1 2.3 4.8 2.9 5.3 1.9 10.8 3.2 15.8 5.5 1.9.9 3.5 3.7 4.1 6 1.6 5.9 4.8 9.1 10.3 10.1 4-5.1 7.5-9.6 11.6-14.9zm153.5 55c4.4-5.9 7.7-20.5 7.5-36.1 0-3.5-2.7-7-4.1-10.3-4.8 1.1-6.9 3.3-7.7 7.6-1 5.9-3.3 11.5-4.4 17.4-.7 3.5-1.4 7.8-.1 10.7 1.7 4 5.5 7 8.8 10.7zM211.6 409c3.5-6 7.1-10.4 9.1-15.6 5.2-13.1 9.8-26.6 7.8-41.1-.2-1.4-1.1-3.1-2.1-3.7-.6-.4-2.7.8-3.5 1.7-2.9 3.5-4.4 7.3-1.8 11.7.5.9.9 2.1.7 3-2.3 10-5.8 19.7-11.6 28.1-3.6 5.4-1.9 9.5 1.4 15.9zm-92.3-64.8c-7 2.5-13.5 4.7-19.8 7.2-5.6 2.3-7 1.5-7-4.6v-13.2c-8 6.2-15.2 13-21.3 22.1 2.6 1.3 5 3.5 7.2 3.3 5.2-.4 10.4-2.1 15.6-3.1 8.3-1.6 16.6-3 25.3-4.6v-7.1zm20.3 54c8.8 5.9 12.3 6 16.1.6 2.2-3.1 4.1-6.7 5.4-10.3 3.1-8.4 2.9-8.5-4.9-14.4-5.5 8-11 15.9-16.6 24.1zm141.9-9.1c6.9-2.9 9.9-6.1 7.6-12.6-2.5-7-4.3-14.4-6.6-21.5-.3-.9-1.7-2.2-2.4-2.1-.9.1-2 1.3-2.4 2.3-.7 1.8-1.3 3.8-1.1 5.7.7 6.1 1.8 12.2 2.9 18.3.5 3.2 1.2 6.4 2 9.9zm129.3-17.3c1.9 6.3 10.6 12.6 19.6 13.3-.6-8.5-1.1-16.8-1.7-25.7-6.1 4.3-11.8 8.2-17.9 12.4zm-243.3 11.5c-1 2.8-1.6 5.7-3 7.9-2.6 4.2-5.5 8.3-8.8 11.9-2.2 2.4-1.8 4.6-.1 6.3.6.6 3.4-.2 4.8-1.1 7-4.4 9.1-11.8 11.3-19.1 1.2-3.7-.9-5.5-4.2-5.9zm187.3 16.3c-1.1 6.7-2 12.2-2.7 17.7-.1.5 1.5 1.8 2.1 1.7 2.8-.7 5.6-1.7 9.1-2.9-2.8-5.5-5.4-10.6-8.5-16.5zm-30.5-20.7c-3 0-5.5-.4-7.7.2-1.2.3-3.1 2.3-2.9 3.3.8 4.7 2.1 9.3 3.5 13.8.3.9 1.3 1.6 1.9 2.4.7-3.4-.1-6.3-.2-9.3-.1-2.2.7-4.4 1.2-6.9.7.4 1.9 1 3.2 1.7.4-.8.9-1.4 1.1-2 .1-1-.1-1.9-.1-3.2zm-8.7 27c-1.7-6.4-14.8-7.3-21.6-1.8 3.4.6 6.7 1.5 10.1 1.7 3.7.3 7.3.1 11.5.1zm7.2 4.8c-.4.1-.9.1-1.3.2 0 3.4-.4 6.8.2 10.1.2 1.1 3 2.1 4.8 2.4 1.1.2 3.4-1 3.5-1.8.2-1.3-.6-3-1.5-4.2-1.8-2.4-3.8-4.5-5.7-6.7zm-28.7-17c-1.9-2-3.4-3.5-4.8-5-1.7 1.7-3.4 3.4-5.2 5.1 2 1.9 3.9 3.8 5.9 5.7 1.2-1.7 2.4-3.3 4.1-5.8zm-54-98.5c-4.2-1.7-8.5 2.8-9.9 10.4 6.1-.6 8.5-4.9 9.9-10.4zm-41.3 97.1c2.9 1.3 5.7 2.9 5.9 2.6 2.2-3.1 4-6.5 5.9-9.8l-1.8-1.5c-2.9 2.6-5.8 5.1-10 8.7zm-7.6-62.9c.6.2 1.2.3 1.8.5 1.7-5.3 3.5-10.6 5-16 .2-.7-.8-1.6-1.2-2.5-.7.6-1.8 1.1-1.9 1.8-1.3 5.4-2.5 10.8-3.7 16.2zm120 66.1c.3-.3.6-.5.8-.8-.9-3.3-1.7-6.6-2.7-9.9-.3-1-1.5-1.8-2.3-2.6-.3 1.2-1 2.5-.8 3.7.4 2.4 1 4.8 2 7 .5 1.1 2 1.8 3 2.6zm38.5 13.2c-.6-.2-1.1-.4-1.7-.5-1.1 2.9-2.4 5.7-3.3 8.6-.3.8.4 2 .6 3 1-.6 2.6-1 2.8-1.8.8-3.1 1.1-6.2 1.6-9.3zM245.1 308c-1.1 2-2.4 3.3-2.2 4.1.5 1.4 1.8 2.7 3.1 3.4.4.2 2.8-1.9 2.7-2.2-.7-1.6-1.9-2.9-3.6-5.3z"/>
  <path d="M261.5 227c-4.8-27.2-6.7-32.8-12.5-34.3 1 3.9 2.2 7.3 2.8 10.9.2 1.2-1 3.2-2.2 4-1.8 1.2-4.2 1.8-6.3 2.6.2.5.5 1.1.7 1.6 2.1 0 4.4-.5 6.4.1 5.3 1.6 4.5 6.5 5.4 10.6.5 2.4.8 4.9 1.7 7.2.5 1.1 2.6 2.4 3.5 2 4.5-1.6 6.3 1.3 6.5 4.5.2 3.5-.7 7.5-6 6.7-1.2-.2-2.5 0-4.5 0-.5 3.1-.9 6.3-1.6 9.4-1.2 4.9-5.8 4-9.2 4.7-8.2 1.7-16.6 2.6-24.6 4.9-2.8.8-4.6 4.7-7.4 7.8 3.1 2.8 6.1 5.5 9.6 8.7-3.1 1.3-6.6 3.2-10.5 4.1-4.8 1.1-9.9 1.2-14.8 1.9-1.3.2-3.3.8-3.8 1.8-3.1 6.1-5.7 12.4-8.7 18.6-1 2.1-2.7 4-4 5.9-1.3-1.1-2.8-2.1-3.9-3.3-6.6-7.3-13.3-14.6-19.8-22.1-2-2.3-3.2-5.3-5.1-7.8-.9-1.2-2.4-2.1-3.7-2.9-5.6-3.5-11.3-6.8-16.7-10.5-1.9-1.3-3-3.7-4.5-5.5-2.6-3-5.5-5.9-7.9-9.1-6.6-8.8-11.4-18.4-10.5-29.8.8-10.5 1.2-21.1 3.5-31.3 1.5-6.6 6.3-12.3 9.4-18.6 6.2-12.3 18.1-17.2 29.6-22.1 7.7-3.2 15.9-6.1 24.9-4.2 6.3 1.4 13.3.6 19.1 3 9.6 3.8 19 8.6 27.4 14.5 9 6.2 16.4 14.5 20.9 24.8 1.6 3.6 3.3 6.9 8.2 2.9 2.1-1.7 5.3-1.6 7.1 1.8.8 1.5 2.6 2.5 4.2 4 2.4-9.3-1.8-13.6-10.2-11.7-1.4.3-3.8-.5-4.8-1.6-8.9-10.1-17.5-20.3-24.8-28.9H258c.4 0 .8.1 1.1 0 7.4-2.7 11.2 1.1 14.2 7.3 3.4 7 2.3 13.5-.9 20-.7 1.4-1 3-.9 4.8 11.6-8.1 18.6-18.6 19.2-32.5 2.8-.7 5.3-1.4 8.2-2.2.5.3 1.6 1.4 2.8 1.4 11 .1 22 1 32.8-.2 15.8-1.7 31.4-1.3 47.1.2 1.4.1 2.9 0 4.4 0 27.7.2 55.4.9 83.1.5 18-.3 36-2.4 54-3.6 12-.9 23.8-3.5 33.9-9.8 9-5.5 16.7-13.1 25.3-20 .2 1 .7 2.5.7 3.9-.2 20.8-.5 41.5-.7 62.3-.1 9.8.1 19.7 0 29.5-.1 23.7-.3 47.4-.3 71.1 0 13.6.7 27.2.6 40.8-.1 9.4-1.3 18.8-1.6 28.2-.2 4.9.9 9.9.9 14.8.1 12.6-.1 25.2-.2 37.7 0 6.4.2 12.9.1 19.3-.2 7.6-.4 15.2-1.2 22.7-.1 1.4-2.7 3.6-4.1 3.6-28.4 0-56.9-.3-85.3-.3-26.7-.1-53.3 0-80 0-7.5 0-15-.1-22.5-.1-9.6 0-19.2.2-28.8.1-6.7-.1-13.3-.9-20-1-7.8-.1-15.6.4-23.4.5-14.9.2-29.9.4-44.8.3-32.8-.2-65.6-.7-98.5-.9-22.5-.1-45 .1-67.6-.1-19.5-.1-38.9-.8-58.4-.9-9.7-.1-19.4.7-29.1.7-3.7 0-7.4-.8-11.1-1.3 0-14.5-.1-29.2 0-43.9.2-22.1.5-44.2.7-66.3.1-13.2.4-26.4.3-39.6-.1-12.4-.8-24.8-.9-37.2 0-7.9.9-15.9.9-23.8.2-23.9.1-47.7.1-71.6 0-11.3-.2-22.6.1-33.9.1-3.8 2.9-2 4.7-1.1 5.7 2.8 11.2 6.2 17.1 8.4 7.3 2.7 14.8 5 22.4 6.3 10.2 1.7 20.5 2.7 30.8 3 14.7.3 29.3-.3 44-.5h5.3c-2.4 2.7-4.6 5.1-7.3 8.1-.5-2.2-.8-4-1.3-6.1-4.8 2.4-2.6 11.1-10.1 10.5-.1.9-.4 1.9-.1 2.7 3.4 8.4-2.9 14.4-5.3 21.3-2 5.8-3.9 11.9-4.4 17.9-.7 8.7-1.7 18 .2 26.3 2 8.5 6.9 16.6 11.6 24.2 5.8 9.4 14.1 16.6 23.8 22 4.5 2.5 4.6 7.3.5 10.5-12.1 9.6-24.4 18.8-36.3 28.6-8.3 6.9-16.1 14.4-24 21.7-3.8 3.5-7.3 7.2-11 10.9-3 3.1-4.7 6.3-2.7 10.9.6 1.4-1.1 4.3-2.5 5.9-6 7-11.7 14.1-14 23.2-.6 2.2-.5 4.6-.9 8.1H10.1c-.1.6-.1 1.3-.2 1.9 2.5.6 4.9 1.1 8.1 1.8-1.3.6-2.1 1-3 1.3-.1.5-.3 1-.4 1.5 7.7 1.5 15.3 3.8 23 4.5 12.2 1 24.4.6 36.6 1.4 9 .6 17.9 2.2 26.9 3.1 3.5.4 7-.2 10.5.1 9.2.8 16.8-1.7 22.8-10.4 6.6 5.7 12.8 11 19 16.5 3.4 3.1 6.2 7.4 10.1 9.3 2.2 1.1 7.2-.7 9.2-2.8 7-7.5 13.7-15.4 19.4-23.9 2.8-4.2 4.3-3.3 6.6-.6 2.5 3 4.8 6.2 7.1 9.4 3.3 4.7 5.8 4.9 9.3.3 4.3-5.5 9.7-7.2 16.6-7 12 .3 24.1-.4 36.2-.5 4.9 0 9.8.4 16.6.7-2.1 1.2-3.2 2.4-4.2 2.4-4.6.1-9.2-.3-13.8-.1-7.9.3-15.9.9-23.8 1.3-4.5.2-9.1 0-13.6 0v1.7H258v1.3h-13.5c-.2.6-.3 1.1-.5 1.7 1.3.5 2.6 1.6 3.9 1.5 16.1-.2 32.1-.5 48.2-.8 1.6 0 3.3-.1 4.9.2 4 .6 4.1.6 3.3-4.6 3.5.4 6.8.9 10.6 1.4v11.4c0 8.2 6.5 12.8 14.2 9.4 10.5-4.7 22-4.2 32.9-6.9 1.1-.3 3.3-.2 3.6.4 3.9 7.4 10 5.2 16 4.2 11.4-2 22.7-4.3 34.1-5.5 8.6-.9 17.5-.1 26.2-.2 6.3-.1 12.6-.8 18.9-1 7.1-.2 14.3.3 21.4-.2 4.5-.3 8.8-2.6 13.2-3 6.7-.5 13.4-.1 20.1-.2 2 0 4.1-.6 6.1-.9-.1-.8-.1-1.5-.2-2.3H495c0-.6 0-1.3-.1-1.9 6.4-.4 12.9-.8 19.9-1.2.6-1.8.7-3.5-3-3.4-5.5.1-11.6 1.6-16.2-.3-11.1-4.5-22.5-2.1-33.6-3-7-.6-14.1-.8-21.1-.9-2.3-.1-4.6.3-6.9.8-8.7 1.9-11.2.4-13.3-8.2 3.9-.9 5.3 8.4 10.8 2.1-1-1.7-2.1-3.6-3.4-5.9 7-3.6 7.7-9.4 5.6-16.5-1.4-4.7-1.2-9.9-2.3-14.7-2.4-10.6-7.5-12-15.6-4.6-2.3 2.1-4.8 4.1-8.1 6.8-.5-6 3.5-7.4 6-9.8 4.8-4.7 10.3-9.5 8.6-16.8-1-4.6-3.9-9.3-7.2-12.7-3.9-4-9.1-6.6-13.8-9.8-.9-.6-1.9-1.3-3-2.1 6.9-3.4 6.9-4.9.9-9-3.4-2.3-1.9-10.5 3.6-14.7 1.7 2 3.4 4.3 5.4 6.3 5.1 5.2 7.3 5.1 13.8 1.5 2.8-1.6 6.2-2.4 9.5-2.7 8.5-.6 23.5-14.7 21.6-24.7-.7-4-1.8-7.6-7.2-7.2-1.1.1-3.1-1.4-3.2-2.2 0-1.7.7-3.6 1.7-5.1 5.4-8.3 11.5-16.1 16.4-24.6 9.3-16.1 5.7-32.1-2.8-47.1-9-15.8-24.7-22.5-41.4-25.8-8.5-1.7-17.9.1-26.7 1.4-9.1 1.4-18.3 3.5-27.1 6.4-10.2 3.4-20.1 4.6-30.6 2.1-7.8-1.8-15.8-2.2-22.9 2.7-7.8 5.5-9.9 18.8-2.5 26.2 2.9 2.9 6.4 5.2 9.1 8.3 1.6 1.9 2.6 4.6 3.1 7.1 1.4 6.6 2.1 13.3 3.5 20 .7 3.5 0 4.1-3.4 3.3-1.4-.3-3.9.3-4.6 1.4-1.2 2-2.6 5.6-1.7 6.7 4.1 5.1 3.5 9.1.3 14.5-3.9 6.7-1.7 12 5.9 16.9 8.5 5.4 17.2 10.5 25.7 15.7-2.3 3-5.1 5.9-7 9.2-2.7 4.9-2.9 10.2.9 14.8 3.7 4.4 2.2 7.9-3.1 11.6-4.8 3.3-9.7 7.1-13.3 11.6-5.5 6.9-4.2 13.3 2.9 18.5 3.2 2.3 7 3.8 11.3 6.1-.3-.7 0-.2-.1-.1-2.8 3.1-6.7 5.6-8.3 9.2-2.6 5.8-6.2 4.9-10.9 3.9-3-.6-6.5-.2-9.5.7-7.3 2-10.6.1-12.7-7.5-1.2-4.6-2.8-9.2-4.6-13.6-2.8-7-8.8-7.7-16-6.9-7.3 17.7-2.3 34.9 3.7 52.6h-54.9c2-5.7 4.5-11.2 5.9-17 2.1-8.7 3.4-17.5 5-26.3.1-.3 0-.7 0-1.1-.9-5.8-5.1-11.7-8.7-12.3-2.8-.5-7.5 5.1-9.9 10.7-1.9 4.4-4.8 8.4-7.7 13.4-1.3-1.5-2.9-2.6-3.5-4.1-4.9-10.8-7.9-12.2-18.6-8.6-.3.1-.7-.2-1-.3.3-6 2.2-6.4 8-6.6 7.7-.4 15.4-2.5 22.9-4.5 3.6-1 6.7-3.8 10.2-5.5 1.5-.7 3.5-1.5 4.9-1.1 6.8 1.7 16.1-5 16.7-12 .2-1.9 1.6-3.7 2.3-5.6.9-2.3 2.6-4.9 2.1-6.9-.9-3.6-3.5-7-7.6-6.8-3.7.2-3.6-1-2.6-3.6.2-.5.1-1.1.2-1.6 1.3-3.9 2.5-8.6-2-10.4-5-2.1-7.3 3.1-10 6.3-3.4 4-6.4 8.6-10.5 11.8-5.5 4.3-17.2 2.7-22.4-1.7-3.5-3-3.6-6.3-2.4-10.2 1.2-3.9 4.4-4.3 7.9-5.2 9.4-2.5 18.5-5.6 27.7-8.8 1.2-.4 2.7-3 2.4-4.2-.4-1.6-2.2-3-3.8-4-1.3-.9-3.1-1-4.6-1.6-1.3-.5-2.6-1.1-4-1.7 1.2-1.2 2.2-3.1 3.6-3.4 7.7-1.7 15.5-3.5 23.3-4.4 5.5-.7 10.9-3.8 12.1-9.1.8-3.5 1-5.9 6-5.9 4.3 0 7.1-6.8 6.2-12.6.2-3.8-4.6-7.2-9.7-6.9zm-74.5 7.4c-1.3-.1-2.7.1-3.6-.4-2.3-1.2-5.7-2.5-6.2-4.4-1-3.4-.3-7.3.1-10.9 0-.4 2.3-1.1 3.3-.9 2 .4 3.8 1.5 5.7 2.2.9.3 1.8.4 2.7.6-.2-1.1-.1-2.9-.7-3.2-3.6-1.9-7.3-3.5-11.1-4.9-.7-.3-2.4.8-3.1 1.7-6.4 8.5-8.1 19.8 5.5 24.8 3.1 1.1 6.5-.7 7.4-4.6zm40.9 161.8h45.2c0-.6 0-1.3-.1-1.9-14.6-1.1-29.2-1-45.1 1.9zm19.8-152.6c6.5-2.5 8.4-15.5 3-20-4.8 5.3-6.4 15.5-3 20z" fill="#fff"/>
  <path d="M328.2 237.8c.3 1.9.7 5 1.1 8.1h1.6l3-7.5c.4.1.9.2 1.3.3-.3 1.7-.5 3.4-1 4.9-.6 1.7-1.5 3.3-2.7 5.6 5.5-2.3 9.1-8.1 8-12.5-.3-1.4-2.5-2.3-4-3-9.5-5.6-7.7-15.1-9.1-23.8 5.6-1.8 10.3-5 16.6-3.3 3.6 1 8.3 2.3 10.8 4.9 2.8 3 6 5.5 8.8 8.1-.8 1.4-3.5 4.3-2.9 5.2 1.5 2.5 4.3 4.2 6.7 6 1.2.9 2.9 1.4 4.1 2.3 4.4 3.1 9 2.6 13.7.2-.4 1.8-.7 3.2-1 4.5 1.2-.4 2.4-1.1 3.5-1.1 2 .1 4.5 0 5.9 1.1 1 .8 1.3 3.6.8 5.1-2.3 6.2-5.6 11.2-14.8 6.9 4.2 8.7 1.1 16.7 4.6 24.4 2.9 6.4 5.7 12 11.8 15.6-.7 3.1-.8 6.3-2.2 8.7-1.1 1.9-3.8 3.7-5.9 4-4.8.6-9.8.4-14.6.1-1.9-.1-4.1-1.1-5.2-2.5-.6-.8.9-3.2 1.7-5.7-4.3-5.4-12.1-6.5-18.4-10.1-9.5-5.4-19.2-10.5-28.4-16.4-5.2-3.3-5.4-9.8-1.6-15 1-1.3 2.2-2.5 2.6-4 .8-2.6 3.2-6.1-2.6-6.2-.8 0-1.5-1.6-2.3-2.4 1-.6 2-1.5 3-1.7 2.3-.5 4.8-.6 7.1-.8zM147.8 307.5c.6 1.9 1 3.9 1.7 5.8 1.6 3.9 3.4 7.8 4.9 11.7 1.5 4-.1 6.5-3.8 8.5-5.9 3.2-11.8 6.7-17.2 10.7-3.4 2.5-4.6 1.6-6.6-1.3-3.1-4.5-6.4-8.8-9.8-13-.7-.9-2.1-1.3-3.7-2.2 1.3 6.3-3.2 6.3-6.8 7.7-2.9-10.4-1.2-13.5 6.9-19.9 9.9-7.8 19.1-16.5 28.7-24.8 2.6-2.3 4.5-1.4 5.8 1.5 3.2 6.9 6.3 13.8 9.7 20.5 1.3 2.5 3.3 4.5 5.1 6.8 3.1-3.1 5.5-5.4 7.9-7.8-.1-.4-.2-.7-.3-1.1-2 .4-3.9.8-6.6 1.4-3.6-7.4-7.5-15.4-11.4-23.4.2-.2.3-.5.5-.7 8.6 9.1 17.1 18.2 26 27.6-1.4 1.9-2.9 3.9-4.1 6-.5.9-.4 2.2-.5 3.2 1.2-.3 2.6-.4 3.4-1.1 1.4-1.3 2.3-3.2 3.7-4.6 1-1 2.7-2.4 3.5-2.1 1.4.5 3.1 2.1 3.5 3.5 2.1 8-3.1 20.1-10.3 24.4-4.1 2.5-6.6 1.7-9.2-3.2-4.9-9.5-9.5-19.1-14.3-28.6-1.2-2.4-3-4.4-4.5-6.6-.8.4-1.5.8-2.2 1.1zM351.2 337c3 1.4 5.3 2.8 7.8 3.5 1.9.5 5 .8 5.8-.2 1.1-1.4.7-4.1.8-5.7-4.5-.7-8.1-1.3-11.7-1.9 1.9-11 4-8 11.9-5.6 1.5.5 3.9.9 4.8.1 2.1-1.7 1.7-4.3-.6-5.7-1.1-.6-3 .2-4.5.3-1.4.1-2.7.1-4.8.3 6.7-9.2 14.4-10.1 23.1-5.9-1.2 1.1-3 2.6-4.7 4.3-5.7 5.4-5.9 12.3-3.4 18.8 4.5 11.4.3 21.2-4.2 31.2-3.1 6.7-6.5 13.2-9.9 20-3.8-.7-7.3-1.3-11.1-2 0-2.7.1-5.1 0-7.4-.3-3.6-.8-7-4.3-9.4-3.9-2.7-5-6.2-3-11.1 3-7.5 5.2-15.4 8-23.6zM374.3 402.5c-1.4-4.6-2.4-8.2-3.6-12.2-1.9 2.2-3.2 3.7-4.6 5.2-.5-.3-.9-.6-1.4-.9 2.9-6.2 6.1-12.4 8.8-18.7 2.7-6.5 5-13.1 7.5-19.7 1.6-4.4 4.5-2.3 7-1.2 4.7 2 9.3 4.1 14.6 6.5 1.2 13.7-10.9 23.9-13 37.9-1.5-1.2-2.8-2.2-5-4-.4 2.5-.7 4.2-1.2 7.7-2-2.7-3.3-4.5-5.2-7.2-1.1 1.9-2.3 3.9-3.9 6.6zM243.4 324.6c-1.5-.9-2.8-1.6-5-2.9-.6 3.6-1 6.8-1.6 10.7-2.1-1.2-4-2.3-6.2-3.5-8.9 9-20.6 11.4-34.6 11.8 1.2-8.1 2-15.6 3.5-23 .2-1.2 3.4-2.6 5.1-2.6 7 0 13.3-.6 19.5-5 3.1-2.2 8.4-1.4 12.7-1.9.1 1.4.4 2.9 0 4.1-.2.6-1.9.7-2.8 1.1-1.8.7-3.5 1.5-5.3 2.3 2.2.7 4.5 2 6.6 1.9 6.9-.4 7-.6 8.1 7z" fill="#fff"/>
  <path d="M358.7 395.2c.9.1 1.8 0 2.2.4 3.4 3.2 6.7 6.5 10.2 9.7.5.4 1.3.7 1.9.8 6.8.8 13.4-.2 19.6-2.7 2.2-.9 3.2-4.6 5.3-7.9 4.4-.5 10.1-1.3 16.9-2.1 1.3 4 4.1 8.5 3.8 12.8-.2 3.1-4.2 7.5-7.4 8.4-11.4 3.2-23.2 5.3-34.8 7.4-1.5.3-4.1-.9-4.9-2.2-2.3-3.7-3.8-7.8-5.8-11.7-2.2-4.3-4.5-8.4-7-12.9zM200.4 368.9c-1 12.7-7.6 22.5-13.4 32.4-2.5 4.3-5.4 8.3-8.5 12.2-1.9 2.5-4.3 4.9-6.9 6.6-1.6 1.1-5.2 1.8-6 .9-2.3-2.6-5.4-5.3-1.9-9.7 4.2-5.3 7.6-11.3 11.5-17 3.4-5 7.5-9.5 10.2-14.8 1-2-.2-5.9-1.6-8.3-3.1-5.6 2.1-7.7 4.2-10.9 1.7-2.7 5.3-4.7 7.8-1.9 2.4 2.7 3.1 7 4.6 10.5zM355.2 311.5c2 1.9 2 1.9 9.9-.8-1.1 1.4-1.6 2.7-2.5 3.2-10.9 5.6-13.9 16.5-17.9 26.7-1.4 3.6-3.1 7.2-3.8 11-.8 4.7-4.1 4.3-6.9 3.6-9.5-2.3-12.7-12.5-6-19.6 2.6-2.8 6.1-5 9.5-6.7 8.6-4.3 10.4-9.6 5.4-18-4.3-7.2-.4-16.5 7.2-16.8-2 2.5-3.8 4.9-6 7.8 6.7 1.8 8.4-8.6 14.8-4.7-1.5 4.3-10.1 3.6-7.1 11 3.7-2.2 6.7-4 9.8-5.9.4.5.8.9 1.2 1.4-2.5 2.7-5 5.3-7.6 7.8zM393.9 348.4c-.9-4.2-1.4-7.4-2.4-10.4-.3-1-1.9-1.7-2.8-2.5-.7 1.1-1.8 2.1-2.1 3.3-.4 1.5-.1 3.2-.1 5.2-4.2-.2-6.6-1.5-6.6-5.9 0-3-1.7-6.3-.9-8.9 3.1-10.4 9.5-11.1 19.8-10.1 8.1.8 20.9 12 18 21.5-1.5 5-5.9 9.2-9.2 14.1-5.4-5.7 2-5.6 1.6-8.9-.7-.5-1.6-1.2-2.7-2 .9-1.6 1.7-3.1 2.5-4.6-.3-.4-.6-.9-.9-1.3-4.7 3.4-9.2 6.7-14.2 10.5zM180.5 360.3c-4.2 5.3-7.6 9.8-11.5 14.8-5.5-1-8.7-4.2-10.3-10.1-.6-2.2-2.2-5.1-4.1-6-5.1-2.3-10.6-3.6-15.8-5.5-1.7-.6-3.2-1.9-4.8-2.9.8-1.2 1.4-2.7 2.5-3.5 6-4.1 12-8.2 18.2-12 .9-.5 3.6-.1 3.8.5 3.8 11.7 13.4 18.2 22 24.7zM334 415.3c-3.3-3.7-7.1-6.7-8.9-10.6-1.4-3-.6-7.2.1-10.7 1.2-5.9 3.4-11.5 4.4-17.4.8-4.3 2.9-6.6 7.7-7.6 1.4 3.3 4.1 6.8 4.1 10.3.2 15.5-3 30.2-7.4 36zM211.6 409c-3.3-6.4-5-10.4-1.3-15.8 5.8-8.4 9.3-18.1 11.6-28.1.2-.9-.2-2.1-.7-3-2.6-4.4-1.1-8.2 1.8-11.7.8-1 2.8-2.1 3.5-1.7 1.1.6 2 2.3 2.1 3.7 1.9 14.5-2.6 27.9-7.8 41.1-2.1 5-5.6 9.5-9.2 15.5zM119.3 344.2v7.1c-8.8 1.6-17.1 3-25.3 4.6-5.2 1-10.3 2.6-15.6 3.1-2.2.2-4.6-2-7.2-3.3 6.1-9.1 13.2-15.9 21.3-22.1v13.2c0 6.1 1.4 6.9 7 4.6 6.4-2.5 12.8-4.6 19.8-7.2zM139.6 398.2c5.7-8.2 11.2-16.1 16.6-24 7.8 5.9 8 6 4.9 14.4-1.3 3.6-3.2 7.1-5.4 10.3-3.9 5.3-7.3 5.2-16.1-.7zM281.5 389.1c-.7-3.5-1.5-6.7-2.1-9.9-1-6.1-2.1-12.2-2.9-18.3-.2-1.8.4-3.9 1.1-5.7.4-1 1.5-2.2 2.4-2.3.7-.1 2.1 1.2 2.4 2.1 2.3 7.1 4 14.5 6.6 21.5 2.4 6.5-.6 9.7-7.5 12.6zM410.8 371.8c6.1-4.2 11.7-8.1 17.9-12.4.6 8.9 1.1 17.2 1.7 25.7-9-.8-17.7-7-19.6-13.3z" fill="#fff"/>
  <path d="M167.5 383.3c3.3.4 5.3 2.2 4.2 6-2.2 7.3-4.3 14.7-11.3 19.1-1.4.9-4.2 1.7-4.8 1.1-1.7-1.7-2.1-3.9.1-6.3 3.3-3.7 6.2-7.8 8.8-11.9 1.4-2.4 2-5.2 3-8zM354.8 399.6c3.1 6 5.7 11 8.5 16.5-3.6 1.2-6.3 2.2-9.1 2.9-.6.1-2.1-1.2-2.1-1.7.7-5.5 1.6-11 2.7-17.7zM324.3 378.9c0 1.4.1 2.3 0 3.2-.1.6-.6 1.2-1.1 2-1.3-.7-2.4-1.3-3.2-1.7-.5 2.5-1.3 4.7-1.2 6.9.1 2.9.9 5.8.2 9.3-.7-.8-1.7-1.5-1.9-2.4-1.3-4.6-2.6-9.2-3.5-13.8-.2-.9 1.7-3 2.9-3.3 2.4-.6 4.8-.2 7.8-.2zM315.6 405.9c-4.2 0-7.8.2-11.5-.1-3.4-.3-6.7-1.1-10.1-1.7 6.8-5.5 19.9-4.6 21.6 1.8zM322.8 410.7c1.9 2.2 4 4.2 5.7 6.5.9 1.2 1.8 2.9 1.5 4.2-.1.8-2.4 2-3.5 1.8-1.7-.2-4.6-1.3-4.8-2.4-.6-3.3-.2-6.7-.2-10.1.4.1.8.1 1.3 0zM294.1 393.7c-1.7 2.5-2.9 4.1-4.1 5.8-2-1.9-3.9-3.8-5.9-5.7 1.7-1.7 3.4-3.4 5.2-5.1 1.4 1.5 2.9 3 4.8 5zM240.1 295.2c-1.5 5.5-3.8 9.9-9.9 10.4 1.5-7.6 5.7-12.1 9.9-10.4zM198.8 392.3c4.2-3.6 7.1-6.1 10-8.7l1.8 1.5c-1.9 3.3-3.7 6.7-5.9 9.8-.1.4-3-1.3-5.9-2.6zM191.2 329.4c1.2-5.4 2.3-10.8 3.6-16.2.2-.7 1.3-1.2 1.9-1.8.4.8 1.4 1.8 1.2 2.5-1.5 5.4-3.3 10.7-5 16-.5-.2-1.1-.3-1.7-.5zM311.2 395.5c-1-.8-2.5-1.5-3-2.5-1-2.2-1.6-4.6-2-7-.2-1.2.5-2.5.8-3.7.8.9 2 1.6 2.3 2.6 1.1 3.2 1.9 6.6 2.7 9.9-.2.2-.5.4-.8.7zM349.7 408.7c-.5 3.1-.8 6.2-1.6 9.3-.2.8-1.8 1.2-2.8 1.8-.2-1-.9-2.1-.6-3 .9-2.9 2.1-5.8 3.3-8.6.6.1 1.2.3 1.7.5zM245.1 308c1.7 2.4 2.9 3.7 3.6 5.3.1.3-2.3 2.4-2.7 2.2-1.3-.8-2.6-2-3.1-3.4-.3-.8 1.1-2.1 2.2-4.1z" fill="#fff"/>
  <path d="M187 234.4c-.9 3.9-4.3 5.7-7.5 4.6-13.6-5-11.9-16.3-5.5-24.8.7-.9 2.3-1.9 3.1-1.7 3.8 1.4 7.5 3 11.1 4.9.6.3.5 2.1.7 3.2-.9-.2-1.8-.3-2.7-.6-1.9-.7-3.7-1.7-5.7-2.2-1-.2-3.3.5-3.3.9-.3 3.7-1 7.6-.1 10.9.6 1.9 4 3.1 6.2 4.4 1.1.5 2.5.3 3.7.4zM227.9 396.2c15.9-2.9 30.5-3 45.1-1.9 0 .6 0 1.3.1 1.9h-45.2zM247.7 243.6c-3.3-4.5-1.8-14.8 3-20 5.4 4.5 3.4 17.6-3 20z"/>
  <text transform="translate(47.254 46.503)"><tspan x="0" y="0" font-family="Peanuts" font-size="35">AND ALL THROUGH THE HOUSE</tspan><tspan x="0" y="42" font-family="Peanuts" font-size="35">NOT A CREATURE WAS STIRRING,</tspan><tspan x="0" y="84" font-family="Peanuts" font-size="35">NOT EVEN A MOUSE... ”</tspan></text>
</svg>
