<svg xmlns="http://www.w3.org/2000/svg" viewBox="0 0 595.3 464.8" xml:space="preserve">
  <path fill="#fff" d="M0 0h595.3v408.1H0z"/>
  <path d="M0 464.8V0h595.3v464.8H0zm107.9-6.4v1h72.9c33.2 0 66.4.1 99.6.1h181.7c22.7 0 45.4-.1 68.1 0 18.4.1 36.8.4 55.2.8 4.5.1 7.3-.3 6-6.1-.7-2.8 0-6 .1-9 .1-16.1.1-32.2.4-48.3.2-10.8 1-21.6 1.1-32.5.2-12.1-.2-24.1-.2-36.2 0-10 .5-20.1.3-30.1-.3-11.5-1.6-23-1.7-34.6-.1-18.7.5-37.3.7-56 .1-17.3 0-34.5 0-51.8v-36.3c0-10.8.1-21.5 0-32.3-.2-14.7-.8-29.3-1-44-.2-10.8-.1-21.5.1-32.3.1-4-.7-6.5-5.6-6.3-6.3.2-12.5-.3-18.8-.4-5.6-.1-11.3-.2-16.9 0-6.2.1-12.4.9-18.5.7-11.4-.4-22.9-1.5-34.3-1.8-8.9-.2-17.8.7-26.7.8-6.9 0-13.8-.8-20.6-.8-11.4-.2-22.8 0-34.1 0h-71.6c-21.2 0-42.4-.1-63.5-.1-10.5 0-21-.2-31.4-.2-23.2.3-46 .5-68.9.5-12.2 0-24.4-.8-36.6-.8-14.9 0-29.9.6-44.8.8-6.7.1-13.5 0-20.2-.2-6.6-.2-13.3-.8-19.9-.8-6.5 0-13 .6-19.5.6-9.4 0-18.8-.3-28.2-.7C6.7 1.9 5.4 3.9 5.5 8c.2 10.1.2 20.3 0 30.4-.3 14.4-.9 28.9-.9 43.3 0 15.7.7 31.3.8 47 0 7.3-.8 14.7-.8 22 .1 14.9.8 29.9.8 44.8 0 11.5-.7 23-.8 34.5-.4 33.1-.6 66.3-.8 99.4-.1 8.6-.3 17.3-.4 25.9-.1 13.3 0 26.6 0 39.9 0 19.2-.1 38.4.1 57.6 0 1.9 2.2 5 3.9 5.4 4.1 1 8.6 1.1 12.9 1.1 12.8-.2 25.7-.7 38.5-.9 16.3-.1 32.7 0 49.1 0z" fill="#fff"/>
  <path d="M107.9 458.4c-16.4 0-32.8-.1-49.2 0-12.8.1-25.7.7-38.5.9-4.3.1-8.8 0-12.9-1.1-1.7-.4-3.8-3.5-3.9-5.4-.3-19.2-.1-38.4-.1-57.6 0-13.3-.1-26.6 0-39.9 0-8.6.3-17.3.4-25.9.3-33.1.5-66.3.8-99.4.1-11.5.9-23 .8-34.5 0-14.9-.7-29.9-.8-44.8-.1-7.3.8-14.7.8-22-.1-15.7-.8-31.3-.8-47 0-14.4.7-28.9.9-43.3.2-10.1.2-20.3.1-30.4-.1-4.1 1.3-6.1 5.7-5.9 9.4.4 18.8.7 28.2.7 6.5 0 13-.6 19.5-.6 6.6 0 13.3.6 19.9.8 6.7.2 13.5.3 20.2.2 14.9-.2 29.9-.8 44.8-.8 12.2 0 24.4.7 36.6.8 22.8 0 45.6-.2 68.5-.3 10.5 0 21 .1 31.4.2 21.2.1 42.4.1 63.5.1h71.6c11.4 0 22.8-.1 34.1 0 6.9.1 13.8.9 20.6.8 8.9 0 17.8-1 26.7-.8 11.4.2 22.9 1.4 34.3 1.8 6.2.2 12.3-.6 18.5-.7 5.6-.1 11.3-.1 16.9 0 6.3.1 12.6.6 18.8.4 4.9-.2 5.7 2.3 5.6 6.3-.2 10.8-.2 21.5-.1 32.3.2 14.7.8 29.3 1 44 .2 10.8 0 21.5 0 32.3v36.3c0 17.3.1 34.5 0 51.8-.1 18.7-.8 37.3-.7 56 .1 11.5 1.4 23 1.7 34.6.2 10-.3 20.1-.3 30.1 0 12.1.4 24.1.2 36.2-.1 10.8-1 21.6-1.1 32.5-.3 16.1-.3 32.2-.4 48.3 0 3-.7 6.2-.1 9 1.3 5.7-1.5 6.2-6 6.1-18.4-.4-36.8-.7-55.2-.8-22.7-.1-45.4 0-68.1 0H280.1c-33.2 0-66.4-.1-99.6-.1h-72.9c.3-.5.3-.9.3-1.2zm102.2-48.8c-.2-.6-.4-1.1-.7-1.7-2.8.9-6.9-2.2-8.4 3.1 0 .2-1.3 0-2 0-9.3-.3-18.6-.7-27.9-.7-1.8 0-5.1 1.8-5.2 2.9-.3 4.6-4 5.4-6.8 6.7-4.4 2-9.1 3-13.6 4.7-9.1 3.4-18.1 7.2-27.3 10.4-8.9 3.1-18 5.6-26.9 8.6-6.9 2.3-13.7 4.8-20.6 7.3 2.6 1.2 5.1 1.2 7.5 1.3 9.6.3 19.1.8 28.7.8 8.8 0 17.6-.9 26.3-.8 9.4 0 18.9 1 28.3 1 74 .1 148 0 222 .1 8.6 0 17.2.6 25.8.9 4 .1 8.1 0 12.1 0 12.6.1 25.1.2 37.7.1 10.5-.1 21.1-1 31.6-.5 3.6.2 3.6-1 3.7-3.3.4-8.5.8-17 1.1-25.5.1-3.9-.8-8 3.9-10.3.9-.4 1.4-2.4 1.4-3.7-.1-4.4-.7-8.7-.6-13.1.2-15.2.7-30.4.8-45.6 0-8.4-.9-16.8-.8-25.1.1-11.6.9-23.2 1.1-34.8.2-11.6-.1-23.3-.1-34.9V110.4h-91.1c1.1 3.1 2.7 6 3.1 9.1.5 3.9.9 8.3-.3 11.9-3.6 10.5-13.1 12.1-22.3 12.3-13.1.3-26.2-.5-39.3-.9-7.9-.3-15.7-.7-23.6-1.1-3.1-.2-4.3.6-5.6 4.1-2.8 7.8-5.8 16-10.8 22.5-8.5 11-18.5 20.8-27.9 31.1-.7-.3-1.4-.6-2.2-1 0-1.7-.7-3.9.1-4.9 3.6-4.4 7.9-8.2 11.3-12.8 8.1-10.8 11.8-23 9.5-36.6-.2-.9-1.5-2.2-2.3-2.3-3.8-.4-7.6-.7-11.3-.6-12.5.5-25-.1-37.5-.5-13.1-.4-26.3 0-39.4-.2-13.8-.2-27.6-.6-41.3-1.1-20.9-.8-41.8-1.7-62.7-2.6-10.1-.5-20.3-.5-30.3-2-6.7-1-13.4-3.5-19.7-6.4-7.9-3.7-10.4-10.8-7.3-18.7 1.3-3.3 3.4-6.3 5.3-9.5-3.8-.4-7.6-2-10.5-1-5 1.9-.9 6.3-1 9.5-.4 8.3-.5 16.6-.6 24.9-.2 27.5-.4 54.9-.5 82.4-.1 13 0 26 0 39v48.8c0 2.8.5 4.4 3.8 4.6 11.2.7 22.5 1.8 33.7 2.7 8.2.6 16.5.8 24.7 1.8 7.8.9 15.4 3 23.2 4 5 .6 10.5 1.5 15 0 8.4-2.8 16.4-7.1 24.3-11.1 4-2 7.6-4.7 11.8-7.3-7.3 0-13.9.3-20.4-.1-4.8-.3-9.7-.9-14.3-2.4-5.4-1.7-5.7-6-1.2-9.6 1.1-.9 1.9-2.3 2.8-3.5-.3-.5-.6-.9-.9-1.4-5.5.6-11.1.8-16.5 2-9.9 2.1-11.7 1.4-16.1-7.4-.5-1-2.6-2-3.7-1.8-5.6 1.2-7.9-2-9.7-6.4-1.9-4.9.5-8.4 4.2-10.6 3.2-1.9 3.1-4 2.5-6.8-1.7-7.7-3.7-15.5-5-23.3-.6-3.4.1-7-.2-10.5-.5-5.4-4.7-4-7.9-3.8-3.4.2-3.2 2.2-2.3 5 .6 1.9-.2 4.3-.3 6.5-7.3-11.3-3.8-17.4 10.2-19.9 10-48.5 63-70.1 102.2-54.6 3.4-5.4 6.8-4.1 9.8.5 1.2-.9 2-1.6 3.4-2.7 0 2.9-.2 5 .1 7 .2 1.6.6 3.8 1.7 4.5 8.6 5.4 13.7 13.7 18.9 22.1 8.3 13.3 10.5 27.9 9 42.8-1.6 15.3-6.2 30-15.5 42.6-2.2 3-1.9 5.1.5 7.3 9.7 9.4 19.5 18.6 29.1 28.1 12.5 12.4 25 24.9 37.3 37.5 1.6 1.7 3.8 5.2 3.1 6.5-2.6 4.7.8 8.8.5 13.1-.2 2.2.3 4.5 0 6.7-1.1 7.7-2.2 15.5-3.5 23.2-1 5.8-.4 12.5-8 14.9-.8.2-1.7 1.6-1.7 2.5-.2 5.6-.1 11.2-.1 18h54.6v2.3h-53c11.8 1.3 23.6 2.3 35.4 2.8 9.2.5 18.4.6 27.6.4 4.9-.1 9.4-.2 12 6.3h-16.9c0 .4.1.7.1 1.1 1.6.3 3.1.7 4.7 1-22.4 3-45-.4-67.2 3.1v2h17.7c0 .5.1 1.1.1 1.6-3 .2-6 .6-8.9.6-11.1 0-22.5-1.6-33.3.2-9.2 1.5-17.2-.6-25.6-2.3-2.7-.5-6.1-1.5-7.6-3.4-5.1-6.5-11.7-6.4-19-6.4-8.4 0-16.8-1.7-23.2-8.1-1.9-1.9-2.3-3.1.3-5.1 5.1-3.7 9.8-7.6 16.8-7.4 2.5 0 5.3-2.4 8-3.6zm192.5-304.5c1.9-.7 3.8-1.9 5.6-1.9 11-.1 22-.5 33 .2 11.3.7 22.5 1.3 33.8.8 11.1-.6 22.2-1.7 33.3-2.1 10.1-.4 19.4-2.8 28-8.3 8.7-5.5 15.5-12.4 19.5-22 5.4-12.9 3.8-26 .5-38.6-1.9-7.3-7.4-13.6-11.5-20.3-.7-1.1-2.6-1.9-4-1.9-14.6-.4-29.3-.7-43.9-.8-11.2-.1-22.4.5-33.5.4-14.6-.1-29.2-.6-43.8-.8-11.6-.1-23.1.1-34.7-.1-17-.2-34-.8-51.1-1-11.6-.1-23.1.1-34.7.3-6.3.1-12.6.6-18.9.6-4.3 0-8.7-1-13-.9-14.9.2-29.7.9-44.6 1-18.7.2-37.4.5-56.1-.3-14.2-.6-28.3-1.6-42.5.3-2.1.3-4.4.1-6.6-.1-6.1-.6-12.3-1.8-18.4-1.9-16-.2-32.1-.1-48.1.2-2.7 0-6.8.6-7.9 2.5-8.7 13.8-16.4 28.3-21.1 44.1-2.1 6.9-2.8 14.4-3 21.7-.1 3 2.4 8 4.8 8.9 9.7 3.4 19.7 6.1 29.7 8 4.4.8 7.8 1.9 9.4 4.6-3.3 5.4-6.6 9.8-8.7 14.7-1.8 4.4.1 9.6 4.3 11.1 9.9 3.4 20.2 6.5 30.5 8 9.5 1.3 19.3.1 28.9.4 10 .3 20 1.3 30 1.6 7.3.2 14.6-.4 21.9-.1 13.5.5 27 1.5 40.6 2.1 8.4.3 16.8.2 25.1.4 15.1.2 30.1.6 45.2.8 4.7.1 9.5-.3 14.3-.3 9.9-.1 13.4 3.4 13.1 14-.1 5.3-1.1 10.6-1.8 16.4 5.2-7.7 10.7-14.8 10.7-24.4 0-3.9 1.6-6.6 6.3-6.1 4.1.4 8.3 1 12.4 1.1 19.6.1 39.2 1 58.7-.3 12.9-.8 18.6-4.6 13.5-20.5-1.1-3.9-3.1-7.1-5.2-11.5zM112.3 256.4c-2.2 1.5-4.9 2.7-6.8 4.7-1.2 1.2-2.3 4.2-1.6 5.3 1 1.5 4.3 3.3 5.3 2.7 4.5-2.5 5.2-.1 6.1 3.4.6 2.2 1.9 4.1 3.3 6.9 6.9-.9 13.8-2.4 20.7-2.6 3.7-.1 8.2.9 10.9 3.2 1.3 1.1-.5 6.1-.9 9.3 0 .3.1.7.2 1.4 8.2.8 16.2 2.4 24.6-.4 7.6-2.5 16-2.7 23.3-5.7 14.1-5.8 26.2-14.4 32.5-29.1 2.9-6.8 5.8-13.7 8-20.8 3-9.8 3-19.9 1.2-30-2-10.9-6.6-20.5-13-29.6-5.8-8.2-14.5-12.1-22.5-17.1-2.8-1.8-6-3.7-9.2-4.1-7.8-.9-15.7-.8-23.5-1.4-14.5-1.1-26.8 4.8-38.2 12.3-11.5 7.6-19.1 19-24.8 31.4-2.4 5.2-4.2 11.5-3.6 17.1 1.4 13.1 4.3 26 6.6 38.9 4.6-.1 12.8 6.7 13 10.4 0 .9-.7 2.2-1.4 2.6-.7.4-2.3.2-2.9-.4-2.5-2.6-4.6-5.2-7.3-8.4zm416.9 158.8c.8.3 1.5.7 2.3 1 .9-1.5 2.1-2.9 2.5-4.5 4.9-19.3 9.4-38.8 14.7-58.1 4-14.6 9.2-28.9 13.8-43.3 1.2-3.7 3-7.4 3.2-11.1.7-12 1-24.1 1.1-36.1.2-26.8.2-53.6.1-80.4-.1-25-1.3-50-.6-75 .3-10.6.6-21.1.6-31.7V40.2c0-8.2.1-16.5-.1-24.7 0-1.5-1.5-4.2-2.5-4.3-4.7-.5-9.5-.2-14.4-.2 2.7 5.4 5 10.4 7.6 15.1 5.5 10.1 8.3 20.5 6.2 32.1-2.3 12.9-6.2 25-16.5 33.8-10.8 9.2-22.4 16.8-37.5 16.5-3-.1-4.4 1.2-4.2 4.2.3 5.7.9 11.4.9 17.1-.2 16.7-.8 33.4-.8 50.1 0 18.9.8 37.9.9 56.8 0 10.4-1.1 20.9-1.1 31.3 0 19.4.6 38.9.6 58.3 0 9.3-1.4 18.6-1.5 27.9-.1 10.9.7 21.8 1 32.7.2 9 0 18.1 0 27.7 3 .4 6.7.8 10.5 1.3 11.5-42.8 22-85.4 37.5-126.7 1 .7 1.6 1 1.5 1.1-12.1 41.4-24.2 82.9-36.4 124.8 4.5.5 6.9 1.3 7.9-3.6 2.4-12 5.4-24 8.8-35.8 7-24.7 14.5-49.2 21.8-73.8.2-.7 1.6-1.1 3.8-2.5-12.1 39.6-23.2 77.4-31.7 115.8zm51-32.5c.5.2 1 .3 1.5.5-.9 3.4-2 6.8-2.5 10.2-1.5 8.8-8.2 18.1 2.1 25.9 1 .8 2.3 1.3 3.6 1.7.2.1 1.1-1.3 1.1-2 .3-11.7.6-23.3.6-35-.1-10.4-.9-20.8-.9-31.2-.1-23.5-.1-47 0-70.5.1-12.3.9-24.6.8-36.9-.1-20.3-.7-40.5-.9-60.8-.1-13.1-.1-26.1 0-39.2.1-10.8.8-21.5.8-32.3 0-10.2-.8-20.4-.8-30.7-.1-21.8 0-43.5 0-65.3V11c-4.8-.2-8.7-.9-7.1 6 1 4.5.2 9.4.1 14.1-.2 22.5-.5 45-.8 67.5-.3 22.3-.8 44.6-.9 66.9 0 13.6.8 27.1.8 40.7 0 8.7-.9 17.4-1 26.2-.1 21.5.1 43 0 64.5-.1 13.5-.6 26.9-.8 40.4 0 .5.8.9 1.3 1.5 1.2-2.3 2.3-4.4 3.3-6.5.5 10-6.4 18.9-2.9 30 1.4-3.2 2.4-5.6 3.4-8 .3.1.6.2.9.4-2.2 11.8-4.3 23.7-6.5 35.5.5.1 1 .3 1.5.4 1.1-2.7 2.2-5.3 3.3-7.9zm-417.5-17.8c-7 1.2-14.3 2.4-21.6 3.8-.7.1-1.4 1.5-1.8 2.4-3.4 7.8-7.1 15.5-9.8 23.6-3.9 11.5-11 19.7-21.5 25.4-3 1.6-5.9 3.3-8.6 5.4-8.3 6.3-18.3 6.9-27.9 7.3-8.8.4-17.6-1.2-26.4-1.8-.7 0-2.2 1.7-2.3 2.6-.2 4.3.9 8.9-.3 12.9-1.6 5.2 1.1 5.6 4.5 5.1 5.6-.9 11.3-1.9 16.6-3.7 11.9-4.1 23.6-8.9 35.4-13.2 9.9-3.6 20-6.7 30-10.2 8.5-2.9 16.9-6.1 25.4-9 6.4-2.2 8.8-6.4 8.6-13.5-.6-11.9-.3-24.1-.3-37.1zm97.3-47c.8.1 1.6.2 2.3.4-.4 4.8-.6 9.7-1.2 14.4-.5 3.8-.4 4.3 4.2 5.7 0-6.2-1-12.4.3-18 1.3-6-2.1-9-5.3-12.1-9.3-8.7-19-17-28.5-25.5-1.5-1.3-2.7-2.9-4.5-4.8-.6 3.8-1.2 6.7-1.5 9.7-.5 5.4-.5 10.9-1.4 16.2-.3 1.6-3.7 4.2-4.6 3.9-5-2.1-8.3-.1-11.1 3.5-6.2-3.1-12.1-6.1-18.1-9.1-.4.4-.8.7-1.1 1.1 2 1.9 3.9 3.7 6.3 5.9-1.9 1.4-4.1 3-6.5 4.7-.7-1.3-1.1-1.9-1.3-2.5-.6-3-1.1-6-1.8-8.9-.3-1.1-.9-2.6-1.8-3-.9-.3-2.3.5-3.3 1.1-2.7 2-5.2 4.2-7.9 6.2-3 2.2-5.9 4.6-4.4 8.6 1.3 3.5 3.2 6.9 5.6 9.7 3.5 4 8.9 3 11.8-1.5.7-1.1 1.3-2.4 2.4-4.6 3 5.6 5.5 10.5 8 15.3 1.3 2.5 2.5 3.8 4.3.2.4-.9 1.5-1.5 2.3-2.3 2.7 2.1 5.2 4.1 7.6 5.9 16.5-6.7 16.4-22.4 20-36.6 1.2 2.6 1.7 5.1 1.4 7.4-.6 3.7-.2 6.2 4.1 6.7 1.4.2 2.7 1 3.9 1.8 5.6 3.7 11.2 7.4 16.6 11 1.2-3.3 2.2-6.9 3.2-10.5zm-49.4 86.7c.7-2.1 1-4.1 2-5.6 2.3-3.5 1.9-5.3-2.4-6.7-2-.7-4.7-3.1-4.8-4.9-.2-3.8 1.1-7.7 1.6-11.6.2-1.3.2-3.2-.6-4-3.1-3.2-6.1-6.6-9.9-8.8-4.4-2.6-5-6.9-2.9-9.5 4.3-5.4 1.4-9.3-.7-13.7-.9-1.9-2.5-3.7-2.9-5.8-1-5.1-3.8-4.2-7.2-2.8-5.6 2.3-11.3 4.4-16.9 6.6-1.2.5-2.3 1.6-4.5 3.2 7.4-.2 13.5.1 15.4 6.7.9 3.1 0 7.3-1.5 10.2-1.3 2.3-4.8 3.5-7.1 5-.5 10.3-1.3 20.7-1.4 31.1 0 3.2 1 6.6 6.1 6.3 9-.4 18.1-.1 27-.1v4.3c3.8.1 7.2.1 10.7.1zm-89.3-84.4c-1.6-1.2-2.1-2-2.7-2.1-14.5-1.1-29-2.1-43.6-3.2-9-.7-18.1-1.2-27.1-2.6-4.4-.7-5.4.1-5.3 4.2.2 7.8.4 15.7 0 23.5-.4 7 0 7.3 7 5.9 9.6-1.9 19.3-3.4 29-4.8 6.9-1 13.9-1.5 19.9-2.2.8-2.5 1.3-4.2 1.9-5.8.5-1.6 1.7-3.1 1.6-4.6-.2-5.2 2.6-7.7 7.2-8.2 3.6-.4 7.2-.1 12.1-.1zM18.1 250.6c.6.1 1.1.2 1.7.2 3.3-9.8 7.9-19.3 9.4-29.3 1.6-10.7.4-21.9.4-32.8v-77.8c0-3.2-1.1-6.4-.7-9.6.8-6.4-3.4-10.7-10.3-9.5.9 39.6-3.3 79.2.8 118.7.7-.5 1.7-1.3 2.9-2.2-.2 8.6-6 16.1-2.6 25.6 2.4-7.4 4.6-13.9 6.7-20.3.8.3 1.6.5 2.4.8-3.5 12-7.1 24.1-10.7 36.2zm20.3-154c-.8-.2-1.7-.4-2.5-.6-.6 1.9-1.9 3.8-1.9 5.7.1 9.3.9 18.6.9 27.9 0 13.2-.8 26.5-.9 39.7-.1 33.6 0 67.2 0 100.8v61.3c0 2.7.8 5.3.8 8 .1 9.2 0 18.4 0 27.8 5.5-1.1 4.7-5.6 4.5-9.7-.2-2.9-1-5.7-.9-8.6.2-15.5.8-31 1-46.6.2-10.7 0-21.3 0-32V163.8c0-19.3.1-38.6-.1-57.9.1-3-.6-6.2-.9-9.3zm182.1 264.2c4.4 1 3.7 9 10.4 4.8-4.8-4-2.6-5.7 1.3-8.2 6.5-4 12.6-8.5 18.4-13.4 4.9-4.1 5.4-9.8 1.6-12.1-6.7-3.9-13.5-7.6-19.9-11.1-2.7 4.6-4.6 10.1-8.3 13.5-5.4 4.9-12.3 8.1-18.2 12.6-2.8 2.2-4.7 5.5-7.1 8.4.5.4 1 .9 1.5 1.3 1.1-.6 2.3-1.3 4.3-2.4.4 4.3.8 8.1 1.4 13.4 1.8-2.4 2.6-3.6 3.5-4.6.9-1.1 2-2.1 3-3.1.8 1.2 1.7 2.4 2.5 3.6.9 1.5 1.8 3 3.3 5.4 1.1-3.9 1.7-6 2.3-8.1zM96.3 383.1c-7.6 1.2-14 1.8-20.1 3.3-6.3 1.6-12.3 4.5-18.6 6.1-15.4 3.9-15.5 3.8-15.5 19.1 0 5.8 1.3 6.9 7.3 7.4s11.9 1.4 17.9 2.1c3.3.4 6.4.3 8.1-3.5 1.2-2.7 3-5.2 4.5-7.8 5.3-8.6 10.6-17.2 16.4-26.7zm434.2 62.2c-.7-.2-1.4-.3-2-.5.2-2.3.1-4.7.5-7 .8-3.8 1.9-7.6 2.7-11.4.9-4.1 0-5-3.7-4.8-1.9 7.9-3.8 15.7-5.9 24.6-1.3-1.8-2.2-2.5-2.1-2.9 1.1-5.2 2.6-10.4 3.6-15.7.4-1.7.2-3.8-.4-5.5-.2-.6-2.8-1.3-3.2-.8-1.1 1.1-1.8 2.8-2.4 4.4-.4 1-.4 2.1-.6 3.1-.6 2.6-1.3 5.2-1.9 7.8-.7-.2-1.4-.3-2.1-.5.7-5.2 1.5-10.4 2.2-15.7-3.8 0-7.4.5-10.8-.1-3.9-.6-4.3 1.2-4.4 4.2 0 7.5.4 15-.3 22.4-.5 5.3.8 6.8 6.2 6.6 9.3-.5 18.6-.1 27.5-.1 2.1-10.6 4.1-21.2 6.4-33-6.5 3-4.8 8.1-5.8 12.1-1.1 4.3-2.3 8.5-3.5 12.8zM106 334.3v.5c5 1 10.1 1.7 14.9 3.2 2.9.9 5.7 2.7 7.9 4.8.5.5-1.9 3.9-3.6 7.2 3-.5 6.3-.1 7.7-1.5 5.3-5.3 11.9-7.4 18.6-9.7 6.6-2.3 13-5.1 18.3-7.2-2.4-6.2-4.6-11.8-7-17.8-6.2 2.8-12.5 6.2-19.1 8.5-9 3.1-18 8.7-28 2.6-1.1-.7-3.1-.1-4.6-.1.5 1.5.9 1.7 1.3 2 1.7 1.4 3.4 2.9 5.1 4.4-2 1-4 2.4-6.1 3-1.8.4-3.7.1-5.4.1zM573.5 11.2H571v319.4c3.1-106.5 2.4-213 2.5-319.4zm-299.6 345c-5.2-2.6-9.5-5.1-14.1-6.7-1.6-.6-4.4.4-6 1.6-4.1 3-7.8 6.5-11.7 9.7-.7.6-1.6 1-2.1 1.7-.5.6-1 1.9-.7 2.2.6.7 1.8 1.3 2.6 1.2 9.1-1.2 18.4-2 27.3-4.2 8.2-2 16.4-5 22.4-11.6 1.2-1.3 2.1-4.8 1.3-5.9-4.4-5.8-9.4-11.2-14.1-16.8-1.8 9.9-1.3 19.2-4.9 28.8zM43 390.7c8.3-2.6 16-5.2 23.9-7.3 8.2-2.3 16.4-4.7 24.8-5.9 9.4-1.4 13.6-4.1 15.3-13-6.3 1.1-12.6 1.8-18.8 3.3-12.6 3-25.3 6.1-37.7 9.7-8.9 2.6-7.6-.2-7.7 10.3 0 .7.1 1.4.2 2.9zM11 237.5h1.5c.9-4.7 2.6-9.3 2.6-14 .1-13.4-.8-26.8-.8-40.2.1-18.7.8-37.5 1-56.2.1-13-.2-26.1-.6-39.1 0-1.8-1.3-3.5-2-5.3l-1.8.3c.1 51.5.1 103 .1 154.5zm558.7 197.1c-.4-.1-.9-.2-1.3-.3-.9 3.7-1.7 7.5-2.6 11.2-.5-.1-1.1-.2-1.6-.3.1-1.5 0-3.1.3-4.6 1-5.1 2.2-10.1 3-15.2.2-1.2-.9-2.6-1.4-3.9-.5.1-1 .2-1.4.3-2.5 10.5-5 20.9-7.5 31.4-.6-.1-1.2-.2-1.8-.4-.1-.8-.5-1.7-.4-2.4 1.7-7.8 3.6-15.5 5.2-23.2.3-1.5-.3-3.1-.4-4.7-1.3 1.3-3.3 2.4-3.7 3.9-1.4 6-2.2 12.2-3.5 18.3-.5 2.2-1.7 4.2-2.5 6.3-.6-.2-1.1-.3-1.7-.5.1-2.1.1-4.2.4-6.2 1.3-6.5 2.8-12.9 4.1-19.4.2-1.1-.4-2.4-.7-3.5-1.3.9-3.5 1.6-3.7 2.7-2.1 8.7-3.9 17.4-5.5 26.2-.2 1 1.7 3.4 2.6 3.4 8.1.3 16.3.2 24.2.2-.1-6.7-.1-13-.1-19.3zM567.5 312c-6.6 3.9-31.4 97.6-28.9 105.6 1.2-2.2 2.5-3.7 3-5.4 1.3-5 2.1-10.1 3.4-15.1 5.8-21.9 11.7-43.7 17.5-65.5 1.8-6.6 3.3-13.1 5-19.6zM117 377.7c-6.5-.5-10 1.8-13 7.3-6.1 11.6-12.5 23.1-18.7 34.7-.5.9.2 2.4.3 3.8 16-12.3 26.6-27.1 31.4-45.8zM228.3 435c7.1 1.7 13.4 4.4 19.6 4.5 11.2.2 22.5-1.1 33.7-2.2 1.1-.1 2.7-3.6 2.5-5.3-.2-1.2-2.9-3-4.6-3-4.5-.1-9 .4-13.4 1-4.1.5-9.1.3-11.9 2.6-5.1 4.1-9.1 2-13.2-.4-4.2-2.5-7.7-2.4-12.7 2.8zm339.3-100-2.1-.6c-1 2.3-2.2 4.6-2.8 7-4.7 17.1-9.3 34.2-13.8 51.3-1.7 6.5-3.3 13.1-4.8 19.7-.2.9.7 2.1 1 3.2.7-.4 1.8-.6 2-1.2 1.6-5.6 2.9-11.3 4.6-17 3.3-11.4 7.1-22.7 10-34.2 2.4-9.3 3.9-18.8 5.9-28.2zm-286.7 84.2c.3-3.9.3-7 1-10 .9-3.9-.1-4.7-4.1-4.3-6.4.6-13 1-19.4.5-2.8-.2-4.9-.7-5.1 2.2-.1 1.3 1.9 3.6 3.4 4.1 7.9 2.7 16.1 5 24.2 7.5zM19 41.4c.4.1.9.1 1.3.2 1.3-3.4 1.8-7.6 4.2-10 5.7-5.8 4.8-12.6 5.2-19.6.4-6.3-4.6-3.3-6.9-4-2-.6-4.5.4-4.3 4.1.4 9 .1 17.9.1 26.9 0 .8.2 1.6.4 2.4zm549.1 319.2c-.7-.2-1.4-.4-2.2-.5-.4 1-1 2-1.3 3.1-2 6.8-3.9 13.7-5.9 20.5-2.7 9.8-5.6 19.5-8.1 29.3-.3 1 1.3 2.5 2.1 3.7 1-.8 2.7-1.3 3-2.3 2.2-7.5 4.4-15.1 6.1-22.8 2.4-10.3 4.3-20.7 6.3-31zm-377.6 61.5c9.2 8.1 36.4 8.7 44.9 1.3 1.6.6 3.3 1.1 5 1.7.2-.5.4-.9.6-1.4-.9-.5-1.7-1.4-2.7-1.5-3.5-.5-7.1-1.1-10.7-1.1-4.5 0-9.2-.2-13.3 1.3-4.5 1.6-8.5 1.2-11.9-1.3-4.4-3.1-7.8-1.6-11.9 1zM110 411.6c7.6-1.1 11-6.9 13.8-13 2.9-6.2 5.7-12.6 8.1-19 3.7-9.8 7.1-19.7 10.6-29.7.3-.8-.1-1.9-.1-2.8-1.1.4-2.5.4-3.1 1.2-1.1 1.5-1.8 3.3-2.3 5.1-.4 1.5.2 3.4-.4 4.8-6.2 13.8-12.6 27.6-18.9 41.4-.3.7 0 1.7-.2 2.5-.3 1.4-.4 3-1.3 3.9-1.8 2.1-4 3.8-6.2 5.6zm32.8-48.3c6.7-1.3 12.8-2.3 18.9-3.7 8.9-2 9.8-3.3 8.9-11.1-6.2 1.2-12.5 2.5-18.7 3.7-5.5 1.2-8.7 4.5-9.1 11.1zM11.8 62c.6.1 1.3.1 1.9.2.6-2.7 1.6-5.4 1.6-8 .2-13.8.1-27.7 0-41.5 0-1.6-1.3-3.3-2.1-4.9-.8 1.6-2.1 3.2-2.2 4.8-.2 11.1-.2 22.1-.1 33.2.1 5.4.6 10.8.9 16.2zm204.7 339.7c8.1 2.1 16.5 4.3 24.9 6.5 1.7-6.1-2.9-12.1-7.7-12.2-3.8-.1-7.8.4-11.5-.3-4.1-.7-5.5.7-5.7 6zM195 297.1c4.8 2.8 9.2 5.4 14 8.3 3.4-7.7 6.5-14.9 9.7-22.1-4.1 1.9-7.5 4.8-11.2 7.2-3.9 2.4-8.1 4.3-12.5 6.6zm-59.3 57.2-2.4-1.2c-7.6 5.1-6 14.8-10.1 21.8-3.9 6.6-5.9 14.4-8.7 21.7.7.3 1.4.5 2 .8 6.4-14.4 12.8-28.8 19.2-43.1zM16.9 430.9c1.9 0 2.9.1 2.9 0 3.3-13.8 6.7-27.6 9.8-41.4.7-3.2.7-6.5 1-9.8-.7-.1-1.3-.2-2-.3-3.9 16.9-7.7 33.9-11.7 51.5zm12-143.9c-4.1 14.4-7.9 28-12.2 42.9 5.6-4 14.8-37.9 12.2-42.9zm-11.8 21.6c.9.3 1.8.6 2.7.8 3.6-13.5 7.3-27 10.9-40.6-.9-.2-1.8-.5-2.7-.7-3.6 13.6-7.2 27-10.9 40.5zm264.2 114c-9.7-1.7-18.6-3.3-27.8-4.9-1.9 3.3 1.8 5 4 5.4 7.9 1.5 15.9 2.2 24.3 3.2-.3-2.5-.5-3.7-.5-3.7zM241 411.9c-8.2-1.1-15.9-2.1-23.4-3.1 2.5 4.6 15.7 9.6 23.4 8.5v-5.4zM17.1 270.3c1.7-.8 2.7-.9 2.8-1.3 3.2-12.1 11-23 8.9-36.7-3.8 12.3-7.6 24.6-11.7 38zm541.5 147.1c6.8-3.4 10.4-21.3 6.6-28.6-2.2 9.6-4.3 18.5-6.6 28.6zM30.9 252.1c-.7-.2-1.4-.4-2.1-.5C24.9 264 19.4 276 17.6 289c.5.1.9.2 1.4.4 4-12.4 7.9-24.9 11.9-37.3zm514.4 169.5c-.8-.1-1.5-.2-2.3-.3-2.1 10.8-5.1 21.5-6 32.5.8.1 1.7.3 2.5.4 1.9-10.9 3.8-21.8 5.8-32.6zm-431.9-50.9c6.9 0 9.9-3.1 10.4-8.4 0-.6-.5-1.7-.9-1.8-.9-.2-2.3-.2-2.7.3-2.4 3.2-4.6 6.6-6.8 9.9zM8.7 428.4c.7.1 1.3.3 2 .4 1.4-6.4 2.8-12.7 4.2-19.1-.9-.2-1.8-.4-2.6-.5l-3.6 19.2zm30.1-15.3c-5 7.3-6 16.9-2.8 19.1.9-6.5 1.9-12.8 2.8-19.1zM9.9 261.3c.9.1 1.7.2 2.6.4.7-5.4 1.4-10.8 2.1-16.3l-2.4-.3c-.7 5.4-1.5 10.8-2.3 16.2zm212.9 28c-.5-.2-1-.4-1.6-.5-1.7 3.9-3.4 7.7-5.4 12.4 2.4.1 3.8.2 5.3.3.7-4.4 1.2-8.3 1.7-12.2zm-199 80.9c-.8-.1-1.6-.3-2.5-.4-1.1 5.9-2.1 11.7-3.2 17.6.7.1 1.3.2 2 .3 1.2-5.9 2.5-11.7 3.7-17.5zm549 27.3c-1-.1-1.9-.2-2.9-.3-.3 5-.6 10-.9 14.9.8.1 1.5.2 2.3.2.5-4.9 1-9.9 1.5-14.8zm-2.7-11.3h1.5v-17.4h-1.5v17.4zm-234.2 46.6v-1h-28.6v1h28.6zm-35.5 3.3c-3.5-1.4-6.9-2.8-10.8-4.3.5 5.7 2.6 6.5 10.8 4.3zM10.3 359c.7.2 1.4.4 2.2.6.9-4.8 1.7-9.6 2.6-14.4-.8-.1-1.5-.3-2.3-.4-.9 4.8-1.7 9.5-2.5 14.2zM581 439.9c1.6-.1 3.9-.1 3.9-.2.2-3.1.2-6.2.2-9.3-.7-.1-1.3-.1-2-.2-.7 3-1.3 6-2.1 9.7zm-8.3-97.5c-.6-.1-1.2-.2-1.7-.2-2.3 4.7-.1 9.9-.7 14.9.6.1 1.2.1 1.7.2.2-5.1.5-10 .7-14.9zm-541.3-3.6c-4.6 3.9-6 10.9-3.3 14.4 1.1-4.6 2.1-9 3.3-14.4zm3 112.8c4.5-.2 5.1-2.7 2.9-12.6-1.1 5-2 8.6-2.9 12.6zm-21.3-9.2c-.7-.1-1.4-.2-2.1-.4-.4 3.2-.9 6.4-1.5 10.8 7.4-3.1 1.9-7.5 3.6-10.4zM581 453.5c.5.3 1 .7 1.4 1 1-.9 2.8-1.9 2.9-2.8 0-2.2-.8-4.4-1.3-6.5-.8.1-1.5.2-2.3.2-.2 2.7-.5 5.4-.7 8.1zM57.9 350.4c0-.6-.1-1.2-.1-1.8-5 .9-10 1.8-14.9 2.6.1.6.2 1.2.3 1.9 4.8-.8 9.8-1.8 14.7-2.7z"/>
  <path d="M210.1 409.6c-2.7 1.3-5.5 3.6-8.2 3.5-7-.2-11.7 3.6-16.8 7.4-2.6 1.9-2.2 3.2-.3 5.1 6.5 6.4 14.8 8.1 23.2 8.1 7.3 0 13.9-.2 19 6.4 1.5 1.9 4.9 2.9 7.6 3.4 8.4 1.7 16.5 3.8 25.6 2.3 10.8-1.8 22.2-.2 33.3-.2 3 0 6-.4 8.9-.6 0-.5-.1-1.1-.1-1.6h-17.7v-2c22.2-3.5 44.8-.1 67.2-3.1-1.6-.3-3.1-.7-4.7-1 0-.4-.1-.7-.1-1.1h16.9c-2.6-6.5-7.1-6.4-12-6.3-9.2.1-18.4 0-27.6-.4-11.8-.6-23.5-1.6-35.4-2.8h53v-2.3h-54.6c0-6.8-.1-12.4.1-18 0-.9.9-2.2 1.7-2.5 7.6-2.4 7-9.1 8-14.9 1.3-7.7 2.5-15.4 3.5-23.2.3-2.2-.2-4.5 0-6.7.3-4.3-3.1-8.4-.5-13.1.7-1.3-1.4-4.8-3.1-6.5-12.3-12.6-24.8-25.1-37.3-37.5-9.6-9.5-19.4-18.7-29.1-28.1-2.3-2.3-2.7-4.3-.5-7.3 9.3-12.6 13.9-27.4 15.5-42.6 1.6-14.9-.7-29.5-9-42.8-5.2-8.4-10.3-16.6-18.9-22.1-1.1-.7-1.5-2.9-1.7-4.5-.3-2-.1-4.1-.1-7-1.5 1.2-2.3 1.8-3.4 2.7-3-4.6-6.4-5.9-9.8-.5-39.2-15.5-92.2 6.1-102.2 54.6-13.9 2.5-17.5 8.6-10.2 19.9.2-2.2 1-4.6.3-6.5-.9-2.8-1.1-4.8 2.3-5 3.1-.2 7.4-1.6 7.9 3.8.3 3.5-.4 7.1.2 10.5 1.4 7.8 3.3 15.5 5 23.3.6 2.8.7 4.9-2.5 6.8-3.7 2.2-6.1 5.7-4.2 10.6 1.7 4.4 4.1 7.6 9.7 6.4 1.1-.2 3.2.8 3.7 1.8 4.4 8.8 6.2 9.5 16.1 7.4 5.4-1.1 11-1.3 16.5-2 .3.5.6.9.9 1.4-.9 1.2-1.6 2.6-2.8 3.5-4.5 3.6-4.3 7.8 1.2 9.6 4.5 1.5 9.5 2.1 14.3 2.4 6.5.4 13.1.1 20.4.1-4.2 2.6-7.8 5.3-11.8 7.3-8 4-15.9 8.3-24.3 11.1-4.5 1.5-10 .7-15 0-7.8-1-15.4-3-23.2-4-8.2-1-16.5-1.2-24.7-1.8-11.2-.9-22.5-1.9-33.7-2.7-3.3-.2-3.8-1.9-3.8-4.6.1-16.3 0-32.5 0-48.8 0-13-.1-26 0-39 .1-27.5.3-54.9.5-82.4.1-8.3.2-16.6.6-24.9.2-3.3-4-7.7 1-9.5 2.8-1.1 6.7.5 10.5 1-1.8 3.2-4 6.2-5.3 9.5-3.1 8-.6 15 7.3 18.7 6.2 2.9 12.9 5.4 19.7 6.4 10 1.5 20.2 1.5 30.3 2 20.9 1 41.8 1.9 62.7 2.6 13.8.5 27.6.9 41.3 1.1 13.1.2 26.3-.2 39.4.2 12.5.4 25 1 37.5.5 3.8-.1 7.6.1 11.3.6.9.1 2.2 1.4 2.3 2.3 2.3 13.6-1.4 25.8-9.5 36.6-3.4 4.5-7.8 8.3-11.3 12.8-.8 1-.1 3.2-.1 4.9.7.3 1.4.6 2.2 1 9.4-10.3 19.5-20.1 27.9-31.1 5-6.5 8-14.7 10.8-22.5 1.2-3.5 2.5-4.3 5.6-4.1 7.9.4 15.7.9 23.6 1.1 13.1.4 26.2 1.2 39.3.9 9.2-.2 18.7-1.8 22.3-12.3 1.2-3.6.8-8 .3-11.9-.4-3.1-2-6-3.1-9.1H501v147.1c0 11.6.3 23.3.1 34.9-.2 11.6-1 23.2-1.1 34.8-.1 8.4.8 16.7.8 25.1-.1 15.2-.6 30.4-.8 45.6 0 4.4.6 8.7.6 13.1 0 1.3-.5 3.2-1.4 3.7-4.7 2.3-3.7 6.4-3.9 10.3-.3 8.5-.7 17-1.1 25.5-.1 2.3-.1 3.5-3.7 3.3-10.5-.5-21 .4-31.6.5-12.6.1-25.1-.1-37.7-.1-4 0-8.1.1-12.1 0-8.6-.2-17.2-.9-25.8-.9-74-.1-148 0-222-.1-9.4 0-18.9-.9-28.3-1-8.8 0-17.6.8-26.3.8-9.6 0-19.1-.5-28.7-.8-2.4-.1-4.9 0-7.5-1.3 6.8-2.4 13.7-5 20.6-7.3 8.9-3 18-5.5 26.9-8.6 9.2-3.2 18.2-7 27.3-10.4 4.5-1.7 9.3-2.7 13.6-4.7 2.8-1.3 6.5-2.1 6.8-6.7.1-1.1 3.4-2.9 5.2-2.9 9.3 0 18.6.4 27.9.7.7 0 2 .2 2 0 1.4-5.3 5.6-2.1 8.4-3.1.5.7.7 1.2.9 1.8zm233.3-144c4.1 2.3 7.7 4.3 11 6.2 7.1-6.5 7.1-7.7 2-14.5-.8-1-1-2.6-1.3-3.9-1.1-6.6 1.5-12 5.4-17 3.4-4.4 3.6-9.3 1.4-14.3-2.4-5.3-5-10.6-7.9-15.7-4.2-7.2-11.1-12.1-18.8-13.1-15.5-2.2-30.2.8-43.3 10.4-2.5 1.8-6.5 2.2-9.8 2.3-4.1.2-8.2-.7-12.3-.9-6.2-.3-12.2 4.6-14.2 11.5-1.9 6.4.2 10.6 6.5 14.3 3.9 2.3 7.6 5 12.2 8-4.9 4.7-8.9 8.3-12.7 12.1-4.9 4.9-3.7 9.7 2.7 12.8 4.8 2.3 9.2 5.4 13.7 8.2 3.7 2.2 7.2 4.8 11 6.6 4.3 2.1 9 3.6 13.5 5.4-.1.5-.1.9-.2 1.4-1.3.1-2.7.7-3.8.3-6.6-2.4-11.7 1.2-15.3 5.4-3.2 3.8-4.3 9.1.1 13.7.6.6.7 2.1.5 3.1-1.5 6-3.2 11.9-5.3 19.5-2.7 2.1-5.1-1-8.3-3.7-3.7-3.2-7.8-6.2-12.2-7.8-2.4-.8-7.4.6-8.5 2.6-2.5 4.2-5.8 8.9-3.1 14.6.7 1.4.1 3.5.1 5.9-10.4.7-20.4 1.3-30.4 2 0 .7.1 1.4.1 2.2 2.5 0 5-.3 7.4.1 2.2.3 4.3 1.4 6.2 2.1 4.6 0 9.3.5 13.8-.1 5.7-.8 8.8 2.5 12.7 5.7 6.4 5.4 17.2 7.2 22.3-1.1 3.1-5 6.9-3.7 10.8-2.7 2.9.7 5.4 3 8.3 3.3 3.6.5 4.5 2.1 5.3 5.4 1.7 6.6 9.8 8.9 16.4 6.6 5.8-2 10.3-7.5 17.4-6.2 3.4.6 7 .1 10.5.1 0-.5.1-1 .1-1.5-2.3-.4-4.7-.8-7-1.1 10-.9 19.9 0 29.6-1.1.2-.7.4-1.3.7-2-1.1-.5-2.2-1-3.4-1.5l.7-.7c4.3.4 8.6.7 12.8 1.1 0-.8 0-1.6.1-2.5h-18c0-.4.1-.7.1-1.1 2.3-.8 4.6-1.6 6.9-2.3 0-.4-.1-.9-.1-1.3H446c7.9-12.5 2.5-20.5-7.3-28.1 1.1-1.5 2.5-3.5 4.1-5.4 5.8-6.8 6.1-9.3 1.4-16.1-.7-1-1.5-1.8-2.3-2.7-2.5-2.9-5-4.8-9.3-3.2-2.5.9-5.6.2-8.4.2-.4-.6-.8-1.1-1.1-1.7 1.8-2 3.5-4.3 5.5-6.1 4.9-4.5 12.7-6.1 14.8-13.7z" fill="#fff"/>
  <path d="M112.3 256.4c2.7 3.2 4.8 5.8 7.2 8.1.6.6 2.2.8 2.9.4.8-.4 1.5-1.7 1.4-2.6-.2-3.7-8.5-10.5-13-10.4-2.3-12.9-5.2-25.8-6.6-38.9-.6-5.5 1.2-11.9 3.6-17.1 5.7-12.4 13.3-23.8 24.8-31.4 11.4-7.5 23.7-13.5 38.2-12.3 7.8.6 15.7.5 23.5 1.4 3.2.4 6.4 2.3 9.2 4.1 8 5 16.8 8.9 22.5 17.1 6.4 9 11 18.6 13 29.6 1.8 10.1 1.8 20.2-1.2 30-2.2 7.1-5.1 13.9-8 20.8-6.3 14.7-18.4 23.4-32.5 29.1-7.3 3-15.7 3.2-23.3 5.7-8.4 2.8-16.4 1.2-24.6.4-.1-.7-.2-1-.2-1.4.4-3.2 2.2-8.2.9-9.3-2.7-2.2-7.2-3.3-10.9-3.2-7 .3-13.9 1.7-20.7 2.6-1.4-2.8-2.7-4.7-3.3-6.9-.9-3.5-1.6-5.9-6.1-3.4-1.1.6-4.4-1.2-5.3-2.7-.7-1 .4-4 1.6-5.3 2-1.7 4.6-2.9 6.9-4.4zm63.7-12c1.2 3 5.1 3.7 8.6.1 7.2-7.4 6.9-14.5-.3-22.2-2.9-3-7.2-4.9-11.2-2-3.8 2.8-6.2 6.7-4.4 13.8 2.6-6 5.3-10.7 11.5-7.4 4.9 2.6 3.2 7.5 2.6 11.2-.4 2.2-3.9 4-6.8 6.5zM529.2 415.2c8.5-38.5 19.6-76.2 31.8-115.6-2.2 1.4-3.6 1.8-3.8 2.5-7.4 24.6-14.8 49.1-21.8 73.8-3.4 11.8-6.3 23.7-8.8 35.8-1 4.9-3.4 4.1-7.9 3.6 12.2-41.9 24.3-83.4 36.4-124.8 0-.1-.5-.4-1.5-1.1C538 330.7 527.5 373.2 516 416c-3.9-.5-7.5-1-10.5-1.3 0-9.7.1-18.7 0-27.7-.2-10.9-1-21.8-1-32.7.1-9.3 1.4-18.6 1.5-27.9.1-19.4-.6-38.9-.6-58.3 0-10.4 1.1-20.9 1.1-31.3-.1-18.9-.9-37.9-.9-56.8 0-16.7.7-33.4.8-50.1.1-5.7-.5-11.4-.9-17.1-.2-3 1.2-4.3 4.2-4.2 15 .3 26.7-7.2 37.5-16.5 10.3-8.8 14.2-20.9 16.5-33.8 2.1-11.6-.7-22-6.2-32.1-2.6-4.8-4.9-9.8-7.6-15.1 4.9 0 9.7-.3 14.4.2 1 .1 2.5 2.8 2.5 4.3.3 8.2.1 16.4.1 24.7v35.8c0 10.6-.3 21.1-.6 31.7-.7 25 .4 50 .6 75 .1 26.8.1 53.6-.1 80.4-.1 12-.4 24.1-1.1 36.1-.2 3.8-2 7.4-3.2 11.1-4.6 14.4-9.7 28.7-13.8 43.3-5.3 19.2-9.8 38.7-14.7 58.1-.4 1.6-1.7 3-2.5 4.5-.8-.4-1.5-.8-2.3-1.1zm28.7-200c-.4 0-.8-.1-1.2-.1-4.4 10.5-9.4 20.7-13 31.4-5.4 16-9.9 32.4-14.6 48.6-5.1 17.6-12 34.8-13.7 53.2-.2 2.1-.9 4.1-1.4 6.1.7.2 1.5.4 2.2.6 11.2-44.7 22.1-89.6 40.5-132 1-2.2.8-5.1 1.2-7.8zm-45.6 194.4c.7.3 1.3.5 2 .8 2.3-9.5 4.5-18.9 6.8-28.4s4.7-19.1 7.2-28.5c2.5-9.5 4.9-19 7.7-28.4 2.8-9.6 6.1-19 8.7-28.6 2.5-9.1 6.9-17.7 7.5-27.3-17.2 45.7-31.2 92.3-39.9 140.4zm39.8-160.4c-.5-.1-1.1-.2-1.6-.4-14.7 44.8-29.5 89.6-36.7 136.5 12.7-45.3 25.5-90.7 38.3-136.1zm-40.3 76.7c.6.2 1.3.4 1.9.6 5.7-20.6 10.7-41.5 17.2-61.8 6.4-20.1 14.2-39.8 21.4-59.7-.6-.2-1.3-.4-1.9-.6-17.2 39-30.1 79.6-38.6 121.5zm.1-53.2c1.4-4.6 2.5-8.1 3.5-11.6 3-11.2 5.9-22.4 9-33.6 2-6.9 4.1-13.8 6.5-20.6 2.6-7.2 5.7-14.1 8.4-21.3 1.6-4.2 2.6-8.6 3.9-13-11.3 13.4-35.4 91.9-31.3 100.1zm36.1-85.1c-.8-.3-1.5-.6-2.3-1-1.3 3.5-2.7 7.1-4 10.6-6.2 16.9-12.8 33.6-18.5 50.7-4 12-6.7 24.4-9.8 36.7-.6 2.4-.1 5.1-.1 7.6.6 0 1.1.1 1.7.1 7.3-36 21-70.1 33-104.7zm-5.8-34.4c-.8-.2-1.7-.3-2.5-.5l-15 42.9c.9.3 1.7.6 2.6.9 4.9-14.4 9.9-28.9 14.9-43.3zM580.2 382.7l-3.3 7.8c-.5-.1-1-.3-1.5-.4 2.2-11.8 4.3-23.7 6.5-35.5-.3-.1-.6-.2-.9-.4-1 2.4-2 4.8-3.4 8-3.4-11.1 3.4-19.9 2.9-30-1.1 2.1-2.1 4.1-3.3 6.5-.5-.5-1.3-1-1.3-1.5.2-13.5.7-26.9.8-40.4.1-21.5-.1-43 0-64.5.1-8.7 1-17.4 1-26.2 0-13.6-.8-27.1-.8-40.7.1-22.3.6-44.6.9-66.9.3-22.5.5-45 .8-67.5.1-4.7.9-9.6-.1-14.1-1.6-6.9 2.3-6.2 7.1-6V17c0 21.8-.1 43.5 0 65.3.1 10.2.8 20.4.8 30.7 0 10.8-.7 21.5-.8 32.3-.2 13.1-.2 26.1 0 39.2.2 20.3.8 40.5.9 60.8 0 12.3-.8 24.6-.8 36.9-.2 23.5-.2 47 0 70.5.1 10.4.9 20.8.9 31.2.1 11.7-.3 23.3-.6 35 0 .7-1 2-1.1 2-1.2-.4-2.5-.9-3.6-1.7-10.3-7.8-3.6-17.1-2.1-25.9.6-3.4 1.7-6.8 2.5-10.2-.5-.1-1-.3-1.5-.4zM162.7 364.9c0 13-.2 25.1.1 37.2.2 7.1-2.2 11.4-8.6 13.5-8.5 2.9-16.9 6.1-25.4 9-10 3.4-20 6.6-30 10.2-11.9 4.3-23.5 9.1-35.4 13.2-5.3 1.8-11 2.8-16.6 3.7-3.4.5-6 .2-4.5-5.1 1.2-4 .1-8.6.3-12.9.1-1 1.5-2.7 2.3-2.6 8.8.5 17.7 2.1 26.4 1.8 9.6-.4 19.6-1 27.9-7.3 2.7-2 5.7-3.8 8.6-5.4 10.5-5.6 17.7-13.9 21.5-25.4 2.7-8 6.5-15.7 9.8-23.6.4-.9 1.1-2.3 1.8-2.4 7.4-1.4 14.8-2.6 21.8-3.9zM260 317.9c-1 3.6-2 7.1-3 10.8-5.4-3.6-11-7.3-16.6-11-1.2-.8-2.5-1.6-3.9-1.8-4.4-.5-4.7-3.1-4.1-6.7.4-2.3-.2-4.8-1.4-7.4-3.6 14.1-3.6 29.9-20 36.6-2.3-1.8-4.9-3.8-7.6-5.9-.8.8-1.9 1.4-2.3 2.3-1.7 3.6-3 2.3-4.3-.2-2.5-4.8-5.1-9.6-8-15.3-1.1 2.2-1.7 3.4-2.4 4.6-2.8 4.5-8.2 5.4-11.8 1.5-2.4-2.7-4.3-6.2-5.6-9.7-1.5-4 1.5-6.4 4.4-8.6 2.7-2 5.2-4.2 7.9-6.2.9-.7 2.4-1.5 3.3-1.1.9.3 1.5 1.8 1.8 3 .7 2.9 1.2 5.9 1.8 8.9.1.7.6 1.3 1.3 2.5 2.3-1.7 4.5-3.3 6.5-4.7-2.3-2.2-4.3-4.1-6.3-5.9.4-.4.8-.7 1.1-1.1 5.9 3 11.9 6 18.1 9.1 2.8-3.6 6.1-5.6 11.1-3.5.9.4 4.3-2.3 4.6-3.9.9-5.3.9-10.8 1.4-16.2.3-3 .9-6 1.5-9.7 1.8 1.9 3 3.5 4.5 4.8 9.5 8.5 19.2 16.8 28.5 25.5 3.2 3 6.6 6 5.3 12.1-1.3 5.6-.3 11.8-.3 18-4.6-1.5-4.7-1.9-4.2-5.7.6-4.8.8-9.6 1.2-14.4-.9-.4-1.7-.6-2.5-.7z" fill="#fff"/>
  <path d="M210.6 404.6H200v-4.3c-9 0-18-.3-27 .1-5.1.2-6.1-3.1-6.1-6.3.1-10.4.9-20.8 1.4-31.1 2.3-1.5 5.8-2.7 7.1-5 1.6-2.9 2.4-7.1 1.5-10.2-1.9-6.6-8-6.9-15.4-6.7 2.3-1.7 3.3-2.7 4.5-3.2 5.6-2.3 11.3-4.3 16.9-6.6 3.4-1.4 6.2-2.3 7.2 2.8.4 2 1.9 3.8 2.9 5.8 2.1 4.4 5 8.4.7 13.7-2.1 2.6-1.6 6.9 2.9 9.5 3.7 2.2 6.8 5.6 9.9 8.8.8.8.7 2.7.6 4-.5 3.9-1.8 7.8-1.6 11.6.1 1.8 2.8 4.3 4.8 4.9 4.3 1.4 4.7 3.2 2.4 6.7-1.1 1.4-1.4 3.4-2.1 5.5zM121.3 320.2c-4.9 0-8.5-.3-11.9.1-4.6.5-7.4 3-7.2 8.2.1 1.5-1.1 3.1-1.6 4.6-.6 1.6-1.1 3.3-1.9 5.8-6 .6-13 1.2-19.9 2.2-9.7 1.4-19.4 2.9-29 4.8-7 1.4-7.4 1.1-7-5.9.4-7.8.2-15.7 0-23.5-.1-4.1.9-4.9 5.3-4.2 8.9 1.5 18 1.9 27.1 2.6 14.5 1.1 29 2.1 43.6 3.2.4.1.9.9 2.5 2.1zM18.1 250.6c3.6-12.1 7.1-24.2 10.7-36.3-.8-.3-1.6-.5-2.4-.8-2.1 6.5-4.3 13-6.7 20.3-3.4-9.5 2.4-17 2.6-25.6-1.2.9-2.2 1.7-2.9 2.2-4.1-39.4.1-79.1-.8-118.7 6.9-1.2 11.1 3.1 10.3 9.5-.4 3.1.7 6.4.7 9.6.1 25.9 0 51.9 0 77.8 0 11 1.3 22.1-.4 32.8-1.5 10-6.2 19.6-9.4 29.3-.6 0-1.1 0-1.7-.1zM38.4 96.6c.4 3.2 1.1 6.3 1.1 9.5.1 19.3.1 38.6.1 57.9v106.5c0 10.7.1 21.3 0 32-.2 15.5-.8 31-1 46.6 0 2.8.8 5.7.9 8.6.2 4.1 1 8.5-4.5 9.7 0-9.4.1-18.6 0-27.8 0-2.7-.8-5.3-.8-8-.1-20.4 0-40.9 0-61.3 0-33.6-.1-67.2 0-100.8.1-13.2.8-26.5.9-39.7 0-9.3-.8-18.6-.9-27.9 0-1.9 1.2-3.8 1.9-5.7.6 0 1.4.2 2.3.4z" fill="#fff"/>
  <path d="M220.5 360.8c-.6 2.1-1.2 4.2-2.3 8.1-1.5-2.5-2.4-4-3.3-5.4-.8-1.2-1.6-2.4-2.5-3.6-1 1-2.1 2-3 3.1-.9 1.1-1.7 2.2-3.5 4.6-.5-5.3-.9-9.1-1.4-13.4-2 1.1-3.1 1.7-4.3 2.4-.5-.4-1-.9-1.5-1.3 2.3-2.8 4.2-6.2 7.1-8.4 5.9-4.5 12.8-7.7 18.2-12.6 3.7-3.4 5.6-8.9 8.3-13.5 6.4 3.6 13.3 7.2 19.9 11.1 3.8 2.3 3.3 8-1.6 12.1-5.8 4.9-11.9 9.5-18.4 13.4-4 2.4-6.1 4.1-1.3 8.2-6.7 4.2-5.9-3.9-10.4-4.8zM96.3 383.1c-5.8 9.5-11.2 18.1-16.5 26.8-1.6 2.6-3.3 5.1-4.5 7.8-1.7 3.8-4.8 3.9-8.1 3.5-6-.7-11.9-1.6-17.9-2.1-6.1-.5-7.4-1.6-7.3-7.4.1-15.4.1-15.2 15.5-19.1 6.3-1.6 12.3-4.5 18.6-6.1 6.3-1.6 12.6-2.2 20.2-3.4zM530.5 445.3c1.2-4.3 2.4-8.6 3.4-12.9.9-4-.7-9.1 5.8-12.1-2.3 11.8-4.3 22.4-6.4 33-8.9 0-18.2-.3-27.5.1-5.4.3-6.6-1.3-6.2-6.6.7-7.4.3-14.9.3-22.4 0-3 .4-4.9 4.4-4.2 3.4.6 7.1.1 10.8.1-.8 5.3-1.5 10.5-2.2 15.7.7.2 1.4.3 2.1.5.6-2.6 1.3-5.2 1.9-7.8.2-1 .2-2.2.6-3.1.6-1.5 1.3-3.2 2.4-4.4.4-.4 3 .2 3.2.8.6 1.7.7 3.7.4 5.5-1.1 5.3-2.5 10.4-3.6 15.7-.1.5.8 1.1 2.1 2.9 2.1-8.9 4-16.7 5.9-24.6 3.7-.2 4.6.7 3.7 4.8-.8 3.8-2 7.6-2.7 11.4-.4 2.3-.4 4.6-.5 7 .8.3 1.4.5 2.1.6zM106 334.3c1.7 0 3.6.4 5.2-.1 2.1-.7 4.1-2 6.1-3-1.7-1.5-3.4-2.9-5.1-4.4-.4-.3-.9-.5-1.3-2 1.6 0 3.5-.6 4.6.1 10 6.1 19 .6 28-2.6 6.7-2.3 12.9-5.7 19.1-8.5 2.4 6 4.6 11.7 7 17.8-5.3 2.1-11.7 4.9-18.3 7.2-6.7 2.3-13.3 4.5-18.6 9.7-1.4 1.4-4.7 1-7.7 1.5 1.7-3.3 4.1-6.8 3.6-7.2-2.2-2.1-5-3.9-7.9-4.8-4.8-1.5-9.9-2.2-14.9-3.2.1-.2.2-.4.2-.5zM573.5 11.2c-.1 106.5.6 213-2.5 319.4V11.2h2.5zM273.9 356.2c3.6-9.6 3-18.9 4.9-28.7 4.8 5.5 9.8 10.9 14.1 16.8.8 1.1-.1 4.6-1.3 5.9-6 6.6-14.2 9.6-22.4 11.6-8.9 2.2-18.2 2.9-27.3 4.2-.8.1-2-.6-2.6-1.2-.3-.3.3-1.6.7-2.2.5-.7 1.4-1.1 2.1-1.7 3.9-3.3 7.6-6.7 11.7-9.7 1.6-1.2 4.3-2.1 6-1.6 4.6 1.6 8.9 4.1 14.1 6.6zM43 390.7c-.1-1.6-.3-2.3-.3-3 .1-10.5-1.2-7.7 7.7-10.3 12.5-3.6 25.1-6.7 37.7-9.7 6.2-1.5 12.5-2.2 18.8-3.3-1.7 9-5.8 11.6-15.3 13-8.4 1.2-16.6 3.7-24.8 5.9-7.8 2.3-15.5 4.9-23.8 7.4zM11 237.5V82.9l1.8-.3c.7 1.8 1.9 3.5 2 5.3.4 13 .7 26.1.6 39.1-.1 18.7-.9 37.5-1 56.2-.1 13.4.8 26.8.8 40.2 0 4.7-1.7 9.3-2.6 14-.6.1-1.1.1-1.6.1zM569.7 434.6v19.2c-7.9 0-16 .1-24.2-.2-1 0-2.8-2.4-2.6-3.4 1.6-8.8 3.4-17.5 5.5-26.2.3-1.1 2.4-1.8 3.7-2.7.3 1.2.9 2.4.7 3.5-1.3 6.5-2.8 12.9-4.1 19.4-.4 2-.3 4.1-.4 6.2.6.2 1.1.3 1.7.5.9-2.1 2.1-4.1 2.5-6.3 1.3-6.1 2.1-12.2 3.5-18.3.4-1.5 2.4-2.6 3.7-3.9.2 1.6.7 3.2.4 4.7-1.6 7.8-3.5 15.5-5.2 23.2-.2.7.2 1.6.4 2.4.6.1 1.2.2 1.8.4 2.5-10.5 5-20.9 7.5-31.4.5-.1 1-.2 1.4-.3.5 1.3 1.6 2.7 1.4 3.9-.8 5.1-2 10.1-3 15.2-.3 1.5-.2 3.1-.3 4.6.5.1 1.1.2 1.6.3.9-3.7 1.7-7.5 2.6-11.2.6.2 1 .3 1.4.4zM567.5 312c-1.6 6.5-3.2 13-4.9 19.5-5.8 21.9-11.7 43.7-17.5 65.5-1.3 5-2.1 10.1-3.4 15.1-.5 1.7-1.7 3.2-3 5.4-2.7-7.9 22.1-101.6 28.8-105.5zM117 377.7c-4.8 18.7-15.5 33.5-31.3 45.8-.1-1.5-.8-2.9-.3-3.8 6.2-11.6 12.6-23.1 18.7-34.7 2.9-5.5 6.5-7.8 12.9-7.3zM228.3 435c5.1-5.2 8.5-5.3 12.7-2.8 4.1 2.4 8.1 4.5 13.2.4 2.8-2.3 7.9-2 11.9-2.6 4.5-.6 9-1.1 13.4-1 1.6 0 4.4 1.8 4.6 3 .2 1.7-1.4 5.2-2.5 5.3-11.2 1.1-22.5 2.4-33.7 2.2-6.3-.1-12.5-2.8-19.6-4.5zM567.6 335c-1.9 9.4-3.5 18.9-5.9 28.2-3 11.5-6.7 22.8-10 34.2-1.6 5.6-3 11.3-4.6 17-.2.5-1.3.8-2 1.2-.4-1.1-1.2-2.2-1-3.2 1.5-6.6 3-13.2 4.8-19.7 4.5-17.1 9.1-34.2 13.8-51.3.7-2.4 1.9-4.7 2.8-7 .6.2 1.3.4 2.1.6zM280.9 419.2c-8.1-2.4-16.3-4.7-24.3-7.5-1.5-.5-3.5-2.8-3.4-4.1.2-3 2.4-2.5 5.1-2.2 6.4.6 12.9.1 19.4-.5 4.1-.4 5 .3 4.1 4.3-.6 2.9-.5 6.1-.9 10zM19 41.4c-.1-.8-.3-1.6-.3-2.4 0-9 .2-18-.1-26.9-.2-3.7 2.3-4.7 4.3-4.1 2.4.7 7.3-2.3 6.9 4-.4 7 .5 13.8-5.2 19.6-2.4 2.4-2.8 6.6-4.2 10-.5-.1-1-.1-1.4-.2zM568.1 360.6c-2.1 10.3-3.9 20.7-6.2 31-1.7 7.7-3.9 15.2-6.1 22.8-.3 1-2 1.6-3 2.3-.7-1.2-2.3-2.7-2.1-3.7 2.5-9.8 5.3-19.6 8.1-29.3 1.9-6.8 3.9-13.7 5.9-20.5.3-1.1.9-2.1 1.3-3.1.7.1 1.4.3 2.1.5zM190.5 422.1c4.1-2.6 7.6-4.2 12-1 3.4 2.5 7.3 2.9 11.9 1.3 4.1-1.4 8.8-1.2 13.3-1.3 3.6 0 7.1.6 10.7 1.1.9.1 1.8 1 2.7 1.5-.2.5-.4.9-.6 1.4-1.7-.6-3.3-1.1-5-1.7-8.6 7.4-35.8 6.8-45-1.3zM110 411.6c2.1-1.8 4.4-3.5 6.3-5.5.9-.9 1-2.6 1.3-3.9.2-.8-.1-1.8.2-2.5 6.3-13.8 12.7-27.6 18.9-41.4.6-1.4 0-3.3.4-4.8.5-1.8 1.2-3.6 2.3-5.1.5-.7 2-.8 3.1-1.2.1 1 .4 2 .1 2.8-3.5 9.9-6.9 19.8-10.6 29.7-2.4 6.4-5.2 12.8-8.1 19-2.9 5.9-6.3 11.7-13.9 12.9zM142.8 363.3c.4-6.6 3.6-9.9 9.1-11.1 6.2-1.3 12.4-2.5 18.7-3.7 1 7.9.1 9.1-8.9 11.1-6.1 1.5-12.3 2.5-18.9 3.7zM11.8 62c-.3-5.4-.8-10.8-.8-16.2-.1-11.1-.1-22.2.1-33.2 0-1.6 1.4-3.2 2.2-4.8.7 1.6 2 3.3 2.1 4.9.2 13.8.2 27.7 0 41.5 0 2.7-1 5.4-1.6 8-.7 0-1.4-.1-2-.2zM216.5 401.7c.2-5.3 1.7-6.7 5.7-6 3.7.7 7.6.2 11.5.3 4.8.1 9.4 6 7.7 12.2-8.4-2.2-16.8-4.4-24.9-6.5zM195 297.1c4.4-2.3 8.6-4.2 12.4-6.6 3.8-2.4 7.2-5.3 11.2-7.2-3.2 7.2-6.3 14.4-9.7 22.1-4.7-2.9-9.1-5.5-13.9-8.3z" fill="#fff"/>
  <path d="M135.7 354.3c-6.4 14.3-12.7 28.7-19.1 43-.7-.3-1.4-.5-2-.8 2.8-7.3 4.8-15.1 8.7-21.7 4.1-7 2.5-16.7 10.1-21.8.7.5 1.5.9 2.3 1.3zM16.9 430.9c4-17.6 7.9-34.6 11.8-51.6.7.1 1.3.2 2 .3-.3 3.3-.3 6.6-1 9.8-3.1 13.8-6.5 27.6-9.8 41.4-.2.2-1.1.1-3 .1zM28.9 287c2.6 5.1-6.6 38.9-12.2 42.9 4.2-15 8.1-28.5 12.2-42.9zM17.1 308.6c3.7-13.5 7.3-27 11-40.4.9.2 1.8.5 2.7.7-3.6 13.5-7.3 27-10.9 40.6-1-.3-1.9-.6-2.8-.9zM281.3 422.6c0 .1.1 1.3.4 3.7-8.4-1-16.4-1.7-24.3-3.2-2.1-.4-5.8-2.1-4-5.4 9.4 1.6 18.3 3.2 27.9 4.9zM241 411.9v5.3c-7.7 1.1-20.9-3.9-23.4-8.5 7.5 1.1 15.3 2.1 23.4 3.2zM17.1 270.3c4.1-13.4 7.9-25.7 11.7-38 2.1 13.7-5.7 24.5-8.9 36.7-.1.3-1.1.5-2.8 1.3zM558.6 417.4c2.3-10 4.4-19 6.6-28.6 3.8 7.3.2 25.2-6.6 28.6zM30.9 252.1c-4 12.4-7.9 24.9-11.9 37.3-.5-.1-.9-.2-1.4-.4 1.8-13 7.3-25 11.1-37.5.8.2 1.5.4 2.2.6zM545.3 421.6c-1.9 10.8-3.9 21.7-5.8 32.5-.8-.1-1.7-.3-2.5-.4.9-11 3.8-21.7 6-32.5.7.2 1.5.3 2.3.4zM113.4 370.7c2.3-3.3 4.4-6.7 6.8-9.9.4-.5 1.8-.5 2.7-.3.4.1.9 1.2.9 1.8-.5 5.2-3.5 8.3-10.4 8.4zM8.7 428.4l3.6-19.2c.9.2 1.8.4 2.6.5-1.4 6.4-2.8 12.7-4.2 19.1-.6-.1-1.3-.2-2-.4zM38.8 413.1c-.9 6.3-1.8 12.6-2.8 19.1-3.2-2.1-2.2-11.8 2.8-19.1zM9.9 261.3c.8-5.4 1.6-10.8 2.3-16.2l2.4.3c-.7 5.4-1.4 10.8-2.1 16.3-.8-.1-1.7-.3-2.6-.4zM222.8 289.3c-.5 3.9-1.1 7.8-1.7 12.2-1.4-.1-2.9-.2-5.3-.3 2-4.7 3.7-8.5 5.4-12.4.6.1 1.1.3 1.6.5zM23.8 370.2c-1.2 5.8-2.5 11.7-3.7 17.5-.7-.1-1.3-.2-2-.3 1.1-5.9 2.1-11.7 3.2-17.6.9.1 1.7.2 2.5.4zM572.8 397.5c-.5 4.9-1 9.9-1.5 14.8-.8-.1-1.5-.2-2.3-.2.3-5 .6-10 .9-14.9 1 0 1.9.2 2.9.3zM570.1 386.2v-17.5h1.5v17.4c-.5.1-1 .1-1.5.1zM335.9 432.8h-28.6v-1h28.6v1zM300.4 436.1c-8.2 2.2-10.4 1.3-10.8-4.3 3.9 1.6 7.3 3 10.8 4.3zM10.3 359c.8-4.7 1.6-9.4 2.5-14.2.8.1 1.5.3 2.3.4-.9 4.8-1.7 9.6-2.6 14.4-.8-.2-1.5-.4-2.2-.6zM581 439.9c.8-3.7 1.5-6.7 2.1-9.7.7.1 1.3.1 2 .2 0 3.1 0 6.2-.2 9.3 0 .1-2.3.1-3.9.2zM572.7 342.4c-.2 4.9-.5 9.9-.7 14.8-.6-.1-1.2-.1-1.7-.2.6-4.9-1.6-10.2.7-14.9.5.1 1.1.2 1.7.3zM31.4 338.8c-1.2 5.4-2.3 9.8-3.3 14.4-2.6-3.5-1.3-10.5 3.3-14.4zM34.4 451.6c.9-4 1.7-7.6 2.9-12.6 2.2 9.9 1.6 12.4-2.9 12.6zM13.1 442.4c-1.7 2.9 3.8 7.3-3.6 10.4.6-4.4 1-7.6 1.5-10.8.7.1 1.4.2 2.1.4zM581 453.5c.2-2.7.5-5.4.7-8.1.8-.1 1.5-.2 2.3-.2.5 2.2 1.3 4.4 1.3 6.5 0 1-1.8 1.9-2.9 2.8-.4-.3-.9-.7-1.4-1zM57.9 350.4c-4.9.9-9.9 1.8-14.8 2.7-.1-.6-.2-1.2-.3-1.9 5-.9 10-1.8 14.9-2.6.1.6.2 1.2.2 1.8z" fill="#fff"/>
  <path d="M443.4 265.6c-2 7.5-9.8 9.1-15 13.7-2 1.8-3.7 4-5.5 6.1.4.6.8 1.1 1.1 1.7 2.8 0 5.9.7 8.4-.2 4.4-1.6 6.9.3 9.3 3.2.8.9 1.6 1.8 2.3 2.7 4.7 6.8 4.4 9.2-1.4 16.1-1.6 1.9-3 3.9-4.1 5.4 9.8 7.6 15.1 15.6 7.3 28.1h23.8c0 .4.1.9.1 1.3-2.3.8-4.6 1.6-6.9 2.3 0 .4-.1.7-.1 1.1h18c0 .8 0 1.6-.1 2.5-4.3-.4-8.6-.7-12.8-1.1l-.7.7c1.1.5 2.2 1 3.4 1.5-.2.7-.4 1.3-.7 2-9.8 1.1-19.7.2-29.6 1.1 2.3.4 4.7.8 7 1.1 0 .5-.1 1-.1 1.5-3.5 0-7.1.5-10.5-.1-7.1-1.3-11.6 4.2-17.4 6.2-6.6 2.3-14.7 0-16.4-6.6-.8-3.3-1.7-4.9-5.3-5.4-2.9-.4-5.4-2.6-8.3-3.3-3.9-.9-7.7-2.2-10.8 2.7-5.1 8.3-15.9 6.5-22.3 1.1-3.8-3.2-7-6.5-12.7-5.7-4.6.6-9.3.1-13.8.1-1.9-.7-4-1.8-6.2-2.1-2.4-.4-4.9-.1-7.4-.1 0-.7-.1-1.4-.1-2.2 10-.7 20-1.3 30.4-2 0-2.4.6-4.4-.1-5.9-2.7-5.7.6-10.4 3.1-14.6 1.2-2 6.2-3.5 8.5-2.6 4.5 1.6 8.6 4.7 12.2 7.8 3.1 2.7 5.6 5.8 8.3 3.7 2.1-7.6 3.8-13.5 5.3-19.5.2-.9.1-2.5-.5-3.1-4.4-4.6-3.3-9.9-.1-13.7 3.6-4.3 8.6-7.8 15.3-5.4 1.1.4 2.5-.2 3.8-.3.1-.5.1-.9.2-1.4-4.5-1.8-9.1-3.3-13.5-5.4-3.8-1.9-7.3-4.4-11-6.6-4.6-2.8-9-5.8-13.7-8.2-6.3-3.1-7.6-7.9-2.7-12.8 3.8-3.8 7.8-7.4 12.7-12.1-4.6-3-8.3-5.7-12.2-8-6.4-3.7-8.4-8-6.5-14.3 2.1-6.9 8-11.9 14.2-11.5 4.1.2 8.2 1.1 12.3.9 3.3-.1 7.3-.5 9.8-2.3 13.1-9.6 27.8-12.5 43.3-10.4 7.7 1.1 14.6 5.9 18.8 13.1 2.9 5.1 5.4 10.4 7.9 15.7 2.3 4.9 2.1 9.8-1.4 14.3-3.9 5-6.5 10.4-5.4 17 .2 1.4.5 2.9 1.3 3.9 5.2 6.8 5.1 8-2 14.5-3.2-1.9-6.7-3.8-10.8-6.2zm-35.7-34.7c-3 1.6-6.6 7.1-11.7 3.6-5.4-3.8-10.4-.7-15.6-.7-.6 0-2 2.1-1.8 2.6 2.7 4.9-.9 7.8-3.6 10.6-5.7 6-6.1 9.7-.3 15.3 12 11.5 26.4 17.8 43.1 14.8 11.5-2.1 22.9-6.1 25.8-19.7 1.8.1 3.6.2 5.9.3V249c-.5.3-1 .7-1.5 1-1.2-.8-2.3-1.6-3.6-2.3-1.4-.8-3.2-2.3-4.2-1.9-4 1.5-3.8-.9-3.9-3.4 0-1.6.1-3.3 0-4.9-.3-4.6-2-5.5-6.3-3.7-2.3 1-5 2.5-7.2 2.1-4.6-1-9.2-3-15.1-5zm26.1 82c2-2.2 3.2-4.3 5-5.2 4.1-2.2 5.7-4.7 2.9-9.1-4.5-7.1-8.1-8.5-13.5-5.9-6 2.9-12.4 5-19.2 5.5-1.1.1-2.3-.4-3.3-1-2.3-1.4-4.4-3.1-6.6-4.7-1.4-1-3.2-4-3.7-3.8-3.6 1.5-7.1 3.4-10.3 5.7-.7.5-.4 4.2.3 4.5 4.3 1.7 8.8 2.8 13.2 4.1 1.1 1.8 2.7 3.6 4.5 4 4.4.9 8.9 1 13.9 1.5-.6 2-1.1 3.6-1.4 4.8-4.8-1.2-8.9-2.4-13-3.2-.9-.2-3.1 1.8-3 2.1 2.3 5.5 4.9 10.8 7.2 15.7 9.6-6.1 14.1-14.4 15.7-24.1 4.3 3.5 7.9 6.4 11.3 9.1zm-7.8 40c5.7-4.6 5.6-17 1.6-23-2.9-4.4-9.5-4.2-11.7.6-1.9 4.2-3.4 8.6-5 12.7 5.3 3.3 10.1 6.5 15.1 9.7zm-76.4-21.5c2.5 3.5 4.4 8.4 7.8 10 3.7 1.8 13.3-4.1 13.2-6.7-.1-6.4-8.2-15.5-13.5-15.3-3.5.2-6.2 5-7.5 12zm52.1-1.2c-2.2-5.5-5.2-10-5.5-14.6-.4-6.3-3.3-8.4-9.9-9.7-.5 5.4-2.7 11.3-.9 15.4 2 4.6 7.6 7.5 11.4 11 .1-.6.3-1.8.6-3.1 1.3.3 2.4.5 4.3 1zm-14.5 1.5c.3 7.7 9.9 14.8 17.2 14.4.5-1.8.9-3.6 1.6-6.2h-9.3c-2.8-2.4-6.2-5.3-9.5-8.2zm36.8-17.1c-3.9 4.6-6.5 8.1 1.4 9 .6.1 1.2 1 1.8 1 1.3.1 3.5.2 3.7-.2.5-1.4.8-3.7 0-4.6-2-2-4.5-3.5-6.9-5.2zm-4.3-31.7c-3.7 0-7.2-.2-10.5.1-1.2.1-2.2 1.8-3.3 2.8 1.1.9 2.2 2.3 3.4 2.5 3.4.3 6.8.1 10.4.1v-5.5zM361 346.4c3.8 2.8 7 5 10.7 2.3 1.4-1 1.9-3.4 2.8-5.2-1.6-.3-3.3-1.2-4.8-.8-2.7.7-5.2 2.1-8.7 3.7zm58 11.8c.1-.6.3-1.1.4-1.7-2.7-2-5.3-4.2-8.1-5.8-1-.6-2.7.3-4.1.4.5 1.4.6 3.6 1.4 3.9 3.4 1.4 6.9 2.2 10.4 3.2zm16.7-32.2c-.4-.2-.8-.3-1.3-.5-.6 2-1.7 4-1.6 6 .2 2.9 1.5 5.5 5.7 5-.9-3.7-1.9-7.1-2.8-10.5zM176 244.4c2.8-2.6 6.4-4.3 6.8-6.5.6-3.6 2.2-8.6-2.6-11.2-6.2-3.3-8.8 1.4-11.5 7.4-1.9-7 .6-11 4.4-13.8 3.9-2.9 8.3-1 11.2 2 7.3 7.6 7.5 14.7.3 22.2-3.5 3.6-7.4 2.9-8.6-.1zM557.9 215.2c-.4 2.7-.2 5.6-1.2 7.9-18.4 42.5-29.3 87.3-40.5 132-.7-.2-1.5-.4-2.2-.6.5-2 1.2-4.1 1.4-6.1 1.8-18.5 8.6-35.6 13.7-53.2 4.7-16.3 9.2-32.6 14.6-48.6 3.6-10.7 8.6-21 13-31.4h1.2zM512.3 409.6c8.7-48.1 22.6-94.7 39.9-140.4-.6 9.6-5 18.2-7.5 27.3-2.7 9.6-6 19-8.7 28.6-2.7 9.4-5.2 18.9-7.7 28.4s-4.8 19-7.2 28.5c-2.3 9.4-4.5 18.9-6.8 28.4-.6-.3-1.3-.5-2-.8zM552.1 249.2c-12.8 45.4-25.5 90.8-38.3 136.2 7.2-46.9 22-91.7 36.7-136.5.5.1 1 .2 1.6.3zM511.8 325.9c8.5-41.9 21.4-82.4 38.6-121.6.6.2 1.3.4 1.9.6-7.2 19.9-15 39.6-21.4 59.7-6.5 20.4-11.5 41.2-17.2 61.8-.6-.1-1.2-.3-1.9-.5zM511.9 272.7c-4-8.2 20.1-86.7 31.2-100-1.3 4.3-2.3 8.8-3.9 13-2.6 7.1-5.8 14.1-8.4 21.3-2.4 6.8-4.6 13.6-6.5 20.6-3.1 11.1-6 22.4-9 33.6-.9 3.4-2.1 6.9-3.4 11.5zM548 187.6c-12 34.6-25.6 68.7-32.9 104.8-.6 0-1.1-.1-1.7-.1 0-2.5-.5-5.2.1-7.6 3-12.3 5.8-24.7 9.8-36.7 5.6-17.1 12.3-33.8 18.5-50.7 1.3-3.5 2.6-7.1 4-10.6.7.3 1.4.6 2.2.9zM542.2 153.2c-5 14.4-10 28.9-14.9 43.3-.9-.3-1.7-.6-2.6-.9l15-42.9c.8.2 1.7.3 2.5.5z"/>
  <path d="M407.7 230.9c5.9 2 10.5 4 15.3 4.9 2.2.4 4.9-1.1 7.2-2.1 4.2-1.8 6-.9 6.3 3.7.1 1.6 0 3.3 0 4.9 0 2.5-.2 5 3.9 3.4 1-.4 2.8 1.1 4.2 1.9 1.2.7 2.4 1.5 3.6 2.3.5-.3 1-.7 1.5-1v8.7c-2.3-.1-4.1-.2-5.9-.3C441 270.9 429.5 275 418 277c-16.6 3-31.1-3.3-43.1-14.8-5.9-5.7-5.4-9.3.3-15.3 2.7-2.8 6.2-5.7 3.6-10.6-.2-.4 1.2-2.6 1.8-2.6 5.2 0 10.2-3.1 15.6.7 5 3.7 8.5-1.8 11.5-3.5zm-25.5 12.6c-3.7 9.3 6.1 3.9 7.8 7.8 1.2-2.6 2.9-5.6 2-7.3-2.8-5.3-6.5 1.1-9.8-.5zm36.7.5c-2.7-.4-4.6-1.1-6.3-.7-1.4.3-3.2 1.8-3.7 3.2-.5 1.2.1 3.4 1 4.4.6.7 2.7.1 4.1-.1 1.2-.2 2.4-.6 4.9-1.2V244zm-19.1 5.2c.9-1.4 1.7-2.7 2.4-3.9-1.9-.2-4.4-1.3-5.5-.5-3.2 2.2-2.8 5.2.1 7.6 1.1.9 2.7 1.3 4.1 1.6.4.1 1.6-1.6 1.4-1.9-.7-1.2-1.8-2.1-2.5-2.9zm-1.4 16.2c-.2.8-.4 1.5-.7 2.3 2.7 1 5.4 1.9 8.1 2.9-1.1-5.3-3.4-7.4-7.4-5.2zM433.8 312.9c-3.4-2.7-7.1-5.6-11.4-9-1.6 9.7-6.1 18-15.7 24.1-2.3-4.9-4.8-10.3-7.2-15.7-.1-.3 2.1-2.2 3-2.1 4.2.7 8.3 2 13 3.2.4-1.2.8-2.8 1.4-4.8-5-.5-9.5-.6-13.9-1.5-1.8-.4-3.4-2.2-4.5-4-4.4-1.3-8.9-2.4-13.2-4.1-.6-.2-1-4-.3-4.5 3.2-2.3 6.7-4.2 10.3-5.7.5-.2 2.3 2.8 3.7 3.8 2.2 1.6 4.4 3.2 6.6 4.7 1 .6 2.2 1.1 3.3 1 6.8-.5 13.1-2.6 19.2-5.5 5.4-2.6 8.9-1.1 13.5 5.9 2.8 4.4 1.1 6.8-2.9 9.1-1.7.8-2.9 2.9-4.9 5.1zm-18.2-5.9c1.2-5.3 1.2-5.3-13.5-7 2 8.9 10.3 1.9 13.5 7zM426 352.9c-4.9-3.2-9.8-6.3-15-9.7 1.6-4.1 3.1-8.5 5-12.7 2.2-4.8 8.7-5 11.7-.6 3.9 5.9 3.9 18.4-1.7 23zM349.6 331.4c1.3-7 4-11.8 7.5-11.9 5.3-.2 13.4 8.9 13.5 15.3 0 2.5-9.5 8.5-13.2 6.7-3.4-1.8-5.3-6.7-7.8-10.1z" fill="#fff"/>
  <path d="M401.7 330.2c-1.9-.4-3-.7-4.3-1-.2 1.3-.4 2.5-.6 3.1-3.8-3.4-9.4-6.4-11.4-11-1.8-4.1.4-10 .9-15.4 6.5 1.3 9.5 3.4 9.9 9.7.2 4.6 3.3 9 5.5 14.6zM387.2 331.7c3.4 2.9 6.7 5.8 9.4 8.1h9.3c-.7 2.6-1.2 4.4-1.6 6.2-7.2.5-16.8-6.6-17.1-14.3zM424 314.6c2.4 1.8 5 3.2 6.9 5.3.8.9.4 3.1 0 4.6-.1.4-2.4.3-3.7.2-.6-.1-1.2-1-1.8-1-7.9-1-5.4-4.6-1.4-9.1zM419.7 282.9v5.5c-3.6 0-7 .2-10.4-.1-1.2-.1-2.3-1.6-3.4-2.5 1.1-1 2.1-2.7 3.3-2.8 3.3-.3 6.8-.1 10.5-.1zM361 346.4c3.5-1.5 6-3 8.7-3.7 1.4-.4 3.2.5 4.8.8-.9 1.8-1.4 4.2-2.8 5.2-3.7 2.6-6.9.5-10.7-2.3zM419 358.2c-3.5-1-7.1-1.8-10.4-3.1-.9-.4-1-2.6-1.4-3.9 1.4-.2 3.1-1 4.1-.4 2.9 1.6 5.4 3.8 8.1 5.8-.1.5-.2 1-.4 1.6zM435.7 326c.9 3.4 1.9 6.8 2.9 10.5-4.2.5-5.5-2.1-5.7-5-.1-2 1-4 1.6-6 .4.2.8.3 1.2.5zM499.1 34.9c-2.6.8-5.1 2-7.7 2.1-1.1 0-3-2.2-3.2-3.6-.2-1.1 2-3.8 2.5-3.6 2.9.8 5.7 2.2 8.5 3.4 0 .6-.1 1.1-.1 1.7zM52.7 46.6c-2-3.4-4.4-5.5-4.1-7.3.6-4.4 5-4 8-4 1.5 0 3.1 2.6 4.7 4-2.5 2.1-4.9 4.2-8.6 7.3z" fill="#fff"/>
  <path d="M382.2 243.5c3.3 1.6 7.1-4.7 9.8.5.9 1.7-.8 4.8-2 7.3-1.7-3.9-11.6 1.5-7.8-7.8zM418.9 244v5.5c-2.4.6-3.6 1-4.9 1.2-1.4.2-3.5.8-4.1.1-.9-1-1.5-3.2-1-4.4.5-1.4 2.2-2.8 3.7-3.2 1.7-.3 3.6.5 6.3.8zM399.8 249.2c.7.8 1.8 1.8 2.5 2.9.2.3-1 2-1.4 1.9-1.4-.3-3-.7-4.1-1.6-2.8-2.4-3.2-5.4-.1-7.6 1.2-.8 3.7.2 5.5.5-.8 1.2-1.5 2.4-2.4 3.9zM398.4 265.4c4-2.2 6.3-.1 7.4 5.2-2.7-1-5.4-1.9-8.1-2.9.3-.7.5-1.5.7-2.3zM415.6 307c-3.2-5.1-11.5 2-13.5-7 14.6 1.7 14.6 1.7 13.5 7z"/>
  <text transform="translate(79.166 46.59)"><tspan x="0" y="0" font-family="Peanuts" font-size="35">BEFORE I CONTINUE, HERE</tspan><tspan x="0" y="42" font-family="Peanuts" font-size="35">IS A BRIEF WORD FROM</tspan><tspan x="0" y="84" font-family="Peanuts" font-size="35">THE SPONSOR...</tspan></text>
</svg>
