<svg xmlns="http://www.w3.org/2000/svg" viewBox="0 0 595.3 487.4" xml:space="preserve">
  <path fill="#fff" d="M264.4 9.8h326.2v467.7H264.4z"/>
  <path d="M595.3 487.4H0V0h595.3v487.4zm-4.7-466.5c-1-.3-3.1-1.2-5.2-1.3-19.2-.7-38.5-1.4-57.7-1.7-14.3-.2-28.6.6-42.9.6-24.7.1-49.3-.1-74-.1-12.7 0-25.4 0-38.1.1-12.8 0-25.7 0-38.5.2-20.2.4-40.3 1.1-60.4 1.6-11.1.3-22.2.3-33.3.7-11.4.4-22.7 1.3-34.1 1.9-7.3.3-14.7.3-22 .6-5.9.2-11.8.6-17.6 1-7.8.5-15.8 2.1-23.5 1.4-7.8-.7-14.8 2.9-22.8 2.2-11.4-1.1-23.2.9-34.8 1.6-4.1.2-8.2.2-12.2.6-6.1.6-12.2 1.9-18.3 2.2-12 .8-24.1 1.1-36.2 1.7-4.5.2-6.8 2.5-6.8 6.9 0 3.6.4 7.2.3 10.7-.4 12.1-1.2 24.3-1.5 36.4-.4 16.8-.6 33.6-.8 50.4 0 1.4.4 2.8.3 4.2-.4 8.8-1.1 17.5-1.3 26.3-.2 7.6.5 15.2.3 22.9-.4 18.6-1.2 37.2-1.7 55.9-.4 14.3-.6 28.5-1 42.8-.1 2.1-.7 4.2-.7 6.3 0 13.1.4 26.2.1 39.3-.3 11.7-1.6 23.4-1.8 35.1-.3 15.1.2 30.2.1 45.3-.2 17.4-.7 34.8-1.3 52.2-.2 7.3 1.6 8.8 8.7 8.6 14.9-.6 29.4-4.4 44.6-3.8 11.3.4 22.7-2.1 34.2-2.7 18.8-.9 37.6-1.4 56.5-1.9 23.2-.6 46.4-1 69.7-1.5 16.1-.4 32.2-.9 48.3-1.2 15.6-.2 31.3 0 46.9-.2 12.7-.1 25.3-.5 38-.5 14.6.1 29.2.6 43.7.8 10.4.1 20.8-.3 31.2-.1 16.5.3 32.9 1 49.4 1.3 15.5.3 31 0 46.4.5 14.8.5 29.5 2 44.2 2.3 4.1.1 10.1.7 11.8-4.6 1.4-4.5 1-9.6 1.1-14.4.1-4.8-.5-9.6-.3-14.4.4-11 1.2-22.1 1.6-33.1.7-17.7 1.1-35.3 1.7-53 .3-7.4.8-14.7 1-22 .5-11.8.8-23.6 1.2-35.4.4-11.7.9-23.5 1.1-35.2.2-12.4-.1-24.8.1-37.2.2-13 .7-26 1-38.9.4-13.8.6-27.6 1.1-41.3.6-18.4 1.6-36.7 2.2-55.1.8-21.5 1.4-43.1 2-65z" fill="#fff"/>
  <path d="M590.6 20.9c-.7 21.9-1.2 43.5-2 65.1-.6 18.4-1.5 36.7-2.2 55.1-.5 13.8-.7 27.5-1.1 41.3-.3 13-.8 26-1 38.9-.2 12.4.1 24.8-.1 37.2-.2 11.8-.7 23.5-1.1 35.2l-1.2 35.4c-.3 7.4-.8 14.7-1 22-.6 17.7-1.1 35.3-1.7 53-.4 11-1.2 22.1-1.6 33.1-.2 4.8.4 9.6.3 14.4-.1 4.8.3 9.9-1.1 14.4-1.7 5.3-7.6 4.7-11.8 4.6-14.8-.4-29.5-1.9-44.2-2.3-15.5-.5-31-.3-46.4-.5-16.5-.3-32.9-1-49.4-1.3-10.4-.2-20.8.2-31.2.1-14.6-.2-29.2-.7-43.7-.8-12.7-.1-25.3.4-38 .5-15.6.1-31.3-.1-46.9.2-16.1.2-32.2.8-48.3 1.2-23.2.5-46.4.9-69.7 1.5-18.8.5-37.7 1-56.5 1.9-11.4.6-22.8 3.1-34.2 2.7-15.1-.6-29.6 3.2-44.6 3.8-7.1.3-8.9-1.2-8.7-8.6.6-17.4 1.1-34.8 1.3-52.2.2-15.1-.4-30.2-.1-45.3.2-11.7 1.5-23.4 1.8-35.1.3-13.1-.1-26.2-.1-39.3 0-2.1.6-4.2.7-6.3.4-14.3.6-28.5 1-42.8.5-18.6 1.3-37.2 1.7-55.9.2-7.6-.5-15.2-.3-22.9.2-8.8.9-17.5 1.3-26.3.1-1.4-.3-2.8-.3-4.2.2-16.8.4-33.6.8-50.4.3-12.1 1.1-24.3 1.5-36.4.1-3.6-.3-7.1-.3-10.7 0-4.4 2.3-6.7 6.8-6.9 12.1-.5 24.1-.9 36.2-1.7 6.1-.4 12.2-1.6 18.3-2.2 4-.4 8.1-.3 12.2-.6 11.6-.7 23.3-2.7 34.8-1.6 8 .7 14.9-2.9 22.8-2.2 7.7.7 15.6-.8 23.5-1.4 5.9-.4 11.7-.8 17.6-1 7.3-.3 14.7-.3 22-.6 11.4-.5 22.7-1.4 34.1-1.9 11.1-.4 22.2-.4 33.3-.7 20.1-.5 40.3-1.2 60.4-1.6 12.8-.3 25.7-.2 38.5-.2 12.7 0 25.4-.1 38.1-.1 24.7 0 49.3.2 74 .1 14.3 0 28.6-.8 42.9-.6 19.2.2 38.5 1 57.7 1.7 2.1 0 4.2.9 5.2 1.2zM132 429c.2 0 .3-.1.4-.1.1 0 .1-.2.1-.3-.1.2-.2.4-.4.6-.4-.1-.7-.2-1.1-.3l-1.2-.9c-.2.4-.4.7-.6 1.1.7-.1 1.3-.2 2-.3l.9 1.5c.2.5.4 1.1.6 1.6-.7-.1-1.4-.3-2.1-.4 0 .2 0 .4-.1.7.7-.1 1.5-.2 2.2-.2.6-.4 1.3-.8 1.9-1.2 0 .5 0 1.1 0 0 .2 1.1.1.6 0 0-.9-.1-1.8-.2-2.7-.4.1-.5.1-.9.1-1.4zm-25.1-39.3c-.7.4-1.4.9-2.1 1.3.3.2.6.4.8.7.4-.7.7-1.4 1.1-2.1.3-.5.6-1 .2-.3v.4zm27 73.7c2.1 0 5.4.7 5.9-.2 1.4-2.3 1.5-5.3 2.3-8.7-3 .9-4.6 1.7-6.3 1.8-6.1.7-12.2 1.1-18.3 1.7-1.6.2-3.2.8-4.7 1.2.6 1.7 1.2 3.4 1.8 5.3 2.3-.8 4-1.9 5.7-1.8 4.6.2 9.5-3.7 13.8.9-.1 0-.2-.2-.2-.2zM275.7 26.8v35.5c0 4.6-1.7 7.1-6.8 5.7-.9-.2-1.8-.2-2.7-.2-12.2.7-24.5 1.3-36.7 2.1-10.7.7-21.3 1.9-32 2.5-14.3.7-28.6.8-42.9 1.6-10.6.6-21.1 2.1-31.6 2.9-17 1.3-33.9 2.2-50.9 3.4-16.2 1.1-32.3 2.5-48.5 3.4-4.2.2-5.9 1.7-6 5.9-.5 33-1.1 66.1-1.6 99.1-.1 6.2.4 12.5.2 18.8-.4 9-1.5 18.1-1.8 27.1-.4 12.9-.2 25.8-.5 38.8-.7 28.9-1.5 57.7-2.3 86.6-.4 14.8-.9 29.7-1.2 44.5-.2 10.7.1 21.3-.2 32-.2 9.3-.8 18.5-1.3 27.7-.2 4.1 2 5.9 5.6 5.7 7.3-.5 14.5-1.7 21.7-2.3 7.6-.6 15.4-.1 22.9-1.4 10.8-1.9 21.9 1.3 32.6-2.5 3.2-1.1 7.3.6 10.9.3 2.3-.2 6-1.5 6.4-3 1-3.9-2.8-3.8-5.4-4.3-6.3-1.1-8.6-4-8.8-10.3-.2-6-.5-12-.8-17.9-.2-3.9 1-8.9-1-11.4-4.4-5.5-2-10.6-.4-15.3 2.9-8.6 7.3-16.7 10.5-25.2 3.3-8.8 6-17.9 8.8-26.9 2.2-6.9 3.9-14 6.3-20.9 1.7-4.8.7-7.8-4.1-9.9-4.9-2.1-10-3.7-14.5-6.4C90 307.1 83 299.4 79.2 289c-.7-1.9-2.5-4.6-4.1-4.9-6.9-1.2-9.4-12.5-4.9-16.4 5.6-4.9 5.2-11.1 5.6-16.8 1.4-21.7 13.4-36.2 30.6-47.1 6-3.8 13.5-6.1 20.6-7.6 6.6-1.4 13.7-1.7 20.5-.9 15.3 1.7 29.7 5.9 42.1 16 14.5 11.9 24.1 26.2 25.5 45.2.2 2.1.5 4.4 1.4 6.3 1.9 3.9 1.1 7.2-1 10.6-1.5 2.5-3 5-4 7.7-7.6 19.8-21.7 32.3-41.9 38.1-1.6.5-4.2 1.9-4.2 2.8.1 6.8.4 13.6 1.4 20.3.9 5.8 2.6 11.6 4.2 17.3 2.6 9.1 4 19 15.2 22.2 2.6.7 5.2 1.4 7.5 2.6 2.1 1.1 4.9 2.5 5.7 4.4 2.2 5.5 3.4 11.3 5.4 16.9 1.7 4.9-.1 12 7.9 13.4.6.1 1.3 2.9 1.1 4.3-.7 4.2-6 7.1-11.4 7.2-5 .1-4.5-3.9-5.4-6.8-2-6.6-3.9-13.2-5.8-19.8-3.7 8.3-9.8 12.4-16.9 15.4.3 2.3.6 4.6.7 6.9.2 3.9-1.2 8.7.6 11.4 4.9 7.2.6 9.4-4.5 12.6-1.6 1-2.2 4.7-2.1 7.2 0 1.4 2.2 3.5 3.7 3.8 3.7.8 7.5.9 11.3.8 5.3-.1 10.7-.7 16-.8 24.5-.4 49.1-.8 73.6-1.1 11.5-.1 23-.1 34.4-.1 8.9 0 17.8.4 26.8.2 5.7-.1 11.3-.9 18.5-1.6-7.4-2.9-13.2-5.3-19.3-7.7 1.3-2.6 2-4.3 2.9-5.8 4.1-6.3 8.4-12.5 12.4-18.9 1.7-2.7 3.5-5.8 3.9-8.9 1-6.9 1.2-14 1.8-21.6-1.7-.4-4.4-.8-6.7-1.9-4.3-2-6-.3-8.7 3.2-2.7 3.5-7.3 6-11.5 7.8-5.3 2.3-10.4-.4-15.5-2-8.4-2.7-11.9-8.9-8.9-17.1 1-2.7 2.5-5.2 3.5-7.9 1.6-4.1 1.7-7.7-2.4-11-12.2-9.9-12.2-23.5-3.5-35.7.7-1 1.4-2.6 1.2-3.7-.6-3.5-1.9-7-2.4-10.5-1.1-7.3-2.3-14.6-2.7-22-.1-1.5 3-4.7 4.4-4.6 6.7.7 13.2 2.4 19.8 3.6 3.9.7 7.8 1.3 11.7 1.9.2-.8.5-1.5.7-2.3-4.4-2.2-8.7-4.7-13.3-6.4-3.9-1.4-7.8-2.4-12.3-.7-2.1.8-7.5-1.9-8.1-3.9-1-3.4-.6-8.5 1.4-11.4 3.4-4.9 8.7-8.4 12.7-12.9 2.7-3 7.1-7.6 6.3-9.8-2.2-5.9-6.8-11-10.5-16.4-.1-.2-.7 0-1.1-.1-8-1.5-14.2-5.3-19.2-12.1-2.9-4-5.5-7.8-2.9-12.2 4.2-7.2 11.2-11.4 19-14.1 7-2.4 14.3-4.4 21-7.5 6.2-2.8 11.9-6.6 17.6-10.4 4.1-2.7 7.8-6 12.3-9.5-2.2-.9-3.4-1.6-4.7-1.9-11.4-2.9-23.1-5.1-34.3-8.8-10.6-3.5-20.2-9.3-28.7-16.9-10-9-12.5-20.9-11.6-33 .6-8.2 4.2-16.5 8.1-23.9 6.7-12.8 14.5-25 22.3-37.1 4.1-6.4 9.3-12.3 15.1-19.8-16.3.7-31.4 1.4-47.4 2zm224.6 199.3c-.7-.4-1.5-.8-2.2-1.2 1.2-2.5 2.4-5 3.5-7.5 2.7-6.1 4.4-11.9 2.7-19.1-2.3-10-8.6-17.4-13.7-25.5-.8-1.2-3.9-1.4-5.8-1.3-5.6.4-11.1 1.5-16.6 2-4.1.3-8.3.1-12.7.1 5.7 8.6 11.4 16.2 18.5 23 9.8 9.4 13.9 25.8 2.9 35.4 1.3 2 2.7 4.1 3.8 5.8-1.9 2-5 3.8-5 5.6-.2 7.5-4.5 13.3-6.9 19.8-4.8 13.2-17.3 17.1-27.4 23.9-.3.2-.8.3-1.1.1-4.7-2-8.2 1-12 2.8-9.6 4.5-11.3 9.8-6.1 19.2.5.8.2 2 .4 3 .4 1.9.5 4 1.5 5.5 6 8.8 12.6 17.3 15.4 28 1.3 4.9 5.2 9.3 2.9 14.9-.1.3 1 .9 1.3 1.5 3.4 5.3 8.4 9.8 8.2 16.9 0 .3.7.6.8.6 3.7-3.5 7.1-6.9 10.7-10.2 2.9-2.6 6.3-4.1 10-1.9 4.1 2.5 7.8 6.1 7.2 11.2-.5 4.7-1.7 9.8-4 13.8-3.6 6.3-8.5 11.9-12.8 17.8 9.9 1.6 10.8 1.2 17.3-5.9.8-.9 2.4-1.2 3.6-1.7.3.4.5.9.8 1.3-3.7 6.1-9.1 10.3-16.1 13.2 4.6 4.3 8.8 8.2 13 12.1 3.6 3.3 4 6.5.3 10.2-6.6 6.7-13 13.5-19.7 20.5 2.2.5 4.3 1.3 6.4 1.4 12.9.2 25.8.1 38.8.3 19.3.4 38.7.9 58 1.5 2.8.1 4.7-.6 4.9-3.6.5-9.4.9-18.9 1.1-28.3.8-29.4 1.5-58.8 2.2-88.2.4-16 .7-32 1.2-48 .6-17 1.5-34.1 2.2-51.1.6-15.8 1.2-31.7 1.7-47.5.4-12.2.5-24.3.7-36.5 0-.8-.4-1.7-.5-2.1-22.3 4.4-44.4 8.8-67 13.3 1.3 2.9 2.8 5.7 3.9 8.8 1.4 3.9 3.5 7.8 3.6 11.8.2 15.5-11.2 24.2-19.9 34.3zm81.1-111.9c.7-30.5 1.3-58.8 2-87.6-5.8-.3-12.3-.8-18.7-1.1-11.4-.4-22.8-.7-34.2-.9-3 0-6 .9-8.9.8-7.6-.3-15.3-1.1-22.9-1.3-12.7-.2-25.4-.1-38.1 0-2.3 0-4.6.7-6.9.6-6.3-.3-12.5-1.3-18.8-1.4-9.8-.1-19.7.3-29.5.5-8.3.2-16.6.9-24.9.9-7.7 0-15.5-1.2-23.2-1.1-7.5 0-15.1 1.4-22.6 1.3-4.1 0-7 1.3-9.5 4.2-2.8 3.3-5.8 6.5-8.2 10.2-6.9 10.8-13.8 21.6-20.1 32.7-3.2 5.7-5.6 11.9-7.5 18.1-1.8 5.7-2.1 11.9-3.5 17.8-2.1 8.5-.4 16.4 4.9 22.9 7.6 9.5 18.6 14.7 29.7 18.7 10.6 3.9 21.8 6.3 32.8 9 4.2 1.1 8.9 2.7 12.7 1.7 7.8-2 15.2-5.7 22.9-8.4 3-1.1 6.2-2.2 9.3-2.2 17.2 0 33.5 3.3 47.2 14.7 1.2 1 2.8 2.4 4.2 2.3 11.4-.5 22.7-1.4 34.1-1.8 3.8-.1 8.1-1.6 11 2.7 1.7 2.6 3.9 4.8 5.8 7.3 4 5.4 8.9 10.3 9.2 17.7.1 3.8.8 7.6 1.3 11.5.6 0 1.1.1 1.7.1.3-4.2 1.5-8.5.6-12.4-1.4-6.3-4.1-12.4-6.5-18.4-2.6-6.3-2.7-7 4.1-8.5 8.7-1.9 17.5-2.8 26.2-4.6 12.5-2.7 24.8-6.3 37.4-8.5 5.6-1 6.8-3.4 6.7-8.3-.2-9.2-.1-18.4-.1-27.8M111.4 313.4c11.9 1.4 23.8 4.3 35.5 3.9 12-.4 24.1-2.8 35.3-8.8 10.5-5.5 18-13.5 22.7-23.6 3.7-8 5.4-17.3 4.4-26.3-.8-6.7-1.8-13.8-4.9-19.6-7.3-13.8-17.4-25.1-32.3-31.9-12.7-5.8-26.1-7.5-39.5-7.2-6.9.1-14 3.2-20.5 6.2-14.7 6.9-26.5 16.8-29.6 33.9-1.3 7.1-1.6 14.4-2.6 21.5-.3 2.1-1 4.9-2.6 6.1-5.4 4.2-5.4 7.4.4 11.5 2.3 1.6 5.1 3.5 5.9 5.9 4.1 12.4 12.8 20.3 24.1 26.1.9.5 1.2 2.1 1.7 3.2-.3.2-.7.5-1 .7 1.3.4 2.6.9 4.2 1.4-.5-1.5-1-2.5-1.2-3zm307-27.7c6.2-3.4 12-6.6 18-9.9.4 2.5.6 4.2.8 5.6 6.2.4 6.5-12 15-5.8.9-1 1.6-2.4 2.8-3 9.9-5.1 12.7-14.6 15.3-24.2 1.7-6.6 3.1-13.1-3.8-18-1.7-1.2-2.9-3.2-5.1-5.7-1.4 1.9-3 3.5-3.6 5.4-1.5 4.4-2.3 9-3.8 13.4-.4 1.2-2.3 2-3.5 3-.5-1.4-1-2.8-1.5-4.3-3.9-1-8.2-2.4-11.1-5.3-7.8-8.1-10.6-18.4-9.8-29.5.6-8.4 7.4-12.2 14.5-8.2 2.8 1.6 5.2 3.9 8 5.6 1.1.7 3.1.9 4.2.4 2.7-1.3 6.4-12.4 4.8-14.8-2.9-4.3-5.8-8.6-9.5-12.2-9.1-9-19.1-16.6-31.9-19.9-9-2.3-18.1-3.1-27.1-1.3-19.3 3.9-34.2 16.1-50.1 26.7-7.7 5.1-16.6 8.5-25 12.5-6 2.8-12.4 4.8-18.3 7.8-3.5 1.8-5.1 5.5-3.4 9.2 3.1 6.8 7.3 12.8 15.5 13.6 1.5-4.8 2.1-9.8 4.4-13.8 6.1-10 6.4-9.9 9.3-9.3-2 4.2-4 8.4-6.3 13.3 7.2 4.2 14 8.1 20.7 12 .6-1.7.2-2.3 0-2.9-.6-1.5-1.2-3.1-1.8-4.6 1.8.2 3.7 0 5.2.7 3.5 1.5 6.6 3.6 10.1 5 3.3 1.3 6.9 1.8 10.4 2.6-1.3-2.6-3.1-3.7-4.2-5.3-1-1.4-1.1-3.3-1.6-5 1.7.3 3.5.3 5.1.9 5.2 2.4 10.4 5 16.1 7.8-.2-4.5-6.7-5.6-2.8-9.8 6.4 2.7 12.6 5.4 18.8 8 .3-.5.5-1.1.8-1.6-1.1-.7-2.6-1.2-3.3-2.2-1-1.6-1.4-3.5-2-5.3 1.6.1 3.3-.2 4.7.3 4.4 1.3 8.7 2.9 13.7 4.6-.6-5.6-7.1-9.4-3.5-14.7 3.3 3.6 6.3 7 9.5 10.4 4.6 4.8 10 9.1 13.8 14.5 2.9 4.1 5.5 9.8 5.1 14.4-.6 6.6-3.8 13-6.5 19.2-2.8 5.8-7.7 11.3-7.1 19.7zm-116.6 10c2 9.9 3.9 19.6 6.2 29.2.2.9 2.4 1.3 3.7 1.9 1.5.8 3.6 1.2 4.5 2.4 3.2 4.8 6 9.8 8.8 14.8.9 1.7.9 4.1 2.1 5.4 4.6 4.7 2.7 8.2-1.3 11.9-4.1 3.8-1.7 17 3.7 18.8 11 3.8 22.1 8.2 33.5 10.3 10.3 1.9 21.1 1.1 31.6 1.3 2.9 0 5.8-.7 8.6-1.1-.5-5.9-1.1-10.6-1.4-15.2-.4-8.3-.4-8.1-8.4-9.8-3.6-.8-7.7-1.7-7.4-7.1.1-1.3-1.3-2.6-1.6-4-.4-1.5-.5-3.2-.4-4.8 0-1.7.3-3.4.6-5.1.9-6.1 1.8-12.2 2.9-18.3.1-.7 1.2-1.4 2-1.6 4.1-1.1 8.2-2.1 12.9-3.2-.4-7.3-.8-15.2-1.3-23.9-33.3 14.3-65.5 5.6-99.3-1.9zm20.1-62.8c.4 1.2.4 2.7 1.1 3.6 6.5 8 4.5 16.2-.3 23.7-4.3 6.7-2.4 16.6 4.8 21.6 4.1 2.9 7.9 6.6 12.3 8.8 6 3 12.4 6 18.9 7.2 6.5 1.2 13.6 1.1 20.2.2 7.6-1.1 15-3.7 22.5-5.4 1.4-.3 3.4.7 4.5 1.7 1 .9 1.3 2.7 2.4 5.1 3.6-3 6.6-5.3 9.3-8.1.5-.5-.6-2.7-1-4.1-.8-2.4-2.8-5-2.3-7.1 1.2-4.9 2.8-9.9 5.5-14.1 7.5-11.9 7-23.5-1.7-34.9-3.4-4.5-6.3-6.8-12.6-5.2-2.8.7-5 1.6-7.5 2.7-2.7 1.2-6 .9-9.1 1.3-1.4.2-2.8.2-4.2.6-2.2.5-4.3 1.6-6.5 1.8-5.5.4-11.2-2-16.2 2.5-.7.7-2.7 0-4.1-.1-3.2-.3-7.2-2.2-9.4-.9-5.3 3.2-9.6 1.3-14.5-.4-3.8-1.3-7.7-5.6-12.1-.5zm70 124.8c.1.4.1.9.2 1.3 2.8.3 5.6.3 8.3 1.1 2.2.7 5.5 1.9 5.9 3.5 1.1 4.5.3 9.5 1.4 13.9 1.9 7.3 1.7 15.4 8.3 21.2 6.7 6 14.6 9 23.3 9.1 4.5.1 9.4-2 10.8-7.3 2.7-10.5-1.1-20.5-9.3-26.3-3.9-2.7-7.8-5.4-11.4-8.3-6.5-5.3-8.9-12.8-11.3-20.5-4.4-13.9-9.7-17.9-21.2-17.5-1.5.1-2.9 1-4.3 1.6 1.2 1.3 2.2 1.3 2.8 1.7 1.8 1.1 3.5 2.5 5.2 3.8-1.9.9-3.8 1.9-5.7 2.7-2.1.8-4.2 1.5-6.3 2.2l.3 2.1c3.9.7 7.9 1.4 11.8 2v3c-3.9.8-7.7 1.6-11.6 2.4 1.1 1.5 2.3 1.9 3.4 2 1.2 0 2.6-.8 3.7-.5 1.5.5 2.7 1.7 4.1 2.6-1.1.9-2 2.1-3.3 2.7-1.6.8-3.4 1-5.1 1.5zm-269.8-29.5c-.6 1.2-.9 1.5-.9 1.9-1.7 14.2-6.2 27.6-11.4 40.9-1.8 4.6-3.4 9.5 2 15.2v-14.8c3.4 6.3 6 11 8.6 15.7 1.2-.6 1.7-.7 1.9-.9 2.1-4.9 5.2-8.5 10.1-11.2 6.7-3.6 7.2-7.6 4.5-15.4-1.1-3-1.4-6.3-2.1-9.5.7-.2 1.4-.4 2.1-.7.9 1.9 2 3.9 2.8 5.8 3.2 7.8 5.3 16.7 15.4 18.5 2.9.5 6.6.5 9.1-.9 3-1.7 3.4-5.5 2.8-9.1-.7-3.5-.8-7.2-2-10.5-2.1-5.7.1-12.8-6.1-17.4-.7 1.4-1.3 2.7-2 4-.7 1.2-1.4 2.5-2.1 3.7l-1.5-.6c.5-1.9 1-3.7 1.5-5.6-1 .2-1.3 1-1.9 1.5-8 6.3-8 6.2-16.3-.3-4.6-3.6-9.4-6.8-14.5-10.3zm55 60.9c.5-.4 1-.7 1.5-1.1 1.5 2.1 2.9 4.2 4.4 6.3 1-1.9 1.2-3.6.7-5-2.5-6.2-10.3-10.2-17.7-9.9-7.4.2-15.1.5-21-5.3-2.6-2.5-4.8-2.1-6.9.2-4.6 4.9-9.1 10-14 15.4.6.8 1.8 2.5 3.3 4 8.3 8.6 19.7 7.7 30.1 8.4 4.3.3 7.8-.6 10.4 4v-10.2c1.7 1.6 2.8 2.6 4.3 4.1-.6-6.4 1.1-8.3 6.1-2.8-.7-3.3-1-5.7-1.2-8.1zm147.8-33.8c-.3-.4-.7-.9-1-1.3-1.7.8-3.4 1.7-5.2 2.2-1.5.4-3.1.1-4.7.1.8-1.4 1.3-3.1 2.5-4.1 1.5-1.4 3.4-2.2 5.2-3.3-.3-.7-.5-1.3-.8-2-1.8.6-3.5 1.4-5.4 1.8-1.7.4-3.4.5-5.1.7 1-1.5 1.7-3.3 3-4.6 1.7-1.7 3.8-3 5.7-4.4-.4-.7-.9-1.4-1.3-2.1-3.8 1.7-7.6 3.5-12 5.5-2.5-5.4 4.6-6.8 5.8-12.3-3 1.3-5.3 1.8-6.9 3.2-5.8 5.2-6.2 19-.8 24.7 2 2.1 4.1 4.2 6.1 6.4 4.4 4.7 4.8 9.3 1.2 14.7-4.3 6.4-4.7 11.5-1 14.1 6.2 4.4 13.4 5.9 20.7 4.7 2.6-.4 5.6-3.5 6.7-6.1 1.7-3.8-2.6-4.3-4.9-5-8.7-2.7-12.4-8.9-13.6-17.3-.1-.5-.2-1.1-.5-1.5-3.5-5.3-1-8.6 3.7-11.3 1-.6 1.7-1.8 2.6-2.8zM102 392.6c-.5.2-.9.4-1.4.6-1.5 4.6-3.1 9.2-4.6 13.8-1 3.1-.4 5.3 3.1 6.2 3 .8 6 1.5 8.8 2.9 12.4 6.1 25.6 6.7 40 5.6-.7-3.7-.3-9.2-2.1-10-4.6-2-9.7-8.2-15.1-.1-2.3-4.2-4.1-7.4-5.9-10.7-3.9-7.2-6.3-7.4-10.5-.8-.5.8-.9 1.6-1.5 2.3-1.2 1.3-2.4 2.4-3.6 3.6-1.1-1.3-2.6-2.4-3.3-3.9-1.5-3.1-2.6-6.4-3.9-9.5zm353.6 4.9c-.3.1-.6.2-.9.2.8 2.4 1.7 4.8 2.5 7.2 3-1.1 6-2.2 8.9-3.4.6-.2.9-1.1 1.3-1.7 3-5.5 6.5-10.8 8.7-16.7 1.6-4.3-1.7-7.8-5-10.4-3.4-2.7-7.1-1-9.1 1.5-3 3.9-5.6 8.5-7.1 13.2-.9 3 .4 6.7.7 10.1zm-.5 20.8c-1.4 1.7-3.2 3.2-4 5.1-.8 1.8-1.5 5-.6 5.9 2.4 2.3 5.6 3.8 8.7 5.3.7.4 2.4-.1 3-.8 2.2-2.4 4.2-5 6.6-8-1.8-1.6-3.6-3.4-5.7-4.9-3.1-2.4-6.7-6.8-9.4-6.4-4.8.7-9.2 4.5-14.2 7.2 8.8 7.8 9.6-3.7 15.6-3.4zm-48 30.2c5.3 2.6 9.7 4.8 14.4 7.1 1.2-2.1 2.1-3.6 3-5.1 1.5-2.4 4.8-5.5 4.2-7.2-1-2.6-4.3-4.8-7.1-6.2-1.7-.8-5.1-.6-6.4.6-2.9 2.8-4.9 6.4-8.1 10.8zm-15.8-10.9c3.2 2.3 6.2 4 8.6 6.4 2.9 2.8 4.9 1.7 6.7-.8 2.5-3.3 4.7-6.7 6.9-10-1.5-1.3-2.6-2.9-4-3.3-3.3-1-6-5.9-10-2-2.8 2.9-5.2 6.2-8.2 9.7zm44.9 4.8c4.2 2.3 7.9 5.8 11.7 5.9 2.7.1 5.7-4.3 8.3-6.8.7-.7.8-2.2 1-3.3 0-.2-.4-.6-.7-.8-8.1-8.5-12.5-8-18.8 2.2-.2.5-.5 1.1-1.5 2.8zm-290.3 19.9c4.9-.4 9.7-.6 14.4-1.3 1.5-.2 3.5-1.7 4-3.1 1.3-3.8.3-7.5-3.4-9.4-1.2-.6-3.6 1-5.4 1.8-1 .4-1.8 1.8-2.6 1.8-6.9-.3-8.7 3.3-7 10.2zm232.3-12.1c2-4.1 5.8-8.2 5.2-11.4-.6-3.3-5.6-5.7-9.1-8.9-2.9 4-5.8 8-9.1 12.4 4.2 2.6 8.2 5 13 7.9zm69.8 2.9c-4.4-2.2-8.1-4.8-12.2-6-1.7-.5-4.8 1.7-6.2 3.5-1.7 2-2.4 4.9-3.4 7.5-.1.2 1.2 1.2 2 1.5 6.4 2.2 14.3-.2 19.8-6.5zm-86.9-12.6c1.4-1.6 2.6-2.9 3.7-4.3s1.8-3.4 3.2-4.3c2.7-1.7 3.3-3.8 1.7-6.3-1.9-2.9-8.4-4.7-10.4-3.2-6.8 5.3-7 10.6-.7 16.4.6.5 1.3.8 2.5 1.7zm80.6-12.2c-2.2-1.5-3.9-2.8-5.8-3.9-4.6-2.6-11.1-.3-13 4.7-.5 1.3-.4 3.5.4 4.3 7.2 7.5 9.7 7.2 15.8-1.5.8-1 1.5-2 2.6-3.6zM388.9 442c-2.3 2.4-4.4 3.9-5.4 5.9-.8 1.6-1.1 4.9-.1 5.6 3.3 2.6 7.3 4.4 11 6.4 2.5-3.6 4.8-6.8 7.1-10.2-4.6-2.8-8.6-5.3-12.6-7.7zm59.2 15.9c.2.6.4 1.2.5 1.8.9.1 2 .6 2.6.3 6.5-4 13-8.1 19.4-12.3.5-.3.6-2.3.4-2.4-3.2-1.4-7.1-4.3-9.6-3.4-3 1.1-5.1 5.3-7 8.6-.5 1 1.2 3.2 1.7 4.4-2.5.9-5.2 2-8 3zM397.5 403c-2.4 2.7-5.3 5-6.6 8-.4 1 3.4 3.8 5.3 5.8.5.5 1.2.8 1.8 1.3 3.7 3.1 5.7 0 8.1-2 3.3-2.8.1-4.5-1.2-6.1-1.9-2.4-4.3-4.2-7.4-7zm82.7 33.4c-3.7-3.3-6.3-5.8-9-8.2-2.2 2.7-6.7 6-6.1 7.9.9 3 4.8 5.5 8.1 7 1 .3 3.9-3.7 7-6.7zm-121.6 7.9c-.2-.8-.4-1.5-.6-2.3-3.3-1.4-6.8-4.3-9.6-3.7-2.2.5-3.5 5.3-5.2 8.2 3 1.3 6.1 3.9 9 3.6 2.3-.2 4.3-3.7 6.4-5.8zm8.1-29.4c4.5 1.2 8.2 2.4 12 2.9 1.2.2 2.9-1.4 3.8-2.6.5-.7.2-2.8-.5-3.4-2.7-2.4-5.6-4.5-8.6-6.8-2.3 3.4-4.1 6-6.7 9.9zm10.8 9.7c1.7 5.9 5.4 9.4 9.5 9.6 2.8.2 5.8-4 8.7-6.2-.3-.6-.6-1.1-.9-1.7-5.4-.5-10.8-1.1-17.3-1.7zm49.3-5c-7.4-8-15.7-7.4-19.9 1.4 6.7-.4 12.8-.9 19.9-1.4zM314.2 265.1c-3.3 3.5-6 5.9-8.1 8.7-.9 1.2-1.1 3.8-.4 4.9.7 1 3.1 1.2 4.7 1.2 1.7 0 3.5-.7 4.7-1-.2-4.3-.5-8.4-.9-13.8zm47 179.7c-.5 1.2-.8 2.9-1.8 4-2.7 3.1-1.7 4.2 1.9 4.6 2.5.3 5 1.5 7.5 1.9 1.6.2 3.4-.3 5.1-.5 0-.4.1-.9.1-1.3-4.1-2.9-8.3-5.7-12.8-8.7zm37.9 13.8c6.8.1 12.6 2.5 18.3 0-2.5-1.9-5.4-2.4-7.3-4-5.5-4.4-7.7-.6-11 4zm-39.5-56c-.3.4-.6.7-.9 1.1 2.3 2.7-4.4 7.3 2.1 8.8 6.2 1.4 5.3-5.8 8.6-8.3-3.2-.6-6.5-1.1-9.8-1.6zm59.3-67.5c2.8 1.8 5 3.4 7.4 4.7.8.4 1.9.5 2.8.3.4-.1 1-1.3.8-1.8-1.3-3-2.7-5.9-4.4-8.7-.2-.4-2.8 0-3.6.8-1.3 1.1-1.9 2.9-3 4.7zm-3.7-32.1c-7.6-.7-9.9 1.9-5.6 12.4 1.8-4 3.6-7.9 5.6-12.4zm-258.6 30.7c0-1.6.1-3.5 0-5.4-.1-1-.7-2.9-1-2.9-4.1.1-8.2.4-12.4.7 0 .4 0 .7-.1 1.1 4.6 2.2 9.1 4.4 13.5 6.5zm285.1-122.3c-.8.1-1.6.2-2.5.3-.8 2-2.7 4.3-2.2 5.8.7 1.8 3.2 3.3 5.2 4.2.7.3 3.5-2.2 3.3-2.7-.9-2.6-2.4-5.1-3.8-7.6zm-5.3 142.1c.2-.5.3-1 .5-1.5-2-1.4-3.8-3.7-6-4.1-1.6-.3-3.7 1.7-5.4 3-.2.1 1.2 3.3 1.9 3.4 3 0 6-.5 9-.8zm-1-139.7c1.1-4.1 1.8-6.9 2.6-9.8 1.2.1 2.8.3 5.2.6-2.9-4-6.4-4.5-8.5-1.8-1.9 2.4-4.1 6.1.7 11zM160 403.8v20.6c.6 0 1.2.1 1.8.1.5-5.5 1.1-11 1.3-16.5 0-1-1.5-2.1-3.1-4.2zm318.4-188.1c-3.4 1.7-6.6-4.2-8.9 1.3-.2.6 2.2 2.7 3.7 3.6 3.7 2 4.3-.8 5.2-4.9zm-97.9 189.2c6.3 5.7 6.3 5.7 13.6-2.4-4.8.8-8.9 1.5-13.6 2.4zm85.4-189.5c.6-.4 1.4-.7 1.4-1.1.1-2.2.2-4.4-.3-6.5-.2-.8-2.2-1.1-3.3-1.7-.1 2.1-.4 4.3 0 6.3.1 1.2 1.4 2 2.2 3zm-26.9 152c-4-9.7-4.2-9.9-10.5-7.4 3.9 2.8 7.2 5.1 10.5 7.4zm7.5-162.1c-.6.4-1.2.7-1.8 1.1-1.3 4.4 2.5 5.2 4.3 7.5.8-.6 1.6-1.1 2.4-1.7-1.7-2.3-3.3-4.6-4.9-6.9zM189.3 389.2c2.6 3.2 4.9 5.9 7.2 8.7.4-.3.8-.5 1.2-.8-2.2-3.4-4.3-6.9-6.7-10.7-.8 1.3-1.4 2.3-1.7 2.8zm-83.5-4c-.3.2-.5.4-.7.5.1.1.3.3.4.3.3 0 .6-.2.9-.3-.2-.1-.4-.3-.6-.5zm4.6 66.5c-.1-.1-.3-.4-.4-.4-.3.1-.6.2-.9.4.1.1.3.4.3.4.4-.1.7-.3 1-.4zm-6.1-62.7c-.1-.1-.2-.3-.3-.3-.1 0-.2.2-.4.3.1.1.2.3.3.3.2 0 .3-.2.4-.3zm7.6 65.1c.1-.1.3-.2.3-.3 0-.1-.2-.2-.3-.3-.1.2-.2.3-.3.5 0 0 .2.1.3.1zm-4.6-1.5-.2.3h.3l-.1-.3z"/>
  <path d="M275.7 26.8c16.1-.7 31.1-1.3 47.6-1.9-5.8 7.5-10.9 13.3-15.1 19.8-7.8 12.1-15.6 24.4-22.3 37.1-3.9 7.4-7.5 15.8-8.1 23.9-.9 12.1 1.6 23.9 11.6 33 8.5 7.7 18.1 13.4 28.7 16.9 11.2 3.7 22.9 5.9 34.3 8.8 1.3.3 2.6 1 4.7 1.9-4.5 3.5-8.2 6.8-12.3 9.5-5.7 3.7-11.4 7.6-17.6 10.4-6.7 3.1-14 5.1-21 7.5-7.9 2.7-14.8 6.8-19 14.1-2.6 4.4 0 8.2 2.9 12.2 4.9 6.8 11.2 10.6 19.2 12.1.4.1.9-.1 1.1.1 3.7 5.4 8.3 10.5 10.5 16.4.8 2.2-3.6 6.8-6.3 9.8-4 4.5-9.3 8-12.7 12.9-2 2.9-2.4 7.9-1.4 11.4.6 2.1 6 4.7 8.1 3.9 4.6-1.7 8.5-.7 12.3.7 4.6 1.7 8.9 4.2 13.3 6.4-.2.8-.5 1.5-.7 2.3-3.9-.6-7.8-1.2-11.7-1.9-6.6-1.2-13.2-2.9-19.8-3.6-1.4-.2-4.5 3.1-4.4 4.6.4 7.4 1.6 14.7 2.7 22 .5 3.5 1.8 7 2.4 10.5.2 1.2-.4 2.7-1.2 3.7-8.7 12.1-8.7 25.7 3.5 35.7 4.1 3.3 4 6.9 2.4 11-1.1 2.7-2.6 5.2-3.5 7.9-3 8.2.4 14.3 8.9 17.1 5.1 1.7 10.2 4.3 15.5 2 4.2-1.8 8.8-4.3 11.5-7.8 2.7-3.5 4.4-5.2 8.7-3.2 2.4 1.1 5.1 1.4 6.7 1.9-.6 7.6-.8 14.6-1.8 21.6-.5 3.1-2.2 6.1-3.9 8.9-4 6.4-8.3 12.6-12.4 18.9-1 1.5-1.6 3.2-2.9 5.8 6.1 2.5 11.9 4.8 19.3 7.7-7.2.6-12.8 1.5-18.5 1.6-8.9.2-17.8-.2-26.8-.2-11.5 0-23 0-34.4.1-24.5.3-49.1.7-73.6 1.1-5.3.1-10.7.7-16 .8-3.8 0-7.6-.1-11.3-.8-1.5-.3-3.6-2.5-3.7-3.8-.1-2.4.5-6.1 2.1-7.2 5.1-3.2 9.4-5.4 4.5-12.6-1.8-2.7-.4-7.5-.6-11.4-.1-2.3-.5-4.6-.7-6.9 7.1-3 13.2-7.1 16.9-15.4 1.9 6.6 3.8 13.3 5.8 19.8.9 2.9.4 6.9 5.4 6.8 5.4-.1 10.7-3 11.4-7.2.2-1.4-.5-4.2-1.1-4.3-8-1.4-6.2-8.5-7.9-13.4-2-5.6-3.1-11.5-5.4-16.9-.8-1.9-3.5-3.3-5.7-4.4-2.3-1.2-5-1.9-7.5-2.6-11.2-3.2-12.7-13.1-15.2-22.2-1.6-5.7-3.3-11.4-4.2-17.3-1-6.7-1.3-13.5-1.4-20.3 0-.9 2.6-2.3 4.2-2.8 20.3-5.8 34.4-18.3 41.9-38.1 1-2.7 2.5-5.2 4-7.7 2.1-3.4 2.9-6.7 1-10.6-.9-1.9-1.3-4.1-1.4-6.3-1.5-19.1-11-33.4-25.5-45.2-12.4-10.1-26.8-14.3-42.1-16-6.7-.8-13.8-.4-20.5.9-7.1 1.5-14.5 3.7-20.6 7.6C89.5 214.8 77.4 229.4 76 251c-.4 5.6 0 11.9-5.6 16.8-4.4 3.9-2 15.2 4.9 16.4 1.6.3 3.4 2.9 4.1 4.9 3.9 10.4 10.8 18.1 20.2 23.5 4.5 2.6 9.6 4.3 14.5 6.4 4.8 2 5.8 5.1 4.1 9.9-2.4 6.9-4.1 13.9-6.3 20.9-2.8 9-5.5 18.1-8.8 26.9-3.2 8.5-7.6 16.6-10.5 25.2-1.6 4.7-4 9.8.4 15.3 2 2.5.8 7.5 1 11.4.3 6 .7 12 .8 17.9.2 6.3 2.5 9.2 8.8 10.3 2.6.5 6.4.4 5.4 4.3-.4 1.5-4.1 2.8-6.4 3-3.6.4-7.7-1.4-10.9-.3-10.7 3.8-21.8.6-32.6 2.5-7.5 1.3-15.3.8-22.9 1.4-7.3.6-14.5 1.7-21.7 2.3-3.5.2-5.8-1.6-5.6-5.7.5-9.2 1.1-18.5 1.3-27.7.2-10.7 0-21.3.2-32 .3-14.8.8-29.7 1.2-44.5.8-28.9 1.6-57.7 2.3-86.6.3-12.9.1-25.9.5-38.8.3-9 1.4-18.1 1.8-27.1.3-6.2-.2-12.5-.2-18.8.5-33 1.1-66.1 1.6-99.1.1-4.2 1.8-5.6 6-5.9 16.2-1 32.3-2.3 48.5-3.4 17-1.2 33.9-2.1 50.9-3.4 10.6-.8 21.1-2.3 31.6-2.9 14.3-.8 28.6-.9 42.9-1.6 10.7-.5 21.3-1.8 32-2.5 12.2-.8 24.5-1.4 36.7-2.1.9 0 1.9-.1 2.7.2 5.1 1.4 6.8-1.2 6.8-5.7V26.8z" fill="#fff"/>
  <path d="M111.4 313.4c.2.5.7 1.5 1.3 2.8-1.5-.5-2.9-.9-4.2-1.4.3-.2.7-.5 1-.7-.6-1.1-.9-2.7-1.7-3.2-11.2-5.7-19.9-13.6-24.1-26.1-.8-2.4-3.6-4.3-5.9-5.9-5.8-4.1-5.8-7.2-.4-11.5 1.5-1.2 2.3-3.9 2.6-6.1 1-7.1 1.3-14.4 2.6-21.5 3.1-17.1 14.9-27 29.6-33.9 6.4-3 13.6-6 20.5-6.2 13.5-.3 26.8 1.4 39.5 7.2 14.8 6.8 24.9 18.1 32.3 31.9 3.1 5.8 4.2 13 4.9 19.6 1 9-.7 18.3-4.4 26.3-4.7 10.1-12.2 18-22.7 23.6-11.3 5.9-23.3 8.4-35.3 8.8-11.8.6-23.6-2.3-35.6-3.7zm66.7-70.7c-.4-.7-.9-1.3-1.3-2-2.6 1.5-5.1 3-7.5 4.4-.7-1.7-1.3-3.3-1.9-4.9-1.4.6-2.9 1.1-4.3 1.7-2.3 1.1-4.7 2.2-8.1 3.9 2.4-4.8.1-5.3-2.6-4.8-5.5.9-10.9 2-16.9 3.2.4-2.3.5-3.4.7-4.5l-1.2-.9c-2.2 2.2-4.4 4.4-7.5 7.4 4.7 1.1 8.1 1.7 11.3 2.7 2.5.7 4.9 2.8 7.4 2.7 6.6-.2 13.3-.5 19.6-2.1 4.4-1.1 8.2-4.4 12.3-6.8zm-28.6 31.1c4.1 6.4 8.2 2.9 11.4 1.1 3.9-2.1 5.5-6.3 4.2-10.8-1.1-3.7-6.9-6.7-11.3-5.9-1.1.2-2 1.7-3 2.7.3.4.6.8.8 1.2h5.1c8.7 5.2 1.3 8.6-.7 11.8-2.1-.1-4-.1-6.5-.1zm26.4-17.5c-5.5 4.9-7.1 9.9-3.7 12.5 1.2 1 4.7.9 5.9-.2 3.9-3.3 3-8.1-2.2-12.3zm-40.5 9c.5-3.3-.4-6.7-4.8-6.4-1.5.1-3.8 3.7-3.9 5.8-.1 2.6-.4 6.9 4.1 6.8 3-.1 5.4-1.9 4.6-6.2zm25.7 36.2c-3.1-2.3-16.6-3.1-18.3-1.1-.6.8.4 4.3 1 4.4 5.8 1 12 2 17.3-3.3zM418.4 285.7c-.5-8.4 4.4-13.9 7.1-20.2 2.7-6.2 5.9-12.6 6.5-19.2.4-4.7-2.2-10.3-5.1-14.4-3.8-5.4-9.2-9.7-13.8-14.5-3.2-3.3-6.2-6.8-9.5-10.4-3.6 5.3 3 9.1 3.5 14.7-5-1.7-9.3-3.3-13.7-4.6-1.5-.4-3.2-.2-4.7-.3.6 1.8 1 3.8 2 5.3.6 1 2.1 1.5 3.3 2.2-.3.5-.5 1.1-.8 1.6-6.2-2.7-12.4-5.3-18.8-8-3.9 4.2 2.6 5.3 2.8 9.8-5.8-2.8-10.9-5.4-16.1-7.8-1.5-.7-3.4-.6-5.1-.9.5 1.7.7 3.6 1.6 5 1.1 1.6 2.9 2.7 4.2 5.3-3.5-.9-7-1.4-10.4-2.6-3.5-1.3-6.7-3.5-10.1-5-1.6-.7-3.5-.5-5.2-.7.6 1.5 1.2 3.1 1.8 4.6.2.6.6 1.2 0 2.9-6.7-3.9-13.4-7.8-20.7-12 2.3-4.9 4.3-9.1 6.3-13.3-3-.6-3.3-.8-9.3 9.3-2.4 4-3 9-4.4 13.8-8.2-.7-12.4-6.7-15.5-13.6-1.7-3.7-.1-7.5 3.4-9.2 5.9-3 12.3-5 18.3-7.8 8.5-3.9 17.3-7.3 25-12.5 15.9-10.6 30.8-22.8 50.1-26.7 9-1.8 18.1-1 27.1 1.3 12.8 3.3 22.8 10.9 31.9 19.9 3.6 3.6 6.6 8 9.5 12.2 1.6 2.4-2.1 13.5-4.8 14.8-1.1.5-3 .3-4.2-.4-2.8-1.6-5.2-4-8-5.6-7.1-4-13.9-.2-14.5 8.2-.8 11.1 1.9 21.4 9.8 29.5 2.8 2.9 7.2 4.3 11.1 5.3.5 1.4 1 2.8 1.5 4.3 1.2-1 3.1-1.7 3.5-3 1.5-4.4 2.3-9 3.8-13.4.6-1.9 2.3-3.4 3.6-5.4 2.2 2.5 3.4 4.5 5.1 5.7 7 4.9 5.6 11.4 3.8 18-2.5 9.7-5.4 19.1-15.3 24.2-1.2.6-1.9 2-2.8 3-8.5-6.1-8.8 6.3-15 5.8-.2-1.4-.5-3.1-.8-5.6-6.1 3.8-11.8 6.9-18 10.4zM301.8 295.7c33.7 7.5 66 16.1 99.3 1.7.5 8.7.9 16.6 1.3 23.9-4.7 1.2-8.8 2.1-12.9 3.2-.8.2-1.9 1-2 1.6-1.1 6.1-2 12.2-2.9 18.3-.3 1.7-.5 3.4-.6 5.1 0 1.6 0 3.3.4 4.8.3 1.4 1.7 2.7 1.6 4-.3 5.4 3.8 6.3 7.4 7.1 8 1.7 8 1.5 8.4 9.8.2 4.7.8 9.3 1.4 15.2-2.7.4-5.7 1.1-8.6 1.1-10.6-.2-21.3.6-31.6-1.3-11.4-2.1-22.5-6.4-33.5-10.3-5.4-1.9-7.8-15.1-3.7-18.8 4-3.7 5.9-7.2 1.3-11.9-1.2-1.3-1.2-3.7-2.1-5.4-2.8-5-5.6-10-8.8-14.8-.8-1.3-2.9-1.7-4.5-2.4-1.3-.6-3.5-1.1-3.7-1.9-2.2-9.4-4.1-19.1-6.2-29z" fill="#fff"/>
  <path d="M321.9 232.9c4.4-5.1 8.4-.8 12.3.5 4.9 1.7 9.2 3.6 14.5.4 2.2-1.3 6.2.5 9.4.9 1.4.1 3.4.8 4.1.1 4.9-4.5 10.7-2.1 16.2-2.5 2.2-.2 4.3-1.3 6.5-1.8 1.4-.3 2.8-.4 4.2-.6 3.1-.4 6.4-.1 9.1-1.3 2.5-1.1 4.7-2 7.5-2.7 6.2-1.5 9.1.7 12.6 5.2 8.7 11.4 9.2 23 1.7 34.9-2.6 4.2-4.3 9.2-5.5 14.1-.5 2.1 1.5 4.7 2.3 7.1.5 1.4 1.5 3.5 1 4.1-2.6 2.7-5.7 5.1-9.3 8.1-1.1-2.4-1.4-4.2-2.4-5.1-1.2-1-3.2-2-4.5-1.7-7.5 1.6-14.9 4.3-22.5 5.4-6.6.9-13.7 1.1-20.2-.2-6.6-1.2-12.9-4.2-18.9-7.2-4.4-2.2-8.2-5.9-12.3-8.8-7.2-5-9-14.9-4.8-21.6 4.8-7.5 6.7-15.7.3-23.7-.9-.9-1-2.3-1.3-3.6zm57.6 59.6v.6c1.8 0 3.9.6 5.4-.1 2.1-1 4.6-2.7 5.1-4.5.4-1.4-1.7-4.7-3.4-5.3-6.6-2.4-13.6-4.2-20.5-1.9-2.4.8-4.1 3.6-6.2 5.5 2.4 2 4.5 4.9 7.2 5.6 3.9.9 8.2.1 12.4.1zm-37.4-35c1.3 3.3 1.7 6.2 3.4 8.1 1.3 1.5 4.1 1.7 6.2 2.5.7-2.2 2.3-4.5 2-6.6-.3-2.3-2.2-4.5-3.8-6.4-.8-.9-3-1.7-4-1.2-1.5.7-2.6 2.5-3.8 3.6zm51.9 4.4c.1-5.7-3.6-11.7-6.4-11-1.7.4-4.5 3.6-4.2 4.3 1.7 3.5 4.3 6.7 6.5 9.9 1.6-1.3 3.2-2.5 4.1-3.2zm-22.7-7.4c-.4-.5-.8-.9-1.2-1.4-4.5.7-8.2 3.1-9.7 7.4-.5 1.4 2.1 4.7 4.1 5.8 5 2.6 8.2-.2 10.4-5-1.9 0-3.6 1-5.3 1-1.5.1-3.1-.9-5.1-1.5 2.9-2.7 4.9-4.5 6.8-6.3zm24.6-14.2c-7.2-5.6-12.5-6.3-17-2.5-.7.6-.9 1.7-1.3 2.5 1 .3 2.1 1 2.9.8 3.3-1 6.1-1 9 1.5 2.5 2.1 5.1 1.7 6.4-2.3zm-60.1 5.8c3.6-.2 6.9-.1 10.1-.6 1.6-.3 2.9-1.7 4.4-2.6-1.3-1-2.4-2.7-3.8-2.8-5.3-.6-9.6.9-10.7 6zM391.9 357.7c1.7-.5 3.5-.7 5.1-1.5 1.2-.6 2.2-1.8 3.3-2.7-1.3-.9-2.6-2.1-4.1-2.6-1.1-.3-2.4.5-3.7.5-1.2 0-2.3-.4-3.4-2 3.9-.8 7.7-1.6 11.6-2.4v-3c-3.9-.7-7.9-1.4-11.8-2l-.3-2.1c2.1-.7 4.2-1.4 6.3-2.2 1.9-.8 3.8-1.8 5.7-2.7-1.7-1.3-3.4-2.6-5.2-3.8-.7-.4-1.7-.4-2.8-1.7 1.4-.6 2.9-1.5 4.3-1.6 11.4-.4 16.8 3.6 21.2 17.5 2.4 7.7 4.8 15.2 11.3 20.5 3.6 3 7.5 5.6 11.4 8.3 8.2 5.7 12 15.7 9.3 26.3-1.4 5.3-6.2 7.4-10.8 7.3-8.7-.1-16.5-3.1-23.3-9.1-6.5-5.8-6.4-13.9-8.3-21.2-1.2-4.5-.3-9.4-1.4-13.9-.4-1.6-3.7-2.8-5.9-3.5-2.6-.8-5.5-.8-8.3-1.1-.1-.4-.2-.8-.2-1.3zM122.1 328.2c5 3.5 9.8 6.6 14.4 10.1 8.4 6.5 8.3 6.6 16.3.3.6-.5 1-1.3 1.9-1.5-.5 1.9-1 3.7-1.5 5.6l1.5.6c.7-1.2 1.4-2.4 2.1-3.7.7-1.2 1.3-2.5 2-4 6.2 4.6 4 11.7 6.1 17.4 1.2 3.3 1.3 7 2 10.5.7 3.6.3 7.4-2.8 9.1-2.4 1.4-6.1 1.4-9.1.9-10.1-1.8-12.2-10.7-15.4-18.5-.8-2-1.9-3.9-2.8-5.8-.7.2-1.4.4-2.1.7.7 3.2 1 6.4 2.1 9.5 2.7 7.9 2.2 11.8-4.5 15.4-5 2.7-8 6.3-10.1 11.2-.1.3-.6.3-1.9.9-2.6-4.7-5.1-9.4-8.6-15.7V386c-5.4-5.7-3.8-10.6-2-15.2 5.2-13.2 9.7-26.7 11.4-40.9.2-.1.4-.4 1-1.7z" fill="#fff"/>
  <path d="M177.1 389.1c.3 2.4.6 4.9 1 8.2-5-5.5-6.7-3.6-6.1 2.8-1.6-1.5-2.6-2.5-4.3-4.1v10.2c-2.5-4.7-6.1-3.7-10.4-4-10.4-.7-21.8.2-30.1-8.4-1.5-1.5-2.6-3.3-3.3-4 4.9-5.4 9.4-10.5 14-15.4 2.1-2.3 4.3-2.7 6.9-.2 5.9 5.8 13.6 5.5 21 5.3 7.5-.2 15.3 3.7 17.7 9.9.6 1.4.3 3.1-.7 5-1.5-2.1-2.9-4.2-4.4-6.3-.4.3-.9.6-1.3 1zM324.9 355.3c-.9 1-1.5 2.2-2.6 2.8-4.7 2.7-7.2 5.9-3.7 11.3.3.4.4 1 .5 1.5 1.2 8.4 5 14.6 13.6 17.3 2.2.7 6.5 1.2 4.9 5-1.1 2.6-4.1 5.7-6.7 6.1-7.3 1.2-14.5-.3-20.7-4.7-3.7-2.6-3.3-7.8 1-14.1 3.6-5.3 3.2-10-1.2-14.7-2-2.1-4.1-4.2-6.1-6.4-5.3-5.7-5-19.5.8-24.7 1.6-1.4 4-1.9 6.9-3.2-1.2 5.5-8.3 6.9-5.8 12.3 4.4-2 8.2-3.7 12-5.5.4.7.9 1.4 1.3 2.1-1.9 1.5-4 2.7-5.7 4.4-1.3 1.3-2 3-3 4.6 1.7-.2 3.5-.3 5.1-.7 1.8-.4 3.6-1.2 5.4-1.8.3.7.5 1.3.8 2-1.8 1.1-3.7 1.9-5.2 3.3-1.1 1-1.7 2.7-2.5 4.1 1.6 0 3.2.2 4.7-.1 1.8-.4 3.4-1.4 5.2-2.2.3.4.6.9 1 1.3zM102 392.6c1.2 3.2 2.3 6.4 3.8 9.5.7 1.5 2.2 2.6 3.3 3.9 1.2-1.2 2.5-2.4 3.6-3.6.6-.7 1-1.5 1.5-2.3 4.3-6.6 6.7-6.4 10.5.8 1.8 3.3 3.6 6.5 5.9 10.7 5.4-8.1 10.6-1.9 15.1.1 1.7.7 1.4 6.3 2.1 10-14.4 1.2-27.5.5-40-5.6-2.7-1.3-5.8-2.1-8.8-2.9-3.5-.9-4.1-3.1-3.1-6.2 1.5-4.6 3.1-9.2 4.6-13.8.6-.3 1.1-.4 1.5-.6zM455.6 397.5c-.3-3.4-1.6-7.1-.7-10.1 1.5-4.7 4-9.3 7.1-13.2 2-2.5 5.7-4.2 9.1-1.5 3.2 2.6 6.6 6.1 5 10.4-2.2 5.8-5.7 11.1-8.7 16.7-.3.6-.7 1.5-1.3 1.7-2.9 1.2-5.9 2.3-8.9 3.4-.8-2.4-1.7-4.8-2.5-7.2.3 0 .6-.1.9-.2zM455.1 418.3c-6-.3-6.8 11.2-15.6 3.3 5-2.7 9.3-6.5 14.2-7.2 2.8-.4 6.3 4 9.4 6.4 2 1.6 3.9 3.4 5.7 4.9-2.5 3-4.4 5.6-6.6 8-.6.7-2.3 1.1-3 .8-3.1-1.5-6.3-3-8.7-5.3-.9-.9-.2-4.1.6-5.9.8-1.8 2.6-3.3 4-5zM407.1 448.5c3.2-4.4 5.3-8.1 8.2-10.8 1.3-1.2 4.7-1.4 6.4-.6 2.8 1.4 6.1 3.6 7.1 6.2.6 1.6-2.7 4.7-4.2 7.2-.9 1.5-1.8 3.1-3 5.1-4.8-2.2-9.2-4.4-14.5-7.1zM391.3 437.6c3-3.5 5.4-6.8 8.3-9.7 4-3.9 6.7 1 10 2 1.4.4 2.5 2 4 3.3-2.3 3.3-4.5 6.7-6.9 10-1.8 2.4-3.9 3.6-6.7.8-2.5-2.3-5.5-4-8.7-6.4zM436.2 442.4c1-1.6 1.3-2.3 1.7-2.9 6.3-10.2 10.6-10.7 18.8-2.2.3.3.7.6.7.8-.2 1.1-.3 2.6-1 3.3-2.7 2.6-5.6 6.9-8.3 6.8-3.9 0-7.6-3.5-11.9-5.8zM145.9 462.3c-1.7-6.9 0-10.5 7.1-10.2.8 0 1.6-1.4 2.6-1.8 1.8-.8 4.2-2.4 5.4-1.8 3.6 1.9 4.7 5.6 3.4 9.4-.5 1.4-2.5 2.8-4 3.1-4.8.7-9.6.9-14.5 1.3zM378.2 450.2c-4.8-2.9-8.8-5.3-12.9-7.9 3.2-4.4 6.1-8.4 9.1-12.4 3.5 3.1 8.4 5.6 9.1 8.9.5 3.3-3.3 7.4-5.3 11.4zM448 453.1c-5.5 6.4-13.4 8.8-19.9 6.5-.8-.3-2.1-1.3-2-1.5.9-2.6 1.7-5.5 3.4-7.5 1.5-1.8 4.6-4 6.2-3.5 4.3 1.1 8 3.7 12.3 6zM361.1 440.5c-1.2-.8-1.9-1.2-2.4-1.7-6.3-5.8-6.1-11.1.7-16.4 1.9-1.5 8.4.3 10.4 3.2 1.6 2.5 1 4.6-1.7 6.3-1.4.9-2.1 2.9-3.2 4.3-1.2 1.3-2.4 2.6-3.8 4.3zM441.7 428.3c-1.1 1.6-1.9 2.6-2.6 3.7-6.1 8.7-8.6 9-15.8 1.5-.8-.8-.9-3.1-.4-4.3 1.9-5 8.4-7.3 13-4.7 1.9 1 3.6 2.4 5.8 3.8zM388.9 442c4 2.4 8.1 4.9 12.7 7.8-2.4 3.4-4.6 6.6-7.1 10.2-3.7-2.1-7.7-3.9-11-6.4-.9-.7-.6-4 .1-5.6.9-2.1 3-3.6 5.3-6zM448.1 457.9c2.8-1 5.5-2.1 8.1-3.1-.5-1.2-2.3-3.5-1.7-4.4 1.8-3.2 3.9-7.4 7-8.6 2.4-.9 6.4 2 9.6 3.4.2.1.1 2.1-.4 2.4-6.4 4.2-12.8 8.3-19.4 12.3-.6.4-1.7-.2-2.6-.3-.2-.5-.4-1.1-.6-1.7zM134 463.6c-4.3-4.6-9.2-.7-13.8-.9-1.7-.1-3.3 1-5.7 1.8-.6-1.8-1.2-3.6-1.8-5.3 1.6-.4 3.1-1 4.7-1.2 6.1-.6 12.2-1 18.3-1.7 1.6-.2 3.2-.9 6.3-1.8-.8 3.4-.9 6.5-2.3 8.7-.6.9-3.9.2-5.9.2.1 0 .2.2.2.2zM397.5 403c3.1 2.9 5.5 4.6 7.4 6.8 1.4 1.6 4.5 3.4 1.2 6.1-2.4 2-4.4 5.1-8.1 2-.6-.5-1.3-.7-1.8-1.3-1.9-1.9-5.7-4.8-5.3-5.8 1.3-2.9 4.2-5.2 6.6-7.8zM480.2 436.4c-3.1 3.1-6 7.1-7 6.7-3.2-1.4-7.2-4-8.1-7-.6-1.8 3.9-5.2 6.1-7.9 2.7 2.4 5.3 4.8 9 8.2zM358.6 444.3c-2.1 2.1-4.1 5.7-6.4 5.8-2.9.2-6-2.3-9-3.6 1.7-2.9 3-7.7 5.2-8.2 2.8-.6 6.4 2.3 9.6 3.7.3.8.5 1.5.6 2.3zM366.7 414.9c2.7-3.9 4.5-6.6 6.7-9.9 2.9 2.3 5.9 4.4 8.6 6.8.7.6 1 2.7.5 3.4-.9 1.2-2.6 2.7-3.8 2.6-3.8-.5-7.5-1.7-12-2.9zM377.5 424.6c6.6.7 11.9 1.2 17.3 1.8.3.6.6 1.1.9 1.7-2.9 2.2-5.9 6.3-8.7 6.2-4.1-.3-7.8-3.8-9.5-9.7zM426.8 419.6c-7.2.5-13.2.9-19.9 1.4 4.2-8.7 12.5-9.4 19.9-1.4zM314.2 265.1c.4 5.3.6 9.5.9 13.8-1.3.3-3 1-4.7 1-1.6 0-4-.2-4.7-1.2-.7-1.1-.5-3.7.4-4.9 2.1-2.8 4.8-5.2 8.1-8.7zM361.2 444.8c4.4 3 8.6 5.8 12.9 8.6 0 .4-.1.9-.1 1.3-1.7.2-3.4.8-5.1.5-2.5-.4-5-1.5-7.5-1.9-3.7-.5-4.7-1.5-1.9-4.6.9-1 1.2-2.6 1.7-3.9zM399.1 458.6c3.3-4.6 5.6-8.4 10.9-4 2 1.6 4.9 2.1 7.3 4-5.6 2.5-11.4.1-18.2 0zM359.6 402.6c3.3.5 6.5 1 9.8 1.6-3.3 2.5-2.4 9.7-8.6 8.3-6.5-1.5.2-6.1-2.1-8.8.4-.4.6-.7.9-1.1zM418.9 335.1c1.1-1.8 1.8-3.5 3-4.7.8-.7 3.3-1.2 3.6-.8 1.7 2.7 3.1 5.7 4.4 8.7.2.4-.4 1.7-.8 1.8-.9.2-2 .2-2.8-.3-2.4-1.4-4.6-2.9-7.4-4.7zM415.2 303c-2 4.5-3.8 8.5-5.6 12.4-4.3-10.6-2-13.1 5.6-12.4zM156.6 333.7c-4.3-2.1-8.9-4.3-13.5-6.5 0-.4 0-.7.1-1.1 4.1-.3 8.2-.6 12.4-.7.3 0 .9 1.8 1 2.9.1 1.9 0 3.8 0 5.4zM441.7 211.4c1.4 2.5 2.9 4.9 3.9 7.6.2.5-2.7 3-3.3 2.7-2-.9-4.6-2.3-5.2-4.2-.5-1.5 1.4-3.8 2.2-5.8.7-.1 1.6-.2 2.4-.3zM436.4 353.5c-3 .3-6 .8-9 .7-.7 0-2.1-3.2-1.9-3.4 1.7-1.3 3.8-3.3 5.4-3 2.2.4 4 2.6 6 4.1-.2.6-.3 1.1-.5 1.6zM435.4 213.8c-4.8-4.9-2.7-8.7-.8-11 2.2-2.7 5.7-2.3 8.5 1.8-2.4-.3-4-.5-5.2-.6-.7 2.9-1.4 5.7-2.5 9.8z" fill="#fff"/>
  <path d="M160 403.8c1.6 2 3.1 3.1 3.1 4.1-.2 5.5-.8 11-1.3 16.5-.6 0-1.2-.1-1.8-.1v-20.5zM478.4 215.7c-.8 4.1-1.4 7-5.2 4.8-1.5-.8-4-3-3.7-3.6 2.2-5.4 5.4.5 8.9-1.2zM380.5 404.9c4.8-.8 8.8-1.6 13.6-2.4-7.3 8.1-7.4 8.1-13.6 2.4zM465.9 215.4c-.8-.9-2.1-1.8-2.3-2.9-.3-2.1 0-4.2 0-6.3 1.2.5 3.1.9 3.3 1.7.5 2 .3 4.3.3 6.5.1.2-.7.6-1.3 1zM439 367.4c-3.3-2.3-6.5-4.6-10.5-7.4 6.2-2.5 6.4-2.3 10.5 7.4zM446.5 205.3l4.8 6.9c-.8.6-1.6 1.1-2.4 1.7-1.7-2.3-5.5-3.1-4.3-7.5.7-.4 1.3-.8 1.9-1.1zM189.3 389.2c.3-.5.9-1.5 1.7-2.8 2.4 3.8 4.6 7.3 6.7 10.7-.4.3-.8.5-1.2.8-2.3-2.8-4.6-5.5-7.2-8.7zM131.2 428.7c-.7.1-1.3.2-2 .3.2-.4.4-.7.6-1.1l1.2.9c0 .1.2-.1.2-.1zM106.8 389.6c-.4.7-.7 1.4-1.1 2.1-.3-.2-.6-.4-.8-.7.7-.4 1.4-.9 2.1-1.3l-.2-.1zM134.6 430.7c-.6.4-1.3.8-1.9 1.2-.2-.5-.4-1.1-.6-1.6l-.1.1c.8.1 1.7.2 2.6.3z" fill="#fff"/>
  <path d="M132.7 431.8c-.7.1-1.5.2-2.2.2 0-.2 0-.4.1-.7.7.3 1.4.4 2.1.5 0 .1 0 0 0 0zM134.6 430.7c.1.6.2 1.1 0 0 0 1.1 0 .5 0 0zM105.8 385.2c.2.2.3.4.5.6l-.9.3c-.1 0-.2-.2-.4-.3.3-.3.6-.4.8-.6zM106.9 389.7v-.4c.4-.7.1-.2-.2.3.1 0 .2.1.2.1zM110.4 451.7c-.3.1-.6.3-1 .4-.1 0-.2-.3-.3-.4.3-.1.6-.3.9-.4.1 0 .3.2.4.4zM132.2 429.2c.1-.2.2-.4.4-.6 0 .1 0 .3-.1.3-.1.1-.3.1-.4.1l.1.2zM132 429c0 .4 0 .9-.1 1.3l.1-.1-.9-1.5-.1.2c.4.1.8.2 1.1.3.1 0-.1-.2-.1-.2zM104.3 389c-.1.1-.3.3-.4.3-.1 0-.2-.2-.3-.3.1-.1.3-.3.4-.3.1 0 .2.2.3.3zM111.9 454.1c-.1-.1-.2-.1-.3-.2.1-.2.2-.3.3-.5.1.1.3.2.3.3 0 .2-.2.3-.3.4zM134 463.6l-.2-.2.2.2zM107.3 452.6l.1.3h-.3z" fill="#fff"/>
  <path d="M178.1 242.7c-4.1 2.3-7.9 5.6-12.3 6.8-6.3 1.6-13 1.9-19.6 2.1-2.4.1-4.8-2-7.4-2.7-3.2-1-6.5-1.6-11.3-2.7 3.1-3 5.3-5.2 7.5-7.4l1.2.9c-.2 1.1-.4 2.2-.7 4.5 6-1.1 11.4-2.3 16.9-3.2 2.7-.4 5 0 2.6 4.8 3.4-1.7 5.8-2.8 8.1-3.9 1.4-.6 2.8-1.2 4.3-1.7.6 1.6 1.2 3.2 1.9 4.9 2.3-1.4 4.9-2.9 7.5-4.4.4.7.8 1.4 1.3 2zM149.5 273.8h6.6c2-3.2 9.4-6.6.7-11.8h-5.1c-.3-.4-.6-.8-.8-1.2 1-.9 1.9-2.4 3-2.7 4.4-.8 10.2 2.2 11.3 5.9 1.3 4.5-.3 8.7-4.2 10.8-3.3 1.9-7.4 5.4-11.5-1zM175.9 256.3c5.1 4.2 6.1 9 2.2 12.4-1.2 1-4.6 1.1-5.9.2-3.4-2.7-1.8-7.7 3.7-12.6zM135.4 265.3c.8 4.2-1.6 6.1-4.6 6.1-4.5.1-4.2-4.2-4.1-6.8.1-2.1 2.4-5.6 3.9-5.8 4.4-.2 5.3 3.2 4.8 6.5zM161.1 301.5c-5.3 5.3-11.4 4.3-17.4 3.3-.6-.1-1.6-3.7-1-4.4 1.7-2 15.2-1.2 18.4 1.1zM379.5 292.5c-4.1 0-8.4.7-12.3-.2-2.7-.7-4.8-3.7-7.2-5.6 2-1.9 3.8-4.7 6.2-5.5 6.9-2.3 13.9-.5 20.5 1.9 1.7.6 3.8 3.9 3.4 5.3-.5 1.9-3.1 3.6-5.1 4.5-1.5.7-3.6.1-5.4.1-.1-.1-.1-.3-.1-.5zM342.1 257.5c1.1-1.2 2.2-2.9 3.8-3.6 1-.4 3.2.3 4 1.2 1.6 1.9 3.5 4.1 3.8 6.4.3 2-1.3 4.4-2 6.6-2.1-.8-4.9-1-6.2-2.5-1.6-1.9-2.1-4.8-3.4-8.1zM394 261.9c-.8.6-2.5 1.9-4.1 3.2-2.3-3.3-4.8-6.4-6.5-9.9-.3-.7 2.5-3.9 4.2-4.3 2.8-.7 6.5 5.3 6.4 11zM371.3 254.5c-1.9 1.8-3.8 3.7-6.7 6.4 2 .6 3.6 1.6 5.1 1.5 1.7-.1 3.4-1 5.3-1-2.2 4.7-5.4 7.6-10.4 5-1.9-1-4.5-4.4-4.1-5.8 1.4-4.4 5.2-6.8 9.7-7.4.3.3.7.8 1.1 1.3zM395.9 240.3c-1.2 4-3.8 4.4-6.3 2.3-2.9-2.4-5.7-2.5-9-1.5-.8.3-2-.5-2.9-.8.4-.8.7-1.9 1.3-2.5 4.3-3.9 9.7-3.1 16.9 2.5zM335.8 246.1c1.1-5.1 5.4-6.5 10.6-6 1.3.1 2.5 1.8 3.8 2.8-1.4.9-2.8 2.3-4.4 2.6-3.1.5-6.4.4-10 .6z"/>
  <path d="M555.7 51.1v-7.9c3.8 1.3 6.9 2.4 10.1 3.5 0 .8-.1 1.6-.1 2.4-3.3.6-6.4 1.2-10 2z" fill="#fff"/>
  <text transform="translate(337.91 62.039)"><tspan x="0" y="0" font-family="Peanuts" font-size="35">IS THIS YOUR</tspan><tspan x="0" y="42" font-family="Peanuts" font-size="35">LETTER TO</tspan><tspan x="0" y="84" font-family="Peanuts" font-size="35">SANTA CLAUS?</tspan></text>
  <text transform="translate(38.538 62.949)" fill="#fff" font-family="BaskervilleT-Bold" font-size="35" letter-spacing="4">PEANUTS</text>
  <text transform="rotate(-90 508.07 -53.557)" fill="#010101" font-family="BaskervilleT-Bold" font-size="12">Copr 1951 by United Feature Syndicate, Inc.</text>
</svg>
