<svg xmlns="http://www.w3.org/2000/svg" viewBox="0 0 595.3 471.2" xml:space="preserve">
  <path fill="#fff" d="M0 0h595.3v471.2H0z"/>
  <path d="M595.3 465.7v1.1c-2.5.3-4.9 1-7.4 1-17.7-.2-35.3-.8-53-.8-15.1 0-30.2.6-45.3.7-12.8.1-25.7-.2-38.5-.2-18.2-.1-36.3.1-54.5-.2-17-.3-34-1.6-51.1-1.8-16.7-.2-33.4.5-50.1.4-26.2-.2-52.5-1-78.7-1.1-16.9-.1-33.8.8-50.7.8-14 0-28-.9-42.1-1-27.6-.2-55.3 0-82.9 0-10.4 0-20.9 0-31.3-.1-4.5 0-7.5-1.1-7.4-6.8.3-22.8 0-45.7.1-68.5.1-29.4.4-58.8.4-88.1 0-28.1-.4-56.2-.4-84.3 0-15 .8-29.9.8-44.9 0-17.3-.7-34.6-.7-52 0-17.3.7-34.6.8-51.9 0-9.2-1-18.4-.8-27.6.2-11.1 1.1-22.2 2.1-33.3.1-1 2.6-2.6 4-2.6 27.7-.1 55.3-.1 83-.1 29.1 0 58.2-.4 87.2-.2 38.9.2 77.9.9 116.8 1.3 8.5.1 17 .2 25.5 0 20.8-.3 41.6-1.1 62.4-1 15.2.1 30.4 1.3 45.6 1.8 9.2.3 18.4.1 27.7.2 6.2 0 12.4.1 18.5 0 9.7 0 19.4-.2 29.2-.1 9.5 0 19.1.1 28.6.2 10.2 0 20.4-.1 30.5.1 7.5.1 15 .9 22.5.9 6.4 0 6.8.2 6.8 6.6v17.5c-.2 24.5-.5 48.9-.6 73.4 0 14 .5 27.9.5 41.9-.1 15.1-.8 30.3-.8 45.4 0 12.5.8 25 .8 37.5.1 19.9-.3 39.7-.4 59.6 0 12.5.4 24.9.4 37.4-.1 17.8-.6 35.6-.8 53.4-.3 26.6-.6 53.2-.6 79.8.1 1.9 2.5 3.7 3.9 5.6zM554 13.9c-.1.5-.3.9-.4 1.4 3.7 3.6 7.6 7.1 11.2 10.8 9.1 9.2 10.5 21.5 11.3 33.1.6 9.9-5.2 19.1-13.4 25-10.2 7.4-21.2 13.8-33.6 16.7-13.9 3.2-27.9 6.3-42.1 7.5-19.5 1.7-39.2 1.9-58.9 2.4-9.3.2-18.6-.5-27.8-1-11.1-.6-22.2-1.6-33.3-1.9-6.4-.2-12.9.5-19.4 1-1 .1-2.3 1.6-2.6 2.8-1 3.3-1.2 6.9-2.5 10.2-.5 1.3-2.9 2.7-4.3 2.6-6.5-.7-8.3-6-9.6-11.2-1.4-5.4-3.7-6.5-8.9-5.1-4.3 1.1-8.8 1.5-13.3 1.7-2.1.1-4.4-2.1-6.4-1.9-14.5 1.5-28.6-1.6-42.8-3.6-8.5-1.2-16.9-3.7-25-6.6-16.1-5.9-32.1-12-41.7-28.2-4.2-7.1-4.1-14.2-1.9-20.9 4.4-13.9 14.3-23.4 27.2-30 3.4-1.7 6.5-4.2 10.9-7H10.1C9.7 14.2 9 17 9 19.8c-.1 19.4 0 38.9-.1 58.3-.1 18.2-.3 36.4-.3 54.5 0 24.8.3 49.6.3 74.4 0 24.2 0 48.4-.2 72.6-.1 14.1-.8 28.1-.8 42.2.1 17.3.8 34.6 1 51.9.1 12-.3 24-.4 36-.4 14.6-.5 29.3-.3 44.1 0 1.4 2.1 3.1 3.7 4.1 1 .6 2.7 0 4.1 0 34 0 68.1.1 102.1.2 2.2 0 4.3.7 6.5 1.1 60.2-2.1 120.5.7 180.7-.1.3 1.2.5 2.3.5 2.3 2.8-.8 5-2 7.4-2.1 5.9-.3 11.8-.2 17.6-.1 14.3.3 28.5.8 42.8 1 8.7.1 17.4-.5 26.1-.4 18.3.2 36.7.7 55 .9 17.3.2 34.7.2 52 .3 7.2 0 14.5.3 21.7.3 9 .1 18 .1 27 .1 8.9 0 17.9.1 26.8-.1 1 0 2.9-1.7 2.9-2.7.3-13.3.2-26.7.4-40 .2-14 .9-27.9 1-41.9 0-9.3-1-18.6-.9-27.9.2-23.1.8-46.2 1-69.3.1-9.3-.8-18.5-.8-27.8 0-13.7.7-27.4.7-41 0-10.4-.9-20.8-.8-31.3.1-18.5.7-37 .9-55.5.2-20.5.1-41.1.1-61.7 0-14.5-.2-28.9.1-43.4.1-4.8-1.7-6.1-6.1-5.7-5.8.5-11.7.6-17.5.8-3.2.1-6.2 0-9.2 0zM336.4 118.5l1.5-.3c.5-1.8.8-3.8 1.5-5.5 3.8-9.5 3-10.9 13.3-10.6 10.6.3 21.3.1 31.9.2 18.9.3 37.8.7 56.7.9 10.5.1 21 .3 31.4-.2 10.6-.6 21.1-1.6 31.6-3.1 8.8-1.3 17.7-2.9 26.1-5.6 7.7-2.4 15-6.3 22.3-9.8 13.6-6.5 19-18.1 16.3-32.8-1.6-8.9-5.7-16.7-11.3-23.3-4.8-5.7-11-10.9-17.6-14.3-4.9-2.5-11.4-1.3-17.4-.3-6.8 1.1-14.1-.4-21.1-.8-4.5-.2-9.1-.5-13.6-.6-5.4-.1-10.8 0-16.2-.1-3.3 0-6.5-.2-9.8-.1-12.7.2-25.5.9-38.2.7-15.2-.2-30.5-1.4-45.7-1.5-11.7-.1-23.4 1.1-35.1 1.2-6.8.1-13.7-1.3-20.5-1.3-6.2 0-12.5 1.4-18.7 1.4-7.9 0-15.8-1-23.7-1.2-8.8-.2-17.7-.1-26.5 0-6.2.1-12.9-1.1-18.4 1-14.1 5.3-26.3 13.8-35.7 25.9-7.5 9.8-8.2 24.5-1.4 32.6 7.7 9 18.1 14.3 29 17.8 12.7 4.1 25.8 6.8 38.9 9.6 6.3 1.4 12.9 2.3 19.4 2.6 13.6.7 27.3.9 41 1.2 6.5.1 7.5 1.2 8.1 7.7.1 2.9 1.2 5.7 1.9 8.6z"/>
  <path d="M595.3 465.7c-1.3-1.8-3.8-3.7-3.8-5.5 0-26.6.3-53.2.6-79.8.2-17.8.7-35.6.8-53.4.1-12.5-.4-24.9-.4-37.4 0-19.9.4-39.7.4-59.6 0-12.5-.9-25-.8-37.5 0-15.1.8-30.3.8-45.4.1-14-.5-27.9-.5-41.9.1-24.5.4-48.9.6-73.4.1-5.8 0-11.7 0-17.5 0-6.5-.4-6.6-6.8-6.6-7.5 0-15-.8-22.5-.9-10.2-.2-20.4 0-30.5-.1-9.5 0-19.1-.2-28.6-.2-9.7 0-19.4.1-29.2.1h-18.5c-9.2 0-18.5.1-27.7-.2-15.2-.5-30.4-1.7-45.6-1.8-20.8-.1-41.6.7-62.4 1-8.5.1-17 .1-25.5 0-38.9-.4-77.9-1.1-116.8-1.3-29.2-.3-58.3.1-87.3.1-27.7 0-55.3 0-83 .1-1.4 0-3.9 1.6-4 2.6-1 11.1-1.9 22.2-2.1 33.3-.2 9.2.8 18.4.8 27.6-.1 17.3-.8 34.6-.8 51.9 0 17.3.7 34.6.7 52 0 15-.8 29.9-.8 44.9 0 28.1.4 56.2.4 84.3 0 29.4-.3 58.8-.4 88.1-.1 22.8.1 45.7-.1 68.5-.1 5.7 3 6.8 7.4 6.8 10.4.1 20.9.1 31.3.1 27.6 0 55.3-.1 82.9 0 14 .1 28.1 1 42.1 1 16.9 0 33.8-.9 50.7-.8 26.2.1 52.5.9 78.7 1.1 16.7.1 33.4-.6 50.1-.4 17 .2 34 1.5 51.1 1.8 18.2.4 36.3.2 54.5.2 12.8.1 25.7.3 38.5.2 15.1-.1 30.2-.8 45.3-.7 17.7 0 35.3.6 53 .8 2.5 0 4.9-.6 7.4-1v4.4H0V0h595.3v465.7z" fill="#fff"/>
  <path d="M382.6 291.4c-3.9-6.5-3.8-7.5 1.6-9.8-1-2.4-2.2-4.8-3-7.3-2.8-8-6.6-10.1-14.9-8.2-8.5 2-22.7-3.1-27.3-10.1-1.6-2.4-2.8-5.6.1-7.6 1.7-1.2 4.6-1.2 6.8-1.1 3.2.2 6.3 1.2 9.9 1.9-.5-5.5-4.7-7.1-8.5-8.5-7.2-2.6-14.5-4.7-21.8-7-3.8-1.2-4.2-3.7-3.4-7.3.4-1.7-.2-4.6-1.3-5.4-3.8-2.4-4.8-5.4-2.2-8.6 1.7-2.1 4.9-4.3 7.3-4.1 3.6.3 4.2-1.1 3.3-3.5-2.8-6.9-6-13.6-9.1-20.3-.4-.8-1.2-1.8-2.1-2.1-5.2-1.6-10.9-2.3-15.7-4.7-6.1-3.1-9.1-9.7-8.8-15.9.2-3.8 4.1-9.4 7.7-10.9 7.6-3.1 16-5 24.2-5.7 14.2-1.3 25.8-7.7 37.3-15.2 9.2-6.1 18.2-12.5 29.2-15.1 9.8-2.3 19.6-1.3 29.4-.4 12.6 1.2 23.1 7.7 31.7 15.7 13 12.1 22.9 26.3 25 45.2 1.4 12.7.2 24.7-3.4 36.7-2.9 9.5-4.3 11.6-16.6 22-.6-1.2-1.2-2.3-2.1-4.2-1.2 1.7-1.9 3.1-2.9 4.2-2.8 2.9-3.8 7.4-9.8 7.1-3.1-.1-6.3 3.7-9.6 5.4-2.1 1.1-5.2 3.8-5.1-3.3-4.4 6.9-14.1 6.7-14.4 15.8.5-.1 1.1-.3 1.6-.4 1 2.1 3.5 4.9 2.9 6.3-3.2 6.8.3 12.1 3 17.5 9.8 19.4 19.9 38.7 29.9 58h1.6c.4-1.1 1.2-2.3 1.2-3.4-.2-2.4-1.4-4.9-1.1-7.3.6-5.1 1.3-10.8 9.2-8.3.7.2 2.3-1.2 3.1-2.2 6-6.9 12.3-5.8 15.6 3 2.6 6.9 2.9 13.9.3 20.9-2.1 5.8-4 11.7-6 17.7 6.8 4.4 10.7 3.2 13.4-4.7.6-1.8 1.8-3.5 3-5.8 6 9.7-2.5 18.4-18.8 19.8 7.5 9.5 9.8 19.7 4.4 31.2H521c2.1 7.2 7.5 3.7 11.5 4.3 1.3.2 2.8-.6 4.2-.7 2.9-.3 5.7-.2 4.1 3.9 3.7.2 6.9.4 10.2.6.1.7.1 1.4.2 2.1-1.2.3-2.4 1-3.5 1-13.7.1-27.5.2-41.2 0-12.4-.2-24.8-.9-37.2-1-8.8 0-17.6 1-26.4.9-11-.2-22-1.2-33-1.6-6.3-.2-12.6.2-18.8.1-1.8 0-3.5-1.1-5.5-1.8-1.1 2.4-2.1 4.9-3.2 7.2-4 8.1-8.9 9.8-16.5 5.1-4-2.5-7.5-6-11.3-8.8-1.5-1.1-3.5-2.2-5.3-2.3-9.5-.6-19-1.1-28.5-1.2-6.8-.1-13.7.4-20.6.5-2.2 0-6.2 2.2-4.6-3.3-1.2-.3-2.4-.8-3.5-.7-7.3.3-15.3 2.8-21.8.7-9.8-3.2-19.5.4-29.2-2.1.3-1 .5-1.9.6-2.3-13.5-.9-27.1-1.9-41.7-2.9 2.1-.6 3.4-.9 4.7-1.3 0-.3 0-.7-.1-1-7.5.6-15.1 1.2-22.6 1.9-.1-.7-.1-1.4-.2-2.1 6.8-.7 13.6-1.7 20.5-2.1 8.7-.5 17.5-.5 26.2-.8 5.9-.2 11.7-.9 17.6-.7 5.7.2 11.4 1.8 17.1 2 7.7.1 15.4-.6 23-.9 7.1-.3 14.2-.5 21.2-1 3.4-.2 6.7-1 10.5-1.5-.2 1.9-.3 3.1-.5 4.7 6.1-.7 12.4-3.6 18 1.5-4.7-6.6-10.3-12.7-14-19.8-4.6-9-8.4-18.5-10.8-28.3-1.1-4.3-.5-10.5 5-13.9 4.6-2.8 11.9-2.4 13.5 2.4 2.9 8.5 10.2 11.6 16.3 16.4 2.1 1.6 3.5 4.1 5.6 5.8 1.9 1.6 4.4 3.4 5.4-1.1.3-1.3 1-2.7 1.8-3.8 3.5-4.7 2.9-8.6-2.1-12.1-3.7-2.6-7.5-5-11-7.7-2.6-2-4.6-4.2-8.6-2.5-1.3.6-5.1-1.8-6.1-3.6-2.2-4.2-4.4-6.3-9.5-5.3-1.8.3-4.6-1.4-6.2-3-9.6-9.5-15.5-21.2-20-33.9-4-11.4-9.1-22.4-13.3-33.7-3.2-8.7-6.4-17.8-4.6-27 1.3-6.7 3.3-14.4 12.2-17.6.2 3.3.4 6.1.7 10 3.4-2.7 6.3-5 9.4-7.4.5.4 1.4.7 1.6 1.2 3.5 10.3 6.9 20.6 10.5 30.8 5.3 14.9 10.8 29.8 16.5 44.6.6 1.5 3.1 3.5 4.4 3.3 6.4-1.2 11.3 2.2 16.7 4.4 6.1 2.5 11.9 5.6 18.1 7.9 2 .7 4.9 0 6.9-1 2.3-1.1 5.8-2.1 3.6-6.5-.7-.3 2.9-2.9 5.2-5zm7-10.3c4.8-4.3 8.2-9.2 12.9-11.3 6.3-2.8 6.2-7.8 7-12.7.6-3.5.4-7-5.2-4.7-3 1.2-6.5 1.4-9.9 2.1-.9-1.3-1.8-2.6-2.7-3.7-2.1.7-3.9 1.5-5.8 1.8-1.1.2-2.4-.4-3.5-.6.6-1.2.8-3.1 1.7-3.5 5.9-2.5 11.8-6.1 18.6-4.5 7.4 1.8 13.3-.6 18.6-5.3 8.2 4.9 10-5 16.5-6.7.2 2.1.4 4.3.7 7.2 5.8-5.4 11.3-10.6 16.8-15.7.5.4 1 .7 1.4 1.1-.2 1.6-.5 3.2-.9 5.8 6.5-3.1 9.9-7.6 12-13.3 6-16.8 5.2-33.5.4-50.5-3.5-12.5-11.6-21.9-19.8-31.1-8.2-9.2-19.9-13.5-31.8-15.1-7.9-1-16.2.7-24.3 1.7-3.4.4-6.8 1.8-9.8 3.5-9 5-17.6 10.6-26.7 15.4-6.7 3.6-13.7 7.3-21 9.1-9.2 2.2-18.9 2.4-28.4 3.8-4.9.8-7.4 8.1-4.6 12.2 3.9 5.7 9.2 9.1 16.5 9.5.3-4.4-.5-8.4 4.8-11.3 3.4-1.9 4.5-8 10.4-8.2-2 3.1-3.9 5.9-5.7 8.7-2.9 4.6-2.2 6 4.4 7.4-1.1-2.9-5.2-6.1.2-8 4.9 3.6 9.8 7.3 14.7 10.9-.4-2.9-.7-5-1-7.1 2 .4 4.2.4 6.1 1.3 3.3 1.5 6.4 3.5 9.2 5.1l5.4-14.1c.7.1 1.3.1 2 .2.2 1.2 1 2.6.6 3.6-2.3 5.5-2 10.2 4.4 13.2-3.9 2.9-2.5 5.2.1 7.3 7.3 6 11.5 14.2 15 22.7 2.6 6.4 2.6 12.7-2.2 18.9-2.7 3.5-4.2 8.2-5.4 12.6-1.1 3.8-1 7.9-1.5 11.8-2.3-1.2-3.4-2.5-4-4.1-2.9-7.6 0-13.9 4.7-19.9 3.8-4.8 5.6-10.3 2.8-16-2.3-4.8-5.8-9-8.8-13.4-3.2-4.7-6.6-9.2-9.8-13.9-1.4-2-3.1-3.7-5-1.5-3.5 4.2-7.2 2.8-11.3 1.4-2.8-.9-5.7-1.3-9.1-2 5 9.2 9.3 17.1 13.5 24.9-3.8.7-16.5-10.7-21.6-20.3 1.3-.6 2.6-1.3 5.6-2.7-4.2-1.8-7-3.1-9.8-4.3-.4.5-.7.9-1.1 1.4.5 2 .9 4.1 1.6 6.1 1.4 3.8 3.1 7.6 4.6 11.4 1.2 3 2.3 5.8 6.5 4.1.7-.3 2 .3 2.6.9 2.5 2.6 4.6 5.6 7.2 7.9 3.6 3.2 3.9 3.8 1.5 7.1-3.8-.3-6.9-.6-10.4-1-.9-1.9-2-4.3-3.4-7.4-2.9 5.8-6.8 6.1-11.3 2.6-.6 1.2-1.5 2.6-1.4 2.7 2.4 1.8 4.9 3.5 7.3 5.2-.2.9-.2 1.5-.5 1.9-3.4 7-3.5 7.2 4.4 9.4 8.6 2.4 17.4 4.1 24.3 10.6 2.4 2.3 4.7 3.9 2.6 7.5-1.8 3-3.5 6-8.1 4.1-1.8-.8-4-.6-7.5-1 7 5.4 13.1 9.1 21 7.7 9.7-1.7 15.5 1.8 18.7 10.8 1.1 2.9 2.4 6 4 10.3zm-58.8 25.7c-2.9 3.1-4.9 5.3-6.9 7.5.2.3.3.6.5 1 3-.6 5.9-1.3 10-2.2-2.5 3.5-3.9 5.6-5.7 8.1 7.4.7 7.4.7 6.4 7.4 1.7-.5 3-1.1 4.4-1.3 1.2-.2 2.7-.6 3.6-.1 9.2 5.3 18.3 11.1 27.6 16.2 3.9 2.1 8 1.5 11.7-1.8 4.5-4.1 9.3-7.8 13-10.9 3.6 1 5.9 1.7 8.2 2.3-.5.4-1 .7-1.6 1.1-6.2-6.7-12.4-13.4-18.8-20.3.2-.2-.4.4-1.1 1-5 4.7-11.6 5.8-18.1 2.6-4.6-2.3-9-4.9-13.1-7.9-9-6.6-18.7-6.8-28.8-5-.1.5-.2 1-.2 1.6 2.3.2 4.7.4 8.9.7zm-12.3 10.8c0-2.6.8-5.3-.1-6.1-2.7-2.5-1.6-4.6-.5-7.2.7-1.6.7-4.1 0-5.7-4.6-10-8.9-20.2-14.5-29.6-7.2-12-10.9-25-14.5-38.3-1.3-4.8-2.6-9.6-4-14.8-6.9 10.6-3.7 20.7-.5 30.5 4.7 14.2 10.3 28.1 15.6 42.1 3.9 10.6 9.1 20.6 18.5 29.1zm5.9-20.5.9-.3c-9.6-25.7-19.2-51.3-29.5-79-1.6 3.6-3.4 5.9-3.5 8.2 0 3.1 1 6.3 2.1 9.3 5 14 10.6 27.6 18.5 40.3 4.3 6.9 7.7 14.3 11.5 21.5zm62.5 100.4c2.4-2.8 4.1-4 4.6-5.5.8-2.4 1.9-5.9.8-7.4-5.3-7.3-11.3-14.1-17.1-21.1-3.4 3.5-5.4 7-3 11.7 1.5 3 2.6 6.3 4.4 9 3.2 4.5 6.8 8.7 10.3 13.3zm83.3-38.3c2.3-5.1 5.4-9.6 6.2-14.5 1-6.4.7-13.1 0-19.6-.2-1.6-3.9-2.9-6-4.3-1.1 2.1-3.4 4.3-3.1 6.2 1.3 9.8 1.9 19.4-1.8 29.1 1.5.9 2.8 1.9 4.7 3.1zm-88.7-7.2c2.1.4 5.1 1.7 5.8 1 2.4-2.7 4-6.1 5.9-9.2.6-.9 1.2-2.3 2.1-2.5.9-.2 2.5.3 3.1 1 2.6 3.3 5 6.9 7.7 10.7 1.7-1.6 3.1-2.9 5-4.6-5.2-3.8-10.1-7.4-15.1-10.8-.7-.5-2.3.2-3.4.6-7.9 3.1-11.1 10.8-16.3 16.9 1.9 1.7 3.3 3.1 4.8 4.5.4-.3.8-.5 1.2-.8-.3-2.3-.5-4.5-.8-6.8zm76.3 31.4c2.8 3.5 4.6 8.1 10.4 7.8.5 0 1 1.8 1.5 2.8.7 1.5 1.3 3 1.9 4.6 1-1.5 2.6-2.9 2.8-4.5 1.1-7.8-2.8-13.9-7.1-19.7-3.2 3.1-6.1 5.8-9.5 9zM421 368.6c2.7 3.3 4.9 6.3 7.4 9.1.6.7 2.4 1.1 3 .7 2.4-1.6 4.6-3.4 6.7-5.5 2-2 2-3.5-.7-5.6-6.6-5.1-6.4-5.3-13.1-.7-.7.6-1.5 1-3.3 2zm29.6 15.6c-2.2-3.3-3.9-6.2-5.9-8.8-.4-.6-2-.7-2.8-.4-8.7 3.4-9.9 9.1-2.8 15.1 1 .8 3.6.9 4.7.2 2.5-1.7 4.6-4.1 6.8-6.1zm-42.5-6.4c1.3-5 8.6-5.2 6.7-10.6-1.1-3.1-4.6-7.1-7.4-7.4-2.8-.3-6.1 3.4-9.1 5.3 3.4 4.3 6.2 7.9 9.8 12.7zm18.5-67.1c-4-3.4-6.8-7.2-10.3-8.2-1.9-.5-5.2 3.8-7.8 5.9 3.1 3.2 5.8 7.1 9.5 9.3 1 .6 5.1-4 8.6-7zm-9 60.6c-2.8 3.8-6.6 7-6 8.4 1.5 3.5 4.9 6.1 7.6 9.1 2.3-2.1 6.9-5.1 6.5-6.1-1.4-3.7-4.6-6.8-8.1-11.4zm-8.5-42c2-4.1 4.7-7.1 4.2-9.4-.6-2.8-3.6-5.2-6-7.4-3.5-3.3-5 1.6-7.5 2.4-.3.1-.2 3.5.6 4.7 2.2 2.9 4.8 5.4 8.7 9.7zm26.9-4.1c-1.5-2.3-2.8-4.3-4.1-6.2-.9-1.3-2.7-3.7-2.9-3.6-2.4 1.4-5 2.8-6.8 4.9-.7.8-.1 3.6.8 4.9 4.8 6.9 7.5 6.8 13 0zm-32.7 56.9c.3-.5.5-1.1.8-1.6-4.2-3.3-4.1-10.9-10.1-10.9-2.6-3.5-4.5-6.6-7-8.9-.7-.7-3.2.4-6.3.9 4 4.1 7 6.9 9.7 9.8 2.8 3 5.4 6.4 8.3 9.2 1.2 1 3.1 1 4.6 1.5zm15.4-57.4c-2.7 2-5.3 3.9-8.2 6 3.1 3.6 4.6 9.2 10.3 8.8 1.7-.1 4.9-4.2 4.4-5.4-1.3-3.3-4.1-6.1-6.5-9.4zm-21.8-27.8c2.7 2.8 5.2 7.4 7.9 7.5 2.8.1 5.8-4.2 8.7-6.5-7.2-7.9-7.2-7.9-16.6-1zm6.6 57.8c-1.2-1.3-2.7-3.4-4.7-4.8-.9-.7-3.3-1-4-.3-2.3 2.2-4.1 4.9-6 7.5l6.3 6.3c2.7-2.9 5.3-5.6 8.4-8.7zm15.5 10.8c2.3-1.8 4.7-3.6 7.6-5.8-4.5-3.4-8.5-6.5-12.5-9.5-1.5 1.7-2.9 2.9-3.6 4.5-.4.9-.2 2.7.4 3.4 2.5 2.5 5.3 4.8 8.1 7.4zm-68.7 13.4c0-4.5 1.1-9.2-.3-12.9-1.4-3.6-5.5-6.2-8.9-9.8-1.2 8.3 3.9 20.9 9.2 22.7zm79-41.5c-1.5.9-2.9 1.5-4.1 2.4-1.3 1.1-2.4 2.5-3.6 3.8 5.8 7 12.5 8.7 16.7 4.2-3-3.4-6-6.8-9-10.4zm-48.1 69.1c4.1-5.8 3.7-6.3-1.1-10.7-3.5-3.1-6-7.2-9.1-10.8-.6-.7-1.5-1.2-3.2-2.5 2.4 9.9 5.2 18.2 13.4 24zm14-92.1c9.1-7.6 9.1-7.6-1.7-14.9-1.5 2.3-4.6 5-4.2 7 .5 2.8 3.6 5.1 5.9 7.9zm-28.7 36.5c-6.7 4.2-3.9 8.5-2.4 12.5.4.9 2.3 2.2 2.4 2.1 2-2 5.6-4.4 5.3-6.1-.5-3-3.4-5.6-5.3-8.5zm75.8-4.6c3.8-7-1.7-11.3-3.4-16.9-2.2 1.8-4.2 3.4-7 5.5 3.5 3.8 6.8 7.4 10.4 11.4zm-88-41.3c-.3.6-.6 1.3-1 1.9 3.9 2.1 7.8 4.3 11.8 6.4 5.6 2.8 10.5 1.4 14.5-5.8-9.6 4.1-17.8 3.4-25.3-2.5zm5.8 74c-2.9 12.7.4 21.8 7 22.5-2.2-7-4.4-14.2-7-22.5zm87.1 13.6c5.4 1.7 10 3.1 14.5 4.6-4.6-10.2-7.1-11-14.5-4.6zM326 340.1c-.6.2-1.2.4-1.9.7.7 5.3 1.4 10.6 2.2 17.3 2-2.4 5.3-4.8 4.9-6.4-.8-4.1-3.3-7.8-5.2-11.6zm88.7-57.4c-2.5 1.8-4.2 3-5.4 3.8 2.8 3 5.3 5.7 8 8.6 4.8-5.1-1-7.9-2.6-12.4zm-12.1 115.8 1.2-1.5c-2-1.6-4-4.4-6-4.5-1.7 0-3.5 3.2-6.3 6h11.1zM392.9 292c2.3-4.6 4.2-8.4 6.2-12.3-9 4.2-10.6 7.2-6.2 12.3zm13.2 91.7c-.5 1.6-1.5 3.7-1.2 3.9 3.4 2.4 4.6 7.9 11.5 7.6-3.7-4.1-6.5-7.2-10.3-11.5zm41.4-38.5c-3.8 4.7-2.1 7.6 6.6 10.9-2.1-3.4-4.2-6.8-6.6-10.9zm1.2 25.7c-.3.4-.6.9-.9 1.3 2.1 2.7 4.2 5.4 6.7 8.6 1.6-1.8 2.7-3 4.2-4.7-3.8-2-6.9-3.6-10-5.2zm14.2-18.6c.5-4.9 1-9.8 1.5-14.6-.5 0-1.1-.1-1.6-.1-1 4.8-4.5 9.5.1 14.7zm-5.9-15.8c.7.1 1.4.1 2.1.2.4-3 .9-6 1.1-9 0-.4-1.5-1.3-2.3-1.3-.5 0-1.4 1.3-1.4 2.1 0 2.6.3 5.3.5 8z"/>
  <path d="M80 92.4c4.4 2.7 5.4-.9 6.8-4.1 1-2.2 2.5-4.3 3.8-6.4.5.2.9.5 1.4.7-.6 2.6-1.1 5.3-2 9.4 20-18.3 43.1-16.6 65.4-11.2 23.6 5.7 39.8 22 49.5 44.4 5.9-.4 10.9.9 13.6 6.6 1.8 3.9 4 8-.4 11.7-2.6-3.2-5.1-6.6-7.9-9.6-1-1.1-3.2-2.4-4.2-2-5 2-6.5-1.4-7.8-4.7-3.5-9.3-8.4-17.7-15.8-24.5-8.6-7.8-18-14.2-30-15.8-5.9-.8-11.7-3.3-17.5-3.2-7.8.1-15.8 1-23.4 3.1-6.9 1.9-13.3 5.9-19.9 9-.8.4-1.5 1.1-2 1.8-6.6 10.3-15.9 19-19.3 31.2-4.1 15-6.4 30.2-.2 45.4 1.3 3.1 1.5 6.6 2.2 9.9 2.5 11.6 11.4 17.2 20.8 22.3 5.8 3.1 11.7 6.2 17.5 9.3.8.4 2.1 1 2.1 1.4-.3 6.3 4.9 6.8 8.9 8.4 8.7 3.5 17.5 6.8 26.7 10.3.8-2.4 1.5-3.9 1.8-5.6.6-3.7 2.7-4.7 6.4-5.2 6.9-.9 13.6-2.7 20.4-4.4 1.1-.3 2-1.5 3.2-2.4-4.4-5.3-8.6-10.4-13.6-16.4 2.2-1.5 5.5-3.8 8.9-6.1.7.3 1.3.6 2 .9-4.5 7.3 1.9 10.7 4.6 15.4 2 3.5 5.2 4.2 7.7.7 3.6-4.9 7.3-9.8 9.6-15.3 1.7-4.1 3.3-5.7 7.7-5.4 1.5.1 4.1-1.4 4.6-2.8.5-1.5-.4-4.5-1.7-5.3-8-4.9-5.2-12.5-5.4-19.3-.3-7-.4-13.9-.7-20.9-.1-2.7-.3-5.4-.5-8.1.6-.1 1.2-.3 1.8-.4.8 1.4 2.1 2.7 2.4 4.1 2.3 10.8 4.1 21.7 2.5 32.9-.3 2 1.5 5 3.2 6.6 3.1 3 5.2 6.1 4 10.4-1.1 3.9-3.6 6.8-8.1 7.3-3 .3-4.8 1.5-6.1 4.6-4.9 12.2-15 19.1-26.1 25-6 3.2-12.4 4.2-19.1 4.5-.9 0-1.8.8-3.3 1.5 3.8 2.2 8.1 3.3 7 8.7-.8 3.8-1.2 7.7-1.5 11.6-.2 2.4-.2 4.9.4 7.2 3.4 14.6 7.3 29.1 10.3 43.8.7 3.4-1.4 7.3-1.5 10.9-.6 10.3-.8 20.7-1.2 31.1-.1 4.2 1.1 8.5-5.6 9.9-2.7.6-4.2 5.6-8.4 7.1-3 1.1-.1 10.2 3.5 11 6 1.3 12.1 2.3 18.1 3.3 7.9 1.3 11.1 6.1 9.1 13.7h21.4c.1.4.1.8.2 1.2-4.3.5-8.5 1.3-12.8 1.5-6.2.2-12.4-.3-18.6-.1-1.6.1-4.6 2.2-4.5 3 .7 5.9-3.2 8.8-7.4 10.2-5.5 1.9-11.5 2.7-17.3 3.3-5.3.6-10.7.8-15.9.2-5.9-.6-11.8-2-17.6-3.6-6.3-1.7-12.2-4.6-18.5-6.1-4-.9-8.4-.4-12.6-.2-2.5.1-5 .7-7.5.9-8.7.7-17.4 1.3-26.1 2.1-3.4.3-5.3-.2-3.2-4.1-5.8.7-11.8.7-17.2 2.4-4.5 1.4-3.3-1-3.4-3.7-1.8.2-3.5.6-5.3.6-1 0-2-.8-3-1.2.7-.8 1.4-2.3 2.2-2.4 7.7-.9 15.5-1.6 23.2-2.4 8.9-.9 17.9-1.8 26.8-2.5 1.8-.1 4.9-.1 5.3.8 2.2 4.5 5.4 3.3 9 2.9 1.5-.2 3.4.8 4.8 1.8 3.9 2.6 7.7 1.3 9.8-3.1 4.1-8.2 4.8-16.9 4.1-25.7-.5-.3-.8-.5-1.1-.6-14.9-1.8-15-1.8-15.2-16.7 0-2.4.3-4.8-.1-7.1-.4-2-1.1-4.4-2.6-5.7-5.2-5-3.9-11.3-2.5-16.7 2.7-10.7 6.4-21.2 10.1-31.7 3.2-8.9 7.2-17.4 10.3-26.3 2.6-7.6 4.7-15.4 6.6-23.2.5-1.9.1-4.8-1.1-6-2.9-2.9-1.9-5.2 0-7.6 2.2-2.6 1.2-3.8-1.4-5.4-7.8-4.9-16.2-9.3-22.9-15.5-6.6-6.2-12-13.7-15.6-22.8-3.6-9.2-5.8-18.3-4.9-27.9 1.3-13.9 2.8-27.9 10.8-40.1 1-1.6.6-4.1.9-6.2.7-4-1.2-9.4 5.5-10.5 1.2.1 1.8-2.2 2.6-3.8zm52.9 168h2.6c.6 4.2 2.7 8.9 1.5 12.4-2.9 8.4 2.6 12.1 7 16.8 1.9 2 3.6 2.4 4.9-.7.5-1.1 1.5-2 2-3.2 2.1-5.4 5.8-10.8 5.8-16.3 0-7.1-2.9-14.2-4.6-21.3-.3-1.3-1-2.4-1.5-3.7-.8 1.1-1.7 2.2-2.3 3.4-2.5 5.6-7.3 8.5-11 6.1-7.3-4.5-14.7-8.9-21.6-14-3.9-2.9-4.9-1.4-5.8 2.1-1.7 6.8-3.6 13.5-4.9 20.3-1.6 8.6-2.5 17.3-3.9 27 8.4-1.6 15-3.2 21.8-4.2 5.2-.7 10.1-1.2 9.4-8.3-.1-1.3-.3-2.7-.2-4 .2-4.1.5-8.3.8-12.4zm-3.8 30.3c-7.4.8-15.9 1.7-24.3 2.8-1 .1-2.6 2-2.6 3.1.4 14.9 3.8 28.5 16.4 38.8 5.6-3.7 11.2-7.3 16.5-11.2 1-.7 1.4-3 1.1-4.4-2.2-9.7-4.7-19.5-7.1-29.1zm-26.8 102.6c19.7 11.6 40.5 13.4 63 6.9-.9-1.2-1.3-2.4-2-2.6-3.9-1.2-7.9-2.1-11.8-3.4-5-1.7-9.3-1.5-12.9 3.1-.8 1-3.6.5-5.5.6-.1-.6-.3-1.2-.4-1.8 1.8-1.5 3.6-3.1 5.4-4.6-11.9 4.6-23.7 2.7-35.8 1.8zm39.5-78.5c6.8-.6 12.5-1 18.2-1.9 1.7-.3 4.6-2.2 4.5-3-.9-5.7-2.4-11.4-3.7-17h-2.2c-2 3.3-4 6.6-5.9 9.9-2.2 3.9-4.7 5.7-8.8 2-1.7-1.6-4-2.7-6-4-.3.2-.7.5-1 .7 1.7 4.6 3.4 9.2 4.9 13.3zm-52.4-8.3c-2.4 8.2-5.3 16.3-3.4 25.5 4.4-1.6 8.2-2.8 11.9-4.5 1.3-.6 2.7-2 3-3.3 1.6-6.3-4.5-15.7-11.5-17.7zm44.2 59c-7.7.3-15.5 1.1-23.1.8-2.6-.1-4.1 0-3.8 2.5.2 1.7 2 4.3 3.2 4.4 6 .5 12.1-.2 18.1.6 7.2.9 6.4-3.1 5.6-8.3zm-27 19.6c1.7.4 2.9.8 4.1.9 5.3.6 10.7 1.5 16 1.6 2.9 0 6.2-.9 6.1-5.1-.1-4.5-3.3-3.4-5.9-3.5-1.3 0-2.5.2-3.8.3-4.1.4-8.3 1.7-12.3 1.1-4.4-.8-4.3 1.4-4.2 4.7zm44.1.2c8.3 4.9 16.8 5.9 25.5 3.1 1.1-.4 2.1-1.7 2.6-2.8.2-.4-.7-2.1-1.4-2.2-5.1-1.4-10.3-2.7-15.5-.2-1.4.7-3 .9-4.6 1.1-2.1.4-4.3.7-6.6 1zm-4.8-144.1c-8.9-3-17.9-6.1-26.8-9.1 5.5 5 11.3 9.1 17 13.3 6.3 4.6 8.3 3.8 9.8-4.2zm-5.6 129.5c.3 2.9.5 4.4.7 6.9 3.2-1.2 5.7-2 8.1-3.2.3-.2 0-2.9-.3-2.9-2.5-.4-5.1-.5-8.5-.8z"/>
  <path d="M144.4 163c-2-4.5-5-7.6-9.4-5.6-1.8.8-3.4 4.9-3 7.2.9 6.5 7.2 5.7 13.6 8.1-3.4 1.8-5.6 3.6-8 3.9-6 1-9.5-2.9-12.4-8.1-2.5 1.3-4.9 2.4-7.2 3.7-2.9 1.6-5.3 1.8-7.2-1.5-1.8-3-1.3-5 2-6.4 3.7-1.6 7.4-3.4 11.1-5.1.6-.3 1.4-.5 1.9-1 7.4-7.9 19.5-6.1 27.3-13.7 2.5-2.5 7.7-2.5 11.7-3.3 1.3-.2 3.3.4 4 1.4.5.7-.2 2.9-1.1 3.9-4.3 5.3-9.4 9.4-16.5 10.8-2.3.4-4.1 3.3-6.8 5.7zM265.4 222.5c4.4 28.3 10.6 56.1 26.7 81.8-6.7-.6-7.9-5.6-9.5-8.7-7.7-15.5-13.1-31.9-15.8-49.1-.9-5.8-2.8-11.4-3.8-17.2-.4-2.2.5-4.6.8-7 .5 0 1.1.1 1.6.2zM260.5 242.7c6.2 26.7 12.5 51.8 28 73.4-.3.5-.6.9-.9 1.4-1.7-.9-4.2-1.3-4.9-2.7-5.5-11.3-11.1-22.7-15.7-34.4-3.4-8.6-5.6-17.7-8.2-26.6-1-3.4-1.6-6.9 1.7-11.1zM292.9 187.1c-6-2.4-11.5-1.1-17.3.4-5.1 1.3-10.7-6-9.7-11.4 1-5.8 6.4-7.3 12.1-3.6 3.2 2 6.8 3.4 9.7 5.7 2.4 1.9 4 4.8 5.9 7.3-.2.5-.5 1.1-.7 1.6zM271.3 174c-.6.5-1.3 1.1-1.9 1.6 1.4 2.2 2.4 5.3 4.5 6.5 1.8 1.1 4.8.2 7.3.2l.3-1.8c-3.5-2.1-6.8-4.3-10.2-6.5zM451.4 249.6c2.9 1.7 6.3 2.9 8.5 5.3 3.7 3.9 9 7.2 8.6 13.6-.1 1.7-1.4 4.2-2.7 4.6-2 .6-4.9.4-6.5-.7-3.3-2.2-4.8-5.6-4.8-10-.1-3.7-2.3-7.4-3.6-11.1.1-.6.3-1.1.5-1.7zM513 159.3c-1.2 9.3-6.7 13.2-14.1 10.7-1.7-.6-4.1.7-6.1 1.1-1.2.2-2.5.5-3.7.7.6-1.1 1-2.3 1.8-3.2 3.3-4.1 6.6-8.3 10.2-12.1 1.6-1.7 4.7-4.2 5.6-3.7 2.5 1.4 4.2 4.2 6.3 6.5zm-10.7 9.9c2.7-3.4 4.4-4.8 4.9-6.5.2-.8-1.9-2.2-3-3.4-1.5 1.6-3.4 3.1-4.3 5-.4.8 1.2 2.6 2.4 4.9zM257.3 276.3c6.8 13.5 13.2 25.9 19.5 38.4-11-8.9-15.6-21.6-20.8-33.8-.4-1.1.8-2.8 1.3-4.6zM199.3 171.3c4 5.8 2.6 15.3-1.5 17.9-.8.5-2.7.8-2.9.5-.8-1.3-1.9-3.1-1.5-4.2 1.6-4.6 3.6-8.9 5.9-14.2z"/>
  <path d="M389.6 281.1c-1.6-4.3-2.9-7.4-4-10.6-3.2-9-9-12.4-18.7-10.8-8 1.4-14-2.3-21-7.7 3.5.4 5.7.2 7.5 1 4.5 1.9 6.2-1.1 8.1-4.1 2.2-3.6-.2-5.2-2.6-7.5-6.9-6.5-15.6-8.2-24.3-10.6-7.9-2.2-7.8-2.4-4.4-9.4.2-.5.3-1 .5-1.9-2.4-1.7-4.9-3.4-7.3-5.2-.1-.1.7-1.5 1.4-2.7 4.5 3.5 8.5 3.1 11.3-2.6 1.4 3.1 2.5 5.5 3.4 7.4 3.5.3 6.6.6 10.4 1 2.4-3.3 2.1-3.9-1.5-7.1-2.7-2.4-4.8-5.4-7.2-7.9-.6-.6-2-1.2-2.6-.9-4.2 1.7-5.3-1.1-6.5-4.1-1.5-3.8-3.1-7.6-4.6-11.4-.7-2-1.1-4-1.6-6.1.4-.5.7-.9 1.1-1.4 2.8 1.2 5.6 2.4 9.8 4.3-2.9 1.4-4.2 2-5.6 2.7 5.1 9.6 17.8 21.1 21.6 20.3-4.2-7.8-8.5-15.7-13.5-24.9 3.4.7 6.4 1.1 9.1 2 4.1 1.4 7.7 2.8 11.3-1.4 1.9-2.2 3.6-.5 5 1.5 3.2 4.7 6.6 9.3 9.8 13.9 3 4.4 6.5 8.6 8.8 13.4 2.8 5.7 1 11.2-2.8 16-4.7 5.9-7.6 12.2-4.7 19.9.6 1.5 1.7 2.9 4 4.1.5-4 .4-8 1.5-11.8 1.2-4.4 2.7-9.1 5.4-12.6 4.8-6.1 4.8-12.4 2.2-18.9-3.5-8.5-7.7-16.7-15-22.7-2.6-2.1-4-4.4-.1-7.3-6.4-3-6.7-7.7-4.4-13.2.4-.9-.4-2.4-.6-3.6-.7-.1-1.3-.1-2-.2l-5.4 14.1c-2.7-1.5-5.9-3.6-9.2-5.1-1.8-.8-4-.9-6.1-1.3.3 2.1.6 4.2 1 7.1-4.9-3.6-9.8-7.3-14.7-10.9-5.4 1.9-1.3 5.1-.2 8-6.6-1.4-7.3-2.8-4.4-7.4 1.8-2.8 3.7-5.6 5.7-8.7-5.9.3-7 6.3-10.4 8.2-5.3 3-4.5 6.9-4.8 11.3-7.4-.4-12.6-3.8-16.5-9.5-2.9-4.1-.3-11.5 4.6-12.2 9.4-1.5 19.1-1.6 28.4-3.8 7.3-1.8 14.3-5.5 21-9.1 9.1-4.8 17.7-10.5 26.7-15.4 3-1.7 6.5-3 9.8-3.5 8.1-1 16.4-2.7 24.3-1.7 11.9 1.5 23.6 5.9 31.8 15.1s16.3 18.6 19.8 31.1c4.8 17 5.6 33.7-.4 50.5-2.1 5.7-5.6 10.2-12 13.3.4-2.6.6-4.2.9-5.8-.5-.4-1-.7-1.4-1.1-5.5 5.2-11.1 10.3-16.8 15.7-.3-2.9-.5-5-.7-7.2-6.5 1.7-8.3 11.6-16.5 6.7-5.3 4.7-11.2 7.1-18.6 5.3-6.7-1.6-12.6 2-18.6 4.5-.9.4-1.2 2.3-1.7 3.5 1.2.2 2.4.8 3.5.6 1.9-.3 3.7-1.1 5.8-1.8.8 1.2 1.8 2.5 2.7 3.7 3.4-.7 6.9-.9 9.9-2.1 5.6-2.3 5.8 1.2 5.2 4.7-.8 4.9-.7 9.9-7 12.7-4.6 2.4-8.1 7.3-12.9 11.6zm48-65c3-2.9 4.7-4.3 6.1-5.9 1.8-2.1 4.4-4.1 5-6.6 4.2-15.3-.6-29-8.5-41.9-2.4-3.9-6.5-3.6-8.9.5-3.1 5.3-5.9 10.9-8.6 15.9-5.5-2.4-10.8-5.1-16.4-7.1-5.6-2.1-9.9.5-12.3 5.8-3.3 7.3-1.8 14.2-.2 21.5 1.7 7.6 7.1 11.4 12.9 14.6 2.3 1.3 6.1 0 9.5-.2-1.1 2-2.1 3.8-3.2 5.8 4.1 2.8 5.1-.6 6.1-3.1 1.4-3.4 2.3-7.1 3.7-10.6.6-1.5 2.2-2.6 3.3-3.9 1.3 1.3 2.9 2.4 3.9 3.9 2.9 3.7 5.2 7.5 7.6 11.3zM330.8 306.8c-4.2-.4-6.6-.6-9-.8.1-.5.2-1 .2-1.6 10.1-1.8 19.8-1.7 28.8 5 4.1 3 8.6 5.6 13.1 7.9 6.4 3.2 13.1 2.1 18.1-2.6.7-.6 1.3-1.2 1.1-1 6.4 6.9 12.6 13.6 18.8 20.3.5-.4 1-.7 1.6-1.1-2.3-.6-4.5-1.3-8.2-2.3-3.8 3.1-8.6 6.9-13 10.9-3.6 3.3-7.8 3.9-11.7 1.8-9.4-5.1-18.4-10.9-27.6-16.2-.9-.5-2.4-.1-3.6.1-1.4.3-2.7.8-4.4 1.3 1.1-6.8 1.1-6.8-6.4-7.4 1.8-2.5 3.2-4.6 5.7-8.1-4.1.9-7.1 1.5-10 2.2-.2-.3-.3-.6-.5-1 2.1-2.1 4.1-4.3 7-7.4zM318.5 317.6c-9.4-8.5-14.6-18.4-18.6-29.1-5.3-14-10.9-27.9-15.6-42.1-3.2-9.7-6.4-19.8.5-30.5 1.4 5.2 2.7 10 4 14.8 3.6 13.2 7.3 26.3 14.5 38.3 5.6 9.4 9.9 19.6 14.5 29.6.7 1.6.7 4 0 5.7-1.1 2.7-2.2 4.7.5 7.2.9.8.2 3.5.2 6.1zM324.4 297.1c-3.8-7.2-7.2-14.7-11.5-21.6-7.9-12.7-13.5-26.3-18.5-40.3-1.1-3-2.1-6.2-2.1-9.3 0-2.3 1.9-4.6 3.5-8.2 10.3 27.6 19.9 53.3 29.5 79-.3.2-.6.3-.9.4zM386.9 397.5c-3.5-4.6-7.1-8.8-10.2-13.3-1.9-2.7-2.9-6.1-4.4-9-2.4-4.7-.4-8.2 3-11.7 5.8 7 11.8 13.8 17.1 21.1 1.1 1.5 0 5-.8 7.4-.6 1.5-2.3 2.7-4.7 5.5zM470.2 359.2c-1.9-1.3-3.2-2.2-4.7-3.2 3.7-9.6 3.1-19.3 1.8-29.1-.3-1.9 2-4.1 3.1-6.2 2.1 1.4 5.8 2.7 6 4.3.7 6.5 1.1 13.2 0 19.6-.8 5-3.9 9.5-6.2 14.6z" fill="#fff"/>
  <path d="M381.5 352c.3 2.3.5 4.5.8 6.8-.4.3-.8.5-1.2.8-1.5-1.4-3-2.8-4.8-4.5 5.3-6.1 8.4-13.7 16.3-16.9 1.1-.4 2.7-1.1 3.4-.6 5 3.4 9.9 7 15.1 10.8-1.9 1.7-3.2 3-5 4.6-2.7-3.8-5.1-7.3-7.7-10.7-.6-.8-2.2-1.3-3.1-1-.9.2-1.5 1.5-2.1 2.5-1.9 3.1-3.5 6.5-5.9 9.2-.7.7-3.7-.6-5.8-1zM457.8 383.4c3.4-3.2 6.3-5.9 9.5-9 4.3 5.8 8.2 11.8 7.1 19.7-.2 1.6-1.8 3-2.8 4.5-.6-1.5-1.2-3.1-1.9-4.6-.4-1-1-2.8-1.5-2.8-5.8.3-7.6-4.3-10.4-7.8zM421 368.6c1.8-1 2.6-1.4 3.3-1.9 6.7-4.6 6.5-4.4 13.1.7 2.7 2.1 2.7 3.6.7 5.6-2 2-4.3 3.9-6.7 5.5-.6.4-2.4-.1-3-.7-2.5-2.9-4.7-5.9-7.4-9.2zM450.6 384.2c-2.2 2-4.3 4.4-6.8 6-1.1.7-3.7.6-4.7-.2-7-5.9-5.9-11.6 2.8-15.1.8-.3 2.4-.1 2.8.4 2 2.7 3.7 5.6 5.9 8.9zM408.1 377.8c-3.7-4.8-6.4-8.3-9.8-12.8 3-1.9 6.3-5.6 9.1-5.3 2.8.3 6.4 4.3 7.4 7.4 1.9 5.5-5.4 5.7-6.7 10.7zM426.6 310.7c-3.6 3-7.6 7.6-8.6 7-3.7-2.2-6.4-6.1-9.5-9.3 2.6-2.1 5.9-6.5 7.8-5.9 3.6 1 6.3 4.8 10.3 8.2zM417.6 371.3c3.5 4.7 6.7 7.7 8.1 11.4.4 1-4.2 4-6.5 6.1-2.7-3-6.1-5.6-7.6-9.1-.6-1.4 3.2-4.6 6-8.4zM409.1 329.3c-3.8-4.2-6.5-6.7-8.6-9.7-.9-1.2-.9-4.6-.6-4.7 2.5-.8 4-5.7 7.5-2.4 2.3 2.2 5.4 4.6 6 7.4.4 2.3-2.3 5.2-4.3 9.4zM436 325.2c-5.4 6.8-8.2 6.9-13 .1-.9-1.3-1.5-4.1-.8-4.9 1.8-2.1 4.3-3.6 6.8-4.9.2-.1 2 2.3 2.9 3.6 1.3 1.8 2.5 3.8 4.1 6.1zM403.3 382.1c-1.5-.5-3.5-.5-4.5-1.5-3-2.9-5.5-6.2-8.3-9.2-2.8-3-5.7-5.8-9.7-9.8 3-.5 5.5-1.6 6.3-.9 2.5 2.4 4.3 5.4 7 8.9 5.9 0 5.8 7.6 10.1 10.9-.4.5-.6 1.1-.9 1.6zM418.7 324.7c2.5 3.3 5.2 6.1 6.5 9.4.4 1.2-2.7 5.3-4.4 5.4-5.7.4-7.2-5.2-10.3-8.8 2.9-2.1 5.4-4 8.2-6zM396.9 296.9c9.4-6.9 9.4-6.9 16.6 1-2.9 2.4-5.9 6.6-8.7 6.5-2.7-.1-5.2-4.7-7.9-7.5z" fill="#fff"/>
  <path d="M403.5 354.7c-3.1 3.1-5.8 5.9-8.4 8.6l-6.3-6.3c2-2.5 3.8-5.2 6-7.5.7-.6 3-.4 4 .3 2 1.5 3.5 3.6 4.7 4.9zM419 365.5c-2.8-2.6-5.6-4.9-8.1-7.5-.7-.7-.9-2.5-.4-3.4.8-1.5 2.2-2.8 3.6-4.5 4 3 8 6.1 12.5 9.5-2.9 2.3-5.3 4.1-7.6 5.9zM350.3 378.9c-5.3-1.7-10.4-14.3-9.2-22.7 3.4 3.5 7.4 6.1 8.9 9.8 1.5 3.7.3 8.4.3 12.9zM429.3 337.4c3.1 3.5 6 7 9 10.4-4.2 4.5-10.9 2.8-16.7-4.2 1.2-1.2 2.3-2.7 3.6-3.8 1.2-.9 2.6-1.5 4.1-2.4zM381.2 406.5c-8.2-5.8-11-14.1-13.3-24 1.7 1.3 2.6 1.8 3.2 2.5 3 3.6 5.6 7.7 9.1 10.8 4.7 4.4 5.1 4.9 1 10.7zM395.2 314.4c-2.3-2.8-5.4-5.1-6-7.9-.4-1.9 2.7-4.6 4.2-7 10.8 7.3 10.8 7.3 1.8 14.9zM366.5 350.9c1.9 2.8 4.8 5.5 5.4 8.5.3 1.7-3.3 4.1-5.3 6.1-.1.1-2-1.2-2.4-2.1-1.6-4-4.4-8.2 2.3-12.5zM442.3 346.3c-3.7-4-6.9-7.6-10.4-11.3 2.8-2.2 4.7-3.8 7-5.5 1.8 5.5 7.2 9.8 3.4 16.8zM354.3 305c7.5 5.9 15.7 6.6 25.4 2.5-4 7.1-8.9 8.6-14.5 5.8-4-2-7.9-4.2-11.8-6.4.2-.7.6-1.3.9-1.9zM360.1 379c2.6 8.3 4.8 15.5 7 22.5-6.6-.7-9.8-9.7-7-22.5zM447.2 392.6c7.4-6.4 9.9-5.6 14.5 4.6-4.6-1.5-9.2-3-14.5-4.6zM326 340.1c1.9 3.8 4.4 7.5 5.3 11.6.4 1.6-2.9 3.9-4.9 6.4-.9-6.7-1.6-12-2.2-17.3.6-.3 1.2-.5 1.8-.7zM414.7 282.7c1.6 4.6 7.5 7.3 2.6 12.5-2.7-2.9-5.2-5.6-8-8.6 1.1-.9 2.9-2.2 5.4-3.9zM402.6 398.5h-11.1c2.8-2.9 4.6-6 6.3-6 2 0 4 2.9 6 4.5-.4.4-.8.9-1.2 1.5zM392.9 292c-4.3-5-2.8-8.1 6.2-12.3-2 3.8-3.9 7.7-6.2 12.3zM406.1 383.7c3.8 4.3 6.6 7.4 10.2 11.5-6.9.3-8.1-5.3-11.5-7.6-.3-.2.7-2.3 1.3-3.9zM447.5 345.2c2.4 4 4.5 7.5 6.6 10.9-8.7-3.3-10.4-6.2-6.6-10.9zM448.7 370.9c3.1 1.6 6.2 3.2 10 5.2-1.5 1.7-2.6 2.9-4.2 4.7-2.5-3.2-4.6-5.9-6.7-8.6.3-.5.6-.9.9-1.3zM462.9 352.3c-4.6-5.3-1.1-9.9-.1-14.8.5 0 1.1.1 1.6.1-.5 5-1 9.9-1.5 14.7zM457 336.5c-.2-2.7-.5-5.3-.5-8 0-.7.8-2 1.4-2.1.8-.1 2.3.9 2.3 1.3-.2 3-.7 6-1.1 9-.8-.1-1.4-.1-2.1-.2zM132.9 260.4c-.3 4.2-.6 8.3-.8 12.5-.1 1.3.1 2.7.2 4 .7 7.1-4.2 7.6-9.4 8.3-6.8 1-13.4 2.5-21.8 4.2 1.4-9.6 2.4-18.4 3.9-27 1.2-6.8 3.2-13.5 4.9-20.3.9-3.5 1.9-5 5.8-2.1 6.9 5.1 14.3 9.5 21.6 14 3.8 2.3 8.5-.5 11-6.1.6-1.2 1.5-2.3 2.3-3.4.5 1.2 1.2 2.4 1.5 3.7 1.7 7.1 4.6 14.2 4.6 21.3 0 5.4-3.7 10.9-5.8 16.3-.5 1.1-1.5 2-2 3.2-1.3 3.1-2.9 2.7-4.9.7-4.4-4.7-9.9-8.4-7-16.8 1.2-3.5-.9-8.2-1.5-12.4-.9-.1-1.8-.1-2.6-.1z" fill="#fff"/>
  <path d="M129.1 290.7c2.4 9.6 4.9 19.3 7.1 29.2.3 1.3-.1 3.7-1.1 4.4-5.3 3.9-10.9 7.4-16.5 11.2-12.6-10.3-16.1-23.9-16.4-38.8 0-1 1.6-2.9 2.6-3.1 8.5-1.2 16.9-2.1 24.3-2.9zM102.3 393.3c12 .9 23.9 2.8 35.7-1.7-1.8 1.5-3.6 3.1-5.4 4.6.1.6.3 1.2.4 1.8 1.9-.2 4.7.4 5.5-.6 3.7-4.6 7.9-4.7 12.9-3.1 3.9 1.3 7.9 2.1 11.8 3.4.7.2 1.1 1.4 2 2.6-22.4 6.4-43.2 4.6-62.9-7zM141.8 314.8c-1.5-4.1-3.2-8.7-4.9-13.2.3-.2.7-.5 1-.7 2 1.3 4.2 2.4 6 4 4.1 3.7 6.6 1.9 8.8-2 1.9-3.3 3.9-6.6 5.9-9.9h2.2c1.3 5.7 2.8 11.3 3.7 17 .1.8-2.8 2.7-4.5 3-5.6.8-11.3 1.1-18.2 1.8zM89.4 306.5c7 2 13.1 11.4 11.5 17.8-.3 1.3-1.7 2.7-3 3.3-3.7 1.6-7.6 2.9-11.9 4.5-1.8-9.3 1.1-17.4 3.4-25.6zM133.6 365.5c.7 5.2 1.6 9.2-5.6 8.3-6-.8-12.1-.1-18.1-.6-1.2-.1-3-2.8-3.2-4.4-.4-2.4 1.2-2.6 3.8-2.5 7.7.2 15.4-.5 23.1-.8zM106.6 385.1c-.1-3.2-.3-5.4 4.3-4.7 4 .6 8.2-.7 12.3-1.1 1.3-.1 2.5-.4 3.8-.3 2.6.1 5.8-.9 5.9 3.5 0 4.2-3.2 5.2-6.1 5.1-5.4-.1-10.7-1-16-1.6-1.3-.2-2.5-.6-4.2-.9zM150.7 385.3c2.2-.3 4.5-.6 6.7-1 1.5-.3 3.2-.5 4.6-1.1 5.2-2.5 10.4-1.2 15.5.2.7.2 1.6 1.8 1.4 2.2-.6 1.1-1.5 2.5-2.6 2.8-8.8 2.9-17.2 1.8-25.6-3.1zM145.9 241.2c-1.4 8-3.5 8.8-9.8 4.2-5.7-4.2-11.4-8.2-17-13.3 8.9 3 17.8 6.1 26.8 9.1zM140.3 370.7c3.4.3 6 .4 8.6.8.3 0 .6 2.7.3 2.9-2.4 1.2-5 2-8.1 3.2-.3-2.5-.5-4-.8-6.9zM271.3 174c3.4 2.2 6.8 4.4 10.1 6.5l-.3 1.8c-2.5 0-5.5.9-7.3-.2-2-1.3-3-4.3-4.5-6.5.7-.5 1.3-1 2-1.6zM502.3 169.2c-1.2-2.3-2.7-4-2.3-4.9.9-1.9 2.8-3.4 4.3-5 1.1 1.2 3.2 2.6 3 3.4-.7 1.7-2.3 3.1-5 6.5z" fill="#fff"/>
  <path d="M437.6 216.1c-2.4-3.7-4.7-7.5-7.3-11.2-1-1.5-2.6-2.6-3.9-3.9-1.1 1.3-2.7 2.4-3.3 3.9-1.5 3.4-2.3 7.1-3.7 10.6-1 2.4-2 5.9-6.1 3.1 1.1-2 2.1-3.9 3.2-5.8-3.5.2-7.2 1.5-9.5.2-5.9-3.2-11.2-7.1-12.9-14.6-1.7-7.3-3.2-14.2.2-21.5 2.5-5.3 6.7-7.9 12.3-5.8 5.6 2.1 10.9 4.7 16.4 7.1 2.7-5 5.4-10.6 8.6-15.9 2.3-4 6.5-4.4 8.9-.5 7.9 12.9 12.7 26.6 8.5 41.9-.7 2.5-3.2 4.5-5 6.6-1.6 1.5-3.3 2.9-6.4 5.8zm-26.9-35.2c0 1.2-.3 2.2.1 3 .7 1.4 1.6 2.9 2.8 4 .4.3 1.7-.3 2.6-.5-.3-1.3-.6-2.7-1.1-4-.4-1.2-.8-2.8-1.7-3.2-3.5-1.6-7.4-4.3-10.7-3.8-3.9.6-5.1 5-2 9.7 1.2-2.5 2.5-4.9 3.8-7.5 1.4.4 3.6 1.3 6.2 2.3zm-.4 11.1c-1.8-2-3.2-3.7-4.6-5.3-.9.9-2.7 2.4-2.5 2.7 1.1 1.8 2.5 3.4 4 4.8.2.2 1.8-1.2 3.1-2.2zm27.5.8c1.3-2.7 2.6-4 2.4-5.1-.2-1.2-1.8-2.1-2.7-3.1-.9 1.1-2.3 2.2-2.4 3.4-.1 1.1 1.3 2.3 2.7 4.8z"/>
  <path d="M410.7 180.9c-2.6-1-4.8-1.9-6.3-2.5-1.3 2.6-2.5 5.1-3.8 7.5-3.1-4.7-1.8-9 2-9.7 3.3-.5 7.2 2.2 10.7 3.8.9.4 1.3 2.1 1.7 3.2.5 1.3.7 2.7 1.1 4-.9.2-2.3.9-2.6.5-1.1-1.1-2.1-2.5-2.8-4-.3-.5 0-1.6 0-2.8zM410.3 192c-1.3 1-2.9 2.4-3 2.2-1.5-1.5-3-3-4-4.8-.2-.3 1.6-1.8 2.5-2.7 1.3 1.7 2.7 3.3 4.5 5.3zM437.8 192.8c-1.5-2.5-2.8-3.7-2.8-4.9.1-1.2 1.6-2.3 2.4-3.4 1 1 2.5 2 2.7 3.1.3 1.2-.9 2.6-2.3 5.2z" fill="#fff"/>
  <text transform="translate(260.776 49.454)"><tspan x="0" y="0" font-family="Peanuts" font-size="38" letter-spacing="3">OH, BOO HOO</tspan><tspan x="32.9" y="45.6" font-family="Peanuts" font-size="38" letter-spacing="3">HOO HOO!</tspan></text>
  <text transform="translate(15.609 451.996)" fill="#010101" font-family="BaskervilleT-Bold" font-size="12">Copr 1951 by United Feature Syndicate, Inc.</text>
</svg>
