<svg xmlns="http://www.w3.org/2000/svg" viewBox="0 0 595.3 473.6" xml:space="preserve">
  <path fill="#fff" d="M.5 0h594.7v473.6H.5z"/>
  <path d="M0 0h595.3v473.6H0V0zm590.3 4.9c-10.6.6-19.5 1.5-28.3 1.5-17.7 0-35.3-.7-53-.9-4.4-.1-8.9.6-13.3.6-15.3-.1-30.6-.5-46-.5-6.7 0-13.5.8-20.2.8-9.6-.1-19.3-.8-28.9-.8-11.9-.1-23.7.5-35.6.3-16.1-.2-32.2-1.1-48.3-1.2-10 0-20.1 1-30.1 1.4-3.2.1-6.3-.2-9.5-.2-10.1-.1-20.2-.3-30.3-.3-13.9-.1-27.7.1-41.6-.1-11.5-.2-23-.9-34.5-.9-11.3 0-22.7.8-34 .9-18.5.2-36.9 0-55.4 0-1.5 0-2.9 0-4.4-.1-14.4-.3-28.9-.7-43.4-1-6.9-.1-14 .5-20.8-.4-3.4-.4-4 .7-4.1 3.1-.4 8.7-.8 17.5-.7 26.2.1 16 .9 32 .9 48 0 21-.8 42-.9 62.9-.2 32.1-.1 64.2-.3 96.3-.1 14.1-.7 28.2-1 42.3-.1 8.8.1 17.6 0 26.4-.2 11.8-.8 23.6-.8 35.4.1 22.7.7 45.4.7 68.1 0 15-.7 30.1-1 45.1-.1 4.1 2.3 6.4 6.2 7 2.8.4 5.7.8 8.6.8 14.2-.2 28.3-.7 42.5-.8 36.5-.1 73-.1 109.5.1 11.2 0 22.5.8 33.7 1 6.7.1 13.5-.9 20.2-.7 8.9.2 17.9 1.5 26.8 1.7 14.4.2 28.7-.3 43.1-.2 32.3.4 64.6 1 96.8 1.4 16.2.2 32.4 0 48.5 0 22 0 44 .1 66 0 12.9-.1 25.9-.8 38.8-.8 11.7 0 23.4.6 35.1.9 5.2.1 6.9-1.6 6.8-6.9-.1-4.4-.5-8.8-.4-13.2.2-15.4.8-30.7.7-46.1 0-13.9-.9-27.9-.9-41.8 0-10.4 1-20.8 1.2-31.3.3-16.2.2-32.5.4-48.7.1-15.7.4-31.5.5-47.2.2-22.1.2-44.3.5-66.4.1-11 .6-22 .6-33 0-10.4-.6-20.7-.7-31.1 0-13.4 0-26.9.1-40.5.1-10.8.5-21.6.6-32.4.1-7.8-.2-15.8-.4-24.7z" fill="#fff"/>
  <path d="M590.3 4.9c.2 8.9.4 16.8.4 24.8-.1 10.8-.5 21.6-.6 32.4-.1 13.5-.1 27.1.1 40.6.1 10.4.7 20.7.7 31.1 0 11-.5 22-.6 33-.2 22.1-.3 44.3-.5 66.4-.1 15.7-.4 31.5-.5 47.2-.1 16.2-.1 32.5-.4 48.7-.2 10.4-1.2 20.9-1.2 31.3 0 13.9.9 27.9.9 41.8 0 15.4-.5 30.7-.7 46.1-.1 4.4.2 8.8.4 13.2.2 5.2-1.6 7-6.8 6.9-11.7-.3-23.4-.9-35.1-.9-12.9 0-25.9.7-38.8.8-22 .1-44 0-66 0-16.2 0-32.4.2-48.5 0-32.3-.4-64.6-1-96.8-1.4-14.4-.2-28.7.4-43.1.2-8.9-.1-17.9-1.5-26.8-1.7-6.7-.2-13.5.8-20.2.7-11.2-.1-22.5-.9-33.7-1-36.5-.2-73-.2-109.5-.1-14.2 0-28.3.6-42.5.8-2.9 0-5.8-.4-8.6-.8-3.9-.6-6.3-2.9-6.2-7 .3-15 1-30.1 1-45.1 0-22.7-.6-45.4-.7-68.1 0-11.8.6-23.6.8-35.4.1-8.8-.1-17.6 0-26.4.2-14.1.9-28.2 1-42.3.2-32.1.1-64.2.3-96.3.1-21 .9-42 .9-62.9 0-16-.8-32-.9-48-.3-9 .2-17.7.5-26.4.1-2.4.7-3.5 4.1-3.1 6.9.8 13.9.2 20.8.4 14.5.3 29 .7 43.5 1 1.5 0 2.9.1 4.4.1 18.5 0 36.9.1 55.4 0 11.3-.1 22.7-.9 34-.9 11.5 0 23 .8 34.5.9 13.9.2 27.7 0 41.6.1l30.3.3c3.2 0 6.4.3 9.5.2 10-.4 20.1-1.5 30.1-1.4 16.1.1 32.2 1 48.3 1.2 11.9.2 23.7-.4 35.6-.3 9.6.1 19.3.8 28.9.8 6.7 0 13.5-.8 20.2-.8 15.3 0 30.6.4 46 .5 4.4 0 8.9-.6 13.3-.6 17.7.2 35.3.9 53 .9 8.8.1 17.6-.9 28.2-1.5zm-214 328.4c.7-.5 1.5-.8 1.7-1.3 1.3-4.4 3-8.8 3.5-13.3.4-4.3 2.4-10.1-5.2-11.4-1-.2-2-3.2-2.2-5-.5-5.6.2-11.4-1.2-16.7-3.7-14.7-2.2-28.6 3.8-42.5 3.9-9 6.5-18.5 9.5-27.8.3-1-.1-3-.8-3.4-2.6-1.5-5.4-2.6-8.2-3.7-12.4-5.2-20.8-14.2-25.3-26.9-.5-1.5-2-3-3.5-3.8-4.2-2.1-6.7-10.6-3.6-14.2 2.9-3.3 3.8-6.9 4-11.3.2-4.5 1.5-9.2 3.1-13.4 2.3-5.8 5.3-11.4 8.5-18.1-5.5 0-10.5.4-15.5-.1-17.7-1.6-35.4-3.7-53.1-5.3-15.5-1.4-30.9-3.3-45.6-8.9-7.2-2.8-12-3.4-16.7 4.7-2.8 4.9-9.5 7.7-14.4 11.3 2.3 1.4 4.5 3 6.9 4.1 20.3 9.2 29.2 27.6 35 47.1 3.9 13.2 4.4 27.6 5.5 41.5.5 5.6-.6 11.5-2 17-2.3 9.2-8.7 15.9-15.5 22.1-2.2 2-5.5 5.4-7 4.9-3.8-1.4-4.4 1.3-6.2 2.8-1.2 1-2.4 2.2-3.8 2.9-3.1 1.5-2.7 2.9-.7 5.3 4.1 4.9 8.9 9.6 11.7 15.2 4.3 8.4 12.4 11.9 19.3 18.5.3-8.5 3.5-14.2 9-18.9 4.7-4.1 9.4-3.8 12.4 1.6 1.3 2.4 1.8 5.5 1.8 8.3-.1 7.3-.8 14.6-1.3 22 10.9 1.5 11.9-.1 13.9-9.2.9-4 2-7.9 3.1-12.3 1.1 1 1.8 1.4 2.1 2 .3.5.2 1.2.3 1.9 1.5 7.1-.2 13.6-4.5 19.3-2.2 2.9-1.8 4.6 1.4 5.7 5.3 1.8 8.8 10.2 16.1 4.3.1 0 .3.2.5.3 10.3 3.8 21.2 6.6 30.3 13 6.6 4.7 13.4 9.2 13 19.5-.5 14.3-13.9 25.3-27.3 17.4-2.4-1.4-4.7-3.1-7.5-5-1.1 7.4-4.7 12.1-9.9 15.8-11.3 8-24 6.2-36.5 5.2-5.8-.5-11.5-2.1-16.6-3-1.3 2.6-2.1 4.4-3 6-3.8 6.9-9.2 12-16.4 15.2-12.8 5.8-26.1 7.1-39.2 2.5-6-2.1-11.2-6.3-18-5.9-5.3.3-10.6.9-15.8 1.4 0 .2.1.4.1.6l11.7.9c0 .8-.1 1.7-.1 2.5-3.4 0-6.8-.1-10.2 0-12.2.5-24.5 1-36.7 1.5-3.6.1-7.2.3-10.8.4h-4.6c0-.7.1-1.4.1-2.1 16-1 32.1-2 48.1-2.9 0-.5-.1-1.1-.1-1.6-21.3 1.3-42.6 2.7-64.1 4.1 0 2.3-.6 4.5.1 6.3 1.8 4.4-.5 7.4-3.5 9.1-4.5 2.4-9.4 5-14.3 5.3-9.7.6-15.6-7.4-14.2-16.8.7-4.8.1-9.8.1-16.1-6.8 9-15.2 7.9-23.9 5.8 3.4-.7 6.9-1.4 10.3-2 0-.4 0-.8-.1-1.2H34.5c0-.6-.1-1.3-.1-1.9 8.2-.5 16.4-1 25.9-1.6-1.8-1-2.2-1.5-2.6-1.5-8.4-.1-16.8-.1-25.3 0-.9 0-2.3.7-2.7 1.4-3.6 6.8-9.4 7.9-17.8 5.8 0 16 .2 31.3-.1 46.5-.1 4.6 1.7 5.6 5.8 5.5 9.7-.2 19.5-.2 29.2-.1 23 .3 46 .8 68.9 1 15 .2 30.1 0 45.1 0 44.4 0 88.8-.1 133.2 0 24.9.1 49.7.8 74.6 1 15.6.2 31.3.1 46.9 0 12.3-.1 24.6-.4 36.9-.4 11.9 0 23.7.5 35.6.7 10.2.2 20.3.4 30.5.3 13.3 0 26.7-.3 40-.4 5.6 0 11.3-.4 16.8.5 4.4.7 5.5-.4 5.6-4.5.3-20.6.8-41.3 1-61.9.2-15.3 0-30.5 0-45.8l.6-98.2c0-6.3-.3-12.6-.3-19v-29.8c.1-9.5.3-19.1.4-28.6 0-6.3-.2-12.6-.1-19 .1-5.4.5-10.7.5-16.1 0-9.1 0-18.2-.2-27.3-.1-3.4-.7-6.8-1.1-11-21.4 11.2-44.1 14.2-66.6 19.3 1.4 2.8 3.3 5.2 3.7 7.9 2.2 12.3 2.7 17.1-19.1 29.7-1.1.6-3-.2-4.5-.3l-.3-1.5c5.6-3.8 8.1-9 6.8-15.5-1-4.9-2.3-9.7-3.6-14.5-.9-3.2-1.9-5-6.3-4.2-6.5 1.1-13.4.5-20.1.8-5.5.3-11 .9-16.8 1.4 15.5 17.5 20.5 37.4 16.6 60.4 2.8-1.1 5.9-2.5 9-3.6 3.9-1.4 6.3.2 5.8 4.1-.7 5.7-2 11.3-2.6 16.9-.6 5.3-2.7 11.6-.7 15.8 2.8 5.9 2.4 10.7.5 16.1-2.5 6.9-9.3 11.8-9.5 20 0 .9-1.9 2.2-3.1 2.7-7.8 3-15.5 6-23.4 8.7-3.3 1.1-6.1 1.8-4 6.2.4.8.2 1.8.2 2.7-.3 8.1-1.4 16.3-.7 24.4.4 4.8-1.1 6.3-5 7.5-1.5.5-3.6 2.3-3.7 3.7-.3 3.2-.5 8.8.9 9.4 7.3 2.9 15 5.2 22.8 6.4 8.5 1.3 17.3 1.2 25.9 1.9 4.5.4 9 1.3 13.6 1.5 7 .3 13.9.1 20.9.1.8 0 2.3.3 2.4.8 2 6 6.9 3.2 10.6 3.6 4.8.5 9.6.5 14.4.8 0 .8.1 1.6.1 2.3-5.3.6-10.6 1.2-15.7 2.8-7.8 2.3-16.7.6-25.2.6 0-.7-.1-1.4-.1-2l14.4-.9c-1.4-1.2-3-1.4-4.6-1.4h-44.4c-1.4 0-3.1.1-4.2-.6-5.1-3.4-8.3-3.2-12.3 1.1-.6.7-1.5 1.5-2.4 1.6-6.8.8-13.6 1.3-20.3 2.4-4.6.8-9.1 2.4-13.7 3.7-1.1.3-2.3.7-3.4 1.1-8.4 2.5-16.6 1.1-24.7-1.8-4.3-1.6-8.6-3.4-12.8-5.1-4.5-1.8-8.8-4.5-13.4-5.2-4.7-.7-9.7.8-14.6 1-2.2.1-4.4-.5-6.5-.7.1-.4.1-.8.2-1.1l9.6-2.4c-.1-.3-.2-.6-.2-1h-22.5c1.4-1 1.8-1.5 2.2-1.5 8.8-.5 17.6-1 26.4-1.2 6.4-.2 6.4 0 4.5 4 11.5-2.9 13.3-2.4 14.1 4.3zm133.8-188.2c5.8-4.9 5.2-18.4 1-24.8-1.6-2.5-2.5-5.2.9-6.1 9-2.4 18.2-4.1 27.4-6.2 6.2-1.4 12.6-2.6 18.7-4.6 7.2-2.4 14.3-5.3 21.3-8.4 1.6-.7 3.2-2.7 3.8-4.4.6-1.8.1-4 .1-6V29.5c0-1.2-.2-2.9-.9-3.4-9.7-6.6-19.4-13.8-31.7-14-23.3-.2-46.7.1-70 .2-9.1 0-18.2-.4-27.3-.2-12.5.3-24.9 1.5-37.4 1.7-8.2.1-16.4-1.1-24.5-1.2-11.6-.1-23.3.4-34.9.3-9.1 0-18.1-.8-27.1-.8-20-.1-40 0-60.1.2-4.8.1-10.9-.5-14 2.2-7.8 6.8-14.4 15-21.2 22.9-1.2 1.4-1.5 4.5-1 6.4 1 3.8 3.2 7.2 4.1 11 2.5 10.4 6.5 20.4 3.6 31.8-2.8 10.9-2 11.2 5.8 14.7 1.7.8 3.8 1 5.7 1.3 9.7 1.8 19.4 3.8 29.2 5.3 6.6 1 13.5.2 19.8 2.1 8.1 2.4 16.1 2.9 24.3 3 4.7.1 9.4.5 14 1.2 14 2.1 27.3 2 40.7-4.2 16.8-7.8 34.3-6.3 51.7-.3 9.5 3.3 17.9 12.1 29.4 6.7.1-.1.4 0 .5 0 8.5-.4 17-.3 25.4-1.3 7.1-.8 10.3-.6 13.4 5.8 3.9 7.8 6.4 16.3 9.3 24.2zM14 54c0 5.6-.1 11.2 0 16.7.2 8.9.3 17.8 1.1 26.6.5 5.9-2.4 13.2 5.4 16.9 1.6.8 3.2 1.5 4.6 2.5 10.9 7.4 22.9 12.1 35.3 16.1 2.1.7 4.2 2.8 5.2 4.8 1.6 3.5 2.3 7.5 3.5 11.2.3 1 1.4 1.8 2.1 2.6.4-5.7.7-10.9 1-17.1 2.9 2 4.3 3.3 5.9 3.8 1.8.5 3.8.2 5.6.3 15.7 1 31.3 2.4 47 2.9 3.9.1 8.1-2.2 11.9-3.9 3.4-1.6 6.1-4.5 9.5-6 9.3-4.1 18.7-8.3 28.3-11.4 5.1-1.6 11.1-2.4 16.3-1.3 13.1 2.7 21.7-5.2 28.6-13.2 11-12.5 11.7-28.5 7.9-44-3.9-16-11.5-30.6-20.9-44-1.8-2.6-6-4.6-9.2-4.9-7.1-.8-14.4-.3-21.6-.5-10.1-.2-20.3-.5-30.4-.5-6.8 0-13.5.5-20.3.4-4.1 0-8.2-.9-12.3-.9-8.9-.2-17.8-.1-26.7-.1-12.9 0-25.8-.4-38.8.1-5 .2-10.2 1.8-14.7 3.9-6 2.9-11.6 6.7-17.1 10.6-2.3 1.6-5.1 4-5.6 6.5-1.1 5.5-1 11.3-1.3 16.9m-1.1 282.7c6.6-.6 11.6-1.2 16.5-1.6 13.2-1.1 26.4-2.1 39.6-3.5 1-.1 2.4-2.2 2.5-3.4.2-6.5.3-13 0-19.5-.4-10-2-20.1 3.6-29.4.5-.9-.1-2.9-.8-3.9-3.6-4.7-3.8-8.6-.8-13.7 5.9-10.1 15.2-15.2 25.9-19.1 3.8-1.4 6.4-6.1 9.5-9.3-3.8-4.1-7.2-11-11.5-11.7-8.7-1.3-16-5-23.6-8.6-8.5-4-10.3-12.2-5-19.6 5.1-7.1 12.6-10.9 20.4-14.2 6.5-2.8 13.1-5.4 19.2-9 4.5-2.6 8.5-6.4 12.4-9.9 2.4-2.2 4.2-5 6.2-7.3-17-1.4-33.3-2.7-50.3-4 .3 3.1-.2 7.3 1.2 10.9 1.9 5-.3 6.7-4.4 8.6-5.2-7.7-12.3-14-12.9-23.9-16.5-5-32.4-11.2-46.6-24 0 8.9.1 15.5 0 22.1-.4 22.2-1 44.4-1.1 66.6-.1 14.1 1 28.2.9 42.3-.1 14.8-1.1 29.7-1.6 44.5-.3 8.7-.5 17.3-.4 26 0 5 .7 9.9 1.1 14.6zm230.2-127.1V216c0 6-3.7 11.1-11.6 12.5-3 .5-8.1-2.6-9.9-5.5-7.9-12.6-10.8-26.8-11.3-41.5-.2-5.2 5.4-9.1 10.4-7.1 4.8 1.8 9.1 4.8 15 8 .3-4.8.3-9.5.9-14.1.5-3.5.6-7.8 2.7-10 3.3-3.5 2.5-5.8.2-8.7-2.1-2.7-4.1-5.6-6.7-7.8-14.8-13-31.5-19.5-51.6-15.8-14.8 2.8-28 8.9-39.7 17.9-11.3 8.8-21.7 18.8-32.8 28-2.7 2.3-6.5 3.4-10 4.6-8.8 3.3-17.6 6.8-24.2 13.7-2.6 2.7-2.7 6.9.5 9.1 4.7 3.2 10 5.4 15.1 7.9 2.3 1.1 4.3 2.4 4.2-2.5-.1-3.6 2.7-7.2 4.3-10.9.7.2 1.3.4 2 .6-.4 2.2-.8 4.5-1 5.6 2.4 1.9 4.3 3.3 6.2 4.7 1.6 1.2 3.6 3.6 4.9 3.2 1.9-.5 3.5-2.7 4.8-4.5 1.2-1.6 1.9-3.5 2.9-5.4 11.2 8.9 17.4 12 22.1 11-6.8-5.1-7-5.8-3.9-10.4 10.3 7.9 18.6 10.4 23.9 7.9-1.8-2.6-3.9-5.5-6.1-8.5 1.8-3 3.7-3.8 7-.7 4.1 3.9 9.3 5.8 15.1 5.5-2.4-3.6-4.5-6.7-6.6-9.8.5-.5 1-.9 1.5-1.4 2.8 1.2 5.7 2.3 8.7 3.6-.3-2.4-.5-4.4-.9-8.1 4.1 4.3 7.1 7.4 10.8 11.3 2.3-5.4 3.9-9.2 5.5-13 .6.1 1.1.3 1.7.4-.6 3.5-.6 7.3-2.2 10.3-1.3 2.6-2.1 3.6.8 5.4 4.4 2.8 8.3 6.2 12.5 9.2 6.3 4.5 10 13.2 8.1 19.5-1.8 6.1-3.9 12.2-5.7 18.4-1.8 6.2-3.4 12.4-5 18.7.6.5 1.2.9 1.8 1.4 2.7-3.1 5.2-6.4 8.1-9.3 1.2-1.2 3-2.5 4.4-2.4 1 0 2 2.2 2.6 2.9 6.9-4.3 10.2-12.5 19.4-14.6 5.4-1.2 10.3-5.6 11.6-12.1.7-3.1 2-6.2 2.2-9.4.3-3.3.8-7.7-1-9.9-2.5-3.7-7.1-5.9-11.7-9.3zM466 167.2c.3-.1.6-.1.9-.2-1.4-6.2-2.9-12.5-4.2-18.7-2.2-10.3-8.9-17.9-16.6-24.1-5.5-4.4-12.4-7.8-19.3-9.7-8-2.3-16.6-3.4-24.9-3.4-6.8.1-13.8 2.2-20.5 4.1-10.5 2.9-17.3 10.1-22 19.8-3.7 7.6-4.5 15.3-4.3 23.5 0 1.6-1.3 4-2.7 4.8-4.5 2.7-4.8 5.8-.7 9.4 1.8 1.5 3.4 3.5 4.4 5.6 4.6 9 9.9 17.6 19.1 22.4 13.9 7.1 28.5 11 44.4 8.9 11.8-1.5 12.6-1.9 14.6-13.9 1.2-7.2 6.2-10.5 14-9.1 12.3 2.2 17.3-1.8 17.8-14.4.1-1.7 0-3.4 0-5zM146.5 337.6c-4.1.4-8 1.4-11.7 1-10.4-1.1-20.7-3-31-4.3-3.3-.4-7.7-1.1-9.8.6-6.1 4.8-12.6 3.4-17.3.1-5.6-3.9-11.1-2.7-16.5-2.5-13.8.5-27.5 1.9-41.2 3.1-2 .2-4.7.9-5.6 2.3-3.4 5.3.6 12.2 7 12.6.8.1 1.7-.4 2.5-.2 13 3.5 26.2 6.4 38.9 10.8 19.1 6.7 37.8 3.9 56.4-.8 13.4-3.4 26.4-8 40.4-8.4.5 0 1-.6 2-1.3-9.8-.2-13.1-3.3-14.1-13zm-22-118.7c-4.9-.8-9.8-1.6-14.6-2.3 6.6 5.9 10.8 12.7 7.2 21.6 6 3.1 10.1 2.6 14.4-2.4 2.7-3.2 6.5-7.1 11.7-6.5.4.6.9 1.1 1.3 1.7-4 3.5-7.9 7-12.6 11.2 5.7 1.7 10.6 3.6 15.7 4.8 3.9.9 8.1 2.1 11.9 1.4 10.9-1.9 21.1.7 30.5 5.3 8.5 4.2 9.6 9.7 6 15.9-2.6.4-4.5.8-6.3 1.1 1 1.8 1.7 5 3.1 5.2 2.4.5 5.3-.4 7.6-1.5 1.1-.6 1.8-3 1.8-4.7.2-3.5-.9-7.2-.1-10.4 2.6-10.5 6-20.9 8.8-31.3.3-1.2-.1-3.3-1-4.2-6.5-6.3-12.9-12.6-19.9-18.4-1.7-1.4-5.6-1.8-7.5-.9-2.4 1.2-3.7 4.3-5.5 6.6 3.5 2.6 7.2 5.2 10.8 8.2 1.2.9 1.8 2.6 2.6 3.9-1.8.3-3.8 1.4-5.2.9-4.8-1.7-9.5-3.9-14.2-5.9-8.2-3.4-16.3-9.6-25-1-.5.5-2.2-.2-3.2-.5-6.8-2.1-10.9-1.1-13.3 4.1 2-1.3 3.5-2.2 5-3.2.4.3.8.6 1.1 1-4 5.7-8 11.3-12 17-.5-.2-1-.4-1.4-.6.8-5.4 1.5-10.7 2.3-16.1zm55.3 65c.4-.1.8-.1 1.2-.2-.6-5.3.1-11.3-2.1-15.8-1.5-3.2-6.6-5.4-10.6-6.7-14.4-4.9-28.9-9.6-43.5-13.9-13.8-4-27.7-5.1-40.1 4.1-3 2.2-5.9 6.3-6.4 9.9-.3 2.4 3.3 6.6 6 7.8 6.5 2.8 13.5 5.3 20.5 6.1 12.8 1.5 25.7 1.8 38.6 2.4 5.1.2 9.4 1.4 13.3 4.9 2.5 2.3 5.7 3.7 9.8 6.3-3.1-8.4-3.1-8.4-.3-11.7 2.1 4 4 7.6 6 11.3.5-.1 1.1-.2 1.6-.3-.6-4.9-1.3-9.7-1.9-14.6.6-.2 1.3-.4 1.9-.6 2.1 3.6 4.1 7.3 6 11zM480.4 185c-6.6 2.4-12.5 4.2-18.1 6.6-5.9 2.5-12 2.9-18 1.8-4-.7-5.3.8-5.7 4.2-1.1 10.2-2.2 20.4-3.4 30.5-.6 5.1-1.3 10.2-2.1 15.3-.7 4.5-1.5 9-2.2 13.7 4.2.5 8.1 2 11.6 1.3 7.8-1.5 15.4-4.2 23.1-6.2 4.5-1.1 6.2-3.8 5.9-8.3-.3-4.6-1.2-9.4-.4-13.9 1.6-8.3 4.7-16.3 6.5-24.6 1.5-6.3 1.9-13.1 2.8-20.4zM147.9 333.9c0-9.3.2-17.7-.1-25.9-.1-1.8-1.6-3.9-3-5.3-2.6-2.5-5.7-4.4-8.3-6.8-4.2-3.8-8.1-8-12.3-11.8-1.2-1-3.1-1.4-4.8-1.6-6.2-.8-12.5-1.4-18.8-1.9-1.1-.1-3 .4-3.4 1.2-.9 2-1.8 4.4-1.7 6.6.2 13.1.7 26.2 1.2 39.3 0 .3.4.6.7 1.1 16.4 1.7 33.1 3.4 50.5 5.1zm65.9 37.9c6.4 0 2.9 8.4 9.1 7.4v-8.9c3.9 2.9 6.7 5.1 8.9 6.7 1.2-4 1.3-8.1 3.4-10.4 7.3-8.2 12.3-17.4 16-27.7 1.8-4.9.2-7.8-3.3-10.1-5-3.3-10.4-6-15.5-9.1-3.4-2.1-4.1-.8-4.6 2.6-.6 4-1.2 8.3-3.3 11.7-4.7 7.8-9.8 15.3-15.4 22.4-5.1 6.5-8 13-6.3 17.9 1.4-2.6 2.7-4.9 3.9-7.1.7.2 1.4.3 2 .5-.1 2.2-.6 4.5-.2 6.7.4 2.1 1.6 4.1 2.9 7.2 1.3-4.7 2-7.8 2.4-9.8zm-31.2-18.3-.9-1.5c-1.1.3-2.3.5-3.4.8-8 1.9-15.9 4-23.9 5.7-13.2 2.8-26.5 5.2-39.8 8-7 1.5-13.8 4.4-20.8 4.9-7.8.6-15.9 0-23.5-1.6-14.4-3-28.5-7-42.7-10.8-4.7-1.3-9.2-3.3-14-5.1-.6 2.3-1.1 4.2-1.8 6.7 5.8 1.9 11.2 3.8 16.8 5.5 15.5 4.8 30.9 9.9 46.6 13.9 5.9 1.5 12.5 1.2 18.6.2 7.4-1.3 14.5-4.4 21.9-6.4 20.4-5.5 40.8-10.7 61.2-16.3 2.1-.4 3.8-2.5 5.7-4zm209.8-134.3c-.8-.1-1.6-.1-2.4-.2-3.4 10.4-6.8 20.8-10.3 31.5 5.7 1.3 9.1 1 8.5-5.2-.2-2 .9-4.1 1.5-6.8 5.4 2.6 1.2 8.8 4.7 11.2 2.3-2.2 4.5-4.4 7.1-6.9 3.1 4.3 5.7 8 8.4 11.8 10.6-11 10.6-11 16.3-5.3.9-3.1 1.8-5.8 2.3-8.6.5-2.6.5-5.2.8-8.1-.6.2-1.4.7-1.9.5-4.4-1.9-8.1-6.2-13.8-2.1-1.7 1.2-5.3-.6-7.8 0-5.6 1.2-8.6 0-10.8-5.4-.9-2.3-1.7-4.3-2.6-6.4zM153.5 341.5c1.7.7 3 1.2 4.3 1.7 8 3.4 10.7 1.6 10.5-6.9 0-.7.4-1.3.4-2v-37.8c-5.2-.7-10-1.3-15.3-2.1.1 15.5.1 31.1.1 47.1zm-74.7-62.7c-.3 1.6-.9 3.4-.9 5.2.3 12.7.7 25.4 1 38.1v4.9c0 3.4 2.1 4.4 5.1 4.3 1.8-.1 3.6-.2 5.6-.3 1.3-16.1-1.2-32.2 1.5-48.3-3.7-1.1-7.6-2.4-12.3-3.9zm93.3 89.3c.8 5.8 1.3 10.9 2.4 15.7.6 2.3 2.5 3.8 4.5.5 2.9-4.9 7.6-6.9 13.1-7.8 1-.2 2.5-.6 2.9-1.3 2-4.2-3.9-14.6-8.6-15.5-.5-.1-1.1-.1-1.6.1-3.8 1.9-7.7 3.7-11.4 5.9-.8.6-1.1 2.1-1.3 2.4zm75.7-355.4H215c4.7 7.5 9.4 15 13.7 21.9 6.3-7.2 12.4-14.2 19.1-21.9zm-168 413c3.4 4.7 8 .5 12 .1 1.1-.1 2.1-4.4 2.4-6.9.4-3.2.5-6.7-.1-9.9-.9-4.6-2.4-9.2-4.2-13.6-.5-1.2-2.8-1.6-4.3-2.4-.5 1.2-1.3 2.4-1.4 3.6-.4 4.6-.7 9.1-.7 13.7 0 2.1.5 4.3.8 6.4h1.1c-1.9 2.9-3.6 5.7-5.6 9zm-14.1-38.9c.1-.5.2-.9.3-1.4-13-4.2-26.1-8.3-40.9-13 .7 4.1 1.9 7.2 1.6 10.3-.5 5.4 3 4.5 6 4.5 3.8 0 7.6-.3 11.5-.3 7.1-.1 14.3-.1 21.5-.1zm35.5-1.3h48.1c-3.6-5-6-8.3-8.4-11.7-13 3.8-25.8 7.6-39.7 11.7zm144.9-83.1c-1 3.8-1.5 5.8-2.1 8.4 2.2 1.7 4.7 3.6 7.1 5.6.4-.4.9-.7 1.3-1.1-2.5-2.7 2.9-6-1.3-8.8-7.1-4.6-12.8-10.4-17.1-17.9-1.7-3-5.3-4.9-8.5-7.6-1 4.4-1.7 7.4-2.6 11.4 3.2.7 6.4 1.5 10.3 2.3.2 2.1-3.1 5.2 1.7 8.4 4 2.8 6.4 3.5 11.2-.7zm30.4-2.9c-.4-3-.7-6.4-1.4-9.7-.6-3-3.7-3.8-5.9-1.4-1.7 1.8-3.4 3.9-4 6.2-2.5 8.7-3.1 14.6 5.9 18.6 1 .4 3.8-.7 3.9-1.5.8-3.8 1-7.8 1.5-12.2zM380.4 280c3.4-2.9 6.5-5.4 9.3-8.1.9-.9 1.7-2.6 1.4-3.7-.8-3.6-1.6-7.4-3.4-10.6-.8-1.4-3.9-1.9-6-2-1.3-.1-3.8 1.2-4 2.2-.9 7.4-2.4 14.9 2.7 22.2zm-91.5 71.5c-4 4.3-6.6 6.6-8.7 9.3-.8 1-1.6 3.1-1.1 4.1 5.1 10.3 11.3 10.7 17.6 1.2.6-.8 1.1-1.7 1.7-2.5.6-.8 1.3-1.6 1.9-2.4-3.7-3-7.3-6.1-11.4-9.7zm-3.8 25.1c-2.9-2.8-5.8-5.6-8.6-8.5-2.5-2.5-4.1-1.3-5.8 1-1.4 2-3 3.8-4.8 6 3.8 9 20.2 14.1 25.4 4.6-3.6 1.2-5.8 1.9-8.9 2.9 1-2.1 1.7-3.7 2.7-6zm25.6-5.8c5.5-3.3 3-9.7 1.1-13.7-2.3-5-7.4-8.9-11.9-12.4-.9-.7-4.8 2.1-7.1 3.6-.7.5-1.2 2.8-.8 3.2 2.5 2.5 5.3 4.8 8 7.1l5.1-6c.2-.2.6-.3 1.3-.6 4 4.6-1.9 7.3-2.1 9.3 2.7 3.9 4.5 6.7 6.4 9.5zm-36.9-9.8c2.8-2.1 5-3.6 7.1-5.4 2.8-2.5 4.5-5.6 1.4-8.8-3.7-3.9-8.2-3.8-12 0-1.9 1.9-3.3 4.2-5 6.3 2.9 2.7 5.7 5.3 8.5 7.9zm-113.2 36.4c7.2 4.1 10.7 2.5 10.3-5.2-.3-6.8-1.5-13.6-2.4-21.1-2.6 1.8-4.3 2.9-6.1 4.1 4 5.2 2.8 18.4-1.8 22.2zm92.4-34c3.8 7.6 7.7 10 11.4 7.5 4.2-2.8 6.2-7.3 4-9.6-1.8-1.9-4.8-5-6.2-4.5-3.3 1.2-6 4.2-9.2 6.6zm-79.6-55.9c-.3 5.2 4.6 8.2 9 10 1.7.7 5.6-3.8 9.3-6.5-4-3.7-7.3-6.7-10.6-9.6-2.6 2.1-4.8 3.8-7.7 6.1zm245.5-49.1c-1 1.4-1.8 2.3-2.4 3.3-.8 1.2-1.3 2.6-2.1 3.7-3 4.2-5.6 4.3-8.8.3-1.6-2.1-3-4.4-5-7.4-1.6 2.2-2.9 4-4.3 5.9 10.5 6.9 21 7.6 31.9 4-3.1-3.2-6.1-6.4-9.3-9.8zm-215.4 63c-4-3.5-7-6.2-10.1-8.8-2.3 2.7-7 6-6.5 7.8 1 3.3 4.6 6.8 8 8.1 1.5.6 5-4 8.6-7.1zm129.4 30.5c-1.8 5-3.1 9.9-5.2 14.4-2.1 4.4.8 5.8 3.5 8.2 2.4-4.4 4.8-8.1 6.6-12.1 2.5-5.3 1.2-8.1-4.9-10.5zm-158.8-36.7c.1 1.9-.1 3 .2 3.8 1.4 3.1 2.8 6.1 4.4 9 1.7 3.2 3.2 6.6 5.5 9.4 2.9 3.7 4.9.1 6.8-1.7 2.2-2.1 1.6-3.7-.7-5.6-4.5-3.7-10.7-5.6-13-11.9-.3-.8-1.5-1.4-3.2-3zm211.8 13.2c-1 3.9-1 3.9 7 7.2 10.5 4.4 21.8 4.2 24.9-.8-3.3-1-6.5-2.5-9.9-3-4.9-.7-10.6 7.6-14.7-1.5-.2-.3-1.4-.1-2.1-.3-1.7-.4-3.3-1-5.2-1.6zm26.4-3.3c11.8 8.2 34.2 10.7 38.9 3.1h-28.8c-2.7-4.9-5.1-5.7-10.1-3.1zm-235.5 68.1c-.5 1.5-.8 2-.8 2.6-.2 5.2-3.9 9.7-8.2 9.9-8.6.4-17.1.7-25.7 1.1-.9 0-1.9.5-2.8.8.1.3.2.7.3 1 15.2-.7 30.4-1.4 46-2.1-3-4.5-5.6-8.5-8.8-13.3zm209.5-82.4c.9 2.5 1.3 6.5 2.5 6.8 4.3 1 8.9 1 13.3.5.5-.1.4-5.7.6-9.2-5.8.7-10.4 1.2-16.4 1.9zm-163.2 5.7c-2-.5-3.5-.6-4.7-1.2-2.8-1.4-5.9-.1-8.4 3.7-1.7 2.6-.3 4 1.8 5.5 2.4 1.6 4.4 3.7 7.3 6.2 4.8-3 .5-9.7 4-14.2zm63.8 14.9c-8.9 9.3-10.3 7.2-.9 14.6.9.8 3.5.8 4.4.1 5.7-4.5 5.6-4.6.5-9.7-1.4-1.5-2.5-3.2-4-5zM23.5 401.3c-1.6-10.2-3-19.3-4.4-28.3-.4-.1-.9-.1-1.3-.2-.6 3.6-1.3 7.2-2 11.6 2.9 2.5 2.9 5.2-1.7 16.9h9.4zm190.8-70.1c-3.4-2.8-6.1-5.1-9-7.6-2.2 2.8-4.4 5.6-6.9 8.7 3.4 2.4 6.4 4.5 9.7 6.9 2.3-3.1 4.1-5.4 6.2-8zm95.5 41c-3.8-2.8-6-4.4-8.7-6.4-2.6 3.1-5.1 5.9-7.2 8.9-.6.9-.9 3-.3 3.6.8.9 2.9 1.5 3.8 1.1 3.8-2 7.5-4.3 12.4-7.2zm-95.6-92.8-.9-.9c-6.6 3.5-13.2 7-19.3 10.1 3.4 1.5 7.5 3.2 12 5.2 2.7-4.7 5.5-9.5 8.2-14.4zM429.7 307c-6.1.5-11.2.9-17.3 1.4 1.2 2.6 2 5.9 2.8 5.9 4.6 0 9.2-.6 13.6-1.7.8-.2.7-3.8.9-5.6zM204 342.2c-1.7-1.5-3.2-2.8-4.7-4.1-1.8-1.7-3.7-4.4-6-1-1.7 2.5-3.5 5.6.3 8.2 1.7 1.2 3.4 2.4 5.3 3.6 1.7-2.3 3.3-4.4 5.1-6.7zM29.8 11.7C26 11 23 10.4 20.1 9.9c-3.7-.6-5.9.8-5.8 4.8.1 2.4.2 4.7.4 7.6 5.1-3.6 9.9-6.9 15.1-10.6zM31.9 394c.1-.7.1-1.3.2-2h37v-1.8H28.4c.8 3.1 1.4 5.3 2.1 7.9 1.9-.8 3.3-1.4 5.2-2.3-1.8-.9-2.8-1.3-3.8-1.8zm388.7-174.8h-18.7c3.7 3.1 7.2 6 9.6 8.1 3.5-3.1 6.4-5.7 9.1-8.1zm-205.7 70.3c-2.1 2.9-5 5-4.7 6.8.5 3.4 2.6 6.7 4.4 9.8.4.6 2.3.9 3.3.6.7-.2 1.5-2.4 1.3-2.5-3.4-2.9-2.6-6-1.3-9.5.3-1.1-1.5-2.8-3-5.2zm60.4 46.2c.3.4.5.9.8 1.3 2.5-1.8 6.6-2.8 6.5-6.5-.1-3.4-3.4-5.4-7.2-4.7-3.9.7-6.5 2.8-5.2 8.1 2.5-1.1 4.7-2.1 7.8-3.4-1.1 2.2-1.9 3.7-2.7 5.2zM243 373.4c4.4 2.1 7.9 3.9 11.5 5.5.9.4 2.5.2 3.3-.4.6-.4 1-2.4.6-2.8-2.7-2.5-5.4-5.7-8.7-6.8-1.5-.6-4.4 2.9-6.7 4.5zm28-51.7c-3-1.8-5.6-3.5-8.5-4.9-.9-.4-3.4.3-3.4.5.1 2.6-.2 5.5 1 7.6.6 1 4 1.1 5.9.5 1.7-.4 3.1-2.2 5-3.7zM97.8 395.3c0 .5-.1 1-.1 1.5 7.4 0 14.9.3 22.3-.1 8.3-.4 16.5-1.4 24.7-2.1 0-.3 0-.7-.1-1-15.6.5-31.2 1.1-46.8 1.7zm134.4 11.9c-.1-.5-.1-1.1-.2-1.6-8.5.6-17.1 1.2-25.6 1.8 8.9 3.2 17.5 4.2 25.8-.2zm17-45.4c10.1-8.7 10.1-9 2.8-13.9 1.9 5.3-8.8 7.6-2.8 13.9zm73.2-.5c5.2-13.3 4.1-17.5-3.6-17.4 1.2 5.5 2.3 11.1 3.6 17.4zm-6.3 12.4c-6.1 4.6-12.3 9.3-19.1 14.4 9.4-1.3 15.8-5.4 19.1-14.4zm-59.7-27.1c4.3-3.3 8.2-6.2 12.4-9.4-1.4-1.2-2.5-2-3.5-2.9-10.9 9.5-10.9 9.5-8.9 12.3zm-71.7 45.2c.1.7.2 1.3.3 2 11.5-.9 23.1-1.8 34.6-2.7 0-.6-.1-1.1-.1-1.7-11.6.7-23.2 1.6-34.8 2.4zm-9.2-88.9c1.3-2.6 2-6.3 3.4-6.6 7.8-1.7 1.5-4.4 1.3-6.9-6.2 2.1-8.1 7.8-4.7 13.5zm44.7-109.6c3 1.9 5.9 3.8 9.2 5.8.8-2.3 1.4-3.8 2-5.6-3.8-1.3-7-7.3-11.2-.2zm16.6 117.4c-2.9-2.9-5.4-5.4-9.4-9.3.2 3.7-.4 6.7.7 8.2 2.2 2.7 5.4 3.8 8.7 1.1zm33.2 75.7c-6.3-8.5-7.6-8.7-12.8-1.5 4.7.6 8.8 1 12.8 1.5zM571.9 12c-.1.4-.2.8-.4 1.2 3.7 2.2 7.4 4.4 12.2 7.3-.9-3.9-1.4-6.5-1.9-8.5h-9.9zM44.1 395.1c0 .5-.1.9-.1 1.4h24.1v-1.4h-24zm95.1-102.7c3.3 3 5.5 5.1 7.8 7.2.4-.2.9-.5 1.3-.7-.5-3.1-1-6.3-1.6-9.8-2.8 1.2-4.6 2-7.5 3.3zm47.7 55.9c-2.9 5.9.2 7.8 4.6 9.4 1-1.6 1.9-3.1 2.9-4.9-2.7-1.6-5-3-7.5-4.5zm12.4 5.3c-1.5 3.1-6.9 3.6-4 8.2.3.5 2.9.4 3.8-.2 2.6-1.9 4.3-4.4.2-8zm-11.9-63.2-.8.8c1.3 3.2 2.5 6.5 4 9.6.4.8 2.1 1 3.2 1.5.3-1.3 1.4-3.1.9-3.7-2.2-2.9-4.8-5.5-7.3-8.2zm65 96.6c-5 .4-9.5.8-14 1.2 4.9 1.8 11-.5 12.7 7.7.4-.5.9-.9 1.3-1.4V387zm-124.2 17.3c-9.5-.2-19-2.1-28.3 1.5 9.5-.5 18.9-1 28.3-1.5zM253.8 186c-2.9-2.2-4.8-3.7-6.8-4.8-.2-.1-2.5 2.5-2.3 2.8 1.3 1.7 2.8 3.3 4.5 4.5.6.3 2.2-1.2 4.6-2.5zm16.5 153-10.5 9.9c6.1-.8 11.9-7.2 10.5-9.9zm-25.2 24.9-1.8-.9c-2 3.3-4 6.6-6 10 .6.3 1.2.7 1.8 1 2.2-3.3 7.6-4.8 6-10.1zM97.8 389.7v.9h16.7c0-.3 0-.6-.1-.9H97.8zm128.9-187.2c-3-1.8-4.9-3-7.5-4.6.7 3.7 1.1 6.4 1.9 10.9 2.3-2.5 3.7-4.2 5.6-6.3zm-26 148.5c2.5 1.1 4 1.8 5.6 2.5.8-1.6 1.4-2.9 2-4.1.5-1.1.9-2.3 1.3-3.5-.5-.4-1-.7-1.4-1.1-2.3 1.8-4.4 3.6-7.5 6.2zm98.5-13.3c-.9-6.8-4.6-9.5-10.1-8.2 3.3 2.7 6.2 5.1 10.1 8.2z"/>
  <path d="M13.2 331.7c-.4-4.7-1-9.6-1.1-14.5-.1-8.7.1-17.3.4-26 .5-14.8 1.5-29.7 1.6-44.5.1-14.1-1-28.2-.9-42.3.1-22.2.8-44.4 1.1-66.6.1-6.6 0-13.3 0-22.1 14.2 12.9 30.1 19 46.6 24 .6 9.9 7.7 16.2 12.9 23.9 4-1.9 6.2-3.6 4.4-8.6-1.3-3.6-.9-7.8-1.2-10.9 17.1 1.4 33.3 2.7 50.3 4-1.9 2.3-3.8 5.1-6.2 7.3-3.9 3.6-7.8 7.3-12.4 9.9-6.1 3.5-12.8 6.1-19.2 9-7.8 3.4-15.3 7.1-20.4 14.2-5.4 7.4-3.5 15.5 5 19.6 7.5 3.6 14.9 7.3 23.6 8.6 4.3.7 7.7 7.6 11.5 11.7-3.1 3.2-5.7 7.9-9.5 9.3-10.7 3.9-20 8.9-25.9 19.1-3 5.1-2.8 9 .8 13.7.8 1 1.4 3.1.8 3.9-5.6 9.3-4 19.4-3.6 29.4.2 6.5.2 13 0 19.5 0 1.2-1.5 3.3-2.5 3.4-13.2 1.3-26.4 2.3-39.6 3.5-5 .3-9.9.9-16.5 1.5zm43.5-152.2c-7.5-3.7-14-7.1-20.8-10.1-1.4-.6-4.1-.5-4.9.5-1.2 1.4-2.4 4.5-1.7 5.5 2.4 3.3 5.3 7.8 8.7 8.5 5.9 1 12.8 1.7 18.7-4.4zm-14 62.4c2.3 0 3.5.4 4.2-.1 5-3.4 10-7 14.9-10.7.5-.4.8-1.9.4-2.3-.6-.7-1.8-1.3-2.7-1.3-4.8-.1-10-1-14.3.5-3.5 1.1-7.6 4.7-8.5 8-1.2 4.2 3.5 5.5 6 5.9z" fill="#fff"/>
  <path d="M243.4 204.6c4.6 3.4 9.2 5.6 12 9.2 1.7 2.2 1.2 6.6 1 9.9-.2 3.2-1.6 6.2-2.2 9.4-1.4 6.5-6.3 10.9-11.6 12.1-9.2 2.1-12.5 10.4-19.4 14.6-.6-.7-1.5-2.9-2.6-2.9-1.5-.1-3.3 1.2-4.4 2.4-2.9 3-5.4 6.2-8.1 9.3-.6-.5-1.2-.9-1.8-1.4 1.7-6.2 3.2-12.5 5-18.7 1.8-6.2 3.9-12.2 5.7-18.4 1.9-6.3-1.8-14.9-8.1-19.5-4.2-3-8.2-6.5-12.5-9.2-2.9-1.8-2.1-2.9-.8-5.4 1.5-3 1.5-6.8 2.2-10.3-.6-.1-1.1-.3-1.7-.4-1.6 3.8-3.3 7.6-5.5 13-3.7-3.8-6.7-7-10.8-11.3.4 3.7.6 5.7.9 8.1-3-1.2-5.9-2.4-8.7-3.6-.5.5-1 .9-1.5 1.4 2.1 3.1 4.2 6.2 6.6 9.8-5.8.2-10.9-1.6-15.1-5.5-3.3-3.1-5.2-2.3-7 .7 2.2 3.1 4.3 6 6.1 8.5-5.3 2.4-13.6 0-23.9-7.9-3.1 4.6-2.8 5.3 3.9 10.4-4.7 1-10.9-2.1-22.1-11-1 1.9-1.7 3.8-2.9 5.4-1.4 1.8-2.9 4-4.8 4.5-1.3.3-3.2-2-4.9-3.2-1.9-1.4-3.7-2.9-6.2-4.7.2-1.1.6-3.4 1-5.6-.7-.2-1.3-.4-2-.6-1.5 3.6-4.3 7.3-4.3 10.9.1 4.9-1.9 3.6-4.2 2.5-5.1-2.5-10.4-4.7-15.1-7.9-3.2-2.2-3.1-6.4-.5-9.1 6.6-6.9 15.4-10.4 24.2-13.7 3.4-1.3 7.2-2.4 10-4.6 11.1-9.1 21.5-19.2 32.8-28 11.7-9.1 24.9-15.2 39.7-17.9 20.1-3.8 36.8 2.8 51.6 15.8 2.5 2.2 4.5 5.1 6.7 7.8 2.3 2.9 3.2 5.3-.2 8.7-2.1 2.2-2.3 6.5-2.7 10-.6 4.6-.6 9.3-.9 14.1-5.9-3.2-10.2-6.1-15-8-5-1.9-10.5 2-10.4 7.1.5 14.7 3.4 28.9 11.3 41.5 1.8 2.9 6.9 6.1 9.9 5.5 7.9-1.4 11.6-6.4 11.6-12.5-.3-3.4-.3-7-.3-11.3zM466 167.2c0 1.6.1 3.3 0 4.9-.5 12.6-5.4 16.6-17.8 14.4-7.8-1.4-12.8 1.9-14 9.1-2 12-2.8 12.4-14.6 13.9-15.9 2.1-30.5-1.8-44.4-8.9-9.2-4.7-14.5-13.4-19.1-22.4-1.1-2.1-2.7-4.1-4.4-5.6-4.2-3.6-3.9-6.8.7-9.4 1.4-.8 2.7-3.2 2.7-4.8-.1-8.2.6-15.9 4.3-23.5 4.8-9.7 11.5-16.9 22-19.8 6.7-1.9 13.6-4 20.5-4.1 8.3-.1 16.9 1.1 24.9 3.4 6.8 1.9 13.7 5.3 19.3 9.7 7.8 6.2 14.4 13.8 16.6 24.1 1.4 6.3 2.8 12.5 4.2 18.7l-.9.3zm-70.2 16.1c-.8.7-3.5 2.1-4 4-.6 2.3 0 5.9 1.6 7.6 4 4.6 8.9 7.5 15.4 8.7 10.3 1.9 18.5-.7 23.2-10.7 2.1-4.4.9-7.1-4-7.5-10.1-.8-20.3-1.4-32.2-2.1zm39.2-32.4c-5.6 5.1-5.7 5.1-8.7 3 1.7-1.4 3.5-2.9 5.3-4.3-7.1-.2-12.9.6-18.8 1.5-.7.1-1.4.3-2.1.4-2.3.2-4.6.3-6.8.7-1.2.2-2.4.9-3.6 1.4.9 1.1 1.7 2.8 2.8 3.1 5.7 1.4 11.5 2.2 17.2 3.6 5.7 1.4 12.9-2.6 14.7-9.4zm-18.7 16c1.9 1 3.7 1.5 4.6 2.6 1.1 1.3 2.2 3.2 2 4.7-.1.9-2.5 1.7-4 2.4-1 .5-2.2.7-3.3 1.1 1 1.1 1.8 2.7 3 3.1 4.7 1.5 7.5-1.4 9.9-4.8 2.3-3.2 1.6-6.5-1.2-8.7-3.1-2.6-6.7-4.4-11-.4zm-12.4-4H402c-1.3 2.5-3.3 4.9-3.7 7.5-.2 1.3 2.3 3.1 3.6 4.7 1.6-2.4 3.7-4.6 4.6-7.2.4-1.3-1.7-3.3-2.6-5zm32.6 1.4c-1.7 3-3.2 5.5-4.7 8.2 1.7 1.6 3.2 2.9 4.5 4.2 6.2-5.3 6.3-6.6.2-12.4zM146.5 337.6c1 9.7 4.3 12.8 14.1 13.1-1 .7-1.5 1.2-2 1.3-14 .4-27 5-40.4 8.4-18.7 4.7-37.3 7.6-56.4.8-12.7-4.5-25.9-7.3-38.9-10.8-.8-.2-1.7.2-2.5.2-6.4-.4-10.4-7.3-7-12.6.9-1.4 3.6-2.1 5.6-2.3 13.7-1.2 27.4-2.6 41.2-3.1 5.4-.2 10.8-1.4 16.5 2.5 4.7 3.3 11.2 4.7 17.3-.1 2.1-1.7 6.5-1 9.8-.6 10.4 1.3 20.6 3.1 31 4.3 3.7.3 7.5-.7 11.7-1.1z" fill="#fff"/>
  <path d="M124.5 218.9c-.8 5.3-1.5 10.7-2.3 16.1.5.2 1 .4 1.4.6 4-5.7 8-11.3 12-17-.4-.3-.8-.6-1.1-1-1.5.9-3 1.9-5 3.2 2.4-5.2 6.5-6.2 13.3-4.1 1.1.3 2.8.9 3.2.5 8.7-8.6 16.8-2.4 25 1 4.7 2 9.4 4.2 14.2 5.9 1.5.5 3.5-.5 5.2-.9-.9-1.3-1.5-2.9-2.6-3.9-3.6-2.9-7.3-5.6-10.8-8.2 1.8-2.3 3.2-5.4 5.5-6.6 2-1 5.8-.5 7.5.9 6.9 5.8 13.4 12.1 19.9 18.4.9.9 1.3 2.9 1 4.2-2.9 10.5-6.2 20.8-8.8 31.3-.8 3.2.3 6.9.1 10.4-.1 1.6-.7 4.1-1.8 4.7-2.3 1.1-5.2 2-7.6 1.5-1.3-.3-2.1-3.4-3.1-5.2 1.9-.3 3.7-.6 6.3-1.1 3.6-6.3 2.5-11.8-6-15.9-9.4-4.6-19.6-7.2-30.5-5.3-3.8.7-8-.5-11.9-1.4-5.1-1.2-10.1-3-15.7-4.8 4.7-4.2 8.6-7.7 12.6-11.2-.4-.6-.9-1.1-1.3-1.7-5.3-.7-9 3.2-11.7 6.5-4.3 5-8.4 5.5-14.4 2.4 3.6-8.9-.6-15.7-7.2-21.6 4.8.8 9.7 1.5 14.6 2.3zm64.5 15.5c-2.3-1.7-3.4-3-4.8-3.4-5.6-1.7-11.2-3.4-16.9-4.6-1.1-.2-2.6 1.6-3.9 2.5 1.1 1.4 2 3.6 3.4 4 5.2 1.7 10.6 3 16 4 1.5.2 3.4-1.3 6.2-2.5zm-30.7-1.7c.3-.5.7-1 1-1.5-1.9-.7-3.8-1.9-5.7-1.9-3.9 0-7.5 2.1-7.4 5.9 0 2.7 2.4 6.5 4.8 7.8 4.7 2.6 8.7.4 11.6-5.3h-10.5c-.2-.8-.4-1.6-.6-2.3 2.2-.9 4.5-1.8 6.8-2.7z" fill="#fff"/>
  <path d="M179.8 283.9c-2-3.7-3.9-7.4-5.9-11.1-.6.2-1.3.4-1.9.6.6 4.9 1.3 9.7 1.9 14.6-.5.1-1.1.2-1.6.3-1.9-3.7-3.9-7.4-6-11.3-2.8 3.3-2.8 3.3.3 11.7-4.1-2.6-7.3-4-9.8-6.3-3.9-3.6-8.2-4.7-13.3-4.9-12.9-.6-25.8-.9-38.6-2.4-7-.8-14-3.3-20.5-6.1-2.8-1.2-6.4-5.4-6-7.8.4-3.6 3.3-7.6 6.4-9.9 12.4-9.1 26.3-8.1 40.1-4.1 14.6 4.2 29.1 8.9 43.5 13.9 3.9 1.4 9 3.5 10.6 6.7 2.2 4.6 1.5 10.5 2.1 15.8-.5.2-.9.2-1.3.3zM480.4 185c-.9 7.3-1.4 14.1-2.8 20.6-1.8 8.3-4.9 16.3-6.5 24.6-.9 4.4.1 9.2.4 13.9.3 4.4-1.4 7.1-5.9 8.3-7.7 2-15.3 4.7-23.1 6.2-3.5.7-7.4-.8-11.6-1.3.8-4.6 1.5-9.1 2.2-13.7.8-5.1 1.5-10.2 2.1-15.3 1.2-10.2 2.3-20.4 3.4-30.5.4-3.4 1.7-4.9 5.7-4.2 6.1 1 12.1.7 18-1.8 5.6-2.5 11.5-4.4 18.1-6.8zM458 227.2c-1.1 4.2-1.9 8.5-3.3 12.6-1.4 4.2-3.3 8.2-4.9 12.4.6.2 1.3.5 1.9.7 5.6-7.5 7-16.7 9.9-25.9-1.7.2-2.8.3-3.8.4l9.9-26.1c-.4-.2-.8-.5-1.2-.7-5.1 5-6.5 12.3-9.2 18.7-2.9 6.8-5.2 13.9-8 21.7.9-.5 2.1-.8 2.4-1.5 2.3-4 4.2-8.2 6.3-12.3zM147.9 333.9c-17.4-1.7-34.1-3.4-50.6-5.1-.3-.5-.7-.8-.7-1.1-.4-13.1-.9-26.2-1.2-39.3 0-2.2.8-4.6 1.7-6.6.4-.8 2.2-1.3 3.4-1.2 6.3.5 12.5 1.2 18.8 1.9 1.7.2 3.6.5 4.8 1.6 4.3 3.8 8.1 7.9 12.3 11.8 2.6 2.4 5.8 4.3 8.3 6.8 1.4 1.4 2.9 3.5 3 5.3.4 8.3.2 16.6.2 25.9zM213.8 371.8c-.5 2-1.2 5-2.2 9.6-1.3-3.1-2.5-5.1-2.9-7.2-.4-2.1.1-4.4.2-6.7-.7-.2-1.4-.3-2-.5-1.3 2.3-2.5 4.5-3.9 7.1-1.8-4.9 1.1-11.4 6.3-17.9 5.6-7.1 10.8-14.6 15.4-22.4 2-3.4 2.7-7.7 3.3-11.7.5-3.4 1.2-4.7 4.6-2.6 5.1 3.1 10.5 5.8 15.5 9.1 3.5 2.3 5.1 5.2 3.3 10.1-3.7 10.3-8.7 19.5-16 27.7-2.1 2.3-2.2 6.5-3.4 10.4-2.2-1.6-5-3.8-8.9-6.7v8.9c-6.3 1.2-2.9-7.2-9.3-7.2zM182.6 353.5c-1.9 1.4-3.6 3.6-5.7 4.2-20.4 5.6-40.8 10.8-61.2 16.3-7.3 2-14.4 5.1-21.9 6.4-6 1-12.7 1.3-18.6-.2-15.7-4-31.1-9.2-46.6-13.9-5.5-1.7-11-3.6-16.8-5.5.7-2.5 1.1-4.3 1.8-6.7 4.8 1.8 9.3 3.8 14 5.1C41.8 363 55.9 367 70.3 370c7.6 1.6 15.8 2.1 23.5 1.6 7-.5 13.8-3.5 20.8-4.9 13.2-2.8 26.5-5.2 39.8-8 8-1.7 15.9-3.8 23.9-5.7 1.1-.3 2.3-.5 3.4-.8.3.3.6.8.9 1.3zM392.4 219.2c.9 2.1 1.7 4.2 2.6 6.3 2.2 5.4 5.2 6.6 10.8 5.4 2.5-.6 6.1 1.2 7.8 0 5.7-4 9.4.3 13.8 2.1.5.2 1.2-.3 1.9-.5-.3 2.9-.3 5.6-.8 8.1-.5 2.8-1.5 5.5-2.3 8.6-5.7-5.7-5.7-5.7-16.3 5.3-2.7-3.8-5.3-7.5-8.4-11.8-2.6 2.5-4.9 4.7-7.1 6.9-3.5-2.4.8-8.6-4.7-11.2-.6 2.7-1.7 4.8-1.5 6.8.5 6.2-2.8 6.5-8.5 5.2 3.5-10.6 6.9-21.1 10.3-31.5.8.2 1.6.2 2.4.3zM153.5 341.5v-47c5.4.7 10.1 1.4 15.3 2.1v37.8c0 .7-.5 1.3-.4 2 .2 8.5-2.6 10.4-10.5 6.9-1.4-.6-2.7-1.1-4.4-1.8zM78.8 278.8c4.7 1.5 8.7 2.8 12.3 3.9-2.6 16.1-.1 32.2-1.5 48.3-2 .1-3.8.2-5.6.3-3 .1-5.1-.8-5.1-4.3v-4.9c-.4-12.7-.8-25.4-1-38.1-.1-1.8.6-3.6.9-5.2zM172.1 368.1c.2-.4.5-1.9 1.3-2.4 3.7-2.1 7.5-4 11.4-5.9.4-.2 1.1-.2 1.6-.1 4.7.9 10.6 11.2 8.6 15.5-.3.7-1.9 1.2-2.9 1.3-5.4.8-10.2 2.8-13.1 7.8-2 3.3-3.9 1.8-4.5-.5-1.1-4.8-1.5-9.8-2.4-15.7zM247.8 12.7c-6.7 7.7-12.8 14.7-19.1 21.9-4.3-6.9-9-14.4-13.7-21.9h32.8zM79.8 425.7c2.1-3.3 3.8-6.1 5.5-8.9h-1.1c-.3-2.1-.8-4.3-.8-6.4.1-4.6.3-9.2.7-13.7.1-1.2.9-2.4 1.4-3.6 1.5.8 3.9 1.2 4.3 2.4 1.8 4.4 3.3 9 4.2 13.6.6 3.2.5 6.6.1 9.9-.3 2.5-1.4 6.8-2.4 6.9-3.9.4-8.5 4.5-11.9-.2zM65.7 386.8H44.2c-3.8 0-7.6.3-11.5.3-3 0-6.5 1-6-4.5.3-3-.9-6.2-1.6-10.3 14.8 4.7 27.9 8.9 40.9 13-.2.6-.3 1-.3 1.5zM101.2 385.5c14-4.1 26.7-7.9 39.6-11.7 2.4 3.4 4.8 6.7 8.4 11.7h-48zM246.1 302.4c-4.8 4.2-7.2 3.5-11.2.7-4.8-3.3-1.5-6.4-1.7-8.4-3.9-.9-7.1-1.6-10.3-2.3.9-4 1.6-7.1 2.6-11.4 3.1 2.7 6.8 4.6 8.5 7.6 4.3 7.4 10.1 13.3 17.1 17.9 4.2 2.8-1.2 6.1 1.3 8.8-.4.4-.9.7-1.3 1.1-2.5-1.9-5-3.9-7.1-5.6.6-2.6 1.2-4.6 2.1-8.4zM276.5 299.5c-.5 4.4-.7 8.4-1.5 12.2-.2.8-3 1.9-3.9 1.5-8.9-4-8.3-9.9-5.9-18.6.6-2.3 2.4-4.4 4-6.2 2.2-2.4 5.3-1.6 5.9 1.4.7 3.3 1 6.7 1.4 9.7zM380.4 280c-5.2-7.3-3.6-14.8-2.6-22.2.1-.9 2.6-2.2 4-2.2 2.1.1 5.2.6 6 2 1.8 3.2 2.6 7 3.4 10.6.2 1.1-.6 2.8-1.4 3.7-2.9 2.8-6 5.2-9.4 8.1zM288.9 351.5c4.1 3.6 7.7 6.7 11.4 9.8-.6.8-1.3 1.6-1.9 2.4-.6.8-1.1 1.7-1.7 2.5-6.4 9.5-12.5 9.1-17.6-1.2-.5-1 .3-3.1 1.1-4.1 2.1-2.7 4.6-5.1 8.7-9.4zM285.1 376.6c-1 2.3-1.7 3.9-2.6 6 3.1-1 5.3-1.7 8.9-2.9-5.2 9.6-21.6 4.4-25.4-4.6 1.7-2.2 3.3-4 4.8-6 1.6-2.3 3.3-3.5 5.8-1 2.7 2.9 5.6 5.6 8.5 8.5zM310.7 370.8c-1.9-2.8-3.8-5.6-6.4-9.4.2-2 6.1-4.8 2.1-9.3-.7.3-1.1.4-1.3.6l-5.1 6c-2.7-2.3-5.5-4.6-8-7.1-.4-.4.1-2.7.8-3.2 2.3-1.5 6.2-4.3 7.1-3.6 4.5 3.5 9.6 7.4 11.9 12.4 1.9 3.9 4.4 10.3-1.1 13.6zM273.8 361c-2.8-2.6-5.6-5.2-8.5-7.9 1.7-2.2 3.1-4.5 5-6.3 3.8-3.8 8.3-3.9 12 0 3.1 3.2 1.5 6.3-1.4 8.8-2 1.8-4.3 3.3-7.1 5.4zM160.6 397.4c4.6-3.8 5.8-17 1.9-22.1 1.7-1.2 3.5-2.4 6.1-4.1.9 7.5 2 14.2 2.4 21.1.4 7.6-3.1 9.2-10.4 5.1zM253 363.4c3.2-2.4 5.9-5.4 9.3-6.6 1.4-.5 4.4 2.6 6.2 4.5 2.2 2.3.1 6.8-4 9.6-3.8 2.5-7.6.1-11.5-7.5zM173.4 307.5c2.9-2.3 5.1-4 7.7-6.1 3.2 2.9 6.5 6 10.6 9.6-3.7 2.8-7.6 7.2-9.3 6.5-4.4-1.8-9.3-4.8-9-10zM418.9 258.4c3.2 3.4 6.2 6.6 9.3 9.8-10.9 3.6-21.4 3-31.9-4 1.4-1.9 2.7-3.7 4.3-5.9 2 3 3.4 5.4 5 7.4 3.2 4 5.8 3.9 8.8-.3.8-1.2 1.4-2.5 2.1-3.7.6-1 1.4-1.9 2.4-3.3zM203.5 321.4c-3.5 3.1-7 7.7-8.6 7.1-3.4-1.3-7-4.8-8-8.1-.5-1.8 4.2-5.2 6.5-7.8 3 2.6 6.1 5.3 10.1 8.8zM332.9 351.9c6.1 2.4 7.5 5.2 5 10.4-1.9 4-4.2 7.7-6.6 12.1-2.7-2.4-5.6-3.7-3.5-8.2 2-4.4 3.3-9.3 5.1-14.3zM174.1 315.2c1.7 1.6 2.9 2.2 3.2 3.1 2.2 6.3 8.5 8.2 13 11.9 2.3 1.9 2.9 3.6.7 5.6-1.9 1.8-3.9 5.4-6.8 1.7-2.2-2.8-3.7-6.2-5.5-9.4-1.6-3-3-6-4.4-9-.3-.9-.1-2-.2-3.9zM385.9 328.4c1.9.6 3.5 1.2 5.2 1.6.7.2 1.9-.1 2.1.3 4.1 9.1 9.9.9 14.7 1.5 3.3.4 6.5 1.9 9.9 3-3 5-14.3 5.3-24.9.8-8-3.3-8-3.3-7-7.2zM412.3 325.1c5-2.6 7.4-1.7 10.1 3.1h28.8c-4.6 7.6-27.1 5.1-38.9-3.1z" fill="#fff"/>
  <path d="M176.8 393.2c3.2 4.8 5.8 8.8 8.8 13.4-15.7.7-30.9 1.4-46 2.1-.1-.3-.2-.7-.3-1 .9-.3 1.9-.8 2.8-.8 8.6-.4 17.1-.8 25.7-1.1 4.3-.2 8-4.7 8.2-9.9 0-.7.3-1.2.8-2.7zM386.3 310.8c6-.7 10.6-1.2 16.4-1.8-.2 3.5-.1 9.1-.6 9.2-4.4.5-9 .5-13.3-.5-1.2-.4-1.6-4.4-2.5-6.9zM223.1 316.5c-3.5 4.5.8 11.2-4 14.3-2.9-2.5-4.9-4.6-7.3-6.2-2.2-1.5-3.5-2.9-1.8-5.5 2.4-3.8 5.6-5.1 8.4-3.7 1.2.5 2.7.6 4.7 1.1zM286.9 331.4c1.5 1.9 2.6 3.6 4 5 5.1 5.1 5.2 5.2-.5 9.7-.9.7-3.5.7-4.4-.1-9.4-7.5-8-5.4.9-14.6zM23.5 401.3h-9.4c4.5-11.7 4.6-14.4 1.7-16.9.8-4.4 1.4-8 2-11.6.4.1.9.1 1.3.2 1.4 9.1 2.8 18.2 4.4 28.3zM214.3 331.2c-2 2.6-3.9 5-6.2 7.9-3.3-2.3-6.4-4.5-9.7-6.9 2.5-3.1 4.6-5.8 6.9-8.7 2.9 2.5 5.6 4.8 9 7.7zM309.8 372.2c-4.9 2.9-8.5 5.3-12.4 7.2-.9.5-3-.2-3.8-1.1-.6-.6-.4-2.7.3-3.6 2.2-3 4.7-5.8 7.2-8.9 2.6 1.9 4.9 3.6 8.7 6.4zM214.2 279.4c-2.7 4.8-5.5 9.6-8.2 14.4-4.5-1.9-8.6-3.7-12-5.2 6-3.2 12.7-6.7 19.3-10.1.3.4.6.7.9.9zM429.7 307c-.3 1.7-.2 5.4-.9 5.6-4.4 1.1-9 1.6-13.6 1.7-.8 0-1.6-3.3-2.8-5.9 6.2-.5 11.2-.9 17.3-1.4zM204 342.2c-1.8 2.3-3.4 4.4-5.1 6.7-1.9-1.3-3.6-2.4-5.3-3.6-3.8-2.6-2-5.7-.3-8.2 2.3-3.4 4.2-.7 6 1 1.5 1.3 3 2.5 4.7 4.1zM29.8 11.7c-5.2 3.6-9.9 7-15.1 10.6-.2-2.9-.3-5.3-.4-7.6-.1-4 2.1-5.4 5.8-4.8 2.9.5 5.9 1.1 9.7 1.8zM31.9 394c1 .5 2 .9 3.8 1.8-2 .9-3.3 1.5-5.2 2.3-.7-2.6-1.3-4.8-2.1-7.9h40.7v1.8h-37c-.1.6-.2 1.3-.2 2zM420.6 219.2c-2.6 2.3-5.6 4.9-9.1 8.1-2.4-2-5.9-5-9.6-8.1h18.7zM214.9 289.5c1.5 2.4 3.3 4.2 3 5.1-1.4 3.6-2.2 6.7 1.3 9.5.2.1-.6 2.3-1.3 2.5-1 .3-2.9.1-3.3-.6-1.8-3.1-3.8-6.4-4.4-9.8-.2-1.7 2.6-3.9 4.7-6.7zM275.3 335.7c.8-1.5 1.5-3 2.7-5.3-3.1 1.4-5.3 2.3-7.8 3.4-1.2-5.3 1.3-7.4 5.2-8.1 3.8-.7 7 1.3 7.2 4.7.1 3.8-4 4.7-6.5 6.5-.3-.3-.5-.8-.8-1.2zM243 373.4c2.3-1.6 5.3-5.1 6.8-4.5 3.3 1.1 5.9 4.3 8.7 6.8.4.4 0 2.4-.6 2.8-.9.6-2.4.8-3.3.4-3.7-1.6-7.2-3.4-11.6-5.5zM271 321.7c-1.9 1.5-3.3 3.3-5 3.7-1.9.5-5.4.5-5.9-.5-1.1-2.1-.9-5-1-7.6 0-.2 2.5-.9 3.4-.5 2.9 1.3 5.5 3.1 8.5 4.9zM97.8 395.3c15.6-.6 31.2-1.2 46.8-1.7 0 .3 0 .7.1 1-8.2.7-16.5 1.7-24.7 2.1-7.4.4-14.8.1-22.3.1 0-.5 0-1 .1-1.5zM232.2 407.2c-8.3 4.4-17 3.4-25.8.2 8.5-.6 17.1-1.2 25.6-1.8.1.5.2 1.1.2 1.6zM249.2 361.8c-6-6.3 4.7-8.6 2.8-13.9 7.3 5 7.3 5.2-2.8 13.9zM322.4 361.3c-1.3-6.3-2.5-11.9-3.6-17.4 7.7-.1 8.8 4.1 3.6 17.4zM316.1 373.7c-3.3 9-9.7 13.1-19.1 14.4 6.8-5.1 13-9.8 19.1-14.4zM256.4 346.6c-2-2.8-2-2.8 8.9-12.3 1 .8 2.1 1.7 3.5 2.9-4.2 3.2-8.1 6.2-12.4 9.4zM184.7 391.8c11.6-.8 23.2-1.7 34.8-2.5 0 .6.1 1.1.1 1.7-11.5.9-23.1 1.8-34.6 2.7-.1-.6-.2-1.3-.3-1.9zM175.5 302.9c-3.4-5.7-1.4-11.4 4.7-13.5.2 2.5 6.5 5.2-1.3 6.9-1.5.3-2.2 4-3.4 6.6zM220.2 193.3c4.2-7.1 7.4-1.1 11.2.3-.6 1.7-1.2 3.3-2 5.6-3.3-2.1-6.2-4-9.2-5.9zM236.8 310.7c-3.3 2.6-6.6 1.6-8.6-1.1-1.2-1.5-.5-4.5-.7-8.2 3.9 4 6.4 6.4 9.3 9.3zM270 386.4c-4-.5-8-.9-12.8-1.5 5.1-7.2 6.5-7.1 12.8 1.5zM571.9 12h10c.4 2 1 4.6 1.9 8.5-4.8-2.9-8.5-5.1-12.2-7.3l.3-1.2z" fill="#fff"/>
  <path d="M44.1 395.1h24v1.4H44c.1-.5.1-1 .1-1.4zM139.2 292.4c2.9-1.3 4.7-2.1 7.6-3.4.6 3.6 1.1 6.7 1.6 9.8-.4.2-.9.5-1.3.7-2.3-2-4.6-4.1-7.9-7.1zM186.9 348.3c2.5 1.5 4.9 2.9 7.5 4.5-1 1.7-1.9 3.2-2.9 4.9-4.5-1.6-7.6-3.5-4.6-9.4zM199.3 353.6c4.1 3.6 2.4 6-.3 8-.9.7-3.4.8-3.8.2-2.8-4.6 2.6-5 4.1-8.2zM187.4 290.4c2.5 2.7 5.1 5.3 7.3 8.2.5.6-.6 2.4-.9 3.7-1.1-.5-2.8-.7-3.2-1.5-1.6-3.1-2.7-6.4-4-9.6l.8-.8zM252.4 387v7.5c-.4.5-.9.9-1.3 1.4-1.7-8.2-7.8-5.9-12.7-7.7 4.5-.4 9-.7 14-1.2zM128.2 404.3c-9.4.5-18.9 1-28.3 1.5 9.3-3.6 18.9-1.7 28.3-1.5zM253.8 186c-2.4 1.3-4 2.8-4.5 2.4-1.8-1.1-3.3-2.8-4.5-4.5-.2-.3 2.1-2.9 2.3-2.8 1.9 1.3 3.8 2.7 6.7 4.9zM270.3 339c1.5 2.8-4.3 9.1-10.5 9.9 3.4-3.3 6.9-6.6 10.5-9.9zM245.1 363.9c1.6 5.4-3.8 6.9-6 10.1-.6-.3-1.2-.7-1.8-1 2-3.3 4-6.6 6-10 .5.3 1.2.6 1.8.9zM97.8 389.7h16.7c0 .3 0 .6.1.9H97.9c0-.3-.1-.6-.1-.9zM226.7 202.5c-1.9 2.1-3.3 3.7-5.6 6.3-.8-4.4-1.3-7.2-1.9-10.9 2.6 1.6 4.5 2.8 7.5 4.6zM200.7 351c3.1-2.6 5.2-4.4 7.4-6.2.5.4 1 .7 1.4 1.1-.4 1.2-.8 2.3-1.3 3.5-.5 1.3-1.2 2.5-2 4.1-1.5-.7-3-1.4-5.5-2.5zM299.2 337.7c-3.9-3.2-6.8-5.5-10.1-8.2 5.5-1.3 9.2 1.5 10.1 8.2z" fill="#fff"/>
  <path d="M248.9 257.4c3.2.6 5.5.3 6.7 1.4 4.7 3.9 9.4 8 13.6 12.5 2.2 2.3 1.9 5.3-.6 7.9-2.5 2.7-4.9 3.9-8.4 1.5-4.8-3.3-7.2-7.4-6.2-13.4.2-1.2-.5-2.6-1.1-3.8-.9-1.8-2.1-3.3-4-6.1zM271.1 216.7c.4-.8.8-2.4 1.3-2.5 7.3-1 14.5-2.1 21.8-2.3 2 0 5 2.9 5.8 5.1.6 1.6-.9 5.6-2.5 6.2-2.4 1-5.7.5-8.3-.3-5.8-1.7-11.5-3.9-18.1-6.2zM265.5 182.4c3-5.8 5.3-11.2 8.6-15.9 1.2-1.8 4.8-1.9 7.3-2.8.8 2.5 2.6 5.1 2.3 7.3-1 6.7-10.1 12.5-18.2 11.4zM56.7 179.5c-5.9 6.1-12.8 5.4-18.7 4.3-3.4-.6-6.3-5.2-8.7-8.5-.7-1 .5-4.2 1.7-5.5.8-.9 3.6-1.1 4.9-.5 6.8 3.1 13.3 6.5 20.8 10.2zM42.7 241.9c-2.5-.4-7.1-1.7-6-5.9.9-3.3 5-6.9 8.5-8 4.4-1.4 9.5-.5 14.3-.5.9 0 2.1.6 2.7 1.3.3.4.1 1.9-.4 2.3-4.9 3.7-9.8 7.2-14.9 10.7-.7.5-1.9.1-4.2.1zm10.2-8.9c-.2-.5-.5-1-.7-1.5-2.3.4-4.6.6-6.8 1.3-1 .3-1.7 1.4-2.6 2.1 1.1.7 2.5 2.1 3.3 1.8 2.4-.9 4.6-2.5 6.8-3.7zM395.8 183.3c11.9.8 22.1 1.3 32.3 2.1 4.9.4 6 3.1 4 7.5-4.8 10-12.9 12.7-23.2 10.7-6.6-1.2-11.4-4.2-15.4-8.7-1.5-1.7-2.1-5.3-1.6-7.6.4-1.9 3.1-3.3 3.9-4zM435 150.9c-1.8 6.8-9 10.8-14.7 9.4-5.7-1.4-11.5-2.2-17.2-3.6-1.1-.3-1.9-2-2.8-3.1 1.2-.5 2.4-1.2 3.6-1.4 2.3-.4 4.6-.5 6.8-.7.7-.1 1.4-.3 2.1-.4 5.9-.9 11.7-1.7 18.8-1.5-1.8 1.5-3.6 2.9-5.3 4.3 3.1 2.1 3.1 2.1 8.7-3zM416.3 166.9c4.3-3.9 8-2.2 11 .3 2.7 2.2 3.5 5.5 1.2 8.7-2.4 3.4-5.2 6.3-9.9 4.8-1.2-.4-2-2-3-3.1 1.1-.4 2.3-.6 3.3-1.1 1.5-.7 3.9-1.4 4-2.4.2-1.5-.9-3.4-2-4.7-1-1.1-2.7-1.5-4.6-2.5zM403.9 162.9c1 1.7 3 3.7 2.6 5-.8 2.6-3 4.8-4.6 7.2-1.3-1.6-3.9-3.4-3.6-4.7.4-2.6 2.4-5 3.7-7.5h1.9zM436.5 164.3c6.2 5.8 6.1 7.1-.2 12.4-1.4-1.3-2.8-2.6-4.5-4.2 1.5-2.7 3-5.3 4.7-8.2zM189 234.4c-2.8 1.2-4.6 2.7-6.1 2.5-5.4-1-10.8-2.3-16-4-1.4-.5-2.3-2.6-3.4-4 1.3-.9 2.8-2.8 3.9-2.5 5.7 1.2 11.3 2.9 16.9 4.6 1.3.4 2.3 1.7 4.7 3.4zM158.3 232.7l-6.9 2.7c.2.8.4 1.6.6 2.3h10.5c-2.9 5.7-6.9 7.9-11.6 5.3-2.4-1.3-4.7-5.1-4.8-7.8-.1-3.8 3.6-5.9 7.4-5.9 1.9 0 3.8 1.2 5.7 1.9-.2.5-.5 1-.9 1.5zM458 227.2c-2 4.1-4 8.2-6.2 12.2-.4.7-1.5.9-2.4 1.5 2.8-7.8 5.1-14.9 8-21.7 2.7-6.4 4.1-13.7 9.2-18.7.4.2.8.5 1.2.7l-9.9 26.1.1-.1z"/>
  <path d="M457.8 227.4c1-.1 2.1-.2 3.8-.4-2.9 9.2-4.2 18.4-9.9 25.9-.6-.2-1.3-.5-1.9-.7 1.7-4.1 3.5-8.2 4.9-12.4 1.4-4.1 2.2-8.4 3.2-12.6.1 0-.1.2-.1.2z"/>
  <path d="M273.3 23.6c2.4 3.7 4.2 6.3 6 9-1.6.4-3.4 1.4-4.8 1-4.5-1.6-3.6-4.9-1.2-10zM52.9 233c-2.2 1.3-4.4 2.8-6.7 3.7-.8.3-2.2-1.2-3.3-1.8.8-.7 1.6-1.8 2.6-2.1 2.2-.6 4.5-.9 6.8-1.3.1.5.4 1 .6 1.5z" fill="#fff"/>
  <text transform="translate(18.776 100.132)" font-family="Peanuts" font-size="75">WAAH!</text>
  <text transform="translate(263.555 49.702)"><tspan x="0" y="0" font-family="Peanuts" font-size="37">PRETTY HEART</tspan><tspan x="0" y="44.4" font-family="Peanuts" font-size="37">RENDING, ISN&apos;T IT?</tspan></text>
  <text transform="translate(499.253 419.35)" fill="#010101" font-family="BaskervilleT-Bold" font-size="26" letter-spacing="1">12-18</text>
  <text transform="translate(457.908 452.41)" fill="#010101" font-family="Peanuts" font-size="26" letter-spacing="4">SCHULZ</text>
</svg>
