<svg xmlns="http://www.w3.org/2000/svg" viewBox="0 0 595.3 473.8" xml:space="preserve">
  <path fill="#fff" d="M0 .3h592v473.2H0z"/>
  <path d="M0 473.8V0h595.3v473.8H0zm381.1-9v.3c12.6 0 25.3-.2 37.9.1 6.8.1 13.7 1.3 20.5 1.3 16.6.1 33.3-.4 49.9-.3 16.5.1 33 .7 49.6.9 12.9.2 25.7-.2 38.6.2 11.2.4 14.5-2.6 14.2-13.5-.4-14.5-.7-28.9-.7-43.4 0-16.3.7-32.5.7-48.8 0-10.7-.7-21.3-.9-32-.1-5.7 0-11.4 0-17.1 0-14.3 0-28.6.1-42.9.1-12.1.8-24.2.8-36.4 0-14.9-.6-29.8-.6-44.7 0-15.5.7-31 .7-46.5 0-9.9-.9-19.9-.9-29.8 0-9.7 1-19.4 1-29.1 0-10-1-19.9-1-29.9 0-13.2.7-26.4.8-39.6.1-6.4-1.7-8.1-7.9-8.1-12.1-.1-24.3.1-36.4 0-16-.2-32.1-.8-48.1-1-3.5 0-7 1.5-10.5 1.4-12.5-.3-25.1-1.2-37.6-1.4-10-.1-19.9.8-29.9.8-12.2 0-24.4-.8-36.6-.9-24.2-.2-48.4-.1-72.5 0-5.6 0-11.2.7-16.7.7-11.5-.1-22.9-.6-34.4-.6-7.2 0-14.5.4-21.7.6-7.4.2-14.8.4-22.2.3-8.3-.2-16.8-.9-25.3-1-5.4 0-10.9.9-16.3.9-8.1-.1-16.3-.8-24.4-1-9.1-.2-18.2 0-27.3 0-11.2 0-22.3.1-33.5 0-11.3-.1-22.7-.5-34-.5-13.4-.1-26.9.2-40.3 0-8.3-.1-9.7.9-10.8 9.3-1 8.4-1.3 16.7-.4 25.3 1 10.3-.9 20.8-1.1 31.3-.2 9.8.1 19.7.3 29.5 0 2.4-.5 5.5.7 7 1.9 2.2 1.8 3.4.3 5.5-.8 1.1-1.5 2.6-1.5 4-.2 8.1-.2 16.2-.2 24.3-.1 43.9 0 87.8-.2 131.7 0 8.6-1.1 17.2-1.2 25.8-.1 5.7 1 11.5 1.2 17.2.1 3.6-.9 7.2-.9 10.8.2 11.7.8 23.5.9 35.2.1 31.3 0 62.6 0 93.9 0 8.5 1.7 10.2 10.2 10.2 30.5.1 60.9.1 91.4.1 50.6 0 101.3.1 151.9.1 19.7 0 39.3-.1 59 0 12.6.1 25.2.9 37.8.9 9.2.1 18.4-.7 27.5-1.1z" fill="#fff"/>
  <path d="M381.1 464.8c-9.2.4-18.4 1.2-27.5 1.2-12.6 0-25.2-.8-37.8-.9-19.7-.2-39.3 0-59 0-50.6 0-101.3 0-151.9-.1-30.5 0-60.9 0-91.4-.1-8.5 0-10.2-1.8-10.2-10.2 0-31.3.1-62.6 0-93.9 0-11.7-.7-23.5-.9-35.2-.1-3.6 1-7.2.9-10.8C3.1 309 2 303.2 2 297.5c.1-8.6 1.2-17.2 1.2-25.8.2-43.9.1-87.8.2-131.7 0-8.1 0-16.2.2-24.3 0-1.4.7-2.9 1.5-4 1.6-2.1 1.6-3.3-.3-5.5-1.3-1.5-.7-4.6-.7-7-.1-9.8-.4-19.7-.2-29.6.2-10.4 2.1-21 1.1-31.2-.9-8.6-.6-16.9.4-25.3 1.1-8.4 2.5-9.4 10.8-9.3 13.4.2 26.9-.1 40.3 0 11.4.1 22.7.5 34.1.6 11.1.1 22.3 0 33.5 0 9.1 0 18.2-.2 27.3 0 8.1.2 16.3.9 24.4 1 5.4.1 10.9-.9 16.3-.9 8.5.1 16.9.7 25.4.9 7.4.1 14.8-.1 22.2-.3 7.2-.2 14.5-.6 21.7-.6 11.5.1 22.9.6 34.4.6 5.6 0 11.2-.6 16.7-.7 24.2-.1 48.4-.1 72.5 0 12.2.1 24.4.8 36.6.9 10 0 19.9-.9 29.9-.8 12.5.1 25 1.1 37.5 1.4 3.5.1 7-1.4 10.5-1.4 16 .2 32.1.8 48.1 1 12.1.2 24.3 0 36.4 0 6.2 0 8 1.8 7.9 8.1-.2 13.2-.8 26.4-.8 39.6 0 10 1 19.9 1 29.9 0 9.7-1 19.4-1 29.1 0 9.9.9 19.9.9 29.8 0 15.5-.6 31-.7 46.5 0 14.9.6 29.8.6 44.7 0 12.1-.7 24.2-.8 36.4-.2 14.3-.1 28.6-.1 42.9 0 5.7-.1 11.4 0 17.1.2 10.7.9 21.3.9 32 0 16.3-.7 32.5-.7 48.8 0 14.5.2 28.9.7 43.4.3 10.9-2.9 13.9-14.2 13.5-12.8-.4-25.7 0-38.6-.2-16.5-.2-33-.8-49.6-.9-16.6-.1-33.3.4-49.9.3-6.8 0-13.7-1.2-20.5-1.3-12.6-.2-25.3-.1-37.9-.1 0-.1 0-.2-.1-.3zM26.6 74c-1.7 1.1-3.3 2.2-5 3.2-1.1.6-2.4 1.5-3.4 1.3-5.8-1-8.4 1-7.9 7.1h59.4v-9.2c-6.6 2.2-12.7 4.2-18.9 6.2-.1-.5-.3-1-.4-1.6 4.1-2.1 8.2-4.1 12.5-6.3C58 66.2 49.3 60.6 40 55.8c-1.9-1-4.2-1.4-6.4-1.5-6.4-.4-12.8-.5-19.2-.5-1.3 0-3.5.9-3.7 1.8-.7 2.9-.6 5.9-.9 9.4 3.4-1.6 6.1-2.9 8.8-4.3.3.6.6 1.1.8 1.7l-6.6 3.9c-3.5 2.1-3.6 3.3-.8 5.8 6.5-4.8 12.9-9.5 18.6-13.7 2.2 1.1 3.7 2.5 5 2.3 1.5-.2 2.7-1.8 4.1-2.9.9 8.6-6 10.4-10.5 14-.9.7-1.9 1.5-2.8 2.3l.2-.1zM408 293.7c-.2-.5-.4-1.1-.5-1.6-1.9 0-3.8-.1-5.7 0-5.6.2-11.2.8-16.8.6-2.9-.1-6.2-.8-8.5-2.4-7.5-5.2-15.4-5.9-24.2-5-5.4.6-11.8 2.4-15.6-4.5-.3-.6-3.6-.4-4.6.5-4.1 3.7-7.7 8-11.9 11.6-7.5 6.4-8.6 13.8-4.4 22.3 2.3 4.6 4.9 9.1 7 13.8.6 1.3 0 3.1 0 4.6-1.3-.4-3.1-.4-3.9-1.2-2.6-3-5.3-6-7.3-9.5-4.4-7.9-6.4-16.4-1-24.4 3.5-5.1 8.4-9.3 12.5-14 1.1-1.3 1.5-3.2 2.3-5-9.8-1.2-12.4-4.5-13.5-17-.2-2.5-1.5-6.2 3.8-6.5.9 3.2 1.9 6.4 2.6 9.6.9 4.5 3.9 7.4 8 8.4 4.6 1.1 8.3-.8 10.4-5.4 1.3-2.8 2.7-5.6 4.5-9.2 4.8 5.9-2.6 9.2-1 14.1h17.5c-2 2.4-3 3.6-4.8 5.8 8-1.6 14.8-2.6 21.4-4.4 5.8-1.6 6.9-1.3 7.6 4.3 6.1.3 12.2-7 19.3 1.5-6.1 1.7-11.5 3.3-17.2 4.9.5.4.9 1 1.3.9 8.1-.4 16.3-.4 24.4-1.3 5.1-.6 6.4-4.3 4.5-9.7-.8-2.2-1.3-4.5-1.9-6.7.6-.3 1.1-.6 1.7-.9 2.5 3.5 5.8 6.7 7.1 10.6.9 2.8-1 6.5-1.7 9.8.3.4.7.8 1 1.2 3.6-2.9 8.8-5.1 10.2-8.8 1.8-4.6-1.7-9.1-6.1-12.4-10.7-8-19.3-18.1-27.7-28.4-5.3-6.5-10.6-13.6-17.4-18.2-9.6-6.5-18.6-13.9-30.2-17.6-11.6-3.8-22.8-5-34.3-2.7-19.1 3.8-33.1 14.8-41.7 32.5-7.3 15.2-11.7 30.8-9.7 48.1 1.4 11.8 6.4 21.4 13.3 30.5 1.9 2.5 3.1 5.6 4.7 8.5-.7.4-1.3.9-2 1.3-3.7-3.5-7.7-6.7-10.9-10.6-3.5-4.4-8-9.2-8.9-14.4-2.1-12.7-4.1-25.2-.8-38.6 5.6-22.2 14.8-41.3 34.7-53.9 7.8-4.9 16.3-7.9 25.5-8.9 9.5-1 19.3-2 28.3 1.4s17.8 7.7 26 12.7c6.4 3.9 12 9.1 17.6 14.2 5.9 5.5 11.7 11.2 16.9 17.4 5.7 6.8 10.3 14.3 18.2 19.3 5.8 3.7 10.3 9.6 9.8 16.8-.5 7.9-6.6 13.4-15 15.2-2 .4-4.4-.1-6 .9-7.2 4.2-10.4 14.8-6.5 22.1 3.1 5.8 2.2 11-1.9 15.4-3.7 4-8.2 7.2-13.4 11.7 5.2 2 10.1 3.9 14.9 5.7 4.1-10.3 7.6-19.5 11.4-28.6.3-.7 1.9-1.5 2.6-1.3 1 .3 1.9 1.5 2.3 2.5.8 2 1.1 4.1 1.8 6.1 1.7 5.4 4 10.6 2 16.6-5.5 16.9-10.5 34-16.2 50.8-4.9 14.4-7.2 29.8-15.4 43.1-.6 1 .1 2.7.2 4.1 3-2.6 4.9-5.4 6.8-8.2 3.5-5.1 6.6-10.5 10.4-15.4 3.3-4.3 9.1-4.2 11 .3 1.6 3.9 2.6 8.8 1.8 12.8-1.7 8.2-4.6 16.1-7.4 24-1.2 3.4 1.1 4 3 4.2 4 .4 8.1.1 12.1.1 15.8-.2 31.7-.3 47.5-.5 5.7-.1 11.3-.9 16.9-.8 11.8.3 23.5 1.1 35.2 1.3 14.8.2 29.7-.3 44.5.3 4.4.2 5.3-1.6 5.5-4.9.2-4 .1-8.1 0-12.1-.4-8.6-.8-17.2-1.3-26-2.4 0-4.2.1-6 0-7.1-.2-14.5 1.3-20.2-4.9-.7-.8-2.8-.5-4.2-.4-3.5.2-6.9.6-10.3 1-3.4 2.3-7.2 4.3-11.2 5.4-2.9.8-6.3.1-9.3.9-11.7 3.3-22.7-.7-33.7-3.4-8-1.9-9.4-5.6-7.8-13.6h-65.2c-.1-.6-.3-1.2-.4-1.9 1.1-.6 2.1-1.6 3.3-1.7 4.8-.4 9.6-.5 14.4-.6 7-.2 14.1-.5 21.1-.4 7.9.1 15.8.8 23.7.8 1.1 0 3.1-2.5 3.1-3.8 0-1.6-1.6-4.5-2.8-4.6-6.8-.8-13.7-1.1-20.5-1.3-5.1-.2-10.3 0-15.4 0-1.3 0-2.6.1-3.8.1h-18.3c-.1-.6-.3-1.2-.4-1.8 1-.5 1.9-1.4 2.9-1.4 4.3-.2 8.5-.1 12.8-.2 13.4-.2 26.9-.6 40.3-.4 4.4.1 5.7-.8 5.6-5.3-.3-9.6-.2-19.2.2-28.8.4-11.2 1.5-22.3 1.9-33.5.3-9.5-.5-19.1.4-28.5 1.7-17.3 2.2-34.5 1.9-51.8-.2-14.3 0-28.5 0-42.8 0-6-.1-12 0-18.1 0-2.4.6-4.9.6-7.3-.1-8.7-.7-17.4-.4-26.1.3-11.4 1.8-22.8 1.9-34.3.2-13.6-1.8-27.3-.5-40.7 1.8-17.9.1-35.7.6-53.5 0-.9-.1-1.7-.2-2.6H372.1c4.9 7.1 10.2 14.1 14.7 21.5 11.8 19.4 1.5 38.5-14.5 47.1-12.9 7-27.3 9.1-42 9.7-9.7.4-19.5 1.3-29.9 2.1.8 2.2 1.7 3.7 1.9 5.2.6 4.1 1.6 8.4 1.2 12.5-1.3 11.4-10.7 18-16.8 26.5-.7.9-3 .7-4.6 1 .2-1.4-.1-3.4.8-4.2 8.2-8.8 7.3-18.4 2.7-28.2-2.7-5.8-7-11.2-13.2-12.3-10.1-1.8-20.5-1.5-30.7-2.6-10.4-1.1-20.7-2.6-31-4.1-8.2-1.1-16.4-2.2-24.6-3.6-14.3-2.3-28.5-5.1-40.2-14.3-3.7-2.9-7.1-7.1-8.8-11.4-4.4-11 0-20.9 6.6-29.5 4.4-5.7 10.1-10.4 15.8-16H81.7c-.2.7-.6 1.8-.6 2.8.3 8.4 1 16.7.9 25.1-.1 11.6-.8 23.2-.9 34.8 0 4-1.2 5.8-5.2 5.4.3 11.5-.1 12-11.2 11.8-4.8-.1-9.6-1-14.4-.9-5.1.2-10.2 1.7-15.3 1.9-8.2.3-16.4.1-25.3.1v293.3h36.1c6.2 0 12.4-.3 18.6.1 5.8.4 12-1.7 17.6 2.1-1.5 1.1-3.1 2-4.7 1.9-3.2 0-6.4-.8-9.7-.8-10 .2-20 .8-30 .9-6.9 0-13.8-.8-20.8-1-8.8-.2-8.9.1-7.6 10 11.6 0 23.3-.1 35 0 13.9.1 27.7.3 42.2.5 0-7.8-.5-16.9.2-26 .6-7.8 2.1-15.6 4.1-23.1.9-3.4 1.4-6-.7-9-1.5-2.1-2.7-4.6-3.4-7-4.2-14.1 1.5-25.8 9.7-36.7 9.9-13.1 23.1-22.3 36.5-31.3 4.7-3.2 9.6-6.2 14.6-9.4-5-3.8-9-7.3-13.5-10.2-10.4-6.5-17.5-15.5-22.1-26.8-1.5-3.8-4.1-7.2-6.7-10.5-3.8-4.9-6.5-9.4-2.7-15.8 1.6-2.6 1.1-6.6 1.3-9.9.5-7.6-.1-15.5 1.4-22.9 3.3-16.3 14.4-27.2 27.5-36.4 14.4-10.2 30.8-13.5 47.8-14.3 8-.4 16.1 1.3 24.1 2 17.6 1.3 30.7 11 42.4 23.1 7.1 7.4 11.9 16.3 17 25.2 9.5 16.8 9.2 34.9 6.8 52.4-1.6 11.7-7.9 23-16.7 32.7-12.8 14.1-29.3 18.3-46.3 21.6 3 13.8 6.1 27.8 9.1 41.9 3.2 14.8 1.3 28.7-7.8 41.1-2 2.7-4.3 5.3-7 7.2-9.7 6.9-7.4 17.3-8.1 26.8-.4 4.5.6 9.2.1 13.7-.2 2-2.3 4.7-4.2 5.4-4.5 1.8-5.8 3.9-3.9 8.5.9 2.2.1 5-.1 7.5-.2 2.2-.5 4.4-.8 6.8 1.9.1 3.3-.3 4 .3 5.5 4.3 12.2 4.4 18.6 5.9 3.8.9 9.3 2.2 8.1 8.4-.9 4.6-2.1 9.2-8.1 9.8-5.7.6-11.3 1.4-17 1.9-9.9.8-20.4-3.8-29.8 2.9-.9.6-2.5.2-3.7.5-1.3.3-2.6.8-4 1.3.1.4.2.9.2 1.3h72.2c-4.6-12-1.4-14.6 3.4-20.7 1.9-2.4 3.9-4.8 6.4-7.9-6.8.7-12.2 1.6-17.7 1.8-10.6.3-18.2-9-12.2-18.9 1.6-2.6 2-6 2.8-8.7-4.4-.5-7.6-.9-10.9-1.3 0-.6-.1-1.3-.1-1.9 1.9-.6 3.9-1.9 5.8-1.7 9 .7 10.4 0 14.7-8.9h-19.1c-.3-.6-.5-1.2-.8-1.8 1.6-.9 3.2-2.4 4.8-2.4 11.4-.2 22.8.4 34.1-.4 9.3-.6 18.4 2.7 27.7.5.7-.2 1.8 1.2 2.7 1.9-.1.5-.1 1-.2 1.5-5.4.3-10.7.6-16.6.9.7 3.1 1.3 5.7 2.2 9.6 4.9-7.5 6.3-.7 9 1.2 7.5-8.8 14.9-17.3 22-26.1 3.9-4.8 7.6-9.7 10.9-14.9 3.9-6.3 8.3-13.3 5.2-20.8-2-5-6.9-8.8-10.3-13.3-3.3-4.4-6.4-9-9.4-13.7-.5-.8.4-2.4.5-3.1 6.4 3.6 12.1 6.7 18.2 10.1.7-.9 1.7-2.3 3.1-4.1 3.5 4.1 6.8 7.8 9.9 11.8.5.6-.2 3.2-.8 3.5-2.3.8-4.9 1-7.4 1.4-.1.5-.2.9-.3 1.4 2.2 1.6 4.3 3.6 6.8 4.6 16.5 7.2 33.6 11 51.7 8.2 7.5-1.2 15.6-1 18.3-10.4.1-.2.6-.3.9-.4 0 .5-.1 1-.1 1.5 3.5.5 7.6 2.4 10.5 1.2 11.9-4.6 15.4-10.2 11.3-22.2-1.8-5.4-2.1-10 .4-14.8 1.3-2.4 3.4-4.6 5.1-6.9zM115.5 216c4.4 6.4 8.1 14.3 13.9 19.7 12.6 11.5 27.4 19.3 44.4 22.6 3.8.7 7.6 2.7 11.4 2.7 10 0 20-.2 29.9-1.5 19.2-2.4 33.9-12.3 43.1-29.4 4-7.5 6.9-15.7 6.5-24.6-.4-8.4.6-17-.9-25.1-2.1-11.2-6.9-21.5-13.1-31.3-8-12.7-18.6-21.8-32.2-27.9-12.7-5.7-26.1-5.4-39.7-5.8-14-.5-26.3 4-38.8 9.1-8.3 3.4-13.1 10.6-19 16.5-2.7 2.7-4.3 6.5-6.3 9.8-5.5 8.8-5.3 18.7-5.5 28.5 0 3 .5 5 3.5 6.5 2.2 1.1 3.9 3.4 5.8 5.2l-1.1 1.1c-5-4.2-7.4-3.6-9.7 2.6-1.6 4.2-.7 8 3 10.6 2.7 1.9 5.7 3.3 9 5.1-1.2 1.8-2.3 3.2-4.2 5.6zM296 117.8c.8-2.7 1.4-4.2 1.7-5.8 1.1-7.3-1.4-13.8-4.9-20-2-3.6-.4-6.9 3.6-7.2 10.8-.8 21.6-2.2 32.5-2.3 11.8-.1 23.5-.4 34.3-5.1 6.3-2.7 13-6.3 17.4-11.3 6.9-7.8 6.2-17.7 2.2-26.9-2.4-5.5-5.2-11.1-9-15.8-5.9-7.2-12.5-13.2-23.5-12.8-25.6 1-51.3 1-76.9 1.1-11.2 0-22.4-1-33.7-1.2-6.2-.1-12.5.8-18.7.8-7.7 0-15.3-.3-23-.5-7.8-.2-15.5-.6-23.3-.6-2.5 0-5.1.4-7.4 1.3-11.8 4.6-18.7 14.4-24.6 24.7-4.6 8-2.3 20.6 4.3 25.8 7.5 5.9 16.3 9.3 25.6 11.1 7.5 1.5 15.2 2.4 22.8 3.6 6.8 1.1 13.6 2.5 20.4 3.3 6.4.8 13 .8 19.4 1.5 9.5 1 18.9 2.6 28.4 3.6 7 .7 13.6-.5 19.7 6.2 6.3 6.9 11.9 13 11.1 22.9 0 .9.7 1.7 1.6 3.6zM94 435.9c1.7-5.1 4-10.8 5.5-16.8 1.1-4.5.2-8.4-5.2-10-1.8-.5-3.7-1.7-4.9-3.2-2.5-3.1-5.5-3.5-9.2-3.4-11.7.5-23.4 1-35.1 1.1-9.4 0-18.8-.8-28.2-1-8.1-.2-8.1 0-8.1 7.8 0 14.7-.2 29.4-.1 44.1 0 1.1 1.3 3.1 2 3.2 10.4.4 20.9.7 31.3.6 9-.1 18.1-.9 27.1-1 4.7-.1 9.3 1 14 .9 7.8-.1 15.5-.7 23.3-1 1.5-.1 3 0 4.5 0v-2.1c-4-.1-8-.2-12.1-.2-7.8.1-12.4-4.4-11-11.3h-7c-7.5.2-14.9.3-22.4.6-2.3.1-4.6.6-6.9.9-2.1.3-5.6 1.4-6 .7-3.2-5.7-8-1.9-11-1.1-4.5 1.1-4.5-.7-4.5-3.9-3 .6-5.6 1.2-8.2 1.5-1.3.1-2.8-.5-4.1-.8 1-.9 1.8-2.4 3-2.7 2.9-.7 6-1.1 9-1.3 14.9-1.2 29.2-8.2 44.8-3.4 5.7 1.9 12.1 1.3 19.5 1.8zm98.1-94.8c6.1-7.2 7.8-14.5 8.2-22.4.4-7.7 1-15.4 1.5-23.1l1.8-.3c3.4 6 .7 13.5 2.8 19.8 5.1-2.6 5.6-6.3 3.8-10.9-.7-1.8-.8-3.8-1.2-5.8-1.1-5.7-2.1-11.3-3.2-17-.5 0-1 .1-1.5.1-.3 1.5-.3 3.2-1.1 4.4-1.4 2.3-3 4.8-5.1 6.2-.7.4-3.5-2.2-5.2-3.6-1.9-1.7-3.2-3.2-5.4.2-1.9 2.9-4.7 5.3-7.5 7.5-1.1.9-3.2.4-5 .6 1.4-3.3 3.1-5.6 2.8-7.3-.3-1.5-2.9-3.3-4.7-3.6-2.3-.4-4.9.5-7.3 1.1-4.4 1.1-7.5.1-8.8-4.7-2.1-7.7-4.4-15.3-6.9-23.5-10.9 8.1-21.3 15.8-31.8 23.5-4 3-5.3 6.2-2.5 10.9 3.7 6.2 6.8 12.7 10.1 19.1 1.5 2.9 2.7 3.8 5.6 1.3 1.7-1.5 4.3-1.9 6.6-2.8.3.7.6 1.3.9 2-4.3 2.7-8.5 5.7-13 8-4.1 2.1-4.1 4.4-1.6 7.6.8 1.1 1.7 2.1 3.2 4 4.3-3.5 8.6-6.6 12.5-10.3 7.6-7.2 10.8-6.4 14.3 3.5 1.2 3.4 2.8 6.6 4.2 9.8 1.5 3.3 3.3 3.9 6 1 3.7-4 7.8-7.7 11.4-11.8 3.7-4.1 5.4-4.3 8.5.4 2 3 3.3 6.6 4.9 9.9.8 1.9 1.6 3.8 2.7 6.2zm175.2 84.3c1.5-.4 3.4-.5 4.7-1.4 2.1-1.5 4.1-3.4 5.6-5.5 2.9-4 6.5-4.5 10.3-2.2 3.9 2.4 6.3 6 5.2 11.1-.5 2.5-.4 5.2-.5 7.8.5.1 1.1.1 1.6.2 8.8-27.8 17.7-55.6 26.5-83.4-.5-.2-1-.4-1.5-.7-5.1 4.2-10.7 3.5-16.5 2.3-2.3-.5-4.9.4-7.2 1-2.6.6-5 1.7-7.6 2.6-.3-.6-.5-1.2-.8-1.9 2.6-1.3 5.3-2.5 8.8-4.2-5.2-3.6-9.8-6.7-14.7-10.1-5 11.9-10.1 23-14.4 34.4-2 5.3-4.5 11.4 2.6 15.6.7.4.9 2.2.7 3.3-1.1 6.1-2.4 12.1-3.5 18.2-1.3 8-3.1 9.8-10.8 11.5-1.5.3-3.3 1.6-4 3-1.2 2.6 3.3 9.4 7.2 9.9 1.9.2 4.8-2.2 6.1-4.1 1.5-2.1 1.6-5.1 2.2-7.4zM94.1 353.6c6.8 3.5 12.5 7.2 18.7 9.6 11 4.2 22.1 7.4 34.2 8.3 11.6.8 23.1.8 34.3-1.9 4.3-1.1 10.9-1.9 11-9.9-1.8 1.3-3.3 2.3-5.4 3.7-3.1-7.2-6-14.1-9.7-22.9-3.4 4.1-5.8 7.1-8.4 10.1-2.5 2.9-5 5.9-7.7 8.7-4.3 4.4-6.9 4-10-1.5-3.3-5.8-6.6-11.6-10.1-17.6-1 .4-2.1.6-2.9 1.3-4.8 3.8-9.6 7.6-14.2 11.6-3.1 2.8-5.7 4.5-7.9-.7-2.1-5-4.4-9.9-6.5-14.9-.6-1.5-.9-3.1-1.3-4.7-.7.8-1.5 1.5-2.2 2.3-3.7 5.6-7.4 11.4-11.9 18.5zM69.2 75.8V11.3c-5.9-1.2-11.2-.7-14.9 4.9-1.3 1.9-2.8 3.7-4.4 5.4-1.4 1.5-3.1 2.8-4.6 4.1-.3-.3-.7-.5-1-.8 3.7-4.6 7.5-9.2 11.2-13.9-.5-.4-.9-.8-1.4-1.2-2.7 3.1-5.3 6.2-8 9.3-.5-.5-1.1-1-1.6-1.5 1.5-2 3.1-4 5-6.5h-10c-.1 1.1-.2 2-.2 2.8-.4 11.1-.9 22.2-.9 33.3 0 1.7 2.1 3.8 3.8 5.2 2.5 2.1 5.6 3.5 8.1 5.7 6.1 5.5 12 11.2 18.9 17.7zm448.2-6.2c.8 9.1 1.5 17.6 2.4 26.1.2 1.7 1.4 4.4 2.6 4.7 6.5 1.5 13.1 2.6 19.7 3.3 1.5.2 4.6-1.6 4.7-2.6.9-10.2 1.2-20.5 1.8-31.4h-23.3c-.1 1.6-.2 3.4-.4 5.2-3.8-.2-1.9-8.1-7.5-5.3zM334.9 417.2c-.7 1.3-1 1.9-1.3 2.5-4.4 8.3-8.7 16.5-13.1 24.8-1.4 2.6-2.6 4.4-.4 8.1 4.9 8 12 5.5 18.6 5.6 2.3 0 5.4-.6 6.9-2.2 1.8-1.9 2.5-4.9 3.4-7.6.7-2.3 1.1-4.6 1.5-6.9-4.9-7.8-10.1-15.7-15.6-24.3zm-238-78c.7-.2 1.2-.2 1.4-.5 5.5-7.6 11.6-14.4 20.4-18.3.8-.4 1.3-3.3.8-4.5-3.6-8-7.5-15.8-11.3-23.6-16.3 14.5-21.2 31.8-11.3 46.9zm242.7 14.2c.3 3.3-.3 7.6 1.3 10.7 4 7.7 9 14.8 14.4 23.5 2.1-2.6 4.3-4.5 5.3-6.9 4-9.5 7.5-19.1 11.2-28.6.4-1 .5-2.1.6-2.3-10.6 1.1-20.9 2.3-32.8 3.6zm182.2-240c1 8.8 1.7 16.4 2.7 24 .2 1.2 1.3 3.1 2.4 3.3 6.6 1.5 13.3 2.7 20.3 4.1 0-8.8.1-16.5-.1-24.3 0-1.5-1.1-4.1-2.1-4.3-7.4-1.1-14.9-1.8-23.2-2.8zm17.3 219.1c.3-2.9.4-5.8 1-8.5 3-12.8.9-16.9-11.2-20.8-1.2-.4-2.4-.7-3.6-1.1-4.2-1.7-6.6-1.3-4.7 4.4-5.2-.9-6.8 1.7-6.3 5.9.4 2.8 1.8 5.5 1.9 8.3.2 6.4 5.1 8 9.6 9.5 4.2 1.3 8.8 1.5 13.3 2.3zm2.8-85c-7.9-1.9-15-3.6-22.2-5.2-1-.2-2.4-.5-2.9-.1-.6.6-.8 2.1-.7 3.1.3 2.1 1.1 4.2 1.5 6.3.8 4.7 1.4 9.5 2.3 14.2.2 1 1.5 2 2.5 2.4 6.1 2.3 12.3 4.5 19.5 7.1v-27.8zm-20.4-72.4c-1.4 7.8-.4 9.2 6 12.2 1.9.9 4.2 3.7 4.1 5.4-1 11.6-2.5 23.1-4.2 34.6-.2 1.5-2.4 2.7-3.7 3.9-1.5 1.4-5.1 3.4-1.5 4.9 6.4 2.6 13.3 3.7 20 5.4.4-.9.8-1.8 1.2-2.6-2.1-1.6-4-3.9-6.3-4.5-4.4-1.3-4.5-4.2-4.2-7.6.7-8.4 1.7-16.8 2.1-25.3.4-7.7.6-8.2 8.3-8.3.6-2.5.6-5.1 1.8-7.2 2.5-4.5-.7-6.4-3.7-7.1-6.6-1.7-13.3-2.6-19.9-3.8zm27.2-120.9c.7-5 1.3-8.5 1.7-12 .4-3.2-.5-4.9-4.3-5.1-6.8-.3-13.5-1.3-20.3-2.1-3.1-.3-4.9.7-4.6 4 .3 3.9.7 7.7 1.4 11.6.1.7 1.3 1.8 2.1 1.8 8 .7 16 1.3 24 1.8zM161.1 446.7c-7.1-6.4-14.5-7.2-21.5-2.8-1 .6-2.3 1.4-3.5 1.3-4.3-.2-8.7-.5-13-1-7-.9-14.1-1.6-20.9-3.3-3.7-.9-6-.7-8.3 2.2 9.4 8.9 52.6 11.2 67.2 3.6zm200.6-37c-.1-.4-.1-.8-.2-1.2-3.8-.4-7.6-.8-11.4-1.3 0-.7.1-1.4.1-2.1 4-.9 8-1.9 12-2.8-.1-.5-.2-1.1-.3-1.6-3.1-.2-6.3-.4-9.3-.5-1-4.5 1.2-5.2 4.8-5.2 2.3 0 4.7-.9 7-1.3l-.3-1.8c-2.9-.2-6-.9-8.8-.4-7.5 1.3-12.8 6.1-16.6 12.4-.9 1.5-1.3 4.2-.5 5.5 2.8 5 6.2 9.6 8.4 13 5.5-2 10-3.6 14.4-5.2-.1-.4-.3-.9-.4-1.3-2 .1-3.9.4-5.8.2-1.2-.1-2.4-.9-3.5-1.4 1-1 1.7-2.5 2.9-3 2.4-1 5-1.4 7.5-2zm-152.1 33.9c.4-.6.8-1.3 1.2-1.9-1.3-1.5-2.4-4-4-4.3-6.5-1.6-13-4.9-20-.3-2.6 1.7-6.4 3.6-9.8-.7-1.5-1.9-5.7-1.9-8.7-2.1-3.4-.2-6.8.5-10.2.4-3.6-.2-7.3-.9-10.9-1.3-.2.6-.4 1.3-.6 1.9 11.3-.3 18.7 9.9 30.3 9.2 10.9-.8 21.8-.7 32.7-.9zm296.6-84.9c.6 3.7 1.3 6.5 1.4 9.3.2 4.1 1.7 6.5 5.9 7.2 4.3.6 8.5 1.5 12.7 2.4 12.1 2.7 12.7 2.2 12.1-10.1 0-.5-.3-1-.3-1.1-7.6-1.7-14.9-3.3-22.4-4.9.3 3.3.5 6.3.9 10.1-6.1-3-2.1-11.8-10.3-12.9zm6.7 53.4c2.6.2 4.3.5 6 .4 7.2-.7 14.5-1.3 21.7-2.5 1.2-.2 2.1-2.9 3-4.5 0 0-1.4-1.3-1.8-1.2-4 1.7-4.5-.7-4.5-3.7v-6.8c-2.7 0-4.9.2-7.1 0-5.6-.8-9.7.4-11.6 6.5-1.2 3.8-3.4 7.1-5.7 11.8zm-291.9 7c7.7-.4 14.7-.7 21.7-1.3.8-.1 2.1-1.2 2.2-2 .6-4.2 1-8.4 1.5-13.2h-16.9c-5.6 0-8.1 2.4-8.5 8-.1 2.3 0 4.4 0 8.5zm297.1-262.7c-1.5 10.2.7 13.4 9.6 15.1 1.6.3 3.1.7 4.7 1.2 11.5 3.8 14.1 1.8 13.6-10.1 0-.5-.3-1-.5-1.5-9.2-1.5-18.3-3.1-27.4-4.7zm-338 265.4c0-4.5.3-8.2-.2-11.7-.1-1-2.4-2.4-3.7-2.4-5.2-.1-10.5.3-15.7.6-1.2.1-2.4.4-3.5 1-2.4 1.3-4.7 2.9-7 4.3-1.1 4.3.2 6.9 5.1 7.1 8.4.3 16.6.7 25 1.1zm104.7-22.4c-1.7-1.5-3.7-2.5-4.7-4.1-2.6-4.1-5-2.8-7.7-.3-.9.8-1.6 1.8-2.4 2.6-7 7.8-14.1 15.6-21 23.5-1.1 1.3-1.4 3.3-2.1 5 .7.4 1.4.9 2.2 1.3 2.9-3.3 5.8-6.6 8.8-9.8.5-.5 1.4-.8 2.2-.9 4.7-.4 11.1-5.2 9.9-8-2.1-4.8 1-6.2 3.7-8.3 4.6 6 4.6 6 11.1-1zM550.9 23.2c.4-1.1 1.1-2.4 1.3-3.7 1.2-6.6-1.6-9.1-8-7.6-2 .5-4.1.6-6.1.5-5.1-.3-10.2-.7-15.3-1.1.8 8.8.8 8.7 9.3 9.7 5.9.6 12 1.4 18.8 2.2zm-13.1 337.4c.6-3.1 1.5-4.8 1.1-6.2-.5-1.9-1.6-4.8-2.9-5.1-8-2-16.1-3.5-24.3-5.1.5 7 .8 13.6 10.3 12.7.6-.1 1.2.9 1.8 1 4.6 1 9.3 1.8 14 2.7zM105.6 415c-3 4.3-1.1 6.9 4 8.1 7 1.6 13.8 3 21.3 2.2 3.6-.4 5.6-.7 5.8-3.8.2-3.6-1.7-5.7-6-5.7-8.1 0-16.2-.5-25.1-.8zm408.7-226c2 11.9 3.9 22.9 5.9 34 .2.9 1.6 1.6 2.4 2.3.8-1 2.3-2 2.4-3.1.6-8.9 1-17.8 1.2-26.8 0-1.1-1.2-2.1-1.8-3.2-4.3 3.7-5.1-2.4-10.1-3.2zM199.4 354.9c9.9-5.4 16.7-26.2 11.7-38.8-2.4 2.9-6.8 3.3-7.3 8.1-1.3 10.4-3 20.8-4.4 30.7zm-.6-85.2h-31.3c4.8 5.6 9.9 11.5 15.3 17.8 5.6-6.2 10.6-11.7 16-17.8zm382.3 52.5c-.7.3-1.5.5-2.2.8-1.1 11.3-2.3 22.6-3.1 34-.1 1.3 2.7 3.3 4.6 3.9.9.3 3.7-1.8 3.8-2.9.3-10 .4-20 0-30-.1-2-2-3.9-3.1-5.8zm-4.8-76.7c-.6 5.1-1.1 9.8-1.6 14.5-.8 8 1.3 12.2 9.2 16.3v-30.7c-2.2-.1-5-.1-7.6-.1zm-.8-118.8c1 .4 2.7 1 4.3 1.8 4.8 2.2 5.7 1.7 5.6-3.5-.1-4.8-.7-9.7-1-14.5-.1-2.7 1-6.2-.3-7.8-1.2-1.4-4.9-.7-7.6-.8-.5 0-1 .1-1 .1v24.7zM486.4 382c-.6 6.7-1.4 12.1-1.6 17.5-.1 5 0 10.4 7 11 3 .2 6.1 0 11.2 0-3-7.4-5.3-13.3-7.6-19.2-.4.1-.7.1-1.1.2.4 4.4.7 8.8 1.2 13.8-9.1-5.8-1.7-16.5-9.1-23.3zm54-89.4c-7.6-2.2-15.1-4.5-24-7.1.5 4.1.9 7.5 1.3 10.4 8.1 1.7 15.3 3.2 22.7 4.8v-8.1zM219.5 403.9c-.7-.6-.9-.9-1.2-1-7.2-1.4-7.2 4.4-8.9 8.7-1.7 4.3-2.6 8.6 1.5 12.1 3.1 2.6 11.9 2.9 15.5.7-11.9-5.3-12.2-6.4-6.9-20.5zm115.6-47.4c-9.9-2.6-18.7-5-28.8-7.6 6.9 6.1 13.2 11.6 19.8 17.5 3.4-3.8 6.2-6.8 9-9.9zm179-84.7c-.8 4.8 1.3 7.2 6.4 8.5 6.9 1.7 13.6 4.5 20.4 6.8 2-4.8.2-6.5-3.6-7.7-7.9-2.3-15.5-5-23.2-7.6zM581 83.3c.7.1 1.4.1 2.1.2.8-2.1 2.1-4.2 2.2-6.3.3-7.8.3-15.6 0-23.5-.1-1.7-1.8-3.4-2.7-5.1-1.1 1.7-3 3.3-3.1 5.1-.3 7.3-.2 14.6 0 22 .1 2.5 1 5 1.5 7.6zm3.2 77.6c2.2-17.4 2.1-17.5-8.1-18.2-.3 2.3-.2 4.7-1 6.8-2.9 7.7-2.9 7.8 4.7 10.3 1.3.3 2.7.6 4.4 1.1zM136.5 431.2c-1.7-1.4-2.2-2.1-2.5-2-9.2 3.3-18.4 2.9-27.6-.1-.7-.2-1.6-.4-2.1 0-1.2.7-2.3 1.8-3.4 2.7.9.9 1.6 2.2 2.7 2.6 1.9.9 4.1 1.1 6.1 1.9 9.7 3.7 17.5-2.1 26.8-5.1zm356.7-211.1c.6-.2 1.1-.4 1.7-.6-.5-5.8-1.3-11.6-1.3-17.4 0-9.9.7-19.7.9-29.6 0-1.4-.8-2.9-1.2-4.3-.8.1-1.7.3-2.5.4 0 16-.1 32 .1 47.9 0 1.3 1.5 2.5 2.3 3.6zm91.2 85.4v-9.9c0-9.4-.1-9.5-9.4-8.6 2.2 6.4-4.7 17 9.4 18.5zM516 395.7c3-10.9 10.2-8.7 17.2-7.1.3.1.8.5.9.4 1.4-1.1 2.8-2.3 4.2-3.5-1.3-.8-2.5-2-3.9-2.3-5.5-1-11-1.7-16.5-2.4-2.3-.3-4.6 0-6.8 0-.1.5-.2 1-.3 1.6 6.9 2.2 5.8 7.3 5.2 13.3zm33.2-336.1c-6.3-.6-12.6-.8-18.7-1.8-7.1-1.2-7.1-1.5-6.9 5.8 8.5.4 17 .8 25.6 1.2v-5.2zM509 332c.2 4.6 2.9 6.4 7 7.3 4.5 1 8.9 2.6 13.4 3.6 3.2.7 6.6.7 10 1.1 0-2.1.2-3.7 0-3.8-5.2-1.6-10.4-3.2-15.8-4.3-1.8-.4-3.9.7-6.3 1.2-1.6-2.7-3-6.9-8.3-5.1zm62.4 45.8c.7 3.5.5 7.3 2.3 9.8 1.8 2.5 5.5 3.6 8.3 5.3.8-1.9 2.2-3.8 2.3-5.8.3-7.9.2-7.9-8-8.4-1.6-.2-3.1-.6-4.9-.9zm-317.2 65.8c-1-1.7-1.8-3.3-2.9-4.5-1.1-1.2-2.8-3.2-3.7-2.9-3.5 1-6.7 2.8-10 4.4-.3.1-.2 1.4.1 2 2.3 6.6 7 7.9 12.7 3.6 1.1-.9 2.3-1.6 3.8-2.6zm33.4-45.2c2.7-1.7 5.4-2.8 7.3-4.8 1-1.1 1.3-4.8.6-5.3-2.2-1.5-2.4-6.9-6.4-4.6-8.5 4.9-8.4 5.5-2.6 13.8.2.3.5.4 1.1.9zm-16 35.3c2.9 2.5 5.3 6.1 8.4 6.7 1.9.4 6.4-3.6 6.7-6 .4-2.8-2.5-6.1-4-9.3-3.8 3.1-6.9 5.5-11.1 8.6zm46.7-15.6c-10 8.2-10.2 8.5-7 12 2.6 2.9 9.7 2.5 12.5-2 3.4-5.4-4.2-6.3-5.5-10zM576.7 16.7c0 4.7-.5 8.9.3 13 .3 1.5 3.4 2.5 5.3 3.7.7-1.4 1.8-2.7 2.1-4.1.6-3.1.7-6.4 1.1-9.5.3-2.6-.6-4.1-3.5-3.6-1.7.1-3.3.3-5.3.5zM495.8 137c1.3-8.5 1.9-15.6 3.6-22.4 1-4.2-1.2-3.8-3.4-3.3-1.3.3-3.3 1.8-3.4 2.9-.3 6.1-.3 12.1-.1 18.2.1 1.3 1.8 2.5 3.3 4.6zm45.2 93.3c.6-.2 1.3-.5 1.9-.7.3-9 .8-17.9.9-26.9 0-1.1-1.2-2.3-1.9-3.4-.8 1-2.2 1.9-2.3 3-.6 7.9-1 15.8-1.1 23.7 0 1.4 1.6 2.9 2.5 4.3zM296.6 415.9c-4.1 2.8-7.6 5.2-11.1 7.7 8 9 9.1 9.1 15.5.9-1.3-2.4-2.6-4.9-4.4-8.6zm-27.8 36.3c.7-4.9 7.5-4.4 5.4-9.7-.9-2.3-3.9-5.9-5-5.5-3.4 1-6.3 3.6-9.6 5.6 3.4 3.4 5.7 5.9 9.2 9.6zm-11.5 5.7c4.7.2 7.2-1 6.2-3.3-1.3-3.1-4-7.1-6.8-7.6-2.3-.5-5.5 3.4-8.3 5.4 2.7 2.1 3.5 6.9 8.9 5.5zm44.4-99.5c-4 4.9-7.8 9.5-11.3 14.4-.6.8-.1 3 .6 3.8.6.6 2.8.7 3.6 0 2.9-2.2 7.2-4 4.3-9.1-.2-.4.2-1.2.4-2 2.6 1.5 4.9 2.9 7.2 4.2.2-.4.4-.9.6-1.3-1.7-3-3.3-6-5.4-10zm244-209.4c-6.5-.8-12.7-1.5-19-2.3-1.1 4.3.3 6.3 4.6 6.6 3 .2 6 .8 8.9 1.4 5.5 1.2 5.9.8 5.5-5.7zm14.8 111.4c.8-.1 1.6-.2 2.3-.3-2.4-15.9-4.8-31.9-7.1-47.8l-2.4.3c2.4 16 4.8 31.9 7.2 47.8zM300.8 442.5c2.9-3.3 9.7-2.9 8.2-9.1-1-4.2-5.8-5.2-9.1-2.9-5.4 3.7-5.4 3.7.9 12zm-18.9 2.7c2.6 2.5 4.7 6 6.6 6 2.5-.1 5.7-2.5 7.3-4.8 2.6-3.7-1.1-5.9-3.7-7-5.2-2-7 2.9-10.2 5.8zm297.9-233.7c.7.4 1.3.9 2 1.3.9-1.3 2.4-2.5 2.5-3.9.3-5.3.2-10.6.1-15.8 0-2.6-.2-5.2-.4-7.8-.8 0-1.5-.1-2.3-.1-3.7 8.5-.7 17.6-1.9 26.3zM550.3 28c-7-.9-13.4-1.7-19.7-2.4-1.5-.2-3 .1-4.5.6-.3.1-.4 2.2 0 2.6 1.1.9 2.5 1.7 3.8 1.8 5.1.6 10.5.1 15.3 1.5 5.1 1.4 5.3-.5 5.1-4.1zM239.5 457.3c.7-.7 1.4-1.4 2-2.2-3.2-5.1-6.4-10.1-9.5-15.2-.6 0-1.2-.1-1.7-.1-.4 3.9-2.4 8.6-.9 11.4 1.6 3 6.6 4.2 10.1 6.1zm56.8-48.2c3.6-2.3 6.3-4.1 8.9-5.8-2.1-2.4-4.1-6.6-6.4-6.7-2.5-.1-5.8 3-7.5 5.6-.4.9 3.1 4.3 5 6.9zm18.9 6.7c-1.7-2.2-3.1-4.1-4.7-6.2-1.5.6-2.9 1.4-4.4 1.8-7.1 1.6-6.9 1.5-3.2 7.7 2.5 4.1 4.9 2.9 7.6.8 1.6-1.3 3-2.6 4.7-4.1zm-69.7-18c.4-.5.7-1.1 1.1-1.6-2.2-2.2-4.1-5.7-6.8-6.4-6.1-1.5-8 4.3-11.9 8h17.6zm330.1-170.4c9.2.5 9.6 0 8.3-8.7-3.2-1.4-6.2-2.7-9.8-4.3.5 4.7 1 8.7 1.5 13zm-64.8-40.2c-.5.1-1.1.2-1.6.3-1.3 10.7 2.9 33.1 6.6 34.4-1.6-11.7-3.3-23.2-5-34.7zM278 447.5c-.9 3.6-9.2 2.2-5.5 8.3 2 3.1 9.4 4.2 11 1.5 3.4-5.6-3.4-6.3-5.5-9.8zm29.7-58.7c-.3.7-.6 1.3-.9 2 1.8 3.2 3.7 6.5 5.5 9.7 2-1.5 5.7-3 5.7-4.4-.1-2.7-1.8-5.8-3.8-7.6-1.2-1.1-4.3.1-6.5.3zm266-300.9c-.8 9 .6 9.9 11.5 7.8.5-6.5-2.1-9.1-11.5-7.8zm-79.2-21.1-1.2.3V98c1.6-.9 2.7-1.2 2.7-1.5.3-8.3.7-16.7.7-25 0-1.6-1.5-3.2-2.2-4.7zm75.3 116.3h-2.2v29.7h1.4c1.7-9.9 1.3-19.8.8-29.7zm-55-63.5c-.2.1-.3.2-.5.3 0 4.4-.1 8.9 0 13.3.1 4.6 2.5 6.9 7.2 6.8-.8-5.3-1.5-10.3-2.3-15.1-1 .7-2.1 1.4-3 2.1-.5-2.7-.9-5.1-1.4-7.4zM334.5 390.9c-2.8 2.5-5.6 5-8.3 7.4 2.1 2 4.2 4 6.2 6 5.5-5 6-7.9 2.1-13.4zm239.4-82.4v11.8c2.7-4.5 12.5 2.1 10-7.7-.5-2-6.3-2.7-10-4.1zm-4-64c-.6 0-1.2 0-1.9.1-2.7 8.7-1.7 23.6 1.9 25.5v-25.6zM374.7 431.1c-6.8 1.7-9.8 8.8-6.5 13.2.7.9 1.7 1.4 2.6 2.1.8-1 2.1-2 2.3-3.1.7-3.8 1-7.7 1.6-12.2zm-112.3-2.6c-2.7 1.1-5.1 1.9-7.2 3.1-3.1 1.7-2.7 4.5.4 6.4 4.6 2.7 6-2 8.6-3.7.9-.6 1.6-2.6 1.3-3.6-.3-1-2-1.5-3.1-2.2zm-111.9-2.8c3.5 5.7 22.4 6.2 28.4 0h-28.4zm434.9-247c-1.5-1.8-2.5-4.1-3.5-4.1-1.8-.1-4.4.8-5.3 2.1-4.2 6.4-1.8 13.2-1.2 21.5 3.5-7.3-2.8-17.4 10-19.5zM309.9 452.4c2-3.3 3.9-6.1 5.5-9 .5-.9.3-2.2.4-3.4-1.3-.1-2.9-.6-3.9-.1-2.8 1.7-5.4 3.9-8.6 6.3 2.4 2.4 4.3 4 6.6 6.2zM498 36.5c-.4-.6-1.5-2.1-2.6-3.7-1 1.1-2.6 2.1-2.8 3.2-.4 3.8-.4 7.7-.1 11.5.1 1.4 1.8 2.6 2.7 3.9.5-1.1 1.4-2.2 1.6-3.3.5-3.4.7-6.7 1.2-11.6zm13.4 202.4c-.6.1-1.2.2-1.7.3.9 7.7 1.6 15.4 2.9 23.1.2 1.5 2.5 2.7 4.7 4.9-2.2-10.6-4.1-19.5-5.9-28.3zM230.7 390.6c-7.1-2.5-10.5-.2-12.8 4.3-.5 1-1 2.9-.6 3.2 1 .7 2.9 1.3 3.6.8 3.2-2.4 6.1-5.2 9.8-8.3zm337.4-289.2v25.2c4.1-4.2 3.9-21.8 0-25.2zM304.6 452.8c-1.8-1.7-3.2-3-4.7-4.4-.8.6-1.3 1-1.8 1.4-2.3 2.1-7.8 3.3-5.1 7 3 4.3 6.8.2 9.9-2 .5-.3.9-1 1.7-2zm-14.1-44.4c-1.1-1.4-1.7-2.8-2.8-3.4-2.3-1.2-9.7 3.6-9.7 6.2 0 2.5.6 4.5 3.9 2.6 2-1.1 4.3-1.5 6.2-2.6.9-.4 1.5-1.7 2.4-2.8zm293.6-4.3c-4-.5-7.8-.9-12.1-1.4.7 2.6 1.3 4.4 1.8 6.2 3.5.4 6.8.9 10.3 1.3v-6.1zm-7.2-365.7c-.2 2.9-.4 5.3-.7 9.1 3.2-1 6.3-1.2 8.4-2.8.9-.7-.1-4-.2-6.3h-7.5zm-87.8 270.5c1.1-1.2 3.1-2.3 3-3.4-.2-5.9-.9-11.8-1.4-17.7H489c.1 6.9.1 13.6.1 21.1zm93.8-78.2c-2.7 3.1-10.8.7-7.9 8.6 9.6.8 11.1-.6 7.9-8.6zm-10.8 134.2c2.3 7.6 6 10 12 8.5-.2-7.7-6.8-6-12-8.5zm-79.2-116.8c1.8-8.6.9-19.6-1.7-20.9-2 13.8-1.6 18.7 1.7 20.9zm72.8 51.2 1.8.9c1.2-2.9 3.1-5.7 3.4-8.6.3-2.7-1.1-5.6-1.8-8.5-.7.1-1.5.2-2.2.3-.3 5.3-.7 10.6-1.2 15.9zm1.4-141.8c3.8-1.4 4.4-4.2 3.2-14.9-.1-1.1-1.4-2-2.2-3-.4.3-.7.6-1.1.8.1 5.6.1 11.2.1 17.1zM387 457.8c6.5 2.1 8.4-2.1 9.6-6.1.5-1.5-1.2-3.7-2.1-6.2-2.9 4.8-5.1 8.4-7.5 12.3zm104-95.4c-.3-4.6-.4-8-.8-11.3-.1-.7-1.2-1.3-1.8-1.9-.5.6-1.2 1.2-1.3 1.9-.5 3.3-1 6.7-1 10 0 1.1 1.5 2.9 2.6 3.1.8.1 2-1.6 2.3-1.8zm-92.7 96.7c3.9 1.2 7.1.4 7.8-3.5.4-2.3-1.4-4.9-2.1-7.4-.6.1-1.1.3-1.7.4-.6 1.6-1.1 3.2-1.7 4.8-.8 1.9-1.6 3.7-2.3 5.7zM568.7 32.9c4.6-1.5 5.6-11.8 1.3-17.9-.5 6.8-.9 12.2-1.3 17.9zM301.4 376.6c1.4 3.3 2.7 6.5 4.3 10.3 2.1-1.4 3.7-2.5 5.5-3.6-7.8-7.5-7.8-7.5-9.8-6.7zm220.9-270.5c-.1.8-.2 1.5-.2 2.3 7.4 1 14.9 2 22.3 3.1.1-.7.2-1.3.3-2-7.6-1.2-15-2.3-22.4-3.4zM507.2 353c.5-.4 1.1-.8 1.6-1.1-.4-2.9-.6-6-1.5-8.8-.3-1-2.4-1.4-3.8-2-.2 1.3-.6 2.5-.7 3.8 0 1.3-.1 2.8.5 3.8 1.1 1.5 2.6 2.8 3.9 4.3zm3.8-69.8c-.4.2-.8.5-1.2.7 1.1 6.3 2.1 12.6 3.3 20 1-1.3 2.4-2.4 2.2-3-2-5.7-1.3-12.3-4.3-17.7zM363.6 447.6c-.4 0-.8.1-1.3.1-.4 2.8-1.2 5.5-1 8.3.1.9 2.7 1.7 4.1 2.5.7-1.2 2.2-2.7 1.9-3.6-.8-2.6-2.4-4.9-3.7-7.3zm-34.5-38.5c-4.1-2.2-7.6-3-10.9-.6-.6.4.7 3.5 1.2 5.5 3.6-1.8 6-3.1 9.7-4.9zm241.9-.5c-1.7-3.2-3.1-5.8-4.5-8.4-.7.1-1.3.3-2 .4-.2 3.1-.4 6.3-.6 9.6 2.7-.6 4.3-1 7.1-1.6zm-60.5-96c-5.5 5.4-4.5 9.4 2.5 11.8-.8-3.8-1.6-7.5-2.5-11.8zm-349.4-43.1c-.6 7.5 2.6 12.4 8.2 12.1-2.7-4-5.1-7.6-8.2-12.1zM565.3 374l-1.5.6V385c.6.2 1.1.4 1.7.6.8-1.9 2.2-3.8 2.2-5.7 0-2-1.5-4-2.4-5.9zm18.8-208.3c-2.7-.5-5.3-1-8.7-1.7.4 6.2 5.6 4.8 8.7 7.7v-6zM354.7 448c-1.8 3.7-3.2 6.8-4.9 10.3 7.5-.5 8-1.6 4.9-10.3zm146.4-90.3c-.5.2-1.1.4-1.6.5 2.1 13.3 2.1 13.3 5.2 13l-3.6-13.5zm-231 72.7c3.3-2.8 6.3-5.3 9.2-7.8-9.6 1.4-11.9 3.5-9.2 7.8zM522.9 146c-2.1-.5-4-.9-7.3-1.7 1.2 2.8 1.5 5 2.8 6.3.8.8 2.9.1 4.5.1V146zM495.8 10.6c-4.2 7-3.9 7.8 2.8 9-1-3.3-1.9-6.1-2.8-9zm68.1 31.8c-.3-.1-.6-.1-.9-.2v17.3c.3 0 .6 0 .9.1V42.4zM197.6 287.2c1-4 1.9-7.5 2.8-11-.6-.1-1.1-.3-1.7-.4-1.1 3.4-7.8 5.5-1.1 11.4zM496 150.8c-.6-.1-3.2-.4-3.2-.3-.7 3.7-1.2 7.4-1.7 11.2.5.1 1 .2 1.5.2.9-3.4 2-6.7 3.4-11.1zm10.2 94.5c-.6.1-1.2.1-1.8.2l2.1 15.6c.7-.1 1.5-.2 2.2-.3-.8-5.2-1.7-10.3-2.5-15.5zm53.4 41.2c3-6.7 2.2-12-1.6-13.8.5 4.8 1.1 9.3 1.6 13.8zM10 75.5l.9 1.8c4.1-2.6 8.2-5.3 12.3-7.9-.3-.5-.7-1.1-1-1.6-4 2.6-8.1 5.2-12.2 7.7zm490.8 28.1c-6.9-2.3-7.4-2-6.5 5 2.7-2 4.6-3.5 6.5-5zM272.6 415.1c-.4-.2-.7-.4-1.1-.5-2.6 2-5.1 4-7.7 6 .2.5.5 1.1.7 1.6 2.3-.8 4.8-1.3 6.7-2.7 1-.7.9-2.9 1.4-4.4zm53.8 7c1.3-4.1 2-6.6 2.8-9.2-.3-.3-.6-.5-.9-.8-1.8 1.3-3.6 2.5-5.6 4 1.2 1.9 2.2 3.5 3.7 6zm164.2-152.2c-.4 4.1-.8 7.6-1.3 11.8 4.6-4.2 5.1-8.3 1.3-11.8zM504 279c-2.2 7-1.3 9.2 2.9 9.3-1-3.2-1.9-6.3-2.9-9.3zm-94.1 163.1v-8.9c-5 2.5-4.9 5.2 0 8.9zM245.5 429c-.6-.6-1.1-1.2-1.7-1.7-3 3-6 6.1-8.9 9.1.4.4.7.8 1.1 1.2 3.1-3 6.3-5.8 9.5-8.6z"/>
  <path d="M115.5 216c1.8-2.4 2.9-3.8 4.3-5.6-3.3-1.8-6.3-3.2-9-5.1-3.6-2.6-4.6-6.4-3-10.6 2.3-6.1 4.7-6.7 9.7-2.6l1.1-1.1c-1.9-1.8-3.5-4.1-5.8-5.2-3-1.5-3.6-3.5-3.5-6.5.2-9.8-.1-19.7 5.5-28.5 2.1-3.3 3.7-7.1 6.3-9.8 5.9-5.9 10.7-13.1 19-16.5 12.5-5.1 24.8-9.5 38.8-9.1 13.6.4 27 .1 39.7 5.8 13.6 6.1 24.2 15.1 32.2 27.9 6.2 9.8 11 20.2 13.1 31.3 1.6 8.1.5 16.7.9 25.1.4 8.9-2.5 17.1-6.5 24.6-9.2 17.1-23.9 27-43.1 29.4-9.9 1.2-19.9 1.4-29.9 1.5-3.8 0-7.5-2-11.4-2.7-17-3.3-31.9-11.1-44.4-22.6-5.9-5.4-9.5-13.3-14-19.7zm90.1 17.6c-5.6.7-10.1.5-14.1 1.8-3.1 1-5.7 3.8-8.5 5.8 1.8 1.9 3.4 5.1 5.4 5.4 7.6 1.1 15.2 4.7 23 1 2.8-1.3 6.1-2.3 8.3-4.3 2.2-2.1 2.7-5.6-1.3-6.8-4.4-1.4-9.2-2.1-12.8-2.9zm-20.1-50.2c-.2.5-.4 1.1-.5 1.6 1.3 1.1 2.4 2.7 3.8 3.2 4.2 1.6 8.6 3 12.9 4.1 3.7.9 7.6 1.4 11.4 1.6 2.3.1 4.8-1.6 6.9-1.1 10.2 2.1 12.5 1.3 18.7-8.8-3.8 2.3-7.7 4.6-11.5 6.8-.3-.5-.6-.9-.9-1.4 1.1-1 2.5-1.9 3.2-3.1.8-1.5 1-3.3 1.4-5-1.7.5-3.7.6-5.1 1.6-2.5 1.7-4.7 3.8-7.3 5.9-2.1-7.3-2.3-7.2-8.7-5.6-6.4 1.6-12.9 4.4-19.6.3-1-.8-3-.1-4.7-.1zm-1.6 24.2c.1 3.9 2.1 6.2 5.6 6.4 3.6.2 6.5-4.6 6.4-10.6 0-3.2-1.2-6.1-4.5-6.1s-8.4 5.2-7.5 10.3zm30-6.2c1.3 1.6 2.7 3.1 3.8 4.9 1.2 1.9 2.2 3.9 3.3 5.9-2.1 1.2-4.1 2.8-6.4 3.3-1.9.4-4-.6-6.1-1-.1 3.5 2.9 6.1 7 6.6 3.8.4 9.3-4.2 9.9-8.4 1-7.1-2-10.6-11.5-11.3zm22.4-1.3c-8.4 7.4-9 14.1-1.9 17.5 7.9-6.8 8.3-10.2 1.9-17.5zM94 435.9c-7.4-.6-13.7 0-19.4-1.7-15.5-4.8-29.9 2.2-44.8 3.4-3 .2-6.1.6-9 1.3-1.1.3-2 1.8-3 2.7 1.4.3 2.8.9 4.1.8 2.6-.2 5.2-.9 8.2-1.5 0 3.1 0 5 4.5 3.9 3-.8 7.8-4.5 11 1.1.4.7 3.9-.4 6-.7 2.3-.3 4.6-.8 6.9-.9 7.5-.3 14.9-.4 22.4-.6 2.3-.1 4.6 0 7 0-1.4 6.9 3.1 11.4 11 11.3 4 0 8 .1 12.1.2v2.1c-1.5 0-3-.1-4.5 0-7.8.3-15.5.9-23.3 1-4.7.1-9.3-1-14-.9-9 .1-18.1.9-27.1 1-10.4.1-20.9-.2-31.3-.6-.7 0-2-2.1-2-3.2-.1-14.7 0-29.4.1-44.1 0-7.9 0-8 8.1-7.8 9.4.2 18.8 1 28.2 1 11.7 0 23.4-.6 35.1-1.1 3.6-.1 6.7.3 9.2 3.4 1.2 1.5 3.1 2.6 4.9 3.2 5.4 1.6 6.3 5.5 5.2 10-1.6 5.9-3.9 11.7-5.6 16.7zM192.1 341.1c-1.1-2.5-1.9-4.4-2.8-6.2-1.6-3.3-2.9-6.8-4.9-9.9-3.1-4.7-4.8-4.5-8.5-.4-3.6 4.1-7.7 7.8-11.4 11.8-2.7 2.9-4.5 2.3-6-1s-3-6.5-4.2-9.8c-3.5-9.9-6.7-10.6-14.3-3.5-3.8 3.6-8.2 6.7-12.5 10.3-1.5-1.9-2.4-2.9-3.2-4-2.5-3.2-2.5-5.5 1.6-7.6 4.5-2.3 8.7-5.3 13-8-.3-.7-.6-1.3-.9-2-2.2.9-4.8 1.3-6.6 2.8-2.9 2.5-4.1 1.6-5.6-1.3-3.2-6.4-6.4-12.9-10.1-19.1-2.8-4.7-1.6-7.9 2.5-10.9 10.5-7.7 20.9-15.4 31.8-23.5 2.4 8.3 4.7 15.9 6.9 23.5 1.3 4.8 4.4 5.8 8.8 4.7 2.4-.6 5-1.4 7.3-1.1 1.8.3 4.4 2.1 4.7 3.6.4 1.8-1.4 4-2.8 7.3 1.8-.2 3.9.2 5-.6 2.8-2.2 5.6-4.6 7.5-7.5 2.2-3.4 3.4-1.9 5.4-.2 1.7 1.5 4.5 4.1 5.2 3.6 2.2-1.4 3.7-3.9 5.1-6.2.8-1.2.7-2.9 1.1-4.4.5 0 1-.1 1.5-.1 1.1 5.7 2.1 11.3 3.2 17 .4 1.9.4 4 1.2 5.8 1.9 4.6 1.3 8.2-3.8 10.9-2.1-6.3.6-13.8-2.8-19.8l-1.8.3c-.5 7.7-1.1 15.4-1.5 23.1-.3 7.9-2 15.3-8.1 22.4zM367.3 425.4c-.6 2.3-.7 5.3-2.2 7.4-1.3 2-4.2 4.4-6.1 4.1-3.9-.5-8.4-7.4-7.2-9.9.7-1.4 2.5-2.7 4-3 7.7-1.7 9.4-3.5 10.8-11.5 1-6.1 2.4-12.1 3.5-18.2.2-1.1-.1-2.9-.7-3.3-7-4.3-4.5-10.4-2.6-15.6 4.3-11.4 9.4-22.5 14.4-34.4 5 3.4 9.6 6.5 14.7 10.1-3.5 1.7-6.1 2.9-8.8 4.2.3.6.5 1.2.8 1.9 2.5-.9 5-1.9 7.6-2.6 2.4-.6 5-1.4 7.2-1 5.8 1.2 11.4 2 16.5-2.3.5.2 1 .4 1.5.7-8.8 27.8-17.7 55.6-26.5 83.4-.5-.1-1.1-.1-1.6-.2.2-2.6 0-5.3.5-7.8 1.1-5.2-1.3-8.7-5.2-11.1-3.8-2.3-7.4-1.8-10.3 2.2-1.5 2.1-3.5 4-5.6 5.5-1.3.9-3.2 1-4.7 1.4zm18.2-30.4c-1.4.5-3.5.6-4.5 1.7-2.5 3-4.5 6.3-6.5 9.6-1 1.6-1.8 3.3-2.5 5.1-1.4 3.4-2.6 6.8-4 10.4 0 0 1 .5 1.5.2 5.2-3.3 7.4-9.1 10.6-14 2.4-3.8 3.5-8.3 5.4-13zm6.6-31c-1.8.9-4.8 1.5-5.2 2.8-1.1 4.3-4.2 7-6.7 10.2-.1.1.3.6.7 1.2 6.9-1.7 8.9-7.8 11.2-14.2zm5.8-6.1c-.4-.6-.8-1.2-1.3-1.9-3.4 3.3-10.1 2.2-11.7 9.5 4.8-2.8 8.9-5.2 13-7.6z" fill="#fff"/>
  <path d="M94.1 353.6c4.5-7.1 8.1-12.8 11.8-18.6.7-.8 1.5-1.5 2.2-2.3.4 1.6.7 3.2 1.3 4.7 2.1 5 4.4 9.9 6.5 14.9 2.2 5.3 4.7 3.5 7.9.7 4.6-4.1 9.4-7.8 14.2-11.6.8-.6 1.9-.8 2.9-1.3 3.4 6 6.7 11.8 10.1 17.6 3.1 5.4 5.6 5.8 10 1.5 2.7-2.7 5.2-5.7 7.7-8.7 2.5-3 5-6 8.4-10.1 3.7 8.8 6.7 15.7 9.7 22.9 2.1-1.4 3.5-2.4 5.4-3.7-.1 8-6.7 8.8-11 9.9-11.2 2.8-22.6 2.8-34.3 1.9-12-.9-23.2-4.1-34.2-8.3-6.1-2.3-11.8-6-18.6-9.5zM69.2 75.8c-6.9-6.5-12.8-12.2-18.9-17.6-2.5-2.2-5.6-3.6-8.1-5.7-1.6-1.4-3.8-3.4-3.8-5.2 0-11.1.5-22.2.9-33.3 0-.9.1-1.7.2-2.8h10c-1.9 2.5-3.4 4.5-5 6.5.5.5 1.1 1 1.6 1.5 2.7-3.1 5.3-6.2 8-9.3.5.4.9.8 1.4 1.2-3.7 4.6-7.5 9.2-11.2 13.9.3.3.7.5 1 .8 1.5-1.4 3.2-2.6 4.6-4.1 1.6-1.7 3.1-3.5 4.4-5.4 3.7-5.6 9-6.1 14.9-4.9v64.4zm-6.7-61.6c-.5-.5-1-1-1.5-1.4-5.8 6.4-11.7 12.7-17.5 19.1.5.5 1 .9 1.5 1.4 5.9-6.5 11.7-12.8 17.5-19.1zm-4 17.7c-.5-.4-1.1-.7-1.6-1.1-3.3 3.8-6.6 7.5-9.9 11.3.6.5 1.2.9 1.8 1.4 3.2-3.8 6.4-7.7 9.7-11.6zM26.5 74.1c.9-.8 1.8-1.5 2.8-2.3 4.6-3.7 11.4-5.4 10.5-14-1.4 1.1-2.6 2.7-4.1 2.9-1.2.2-2.7-1.2-5-2.3-5.6 4.1-12.1 8.9-18.6 13.7-2.8-2.4-2.7-3.7.8-5.8l6.6-3.9c-.3-.6-.6-1.1-.8-1.7C16 62 13.3 63.3 9.9 65c.3-3.5.2-6.5.9-9.4.2-.9 2.4-1.8 3.7-1.8 6.4 0 12.8.2 19.2.5 2.2.1 4.5.6 6.4 1.5 9.2 4.9 18 10.4 22.9 18.9-4.3 2.2-8.4 4.2-12.5 6.3.1.5.3 1 .4 1.6 6.1-2 12.3-4 18.9-6.2v9.2H10.4c-.5-6 2.1-8 7.9-7.1 1 .2 2.3-.7 3.4-1.3 1.7-1 3.3-2.1 5-3.2l-3.3 5.4c.2.3.4.6.7 1 6.3-4 12.6-8 18.9-12.1-.3-.6-.7-1.1-1-1.7-2 1.2-3.8 2.6-5.9 3.6-3.1 1.4-6.4 2.6-9.6 3.9zm30.8-.1c-.1-.5-.1-1-.2-1.5-2.5 1-5 2-8 3.1.5-1.8.7-2.9 1.1-4.2-2 1.3-3.7 2.3-5.7 3.6-.1-1.8-.2-2.8-.3-4.5-4.3 3.4-8 6.2-11.7 9.1.3.3.6.6.9 1 3.3-.4 6.6-.8 10.3-1.3-.2 1.1-.5 2.3-1 4.8 5.5-3.9 10.1-7 14.6-10.1zM517.4 69.6c5.6-2.7 3.7 5.1 7.6 5.2.1-1.8.3-3.6.4-5.2h23.3c-.5 10.9-.9 21.2-1.8 31.4-.1 1.1-3.2 2.8-4.7 2.6-6.6-.7-13.2-1.8-19.7-3.3-1.2-.3-2.4-3-2.6-4.7-1-8.4-1.7-16.9-2.5-26zM334.9 417.2c5.6 8.6 10.7 16.5 15.7 24.3-.5 2.3-.8 4.6-1.5 6.9-.9 2.6-1.5 5.7-3.4 7.6-1.5 1.5-4.6 2.2-6.9 2.2-6.6-.1-13.7 2.4-18.6-5.6-2.2-3.6-1-5.5.4-8.1 4.3-8.3 8.7-16.5 13.1-24.8.2-.6.5-1.2 1.2-2.5zM96.9 339.2c-9.9-15.1-5-32.4 11.3-46.9 3.8 7.9 7.7 15.7 11.3 23.6.5 1.2 0 4.1-.8 4.5-8.8 3.9-14.9 10.8-20.4 18.3-.2.3-.7.3-1.4.5zM339.6 353.4c11.9-1.4 22.2-2.6 32.8-3.8 0 .2-.2 1.3-.6 2.3-3.7 9.6-7.3 19.2-11.2 28.6-1 2.4-3.2 4.3-5.3 6.9-5.4-8.7-10.4-15.8-14.4-23.5-1.6-2.9-.9-7.1-1.3-10.5zM521.8 113.4c8.4 1 15.8 1.7 23.2 2.8.9.1 2 2.8 2.1 4.3.2 7.7.1 15.4.1 24.3-7-1.4-13.7-2.5-20.3-4.1-1-.2-2.2-2.1-2.4-3.3-1-7.6-1.8-15.2-2.7-24zM539.1 332.5c-4.5-.8-9.1-1-13.2-2.4-4.4-1.5-9.3-3.2-9.6-9.5-.1-2.8-1.6-5.5-1.9-8.3-.5-4.1 1.1-6.7 6.3-5.9-1.9-5.7.5-6.1 4.7-4.4 1.1.5 2.4.8 3.6 1.1 12.1 3.9 14.2 8 11.2 20.8-.8 2.8-.8 5.7-1.1 8.6zM541.9 247.5v27.8c-7.2-2.6-13.4-4.8-19.5-7.1-1-.4-2.4-1.4-2.5-2.4-.9-4.7-1.5-9.5-2.3-14.2-.4-2.1-1.2-4.2-1.5-6.3-.1-1 .1-2.4.7-3.1.5-.5 2-.2 2.9.1 7.2 1.6 14.3 3.3 22.2 5.2zM521.5 175.1c6.6 1.2 13.4 2.1 19.9 3.7 3 .8 6.2 2.6 3.7 7.1-1.1 2.1-1.2 4.8-1.8 7.2-7.7 0-7.9.5-8.3 8.3-.4 8.4-1.4 16.8-2.1 25.3-.3 3.4-.2 6.3 4.2 7.6 2.3.7 4.2 3 6.3 4.5-.4.9-.8 1.8-1.2 2.6-6.7-1.7-13.7-2.8-20-5.4-3.6-1.5-.1-3.5 1.5-4.9 1.3-1.2 3.5-2.5 3.7-3.9 1.7-11.5 3.2-23 4.2-34.6.1-1.7-2.2-4.5-4.1-5.4-6.4-2.8-7.4-4.2-6-12.1zM548.7 54.2c-7.9-.6-16-1.1-24-1.8-.8-.1-2-1.1-2.1-1.8-.6-3.8-1-7.7-1.4-11.6-.3-3.3 1.5-4.4 4.6-4 6.8.8 13.5 1.7 20.3 2.1 3.8.2 4.8 1.9 4.3 5.1-.5 3.5-1 7-1.7 12zM161.1 446.7c-14.6 7.6-57.8 5.3-67.1-3.6 2.3-2.9 4.6-3.1 8.3-2.2 6.8 1.7 13.9 2.4 20.9 3.3 4.3.6 8.7.9 13 1 1.1 0 2.4-.7 3.5-1.3 6.9-4.4 14.3-3.6 21.4 2.8zM361.7 409.7c-2.5.6-5.1.9-7.4 1.9-1.2.5-2 2-2.9 3 1.2.5 2.3 1.3 3.5 1.4 1.9.2 3.9-.1 5.8-.2.1.4.3.9.4 1.3-4.4 1.6-8.9 3.2-14.4 5.2-2.2-3.4-5.6-8-8.4-13-.8-1.4-.4-4.1.5-5.5 3.9-6.3 9.1-11.1 16.6-12.4 2.8-.5 5.8.3 8.8.4l.3 1.8c-2.3.5-4.7 1.4-7 1.3-3.6 0-5.8.7-4.8 5.2 3 .2 6.2.4 9.3.5.1.5.2 1.1.3 1.6-4 .9-8 1.9-12 2.8 0 .7-.1 1.4-.1 2.1 3.8.4 7.6.8 11.4 1.3 0 .5 0 .9.1 1.3zM209.6 443.6c-10.9.2-21.8.2-32.6.8-11.6.7-19-9.4-30.3-9.2.2-.6.4-1.3.6-1.9 3.6.5 7.2 1.2 10.9 1.3 3.4.1 6.9-.6 10.2-.4 3 .2 7.2.2 8.7 2.1 3.5 4.4 7.2 2.5 9.8.7 7-4.6 13.4-1.3 20 .3 1.6.4 2.7 2.8 4 4.3-.5.7-.9 1.4-1.3 2zM506.2 358.7c8.2 1.2 4.2 9.9 10.3 12.8-.3-3.8-.6-6.8-.9-10.1 7.4 1.6 14.8 3.2 22.4 4.9 0 .1.3.6.3 1.1.6 12.2 0 12.7-12.1 10.1-4.2-.9-8.5-1.8-12.7-2.4-4.2-.6-5.8-3.1-5.9-7.2-.1-2.8-.8-5.5-1.4-9.2zM512.9 412.1c2.3-4.7 4.4-8.1 5.7-11.8 2-6 6.1-7.2 11.6-6.5 2.2.3 4.4 0 7.1 0v6.8c0 3 .5 5.4 4.5 3.7.4-.2 1.8 1.1 1.8 1.2-.9 1.6-1.8 4.3-3 4.5-7.2 1.2-14.4 1.8-21.7 2.5-1.6.2-3.4-.2-6-.4zM221 419.1c0-4.1-.1-6.3 0-8.4.4-5.6 3-8 8.5-8h16.9c-.5 4.8-.8 9.1-1.5 13.2-.1.8-1.4 1.9-2.2 2-7 .5-14 .8-21.7 1.2zM518.1 156.4c9.1 1.6 18.2 3.2 27.4 4.8.1.5.4.9.5 1.5.5 11.9-2.1 13.9-13.6 10.1-1.5-.5-3.1-.9-4.7-1.2-8.9-1.8-11-5-9.6-15.2zM180.1 421.8c-8.3-.4-16.6-.8-24.9-1.1-4.8-.2-6.2-2.8-5.1-7.1 2.3-1.4 4.6-3 7-4.3 1-.6 2.3-.9 3.5-1 5.2-.3 10.5-.6 15.7-.6 1.3 0 3.5 1.4 3.7 2.4.4 3.6.1 7.2.1 11.7zM284.8 399.4c-6.6 7-6.6 7-11 1.1-2.7 2.1-5.8 3.6-3.7 8.3 1.2 2.8-5.2 7.5-9.9 8-.8.1-1.7.4-2.2.9-3 3.2-5.9 6.5-8.8 9.8-.7-.4-1.4-.9-2.2-1.3.7-1.7 1-3.7 2.1-5 6.9-7.9 14-15.7 21-23.5.8-.9 1.5-1.8 2.4-2.6 2.6-2.5 5.1-3.8 7.7.3.9 1.6 2.9 2.6 4.6 4zM550.9 23.2c-6.8-.8-12.8-1.5-18.9-2.3-8.5-1-8.5-1-9.3-9.7 5.2.4 10.2.9 15.3 1.1 2 .1 4.1 0 6.1-.5 6.5-1.5 9.3 1 8 7.6-.2 1.4-.8 2.7-1.2 3.8zM537.8 360.6c-4.7-.9-9.4-1.8-14-2.7-.7-.1-1.3-1.1-1.8-1-9.5 1-9.8-5.7-10.3-12.7 8.2 1.7 16.3 3.1 24.3 5.1 1.4.3 2.5 3.2 2.9 5.1.3 1.5-.5 3.2-1.1 6.2zM105.6 415c8.9.3 17 .8 25.1.7 4.3 0 6.2 2.1 6 5.7-.2 3.1-2.2 3.4-5.8 3.8-7.5.8-14.3-.6-21.3-2.2-5.1-1.1-7-3.8-4-8z" fill="#fff"/>
  <path d="M514.3 189c4.9.8 5.8 6.9 10.1 3.2.6 1.1 1.9 2.2 1.8 3.2-.2 8.9-.6 17.9-1.2 26.8-.1 1.1-1.5 2.1-2.4 3.1-.8-.8-2.2-1.4-2.4-2.3-2-11-3.8-22.1-5.9-34zM199.4 354.9c1.4-9.9 3.1-20.2 4.3-30.7.6-4.8 5-5.2 7.3-8.1 5 12.6-1.7 33.4-11.6 38.8zM198.8 269.7c-5.5 6.1-10.4 11.6-16 17.8-5.4-6.3-10.6-12.3-15.3-17.8h31.3zM581.1 322.2c1.1 1.9 3 3.8 3.1 5.7.3 10 .3 20 0 30 0 1.1-2.9 3.2-3.8 2.9-1.8-.6-4.6-2.6-4.6-3.9.7-11.3 2-22.7 3.1-34 .7-.2 1.5-.4 2.2-.7zM576.3 245.5h7.7v30.7c-8-4.1-10.1-8.3-9.2-16.3.4-4.6.9-9.3 1.5-14.4zM575.5 126.7v-24.8c-.1 0 .5-.2 1-.1 2.6.2 6.4-.6 7.6.8 1.3 1.6.2 5.1.3 7.8.3 4.8.9 9.7 1 14.5.1 5.2-.9 5.7-5.6 3.5-1.6-.7-3.3-1.3-4.3-1.7zM486.4 382c7.3 6.8 0 17.4 9 23.3-.4-5-.8-9.4-1.2-13.8.4-.1.7-.1 1.1-.2 2.3 5.9 4.7 11.8 7.6 19.2-5.1 0-8.1.2-11.2 0-7-.5-7.1-5.9-7-11 .3-5.4 1.1-10.8 1.7-17.5zM540.4 292.6v8.1c-7.4-1.6-14.6-3.1-22.7-4.8-.4-2.8-.8-6.2-1.3-10.4 8.9 2.7 16.4 4.9 24 7.1zM219.5 403.9c-5.4 14.1-5 15.2 6.8 20.5-3.6 2.2-12.4 1.9-15.5-.7-4.1-3.5-3.2-7.8-1.5-12.1 1.7-4.2 1.7-10.1 8.9-8.7.4.1.6.4 1.3 1zM335.1 356.5c-2.8 3.1-5.6 6.1-9 9.8-6.6-5.9-12.9-11.4-19.8-17.5 10.1 2.7 18.9 5.1 28.8 7.7zM514.1 271.8c7.7 2.6 15.4 5.3 23.1 7.6 3.9 1.2 5.6 2.9 3.6 7.7-6.8-2.3-13.4-5.1-20.4-6.8-5.1-1.2-7.1-3.7-6.3-8.5zM581 83.3c-.5-2.6-1.4-5.1-1.5-7.7-.2-7.3-.3-14.7 0-22 .1-1.7 2-3.4 3.1-5.1.9 1.7 2.6 3.4 2.7 5.1.3 7.8.3 15.6 0 23.5-.1 2.1-1.4 4.2-2.2 6.3-.7 0-1.4-.1-2.1-.1zM584.2 160.9c-1.7-.5-3.1-.7-4.4-1.2-7.6-2.4-7.6-2.6-4.7-10.3.8-2.1.7-4.5 1-6.8 10.3.7 10.4.9 8.1 18.3zM136.5 431.2c-9.3 3-17.1 8.8-26.9 5-2-.8-4.2-1-6.1-1.9-1.1-.5-1.8-1.7-2.7-2.6 1.1-.9 2.2-2 3.4-2.7.5-.3 1.5-.2 2.1 0 9.2 3 18.4 3.4 27.6.1.3 0 .9.7 2.6 2.1zM493.2 220.1c-.8-1.2-2.3-2.3-2.3-3.5-.2-16-.1-32-.1-47.9.8-.1 1.7-.3 2.5-.4.4 1.4 1.3 2.9 1.2 4.3-.2 9.9-.9 19.7-.9 29.6 0 5.8.8 11.6 1.3 17.4-.5.2-1.1.4-1.7.5zM584.4 305.5c-14.1-1.5-7.2-12.1-9.4-18.4 9.3-.9 9.4-.9 9.4 8.6v9.8zM516 395.7c.6-6 1.7-11.1-5.2-13.3.1-.5.2-1 .3-1.6 2.3 0 4.6-.2 6.8 0 5.5.6 11 1.4 16.5 2.4 1.4.2 2.6 1.5 3.9 2.3-1.4 1.2-2.7 2.3-4.2 3.5-.1.1-.6-.3-.9-.4-7-1.5-14.2-3.7-17.2 7.1zM549.2 59.6v5.2c-8.6-.4-17.1-.8-25.6-1.2-.2-7.3-.2-7 6.9-5.8 6.1 1 12.3 1.2 18.7 1.8zM509 332c5.2-1.8 6.6 2.4 8.2 5 2.4-.5 4.5-1.6 6.3-1.2 5.3 1.1 10.5 2.7 15.8 4.3.3.1 0 1.7 0 3.8-3.4-.3-6.7-.4-10-1.1-4.5-1-8.9-2.6-13.4-3.6-3.9-.8-6.7-2.6-6.9-7.2zM571.4 377.8c1.9.3 3.4.7 4.9.8 8.2.5 8.3.5 8 8.4-.1 2-1.5 3.9-2.3 5.8-2.9-1.7-6.6-2.8-8.3-5.3-1.8-2.4-1.6-6.2-2.3-9.7zM254.2 443.6c-1.5 1-2.8 1.8-3.9 2.6-5.6 4.3-10.3 3-12.7-3.6-.2-.6-.3-1.9-.1-2 3.3-1.6 6.5-3.4 10-4.4.9-.3 2.6 1.7 3.7 2.9 1.3 1.2 2 2.8 3 4.5zM287.6 398.4c-.6-.4-.9-.6-1.1-.9-5.8-8.3-5.9-8.9 2.6-13.8 4-2.3 4.2 3.1 6.4 4.6.8.5.4 4.2-.6 5.3-1.9 2-4.7 3.1-7.3 4.8zM271.6 433.7c4.1-3.2 7.2-5.5 11.2-8.5 1.5 3.2 4.3 6.5 4 9.3-.3 2.4-4.8 6.4-6.7 6-3.1-.7-5.6-4.3-8.5-6.8zM318.3 418.1c1.3 3.8 8.9 4.6 5.5 10-2.8 4.5-9.9 4.9-12.5 2-3.2-3.5-3-3.8 7-12zM576.7 16.7c2-.2 3.6-.4 5.2-.6 2.9-.4 3.8 1 3.5 3.6-.4 3.2-.5 6.4-1.1 9.5-.3 1.5-1.4 2.8-2.1 4.1-1.8-1.2-5-2.2-5.3-3.7-.7-4-.2-8.2-.2-12.9zM495.8 137c-1.5-2-3.2-3.3-3.3-4.6-.3-6.1-.3-12.2.1-18.2.1-1.1 2.1-2.6 3.4-2.9 2.2-.5 4.4-.9 3.4 3.3-1.7 6.8-2.3 13.9-3.6 22.4zM541 230.3c-.9-1.5-2.5-2.9-2.5-4.4.1-7.9.5-15.8 1.1-23.7.1-1 1.5-2 2.3-3 .7 1.1 1.9 2.3 1.9 3.4-.2 9-.6 17.9-.9 26.9-.7.3-1.3.6-1.9.8zM296.6 415.9c1.9 3.6 3.1 6.2 4.4 8.6-6.4 8.1-7.5 8.1-15.5-.9 3.5-2.5 7-4.9 11.1-7.7zM268.8 452.2c-3.5-3.7-5.9-6.2-9.1-9.6 3.2-2 6.2-4.6 9.6-5.6 1.1-.3 4 3.3 5 5.5 2.1 5.3-4.8 4.8-5.5 9.7zM257.3 457.9c-5.3 1.4-6.2-3.4-8.8-5.5 2.8-2 6-5.8 8.3-5.4 2.7.5 5.4 4.5 6.8 7.6.9 2.3-1.7 3.4-6.3 3.3zM301.7 358.4c2.1 4 3.7 7.1 5.3 10.1-.2.4-.4.9-.6 1.3-2.3-1.4-4.6-2.7-7.2-4.2-.2.7-.6 1.5-.4 2 2.9 5.1-1.4 6.9-4.3 9.1-.8.6-3 .6-3.6 0-.8-.8-1.2-3-.6-3.8 3.6-5 7.4-9.6 11.4-14.5zM545.7 149c.5 6.5 0 6.9-5.5 5.7-2.9-.7-5.9-1.2-8.9-1.4-4.3-.3-5.6-2.2-4.6-6.6 6.3.8 12.5 1.5 19 2.3zM560.5 260.4c-2.4-15.9-4.8-31.8-7.2-47.8l2.4-.3c2.4 15.9 4.8 31.9 7.1 47.8-.7.1-1.5.2-2.3.3zM300.8 442.5c-6.3-8.3-6.3-8.3-.9-12 3.3-2.3 8.1-1.2 9.1 2.9 1.6 6.3-5.3 5.9-8.2 9.1zM281.9 445.2c3.2-2.9 5-7.8 10.2-5.8 2.6 1 6.4 3.2 3.7 7-1.6 2.3-4.8 4.7-7.3 4.8-2 0-4-3.5-6.6-6zM579.8 211.5c1.2-8.7-1.8-17.8 1.9-26.2.8 0 1.5.1 2.3.1.1 2.6.4 5.2.4 7.8.1 5.3.2 10.6-.1 15.8-.1 1.3-1.6 2.6-2.5 3.9-.7-.5-1.4-1-2-1.4zM550.3 28c.3 3.6 0 5.5-5 4.1-4.8-1.4-10.2-.9-15.3-1.5-1.4-.2-2.8-.9-3.8-1.8-.5-.4-.3-2.5 0-2.6 1.4-.4 3-.7 4.5-.6 6.2.7 12.6 1.5 19.6 2.4zM239.5 457.3c-3.5-1.9-8.5-3.1-10.1-6-1.5-2.8.5-7.5.9-11.4.6 0 1.2.1 1.7.1 3.2 5.1 6.4 10.1 9.5 15.2-.6.6-1.3 1.4-2 2.1zM296.3 409.1c-1.9-2.6-5.4-6.1-4.9-6.9 1.6-2.6 5-5.7 7.5-5.6 2.2.1 4.3 4.3 6.4 6.7-2.7 1.8-5.4 3.5-9 5.8zM315.2 415.8c-1.7 1.5-3.1 2.9-4.6 4.1-2.7 2.1-5.1 3.3-7.6-.8-3.8-6.2-4-6.1 3.2-7.7 1.5-.3 2.9-1.1 4.4-1.8 1.5 2 3 4 4.6 6.2zM245.5 397.8h-17.6c3.9-3.7 5.8-9.6 11.9-8 2.6.7 4.5 4.2 6.8 6.4-.4.6-.7 1.1-1.1 1.6zM575.6 227.4c-.5-4.3-1-8.3-1.5-13 3.7 1.6 6.6 2.9 9.8 4.3 1.3 8.7.9 9.2-8.3 8.7zM510.8 187.2c1.7 11.5 3.3 23.1 5 34.7-3.8-1.2-8-23.6-6.6-34.4.6-.1 1.1-.2 1.6-.3zM278 447.5c2.1 3.5 8.9 4.2 5.6 9.8-1.6 2.7-9.1 1.6-11-1.5-3.8-6.2 4.5-4.7 5.4-8.3zM307.7 388.8c2.2-.2 5.3-1.3 6.4-.3 2 1.9 3.8 5 3.8 7.6 0 1.4-3.7 2.9-5.7 4.4-1.8-3.2-3.7-6.5-5.5-9.7.4-.7.7-1.4 1-2zM573.7 87.9c9.4-1.3 12 1.3 11.5 7.8-10.9 2.1-12.3 1.2-11.5-7.8zM494.5 66.8c.8 1.5 2.2 3.1 2.2 4.6 0 8.3-.4 16.7-.7 25 0 .3-1.1.6-2.7 1.5V67c.4 0 .8-.1 1.2-.2zM569.8 183.1c.5 9.9.8 19.8-.8 29.7h-1.4v-29.7h2.2zM514.8 119.6c.5 2.4 1 4.7 1.5 7.3.9-.6 2-1.4 3-2.1.7 4.8 1.5 9.8 2.3 15.1-4.7.1-7.1-2.2-7.2-6.8-.1-4.4 0-8.9 0-13.3l.4-.2zM334.5 390.9c3.9 5.5 3.4 8.4-2.1 13.4-2-2-4.1-4-6.2-6 2.7-2.4 5.5-4.9 8.3-7.4zM573.9 308.5c3.7 1.4 9.5 2.1 10 4.1 2.5 9.8-7.3 3.2-10 7.7v-11.8zM569.9 244.5V270c-3.6-1.9-4.5-16.7-1.9-25.5.7.1 1.3 0 1.9 0zM374.7 431.1c-.6 4.5-.9 8.4-1.6 12.2-.2 1.1-1.5 2.1-2.3 3.1-.9-.7-1.9-1.3-2.6-2.1-3.3-4.4-.3-11.6 6.5-13.2zM262.4 428.5c1.1.7 2.9 1.2 3.2 2.1.3 1-.4 3-1.3 3.6-2.6 1.7-4 6.4-8.6 3.7-3.1-1.9-3.5-4.7-.4-6.4 2-1.1 4.4-1.9 7.1-3zM150.5 425.7h28.4c-6 6.2-24.9 5.8-28.4 0z" fill="#fff"/>
  <path d="M585.4 178.7c-12.9 2.1-6.5 12.2-10 19.5-.6-8.3-3-15.1 1.2-21.5.9-1.4 3.5-2.2 5.3-2.1 1.1.1 2 2.3 3.5 4.1zM309.9 452.4c-2.3-2.2-4.1-3.9-6.6-6.1 3.2-2.4 5.7-4.6 8.6-6.3.9-.6 2.6 0 3.9.1-.1 1.1.1 2.5-.4 3.4-1.6 2.8-3.5 5.6-5.5 8.9zM498 36.5c-.4 4.9-.6 8.2-1.1 11.6-.2 1.2-1 2.2-1.6 3.3-1-1.3-2.6-2.5-2.7-3.9-.4-3.8-.3-7.7.1-11.5.1-1.2 1.8-2.2 2.8-3.2 1 1.6 2.1 3.1 2.5 3.7zM511.4 238.9c1.8 8.8 3.6 17.7 5.8 28.3-2.2-2.2-4.5-3.4-4.7-4.9-1.2-7.6-2-15.4-2.9-23.1.7-.1 1.2-.2 1.8-.3zM230.7 390.6c-3.6 3.1-6.5 5.9-9.8 8.3-.7.5-2.6-.1-3.6-.8-.4-.3.1-2.2.6-3.2 2.2-4.5 5.6-6.9 12.8-4.3zM568.1 101.4c3.9 3.4 4.1 21 0 25.2v-25.2zM304.6 452.8c-.8 1-1.2 1.7-1.8 2.1-3.1 2.2-6.9 6.2-9.9 2-2.6-3.7 2.9-5 5.1-7 .5-.5 1.1-.8 1.8-1.4 1.7 1.3 3.1 2.7 4.8 4.3zM290.5 408.4c-.9 1.1-1.4 2.3-2.4 2.8-2 1.1-4.3 1.5-6.2 2.6-3.3 1.8-3.9-.1-3.9-2.6 0-2.6 7.4-7.4 9.7-6.2 1 .6 1.7 2.1 2.8 3.4zM584.1 404.1v6.1c-3.6-.5-6.9-.9-10.3-1.3-.5-1.8-1-3.6-1.8-6.2 4.3.5 8.1.9 12.1 1.4zM576.9 38.4h7.4c.1 2.2 1.2 5.6.2 6.3-2.1 1.6-5.2 1.8-8.4 2.8.4-3.8.6-6.2.8-9.1zM489.1 308.9v-21h1.7c.5 5.9 1.2 11.8 1.4 17.7 0 1-2 2.1-3.1 3.3zM582.9 230.7c3.2 8 1.7 9.4-7.9 8.6-2.9-7.9 5.1-5.5 7.9-8.6zM572.1 364.9c5.2 2.5 11.8.8 12 8.5-5.9 1.5-9.7-.9-12-8.5zM492.9 248.1c-3.3-2.3-3.7-7.1-1.7-20.9 2.5 1.3 3.4 12.3 1.7 20.9zM565.7 299.3c.4-5.3.8-10.5 1.3-15.8.7-.1 1.5-.2 2.2-.3.7 2.8 2.1 5.7 1.8 8.5-.3 3-2.2 5.7-3.4 8.6-.6-.4-1.2-.7-1.9-1zM567.1 157.5v-17c.4-.3.7-.6 1.1-.8.7 1 2 1.9 2.2 3 1.1 10.6.6 13.4-3.3 14.8zM387 457.8c2.4-3.9 4.6-7.5 7.5-12.3.9 2.5 2.5 4.7 2.1 6.2-1.2 4.1-3.1 8.2-9.6 6.1zM491 362.4c-.2.2-1.5 1.9-2.4 1.7-1.1-.2-2.6-2-2.6-3.1 0-3.3.5-6.7 1-10 .1-.7.9-1.3 1.3-1.9.6.6 1.7 1.2 1.8 1.9.4 3.4.6 6.8.9 11.4zM398.3 459.1c.8-2 1.5-3.8 2.2-5.6.6-1.6 1.2-3.2 1.7-4.8.6-.1 1.1-.3 1.7-.4.8 2.5 2.5 5.1 2.1 7.4-.7 3.8-3.9 4.6-7.7 3.4zM568.7 32.9c.4-5.7.8-11.1 1.3-17.9 4.4 6.1 3.4 16.3-1.3 17.9zM301.4 376.6c2-.8 2-.8 9.8 6.7-1.8 1.2-3.4 2.2-5.5 3.6-1.6-3.8-2.9-7.1-4.3-10.3zM522.3 106.1c7.4 1.1 14.9 2.2 22.3 3.4-.1.7-.2 1.3-.3 2-7.4-1-14.9-2-22.3-3.1.1-.8.2-1.5.3-2.3zM507.2 353c-1.3-1.5-2.8-2.8-3.8-4.4-.6-1-.5-2.5-.5-3.8 0-1.3.4-2.5.7-3.8 1.3.7 3.4 1.1 3.8 2 .9 2.8 1 5.8 1.5 8.8-.6.4-1.1.8-1.7 1.2zM511 283.2c3 5.3 2.3 12 4.3 17.7.2.6-1.2 1.7-2.2 3-1.2-7.4-2.3-13.7-3.3-20 .3-.2.7-.4 1.2-.7zM363.6 447.6c1.3 2.4 2.9 4.7 3.7 7.2.3.9-1.2 2.4-1.9 3.6-1.4-.8-4-1.6-4.1-2.5-.2-2.7.6-5.5 1-8.3h1.3zM329.1 409.1c-3.7 1.9-6.2 3.1-9.7 4.9-.5-2-1.8-5.1-1.2-5.5 3.3-2.4 6.8-1.6 10.9.6zM571 408.6c-2.8.6-4.3 1-7.2 1.6.2-3.3.4-6.5.6-9.6.7-.1 1.3-.3 2-.4 1.4 2.6 2.9 5.2 4.6 8.4zM510.5 312.6c.9 4.3 1.7 8 2.5 11.8-6.9-2.4-8-6.5-2.5-11.8zM161.1 269.5c3 4.5 5.5 8.1 8.2 12.1-5.5.3-8.8-4.6-8.2-12.1zM565.3 374c.9 2 2.4 3.9 2.4 5.9.1 1.9-1.4 3.8-2.2 5.7-.6-.2-1.1-.4-1.7-.6v-10.4l1.5-.6zM584.1 165.7v6.1c-3.1-2.9-8.3-1.5-8.7-7.7 3.4.6 6 1 8.7 1.6zM354.7 448c3.1 8.8 2.6 9.8-4.9 10.3 1.7-3.5 3.2-6.6 4.9-10.3zM501.1 357.7c1.2 4.5 2.4 9 3.6 13.6-3.1.3-3.1.3-5.2-13 .5-.3 1.1-.5 1.6-.6zM270.1 430.4c-2.7-4.4-.4-6.4 9.2-7.8-3 2.5-5.9 5-9.2 7.8zM522.9 146v4.8c-1.6 0-3.8.6-4.5-.1-1.3-1.3-1.6-3.5-2.8-6.3 3.2.7 5.2 1.1 7.3 1.6zM495.8 10.6c.9 2.8 1.8 5.6 2.8 9-6.7-1.1-7-2-2.8-9zM563.9 42.4v17.2c-.3 0-.6 0-.9-.1V42.2c.4 0 .6.1.9.2zM197.6 287.2c-6.7-5.9 0-8 1.1-11.4.6.1 1.1.3 1.7.4-.8 3.5-1.7 7-2.8 11zM496 150.8c-1.4 4.5-2.4 7.8-3.4 11.1-.5-.1-1-.2-1.5-.2.5-3.7 1-7.5 1.7-11.2 0-.2 2.5.2 3.2.3zM506.2 245.3c.8 5.1 1.7 10.3 2.5 15.4-.7.1-1.5.2-2.2.3l-2.1-15.6c.6 0 1.2 0 1.8-.1zM559.6 286.5c-.5-4.5-1-9-1.6-13.8 3.8 1.8 4.5 7 1.6 13.8zM10 75.5c4.1-2.6 8.1-5.1 12.2-7.7.3.5.7 1.1 1 1.6-4.1 2.6-8.2 5.3-12.3 7.9l-.9-1.8zM500.8 103.6c-1.9 1.5-3.9 3-6.5 5-.8-6.9-.4-7.3 6.5-5zM272.6 415.1c-.4 1.5-.3 3.7-1.3 4.4-1.9 1.3-4.5 1.8-6.7 2.7-.2-.5-.5-1.1-.7-1.6 2.6-2 5.1-4 7.7-6 .2.2.6.3 1 .5zM326.4 422.1c-1.6-2.5-2.6-4.1-3.7-5.9 2.1-1.5 3.9-2.7 5.6-4 .3.3.6.5.9.8-.7 2.5-1.5 5.1-2.8 9.1zM490.6 269.9c3.8 3.5 3.3 7.6-1.3 11.8.5-4.2.9-7.7 1.3-11.8zM504 279c1 3 1.9 6.1 2.9 9.3-4.2-.2-5.1-2.3-2.9-9.3zM409.9 442.1c-5-3.7-5-6.4 0-8.9v8.9zM245.5 429c-3.2 2.8-6.3 5.7-9.5 8.5-.4-.4-.7-.8-1.1-1.2 3-3 6-6.1 8.9-9.1.5.6 1.1 1.2 1.7 1.8z" fill="#fff"/>
  <path d="M356.5 303.4c-1.9 3.2-3.4 6.2-5.4 8.8-.4.5-2.7.2-3.7-.5-3.7-2.6-3.4-10.8.7-12.8 1.5-.7 3.8-.7 5.3 0 1.4.6 2 2.7 3.1 4.5zM362.8 310.6c3.5.3 6.2.5 10.2.8-2.4-3.6-3.9-6-5.7-8.6 4.8-1.8 8.3.3 9.7 3.5.8 1.8-1 6.1-2.9 7.6-3.4 2.5-7.9 3.9-11.3-3.3zM387.5 299.4c2 3.4 3.7 5.2 4 7.2.5 3.3-4.2 8.1-7 7.2-1.5-.5-3.8-3.5-3.5-4.3 1.4-3.2 3.8-6 6.5-10.1zM350.6 335.6c4.3-1.1 7.8-2 11.4-2.7.6-.1 1.9 1.1 2.1 2 .2.8-.3 2.2-1 2.8-3 2.3-8.6 1.7-12.5-2.1zM205.6 233.6c3.6.8 8.4 1.5 12.9 2.9 4 1.2 3.4 4.7 1.3 6.8-2.2 2.1-5.5 3-8.3 4.3-7.8 3.7-15.4.1-23-1-2-.3-3.6-3.5-5.4-5.4 2.8-2 5.4-4.7 8.5-5.8 3.9-1.2 8.4-1.1 14-1.8zM185.5 183.4c1.6 0 3.7-.6 4.9.1 6.7 4.1 13.2 1.3 19.6-.3 6.4-1.6 6.6-1.7 8.7 5.6 2.6-2.1 4.8-4.3 7.3-5.9 1.4-.9 3.4-1.1 5.1-1.6-.4 1.7-.6 3.5-1.4 5-.7 1.3-2.1 2.1-3.2 3.1.3.5.6.9.9 1.4 3.8-2.3 7.7-4.6 11.5-6.8-6.2 10.1-8.5 10.9-18.7 8.8-2.1-.4-4.6 1.2-6.9 1.1-3.8-.2-7.7-.7-11.4-1.6-4.4-1.1-8.7-2.5-12.9-4.1-1.5-.6-2.6-2.1-3.8-3.2 0-.5.2-1.1.3-1.6zM183.9 207.6c-.8-5.1 4.3-10.2 7.5-10.3 3.3 0 4.5 2.8 4.5 6.1 0 6-2.8 10.8-6.4 10.6-3.5-.2-5.6-2.6-5.6-6.4zM213.9 201.4c9.5.7 12.5 4.2 11.5 11.2-.6 4.1-6.1 8.8-9.9 8.4-4.1-.5-7.2-3.1-7-6.6 2.1.4 4.3 1.4 6.1 1 2.3-.5 4.3-2.2 6.4-3.3-1.1-2-2.1-4-3.3-5.9-1.1-1.7-2.5-3.2-3.8-4.8zM236.3 200.1c6.4 7.2 6 10.7-1.9 17.5-7.1-3.4-6.5-10.1 1.9-17.5zM385.5 395c-1.9 4.7-3 9.3-5.4 13-3.2 4.9-5.4 10.7-10.6 14-.5.3-1.5-.2-1.5-.2 1.4-3.6 2.6-7 4-10.4.7-1.7 1.5-3.5 2.5-5.1 2-3.3 4-6.7 6.5-9.6 1-1.2 3.1-1.3 4.5-1.7zM392.1 364c-2.3 6.4-4.3 12.5-11.2 14.1-.4-.6-.8-1.1-.7-1.2 2.5-3.2 5.7-5.8 6.7-10.2.4-1.2 3.4-1.8 5.2-2.7zM397.9 357.9c-4.1 2.4-8.1 4.8-12.9 7.7 1.5-7.3 8.2-6.2 11.7-9.5.3.5.7 1.1 1.2 1.8zM62.5 14.2c-5.8 6.3-11.7 12.7-17.5 19-.5-.5-1-.9-1.5-1.4 5.8-6.4 11.7-12.7 17.5-19.1l1.5 1.5zM58.5 31.9c-3.3 3.9-6.5 7.7-9.8 11.6-.6-.5-1.2-.9-1.8-1.4 3.3-3.8 6.6-7.5 9.9-11.3.6.4 1.2.8 1.7 1.1zM57.3 74c-4.6 3.1-9.2 6.2-14.8 10 .5-2.5.8-3.7 1-4.8-3.7.5-7 .9-10.3 1.3-.3-.3-.6-.6-.9-1 3.7-2.9 7.4-5.7 11.7-9.1.1 1.7.2 2.7.3 4.5 2-1.3 3.7-2.4 5.7-3.6-.3 1.3-.6 2.4-1.1 4.2 3-1.2 5.5-2.2 8-3.1.3.6.4 1.1.4 1.6zM26.5 74.1c3.2-1.3 6.4-2.5 9.6-4 2.1-1 3.9-2.4 5.9-3.6.3.6.7 1.1 1 1.7-6.3 4-12.6 8-18.9 12.1-.2-.3-.4-.6-.7-1l3.3-5.4-.2.2z"/>
  <text transform="translate(208.9 60.977)" font-family="Peanuts" font-size="40">IT IS...</text>
  <text transform="translate(489.351 453.08)" font-family="BaskervilleT-Bold" font-size="35">12-16</text>
</svg>
