<svg xmlns="http://www.w3.org/2000/svg" viewBox="0 0 595.3 475.8" xml:space="preserve">
  <path fill="#fff" d="M0 0h595.3v475.8H0z"/>
  <path d="M0 463.6v-69.7c.4-2.2 1.1-4.4 1.1-6.6.4-57.4.7-114.8.9-172.1 0-16.5-.6-33-.7-49.5 0-7.2.9-14.4.9-21.6 0-10.7-.8-21.4-.8-32.1.1-23 .4-46 1-69 .3-11.5 1.5-23 2-34.5.2-4.1 2.2-5.3 5.9-5.3 6.7-.2 13.2-.8 19.8-.8 7.2 0 14.4.6 21.6.7 4.7 0 9.5-.7 14.2-.6 12 .1 23.9.6 35.9.6 15.1 0 30.2-.6 45.3-.6 15 0 30 1.1 45-.1 6.4-.5 12.8.2 19.3.5 6.3.2 12.6.9 18.9.8 7.9 0 15.8-.9 23.7-.8 8.4.1 16.7 1.3 25.1 1.4 6.3 0 12.5-1.4 18.8-1.5 4.1-.1 8.2 1.5 12.3 1.5 6.9-.1 13.9-.9 20.8-1.3 4.1-.3 8.2-.7 12.2-.5 3.2.1 6.5 1.6 9.7 1.6 8.8.1 17.6-.3 26.3-.3 10.1 0 20.2.1 30.3.1 6.6 0 13.1-.4 19.7-.3 10.8.1 21.6.4 32.3.4 9.2 0 18.5-.4 27.7-.4 12.1 0 24.3.4 36.4.5 9.1.1 18.1-.2 27.2-.2 9.4 0 18.9.3 28.3-.1 5.3-.2 9.3 2.5 9.3 7.7 0 11.9-.1 23.8-.2 35.7-.2 25.4-.5 50.9-.4 76.3.1 28.1.7 56.2.9 84.3.1 12.9-.6 25.8-.8 38.7-.2 19-.3 38-.3 57-.1 37.8 0 75.7-.1 113.5-.1 16-.6 32.1-1 48.1-.1 4.8-3 7.1-7.7 6.8-3.7-.3-7.4-.6-11-.6-22.6 0-45.2.1-67.7.3-2.6 0-5.3.7-7.9.6-12.1-.1-24.1-.6-36.2-.6-15.6.1-31.2.8-46.9.8-14.9 0-29.8-.6-44.7-.7-14.2-.1-28.5-1.2-42.5.7-14.1 1.9-27.9-4.5-41.8.2-.6.2-1.5 0-2.2-.1-7.1-.7-14.3-1.8-21.4-1.8-10.2 0-20.3 1.4-30.5 1.3-23.4-.2-46.9-1.2-70.3-1.4-24.7-.3-49.4-.2-74.1-.2-15 0-29.9.1-44.9.3-7.1.1-14.1.7-21.1.3-6.5-.7-14.1.8-17.6-7.4zm124.3-.3h457.6c0 .2.1-.4.1-.9.3-12.1.8-24.2.8-36.3 0-3.1-1.5-6-5.8-5.5-1.6 8-7.2 3.5-11.4 3.3.3 5.4-1.2 6.5-5.8 4.7-3.5-1.3-6.9-2.7-10.2-4-5.2 7.2-12.6 9.4-20.1 10-12.5.9-25 .8-37.5 1.3-8.9.4-17.4-1.2-25.3-5.3-5.8-3.1-11.5-4.8-18-2.5-3.3 1.2-7 3.1-10.2 2.7-5-.7-10.5-2-14.5-5-4.5-3.3-6.7-1.6-8.8 1.7-3.4 5.3-6 11.2-9.4 16.4-1.3 1.9-4.3 4.2-6.1 3.8-4.7-.9-9.3-2.7-13.7-4.9-5.1-2.5-5-5.3-.8-8.9 3.6-3.1 10.2-3 10.6-9.7-5.3.3-10.8-.1-15.9 1.1-5 1.2-7.3.2-7.4-4.5h-5l.9-3.6c-3.1-.6-4.9-.1-5.9 3.6-1 3.5-3.7 6.5-2 10.6.3.7-.7 2.6-1.5 3.2-3.5 2.4-7 5.1-11 6.4-7.3 2.4-14.8 4.4-22.3 5.7-5.6.9-11.4.4-17.1.7-10.3.7-20.5 2.3-30.7 2.2-10.1-.1-20.3-1.8-30.4-2.8-17.5-1.7-34.5-5.1-50.1-13.7-2.5-1.4-5.6-4.5-5.6-6.8 0-2.4 3-5.6 5.4-7 10.5-6.1 22.3-7.2 34.1-8.2 9.9-.9 19.8-1.7 29.7-2.2 4.7-.2 5.7-2.9 5.5-6.7-.5-8.7-1.1-17.4-1.7-26.2-.3-5.5 7.3-14.5 12.9-13.1 7.4 1.8 10.2 5.7 9.7 13.3-.5 8.8-1.1 17.6-.8 26.4.1 2.3 2.9 5.9 5 6.4 16.3 3.7 32.6-.4 49-.8 1.3 0 2.5-.1 3.8.1.1 0 .4 1.7.2 1.8-1 .6-2.2 1.3-3.4 1.3-4.3.1-8.6.1-12.8.1v1.1c5.9.3 11.9.6 18.4 1 3.9-7.6 7.8-16.1 12.3-24.3 4.1-7.3 7.1-15.4 14.6-20.4 2.6-1.7 3.9-5.2 6-7.7 1.6-1.8 3.4-3.5 5.3-5 8.3-6.4 16.9-12.6 25.1-19.2 2.7-2.1 4.5-5.3 6.9-7.8 4.4-4.6 9.1-8.9 13.3-13.6 1-1.1 1.2-3.4.9-5.1-.5-3.5-1.4-7-2.2-10.6-.1 0-.7.3-1.3.6-11.9 4.9-24.3 8.3-37.1 9.1-5.3.3-6.3-1.3-4.5-6.6 1.1-3.1 2.5-6.1 3.8-9.1-.4-.5-.8-1.1-1.2-1.6-5 1.7-10.1 3.3-14.9 5.3-5.1 2.1-9.9 4.8-15.3 7.5-2.8-3.3-5.5-6.8-8.5-9.9-.8-.9-3-1.6-4-1.1-6.3 2.8-13-1-14.2-7.8-1.2-7 3.7-10.4 7.5-14.5-8.4-13-14.7-36.9-10-42.7 4.9 13.7 9.6 26.7 14.2 39.3 2.5-1.1 5.1-2.8 5.5-2.4 4.4 4.1 8.6 8.5 12.3 13.2.8 1-.4 3.6-.7 5.5-1.6-.4-3.7-.4-4.6-1.4-3.7-3.8-7-7.9-10.5-11.8.7.6 1.3 1.3 2 1.9-2.5 1.5-5.1 2.8-7.5 4.4-3.3 2.1-4 5.7-2.2 8.5 1 1.6 4.9 2.8 6.9 2.1 5.4-1.7 7.8.9 10.4 4.9 2.1 3.2 5 5.9 9.7 3.2 4.2-2.4 8.5-4.7 13-6.6 3.5-1.5 7.2-2.9 11-3.3 1.9-.2 5.3 1.8 5.6 3.3.6 2.7-.7 5.8-1.3 8.7-.2 1.1-.6 2.2-.6 3.2 0 .2 1.5.7 2.3.6 14.4-2.8 28.8-5.8 42-12.7 1.4-.7 3.8-.2 5.5.3 4.4 1.3 6.4 4.8 6.7 9.9 1.4-1.2 2.2-1.5 2.5-2.1 5.2-11.2 10.4-22.5 15.3-33.8.6-1.5-.3-3.5-.3-5.3-.1-1.5-.4-3.3.1-4.6 4.8-11.5 7.7-23.9 6.5-35.8-1.7-17-4.1-34.3-16.8-48.3-6.2-6.9-13.3-11.8-20.8-16.5-10.4-6.6-22.6-6.1-34.2-7.7-8.8-1.2-16.6 2.9-24.7 5.5-12.8 4.2-22.7 12.2-30.6 22.9-10.5 14.1-16 29.8-15.3 47.5.1 2-2.1 4.7-4 6.1-2.1 1.6-4.8 2.5-7.5 3-4.4.9-5.9 2.9-4.1 7.3 1.5 3.6 2.5 7.4 3.8 11.4-1.3.1-1.7.3-2 .1-6.4-4.4-8.3-10.8-6.9-18 1.1-5.6 5.7-8.1 10.9-9.6 1.1-.3 2.2-2.3 2.4-3.7.7-4.6.6-9.4 1.6-13.9 2.8-12.8 8.8-24.2 16.7-34.5 15.7-20.2 36.4-31.2 62-31.6 6.5-.1 12.5 1.4 13-9 3 2.8 4.8 4.5 6.7 6.3.7-.8 1.5-1.7 3-3.2.7 2.8 1.2 5 1.8 7.2.7 2.8 1.3 5.5 4.8 6.3 12.2 3 21.7 10.2 29.9 19.6 10.6 12.2 13.7 27.5 15.9 42.5 2.2 15.2-1.5 30.3-6.4 44.9-1 3-.5 4.8 1.9 5.7 4.1 1.6 6 4.2 6.1 8.6 0 1.2 1.3 2.5 2.4 3.5 5.3 4.7 10.4 9.7 16.2 13.9 12 8.6 24.2 16.8 36.4 25.1 8.6 5.9 18 10.8 25.6 17.7 5.6 5.1 8.1 13.3 13.2 19.3 2.8 3.2 3.9 7.9 5.7 11.9.6 1.2 1 2.5 1.5 3.8.6-.6 1.2-1.1 1.7-1.7V100c-2.2 1.3-3.7 2.2-5.2 3.1-4.3 2.7-8.1 6.7-12.8 8-11.9 3.4-24.1 5.8-36.3 8.3-7 1.4-14.1 2.4-21.3 3-8.4.8-16.9 1.8-25.2 1.2-8.7-.6-17.3-.6-26.1 0-4.8.3-9.7-.8-14.5-1-7-.3-13.9-.5-20.9-.3-4.4.1-8.7 1.6-13 1.5-8.8-.3-17.5-1.5-26.2-1.9-8.1-.4-16.2 0-24.2-.2-9.2-.2-18.4-.8-27.6-1-2.7-.1-5.4.8-8.1.9-5 .2-10.1 0-15.5 0 1.9 10.3 3.5 19.4 5.1 28.5-.5.2-1 .5-1.5.7-2.8-2-6.3-3.5-8.3-6.1-4.3-5.5-8.2-11.4-11.4-17.5-1.9-3.6-3.3-5.7-7.8-5.6-13.9.3-27.8.4-41.7 0-10-.3-20-1.7-30.1-2-14.1-.5-28.3-.3-42.4-.8-10.4-.3-20.8-1.5-31.2-1.8-15.8-.5-31.6-.6-47.5-.8-3 0-6 .2-9-.2-8.3-.9-16.5-2.4-24.9-3.1-15.6-1.4-30.9-3.5-44-13-.6-.4-1.7-.1-2.8-.1v4.2c0 39.4.1 78.9-.1 118.3-.1 17.6-.9 35.2-1 52.8 0 37.4 0 74.9-.2 112.3-.1 21.7-.1 43.4-.1 65.1 0 3-1 7.8.3 8.5 2.6 1.4 6.4.7 9.7.7 22.1.3 44.1.5 66.2.8 2.8 0 5.6.5 8.4.5 6.1.1 12.2 0 19.4 0m188.9-329.3 1.5-.3c-.1-2.2-.1-4.4-.4-6.6-1-7.4 1.9-10.9 9.1-11.9 3.3-.5 6.2-.8 9.8-.2 5.3 1 10.9-.3 16.6-.1 20.8 1 41.6.5 62.4.6 6.9.1 13.8.7 20.7.8 8.3.1 16.6-.3 24.9-.2 3.4 0 6.9.8 10.3.7 3.2-.1 6.4-1.1 9.6-1.2 10.1-.1 20.3.4 30.4 0 6.9-.3 13.8-1.7 20.7-2.5 10.6-1.2 21.5-1.2 31.9-3.7 9.5-2.3 18.6-6.7 27.4-11.2 5.2-2.7 9-6.8 8.7-14.3-.8-19.2-.2-38.5-.3-57.7 0-7.2-7.5-15.1-14.6-15.4-10.7-.3-21.3-.6-32-.6-23.1-.1-46.2-.1-69.4.1-14.3.1-28.5.6-42.8.7-15.4.1-30.8.2-46.2-.1-11.4-.1-22.4-1.3-33.5-1.3-13.4.1-26.9 2.5-40.1 1.2-9.9-1-19.4 1.1-29 .3-7-.6-14.1-.6-21.1-.9-7.7-.3-15.4-.6-23.1-.7-6.6 0-13.2.6-19.9.6-14.9.1-29.9 0-44.8 0-15.5 0-31 .1-46.4 0-14.6-.1-29.2-.5-43.8-.7-11 0-21.9-.3-32.7-.1-5.2.1-10.7-1.5-15.3 2.7-3.3 3-7.3 5.2-10.3 8.5-3.8 4.2-8.6 7.7-8.7 14.5-.1 16-.8 31.9-.8 47.9 0 7.3 3.8 13.2 10.7 15.7 8.9 3.2 18.1 6.5 27.4 7.7 15.4 1.9 30.7 4.5 46.5 4 17.1-.5 34.2 1.2 51.3 1.8 3.8.1 7.7-1 11.6-.9 11.9.5 23.7 1.3 35.6 1.9 16.3.8 32.5 1.6 48.8 2.2 3.2.1 6.5-1 9.7-1 11.9.2 23.8 1.1 35.7.8 4.9-.1 6.6 1.8 8.1 5.6 1.8 4.5 3.9 8.9 5.8 13.3zm177.7 140.1c-1.3 4.3-2.5 7.5-3.1 10.8-1.7 9.6-3 19.2-4.5 28.9-.4 2.5-1 5-1 7.5 0 1.1 1.2 2.7 2.2 3.2 5.8 2.8 11.8 5.4 17.7 7.8 5.4 2.2 12.4-.6 15.4-5.9 1-1.8 2.1-3.5 3.1-5.2.6.2 1.1.5 1.7.7-.9 2.6-1.9 5.1-2.5 7.7-.4 1.4-.7 3.2 0 4.2.5.7 3.2.9 3.9.2 1-.9 1.4-2.9 1.3-4.3-.4-4.3-1.6-8.6-1.8-13-.1-1.7 1.5-4.1 3-5.2 1.7-1.2 4.1-1.3 5.2-1.6-13.2-11.7-26.7-23.6-40.6-35.8zM216.1 431.7c.1.4.1.8.2 1.2 2 .5 4.1.9 6.1 1.4 10.6 2.6 21.1 5.3 32.2 5 5.4-.1 10.9.3 16.4.7 3.7.3 7.4 1.1 11.1 1.3 1.5.1 3.1-.6 4.6-1.1.2-.1.2-1.3-.1-1.6-1.9-2.4-4-4.7-6-7-.1-.2-.1-.5-.1-.8 1.2-.3 2.3-.5 4.7-1-4.8-2.7-8.4-5.7-12.5-6.9-5.1-1.4-9.6-2.6-9.9-9.7-17 2.1-33.6 4.1-50.4 6.1 2.5 2.8 4.5 5 6.9 7.7v-7.4c2.9 2.4 4.7 3.9 7.6 6.3-.5-2.7-.8-3.9-1.3-6.7 3.8 1.7 6.5 2.8 9.2 4 3.9-7.8 12.1-.6 17.3-4.5.4.7.9 1.4 1.4 2.3-5.5 1.5-10.5 2.9-16.1 4.5-.1.2-.5 1.4-.9 2.6-2.2-.7-4.1-1.2-6-1.7l-.9 3.9c-2.8-1.2-5.2-2.3-8.5-3.7 1 1.7 1.5 2.4 1.9 3.2-2.3.6-4.6 1.3-6.9 1.9zM447 374.5c.8-.1 1.5-.3 2.3-.4 1.6 3.7 3.3 7.5 5.4 12.2.8-4.4 1.3-7.2 1.8-9.9 2.2 1.6 4.4 3.3 7.7 5.7 1.6-3.7 3.7-7.4 4.9-11.3 1-3.3.5-6.9 1.3-10.2 1.1-4.6 6-8.1 3.7-13.8-.3-.7 1.5-2.8 2.8-3.6 2.5-1.7 5.2-2.9 9.2-5.1-5.7-2.7-10.4-5-15.2-7.2-3.3-1.6-4.9-1.2-6.7 2.9-4.9 11.4-10.4 22.5-21.3 29.9-3.3 2.3-5.4 6.6-7.7 10.1-.4.7.7 2.3 1.1 3.5.7-.8 1.5-1.5 2.1-2.5 1.2-2 2.2-4.2 3.2-6.2 5.1 2.5 2.4 5.9 1.7 8.4-1.1 4-.6 6.9 3.2 9.5.1-4.3.3-8.2.5-12zm-39.6 6c-5.2 3.7-10.7 5.6-16.3 2.9-5.5-2.6-7.4-2.8-10.4 2.6-4.2 7.7-8.2 15.6-12.3 23.4-1.4 2.8-1.7 4.4 2.5 3.9 8.5-1.1 17-1.8 25.6-2.5 1-.1 2.1.9 3.2 1.3-.1.4-.3.9-.4 1.3-5.2.6-10.5 1.2-16.4 1.9 1.1.8 1.6 1.6 2.1 1.6 4.8-.3 9.6-.6 14.3-1.1.8-.1 1.8-1.1 2.3-2 3.2-5.4 6.3-10.9 9.3-16.5 3.7-7 2.8-11.1-3.5-16.8zm16.9-49.6c-1.5 1.1-3.5 2.4-5.1 4-6 5.9-11.4 12.4-17.9 17.6-5.3 4.2-3.5 9.2-3.8 14.1 0 .6 1.4 1.3 2.4 2.2.7-3.4 1.2-6.3 1.8-9.3.5-.1 1-.2 1.4-.3 2.2 4.6 5.4 7 10.4 6.1.5-.1 1.3.5 1.8 1 2.9 2.4 5 .9 7-1.4 2.9-3.3 5.7-6.6 8.9-9.5 4.1-3.8 8.6-7.2 13.4-11.1-7.2-4.9-13.5-9-20.3-13.4zm158.7 47c-13.6 20.3-32.9 19.5-52.6 18-.2 4.9 10.6 19.3 16.8 21-1.5-1.9-2.5-3.3-3.7-4.8 4.2-4.7 8.8-.4 13.5-.4 1.9-5.6 6.4-3.1 10.3-2.9 4.2.2 8.4.6 12.5.7 2.2 0 3.3-.5 2.8-3.7-.7-4.4.3-9.1.4-13.7.1-4.9 0-9.5 0-14.2zm-106.3-21.1c-.3 2.3-.9 5.2-1.1 8-.7 8.3 4.7 14.5 7.8 21.5 1.6 3.7 4.9 8.7 8.2 9.4 9.6 1.9 19.4 4.4 30.2.5-2.2-3.1-3.8-6.7-6.5-8.9-12.4-10.2-25.2-20-38.6-30.5zm-156.6 75.5c1.5 5.8 5.3 3.5 8.9 3 2-.3 4.2.7 6.3 1.2v1.8c5.9-1.9 11.7-3.7 17.9-5.7-5-6-19.4-2.6-14-16.5-.4-.3-.7-.6-1.1-1-1.8 1.5-3.6 3-6.2 5.3-.8-.1-2.9-.2-5.1-.3-5.7-.3-11.4-.4-17.1-.8-3.5-.3-7.4-.1-10.5-1.6-4-2-7-3.1-10.3.9-1 1.2-3.1 1.5-5.2 2.4-.2-3.8-.4-6.4-.5-9-4.6.6-8.9 1.1-13.1 1.7v2c7.3 1.9 12.5 10.3 21.8 6.3.4-.2 2 2.1 3 3.3 1.9 3 8.3-4.9 8.3 4.3h10.1c-.4 1.4-.7 2.4-1 3.7 2.4-.3 4.9-.6 7.8-1zm222.3-7.6c-2.2-2.3-3.1-3.2-3.9-4.1-3.3-3.9-6.8-5.9-12.6-4.8-7.1 1.2-14.5.2-21.8.4-2.6.1-5.8 0-7.7 1.4-5.9 4.3-9.5 4.5-15.7.8-3.3-2-7.4-3.2-10.9-.2-1.6 1.4-2.4 3.6-4.2 6.3 26.2 6.3 50.8 6.3 76.8.2zm-145 10.2c.7.5 1.4 1 2 1.5 1.3-.8 3-1.4 3.7-2.6 6.9-12.6 13.9-25.2 20.2-38 1.5-3.1 1.1-7.4.8-11-.7-7.6-6.6-11.3-12.8-13.9-5.4-2.4-6.3-1.8-8.4 1.7.8.1 1.5.2 2.2.4 10.5 3.3 17.9 12.3 13.1 22-4.6 9.2-10.1 17.9-15 27-2.3 4.1-3.9 8.5-5.8 12.9zm34.3-20.7c-3.1-6.9 0-10 4.4-12 3.4-1.5 7.2-2.3 10.9-3.3 4-1 8.1-1.8 12.1-2.7-.1-.4-.1-.8-.2-1.2 1.7.7 3.5 1.4 5.2 2.1.4-.3.7-.6 1.1-.9-1.6-2.2-2.8-6.1-4.7-6.4-3.6-.6-7.6.7-11.5 1.2-7.5 1.1-8.8.3-11.5-6.9-2.3-.4-4.5-.7-6.8-1.1 1.2 10-.2 15.5-5.8 29.1 1.8.6 3.5 1.1 6.8 2.1zm96.4-88.9c-.7 8.8.7 11.5 5.3 12.2 6 .9 12 2.2 18.1 2.9 1.7.2 4.3-.6 5.2-1.8 1-1.3 1.5-4.7.7-5.5-3-3-6.4-6.7-10.2-7.4-6-1.3-12.5-.4-19.1-.4zm-64-15.2c.7-1.7 1.4-3.1 1.7-4.6 2.6-10.6 5.3-21.2 7.6-31.9.8-3.5 4.5-7.6-.8-11.2-.8 1.5-1.7 2.8-2.3 4.3-3.4 8.3-6.3 16.8-10.3 24.7-5.6 10.9-7.7 7.9 2.8 18.1.1.1.3.1 1.3.6zm-73 57.2c-3.5 1.1-5.1 1.8-6.8 2.2-7.1 1.7-12.2 6.4-15.7 12.4-4.8 8.2-8.7 16.9-13 25.4-1.2 2.4-2.7 4.7-3.4 7.2-.3 1.1.9 2.6 1.4 3.9.9-.7 2.2-1.2 2.6-2.2 5.3-10.5 10.1-21.4 16-31.6 3.6-6.3 8-12.8 16.9-13 .4 0 .9-2 2-4.3zm138.1 42.6c-1.7-2.9-3.1-5.6-4.8-8.1-.5-.8-2.2-1.3-3.1-1.1-8.4 1.6-16.7 3.3-25 5 1.1 3.8 24.8 8.1 32.9 4.2zm-77.5-102.3c0 5.8 3.9 10.4-2.3 13-.3.1-.4 1.5-.1 2.1 2 4.6 4.2 9.2 6.3 13.9.6-.1 1.2-.1 1.7-.2 2.2-6.3 4.4-12.7 6.2-17.9-4.2-4-7.6-7.1-11.8-10.9zm-14 101.2c14.3 5.6 27.9 6.5 42-.3-4.8-3.6-7.3-3.9-9.6-1.6-4.8 4.4-9.1 4.6-13.6.3-5.2-4.9-12.7-4.4-18.8 1.6zm9.2-72.9c0-1 .1-1.5 0-2-1.7-5.9-5.6-11.3-3.3-18 .2-.6-.9-2-1.7-2.5-.5-.3-2-.1-2.4.4-3.6 3.7-7 7.4-11.2 11.9 6.6 3.6 12.4 6.8 18.6 10.2zm-174.3 32.8c9 3.9 3.7 12.1 5.1 17.7 1.5 5.7-1.3 12.6-2.3 19.6.6.2 2.2.8 4.1 1.4.6-7.1 1.4-13.6 1.5-20.1.1-5.2-.2-10.6-1.2-15.7-.7-3.7-4-3.8-7.2-2.9zm155.1 4.9c5.2-6.4 10.2-12.5 15.3-18.6-.6-.6-1.3-1.2-1.9-1.9-5 4.5-10.1 8.9-14.9 13.5-3.9 3.7-3.2 5.5 1.5 7zM21.9 8.9c-3.2 0-5.2-.3-7.2.1-1.8.3-4.8 1-5 2.1-.6 2.8-.1 6-.1 9 .9-.1 2.3.2 2.7-.3 3.1-3.2 5.9-6.6 9.6-10.9zm455.7 383.7c-2-4.9-3.3-8-4.9-12-1.7 3.5-2.7 5.7-4 8.3 2.7 1.1 5.1 2.1 8.9 3.7zm-83.8-36.4c-3.7 2.7-6.3 4.6-8.9 6.5.5.6.9 1.1 1.4 1.7 2.6-1.9 7.6-.9 7.5-8.2z"/>
  <path d="M0 463.6c3.5 8.2 11.1 6.7 17.5 7.1 7 .4 14.1-.3 21.1-.3 15-.1 29.9-.3 44.9-.3 24.7 0 49.4-.1 74.1.2 23.4.3 46.9 1.2 70.3 1.4 10.2.1 20.3-1.3 30.5-1.3 7.1 0 14.3 1.2 21.4 1.8.7.1 1.5.3 2.2.1 13.9-4.7 27.7 1.7 41.8-.2 13.9-1.9 28.3-.8 42.5-.7 14.9.1 29.8.7 44.7.7 15.6 0 31.2-.7 46.9-.8 12.1-.1 24.1.4 36.2.6 2.6 0 5.3-.6 7.9-.6l67.7-.3c3.7 0 7.4.4 11 .6 4.8.3 7.6-2 7.7-6.8.4-16 .9-32.1 1-48.1.2-37.8.1-75.7.1-113.5 0-19 .1-38 .3-57 .1-12.9.8-25.8.8-38.7-.1-28.1-.8-56.2-.9-84.3-.1-25.4.3-50.8.4-76.3.1-11.9.2-23.8.2-35.7 0-5.2-4-7.9-9.3-7.7-9.4.4-18.8 0-28.3.1-9.1 0-18.1.3-27.2.2-12.1-.1-24.3-.4-36.4-.5-9.2 0-18.5.4-27.7.4-10.8 0-21.6-.4-32.3-.4-6.6 0-13.1.3-19.7.3-10.1 0-20.2-.1-30.3-.1-8.8 0-17.6.4-26.3.3-3.2 0-6.4-1.5-9.7-1.6-4.1-.2-8.1.3-12.2.5C324 3.1 317 4 310.1 4c-4.1 0-8.2-1.5-12.3-1.5-6.3.1-12.6 1.5-18.8 1.5-8.4 0-16.7-1.3-25.1-1.4-7.9-.1-15.8.8-23.7.8-6.3 0-12.6-.6-18.9-.8-6.4-.3-12.9-1-19.3-.5-15 1.2-30 .1-45 .1-15 .3-30.1.8-45.2.8-12 0-23.9-.5-35.9-.6-4.7 0-9.5.7-14.2.6-7.2 0-14.4-.6-21.6-.6-6.6 0-13.1.6-19.7.8-3.7.1-5.7 1.2-5.9 5.3C3.9 20 2.7 31.5 2.4 43c-.6 23-.9 46-1 69-.1 10.7.7 21.4.8 32.1 0 7.2-.9 14.4-.9 21.6.1 16.5.7 33 .7 49.5-.2 57.4-.5 114.7-.9 172.1 0 2.2-.7 4.4-1.1 6.6V0h595.3v475.8H0v-12.2z" fill="#fff"/>
  <path d="M477.8 273.8c13.9 12.2 27.4 24.1 40.6 35.7-1.1.3-3.6.4-5.2 1.6-1.5 1.1-3 3.4-3 5.2.1 4.3 1.3 8.6 1.8 13 .1 1.4-.3 3.4-1.3 4.3-.7.7-3.4.5-3.9-.2-.7-.9-.3-2.8 0-4.2.7-2.6 1.7-5.1 2.5-7.7-.6-.2-1.1-.5-1.7-.7-1 1.7-2.1 3.4-3.1 5.2-3 5.3-10.1 8.1-15.4 5.9-6-2.5-11.9-5.1-17.7-7.8-1.1-.5-2.2-2.1-2.2-3.2 0-2.5.6-5 1-7.5 1.5-9.6 2.8-19.3 4.5-28.9.6-3.3 1.9-6.5 3.1-10.7zM216.1 431.7c2.3-.7 4.6-1.3 6.9-2-.5-.8-.9-1.5-1.9-3.2 3.3 1.4 5.7 2.5 8.5 3.7.3-1.2.6-2.5.9-3.9 1.9.5 3.7 1.1 6 1.7.4-1.2.8-2.4.9-2.6 5.6-1.5 10.6-2.9 16.1-4.5-.5-.9-1-1.6-1.4-2.3-5.2 3.9-13.4-3.3-17.3 4.5-2.7-1.2-5.3-2.3-9.2-4 .5 2.7.8 4 1.3 6.7-2.9-2.4-4.7-3.9-7.6-6.3v7.4c-2.4-2.7-4.4-5-6.9-7.7 16.7-2 33.3-4 50.4-6.1.3 7.1 4.8 8.2 9.9 9.7 4.1 1.2 7.7 4.1 12.5 6.9-2.4.5-3.5.8-4.7 1 0 .3 0 .6.1.8 2 2.3 4 4.6 6 7 .3.4.2 1.6.1 1.6-1.5.5-3.1 1.2-4.6 1.1-3.7-.2-7.4-1-11.1-1.3-5.4-.4-10.9-.8-16.4-.7-11.1.3-21.6-2.4-32.2-5-2-.5-4.1-.9-6.1-1.4-.1-.2-.1-.6-.2-1.1zM447 374.5c-.2 3.8-.4 7.6-.6 11.9-3.8-2.6-4.3-5.5-3.2-9.5.7-2.5 3.4-5.8-1.7-8.4-1 2-2 4.2-3.2 6.2-.5.9-1.4 1.6-2.1 2.5-.4-1.2-1.5-2.9-1.1-3.5 2.3-3.6 4.3-7.9 7.7-10.1 10.9-7.4 16.4-18.5 21.3-29.9 1.8-4.1 3.4-4.5 6.7-2.9 4.7 2.2 9.5 4.5 15.2 7.2-4 2.2-6.8 3.4-9.2 5.1-1.2.8-3.1 2.9-2.8 3.6 2.3 5.7-2.7 9.2-3.7 13.8-.8 3.3-.3 7-1.3 10.2-1.2 3.9-3.2 7.6-4.9 11.3-3.3-2.4-5.5-4.1-7.7-5.7-.5 2.8-1 5.5-1.8 9.9-2.1-4.7-3.7-8.5-5.4-12.2-.7.2-1.5.4-2.2.5zM407.4 380.5c6.3 5.7 7.2 9.8 3.5 16.9-2.9 5.6-6.1 11-9.3 16.5-.5.9-1.5 1.9-2.3 2-4.8.5-9.6.8-14.3 1.1-.5 0-1.1-.8-2.1-1.6 5.9-.7 11.2-1.3 16.4-1.9.1-.4.3-.9.4-1.3-1.1-.5-2.1-1.4-3.2-1.3-8.5.7-17.1 1.4-25.6 2.5-4.3.5-4-1.1-2.5-3.9 4.1-7.8 8-15.7 12.3-23.4 3-5.4 4.9-5.2 10.4-2.6 5.5 2.7 11.1.7 16.3-3zM424.3 330.9c6.8 4.4 13.1 8.5 20.4 13.3-4.8 3.9-9.3 7.4-13.4 11.1-3.2 2.9-6 6.3-8.9 9.5-2 2.3-4.1 3.8-7 1.4-.5-.4-1.3-1.1-1.8-1-5 .9-8.3-1.5-10.4-6.1-.5.1-1 .2-1.4.3-.6 2.9-1.1 5.8-1.8 9.3-1-.9-2.4-1.6-2.4-2.2.3-4.9-1.5-9.9 3.8-14.1 6.5-5.2 11.9-11.7 17.9-17.6 1.6-1.6 3.6-2.8 5-3.9zM583 377.9c0 4.7.1 9.4 0 14.1-.1 4.6-1.1 9.3-.4 13.7.5 3.2-.6 3.7-2.8 3.7-4.2 0-8.3-.5-12.5-.7-3.8-.2-8.4-2.7-10.3 2.9-4.7 0-9.3-4.2-13.5.4 1.2 1.6 2.3 3 3.7 4.8-6.2-1.7-17-16.1-16.8-21 19.7 1.6 39 2.4 52.6-17.9zM476.7 356.8c13.4 10.5 26.1 20.3 38.6 30.5 2.7 2.2 4.3 5.8 6.5 8.9-10.8 4-20.7 1.4-30.2-.5-3.3-.6-6.6-5.6-8.2-9.4-3-7-8.5-13.2-7.8-21.5.3-2.8.8-5.7 1.1-8zM320.1 432.3c-2.9.4-5.4.7-8 1 .4-1.3.6-2.3 1-3.7H303c-.1-9.2-6.4-1.3-8.3-4.3-1-1.2-2.5-3.5-3-3.3-9.4 4-14.5-4.4-21.8-6.3v-2c4.2-.5 8.5-1.1 13.1-1.7.1 2.6.3 5.2.5 9 2.1-.9 4.2-1.2 5.2-2.4 3.3-4 6.3-2.9 10.3-.9 3 1.5 6.9 1.3 10.5 1.6 5.7.4 11.4.5 17.1.8 2.2.1 4.4.3 5.1.3 2.7-2.2 4.4-3.8 6.2-5.3.4.3.7.6 1.1 1-5.4 13.9 9.1 10.4 14 16.5-6.2 2-12 3.8-17.9 5.7v-1.8c-2.1-.4-4.3-1.4-6.3-1.2-3.4.4-7.3 2.8-8.7-3zM542.4 424.7c-26 6.1-50.5 6.1-76.8-.2 1.7-2.7 2.6-4.9 4.2-6.3 3.5-3.1 7.6-1.8 10.9.2 6.2 3.7 9.8 3.5 15.7-.8 1.9-1.4 5.1-1.3 7.7-1.4 7.3-.2 14.7.9 21.8-.4 5.9-1 9.3 1 12.6 4.8.8.9 1.7 1.8 3.9 4.1z" fill="#fff"/>
  <path d="M397.4 434.9c1.9-4.3 3.5-8.8 5.8-13 4.9-9.1 10.4-17.8 15-27 4.8-9.7-2.6-18.7-13.1-22-.7-.2-1.4-.2-2.2-.4 2.1-3.5 3-4.1 8.4-1.7 6.1 2.7 12 6.3 12.8 13.9.4 3.6.7 7.9-.8 11-6.3 12.9-13.3 25.5-20.2 38-.6 1.2-2.4 1.7-3.7 2.6-.7-.4-1.3-.9-2-1.4zM431.7 414.2c-3.3-1-5.1-1.5-6.8-2.1 5.6-13.6 7-19.1 5.8-29.1 2.3.4 4.5.7 6.8 1.1 2.7 7.2 4 8 11.5 6.9 3.8-.6 7.8-1.9 11.5-1.2 1.9.3 3.2 4.2 4.7 6.4-.4.3-.7.6-1.1.9-1.7-.7-3.5-1.4-5.2-2.1.1.4.1.8.2 1.2-4 .9-8.1 1.7-12.1 2.7-3.7.9-7.4 1.7-10.9 3.3-4.4 2-7.4 5.2-4.4 12zM528.1 325.3c6.6 0 13.1-.9 19.1.3 3.8.8 7.2 4.5 10.2 7.4.9.8.4 4.2-.7 5.5-1 1.3-3.5 2-5.2 1.8-6.1-.7-12-2-18.1-2.9-4.6-.6-6-3.3-5.3-12.1zM464.1 310.1c-1-.5-1.2-.5-1.3-.6-10.5-10.2-8.5-7.2-2.8-18.1 4.1-7.9 6.9-16.5 10.3-24.7.6-1.5 1.5-2.8 2.3-4.3 5.3 3.5 1.6 7.6.8 11.2-2.3 10.7-5 21.3-7.6 31.9-.3 1.4-1 2.8-1.7 4.6zM391.1 367.3c-1.1 2.3-1.6 4.3-2.1 4.3-8.8.2-13.2 6.8-16.9 13-5.9 10.2-10.7 21.1-16 31.6-.5.9-1.7 1.4-2.6 2.2-.5-1.3-1.7-2.9-1.4-3.9.8-2.5 2.2-4.9 3.4-7.2 4.3-8.5 8.2-17.2 13-25.4 3.5-5.9 8.6-10.6 15.7-12.4 1.8-.4 3.4-1 6.9-2.2zM529.2 409.9c-8.1 3.9-31.9-.3-32.9-4.2 8.3-1.7 16.6-3.4 25-5 1-.2 2.6.4 3.1 1.1 1.8 2.5 3.1 5.2 4.8 8.1zM451.7 307.6c4.2 3.9 7.7 7 11.9 10.8-1.8 5.3-4 11.6-6.2 17.9-.6.1-1.2.1-1.7.2-2.1-4.6-4.3-9.2-6.3-13.9-.3-.6-.2-2 .1-2.1 6.1-2.6 2.2-7.2 2.2-12.9z" fill="#fff"/>
  <path d="M437.7 408.8c6.1-6 13.6-6.4 18.7-1.6 4.5 4.2 8.8 4.1 13.6-.3 2.4-2.2 4.8-1.9 9.6 1.6-14 6.8-27.6 5.9-41.9.3zM446.9 335.9c-6.2-3.4-12-6.6-18.7-10.3 4.2-4.5 7.6-8.3 11.2-11.9.5-.5 1.9-.7 2.4-.4.8.5 1.9 1.9 1.7 2.5-2.2 6.7 1.6 12.1 3.3 18 .2.6.1 1.2.1 2.1zM272.6 368.7c3.2-.9 6.5-.8 7.2 2.9 1 5.1 1.3 10.5 1.2 15.7-.1 6.5-.9 13-1.5 20.1-1.8-.6-3.4-1.2-4.1-1.4 1-6.9 3.8-13.8 2.3-19.6-1.4-5.6 3.9-13.8-5.1-17.7zM427.7 373.6c-4.7-1.5-5.4-3.3-1.6-6.9 4.8-4.6 9.9-9 14.9-13.5.6.6 1.3 1.2 1.9 1.9-5 6.1-10 12.2-15.2 18.5zM21.9 8.9c-3.7 4.3-6.5 7.7-9.5 10.9-.5.5-1.8.2-2.7.3-.1-3-.6-6.1.1-9 .2-1 3.2-1.8 5-2.1 1.8-.3 3.9-.1 7.1-.1zM477.6 392.6c-3.8-1.6-6.2-2.6-8.9-3.7 1.3-2.6 2.3-4.8 4-8.3 1.6 4 2.9 7.1 4.9 12zM393.8 356.2c.1 7.3-4.9 6.2-7.5 8.2-.5-.6-.9-1.1-1.4-1.7 2.6-1.9 5.2-3.8 8.9-6.5z" fill="#fff"/>
  <path d="M108.5 312c0-5.6-.8-11.7.2-17.6 1.5-9.6 4-19 6.3-28.4 1.6-6.6 4.1-13 5.5-19.6.8-3.8-.9-6.5-5.2-8.2-6.3-2.5-11.8-7.4-18.2-9-6.5-1.7-11.4-5-16.6-8.6-5.7-3.9-7.6-9.8-8.3-15.7-1.3-11 1.9-21.3 5.8-31.6 2.9-7.6 6.1-14.4 11.7-20.4 10.1-10.7 22.7-15.5 36.7-15.3 8.2.1 16.8 2.8 24.3 6.3 11 5.1 21.2 12.1 31.8 18.1 3.4 2 7.1 3.4 10.7 5.2 4.5 2.2 6.5 6.4 6.3 10.9-.2 4.8-4 7.6-8.3 9.7-1.9 1-3.1 3.5-4.5 5.5-4.4 6.2-4.1 11.8 1.4 17.6 4.8 5.1 4.6 9.1.5 16-.9-.8-1.8-1.5-3.1-2.6-9 12-21.8 17.7-35.9 19.9 4 16.3 7.6 31.5 11.5 46.7 2.5 9.8 5.7 19.5 7.9 29.4 1.2 5.3-.2 11.6 1.8 16.4 2.8 6.7-.3 9.4-5.2 10.7-10.6 2.8-10.4 10.6-9.4 18.7.2 1.9 2.1 5 3.6 5.2 7 1.1 14.1 1.2 21.1 1.9 5.8.6 12.5-3.2 17.2 3.4.3.4 1.3.4 2 .4 8.4.5 17 .1 25.2 1.7 5.8 1.1 11.3 2.7 17.3 2 1.3-.2 2.6.5 4 .8v1.5c-2 .4-3.9 1.1-5.9 1.1-11.4 0-22.8 0-34.2-.3-1.1 0-2.1-1.6-4.1-3.2-3.6 0-9.2-.4-14.7.2-2.9.3-5.5 2.3-8.3 3.6-2.2 1-4.4 2.5-6.7 2.8-3.9.5-8.1-.6-11.8.3-4 1-7.5 4-11.5 5.2-9.9 3-20 3.6-29.9 0-4.4-1.5-8.5-3.7-13.7-6.1-4.5.1-10.6.3-16.6.5-4.1.1-8.3.3-12.4.4-1.6 0-3.6.4-4.6-.4-6-4.7-12.7-1.6-19-2.2-1.7-.1-3.4-.9-5.1-1.1-3.9-.4-8.1-1.8-11.5-.7-4.8 1.5-6.6.7-6.4-4.2-3 .2-5.8.5-10.1.8 1.6-2.2 2.4-4.3 3.2-4.3 11.6-.6 23.2-1 34.9-1.4.6 0 1.4-.2 1.6.1 3.9 4.9 9 1.8 13.6 2.1 7.3.5 14.5.3 21.7 3.8 4 2 9.9 1.1 14.7.2 2-.4 3.3-4.1 5.4-6.9-6.5-1.8-12-3-17.4-4.8-10.3-3.6-20.6-7.6-30.8-11.4-5.1-1.9-4.5-6-3-9.5 5.2-12.4 11.7-24.2 13.9-37.8.7-4.2 3.2-6.6 8.1-4.7 6.9 2.7 13.9 5 20.8 7.5 0 .1.3-.2 1.7-.6zm82-127.3c1.6-2.2 4.3-4.5 3.9-5.5-1-2.5-3-5.4-5.3-6.5-10.1-4.6-19.3-10.5-28.7-16.4-8.5-5.4-18.5-8.9-28.2-12-5.6-1.7-12.3-1.9-18.1-.9-14 2.5-22.6 12.3-28.1 24.7-2.9 6.6-4.5 13.8-6.2 20.9-2.4 9.7-1.7 18.5 6.1 26.4 2.9 2.9 5.7 3.1 8.7 4.4 3.5 1.5 4.9 2.1 6-2.5 2.9 1.8 5.2 3.2 7.1 4.4-1.4-6.1-4.7-12.7-3.9-18.7.8-6.3 5.4-12.2 8.4-18.3-5.9-3-10.7-6.4-10.3-13.2.1-1.8 1.6-3.5 2.4-5.3 1 1.6 2.5 3.1 2.9 4.9.9 4.6 4.5 6.1 8.1 7.1 3.7 1.1 5.7-1.8 7.6-4.5 1.3-1.9 2.7-3.8 4.1-5.7.6.3 1.2.7 1.8 1-1.1 2.6-2.1 5.2-3.1 7.8 4 4.2 9.8-4.4 13.5 2.1-1.1 1.1-2.2 2.3-3.3 3.5 3.2-.2 6.2-.9 8.9-2.2 6.6-3.1 10.6-2.5 11.9 2.1 5.5-1 11-2.2 16.5-2.8 1.3-.1 2.9 1.8 4.3 2.8 2 1.1 2 1.1 1.3-9.2 5.1.4 9.1 4.1 11.7 11.6zm-68.2-1.2c-9 3.5-14.6 16.3-10.9 23.8 3.5 6.9 7.2 13.7 10.7 20.6.5 1.1.6 2.4.9 3.6-1.3-.4-2.6-.8-4-1.2-1.5-.4-3-.8-4.5-1.3-.2.6-.3 1.2-.5 1.8 12.5 5.3 25.1 8.7 39.1 6.3 7.4-1.3 14.6-2.5 20.9-6.7 6.9-4.6 10.7-10.7 6.6-15.6-5.7-6.8-3.9-12.8-.5-19.4 1-1.9 1.2-4.2 1.7-6.3-2.3-.2-4.5-.7-6.8-.6-4.7 0-10 1.6-14.1.1-3.7-1.4-6.6-.8-9.9-.4-3.6.4-7.2.8-10.8.8-3.4 0-6.8-.8-10.2-.9-3.4-.2-7.6 1.2-7.7-4.6zm-40 125.9c-1.1 5.2-1.5 10.1-3.2 14.5-3.1 7.8-6.9 15.3-10.7 22.9-1.4 2.9-1 4.1 2.1 5.2 5.9 1.9 11.7 4.2 17.5 6.6 14.1 5.8 29 8.3 44 10.2 3.5.4 5.4 0 6.4-3.5 2-7 4.2-14 6-21.1 1.3-5.3 2-10.7 3-16.2-3.7-.6-6.6-1.2-10-1.8-.2 7.4-5.6 8.9-10.5 8.7-4.5-.2-9.4-1.9-13.1-4.5-2.7-1.9-3.6-6.2-5.4-9.4-.5-.9-1.3-1.8-2.1-2.2-6.3-2.7-12.6-5.3-18.9-7.9-1.5-.6-3.1-.9-5.1-1.5zm33.6 13.5c1.7-.1 4.4.3 2.9 5 1.9-1.2 3-2 4.6-3 .3 2.3.5 4 .9 6.7 2.5-3.4 4.4-6.1 6.7-9.4-.6-5.5-1-12.1-2-18.5-.5-3-1.1-7.3-3.2-8.6-2.6-1.6-6.7-.8-11.9-1.2.7 6.9 1.4 13.2 1.8 19.4.4 3.2.2 6.1.2 9.6zm11.6-75.8c3.5 2.4 5.9 4.3 8.5 5.6 1.7.8 4.4 1.7 5.6.9 1.8-1.2 2.7-3.8 4.4-6.5h-18.5zm21.7 30.5-2.7-.3c-1.4 1.7-4.2 3.8-3.8 5.1.5 2.1 2.9 3.9 4.9 5.2.6.4 3.6-1 3.5-1.3-.4-3-1.2-5.9-1.9-8.7zm-6.8 17.8c3.4-5 .5-7.6-2.8-10-5.5 4.5-4.8 7 2.8 10zm13.3 20c-2.7-2.3-4.6-4-6.7-5.3-.2-.1-3 2.5-2.7 3 1.1 2.1 2.6 4 4.5 5.5.3.2 2.5-1.7 4.9-3.2zm-18.1-5.4c-1.1 11.1 1 13.5 9.4 10.5-3-1.6-5.1-2.8-6.9-3.8-.8-2.3-1.7-4.5-2.5-6.7zm9.6-3.5c-2.3-1.8-3.9-3.4-5.8-4.2-.5-.2-3.1 2.2-2.9 2.6.8 2 2.3 3.8 3.6 5.6 1.4-1.1 2.8-2.2 5.1-4zm-1.1-3.4c.8.1 1.7.2 2.5.2.5-2.4 6.6-1.7 2.8-6-1-1.1-3.7-.8-5.6-1.1.2 2.3.3 4.6.3 6.9zM122 279.2c1.8-3.2 3.2-5.1 3.9-7.3.2-.6-2.2-2.9-2.8-2.7-1.8.6-3.2 2.1-4.7 3.2 1.1 2.1 2 3.7 3.6 6.8zm5.4-16.8c-.6 1-1.3 2-1.9 3 2.1 1.3 4.1 2.7 6.3 3.8.3.1 1.4-1.5 2.1-2.4-2.2-1.4-4.4-2.9-6.5-4.4zm29.8 84.5c1-2 2.3-3.5 2-4.2-.7-1.3-2.2-2.4-3.5-2.9-.4-.2-2.5 2.1-2.3 2.6.6 1.5 2 2.6 3.8 4.5zM411.4 246.2c2.3-5.2 4.6-9.1 5.5-13.3.4-1.9-1.4-5.2-3.2-6.3-2.5-1.6-6.2-2.8-8.8-2-2.3.7-3.6 4.4-5.5 6.9-1.6-5.2 1-11 5.8-13.5 3.6-1.9 10.8-.4 13.3 3.2 5.6 8.2 6.1 17.9-2.9 24.3-1.2.7-3.1.5-4.2.7zM303.5 407.4c9.3-1.8 18.6-3.9 27.9-1.6v1.6h-27.9z"/>
  <path d="M190.5 184.7c-2.6-7.5-6.6-11.2-11.9-11.6.7 10.3.7 10.3-1.3 9.2-1.4-1-3-2.9-4.3-2.8-5.5.6-11 1.8-16.5 2.8-1.3-4.6-5.3-5.3-11.9-2.1-2.7 1.3-5.6 2-8.9 2.2 1.1-1.2 2.3-2.4 3.3-3.5-3.8-6.6-9.5 2.1-13.5-2.1 1-2.5 2.1-5.1 3.1-7.8-.6-.3-1.2-.7-1.8-1-1.4 1.9-2.8 3.8-4.1 5.7-1.9 2.7-3.9 5.5-7.6 4.5-3.6-1-7.1-2.5-8.1-7.1-.4-1.7-1.9-3.2-2.9-4.9-.8 1.8-2.3 3.5-2.4 5.3-.4 6.9 4.4 10.2 10.3 13.2-3 6.1-7.6 12-8.4 18.3-.8 6.1 2.5 12.6 3.9 18.7-1.9-1.2-4.2-2.6-7.1-4.4-1.1 4.7-2.6 4-6 2.5-3-1.3-5.8-1.5-8.7-4.4-7.8-7.8-8.5-16.6-6.1-26.4 1.7-7.1 3.3-14.3 6.2-20.9 5.5-12.4 14.1-22.2 28.1-24.7 5.8-1 12.5-.8 18.1.9 9.7 3 19.7 6.6 28.2 12 9.3 5.9 18.6 11.8 28.7 16.4 2.3 1.1 4.3 4 5.3 6.5.6 1-2.1 3.3-3.7 5.5z" fill="#fff"/>
  <path d="M122.3 183.5c.1 5.8 4.3 4.4 7.9 4.6 3.4.2 6.8.9 10.2.9 3.6 0 7.2-.4 10.8-.8 3.3-.4 6.2-1 9.9.4 4.1 1.5 9.3-.1 14.1-.1 2.3 0 4.5.4 6.8.6-.5 2.1-.7 4.4-1.7 6.3-3.4 6.6-5.2 12.6.5 19.4 4.1 4.9.3 11-6.6 15.6-6.3 4.2-13.4 5.4-20.9 6.7-14.1 2.4-26.6-.9-39.1-6.3.2-.6.3-1.2.5-1.8 1.5.4 3 .8 4.5 1.3 1.3.4 2.7.8 4 1.2-.3-1.2-.4-2.5-.9-3.6-3.5-6.9-7.3-13.7-10.7-20.6-3.9-7.5 1.8-20.3 10.7-23.8zm13.2 27.3c.7-.1 1.5-.1 2.2-.2 1-2.9 2.5-5.7 2.7-8.7.1-1.2-2.9-2.5-4.4-3.8-1.5 2.3-3.8 4.6-4.2 7.1-.2 1.7 2.4 3.7 3.7 5.6zm16.1-3.6c-.4.5-1.5 1.5-2.1 2.8-.2.4 1 2.1 1.3 2 1.5-.2 2.9-.7 4.2-1.5 1.1-.6 2.6-1.8 2.6-2.7-.2-2.2-.6-5.4-2-6.2-1.8-1-4.7.1-7.1.3 1.1 1.7 2.1 3.4 3.1 5.3zm13.1-8.2c-4.6 6.7-4.5 7.6.4 11 5.6-4.7 5.5-5.8-.4-11zm-10.9 29.7v-3c-2.9-.2-5.7-.6-8.6-.5-.8 0-1.6 1.5-2.4 2.3.7.7 1.4 2 2.1 2 3-.1 5.9-.5 8.9-.8zM82.3 309.4c2 .6 3.5.9 5 1.5 6.3 2.6 12.6 5.2 18.9 7.9.9.4 1.6 1.3 2.1 2.2 1.8 3.2 2.7 7.6 5.4 9.4 3.7 2.6 8.6 4.3 13.1 4.5 4.9.2 10.3-1.3 10.5-8.7 3.3.6 6.3 1.1 10 1.8-1 5.4-1.7 10.9-3 16.2-1.8 7.1-4 14.1-6 21.1-1 3.5-2.9 3.9-6.4 3.5-15-1.9-29.9-4.5-44-10.2-5.8-2.3-11.6-4.6-17.5-6.6-3.2-1-3.6-2.3-2.1-5.2 3.8-7.5 7.6-15.1 10.7-22.9 1.8-4.4 2.2-9.3 3.3-14.5zM115.9 322.9c0-3.5.2-6.5 0-9.4-.5-6.3-1.2-12.5-1.8-19.4 5.1.4 9.3-.5 11.9 1.2 2.1 1.3 2.7 5.5 3.2 8.6 1 6.5 1.4 13 2 18.5-2.3 3.2-4.2 5.9-6.7 9.4-.4-2.7-.6-4.5-.9-6.7-1.6 1-2.7 1.8-4.6 3 1.3-4.9-1.4-5.3-3.1-5.2zM127.5 247.1H146c-1.7 2.7-2.6 5.3-4.4 6.5-1.2.8-3.9-.1-5.6-.9-2.7-1.3-5-3.2-8.5-5.6zM149.2 277.6c.7 2.9 1.5 5.7 1.8 8.6 0 .3-2.9 1.7-3.5 1.3-2-1.4-4.4-3.2-4.9-5.2-.3-1.3 2.4-3.3 3.8-5.1 1 .1 1.9.3 2.8.4zM142.4 295.4c-7.6-3.1-8.3-5.6-2.8-10 3.3 2.5 6.2 5 2.8 10zM155.7 315.4c-2.4 1.5-4.6 3.4-5 3.1-1.8-1.4-3.3-3.4-4.5-5.5-.2-.4 2.5-3.1 2.7-3 2.2 1.4 4.1 3.1 6.8 5.4zM137.6 310c.8 2.2 1.6 4.4 2.5 6.7 1.8 1 4 2.2 6.9 3.8-8.4 3-10.5.7-9.4-10.5zM147.2 306.5c-2.3 1.8-3.7 2.9-5.1 4-1.2-1.9-2.7-3.6-3.6-5.6-.2-.5 2.4-2.9 2.9-2.6 1.9.8 3.4 2.4 5.8 4.2zM146.1 303.1l-.3-6.9c1.9.3 4.6-.1 5.6 1.1 3.8 4.3-2.4 3.7-2.8 6-.8-.1-1.6-.2-2.5-.2zM122 279.2c-1.6-3.1-2.5-4.7-3.6-6.9 1.5-1.1 2.9-2.6 4.7-3.2.6-.2 3 2.1 2.8 2.7-.7 2.3-2.1 4.2-3.9 7.4zM127.4 262.4c2.2 1.5 4.3 3 6.5 4.4-.7.8-1.9 2.5-2.1 2.4-2.2-1.1-4.2-2.5-6.3-3.8.6-1 1.2-2 1.9-3zM157.2 346.9c-1.8-1.9-3.2-3.1-3.9-4.5-.2-.4 1.9-2.7 2.3-2.6 1.4.6 2.9 1.6 3.5 2.9.4.7-.9 2.2-1.9 4.2z" fill="#fff"/>
  <path d="M135.5 210.8c-1.3-1.9-3.9-3.9-3.7-5.6.4-2.5 2.7-4.7 4.2-7.1 1.6 1.3 4.5 2.6 4.4 3.8-.2 2.9-1.7 5.8-2.7 8.7-.7 0-1.4.1-2.2.2zM151.6 207.2c-1.1-1.8-2.1-3.5-3.1-5.2 2.4-.2 5.3-1.3 7.1-.3 1.4.7 1.8 4 2 6.2.1.8-1.5 2-2.6 2.7-1.3.8-2.8 1.3-4.2 1.5-.4.1-1.5-1.6-1.3-2 .7-1.4 1.7-2.4 2.1-2.9zM164.7 199c5.9 5.2 5.9 6.3.4 11-4.9-3.3-5-4.2-.4-11zM153.8 228.7c-2.9.3-5.9.7-8.8.8-.7 0-1.4-1.3-2.1-2 .8-.8 1.6-2.3 2.4-2.3 2.8-.1 5.7.3 8.6.5-.1 1-.1 2-.1 3z"/>
  <text transform="translate(32.5 54.562)"><tspan x="0" y="0" font-family="Peanuts" font-size="40">I HAVE A FORM LETTER THAT</tspan><tspan x="60.1" y="48" font-family="Peanuts" font-size="40">GOES OUT EVERY YEAR!</tspan></text>
  <text transform="translate(15.615 457.108)" fill="#010101" font-family="Peanuts" font-size="26" letter-spacing="4">SCHULZ</text>
</svg>
