<svg xmlns="http://www.w3.org/2000/svg" viewBox="0 0 595.3 477.3" xml:space="preserve">
  <path fill="#fff" d="M244.4 4.2h346.2v203.5H244.4z"/>
  <path d="M595.3 477.3H0V0h595.3v477.3zM112.5 13.2c-4.1.4-8.1.7-12.2 1.1-3.7-.1-7.4-.5-11-.3-7.1.3-14.1 1-21.2 1.5-19.5 1.4-39 2.9-58.5 4.1-4.9.3-6.2 2.9-6.2 7-.3 12.3-.6 24.7-.7 37.2 0 10.1.5 20.2.6 30.3.1 10.3 0 20.6 0 30.8 0 21.1.1 42.2 0 63.3-.1 9.9-.6 19.8-.8 29.7-.2 8-.2 15.9-.1 23.9 0 7 .3 14.1.3 21.1 0 6.8-.2 13.7 0 20.5.3 9.9 1.5 19.8 1.5 29.7 0 16.9-.9 33.8-.9 50.7 0 15.6 1 31.1 1.1 46.7 0 12.9-.6 25.8-1.1 38.7-.3 7-.7 13.9-1.1 20.8-.2 3.6.7 5.6 4.9 5.1 4.8-.6 9.6-.8 14.4-1.2 14.1-1.1 28.2-2.4 42.3-3.1 8.8-.5 17.6.1 26.3-.3 11.2-.5 22.4-1.6 33.7-2 11.3-.4 22.7 0 34-.2 14.5-.2 29.1-.8 43.6-.9 5-.1 10.1 1.1 15.1.9 9.9-.4 19.8-1.6 29.7-2 8.4-.3 16.8-.1 25.2-.1h41.3c13.6 0 27.2.1 40.7.1 13.8 0 27.5-.4 41.3-.1 13.5.3 26.9-.6 40.4-.2 18.6.5 37.2.1 55.8.1 12.4 0 24.9.1 37.3.1 17.8 0 35.5-.1 53.3-.1 4.9 0 7.1-3.1 7.4-7.2.4-5.4-.1-10.8-.1-16.2 0-8.9-.1-17.9.3-26.8.3-6.9 1.6-13.7 1.6-20.6.1-8.9-.7-17.8-.8-26.8-.1-14 0-28.1 0-42.1 0-9.2-.2-18.4-.1-27.7.1-10.1.5-20.2.8-30.3.2-6.4.6-12.7.5-19.1-.1-8.7-.7-17.4-.7-26.1 0-24.7.2-49.3.5-74 .1-13.4.5-26.8.7-40.2.1-7.3.3-14.7.1-22-.2-9.6-.9-19.2-.9-28.8.1-15.4.7-30.9.9-46.3.1-4.2-2.1-6.5-6.4-6.6-16.4-.1-32.8.3-49.2-.1-24-.7-48.1 1.8-72.2-1.6-8.9-1.3-18.3.3-27.4.7-6.4.3-12.8.8-19.2.9-3.8 0-7.6-1-11.4-.8-5.4.3-10.9 1.7-16.3 1.8-17.5.3-35 .2-52.5.2-6 0-12-.4-18-.2-4.5.1-9 1.3-13.4 1.3-7.2 0-14.3-1-21.5-.9-10.4.1-20.9.8-31.3 1-17.6.2-35.3-.2-52.9.4-21.2.8-42.4 2.4-63.6 3.6-7.7.6-15.8 1.1-23.9 1.6z" fill="#fff"/>
  <path d="m112.5 13.2 24.3-1.5c21.2-1.3 42.4-2.9 63.6-3.6 17.6-.6 35.3-.2 52.9-.4 10.4-.1 20.9-.9 31.3-1 7.2 0 14.3.9 21.5.9 4.5 0 8.9-1.1 13.4-1.3 6-.2 12 .2 18 .2 17.5 0 35 .1 52.5-.2 5.4-.1 10.8-1.5 16.3-1.8 3.8-.2 7.6.9 11.4.8 6.4-.1 12.8-.6 19.2-.9 9.2-.4 18.5-1.9 27.4-.7 24.1 3.4 48.1.9 72.2 1.6 16.4.5 32.8.1 49.2.1 4.2 0 6.4 2.4 6.4 6.6-.3 15.4-.9 30.9-.9 46.3 0 9.6.7 19.2.9 28.8.1 7.3 0 14.7-.1 22-.2 13.4-.6 26.8-.7 40.2-.2 24.7-.4 49.3-.5 74 0 8.7.6 17.4.7 26.1.1 6.4-.3 12.7-.5 19.1-.3 10.1-.7 20.2-.8 30.3-.1 9.2.1 18.4.1 27.7 0 14-.1 28.1 0 42.1.1 8.9.9 17.8.8 26.8-.1 6.9-1.4 13.7-1.6 20.6-.3 8.9-.3 17.9-.3 26.8 0 5.4.5 10.8.1 16.2-.3 4.1-2.5 7.2-7.4 7.2-17.8 0-35.5.1-53.3.1-12.4 0-24.9-.1-37.3-.1-18.6 0-37.2.4-55.8-.1-13.5-.4-27 .5-40.4.2-13.7-.3-27.5.1-41.3.1-13.6 0-27.2-.1-40.7-.1h-41.3c-8.4 0-16.8-.3-25.2.1-9.9.4-19.8 1.6-29.7 2-5 .2-10.1-.9-15.1-.9-14.5.2-29.1.7-43.6.9-11.3.2-22.7-.2-34 .2-11.2.4-22.4 1.5-33.7 2-8.8.4-17.6-.2-26.3.3-14.1.8-28.2 2.1-42.3 3.1-4.8.4-9.6.6-14.4 1.2-4.2.5-5.1-1.5-4.9-5.1.4-6.9.8-13.8 1.1-20.7.4-12.9 1.1-25.8 1.1-38.7-.1-15.6-1.1-31.1-1.1-46.7 0-16.9.9-33.8.9-50.7 0-9.9-1.1-19.8-1.5-29.7-.2-6.8 0-13.7 0-20.5-.1-7-.3-14.1-.3-21.1 0-8 0-15.9.1-23.9.2-9.9.8-19.8.8-29.7.1-21.1 0-42.2 0-63.3 0-10.3.1-20.6 0-30.8-.5-10.3-1-20.4-1-30.5 0-12.4.3-24.9.6-37.3.1-4 1.4-6.7 6.2-7 19.5-1.2 39-2.7 58.5-4.1 7.1-.5 14.1-1.1 21.2-1.5 3.7-.2 7.3.2 11 .3 1.8 1.9 3.6 3.8 5.9 6.3 2.5-2.8 4.4-5 6.4-7.3zM93.6 62.7c.4.4.7.8 1.1 1.2h4.4c.4-.8.8-1.5 1.2-2.3-.3-.7-.7-1.4-1-2.1h-4.4c-1.1 0-2.2 0-3.4.1.4.7.8 1.5 1.2 2.2l-.2-.2 1.3 1.3-.2-.2zm12.2 210.5c.6-.5 1.2-1 1.9-1.5l-.9-.6c-.3.8-.6 1.5-.8 2.3-.2.3-.3.5-.5.8 0-.3.1-.6.3-1zm49.7 66.4c-2.4-1.3-4.6-2.9-7.1-3.8-1.9-.7-5-1.7-3.9 2.7-3.7 13-4 26.9-10.8 39.1-.6 1-.4 2.5-.3 3.8.7 5.2 1.3 10.4 2.3 15.5 2.1 10.6 1.5 11.8-8.7 15.6-1.4.5-3.3 2.2-3.3 3.3 0 5.8.6 11.6 1 16.2 5 1.1 10.2 2.2 13.7 3 2.6-1.3 4.4-2.9 6.2-3 14.3-1 28.7-1.7 43-2.5 3.3-.2 7.7-1.6 9.6 0 3.8 3.2 7 1.3 10.6 1 8-.5 16-1 24-1.3 7.8-.3 15.5-.1 23.3-.4 6.4-.3 12.9-1 19.3-1.5 5.5-.4 11-.8 16.5-1 1.5 0 3.8.5 4.3 1.4.7 1.6 1.1 4.4.2 5.6-4 5.3-10.7 4-16.1 5.2-4.7 1.1-10.1-1.5-15.2-1.7-5.8-.2-11.7.5-17.5 1-4.4.3-8.8.8-13.3 1.2-.1-.5-.2-1-.2-1.5 5.9-.8 11.8-1.5 17.8-2.3-.1-.5-.1-.9-.2-1.4-16.8 1.5-33.5 2.9-50.3 4.4-.1-.6-.2-1.3-.2-1.9 8.5-1 17-2 25.5-2.9-.1-.6-.1-1.1-.2-1.7l-54.9 5.1c-.1-.8-.1-1.5-.2-2.3 6.4-.6 12.8-1.2 19.3-1.8 0-.5-.1-1-.1-1.4-15.2 1-30.4 2-45.6 2.9 0 .6 0 1.2-.1 1.9 1.3.3 2.6.6 3.9.8 4.9.8 10.2 5.1 9.7 8.7-.6 5.1-3.7 7.6-9.2 7.9-8.8.6-17.5 1.6-26.1 3.2-4.2.7-8.1 3.1-12.1 4.7.2.5.3.9.5 1.4l208.6-3.6c-3.5-3.1-7.2-5.2-11-6.8-11.8-5-17.9-9.7-5.7-22.8 6.1-6.6 11.6-13.7 17.1-20.2-6.8 0-13.3.6-19.5-.1-9.1-1.1-16.8-11.9-12.6-18 4.2-6.2 10.4-10.9 15.8-16.3.6.6 1.2 1.1 1.8 1.7-3.6 3.8-6.9 7.9-10.7 11.5-3.1 3-3.4 6.2-1.7 9.7 3.1 6.2 18.8 9.7 24.7 5.8-3.3-1-6.9-1.8-10.2-3.1-6.6-2.7-9.2-9.7-5.7-15.8 4.7-7.9 12.2-12.9 20.1-17 3.3-1.7 7.4-2.5 11.2-2.4 7.7.3 9.3 6.3 9.5 13.7 2.7-3.6 4.8-6.3 6.8-9.1 6.3-8.8 12.1-17.9 18.8-26.3 4.8-6.1 8.4-12.4 9.3-20.1.4-3.2.1-5.9-3.9-7.1-3.9-1.2-7.6-3.3-11.1-5.3-9.9-5.7-17.6-13.9-24.1-23.1-7.3-10.3-6.5-18.2 2.3-27.4 1-1.1 2-2.3 3-3.4-3.1.1-5.3 1.5-7.7 2.3-7.6 2.4-10.1 6.3-8.9 14.1.2 1.1-.6 2.3-.9 3.4-1.9-1.2-4.1-2.2-5.8-3.8-.7-.7-.8-2.6-.6-3.8 1.6-7.9 6.7-12.3 14.3-14.3 3.8-1 7.9-1.5 11-3.6 5.5-3.7 5.7-9.7 4.5-15.7-.6-2.8-1.2-6.1-3-8.1-3.8-4.2-9.1-7.1-12.6-11.5-3-3.8-6.1-8.2-3.4-14 3.4-7.6 9.3-11.6 17.1-13.2 2.1-.4 4.1-1 6.8-1.6-9.7-4.1-18.5-7.9-27.4-11.4-1.4-.6-3.7-.1-5.1.8-13.4 8-26.6 16.2-40 24.2-1.1.6-4.3.1-4.3-.3-.4-2-.9-5 .1-6 9.1-8.9 18.6-17.5 28-26.1 2.4-2.2 3.5-3.9-.3-6.2-7.2-4.4-14-9.3-18.6-16.9-4.2-7-4.7-14-.8-21 2.6-4.7 5.5-9.3 9-13.2 4-4.5 8.8-8.5 13.5-12.3 3.7-3 7.9-5.4 11.8-8-2.2-4.3-4.5-7.6-5.8-11.2-2.2-6-5.5-12.3-5.2-18.4.6-14.2 6.6-26.7 15.7-37.6 2.5-3 4.8-6 7.5-9.3h-61.6c-.5 2.2-1.5 4.7-1.6 7.2-.2 9.7 0 19.5-.1 29.2-.1 7.2-1.2 8.2-8.1 8.2-5.7.1-11.4.3-17.1.5-12.8.5-25.7 1.2-38.5 1.7-15.4.6-30.9.9-46.3 1.8-9.2.5-18.3 2-27.6 2.6-6.2.4-12.4-.7-18.7.5-6.9 1.3-14.2.9-21.3 1.3-17.3 1-34.6 1.9-51.8 3.1-7.2.5-14.4 1.7-21.5 2.7-9.3.5-9.3.5-9.3 9.6.1 11.8.3 23.6.3 35.4 0 10.7-.3 21.5-.3 32.2 0 15.6.3 31.2.4 46.8.1 24.3.1 48.6.2 72.9 0 10.7.4 21.4.3 32.2-.2 18.5-.8 37-.9 55.4-.1 17.4 0 34.7.1 52.1.1 12 .4 23.9.5 35.9 0 4.7 1.8 5.6 6.4 4.3 5.8-1.7 11.8-2.6 17.7-3.9.9-.2 1.7-.8 1.7-.8 4.9 1.6 9.4 3 15 4.8 1.9-6.7 3.7-13 5.6-19.3 1.9-6.6.6-9.3-5.9-10.9-5.5-1.3-11.4-2-8.1-10.2.1-.2-.3-.6-.4-1-1.6-8.1-3.6-16.1-4.8-24.3-.8-5.3-2.8-10.9 1-16.2.7-.9-.6-3.4-1.1-5.2-.6-2.3-2.4-5.1-1.6-6.8 1.6-3.8 4.2-7.4 6.9-10.7 9.9-12.3 20.5-24.2 30-36.9 11.1-14.9 24.3-28.5 29.9-47 .8-2.5 1.1-3.8-1.5-5.2-9.6-5.6-17.3-13.5-25.3-21.1-7.3-7-9.4-16.3-13.7-24.5-1.8-3.4-2.1-7.9-1.8-11.8.7-10.2.7-20.4 4.5-30.2 4.6-12 10-23.2 18.6-33 4.3-4.9 12.3-8.4 8.9-17.1 2.2-1.1 4.9-1.5 5.4-2.8 2.1-6.1 4.6-3.8 6.5-1.1 2.9-5.1 5.8-10.1 8.7-15.2.7.4 1.4.7 2.1 1.1-2 4-4 8-6 11.9 4.4-1.4 8.2-2.7 12.1-3.9 1.4 2.3 3.1 3.8 5.7 1.7 3.4-2.7 5.6-1.1 7.6 1.7-1.9.3-3.8.6-5.6 1-3.3.7-6.8 1-9.9 2.3-5.1 2-10.9 3.5-14.6 7.1-4.3 4.1-7.1 9.6-13.6 10.9-.8.2-1.6 1.3-2.2 2.1-2.4 3.5-5.3 6.9-7 10.7-4.7 10.2-9.8 20.4-12.9 31.2-2.1 7.4-2.6 15.9-1.4 23.4 3 18 13.8 31.5 28.1 42.7 5.7 4.5 13.1 7.4 16.3 14.8.8 1.9 1.3 4.1 2.5 5.8 2.6 3.6 5.3 7.1 8.3 10.3 5.1 5.1 10.5 9.9 16.3 15.3.1-2.7-.3-4.5.4-5.9 2.2-4.8 4.5-9.6 7.2-14.2 1-1.6 3-3.3 4.8-3.6 5.1-.9 10.4-.8 15.6-1.6 4.4-.6 5.4-2.4 2.2-6.5-2.7-3.6-5.3-8.4-2-12.8 1.4-2 5.1-3.1 7.8-3.2 5.5-.1 11 1 16.5 1.4 3.5.3 7.6-.7 10.5.8 5.5 2.8 6.6-.1 7.9-4.2.8-2.8 2.1-5.4 3.3-8.2 3.3 1.4 5.7 2.5 7.7 3.3 7.4-9.7-2.6-12.9-7.2-18.7-2.1 4.1-3.9 8.2-6.1 12-.6 1.1-2.4 1.6-3.6 2.4-.5-1.4-1.7-3-1.4-4 1.5-4.5 3.4-8.8 5.5-13 .2-.5 2.6-.2 3.9.1.8.2 1.5 1 2.2 1.6.4-.9.9-1.8 1.1-2.7.4-2.3.8-4.7 1.1-7 .3-3.2.6-6.3-4-6.7-1.2-.1-2.4-.9-3.6-1.3 1-1.3 1.9-3 3.2-3.9 1-.7 2.7-.3 4.9-.5-.5-4.5-1.7-8.7-1.2-12.6.6-4.3-4.6-9.4 1.9-13.5 1.2 2.1 2.7 3.8 3.2 5.8 3.1 12.7 3 25.5.3 38.4-.6 2.8-.6 5.6 3.1 7.2 5 2.1 5.7 6.7 4.4 11.3-1.3 4.3-3.3 8.4-8.8 9.2-1.6.2-3.4 2-4.2 3.5-1.9 3.6-2.7 7.7-8.5 6.8-3.3-.5-6.8.4-10.3.5-2.8.1-5.5 0-8.3-.3-3.9-.5-7.6-1.5-11.5-1.8-4.2-.4-5.2 2-3.3 5.4 2 3.6 4.4 6.9 6.7 10.4-6.9 6.2-15.5 7-23.7 8.4-4.1.7-6.3 2.1-7.2 6.3 5.6 4.2 8.9 9 3.5 15.8-.4.5.9 3.1 1.9 3.6 13.4 6.2 26.9 12.3 40.6 18.1 1.4.6 4.4-.7 5.8-2.1 5.9-5.6 11.3-11.8 17.2-17.4 3.2-3 6.3-3.6 10.8-.6 10.1 6.7 21 12.1 31.4 18.3 6.8 4.1 13.4 8.6 20.6 13.2-10 13-19.4 25.1-28.6 37.2-3.6 4.8-7.5 9.5-10.2 14.8-4.1 7.9-7.1 16.4-10.7 24.5-1.4 3.2-2.8 5.6-7.8 4-12.3-3.9-22.5-11.3-33.2-17.9-8-4.9-15.6-10.5-24.5-16.6 3.4-8.7 7.1-18.2 10.7-27.4-7.6-1.4-14.7-1.5-20.3-6.4zM585.7 11c-11 0-20.7-.1-30.5 0-15 .2-30.1.8-45.1.9-15.8 0-31.6-.7-47.4-.7-19 0-37.9.3-56.9.6-9.2.2-18.3 1-27.5 1.2-10.8.2-21.7.9-32.4-.2-5.1-.5-8 .4-10.5 4-4.7 7-9.5 14-13.8 21.2-6.8 11.8-9.5 24.1-3.2 37 1.7 3.5 4.4 6.7 5.4 10.4.7 2.4.3 6.4-1.3 8-8.3 8.1-17.5 15.3-25.8 23.3-8.8 8.4-9.8 18.5-2.1 27.3 4.8 5.6 10.9 10.2 17 14.5 3.5 2.5 3.8 5.3 2.2 8.1-1.9 3.2-4.6 6-7.4 8.5-4.3 3.8-8.9 7.1-13.4 10.7-1.2 1-2.1 2.3-3.3 3.7 1.4.5 1.8.9 2 .8 10-6.6 20-13.4 30.1-19.9 1.4-.9 4-1 5.7-.5 6.3 1.9 12.4 4.8 18.8 6.4 11.9 2.9 23.9 5.6 36 7.5 5.7.9 11.7.4 17.5-.3 4.7-.6 9.1-3.2 13.8-3.7 17.3-1.8 34.2 1.4 50.7 6.3 4.4 1.3 8.6 4.9 12.9 4.8 12.8-.1 25.8-.6 38.5-2.7 21.9-3.7 42.2-12.1 61.7-22.9 4.4-2.4 7.1-5.4 7-11.4-.5-22-.1-44-.1-66 0-11-.1-22.1-.1-33.1 0-7.9-.1-15.9.1-23.8.2-6.1.9-12.2 1.4-20zm-.9 155.9c-31.4 19.7-63.7 30.2-101 28.6 10.2 9.9 16.5 19.8 18.2 32.3.2 1.3 1.3 2.7 2.3 3.6 9.5 8.4 7.4 31.4.6 40-3.8 4.8-9.4 8-4.5 14.9.1.2-.2.7-.5 1.5-4.8-3.9-5.8.6-6.6 3.4-3.5 12.2-11.7 19.3-23.5 22.9-3.6 1.1-7.3 2-11 3v1.4c2.8.6 5.6 1.2 8.4 1.7 2.1.4 4.4.3 6.5.8 1.7.4 3.3 1.2 4.8 1.9 2.2 1 4.9 1.6 6.3 3.3 4 4.7 7.6 9.7 11.1 14.8 3.6 5.4 2.1 12.4-1 13.7-1 3.6-1.6 6-2.2 8.3-.2.8-.5 1.6-.8 2.4-.8 1.7-1.2 4.5-2.4 5-7.4 3-15 5.5-22.5 8.2-.9 10.4-2.2 21.2-2.4 32-.1 4.7-.5 8.4-4.3 11.4-1 .8-1.3 2.4-1.7 3.8-.7 3-1.2 6.1-1.8 9.6 2.5 0 5.8-.5 8.9.1 6.8 1.4 8.6.6 10.4-5.8.6-2.2.6-4.7 1.3-6.9 2.3-8 4.7-15.8 14.3-18.1 5.9-1.4 10.3.8 10.8 6.9.4 5 .1 10.1-.7 15.1-1.6 10.3-3.8 20.6-5.9 31.2 4.7 2.9 24 2.3 26.4-1.6-4.8-.2-9.4-.4-14-.6v-1.4c1.8-.2 3.6-.5 5.4-.7v-.9c-3.6-.5-7.3-1-11-1.5 2.9-3.6 51.6-1.7 56.8 2.7-3-.3-5.1-.4-7.1-.6v.5c9.7 1.7 19.4 3.4 30.3 5.3 2.3-96.8-.1-194 2.1-292.2zM421.1 313.1c.7-1.9 1.3-3.1 1.7-4.4.6-2 .6-4.8 1.9-6.1 4.4-4.1 9.5-7.5 13.8-11.6 3.8-3.6 6.9-7.8 4.7-13.6-3.1-8.6-6-17.2-9.3-25.7-.9-2.3-3.1-4.2-4.7-6.3l-.9 2.1c-3-.5-5.9-1.1-8.9-1.6-1.2-.2-3-.9-3.4-.4-5.3 5.8-9.3 2.1-13.6-1.4-1.4-1.2-3.3-2-5.1-2.4-2.3-.5-5.8.6-7-.7-5.4-5.5-12.4-5.4-19-5.9-4.9-.3-8.4-2.5-11.9-5.4-1-.8-2.8-.8-4.2-1.2-.1 1.2-.4 2.6-.2 3.7 2.6 11.7 1.4 22-9.1 29.9-5.1 3.9-8.7 9.3-4.8 16.2 2.1 3.7 5 7 7.4 10.6 7.6 11.5 19.1 18 31.4 22.5 9.2 3.4 19.3 4.5 29.2 5.6 5.7.7 11.7-.6 17.6-1.1 0-.5 0-1-.1-1.5-1.8-.1-3.4-.6-5.5-1.3zm-57.3-109.7c-1.1 4.9-2.4 9.6-3.2 14.4-.2 1.1 1.4 3.3 2.5 3.5 1.6.3 4.2-.2 5.1-1.3 3.5-4.1 5.8-3.6 9 .6 3.4 4.5 7.8 8.4 11.7 12.6.5-.4 1-.7 1.5-1.1-.4-1.7-1.3-3.4-1.1-5 .2-1.7 1.2-3.6 2.5-4.7.6-.5 3.2.3 3.9 1.2 1.8 2.2 3 4.8 4.4 7.2 1.5 2.6 2.5 5.6 4.4 7.7 1.6 1.7 4.4 2.4 6.6 3.6-1.2-2.4-2-5.2-3.7-7.2-3-3.5-2.6-5.8 1.8-7.2 3.5 3.7 6.9 7.3 10.6 11.1.4-3 .7-5.1 1.1-7.6 2 .9 3.3 1.2 4.2 1.9 2.4 1.9 4.7 4 7 6.1 1.6-2.8 2.7-5.9 4.8-8.3 2.5-2.8 4.5-6.7 9.3-7.1-2.7 5-5.2 9.1-7 13.5-.8 1.9-.6 5.1.6 6.5 1 1.2 4.2 1.4 6.2 1 7.4-1.3 12.9-6.1 17.7-11.4 3.4-3.8 6.8-3.7 10.5-.9 4.1 3.1 8.1 6.4 12.3 9.6 2.1-2.2 6-5.9 9.1-10.1.9-1.3-.1-4.1-.5-6.2-.2-1.2-1-2.3-1.4-3.4-5.4-15.2-16.5-24.9-31.5-29.2-16.2-4.7-32.9-8.6-50.1-5.6-8.8 1.5-17.6 3.5-26.1 6-6.3 1.9-12.1 3.7-18.9 1.3-4.7-1.6-10.1-2.3-15-1.7-10.8 1.3-17.7 6.8-12.7 17 1.3 2.7 3.5 5 5.4 7.4 2.3 2.9 4.3 2.3 5.5-.9 2.6-6.7 7.9-10.5 13.5-13.3zM223.9 402.2c1.1-2.5 2.1-5.5 3.6-8.3 3.9-7.4 7.6-15 12.1-22 3.5-5.4 7.9-10.2 12-15.3 5.8-7.3 11.5-14.7 17.6-21.7 4-4.6 4.4-5.4-.5-8.2-9.3-5.4-18.7-10.5-28-15.8-4.7-2.7-10.3-5-13.7-8.9-3.6-4.2-6.3-3.6-9.2-.9-6.3 5.9-12.4 12-18.2 18.4-1 1.1-1.2 4.6-.2 5.8 2.6 3.3 1.9 6.5.1 9.2-2.1 3.2-5.3 4.6-9.5 3.8-1.4-.3-3.8.3-4.7 1.4-7.1 9.2-11.9 19.5-14.6 31.3 18.9 8 31.7 26 53.2 31.2zm247.9-46.5c-.2 2.9-.4 5.3-.6 6.8 1.8.6 3.5 1.2 5.9 2-2.8 2.6-4.7 4.4-6.6 6.2.2.5.5.9.7 1.4 5.5-2 10.9-4.1 16.9-6.3.5-3 0-7.7 2.2-10.4 3.7-4.7 1.3-9.1.3-12.8-2.8-9.8-11.9-13.4-20.2-17.4-.8-.4-2 .5-3.1.5-1.1.1-2.3 0-3.4-.3-5.2-1.3-10.1-4.9-15.9-2.3-3.2 1.5-6.5 2.8-9.8 4.3-1.1 2.1-2.9 3.8-4.7 5.4-.5.4-1 .9-1.4 1.4-6.3 6.6-3.7 15-4.3 22.7-.1 1.1 1.4 2.9 2.6 3.5 5.2 2.8 11.3 3.9 14.8 9.8 1.1 1.8 4.9 2.4 7.5 2.9 2.6.5 5.3.1 7.9.1 0 .3 0 .5.1.8 3-.7 6-1.3 9.6-2.1-2-1.7-3-2.6-4.5-3.8 5.4-2.5-2.2-10 6-12.4zm-334.6-65c-2.9 3.1-5.5 6.2-8.5 8.7-1.1.9-4.1.9-5.1 0-4.1-3.6-7.8-7.6-11.5-11.6-3.5-3.8-6.6-7.9-9.9-11.8-10.6 15.3-21.5 29.5-17.7 49.2 1.2 0 2.4.1 3.6 0 6.8-.8 13.6-2 20.4-2.2 5.2-.2 5.8-2.9 6.3-7.1.4-4.2 1.7-8.3 2.7-12.5l2.1.3v37.7c.8.3 1.6.7 2.4 1 2.8-4.4 5.6-8.9 8.4-13.3.8.1 1.5.2 2.3.3 1.4 3.6 2.9 7.2 4.3 10.9 1.1-16.3 6.5-32.4.2-49.6zm302 81.6c-2.9-5.5-7.7-5.2-11.5-4.4-10.9 2.2-20.2 7.7-28.4 15.2-5.7 5.2-6.1 5.1-10.1-.8-1.7-2.5-3.4-2.6-5.3-.5-4.5 5.1-9.7 9.8-13.3 15.5-5.5 8.5.5 19.2 10.5 18.1 6.5-.7 12.9-3.7 18.8-6.7 7.4-3.8 14-9.2 21.3-13.1 2.9-1.5 6.9-.9 10.4-1.2-2.9-1.7-6.3-2.7-4.2-7.3 2.6.4 5.1.7 8.9 1.3-3.6-3.1-6-5.1-8.4-7.2.1-.5.3-.9.4-1.4 2.6-.3 5.2-.6 7.8-.8l-.3-1.5c-1.1.2-2.4.8-3.4.6-1.6-.4-3-1.3-4.5-2 1.1-1.1 2-2.8 3.3-3.2 2.2-.7 4.7-.5 8-.6zm17.6-128.9c-5.8 2.7-10.5 4.8-15.7 7.2 2.7 5.1 5.9 10.1 8.2 15.4 1.5 3.4 3 7.5 2.3 10.8-2 9.7-8 16.7-16.5 22-3.4 2.1-9.1 3.2-8.1 9.5 1.1-.5 1.9-1.1 2.8-1.1 5.2-.1 11.1-6.3 15.6 1.7.4.7 2.4 1 3.5.7 3.7-1.1 7.3-2.6 11.1-3.7 1.3-.4 2.9-.4 4 .1.5.2.1 2.3.1 4.4 3.1-1.4 6-3.4 9.2-3.8 7.3-1 10.8-6 13.7-11.6 2.9-5.5 6.8-11.3-.4-16.8-.4-.3-.3-1.4-.5-2.1-.8-3-1.6-6-2.5-9.1-4.1 5.6-4.6 13.5-10.7 15.9-2-2.1-3.1-4.4-4.3-4.5-6.1-.3-10.2-4.3-12.4-8.7-3.4-6.7-3.9-14.4-.8-21.8.4-1.1.7-2.4 1.4-4.5zm-332 133c.6-.1 1.2-.2 1.8-.4-.7-3.5-.5-7.6-2.4-10.4-6.9-10.2-10.4-21.2-10.7-33.4-.1-2.4-.2-4-3.9-3.1-6.2 1.4-12.6 2.1-18.9 2.6-6.9.5-7.6.5-5.8 6.8 2 7 4.2 14.3 8.2 20.2 3.6 5.4 9 9.4 4.1 16.5-.2.3-.3.8-.2 1 .5 1.3 1 2.5 1.6 3.8.9-.8 2.2-1.5 2.8-2.6 1.1-2 1.9-4.2 2.8-6.3.6.2 1.3.3 1.9.5v9.6c.7.2 1.4.5 2.1.7 1.1-2 2.2-4 3.3-6.1.9-1.7 1.5-3.6 2.3-5.4.7 1.9 1.5 3.7 2.1 5.6.4 1.3.6 2.6.9 3.9h1.4c.7-3.6 1.4-7.3 2.1-10.9.7 0 1.3 0 2 .1.7 2.5 1.6 4.9 2.5 7.3zm-44-25.7c-6.1 2.3-12.3 4.6-20.1 7.4-1.1-7.3-2.3-14.7-3.6-23.2-5.2 7.3-9.4 12.9-13.4 18.7-3.5 5-2.1 9.2 3.7 11.3 7.7 2.8 15.3 6 23.2 8 7.2 1.8 14.8 2.3 21.9 3.3 3.1-5.4 1.5-8.7-2.3-12.3-3.5-3.5-5.9-8.2-9.4-13.2zM190.4 321c-6.5-2.8-13.1-5.6-19.7-8.6-7.4-3.3-12.6-3.3-15.7 2.3-2.8 5-3.6 11-5 16.7-.2.9 1.3 3 2.4 3.4 4.5 1.5 9.2 2.5 13.8 3.7 4.1 1.1 8.9 4 12.2 2.8 3.5-1.3 5.7-6.4 8.6-10 2.5 2.7 5.5 4.8 9.8.5-3.2-2.4-6.2-4.7-9.3-7 1.1-1.5 2.1-2.8 2.9-3.8zm253.8 55.9c-2.2 4.9-6.1 10.6-7.3 16.8-1.2 6.2-3.7 7.6-9.1 6.4-3.7-.8-4.7 2.3-5.4 4.7-.3 1 1.5 3.7 2.8 4 6 1.7 12.1 3.5 18.3 3.8 3.7.2 9 1.6 10.7-4.8 2.3-9.1 5.1-18 8-27.8-5.9-.9-11.4-1.9-18-3.1zM332 368.7c-10.3 2.2-19 6.8-25 15.9-1.8 2.7-1.3 4.9.4 7.3 2.2 3.2 9.8 6.3 13.6 5.4 10.1-2.4 16.7-10.4 17.4-21 .2-3.7-3.1-7.6-6.4-7.6zm86.5 45.9c2.6 5.4 5.5 11.6 9.3 19.6 4.8-.7 11.4-1.8 17.9-2.7 2.8-.4 6.7 1.2 7.2-3.2.4-3-.6-6.1-1-9.1-.1-.4-.5-.8-.1-.2-12.2-1.6-23.5-3.1-33.3-4.4zM63.4 464.3l.7-.7c-1.5-.6-3-1.2-4.6-1.7-4-1.3-8.3-2-12-4-3.9-2-7-3.5-11.5-1.1-2.7 1.4-7.2 1.7-9.7.3-2.9-1.6-5-1.4-7.4-.3-3.7 1.7-6.6 1.9-8-3.4-.5.2-1 .5-1.5.7-.6 3.9-1.2 7.8-1.9 12.6 19-.8 37.5-1.6 55.9-2.4zm-7.9-9.8c1.3.3 2.3.6 3.3.8 1.1.2 2.3-.2 3.3.2 8.4 3.9 17.6 4 26.4 3.9 8.1-.1 16.2-2.6 24.2-4.4.7-.2 1.7-3.2 1.1-4-1.6-2.3-13.5-3.1-15.9-1.5-3.3 2-6.6 4-8.5 5.1-4.5-1.8-7.8-3-11-4.3-3.4.4-6.7.4-9.9-.2-5.1-.7-10.4-3.4-13 4.4zm309-36.4c.4-.4.8-.9 1.2-1.3-5.6-5.8-.7-16.3-11.3-20.3-5-1.9-8.4-2.7-12.3 1.5-2.4 2.6-2.2 5.1.6 6.9 2.7 1.7 3.6 8 8.9 3.7 1-.8 2.4-.9 4.4-1.5-2.1 3.7-3.6 6.1-5.5 9.4 5.6.6 9.8 1.1 14 1.6zm-238.1 22c-2 .6-4.9 2.2-5.4 1.6-4.2-4.3-6.5.8-9.8 1.1l11.3 8.4c9.3-1.3 20.1 1.4 30.7-4.3-2.4-2.3-3.9-5-5.8-5.3-6.8-1.1-13.9-3-20 3.3-.5-2.2-.7-3.6-1-4.8zm285.5-111.8c-9.2-1.2-18.2-2.3-28.8-3.7 5 6.1 9 11.4 13.5 16.3.9 1 4 1.1 5.5.5 5.5-2.6 8.2-7.6 9.8-13.1zm36.7-13.5c-2.5.6-4.7 1.1-6.9 1.7-5.8 1.5-11.8 2.5-17.4 4.6-2.6 1-4.8 3.8-6.5 6.2-3.7 5 2.6 7.9 2.6 12.1 5.5.8 2.2-3.8 3.5-5 4.8-4.4 9.6-9.8 15.4-11.7 4.9-1.7 7.4-3.5 9.3-7.9zM89.9 422c-9.6.6-19.2 1.1-28.8 1.7-.3.5-.6 1.1-.9 1.6 1.6 1.9 3.1 5.4 4.7 5.5 6.7.2 13.3 3.6 20.2 1.5 1.5-.5 3.3.1 4.8.2V422zm298.9 37.2c.8-4.1 1.9-8.1 2.2-12.1.1-1.1-2.8-3.7-3.6-3.4-7.6 2.8-14.8 6.3-18.1 15.5h19.5zM98.7 427.4c6.7-1.1 12.3-1.7 17.7-3.2 1.3-.4 2.1-3.9 2.4-6.1.1-.7-2.5-2.7-3.6-2.5-6.3 1.3-12.5 2.8-18.6 4.8-1 .3-2.1 3.3-1.6 4.5.6 1.2 2.8 1.8 3.7 2.5zm-27.1-87.1c2.9-2.4 6.8-4 7-6 .7-8 .3-16.2.3-23.8-11.1 6.3-9 17.3-7.3 29.8zm273.2 72.6c-.4-.5-.6-.8-.8-1.1-6.5-9.7-6.6-9.7-16.1-3.1-1.2.8-2.9 2.8-2.6 3.3 1.1 2.1 2.8 5.2 4.5 5.4 5.3.6 10.9.6 15-4.5zm26.2-31.3c-2 .7-6.4 1.2-6.6 2.4-.6 3.8.3 7.9.6 11.7 1.4 0 2 .2 2.2 0 5.8-6.3 11.7-12.5 17.2-19 .9-1.1.6-3.2.8-4.9-.7-.3-1.3-.5-2-.8-3.9 3.4-7.8 6.8-12.2 10.6zm-30.3 56.8c-2.3 1.8-4.7 3.3-6.5 5.3-1.3 1.4-1.8 3.5-2.6 5.4 3.3 1 3.9 7 8.3 5.3 9.4-3.5 10-6.9 3.1-13.8-.5-.6-1-1.1-2.3-2.2zm28.2-62.5c3.4-2 6.9-3.8 10.1-6 .8-.5 1.5-2.7 1.1-3.1-1.8-2.3-4.1-5.9-6.2-5.9-3.3 0-6.8 2.3-9.9 4.1-.7.4-.7 3.1 0 4.3 1.2 2.3 3.2 4.4 4.9 6.6zm-3.4 3.5c-1.7-3.5-2.6-6.1-4.1-8.2-.9-1.2-3.8-2.5-4.1-2.2-3.1 3.5-6.5 7.1-8.6 11.2-.8 1.5 1.3 4.6 2.6 8.4 3.6-4.1 6.1-7 8.9-10.3.8.2 2.5.6 5.3 1.1zm34.6 39c-5.2-.5-13.8 7.2-14 12.5-1.8-.4-3.6-.7-5.4-1.1-.1.5-.2 1.1-.3 1.6 3.7 2 7.5 4.1 11.7 6.3 2.6-6.3 5.2-12.6 8-19.3zm88-8.2c-1 1.4-1.7 2.2-2 3-2 5.7-3.7 11.6-5.8 17.3-2.7 7.4-5.6 14.7-8.3 22.1-.4 1-.5 2.3-.2 3.2.5 1.3 1.5 2.5 2.2 3.7 1.1-1.2 2.8-2.2 3.1-3.6 3.8-14.8 7.3-29.7 11-45.7zM60.8 442.6c13 4.3 25.1 2.2 27.6-3.7-8.9-.5-18.1-1-27.6-1.5v5.2zm270.8-14.2c-15 7.9-14 7.1-4.6 15.8 3-2.3 6.2-4.6 9.1-7.1.7-.6 1.1-2.3.8-3.3-.2-.6-2-1.2-2.9-1.1-3.4.5-4.3-.5-2.4-4.3zm21.7 4.5v.3c-1.3 0-2.6.1-3.8 0-4.3-.3-4.3 2.4-3.2 5.2 2.1 5.2 7 6.7 11.5 3.5 1-.7 2-1.6 2.8-2.6 1.1-1.2 2.2-2.5 3.2-3.7-1.4-.5-2.7-1.2-4.2-1.6-2.1-.5-4.2-.7-6.3-1.1zm1.6 15c2 2.6 3.7 5 5.5 7.5 4.4-3.4 8.7-6.8 13.3-10.4-2.9-2.3-4.7-3.8-6.6-5.3-3.9 2.7-7.8 5.3-12.2 8.2zm-235.2-16.2c-.3-.7-.7-1.5-1-2.2-1.3-.2-2.7-.8-4-.6-5 .6-10 1.2-14.8 2.3-1.5.3-2.7 2.2-4 3.4 1.2 1.1 2.3 3.3 3.5 3.3 4.5-.1 9.1-.4 13.4-1.6 2.5-.8 4.6-3.1 6.9-4.6zm257-7.3c-.1.6-.1 1.2-.2 1.7-4.8-.2-9.6-.4-14.7-.7 4 7.2 21.6 2.8 27.7-6.3-15.5 2.6-15.5 2.6-20.6-.7-1.4 1-2.6 1.9-4.7 3.3 3.2.4 5.2.5 7 1 1.9.4 3.7 1.1 5.5 1.7zm12.6-56.5c4.6 13.7 4.6 13.7 14.5 5.4-2-1.6-4.7-2.7-5.8-4.7-2.8-5.5-5.6-3.5-8.7-.7zm64.5 86.6.6-1.8c-2.5-1.3-6-2-7.4-4.1-1.4-2.1-.9-5.6-1.3-8.5H440c-.5 3.8-1.1 7.5-1.7 11.8 5.6.9 10.5 1.7 15.5 2.6zm-307-134.1c3.6-4.2 6.6-7.6 9.3-11.1.3-.4-.4-2.2-1.1-2.8-2.2-1.8-4.7-3.3-7.1-5-4.9 5.7-1.1 11.9-1.1 18.9zm241.8 44.5c1.5-2.5 4-4.9 3.5-6.1-1.1-2.6-3.5-6-5.9-6.5-2.2-.4-5.6 2-7.5 4.1-.7.8 1.5 4.1 2.6 6.9 1.5-1.7 2.3-2.6 3.2-3.7 1.1 1.3 2.1 2.6 4.1 5.3zm-260-69.8 1.3-3.9c-5.6-5.9-11-11.5-17.3-18.1.9 8.1 9.3 18.7 16 22zm246.6 58.7c.8-.7 1.5-1.3 2.2-1.8 6.3-4 6.7-6.9 1.7-12.4-.4-.4-2.5 0-3.1.6-.9 1-.9 2.9-1.9 3.7-4.4 3.7-2.1 6.5 1.1 9.9zm31.6 17.9c1.8-.9 3.4-1.6 4.8-2.5 4-2.6 2.1-12.5-2.4-12.6 1.8 7.2-3.5 5.8-8.2 5.8 2.2 3.4 3.9 6.2 5.8 9.3zm-65.1 86.7c.1.5.3 1 .4 1.5 5.3-.6 10.5-1.3 15.8-1.9.1-.5.3-1 .4-1.6-1.6-1.4-3.1-3.1-4.9-4.2-1.1-.7-3.2-1-4.1-.4-2.7 1.9-5.1 4.3-7.6 6.6zm-18.3-11.6c-8.9-9.7-7.3-10.1-14.6-2.8 4.6 2 8.2 7.5 14.6 2.8zm141-5.9c-3.4 0-6.1-.3-8.8.1-1.3.2-2.4 1.5-3.6 2.3.9 1 1.6 2.1 2.7 2.8 1.9 1.3 4 2.3 6.1 3.5.9-2.2 2.1-4.9 3.6-8.7zM304 443.2c0-.8-.1-1.6-.1-2.3 2.2-1.2 4.6-2.1 6.7-3.6.7-.5.8-2.5.5-3.5-.3-.8-2.3-1.8-2.7-1.5-1.9 1.4-4.1 2.9-4.9 4.9-.8 1.6.2 4 .5 6zm24.8-18.4c-.4-.7-.8-1.5-1.2-2.2-4.3 2.2-8.8 4.3-13 6.7-.4.2.5 2.6.9 4.7 5-3.5 9.1-6.4 13.3-9.2zm136.1 34.5c2-5.4 3.8-9.8 5.4-14.3.3-.8-.3-1.9-.5-2.9-.8.4-2.1.7-2.4 1.3-2.1 4.8-4.7 9.5-2.5 15.9zM131.2 340.1c-.7-.3-1.4-.5-2.1-.8-1.3 5.3-2.9 10.5-3.9 15.8-.2.9 1.5 2.2 2.3 3.3 1.3-6.4 2.5-12.4 3.7-18.3zM479 250.9c-3.5-1.9-6.5-4.8-7.9-4.1-2.3 1.1-1.6 4 .4 6.4 3.1 3.5 4-.2 7.5-2.3zM131.1 371.5c.7-.1 1.3-.2 2-.2-.4-4.3 3.8-9.3-1.3-12.9-.7.1-1.3.2-2 .3.4 4.2.8 8.5 1.3 12.8zm295.2 85.4c.1.6.3 1.2.4 1.8h13.2c-3.2-1.9-6.2-3.6-9.6-5.6-1.2 1.1-2.6 2.5-4 3.8zm-89.2-60.8c4.3-2.7 7.8-4.8 11.5-7-4.8-4.8-5.8-4.1-11.5 7zm-22 27.5.9.9c3.1-1.8 6.3-3.5 10-5.6-1.8-1.6-3-2.5-4.5-3.8-2.3 3.1-4.4 5.8-6.4 8.5zm65.9 17.5c.2-.5.3-1 .5-1.6-3.1-.9-6.2-1.9-9.3-2.8-.1.5-.3 1-.4 1.4 1.4 1.7 2.8 3.5 4.4 5.3 1.7-.8 3.2-1.6 4.8-2.3zm85.1-195.3c5-3.8 4.9-4-.5-8.4-1.7 2.9-3.7 5.8.5 8.4zM352.4 422c-3.9-3.7-10-3-13.7 1.4 4.5-.5 9-.9 13.7-1.4zm116.7-163.4c.3-1 .6-1.9.9-2.9-2.3-1.3-4.7-2.5-7-3.8.6 1.8.9 3.9 2 5.2.8 1 2.7 1 4.1 1.5zm-103.2-32.8c0 .8.1 1.5.1 2.3 2.7.4 5.5.8 8.2 1.1-.6-1.5-1-4.2-1.7-4.3-2.1-.2-4.4.6-6.6.9zm133.2 15.8c-1-.1-2-.3-2.9-.4-.5 2-1 3.9-1.6 5.9 1.5.2 3 .5 4.5.7v-6.2zM110.9 408.3c-.4-.1-.7-.3-1-.3-.1 0-.3.2-.4.3.2.2.5.5.7.5.3 0 .5-.3.7-.5z"/>
  <path d="M112.5 13.2c-2 2.3-3.9 4.5-6.3 7.3-2.3-2.4-4.1-4.3-5.9-6.3 4.1-.3 8.1-.6 12.2-1z"/>
  <path d="M120.1 109c-3.8 1.3-7.7 2.5-12.1 3.9 2-3.9 4-7.9 6-11.9-.7-.4-1.4-.7-2.1-1.1-2.9 5.1-5.8 10.1-8.7 15.2-1.9-2.7-4.3-5-6.5 1.1-.4 1.3-3.2 1.7-5.4 2.8 3.4 8.7-4.6 12.2-8.9 17.1-8.6 9.8-14 21-18.6 33-3.8 9.9-3.8 20.1-4.5 30.2-.3 3.9.1 8.4 1.8 11.8 4.3 8.3 6.4 17.5 13.7 24.5 8 7.6 15.7 15.5 25.3 21.1 2.5 1.5 2.2 2.7 1.5 5.2-5.6 18.4-18.8 32.1-29.9 47-9.5 12.7-20 24.5-30 36.9-2.6 3.3-5.2 6.8-6.9 10.7-.7 1.7 1 4.5 1.6 6.8.4 1.7 1.8 4.2 1.1 5.2-3.9 5.3-1.8 10.8-1 16.2 1.2 8.2 3.1 16.2 4.8 24.3.1.3.5.7.4 1-3.3 8.2 2.6 8.9 8.1 10.2 6.5 1.6 7.8 4.3 5.9 10.9-1.8 6.3-3.6 12.5-5.6 19.3-5.6-1.8-10.1-3.3-15-4.8 0 0-.8.6-1.7.8-5.9 1.3-11.9 2.3-17.7 3.9-4.6 1.3-6.3.4-6.4-4.3 0-12.1-.3-24.1-.3-36-.1-17.4-.3-34.7-.1-52.1.2-18.5.7-37 .9-55.4.1-10.7-.3-21.4-.3-32.2-.1-24.3-.1-48.6-.2-72.9-.1-15.6-.4-31.2-.4-46.8 0-10.7.3-21.5.3-32.2 0-11.8-.3-23.6-.3-35.4-.1-9 0-9.1 9.2-10.4 7.2-1 14.3-2.2 21.5-2.7 17.3-1.2 34.5-2.1 51.8-3.1 7.1-.4 14.4 0 21.3-1.3 6.4-1.2 12.5-.1 18.7-.5 9.2-.6 18.3-2.1 27.6-2.6 15.4-.8 30.8-1.2 46.3-1.8 12.8-.5 25.7-1.2 38.5-1.7 5.7-.2 11.4-.4 17.1-.5 6.9-.1 8.1-1.1 8.1-8.2.1-9.7-.1-19.5.1-29.2.1-2.5 1.1-5.1 1.6-7.2h61.6c-2.6 3.3-5 6.3-7.5 9.3-9.2 10.9-15.2 23.4-15.8 37.6-.2 6.1 3.1 12.4 5.2 18.4 1.3 3.6 3.5 7 5.8 11.2-3.9 2.6-8.1 5-11.8 8-4.7 3.8-9.5 7.8-13.5 12.3-3.5 4-6.4 8.6-9 13.2-3.9 7-3.4 13.9.8 21 4.5 7.6 11.4 12.5 18.6 16.9 3.8 2.4 2.7 4 .3 6.2-9.4 8.7-18.9 17.2-28 26.1-1.1 1-.5 4.1-.1 6 .1.4 3.3.9 4.3.3 13.4-8 26.6-16.2 40-24.2 1.4-.8 3.7-1.3 5.1-.8 8.9 3.5 17.7 7.3 27.4 11.4-2.7.6-4.8 1.2-6.8 1.6-7.9 1.6-13.7 5.5-17.1 13.2-2.6 5.9.4 10.3 3.4 14 3.5 4.4 8.8 7.3 12.6 11.5 1.8 2 2.4 5.3 3 8.1 1.2 5.9.9 12-4.5 15.7-3.1 2.1-7.3 2.6-11 3.6-7.6 2-12.7 6.4-14.3 14.3-.2 1.2-.2 3.1.6 3.8 1.6 1.6 3.8 2.6 5.8 3.8.3-1.2 1.1-2.4.9-3.4-1.2-7.9 1.3-11.7 8.9-14.1 2.4-.8 4.6-2.2 7.7-2.3-1 1.2-1.9 2.4-3 3.4-8.8 9.2-9.6 17.1-2.3 27.4 6.5 9.2 14.1 17.4 24.1 23.1 3.6 2 7.2 4.1 11.1 5.3 4 1.3 4.3 4 3.9 7.1-.9 7.7-4.5 14-9.3 20.1-6.7 8.5-12.5 17.6-18.8 26.3-2 2.8-4.1 5.5-6.8 9.1-.3-7.4-1.8-13.4-9.5-13.7-3.7-.1-7.9.7-11.2 2.4-7.9 4.1-15.4 9.1-20.1 17-3.6 6-.9 13 5.7 15.8 3.3 1.4 6.8 2.1 10.2 3.1-5.9 3.9-21.6.4-24.7-5.8-1.8-3.5-1.5-6.7 1.7-9.7 3.8-3.6 7.2-7.6 10.7-11.5-.6-.6-1.2-1.1-1.8-1.7-5.3 5.4-11.6 10.1-15.8 16.3-4.2 6.1 3.5 16.9 12.6 18 6.3.8 12.7.1 19.5.1-5.5 6.5-11 13.6-17.1 20.2-12.2 13.1-6.1 17.8 5.7 22.8 3.9 1.6 7.5 3.7 11 6.8L110.5 462c-.2-.5-.3-.9-.5-1.4 4-1.6 7.9-3.9 12.1-4.7 8.6-1.5 17.4-2.6 26.1-3.2 5.5-.4 8.6-2.9 9.2-7.9.4-3.6-4.9-7.9-9.7-8.7-1.3-.2-2.6-.5-3.9-.8 0-.6 0-1.2.1-1.9 15.2-1 30.4-2 45.6-2.9 0 .5.1 1 .1 1.4-6.4.6-12.8 1.2-19.3 1.8.1.8.1 1.5.2 2.3l54.9-5.1c.1.6.1 1.1.2 1.7-8.5 1-17 2-25.5 2.9.1.6.2 1.3.2 1.9 16.8-1.5 33.5-2.9 50.3-4.4.1.5.1.9.2 1.4-5.9.8-11.8 1.5-17.8 2.3.1.5.2 1 .2 1.5 4.4-.4 8.8-.9 13.3-1.2 5.8-.4 11.7-1.1 17.5-1 5.1.1 10.5 2.7 15.2 1.7 5.4-1.2 12.1 0 16.1-5.2.9-1.2.6-4-.2-5.6-.4-.9-2.8-1.5-4.3-1.4-5.5.2-11 .6-16.5 1-6.4.5-12.9 1.2-19.3 1.5-7.8.3-15.5.1-23.3.4-8 .3-16 .8-24 1.3-3.6.2-6.8 2.2-10.6-1-1.9-1.6-6.3-.2-9.6 0-14.3.8-28.7 1.5-43 2.5-1.8.1-3.6 1.7-6.2 3-3.5-.8-8.7-1.9-13.7-3-.3-4.6-.9-10.4-1-16.2 0-1.1 1.9-2.8 3.3-3.3 10.1-3.8 10.7-4.9 8.7-15.6-1-5.1-1.6-10.3-2.3-15.5-.2-1.2-.3-2.8.3-3.8 6.8-12.2 7.1-26.1 10.8-39.1 1.9.6 3.7 1.4 5.6 1.6 1.8.2 3.6-.3 5.5-.5 5.6 5 12.7 5.1 19.8 6.7-3.6 9.2-7.3 18.7-10.7 27.4 9 6.1 16.6 11.6 24.5 16.6 10.7 6.6 20.9 14 33.2 17.9 5 1.6 6.3-.8 7.8-4 3.6-8.2 6.7-16.6 10.7-24.5 2.7-5.3 6.6-10 10.2-14.8 9.2-12.1 18.6-24.2 28.6-37.2-7.2-4.6-13.8-9.1-20.6-13.2-10.4-6.2-21.3-11.6-31.4-18.3-4.5-3-7.7-2.4-10.8.6-5.9 5.6-11.3 11.7-17.2 17.4-1.4 1.3-4.4 2.7-5.8 2.1-13.6-5.7-27.1-11.9-40.6-18.1-1-.5-2.3-3.1-1.9-3.6 5.4-6.8 2.1-11.6-3.5-15.8.9-4.2 3.1-5.6 7.2-6.3 8.2-1.4 16.8-2.1 23.7-8.4-2.3-3.5-4.7-6.8-6.7-10.4-1.9-3.4-.9-5.8 3.3-5.4 3.9.3 7.7 1.4 11.5 1.8 2.7.3 5.5.4 8.3.3 3.4-.1 7-1 10.3-.5 5.8.9 6.6-3.3 8.5-6.8.8-1.5 2.7-3.3 4.2-3.5 5.5-.8 7.5-4.8 8.8-9.2 1.4-4.6.6-9.2-4.4-11.3-3.7-1.6-3.7-4.4-3.1-7.2 2.7-12.8 2.9-25.6-.3-38.4-.5-2-2-3.7-3.2-5.8-6.4 4.1-1.3 9.2-1.9 13.5-.5 4 .7 8.2 1.2 12.6-2.1.2-3.8-.2-4.9.5-1.3.9-2.2 2.6-3.2 3.9 1.2.5 2.4 1.2 3.6 1.3 4.5.4 4.3 3.6 4 6.7-.2 2.4-.6 4.7-1.1 7-.2.9-.7 1.8-1.1 2.7-.7-.5-1.4-1.4-2.2-1.6-1.3-.3-3.6-.6-3.9-.1-2.1 4.2-4 8.6-5.5 13-.4 1.1.9 2.7 1.4 4 1.2-.8 2.9-1.3 3.6-2.4 2.2-3.8 4-7.9 6.1-12 4.7 5.8 14.6 9 7.2 18.7-2-.9-4.4-1.9-7.7-3.3-1.1 2.8-2.4 5.4-3.3 8.2-1.3 4.1-2.3 7-7.9 4.2-2.9-1.5-7-.5-10.5-.8-5.5-.5-11-1.5-16.5-1.4-2.7 0-6.4 1.2-7.8 3.2-3.2 4.4-.7 9.3 2 12.8 3.2 4.1 2.2 5.9-2.2 6.5-5.2.8-10.5.7-15.6 1.6-1.8.3-3.8 1.9-4.8 3.6-2.7 4.5-5 9.3-7.2 14.2-.6 1.4-.2 3.3-.4 5.9-5.8-5.4-11.2-10.2-16.3-15.3-3.1-3.1-5.8-6.7-8.3-10.3-1.2-1.7-1.6-3.8-2.5-5.8-3.2-7.4-10.5-10.3-16.3-14.8-14.2-11.2-25-24.7-28.1-42.7-1.3-7.6-.8-16.1 1.4-23.4 3.1-10.7 8.3-20.9 12.9-31.2 1.8-3.8 4.6-7.2 7-10.7.6-.8 1.3-2 2.2-2.1 6.5-1.3 9.3-6.8 13.6-10.9 3.7-3.6 9.5-5.1 14.6-7.1 3.1-1.2 6.6-1.6 9.9-2.3 1.9-.4 3.8-.7 5.6-1l6-.9c-1.2-4.8 2.3 0 2.7-1.3 1.1 1 2.2 2.9 3.3 3 6.2.3 11.8 2.6 17.6 4.2 13.3 3.5 23.2 11.6 32.7 20.6 1.4 1.3 2.7 2.8 3.7 4.4 5.1 7.9 10.1 16 15.1 23.9 7.6-3.9 10.9-2.1 11.8 5.3.2 2.1 1.7 4 2.5 6 .5 0 .9-.1 1.4-.1.7-2.7 1.8-5.3 2.1-8 .9-8-4-12.3-12.1-11.4-1.4.2-3.7-1.4-4.4-2.8-6.9-14.1-16.5-25.9-29.8-34.3-6.5-4.1-13.9-6.6-20.8-10.1-3.6-1.8-7-4.5-10.5.2.5-1.3.9-2.5 1.3-3.5-3.3-.6-6.1-1.5-9-1.5-1.7 0-3.4 1.3-5.2 2-2.4-.8-5-2.4-7.3-2.1-4.2 1-9.1 2.5-14 3.6zm24 103.8c-1.8-1.4-3.3-2.2-4.2-3.4-2.3-3.1-4.8-6.3-6.2-9.8-.5-1.4 1.6-5.5 2.9-5.6 2.6-.3 5.7.8 8 2.1 2.3 1.4 4 4.1 6.3.3-9.3-9.9-11.2-9.4-16.4-6-7.3 4.8-9.8 13.1-6.4 18.3 3.7 5.8 9.1 7.4 16 4.1zM584.8 166.9c-2.2 98.2.2 195.4-2 292.4-11-1.9-20.6-3.6-30.3-5.3v-.5c2 .2 4.1.4 7.1.6-5.2-4.4-54-6.3-56.8-2.7 3.7.5 7.4 1 11 1.5v.9c-1.8.2-3.6.5-5.4.7v1.4c4.6.2 9.3.4 14 .6-2.4 3.9-21.6 4.5-26.4 1.6 2-10.6 4.2-20.9 5.9-31.2.8-5 1.1-10.1.7-15.1-.5-6.1-4.9-8.3-10.8-6.9-9.7 2.3-12 10.1-14.3 18.1-.6 2.2-.6 4.6-1.3 6.9-1.8 6.4-3.6 7.2-10.4 5.8-3.1-.6-6.5-.1-8.9-.1.7-3.6 1.1-6.6 1.8-9.6.3-1.3.7-3 1.7-3.8 3.8-3 4.3-6.7 4.3-11.4.2-10.8 1.5-21.6 2.4-32 7.5-2.7 15.1-5.2 22.5-8.2 1.3-.5 1.7-3.3 2.4-5 .3-.8.6-1.6.8-2.4.7-2.4 1.3-4.8 2.2-8.3 3.1-1.3 4.6-8.3 1-13.7-3.4-5.1-7.1-10.1-11.1-14.8-1.4-1.7-4.2-2.3-6.3-3.3-1.6-.7-3.2-1.5-4.8-1.9-2.1-.5-4.3-.4-6.5-.8-2.8-.5-5.6-1.1-8.4-1.7v-1.4c3.7-1 7.3-1.9 11-3 11.7-3.6 20-10.7 23.5-22.9.8-2.8 1.8-7.3 6.6-3.4.3-.9.7-1.4.5-1.5-4.9-7 .7-10.2 4.5-14.9 6.8-8.6 9-31.7-.6-40-1-.9-2.1-2.3-2.3-3.6-1.7-12.4-8-22.4-18.2-32.3 37.1 1.4 69.5-9.1 100.9-28.8z" fill="#fff"/>
  <path d="M421.1 313.1c2.1.7 3.8 1.2 5.4 1.7 0 .5 0 1 .1 1.5-5.9.4-11.8 1.7-17.6 1.1-9.8-1.1-20-2.2-29.2-5.6-12.2-4.5-23.8-11-31.4-22.5-2.4-3.6-5.3-6.9-7.4-10.6-3.9-6.8-.3-12.3 4.8-16.2 10.5-8 11.7-18.2 9.1-29.9-.3-1.2.1-2.5.2-3.7 1.4.4 3.2.3 4.2 1.2 3.5 2.9 7 5.1 11.9 5.4 6.6.4 13.6.3 19 5.9 1.2 1.3 4.7.2 7 .7 1.8.4 3.7 1.3 5.1 2.4 4.3 3.5 8.4 7.1 13.6 1.4.5-.5 2.3.2 3.4.4 3 .5 5.9 1 8.9 1.6l.9-2.1c1.6 2.1 3.8 3.9 4.7 6.3 3.3 8.5 6.2 17.1 9.3 25.7 2.1 5.9-1 10.1-4.7 13.6-4.4 4.1-9.5 7.5-13.8 11.6-1.3 1.3-1.3 4-1.9 6.1-.4.9-.9 2.1-1.6 4zm-10.6-43.6c2.5-.7 4.3-1.3 6.1-1.8-1.2-2.1-2-5-3.8-6.3-3.5-2.5-6.7-.5-9.3 2.2-3.1 3.3-3.1 7.3-1.3 11 1.6 3.4 3.9 5.1 6 .1.9-2 1.8-4.1 2.3-5.2zm-45.6-6.5c.8.8 2.4 2.9 4.6 4.1.5.3 3.2-2.5 4.2-4.2 1.4-2.6 2.6-5.5 3-8.4.1-1.2-2.2-4-3.3-3.9-4.7.3-8.5 5.4-8.5 12.4zm26.6 1.2c-2-4.3-5.5-4.7-8.7-3.8-1.8.5-4.7 4-4.3 4.7 1.6 3.3 4 6.3 6.7 8.8.8.7 3.3-.5 5.3-.8-2.9-3.6-5-6.2-7.1-8.8.3-.3.6-.7.9-1 2.3.3 4.5.6 7.2.9zM377.3 290c-.4 1.6-1.2 3-1.1 4.4 0 .9 1.1 2.1 2 2.6 2.9 1.6 5.9 3.1 9 4.4.7.3 2.3-.3 2.7-.9.4-.7.3-2.5-.3-2.9-3.3-2.2-6.7-4.1-12.3-7.6z" fill="#fff"/>
  <path d="M363.8 203.4c-5.6 2.9-10.9 6.6-13.4 13.3-1.2 3.2-3.2 3.8-5.5.9-1.9-2.4-4-4.7-5.4-7.4-5.1-10.2 1.9-15.8 12.7-17 4.9-.6 10.3.1 15 1.7 6.8 2.4 12.6.5 18.9-1.3 8.6-2.5 17.3-4.5 26.1-6 17.2-3 33.8.9 50.1 5.6 15 4.3 26.1 14 31.5 29.2.4 1.2 1.2 2.2 1.4 3.4.4 2.1 1.4 4.9.5 6.2-3.1 4.2-7 7.9-9.1 10.1-4.1-3.2-8.1-6.5-12.3-9.6-3.7-2.8-7-2.9-10.5.9-4.8 5.3-10.3 10.1-17.7 11.4-2 .4-5.2.2-6.2-1-1.2-1.4-1.4-4.6-.6-6.5 1.8-4.4 4.3-8.5 7-13.5-4.8.4-6.8 4.4-9.3 7.1-2.1 2.3-3.2 5.5-4.8 8.3-2.3-2-4.6-4.2-7-6.1-.9-.7-2.2-1.1-4.2-1.9-.4 2.5-.7 4.6-1.1 7.6-3.6-3.8-7-7.4-10.6-11.1-4.4 1.4-4.8 3.7-1.8 7.2 1.7 2 2.5 4.8 3.7 7.2-2.2-1.1-5-1.8-6.6-3.6-2-2.1-3-5.1-4.4-7.7-1.4-2.5-2.6-5.1-4.4-7.2-.8-.9-3.3-1.7-3.9-1.2-1.3 1.1-2.3 3-2.5 4.7-.2 1.6.7 3.4 1.1 5-.5.4-1 .7-1.5 1.1-4-4.2-8.3-8-11.7-12.6-3.2-4.2-5.4-4.7-9-.6-1 1.1-3.5 1.6-5.1 1.3-1-.2-2.6-2.4-2.5-3.5.7-4.8 2-9.5 3.1-14.4zM223.9 402.2c-21.5-5.2-34.4-23.2-53.3-31.3 2.7-11.8 7.5-22.1 14.6-31.3.8-1.1 3.2-1.7 4.7-1.4 4.2.9 7.4-.6 9.5-3.8 1.8-2.8 2.5-5.9-.1-9.2-.9-1.2-.8-4.7.2-5.8 5.8-6.4 11.9-12.5 18.2-18.4 2.9-2.7 5.7-3.3 9.2.9 3.4 4 8.9 6.2 13.7 8.9 9.3 5.4 18.7 10.5 28 15.8 4.9 2.8 4.5 3.6.5 8.2-6.1 7-11.8 14.4-17.6 21.7-4.1 5.1-8.6 9.9-12 15.3-4.5 7.1-8.2 14.6-12.1 22-1.4 2.9-2.4 5.9-3.5 8.4zm-10.2-20.8c.3-6.5-16.8-34.4-26-39.7 5.2 11.5 10.3 22.9 15.5 34.4.7-.3 1.5-.6 2.2-1l-7.2-16.2c.4-.2.9-.5 1.3-.7 4.7 7.8 9.5 15.5 14.2 23.2zm-7.3-58.9c.5.1 1 .4 1.5.4 7.3 0 14.6.1 21.9-.2 2-.1 5.8 2.7 5.7-3.3-5.2 0-10.5.2-15.7-.1-5.1-.2-12 1.1-13.4 3.2zM471.8 355.7c-8.2 2.4-.6 9.8-5.9 12.5 1.5 1.3 2.5 2.2 4.5 3.8-3.6.8-6.6 1.5-9.6 2.1 0-.3 0-.5-.1-.8-2.7 0-5.4.4-7.9-.1-2.7-.5-6.5-1-7.5-2.9-3.5-5.9-9.6-7-14.8-9.8-1.2-.7-2.7-2.4-2.6-3.5.6-7.7-2-16.1 4.3-22.7l1.4-1.4c1.8-1.7 3.6-3.3 4.7-5.4 3.3-1.4 6.6-2.8 9.8-4.3 5.8-2.6 10.7.9 15.9 2.3 1.1.3 2.3.3 3.4.3 1 0 2.3-.9 3.1-.5 8.4 3.9 17.5 7.6 20.2 17.4 1 3.6 3.5 8.1-.3 12.8-2.1 2.7-1.6 7.4-2.2 10.4-5.9 2.2-11.4 4.2-16.9 6.3-.2-.5-.5-.9-.7-1.4 1.9-1.8 3.8-3.5 6.6-6.2-2.4-.8-4.1-1.4-5.9-2 .1-1.6.3-4 .5-6.9zm-8.6 13.5c.7-2.2 1.3-4.1 2-6.1-4.5 6.7-11-1.2-16.7 4 5.3.8 9.5 1.4 14.7 2.1zM137.2 290.7c6.4 17.2.9 33.3-.1 49.5-1.4-3.6-2.9-7.2-4.3-10.9-.8-.1-1.5-.2-2.3-.3-2.8 4.4-5.6 8.9-8.4 13.3-.8-.3-1.6-.7-2.4-1v-37.7l-2.1-.3c-.9 4.2-2.3 8.3-2.7 12.5-.4 4.2-1 6.9-6.3 7.1-6.8.2-13.6 1.5-20.4 2.2-1.2.1-2.5 0-3.6 0-3.8-19.7 7.1-33.9 17.7-49.2 3.3 3.9 6.4 7.9 9.9 11.8 3.7 4 7.4 8 11.5 11.6 1 .9 4 .9 5.1 0 2.9-2.4 5.4-5.5 8.4-8.6zM439.2 372.3c-3.2.1-5.7-.1-8 .5-1.3.3-2.2 2.1-3.3 3.2 1.5.7 2.9 1.6 4.5 2 1 .2 2.3-.3 3.4-.6l.3 1.5c-2.6.3-5.2.6-7.8.8-.1.5-.3.9-.4 1.4 2.4 2 4.8 4.1 8.4 7.2-3.9-.6-6.3-.9-8.9-1.3-2 4.6 1.3 5.6 4.2 7.3-3.5.3-7.5-.3-10.4 1.2-7.4 3.9-13.9 9.3-21.3 13.1-5.9 3.1-12.4 6-18.8 6.7-10 1.1-16-9.5-10.5-18.1 3.7-5.7 8.8-10.4 13.3-15.5 1.9-2.1 3.6-2 5.3.5 4 5.9 4.4 6 10.1.8 8.2-7.5 17.6-13 28.4-15.2 3.8-.7 8.6-1 11.5 4.5z" fill="#fff"/>
  <path d="M456.8 243.4c-.6 2-1 3.3-1.5 4.6-3.1 7.4-2.6 15.1.8 21.8 2.2 4.3 6.3 8.4 12.4 8.7 1.2.1 2.3 2.3 4.3 4.5 6.2-2.4 6.6-10.3 10.7-15.9.8 3.1 1.7 6.1 2.5 9.1.2.7 0 1.8.5 2.1 7.2 5.4 3.3 11.3.4 16.8-3 5.6-6.5 10.6-13.7 11.6-3.1.4-6 2.5-9.2 3.8 0-2.2.4-4.2-.1-4.4-1.1-.5-2.8-.5-4-.1-3.7 1.1-7.3 2.6-11.1 3.7-1.1.3-3.1 0-3.5-.7-4.5-8-10.4-1.8-15.6-1.7-.8 0-1.7.6-2.8 1.1-1-6.3 4.7-7.4 8.1-9.5 8.6-5.2 14.5-12.3 16.5-22 .7-3.3-.8-7.5-2.3-10.8-2.3-5.4-5.5-10.4-8.2-15.4 5.3-2.4 9.9-4.6 15.8-7.3zM124.8 376.4l-2.7-7.2c-.7 0-1.3 0-2-.1-.7 3.6-1.4 7.3-2.1 10.9h-1.4c-.3-1.3-.5-2.7-.9-3.9-.6-1.9-1.4-3.7-2.1-5.6-.8 1.8-1.4 3.6-2.3 5.4-1 2.1-2.2 4.1-3.3 6.1-.7-.2-1.4-.5-2.1-.7v-9.6c-.6-.2-1.3-.3-1.9-.5-.9 2.1-1.6 4.3-2.8 6.3-.6 1-1.8 1.7-2.8 2.6-.5-1.3-1.1-2.5-1.6-3.8-.1-.3 0-.8.2-1 4.9-7.2-.5-11.1-4.1-16.5-3.9-6-6.2-13.2-8.2-20.2-1.8-6.3-1.2-6.2 5.8-6.8 6.3-.5 12.7-1.1 18.9-2.6 3.7-.9 3.8.7 3.9 3.1.3 12.2 3.8 23.2 10.7 33.4 1.9 2.7 1.6 6.9 2.4 10.4-.4 0-1 .2-1.6.3z" fill="#fff"/>
  <path d="M80.8 350.7c3.5 5 5.9 9.7 9.6 13.3 3.7 3.6 5.3 6.9 2.3 12.3-7.1-1-14.7-1.5-21.9-3.3-7.9-2-15.5-5.2-23.2-8-5.8-2.2-7.2-6.3-3.7-11.3 4-5.8 8.1-11.4 13.4-18.7 1.3 8.5 2.4 15.9 3.6 23.2 7.6-2.9 13.8-5.2 19.9-7.5zM190.4 321c-.8 1-1.8 2.4-2.8 3.7 3.1 2.4 6.1 4.6 9.3 7-4.3 4.2-7.2 2.2-9.8-.5-2.9 3.6-5.1 8.7-8.6 10-3.3 1.2-8.1-1.7-12.2-2.8-4.6-1.2-9.3-2.2-13.8-3.7-1.1-.4-2.6-2.5-2.4-3.4 1.3-5.7 2.2-11.7 5-16.7 3.1-5.5 8.3-5.6 15.7-2.3 6.5 3 13.1 5.8 19.6 8.7zM444.2 376.9c6.5 1.2 12 2.1 18 3.2-2.8 9.8-5.7 18.7-8 27.8-1.6 6.4-7 5-10.7 4.8-6.2-.4-12.3-2.2-18.3-3.8-1.3-.4-3.1-3-2.8-4 .7-2.3 1.7-5.4 5.4-4.7 5.4 1.1 7.9-.3 9.1-6.4 1.3-6.2 5.1-11.9 7.3-16.9zM332 368.7c3.3 0 6.6 3.9 6.4 7.6-.7 10.6-7.3 18.6-17.4 21-3.7.9-11.3-2.3-13.6-5.4-1.7-2.4-2.1-4.6-.4-7.3 5.9-9.1 14.6-13.8 25-15.9zM418.5 414.6c9.8 1.3 21.1 2.8 33.3 4.4-.4-.7 0-.3.1.2.4 3 1.4 6.1 1 9.1-.5 4.4-4.4 2.8-7.2 3.2-6.5.9-13.1 2-17.9 2.7-3.8-8-6.7-14.3-9.3-19.6zM63.4 464.3c-18.4.8-36.9 1.6-55.7 2.4.7-4.8 1.3-8.7 1.9-12.6.5-.2 1-.5 1.5-.7 1.4 5.3 4.4 5.1 8 3.4 2.3-1.1 4.5-1.3 7.4.3 2.5 1.4 7 1.1 9.7-.3 4.5-2.3 7.6-.9 11.5 1.1 3.7 1.9 8 2.7 12 4 1.6.5 3.1 1.2 4.6 1.7-.4.3-.7.5-.9.7zM55.5 454.5c2.7-7.8 8-5.1 12.9-4.3 3.2.6 6.6.6 9.9.2 3.2 1.2 6.5 2.5 11 4.3 1.9-1.1 5.2-3.1 8.5-5.1 2.4-1.5 14.3-.7 15.9 1.5.5.7-.4 3.8-1.1 4-8 1.8-16.1 4.3-24.2 4.4-8.8.1-18 0-26.4-3.9-.9-.4-2.2-.1-3.3-.2-.9-.3-1.9-.6-3.2-.9zM364.5 418.1c-4.2-.5-8.4-1-14-1.7 1.9-3.2 3.3-5.7 5.5-9.4-1.9.7-3.4.8-4.4 1.5-5.3 4.3-6.3-2-8.9-3.7-2.7-1.8-3-4.2-.6-6.9 3.9-4.2 7.3-3.4 12.3-1.5 10.5 4 5.7 14.5 11.3 20.3-.4.5-.8.9-1.2 1.4zM126.4 440.1c.3 1.3.5 2.6 1 4.9 6.1-6.3 13.2-4.4 20-3.3 1.9.3 3.4 3 5.8 5.3-10.6 5.7-21.4 3-30.7 4.3l-11.3-8.4c3.3-.4 5.6-5.5 9.8-1.1.5.5 3.4-1.1 5.4-1.7zM411.9 328.3c-1.6 5.5-4.3 10.5-9.9 13-1.5.7-4.5.6-5.5-.5-4.5-4.9-8.5-10.2-13.5-16.3 10.8 1.5 19.7 2.6 28.9 3.8zM448.6 314.8c-1.9 4.3-4.5 6.2-9.3 7.8-5.8 1.9-10.6 7.4-15.4 11.7-1.3 1.2 2 5.8-3.5 5 0-4.2-6.2-7.2-2.6-12.1 1.8-2.4 3.9-5.2 6.5-6.2 5.6-2.1 11.6-3.1 17.4-4.6 2.2-.5 4.4-1 6.9-1.6zM89.9 422v10.5c-1.5-.1-3.3-.7-4.8-.2-6.9 2.1-13.4-1.2-20.2-1.5-1.6-.1-3.1-3.6-4.7-5.5.3-.5.6-1.1.9-1.6 9.6-.6 19.3-1.2 28.8-1.7zM388.8 459.2h-19.5c3.3-9.2 10.4-12.8 18.1-15.5.8-.3 3.7 2.3 3.6 3.4-.3 4-1.4 8-2.2 12.1zM98.7 427.4c-1-.6-3.2-1.3-3.7-2.6-.5-1.2.6-4.2 1.6-4.5 6.1-1.9 12.4-3.5 18.6-4.8 1.1-.2 3.7 1.7 3.6 2.5-.2 2.2-1 5.7-2.4 6.1-5.3 1.6-11 2.1-17.7 3.3zM71.6 340.3c-1.7-12.5-3.8-23.5 7.3-29.8 0 7.6.4 15.8-.3 23.8-.2 2-4.1 3.6-7 6zM344.8 412.9c-4.1 5.1-9.7 5.1-14.9 4.6-1.7-.2-3.4-3.3-4.5-5.4-.3-.5 1.4-2.5 2.6-3.3 9.5-6.7 9.5-6.6 16.1 3.1.2.2.4.5.7 1zM371 381.6c4.4-3.8 8.4-7.2 12.3-10.6.7.3 1.3.5 2 .8-.2 1.6.1 3.8-.8 4.9-5.6 6.5-11.4 12.7-17.2 19-.2.2-.7 0-2.2 0-.3-3.8-1.2-7.9-.6-11.7.1-1.2 4.4-1.7 6.5-2.4zM340.7 438.4c1.2 1.2 1.8 1.6 2.3 2.2 6.9 6.8 6.3 10.3-3.1 13.8-4.4 1.7-5-4.3-8.3-5.3.8-1.8 1.3-3.9 2.6-5.4 1.9-2.1 4.3-3.5 6.5-5.3zM368.9 375.9c-1.7-2.2-3.6-4.2-5-6.6-.6-1.1-.6-3.9 0-4.3 3.1-1.8 6.6-4.1 9.9-4.1 2.1 0 4.3 3.6 6.2 5.9.4.5-.3 2.6-1.1 3.1-3.2 2.2-6.6 4-10 6zM365.5 379.4c-2.8-.6-4.4-.9-5.3-1.1-2.8 3.3-5.3 6.2-8.9 10.3-1.3-3.8-3.4-6.9-2.6-8.4 2.2-4.1 5.5-7.7 8.6-11.2.3-.3 3.2 1 4.1 2.2 1.5 2.1 2.4 4.7 4.1 8.2zM400.1 418.4c-2.8 6.7-5.4 13-8 19.4-4.2-2.3-7.9-4.3-11.7-6.3.1-.5.2-1.1.3-1.6 1.8.4 3.6.7 5.4 1.1.1-5.4 8.7-13.2 14-12.6zM488.1 410.2c-3.8 16-7.2 30.9-10.9 45.8-.3 1.4-2.1 2.4-3.1 3.6-.8-1.2-1.8-2.4-2.2-3.7-.3-1-.2-2.2.2-3.2 2.7-7.4 5.6-14.7 8.3-22.1 2.1-5.7 3.8-11.5 5.8-17.3.2-.9 1-1.6 1.9-3.1zM60.8 442.6v-5.2c9.4.5 18.7 1 27.6 1.5-2.4 5.9-14.6 8-27.6 3.7zM331.6 428.4c-2 3.8-1 4.8 2.4 4.3.9-.1 2.7.4 2.9 1.1.3.9-.1 2.6-.8 3.3-2.9 2.5-6.1 4.8-9.1 7.1-9.3-8.7-10.3-7.9 4.6-15.8zM353.3 432.9c2.1.3 4.2.6 6.3 1.1 1.4.3 2.8 1 4.2 1.6-1.1 1.2-2.1 2.5-3.2 3.7-.9.9-1.8 1.8-2.8 2.6-4.5 3.2-9.4 1.8-11.5-3.5-1.1-2.8-1.1-5.4 3.2-5.2 1.3.1 2.6 0 3.8 0-.1-.1 0-.2 0-.3zM354.9 447.9c4.4-2.9 8.3-5.5 12.2-8.2 1.9 1.5 3.7 2.9 6.6 5.3-4.6 3.6-8.9 6.9-13.3 10.4-1.8-2.5-3.5-4.9-5.5-7.5zM119.7 431.7c-2.3 1.6-4.4 3.9-6.9 4.5-4.3 1.1-8.9 1.5-13.4 1.6-1.1 0-2.3-2.1-3.5-3.3 1.3-1.2 2.5-3 4-3.4 4.9-1.1 9.9-1.7 14.8-2.3 1.3-.2 2.7.4 4 .6.3.8.7 1.6 1 2.3zM376.7 424.4c-1.8-.6-3.6-1.3-5.4-1.7-1.9-.4-3.8-.5-7-1 2-1.4 3.3-2.3 4.7-3.3 5.1 3.3 5.1 3.3 20.6.7-6.1 9.1-23.7 13.5-27.7 6.3 5.1.2 9.9.5 14.7.7 0-.6 0-1.2.1-1.7zM389.3 367.9c3.1-2.8 5.9-4.7 8.7.6 1.1 2 3.8 3.1 5.8 4.7-10 8.4-10 8.4-14.5-5.3zM453.8 454.5c-4.9-.8-9.9-1.7-15.4-2.6.6-4.3 1.1-8 1.7-11.8h5.7c.3 2.9-.2 6.4 1.3 8.5 1.4 2.1 4.8 2.8 7.4 4.1-.3.6-.5 1.2-.7 1.8zM146.8 320.4c-.1-7-3.8-13.2 1.1-18.9 2.5 1.7 4.9 3.2 7.1 5 .7.6 1.5 2.4 1.1 2.8-2.7 3.5-5.7 6.8-9.3 11.1zM388.6 364.9c-2.1-2.7-3-3.9-4.1-5.2-.9 1.1-1.7 2-3.2 3.7-1.1-2.8-3.3-6.1-2.6-6.9 1.8-2.1 5.2-4.6 7.5-4.1 2.4.5 4.7 3.9 5.9 6.5.5 1-2 3.5-3.5 6zM128.6 295.1c-6.7-3.2-15-13.8-16-22 6.3 6.6 11.7 12.2 17.3 18.1-.4.9-.8 2.4-1.3 3.9zM375.2 353.8c-3.2-3.4-5.5-6.2-1.1-9.8 1-.8 1-2.8 1.9-3.7.6-.7 2.7-1.1 3.1-.6 5 5.5 4.6 8.4-1.7 12.4-.7.3-1.4 1-2.2 1.7zM406.8 371.7c-1.9-3.1-3.6-5.8-5.8-9.3 4.7 0 10 1.4 8.2-5.8 4.5 0 6.4 10 2.4 12.6-1.4.9-3 1.5-4.8 2.5z" fill="#fff"/>
  <path d="M120.1 109c4.9-1.1 9.8-2.6 14.7-3.2 2.3-.3 4.8 1.3 7.3 2.1v2.3c-.5 1.4-4-3.5-2.7 1.3l-6 .9c-2-2.9-4.2-4.4-7.6-1.7-2.5 2.1-4.3.6-5.7-1.7z"/>
  <path d="M341.7 458.4c2.5-2.2 4.9-4.7 7.6-6.6.9-.6 3-.3 4.1.4 1.8 1.1 3.3 2.8 4.9 4.2-.1.5-.3 1-.4 1.6-5.3.6-10.5 1.3-15.8 1.9-.1-.5-.3-1-.4-1.5zM323.4 446.8c-6.4 4.6-10-.8-14.6-2.8 7.3-7.3 5.7-6.9 14.6 2.8zM464.4 440.9c-1.5 3.7-2.7 6.5-3.6 8.8-2.1-1.2-4.2-2.2-6.1-3.5-1-.7-1.8-1.9-2.7-2.8 1.2-.8 2.3-2.2 3.6-2.3 2.7-.4 5.4-.2 8.8-.2zM304 443.2c-.3-2.1-1.3-4.4-.6-6.1.8-2 3-3.5 4.9-4.9.4-.3 2.4.7 2.7 1.5.4 1 .2 3-.5 3.5-2 1.5-4.4 2.4-6.7 3.6.1.9.1 1.6.2 2.4zM328.8 424.8c-4.2 2.9-8.3 5.7-13.3 9.2-.4-2.1-1.3-4.4-.9-4.7 4.2-2.4 8.6-4.5 13-6.7.4.7.8 1.4 1.2 2.2zM464.9 459.3c-2.3-6.4.3-11.1 2.5-15.8.3-.7 1.6-.9 2.4-1.3.2 1 .7 2.1.5 2.9-1.6 4.4-3.3 8.8-5.4 14.2zM131.2 340.1c-1.2 6-2.4 11.9-3.6 18.3-.8-1-2.5-2.3-2.3-3.3 1-5.3 2.6-10.6 3.9-15.8.6.3 1.3.5 2 .8zM479 250.9c-3.5 2.1-4.4 5.8-7.5 2.2-2-2.3-2.8-5.2-.4-6.4 1.4-.6 4.4 2.3 7.9 4.2zM131.1 371.5c-.4-4.3-.9-8.6-1.3-12.8.7-.1 1.3-.2 2-.3 5.1 3.6.9 8.6 1.3 12.9-.7 0-1.4.1-2 .2zM426.3 456.9c1.4-1.3 2.8-2.7 4-3.8 3.4 2 6.4 3.8 9.6 5.6h-13.2c-.1-.6-.2-1.2-.4-1.8zM337.1 396.1c5.7-11.1 6.8-11.7 11.5-7-3.7 2.1-7.2 4.3-11.5 7zM315.1 423.6c2-2.7 4.1-5.4 6.3-8.5 1.5 1.3 2.7 2.3 4.5 3.8-3.7 2.1-6.8 3.8-10 5.6-.2-.3-.5-.6-.8-.9z" fill="#fff"/>
  <path d="M155.5 339.6c-1.8.2-3.7.7-5.5.5-1.9-.2-3.7-1-5.6-1.6-1.1-4.4 2-3.3 3.9-2.7 2.6.9 4.9 2.5 7.2 3.8z"/>
  <path d="M381 441.1c-1.5.8-3.1 1.5-4.9 2.4-1.5-1.9-2.9-3.6-4.4-5.3.1-.5.3-1 .4-1.4 3.1.9 6.2 1.9 9.3 2.8-.1.4-.3 1-.4 1.5zM466.1 245.8c-4.2-2.6-2.2-5.5-.5-8.4 5.5 4.4 5.5 4.6.5 8.4zM352.4 422c-4.6.5-9.2.9-13.7 1.4 3.6-4.4 9.8-5.1 13.7-1.4zM469.1 258.6c-1.4-.5-3.4-.5-4.1-1.5-1.1-1.4-1.4-3.5-2-5.2 2.3 1.3 4.7 2.5 7 3.8-.3 1-.6 1.9-.9 2.9zM365.9 225.8c2.2-.4 4.5-1.1 6.7-.9.7.1 1.1 2.8 1.7 4.3-2.7-.4-5.5-.8-8.2-1.1-.1-.7-.2-1.5-.2-2.3zM499.1 241.6v6.2c-1.5-.2-3-.5-4.5-.7.5-2 1-3.9 1.6-5.9.9.1 1.9.3 2.9.4z" fill="#fff"/>
  <path d="M96 63.9h-1.3c-.4-.4-.7-.8-1.1-1.2l.2.2-1.3-1.3.2.2c-.4-.7-.8-1.5-1.1-2.2 1.1 0 2.2 0 3.4-.1.1.6.1 1.3.2 2.7.9-1.3 1.3-2 1.8-2.7h2.4c.3.7.7 1.4 1 2.1-.4.8-.8 1.5-1.2 2.3-1.1-2.5-2.2-2.5-3.2 0z"/>
  <path d="M96 63.9c1-2.5 2.1-2.5 3.1 0H96zM105.9 273.4c.3-.8.6-1.5.8-2.3l.9.6c-.6.5-1.2 1-1.9 1.5l.2.2zM96.9 59.6c-.5.7-.9 1.4-1.8 2.7-.1-1.4-.2-2-.2-2.7h2zM110.9 408.3c-.2.2-.5.5-.7.5-.3 0-.5-.3-.7-.5.1-.1.3-.4.4-.3.4 0 .7.2 1 .3zM91.5 59.6c.4.7.8 1.5 1.1 2.2-.3-.7-.7-1.4-1.1-2.2zM100.3 61.6c-.3-.7-.7-1.4-1-2.1.3.8.7 1.4 1 2.1z" fill="#fff"/>
  <path d="M105.8 273.2c-.1.3-.3.6-.4 1 .2-.3.3-.5.5-.8l-.1-.2zM92.5 61.6l1.3 1.3c-.4-.4-.9-.8-1.3-1.3z" fill="#fff"/>
  <path d="M93.6 62.7c.4.4.7.8 1.1 1.2-.4-.4-.7-.8-1.1-1.2z" fill="#fff"/>
  <path d="M142.2 110.3V108c1.7-.7 3.4-2 5.2-2 2.8 0 5.7.9 9 1.5-.4 1-.8 2.3-1.3 3.5 3.5-4.8 6.9-2 10.5-.2 6.9 3.4 14.4 6 20.8 10.1 13.3 8.4 22.9 20.2 29.8 34.3.7 1.4 3 3 4.4 2.8 8-.9 13 3.4 12.1 11.4-.3 2.7-1.4 5.4-2.1 8-.5 0-.9.1-1.4.1-.9-2-2.3-3.9-2.5-6-.9-7.4-4.2-9.2-11.8-5.3-5-8-10-16-15.1-23.9-1-1.6-2.4-3-3.7-4.4-9.5-9-19.5-17-32.7-20.6-5.8-1.6-11.4-3.9-17.6-4.2-1.4.2-2.5-1.7-3.6-2.8zM144.1 212.8c-6.9 3.3-12.3 1.7-16-4.1-3.4-5.2-.9-13.5 6.4-18.3 5.2-3.4 7.1-4 16.4 6-2.3 3.8-4 1.1-6.3-.3-2.4-1.4-5.4-2.4-8-2.1-1.3.1-3.4 4.2-2.9 5.6 1.3 3.6 3.9 6.7 6.2 9.8.9 1.2 2.4 2 4.2 3.4zM410.5 269.5c-.5 1.1-1.4 3.2-2.2 5.3-2.1 5-4.5 3.2-6-.1-1.7-3.7-1.8-7.7 1.3-11 2.6-2.7 5.8-4.7 9.3-2.2 1.8 1.3 2.6 4.1 3.8 6.3-1.9.4-3.7 1-6.2 1.7zM364.9 263c-.1-7 3.8-12 8.5-12.4 1.1-.1 3.4 2.7 3.3 3.9-.4 2.9-1.6 5.8-3 8.4-1 1.8-3.6 4.5-4.2 4.2-2.1-1.2-3.8-3.4-4.6-4.1zM391.5 264.2c-2.7-.3-4.9-.6-7.1-.9-.3.3-.6.7-.9 1 2.1 2.6 4.2 5.2 7.1 8.8-1.9.3-4.5 1.5-5.3.8-2.7-2.5-5.1-5.5-6.7-8.8-.4-.8 2.4-4.2 4.3-4.7 3.1-.9 6.6-.4 8.6 3.8zM377.3 290c5.7 3.5 9 5.4 12.2 7.6.5.4.7 2.2.3 2.9-.4.6-2 1.2-2.7.9-3.1-1.3-6.1-2.7-9-4.4-.9-.5-1.9-1.7-2-2.6 0-1.4.7-2.8 1.2-4.4zM213.7 381.4c-4.8-7.7-9.5-15.5-14.3-23.2-.4.2-.9.5-1.3.7l7.2 16.2c-.7.3-1.5.6-2.2 1-5.2-11.5-10.3-22.9-15.5-34.4 9.3 5.4 26.4 33.3 26.1 39.7zM206.4 322.5c1.4-2.2 8.2-3.5 13.3-3.2 5.2.3 10.5.1 15.7.1.2 6-3.7 3.2-5.7 3.3-7.3.3-14.6.2-21.9.2-.4 0-.8-.2-1.4-.4zM463.2 369.2c-5.2-.7-9.4-1.3-14.8-2 5.7-5.3 12.3 2.7 16.7-4-.5 1.9-1.2 3.8-1.9 6z"/>
  <text transform="translate(339.652 47.286)"><tspan x="0" y="0" font-family="Peanuts" font-size="35">I DECIDED TO</tspan><tspan x="0" y="42" font-family="Peanuts" font-size="35">WRITE A NEW</tspan><tspan x="0" y="84" font-family="Peanuts" font-size="35">LETTER TO</tspan><tspan x="0" y="126" font-family="Peanuts" font-size="35">SANTA CLAUS</tspan></text>
  <text transform="translate(33.417 49.902)" fill="#fff" font-family="BaskervilleT-Bold" font-size="35" letter-spacing="4">PEANUTS</text>
</svg>
