<svg xmlns="http://www.w3.org/2000/svg" viewBox="0 0 595.3 468.8" xml:space="preserve">
  <path fill="#fff" d="M0 0h595.3v468.8H0z"/>
  <path d="M595.3 445.9v6.5c-.5 1.7-1.6 3.4-1.5 5.1.1 3.9-1.6 7.1-5.2 7.7-5.6 1-11.4 1.2-17.1 1.3-3.4.1-6.7-.8-10.1-.8-8.1.2-16.2 1.1-24.3 1-9.7-.1-19.4-1.3-29.1-1.4-12.6-.1-25.3.6-37.9.5-21.8-.1-43.7-.7-65.5-.9-14.3-.1-28.6.2-42.9.2l-139.1.3c-31.1.1-62.2.1-93.3.1-15.2 0-30.3-.2-45.5-.2H10.9c-6 0-7.5-1.3-7.5-7.3 0-6.6.7-13.2.8-19.8.1-23.1.1-46.2 0-69.3-.2-23.5-.7-47-.9-70.6-.2-23-.2-45.9-.1-68.9 0-9.9.9-19.7.8-29.6-.3-28.8-1.2-57.6-1.4-86.4-.1-23 .5-46 .7-68.9.1-9.6-.1-19.1-.1-28.7C3.2 6 5.8 3.1 15.7 3.3c8.8.6 17.4-.8 26.3 1.8 6.6 1.9 14.3.4 21.4.4 10.8 0 21.7-.3 32.5.1 10.6.4 21.1-.6 31.8-.1 12.1.6 24.4-1.3 36.6-1.5 13-.1 26.1.5 39.1.8 12.2.3 24.5.5 36.7.6 12 .1 24.1.1 36.1.1 15.4 0 30.9.1 46.3 0 8.4-.1 16.8-.9 25.2-.8 13.2.1 26.4.6 39.6.8 4.1.1 8.2 0 12.3 0 21.6 0 43.2-.1 64.9-.1h41.9c14.6 0 29.1.1 43.7.1 11.4 0 22.8-.3 34.2 0 1.7 0 4.7 2.6 4.8 4.3.7 6.2.7 12.4.7 18.6 0 19.7-.2 39.4-.1 59.1.1 13.5 1 26.9 1.2 40.3.4 34 .7 68.1.9 102.1.2 25.2.3 50.3.5 75.5 0 1.8.5 3.5.5 5.3 0 10.5-.4 21.1-.2 31.6.2 9.9 1.2 19.8 1.3 29.7.1 10.9-.5 21.8-.6 32.7-.1 5.8.4 11.7.4 17.5 0 7.1-.4 14.1-.4 21.2 0 .9 1.3 1.7 2 2.5zm-74.6-117.8c-2.8-.5-5.9-1.1-8.9-1.5-7-1.1-14-2.1-21-2.9-.9-.1-2.7 1.5-2.7 2.3-.2 10.5-.4 21.1-.1 31.6.1 3.5 1.4 7 2.3 11.2-2.9 3.2-22.8 1.1-29.1-3.9 1-1.9 2.7-3.7 2.8-5.5.4-10.9.7-21.9.5-32.8 0-1.7-2.1-4.6-3.5-4.8-7.5-1.2-15.1-1.8-22.9-2.6-.1.2-.6.9-.6 1.5-.7 7.9-1.9 15.8-1.8 23.6.1 6.2 1.8 12.4 2.8 18.5.6.3 1.2.7 1.8 1-2.2.5-4.3 1.3-6.5 1.5-2.1.2-4.4 0-6.4-.5s-3.8-1.6-5.8-2.5c1.7-.9 3.5-1.8 5.2-2.8 1.6-1 4.1-2.2 4.2-3.5.7-5.2.9-10.5.8-15.7-.3-26.4-.8-52.9-1.1-79.3-.1-6.9.6-13.8.7-20.7.1-9.1-.1-18.3 0-27.4 0-2 .9-3.9 1.4-5.9.4.1.7.1 1.1.2.4 1.7.7 3.4 1.2 5.2h28.8c-.6-4.2-1.1-8-1.7-12.4-6-.7-12-1.5-17.9-2.3v-1.9c6.4-.7 12.9-1.4 19.1-2.1.6-11.2 1.5-21.5 7.8-30.8 2.2-3.2 5-6.4 7.9-5.5 3.3 1.1 7.3 4.7 8.1 8 2 7.6 2.6 15.6 3.1 23.5.3 5.7.9 6.8 6.3 6.2 5.9-.6 11.9-2.1 17.6-1.5 5.4.6 5.3-1.9 5.1-5.5-.4-10.2 1.5-19.9 5.8-29.2 2-4.4 5.9-6.8 9.6-5.9 2.9.7 5.8 4.5 7.3 7.6 1.6 3.4 1.8 7.6 2.2 11.5.8 7.5 1.2 14.9 1.8 21.6 9.8 0 19.2.1 28.6-.2 1.2 0 3.2-2.1 3.4-3.5.8-4.7.6-9.7 1.5-14.4 1.3-6.4 4.6-12.7 4.8-19.1.5-17.7-.1-35.5-.2-53.3 0-3.9.4-7.8.7-11.7.1-2-.4-4.1-.5-6.3-.3-22.9-.5-45.8-.8-68.7 0-2.5.5-5.4-3.5-5.3-9.5.1-19.1 0-28.6.2-4.9.1-9.7 1-14.6.9-7.4-.2-14.8-1.3-22.3-1.5-10.1-.3-20.1-.1-30.2 0-1.1 0-2.2.4-4.1.8 2.2 1.5 3.6 2.6 5.1 3.5 9.2 6.1 15.8 15.1 17.3 25.4 3.4 22.6-7.4 40.2-24.5 53.7-8.6 6.8-18.8 11.6-29.4 15.7-18.9 7.2-38.1 11.7-58.1 13-5.5.4-11.1 0-16.6.2-19.4 1-38.7 2.5-58 3-11.2.3-22.3 1.1-33.6-1.1-8.2-1.6-17-.3-25.5.1-2.3.1-5.1 1.3-6.7 2.9-5.1 4.9-9.7 10.4-14.8 15.3-2.3 2.2-5.3 3.6-7.9 5.4-2.5-4.3 1.4-6.7 2.8-9.9 1.9-4.3 3.9-8.6 5.7-12.5-17.3-1.5-33.6-3.4-50-4.2-8.8-.4-17-1.8-25.4-4.3-8.9-2.7-18.2-4.2-27-7.3-16.8-5.8-31.3-15.5-41.2-30.5-5.8-8.8-7.9-18.8-3.1-29.3 5-11.1 13.8-18.7 23-25.9 5.6-4.4 11.7-8.2 18.3-12.9-1.9-.3-2.6-.5-3.2-.5-24.8-.2-49.5-.4-74.3-.5-11.6-.1-23.2-.5-34.8.2-2.4.1-8.3-2.5-8.4 4-.1 18-.3 35.9-.2 53.9.1 16.3.8 32.6 1.1 48.9.1 5.2-.9 10.4-.9 15.6 0 12.6.4 25.2.5 37.9.1 9.2 0 18.4 0 27.6 7.4.7 7.3.7 7.4-5.9.1-4.5-.3-9.3 1.2-13.3 1.5-4.1 4.9-9.9 8-10.3 4.9-.6 6.4 5.5 7.5 10.1.3 1.1 0 2.4.1 3.6.6 5.4 1.3 10.8 2 15.7h8.6c1.4-8.1 2.2-15.8 4.4-23.1.9-2.9 4.6-6.8 7.3-7 3.4-.2 4.7 4.2 4.4 7.9-.1.7 0 1.5 0 2.2-.3 6.6-.6 13.2-.9 20H78c1-9 1.9-17.6 2.9-26.1.3-2.9.7-6.6 4.4-6 2.4.4 4.8 2.9 6.5 5.1 3.6 4.7 3.5 10.4 3.4 16.1-.1 4.2-1.3 9.1 5.4 11l-5.4 3.6c2.6 4.1-1 11 8.2 12.1-3.4 1.5-5 2.2-6.9 3-1 22.3-1.9 44.4-2.9 66.2h19.6c-1.9-13.5-.9-22.5 2.4-23.1 0 1.4-.1 2.8 0 4.3.7 10.8 1.5 21.5 2.2 32.3.4 6.6.7 13.2.7 19.8 0 1.7-1.3 3.5-2 5.2-.6-.1-1.2-.2-1.8-.4-.6-5.6-1.2-11.2-1.8-16.7-6.4-.7-12.5-1.4-19.8-2.2.9 9.3 1.5 18.4 2.6 27.3.9 7.5-1.1 10.9-6.8 9.3-4.3-1.2-8.2-3.6-12.3-5.5.5-.4 1-.9 1.6-1.3 0-3.8.1-7.6 0-11.4-.1-4.5-1.4-9.3-.2-13.4 1.6-5.2-1.8-5.1-4.4-5.9-2-.6-4.4-.1-6.9-.1 0 7.2-.3 14.4.1 21.5.5 9.9-3.3 12.9-12.5 9-1.5-.6-3.5-2.3-3.5-3.5-.1-7.7.4-15.4.5-23.2 0-.9-1.2-2.5-2.1-2.7-4.1-1-8.4-1.7-13.9-2.7 1 9.9 1.9 18.8 2.6 27.7.1 1.3-.3 3.7-.7 3.7-4.9.4-9.8.5-14.7.3-.3 0-.4-3.6-.7-5.5-.1-.5-.6-1-.7-1.5-.7-7.2-1.4-14.4-2.1-22.2-2.7-.3-5.7-.6-8.4-.9v61.5c8 .8 15.6 1.5 23.1 2.3 4.9.6 9.8 1.8 14.8 2.1 10.3.6 20.6.2 30.8 1.3 8.6.9 17 3.5 25.6 5.2 3.4.7 6.9.8 11 1.3-3.1 6.4-7.6 4.6-11.3 3.7-14.2-3.5-28.4-6.6-43.1-5.7-4.3.2-8.7 1.4-12.9.9-6.7-.7-13.4-2.6-20.1-3.7-6.1-1-12.3-1.7-17.6-2.4v38.8c0 13.8.3 27.6-.1 41.4-.2 7.6 1.2 9.9 8.8 10.2 1.3.1 2.5 0 3.8 0 24.2-.1 48.3-.3 72.5-.2 14.1 0 28.2.6 42.3.6 21.1 0 42.1-.4 63.2-.6 7.2-.1 14.4 0 21.5.2 5.2.1 10.5.5 15.7.8 3.9.2 7.9.7 11.8.6 9.3-.1 18.7-.7 28-.8 33.6-.3 67.2-.6 100.8-.8h6.4c-1.3-1.7-2.6-3.1-4-3.1-5-.2-10 0-15 .1-4.4.1-9.5 2.1-12.8.4-4.9-2.6-9.4-1.3-14.1-1.8-6.4-.7-12.7-2.1-19.1-2.9-3.1-.4-6.4-.1-10.1-.1l1.7-3.4c-6.9-1.3-14.4 3.4-20.2-3.8-.5-.6-2.4-.3-3.7-.2-4.8.4-9.6.9-14.6 1.4v-3.9c-3.6-1.6-8.2 1.4-11.7-3.1 2.6-.2 4.1-.5 5.6-.4 12.4.9 25.1-3.6 37.4 1.8.9.4 2.4-.5 3.5-.3 5.6.9 11.4 1.2 16.6 3.1 6.1 2.3 11.6 6.6 19.5 6.2-6-6.1-2.4-12.9-2.6-19.3-6 9.4-6.9 10.5-13.3 9.3-3.6-.7-7.5-2.9-10-5.6-8.1-9-9.5-20.6-10.1-31.9-.3-5.7 4-7.7 9.7-6.2 1.7.4 3.6.1 5.4.1-5.6-2.5-11.2-4.1-16.9-4.9-5.2-.7-5.9-3.5-4.6-7.6 1-3.3 2.4-6.6 3.7-10-.6-.3-1-.7-1.5-.7-8.4-.5-11.7-6.6-7.2-13.6 1.3-2 3-3.7 4.7-5.2 2.3-2.1 3.1-3.8.9-6.9-1.3-1.9-1.8-5.4-.9-7.4 5.9-13 12.2-25.8 18.5-38.7 3.2-6.5 7.5-12.7 9.4-19.6 1.4-4.8 2.3-9.2 6.3-12.5 2.7-2.2 2.3-6-.7-7.8-1.8-1.1-4-1.8-5.7-3.1-3.2-2.4-6-2.3-8.4.9-1.4-.8-2.4-1.8-3.5-2-9.1-1-16-6.2-22.5-11.8-6-5.2-9.6-12.1-11.2-19.9-2.7-13.2-1-25.8 3.4-38.7 5.1-14.9 14.3-26.1 26-35.8 2.7-2.2 5.7-4.2 7.8-6.9 2-2.5 3.1-5.8 4.6-8.7.6.2 1.2.4 1.9.7.3 2.1.6 4.1.8 5.3 5.3.3 10.4.6 15.4 1 19.9 1.7 36.5 11.5 53.2 21.2 7.1 4.1 14.8 7.3 22.6 9.8 5.8 1.9 11.5 3.4 16.2 7.7 3.7 3.5 5.1 7 4 12-1.3 6-5.6 9.2-10.8 10.7-3.1.9-6.3.2-8.1 3.9-1.3 2.9-4.4 5.3-4.9 8.2-.5 2.7 1.2 6 2.5 8.7.8 1.7 2.9 2.8 4.1 4.3 4.5 5.9 3 14.4-3.4 17.1.5-2.7 1-5.2 1.4-7.6-11.6 18.4-28.1 26.9-49.3 28.8.9 1.7 1.3 3.2 2.2 4 7.5 7.1 9 13.5 5.4 22.9-.5 1.2-.7 2.8-.3 3.9 2.3 7.3 4.3 14.7 7.3 21.8 2.6 6.1 6 12 9.5 17.7 4 6.4 8.8 12.3 12.5 18.8 2.9 5.1 2.1 11.1-1 15.8-2.9 4.5-6.9 8.8-13.4 5.2-.7-.4-1.5-.4-3.4-.8 4 12.4-3.4 16-13.2 17.6 5.4 1.7 8.8 6.8 7.3 12.4-1.9 7.2-3.6 14.7-7.1 21.1-4.5 8.1-10.8 15.3-16.5 23.2 1.5.2 3.7.8 5.8.9 13.4.4 26.8.4 40.1 1.1 5 .2 9.9 1.8 14.8 2.8v1.2c-3.9.5-7.9 1-11.8 1.5l.3 2.1h174.8v-57.8c-5.4-.3-10.5-.5-15.5-.8 0-.7.1-1.4.1-2.1H585c0-4.8-.1-9.2 0-13.5.2-4.1-.2-6.6-5.5-7.2-5.3-.5-5.9-3.6-2.7-7.7.9-1.1 1.3-2.9 1.4-4.4.1-5.4-.2-10.9-.2-16.3v-20c-12.4-.8-23.8-1.5-35.2-2.2 0 5.1.1 9.3 0 13.5-.4 10.3-2.7 20.9 3.8 30.4.3.5-.9 2.6-1.8 3.1-8.7 4.2-17.5 3-26.1 0-2.4-.9-3.1-3.3-.6-5.5 1.1-1 2.4-2.4 2.4-3.7.3-11.6.2-23.8.2-37zM236.2 135c1.5-.1 2.7.2 3.1-.2 3.2-3.4 6-7.2 9.3-10.5 1.6-1.6 4-3.2 6.1-3.2 9.6-.1 19.2.5 28.7.6 14.9.1 29.9.4 44.8 0 17.5-.5 35-1.4 52.4-2.9 14.4-1.3 28.9-3.1 43-5.9 9.2-1.8 18-5.8 26.9-9 15-5.4 27.6-14.5 37.6-27 8.8-11 11.8-24.1 8.7-37.1-3.1-13.5-13.3-22.9-26.5-27.3-5.6-1.9-12.4-.2-18.7-.2-25.9 0-51.7 1.9-77.6-1.2-6.7-.8-13.6-.2-20.3-.1-16.6.4-33.3.9-49.9 1.3-1.9 0-3.9-.7-5.8-.6-12.8.4-25.7 1.1-38.5 1.2-5.5 0-11-1.7-16.5-1.7-13.8 0-27.5.8-41.3.8-17.6 0-35.2-.5-52.8-.5-3.8 0-8.4-.2-11.2 1.8-12.4 8.8-25.2 17.3-36 27.9-14 13.7-11.9 25.4-2.4 39.9 5.5 8.4 13.7 15.5 23.4 19.1 13.8 5.2 27.7 10.8 42 13.8 18 3.7 36.5 5 54.8 7 5 .6 10.2 0 15.3.1 5.8.1 7.4 2.7 4.8 8-.9 1.7-2 3.5-3.4 5.9zM344 196.4c-12.2 4.1-19.3 13-17 23.7 1.8 8.4 6.1 16.3 9.3 24.4.9 2.2 1.8 4.3 2.7 6.4-11-5.1-13.4-15.4-17.4-24.5-2.9-6.6 0-12.2 3.2-17.7 1.9-3.2 4.2-6.1 6.2-9.1-7.2-6.6-8.4-10.4-5.3-18.4 1 3.3 1.2 5.7 2.4 7.6 1.3 2 3.2 3.9 5.4 4.8.8.3 3-2.3 4.3-3.8 1.2-1.6 2-3.5 2.9-5.2.5.2 1.1.4 1.6.6-.5 2.5-.9 5-1.5 7.7 5.7-1.4 11-2.6 16.4-3.9 4-1 6.9-.6 5.4 5 4.4-1.1 8.3-2.2 12.3-2.8 1.1-.2 2.3 1 3.5 1.5-.8.8-1.4 2-2.4 2.4-2.3 1.2-4.7 2-7.1 3 .2.5.4.9.6 1.4 9.7-2.8 19.5-5.6 29.2-8.4l.9 2.1c-1.4 1-2.8 1.9-4.2 2.9 3.1.4 5.9-.5 8.8-1.1 2.9-.6 5.9-.8 8.9-1.2.2.7.3 1.5.5 2.2-3.2 1.3-6.4 2.7-10.2 4.2 1.2.8 1.6 1.2 1.8 1.1 3.2-1 6.4-2.1 9.7-3.1 5.9-1.8 6.7-4.2 2.6-8.9-2-2.4-4.3-4.5-6.8-7.1 7.1-1.4 14.9 8 15.8 19.4 3.4-3.1 7.3-4.9 8.3-7.8 1.5-4.3-.9-8.5-5.1-10.8-7.9-4.2-16-7.3-25.3-7.2-6.1.1-12.2-1.8-18.4-2.2-5.6-.4-11.3-.5-16.9-.2-10.2.5-20.5.7-30.6 2.1-8.1 1.1-16.2 3.2-24 5.6-7.3 2.3-14.4 5.4-21.5 8.4-1.2.5-2.2 2.5-2.5 4-2.1 13.2-4 26.5 2.7 38.9 4.2 7.7 10.2 13.8 18.8 15.3 1.1-1.4 2.2-2.3 3.5-2.5 1.2-.2 3.2.8 3.8.2 4-3.6 6.5-1.2 9.1 1.8 2.4 2.7 4.7 5.8 7.7 7.4 8.5 4.5 17.7 6.3 27.4 6.9 16.2 1 30.5-3 43.5-12.5 8.9-6.5 9.7-11.3 5.5-21.6-1.7-4.2-6.4-8.5-1.7-13.8 1.9-2.1 3.9-4.3 5.3-6.7.6-1.1.6-3.4-.2-4.3-.6-.7-2.7-.1-4.2-.2-4.1-.2-8.2-.3-12.3-.6-2.4-.2-4.8-.7-7.1-.6-3 .1-6 .7-9 .8-2.8.1-5.6-.3-8.4-.3-3.2.1-8.2 1.8-9.4.4-4-4.8-8-3.1-12.5-2-3.6 1-7.1.5-9-3.7zM329.5 340c2.5-7.9 5-15.9 7.5-23.9.6.1 1.3.2 1.9.3.1 1.8.6 3.6.2 5.2-3 12-6.4 24-9.3 36-1.7 7-5.7 11.3-12.6 13.1-7.9 2-9.5 4-9.7 13 5.3 1.1 10.9 1.7 16.1 3.4 12.5 4 24.8 8.2 38.3 4.3 7.5-2.1 15.4-3 23.1-4.7 1-.2 2.3-2.3 2.2-3.5-.8-9-1.5-18-2.9-26.9-2.8-18.4-6-36.7-9.2-55-1.2-7-7.5-9.9-13.3-6.3-4.6 2.8-9.8 1.7-13.3-3.3-1.9 1.1-4.1 2-5.9 3.4-3.9 3.1-7.5 2.5-9.9-1.9-.4-.8-.9-1.6-1.4-2.5-.9.5-1.6.6-1.8 1L310.6 328c-1.5 2.8-.9 4.9 2.2 6 5.3 2.1 10.7 3.9 16.7 6zm209.6 29.9c-.2-4.9-.7-9.7-.7-14.4 0-6.2.3-12.4.3-18.7 0-10.1-.3-20.2-.1-30.3.5-18.5 1.7-37 1.9-55.5.2-20.9-.3-41.7-.7-62.6-.1-7.5-.6-15-1.3-22.5-.4-4-2.4-8.3-6.7-8.2-2.2.1-5.3 4.1-6.1 6.8-1.5 5.6-2.2 11.6-2.3 17.5-.2 13.3.2 26.5.5 39.8.1 4.1.7 8.2.8 12.2 0 5.9-.6 11.7-.4 17.6.5 11.5 1.7 22.9 2 34.4.3 10-.1 20-.4 30-.3 12.6-1.1 25.1-1.2 37.7-.1 14.7-.9 17.7 13.1 16.6.3.1.5 0 1.3-.4zm-55.1-7.2c.3-1 .6-1.6.6-2.3-.1-9.5-.4-18.9-.4-28.4.1-37.2.3-74.3.5-111.5 0-.9.1-1.8.1-2.7-.2-14.1-.3-28.2-.9-42.3-.2-3.6-2.1-7.2-3.8-10.4-.6-1.2-2.9-2.2-4.4-2.2-.9 0-2.1 2-2.6 3.3-.9 2.3-2 4.8-2.1 7.2-.7 13.3-1.5 26.7-1.5 40 .1 20.1 1.2 40.2 1.1 60.3 0 12.5-1.6 25.1-1.9 37.6-.3 14.2.1 28.3.3 42.5 0 2.7.9 5.5 1.3 8.1 5.2.3 9.4.5 13.7.8zm60.8-143.6c.3 4.2.8 7.7.7 11.1-.4 17.3-1 34.5-1.6 51.8-.2 4.7-.6 9.3-1 13.9-.3 3.9.5 6.2 5.2 6 8.2-.3 16.5-.3 24.7 0 3.9.1 5-1.4 5-4.9-.1-13 0-26-.2-39-.2-10.3-.8-20.7-1.2-31-.1-1.9-.2-3.8-.3-5.5-10.5-.8-20.4-1.6-31.3-2.4zm-26.1.6c-8.9-.6-16.8-1-24.7-1.7-2.9-.2-4.6 1-4.8 3.8-.2 2.6.2 5.2.2 7.8-.3 10.2-.8 20.3-1 30.5-.2 12.1 0 24.2 0 36 11.6.8 22.5 1.6 33.6 2.4-1.1-26.4-2.2-52.6-3.3-78.8zm-81.9 75.1h27.4v-67c0-5.7 1.3-11.6-8.5-10.1-6.3 1-13.1-.8-20.9-1.5.7 26.7 1.3 52.4 2 78.6zM90.6 334.7c0-1.8.1-3.2 0-4.7-.7-11.7-2.1-23.3-2.1-35 0-13.3 1.2-26.6 1.9-39.9.3-5.9 1-11.9.9-17.8-.1-17-.2-34.1-.8-51.1-.2-4.5-2-9-3.3-13.5-.2-.7-1.3-1.2-2.5-2.3-2.7 9.9-1.7 19.1-1.5 28.2.1 4.2.8 8.4.7 12.5-.1 4.1-1.4 8.2-1.3 12.2.2 13.4.9 26.8 1.2 40.3.2 11.2 0 22.4 0 33.6 0 9.4-1.3 18.6-.7 28.1.4 6.4 2.8 7.5 7.5 9.4zm-60.1-4.9v-47.2c0-2.2-.3-4.3-.4-6.5-.2-5.6-.5-11.2-.5-16.9 0-5.1.7-10.1.7-15.2-.1-6.9-1.9-14-.7-20.7 2.3-12.7-.3-25.2-.3-37.8 0-3.4 1.3-9.1-4.9-12.4-.9 5-2.4 9.2-2.3 13.3.3 15.2 1.1 30.4 1.6 45.6.2 6.9 0 13.8-.1 20.7-.2 11.7-.9 23.4-.5 35.1.4 12.4 1.9 24.9 3.2 37.2.2 1.5 2.3 2.7 4.2 4.8zm31.6-114.5c0 5.8-.3 11.8.1 17.8.9 15.4 2.1 30.9 3.3 46.3.1 1.6 1.4 4.4 2.2 4.5 3.1.2 7.7.6 9.2-1.1 2.1-2.4 2.6-6.8 2.6-10.3-.1-14.1-.8-28.2-1.1-42.3-.1-4.7 0-9.3 0-13.7-4.8-.4-9.7-.7-16.3-1.2zM56 173.8c-.7-.1-1.3-.1-2-.2-.9 3.6-2.5 7.1-2.5 10.7 0 17.1.2 34.2.8 51.3.4 11.7 1.5 23.3 2.1 35 .3 4.9 0 9.8.1 14.7 0 7.7-.1 15.5.1 23.2.2 5.9.6 11.8 1.3 17.7.2 1.2 2.6 2 4 3 .6-1.4 1.7-2.7 1.8-4.1.2-1.9-.5-3.9-.4-5.8.2-5.6 1-11.1.7-16.7-.8-16.9-2.1-33.9-3.1-50.8-.1-1.4.8-2.8.8-4.1-.7-9.3-1.7-18.6-2.2-27.9-.6-12.7-.7-25.5-1.1-38.3 0-2.5-.2-5.1-.4-7.7zm-7.1 109.5c.1-1.3.2-2.1.2-3-.4-10.4-.9-20.9-1.1-31.3-.2-9.5-.3-19-.2-28.5 0-5.2-3.4-4.5-6.7-4.6-3.4-.1-5.4.6-5.4 4.7 0 16.5-.2 33-.4 49.5V284c5.2-.3 9.1-.5 13.6-.7zm439.4 17.5V319c9.9 1.3 18.9 2.5 27.9 3.7 3.7.5 6.6-.1 6.1-5-.3-2.5-.3-5.1 0-7.6.5-4.7-1.5-6.2-6-6.5-9-.7-18.1-1.8-28-2.8zm54.7 22.6c8.9.5 17.8 1.3 26.7 1.3 8.3 0 8.3-.4 8.3-9.1 0-1.4.3-2.8.5-4.2.4-3.4 0-4.8-4.5-4.7-9.3.3-18.7-.9-28-1.1-1 0-2.7 2-2.8 3.1-.4 4.6-.2 9.2-.2 14.7zM10.9 216.5v46.2c0 5.1.3 10.3-.4 15.3-.9 6.5-1 6.8 5.4 5.8.8-.1 1.7-.3 2.7-.4v-26.9c0-11.3-.2-22.5-.2-33.8-.1-5-2.2-7.1-7.5-6.2zm367.7 179.9c-3.9 2.3-7.5 3.6-10 6-6.6 6.1-12.6 12.8-15.4 21.7-.8 2.6-2.2 4.7 2.8 3.8 4.2-.8 8.8.4 13.2.4 1.3 0 3.2-.9 3.7-2 4.1-8.8 8.4-17.6 5.7-29.9zm197.8-180.8c.3-4 .2-8.1.9-12.1.7-4.2-1-4.5-4.5-4.1-4.3.6-8.6.8-12.9.7-4.7-.2-9.4-.9-14.4-1.4 0 5.3-.4 9.1.2 12.8.2 1.5 2.5 3.8 3.9 3.9 8.8.4 17.6.2 26.8.2zM464.5 316.5c0-4.8.2-8.8-.1-12.7-.1-1.3-1.5-3.5-2.3-3.5-8.2-.3-16.4-.2-24.5-.2v14.8c8.9.5 17.6 1 26.9 1.6zm25.8-103h27.8c.1-1.5.2-2.7.3-3.9.1-1.2.3-2.5.6-3.7.9-4.4-.8-6.9-5.3-7.2-3.6-.2-7.2-.2-10.7-.2-12.3 0-12.3 0-12.3 12.6-.1.6-.3 1.3-.4 2.4zM325.6 356.3c-3.7-.9-7.1-1.3-10.3-2.5-6.6-2.4-8.9-2.1-12.6 3.8-1.5 2.3-1.5 5.6-2.1 8.5 2.9.6 5.7 1.4 8.6 1.7 1.7.2 3.6-.3 5.4-.5 7.4-.9 9.9-3.5 11-11zm-212.4-67.5H93.6c-.2 1.5-1.1 4.1-.8 6.6.2 1.5 2 3.4 3.5 4.1 1.5.7 3.7.1 5.5.4 12 1.8 12.1 1.8 11.4-11.1zm233.7 128.8c4-4.7 8.3-9.4 12.2-14.5.7-.9-.3-3.3-.9-4.8-.3-.6-1.7-1.1-2.6-1-4 .2-7.9.5-11.8 1-2.4.3-4.6.8-3 4.4 2.1 4.7 3.9 9.6 6.1 14.9zm14.4-134.8c1.2-1.7 2.5-2.9 3.2-4.5 1.1-2.5 1.7-5.1 2.5-7.7-2.1-.1-4.3.1-6.4-.3-6-1.1-11.9-2.3-18.7-3.7 4.1 8.6 12.4 11.2 19.4 16.2zm32.5 64c-5 2.7-5.7 11.9-1.1 16 .2-2.1.5-4 .9-7.5 2.7 2.2 4.7 3.8 6.7 5.4-1 2.1-2.1 3.8-2.4 5.7-.3 1.6.2 3.3.4 5 1.7-.6 4-.8 5-2 1.1-1.4 1.1-3.7 1.2-5.6-.1-7.8-5.4-12.2-10.7-17zm190.9-155c-.4 0-.8.1-1.2.1v81.9h1.2v-82zm-247.2 80.1c-2.4 3.3-3.2 14.3-.5 16.9 1.2 1.2 4.2 1.5 5.9.9 3.8-1.3 7.4-3.5 11-5.3-5.2-3.9-10.6-8.1-16.4-12.5zm-277-68.6c.9 4.1.2 9 6.8 8.5 2.9-.3 5.9-.3 8.8-.2 3.6.1 3.3-2.5 3.2-4.7-.2-2.5-.8-4.2-4.3-3.7-4.5.5-9.1.1-14.5.1zM365.1 435c-3.8 0-7.2.4-10.5-.1-5.2-.8-5.7 2.6-5.6 5.9.1 3.8 3.2 4.2 6.3 4 4.9-.4 9.3-4.9 9.8-9.8zM49.8 289.2c-1.9-.3-3.5-.5-5-.7-2.8-.4-5.5-.9-8.3-1.3-.2 3-.5 5.9-.7 8.8 14.9 2.6 14.9 2.6 14-6.8zM67 287c-1.9 10.7 0 14.1 10.3 10.9.7-8.3.7-8.3-10.3-10.9zm308.6 5.4c1.8-11.7.8-15.2-4-16.7-1.5 1.2-3.3 1.9-3.9 3.1-.8 1.6-1.6 4.3-.8 5.3 2.3 3 5.4 5.3 8.7 8.3zm-47.4 58.5v-4.7c-6.1-2.6-11.6-5-17.2-7.2-1.2-.5-2.7 0-4.1 0 .6 1.3.9 3.4 2 3.9 6.1 2.8 12.4 5.2 19.3 8zm256.9-13.7h-1.6v35.9h1.6v-35.9zM19.5 289.8c-8.5-3-9.2-2.3-9 7.8 9.2.9 9.4.7 9-7.8zM337 411.1c.5-.3 1.1-.6 1.6-1-1.9-3.6-3.7-7.3-5.9-10.7-.4-.7-2.8-.8-3.8-.2-.8.4-1.2 2.2-1.2 3.4-.1 6.3 4.6 7.4 9.3 8.5zM46.3 211.5c0-7.9-1-8.5-10-7.2.2 2.6.4 5.2.6 8.5 3.2-.4 6.2-.8 9.4-1.3zM327.4 162c10.5-.7 10.5-.7 10-8h-7.7c-.8 2.6-1.5 5.2-2.3 8zm12.4 250.7c-2.6 1.2-4.7 2.1-7.2 3.2 2.7 4.3 5.3 8.4 7.9 12.5.5-.2.9-.4 1.4-.6-.7-4.8-1.4-9.6-2.1-15.1zm37.8-246.4c-.5-1.9-1.1-5.2-1.5-5.2-3.4.2-6.8.7-10 1.7-.7.2-.5 3.2-.8 5 4.6-.6 8.1-1 12.3-1.5zm207.9 142.2c-.5-.1-1-.1-1.5-.2-1.7 7.7-1.1 15.3-.1 23h1.6v-22.8zM356.4 162.8c-.3-.5-.7-1.1-1-1.6-2.2 3.2-8.3-1.9-8.3 4.9 0 1.3 4.6 2.6 7.6 4.2.8-3.5 1.3-5.5 1.7-7.5zM9.6 204.5c1 3.1 1.5 5.7 2.8 8 .3.5 4.2 0 4.2-.4.4-2.6.2-5.2.2-8h-3.5c-.7.1-1.4.2-3.7.4zm301.6-30.3c7.2.6 8-.2 6.6-6.9-6.9-.6-7.2-.3-6.6 6.9zm7-19.1c-4.7 2.9-9.7 3.7-6.6 9.8 2.3-.6 4.5-1.1 7-1.7-.1-2.5-.2-4.8-.4-8.1zm19.3 9.4c-3.3.7-6.2 1.3-9.2 1.9-.1 7.3 5 4.1 8.3 4.8.3-2.2.6-4.1.9-6.7zm18.8-10.4h-8.5c.1 2.3.2 4.1.3 6.4 3.4-2 9.1.2 8.2-6.4zm-28.6-4.1c.5.6 1 1.1 1.5 1.7 1.5-.4 3.1-.7 4.6-1.2 1.8-.6 3.5-1.2 5.3-1.9-1.7-.6-3.3-1.1-5-1.7-.7-.2-1.6-.8-1.9-.6-1.7 1.2-3.1 2.5-4.5 3.7zm-.2 262.9c-1.7-4.2-3.4-8.3-5-12.4-3.9 4.7-1.5 10.6 5 12.4zm.4 5.5c0-.3 0-.6.1-.9-3.4-1.4-6.7-2.8-10.6-4.4 1.2 2.6 2.2 4.4 3 6.2 2.6-.3 5.1-.6 7.5-.9z"/>
  <path d="M595.3 445.9c-.7-.8-2-1.6-2-2.4 0-7.1.3-14.1.4-21.2 0-5.8-.4-11.7-.4-17.5.1-10.9.7-21.8.6-32.7-.1-9.9-1.1-19.8-1.3-29.7-.2-10.5.2-21.1.2-31.6 0-1.8-.4-3.5-.5-5.3-.2-25.2-.3-50.3-.5-75.5-.3-34-.5-68.1-.9-102.1-.2-13.5-1.1-26.9-1.2-40.3-.2-19.7.1-39.4.1-59.1 0-6.2 0-12.5-.7-18.6-.2-1.7-3.1-4.2-4.8-4.3-11.4-.3-22.8 0-34.2 0-14.6 0-29.1-.1-43.7-.1h-41.9c-21.6 0-43.2.1-64.9.1-4.1 0-8.2.1-12.3 0-13.2-.3-26.4-.8-39.6-.8-8.4 0-16.8.8-25.2.8-15.4.1-30.9.1-46.3 0-12 0-24.1 0-36.1-.1-12.2-.1-24.5-.4-36.7-.6-13-.3-26.1-1-39.1-.8-12.2.1-24.4 2-36.6 1.5-10.6-.7-21.1.3-31.7-.1-10.9-.3-21.7 0-32.6 0-7.1 0-14.8 1.5-21.4-.4-8.9-2.6-17.6-1.2-26.3-1.4C5.8 3.4 3.2 6.4 3.2 16.1c0 9.6.2 19.1.1 28.7-.2 23-.8 46-.7 68.9.2 28.8 1.1 57.6 1.4 86.4.1 9.9-.8 19.7-.8 29.6-.1 23-.1 45.9.1 68.9.2 23.5.7 47 .9 70.6.2 23.1.1 46.2 0 69.3 0 6.6-.7 13.2-.8 19.8 0 6 1.5 7.3 7.5 7.3h72.9c15.2 0 30.3.2 45.5.2 31.1 0 62.2 0 93.3-.1l139.1-.3c14.3 0 28.6-.3 42.9-.2 21.8.2 43.7.7 65.5.9 12.6.1 25.3-.6 37.9-.5 9.7.1 19.4 1.2 29.1 1.4 8.1.1 16.2-.8 24.3-1 3.4-.1 6.7.8 10.1.8 5.7-.2 11.5-.3 17.1-1.3 3.6-.7 5.2-3.8 5.2-7.7 0-1.7 1-3.4 1.5-5.1v16.4H0V0h595.3v445.9z" fill="#fff"/>
  <path d="M520.7 328.1c0 13.2.1 25.4-.1 37.5 0 1.2-1.3 2.7-2.4 3.7-2.5 2.3-1.8 4.7.6 5.5 8.6 3 17.5 4.3 26.1 0 .9-.5 2.1-2.6 1.8-3.1-6.4-9.5-4.2-20.1-3.8-30.4.2-4.2 0-8.4 0-13.5 11.4.7 22.8 1.4 35.2 2.2v20c0 5.4.3 10.9.2 16.3 0 1.5-.5 3.3-1.4 4.4-3.1 4-2.5 7.1 2.7 7.7 5.3.5 5.7 3.1 5.5 7.2-.2 4.3 0 8.6 0 13.5h-15.6c0 .7-.1 1.4-.1 2.1 5 .3 10 .5 15.5.8v57.8H410.1l-.3-2.1c3.9-.5 7.9-1 11.8-1.5V455c-4.9-1-9.8-2.6-14.8-2.8-13.4-.7-26.8-.7-40.1-1.1-2.1-.1-4.3-.7-5.8-.9 5.7-7.9 12-15.1 16.5-23.2 3.5-6.4 5.3-13.9 7.1-21.1 1.5-5.6-1.9-10.7-7.3-12.4 9.8-1.7 17.3-5.3 13.2-17.6 1.8.4 2.7.4 3.4.8 6.5 3.5 10.5-.7 13.4-5.2 3.1-4.8 3.9-10.7 1-15.8-3.7-6.5-8.6-12.4-12.5-18.8-3.5-5.7-6.9-11.5-9.5-17.7-3-7-5-14.5-7.3-21.8-.4-1.2-.1-2.7.3-3.9 3.6-9.4 2.1-15.8-5.4-22.9-.9-.9-1.3-2.3-2.2-4 21.1-1.9 37.7-10.4 49.3-28.8-.5 2.4-.9 4.8-1.4 7.6 6.4-2.7 7.9-11.3 3.4-17.1-1.2-1.6-3.3-2.6-4.1-4.3-1.3-2.7-3-6-2.5-8.7.5-2.9 3.6-5.3 4.9-8.2 1.8-3.8 5-3.1 8.1-3.9 5.3-1.5 9.5-4.6 10.8-10.7 1.1-4.9-.3-8.5-4-12-4.7-4.4-10.3-5.8-16.2-7.7-7.8-2.5-15.6-5.7-22.6-9.8-16.7-9.8-33.3-19.5-53.2-21.2-5.1-.4-10.2-.7-15.4-1-.2-1.2-.5-3.3-.8-5.3-.6-.2-1.2-.4-1.9-.7-1.5 2.9-2.6 6.2-4.6 8.7-2.1 2.7-5.1 4.7-7.8 6.9-11.7 9.7-21 20.9-26 35.8-4.4 12.8-6.1 25.5-3.4 38.7 1.6 7.8 5.2 14.7 11.2 19.9 6.5 5.6 13.4 10.8 22.5 11.8 1.1.1 2.2 1.2 3.5 2 2.4-3.2 5.1-3.4 8.4-.9 1.7 1.3 3.8 2 5.7 3.1 3 1.8 3.4 5.6.7 7.8-4 3.3-4.9 7.7-6.3 12.5-2 6.9-6.2 13.1-9.4 19.6-6.3 12.9-12.6 25.7-18.5 38.7-.9 2-.4 5.6.9 7.4 2.2 3.1 1.4 4.8-.9 6.9-1.7 1.6-3.4 3.3-4.7 5.2-4.5 7-1.2 13.1 7.2 13.6.5 0 .9.4 1.5.7-1.3 3.4-2.7 6.6-3.7 10-1.2 4.1-.6 6.9 4.6 7.6 5.8.8 11.4 2.4 16.9 4.9-1.8 0-3.7.4-5.4-.1-5.7-1.5-10 .5-9.7 6.2.6 11.4 2 23 10.1 31.9 2.5 2.7 6.4 4.9 10 5.6 6.4 1.2 7.3 0 13.3-9.3.2 6.3-3.5 13.2 2.6 19.3-7.9.4-13.3-3.9-19.5-6.2-5.2-1.9-11-2.2-16.6-3.1-1.1-.2-2.6.7-3.5.3-12.3-5.4-25-.9-37.4-1.8-1.5-.1-3 .2-5.6.4 3.6 4.4 8.2 1.5 11.7 3.1v3.9c5.1-.5 9.8-1 14.6-1.4 1.3-.1 3.2-.5 3.7.2 5.7 7.2 13.2 2.4 20.2 3.8-.3.7-.8 1.7-1.7 3.4 3.7 0 6.9-.3 10.1.1 6.4.8 12.7 2.2 19.1 2.9 4.7.5 9.2-.8 14.1 1.8 3.3 1.7 8.5-.2 12.8-.4 5-.2 10-.3 15-.1 1.4.1 2.8 1.4 4 3.1h-6.4c-33.6.3-67.2.5-100.8.8-9.3.1-18.7.7-28 .8-3.9.1-7.9-.4-11.8-.6-5.2-.3-10.5-.6-15.7-.8-7.2-.2-14.4-.2-21.5-.2-21.1.2-42.1.5-63.2.6-14.1 0-28.2-.6-42.3-.6-24.2-.1-48.3.1-72.5.2-1.3 0-2.5.1-3.8 0-7.7-.3-9.1-2.6-8.8-10.2.4-13.8.1-27.6.1-41.4v-38.8c5.3.7 11.5 1.4 17.6 2.4 6.7 1.1 13.3 3 20.1 3.7 4.2.4 8.6-.7 12.9-.9 14.7-.8 28.9 2.2 43.1 5.7 3.7.9 8.2 2.6 11.3-3.7-4.1-.5-7.6-.6-11-1.3-8.5-1.7-17-4.3-25.6-5.2-10.2-1.1-20.5-.7-30.8-1.3-4.9-.3-9.8-1.5-14.8-2.1-7.5-.9-15.1-1.5-23.1-2.3v-61.5c2.6.3 5.6.6 8.4.9.7 7.8 1.4 15 2.1 22.2 0 .5.6 1 .7 1.5.3 1.9.4 5.5.7 5.5 4.9.2 9.8.1 14.7-.3.3 0 .8-2.4.7-3.7-.8-8.9-1.7-17.8-2.6-27.7 5.5 1 9.7 1.7 13.9 2.7.9.2 2.1 1.8 2.1 2.7-.1 7.7-.6 15.5-.5 23.2 0 1.2 2 2.9 3.5 3.5 9.3 3.9 13.1 1 12.5-9-.4-7.1-.1-14.3-.1-21.5 2.6 0 4.9-.5 6.9.1 2.6.7 6 .7 4.4 5.9-1.3 4.1.1 8.9.2 13.4.1 3.8 0 7.6 0 11.4-.5.4-1 .9-1.6 1.3 4.1 1.9 8 4.3 12.3 5.5 5.7 1.6 7.7-1.8 6.8-9.3-1.1-9-1.7-18-2.6-27.3 7.3.8 13.4 1.5 19.8 2.2.6 5.5 1.2 11.1 1.8 16.7.6.1 1.2.2 1.8.4.7-1.7 2-3.5 2-5.2 0-6.6-.3-13.2-.7-19.8-.6-10.8-1.5-21.5-2.2-32.3-.1-1.4 0-2.9 0-4.3-3.3.6-4.3 9.7-2.4 23.1H93.7c.9-21.8 1.9-44 2.9-66.2 1.9-.8 3.5-1.5 6.9-3-9.3-1.1-5.6-8-8.2-12.1l5.4-3.6c-6.7-1.9-5.5-6.8-5.4-11 .1-5.7.2-11.4-3.4-16.1-1.6-2.1-4.1-4.7-6.5-5.1-3.7-.6-4.1 3-4.4 6-.9 8.6-1.9 17.1-2.9 26.1H60.5c.3-6.8.6-13.4.9-20 0-.7-.1-1.5 0-2.2.3-3.7-1-8.1-4.4-7.9-2.6.1-6.4 4-7.3 7-2.2 7.3-2.9 15-4.4 23.1h-8.6c-.6-4.9-1.3-10.3-2-15.7-.1-1.2.1-2.4-.1-3.6-1.1-4.6-2.6-10.7-7.5-10.1-3.1.4-6.5 6.2-8 10.3-1.5 4-1.1 8.9-1.2 13.3-.1 6.6 0 6.6-7.4 5.9 0-9.1.1-18.3 0-27.6-.1-12.6-.5-25.2-.5-37.9 0-5.2 1-10.4.9-15.6-.3-16.4-1-32.7-1.2-49-.2-18 .1-35.9.2-53.9 0-6.6 5.9-3.9 8.4-4 11.5-.7 23.2-.3 34.8-.2 24.8.1 49.5.3 74.3.5.7 0 1.4.2 3.2.5-6.7 4.6-12.7 8.5-18.3 12.9-9.2 7.2-18 14.8-23 25.9-4.8 10.6-2.7 20.5 3.1 29.3 9.9 14.9 24.4 24.7 41.2 30.5 8.8 3 18.1 4.6 27 7.3 8.3 2.5 16.6 3.9 25.4 4.3 16.4.7 32.6 2.6 50 4.2-1.8 3.9-3.8 8.1-5.7 12.5-1.4 3.2-5.3 5.6-2.8 9.9 2.7-1.8 5.7-3.2 7.9-5.4 5.1-4.9 9.6-10.4 14.8-15.3 1.7-1.6 4.4-2.7 6.7-2.9 8.5-.4 17.3-1.7 25.5-.1 11.3 2.2 22.4 1.4 33.6 1.1 19.4-.6 38.7-2.1 58-3 5.5-.3 11.1.1 16.6-.2 20.1-1.3 39.3-5.8 58.1-13 10.6-4.1 20.8-8.8 29.4-15.7 17-13.5 27.8-31.1 24.5-53.7-1.5-10.3-8.1-19.2-17.3-25.4-1.4-1-2.8-2-5.1-3.5 1.9-.4 3-.8 4.1-.8 10.1-.1 20.1-.3 30.2 0 7.4.2 14.8 1.3 22.3 1.5 4.8.1 9.7-.8 14.6-.9 9.5-.2 19.1-.1 28.6-.2 4.1 0 3.5 2.8 3.5 5.3.3 22.9.5 45.8.8 68.7 0 2.2.6 4.3.5 6.3-.2 3.9-.7 7.8-.7 11.7.1 17.8.7 35.5.2 53.3-.2 6.4-3.5 12.7-4.8 19.1-.9 4.7-.7 9.6-1.5 14.4-.2 1.4-2.2 3.5-3.4 3.5-9.4.3-18.8.2-28.6.2-.5-6.7-1-14.2-1.8-21.6-.4-3.9-.6-8.1-2.2-11.5-1.5-3.1-4.4-6.9-7.3-7.6-3.8-.9-7.6 1.5-9.6 5.9-4.3 9.3-6.2 19-5.8 29.2.1 3.5.3 6-5.1 5.5-5.8-.6-11.7.9-17.6 1.5-5.4.5-5.9-.5-6.3-6.2-.5-7.9-1.1-15.9-3.1-23.5-.8-3.3-4.8-6.8-8.1-8-2.8-1-5.7 2.2-7.9 5.5-6.2 9.3-7.2 19.6-7.8 30.8-6.3.7-12.7 1.4-19.1 2.1v1.9c6 .8 12 1.5 17.9 2.3.6 4.4 1.1 8.2 1.7 12.4h-28.8c-.4-1.9-.8-3.6-1.2-5.2-.4-.1-.7-.1-1.1-.2-.5 2-1.4 3.9-1.4 5.9-.1 9.1.1 18.3 0 27.4-.1 6.9-.8 13.8-.7 20.7.3 26.4.8 52.9 1.1 79.3.1 5.2-.1 10.5-.8 15.7-.2 1.3-2.7 2.5-4.2 3.5-1.6 1.1-3.4 1.9-5.2 2.8 1.9.9 3.8 2 5.8 2.5 2.1.5 4.3.7 6.4.5 2.2-.2 4.3-1 6.5-1.5-.6-.3-1.2-.7-1.8-1-1-6.2-2.7-12.4-2.8-18.5-.1-7.9 1.1-15.8 1.8-23.6.1-.7.5-1.3.6-1.5 7.9.8 15.5 1.4 22.9 2.6 1.4.2 3.5 3.1 3.5 4.8.1 10.9-.1 21.9-.5 32.8-.1 1.9-1.8 3.7-2.8 5.5 6.3 5 26.3 7.1 29.1 3.9-.9-4.3-2.2-7.7-2.3-11.2-.3-10.5-.1-21.1.1-31.6 0-.8 1.9-2.4 2.7-2.3 7 .8 14 1.9 21 2.9 3.1 0 6.1.6 8.9 1.1zM151.8 261c-5 3.5-9.4 6.8-5.1 13.4.4.6-.6 2.2-1.2 3.2-4.7 8.4-9.5 16.7-14.1 25.2-2.7 5-5 10.3-7.6 15.3-3.8 7.3-7.9 14.5-11.5 21.8-1.6 3.1-.7 6.1 2.4 7.9 3.3 1.8 6.7 3.3 10 4.9-2 9.4-4 18.9-5.9 28.3-1.1 5.2.3 6.8 5.9 7.9 5.3 1.1 10.4 2.5 15.6 3.7-.1.4-.2.9-.3 1.3-2-.3-4.2-.2-6-1-3.9-1.8-6.9.5-8.2 3-1.7 3.5-3.3 8.3-2.3 11.8 2.3 8.2 5.3 16.4 9.5 23.8 5.9 10.2 15.5 11.4 23.7 4.3.9 3.6 1.7 7.2 2.9 12.3-2.6-1.5-3.8-2.3-5.1-2.9-1.8-.8-3.5-2-5.4-2.2-7.4-1.1-14.9-1.6-22.3-2.9-7.6-1.4-15-4-22.7-5-7.1-.9-14.5 0-21.7-.4-3.8-.2-7.5-1.3-11.5-2 .1 1.8.2 2.9.3 4 6.5 1 12.8-.6 18.7 3.3 3.3 2.1 7.9 2.1 11.9 3.2 1 .3 1.8 1.3 2.8 1.6 2.1.7 4.2 1.2 6.4 1.6 4.6.7 10.3-3 13.4 3.6.2.5 1.6.8 2.4.8 5.5-.3 10.9-.6 17-1-.5 1.6-.8 2.5-1 3.1 10.6 1 20.9 2.6 31.2 2.6 6.4 0 12.4-.1 18.9.8 10.4 1.6 21.2.4 31.9.3.8 0 1.6-1.3 3.3-2.8-18.3-1.5-34.9-2.9-51.6-4.3 3.9-3.7 8.1-6.9 11.4-10.9 8-9.6 10.8-21.7 14.1-33.2 1.1-3.9.2-9.3-1.7-13-1.9-3.5-6.4-5.5-8.5-7.2 3.5-1.2 8.8-3.1 14.2-4.7 1.2-.4 2.7.4 4 .6-.8 1.2-1.3 3-2.4 3.3-2.5.9-5.2 1.1-8 1.6 1.7 4.7 5 2.9 7 1.9 3.3-1.6 6.4-3.9 8.8-6.6.9-1-.5-3.9-.7-5.9-.2-1.4-.1-2.9-.3-4.3-.4-4.3-.9-8.6-1.2-12.9-.3-4.2-.6-8.5-.6-12.7 0-4.1 1.1-8.4.3-12.2-1.1-4.8-3.6-9.3-5.7-13.8-1-2.2-2.3-4.2-3.6-6.2-1.2-1.8-3.3-3.3-4-5.3-2.6-7.3-5-14.8-7.1-22.3-.3-1.2.8-3.4 1.9-4.4 2.9-2.6 5.1-5.3 2.7-9.2-1.7-2.8-4.1-5.3-6.3-8.2 5.1-1.6 9.9-3.2 14.8-4.8 4.6-1.5 5.7-.6 4.9 4.3-1 6.8 1.5 9.3 8.3 8.1 1-.2 2.1-.2 3.5-.3V251c7.4 3 9.3.4 11.1-7.2 2.2-9.4-4.1-18.5.3-27.6.3-.5-.4-1.8-.9-2.4-2.7-2.8-1.7-5.9 0-8.3 2.9-4 6.2-7.8 9.8-11.1 5.9-5.4 6.2-10.8-.7-14.5-10.1-5.4-19.4-11.8-28-19.2-8-6.9-16.9-12.2-26.7-15.5-7.3-2.5-15.1-4.6-22.7-5.2-7.1-.5-14.3 1.3-20.2 1.9-1.4-2.4-2.4-6.2-4.2-6.6-4.3-1.1-9.2-2.3-13.4 1-3.4 2.6-4.6 9.5-2.8 14.7-10.5 7-17 17.2-21.2 28.8-3.7 10-2.7 19.3 5.3 27.3 1 1 1.5 3.3 1.1 4.8-1.3 5.3.2 9.5 4 13.1 2.1 2 3.8 4.4 6.4 7.5-6.3.4-8.4 3.5-8.7 8.2-.2 2.9-.8 5.7-.8 8.5 0 7.1 2.1 8.4 8.6 5.7.5-.2 1.3.1 2.3.2v18.2c4-1.5 8.2-1.9 8.8-3.6 1.4-4.2 1.2-9 1.6-13.4 2.3-1 5.4-2.2 8.7-3.6 3.5 2.6 7.4 5.3 11.8 8.3zm100.9 24.3c-5.2.4-9.9.9-14.6.9-6.3.1-7.2-1.1-6.4-7.7.3-2.6.6-5.3.4-8-.1-1.1-1.3-2.2-2-3.3-.7 1.1-2.1 2.1-2.1 3.2-.5 11-1.1 22-1 33 .1 12.9.8 25.8 1.3 38.7.1 2-.1 4.1.4 5.9 1.3 4.3-1.1 4.1-4 3.9-1.6-.1-3.2 0-5.7 0 4.4 5.7 8.7 6.7 15.5 4.8-.3-3.8-.6-7.5-.8-11.3-.5-11.9-.9-23.8-1.1-35.7 0-1.1 1.9-3.2 2.9-3.3 4.4 0 8.8.4 13.1 1 1.2.2 3 1.8 3.1 2.9.5 3.8.3 7.7.4 11.6.1 8.8.2 17.6.2 26.4 0 1.6-.6 3.2-1.1 5.7 3.6 4.1 15.2 7.5 21.5 5.2 1-.4 2.3-1.6 2.4-2.5.4-7.7.9-15.5.8-23.2 0-6.9-.9-13.9-.9-20.8 0-1 2.4-2.4 3.9-3 1-.4 2.4.1 3.6.1h19.1c.5 4 1.1 8 1.6 12 4.5-5.7 3.4-61.6-.3-66.1-.4 1.5-.9 2.6-.9 3.7-.1 7.6.2 15.2-.1 22.7-.1 1.5-1.8 4.1-3 4.3-5.8.7-11.6 1-17.5.9-3.2 0-6.1.3-6.1-5.4.1-19.3-1-38.6-1.4-57.9-.1-3.7 1.3-7.3 2.3-12.2-2.5-3.2-2.4-9.2 1.2-15-1-1.6-2.4-3-2.6-4.5-.9-6.5-1.5-13.1-2.2-19.7-.5-4.6-5.5-10.2-9.1-10.3-3.1-.1-7.6 5-8.3 9.5-1.2 7.3-2.2 14.6-3.6 21.8-.3 1.4-2.2 2.6-3.6 3.7-1 .8-2.2 1.3-3.8 2.2 10 2.7 10 2.7 7.1 12.4h-9.4c0 .5-.1 1-.1 1.5 2.1.5 4.2 1.7 6.3 1.5 3.9-.3 4.8 1.4 4.6 4.7-.1 1.4 0 2.9 0 4.4v61.3zm134.6 128.4c-.1.9-.3 1.8-.4 2.7 2.6 1.1 5.1 2.9 7.7 3.1 12 1.1 24.1 1.6 36.1 2.5 5 .4 10.1.5 14.8 1.9 9 2.7 17.6 6.5 26.5 9.4 4.5 1.5 9.4 2.5 14.2 2.7 11.1.4 22.3-.7 33.3.4 10.1 1 19.9 4.2 29.9 5.9 8.7 1.5 17 6 26.2 4.3.6-.1 1.4.4 2 .7 3.9 2 5.2.1 5.7-3.6-1.9-.5-3.6-1.6-5.3-1.4-13.2 1.2-24.8-5.6-37.4-7.4-13.1-1.8-26-4.6-39.3-4.2-15.3.6-29.7-3.3-44-7.9.9-1.5 1.8-2.9 2.6-4.2-24.5-1.6-48.6-3.3-72.6-4.9zm0-122.2c1.6 1.4 2.2 2.5 3 2.6 4.2.6 8.5.8 12.7 1.4 3.3.5 8.9.7 9.2 2.2 1.2 4.7.4 9.8.4 14.6-8.9-2.3-16.6-3.1-24.4-.5 1.1 1.2 2.3 1.9 3.5 2.1 4.3.5 8.6.9 12.9 1.1 8.9.4 9.6 1.1 9.8 10 .1 7 0 14 .3 21 .1 1.9 1.3 3.7 2.1 5.5l2.7-.6c-.6-30.4-1.1-60.9-1.7-91.3h-2c-3.9 10.3-1.6 21.2-2.5 32-8.2-.1-16.5-.1-26-.1zm-78.6 115.4c-2-1.8-2.6-2.7-3.3-2.8-6.9-1.2-13.8-2.3-20.7-3.3-4.6-.7-9.3-1.1-14-1.8-6.3-1-12.6-2.3-19-3.1-7.7-1-15.4-1.7-23.1-2.4-6.7-.6-13.4-.9-20.2-1.3-.1.8-.3 1.5-.4 2.3 1.8.4 3.5 1 5.3 1.3 5.3.8 10.6 1.5 15.9 2.3 10.7 1.7 21.4 3.6 32.2 5.1 12 1.7 24 3.1 36.1 4.3 3.2.3 6.5-.3 11.2-.6zm-99-104.5c4.4 2.3 4.3 5.9 4.2 9.8 0 2.8.7 5.6 1.1 8.4.6-.1 1.3-.1 1.9-.2 2.3-13.3.8-26.6-.2-39-4 2-7.6 3.9-11.1 5.6 8.3 10.3 8.3 10.3 7.7 14.9-1.2 0-2.4.3-3.6.5zm222.4-127.3c.7-.5 1.4-1.1 2.1-1.6-.4-3 .2-6.8-1.5-8.8-1.8-2.3-5.8-4.5-8.5-4.2-3.2.3-6.1 3.4-9.1 5.3.2.6.4 1.1.7 1.7 7.4-2.5 13.8-2.4 16.3 7.6zM132.2 286.8c-1.4-2.6-3.1-5.7-4.8-8.9-.4.1-.8.2-1.2.4v26.1c.7.1 1.4.1 2.1.2.5-3.7.8-7.5 1.5-11.1.4-2.2 1.5-4.3 2.4-6.7zM322.6 261c-.5.1-1.1.3-1.6.4-.1 1.7-.4 3.4-.4 5 0 6.3-.1 12.6 0 19 0 1.5.4 3 .6 4.6 1.2-1.5 3.2-3 3.3-4.6.4-6.5.4-13.1.2-19.7 0-1.6-1.4-3.2-2.1-4.7zm245.1 135.6c0-.6-.1-1.2-.1-1.7-3.7-.4-7.4-1.1-11.1-1.2-3.8 0-7.6.7-11.5.8-3.1.1-6.7-4-10.2 2.1h32.9zm-74.2-4.3h26.4c-1.5-2.1-2.5-3.9-2.8-3.8-7.4 2.8-16.1-3-23.6 3.8zm-53.2 6.5c-.1-.5-.1-1.1-.2-1.6-5-2.7-18.5-.4-20.8 3.8 7.1-.8 14-1.5 21-2.2zM33.4 348.1c7.4-.8 13.7-1.4 20.8-2.2-5.5-3.9-16.4-3-20.8 2.2zm431.9 54.4c-7.2-3.9-17.4-3.5-19 0h19zm13.4 3.9c12.2 1 12.2 1 12.3-2.5-11.2-1.4-11.2-1.4-12.3 2.5zm-52.6-15.7c-6-3.6-16.4-1.6-16.9 2.2 5.7-.7 11.3-1.5 16.9-2.2zm-177.4-15c-.1-.9-.1-1.9-.2-2.8h-12v2.3c4.1.1 8.2.3 12.2.5z" fill="#fff"/>
  <path d="M344 196.4c1.9 4.2 5.4 4.7 9 3.9 4.5-1.1 8.5-2.8 12.5 2 1.2 1.5 6.1-.3 9.4-.4 2.8-.1 5.6.4 8.4.3 3-.1 6-.8 9-.8 2.4-.1 4.8.5 7.1.6 4.1.3 8.2.4 12.3.6 1.4.1 3.6-.5 4.2.2.8.9.8 3.2.2 4.3-1.4 2.4-3.4 4.6-5.3 6.7-4.7 5.2 0 9.6 1.7 13.8 4.1 10.3 3.3 15.1-5.5 21.6-12.9 9.5-27.3 13.6-43.5 12.5-9.7-.6-18.9-2.4-27.4-6.9-3-1.6-5.3-4.8-7.7-7.4-2.7-2.9-5.1-5.3-9.1-1.8-.7.6-2.6-.4-3.8-.2-1.3.2-2.4 1.1-3.5 2.5-8.6-1.5-14.6-7.6-18.8-15.3-6.7-12.4-4.8-25.8-2.7-38.9.2-1.5 1.3-3.5 2.5-4 7.1-3.1 14.1-6.2 21.5-8.4 7.8-2.4 15.9-4.6 24-5.6 10.1-1.3 20.4-1.6 30.6-2.1 5.6-.3 11.3-.2 16.9.2 6.2.5 12.3 2.3 18.4 2.2 9.3-.1 17.5 2.9 25.3 7.2 4.2 2.3 6.6 6.5 5.1 10.8-1 2.9-4.9 4.7-8.3 7.8-.8-11.4-8.7-20.8-15.8-19.4 2.5 2.6 4.7 4.7 6.8 7.1 4.1 4.7 3.3 7.1-2.6 8.9-3.2 1-6.5 2.1-9.7 3.1-.2.1-.6-.3-1.8-1.1 3.8-1.6 7-2.9 10.2-4.2-.2-.7-.3-1.5-.5-2.2-3 .4-5.9.7-8.9 1.2-2.9.6-5.7 1.4-8.8 1.1 1.4-1 2.8-1.9 4.2-2.9l-.9-2.1c-9.7 2.8-19.5 5.6-29.2 8.4-.2-.5-.4-.9-.6-1.4 2.4-1 4.8-1.8 7.1-3 1-.5 1.6-1.6 2.4-2.4-1.2-.5-2.5-1.7-3.5-1.5-4 .7-7.9 1.8-12.3 2.8 1.5-5.5-1.4-5.9-5.4-5-5.3 1.3-10.7 2.5-16.4 3.9.5-2.8 1-5.3 1.5-7.7-.5-.2-1.1-.4-1.6-.6-1 1.8-1.7 3.7-2.9 5.2-1.2 1.6-3.5 4.1-4.3 3.8-2.1-.9-4.1-2.8-5.4-4.8-1.2-1.9-1.4-4.3-2.4-7.6-3.1 8.1-1.9 11.8 5.3 18.4-2 3-4.3 5.9-6.2 9.1-3.2 5.5-6.1 11.1-3.2 17.7 4.1 9.2 6.5 19.4 17.4 24.5-.9-2.1-1.9-4.3-2.7-6.4-3.2-8.1-7.6-16-9.3-24.4-2.3-10.9 4.8-19.8 17-23.9zm14.4 17.3c-4.7 4.7-6 9-3 11.4 1 .8 3.8.9 4.8.1 3.7-2.9 3.2-5.6-1.8-11.5zm16.2 12.7c5 3.5 6.7 2.8 10.3-1.5 3.3-3.9.1-5.9-1.8-7.2-2.2-1.4-5.8-2.3-7.4 2.1 2 .7 3.7 1.4 5.5 2 .1.5.3 1 .4 1.5-2.2 1.1-4.5 2-7 3.1zm25.1-5.9c-2.7-2.1-4.3-3.4-5.9-4.6-1.3 1.6-3.6 3.3-3.6 4.9.1 2 2.1 3.9 3.3 5.8 1.7-1.7 3.4-3.4 6.2-6.1zm-29.4 31.9c3.7-2.5 8.2 3.7 10.3-2.9-7.5-3.1-8.3-3-10.3 2.9zM329.5 340c-6.1-2.1-11.4-3.9-16.8-5.8-3.1-1.1-3.7-3.2-2.2-6l18.9-36.3c.2-.4.9-.5 1.8-1 .5.9.9 1.7 1.4 2.5 2.4 4.3 5.9 4.9 9.9 1.9 1.8-1.4 3.9-2.3 5.9-3.4 3.6 5 8.7 6.1 13.3 3.3 5.8-3.5 12.1-.7 13.3 6.3 3.2 18.3 6.4 36.6 9.2 55 1.4 8.9 2.1 17.9 2.9 26.9.1 1.1-1.2 3.2-2.2 3.5-7.7 1.7-15.5 2.5-23.1 4.7-13.5 3.9-25.8-.3-38.3-4.3-5.2-1.7-10.8-2.3-16.1-3.4.3-9 1.8-11 9.7-13 6.9-1.8 10.9-6.1 12.6-13.1 2.9-12.1 6.3-24 9.3-36 .4-1.6-.1-3.5-.2-5.2-.6-.1-1.3-.2-1.9-.3-2.4 7.8-4.9 15.7-7.4 23.7zm43.8 14.5c.1-.9.2-1.9.2-2.8-3.1-1.8-6-4.3-9.3-5.4-3-.9-8.9 4.1-8.1 6.9.7 2.3 3.7 5.9 5.3 5.7 4.2-.6 8-2.9 11.9-4.4zm-2.9-34.1c-.3-1.2-.2-2.6-.8-3.1-2.4-1.9-5.3-5.3-7.4-4.9-3.2.7-6 3.9-8.5 6.4-.4.4 1.4 4.2 2.9 4.8 4.9 2.3 9.4.2 13.8-3.2zM539.1 369.9c-.8.4-.9.5-1.1.5-14 1.1-13.2-1.9-13.1-16.6.1-12.6.8-25.1 1.2-37.7.3-10 .7-20 .4-30-.3-11.5-1.6-22.9-2-34.4-.2-5.8.4-11.7.4-17.6 0-4.1-.7-8.2-.8-12.2-.3-13.3-.6-26.5-.5-39.8.1-5.9.8-11.8 2.3-17.5.7-2.8 3.9-6.8 6.1-6.8 4.3-.1 6.3 4.2 6.7 8.2.7 7.5 1.1 15 1.3 22.5.4 20.9.9 41.7.7 62.6-.2 18.5-1.4 37-1.9 55.5-.3 10.1.1 20.2.1 30.3 0 6.2-.4 12.4-.3 18.7-.2 4.7.2 9.4.5 14.3zM484 362.7c-4.3-.3-8.5-.5-13.4-.8-.4-2.6-1.2-5.3-1.3-8.1-.3-14.2-.6-28.3-.3-42.5.3-12.5 1.9-25.1 1.9-37.6 0-20.1-1.1-40.2-1.1-60.3 0-13.3.8-26.7 1.5-40 .1-2.4 1.2-4.9 2.1-7.2.5-1.3 1.7-3.3 2.6-3.3 1.5 0 3.8 1 4.4 2.2 1.7 3.3 3.6 6.9 3.8 10.4.6 14.1.7 28.2.9 42.3 0 .9-.1 1.8-.1 2.7-.2 37.2-.4 74.3-.5 111.5 0 9.5.3 18.9.4 28.4-.2.7-.6 1.3-.9 2.3zM544.8 219.1c10.9.8 20.7 1.6 31.3 2.3.1 1.7.3 3.6.3 5.5.4 10.3 1 20.7 1.2 31 .2 13 .1 26 .2 39 0 3.5-1.1 5.1-5 4.9-8.2-.3-16.5-.3-24.7 0-4.7.2-5.5-2.1-5.2-6 .4-4.6.9-9.3 1-13.9.6-17.3 1.2-34.5 1.6-51.8.2-3.3-.4-6.7-.7-11zM518.7 219.7c1.1 26.3 2.2 52.4 3.3 78.8-11.1-.8-21.9-1.6-33.6-2.4 0-11.9-.1-24 0-36 .1-10.2.7-20.3 1-30.5.1-2.6-.3-5.2-.2-7.8.2-2.8 1.8-4 4.8-3.8 7.9.6 15.9 1.1 24.7 1.7zM436.8 294.8c-.7-26.2-1.4-51.8-2-78.6 7.8.7 14.6 2.5 20.9 1.5 9.9-1.6 8.5 4.4 8.5 10.1v67h-27.4zM90.6 334.7c-4.7-1.8-7.1-3-7.5-9.3-.6-9.5.7-18.7.7-28.1 0-11.2.2-22.4 0-33.6-.2-13.4-1-26.8-1.2-40.3-.1-4.1 1.2-8.2 1.3-12.2.1-4.2-.6-8.3-.7-12.5-.2-9.1-1.2-18.4 1.5-28.2 1.3 1.1 2.3 1.6 2.5 2.3 1.2 4.5 3.1 9 3.3 13.5.6 17 .7 34.1.8 51.1 0 5.9-.6 11.9-.9 17.8-.7 13.3-1.9 26.6-1.9 39.9 0 11.7 1.3 23.3 2.1 35 .1 1.3 0 2.7 0 4.6zM30.5 329.8c-1.9-2.1-4-3.3-4.2-4.8-1.3-12.4-2.7-24.8-3.2-37.2-.4-11.7.3-23.4.5-35.1.1-6.9.3-13.8.1-20.7-.5-15.2-1.3-30.4-1.6-45.6-.1-4.1 1.4-8.3 2.3-13.3 6.2 3.4 4.8 9 4.9 12.4.1 12.6 2.7 25.1.3 37.8-1.2 6.6.6 13.7.7 20.7.1 5.1-.7 10.1-.7 15.2 0 5.6.3 11.2.5 16.9.1 2.2.4 4.3.4 6.5.1 15.1 0 30.1 0 47.2zM62.1 215.3c6.6.4 11.5.8 16.2 1.1 0 4.4-.1 9 0 13.7.4 14.1 1 28.2 1.1 42.3 0 3.5-.5 7.9-2.6 10.3-1.5 1.8-6.1 1.4-9.2 1.1-.9-.1-2.1-2.9-2.2-4.5-1.2-15.4-2.4-30.8-3.3-46.3-.3-5.9 0-11.9 0-17.7zM56 173.8c.1 2.6.4 5.2.4 7.7.4 12.8.5 25.5 1.1 38.3.4 9.3 1.5 18.6 2.2 27.9.1 1.3-.8 2.8-.8 4.1 1 16.9 2.2 33.8 3.1 50.8.3 5.5-.5 11.1-.7 16.7-.1 1.9.6 3.9.4 5.8-.2 1.4-1.2 2.8-1.8 4.1-1.4-1-3.8-1.9-4-3-.8-5.8-1.2-11.8-1.3-17.7-.2-7.7-.1-15.5-.1-23.2 0-4.9.2-9.8-.1-14.7-.6-11.7-1.7-23.3-2.1-35-.5-17.1-.8-34.2-.8-51.3 0-3.6 1.6-7.1 2.5-10.7.7.1 1.4.2 2 .2zM48.9 283.3c-4.5.2-8.4.4-13.7.7v-13.9c.1-16.5.4-33 .4-49.5 0-4.1 2-4.8 5.4-4.7 3.3.1 6.7-.6 6.7 4.6-.1 9.5 0 19 .2 28.5.3 10.4.7 20.9 1.1 31.3.1.9 0 1.8-.1 3zM488.3 300.8c9.9 1 18.9 2.1 28 2.7 4.5.3 6.5 1.9 6 6.5-.3 2.5-.2 5.1 0 7.6.5 4.9-2.4 5.5-6.1 5-9-1.2-18.1-2.4-27.9-3.7v-18.1zM543 323.4c0-5.6-.2-10.1.1-14.7.1-1.2 1.9-3.2 2.8-3.1 9.3.3 18.7 1.4 28 1.1 4.5-.1 4.9 1.3 4.5 4.7-.2 1.4-.5 2.8-.5 4.2 0 8.6 0 9-8.3 9.1-8.8.1-17.7-.8-26.6-1.3zM10.9 216.5c5.4-.9 7.4 1.3 7.4 6.1 0 11.3.1 22.5.2 33.8v26.9c-1 .2-1.8.3-2.7.4-6.4 1-6.3.8-5.4-5.8.7-5 .4-10.2.4-15.3.1-15.2.1-30.4.1-46.1zM378.6 396.4c2.7 12.4-1.6 21.1-5.8 29.8-.5 1-2.4 2-3.7 2-4.4 0-8.9-1.1-13.2-.4-5 .9-3.6-1.2-2.8-3.8 2.8-8.9 8.9-15.5 15.4-21.7 2.6-2.4 6.2-3.7 10.1-5.9zM576.4 215.6c-9.2 0-18 .2-26.8-.2-1.4-.1-3.6-2.4-3.9-3.9-.6-3.7-.2-7.5-.2-12.8 4.9.5 9.6 1.3 14.4 1.4 4.3.1 8.6-.1 12.9-.7 3.5-.5 5.2-.2 4.5 4.1-.6 4-.6 8.1-.9 12.1zM464.5 316.5c-9.3-.5-18-1-26.9-1.5v-14.8c8.1 0 16.3-.1 24.5.2.9 0 2.2 2.2 2.3 3.5.3 3.8.1 7.8.1 12.6zM490.3 213.5c.1-1.1.3-1.8.3-2.5.1-12.6.1-12.6 12.3-12.6 3.6 0 7.2 0 10.7.2 4.5.3 6.2 2.8 5.3 7.2-.3 1.2-.4 2.4-.6 3.7-.1 1.2-.2 2.4-.3 3.9-9.2.1-18.2.1-27.7.1z" fill="#fff"/>
  <path d="M325.6 356.3c-1.1 7.5-3.7 10-11.1 11-1.8.2-3.6.7-5.4.5-2.9-.3-5.7-1.1-8.6-1.7.7-2.9.6-6.2 2.1-8.5 3.7-5.9 6.1-6.1 12.6-3.8 3.3 1.2 6.7 1.7 10.4 2.5zM113.2 288.8c.7 12.9.6 13-11.3 11-1.8-.3-4 .4-5.5-.4-1.5-.7-3.3-2.6-3.5-4.1-.3-2.4.5-5 .8-6.6 7.2.1 13.4.1 19.5.1zM346.9 417.6c-2.1-5.3-3.9-10.2-6.1-15-1.6-3.5.6-4.1 3-4.4 3.9-.5 7.9-.8 11.8-1 .9 0 2.3.4 2.6 1 .6 1.5 1.6 3.9.9 4.8-3.9 5.2-8.2 9.9-12.2 14.6zM361.3 282.8c-7-5-15.3-7.6-19.4-16.1 6.7 1.3 12.7 2.6 18.7 3.7 2.1.4 4.2.2 6.4.3-.8 2.6-1.4 5.2-2.5 7.7-.7 1.4-2 2.7-3.2 4.4zM393.8 346.8c5.3 4.8 10.7 9.2 10.6 16.9 0 1.9-.1 4.2-1.2 5.6-.9 1.2-3.3 1.4-5 2-.2-1.7-.7-3.4-.4-5 .4-1.8 1.5-3.5 2.4-5.7-2-1.6-4-3.2-6.7-5.4-.4 3.5-.6 5.4-.9 7.5-4.5-4-3.9-13.2 1.2-15.9zM584.7 191.8v81.9h-1.2v-81.9c.4.1.8.1 1.2 0zM337.5 271.9c5.8 4.4 11.3 8.6 16.4 12.5-3.6 1.8-7.2 4-11 5.3-1.7.6-4.7.2-5.9-.9-2.7-2.6-2-13.6.5-16.9zM60.5 203.3c5.4 0 10 .5 14.5-.1 3.5-.5 4.1 1.3 4.3 3.7.2 2.2.4 4.8-3.2 4.7-2.9-.1-5.9-.1-8.8.2-6.6.5-5.9-4.4-6.8-8.5zM365.1 435c-.4 4.9-4.9 9.4-9.8 9.8-3.1.3-6.2-.2-6.3-4-.1-3.3.4-6.7 5.6-5.9 3.3.5 6.7.1 10.5.1zM49.8 289.2c.9 9.4.9 9.4-14 6.7.2-2.9.5-5.8.7-8.8 2.8.4 5.5.9 8.3 1.3 1.5.4 3.1.6 5 .8zM67 287c11 2.6 11 2.6 10.3 10.9-10.3 3.2-12.2-.2-10.3-10.9zM375.6 292.4c-3.2-3-6.3-5.3-8.7-8.2-.8-1 0-3.7.8-5.3.6-1.2 2.3-1.9 3.9-3.1 4.7 1.4 5.7 4.8 4 16.6zM328.2 350.9c-6.9-2.8-13.2-5.2-19.3-7.9-1-.5-1.3-2.6-2-3.9 1.4 0 2.9-.5 4.1 0 5.6 2.2 11.1 4.6 17.2 7.2v4.6zM585.1 337.2v35.9h-1.6v-35.9h1.6zM19.5 289.8c.4 8.5.2 8.7-9 7.8-.3-10.2.5-10.8 9-7.8zM337 411.1c-4.7-1.1-9.3-2.2-9.3-8.5 0-1.2.4-2.9 1.2-3.4 1-.5 3.3-.4 3.8.2 2.2 3.4 4 7.1 5.9 10.7-.6.4-1.1.7-1.6 1zM46.3 211.5c-3.2.5-6.2.9-9.3 1.3-.3-3.4-.4-5.9-.6-8.5 8.9-1.3 9.9-.7 9.9 7.2zM327.4 162c.8-2.8 1.5-5.4 2.3-8h7.7c.5 7.2.5 7.2-10 8zM339.8 412.7c.7 5.5 1.4 10.3 2 15.1-.5.2-.9.4-1.4.6-2.6-4.1-5.2-8.3-7.9-12.5 2.6-1.1 4.7-2 7.3-3.2zM377.6 166.3c-4.3.5-7.8 1-12.2 1.5.2-1.8 0-4.7.8-5 3.2-1.1 6.6-1.6 10-1.7.3-.1.9 3.2 1.4 5.2zM585.5 308.5v22.8h-1.6c-.9-7.7-1.5-15.3.1-23 .6 0 1.1.1 1.5.2zM356.4 162.8c-.4 2-.9 4-1.7 7.5-3-1.6-7.6-2.9-7.6-4.2 0-6.8 6-1.7 8.3-4.9.3.6.7 1.1 1 1.6zM9.6 204.5c2.3-.3 3-.4 3.7-.4h3.5c0 2.8.2 5.5-.2 8-.1.4-3.9.9-4.2.4-1.3-2.2-1.8-4.9-2.8-8zM311.2 174.2c-.6-7.2-.3-7.5 6.6-6.9 1.4 6.7.6 7.5-6.6 6.9zM318.2 155.1c.1 3.3.3 5.6.4 8.1-2.5.6-4.7 1.2-7 1.7-3.1-6.1 1.9-6.9 6.6-9.8zM337.5 164.5c-.3 2.6-.6 4.5-.9 6.7-3.4-.7-8.4 2.5-8.3-4.8 3-.6 5.9-1.2 9.2-1.9zM356.3 154.1c.9 6.6-4.8 4.4-8.2 6.4-.1-2.3-.2-4.2-.3-6.4h8.5zM327.7 150c1.5-1.2 2.9-2.5 4.5-3.6.4-.2 1.3.3 1.9.6 1.7.6 3.3 1.1 5 1.7-1.8.6-3.5 1.3-5.3 1.9-1.5.5-3 .8-4.6 1.2-.5-.7-1-1.2-1.5-1.8zM327.5 412.9c-6.5-1.9-8.9-7.7-5-12.4 1.6 4.1 3.3 8.2 5 12.4zM327.9 418.4c-2.4.3-4.8.6-7.5.9-.9-1.8-1.8-3.7-3-6.2 3.9 1.6 7.2 3 10.6 4.4-.1.3-.1.6-.1.9z" fill="#fff"/>
  <path d="M151.8 261c-4.4-3-8.3-5.7-11.8-8.1-3.3 1.4-6.4 2.7-8.7 3.6-.4 4.4-.2 9.2-1.6 13.4-.6 1.7-4.8 2.1-8.8 3.6v-18.2c-.9-.1-1.7-.4-2.3-.2-6.5 2.7-8.6 1.4-8.6-5.7 0-2.8.6-5.7.8-8.5.3-4.7 2.3-7.9 8.7-8.2-2.6-3-4.3-5.5-6.4-7.5-3.9-3.7-5.4-7.8-4-13.1.4-1.5-.1-3.8-1.1-4.8-7.9-8-8.9-17.4-5.3-27.3 4.3-11.8 10.8-22 21.3-29-1.9-5.2-.6-12.1 2.8-14.7 4.2-3.2 9.1-2 13.4-1 1.8.4 2.8 4.2 4.2 6.6 5.9-.6 13.2-2.4 20.2-1.9 7.7.6 15.4 2.7 22.7 5.2 9.8 3.3 18.7 8.6 26.7 15.5 8.6 7.4 17.9 13.8 28 19.2 7 3.7 6.6 9.1.7 14.5-3.6 3.4-6.9 7.2-9.8 11.1-1.7 2.4-2.8 5.5 0 8.3.6.6 1.2 1.9.9 2.4-4.4 9.1 1.9 18.2-.3 27.6-1.8 7.6-3.7 10.2-11.1 7.2v20.2c-1.4.1-2.5.1-3.5.3-6.8 1.2-9.3-1.2-8.3-8.1.7-4.8-.3-5.7-4.9-4.3-4.9 1.5-9.7 3.1-14.8 4.8 2.3 2.9 4.6 5.4 6.3 8.2 2.4 3.9.1 6.6-2.7 9.2-1.1 1-2.2 3.2-1.9 4.4 2.1 7.5 4.4 15 7.1 22.3.7 2 2.7 3.4 4 5.3 1.3 2 2.6 4 3.6 6.2 2.1 4.5 4.6 9 5.7 13.8.9 3.8-.3 8.1-.3 12.2 0 4.2.3 8.5.6 12.7.3 4.3.8 8.6 1.2 12.9.1 1.4.1 2.9.3 4.3.2 2 1.6 5 .7 5.9-2.4 2.7-5.5 5-8.8 6.6-2 1-5.3 2.8-7-1.9 2.8-.5 5.5-.7 8-1.6 1.1-.4 1.6-2.2 2.4-3.3-1.3-.2-2.8-.9-4-.6-5.4 1.6-10.8 3.6-14.2 4.7 2.1 1.7 6.6 3.7 8.5 7.2 2 3.6 2.9 9.1 1.7 13-3.4 11.6-6.2 23.6-14.1 33.2-3.3 4-7.5 7.2-11.4 10.9 16.7 1.4 33.4 2.8 51.6 4.3-1.8 1.6-2.6 2.8-3.3 2.8-10.6.1-21.5 1.3-31.9-.3-6.5-1-12.5-.9-18.9-.8-10.3.1-20.6-1.6-31.2-2.6.2-.6.5-1.5 1-3.1-6.1.4-11.6.8-17 1-.8 0-2.2-.3-2.4-.8-3.1-6.6-8.8-2.9-13.4-3.6-2.2-.4-4.3-.9-6.4-1.6-1-.3-1.8-1.3-2.8-1.6-4-1.1-8.6-1.1-11.9-3.2-5.8-3.8-12.1-2.3-18.7-3.3-.1-1-.2-2.2-.3-4 4.1.7 7.8 1.9 11.5 2 7.2.3 14.6-.5 21.7.4 7.6.9 15.1 3.6 22.7 5 7.4 1.3 14.9 1.8 22.3 2.9 1.9.3 3.6 1.4 5.4 2.2 1.3.6 2.5 1.4 5.1 2.9-1.2-5.1-2.1-8.7-2.9-12.3-8.2 7.1-17.8 5.9-23.7-4.3-4.2-7.3-7.2-15.6-9.5-23.8-1-3.5.6-8.3 2.3-11.8 1.2-2.5 4.3-4.8 8.2-3 1.8.8 4 .7 6 1 .1-.4.2-.9.3-1.3-5.2-1.3-10.4-2.7-15.6-3.7-5.6-1.1-6.9-2.7-5.9-7.9 1.9-9.4 3.9-18.9 5.9-28.3-3.3-1.6-6.8-3.1-10-4.9-3.1-1.8-4-4.8-2.4-7.9 3.7-7.3 7.8-14.5 11.5-21.8 2.6-5.1 4.9-10.3 7.6-15.3 4.6-8.5 9.4-16.8 14.1-25.2.6-1 1.6-2.6 1.2-3.2-4.4-6.6 0-9.9 5-13.4zm-10.7-54.6c-7 5.3-13.8 8.4-21.7 3-.6-.4-3.6 1.2-4.2 2.5-1.7 4 1.6 9.8 5.8 10.2 4.3.4 5.1 2.9 5.7 6.5.2 1.5 2 4.1 2.7 4 5.9-1.1 7.7 3.3 8.2 7 1.2 7.9 6.9 10.9 13 13.7 10.3 4.7 21.1 4.8 32.3 4.9 14.8.1 27.3-5.4 38.9-13.4 4.4-3 8.3-7.5 6.8-13.6-.8-3.3-2.6-6.6-4.7-9.4-2.7-3.7-2.2-7-.2-10.5 2-3.3 3.9-6.6 6-10-3.5-1.3-6.2-2.2-8.8-3.4-6.3-2.9-12.3-3.3-18.8-.2-4.8 2.3-9.8 2.5-15.3.6-4.7-1.7-10.4-2.2-15.4-1.3-6.2 1.1-11.9 4.1-16.8-2.4-.3-.4-1.4-.6-1.9-.4-5.4 1.9-10.7 4-16.7 6.2 2.1 2.5 3.6 4.2 5.1 6zm72.9-38.6c0-.6.1-1.2.1-1.8-7.7-4.2-15.5-8.3-23-12.7-12.2-7.1-25.6-8.4-39.2-9.1-.8 0-1.7.4-2.5.7-4 1.3-8.1 2.3-11.9 4-5.8 2.7-11.3 6-17.3 9.4 2.1 1.5 3.1 2.2 4.4 3.2-4 3.3-7.7 6.3-11.2 9.5-1.8 1.6-3.9 3.4-4.6 5.5-2.1 7.3-2.5 14.7 0 22.1 1.4 4.3 4.7 5.8 8.3 4.3 9.1-3.7 18.3-7.2 27.5-10.8 5.5-2.1 11-4.3 16.6-6.2 12.6-4.3 25.2-8.4 37.8-12.6 5-1.7 10-3.6 15-5.5zm-43.9 254.3h7.2c2.1 0 4.3-.5 6.3-.2 7.9 1 7.9 1.1 10.4-6.7.5-1.7 1.5-3.4 1.5-5.1.1-5 .2-10.1-.7-15-.3-1.4-3.8-2.8-6-3.1-1.2-.2-3 1.7-4.1 3-1.5 1.8-2.7 3.8-3.7 5.9-3.6 6.6-7 13.4-10.9 21.2zm5.6-140.4c1.1 6.7 2.1 12.9 3.3 20.2 2.6-3.3 4.6-5.9 6.7-8.5.5.3.9.6 1.4.9-2 3.1-3.9 6.1-6.5 10.2 2.5-1.6 3.9-2.5 6.6-4.3-1.5 3.1-2.2 4.7-3.5 7.4 1.9-1 2.7-1.4 3.7-1.9-.3 1.6-.5 3.1-.8 4.8 1.6-.6 2.8-1 5.1-1.8-1.5 2.9-2.5 4.8-3.5 6.9 6.9 1.4-.1 4.7 1.1 7.1 1.5-.8 2.8-1.5 5.2-2.8l-1.6 4.8c.7.2 1.3.3 2 .5.5-2 1.7-4.2 1.3-6-1.9-9-4.1-18-6.5-26.9-2.3-8.3-4.9-10.3-14-10.6zm26.9 95.4c6 .3 8.7-2.4 7.5-8-1.7-8.1-3.6-16.3-5.8-24.3-1.7-6-4-11.8-6-17.7-.5.1-1 .1-1.6.2-.5 3.7-1 7.3-1.3 9.5 1.8 3.2 4 5.5 4.2 7.9.7 8 7.6 14.6 5.2 23.3-.1.2.3.6.5.9 2 3.5 1.5 6.3-2.7 8.2zm-15.1 52.4c-2.5.5-4.3 1-6.2 1.2-4.4.4-10-.9-12.8 1.4-2.3 1.9-1.1 7.9-1.4 12.1 0 .2.2.3.2.5 8.7.7 18.2-6.1 20.2-15.2zm-57.1-75.1c-.6 0-1.1-.1-1.7-.1-1.2 7-2.3 14-3.5 21.1 5.5.3 8.2-2.1 10.4-9.5-1.9 1.8-3.4 3.2-4.8 4.6-.3-.3-.7-.6-1-1 4-6 8.1-12.1 12.1-18.1-.1 0-.2-.1-.4-.1-2.6 2.7-5.3 5.5-8.4 8.8-1.4-3-2.1-4.3-2.7-5.7zm21.8-88.2c-.4.6-.8 1.2-1.1 1.8 4.8 4.1 9.3 8.3 14.4 12 1 .7 3.9-.8 5.5-1.9.6-.4.6-3.2.1-3.5-5.9-3.7-11.7-7.8-18.9-8.4zm-1.2 26.5c1.1-1.5 2-2.9 3.1-4 1.2-1.1 2.7-2 4-3l.6.9c-2.4 3.2-4.7 6.3-7.1 9.5.5.5 1 .9 1.5 1.4 2.7-2.5 5.3-5.1 8-7.6.2.3.3.6.5 1 1.8-1.1 3.7-2.3 5.1-3.2-5-3-9.2-5.4-13.3-7.9-3-1.8-4.9-1.1-6 2.1 10.8.5 1 7 3.6 10.8zm-.7 23.8c-.3-.3-.5-.6-.8-.9 2.2-3 4.3-6 6.5-9l-.6-.3c-1.3.9-2.7 1.8-4 2.7-.4-.4-.7-.8-1.1-1.1 3.5-4.6 7.1-9.2 10.7-13.9-12.7 4.8-11 18.8-18.1 26.9 1.6.9 3.1 1.8 5.2 3 2.3-3.1 4.6-6.2 7-9.4-.2-.1-.3-.3-.5-.4-1.6.7-2.9 1.6-4.3 2.4zm36.9-38.5.9 1.2 4.8-3.6c-2.2-2.4-4.2-5.4-6.9-7-.7-.4-5.4 3.1-5.5 5-.5 4.1 3 5.1 6.7 4.4zm-51.3-23.9c-1.1-5.6-1.8-9.9-2.9-14.2-.3-1-2-1.7-3-2.5-.8 1.1-2.1 2-2.4 3.2-1.4 5.3.8 9.4 8.3 13.5zm-19.5-16.7c-5 7.5-4.5 12.9 1.3 14.5 3.4-5.8 3.1-10.7-1.3-14.5zm47.9 26.4c7.2 7.8 15 8.2 18.7 0h-18.7zm-31.1-124.3c-.1.2-.2.5-.4.7-.4 0-.8-.1-1.1 0-1.6 1-3.6 1.7-4.5 3.1-.7 1.2.1 3.2.2 4.9l5.1-1.2c.5-.1 1.2-.1 1.5-.4 1.4-1.4 2.7-2.9 4.1-4.4-1.6-.9-3.2-1.8-4.9-2.7zm6.7 289.3c-.2.3-.5.7-.7 1 3.5 1.8 6.9 3.8 10.4 5.3.5.2 2.7-1.7 2.8-2.8.2-1.4-1-2.9-1.5-4.4-3.8.4-7.4.7-11 .9zm26.4-39.3c.1-.6.1-1.3.2-1.9-7.8-1-15.5-2-23.3-3l-.3 2.1c7.8.9 15.6 1.8 23.4 2.8zm-25.8 26c-3.3-2.8-5.9-5.1-8.6-7.4-.4.3-.8.5-1.2.8.5 2.7 1 5.3 1.7 8.5 2.7-.6 5-1.1 8.1-1.9zm-15.2-90.1c-5.3 4.1-7.8 12.8-5.7 16.6 2-5.6 3.9-11.1 5.7-16.6zM157 428.5c-.7-4.4-1.4-8.2-2-12.2-4.8 3.6-4.3 7.1 2 12.2zm26.9-40.2c-.1-.8-.1-1.6-.2-2.3l-14.7 1.5c0 .6.1 1.2.1 1.8 5-.4 9.9-.7 14.8-1z"/>
  <path d="M252.7 285.3v-61.4c0-1.5-.1-2.9 0-4.4.2-3.3-.7-5-4.6-4.7-2 .2-4.2-1-6.3-1.5 0-.5.1-1 .1-1.5h9.4c2.9-9.7 2.9-9.7-7.1-12.4 1.6-.9 2.8-1.4 3.8-2.2 1.3-1.1 3.3-2.3 3.6-3.7 1.5-7.2 2.4-14.5 3.6-21.8.7-4.5 5.3-9.6 8.3-9.5 3.6.1 8.6 5.7 9.1 10.3.7 6.6 1.3 13.1 2.2 19.7.2 1.5 1.6 2.9 2.6 4.5-3.6 5.9-3.7 11.8-1.2 15-1 4.8-2.4 8.5-2.3 12.2.3 19.3 1.5 38.6 1.4 57.9 0 5.7 2.9 5.4 6.1 5.4 5.8 0 11.7-.2 17.5-.9 1.2-.1 2.9-2.8 3-4.3.3-7.6.1-15.2.1-22.7 0-1.1.5-2.2.9-3.7 3.7 4.5 4.8 60.5.3 66.1-.5-4-1.1-8-1.6-12h-19.1c-1.2 0-2.6-.5-3.6-.1-1.5.7-3.9 2-3.9 3 0 6.9.9 13.9.9 20.8.1 7.7-.4 15.5-.8 23.2-.1.9-1.4 2.2-2.4 2.5-6.3 2.2-17.9-1.1-21.5-5.2.5-2.5 1.1-4.1 1.1-5.7 0-8.8-.1-17.6-.2-26.4 0-3.9.1-7.8-.4-11.6-.1-1.1-1.9-2.7-3.1-2.9-4.3-.7-8.7-1.1-13.1-1-1 0-2.9 2.1-2.9 3.3.2 11.9.7 23.8 1.1 35.7.1 3.7.5 7.5.8 11.3-6.9 1.9-11.1.8-15.5-4.8 2.5 0 4.1-.1 5.7 0 2.9.3 5.3.4 4-3.9-.6-1.8-.4-3.9-.4-5.9-.5-12.9-1.2-25.8-1.3-38.7-.1-11 .6-22 1-33 0-1.1 1.4-2.1 2.1-3.2.7 1.1 1.9 2.2 2 3.3.2 2.6-.1 5.3-.4 8-.8 6.6.1 7.8 6.4 7.7 4.7.1 9.4-.5 14.6-.8zm12-118.4c-.7-.1-1.3-.3-2-.4-1 1.7-2.7 3.3-3 5.1-1 5.3-2.1 10.8-2.1 16.2 0 25.2.7 50.3.7 75.5 0 26.9-.5 53.8-.6 80.7-.1 9 1.7 10.6 11.4 10.8.7-5.5 2.1-11.1 2.1-16.6 0-10-1-20.1-1.1-30.1-.1-14.5.2-29 .2-43.5 0-4.3-.6-8.6-.6-13 0-7 .3-14 .2-21-.1-5.1-.8-10.2-1-15.3-.3-11.9-.1-23.8-.8-35.6-.1-4.3-2.2-8.6-3.4-12.8zm23.5 138v-.3c3.3 0 6.5.2 9.7 0 5.4-.3 3.8-4.6 4-7.8.3-2.9 0-5.5-4.1-5.3-6.3.2-12.7.1-19 .5-1.4.1-3.7 1.8-4 3.2-1.8 8.5-.4 9.9 8.3 9.7 1.9-.1 3.5 0 5.1 0zm-55.7-14.4c-.8 12.6-.8 12.6 11.2 12.5 1.8 0 3.7.3 5.4-.1 1.4-.3 3.6-1.4 3.6-2.2 0-3.3-.6-6.5-1-9.8 0-.2-.6-.4-.9-.4h-18.3zM387.3 413.7c24.1 1.7 48.1 3.3 72.6 5-.8 1.3-1.6 2.7-2.6 4.2 14.3 4.6 28.7 8.5 44 7.9 13.2-.5 26.2 2.4 39.3 4.2 12.7 1.8 24.2 8.6 37.4 7.4 1.7-.1 3.4.9 5.3 1.4-.5 3.8-1.8 5.7-5.7 3.6-.6-.3-1.4-.8-2-.7-9.2 1.6-17.5-2.8-26.2-4.3-10-1.8-19.8-5-29.9-5.9-11-1.1-22.2 0-33.3-.4-4.8-.2-9.6-1.2-14.2-2.7-8.9-2.9-17.5-6.7-26.5-9.4-4.7-1.4-9.8-1.6-14.8-1.9-12-.9-24.1-1.4-36.1-2.5-2.7-.2-5.2-2-7.7-3.1.1-1 .2-1.9.4-2.8zM387.3 291.5h26c.9-10.9-1.4-21.7 2.5-32h2c.6 30.4 1.1 60.9 1.7 91.3l-2.7.6c-.7-1.8-2-3.6-2.1-5.5-.3-7-.2-14-.3-21-.1-8.9-.9-9.6-9.8-10-4.3-.2-8.6-.6-12.9-1.1-1.2-.1-2.4-.9-3.5-2.1 7.9-2.6 15.6-1.8 24.4.5 0-4.7.7-9.9-.4-14.6-.4-1.4-6-1.7-9.2-2.2-4.2-.6-8.5-.8-12.7-1.4-.7 0-1.4-1.1-3-2.5zM308.7 406.9c-4.7.3-8 .9-11.2.6-12-1.3-24.1-2.7-36.1-4.3-10.8-1.5-21.4-3.4-32.2-5.1-5.3-.8-10.6-1.5-15.9-2.3-1.8-.3-3.5-.8-5.3-1.3.1-.8.3-1.5.4-2.3 6.7.4 13.4.8 20.2 1.3 7.7.7 15.4 1.4 23.1 2.4 6.3.8 12.6 2.2 19 3.1 4.6.7 9.3 1.1 14 1.8 6.9 1 13.8 2.1 20.7 3.3.7.1 1.3 1 3.3 2.8zM209.7 302.4l3.6-.6c.6-4.5.6-4.5-7.7-14.9 3.5-1.8 7.1-3.6 11.1-5.6 1 12.4 2.5 25.7.2 39-.6.1-1.3.1-1.9.2-.4-2.8-1.1-5.6-1.1-8.4 0-3.8.2-7.4-4.2-9.7zM432.1 175.1c-2.5-10-8.9-10.1-16.3-7.7-.2-.6-.4-1.1-.7-1.7 3-1.9 5.9-5 9.1-5.3 2.8-.3 6.7 1.9 8.5 4.2 1.6 2.1 1.1 5.8 1.5 8.8-.7.7-1.4 1.2-2.1 1.7zM132.2 286.8c-.9 2.5-1.9 4.5-2.4 6.7-.7 3.7-1 7.4-1.5 11.1-.7-.1-1.4-.1-2.1-.2v-26.1c.4-.1.8-.2 1.2-.4 1.7 3.2 3.4 6.3 4.8 8.9zM322.6 261c.8 1.5 2.1 3.1 2.2 4.6.2 6.6.2 13.2-.2 19.7-.1 1.6-2.1 3.1-3.3 4.6-.2-1.5-.6-3-.6-4.6-.1-6.3-.1-12.6 0-19 0-1.7.3-3.4.4-5 .4 0 .9-.2 1.5-.3zM567.7 396.6h-32.8c3.5-6 7.1-1.9 10.2-2.1 3.8-.2 7.7-.9 11.5-.8 3.7 0 7.4.7 11.1 1.2-.1.5 0 1.1 0 1.7zM493.5 392.3c7.5-6.9 16.2-1.1 23.6-3.8.3-.1 1.3 1.7 2.8 3.8h-26.4zM440.3 398.8c-6.9.7-13.9 1.5-21 2.2 2.3-4.2 15.7-6.5 20.8-3.8 0 .5.1 1 .2 1.6zM33.4 348.1c4.4-5.2 15.3-6.2 20.8-2.2-7.1.8-13.4 1.5-20.8 2.2zM465.3 402.5h-19c1.6-3.5 11.8-3.9 19 0zM478.7 406.4c1.1-3.9 1.1-3.9 12.3-2.5-.1 3.5-.1 3.5-12.3 2.5zM426.1 390.7c-5.6.7-11.2 1.5-16.9 2.2.5-3.9 11-5.8 16.9-2.2zM248.7 375.7c-4-.2-8.1-.4-12.1-.6v-2.3h12c0 1 .1 1.9.1 2.9zM358.4 213.7c5 5.9 5.5 8.5 1.7 11.5-1 .8-3.8.8-4.8-.1-2.9-2.4-1.6-6.7 3.1-11.4zM374.6 226.4c2.5-1.1 4.8-2 7.1-2.9-.1-.5-.3-1-.4-1.5-1.8-.7-3.5-1.3-5.5-2 1.6-4.5 5.2-3.6 7.4-2.1 2 1.3 5.1 3.3 1.8 7.2-3.7 4-5.4 4.8-10.4 1.3zM399.7 220.5l-6.1 6.1c-1.2-1.9-3.2-3.9-3.3-5.8-.1-1.6 2.3-3.2 3.6-4.9 1.5 1.2 3.1 2.5 5.8 4.6zM370.3 252.4c2-5.9 2.8-6 10.3-2.9-2.1 6.6-6.6.5-10.3 2.9zM373.3 354.5c-3.9 1.6-7.7 3.9-11.8 4.4-1.6.2-4.7-3.3-5.3-5.7-.8-2.8 5-7.8 8.1-6.9 3.3 1 6.2 3.5 9.3 5.4-.1.9-.2 1.8-.3 2.8zM370.4 320.4c-4.4 3.4-8.9 5.5-13.9 3.2-1.5-.7-3.3-4.5-2.9-4.8 2.5-2.6 5.3-5.8 8.5-6.4 2.1-.4 5 3 7.4 4.9.7.5.6 1.9.9 3.1z"/>
  <path d="M141.1 206.4c-1.5-1.8-3-3.5-5.1-6 6-2.2 11.3-4.3 16.7-6.2.5-.2 1.6 0 1.9.4 4.9 6.5 10.7 3.5 16.8 2.4 4.9-.9 10.6-.4 15.4 1.3 5.5 1.9 10.6 1.7 15.3-.6 6.5-3.1 12.5-2.7 18.8.2 2.6 1.2 5.3 2.1 8.8 3.4-2 3.4-4 6.7-6 10-2.1 3.5-2.6 6.8.2 10.5 2.1 2.8 3.9 6.1 4.7 9.4 1.6 6.1-2.4 10.6-6.8 13.6-11.6 8-24.1 13.4-38.9 13.4-11.2-.1-22-.2-32.3-4.9-6.1-2.8-11.8-5.8-13-13.7-.6-3.7-2.3-8.1-8.2-7-.7.1-2.5-2.5-2.7-4-.5-3.6-1.3-6.1-5.7-6.5-4.2-.4-7.5-6.2-5.8-10.2.5-1.3 3.6-2.9 4.2-2.5 7.9 5.4 14.7 2.3 21.7-3zm47.2 31.5c-4.5 1.1-8.6 1.4-12 3.1-2.3 1.2-3.5 4.3-5.2 6.6 2.5 1.1 4.9 3 7.5 3.2 4 .3 8-.4 12-1 3.1-.5 6.5-.9 9.2-2.4 2.6-1.4 3.1-4.3-.4-5.7-3.7-1.6-7.6-2.6-11.1-3.8zm7.3-18.7c-3.2 1-5.2 1.5-7.3 2.2.5 3.7 2.3 4.9 5.9 3.3 3.5-1.6 6.3-3.7 5-7.9-1.3-4.1-5.1-4.9-11.8-2.3 2.9 1.5 4.8 2.7 8.2 4.7zm-23.9 6.2c2.4-3.6 4.9-5.7 4.8-7.8-.1-2-2.8-3.9-4.4-5.8-1.5 1.8-4 3.6-4.2 5.6-.1 2 2 4.3 3.8 8zm35.9-2.4c4.8-4.6 4.9-6.6.2-11.2-5.8 4.4-5.9 8.7-.2 11.2zM214 167.8c-5 1.8-10 3.8-15.1 5.5-12.6 4.3-25.2 8.4-37.8 12.6-5.6 1.9-11.1 4.1-16.6 6.2-9.2 3.6-18.4 7.1-27.5 10.8-3.7 1.5-6.9 0-8.3-4.3-2.4-7.4-2.1-14.8 0-22.1.6-2.1 2.8-3.9 4.6-5.5 3.5-3.2 7.2-6.2 11.2-9.5-1.3-1-2.3-1.7-4.4-3.2 6.1-3.3 11.6-6.6 17.3-9.4 3.7-1.8 7.9-2.7 11.9-4 .8-.3 1.7-.7 2.5-.7 13.6.6 27.1 2 39.2 9.1 7.6 4.4 15.3 8.5 23 12.7.1.6 0 1.2 0 1.8zm-101 14.1c3.2-2.5 6.3-4.9 9.5-7.4-.3-.3-.5-.6-.8-.9-1 .5-1.9 1-2.9 1.4-.1-.2-.3-.4-.4-.6 2.8-3.4 5.6-6.8 8.4-10.1-.5-.4-.9-.8-1.4-1.2-5.1 4.6-10.1 9.2-15.2 13.9.6.4 1.1.9 1.7 1.3.4 1.2.8 2.4 1.3 3.6-4.2 2.2-4.2 2.2-1.7 6.1 5.2-4 10.5-8.1 15.8-12.1-.3-.4-.5-.8-.8-1.2-2.2 1.5-4.3 3.3-6.7 4.6-2.2 1.2-4.6 1.8-6.8 2.6zm4.7 18.5c9-4.2 17.7-8.3 26.4-12.3-.2-.5-.5-1-.7-1.5-1.2.3-2.4.7-4.5 1.3 2.1-1.9 3.6-2.9 4.6-4.3.5-.7.3-2.1-.1-3-.2-.5-1.5-.5-2.3-.7-3-.7-5.9-1.4-10.4-2.5-5.7 4.4-12.8 9.9-19.9 15.4.1.6.2 1.3.3 1.9 5.8-2 5.7 2.1 6.6 5.7zM170.1 422.1c4-7.8 7.4-14.5 10.9-21.3 1.1-2 2.3-4.1 3.7-5.9 1.1-1.3 2.9-3.1 4.1-3 2.2.3 5.8 1.7 6 3.1.9 4.9.7 10 .7 15 0 1.7-1 3.4-1.5 5.1-2.5 7.7-2.5 7.6-10.4 6.7-2.1-.3-4.2.2-6.3.2-2 .1-3.9.1-7.2.1zM175.7 281.7c9.1.3 11.7 2.3 13.9 10.7 2.3 8.9 4.6 17.9 6.5 26.9.4 1.8-.8 4-1.3 6-.7-.2-1.3-.3-2-.5.4-1.2.8-2.5 1.6-4.8-2.4 1.3-3.7 2-5.2 2.8-1.2-2.5 5.8-5.7-1.1-7.1 1-2 2-3.9 3.5-6.9-2.3.8-3.5 1.3-5.1 1.8.3-1.7.5-3.2.8-4.8-1 .5-1.8.9-3.7 1.9 1.3-2.7 2-4.3 3.5-7.4-2.7 1.8-4.1 2.7-6.6 4.3 2.6-4 4.6-7.1 6.5-10.2-.5-.3-.9-.6-1.4-.9-2 2.6-4.1 5.2-6.7 8.5-1.1-7.4-2.1-13.6-3.2-20.3zM202.6 377.1c4.2-1.9 4.7-4.7 2.7-8.3-.2-.3-.6-.7-.5-.9 2.5-8.7-4.5-15.2-5.2-23.3-.2-2.5-2.4-4.7-4.2-7.9.3-2.2.8-5.8 1.3-9.5.5-.1 1-.1 1.6-.2 2 5.9 4.4 11.7 6 17.7 2.2 8 4 16.2 5.8 24.3 1.2 5.7-1.5 8.5-7.5 8.1zM187.5 429.5c-2 9.1-11.4 15.9-20.1 15.2-.1-.2-.2-.3-.2-.5.3-4.2-.9-10.2 1.4-12.1 2.7-2.3 8.4-1 12.8-1.4 1.7-.2 3.6-.7 6.1-1.2zM130.4 354.4c.6 1.4 1.3 2.7 2.6 5.7 3.2-3.3 5.8-6.1 8.4-8.8.1 0 .2.1.4.1-4 6-8.1 12.1-12.1 18.1.3.3.7.6 1 1 1.5-1.4 2.9-2.8 4.8-4.6-2.2 7.3-4.8 9.8-10.4 9.5 1.2-7.1 2.3-14.1 3.5-21.1.7 0 1.2.1 1.8.1zM152.2 266.2c7.2.7 13 4.8 18.9 8.4.6.3.5 3.2-.1 3.5-1.7 1.1-4.6 2.6-5.5 1.9-5-3.7-9.6-7.9-14.4-12 .4-.6.8-1.2 1.1-1.8zM151 292.7c-2.6-3.7 7.2-10.2-3.6-10.8 1.1-3.2 3-3.9 6-2.1 4.1 2.6 8.3 5 13.3 7.9-1.4.9-3.3 2-5.1 3.2-.2-.3-.3-.6-.5-1-2.7 2.5-5.3 5.1-8 7.6-.5-.5-1-.9-1.5-1.4 2.4-3.2 4.7-6.3 7.1-9.5l-.6-.9c-1.4 1-2.8 1.8-4 3-1.2 1.1-2 2.5-3.1 4z" fill="#fff"/>
  <path d="M150.3 316.5c1.4-.8 2.8-1.7 4.2-2.5.2.1.3.3.5.4-2.3 3.2-4.7 6.3-7 9.4-2.1-1.2-3.6-2.1-5.2-3 7.1-8.1 5.4-22.1 18.1-26.9-3.6 4.7-7.2 9.3-10.7 13.9.4.4.7.8 1.1 1.1 1.3-.9 2.7-1.8 4-2.7l.6.3c-2.2 3-4.3 6-6.5 9 .3.4.6.7.9 1zM187.2 278c-3.7.7-7.2-.3-6.8-4.3.2-1.9 4.8-5.4 5.5-5 2.7 1.6 4.7 4.5 6.9 7l-4.8 3.6c-.2-.5-.5-.9-.8-1.3zM135.9 254.1c-7.4-4.2-9.7-8.2-8.3-13.5.3-1.2 1.6-2.2 2.4-3.2 1 .8 2.7 1.5 3 2.5 1.1 4.3 1.8 8.6 2.9 14.2zM116.4 237.4c4.4 3.8 4.7 8.7 1.3 14.5-5.8-1.6-6.3-7-1.3-14.5zM164.3 263.8H183c-3.7 8.2-11.5 7.8-18.7 0zM133.2 139.5l5.1 2.7c-1.4 1.5-2.7 3-4.1 4.4-.3.3-1 .2-1.5.4l-5.1 1.2c-.1-1.6-.9-3.7-.2-4.9.8-1.4 2.9-2.1 4.5-3.1.3-.2.7 0 1.1 0-.1-.2 0-.5.2-.7zM139.9 428.8c3.6-.3 7.2-.5 11-.8.5 1.4 1.7 3 1.5 4.4-.1 1.1-2.3 3-2.8 2.8-3.6-1.5-7-3.5-10.4-5.3.2-.4.5-.7.7-1.1zM166.3 389.5c-7.8-1-15.6-1.9-23.4-2.9l.3-2.1c7.8 1 15.5 2 23.3 3-.1.7-.1 1.3-.2 2zM140.5 415.5c-3.1.7-5.4 1.3-8.1 1.9-.6-3.2-1.1-5.8-1.7-8.5.4-.3.8-.5 1.2-.8 2.7 2.3 5.3 4.6 8.6 7.4zM125.3 325.4c-1.9 5.5-3.7 10.9-5.7 16.6-2.1-3.7.4-12.5 5.7-16.6zM157 428.5c-6.3-5.1-6.8-8.6-2-12.2.7 4 1.3 7.9 2 12.2zM183.9 388.3l-14.7.9c0-.6-.1-1.2-.1-1.8l14.7-1.5c-.1.8 0 1.6.1 2.4zM264.7 166.9c1.2 4.3 3.3 8.5 3.5 12.8.6 11.8.5 23.7.8 35.6.1 5.1.9 10.2 1 15.3.1 7-.3 14-.2 21 0 4.3.6 8.6.6 13 0 14.5-.4 29-.2 43.5.1 10 1.1 20.1 1.1 30.1 0 5.5-1.4 11.1-2.1 16.6-9.7-.3-11.5-1.8-11.4-10.8.2-26.9.6-53.8.6-80.7 0-25.2-.6-50.3-.7-75.5 0-5.4 1.1-10.8 2.1-16.2.3-1.8 2-3.4 3-5.1.5.1 1.2.3 1.9.4zM288.2 304.9h-4.9c-8.8.1-10.1-1.3-8.3-9.7.3-1.3 2.5-3.1 4-3.2 6.3-.5 12.6-.3 19-.5 4-.1 4.3 2.4 4.1 5.3-.3 3.1 1.4 7.4-4 7.8-3.2.2-6.5 0-9.7 0-.2.1-.2.2-.2.3zM232.5 290.5h18.2c.3 0 .9.2.9.4.4 3.3 1.1 6.5 1 9.8 0 .8-2.2 1.9-3.6 2.2-1.7.4-3.6.1-5.4.1-12 .1-12 .1-11.1-12.5zM364.5 89.4c.7-1.9 1.2-5.4 2.3-5.6 2.9-.5 6.1.3 9.1.8.1 0 .1 3.9-.5 4.1-3.1 1.1-6.4 1.6-9.6 2.2-.4-.4-.9-.9-1.3-1.5z" fill="#fff"/>
  <path d="M188.3 237.9c3.6 1.2 7.5 2.2 11.1 3.7 3.5 1.4 3 4.3.4 5.7-2.7 1.5-6.1 1.9-9.2 2.4-4 .6-8 1.3-12 1-2.6-.2-5-2.1-7.5-3.2 1.7-2.3 2.9-5.4 5.2-6.6 3.4-1.6 7.5-1.9 12-3zM195.6 219.2c-3.4-2-5.4-3.2-8.2-4.8 6.7-2.6 10.5-1.8 11.8 2.3 1.3 4.2-1.6 6.4-5 7.9-3.6 1.6-5.4.4-5.9-3.3 2.1-.6 4.1-1.2 7.3-2.1zM171.7 225.4c-1.8-3.7-3.9-6-3.7-8.1.2-2 2.7-3.7 4.2-5.6 1.6 1.9 4.3 3.8 4.4 5.8 0 2.2-2.5 4.3-4.9 7.9zM207.6 223c-5.7-2.5-5.6-6.8.2-11.2 4.7 4.5 4.6 6.6-.2 11.2zM117.7 200.4c-.9-3.5-.8-7.7-6.6-5.7-.1-.6-.2-1.3-.3-1.9 7.1-5.5 14.3-11 19.9-15.4 4.5 1.1 7.5 1.8 10.4 2.5.8.2 2.1.2 2.3.7.4.9.5 2.3.1 3-1 1.4-2.5 2.4-4.6 4.3 2.1-.6 3.3-1 4.5-1.3.2.5.5 1 .7 1.5-8.7 4-17.4 8-26.4 12.3zM113.1 182l-1.2-3.6c-.6-.4-1.1-.9-1.7-1.3 5.1-4.6 10.1-9.2 15.2-13.9.5.4.9.8 1.4 1.2-2.8 3.4-5.6 6.8-8.4 10.1.1.2.3.4.4.6 1-.5 1.9-1 2.9-1.4.3.3.5.6.8.9-3.2 2.5-6.3 4.9-9.5 7.4h.1z"/>
  <path d="M113 181.9c2.3-.8 4.6-1.4 6.7-2.6 2.4-1.3 4.5-3 6.7-4.6.3.4.5.8.8 1.2-5.3 4-10.5 8.1-15.8 12.1-2.4-3.8-2.4-3.8 1.7-6.1 0 .1-.1 0-.1 0z"/>
  <text transform="translate(154.396 56.475)"><tspan x="0" y="0" font-family="Peanuts" font-size="38">IT JUST DOESN&apos;T</tspan><tspan x="0" y="45.6" font-family="Peanuts" font-size="38">SEEM POSSIBLE</tspan></text>
</svg>
