<svg xmlns="http://www.w3.org/2000/svg" viewBox="0 0 595.3 477.8" xml:space="preserve">
  <path fill="#fff" d="M0 0h595.3v477.8H0z"/>
  <path d="M0 6.7C7.7 6 15.4 4.6 23.1 4.6c47 0 94 .2 140.9.5 39.7.2 79.4.7 119.1.8 37.6.1 75.2-.2 112.8-.3 36.6-.1 73.1-.1 109.7.1 21.2.1 42.4.6 63.6 1 6.2.1 12.4.8 18.7 1 3.8.1 5.1 2 5.1 5.6-.1 13.6 0 27.3 0 40.9V90c0 31.6.1 63.1-.1 94.7 0 10.1-.9 20.1-.9 30.2.1 17.5 1 35 1.1 52.4.1 25.2-.1 50.4-.2 75.6-.2 29.4-.3 58.8-.6 88.2-.1 11.2-.4 22.5-.7 33.7-.2 6.9-2.1 8.8-8.9 8.9-16.7.3-33.4.7-50.1.6-30.2-.2-60.4-.8-90.5-1.1-14.4-.1-28.8-.1-43.2.1-9.4.1-18.8 1.1-28.2.9-15.6-.3-31.2-1.6-46.8-1.7-23.7-.2-47.4.5-71 .5-10.7 0-21.5-.8-32.2-.8-40.2.2-80.3.6-120.5.8-7.3 0-14.7-.8-22-.9-13.4-.2-26.8 0-40.2-.1-10.9 0-21.8-.1-32.6-.4-3.5-.1-4.4-2.5-4.3-5.7.5-14 1.1-28 1.1-42 .1-57.3.1-114.6.1-171.9 0-14.9-.1-29.9 0-44.8 0-1.5 1.2-3 1.8-4.5.8 1.5 2.5 3.1 2.3 4.4-1.4 9 5.5 13 10.8 17.6 13.3 11.6 29.5 17.8 45.9 23.1 11.9 3.9 24.5 5.5 36.8 7.9 8.2 1.6 16.5 3.1 24.8 4.1 8.6 1 17.3 1.4 25.9 2.1 6.9.6 13.8 1.4 20.8 1.9 6.4.5 12.8.6 19.1 1 1.7.1 3.6.7 5 1.6 7.2 4.9 13.8 11 21.5 14.6 7.7 3.6 16.6 4.7 25 6.8.5.1 1.1-.5 2.3-1.1-14.5-4.4-26.9-10.7-36.3-24 7.6-2.2 14-3.9 20.3-5.8 14.1-4.2 28.1-8.5 42.2-12.7 10.9-3.2 19.8-10 28.1-17.2 7.1-6.1 14.1-12.4 18.9-21.1 4-7.2 8.3-14 10-22.1 3.1-15.6 4.7-31 1-47-3.5-14.8-11-26.5-20.5-37.8-5.7-6.8-12.1-12.1-19.6-16.5-4.6-2.7-4.2-5-.8-9.1 10.3-12 20.8-23.9 30-36.7 5.4-7.4 4.1-15.6-2.3-23-1.4-1.6-4.8-2.1-7.3-2.1-20-.1-39.9.1-59.9 0-11-.1-22.1-.8-33.1-.7-13.3.1-26.6.9-39.9 1-17.5.1-35-.3-52.5-.3-21.6 0-43.2.2-64.8.2-2.7 0-5.4-.9-8.1-.9-2.3 0-5.1 0-6.8 1.2-9.9 6.8-18.6 14.8-22.4 26.6-2.9 9 1.1 16.7 6.4 23.8C32.4 70 37.5 77.3 43 84.3c3.9 5.1 2.6 9.6-1.3 13.7-6.7 7.2-14.4 13.5-20.3 21.3-6 8-13.7 15.2-13 27.3.9 15.5-.3 31.1-.8 46.7-.1 1.6-1.7 3.1-2.6 4.6-.9-1.5-2.7-3-2.7-4.5-.1-35.4 0-70.9 0-106.4 0-25.1.1-50.2-.1-75.3 0-1.3-1.5-2.7-2.3-4 .1-.3.1-.7.1-1zm587 300.6c0-17.6.1-34 0-50.3-.1-13.2-.3-26.4-.4-39.5 0-6.3 0-12.6.3-18.9.1-1.3 1.6-2.6 2.5-4.1-.4-1-1.7-2.7-1.8-4.6-.4-11-.6-22.1-.7-33.1-.1-20.4-.3-40.8-.2-61.2.1-15.5.5-31 .7-46.5.1-12 0-23.9 0-36.5H321.8c9.6 12.2 7.8 18.9 2.9 25.4-8.8 11.7-18.7 22.6-28.3 33.6-5.3 6-5.3 7 1 11.3 19.2 13.4 32.1 31.5 38.1 53.9 2 7.6 1.7 16 1.5 23.9-.3 7.8-.6 16-3.1 23.2-3.5 10.2-8.2 19.9-14.2 29.2-8.3 12.6-19 22.5-31.6 30.2-15.6 9.6-33.5 14.2-51 19.2-5.8 1.7-11.8 2.6-19.3 4.3 8.6 5.3 15.5 10.8 23.3 14.1 7.8 3.3 16.4 4.3 26.1 6.6-8.6 1.7-16.2 4.3-23.8 4.5-18 .5-33.9-6.2-47.6-17.8-3.5-2.9-6.8-6.1-12-3.9-.9.4-2.2.1-3.3 0-7.7-.6-15.3-1.3-23-1.9-4.9-.4-9.8-.5-14.7-1-7.7-.7-15.4-1.7-23.2-2.6-7.8-.9-15.8-1-23.5-2.7-13.1-3-26-6.8-38.9-10.6-16.8-4.9-32.7-11.6-45-24.9-1.1-1.2-2.9-1.8-4.3-2.6v92.2h18c.5-6.4 4.3-.3 6.6-1 .4-1.7.8-3.2 1.3-5 1.3.7 2.5 1.3 3.9 2.1 1.1-2.8 2-5.3 3.1-8.1 1.5 1.1 2.6 1.9 3.5 2.5 1.8-2 3.5-3.9 5.2-5.8.5.4.9.7 1.4 1.1-1 2.9-2.1 5.8-3.1 8.8.2.2.5.3.7.5 1.9-1.9 3.8-3.9 5.6-5.8.5.4 1 .9 1.5 1.3-.8 1.7-1.6 3.3-3.1 6.5 4.3-2.2 7.2-3.7 10.1-5.2.2.4.4.7.7 1.1l-4.2 4.8c5.8-4.1 10.9-2.8 15.7 1.6.1.1.4 0 .5 0 2.6.3 5.1.7 8.2 1.1 1.7-2.9 3.9-6.5 6-10.2.5.1.9.1 1.4.2l1.2 5.4c3.8-.4 1.8-8.8 8.5-5.7 3.1 1.4 4.7-8.5 9.5-2.1 2-1.7 3.7-3.2 6.2-5.4-.6 3.9-1 6.1-1.5 9 3.4-1.8 5.3-2.8 7.3-4 .8 2 1.3 3.4 1.8 4.7 2.2-1.8 4-3.2 5.8-4.7.4.4.7.8 1.1 1.2-.2 1.9-.4 3.7-.8 6.9 3.3-2.5 5.7-4.2 8.6-6.3.2 2.2.3 3.5.5 5.2 1.5-.8 2.6-1.4 2.4-1.3 3.1 1.3 5.2 2.2 7.3 3 .9.3 2.5.3 2.7.8 1.3 4.5 5 2.7 7.7 2.8 7.3.4 14.6.5 22 .6 7.5.1 14.9 0 22.4.2 4.8.1 9.6.6 14.4.8 5.4.2 10.9.6 16.3.3 8.3-.5 16.4-.7 24.7-3.2 6.9-2.1 15.1.4 22.6-.3 4.3-.4 9.7-.2 12.2-5.9 3.9 2.8 4.7-1.2 6.5-3.2.7-.9 1.7-1.6 2.6-2.3.5 1.2 1.1 2.4 1.3 2.9 2.1.9 3.9 1.7 5.8 2.5 2.6-.2 5.1.2 7.7.7 4.4.8 8.8 2.1 13.2 2.2 16.6.5 33.2.6 49.9.9.8 0 1.6.6 2.4 1-1.2 1.7-14.4 5-16.5 4.7-7.4-1.2-14.8-3.3-22.2-3.1-15.3.4-30.5 2.1-45.7 3.1-18.1 1.2-36.2 2.3-54.2 3.2-9.9.5-19.8.6-29.6.8-2.8.1-5.6 0-8.3-.2-7.7-.5-15.3-1.7-23-1.7-19.2 0-38.4.2-57.6.8-9.7.3-19.4.6-28.7 4.9-3.9 1.8-9.2 1.1-13.8.8-9.6-.8-19.2-2.2-28.8-3.3-7.2-.9-14.4-2-21.6-2.7-8.3-.8-16.6-1.3-25.3-1.9 0 3.3-.1 5.4 0 7.4.4 12.7 1.1 25.4 1.2 38.1.1 23.5-.1 47-.2 70.5-.1 8.5 0 16.9-.7 25.4-.3 3.9 1.2 4.5 4.3 4.4 4.1-.1 8.3-.2 12.4-.1 9.6.2 19.3.8 28.9.9 17.8.1 35.5-.1 53.3 0 5.8 0 11.6.9 17.4.8 7.6-.1 15.2-1.1 22.8-1.2 10-.1 20 .4 30 .4 11 .1 21.9 0 32.9 0 11.1 0 22.2 0 33.3.2 4.9.1 9.8.8 15.4 1.3.1 0 1.2-1.4 2.3-1.4 5.2 0 10.4.6 15.6.6 30.5.1 61 .3 91.6.2 26.9 0 53.7-.4 80.6-.4 8.9 0 17.7.6 26.6.6 7.8 0 15.6-.8 23.4-.7 10.4.2 20.8 1.3 31.2 1.4 16.5 0 33-.7 49.5-.7 7.6 0 8.1-.2 6.3-7.7-7.7 0-15.4.1-23.1 0-7.4-.1-14.8-.5-22.2-.4-5 .1-9.9 1.2-14.9 1.6-2.3.2-4.7.1-7-.1-3.5-.2-7-1-10.5-.9-8.2.3-16.4 1-24.5 1.4-5.3.2-10.6.1-15.8.1-3.4 0-7.2.8-10.3-.3-4.9-1.8-9.3-2-14.4-1-4.9 1-10.8 1.8-15.2 0-3.6-1.5-6.6-1.4-10-1.4-8.5-.1-17.1 5.6-25.7-.2-.9-.6-2.8.3-4.2.4-4.9.5-10.8 2.9-14.4 1-4.8-2.6-9.7-2.5-14.5-3.6-2.7-.6-3.9-4.2-7.9-2.5-3.4 1.4-7.6 1-11.5 1.4-.2-.5-.3-1-.5-1.5 1.1-.6 2.1-1.6 3.3-1.8 2.5-.4 5-.3 7.5-.4 23.6-.9 47.3-1.8 70.9-2.6 4.1-.2 8.2-.3 12.3-.3 4.9-.1 9.7-.1 14.6-.2 2.3 0 4.7 0 7-.2 5.2-.4 10.5-1.1 15.7-1.2 4.4-.1 8.9.1 13.2.9 5.6 1 11.1-2.7 16.9.2 2.7 1.4 7 2.9 9.2 1.7 7.9-4.2 14.7 2.7 22.2 1.3 2.7-.5 5.8-.9 8.3-.2 5.4 1.6 10.6 1.6 16.1.9 3.1-.4 6.3-1 9.2-.5 6.8 1.1 13.4 2.8 20.2 4.4.3-3.8.7-6.2.7-8.6-.1-14.4-.8-28.8-.3-43.1.2-7.1.2-12.6-8.6-13.4-.3 0-.5-.8-1-1.6 1.2-.2 2-.5 2.8-.5 7.7-.6 7.6-.6 7.5-7.9-.1-9-.1-18-.2-27.1 0-12.4 0-24.8-.1-37.2 0-1.4-.2-2.8-.4-4.2-12.3 0-24.2.1-36-.1-1.9 0-3.8-.9-5.7-1.3.1-.9.3-1.8.4-2.7 13.1.2 26.8.2 41.9.2zM8.1 126.9c1.3-.9 2.5-1.5 3.2-2.3l13.5-15c3.9-4.3 8.2-8.2 11.5-12.9 1.6-2.4 2.8-7.1 1.5-9.2C33.2 79.9 27.4 73 22 65.9c-4.8-6.3-9.6-13.1-8.5-21.3 1.8-13.2 10.9-21.9 20.6-29.9 1.2-1 2.7-1.6 5.3-3H8c.1 38.4.1 76.5.1 115.2z"/>
  <path d="M8.1 126.9V11.7h31.4c-2.6 1.4-4.1 2-5.3 3-9.7 8-18.8 16.8-20.6 29.9-1.1 8.2 3.7 15 8.5 21.3 5.4 7.1 11.2 14 15.8 21.6 1.3 2 .1 6.8-1.5 9.2-3.2 4.7-7.6 8.6-11.5 12.9l-13.5 15c-.9.8-2 1.3-3.3 2.3zM82.4 97.9c-2.3-1.8-3.8-3-5.2-4.1 1.7-1.3 3.5-3.6 5.3-3.7 2.1 0 4.3 1.9 6.4 3-2 1.4-3.9 2.9-6.5 4.8zM77.5 83.4c.6-1.6 1.1-4.6 1.8-4.6 2.8-.2 5.6.5 8.4.8.1.8.2 1.6.2 2.5l-9.3 2.7c-.3-.5-.7-.9-1.1-1.4zM133.7 77.2c7.1-.1 9.4 3 9.7 11.9.2 5-2 7.2-6.7 7.3-8 .1-13.5-4.6-13.4-11.2.1-5.9 2.6-7.9 10.4-8zM101.5 85.9V76c3.5 2.4 5.9 4.1 8.3 5.8-2.4 1.2-4.8 2.4-8.3 4.1z" fill="#fff"/>
  <path d="M423.5 389.8c.9-11.6 7.7-19.4 15.8-25.2-2.3-10.3-4.4-19.9-6.7-30.3-3.7 2.9-5.7 6.2-5.5 10.9.2 7.2-3.1 8.8-9.8 9.4-5 .4-9.7-.4-14.4-.3-4.8.1-6.4-1.5-8.2-4.9-.6-1.2-1.8-2.3-3-2.9-4.6-2.3-6.1-5.4-3.5-9.7 3.5-5.8 7.8-11.1 11.6-16.7 1.1-1.6 1.8-3.5 2.7-5.3 1.6-3 2.7-6.5 4.9-9 6.3-7.1 13.1-13.7 19.6-20.6.9-.9 1.2-2.5 1.3-3.8.6-5.5 1.1-11.1 1.3-16.6.1-3.1 1.2-6.7-3-8.6-.9-.4-1.7-3.2-1.2-4.2 2.5-5.1 5.4-10 8.2-15 .7-1.3 1.3-2.7 2-4-1.5-.5-2.9-1.3-4.4-1.5-6.7-.8-13.5-.8-20-2.3-4.3-1-8.2-3.8-12.1-6.2-3-1.9-2.8-6.8.5-7.5 8.2-1.7 8.7-8.3 10.5-14.3.6-1.8.8-3.7 1.1-5.3-5-1.4-9.5-2.6-13.9-3.9.2.8.3 1.4.4 2.2-1.6-.5-3-1.2-4.5-1.3-7.2-.5-14.3-.7-21.5-1.2-8.3-.5-11-5.4-7.1-13.2-2.2-4.1-9.9-6.9-5.9-12.9 1.9-2.7 7.5-2.9 12.5-4.6-.5-2.3-1.2-6-2-9.6-.8-3.5-1.2-7.3-2.8-10.5-1.1-2.3-3.4-4.5-5.8-5.7-5.1-2.6-10.7-4.1-15.8-6.7-6.8-3.6-9.5-11.9-7.4-20.4 1.7-6.7 8.3-11.2 16.7-11.8 20.9-1.4 40.6-6.3 59.3-16.4 10.8-5.9 22.7-10.7 35.6-11.1 6.5-.2 13-2 19.4-1.6 5.7.3 12.1 1.3 16.8 4.2 7 4.3 11.6 1.3 16.6-2.6 1.2 1.1 2.3 2 3.5 3.1-.7 1.1-1.4 2.3-2.2 3.5-2.1 3.2-.9 5.8 1.3 8.4 5.5 6.2 11.8 12 16.3 18.9 7 10.7 10.7 22.6 11 35.8.2 10.6-1 20.2-6.7 29.3-3 4.8-3.9 10.8-6.7 15.8-5.3 9.4-12.3 17.5-22.7 21.5-7.7 3-15.6 5.3-23.7 8 .2 6.3 11.1 8.5 5.9 17.7 30 2.6 53.3 17.3 73.6 35.8 3.6-.8 8.8-3.1 9.8-1.8 3.7 4.3 12.9 5.7 9.3 14.6-.1.2-.3.4-.2.5 6.2 7.9-2.8 12.1-4.8 17.8-.9 2.6-5.3 4.7-8.4 5.7-2.7.8-6.4.3-9.1-1-7.4-3.6-17.7-1.5-22.2-11.3-1.5-3.3-4.7-5.9-7.7-9.6-.6 2.2-1 2.9-.8 3.2 7.7 11.3 14.9 23 23.4 33.6 8.1 10.2 17.8 19.1 26.4 29 2 2.2 2.9 5.7 3.4 8.8 1.1 7 2.3 14.1 2.4 21.2.1 14.3 3.5 28.8-1.7 42.9-1.2 3.3-3.1 6.8-5.8 8.9-2.1 1.7-6.7 2.7-8.6 1.5-2.9-1.8-5.7-5.6-6.2-8.9-.9-6-.1-12.3 0-18.4 0-1.4-.2-2.7-.3-4.2-1.2.1-2.5-.2-2.9.3-6.6 7.8-15.7 5.1-23.5 4.6-4.8-.3-9.4-5-14-7.8-1-.6-1.8-1.7-2.5-2.7-7.6-11-20.3-9.1-30.9-12.3-.9-.3-2.3.7-3.3 1.2-9.3 5.3-11.5 14.8-13.7 24-2 8.6-2.3 17.5 1.6 25.9 2.3 4.9-1.3 6.4-4.2 6.9-3.7.6-8 .6-11.4-.8-11.7-4.5-23.1-9.7-31.9-19.3-6.5-7.1-13.7-13.7-20.6-20.4-5.3-5.2-6.5-11.9-7-18.8-.4-5.1 7.3-10.2 12.2-7.7 6.1 3.1 11.7 7.3 17.2 11.4 2.4 1.8 3.9 4.7 5.8 7.1.9-.3 1.6-.6 2.3-.9zm69.9-250 .2.2c-5.3-3.4-10.5-6.8-15.8-10.2.2-.3.3-.7.5-1 6.9 3 13.8 6 20.7 9.1.2-.5.3-.9.5-1.4-5.5-2.7-11-5.5-16.6-8.2.3-.6.6-1.3.9-1.9 12 5.4 24 10.9 36 16.3.2-.6.5-1.1.7-1.7-11.3-5.6-22.5-11.1-33.8-16.7l.6-1.2c7.5 3 15 6 22.5 8.9-2.2-2.3-4.8-3.8-7.4-5.1-2.6-1.2-5.4-2.2-8-3.5-2.5-1.3-4.8-2.9-7.1-4.3.3-.5.6-.9.9-1.4 12.4 5.7 24.7 11.4 37.1 17.2l-.6 1.8c-1.6-.2-3.3-.4-6.6-.8 6 3.2 9.1 6.3 6.5 11.8-.1.3.6 1.2 1.1 1.6.3.2 1.1 0 1.4-.3 2.1-1.7.7-16.6-1.7-17.9-.8-.4-1.8-.1-2.7-.3-1.6-.4-3.2-.6-4.7-1.3-5.7-2.5-11.4-5.1-17-7.9-3.3-1.7-6.3-3.9-9.4-5.8.3-.5.7-1 1-1.5 10.6 5.1 21.2 10.2 31.9 15.3.3-.6.7-1.2 1-1.7-3.8-1.9-7.6-3.7-11.4-5.8-4.5-2.5-9-5.2-13.5-7.7.2-.5.5-.9.7-1.4 3.1 1.2 6.3 2.5 9.4 3.7.1-.3.3-.6.4-.9-3.7-2.5-7.5-5-11.2-7.5.4-.5.7-.9 1.1-1.4 3.7 2.1 7.3 4.2 11 6.3.2-.3.5-.7.7-1-2.3-2.2-4.7-4.3-7-6.5 7.9 2 12.6 8.5 12.4 15.6 1.9.8 3.7 1.6 5.6 2.5.4-.3.9-.6 1.3-.9-3.5-6.6-7.1-13.1-10.6-19.7-.3.5-.6.9-.9 1.4-1.8-.5-3.6-.9-5.4-1.4 3.2-1.4 4.6-2.6 2.5-5.3-12.9-16.8-30.1-25.5-51.2-25.1-12.2.2-24.1 3.1-35.3 8.1-8.5 3.8-16.7 8.2-26.4 13.1 7.6 3.1 13.7 5 19.1 8 8.6 4.8 16.6 10.6 25.1 15.6 15 8.9 30.1 17.7 45.5 26.1 8.2 4.5 17 7.9 25.6 11.6 4.2 1.8 8.5 3 13 4.6.5-2.3 1-4.1 1.5-6.1-10.8-4.8-21.4-9.5-32-14.1-.6-.5-1.4-.1-2.1.1zm8.2 58c.7.2 1.4.4 2 .6 1.1-1.8 1.7-4.1 3.2-5.5 7-6.2 9.1-14.7 12.1-22.9 1.9-5.1-.7-6.5-4.2-7.9-6.7-2.8-13.7-5.1-20.2-8.2-11-5.3-21.9-10.9-32.6-16.7-7.4-4.1-14.3-9.1-21.6-13.2-16-9.1-32.2-18-48.4-26.8-1.4-.8-3.8 0-5.7.3-7 1.4-14 3.1-21.1 4.3-6.1 1.1-12.4 1.3-18.4 2.6-4.6 1-6.4 5.2-4.9 9.8 2.4 7.6 10.8 13.3 20.9 14 .9-8.8 6.1-15.2 12.4-22.4-1.8 7.5-3.4 13.7-4.9 19.9.9.2 1.7.5 2.6.7.8-2.1 1.6-4.3 2.5-7 7.6 3.2 11.1 13.2 21.7 13.3-4-3.6-7.4-6.5-11.9-10.5 8.1-3.2 11 5.2 17.3 5.5-3-3.4-5.3-6.3.5-9.8 2 2.7 4.2 5.7 7 9.4 1.9-5.4 3.2-9.4 4.6-13.3h1.7c.6 8.3-6.5 20.2 9.4 22.3-2.2.9-4.4 1.9-7.3 3.1 1.4 1.7 2.5 3.3 3.8 4.7 7.2 8.3 14.8 16.2 21.4 24.9 2 2.7 3 8.2 1.6 11.2-4.8 10.3-10.7 20.1-16.3 30.1-.7-.2-1.5-.4-2.2-.6.3-1.7.3-3.6 1-5.2 2.4-5.9 6.9-10.5 9.6-16.5 3.6-8.2 2.9-13.7-3.8-19.7-4.5-4-7.6-9.6-11.6-14.3-4.8-5.6-10.1-10.8-11.2-18.5l-22.5 3c.2 1.7.5 3.9.8 6.2-5.1-1.1-9.6-2-15-3.2 2-1.7 3.8-3.2 6-5-3-.6-5.7-1.1-9.8-2 5.5 9.4 1.9 20.7 12.4 26 2.7 1.4 1 11.5-2.3 15.8-1.8-3.2-3.4-6.1-4.9-8.7h-12.7l-.6 1.8c2.8 1.2 5.5 2.4 8.7 3.8-.4 1.3-1 3.1-1.6 4.9-1.6 5 .2 8.1 5.2 8.6l35.4 3.6c4.8.5 7.4 3.4 6.9 8-.3 2.9-1.3 6-2.8 8.6-2.4 4.2-5.5 7.9-8.7 12.4 8.8 3.2 16.5 7.7 26.2 5.9 4.2-.8 9.4.3 10.5 6.4.2 1 1 2 1.5 3.1 7-5.2 12.8-9.7 18.9-13.8 3.2-2.1 4.2-4.4 2.8-7.8-1.2.3-2.4 1-3.3.7-4.3-1.4-8-.6-12.1 1.2-2.6 1.2-6.5 2.7-9.1-1.5-.5-.8-3.3-.1-4.9-.3-1.8-.2-3.6-.7-5.5-1.1v-2.2c7.2-2.7 14.4-5.4 22.1-8.2.7 2.1 1.1 3.6 1.7 5.3 4.3-1.4 9.1-4.8 12.7-3.7 6.1 1.8 9.5-1.7 13.8-3.7 3.7-1.7 7.3-3.5 9.7-4.6-1.6 2.3-3.7 5.4-5.9 8.5.2.3.4.5.6.8 6-4.5 12.1-9 17.9-13.3-.3 2.4-.7 4.6-1.1 6.8zM453.3 328c-3.7 4.5-7.1 8.4-10 12.5-1.3 1.8-2.6 5-1.8 6.6 2 4.1 4.4 8.8 8 11.3 7.3 5.2 15.1 10.1 23.3 13.6 11 4.7 22.6 7.7 34.8 4.8 6.6-1.6 13.3-3.4 19.7-5.8 11.2-4.2 22.3-8.8 33.4-13.5 6.1-2.6 6.3-6 1.1-10.3-5-4.2-10.7-7.9-14.7-12.9-12-14.8-23.7-29.9-34.9-45.2-6.6-9.1-12.1-19-18.2-28.4-5.6-8.6-11.2-17.2-17.4-26.7-4.3 4.9-7.6 9.3-11.5 13.1-9.3 9.1-17.1 19.4-24.9 29.7-6.2 8.3-13.3 15.9-19.9 23.9-2.5 2.9-2.7 5.5 1.2 7.4 4.6 2.2 9.1 4.5 13.8 6.6 1 .5 2.9.9 3.5.4 4.5-3.9 8.9-8 13.2-12.1 6-5.7 12-11.4 18-17 .5.5 1.1 1 1.6 1.6-10 10.3-19.9 20.8-31.9 31.6 3.3-.3 5.7.2 7.1-.8 3.2-2.1 5.9-4.9 8.7-7.5 8.3-7.7 16.4-15.5 24.7-23.2 1-1 2.3-1.7 3.5-2.5.5 1.5.4 2.1 0 2.6-8.3 11-16.6 21.9-24.7 33-1.1 1.5-1.6 4.8-.7 6 1.9 2.5 4.8 4.5 7.6 6.2 15 9.1 30.3 17.6 47.8 20.9 1.5.3 3 1.2 4.5 1.8-.3.6-.5 1.1-.8 1.7-25-2-44.7-15.3-64.1-29.4zm-14-68.7c14.5-6.1 24.3-17 33.4-28.8 2.2-2.9 3.7-6.1.7-8.5-1.2-.9-5.2.8-7.3 2.2-6.1 4.2-11.6 9.4-17.9 13.2-8.5 5.2-11.8 11.7-8.9 21.9zm4.3 105.8c-2.5 2.8-5.1 6.1-8 8.8-2.9 2.7-2.3 5.4-.2 7.7 6.1 6.8 12.4 13.4 18.9 20.3 2.4-4 4.3-7.7 6.7-11 2.5-3.5 1.9-6.2-1-9.1-5.3-5.1-10.3-10.4-16.4-16.7zm-38.2-22.2c.6-.3 1.1-.6 1.7-.9.6 2 1.1 4 2 5.9.5 1.2 1.6 2.2 2.5 3.2.6-1.2 1.2-2.5 1.7-3.7.5-1.3.8-2.6 1.1-3.9 1.1.9 2.3 1.8 3.4 2.9 1.1 1.1 2 2.3 3 3.4.6-.2 1.2-.4 1.9-.6-4-7 1.9-10.8 4.5-15.9-.9-.5-1.4-.9-2-1.2-6.1-2.7-12.1-5.5-18.3-7.9-1.4-.6-3.7-.4-4.9.5-5.6 3.9-8.6 9.4-8.1 16.8 2.2-2.9 4.4-5.9 6.6-8.8.3.1.6.2 1 .3-.4 5.6-.8 11.1-1.1 16.7.7.1 1.4.2 2.1.4.9-2.4 1.9-4.8 2.9-7.2zm107.5 45.5c0-.1.2.8.7 1.4 5.2 5.9 20.6 9.9 27.7 6.8 1.1-.5 2.2-3 2-4.4-.8-5.1-2.1-10.1-3.3-15.7-9 3.9-17.9 7.8-27.1 11.9zM560 268.5c-.6-.2-1.1-.3-1.7-.5-.7 1.5-1.3 3.2-2.3 4.5-1.1 1.3-3.3 3.5-3.9 3.2-7.1-3.6-10 3-14 5.9-5.2 3.7-3.5 10 2.5 12.3 2.4.9 4.5 2.7 6.9 3.1 4.2.8 8.5.9 12.8 1.3 0-.5.1-1 .1-1.5-4.8-1.6-9.6-3.2-14.3-4.8v-1.7c2.8-1.2 5.7-2.4 8.5-3.6-1.7-1.5-3.2-1.6-4.7-1.9-1.5-.2-3-.5-5.5-1 4.3-4 8-4.3 12.3-2.4 1.7.7 4.5 1.6 5.3.8 2.2-2.1 7.1-3.3 4.1-9-1.6 1.4-2.8 2.8-4.2 3.7-.9.6-2.2.5-3.4.7-.1-1.2-.3-2.5-.1-3.7.5-1.8 1.1-3.6 1.6-5.4zm-46.3-22.4c-10.5-3.6-20-6.8-29.4-10-.3.5-.7 1.1-1 1.6 5 6.9 9.9 13.8 15.3 21.2 2.4-3.7 4.5-6.9 6.6-10.2.4.2.8.5 1.3.7-.5 2-1 4-1.8 7.5 3.3-4 5.5-6.7 9-10.8zm7.2 32.8c4.1-6.6 7.8-12.5 12.4-19.7-2.4-1.3-5.9-3.5-9.7-5-.5-.2-3.9 4.2-3.5 4.8 3.6 5.3-1.6 8.9-1 13.5-.5 0-1-.1-1.4-.1V263c-.5-.1-.9-.3-1.4-.4-2 4.1-4.1 8.2-6.4 12.9 4.5 1.3 8.3 2.5 11 3.4zm-90.1 107.8c-.7.3-1.4.5-2.1.8.9 3.1 1 6.9 2.9 9.2 4.3 5.2 9.4 9.8 14.4 14.4 1.6 1.5 3.8 2.2 6.2 3.6-.5-10.2-.5-10.1-5-13.3-3.8-2.7-7.5-5.6-11-8.6-2-2-3.6-4.2-5.4-6.1zm-4.5 14.2c0 1 .1 2.5.2 4 .8 10.1 10.2 12.4 16.4 17.4 2.7 2.2 6.2 3.4 9.7 5.3-.2-5.9-.5-10.8-7.3-11.2-.6 0-1.3-.7-1.8-1.2-5.7-4.8-11.4-9.5-17.2-14.3zm2.7-74.7c2.4-5.9 2.3-5.8-2-8.8-4.2-2.9-8.2-6-13.2-9.6-1.4 1.5-4 3-4.6 5.1-.5 1.7 1 5 2.6 5.8 5.5 2.9 11.4 5.1 17.2 7.5zm111.7-62.5c-15.7 10.5-17.8 15.5-9.6 24.9.5-10.2 8.5-14.9 14.6-21.1-2-1.5-3.4-2.6-5-3.8zm14.8 131.6 3 .9c1.1-2.5 2.8-4.9 3.1-7.5.6-6.4.4-12.8.7-19.2.1-2.9-1.1-5.3-3.8-4.6-1.6.4-3.1 3.4-3.7 5.5-.5 1.5.7 3.5.7 5.3.1 6.5 0 13.1 0 19.6zm-7.4-23.9c-4.2 2.6-4.1 13.7.2 20.8 5.5-3.9 5.4-14.2-.2-20.8zm-145 9c3.2 5.9 3.6 12.6 11 16.8-2.6-7.1-2.4-14.2-11-16.8zm30-104.3c-.2-.6-.5-1.1-.7-1.7l13.5-9.3-1-1c-3.3 1-6.7 2-10.7 3.2-.4 2.3-.8 5.6-1.1 8.8zm-36 116.2c-.6-4.9-1.2-8.9-1.7-12.9-2.6 4.4-3 8.4 1.7 12.9zM513.5 262c-.6-.3-1.3-.6-1.9-.9-1.9 2.8-3.8 5.7-5.7 8.5.8.5 1.6 1 2.4 1.4 1.7-3 3.4-6 5.2-9zM10.4 387.3c7 0 14.1-.2 21.1.1 9.9.4 19.7 1.5 29.6 1.7 4.1.1 8.2-2 12.3-2 11.3.1 22.6 1 33.9 1.1 10.2.1 20.5-.4 30.7-.5 13-.2 25.9-.5 38.9-.4 9.4 0 18.9.4 28.3.9 8.3.5 16.5 1.4 24.8 2 1.2.1 2.5-.8 3.7-.6 1.8.3 3.5 1 5.3 1.6-.1.7-.2 1.4-.3 2-4.8.3-9.5 1-14.3.9-17.8-.3-35.5-.9-53.3-1.3-7.8-.2-15.7-.5-23.5-.2-8.6.3-17.3 1.6-25.9 1.7-10.4.1-20.9-.5-31.3-1.2-8.8-.6-17.5-2.5-26.2 1.7-3 1.4-7.6-.7-11.5-.9-12.2-.7-24.5-1.3-36.7-2-1.9-.1-3.8-1-5.8-1.5 0-1.3.1-2.2.2-3.1zM198 373.2c-10.7-.6-21.5-1.3-32.2-1.8-4.3-.2-8.7.2-13 .2-3.8 0-7.6-.5-11.5-.5-11.6 0-23.3.4-34.9.2-9.6-.2-19.3-.3-28.7-1.8-7.4-1.2-14.4-4.9-21.8-6.5-7.2-1.5-14.6-2-22-2.4-5.9-.4-11.8-.1-18.4-.1.9-1.3 1.5-2.7 2.1-2.7 5.3-.1 10.6 0 15.9 0 2.4 0 4.9-.5 7.3-.1 11.9 2 23.7 4.4 35.7 6.3 6.3 1 12.7 1.6 19.1 1.8 9.4.3 18.7-.1 28.1 0 12.3.1 24.7 0 37 .8 11.7.8 23.4 2.5 35.1 4 1 .1 1.9 1 2.8 1.6-.4.2-.5.6-.6 1zM376.7 392.5c-43.9-1.7-88 5.7-131.9-1-.1-.6-.1-1.2-.2-1.8 3.1-.6 6.2-1.6 9.3-1.6 9.5 0 19.1.3 28.6.8 6.8.3 13.5 1.3 20.3 1.5 3.2.1 6.5-.7 9.7-1.2 1.1-.2 2.1-.8 3.2-.9 11.3-.5 22.9-2.4 33.9-.9 8 1.1 15.8.7 23.7 1.1 1.4.1 2.7 1.3 4 2-.1.7-.4 1.3-.6 2zM341.3 370.8c-1.3.5-2.6 1.6-3.7 1.4-9.4-.9-18.6-3.9-28.1-1.6-3.1.8-6.2 1.9-9.4 2.5-3.1.5-6.4 1.1-9.5.7-17.6-1.8-35.3-3.8-52.9-5.9-11.1-1.3-22.2-2.9-33.4-4.2-2.7-.3-5.5 0-8.3 0 0-.8 0-1.5-.1-2.3 4.5 0 9-.2 13.5.1 7.3.5 14.5 1.2 21.7 2.1 10.7 1.3 21.4 3 32.1 4.1 4.3.5 8.8-.2 13.2.1 4 .3 7.9 1.6 11.9 1.7 3.3.1 6.7-.9 10-1.4 6.2-.8 12.5-2.5 18.7-2.2 7.9.3 15.8 2.1 23.7 3.3.3.6.4 1.1.6 1.6zM109.8 349.2c-1.4.2-2.9.8-4.1.5-10.4-2.4-20.7-5.4-31.2-7.4-7.3-1.4-14.9-1.1-22.3-2-6.3-.8-12.5-2.5-18.9-3.4-3.6-.5-7.3-.1-11.4-1.1.8-.6 1.6-1.7 2.4-1.7 4.2-.2 8.6-.7 12.7-.1 15.8 2.3 31.5 4.8 47.2 7.6 8.5 1.5 16.8 4 25.3 6.1.1.4.2 1 .3 1.5zM221.4 335c26 3.4 51.9 6.8 77.9 10.2l-.3 2.7c-26-3.4-51.9-6.8-77.9-10.2.1-1 .2-1.8.3-2.7zM326.7 339.6c-2.3 4.8-7 2.9-10.8 2.6-9.7-1-19.3-2.5-28.9-3.8-3.7-.5-7.3-1.3-10.9-2 .1-.7.2-1.3.3-2 16.7 1.7 33.5 3.4 50.3 5.2zM131.2 348.6l-39-8.1c-.1 0 0-1 0-2.3 13.7 1.1 27.1 3 39.6 8.9-.2.4-.4.9-.6 1.5z"/>
  <path d="M469.5 389.3c8.3-.5 15.9-.9 23.6-1.3-1.1 5-18.1 6.1-23.6 1.3zM325.1 332.2h23c-3.3 4.3-16.1 4.4-23 0zM372.4 332.6c-7.6-1.2-14.9-2.3-22.1-3.4 6.8-3 19.9-.4 22.1 3.4zM392.8 366.9c-6-.7-12-1.4-17.9-2.1.1-.9.2-1.7.3-2.6 6 .7 12 1.5 18 2.2-.2.8-.3 1.7-.4 2.5zM171.8 343.6c5.8.8 11.7 1.6 17.5 2.4v1.9c-2.7-.3-5.5-.7-8.2-.8-3.2-.1-6.5 0-9.7 0 .1-1.2.2-2.3.4-3.5zM138.4 342.2c6.1-1.7 11.2 1.9 16.7 3.2-.2.8-.3 1.5-.5 2.3l-16.5-3.6c.1-.6.2-1.3.3-1.9z"/>
  <path d="M501.6 197.8c.4-2.2.8-4.4 1.1-6.5-5.8 4.3-11.9 8.8-17.9 13.3-.2-.3-.4-.5-.6-.8 2.2-3.1 4.3-6.2 5.9-8.5-2.4 1.1-6 2.9-9.7 4.6-4.3 2-7.7 5.5-13.8 3.7-3.5-1.1-8.4 2.3-12.7 3.7-.5-1.7-1-3.2-1.7-5.3-7.7 2.9-14.9 5.6-22.1 8.2v2.2c1.8.4 3.6.8 5.5 1.1 1.7.2 4.4-.5 4.9.3 2.6 4.2 6.5 2.6 9.1 1.5 4.1-1.8 7.8-2.6 12.1-1.2.9.3 2.1-.4 3.3-.7 1.4 3.4.4 5.7-2.8 7.8-6.1 4.1-11.9 8.6-18.9 13.8-.6-1.1-1.4-2.1-1.5-3.1-1.1-6.1-6.3-7.2-10.5-6.4-9.7 1.8-17.3-2.7-26.2-5.9 3.2-4.5 6.3-8.2 8.7-12.4 1.5-2.6 2.5-5.6 2.8-8.6.4-4.7-2.1-7.5-6.9-8l-35.4-3.6c-5-.5-6.8-3.6-5.2-8.6.6-1.8 1.2-3.6 1.6-4.9-3.2-1.4-5.9-2.6-8.7-3.8l.6-1.8h12.7c1.4 2.6 3.1 5.5 4.9 8.7 3.3-4.3 5.1-14.5 2.3-15.8-10.6-5.3-6.9-16.6-12.4-26 4.1.8 6.8 1.3 9.8 2-2.2 1.8-3.9 3.3-6 5 5.4 1.1 9.9 2.1 15 3.2-.3-2.3-.6-4.5-.8-6.2l22.5-3c1.2 7.6 6.4 12.9 11.2 18.5 4 4.7 7.1 10.3 11.6 14.3 6.7 5.9 7.4 11.4 3.8 19.7-2.6 6-7.1 10.6-9.6 16.5-.7 1.6-.7 3.5-1 5.2.7.2 1.5.4 2.2.6 5.5-10 11.5-19.8 16.3-30.1 1.4-2.9.4-8.5-1.6-11.2-6.6-8.7-14.2-16.7-21.4-24.9-1.3-1.4-2.4-3-3.8-4.7 2.9-1.2 5.1-2.2 7.3-3.1-15.8-2.1-8.8-14-9.4-22.3h-1.7c-1.3 3.9-2.7 7.8-4.6 13.3-2.8-3.7-5-6.7-7-9.4-5.8 3.5-3.5 6.4-.5 9.8-6.4-.3-9.2-8.6-17.3-5.5 4.6 4 7.9 7 11.9 10.5-10.6-.1-14.1-10.1-21.7-13.3-1 2.7-1.8 4.8-2.5 7-.9-.2-1.7-.5-2.6-.7 1.5-6.2 3-12.4 4.9-19.9-6.3 7.3-11.5 13.6-12.4 22.4-10.1-.7-18.5-6.4-20.9-14-1.4-4.6.3-8.8 4.9-9.8 6.1-1.3 12.3-1.6 18.4-2.6 7.1-1.2 14-2.9 21.1-4.3 1.9-.4 4.2-1.1 5.7-.3 16.2 8.8 32.4 17.7 48.4 26.8 7.3 4.2 14.2 9.2 21.6 13.2 10.7 5.9 21.6 11.5 32.6 16.7 6.5 3.1 13.5 5.5 20.2 8.2 3.5 1.4 6.1 2.8 4.2 7.9-3 8.3-5.1 16.8-12.1 22.9-1.5 1.3-2.2 3.6-3.2 5.5-.6-.5-1.3-.7-2-.9zM453.3 328c19.5 14.1 39.1 27.4 63.7 29.2.3-.6.5-1.1.8-1.7-1.5-.6-2.9-1.5-4.5-1.8-17.6-3.3-32.8-11.8-47.8-20.9-2.8-1.7-5.7-3.6-7.6-6.2-.9-1.2-.4-4.5.7-6 8.1-11.1 16.5-22 24.7-33 .4-.5.5-1.1 0-2.6-1.2.8-2.5 1.5-3.5 2.5-8.3 7.7-16.4 15.5-24.7 23.2-2.8 2.6-5.5 5.4-8.7 7.5-1.4 1-3.8.5-7.1.8 12.1-10.7 21.9-21.2 31.9-31.6-.5-.5-1.1-1-1.6-1.6-6 5.7-12 11.4-18 17-4.4 4.1-8.7 8.2-13.2 12.1-.6.5-2.5.1-3.5-.4-4.6-2.1-9.2-4.4-13.8-6.6-4-1.9-3.7-4.4-1.2-7.4 6.7-7.9 13.7-15.6 19.9-23.9 7.8-10.3 15.6-20.6 24.9-29.7 3.9-3.8 7.2-8.2 11.5-13.1 6.2 9.5 11.9 18.1 17.4 26.7 6.1 9.5 11.6 19.4 18.2 28.4 11.2 15.4 22.9 30.5 34.9 45.2 4.1 5 9.7 8.8 14.7 12.9 5.1 4.2 5 7.7-1.1 10.3-11 4.7-22.1 9.3-33.4 13.5-6.4 2.4-13 4.2-19.7 5.8-12.1 2.9-23.8-.1-34.8-4.8-8.2-3.5-16-8.3-23.3-13.6-3.6-2.6-6-7.2-8-11.3-.8-1.6.5-4.8 1.8-6.6 3.2-4 6.7-7.8 10.4-12.3zm20.6-1.7c-.2.5-.4 1-.7 1.5 5 2.4 9.8 5.2 15 7.1 15.1 5.4 30.3 10.6 45.6 15.5 2.8.9 6.2.1 9.3.1l.3-2.7c-24.8-2-46.6-13.7-69.5-21.5zm-8-69c-.5-1.8-.9-3.5-1.3-5.1-2.8 3.3-5.4 6.2-8.3 9.5 2.3.3 5.3 1.6 6.3.7 3.5-3.2 7.1-1.8 10.8-1.6 5.9.3 8.1 2.7 8.7 8.8.2 1.7 1.5 3.2 2.2 4.8.8-.3 1.7-.6 2.5-1-.9-3.5-1.1-7.3-2.8-10.4-3.9-7.5-11.4-5-18.1-5.7zM493.4 139.8c.7-.2 1.5-.6 2-.4 10.6 4.6 21.2 9.4 32 14.1-.5 2-.9 3.9-1.5 6.1-4.4-1.5-8.8-2.8-13-4.6-8.6-3.7-17.4-7.1-25.6-11.6-15.3-8.3-30.4-17.2-45.5-26.1-8.5-5-16.5-10.8-25.1-15.6-5.4-3-11.5-4.9-19.1-8 9.8-4.9 18-9.3 26.4-13.1 11.2-5 23.1-7.8 35.3-8.1 21.1-.4 38.3 8.3 51.2 25.1 2.1 2.7.7 3.9-2.5 5.3 1.8.5 3.6.9 5.4 1.4.3-.5.6-.9.9-1.4 3.5 6.6 7.1 13.1 10.6 19.7-.4.3-.9.6-1.3.9-1.9-.8-3.7-1.6-5.6-2.5.2-7.1-4.5-13.7-12.4-15.6 2.3 2.2 4.7 4.3 7 6.5-.2.3-.5.7-.7 1-3.7-2.1-7.3-4.2-11-6.3-.4.5-.7.9-1.1 1.4 3.7 2.5 7.5 5 11.2 7.5-.1.3-.3.6-.4.9-3.1-1.2-6.3-2.5-9.4-3.7-.2.5-.5.9-.7 1.4 4.5 2.6 8.9 5.3 13.5 7.7 3.7 2 7.6 3.8 11.4 5.8-.3.6-.7 1.2-1 1.7-10.6-5.1-21.2-10.2-31.9-15.3-.3.5-.7 1-1 1.5 3.1 2 6.1 4.2 9.4 5.8 5.6 2.8 11.3 5.4 17 7.9 1.5.7 3.1.9 4.7 1.3.9.2 2-.1 2.7.3 2.5 1.3 3.9 16.2 1.7 17.9-.3.3-1.1.5-1.4.3-.5-.4-1.2-1.2-1.1-1.6 2.6-5.5-.5-8.6-6.5-11.8 3.3.4 5 .6 6.6.8l.6-1.8c-12.4-5.7-24.7-11.4-37.1-17.2-.3.5-.6.9-.9 1.4 2.4 1.4 4.7 3 7.1 4.3 2.6 1.3 5.3 2.2 8 3.5 2.7 1.3 5.3 2.7 7.4 5.1-7.5-3-15-6-22.5-8.9l-.6 1.2c11.3 5.6 22.5 11.1 33.8 16.7-.2.6-.5 1.1-.7 1.7-12-5.4-24-10.9-36-16.3-.3.6-.6 1.3-.9 1.9 5.5 2.7 11 5.5 16.6 8.2-.2.5-.3.9-.5 1.4-6.9-3-13.8-6-20.7-9.1-.2.3-.3.7-.5 1 5.3 3.4 10.5 6.8 15.8 10.2l-24-9.6c-.2.5-.4 1-.6 1.6 18.7 7.9 35.9 19 55.9 24-1.2-1.4-2.7-2.2-4.2-3-9-4.2-18.1-8.5-27.2-12.9zM439.3 259.3c-2.9-10.2.4-16.7 8.9-21.8 6.3-3.8 11.8-9 17.9-13.2 2.1-1.4 6.2-3.2 7.3-2.2 3 2.4 1.5 5.6-.7 8.5-9 11.7-18.8 22.6-33.4 28.7zM443.6 365.1c6.1 6.3 11.1 11.6 16.4 16.7 3 2.9 3.6 5.6 1 9.1-2.4 3.3-4.3 7-6.7 11-6.5-7-12.9-13.5-18.9-20.3-2.1-2.3-2.7-5 .2-7.7 2.9-2.7 5.4-6 8-8.8zM405.4 342.9c-1 2.4-2 4.7-3.1 7.1-.7-.1-1.4-.2-2.1-.4.4-5.6.8-11.1 1.1-16.7-.3-.1-.6-.2-1-.3-2.2 2.9-4.4 5.9-6.6 8.8-.5-7.4 2.5-12.9 8.1-16.8 1.2-.8 3.5-1 4.9-.5 6.2 2.4 12.2 5.2 18.3 7.9.6.3 1.1.7 2 1.2-2.6 5.1-8.6 8.9-4.5 15.9-.6.2-1.2.4-1.9.6-1-1.2-1.9-2.4-3-3.4-1-1-2.2-1.9-3.4-2.9-.4 1.3-.7 2.6-1.1 3.9-.5 1.3-1.1 2.5-1.7 3.7-.8-1.1-1.9-2-2.5-3.2-.8-1.9-1.3-3.9-2-5.9-.3.5-.9.7-1.5 1zM512.9 388.4c9.2-4 18.1-7.9 27.1-11.8 1.2 5.6 2.5 10.6 3.3 15.7.2 1.4-.9 3.9-2 4.4-7 3-22.4-1-27.7-6.8-.5-.8-.8-1.6-.7-1.5zM560 268.5c-.5 1.8-1.1 3.6-1.4 5.4-.2 1.2.1 2.4.1 3.7 1.1-.2 2.5-.1 3.4-.7 1.4-.9 2.6-2.3 4.2-3.7 3 5.7-1.9 6.9-4.1 9-.8.8-3.6-.1-5.3-.8-4.3-1.8-8-1.6-12.3 2.4 2.5.4 4 .7 5.5 1 1.5.2 3 .4 4.7 1.9-2.8 1.2-5.7 2.4-8.5 3.6v1.7c4.8 1.6 9.6 3.2 14.3 4.8 0 .5-.1 1-.1 1.5-4.3-.4-8.6-.5-12.8-1.3-2.4-.5-4.6-2.2-6.9-3.1-6.1-2.3-7.7-8.6-2.5-12.3 4-2.9 6.9-9.5 14-5.9.6.3 2.8-1.9 3.9-3.2 1-1.3 1.5-3 2.3-4.5l1.5.5zM513.7 246.1c-3.4 4.1-5.7 6.8-9 10.8.8-3.5 1.3-5.5 1.8-7.5-.4-.2-.8-.5-1.3-.7-2.1 3.3-4.2 6.5-6.6 10.2-5.4-7.4-10.3-14.3-15.3-21.2.3-.5.7-1.1 1-1.6 9.4 3.2 18.9 6.4 29.4 10zM520.9 278.9c-2.8-.9-6.5-2.1-11-3.5 2.4-4.8 4.4-8.8 6.4-12.9.5.1.9.3 1.4.4v9.4c.5 0 1 .1 1.4.1-.7-4.6 4.6-8.2 1-13.5-.4-.6 3-5 3.5-4.8 3.8 1.5 7.3 3.7 9.7 5-4.5 7.3-8.2 13.3-12.4 19.8zM430.8 386.7c1.8 2 3.4 4.2 5.4 5.9 3.5 3 7.2 5.9 11 8.6 4.5 3.2 4.6 3.1 5 13.3-2.4-1.3-4.6-2.1-6.2-3.6-5-4.6-10.1-9.2-14.4-14.4-1.9-2.3-2-6.1-2.9-9.2.7-.1 1.4-.4 2.1-.6zM426.3 400.9c5.8 4.8 11.5 9.6 17.1 14.2.6.5 1.2 1.2 1.8 1.2 6.8.3 7.1 5.3 7.3 11.2-3.5-1.9-7-3.1-9.7-5.3-6.2-5-15.6-7.2-16.4-17.4 0-1.4 0-2.9-.1-3.9z" fill="#fff"/>
  <path d="M429 326.2c-5.7-2.4-11.6-4.6-17.1-7.5-1.6-.8-3-4.2-2.6-5.8.6-2.1 3.2-3.6 4.6-5.1 4.9 3.6 9 6.7 13.2 9.6 4.2 3 4.2 2.9 1.9 8.8zM540.7 263.7c1.6 1.2 3.1 2.3 5 3.8-6.1 6.3-14.1 10.9-14.6 21.1-8.2-9.4-6.1-14.4 9.6-24.9zM555.5 395.3c0-6.5.1-13 0-19.6 0-1.8-1.2-3.8-.7-5.3.6-2.1 2.1-5.1 3.7-5.5 2.6-.7 3.9 1.7 3.8 4.6-.3 6.4-.1 12.8-.7 19.2-.2 2.6-2 5-3.1 7.5l-3-.9zM548.1 371.4c5.6 6.6 5.6 16.9.2 20.8-4.3-7.1-4.4-18.1-.2-20.8zM403.1 380.4c8.6 2.6 8.4 9.7 11 16.8-7.4-4.2-7.9-10.9-11-16.8zM433.1 276.1c.4-3.2.7-6.5 1-8.8 4-1.2 7.4-2.2 10.7-3.2l1 1-13.5 9.3c.3.6.5 1.1.8 1.7zM397.1 392.3c-4.7-4.4-4.4-8.5-1.7-12.9.6 3.9 1.1 7.9 1.7 12.9zM513.5 262c-1.7 3-3.5 6-5.2 9.1-.8-.5-1.6-1-2.4-1.4 1.9-2.8 3.8-5.7 5.7-8.5.6.2 1.2.5 1.9.8z" fill="#fff"/>
  <path d="M473.9 326.3c23 7.9 44.7 19.5 69.6 21.6l-.3 2.7c-3.1 0-6.5.8-9.3-.1-15.3-4.9-30.5-10.1-45.6-15.5-5.2-1.9-10-4.7-15-7.1.1-.6.3-1.1.6-1.6zM465.9 257.3c6.7.7 14.3-1.8 18.3 5.6 1.7 3.1 1.9 6.9 2.8 10.4-.8.3-1.7.6-2.5 1-.8-1.6-2.1-3.1-2.2-4.8-.6-6.1-2.7-8.5-8.7-8.8-3.7-.2-7.3-1.5-10.8 1.6-1 .9-4-.4-6.3-.7 2.9-3.3 5.4-6.2 8.3-9.5.2 1.7.6 3.3 1.1 5.2zM493.4 139.8c9.1 4.4 18.2 8.7 27.3 13.1 1.5.7 3 1.6 4.2 3-20-5-37.3-16.1-55.9-24 .2-.5.4-1 .6-1.6l24 9.6c0 .1-.2-.1-.2-.1z"/>
  <text transform="translate(61.884 61.537)"><tspan x="0" y="0" font-family="Peanuts" font-size="37">HEY, CHARLIE</tspan><tspan x="0" y="44.4" font-family="Peanuts" font-size="37">BROWN!</tspan><tspan x="0" y="88.8" font-family="Peanuts" font-size="37">GUESS WHAT</tspan><tspan x="0" y="133.2" font-family="Peanuts" font-size="37">I GOT FOR</tspan><tspan x="0" y="177.6" font-family="Peanuts" font-size="37">CHRISTMAS!</tspan></text>
  <text transform="translate(15.446 459.347)" fill="#010101" font-family="BaskervilleT-Bold" font-size="12">Copr 1951 by United Feature Syndicate, Inc.</text>
</svg>
