<svg xmlns="http://www.w3.org/2000/svg" viewBox="0 0 595.3 465.2" xml:space="preserve">
  <path fill="#fff" d="M.5-.1h594.7v465.3H.5z"/>
  <path d="M0 465.2V0h595.3v465.2H0zm589.8-436s.1 0 0 0c0-6.3-.1-12.5.1-18.8.1-5-2.5-6.4-7-6.3-7.5.1-15-.2-22.4-.3-11.2-.3-22.3-.8-33.5-.6-8.9.1-17.8 1.4-26.7 1.4-14.5-.1-29.1-1.3-43.6-1.3-30.6 0-61.3.4-91.9.7-16.1.2-32.1.4-48.2.7-11.2.2-22.4.7-33.5.5-17.2-.3-34.5-1.3-51.7-1.7-6.4-.1-12.9 1.1-19.3 1.2-14 .2-28 .2-42 .1-6.2 0-12.3-.1-18.5-.3-3.9-.2-7.8-1.1-11.7-1.1-5.2 0-10.4.8-15.6 1-14 .4-28.1.8-42.1.9-16 .1-32 0-48 0-8 0-15.9 0-23.9.4-1.4.1-3.9 1.8-4 2.8-.4 5.7-.3 11.4-.1 17.1.2 6 1.2 12 1 18-.3 10.5-1.5 21.1-1.7 31.6-.1 10 .8 20 .9 30.1.1 9.3-.1 18.6-.3 28-.2 17-.5 34-.6 51.1 0 8.5.5 17.1.5 25.6 0 9.2-.5 18.3-.6 27.5-.1 9.5 0 19-.1 28.6-.1 11.2-.6 22.4-.6 33.7 0 14.7.4 29.3.3 44 0 10.3-.6 20.5-.7 30.8-.1 11.3.1 22.6-.1 33.9-.1 8.1-.8 16.3-.8 24.4 0 7.3.7 14.5.6 21.8-.1 5.6.9 7.2 6.6 7.3 7.6.1 15.1.2 22.7.2 16.5-.1 33-.3 49.5-.5 11.9-.1 23.8-.3 35.7-.3 10.4 0 20.7.5 31.1.5 13.2 0 26.3-.6 39.5-.6 18.8.1 37.6.7 56.4.7 11 0 22.1-.6 33.1-.9 3.5-.1 7.1-.6 10.6-.5 7.2.2 14.5 1.1 21.7 1.1 6.1 0 12.1-1.3 18.2-1.3 12.2 0 24.4.6 36.5.6 30.4.1 60.9-.1 91.3 0 26 .1 52 .4 78.1.5 15.2.1 30.4 0 45.6-.1 6.2 0 8.7-2.4 9.1-8.3.2-2.2.1-4.5.1-6.7V401c0-39.6.1-79.3 0-118.9-.1-16.4-1-32.8-1-49.1.1-34.8.8-69.6 1-104.5.2-33.2 0-66.2 0-99.3z" fill="#fff"/>
  <path d="M589.8 29.2c0 33.1.1 66.1 0 99.2-.2 34.8-.9 69.6-1 104.5-.1 16.4.9 32.8 1 49.1.1 39.6 0 79.3 0 118.9v45.4c0 2.2 0 4.5-.1 6.7-.4 5.9-2.9 8.2-9.1 8.3-15.2.1-30.4.2-45.6.1-26-.1-52-.4-78.1-.5-30.4-.1-60.9.1-91.3 0-12.2 0-24.4-.6-36.5-.6-6.1 0-12.1 1.3-18.2 1.3-7.2 0-14.4-.8-21.7-1.1-3.5-.1-7.1.4-10.6.5-11 .4-22.1.9-33.1.9-18.8 0-37.6-.6-56.4-.7-13.2 0-26.3.6-39.5.6-10.4 0-20.7-.4-31.1-.5-11.9 0-23.8.2-35.7.3-16.5.2-33 .4-49.5.5-7.6.1-15.1 0-22.7-.2-5.7-.1-6.7-1.7-6.6-7.3.1-7.3-.7-14.5-.6-21.8 0-8.1.7-16.3.8-24.4.2-11.3-.1-22.6.1-33.9.1-10.3.7-20.5.7-30.8 0-14.7-.4-29.3-.3-44 0-11.2.5-22.4.6-33.7.1-9.5 0-19 .1-28.6.1-9.2.6-18.3.6-27.5 0-8.5-.5-17.1-.5-25.6.1-17 .4-34 .6-51.1.1-9.3.4-18.6.3-28-.1-10-1.1-20.1-.9-30.1.2-10.5 1.4-21.1 1.7-31.6.2-6-.8-12-1-18-.2-5.6-.3-11.3.1-17 .1-1.1 2.5-2.8 4-2.8 7.9-.4 15.9-.4 23.9-.4 16 0 32 .1 48 0 14-.1 28.1-.5 42.1-.9 5.2-.1 10.4-.9 15.6-1 3.9 0 7.8.9 11.7 1.1 6.1.3 12.3.3 18.5.3 14 0 28 .1 42-.1 6.4-.1 12.9-1.3 19.3-1.2 17.2.3 34.5 1.3 51.7 1.7 11.2.2 22.4-.3 33.5-.5 16.1-.2 32.1-.5 48.2-.7 30.6-.3 61.3-.7 91.9-.7 14.5 0 29.1 1.2 43.6 1.3 8.9.1 17.8-1.3 26.7-1.4 11.1-.1 22.3.3 33.4.5 7.5.1 15 .4 22.4.3 4.5 0 7.1 1.4 7 6.3 0 6.4.1 12.6 0 18.9.1 0 0 0 0 0zM257 411.6c6.3.5 13.4 1.1 20.4 1.6 7.1.6 14.2 1.5 21.3 1.6 7.7.1 15.3-.9 23-1 1.5 0 3.1 1.7 4.6 2.6-.9.9-1.7 2.5-2.6 2.5-12.7.3-25.4.6-38.1.6-3.6 0-7.3-1.8-10.9-1.9-6.6-.2-13.3.4-19.9.4-3.3 0-7 0-9.8-1.4-6.2-3-12.6-2.4-19-2.3-5.7.1-12.1 1.5-16.9-.6-4.8-2.1-9.2-1.8-13.9-2-1.1-.1-2.9.2-3.1-.3-2.4-4.5-6.5-2.2-9.9-2.8-4.4-.8-8.7-1.8-13-2.8-.4-.1-.6-1.1-1.3-2.3 3.1 0 5.6-.3 8 .1 5.4.8 10.9 2.9 16.2 2.6 10-.6 19.5 1.2 29.2 2.5 1.6.2 3.4-.4 5-.1 4.4.8 8.7 1.8 13.3 2.8-1.2-4.7-2.3-8.4-3-12.1-1-5.8-1.7-11.7-2.7-17.5-.1-.8-1.9-1.2-2.9-1.8-.4 1.1-1.3 2.3-1.1 3.3.5 2.4 1.6 4.7 2.4 7 .9 2.7 2.1 5-1.1 7.5-6.2 4.9-14.6 3.6-18.6-3.7-4.2-7.6-6.2-15.7-5.6-24.5.1-1.8-.8-4.5-2.1-5.4-3.4-2.3-3.9-4.9-2.5-8.3 1.2-3.1 2.4-6.3 3.6-9.4-6.2-4.1-7.6-6.8-3.8-10.2 6.5-5.7 7.2-13 7.9-19.6h-53.4c-2 0-4.1.5-5.7.7 1.6 4.2 2.3 7.9 4.2 10.6 3.6 5 4.7 10.1 1.3 15.1-2.9 4.2-6.8 7.9-13.8 4.7 2.9 6.4 1.5 9.9-4.5 11.6-4.5 1.3-8.9 3.2-13.4 4.9 0 4.2 2.2 3.4 4.9 2.2 7.5-3.2 13.9-.8 14.9 6.8.6 4.5-1 9.9-3.4 14-4.4 7.7-10 14.6-14.8 21.4 14.9 3.9 31.5 2.5 47.2 7.3-1.2 1.3-2.2 1.8-3.3 1.8-5.2-.1-10.4-.3-15.6-.5-5-.2-10.1-.4-15.1-1-2.3-.3-4.6-1.7-6.9-1.8-11.9-.6-23.8-.8-35.6-1.4-2.4-.1-4.8-1.8-7.2-2.6-1-.3-2.2-.6-3.2-.5-9.4 1.6-17.5-5.2-26.8-4.1-.3 0-.6-.8-1-1.1-1.6-.8-3.2-2.1-4.8-2.3-6.6-.7-13.2-1.1-21.7-1.8 2.3-2 3.4-3.8 4.5-3.8 8.8.2 17.6.5 26.4 1.2 5.7.4 11.4 1.5 17.5 2.3-2.1-2.6-4.8-4.4-4.9-6.4-.3-6-4.4-9.8-7.2-14.2-2.9-4.4-4.3-9.9-.7-12.8 3.1-2.6 9.2-2.9 13.6-2.2 3.4.6 5.1.1 7.3-2.2-3.9-1.7-7.4-3.9-11.1-4.5-5.1-.8-5.9-4.8-7.7-8.1-.1-.1-.3-.2-.5-.3-6.2-5.2-7-8.9-.1-15 1.6-1.4 2.2-4.5 2.2-6.8.1-3.2-.8-6.5-1.4-10.4H12.4V338c2.7-.2 6.3-1.7 8.1-.5 6.6 4.2 12.9 2 19.5.8 2.9-.6 6.2-.4 9.1.2 3.4.7 6.7 2.3 10.1 3.5-.2.7-.4 1.3-.5 2-9.9 1.2-20.4-3.6-28.2 1.7-5.7-1.6-10-3-14.4-4-2.8-.6-4.3.8-4.2 3.9.2 5.3-.1 10.7.3 16 .1 1.4 1.9 3.3 3.3 3.7 13.5 4.4 27.7 4.5 41.6 5.6 2 .2 4 1.1 6 1.6-8.4 6.5-17.4.4-25.5 2.7-9.3 2.6-16.7-3-25.6-4.5v6.5c-.3 11-.6 22-1 33-.3 7.2.3 7.8 7.2 8.5 6.3.7 13 .9 18.8 3.1 11.4 4.2 22.9 4.9 34.8 5.1 7.4.2 14.7 3.3 21.9 5.7 7.8 2.6 15.3 6.4 23.2 8.5 5.8 1.5 12.2 1.1 18.3 1.7 7.6.8 15.1 1.8 22.6 3 7.2 1.1 14.3 2.6 21.5 4 9.2 1.7 17.8 5.5 27.6 5.3 21-.6 42-.4 63-.5 8.8 0 17.6.4 26.4.3 10.5-.2 21.1-1 31.6-1 10.6 0 21.2.9 31.8 1 8.6 0 17.3-1 25.9-.9 23.9.1 47.7.4 71.6.6 9.8.1 19.7-.4 29.5-.2 21.3.3 42.5 1.1 63.8 1.3 9.5.1 19.1-1 28.6-.8 3.6.1 4.5-1.3 4.5-4.1.1-7.2 0-14.4 0-22.4-6.2-.6-12.1-.8-17.8-1.7-13.7-2.2-27.3-5-41-7.2-9.3-1.5-18.7-2.5-28-3.3-7.4-.6-14.8-.6-22.1-.9-6.4-.3-13.1.2-19.3-1.3-10.3-2.5-20.4-5.9-30.4-9.5-6.3-2.3-12.4-2.5-18.9-1.1-2.5.5-5.4.1-8-.3-3.6-.6-7.5-1.1-10.7-2.7-4.9-2.4-12.2.1-14.5-6.9-9.6 4.2-19.2 3.4-28.8 2.3-3.3-.4-7.6 1.3-8.5-4.2-.1-.4-2.4-.7-3.7-.7-6.1-.1-12.3.4-18.4-.1-9.9-.8-19.7-2.2-29.6-3.4-1.2-.2-2.4-.7-4.3-1.2 1.3-1 1.9-1.8 2.4-1.8 6.9 0 13.8-.3 20.6.3 4.7.4 10.1 4.2 13.7 2.8 7.7-2.9 14.6-.1 21.7.5 9 .7 18 1.9 27 2.9.9.1 1.8 0 2.6-.4 8.7-3.8 16.4 1.3 24.6 2 .4.6.7 1.3 1.1 1.9-1.5.4-3 .9-4.6 1.3 7.9 2.7 14.6 5.1 22 2.8 2.8-.9 6.4-.1 9.5.7 9.8 2.7 19.4 6.4 29.3 8.6 9.7 2.1 19.6 3.3 29.5 4.2 15.5 1.5 31.2 2.2 46.7 3.9 10.5 1.2 20.9 3.5 31.4 5.4 2.7.5 5.2 1.5 7.9 1.9 6.1.8 12.2 1.3 18.5 2v-30.1c0-9.1.3-18.1.2-27.2 0-1.1-1.4-2.9-2.4-3.1-5.5-1-11.1-1.8-16.7-2.2-6-.5-12-.7-18.1-.9-8.8-.4-17.8-1.9-26.3-.6-10 1.5-19.8.6-29.1-1.1-15.6-2.8-31-6.5-46.9-5.8-3.8.2-9.8-4-11.9 3.5-.1.3-1.4.7-2 .5-3.4-.8-6.7-1.9-10.1-2.7-.8-.2-1.7.5-2 .6 1.7 2.1 3.3 3.9 4.9 5.8-.4.4-.8.8-1.3 1.2-1-.2-2.1-.1-3-.5-7.8-3.7-16.3-3.4-24.5-3.7-3.9-.1-6.8-1.1-10.1-3.2-8-4.9-17.2-6.3-26.5-6.2-6.7 0-13.3 1.2-20 1.4-11.7.4-23.4.5-35.1.7h-6.5l-.3-2.1c1.7-.6 3.5-1.7 5.2-1.8 6.2-.4 12.5-.4 18.8-.5 3.9-.1 7.9.3 11.7 0 7-.6 13.9-1.8 20.8-2.6 12-1.3 23.5 1.8 34 6.6 7.1 3.3 14.2 2.9 21.2 3.5 6.7.6 13.6-2.6 20.4-2.8 14.6-.5 29.6-2.1 43.8.4 16.2 2.8 32.2 4 48.5 4.2 8.3.1 16.5 1.5 24.8 2 5.5.3 11-.4 16.4.2 7.3.7 14.5 2.3 21.3 3.4v-44.4c0-8.5-.4-8.9-8.9-9.1h-2.2c-10.7.6-21.4 1.6-32.1 1.8-9.2.2-18.4-.7-27.5-.5-13.8.3-27.7 1.5-41.5 1.5-12.1 0-24.2-1.4-36.3-1.8-8.9-.3-17.8-.4-26.7.1-8.6.5-17.1 2-25.7 3-11.9 1.3-23.9 4.1-35.8 3.5-19.7-1.1-39.4-3.9-59.2-1.4-1.1.1-2.4-1.2-4.1-2.1 1.5-1 2-1.8 2.6-1.8 8.8-.3 17.4-1.9 26.3-1.1 12.1 1.1 24.3 1.4 36.4 1.6 7.1.1 14.3-.7 21.4-1.2 2.4-.1 4.8-.3 7.2-.6 9.1-1.4 18.1-4 27.2-4.1 22.6-.2 45.2.9 67.9 1.3 9 .2 18 .1 27.1-.1 7.1-.2 14.2-1 21.3-1.2 7-.2 14.1.1 21.1-.2 8.1-.3 16.2-1.5 24.3-1.6 5.9-.1 11.7 1 17.4 1.5v-74.9c-7.1 1.6-13.8 3.3-20.6 4.5-11.3 2-22.7 4.2-34.1 5.3-9.2.9-18.5-.2-27.7.6-13.2 1.1-26.4 3.5-39.7 2.6-10.1-.7-20.1-1.5-30.2-2-1.7-.1-3.9.1-5 1.2-11.3 11-24.9 17.1-40.1 20.4-11.9 2.5-23.7 5.4-35.5 8.2-3.2.7-5.1-.1-5-3.9 4.6-.9 9-1.2 13.2-2.6 9.2-2.9 18.5-5.6 27.2-9.6 7.6-3.5 16.2-6.5 20.2-15.7-1.3-.5-2.4-1.1-3.6-1.2-9.6-1.5-19.2-2.4-28.7-4.4-13.4-2.9-26.5-6.8-37.6-15.6-10.5-8.3-12.5-17.9-5.7-29.8-.7-.5-1.4-1-2.1-1.4-11.9-6.1-24.1-11.6-35.5-18.5-5.3-3.2-10-8.5-12.9-14-11-20.4-11-42.3-5.5-64.1 3.7-14.7 9.5-29 15-43.3 3-7.6 7.3-14.7 11.5-21.7 2.8-4.7 6.3-8.9 10-14h-31.3c-6.8 0-7.1.2-6.9 7 .3 10.4.9 20.8 1.6 31.2.2 3.6-1 5.2-4.9 5.2-12.8.2-25.5.9-38.3 1.1-22.6.3-45.3.4-67.9.4-32.7 0-65.4-.1-98-.2H12.3v16.9c-.1 14.2-.3 28.5-.2 42.7 0 9.4.7 18.9.6 28.3-.2 15.7-.9 31.3-1.2 47-.3 13.4-.4 26.8-.3 40.1.1 12.6.6 25.2.6 37.8.1 12.9-.2 25.7-.2 38.6 0 2.4.7 4.4 4.1 4.2 4.1-.2 8.3 0 12.4.1 8 .2 16.1 0 24.1.8 7.6.7 15.9-1.8 23.1 3.7 2.5-5.3 4.6-10.8 7.5-15.8 3-5 7.2-9.3 10.1-14.3 2.1-3.6 5-6.8 3.8-12.1-.7-3.3.1-8.6 6.3-8.5-2.5-4.5-5.7-5.7-8.4-3.7-2.6 2-5.3 3.8-8 5.8 0 1.9.1 4.4 0 6.9-.2 5.1-4 5-7.4 4.6-3.4-.3-4.9-1.8-3.8-5.8.9-3.1.2-6.6.2-10.1-5.1 1.3-8.5.4-10.3-3.8-.8-2 .2-5.5 1.6-7.5 2.5-3.4 5.9-6 9.2-9.3-.3-.6-.8-2.3-1.8-3.8-1.1-1.6-3.2-2.7-3.9-4.4-1-2.6-1.3-5.6-1.7-8.5-.3-2.4.4-5.2-.5-7.3-7.6-16.7-3.8-28.2 9.9-39.1 1.6-1.3 3.8-2.8 4.1-4.6 2.4-10.8 6.9-12.7 13.9-6.8 8.6-1.5 16.3-3.8 23.9-3.8 5.5 0 11.1 3 16.6 4.9 10.5 3.7 19 10.5 26.9 18.2 3.6 3.5 5.8 8.9 12.6 8.7 1.9-.1 4.5 4.7 5.5 7.7.4 1.3-2.3 4-4 5.6-2 1.8-4.7 2.9-6.6 4.8-5.8 6-4.3 12.9-1.9 19.8 2.1 6.1 3.5 11.9-3 16.7-1.6 1.2-2.4 4-2.7 6.1-.6 4.3-1.6 7.5-7 7-.8-.1-2.4.8-2.5 1.5-.8 3.4-1.2 6.9-1.8 10.4-3.9 5.8-5.1 5.7-9.2.3.4-4.7.6-8.4.9-12.2-5 1.4-8.9 2.4-13.2 3.6 1 1.1 1.6 1.8 2.2 2.4 3.8 3.4 6.2 6.9 2.2 11.9-.7.9-.7 2.7-.4 3.9 2.3 7.5 4.6 15.1 7.2 22.5 1.4 4.1 3.6 7.1 8.8 5 1.6-.6 3.6-.5 5.3-.5 10.4.2 20.8.8 31.3.7 7.7-.1 15.5-.9 23.1-1.4 2.1-4.8 4.3-10 6.7-15.1 2.4-5.2 5-10.2 7.4-15.3 1.7-3.6 3.5-7.3 4.8-11.1 1-3.1 1.4-6.3 2.2-10.3-7.4-.9-11.3-9.1-20.3-10.9-13.5-2.6-20.1-18.7-20.4-32.4-.1-6.1 1.6-12.5 3.6-18.4 4.3-12.7 10.8-23.8 23.9-29.5 1.4-.6 2.6-1.7 3.5-2.9 1.3-1.8 2.1-3.8 2.6-4.7 3.7.7 6.4 1.6 9 1.5 13.6-.6 26.5 2 38.4 8.6 10.9 6 21.8 12.1 32.4 18.7 2.9 1.8 6.4 5.2 6.5 8.1.2 4.6-3.1 8.2-7.8 10.5-2.8 1.4-4.9 4.5-6.7 7.3-2.2 3.3-2 6.1 1 9.8 2.8 3.4 3.5 8.7 4.2 13.3.2 1.2-3.5 2.9-5.4 4.4-.3.2-.4.5-.6.8-6.5 8.6-14.2 15-25.3 16.6-2.8.4-5.5 1.9-8.6 3 1.1 1.3 1.7 2 2.3 2.6 4.6 4 6.3 8.5 2.4 14-.6.8-.5 2.3-.2 3.3 1.1 3.8 2 7.7 3.6 11.3 3.8 8.4 4.1 18.3 12.1 25.1 3.6 3 5.2 8.3 7.5 12.7.6 1.2.7 3 .2 4.2-2 4.8-4.3 9.9-10 11.1-3 .7-3.6 1.8-3.9 4.6-.3 3.2-.8 6.9-2.6 9.4s-5.2 3.9-7.8 5.8c5.2 1.7 8.9 5.3 7.3 11.7-1 4.1-2.3 8.2-4.2 11.9-2.9 6.6-7.1 13.2-11.1 20zm326.6-189.3c0-15.7.1-31.6-.1-47.6-.1-9.7-1-19.4-1.1-29-.1-8.8.6-17.6.8-26.4.1-8.8 0-17.6 0-26.4 0-11.1-.1-22.1-.2-33.2 0-14.8-.2-29.7 0-44.5 0-2.9-.3-4.3-3.5-4.4-12.5-.4-25-1.2-37.4-1.3-20-.2-39.9.1-59.9.3-34.8.3-69.6.9-104.4 1.2-17.4.1-34.9-.3-52.4-.1-4.9.1-10.7-1.6-14.2 3.8-3.7 5.7-7.9 11.1-10.7 17.2-6 13.1-11.6 26.4-16.6 39.9-5.4 14.7-9.8 29.8-8.7 45.8.3 4.4.6 8.8 1.4 13.2 1.7 10 5.4 19.2 12.4 26.9 8.7 9.6 20.2 14.2 31.6 19.2 5.2 2.3 10.5 4.3 16 6.5-1.3 2.7-2 4.3-2.8 5.9-3.8 8.4-1.3 21.1 6 25 6.8 3.6 13.6 7.4 21 9.3 14.9 3.9 30.1 6.6 45.3 9.7 6 1.2 7.4 3.6 3.9 8.7-2.7 3.9-6.3 7.1-9.4 10.6.3.1.9.4 1.3.2 7.7-4.5 15.8-8.5 21.3-16 .7-.9 2.6-1.3 3.9-1.3 12 .2 24.1 1 36.1.8 14-.2 28-1.1 42-1.6 9.5-.3 19 .4 28.4-.7 16.9-2.1 33.8-3.5 50-11.7zM215 242.4c1.6 1.1 3.2 2.9 3.9 2.6 3.9-1.8 5.7 1.4 6.8 3.4 2.3 4.1 6 5.3 10 6.5 3.6 1 7.1 2.3 10.7 2.8 14.8 1.9 28.8-.8 41.2-9.2 7.1-4.8 9.3-11.3 5-17-5.1-6.7-3.7-11.8.4-17.6 1-1.4 1.2-3.4 1.5-4.5-5.7-.4-11-1.4-16.2-.9-7.9.7-15.6 0-23.5-.8-6-.6-12.5 1.3-18.5 3.2-3.6 1.1-6.5 4.3-9.8 6.3-4 2.4-4.3 5.8-3.7 10 1.2 8.1 7.2 13.3 11.2 19.7 1 1.5 1.2 3.5 1.8 5.3-11.5-5.6-17.5-14.6-17.6-26.4-.1-10.6 10.1-13.1 17.1-18.3-2.3-2.2-4.6-4.3-7.6-7.2 1.9-.2 2.5-.4 2.9-.2 1.7.7 3.3 1.4 4.9 2.3 4.4 2.5 5.6 1.9 7.2-2.8.5-1.5 2-2.6 3.1-3.9l.3 4.8v.5c3.5.9 6.3 1.7 9.2 2.3 1.2.3 3.1.5 3.8-.1 4.6-4.6 4.4.2 5.2 2.5 3.6-.9 7.3-3 10.5-2.4 2.8.6 4.9 1.5 7.7 0 1.8-1 4.3-.9 7.2-1.5-.9 2.1-1.5 3.3-2.4 5.4 3.5-1.1 5.9-1.8 9-2.7-2.6-4.3-4.9-8-7.3-12 .9-.4 2.4-1.4 2.5-1.2 3.6 4.4 7 8.8 10.6 13.4 5.3-2.4 7.1-6 3.5-8.5-6.1-4.2-12.4-8.3-20.5-7.5-12 1.3-24.1 2.3-36.1 3.6-16.4 1.7-32.5 4.4-47.2 12.3-2.3 1.2-4.8 4.3-5.1 6.7-1.5 14.3 4.8 25.3 15.9 34.2.8-1.1 1.5-2.1 2.4-3.1zm16.3 33.3c-1.6 3.2-3.2 6.3-4.6 9.5-3.6 8.5-7.1 17.1-10.3 25.8-1.3 3.4-.8 6.4 3.6 8.2 7.7 3.2 7.9 3.1 11.1-4.8 1.8-4.5 2.8-10 9-13.5-.6 1.9-.8 2.6-1 3.2-4.3 11-9.6 21.6-12.6 32.9-2.1 7.9-9.5 12.1-17.1 8.7-.8 3.5-1.8 6.9-2.3 10.3-.1.9.8 2.7 1.6 3 11.8 4.7 24 7.2 36.7 6.2 7.2-.6 14.3-2.3 21.5-2.9 3.8-.3 5.2-1.9 5-5.2-.3-4.6-.6-9.1-1.4-13.6-1.3-7.8-3.3-15.5-4.5-23.3-2-12.3-3.5-24.6-5.2-36.1-4.1-.3-8.9.6-11.6-1.4-2.7-2-3.9-1.3-5.9-.3-1.7.9-3.3 2-5.7 3.4-2.1-3.4-4.1-6.6-6.3-10.1zm-145-29.4c7.5-5.2 9.4-4.2 11.4 4.6.4 1.9 2.2 4.6 3.9 5.1 8.2 2.1 16.5 5 24.8 5 11.4-.1 22.8-2.2 33-8.4 4.7-2.8 9.2-9.3 7.6-12.6-1.3-2.5-2.5-5.2-4.2-7.4-2.5-3-2.8-6.1-1.1-9.4 1.7-3.4 3.6-6.6 6.1-11.1-5.1.5-9 1.3-12.9 1.3-4.2 0-8.4-.8-12.6-1.1-.7-.1-1.5.3-2.3.4-5 .3-9.9.7-14.9 1-1.7.1-3.8-.7-4.9.1-5.7 4.1-11.3 3.3-16.9.1-4.1-2.4-8-3.2-11.8.6 2.6 3 2.2 6.2-.3 9.4-2.3 2.9-5.1 2.4-8.1 1.3-2.3-.8-4.8-1-7.2-1.5-2.3 4.3-1.3 9 2.4 9.4 3 .3 4.6 1.4 5.5 4 .8 2.9 1.5 5.9 2.5 9.2zm-75 208.6h170.6c.1-.9.1-1.7.2-2.6-16-1.5-32-3.6-48.1-4.4-14.2-.7-28-3.2-40.6-9.1-9-4.3-18.1-5.9-27.6-6-9.8-.1-19.1-.4-28.5-4.4-8-3.4-17-4.3-26-6.4v32.9zm84.1-258.4c-1.6 1.4-2.9 2.4-4.2 3.5 2 3.6-.3 7-5.4 9.5-3.8 1.9-7.2 4.3-10.8 6.5.2.5.5 1.1.7 1.6 26.1-16.3 54.8-23.9 86.7-24.4-32.5-29.6-57.5-29.9-84.3-8.1 4.6 5.1 6.9-3.5 12.2-1.6-3.9 3.3-7.3 6-10.6 8.8 6.4-1.4 6.4-1.4 15.7 4.2zm151.3 197.9c1.5-.1 2.7-.4 3.8-.2 10.6 1.9 12.6.6 15.1-9.6.3-1.4 1-2.7 1-4.1 0-2.4-.4-4.9-.7-7.3-2.8.7-6.5.4-8.3 2.2-5.4 5.1-10 10.9-10.9 19zm-130.4-4c9.7-.6 19.5 2.9 22.4-9.4.1-.3.7-.6.7-.8-.3-2.7 0-7.1-1.3-7.7-2.6-1.1-7.5-1.5-9 .2-4.6 5-8 11-12.8 17.7zm118.3-19.2c2.6 5.5 4.9 10.7 7.7 16.7 2.6-6.5 8.8-10.3 9.2-17.8-5.9.4-11.2.7-16.9 1.1zM89.5 338.5c-4-1.5-6.8-2.7-9.7-3.5-1.3-.4-3.5-.4-4.1.4-2.1 2.7-3.7 5.7-5.4 8.7-.1.3.7 1.6 1.1 1.6 4.6-.2 9.3 0 13.7-1 1.6-.5 2.7-3.6 4.4-6.2zm116.9 1.6c5.1.3 9.4.5 13.8.8 1-3.4 1.9-6.2 2.7-9-10.8-3.4-11.8-2.9-16.5 8.2zm66.6-5.9c2.4-2.6 3.8-4.2 5.2-5.7.4.3.9.6 1.3.9-1.2 4.4-2.4 8.8-3.8 14 5.7-.9 10-2.7 8.8-7.4-1-3.9-4.7-7.1-7.1-10.6-1.3 1.1-3 1.9-3.9 3.3-.7 1-.3 2.6-.5 5.5zm-13.6-71.7h-19.3c3.3 2.2 7.3 4.2 10.3 7.2 3.5 3.5 5 1.7 6.7-1.3.7-1.5 1.2-3.2 2.3-5.9zm-141.5 16.6c-3.8-2.9-6.9-5.6-10.4-7.8-1.1-.7-3-.1-4.5-.2.2 1.5-.1 3.6.7 4.4 3.1 2.7 6.5 5.1 10 7.3.7.5 2 .1 2.9.1.7-1.7 1.1-3.1 1.3-3.8zm-2 127.8c4-3.7 10.8-3.3 12.9-10.5-4.5.8-8.2 1.2-11.7 2.2-5.5 1.4-5.8 3.5-1.2 8.3zm-37.5-56.4c-.1.6-.3 1.2-.4 1.9 6.6 2.1 13.1 4.8 19.8 6.1 4 .8 8.8 3.5 12.7-.2l-32.1-7.8zm157.3-84.4c-.6.3-1.2.6-1.7.9 1.9 3.7 3.4 7.6 5.9 10.9.5.7 4.2-.8 6.4-1.4-.5-1.7-.5-4.1-1.7-5.1-2.7-2.1-6-3.5-8.9-5.3zm-109 2.3c-5.9-.8-11.4-1.6-16.9-2.3 2.5 2.7 5.3 4.3 8 6 5.3 3.4 6.2 3 8.9-3.7zm118.7 138c9.8.8 11.5-.1 11-5.8-4.1.3-8.2.5-12.6.8.8 2.2 1.2 3.6 1.6 5zm-100.7-63c3.2 2 6.6 1.1 8.2-2.2 1.7-3.4.8-7.2-1-10.3-2.5 4.3-4.7 8.2-7.2 12.5zm-73.2-83.6c.9-.1 1.7-.3 2.6-.4-3.5-5.3 1.4-5 4.4-7.1-1.7-1.6-3.1-3-4.4-4.3-1.8 1.9-4.4 3.5-5 5.7-.6 1.6 1.5 4 2.4 6.1zm33.6 148.1c-1.9-9.1-3.6-9.6-12.1-4.3 4.3 1.5 7.7 2.7 12.1 4.3zM86.8 261.5c6-1.3 8-5.8 6.1-10.6-.4-1-1.4-1.9-2.4-2.4-.4-.2-2.1.9-2.1 1.1.3 1.1.8 2.1 1.5 3.1.5.6 1.3 1 .7.6-1.3 2.8-2.3 5.1-3.8 8.2zm165-80.1c2.9 1.2 5.8 3.1 7.3-.8.5-1.2-.7-4.3-1.8-4.6-4.4-1.6-4.5 2.1-5.5 5.4zm-20.5 191.1c-4.2-1-6.9-1.7-9.6-2.3-.5.4-.9.9-1.4 1.3 1.5 2.2 3 4.4 4.8 7 2.3-2.2 3.6-3.4 6.2-6zm34.8-186.8c.5.6 1.1 1.1 1.6 1.7 1.9-1.6 3.8-3.2 5.7-4.7-1.6-1.3-3.2-2.6-5.4-4.3-.8 3.4-1.4 5.3-1.9 7.3zm-26.7-15.2c-.9 3.2-2.1 6.2 2.1 7 1.1.2 3.5-.8 3.7-1.6 1-4.5-2.7-4.5-5.8-5.4zM145.1 336c1.5-2.7 2.6-4.7 3.9-7-2.7-3.6-5.1-3.6-7.3-.1 1.1 2.3 2 4 3.4 7.1zm-44.6 47.1c-.7-.6-1.4-1.1-2.1-1.7-.9 1.6-3 3.6-2.6 4.7 1 2.5 3.1 4.6 4.8 6.8.5-.2 1-.5 1.4-.7-.5-3-1-6-1.5-9.1zm34.6-106c-2.3-2.5-3.4-3.6-4.4-4.7-1.5 1.6-3.3 3-4.4 4.9-.2.4 2.3 3.4 3.2 3.3 1.9-.4 3.5-2.1 5.6-3.5zM80.4 390.4c4.3 5.4 11.7 7.1 15.6 4.1-5-1.3-10.1-2.6-15.6-4.1zm148.2-212.7c-.4-.8-.8-1.6-1.2-2.5-1.8.4-3.6.9-5.5 1.3l2.1 5.4c1.5-1.4 3.1-2.8 4.6-4.2zm14.8 5.8c-2.4-1.5-3.9-2.8-5.6-3.2-.6-.1-2.7 2.5-2.4 3.1.6 1.3 2.2 2.7 3.6 2.9 1 .2 2.3-1.4 4.4-2.8zm-22.8.1c-.6.1-1.2.3-1.8.4.2 1.9.1 3.8.6 5.5.2.6 2.2 1.5 2.4 1.3 1.3-1.2 2.3-2.7 3.4-4.1-1.9-1.3-3.2-2.2-4.6-3.1zm40.5 94.3c1-.3 2-.6 2.9-.9-.9-2.6-1.7-5.3-2.6-7.9-.8.5-2.4 1.1-2.3 1.3.5 2.5 1.3 5 2 7.5z"/>
  <path d="M257 411.6c4-6.8 8.2-13.5 11.8-20.4 1.9-3.7 3.3-7.8 4.2-11.9 1.5-6.5-2.1-10-7.3-11.7 2.7-1.9 6.1-3.2 7.8-5.8 1.8-2.5 2.3-6.2 2.6-9.4.3-2.8.9-3.9 3.9-4.6 5.7-1.2 8-6.3 10-11.1.5-1.2.4-3.1-.2-4.2-2.3-4.4-3.9-9.7-7.5-12.7-8-6.8-8.3-16.7-12.1-25.1-1.6-3.6-2.6-7.5-3.6-11.3-.3-1-.3-2.5.2-3.3 4-5.5 2.3-10-2.4-14-.7-.6-1.2-1.3-2.3-2.6 3.2-1.1 5.8-2.6 8.6-3 11.1-1.6 18.9-8 25.3-16.6.2-.3.4-.6.6-.8 1.9-1.5 5.6-3.2 5.4-4.4-.6-4.6-1.4-9.9-4.2-13.3-3-3.7-3.2-6.5-1-9.8 1.8-2.7 3.9-5.9 6.7-7.3 4.6-2.4 8-6 7.8-10.5-.1-2.8-3.7-6.3-6.5-8.1-10.6-6.5-21.5-12.7-32.4-18.7-11.9-6.6-24.8-9.1-38.4-8.6-2.6.1-5.3-.8-9-1.5-.5.9-1.3 2.9-2.6 4.7-.9 1.2-2.2 2.3-3.5 2.9-13.1 5.7-19.6 16.9-23.9 29.5-2 5.9-3.7 12.3-3.6 18.4.2 13.6 6.9 29.7 20.4 32.4 9 1.8 12.9 10 20.3 10.9-.8 4-1.2 7.3-2.2 10.3-1.3 3.8-3.1 7.4-4.8 11.1-2.4 5.1-5.1 10.2-7.4 15.3-2.4 5.1-4.6 10.4-6.7 15.1-7.6.5-15.4 1.3-23.1 1.4-10.4.1-20.8-.5-31.3-.7-1.8 0-3.7-.2-5.3.5-5.2 2.1-7.4-1-8.8-5-2.6-7.5-4.9-15-7.2-22.5-.4-1.2-.3-3 .4-3.9 4-5 1.6-8.5-2.2-11.9-.7-.6-1.2-1.3-2.2-2.4 4.3-1.2 8.2-2.2 13.2-3.6-.3 3.9-.6 7.5-.9 12.2 4.1 5.5 5.3 5.6 9.2-.3.6-3.5 1-7 1.8-10.4.2-.7 1.7-1.5 2.5-1.5 5.3.5 6.4-2.7 7-7 .3-2.2 1.1-5 2.7-6.1 6.5-4.8 5.1-10.6 3-16.7-2.4-6.9-4-13.8 1.9-19.8 1.9-1.9 4.6-2.9 6.6-4.8 1.7-1.6 4.4-4.2 4-5.6-1-3-3.6-7.8-5.5-7.7-6.8.2-9-5.2-12.6-8.7-7.9-7.6-16.3-14.5-26.9-18.2-5.5-1.9-11.1-4.9-16.6-4.9-7.7 0-15.4 2.3-23.9 3.8-7-5.9-11.5-4.1-13.9 6.8-.4 1.8-2.5 3.3-4.1 4.6-13.7 10.8-17.5 22.4-9.9 39.1.9 2.1.2 4.9.5 7.3.4 2.9.7 5.8 1.7 8.5.7 1.7 2.8 2.8 3.9 4.4 1 1.4 1.5 3.2 1.8 3.8-3.3 3.2-6.7 5.9-9.2 9.3-1.4 1.9-2.5 5.5-1.6 7.5 1.7 4.2 5.1 5 10.3 3.8 0 3.5.7 7-.2 10.1-1.1 4 .4 5.5 3.8 5.8 3.5.3 7.2.5 7.4-4.6.1-2.5 0-5 0-6.9 2.7-1.9 5.4-3.7 8-5.8 2.7-2.1 5.9-.9 8.4 3.7-6.2-.1-7 5.2-6.3 8.5 1.2 5.3-1.7 8.5-3.8 12.1-3 5-7.2 9.3-10.1 14.3-3 5-5 10.5-7.5 15.8-7.3-5.5-15.5-3-23.1-3.7-8-.7-16-.6-24.1-.8-4.1-.1-8.3-.4-12.4-.1-3.3.2-4.1-1.8-4.1-4.2 0-12.9.3-25.7.2-38.6-.1-12.6-.6-25.2-.6-37.8-.1-13.4 0-26.8.3-40.1.3-15.7 1-31.3 1.2-47 .1-9.4-.6-18.9-.6-28.3-.1-14.2.1-28.5.2-42.7V55.6h52.5c32.7.1 65.4.2 98 .2 22.6 0 45.3-.1 67.9-.4 12.8-.2 25.5-.9 38.3-1.1 3.9-.1 5.1-1.6 4.9-5.2-.6-10.4-1.2-20.8-1.6-31.2-.2-6.8.1-7 6.9-7h31.3c-3.7 5.1-7.2 9.3-10 14-4.2 7-8.5 14.1-11.5 21.7-5.6 14.2-11.3 28.5-15 43.3-5.5 21.7-5.5 43.7 5.5 64.1 2.9 5.5 7.7 10.8 12.9 14 11.4 6.9 23.6 12.4 35.5 18.5.8.4 1.4 1 2.1 1.4-6.8 11.9-4.8 21.5 5.7 29.8 11.1 8.8 24.2 12.7 37.6 15.6 9.4 2 19.1 2.9 28.7 4.4 1.1.2 2.2.8 3.6 1.2-4 9.2-12.6 12.2-20.2 15.7-8.7 4-18 6.7-27.2 9.6-4.2 1.3-8.7 1.7-13.2 2.6 0 3.8 1.8 4.6 5 3.9 11.8-2.8 23.6-5.6 35.5-8.2 15.2-3.2 28.8-9.4 40.1-20.4 1.1-1 3.3-1.3 5-1.2 10.1.6 20.1 1.4 30.2 2 13.4.9 26.5-1.4 39.7-2.6 9.2-.8 18.5.3 27.7-.6 11.4-1.1 22.8-3.3 34.1-5.3 6.8-1.2 13.5-3 20.6-4.5v74.9c-5.7-.5-11.6-1.6-17.4-1.5-8.1.1-16.2 1.2-24.3 1.6-7 .3-14.1 0-21.1.2-7.1.2-14.2 1-21.3 1.2-9 .2-18 .3-27.1.1-22.6-.4-45.2-1.4-67.9-1.3-9.1.1-18.1 2.7-27.2 4.1-2.4.4-4.8.5-7.2.6-7.1.4-14.3 1.3-21.4 1.2-12.2-.2-24.3-.5-36.4-1.6-8.9-.8-17.6.7-26.3 1.1-.6 0-1.2.8-2.6 1.8 1.7.9 3 2.2 4.1 2.1 19.8-2.5 39.5.3 59.2 1.4 11.8.6 23.8-2.2 35.8-3.5 8.6-1 17.1-2.4 25.7-3 8.9-.5 17.8-.4 26.7-.1 12.1.4 24.2 1.8 36.3 1.8 13.8 0 27.6-1.2 41.5-1.5 9.2-.2 18.4.7 27.5.5 10.7-.3 21.4-1.2 32.1-1.8h2.2c8.6.3 8.9.6 8.9 9.1v44.4c-6.8-1.1-14-2.6-21.3-3.4-5.4-.6-10.9.1-16.4-.2-8.3-.5-16.6-1.9-24.8-2-16.3-.2-32.3-1.4-48.5-4.2-14.2-2.4-29.2-.9-43.8-.4-6.8.2-13.7 3.4-20.4 2.8-7-.6-14.1-.2-21.2-3.5-10.5-4.8-22-7.9-34-6.6-6.9.7-13.9 1.9-20.8 2.6-3.9.4-7.8 0-11.7 0-6.3.1-12.5.2-18.8.5-1.8.1-3.5 1.2-5.2 1.8l.3 2.1h6.5c11.7-.2 23.4-.3 35.1-.7 6.7-.2 13.3-1.4 20-1.4 9.3-.1 18.5 1.3 26.5 6.2 3.3 2 6.2 3 10.1 3.2 8.3.3 16.7 0 24.5 3.7.9.4 2 .4 3 .5.4-.4.8-.8 1.3-1.2-1.6-1.9-3.2-3.8-4.9-5.8.3-.1 1.3-.7 2-.6 3.4.8 6.7 1.8 10.1 2.7.6.1 1.9-.2 2-.5 2-7.4 8.1-3.3 11.9-3.5 15.9-.7 31.3 3 46.9 5.8 9.3 1.7 19.2 2.5 29.1 1.1 8.6-1.3 17.5.3 26.3.6 6 .2 12.1.4 18.1.9 5.6.5 11.2 1.3 16.7 2.2 1 .2 2.4 2 2.4 3.1.1 9.1-.1 18.1-.2 27.2v30.1c-6.3-.7-12.4-1.2-18.5-2-2.7-.4-5.2-1.4-7.9-1.9-10.4-1.9-20.8-4.2-31.4-5.4-15.5-1.7-31.2-2.4-46.7-3.9-9.9-1-19.8-2.1-29.5-4.2-9.9-2.2-19.5-5.9-29.3-8.6-3-.8-6.6-1.6-9.5-.7-7.4 2.3-14.1-.1-22-2.8 1.5-.4 3-.9 4.6-1.3-.4-.6-.7-1.3-1.1-1.9-8.2-.7-15.9-5.8-24.6-2-.8.3-1.8.4-2.6.4-9-1-18-2.2-27-2.9-7.2-.5-14-3.4-21.7-.5-3.7 1.4-9-2.4-13.7-2.8-6.8-.6-13.7-.3-20.6-.3-.6 0-1.1.8-2.4 1.8 1.9.6 3.1 1.1 4.3 1.2 9.9 1.2 19.7 2.6 29.6 3.4 6.1.5 12.3 0 18.4.1 1.3 0 3.7.2 3.7.7.9 5.5 5.2 3.8 8.5 4.2 9.6 1.1 19.2 1.9 28.8-2.3 2.3 7 9.6 4.5 14.5 6.9 3.2 1.6 7.1 2.1 10.7 2.7 2.6.5 5.4.9 8 .3 6.5-1.3 12.5-1.2 18.9 1.1 10 3.6 20.1 7 30.4 9.5 6.2 1.5 12.8 1 19.3 1.3 7.4.3 14.8.3 22.1.9 9.4.8 18.8 1.8 28 3.3 13.7 2.2 27.3 4.9 41 7.2 5.7.9 11.6 1.1 17.8 1.7v22.4c0 2.8-.9 4.1-4.5 4.1-9.5-.1-19.1.9-28.6.8-21.3-.2-42.5-1-63.8-1.3-9.8-.2-19.7.3-29.5.2-23.9-.2-47.7-.5-71.6-.6-8.6 0-17.3 1-25.9.9-10.6 0-21.2-1-31.8-1-10.5 0-21 .9-31.6 1-8.8.1-17.6-.3-26.4-.3-21 0-42-.1-63 .5-9.7.3-18.4-3.6-27.6-5.3-7.2-1.3-14.3-2.8-21.5-4-7.5-1.2-15.1-2.1-22.6-3-6.1-.7-12.4-.2-18.3-1.7-7.9-2.1-15.4-5.9-23.2-8.5-7.2-2.4-14.6-5.5-21.9-5.7-11.9-.3-23.4-.9-34.8-5.1-5.9-2.2-12.5-2.4-18.8-3.1-6.9-.8-7.5-1.4-7.2-8.5.4-11 .7-22 1-33 .1-2 0-3.9 0-6.5 8.9 1.5 16.3 7.1 25.6 4.5 8.1-2.3 17 3.8 25.5-2.7-2-.6-4-1.5-6-1.6-14-1.1-28.1-1.2-41.6-5.6-1.4-.5-3.2-2.4-3.3-3.7-.4-5.3-.1-10.7-.3-16-.1-3.2 1.4-4.6 4.2-3.9 4.4 1 8.7 2.4 14.4 4 7.8-5.3 18.3-.6 28.2-1.7.2-.7.4-1.3.5-2-3.3-1.2-6.6-2.8-10.1-3.5-2.9-.6-6.2-.7-9.1-.2-6.6 1.3-12.9 3.4-19.5-.8-1.9-1.2-5.4.3-8.1.5v-20.5H71c.6 3.9 1.4 7.1 1.4 10.4-.1 2.3-.7 5.4-2.2 6.8-6.8 6.1-6.1 9.9.1 15 .1.1.4.2.5.3 1.9 3.4 2.7 7.3 7.7 8.1 3.7.6 7.2 2.8 11.1 4.5-2.2 2.3-3.9 2.8-7.3 2.2-4.4-.8-10.4-.4-13.6 2.2-3.6 2.9-2.2 8.4.7 12.8 2.9 4.4 6.9 8.2 7.2 14.2.1 2 2.8 3.8 4.9 6.4-6.2-.8-11.8-1.9-17.5-2.3-8.8-.7-17.6-1-26.4-1.2-1.1 0-2.2 1.8-4.5 3.8 8.5.7 15.1 1 21.7 1.8 1.7.2 3.3 1.5 4.8 2.3.4.2.7 1.1 1 1.1 9.3-1.1 17.4 5.7 26.8 4.1 1-.2 2.2.1 3.2.5 2.4.8 4.8 2.5 7.2 2.6 11.9.7 23.8.8 35.6 1.4 2.3.1 4.6 1.6 6.9 1.8 5 .5 10.1.7 15.1 1 5.2.2 10.4.4 15.6.5 1.1 0 2.2-.5 3.3-1.8-15.7-4.8-32.3-3.4-47.2-7.3 4.8-6.8 10.4-13.8 14.8-21.4 2.3-4 4-9.5 3.4-14-1-7.6-7.4-10-14.9-6.8-2.6 1.1-4.9 2-4.9-2.2 4.5-1.7 8.9-3.6 13.4-4.9 6-1.7 7.4-5.2 4.5-11.6 7 3.2 11-.6 13.8-4.7 3.4-4.9 2.3-10.1-1.3-15.1-2-2.7-2.6-6.4-4.2-10.6 1.6-.2 3.7-.6 5.7-.7 17.8-.1 35.7 0 53.4 0-.7 6.6-1.4 13.9-7.9 19.6-3.8 3.3-2.5 6 3.8 10.2-1.2 3.2-2.4 6.3-3.6 9.4-1.4 3.5-.9 6 2.5 8.3 1.4.9 2.2 3.6 2.1 5.4-.6 8.8 1.4 16.9 5.6 24.5 4.1 7.3 12.4 8.7 18.6 3.7 3.1-2.5 2-4.8 1.1-7.5-.8-2.3-1.9-4.6-2.4-7-.2-1 .7-2.2 1.1-3.3 1 .6 2.8 1.1 2.9 1.8 1.1 5.8 1.7 11.7 2.7 17.5.7 3.7 1.8 7.4 3 12.1-4.6-1-8.9-2.1-13.3-2.8-1.6-.3-3.4.3-5 .1-9.7-1.3-19.3-3.1-29.2-2.5-5.3.3-10.8-1.8-16.2-2.6-2.4-.3-4.9-.1-8-.1.7 1.3.9 2.2 1.3 2.3 4.3 1 8.6 2 13 2.8 3.4.6 7.5-1.7 9.9 2.8.3.5 2 .2 3.1.3 4.7.2 9-.1 13.9 2 4.8 2.1 11.2.7 16.9.6 6.4-.1 12.8-.7 19 2.3 2.8 1.4 6.5 1.4 9.8 1.4 6.6 0 13.3-.6 19.9-.4 3.7.1 7.3 1.9 10.9 1.9 12.7.1 25.4-.2 38.1-.6.9 0 1.7-1.6 2.6-2.5-1.5-.9-3.1-2.6-4.6-2.6-7.7.1-15.3 1.1-23 1-7.1-.1-14.2-1-21.3-1.6-7.8-.1-14.8-.7-21.1-1.2zm-64.2-39.3c-.1-.6-.1-1.2-.2-1.8-5.5-3.2-10.6 1.3-16 1.4-3.3.1-6.6 1.7-10 1.9-4.7.4-9.5 0-14.2.3-1.3.1-2.5 1.4-3.7 2.1 1.4.5 2.8 1.3 4.2 1.4 4.8.3 10.2-1.1 14.4.6 8.7 3.6 17.7 2.5 26.5 3.7 3.4.4 7-.6 10.5-.9 0-1.1 0-2.2-.1-3.2H179c-.1-.9-.1-1.8-.2-2.7 4.7-.9 9.4-1.9 14-2.8zm318.5-29c-5-3.8-8.7-6.6-11.7-8.9.8-3.6 1.4-6.1 1.9-8.6-.4-.2-.8-.4-1.3-.6-1.2 1.5-2.5 2.8-3.5 4.4-3.1 4.6-8 6.7-12.6 9.3-1.5.8-2.8 1.9-4.2 2.9 2 .9 3.9 2.4 6 2.6 4 .4 8.1.3 12.1.1 4.1-.1 8.1-.7 13.3-1.2zm25.8-10c-2.8-1.1-4.3-1.7-5.6-2.3.5-1.2 1.2-2.6 1.8-4.1l-1.2-.6c-2 3.2-4 6.4-5.8 9.3 2.7 2.2 4.8 4.4 7.3 5.7 3.4 1.7 8.9-3 8.2-6.3 2.2-1.3 4.3-2.6 6.3-3.9-.3-.6-.6-1.2-.9-1.9-3.7 1.6-7.3 3-10.1 4.1zm-336.6 14.3c.1-.6.1-1.1.2-1.7-11.2-1.5-22.3-3.7-33.7-3.3l-.3 2.4c2.8.3 5.7.7 8.5 1-.1 1.2-.2 2.5-.3 3.3 8.9-.6 17.3-1.1 25.6-1.7zm134.9 17.2c4.7 5.2 8.6.2 12.6.9 4.3.7 8.8-1 13.3-1 9.8 0 9.8.2 10.7-2.4-12.1-.3-24-1.5-36.6 2.5zm121.5 5.6c0 .7-.1 1.3-.1 2 10.2-.8 20.5-1.7 30.7-2.5 0-.7-.1-1.4-.1-2.1-10.3-1-20.5-1.3-30.5 2.6zm-111.3-11.5c-12-5.1-22.1 0-32.4.5-.4 0-.7 2.1-1 3.2 11.2-1.2 21.6-2.4 33.4-3.7zm198 14.8c-.1.7-.2 1.3-.3 2 8.8 1.3 17.6 2.6 26.4 3.7 1.2.1 2.6-1 3.9-1.5-.1-.7-.1-1.5-.2-2.2-9.9-.7-19.8-1.4-29.8-2zm-66.8 30.5c-.1-.6-.2-1.1-.3-1.7-10.2-2.3-25.4-.9-26.9 1.7h27.2zm18.2-32.1c7.3-.5 14.5-1 22.2-1.6-5.3-4.9-19.3-3.2-22.2 1.6zm62.3-.4c.6-.8 1.1-1.6 1.7-2.5-1.1-.5-2.3-1.3-3.5-1.4-7.6-.5-15.3-1-22.9-1.2-.8 0-1.6 1.8-2.4 2.8 9.8-2.2 18.5-1.3 27.1 2.3zm-168.6-2.9c-1.5-2.8-14-3.5-19.7 0H388.7zm164.8 25c.2-.6.4-1.1.7-1.7-2.9-4.9-8.8-1-13-4.4.1 2.1.2 3.4.3 4.6 4.3.5 8.1 1 12 1.5z" fill="#fff"/>
  <path d="m215 242.4-2.4 3c-11.1-8.9-17.4-19.9-15.9-34.2.3-2.4 2.8-5.5 5.1-6.7 14.7-7.9 30.9-10.6 47.2-12.3 12-1.3 24.1-2.3 36.1-3.6 8.1-.8 14.5 3.2 20.5 7.5 3.6 2.5 1.7 6.1-3.5 8.5-3.5-4.6-7-9.1-10.6-13.4-.1-.2-1.7.7-2.5 1.2 2.4 4 4.7 7.7 7.3 12-3.1.9-5.6 1.7-9 2.7.9-2.1 1.5-3.3 2.4-5.4-2.9.5-5.4.5-7.2 1.5-2.8 1.5-4.9.6-7.7 0-3.1-.7-6.8 1.4-10.5 2.4-.8-2.3-.7-7-5.2-2.5-.7.7-2.6.4-3.8.1-2.9-.6-5.8-1.4-9.2-2.3v-.5l-.3-4.8c-1.1 1.3-2.6 2.4-3.1 3.9-1.6 4.7-2.8 5.3-7.2 2.8-1.6-.9-3.2-1.6-4.9-2.3-.4-.2-1 .1-2.9.2 3 2.8 5.3 5 7.6 7.2-7 5.2-17.2 7.7-17.1 18.3.1 11.8 6.1 20.8 17.6 26.4-.6-1.8-.8-3.7-1.8-5.3-4-6.4-10-11.6-11.2-19.7-.6-4.2-.3-7.6 3.7-10 3.3-2 6.2-5.2 9.8-6.3 6-1.8 12.5-3.8 18.5-3.2 7.9.8 15.5 1.5 23.5.8 5.2-.5 10.5.5 16.2.9-.4 1.1-.5 3.1-1.5 4.5-4 5.9-5.4 10.9-.4 17.6 4.4 5.8 2.2 12.2-5 17-12.4 8.4-26.4 11.2-41.2 9.2-3.6-.5-7.2-1.8-10.7-2.8-3.9-1.1-7.6-2.3-10-6.5-1.1-2-2.9-5.2-6.8-3.4-.7.4-2.3-1.4-3.9-2.5zm35.4 5.9c4.8 5.3 16.8 4.6 21.6-1-4.3-6.7-15.3-6.4-21.6 1zm11.9-19.2c.4 4.3 3.5 5.9 5.9 4.5 2.3-1.3 4.8-5.4 4.3-7.5-.8-3.6-4.7-3.2-8.5-1.9 2 1.9 3.5 3.3 5 4.7-.2.3-.4.7-.6 1-1.9-.2-3.7-.5-6.1-.8zm-5.9-2.4c-2.4-1.8-4-4-5.6-4-1.2 0-3.5 2.9-3.4 4.3.2 1.8 2.4 3.3 3.8 4.9 1.5-1.4 3-2.9 5.2-5.2zm.3-9.5c0-.9.1-1.8.1-2.8-2.7-.4-5.4-1.1-8-.9-1.2.1-2.2 2.1-3.9 4.1 3.3 0 4.9.1 6.5 0 1.9-.1 3.6-.3 5.3-.4zm17.6-.5c2.3.8 4.3 1.8 6.4 2.3 1.1.3 2.4-.1 3.7-.1-.4-1.3-.5-3.3-1.4-3.9-3.4-2.5-6.5-1.5-8.7 1.7zm1.7 14c7.4-2.9 7.5-4.7 1-9.1-.5 3.5-.7 6.3-1 9.1zM231.3 275.7c2.2 3.5 4.2 6.6 6.3 10 2.4-1.4 4-2.5 5.7-3.4 1.9-1 3.2-1.7 5.9.3s7.6 1 11.6 1.4c1.6 11.5 3.2 23.9 5.2 36.1 1.2 7.8 3.2 15.5 4.5 23.3.8 4.5 1.1 9.1 1.4 13.6.2 3.3-1.2 4.9-5 5.2-7.2.5-14.3 2.3-21.5 2.9-12.7 1-24.9-1.5-36.7-6.2-.8-.3-1.7-2.1-1.6-3 .5-3.4 1.5-6.8 2.3-10.3 7.7 3.4 15.1-.7 17.1-8.7 3-11.3 8.3-22 12.6-32.9.2-.6.4-1.2 1-3.2-6.2 3.4-7.2 8.9-9 13.5-3.2 7.8-3.3 7.9-11.1 4.8-4.3-1.8-4.8-4.7-3.6-8.2 3.2-8.7 6.8-17.2 10.3-25.8 1.4-3.1 3.1-6.2 4.6-9.4zm32.1 48.8v-2.2c-1.8-1.2-4.2-3.7-5.4-3.2-2.7 1.1-4.8 3.7-7.1 5.7 1.7 1.5 3.7 4.5 4.9 4.2 2.8-.6 5.1-2.9 7.6-4.5zM253.3 306c2.1-3.2 9.1-.9 7.1-7.4-1.2-3.9-4.4-3.2-7-1.6-1.7 1.1-2.9 3-4.3 4.4 1.8 1.9 2.7 2.9 4.2 4.6zM86.3 246.3c-.9-3.4-1.7-6.4-2.6-9.3-.8-2.6-2.5-3.7-5.5-4-3.7-.4-4.7-5.1-2.4-9.4 2.4.5 4.9.6 7.2 1.5 3.1 1.1 5.8 1.7 8.1-1.3 2.5-3.2 2.8-6.4.3-9.4 3.9-3.8 7.7-3 11.8-.6 5.6 3.2 11.2 4 16.9-.1 1.1-.8 3.2 0 4.9-.1 5-.3 9.9-.6 14.9-1 .8-.1 1.5-.4 2.3-.4 4.2.4 8.4 1.1 12.6 1.1 3.9 0 7.8-.7 12.9-1.3-2.5 4.4-4.4 7.7-6.1 11.1-1.6 3.3-1.4 6.4 1.1 9.4 1.8 2.1 3 4.8 4.2 7.4 1.6 3.2-2.9 9.7-7.6 12.6-10.2 6.2-21.6 8.3-33 8.4-8.3.1-16.6-2.8-24.8-5-1.7-.4-3.4-3.1-3.9-5.1-1.9-8.7-3.8-9.7-11.3-4.5zm59.1-19.2c-3-1.5-4.8-3.1-6.5-3.2-5.2-.1-3.1 5.3-5.6 7.3 1.4 1.5 2.5 2.7 4.1 4.6 2.5-2.8 4.8-5.3 8-8.7zm-22.8 6.1c4.4-4.3 4.3-6.3-.3-10.7-5.6 4.6-5.6 6.7.3 10.7zm28.1-.5c1.5-3.2 4.1-6.2.3-9-.6-.5-3.5.7-4 1.8-1.6 3.3-1.1 6.2 3.7 7.2zm-22.2 19.9c2.4 0 3.9.2 5.3-.1 1.6-.3 3.2-1 4.8-1.5-.6-1-1-2.8-1.7-2.9-2-.3-4.2-.1-6.1.4-.9.3-1.2 2.1-2.3 4.1zM11.3 454.9V422c9 2.1 18 3.1 26 6.4 9.4 4 18.7 4.2 28.5 4.4 9.4.1 18.5 1.8 27.6 6 12.6 6 26.4 8.4 40.6 9.1 16.1.8 32.1 2.9 48.1 4.4-.1.9-.1 1.7-.2 2.6H11.3zm77-11.3c.1-.8.2-1.5.4-2.3-3.8-.8-7.6-1.7-11.4-2.3-3.2-.5-6.5-.5-9.7-1-5.4-.8-10.7-1.8-16.1-2.6-1.2-.2-2.5.1-3.7-.2-4.6-1-9.2-2.9-13.9-3.1-5.8-.3-11.6.8-17.4 1.4.1.8.1 1.6.2 2.3h17.8c-1.8 4.7 1.4 4.8 3.9 4.1 12.7-3.9 24.6 1.2 36.9 2.4 4.2.3 8.6.8 13 1.3zm7 3.1c0 .4-.1.8-.1 1.2-1.9-.4-3.9-1.2-5.8-1.2-1.6 0-3.3.8-4.9 1.3.2.7.3 1.3.5 2 8.5.5 16.9 1.1 25.9 1.7-3.8-6.8-12.1-10-20.1-7.8 1.7 1 3.1 1.9 4.5 2.8z" fill="#fff"/>
  <path d="M95.4 196.5c-9.3-5.6-9.3-5.6-15.6-4.4 3.3-2.7 6.6-5.5 10.6-8.8-5.3-1.9-7.6 6.8-12.2 1.6 26.8-21.8 51.8-21.4 84.3 8.1-31.9.5-60.6 8.1-86.7 24.4-.2-.5-.5-1.1-.7-1.6 3.6-2.2 7.1-4.6 10.8-6.5 5.1-2.5 7.3-5.9 5.4-9.5 1.2-.9 2.5-1.9 4.1-3.3zM246.7 394.4c1-8.1 5.5-14 10.9-19 1.8-1.7 5.5-1.5 8.3-2.2.2 2.4.7 4.9.7 7.3 0 1.4-.7 2.7-1 4.1-2.5 10.2-4.4 11.5-15.1 9.6-1.1-.1-2.3.2-3.8.2zM116.3 390.4c4.7-6.7 8.2-12.7 12.8-17.7 1.5-1.6 6.4-1.3 9-.2 1.3.6.9 5 1.3 7.7 0 .2-.6.5-.7.8-2.9 12.3-12.7 8.8-22.4 9.4zM234.6 371.2c5.7-.4 11-.7 17-1.1-.4 7.5-6.6 11.4-9.2 17.8-2.9-6-5.3-11.2-7.8-16.7zM89.5 338.5c-1.8 2.6-2.8 5.7-4.4 6.1-4.4 1-9.1.9-13.7 1-.4 0-1.3-1.3-1.1-1.6 1.7-3 3.3-6 5.4-8.7.6-.8 2.8-.7 4.1-.4 2.9.9 5.7 2.1 9.7 3.6zM206.4 340.1c4.7-11.1 5.7-11.6 16.6-8.2-.8 2.8-1.7 5.6-2.7 9-4.5-.3-8.8-.5-13.9-.8zM273 334.2c.2-3-.2-4.6.4-5.5.9-1.3 2.5-2.2 3.9-3.3 2.5 3.5 6.1 6.7 7.1 10.6 1.2 4.7-3.1 6.5-8.8 7.4 1.4-5.2 2.6-9.6 3.8-14-.4-.3-.9-.6-1.3-.9-1.3 1.6-2.7 3.1-5.1 5.7zM259.4 262.5c-1.1 2.8-1.6 4.4-2.4 5.9-1.6 2.9-3.2 4.7-6.7 1.3-3-3-7-4.9-10.3-7.2h19.4zM117.9 279.1c-.2.8-.7 2.1-1.2 3.9-.9 0-2.2.4-2.9-.1-3.4-2.3-6.9-4.6-10-7.3-.9-.8-.5-2.9-.7-4.4 1.5 0 3.4-.5 4.5.2 3.4 2.1 6.5 4.8 10.3 7.7zM115.9 406.9c-4.6-4.8-4.3-6.9 1.2-8.4 3.5-1 7.2-1.4 11.7-2.2-2.1 7.2-8.9 6.9-12.9 10.6zM78.4 350.5l32.1 7.8c-3.9 3.7-8.6.9-12.7.2-6.7-1.3-13.2-4-19.8-6.1.1-.6.3-1.3.4-1.9zM235.7 266.1c3 1.8 6.2 3.2 8.8 5.4 1.2 1 1.2 3.3 1.7 5.1-2.2.5-5.8 2.1-6.4 1.4-2.4-3.3-4-7.2-5.9-10.9.6-.4 1.2-.7 1.8-1zM126.7 268.4c-2.6 6.7-3.6 7.1-8.9 3.7-2.7-1.7-5.5-3.4-8-6 5.5.8 11 1.5 16.9 2.3zM245.4 406.4c-.4-1.4-.9-2.8-1.6-5.1 4.4-.3 8.5-.5 12.6-.8.5 5.7-1.1 6.6-11 5.9zM144.7 343.4c2.5-4.3 4.7-8.2 7.2-12.6 1.8 3.2 2.7 6.9 1 10.3-1.6 3.4-5 4.2-8.2 2.3zM71.5 259.8c-.9-2.1-2.9-4.5-2.5-6.2.6-2.2 3.3-3.8 5-5.7 1.4 1.4 2.8 2.7 4.4 4.3-3.1 2.1-7.9 1.8-4.4 7.1-.8.2-1.7.4-2.5.5zM105.1 407.9c-4.4-1.6-7.7-2.8-12.1-4.3 8.5-5.4 10.2-4.8 12.1 4.3zM86.8 261.5c1.5-3.1 2.5-5.4 3.8-8.2.6.4-.2 0-.7-.6-.7-.9-1.2-2-1.5-3.1-.1-.2 1.6-1.3 2.1-1.1 1 .5 2 1.4 2.4 2.4 1.9 4.8-.1 9.3-6.1 10.6zM251.8 181.4c.9-3.3 1.1-7 5.5-5.5 1.1.4 2.2 3.4 1.8 4.6-1.5 4.1-4.3 2.1-7.3.9zM231.3 372.5c-2.7 2.6-4 3.8-6.2 6-1.8-2.7-3.3-4.8-4.8-7 .5-.4.9-.9 1.4-1.3 2.7.6 5.4 1.3 9.6 2.3zM266.1 185.7c.5-2 1-3.9 2-7.4 2.2 1.7 3.8 3 5.4 4.3-1.9 1.6-3.8 3.2-5.7 4.7-.6-.5-1.2-1-1.7-1.6zM239.4 170.5c3.1.9 6.8.9 5.8 5.4-.2.8-2.5 1.8-3.7 1.6-4.2-.8-3-3.8-2.1-7zM145.1 336c-1.4-3-2.3-4.8-3.4-7 2.1-3.6 4.6-3.5 7.3.1-1.3 2.2-2.4 4.2-3.9 6.9zM100.5 383.1c.5 3 1 6 1.5 9.1-.5.2-1 .5-1.4.7-1.7-2.2-3.8-4.3-4.8-6.8-.4-1.1 1.6-3.1 2.6-4.7.6.6 1.4 1.2 2.1 1.7zM135.1 277.1c-2.1 1.4-3.7 3.2-5.6 3.5-.9.2-3.5-2.9-3.2-3.3 1-1.9 2.8-3.3 4.4-4.9 1 1.1 2.1 2.2 4.4 4.7zM80.4 390.4c5.5 1.5 10.6 2.8 15.6 4.1-3.9 3-11.4 1.3-15.6-4.1zM228.6 177.7c-1.5 1.4-3.1 2.8-4.6 4.3l-2.1-5.4c1.8-.4 3.6-.9 5.5-1.3l1.2 2.4zM243.4 183.5c-2.1 1.5-3.4 3.1-4.4 2.9-1.4-.3-3-1.6-3.6-2.9-.3-.6 1.8-3.3 2.4-3.1 1.7.3 3.2 1.6 5.6 3.1zM220.6 183.6c1.3.9 2.6 1.7 4.6 3-1.2 1.5-2.1 3-3.4 4.1-.3.2-2.2-.6-2.4-1.3-.5-1.8-.4-3.7-.6-5.5.6 0 1.2-.1 1.8-.3zM261.1 277.9c-.7-2.5-1.5-5-2-7.5-.1-.3 1.5-.9 2.3-1.3.9 2.6 1.7 5.3 2.6 7.9-.9.3-1.9.6-2.9.9z" fill="#fff"/>
  <path d="M192.8 372.3c-4.6.9-9.2 1.8-13.8 2.8.1.9.1 1.8.2 2.7h25.2c0 1.1 0 2.2.1 3.2-3.5.4-7.1 1.4-10.5.9-8.8-1.1-17.8-.1-26.5-3.7-4.2-1.7-9.6-.4-14.4-.6-1.4-.1-2.8-.9-4.2-1.4 1.2-.7 2.4-2 3.7-2.1 4.7-.3 9.5.1 14.2-.3 3.4-.3 6.7-1.8 10-1.9 5.4-.1 10.5-4.6 16-1.4-.2.6-.1 1.2 0 1.8zM511.3 343.3c-5.2.5-9.2 1.1-13.2 1.3-4 .2-8.1.3-12.1-.1-2.1-.2-4-1.7-6-2.6 1.4-1 2.7-2.1 4.2-2.9 4.6-2.5 9.5-4.6 12.6-9.3 1-1.5 2.3-2.9 3.5-4.4.4.2.8.4 1.3.6-.6 2.5-1.1 5-1.9 8.6 2.9 2.2 6.6 5 11.6 8.8zM537.1 333.3c2.7-1.1 6.4-2.6 10-4.1.3.6.6 1.2.9 1.9-2.1 1.3-4.1 2.5-6.3 3.9.7 3.3-4.8 8-8.2 6.3-2.5-1.3-4.5-3.5-7.3-5.7 1.8-2.8 3.8-6.1 5.8-9.3l1.2.6c-.7 1.5-1.3 2.9-1.8 4.1 1.4.6 3 1.2 5.7 2.3zM200.5 347.6c-8.4.6-16.7 1.1-25.6 1.7.1-.8.2-2 .3-3.3-2.8-.3-5.6-.7-8.5-1l.3-2.4c11.4-.4 22.5 1.8 33.7 3.3 0 .6-.1 1.2-.2 1.7zM335.4 364.8c12.6-3.9 24.5-2.8 36.6-2.5-1 2.5-1 2.4-10.7 2.4-4.4 0-9 1.6-13.3 1-4-.7-7.9 4.3-12.6-.9zM456.9 370.4c10-4 20.2-3.6 30.5-2.7 0 .7.1 1.4.1 2.1-10.2.8-20.5 1.7-30.7 2.5.1-.6.1-1.2.1-1.9zM345.6 358.9c-11.8 1.3-22.2 2.5-33.4 3.8.3-1.1.6-3.2 1-3.2 10.3-.6 20.4-5.7 32.4-.6zM543.6 373.7c9.9.7 19.8 1.3 29.7 2 .1.7.1 1.5.2 2.2-1.3.5-2.7 1.6-3.9 1.5-8.8-1.1-17.6-2.4-26.4-3.7.2-.7.3-1.4.4-2zM476.8 404.2h-27.1c1.4-2.6 16.6-4 26.9-1.7.1.6.2 1.1.2 1.7zM495 372.1c2.9-4.8 16.8-6.5 22.2-1.6-7.7.6-14.9 1.1-22.2 1.6zM557.3 371.7c-8.6-3.7-17.3-4.5-27-2.2.8-1 1.6-2.8 2.4-2.8 7.6.2 15.3.6 22.9 1.2 1.2.1 2.3.9 3.5 1.4-.7.8-1.2 1.6-1.8 2.4zM388.7 368.8H369c5.7-3.5 18.3-2.9 19.7 0zM553.5 393.8c-3.8-.5-7.7-1-12-1.5-.1-1.2-.1-2.4-.3-4.6 4.1 3.3 10.1-.5 13 4.4-.3.5-.5 1.1-.7 1.7zM471.1 130.1c4.7-.6 8-1 11.2-1.4.6-6.6.6-6.5-5.2-6.7-1.9-.1-3.7-.8-5.5-1.2.1-.5.1-1.1.2-1.6 3.7-1.4 7.4-2.8 11.2-4.2-.1-.7-.2-1.3-.2-2-4.3-.6-8.5-1.1-13.5-1.8 6.1-5.5 11.6-6 15.5-2.5 3.6 3.3 1.4 5.8-1.3 8.8 3.9 3.5 4.8 8 1 11.8-2.3 2.3-6.1 3.4-9.4 4.3-1 .3-2.6-2.1-4-3.5zM497.7 134.3v-9.8c-3.4-.3-6.3-.6-9.5-.9 1.9-5.4 3.5-9.9 5.1-14.3.5.1.9.2 1.4.3-.5 3.2-1 6.4-1.6 10.4 2.2-1.4 6.8 2.2 5.4-4.5-.4-2 1.5-4.4 3.2-6.3.3 8.7 1.8 17.4-2.3 25.3-.6-.1-1.1-.1-1.7-.2zM516 114.7h-9.9c-1.8-3.2.4-4.6 2.8-5.2 3.4-.8 6.9-1.3 10.4-1.5.5 0 1.9 2.4 1.6 3.1-1.7 4.6-3.8 9-5.7 13.5-.9 2.3-1.4 4.8-2.4 7-.7 1.6-1.9 3.1-2.9 4.6-.7-.4-1.4-.7-2.1-1.1 2.7-6.6 5.4-13.3 8.2-20.4zM250.4 248.3c6.4-7.4 17.3-7.7 21.6-1-4.9 5.7-16.8 6.4-21.6 1zM262.3 229.1c2.4.3 4.2.5 6.1.8.2-.3.4-.7.6-1-1.5-1.4-3-2.8-5-4.7 3.8-1.3 7.7-1.7 8.5 1.9.5 2.2-2 6.2-4.3 7.5-2.4 1.4-5.5-.2-5.9-4.5zM256.4 226.7c-2.3 2.3-3.7 3.8-5.2 5.2-1.3-1.6-3.6-3.2-3.8-4.9-.2-1.4 2.2-4.3 3.4-4.3 1.7 0 3.3 2.2 5.6 4zM256.7 217.2c-1.7.1-3.5.3-5.2.4-1.6.1-3.3 0-6.5 0 1.8-1.9 2.8-4 3.9-4.1 2.6-.2 5.3.5 8 .9-.1.9-.1 1.8-.2 2.8zM274.3 216.7c2.2-3.2 5.2-4.1 8.7-1.8.9.6.9 2.6 1.4 3.9-1.2.1-2.5.4-3.7.1-2.1-.5-4.1-1.4-6.4-2.2zM276 230.7c.3-2.8.6-5.6 1-9.1 6.5 4.3 6.4 6.1-1 9.1zM263.4 324.5c-2.5 1.6-4.9 3.9-7.6 4.5-1.3.3-3.3-2.7-4.9-4.2 2.3-2 4.4-4.5 7.1-5.7 1.1-.5 3.5 2.1 5.4 3.2v2.2zM253.3 306c-1.5-1.7-2.5-2.7-4.1-4.6 1.3-1.4 2.5-3.4 4.3-4.4 2.6-1.6 5.8-2.3 7 1.6 1.9 6.5-5.1 4.2-7.2 7.4zM145.4 227.1c-3.1 3.4-5.4 5.9-8 8.7-1.7-1.8-2.7-3-4.1-4.6 2.5-2 .4-7.5 5.6-7.3 1.7 0 3.5 1.6 6.5 3.2zM122.6 233.2c-5.9-4-5.9-6-.3-10.7 4.7 4.4 4.8 6.3.3 10.7zM150.7 232.7c-4.8-1-5.3-3.9-3.7-7.2.5-1.1 3.4-2.2 4-1.8 3.8 2.8 1.2 5.8-.3 9zM128.5 252.6c1-2 1.4-3.8 2.2-4 1.9-.6 4.1-.7 6.1-.4.7.1 1.2 1.9 1.7 2.9-1.6.5-3.1 1.2-4.8 1.5-1.3.2-2.8 0-5.2 0zM88.3 443.6c-4.4-.5-8.8-1-13.3-1.4-12.3-1.2-24.2-6.3-36.9-2.4-2.4.8-5.6.6-3.9-4.1H16.4c-.1-.8-.1-1.6-.2-2.3 5.8-.5 11.6-1.6 17.4-1.4 4.7.2 9.2 2.1 13.9 3.1 1.2.3 2.5 0 3.7.2 5.4.8 10.7 1.8 16.1 2.6 3.2.5 6.5.5 9.7 1 3.8.6 7.6 1.5 11.4 2.3.1.8 0 1.6-.1 2.4zM95.3 446.7c-1.4-.9-2.7-1.7-4.5-2.8 7.9-2.2 16.3.9 20.1 7.8-9-.6-17.5-1.1-25.9-1.7-.2-.7-.3-1.3-.5-2 1.6-.5 3.3-1.3 4.9-1.3 1.9 0 3.9.8 5.8 1.2 0-.4 0-.8.1-1.2z"/>
  <path d="M346.6 163c-.5-.8-2.3-2.3-2.5-4-.5-3.7-.2-7.5-.2-11.3 0-3.7 1.9-5.2 5.1-3.2 3.2 2 6.6 4.2 8.7 7.2 2.7 4.1-3.6 11.4-11.1 11.3z" fill="#fff"/>
  <text transform="translate(33.508 42.105)" fill="#fff" font-family="BaskervilleT-Bold" font-size="35" letter-spacing="4">PEANUTS</text>
  <text transform="translate(312.204 51.276)"><tspan x="0" y="0" font-family="Peanuts" font-size="35">DO YOU REALIZE</tspan><tspan x="0" y="42" font-family="Peanuts" font-size="35">THAT THERE</tspan><tspan x="0" y="84" font-family="Peanuts" font-size="35">ARE ONLY</tspan></text>
  <text transform="translate(350.976 174.229)" font-family="Peanuts" font-size="35">DAYS UNTIL</text>
  <text transform="translate(364.717 215.581)" font-family="Peanuts" font-size="35">CHRISTMAS?</text>
</svg>
