<svg xmlns="http://www.w3.org/2000/svg" viewBox="0 0 595.3 472.9" xml:space="preserve">
  <path fill="#fff" d="M0 0h595.3v472.9H0z"/>
  <path d="M595.3 472.9H0V0h595.3v472.9zM2.5 434.3H3c0 10-.2 20.1.2 30.1.1 1.7 2.3 4.6 3.7 4.7 7.1.6 14.2.5 21.3.4 6.5 0 13-.4 19.6-.3 11.2.2 22.5 1 33.7.9 11.7-.1 23.4-1.3 35.1-1.3 46.9-.1 93.7 0 140.6.1 7.8 0 15.6-.2 23.4-.2 26.2-.1 52.4-.1 78.6-.1 13 0 26 .5 39 .5 30.6.1 61.1 0 91.7-.1 23.5-.1 47.1-.4 70.6-.4 7.8 0 15.6.9 23.4 1 6.9 0 8-1.2 7.9-7.9 0-7.4-.2-14.9 0-22.3.3-20.1.9-40.3 1.1-60.4.2-21.2.1-42.5.2-63.7 0-14.3.3-28.5.2-42.8-.1-8.8-1.2-17.7-1.2-26.5 0-16.2.8-32.4.8-48.6 0-14.3-.9-28.7-.9-43 0-11.1 1-22.3 1.1-33.4.1-12.5-.5-25-.5-37.4-.1-23.5-.3-47 0-70.5.1-6.1-3.4-6.9-7.6-7-15.9-.3-31.9-.3-47.8-.4-33.4-.4-66.9-.8-100.4-.7-35.7 0-71.5.5-107.2.6-13.7 0-27.4-.4-41.1-.5-43.5-.2-87-.4-130.5-.5-21.8 0-43.6.1-65.4.1-27.5 0-55.1 0-82.6-.2-3.9 0-5.9 1.1-5.6 5.4.3 4.1.2 8.2.1 12.3-.4 10.9-1 21.9-1.1 32.8-.2 23.6-.3 47.3-.2 70.9.1 35 .6 69.9.6 104.9 0 25.1-.4 50.2-.4 75.3 0 2.9 1.7 5.7 2.2 8.7.4 2.5.4 5.2 0 7.7-.6 3.5-2.4 6.9-2.5 10.4-.4 13.8-.5 27.7-.5 41.5-.2 20-.1 40-.1 59.9z" fill="#fff"/>
  <path d="M2.5 434.3c0-20-.1-40 0-60 .1-13.8.1-27.7.5-41.5.1-3.5 1.9-6.9 2.5-10.4.4-2.5.4-5.2 0-7.7-.4-2.9-2.2-5.8-2.2-8.7 0-25.1.5-50.2.4-75.3-.1-35-.5-69.9-.6-104.9-.1-23.6 0-47.3.2-70.9.1-10.9.7-21.9 1-32.8.2-4 .3-8.1 0-12.2-.2-4.2 1.8-5.4 5.6-5.3 27.6.1 55.1.1 82.7.1 21.8 0 43.6-.2 65.4-.1 43.5.1 87 .3 130.6.5 13.7.1 27.4.5 41.1.5 35.7-.2 71.4-.6 107.1-.6 33.5 0 66.9.3 100.4.5 15.9.1 31.9.2 47.8.4 4.2.1 7.7.9 7.6 7-.3 23.5-.1 47 0 70.5.1 12.5.6 25 .5 37.4-.1 11.1-1.1 22.3-1.1 33.4 0 14.3.9 28.7.9 43 0 16.2-.8 32.4-.8 48.6 0 8.8 1.1 17.7 1.2 26.5.2 14.3-.1 28.5-.2 42.8-.1 21.2 0 42.5-.2 63.7-.2 20.1-.8 40.3-1.1 60.4-.1 7.4 0 14.9 0 22.3 0 6.7-1 8-7.9 7.9-7.8 0-15.6-1-23.4-1-23.5 0-47.1.3-70.6.4-30.6.1-61.1.1-91.7.1-13 0-26-.5-39-.5-26.2-.1-52.4 0-78.6.1-7.8 0-15.6.2-23.4.2-46.9 0-93.7-.2-140.6-.1-11.7 0-23.4 1.2-35.1 1.3-11.2.1-22.5-.7-33.7-.9-6.5-.1-13 .3-19.6.3-7.1 0-14.2.1-21.3-.4-1.4-.1-3.6-3-3.7-4.7-.4-10-.2-20.1-.2-30.1-.2.2-.4.2-.5.2zm208.1-244.8c-3-.3-5.9-.6-8.9-.9-12.7-4.5-25.6-8.8-39.4-5.5-9 2.2-18.1 4.2-25.7 10.1-3.9 3-3.9 8.1-6.5 11.2-5 6-8.3 12.5-9.1 19.9-.7 6.4-.1 12.9-.1 18.1 3.5 0 7.2-1.1 9.2.3 2.4 1.7 3.4 5.5 4.6 7.7 1.8-3.7 3.6-7.5 5.5-11.5 6.9 4.9 6.9 4.9 7.4 21.2 2-1.1 3.9-2.1 5.6-3.1 7.2 4.4 6.9 6.9-2.2 16 2.1 5.8 3.8 11.9 6.4 17.7.9 2 3.6 3.7 5.8 4.6 2.8 1.2 6.1 1.5 9.1 2.4 2.5.7 5 2.7 7.3 2.4 6.8-1 13.5-2.9 20.2-4.5 2.5-.6 5-1.2 7.4-2.2 2.6-1.1 2.9-2.6.8-4.9-1.7-1.8-3.1-4-4.1-6.2-3.1-7 .8-12.7 8.5-12.7 6.6 0 13.2 0 19.8.2 4.8.2 7.7-1.1 7.4-6.5-.1-1.4.3-2.8.4-4.3.7-.1 1.3-.1 1.7-.4 1.9-1.2 4.8-2.2 5.4-3.9 1.2-3.4-1.5-4.5-4.6-5.1-1.6-.3-3.3-2.3-4-3.9-1.2-3-1.6-6.3-2.5-9.4-.7-2.3-.5-5.8-5-4.3-1.1.4-2.9-1.5-5.7-3.1 3.8-1.3 5.8-2 8.2-2.8-1.1-2.5-2.4-5.1-3.3-7.9-.4-1.3.2-2.8.3-4.3 1.3.7 2.7 1.2 3.9 2.1.7.5 1 1.5 1.3 2.4 2.9 8.7 5.7 17.4 8.1 24.8 3.4 3.4 7.5 5.8 8.6 9.1 1.6 4.7-2.3 8-6.5 10.2-.8.4-1.5 1.5-1.7 2.4-2.1 8.1-4 9.1-12.2 9.3-6.1.1-11.9-2.2-18.2-.3-4.8 1.5-6.3 3.2-3.6 7.6 1.9 3 4.5 5.5 6.6 8 3.6-.2 4.9-7.9 8.7-2.5 1.5 2.1.3 6.3.3 9.6 3.4-1.6 6.5-3.7 9.8-4.3 2.4-.4 5.2 1.3 7.8 2-.6 2.1-1.3 4.2-1.9 6.5 1.1.6 2.8 1.5 4.4 2.6 8 5.2-2 8.5-1.5 13 .1 1-2.8 3.5-3.5 3.3-3.8-1.5-4 1.4-5.5 3.3-1.3 1.7-3.6 3.6-5.5 3.6-1.4 0-2.8-2.9-4.2-4.5-.4-.5-.9-1-1.9-2.1-3.6 9.1-10.8 14.2-19.2 16.6-5.2 1.5-5.7 5.3-5.9 8.4-.4 6.6 1.4 13.4.6 19.8-1 7.7-1.1 15.8-6.2 22.6-.8 1.1-.3 4.1.6 5.6 3.6 5.6 4.8 11.7 4.4 18.2l-.9 15.6c13.2 1.6 15 2.8 16.8 11.2h23.9v1c-18 1.7-36 3.3-54 5 .1.9.2 1.8.2 2.7 7.8-.5 15.6-.9 23.4-1.5 13.3-1.1 26.5-2.6 39.8-3.4 10.9-.7 21.8-.2 32.7-.9 14.8-.9 29.6-2.4 44.5-3.7.1.6.2 1.3.2 1.9-7.6 4-16.8.4-24.6 3.8 2.6.4 5.1.2 7.7.1 8.4-.4 16.8-.8 25.1-1.3 1.1-.1 2.5-.7 3-1.5 2.9-5.1 7.6-6.2 12.9-6.2h17.1c1.2-6.7 2.3-12.5 3.4-18.9-2.7-1.3-5.4-3.1-8.5-4.2-10.2-3.5-12.7-12.7-13.3-21.3-1.3-19.7-1.6-39.6 4-59.2-5.6-5.3-10.9-10.5-16.3-15.5-5.5-5.1-11.2-10.1-16.8-15.1-2.1-1.9-4.6-3.4-6.2-5.6-2-2.7-3.8-4-7.2-2.4-4.7 2.2-9.4 1-9.4-2.5 0-2.2 3-4.5 4.7-6.7-8-6-7.9-6.9 1.7-11.1-.2-2.2-.3-4.4-.5-6.5.5-.1 1.1-.3 1.6-.4 1.3 3.1 2.5 6.2 3.9 9.5-2 .9-3.7 1.6-4.8 2.1 2.4 2 4.7 3.9 6.9 5.8-1.9 1.8-3.8 3.6-5.8 5.5 4.7-.8 10.2 2.1 14.1-3.3 2.7-3.8 6-3.3 9.8-1.2-1.1 1.2-1.8 2-2.6 2.8-.9.9-1.9 1.8-2.7 2.7-3.7 4.3-3.5 5.9 1.2 9 2.6 1.7 5.5 3.1 7.6 5.2 5.6 5.5 10.8 11.3 16.2 16.9 1.8 1.8 3.9 3.2 5.9 4.8.6-.3 1.1-.5 1.7-.8-11.3-8.8-4-16 1.4-23.8-2.3-.6-4.3-1.2-6.4-1.6-5.6-1.3-11.6-1.7-16.8-3.9-7.4-3.1-7.6-7-.7-11.4 4.3-2.8 6.4-6.2 6-12.4-7.6-.3-15.4-.6-23.1-.8-7.3-.2-10-3.3-8.8-8.7-2.4-3.5-6.3-7.1-5.7-8.5 1.6-3.2 5.4-5.2 9.1-8.5-1.4-4.7-2.3-11.4-8.9-15.1-4.1-2.3-8.2-4.6-11.8-7.5-7.6-6.2-6.5-18.5 2.1-22.3 4.5-2 9.9-3.1 14.8-2.9 10.2.4 18.9-4.3 27-8.6 7.3-3.9 14-8.9 22.3-10.7 3.9-.8 7.7-2.2 12.8-3.7-1.9-.3-2.5-.5-3.1-.6-16.5-.3-33-.8-49.4-1-10.9-.1-21.7.2-32.6 0-21-.3-42-1-62.9-1.3-15.1-.2-30.3.2-45.4-.1-8.7-.1-17.4-1.3-26.2-1.4-13.2-.2-26.5-.1-39.7.3-2.1.1-5.8 2-5.9 3.3-.5 7.6-1.4 15.5 1.8 22.8 1.3 3 1.5 5.1-1.9 6.6-8.8-4.3-14.1-11.4-16.7-20.5-1-3.5.7-8.5-1.2-10.7-1.8-2.1-6.8-1.3-10.3-2.1-7.8-1.9-15.8 2-23.8-2.1-3.7-1.9-9.6 1.1-14.4.7-6.6-.5-13.1-1.8-19.6-3.2-2.1-.4-4-2.1-7.9-4.2v302.6c29.3.4 58.4 1.2 87.4 1 29.3-.1 58.6-1.4 87.9-1.6 28.3-.3 56.7.1 85 .2h85.3c-.4-1.7-.8-3.2-1.1-4.5h-40.6c0-.3.1-.6.1-1 1.5-.3 2.9-.6 4.4-.9-.1-.5-.1-.9-.2-1.4-3.7.3-7.4.6-11.2 1-5 .5-10 1.5-15 1.3-7.8-.2-15.6-1.6-23.5-1.8-14.2-.2-28.3.1-42.5.2-.8 0-1.5-.4-2.3-.7 1.4-1.6 2.9-1.9 4.3-2 5.9-.6 11.7-1.2 17.6-1.7 8.6 1.3 16.9-.5 25.3-1.4-7.3-.8-14.5-.9-21.8-.7-1.2 0-2.3 1.5-3.4 2.2-4.5-.2-9.1-.7-13.6-.5-9.1.4-18.2 1.3-27.3 1.8-.3 0-.7-1-1.3-1.9 4.4-.4 8.3-.8 12.2-1.2 0-.6-.1-1.1-.1-1.7-9.1.6-18.1 1-27.2 1.7-2.6.2-5.2 1.2-7.9 1.8-6.8 1.5-13.5 4-20.3 4.2-10.7.3-21.5-.7-32.2-1.8-4-.4-9.3-1.3-11.3-4-2.4-3.3-4.7-3.3-7.6-3.1-13.8.7-27.7 1.7-41.5 2.3-2.7.1-6.2-2.5-8-1.5-7.4 4.1-12.3-3.5-18.7-3.1 0 0-.1-.6-.3-1.5 1.4-.5 2.9-1.6 4.3-1.5 13 1.9 26.2-6.4 39 .7.3.1.7-.1 1.1-.1 10.1-1.1 20.2-2.1 30.3-3.3 1.2-.1 2.7-.3 3.5-1.1 4.4-3.7 7.2-16.4 4.7-21.7-2-4.3-4.7-8.3-6.8-12.5-1.9-4-5-7.4-3.8-12.7.8-3.8-1.2-7.9-5.2-10-3.1-1.6-3.9-3.7-2.1-6.6 5.6-8.9 11-17.9 16.9-26.6 5.6-8.2 14.8-15.1 8.4-27-.2-.3.1-.8 0-1.1-2.6-7.8-4.8-15.8-8-23.4-1.3-3.2-2.5-5.7-.8-9.2 2.3-4.8-.1-8.3-5.3-9.1-3.3-.5-7.9-.2-8.1-4.6-.1-2.6 2.4-5.3 3.8-8 .1-.3.1-.7.1-1-6.8-6.1-5.6-10.3 4.1-13.6.1-1.2.4-2.5.1-3.7-2.5-10.3-2.4-20.5 2.1-30.2 2.9-6.2 4.8-12.1 1.7-19.1h5.3c-1.1-5.7 1.8-4.9 4.6-3.2 1.9-2.2 1.2-8.7 6.3-3.1.1.1 2.2-1.4 2.2-1.4-1.9-3.2 1.1-3.3 2.6-4.3 10.2-6.4 21.4-7.9 33.2-7.7 11.6.2 22.6 2.2 32.6 8.1 2.3 1.4 3.3 3.2 4.6 4.5zm-114.5 2.1c.4-.1.7-.2 1.1-.3.4-5.7 1-11.4 1.3-17.2.3-5.3 2.9-8.6 8.2-9 11.8-.7 23.5-1.6 35.3-1.4 18.2.2 36.5 1.1 54.7 1.7 10.5.3 20.9.8 31.4 1 16.8.3 33.5.5 50.3.5 20.5 0 40.9-.4 61.4-.3 10.3 0 20.7.7 31 1.1 12.3.5 24.5 1.5 36.8 1.7 16.4.2 32.9-.3 49.3-.6 10.5-.2 17.8 6.3 19.3 17.2.2 1.5.7 3 .9 4.5.2 1.3.2 2.7.3 4.1 5-7.2 4.9-14.3 1.5-21.8-.4-.8 1.5-3.9 2.4-3.9 8.3-.3 16.5-.2 24.8-.1 12.6.2 25.2.8 37.8.5 4.5-.1 9.1-2.1 13.5-3.8 4.8-1.9 9.9-3.8 14-6.8 6.4-4.8 13.7-9.6 14.6-18.7.8-8.3.9-16.7.8-25.1-.1-25.6-.3-51.2-.5-76.8-.1-8.5 0-17.1 0-25.6-3.2-.4-6.1-1.1-9-1.1-8.3 0-16.5.4-24.8.3-15.4-.1-30.8-1-46.2-.6-20.6.5-41.2-1.8-61.8.8-7.3.9-15-.4-22.4-.4-37.6-.2-75.3-.3-112.9-.4-13.6 0-27.2.3-40.8.5-7.5.1-15.1.3-22.6.2-7.7-.2-15.3-.9-23-1.1-6.5-.1-13 .2-19.5.2-5.5 0-10.9-.4-16.4-.3-10 0-20 .2-30 .3l-26.2.3c-7.6 0-15.3.1-22.9 0-12-.3-24-.9-36-1-7.2-.1-14.5.8-21.7.7-11.5-.1-23.1-.6-34.7-.9-4.1-.1-5.6 1.7-5.6 6 .1 10.4-.2 20.9-.3 31.3-.3 33.4-.6 66.9-.5 100.3 0 2.9 2.3 6.6 4.6 8.6 7.7 6.5 17.8 4.9 26.8 6.4 7.1 1.2 14.6.1 21.8.4 7.7.2 15.4 1 23.1 1.1 4.5.1 5.7 1.9 6.3 6.2.9 7.2 2.9 14.2 4.5 21.3zm406.8 270.1c-.1.3-.1.6-.2.9 1.5.1 3.1.4 4.6.4l45.7.3c9.3.1 18.7 0 28 .2 4.5.1 5.9-1.9 5.4-6-.4-3.1-.6-6.3-.6-9.5.1-15.5.5-31 .6-46.5.2-33.4.3-66.8.3-100.2 0-24.4-.1-48.9-.1-73.3-.1-23.3-.1-46.6-.2-70v-7.1c-1.9 1.7-2.8 2.4-3.5 3.3-14.8 18.1-34.9 21.8-56.8 21.3-13.1-.3-26.3-.1-39.8-.1.8 18.7-8.7 32.8-23.9 43.5.6-2.3 2.5-3.7 3.8-5.5 6.8-9.6 5.4-20.7 4.8-31.5-.1-1.1-3.2-1.7-3.8-3.1-1.9-4-4.8-4.9-8.9-4.6-3.7.3-7.3.2-11 .1-13.4-.1-26.8-.3-40.3-.4h-15.4c-.1.6-.1 1.3-.2 1.9 5.2 1.5 10.6 5.7 15.9 3 4.6-2.4 6.5-1.3 8.9 2-4.3 5.6-3.9 6.9 2.4 9.5 2.1.9 4.3 2.1 5.9 3.8 7.3 7.5 12.3 16.4 14.5 26.8 1.8 8.8 1.6 17.3-2.4 25.5-.6 1.2-1 3.1-.5 4.2 2.4 4.4-.3 6.7-3.1 9.3-4.7 4.4-9.3 8.9-14 13.3l2.1.9c0 3.6 1 7.5-.2 10.6-3.8 10.4-8.6 20.4-12.6 30.7-1.2 3.3-2.2 7.6-1.1 10.6 3.4 8.9 7.2 17.8 12.2 25.9 8.8 14.4 18.9 28.1 28 42.4 4.5 7.1 3.5 10.8-4.1 15.2-6.2 3.6-13.3 5.7-19.8 9-2 1-4.6 3.6-4.6 5.5-.1 7.6.5 15.3 1.3 22.9.2 1.3 2.9 3.3 4.5 3.3 4.1.1 8.3-1.1 12.5-1.1 11.9.1 23.7.1 35.6.8 11.1.7 22.2-2.1 33.5.7 9.6 2.4 19.6 2.7 29.2 3.9.2 7.3-.2 7.6-5.5 6.5-1.8-.4-3.6-.4-5.5-.3-7.2.3-14.4.7-21.6 1zM392 280.3c-6.2 13-9.7 27.7-22 37.3-1.9 1.5-3.5 3.5-5.4 5.1-2.7 2.4-7.4 2.6-7.4 7.9 0 6.9-.9 13.8-.9 20.7 0 6.9.8 13.8 1.1 20.7.2 5.9-.4 12 .3 17.8.8 6.6 1.1 13.4 9.4 16.8 14.7 5.9 29.9 7.9 45.4 7.4 5.1-.2 10.1-2.1 15.2-3.2-28.7-4.5-53.8-14-58-23.6 2.2 1.2 3.6 1.8 4.8 2.7 11.3 8.5 24.3 12.6 38.1 14.7 6.4 1 12.4 2.6 19.2 2.3 4-.2 7.2-.6 10.5-2.4 2.4-1.4 3.3-3.3 1.5-5.9-4.7-7-9.4-14.1-14.1-21.2-9.4-14.2-21.2-26.8-26.8-43.7-1.5.8-2.8 1.5-5.4 2.9 4-17.8 9.8-33.5 17.5-48.6-.5-.4-.9-.8-1.4-1.2-2.9 1.5-5.7 3-8.6 4.5-.2-1.3.1-3.2-.6-3.6-3.9-2.6-8.1-4.9-12.4-7.4zm-81.9-52.5c1.8 6.8 3.2 12.3 4.7 17.8 3.7-1.2 5.5.8 5.1 4.4-.3 2.7-1.4 5.2-2.2 7.8l-3.3-6c-.2-.3-.3-.6-.6-1.3-2.6.4-5.3.8-8 1.2 0 .5-.1 1.1-.1 1.6 4.8 1.3 8.8 3 5.3 9.7 3.3.6 5.8 1.3 8.4 1.5 5.4.5 11 .3 16.3 1.2 7.1 1.3 9.2 5.3 6.3 11.7-1.2 2.7-3.1 5.2-5.1 7.5-2.5 2.9-3.5 5.1 1.3 6.1 3.7.8 7.4 1.6 11.1 2 5.1.6 9.9 1.2 11.9 7.1 1.3 3.9 4.4 3.5 7.1 1.9 6.8-4 13.3-8.2 15.4-16.6.9-3.6 2.8-7 4-10.6 2.9-8.6 7.7-17.1-.5-25.9-1.4-1.5-.3-6.2.9-8.9.4-.9 4.8-.1 7.3.2 1.1.1 2.1.9 3.1 1.5 1.6-4-.1-5.7-3.2-7.2-7.9-3.7-15.7-7.5-23.5-11.4-12.6-6.5-25.1-13.1-37.7-19.7-5.9-3.1-11.4-5.6-18.6-3.1-6.2 2.1-13.2 1.7-19.9 2.6-5.2.7-7.3 3.8-4.7 8.4 2.3 4.2 6.1 7.5 9.9 11.9 3.5-12.9 7-17.4 12.5-17.6-1.5 3-3.6 5.9-4.4 9.2-.4 1.5 1.6 3.6 2.4 5.4.9-1.3 1.9-2.5 2.7-3.8.5-.7.8-1.5 1.4-2.8 1.8 1.9 3.3 3.5 5 5.3 5.3-9.4 9.3 1.4 14.1 1 .9-10.8.9-10.8 4.7-11.3-3.1 5.3-.1 9.5 3.1 12.7 3.9 3.9 9 6.5 13.2 10 6.5 5.4 13.9 10.6 11.4 20.7-.9 3.5-3 6.8-4.9 10-3.4 5.7-6.6 11.5-6.5 18.7 3.8-.9 7-1.7 10.7-2.6-.2 1.9-.4 2.9-.6 4.3 1.5-.6 2.7-1.6 3.7-1.4 1.9.4 3.8 1.5 5.6 2.3-.9 1.3-1.6 3.7-2.7 3.8-4.5.7-9.2 1.1-13.8 1-2-.1-3.9-1.8-6-2.9-1.2-10 .3-15.9 6.4-25.3 5.4-8.3 3.9-15.8-4.3-21.8-3.7-2.7-7.4-5.2-10.9-8.1-3.9-3.2-8.4-5.1-13-3.1-6 3.4-12.4 4.3-20.5.9zM142.7 387.6c1.6-.9 2.2-1.4 2.9-1.4 13.2-.8 24.5-6.9 35.8-13.1 3.6-2 6.2-4.7 6.1-9-.3-12.6-.2-25.3-1.4-37.8-.7-6.9-4.1-10.7-11.4-5.4-4.2 3-6.6 1.3-8.2-2.7-2.4-5.8-6.2-10.3-10.4-13.1-6.8 5.1-13 9.6-19.1 14.2.2.3.5.6.7.9 4.5-2.7 9-5.3 13.5-8 .2.3.4.6.6 1-4.2 3.3-8.5 6.6-13 10.1 2.3 3.7 4.7 7.4 7 11.1-.5.3-.9.6-1.4.9-2.6-1.1-5.2-2.2-7.4-3.1-4.2 6.9-8.1 13.6-12.1 20.3-3.7 6.1-7.3 12.1-11 18.1-2.1 3.4-1.3 5.7 2.1 7.5 4.8 2.5 9.7 5.1 14.4 7.8 10 5.6 20.8 8 32.1 7.4 10.7-.5 11.2-1.1 14.3-9.6-7 2.7-14 5.4-20.9 8.1-.3-.6-.5-1.2-.8-1.9 3.5-1.5 7-3.1 10.4-4.6-7.6-.9-13.7 6.8-22.8 2.3zm277.7-150.7c3-.3 5.9-1 8.6-.6.5.1.8 3.9.9 5.9 0 2-.4 4-.6 6 1.3-1.9 2.6-3.8 3.9-5.8.3-.4.2-1.1.3-1.6.8-22.1-6.1-40.6-25.7-52.5-18.4-11.2-37.9-12.2-58-4.4-6.8 2.7-12.8 6.3-18.2 11.1 22.6 12.2 44.7 24.1 66.1 35.6 2.5-2 4.9-4 7.3-5.9 1.4 2.9 2.9 5.7 4.4 8.7 2.9-2.4 3.4-9.8 9.7-7 5.4 2.4 1.2 7.3 1.3 10.5zm-307.6 17.9c-.4.8-.8 1.6-1.2 2.3 1.3.7 2.7 1.2 3.9 2 2.3 1.6 4.6 3.2 6.9 4.9-1.9 1.6-3.6 3.4-5.6 4.9-.9.7-2.2 1.1-3.3 1.6 12.8-.3 15.1 9.2 17.2 18.5 15.8-1.3 14.2-16.8 21.9-24.7-1.9 0-3.3.9-4.8 1.4-1.6.5-4.2 1.3-4.9.6-1.1-1.1-1.4-3.5-1.2-5.2.4-3.5 1.6-7 2-10.6.1-1.3-1.1-2.8-1.7-4.1-.4.2-.8.5-1.2.7 1.3 5.2-.2 10.6-3.2 11.2-3.9.9-6.1-1.9-7-9-.1-.7.1-1.7-.3-2.1-.7-.8-1.7-1.2-2.6-1.7-.5 3.1.4 5.5.6 7.9.2 2.2-.5 4.4-.7 6.6-2.3-.6-4.7-1-6.9-1.8-2.8-1.1-5.3-2.3-7.9-3.4zm290.9-12.4c0 7.4-1.7 7.8-13.1 2 .2 1.8.1 3.2.6 4.3 3.7 6.8 6.9 14 11.6 20.1 6.7 8.8 10.6 8.8 16.6-.8 2-3.2 5.1-5.9 7.6-8.8 1.6-1.8 3.1-3.5 4.7-5.3l-1.4-1.4c-1.8 1.1-3.5 2.6-5.5 3.1-2.2.6-4.6.2-6.9.2.4-2.1.3-4.5 1.2-6.4.8-1.7 2.8-2.8 4-4.4 1-1.4 1.7-3.1 2.5-4.6-.4-.3-.9-.5-1.3-.8-2.6 3.1-5.1 6.1-8.9 10.6-1.5-3.8-2.4-6.2-3.3-8.7-2 .4-4.9.6-8.4.9zm-12.2 180.2c-.5 2.2-1.3 4.3-1.4 6.4 0 2.4-.2 6.2 1.1 7 5.1 2.9 10.7 5.2 16.3 7.1 3.3 1.1 6 0 5.8-4.5-.2-4.7 0-9.4 0-14-7.1-.6-14.3-1.3-21.8-2zM134.8 313.2c11.6.6 20.4-13.4 16.5-23.7-6 4.1-12.2 8.3-18.9 12.9.6 2.8 1.5 6.6 2.4 10.8zm94.6-8.2-.9-1.8c3.1-2.4 6.3-4.8 9.4-7.2-.2-.4-.5-.8-.7-1.2-2.1 1.2-4.3 2.4-6.4 3.7-3.6 2.2-7.2 5.9-10.8.3-3.2 2.1-3.5 4-1 6.8 2.1 2.3 3 5.6 4.9 8.2 2.3 3.2 5.1 6.1 7.2 8.6 1.1-4 2.2-7.4 3-10.9 1.4-5.9 6.1-2.6 9.7-2.6 0-.8-.1-1.5-.1-2.3-4.8-.4-9.6-1-14.3-1.6zm-36.3 58.6c.6.1 1.2.2 1.9.3.4-1.8 1.3-3.6 1.2-5.3-.2-6.7-.6-13.4-1-20.1-.3-5.4-.6-10.9-1.3-16.3-.2-1.2-1.8-2.3-2.7-3.5l-1.2.9c.9 2.6 3.3 5.7 2.6 7.6-4.6 12.5 2.4 24.3.5 36.4zm8 67.6c-.1.4-.1 1.2-.3 1.3-7.3 2.4-14.7 3.2-22.3 1.5-1.7-.4-3.5-.2-5.2 0-.1 0-.4 1.8-.3 1.9 1.7.7 3.5 1.5 5.4 1.7 3.8.5 7.6 1 11.4 1 5.9 0 12 1.1 17.6-2.9-2.3-1.5-4-2.8-6.3-4.5zm175-129.2c-2.5 1.4-4.9 3-7.6 4.1-7.7 3.2-8.8 5.1-7.5 14.3 8-4 12.1-10.6 15.1-18.4zm10.6 121.6c-4.1-1.6-8.3-3.3-12.8-5.1-.6 2.2-1 3.9-1.4 5.4 4.2 2.9 8.1 5.5 12.4 8.5.6-3.1 1.1-5.7 1.8-8.8zm-208.3-36c9.1-.3 13.7-5.6 15.4-17.1-5.4 6-10 11.1-15.4 17.1zm216.9-116.9c2.4 8.4 8.4 12 15.9 13.1 1.6.2 3.6-2.5 5.4-3.9-6.5 0-12.3 1.3-16.1-5.4-1-1.7-3.5-2.6-5.2-3.8zM414.8 449c-8.5-1.9-16.4-3.6-24.3-5.4 3.1 2.4 7.5 2.8 9.7 5.3 4.9 5.4 9.1 4.4 14.6.1zM195.5 303.5c6.8 4.2 18.6-.7 20.8-8.5-6.8 2.8-13.8 5.6-20.8 8.5zm-65.1 142.2c2.1 3.5 24.5 6.4 29.2 3.4-10.1-1.2-19.6-2.3-29.2-3.4zm241.1-14.9c1.7 7.4 3.2 8 12.7 5.2-4-1.7-8-3.3-12.7-5.2zm-67.8 15.1c0 .4.1.8.1 1.1h17.6v-1.1h-17.7zM138.9 294c4.6.1 7.2-2.6 8.2-8.2l-8.2 8.2zm219.9 12c-.9-.3-1.8-.6-2.7-.8-1.2 3.5-2.5 7-3.7 10.5.9.3 1.7.6 2.6.9 1.2-3.5 2.5-7 3.8-10.6zm48.5 152.2c.1-.5.3-1 .4-1.5-4.9-.9-9.7-1.8-14.6-2.7-.1.7-.2 1.4-.3 2 4.8.8 9.7 1.5 14.5 2.2z"/>
  <path d="M244.6 450.7c-5.9.6-11.7 1.1-17.6 1.8-1.5.2-2.9.5-4.3 2 .8.2 1.5.7 2.3.7 14.2-.1 28.4-.4 42.5-.2 7.8.1 15.6 1.5 23.5 1.8 5 .1 10-.9 15-1.3 3.7-.3 7.4-.6 11.2-1 .1.5.1.9.2 1.4-1.5.3-2.9.6-4.4.9 0 .3-.1.6-.1 1h40.6c.3 1.4.7 2.8 1.1 4.5h-85.3c-28.3 0-56.7-.4-85-.2-29.3.3-58.6 1.5-87.9 1.6-29.1.1-58.1-.7-87.4-1V160.1c3.8 2.1 5.7 3.7 7.9 4.2 6.5 1.4 13 2.7 19.6 3.2 4.8.4 10.7-2.6 14.4-.7 8 4.1 16.1.3 23.8 2.1 3.5.8 8.5 0 10.3 2.1 1.9 2.3.3 7.2 1.2 10.7 2.6 9.1 7.9 16.2 16.7 20.5 3.4-1.5 3.2-3.6 1.9-6.6-3.2-7.3-2.3-15.1-1.8-22.8.1-1.3 3.8-3.2 5.9-3.3 13.2-.4 26.5-.5 39.7-.3 8.7.1 17.4 1.3 26.2 1.4 15.1.2 30.3-.1 45.4.1 21 .3 42 .9 62.9 1.3 10.9.2 21.7-.2 32.6 0 16.5.2 33 .6 49.4 1 .6 0 1.3.2 3.1.6-5.1 1.5-8.9 2.8-12.8 3.7-8.4 1.8-15 6.8-22.3 10.7-8.1 4.3-16.8 9-27 8.6-4.9-.2-10.3 1-14.8 2.9-8.7 3.8-9.7 16.1-2.1 22.3 3.6 2.9 7.7 5.2 11.8 7.5 6.6 3.8 7.5 10.5 8.9 15.1-3.8 3.3-7.5 5.3-9.1 8.5-.7 1.4 3.2 5 5.7 8.5-1.2 5.3 1.4 8.4 8.8 8.7 7.7.2 15.5.6 23.1.8.4 6.3-1.7 9.6-6 12.4-6.9 4.4-6.7 8.4.7 11.4 5.3 2.2 11.2 2.6 16.8 3.9l6.4 1.6c-5.5 7.8-12.7 15-1.4 23.8-.6.3-1.1.5-1.7.8-2-1.6-4.2-3-5.9-4.8-5.5-5.6-10.7-11.4-16.2-16.9-2.2-2.1-5.1-3.5-7.6-5.2-4.7-3.1-4.9-4.7-1.2-9 .8-1 1.8-1.8 2.7-2.7.8-.8 1.5-1.6 2.6-2.8-3.8-2.1-7-2.7-9.8 1.2-3.8 5.4-9.4 2.5-14.1 3.3 2-1.9 3.9-3.7 5.8-5.5-2.3-1.9-4.5-3.8-6.9-5.8 1.1-.5 2.8-1.2 4.8-2.1-1.4-3.3-2.7-6.4-3.9-9.5-.5.1-1.1.3-1.6.4.2 2.2.3 4.3.5 6.5-9.6 4.2-9.7 5.1-1.7 11.1-1.7 2.3-4.7 4.5-4.7 6.7 0 3.5 4.8 4.7 9.4 2.5 3.5-1.6 5.2-.3 7.2 2.4 1.6 2.2 4.1 3.7 6.2 5.6 5.6 5 11.3 10 16.8 15.1 5.4 5 10.7 10.2 16.3 15.5-5.6 19.6-5.3 39.4-4 59.2.6 8.6 3 17.8 13.3 21.3 3 1.1 5.8 2.9 8.5 4.2-1.1 6.4-2.2 12.2-3.4 18.9h-17.1c-5.3 0-10 1.1-12.9 6.2-.5.8-2 1.4-3 1.5-8.4.5-16.8.9-25.1 1.3-2.5.1-5.1.4-7.7-.1 7.8-3.3 17 .3 24.6-3.8-.1-.6-.2-1.3-.2-1.9-14.8 1.3-29.6 2.8-44.5 3.7-10.9.7-21.8.2-32.7.9-13.3.8-26.5 2.3-39.8 3.4-7.8.6-15.6 1-23.4 1.5-.1-.9-.2-1.8-.2-2.7 18-1.7 36-3.3 54-5v-1h-23.9c-1.9-8.4-3.6-9.6-16.8-11.2l.9-15.6c.4-6.5-.8-12.6-4.4-18.2-.9-1.5-1.5-4.5-.6-5.6 5.1-6.8 5.1-15 6.2-22.6.9-6.5-1-13.2-.6-19.8.2-3.2.7-6.9 5.9-8.4 8.4-2.4 15.6-7.4 19.2-16.6 1 1.1 1.5 1.6 1.9 2.1 1.4 1.6 2.8 4.5 4.2 4.5 1.9 0 4.1-1.9 5.5-3.6 1.5-1.9 1.7-4.8 5.5-3.3.7.3 3.6-2.2 3.5-3.3-.4-4.5 9.6-7.8 1.5-13-1.6-1.1-3.4-1.9-4.4-2.6.7-2.3 1.3-4.4 1.9-6.5-2.6-.8-5.4-2.5-7.8-2-3.4.6-6.5 2.8-9.8 4.3 0-3.3 1.3-7.5-.3-9.6-3.9-5.4-5.2 2.3-8.7 2.5-2.1-2.5-4.7-5-6.6-8-2.7-4.4-1.2-6.1 3.6-7.6 6.3-1.9 12.1.4 18.2.3 8.2-.2 10.1-1.2 12.2-9.3.2-.9.9-2 1.7-2.4 4.2-2.2 8-5.5 6.5-10.2-1.1-3.3-5.2-5.7-8.6-9.1-2.4-7.4-5.2-16.1-8.1-24.8-.3-.9-.6-1.9-1.3-2.4-1.1-.9-2.6-1.4-3.9-2.1-.1 1.4-.7 3-.3 4.3.8 2.7 2.2 5.3 3.3 7.9-2.3.8-4.4 1.5-8.2 2.8 2.8 1.6 4.6 3.4 5.7 3.1 4.5-1.5 4.3 1.9 5 4.3.9 3.1 1.3 6.4 2.5 9.4.7 1.6 2.4 3.6 4 3.9 3.2.7 5.8 1.8 4.6 5.1-.6 1.7-3.5 2.7-5.4 3.9-.4.3-1 .2-1.7.4-.2 1.4-.5 2.9-.4 4.3.3 5.4-2.6 6.7-7.4 6.5-6.6-.3-13.2-.2-19.8-.2-7.8 0-11.6 5.6-8.5 12.7 1 2.3 2.4 4.4 4.1 6.2 2.1 2.2 1.8 3.8-.8 4.9-2.4 1-4.9 1.6-7.4 2.2-6.7 1.6-13.4 3.4-20.2 4.5-2.2.3-4.8-1.7-7.3-2.4-3-.9-6.2-1.2-9.1-2.4-2.2-1-4.9-2.6-5.8-4.6-2.6-5.7-4.4-11.8-6.4-17.7 9.1-9.2 9.5-11.6 2.2-16-1.8 1-3.6 2-5.6 3.1-.5-16.3-.5-16.3-7.4-21.2-1.9 4-3.7 7.8-5.5 11.5-1.2-2.2-2.2-6-4.6-7.7-2-1.4-5.7-.3-9.2-.3 0-5.3-.5-11.8.1-18.1.8-7.5 4-13.9 9.1-19.9 2.6-3.1 2.7-8.2 6.5-11.2 7.6-6 16.7-7.9 25.7-10.1 13.8-3.4 26.6.9 39.4 5.5 8.5 6.2 17.3 11.9 23.4 20.8 1.7 2.6 3.2 2.4 5.7.5 1.1-.9 3.8-.1 5.6.4 1.8.5 3.4 1.7 5.1 2.6.6-.3 1.1-.6 1.7-.9-.5-2.1-.2-5-1.5-6.2-1.8-1.7-5.7-3.8-7-3-4.8 3-6.9.3-9.8-2.6-4.2-4.2-7.6-9.7-14.2-10.8-1.3-1.3-2.3-3.1-3.8-4-10.1-5.9-21-7.9-32.6-8.1-11.8-.2-23 1.3-33.2 7.7-1.5 1-4.5 1.1-2.6 4.3 0 0-2.1 1.5-2.2 1.4-5.1-5.6-4.4.9-6.3 3.1-2.8-1.7-5.7-2.5-4.6 3.2h-5.3c3.1 7 1.2 12.9-1.7 19.1-4.5 9.6-4.7 19.9-2.1 30.2.3 1.2-.1 2.5-.1 3.7-9.7 3.3-10.9 7.5-4.1 13.6 0 .3 0 .7-.1 1-1.3 2.7-3.9 5.4-3.8 8 .2 4.4 4.9 4.1 8.1 4.6 5.2.8 7.6 4.3 5.3 9.1-1.7 3.5-.5 5.9.8 9.2 3.1 7.6 5.4 15.6 8 23.4.1.3-.1.8 0 1.1 6.4 11.9-2.9 18.8-8.4 27-5.9 8.7-11.3 17.7-16.9 26.6-1.9 2.9-1.1 5 2.1 6.6 4 2 6 6.1 5.2 10-1.1 5.3 1.9 8.7 3.8 12.7 2.1 4.3 4.8 8.2 6.8 12.5 2.5 5.3-.4 18-4.7 21.7-.9.7-2.3.9-3.5 1.1l-30.3 3.3c-.4 0-.8.3-1.1.1-12.9-7.1-26 1.1-39-.7-1.3-.2-2.9 1-4.3 1.5.2.8.3 1.5.3 1.5 6.4-.4 11.4 7.2 18.7 3.1 1.8-1 5.3 1.6 8 1.5 13.8-.6 27.7-1.5 41.5-2.3 2.9-.2 5.2-.2 7.6 3.1 2 2.7 7.3 3.6 11.3 4 10.7 1 21.5 2.1 32.2 1.8 6.8-.2 13.5-2.7 20.3-4.2 2.6-.6 5.2-1.6 7.9-1.8 9-.7 18.1-1.2 27.2-1.7 0 .6.1 1.1.1 1.7-3.9.4-7.9.8-12.2 1.2.6.9 1 1.9 1.3 1.9 9.1-.6 18.2-1.4 27.3-1.8 4.5-.2 9 .3 13.6.5-.9-.4-1-.6-1-.6zM71.5 259.9c-8.1 3.3-11.8 22.4-7.5 33.6 4.8 12.6 16.7 21.3 26.7 17.8-12.2-2.6-19.6-8.8-22.3-19.8-2.5-10.5-2-20.8 3.1-31.6zm21.2-23.4c-.3-.2-.6-.5-.9-.7-.8.6-2 1.1-2.4 1.9-5.7 11-9.2 22.4-7 35 1.5 8.4 3.1 16.7 9.8 23 2.5 2.3 4.8 3.8 7.2 2.3-3.2-3.6-7.4-6.5-8.8-10.4-4.7-12.7-6.3-25.9-2.7-39.2 1-4.1 3.1-7.9 4.8-11.9zm92.3 9.1c.9-6.1-4-7.1-7.3-8.5-4.1-1.8-7.9 1.6-9.7 7.7-2.2 7.5.6 14.8 6.5 16.2 3.9.9 7.5.1 8.3-3.3-3.3-1.8-7.1-2.6-8-4.7-1.1-2.6-1-7 .5-9.3 3.2-4.3 5.8 1 9.7 1.9zm67.2 91.2c9.8-3.1 13.8-11.5 16.1-20.4 1.4-5.2 2.2-11.4-1.9-16.8 2.2 15.3-2.3 27.5-14.2 37.2zm55.8-26.4c-5.3-.7-10.3-.1-13.4-2.2-3.3-2.2-4.9-7-7.4-10.9-2.7 3.5-.2 6.3 1.6 9 3.3 5 7.8 7.9 14 6.9 1.7-.4 3.2-1.8 5.2-2.8zm-74.6-66.6c-5.4 2.9-6.4 9.9-2.1 15.1 4.8-3.5 5.7-9.9 2.1-15.1zm68.7 79.7c-5.1-3.8-10.6-7.8-16-11.8 0 6.2 10.4 13.5 16 11.8zm-41.4 112.8c-6.8.4-12.9.8-18.8 1.1 3.1 2.6 14.5 2.5 18.8-1.1zM502.9 461.7c7.2-.3 14.4-.7 21.5-1 1.8-.1 3.7 0 5.5.3 5.2 1.1 5.6.8 5.5-6.5-9.6-1.2-19.7-1.6-29.2-3.9-11.3-2.8-22.3 0-33.5-.7-11.8-.7-23.7-.8-35.6-.8-4.2 0-8.3 1.2-12.5 1.1-1.6 0-4.3-2-4.5-3.3-.9-7.6-1.5-15.3-1.3-22.9 0-1.9 2.6-4.5 4.6-5.5 6.5-3.3 13.5-5.4 19.8-9 7.6-4.4 8.6-8.2 4.1-15.2-9.1-14.3-19.1-28-28-42.4-5-8.1-8.8-17-12.2-25.9-1.1-3-.2-7.3 1.1-10.6 3.9-10.3 8.8-20.4 12.6-30.7 1.2-3.1.2-7 .2-10.6l-2.1-.9c4.7-4.4 9.3-8.9 14-13.3 2.8-2.6 5.5-4.9 3.1-9.3-.6-1-.1-2.9.5-4.2 4-8.2 4.3-16.6 2.4-25.5-2.2-10.4-7.2-19.2-14.5-26.8-1.6-1.6-3.7-2.9-5.9-3.8-6.2-2.6-6.6-3.9-2.4-9.5-2.4-3.3-4.3-4.3-8.9-2-5.3 2.7-10.6-1.4-15.9-3 .1-.6.1-1.3.2-1.9h15.4c13.4.1 26.8.3 40.3.4 3.7 0 7.4.2 11-.1 4.1-.3 7 .6 8.9 4.6.6 1.3 3.8 2 3.8 3.1.5 10.8 2 21.8-4.8 31.5-1.3 1.8-3.2 3.2-3.8 5.5 15.2-10.7 24.7-24.8 23.9-43.5 13.5 0 26.6-.3 39.8.1 21.8.5 42-3.2 56.8-21.3.7-.9 1.7-1.5 3.5-3.3v7.1c.1 23.3.1 46.6.2 70 .1 24.4.2 48.9.1 73.3 0 33.4-.2 66.8-.3 100.2-.1 15.5-.4 31-.6 46.5 0 3.2.2 6.3.6 9.5.5 4.2-.9 6.2-5.4 6-9.3-.2-18.7-.2-28-.2l-45.7-.3c-1.6 0-3.1-.3-4.6-.4.2-.3.3-.6.3-.9zm-45.1-230.3c1.8 14.2 2.8 27.5-5.8 40 10.6-4.6 14.9-33.1 5.8-40z" fill="#fff"/>
  <path d="M392 280.3c4.3 2.5 8.5 4.8 12.4 7.4.7.5.4 2.4.6 3.6 2.8-1.5 5.7-3 8.6-4.5.5.4.9.8 1.4 1.2-7.7 15.1-13.5 30.8-17.5 48.6 2.6-1.4 3.9-2.1 5.4-2.9 5.5 16.8 17.4 29.5 26.8 43.7 4.7 7.1 9.3 14.2 14.1 21.2 1.8 2.6.9 4.6-1.5 5.9-3.3 1.8-6.5 2.2-10.5 2.4-6.8.3-12.9-1.3-19.2-2.3-13.8-2.2-26.8-6.2-38.1-14.7-1.2-.9-2.6-1.5-4.8-2.7 4.1 9.6 29.2 19.1 58 23.6-5.1 1.1-10.1 3.1-15.2 3.2-15.6.6-30.7-1.4-45.4-7.4-8.3-3.4-8.6-10.2-9.4-16.8-.7-5.9-.1-11.9-.3-17.8-.2-6.9-1-13.8-1.1-20.7 0-6.9.9-13.8.9-20.7 0-5.3 4.7-5.5 7.4-7.9 1.9-1.6 3.5-3.6 5.4-5.1 12.3-9.6 15.8-24.3 22-37.3zm43.5 122.5c.5-.3 1-.6 1.5-1-.6-1.2-1.2-2.5-1.9-3.7-.8-1.2-1.9-2.2-2.6-3.5-2.4-4.7-4.1-10-7.3-14.2-5.4-7.3-10.7-14.4-13.7-23-.4-1.1-1.7-1.8-2.5-2.7-.2 1.3-.8 2.6-.6 3.8 1.2 7.4 5.2 13.5 9.5 19.4 2.7 3.8 5.1 7.8 7.8 11.7 3.2 4.6 6.5 8.9 9.8 13.2zm-14.6-7.2c-22.9-1.3-38.4-15.1-53-31.2-.2 6.4 14.5 20.9 28.5 26.9 7.6 3.4 15.6 8.3 24.5 4.3zM310.1 227.8c8.1 3.3 14.5 2.4 21.1-.5 4.6-2 9.1-.1 13 3.1 3.5 2.9 7.2 5.4 10.9 8.1 8.2 6 9.7 13.5 4.3 21.8-6.1 9.4-7.6 15.3-6.4 25.3 2.1 1.1 4 2.8 6 2.9 4.6.2 9.2-.3 13.8-1 1.1-.2 1.8-2.5 2.7-3.8-1.9-.8-3.7-1.9-5.6-2.3-1-.2-2.2.8-3.7 1.4.2-1.5.3-2.4.6-4.3-3.6.9-6.9 1.7-10.7 2.6-.1-7.3 3.1-13 6.5-18.7 1.9-3.2 4-6.5 4.9-10 2.4-10.1-4.9-15.4-11.4-20.7-4.2-3.5-9.3-6.1-13.2-10-3.2-3.2-6.1-7.4-3.1-12.7-3.8.5-3.8.5-4.7 11.3-4.8.4-8.8-10.4-14.1-1-1.7-1.8-3.2-3.4-5-5.3l-1.4 2.8c-.9 1.3-1.8 2.5-2.7 3.8-.9-1.8-2.8-3.9-2.4-5.4.9-3.3 2.9-6.2 4.4-9.2-5.5.2-9.1 4.7-12.5 17.6-3.8-4.5-7.6-7.8-9.9-11.9-2.5-4.6-.5-7.7 4.7-8.4 6.6-.9 13.7-.5 19.9-2.6 7.3-2.5 12.8.1 18.6 3.1 12.5 6.6 25.1 13.2 37.7 19.7 7.7 4 15.6 7.8 23.5 11.4 3.1 1.5 4.8 3.2 3.2 7.2-1.1-.5-2.1-1.3-3.1-1.5-2.5-.3-6.9-1.1-7.3-.2-1.2 2.6-2.3 7.4-.9 8.9 8.2 8.7 3.4 17.2.5 25.9-1.2 3.6-3 7-4 10.6-2.2 8.4-8.7 12.7-15.4 16.6-2.7 1.6-5.8 2-7.1-1.9-2-5.9-6.8-6.6-11.9-7.1-3.7-.4-7.4-1.2-11.1-2-4.8-1-3.8-3.2-1.3-6.1 2-2.3 3.9-4.8 5.1-7.5 2.9-6.4.9-10.5-6.3-11.7-5.3-.9-10.9-.7-16.3-1.2-2.6-.2-5.2-.9-8.4-1.5 3.5-6.7-.4-8.5-5.3-9.7 0-.5.1-1.1.1-1.6 2.7-.4 5.3-.8 8-1.2.3.6.4 1 .6 1.3l3.3 6c.8-2.6 1.9-5.2 2.2-7.8.3-3.6-1.4-5.6-5.1-4.4-2.1-5.9-3.5-11.3-5.3-18.2zm11.2 9.3c.3-.7.5-1.5.8-2.2-2-1-4-1.9-6-2.9-.5 1.2-.9 2.4-1.4 3.7 2.2.5 4.4.9 6.6 1.4zM142.7 387.6c9.1 4.5 15.1-3.2 22.8-2.2-3.5 1.5-7 3.1-10.4 4.6.3.6.5 1.2.8 1.9 6.9-2.7 13.9-5.4 20.9-8.1-3.1 8.5-3.6 9.1-14.3 9.6-11.3.6-22.1-1.8-32.1-7.4-4.8-2.7-9.6-5.3-14.4-7.8-3.4-1.8-4.3-4.1-2.1-7.5 3.7-6 7.4-12.1 11-18.1 4-6.6 8-13.3 12.1-20.3 2.2.9 4.8 2 7.4 3.1.5-.3.9-.6 1.4-.9-2.3-3.7-4.7-7.4-7-11.1 4.6-3.6 8.8-6.9 13-10.1-.2-.3-.4-.6-.6-1-4.5 2.7-9 5.3-13.5 8-.2-.3-.5-.6-.7-.9 6.2-4.6 12.3-9.2 19.1-14.2 4.2 2.7 8 7.2 10.4 13.1 1.6 4 4.1 5.7 8.2 2.7 7.3-5.3 10.7-1.5 11.4 5.4 1.2 12.5 1.1 25.2 1.4 37.8.1 4.3-2.5 7-6.1 9-11.3 6.2-22.5 12.3-35.8 13.1-.6-.1-1.2.5-2.9 1.3zM131.9 350c-1.8 7 4.4 9.9 7.5 13.5 5.9 6.9 13.5 12 23.3 10.9-5.7-3.2-12.1-5.3-17.2-9.2-5.1-3.9-8.8-9.7-13.6-15.2zm6.5-13.5c-3.2 3.1-3.1 4-.3 9.7 4.4 8.7 14.7 16 22 14.8-11-5.3-20-11.7-21.7-24.5zM420.4 236.9c-.1-3.2 4.1-8.1-1.3-10.5-6.3-2.8-6.9 4.6-9.7 7-1.5-3-2.9-5.9-4.4-8.7-2.4 1.9-4.8 3.8-7.3 5.9-21.4-11.6-43.5-23.5-66.1-35.6 5.4-4.7 11.3-8.4 18.2-11.1 20.1-7.8 39.6-6.8 58 4.4 19.6 11.9 26.5 30.4 25.7 52.5 0 .5 0 1.2-.3 1.6-1.2 2-2.6 3.8-3.9 5.8.2-2 .6-4 .6-6 0-2.1-.3-5.9-.9-5.9-2.7-.3-5.6.3-8.6.6zM112.8 254.8c2.6 1.1 5.1 2.3 7.8 3.3 2.2.8 4.6 1.2 6.9 1.8.3-2.2.9-4.5.7-6.6-.2-2.4-1.1-4.7-.6-7.9.9.6 1.9 1 2.6 1.7.4.4.2 1.4.3 2.1.9 7.1 3.1 9.9 7 9 3-.7 4.5-6 3.2-11.2.4-.2.8-.5 1.2-.7.6 1.4 1.8 2.8 1.7 4.1-.4 3.6-1.6 7-2 10.6-.2 1.7.1 4.1 1.2 5.2.7.7 3.3-.1 4.9-.6 1.5-.4 2.8-1.4 4.8-1.4-7.7 7.8-6.1 23.4-21.9 24.7-2.1-9.3-4.4-18.8-17.2-18.5 1.1-.5 2.4-.8 3.3-1.6 1.9-1.5 3.7-3.2 5.6-4.9-2.3-1.6-4.5-3.3-6.9-4.9-1.2-.8-2.6-1.4-3.9-2 .5-.7.9-1.4 1.3-2.2z" fill="#fff"/>
  <path d="M403.7 242.4c3.5-.3 6.5-.6 8.5-.7 1 2.5 1.9 4.9 3.3 8.7 3.8-4.5 6.3-7.5 8.9-10.6.4.3.9.5 1.3.8-.8 1.5-1.5 3.2-2.5 4.6-1.2 1.6-3.2 2.7-4 4.4-.9 1.9-.9 4.2-1.2 6.4 2.3 0 4.7.3 6.9-.2 2-.5 3.7-2 5.5-3.1l1.4 1.4c-1.6 1.8-3.1 3.5-4.7 5.3-2.6 2.9-5.6 5.5-7.6 8.8-6 9.7-9.8 9.6-16.6.8-4.7-6.1-7.9-13.3-11.6-20.1-.6-1.1-.4-2.5-.6-4.3 11.2 5.7 12.9 5.2 13-2.2zM391.5 422.6c7.5.7 14.7 1.4 21.7 2.1 0 4.6-.1 9.3 0 14 .2 4.4-2.5 5.6-5.8 4.5-5.6-1.9-11.2-4.2-16.3-7.1-1.3-.8-1.2-4.6-1.1-7 .1-2.2 1-4.3 1.5-6.5z" fill="#fff"/>
  <path d="M210.6 189.5c6.6 1.1 10 6.5 14.2 10.8 2.9 2.9 5 5.6 9.8 2.6 1.3-.8 5.2 1.3 7 3 1.3 1.2 1.1 4.1 1.5 6.2-.6.3-1.1.6-1.7.9-1.7-.9-3.3-2.1-5.1-2.6-1.8-.5-4.5-1.3-5.6-.4-2.4 1.9-3.9 2-5.7-.5-6.1-8.9-14.9-14.6-23.4-20.8 3.1.2 6 .5 9 .8z"/>
  <path d="M134.8 313.2c-.9-4.2-1.8-8-2.4-10.8 6.7-4.6 12.9-8.8 18.9-12.9 3.9 10.3-4.9 24.3-16.5 23.7zM229.4 305c4.7.6 9.5 1.2 14.2 1.8 0 .8.1 1.5.1 2.3-3.5 0-8.2-3.3-9.7 2.6-.8 3.5-1.9 6.9-3 10.9-2.1-2.5-4.9-5.4-7.2-8.6-1.9-2.6-2.8-5.9-4.9-8.2-2.5-2.8-2.2-4.7 1-6.8 3.7 5.6 7.2 1.9 10.8-.3 2.1-1.3 4.3-2.5 6.4-3.7.2.4.5.8.7 1.2-3.1 2.4-6.3 4.8-9.4 7.2.4.4.7 1 1 1.6zM193.1 363.6c1.9-12.1-5.1-23.9-.5-36.2.7-2-1.6-5.1-2.6-7.6l1.2-.9c.9 1.1 2.5 2.2 2.7 3.5.7 5.4 1 10.8 1.3 16.3.4 6.7.8 13.4 1 20.1 0 1.8-.8 3.5-1.2 5.3-.7-.3-1.3-.4-1.9-.5zM201.1 431.2c2.2 1.6 4 2.9 6.3 4.6-5.6 3.9-11.7 2.9-17.6 2.9-3.8 0-7.6-.5-11.4-1-1.8-.3-3.6-1-5.4-1.7-.2-.1.1-1.9.3-1.9 1.7-.1 3.5-.3 5.2 0 7.6 1.7 15 .8 22.3-1.5.2-.2.2-1 .3-1.4zM376.1 302c-3.1 7.8-7.1 14.4-15 18.3-1.3-9.2-.2-11.1 7.5-14.3 2.6-1 5-2.6 7.5-4zM386.7 423.6c-.6 3.1-1.2 5.7-1.8 8.9-4.4-3-8.2-5.6-12.4-8.5.4-1.6.8-3.2 1.4-5.4 4.4 1.7 8.6 3.4 12.8 5zM178.4 387.6c5.5-6 10-11.1 15.4-17.1-1.7 11.5-6.3 16.9-15.4 17.1zM395.3 270.7c1.8 1.2 4.2 2.1 5.2 3.8 3.8 6.7 9.6 5.4 16.1 5.4-1.8 1.4-3.8 4.1-5.4 3.9-7.5-1.1-13.5-4.7-15.9-13.1zM414.8 449c-5.5 4.3-9.7 5.3-14.6-.1-2.2-2.4-6.6-2.9-9.7-5.3 7.9 1.8 15.8 3.5 24.3 5.4zM195.5 303.5c7.1-2.9 14.1-5.8 20.8-8.5-2.2 7.8-14 12.7-20.8 8.5zM130.4 445.7c9.6 1.1 19.1 2.2 29.2 3.4-4.7 3-27.1 0-29.2-3.4zM244.7 450.9c1.1-.8 2.2-2.2 3.4-2.2 7.2-.2 14.5-.1 21.8.7-8.4.9-16.7 2.7-25.3 1.4 0-.1.1.1.1.1zM371.5 430.8c4.7 1.9 8.7 3.6 12.7 5.2-9.4 2.8-10.9 2.1-12.7-5.2zM303.7 445.9h17.7v1.1h-17.6c0-.4-.1-.7-.1-1.1zM138.9 294l8.2-8.2c-1 5.7-3.5 8.3-8.2 8.2zM358.8 306c-1.3 3.5-2.6 7.1-3.9 10.6-.9-.3-1.7-.6-2.6-.9 1.2-3.5 2.5-7 3.7-10.5 1 .3 1.9.5 2.8.8zM407.3 458.2c-4.8-.7-9.7-1.5-14.5-2.2.1-.7.2-1.4.3-2 4.9.9 9.7 1.8 14.6 2.7-.1.5-.3 1-.4 1.5z" fill="#fff"/>
  <path d="M71.5 259.9c-5.2 10.8-5.6 21.1-3.1 31.6 2.7 11 10.1 17.2 22.3 19.8-10 3.5-21.9-5.2-26.7-17.8-4.3-11.2-.6-30.3 7.5-33.6zM92.7 236.5c-1.6 4-3.7 7.8-4.8 11.9-3.6 13.3-2 26.5 2.7 39.2 1.5 3.9 5.7 6.8 8.8 10.4-2.5 1.4-4.8 0-7.2-2.3-6.7-6.2-8.3-14.6-9.8-23-2.2-12.6 1.3-24 7-35 .4-.8 1.6-1.3 2.4-1.9.3.2.6.5.9.7zM185 245.6c-3.9-.9-6.6-6.2-9.6-1.8-1.6 2.3-1.7 6.7-.5 9.3.9 2.1 4.7 2.9 8 4.7-.9 3.4-4.4 4.2-8.3 3.3-5.9-1.4-8.7-8.6-6.5-16.2 1.8-6.1 5.6-9.5 9.7-7.7 3.2 1.4 8.1 2.3 7.2 8.4zM252.2 336.8c11.9-9.7 16.4-22 14.2-37.2 4.1 5.4 3.3 11.5 1.9 16.8-2.3 8.9-6.3 17.4-16.1 20.4zM308 310.4c-2 1.1-3.5 2.4-5.2 2.7-6.2 1.1-10.8-1.9-14-6.9-1.7-2.7-4.2-5.5-1.6-9 2.5 3.9 4.1 8.7 7.4 10.9 3.1 2.2 8.1 1.5 13.4 2.3zM233.4 243.8c3.6 5.2 2.7 11.6-2.1 15.1-4.3-5.2-3.3-12.3 2.1-15.1zM302.1 323.5c-5.6 1.7-16-5.7-16-11.8 5.4 4 10.9 8.1 16 11.8zM260.7 436.3c-4.3 3.5-15.7 3.7-18.8 1.1 5.9-.3 11.9-.7 18.8-1.1zM457.8 231.4c9.1 6.9 4.8 35.5-5.8 40 8.6-12.6 7.6-25.9 5.8-40zM435.5 402.8c-3.3-4.3-6.6-8.6-9.7-13.1-2.7-3.8-5-7.9-7.8-11.7-4.3-5.9-8.3-12-9.5-19.4-.2-1.2.4-2.5.6-3.8.9.9 2.2 1.6 2.5 2.7 3 8.6 8.3 15.8 13.7 23 3.1 4.2 4.8 9.4 7.3 14.2.7 1.3 1.8 2.2 2.6 3.5.7 1.2 1.3 2.4 1.9 3.7-.6.3-1.1.6-1.6.9zM420.9 395.6c-8.9 4-16.9-.9-24.5-4.2-13.9-6-28.7-20.5-28.5-26.9 14.6 16 30.1 29.8 53 31.1zM321.3 237.1l-6.6-1.5c.5-1.2.9-2.4 1.4-3.7 2 1 4 1.9 6 2.9-.3.8-.6 1.6-.8 2.3zM131.9 350c4.8 5.5 8.5 11.3 13.6 15.3 5 3.9 11.5 5.9 17.2 9.2-9.8 1.1-17.4-4-23.3-10.9-3.1-3.7-9.3-6.6-7.5-13.6zM138.4 336.5c1.7 12.8 10.7 19.2 21.8 24.5-7.3 1.3-17.6-6.1-22-14.8-2.9-5.8-3-6.6.2-9.7z"/>
  <text transform="translate(37.643 45.928)"><tspan x="0" y="0" font-family="Peanuts" font-size="32" letter-spacing="3">AN&apos; I GOT A SLED AN&apos; A DOLL!</tspan><tspan x="0" y="38.4" font-family="Peanuts" font-size="32" letter-spacing="3">BOY! PUZZLE! AND... cRAYONS!.</tspan><tspan x="0" y="76.8" font-family="Peanuts" font-size="32" letter-spacing="3">THAT... AN&apos; LOTS OF... OH, AND</tspan><tspan x="0" y="115.2" font-family="Peanuts" font-size="32" letter-spacing="3">WITH.. SKATES.. AN&apos; CANDY..</tspan></text>
</svg>
