<svg xmlns="http://www.w3.org/2000/svg" viewBox="0 0 595.3 469.4" xml:space="preserve">
  <path fill="#fff" d="M0 0h595.3v469.4H0z"/>
  <path d="M0 469.4V0h595.3v469.4H0zm589.5-5.3c-.3-7.2-.8-12.6-.8-18 .1-7.9.6-15.8.8-23.7.2-14.3.3-28.7.4-43 0-15.6-.2-31.2 0-46.8.1-8.9.8-17.9 1-26.8.2-10.7.1-21.4-.1-32.1-.2-11.3-.8-22.7-.7-34 .1-16.4.7-32.9.9-49.3.2-29.5.3-58.9.4-88.4 0-19.2-.1-38.3 0-57.5.1-11.1.4-22.1.8-33.2.2-4.2-2.1-5.7-5.5-5.8-13.4-.4-26.8-.7-40.3-.7-14.3 0-28.6.6-42.8.7-12 .1-24-.3-36-.3-25.3 0-50.6.3-75.9.2-19-.1-38-1-57-1.2-13.2-.2-26.4.1-39.6.1-40.4.1-80.8.3-121.2.3-8.2 0-16.4-1.1-24.7-1.3-4.8-.1-9.7 1-14.5.9-10.4-.1-20.8-.8-31.2-.9-28.8-.1-57.6 0-86.4 0C11.9 3.3 7 3.4 6 10c-.2 1.6-.4 3.3-.4 4.9.3 5.8 1 11.6 1 17.3 0 7.7-.8 15.4-.8 23-.3 20.7-.3 41.3-.4 61.8-.2 33-.3 66-.5 99-.1 23.4-.3 46.9-.5 70.3-.2 25.8-.6 51.6-.7 77.4-.1 16.7.2 33.3.1 50-.1 14.9-.3 29.8-.5 44.8 0 4.4 2 6.7 6.7 6.6 6.5-.2 13-.3 19.4-.2 39.2.3 78.4.7 117.6.9 9 .1 18-.5 27-.5 37 0 74 .1 111 .2 18.7.1 37.3.3 56 .3 16.9 0 33.8-.4 50.7-.2 14.6.2 29.3 1.1 43.9 1.3 11.3.1 22.5-.4 33.8-.5 23.4-.2 46.8-.2 70.2-.3 13.1 0 26.3.1 39.4-.1 3.5-.1 7-1.3 10.5-1.9z" fill="#fff"/>
  <path d="M589.5 464.1c-3.5.7-7 1.9-10.6 1.9-13.1.2-26.2.1-39.4.1-23.4.1-46.8.1-70.2.3-11.3.1-22.5.7-33.8.5-14.6-.2-29.3-1.1-43.9-1.3-16.9-.2-33.8.2-50.7.2-18.7 0-37.3-.3-56-.3-37-.1-74-.2-111-.2-9 0-18 .5-27 .5-39.2-.2-78.4-.6-117.6-.9-6.5 0-13 0-19.4.2-4.6.1-6.7-2.2-6.7-6.6.1-14.9.4-29.8.5-44.8.1-16.7-.2-33.3-.1-50 .1-25.8.5-51.6.7-77.4.2-23.4.4-46.9.5-70.3.2-33 .3-66 .5-99 .1-20.6.1-41.1.3-61.7.1-7.7.8-15.4.8-23 0-5.8-.7-11.6-1-17.3-.1-1.6.1-3.3.4-4.9 1-6.6 5.9-6.8 11.1-6.7 28.8 0 57.6-.1 86.4 0 10.4 0 20.8.8 31.2.9 4.8.1 9.7-1 14.5-.9 8.2.2 16.4 1.3 24.7 1.3 40.4 0 80.8-.1 121.2-.3 13.2 0 26.4-.3 39.6-.1 19 .3 38 1.1 57 1.2 25.3.2 50.6-.2 75.9-.2 12 0 24 .4 36 .3 14.3-.1 28.6-.6 42.8-.7 13.4 0 26.8.3 40.3.7 3.4.1 5.7 1.6 5.5 5.8-.4 11.1-.8 22.1-.8 33.2-.1 19.2.1 38.3 0 57.5-.1 29.5-.1 58.9-.4 88.4-.1 16.4-.8 32.9-.9 49.3-.1 11.3.6 22.7.7 34 .2 10.7.3 21.4.1 32.1-.1 8.9-.9 17.9-1 26.8-.1 15.6.1 31.2 0 46.8 0 14.3-.2 28.7-.4 43-.1 7.9-.7 15.8-.8 23.7.2 5.3.7 10.7 1 17.9zm-58.8-264.9c0 1.1 0 2.3.1 3.4-8.7 1.8-17.4 3.8-26.1 5.3-8.8 1.4-17.7 2.3-26.5 3.3-9.8 1.2-19.6 2.7-29.4 3.3-5.6.4-11.2 1.9-17.1-1.5-3.2-1.8-8.3-.5-12.5-.2-1.1.1-2.3 1.6-3.1 2.7-4.1 5.9-7.3 12.7-12.4 17.6-10.1 9.8-23 14.4-36.5 17.6-4.5 1.1-9.1 2.2-13.6 3.3-.2-.6-.4-1.1-.7-1.7 1.5-.9 2.9-2 4.5-2.6 13.6-5.7 26.6-12.3 32.5-27 1.7-4.2 3.1-9.1 2.6-13.4-.2-1.8-5.7-2.9-8.8-4.4-6.2-2.9-12.6-5.6-18.7-8.8-7.3-3.8-15.6-6.1-22.4-11.3-3.9-2.9-7.9-5.7-12-8.2-12.5-7.5-22-18.2-29-30.7-5.4-9.6-9.8-20.1-7.3-31.8 2.4-11.6 2.9-23.9 7.5-34.5 10.3-23.8 24.7-45.4 42.7-64.3 1-1.1 1.9-2.4 3.8-4.6H276v35.9c0 6.9-.9 7.7-7.6 8.1-3.5.2-6.9.6-10.5.4-22.5-1-45.1-.9-67.7-.7-26.9.2-53.7 1-80.6 1.4-17.5.2-35 .2-52.5.2H11.8v251.3c9.5 1.7 18.7 3.3 27.9 4.9 1.4.2 2.9 0 4.4 0 6.4 0 12.9-.1 19.3.1.9 0 1.8 1.3 3.6 2.6-2.6.2-4 .4-5.4.5-5.8.4-11.5.9-17.3 1-2.4 0-4.8-1.1-7.3-1.5-8.4-1.3-16.8-2.5-26.1-3.8v71.5c7.5 1.6 15.5-2 22.5 1.8v2.2c-7.1.5-14.2 1.1-23 1.7-.6 22.5-.4 45.9.5 68.5 16 0 30.6-.2 45.2.1 13.4.3 26.8 1.6 40.2 1.7 26.6.2 53.1-.3 79.7-.3 16.5 0 33 .5 49.5.8 9.2.2 18.4.6 27.5.6 10.9 0 21.8-.7 32.7-.7 19.3.1 38.5.7 57.8 1 7.7.1 15.3-.2 23 0 1.3 0 2.6 1.2 3.3 1.6 2-.6 4-1.7 6-1.7 22.5 0 45 .1 67.5.2 11.3 0 22.7.1 34 0 19.9-.1 39.9-.1 59.8-.3 14.1-.2 28.3-1 42.4-.8 3.6.1 3.7-.4 3.7-3.4 0-15 .2-30.1.3-45.1.1-7.9 0-15.7 0-22.9h-32.7c-6.7 0-13.4.4-20 .3-10.6-.2-21.3-.9-31.9-1.2-11.3-.2-22.6-.2-33.9-.2-16 0-32-.2-48 0-10 .1-20.1.6-30.1.9-9.5.2-19 .3-28.5.4-5.7.1-11.4.1-17.1.3-4.9.1-9.9.6-14.8.5-5.7-.1-11.4-1.3-17.1-1.1-13.4.5-26.9 1.9-40.3 2.3-8.4.3-16.9-.6-25.3-.8-6.9-.2-13.8 0-20.7 0-.1-.8-.3-1.6-.4-2.4 3.3-.7 6.6-1.8 10-2 23.6-.9 47.2 1.5 70.7-1.2 8.2-1 16.7.5 25 .4 16.2-.3 32.5-1.1 48.7-1.4 20.8-.3 41.7-.4 62.5-.2 13.5.1 27 1.2 40.5 1.5 5.2.1 10.5-1.2 15.7-1.1 15.3.1 30.5.6 45.8.8 11.2.1 22.4-.1 33.7 0 2.6 0 5.2.4 8.5.6v-69.6c-8.2 0-15.9.2-23.7-.1-4.8-.1-9.5-.7-14.3-1.3-3.9-.5-7.8-1.7-11.7-1.7-14.5.2-29.1.6-43.6 1.2-8.2.4-16.7.2-24.5 2.4-12.9 3.6-25.7 1.2-38.5 1.9-6.1.3-12.3.5-18.3 1.4-5.5.8-9.1-1.2-10.3-7 2.2.8 4.2 1.6 7 2.6-.9-2-1.5-3.1-2.3-4.9 2.2.3 3.7.6 4.8.8 1.3-2.3 2.6-4.4 4.7-7.9.5 3.4.7 5 1.2 8 1.4-2.4 2-3.7 2.7-4.8l2.4-3.6c.9 1.1 1.9 2.3 2.8 3.4 1.4-1.5 2.9-3.2 4.5-4.9l1.2 1.2c-1.1 2.1-2.2 4.2-3.2 6.2.4.3.7.5 1.1.8 2.9-2.8 5.8-5.5 9.5-9v6.4c5.6-2.9 8.1 2.2 11.2 4.4 3.2 2.3 5.9 4.3 9.9 2.4-.6-1.3-1-2.2-1.5-3.2.9-.8 1.9-1.7 2.8-2.5.6 1.7.8 3.7 1.8 5.1.6.7 2.6.4 4.8.6-2.2-2.6-3.5-4.2-4.3-5.1 3.5-1 6.3-1.9 8.5-2.5 1.6-3.1 2.9-5.6 4.3-8.4 1.7 1.5 2.7 2.3 3.7 3.2 1.5-1.6 2.8-3 4-4.3l1.2.6c-.7 2.2-1.4 4.3-2 6.5.6.5 1.3 1.1 1.9 1.6 1.5-2.9 3.1-5.8 4.6-8.7.5.5 1.1 1 1.6 1.5.2 1.5.5 3.1.8 5 2.2-1.2 3.9-2.1 5.9-3.2.9 1.6 1.6 2.9 2.2 4.1 2.2-1.3 4.1-2.3 4.7-2.7 2.3 1.2 3.6 2 5 2.6 3.7 1.5 7.5 2.9 11.3 4.4.9.4 1.9 1 2.8 1 18.5.7 36.9 1.4 55.4 2.1 2.7.1 5.3.3 8.5.5V188.9c-5.2 1.5-9.7 2.8-14.2 4-5.8 1.6-11.6 3.1-17.4 4.6l-4.5-1.2c1-1.2 1.7-3 2.9-3.4 9.9-3.4 20-6.4 29.9-9.9 1.5-.5 3.2-2.9 3.2-4.4.6-22.9 1-45.8 1.2-68.7.2-21.7.1-43.4 0-65.1 0-3.5.7-7.5-.7-10.5-3.3-7.1-7.5-13.7-11.6-20.4-.8-1.3-2.9-2.3-4.4-2.5-4.1-.3-8.2-.1-12.3-.1-34.6.2-69.2.6-103.7.7-19.1 0-38.2-.4-57.3-.7-11.8-.2-23.7-.9-35.5-.7-3.2.1-7 .2-9.6 4.3-7.1 11-15 21.6-22.8 32.2-11.3 15.5-21.4 31.6-25 50.7-1.6 8.6-3.5 17.9-2.1 26.3 1.5 8.8 5.9 17.4 10.6 25.2 8.9 14.9 23.3 24 37.5 33.2 6.9 4.5 15.9 5.5 21.1 13.2 1.6 2.4 6.7 4 9.9 3.7 7.3-.8 12.9 2.5 18.6 5.8.8.5 1.3 2.1 1.4 3.3 1 8.8-1.8 16.3-7.8 22.6-4 4.2-8.4 8-12.3 11.7 3.3-.2 3.1-.5 12.9-6.4 9.9-5.9 15.2-14.8 18.2-25.4 1-3.7 3-5.2 7-4.2 3.9 1 7.8 2 11.8 2 7.7.1 15.4 0 23.1-.7 9.5-.8 19-2.2 28.5-3.4 5.7-.8 11.3-1.9 17-2.7 5.8-.8 11.6-2.1 17.4-2 5.1-.4 10.1-5.4 15.3-.8zm53.1-178.7c2.2-9.1 1.7-10-4.8-8.7 1.7 3.1 3.3 5.9 4.8 8.7z"/>
  <path d="M552.6 197c5.8-1.5 11.6-3 17.4-4.6 4.5-1.2 9-2.5 14.2-4V310c-3.2-.2-5.8-.4-8.5-.5-18.5-.7-36.9-1.4-55.4-2.1-1 0-1.9-.6-2.8-1-3.8-1.5-7.6-2.9-11.3-4.4-1.4-.6-2.7-1.4-5-2.6-.6.4-2.4 1.4-4.7 2.7-.6-1.2-1.3-2.5-2.2-4.1-2 1.1-3.8 2-5.9 3.2-.3-1.9-.6-3.4-.8-5-.5-.5-1.1-1-1.6-1.5-1.5 2.9-3.1 5.8-4.6 8.7-.6-.5-1.3-1.1-1.9-1.6.7-2.2 1.4-4.3 2-6.5l-1.2-.6c-1.2 1.3-2.5 2.6-4 4.3-1-.8-2-1.7-3.7-3.2-1.4 2.8-2.7 5.4-4.3 8.4-2.2.6-5 1.5-8.5 2.5.8.9 2.1 2.5 4.3 5.1-2.2-.2-4.2.1-4.8-.6-1.1-1.4-1.3-3.4-1.8-5.1-.9.8-1.9 1.7-2.8 2.5.5 1 .9 1.9 1.5 3.2-4.1 1.9-6.7-.1-9.9-2.4-3.1-2.3-5.6-7.3-11.2-4.4v-6.4c-3.7 3.5-6.6 6.3-9.5 9-.4-.3-.7-.5-1.1-.8 1.1-2.1 2.2-4.2 3.2-6.2l-1.2-1.2c-1.6 1.7-3.2 3.4-4.5 4.9-.9-1.1-1.8-2.2-2.8-3.4l-2.4 3.6c-.7 1.2-1.4 2.4-2.7 4.8-.4-3-.7-4.6-1.2-8-2.1 3.5-3.3 5.6-4.7 7.9-1.2-.2-2.7-.4-4.8-.8.8 1.7 1.4 2.9 2.3 4.9-2.8-1-4.8-1.8-7-2.6 1.2 5.8 4.8 7.8 10.3 7 6-.9 12.2-1.1 18.3-1.4 12.8-.6 25.7 1.7 38.5-1.9 7.8-2.2 16.3-2 24.5-2.4 14.5-.7 29.1-1.1 43.6-1.2 3.9 0 7.8 1.2 11.7 1.7 4.7.6 9.5 1.1 14.3 1.3 7.7.2 15.5.1 23.7.1v69.6c-3.3-.2-5.9-.6-8.5-.6-11.2 0-22.4.2-33.7 0-15.3-.2-30.5-.7-45.8-.8-5.2 0-10.5 1.2-15.7 1.1-13.5-.3-27-1.3-40.5-1.5-20.8-.2-41.7-.1-62.5.2-16.2.2-32.5 1.1-48.7 1.4-8.3.1-16.8-1.4-25-.4-23.6 2.8-47.2.4-70.7 1.2-3.3.1-6.6 1.3-10 2 .1.8.3 1.6.4 2.4 6.9 0 13.8-.1 20.7 0 8.4.2 16.9 1.1 25.3.8 13.5-.4 26.9-1.8 40.3-2.3 5.7-.2 11.4 1 17.1 1.1 4.9.1 9.9-.4 14.8-.5l17.1-.3c9.5-.1 19-.2 28.5-.4 10-.2 20.1-.8 30.1-.9 16-.1 32 0 48 0 11.3 0 22.6-.1 33.9.2 10.6.2 21.3.9 31.9 1.2 6.7.1 13.4-.3 20-.3 10.8-.1 21.6 0 32.7 0V410c-.1 15-.4 30.1-.3 45.1 0 3-.1 3.4-3.7 3.4-14.1-.2-28.3.7-42.4.8-19.9.2-39.9.2-59.8.3h-34c-22.5-.1-45-.2-67.5-.2-2 0-4 1.1-6 1.7-.8-.4-2-1.6-3.3-1.6-7.7-.1-15.3.1-23 0-19.3-.3-38.5-.8-57.8-1-10.9-.1-21.8.6-32.7.7-9.2 0-18.3-.4-27.5-.6-16.5-.3-33-.8-49.5-.8-26.6 0-53.1.5-79.7.3-13.4-.1-26.8-1.4-40.2-1.7-14.6-.3-29.2-.1-45.2-.1-.9-22.5-1.1-45.9-.5-68.5 8.8-.7 15.9-1.2 23-1.7v-2.2c-7-3.8-15-.2-22.5-1.8v-71.5c9.3 1.4 17.7 2.5 26.1 3.8 2.5.4 4.9 1.5 7.3 1.5 5.8-.1 11.5-.6 17.3-1 1.4-.1 2.8-.2 5.4-.5-1.8-1.4-2.7-2.6-3.6-2.6-6.4-.2-12.9-.1-19.3-.1-1.5 0-3 .3-4.4 0-9.2-1.5-18.3-3.2-27.9-4.9V55.5h45.3c17.5 0 35 0 52.5-.2 26.9-.4 53.7-1.1 80.6-1.4 22.6-.2 45.1-.2 67.7.7 3.6.2 7-.2 10.5-.4 6.8-.5 7.6-1.3 7.6-8.1V10.2h72.3c-1.8 2.3-2.7 3.5-3.8 4.6-18.1 18.9-32.4 40.5-42.7 64.3-4.6 10.6-5.1 23-7.5 34.5-2.5 11.7 2 22.2 7.3 31.8 7 12.5 16.4 23.1 29 30.7 4.2 2.5 8.2 5.2 12 8.2 6.8 5.2 15.1 7.4 22.4 11.3 6.1 3.2 12.5 5.9 18.7 8.8 3.1 1.5 8.6 2.6 8.8 4.4.5 4.3-.9 9.2-2.6 13.4-5.9 14.8-18.9 21.3-32.5 27-1.6.7-3 1.7-4.5 2.6.2.6.4 1.1.7 1.7 4.5-1.1 9.1-2.2 13.6-3.3 13.5-3.2 26.5-7.9 36.5-17.6 5-4.9 8.3-11.7 12.4-17.6.8-1.1 2-2.6 3.1-2.7 4.2-.3 9.3-1.7 12.5.2 5.8 3.4 11.5 1.9 17.1 1.5 9.8-.6 19.6-2.1 29.4-3.3 8.8-1.1 17.7-1.9 26.5-3.3s17.4-3.5 26.1-5.3c7.5-1.3 14.7-3.2 22-5.1zM93.1 146.7c2.7 2.2 3.5.1 3.1-3.1-.7-7.2 3-12.4 7.6-17.2 2.2-2.3 4.8-4 7-6.2 11.2-11.1 25.3-15.3 40.5-16.4 10.8-.8 21.2 1.4 31.5 4.5 12.9 3.8 24.2 9.8 33.9 19.1.9.9 4.2 1.2 4.7.5 4-5.1 7.7-5.3 11.8-.2.8.9 2 1.9 3.1 1.9 1 0 2-1.2 3-1.8-2.2-3.2-3.8-7.1-6.8-9.2-1.6-1.2-5.4.4-8.1 1.1-1.3.4-2.4 1.7-3.5 2.5.2-.5.3-1 .5-1.4-11-5.6-21.9-11.5-33.1-16.6-15.3-7-31.6-7.3-47.6-4.4-16.4 3-30.3 11.6-41.3 24.4-1.3 1.5-2.2 3.3-3.2 5-.4-.1-.7-.3-1.1-.4V119.4h-2c-.5 4.1-1.1 8.3-1.6 12.7-1 .4-2.5 1.1-4 1.7.7 2.4 1.2 4.2 1.7 6.2-2.9 0-7.4-.5-5.1 3.5 3.5 6.1 1.4 11.3.5 17.2-1.3 8.8-2.7 18.1-1.4 26.7 2.9 19.3 14.3 34.2 29.5 45.7 7.2 5.5 15.9 9 23.8 13.7 1.4.8 2.2 2.7 3.3 4.1-.4.3-.9.7-1.3 1-4.3-1.9-8.5-3.9-12.8-5.6-11.4-4.4-22.9-6.4-33.3 2-7.8 6.3-15 13.3-22.7 20.2l-2-1.6c-5.2-4.8-5.1-4.8-10.1.6-.8.9-2.1 1.5-3.2 1.9-3.4 1.3-4.9 3.3-3.6 7 .3.8.4 1.9.1 2.5-2.6 4.1-2.1 7.6 1.2 11.2 2.6 2.9 4.2 6.8 6.8 9.7 1.2 1.4 3.8 2 5.8 2.2 10.1 1.1 18.8-3.5 27.8-6.8 5-1.8 9.5-4.8 14.2-7.2-4.7 9.7-10.7 17.8-20.4 23-7.4 3.9-14.3 8.9-18.4 16.5 2.7 3.4 5.3 6.6 8 10.2-9.8 3.1-15.8 10.4-21 17.9-4.8 6.9-8.5 14.8-11.5 22.7-2.5 6.6-5.6 13.5-2.2 21.2 2.3 5 6.7 6.2 11 6.5 2.1.2 5.2-2.7 6.7-4.9 2.4-3.5 3.9-7.6 6-12 1.1 1.4 1.9 2.3 2.6 3.3 10.6 14.7 20 20.3 36.8 12.2 9.2-4.4 17.9-9.9 27.2-15.2 1.8 7.7.5 17.7 10.7 22l-1.2 3c-3 6.6-.9 10.8 6.5 11 5.1.2 10.6-.1 15.3-1.9 10.1-3.9 20.2-8.2 29.6-13.5 10.1-5.7 19.2-13.1 23.7-24.5 1.8-4.5 2.4-9.7-1.6-13.1-2-1.7-5.9-1.9-8.9-1.6-2 .2-3.8 2.3-6 3.7-.7-1.8-1.7-3.2-1.9-4.7-1.2-9.6-4.1-18.3-11.7-24.9-.7-.6-1.7-1.8-1.5-2.4 2.6-7.1 5.4-14.2 8.6-22.4 1.6 3.7 2 7.3 3.8 8.2 4.5 2.3 9.4 6.5 14.7.9.6-.6 2.1-.8 3.1-.6 3.7 1 7.3 2.2 10.5-1.3 2.6-2.8 5.8-5.2 7.7-8.4 1.3-2.2 1.8-5.7 1.2-8.3-2.8-13.3-12.8-20-24.7-23.5-6.7-1.9-8.8-7.6-10.3-11.9-2.6-7.1-1.3-15.5-8-20.8 7.3-3 14.4-5.7 21.2-8.8 2-.9 5.2-4 4.8-4.8-1-2.4-3.1-4.9-5.5-5.9-7.2-3-11.4-8.6-15.3-15.2 2-.7 3.5-1.4 5.1-1.7 13.1-2.3 26.2-4.6 39.2-6.9 6.8-1.2 8.6-4.4 6.5-10.9-.3-.9-.3-2-.4-3 6.5.3 11.6-3.4 11.7-8.9 0-2.4-.9-4.9-2-7.1-2.5-5-7.6-3.8-11.7-4.3-.5-3-1.1-5.6-1.5-8.3-1.7-12.1-7.1-22.7-13.8-32.7-1.4-2.1-4.3-3.2-6.6-4.8-.4.5-.9 1-1.3 1.5 3.8 6.9 7.6 13.8 12 21.7-7.5-1.5-10.5 0-13 5.7 1.2-.6 1.9-1 2.6-1.3 3.2-1.7 11.3-.1 12.2 2.6 1.7 5.1 3.6 10.1 4.6 15.3.8 3.9 2.6 5.4 6.2 5 4.2-.5 6.4 1.2 7.1 5.4.8 4.4-1.9 6.4-5.2 6.5-4.7 0-4.6 3.2-5.2 6-.4 2.3-.4 4.7-.7 7.5-12.4 2-24.4 3.9-36.4 6-3.9.7-7.9 1.5-11.3 3.3-1.6.8-3.3 4.5-2.7 5.8 1.6 3.5 4.2 6.7 7 9.4 3.7 3.6 8 6.5 12.5 10.2-10.5 3.8-20.9 7.6-31.4 11.4-5.2-1.1-11-2.5-16.9-3.7-2-.4-4.1-.6-6.2-.6-6.3 0-10.6-4.5-15.9-7-14.1-6.6-27.3-14-37.4-26.6-14.3-17.7-17-37.2-12.1-58.6.3-3.3 1-6.6 1.8-9.9zm176.2 294.2c0-.5-.1-1-.1-1.5-9.3-.5-18.5-1.2-27.8-1.5-7.5-.3-14.9-.1-22.4-.2-.9 0-1.7-1-2.6-1.3-1.2-.4-2.5-.9-3.7-.9-4.6-.2-10 1.3-13.5-.7-5-2.7-9.9-1.2-13.8-.3-10.2 2.2-19.8.3-29.7-.3-3.7-.2-7.4-.2-11.1 0-5.3.3-11 2.2-15.8.8-3.6-1-6.5-1.6-10.1-.9-3.3.6-6.8.6-10.2.3-1.9-.1-3.7-2-5.5-2-5 .1-9.9 1.2-14.9 1.1-9.1-.1-18.3-1.3-27.4-1-12.4.4-24.7 1.6-37.1 2.6-1.7.1-3.3 1-5.3 1.6 3.3 2.6 5.9 4.6 8.6 6.7.3.2.7.3 1 .2 4.9-1.8 9.4-.2 14.4.5 6.6.9 13.6-.8 20.2 2 .3.1.7.3 1 .3 5.1-.7 10.2-1.7 15.4-2.1 2.7-.2 5.4.9 8.1 1 8.1.2 16.2.1 24.2.1 8.5 0 16.9.1 25.4-.1 6-.1 12-1 18-1.1 10.3-.1 20.7.5 31 .3 5.4-.1 11.2-3.1 16-1.8 5.3 1.5 10 .2 14.9.1 14.1-.2 28.3 0 42.4-.3 3.5.1 6.9-.9 10.4-1.6zm-3.8-76.8c5.1-1.2 9-3.2 12.7-2.9 18.2 1.7 36.4 4.1 54.5 6.3.2 0 .3.2.5.2 9.1 2.3 17.8-1.3 26.7-1.4.3 0 .6-.8 1.2-1.6-6 0-11.6.4-17.1-.1-10.2-.9-20.3-2.2-30.5-3.6-8.1-1.1-16.2-2.9-24.3-3.9-4.9-.6-10.8-1.8-14.7.2-7.8 3.9-15.7 2.2-22.7 1-10.9-1.9-21.5-.8-32.2-1.3-1.7-.1-3.5 1.5-5.2 2.3.2.6.4 1.1.7 1.7 17.8-3.3 35-.1 50.4 3.1zm-20-44.6v1c2.7.4 5.4 1 8 1 11.5.1 23-.1 34.5 0 2.1 0 4.2.8 6.3 1 7.4.5 14.8 1.5 22.2 1 11-.7 21.9-3 32.9-3.6 14.5-.7 29-.4 43.5-.6 2.1 0 4.2-.5 6.3-.8-1.9-.7-3.9-2-5.8-2.1-11.5-.4-22.9-1.2-34.4-.7-12.9.6-25.6 3.2-38.5 3.5-23.1.6-46.2.1-69.4.1-1.8.2-3.7.2-5.6.2zm300.7 13.9c-.2-.3-.3-.7-.5-1-7.7-.6-15.5-.8-23.2-1.8-12.2-1.6-24.1-.3-36 2-7.2 1.4-14.3 3.1-21.5 3.9-14.5 1.5-29.1 2.5-43.7 3.8-2.2.2-4.3.9-6.5 1.4 5.9.8 11.6.7 17.2.3 9.5-.7 19-1.5 28.4-2.4 6.1-.6 12.1-1.4 18.1-2.3 3.7-.6 7.3-1.5 11-2.1 2.1-.4 4.3-.6 6.4-.7 6.3-.3 12.6-.8 18.9-.7 9.1.1 18.2.8 27.2 1.1 1.5-.1 2.8-1 4.2-1.5zm34.7 26.9c-3.2-5.9-23.2-8.4-29.1-3.7-4.8-2.9-9.8-2.7-14.9-1-1.6.5-3.4.8-5 .6-8.3-1.1-16.5-2.5-24.8-3.6-1-.1-2.2.7-3.3 1 3.4 1.8 6.8 2.4 10.2 2.9 8.4 1.3 17.1 1.8 25.2 4.1 4.5 1.3 6.2 2.1 5-3.6 7.1 1.8 13.6 3.5 20 5.1.8-.9 2-3.1 3.2-3.1 4.4.1 8.9.8 13.5 1.3zm-238-26.6c0-.6-.1-1.2-.1-1.8-1.4 0-2.8-.1-4.2 0-6.7.5-13.6 2.4-20 1.2-11.1-2.1-21.5 1-31.9 2.7-10 1.6-19.3-.9-28.9-1.1-6.7-.1-13.3-.6-20-.7-1.2 0-2.4 1.3-3.7 1.9 1.7 1 2.9 1.1 4.2 1.1 9.4.4 18.8.6 28.2 1.1 4.7.2 9.5 1.5 14.1 1.1 10.6-.8 21-2.6 31.6-3.6 10.3-.9 20.5-1.3 30.7-1.9zM168.8 178.2c-1.8-4.7-5-6.7-9.7-6.7-6.9-.1-13.2 4.6-14.5 11.1-1.1 5.1 4.8 16.9 9.4 17.1 3 .1 7.7 2.3 9.8-2.6-12.5-6.4-15.2-10-11.9-16.8.9-1.8 3.3-4.1 5-4.2 3.6-.1 7.2 1.2 11.9 2.1zm196 181.4c0 .5-.1 1-.1 1.5 7.7 1.3 15.4 2.6 24 4.1-.9-1.5-1.4-2.1-2.6-4.2 4.3 1.4 7.4 2.4 10.5 3.5 2.2-7.9 8.7-.7 12.9-4.2-5.8-2.8-11.3-4-17.2-3.1-2.6.4-5.3.6-8 .9-6.5.4-13 1-19.5 1.5zM232.5 171.1c-2.7 2.8-3.8 14.5-1.7 18.8.5.9 1.2 2.5 1.8 2.5 1.6.1 4.1 0 4.7-1 2.1-4-1.3-17.3-4.8-20.3zm141.7 162.2c.1.3.2.6.4.9 14.7-.7 29.3-1.4 44-2.1 0-.7 0-1.3-.1-2-4.3.2-8.6.5-12.8.6-9.1.3-18.1.5-27.2 1-1.5 0-2.9 1-4.3 1.6zm-358.6-3.4c-.3.5-.6 1.1-1 1.6.8.7 1.6 1.7 2.6 2 6.4 1.5 12.8 2.9 19.3 4.1 1.7.3 3.5-.2 5.2-.6.3-.1.3-2.9-.1-3.1-1.9-.8-4-1.2-6-1.4-1.4-.1-2.9 1.1-4.2.8-5.3-1-10.5-2.3-15.8-3.4zm527.4-3.8c2.1 5.9 6.6 3.1 9.4 3.8 3.7 1 7.7 1.1 12.5 1.7 0-.2.5-1.4.6-2.7 0-.3-1.2-1-2-1-6.4-.6-12.8-1.1-20.5-1.8zm-64.8 29.3c1.8 4.5 18.6 6.4 24.5 2.9-8.5-1-16.4-1.9-24.5-2.9zm-52.3 8.8c.3-.9.6-1.7.9-2.6-4.1-1.2-8.3-2.5-12.4-3.7-.2.7-.4 1.3-.6 2 4 1.4 8.1 2.8 12.1 4.3z" fill="#fff"/>
  <path d="M530.7 199.2c.4-.9.7-1.8 1.1-2.8.1.5.2 1.1.3 1.6 3.2 0 6.4.4 9.6 0 2.2-.2 4.3-1.4 6.5-2.2l4.5 1.2c-7.3 1.9-14.6 3.7-21.9 5.6 0-1.1-.1-2.3-.1-3.4z"/>
  <path d="M583.8 20.5c-1.6-2.8-3.1-5.6-4.8-8.7 6.5-1.3 7.1-.4 4.8 8.7z" fill="#fff"/>
  <path d="M93.1 146.7c-.7 3.4-1.5 6.6-2.2 9.9-4.9 21.4-2.2 40.9 12.1 58.6 10.1 12.6 23.4 20 37.4 26.6 5.2 2.5 9.5 7 15.9 7 2.1 0 4.2.2 6.2.6 5.9 1.2 11.8 2.6 16.9 3.7 10.5-3.8 20.9-7.6 31.4-11.4-4.5-3.6-8.8-6.6-12.5-10.2-2.8-2.7-5.3-5.9-7-9.4-.6-1.3 1.1-5.1 2.7-5.8 3.5-1.7 7.4-2.6 11.3-3.3 12-2.1 24.1-4 36.4-6 .2-2.8.2-5.2.7-7.5.6-2.9.5-6 5.2-6 3.3 0 6-2 5.2-6.5-.8-4.2-2.9-5.9-7.1-5.4-3.6.4-5.5-1-6.2-5-1-5.2-2.9-10.3-4.6-15.3-.9-2.7-9-4.3-12.2-2.6-.7.4-1.4.7-2.6 1.3 2.4-5.8 5.4-7.3 13-5.7-4.3-7.8-8.1-14.7-12-21.7.4-.5.9-1 1.3-1.5 2.2 1.6 5.1 2.7 6.6 4.8 6.7 10 12.1 20.6 13.8 32.7.4 2.7.9 5.3 1.5 8.3 4.1.5 9.3-.7 11.7 4.3 1.1 2.2 2 4.7 2 7.1-.1 5.5-5.1 9.2-11.7 8.9.1 1.1.1 2.1.4 3 2.1 6.6.2 9.8-6.5 10.9-13.1 2.3-26.2 4.5-39.2 6.9-1.6.3-3.1 1-5.1 1.7 3.9 6.6 8.1 12.2 15.3 15.2 2.3 1 4.5 3.6 5.5 5.9.3.8-2.8 3.8-4.8 4.8-6.8 3.2-13.9 5.8-21.2 8.8 6.8 5.2 5.5 13.7 8 20.8 1.6 4.3 3.6 10 10.3 11.9 11.9 3.4 21.9 10.1 24.7 23.5.6 2.6.1 6.1-1.2 8.3-1.9 3.2-5.2 5.6-7.7 8.4-3.2 3.5-6.8 2.3-10.5 1.3-.9-.3-2.5-.1-3.1.6-5.3 5.5-10.2 1.4-14.7-.9-1.8-.9-2.2-4.4-3.8-8.2-3.2 8.2-6 15.3-8.6 22.4-.2.5.8 1.8 1.5 2.4 7.6 6.6 10.5 15.3 11.7 24.9.2 1.5 1.2 2.9 1.9 4.7 2.2-1.4 4-3.6 6-3.7 3-.3 6.8-.1 8.9 1.6 4.1 3.4 3.4 8.6 1.6 13.1-4.5 11.4-13.5 18.8-23.7 24.5-9.4 5.3-19.5 9.6-29.6 13.5-4.7 1.8-10.2 2.1-15.3 1.9-7.4-.3-9.5-4.5-6.5-11l1.2-3c-10.2-4.4-8.9-14.4-10.7-22-9.4 5.3-18 10.8-27.2 15.2-16.8 8-26.2 2.5-36.8-12.2-.7-1-1.5-1.9-2.6-3.3-2.1 4.4-3.6 8.5-6 12-1.5 2.2-4.5 5-6.7 4.9-4.3-.3-8.7-1.5-11-6.5-3.4-7.6-.3-14.5 2.2-21.2 3-7.9 6.7-15.8 11.5-22.7 5.2-7.5 11.2-14.8 21-17.9-2.8-3.5-5.3-6.7-8-10.2 4.1-7.7 11-12.6 18.4-16.5 9.6-5.1 15.7-13.2 20.4-22.9-4.7 2.4-9.3 5.4-14.2 7.2-9 3.3-17.7 8-27.8 6.8-2-.2-4.5-.8-5.8-2.2-2.6-2.9-4.2-6.7-6.8-9.7-3.2-3.7-3.8-7.1-1.2-11.2.4-.6.2-1.8-.1-2.5-1.3-3.7.2-5.7 3.6-7 1.2-.4 2.4-1 3.2-1.9 4.9-5.4 4.9-5.4 10.1-.6.9.9 1.9 1.6 2 1.6 7.7-6.9 15-13.9 22.7-20.2 10.4-8.5 21.9-6.4 33.3-2 4.3 1.7 8.5 3.7 12.8 5.6.4-.3.9-.7 1.3-1-1.1-1.4-1.9-3.3-3.3-4.1-7.9-4.6-16.5-8.2-23.8-13.7-15.3-11.5-26.7-26.3-29.5-45.7-1.3-8.7.2-17.9 1.4-26.7.9-5.9 2.9-11.1-.5-17.2-2.3-4.1 2.2-3.6 5.1-3.5-.5-2-1-3.8-1.7-6.2 1.5-.6 3-1.3 4-1.7.6-4.4 1.1-8.5 1.6-12.7h2V128.9c.4.1.7.3 1.1.4 1.1-1.7 1.9-3.5 3.2-5 11-12.8 24.9-21.4 41.3-24.4 16-2.9 32.4-2.6 47.6 4.4 11.2 5.1 22.1 11 33.1 16.6-.2.5-.3 1-.5 1.4 1.2-.9 2.2-2.2 3.5-2.5 2.7-.7 6.5-2.3 8.1-1.1 2.9 2.2 4.6 6.1 6.8 9.2-1 .6-2 1.9-3 1.8-1.1-.1-2.4-1-3.1-1.9-4.1-5-7.8-4.9-11.8.2-.5.7-3.8.4-4.7-.5-9.7-9.3-21-15.3-33.9-19.1-10.4-3.1-20.8-5.2-31.5-4.5-15.2 1.1-29.2 5.3-40.5 16.4-2.2 2.2-4.9 4-7 6.2-4.6 4.8-8.3 10-7.6 17.2.7 3-.1 5.1-2.7 3zm-9.8 172.6c-9.8 4.6-10.1 6.3-2.4 12.8.9.8 1.6 1.8 2.6 2.4 3.9 2.3 8 6.5 11.9 6.4 15.8-.3 31.6-2.4 47.5-2.8 11.9-.3 23.9 1 36.7 1.7 9.5-20.1 9.3-42.1 7.4-64.6-1.8 2.3-2.7 4.8-3.7 7.3-1.8 4.4-4.7 5.6-9.1 3.3-8-4.3-15-9.5-20.8-16.8-3.8-4.8-8.6-9-13.7-12.5-3.7-2.5-8.7-3-12.9-5-12-5.6-23.5-4.6-34.3 2.5-3.3 2.2-7.6 5.7-8 9.1-1.2 9.9 1.7 19 10.5 25.9 3.2-2.4 6.4-4.8 9.6-7.3l-.1.1c2.3-5.4 4.7-10.8 7-16.2l2.1.9c-1.1 3.4-2.1 6.7-3.6 11.5 3.3-2.8 5.4-4.7 7.8-6.8.6 1.5 1.1 2.1 1.1 2.7-.5 5.7-.1 10.8 5.9 13.9 1.2.6 1.3 3.5 1.9 5.3-1.7.1-3.4.3-5.1.1-1-.1-2.1-.7-2.9-1.3-5.5-3.7-6.2-3.8-9.8 2.2-5.9 9.8-12.8 18.4-23.8 22.9-.9.4-1.4 1.6-2.1 2.4l.3-.1zm59.6 96.3c5.7 5.1 9.5 2.6 13.5 1.3 9.5-3.2 19.3-5.5 28.5-9.4 6.3-2.7 11.6-7.8 17.6-11.2 5.7-3.2 7.7-8.3 9-14 .4-1.7-.6-5.3-1.6-5.5-2.3-.5-5.2-.1-7.3 1-1.7.9-2.8 3.2-4.1 4.9-3.3 4.3-6.5 8.7-10 12.8-1.7 2-3.9 3.9-6.2 5.2-3.5 2-7.4 3.5-11.1 5.3-6.7 3.2-13.2 6.8-21.1 6.5-2-.1-4.1 1.7-7.2 3.1zm-70.1-72.4C64.1 347.6 59.4 354 56 361c-4.2 8.6-7.6 17.8-10.2 27-.9 3.2 1.4 7.5 2.9 11 .5 1.3 2.9 2.6 4.3 2.5 1.1-.1 2.6-2.3 2.8-3.8.4-2.7-.1-5.6-.1-8.4 0-1.9.1-3.9.4-5.8.2-1.3.7-2.6 1.4-3.7 1.7-3.1 3.4-6.2 5.4-9.1 2.3-3.3 7.6-7.4 6.9-9.3-2.7-6.6 0-11.6 3-18.2zm127.8-29.6c.4.4.9.8 1.3 1.2 1.6-2 3.1-3.9 4.9-6.1 5.7 3.2-2.5 7.4 1.1 11l5.1-4.2c.5.2.9.3 1.4.5-.6 2.5-1.3 5-1.9 7.5 2.4-.6 3.9-2 5.5-3.1.7-.5 1.9-.4 2.8-.6 0 .9 0 1.7.1 2.6.1.7.3 1.5.4 2.2.7-.3 1.4-.6 2-1 7.1-4.6 6.4-15.9-1.2-20.6-3.8-2.4-7.1-2.9-11.7-1.3-6.6 2.3-9.7 4.8-9.8 11.9zM64.9 275.8c-3.8 6.1-5.6-2.7-10-1.2 2.7 4 5.2 7.6 7.7 11.2-.3.4-.7.8-1 1.2l-7.5-3.3c-.4.6-.7 1.1-1.1 1.7 2.5 1.9 5 3.9 7.6 5.7 1.2.9 2.6 1.6 3.9 2.3-1.2 1-2.4 2.1-3.8 3.3 6.3 4.7 11.8-1 17.8-1.1-5.1-4.9-7.9-10.3-9.1-17.1-.7-3.8-4.1-7.1-6.2-10.6-.6.3-1.1.7-1.7 1 .9 2.2 2 4.3 3.4 6.9zm84.2-20.9c-.3.2-.7.3-1 .5 8.5 7.7 16.7 15.7 25.5 23 4.5 3.7 7 2.4 10.3-4.2 2.4-4.9-2.4-4.9-4.6-5.9-10-4.7-20.1-9-30.2-13.4zm-68.3 10.4c-5.9 6.5-6.6 12.1-2.9 18.9 1.8 3.2 7 5.7 10.6 4.9-7.8-5.9-7.5-14.5-7.7-23.8zm114.6 29.4c2.3-1.2 4.1-2.1 6.2-3.2-.9-2.4-1.5-4.7-2.7-6.7-.6-1-2.2-1.4-3.3-2.1-.7 1.3-1.9 2.7-1.8 4 .1 2.5.9 4.9 1.6 8zM175 260.2c.3-.6.7-1.2 1-1.8-4.2-1.9-8.5-3.8-12.7-5.7-.3.5-.5 1.1-.8 1.6 4.1 2 8.3 4 12.5 5.9zm20.5 51.2c1.9-3.7 3.4-6.6 5.1-9.7-6.2.1-6.5.7-5.1 9.7zM269.3 440.9c-3.5.6-6.9 1.7-10.4 1.7-14.1.2-28.3.1-42.4.3-5 .1-9.6 1.3-14.9-.1-4.8-1.3-10.6 1.6-16 1.8-10.3.2-20.7-.4-31-.3-6 0-12 .9-18 1.1-8.5.2-16.9.1-25.4.1-8.1 0-16.2.1-24.2-.1-2.7-.1-5.5-1.2-8.1-1-5.2.4-10.3 1.4-15.4 2.1-.3 0-.7-.2-1-.3-6.6-2.8-13.6-1.1-20.2-2-4.9-.7-9.4-2.2-14.4-.5-.3.1-.8 0-1-.2-2.7-2.1-5.4-4.2-8.6-6.7 2-.6 3.6-1.4 5.3-1.6 12.3-1 24.7-2.3 37.1-2.6 9.1-.3 18.2.9 27.4 1 5 0 9.9-1.1 14.9-1.1 1.8 0 3.6 1.9 5.5 2 3.4.3 6.9.3 10.2-.3 3.6-.7 6.5-.1 10.1.9 4.8 1.4 10.5-.6 15.8-.8 3.7-.2 7.4-.2 11.1 0 9.9.7 19.6 2.5 29.7.3 3.9-.8 8.8-2.4 13.8.3 3.6 1.9 9 .5 13.5.7 1.3.1 2.5.5 3.7.9.9.3 1.8 1.3 2.6 1.3 7.5.2 14.9 0 22.4.2 9.3.3 18.5 1 27.8 1.5 0 .5.1 1 .1 1.4z"/>
  <path d="M265.5 364.1c-15.4-3.2-32.7-6.4-50.5-3.2-.2-.6-.4-1.1-.7-1.7 1.7-.8 3.5-2.4 5.2-2.3 10.7.5 21.3-.7 32.2 1.3 7 1.2 14.9 2.9 22.7-1 4-2 9.8-.7 14.7-.2 8.1 1 16.2 2.7 24.3 3.9 10.1 1.4 20.3 2.7 30.5 3.6 5.5.5 11.1.1 17.1.1-.6.8-.9 1.6-1.2 1.6-8.9.1-17.7 3.7-26.7 1.4-.2 0-.3-.2-.5-.2-18.2-2.2-36.3-4.5-54.5-6.3-3.5-.2-7.4 1.8-12.6 3zM245.5 319.5h5.7c23.1 0 46.2.5 69.4-.1 12.9-.3 25.6-2.9 38.5-3.5 11.4-.5 22.9.2 34.4.7 2 .1 3.9 1.4 5.8 2.1-2.1.3-4.2.8-6.3.8-14.5.2-29-.2-43.5.6-11 .6-21.9 2.9-32.9 3.6-7.3.5-14.8-.6-22.2-1-2.1-.1-4.2-1-6.3-1-11.5-.1-23 .1-34.5 0-2.7 0-5.4-.7-8-1-.1-.5-.1-.8-.1-1.2zM546.2 333.4c-1.3.5-2.7 1.4-4 1.4-9.1-.3-18.2-.9-27.2-1.1-6.3-.1-12.6.4-18.9.7-2.2.1-4.3.4-6.4.7-3.7.6-7.3 1.6-11 2.1-6 .9-12.1 1.7-18.1 2.3-9.5.9-18.9 1.7-28.4 2.4-5.7.4-11.3.5-17.2-.3 2.2-.5 4.3-1.2 6.5-1.4 14.6-1.3 29.2-2.3 43.7-3.8 7.2-.8 14.4-2.5 21.5-3.9 11.9-2.3 23.8-3.6 36-2 7.7 1 15.5 1.2 23.2 1.8-.1.4.1.7.3 1.1zM580.9 360.3c-4.5-.5-9-1.2-13.5-1.3-1.2 0-2.3 2.2-3.2 3.1-6.3-1.6-12.9-3.3-20-5.1 1.2 5.7-.5 4.8-5 3.6-8.1-2.3-16.8-2.8-25.2-4.1-3.4-.5-6.8-1.1-10.2-2.9 1.1-.4 2.3-1.2 3.3-1 8.3 1.1 16.5 2.5 24.8 3.6 1.6.2 3.4 0 5-.6 5.1-1.7 10.1-1.9 14.9 1 5.9-4.7 25.9-2.2 29.1 3.7zM342.9 333.7c-10.2.6-20.4 1-30.6 2-10.6 1-21 2.8-31.6 3.6-4.6.4-9.4-.9-14.1-1.1-9.4-.5-18.8-.7-28.2-1.1-1.3 0-2.5-.1-4.2-1.1 1.2-.7 2.5-2 3.7-1.9 6.7.1 13.3.6 20 .7 9.6.2 18.9 2.7 28.9 1.1 10.4-1.7 20.8-4.8 31.9-2.7 6.4 1.2 13.3-.7 20-1.2 1.4-.1 2.8 0 4.2 0v1.7zM168.8 178.2c-4.7-1-8.3-2.3-11.9-2.2-1.7 0-4.1 2.3-5 4.2-3.3 6.8-.6 10.4 11.9 16.8-2.2 5-6.8 2.7-9.8 2.6-4.5-.2-10.5-12-9.4-17.1 1.4-6.4 7.6-11.2 14.5-11.1 4.7.2 7.9 2.1 9.7 6.8zM364.8 359.6c6.5-.5 13-1.1 19.5-1.6 2.7-.2 5.3-.5 8-.9 6-.9 11.5.3 17.2 3.1-4.2 3.5-10.7-3.7-12.9 4.2-3.1-1-6.2-2.1-10.5-3.5 1.3 2 1.7 2.7 2.6 4.2-8.6-1.5-16.3-2.8-24-4.1 0-.4.1-.9.1-1.4zM232.5 171.1c3.6 3 7 16.3 4.8 20.3-.5 1-3.1 1.1-4.7 1-.6 0-1.3-1.6-1.8-2.5-2.2-4.2-1.1-16 1.7-18.8zM374.2 333.3c1.4-.6 2.9-1.5 4.3-1.6 9-.4 18.1-.6 27.2-1 4.3-.2 8.6-.4 12.8-.6 0 .7 0 1.3.1 2-14.7.7-29.3 1.4-44 2.1-.2-.3-.3-.6-.4-.9zM15.6 329.9c5.2 1.2 10.5 2.5 15.8 3.4 1.3.2 2.8-.9 4.2-.8 2 .1 4.1.6 6 1.4.4.2.4 3 .1 3.1-1.7.5-3.5.9-5.2.6-6.5-1.2-12.9-2.6-19.3-4.1-1-.2-1.7-1.3-2.6-2 .4-.5.7-1.1 1-1.6zM543 326.1c7.7.6 14.1 1.1 20.5 1.7.7.1 2 .7 2 1-.1 1.3-.6 2.5-.6 2.7-4.8-.6-8.7-.7-12.5-1.7-2.8-.6-7.3 2.2-9.4-3.7zM478.2 355.4c8.2 1 16 1.9 24.5 2.9-6 3.5-22.7 1.6-24.5-2.9zM425.9 364.2c-4.1-1.4-8.1-2.9-12.2-4.3.2-.7.4-1.3.6-2 4.1 1.2 8.3 2.5 12.4 3.7-.2.9-.5 1.7-.8 2.6z"/>
  <path d="M104.7 281.7c-3.2 2.5-6.5 4.9-9.6 7.3-8.8-6.9-11.8-16-10.6-25.8.4-3.3 4.7-6.9 8-9.1 10.8-7.1 22.4-8.1 34.3-2.5 4.2 2 9.2 2.5 12.9 5 5.1 3.5 9.9 7.7 13.7 12.5 5.7 7.3 12.8 12.5 20.8 16.8 4.4 2.3 7.2 1.1 9.1-3.3 1-2.5 2-5 3.7-7.3 1.9 22.4 2.1 44.5-7.4 64.6-12.8-.7-24.7-2-36.7-1.7-15.8.4-31.6 2.5-47.5 2.8-3.9.1-8-4.1-11.9-6.4-1-.6-1.7-1.7-2.6-2.4-7.7-6.5-7.4-8.2 2.4-12.8-.5 2.5.3 3.5 3.1 3.6 2.5.1 5 1.3 7.5 1.9 3.3.8 6.7 2.6 9.8 2.2 8.4-1 16.8-2.8 25.1-4.4 2.5-.5 5-1.3 7.5-2-7.6-.5-14.8.4-22.1 1-5.7.5-11.5 1.1-17.2.8-4.7-.3-9.2-1.9-13.8-3 .7-.8 1.2-2.1 2.1-2.4 11-4.5 17.8-13.2 23.8-22.9 3.6-6 4.3-5.9 9.8-2.2.9.6 1.9 1.2 2.9 1.3 1.7.2 3.4-.1 5.1-.1-.6-1.8-.7-4.7-1.9-5.3-6-3.1-6.4-8.2-5.9-13.9.1-.6-.5-1.3-1.1-2.7-2.4 2.1-4.6 4-7.8 6.8 1.5-4.8 2.5-8.1 3.6-11.5l-2.1-.9c-2.4 5.3-4.8 10.7-7 16-1.9-3.6-3.7-7.4-5.5-11.2-1.8 7.3.1 11 5.5 11.2zm69 44.1c-.1-.7-.3-1.3-.4-2l-64.5 6c.1.7.1 1.4.2 2 21.6-1.6 43.3-2.1 64.7-6zm-31.6-43c5.7-2.7 8.8-7.7 7.6-12.3-.8-3-2-6.2-7.6-6.9 6.2 7 4.5 13.1 0 19.2zM142.9 415.6c3.1-1.4 5.2-3.2 7.3-3.1 7.9.3 14.4-3.3 21.1-6.5 3.7-1.8 7.5-3.2 11.1-5.3 2.3-1.3 4.4-3.2 6.2-5.2 3.5-4.1 6.7-8.5 10-12.8 1.3-1.7 2.3-4.1 4.1-4.9 2.1-1.1 5-1.5 7.3-1 .9.2 1.9 3.7 1.6 5.5-1.3 5.6-3.3 10.8-9 14-6.1 3.4-11.3 8.5-17.6 11.2-9.2 3.9-19 6.2-28.5 9.4-4.1 1.3-7.9 3.8-13.6-1.3zM72.8 343.2c-3 6.5-5.7 11.6-3.2 18.2.7 1.9-4.6 6-6.9 9.3-2 2.9-3.7 6-5.4 9.1-.6 1.2-1.2 2.5-1.4 3.7-.3 1.9-.4 3.9-.4 5.8 0 2.8.5 5.6.1 8.4-.2 1.4-1.7 3.6-2.8 3.8-1.4.1-3.7-1.2-4.3-2.5-1.4-3.5-3.7-7.8-2.9-11 2.6-9.2 6-18.4 10.2-27 3.6-7 8.3-13.4 17-17.8zM200.6 313.6c.1-7.1 3.2-9.6 9.8-11.8 4.6-1.5 7.9-1 11.7 1.3 7.6 4.7 8.4 16 1.2 20.6-.6.4-1.4.7-2 1-.1-.7-.4-1.5-.4-2.2-.1-.9-.1-1.7-.1-2.6-1 .2-2.1.1-2.8.6-1.7 1.1-3.1 2.5-5.5 3.1.6-2.5 1.3-5 1.9-7.5-.5-.2-.9-.3-1.4-.5l-5.1 4.2c-3.6-3.6 4.6-7.8-1.1-11-1.7 2.2-3.3 4.1-4.9 6.1l-1.3-1.3zM64.9 275.8c-1.3-2.6-2.4-4.7-3.5-6.8.6-.3 1.1-.7 1.7-1 2.2 3.5 5.6 6.8 6.2 10.6 1.2 6.8 4 12.2 9.1 17.1-6 .1-11.4 5.9-17.8 1.1 1.4-1.2 2.6-2.3 3.8-3.3-1.3-.8-2.7-1.5-3.9-2.3-2.6-1.9-5.1-3.8-7.6-5.7.4-.6.7-1.1 1.1-1.7l7.5 3.3c.3-.4.7-.8 1-1.2-2.5-3.6-5-7.3-7.7-11.2 4.5-1.6 6.2 7.2 10.1 1.1z" fill="#fff"/>
  <path d="M149.1 254.9c10.1 4.4 20.2 8.7 30.2 13.3 2.2 1 7.1 1.1 4.6 5.9-3.3 6.6-5.8 7.9-10.3 4.2-8.8-7.3-17-15.3-25.5-23 .3-.1.7-.2 1-.4zM80.8 265.3c.2 9.3-.1 17.9 7.8 23.8-3.6.8-8.8-1.7-10.6-4.9-3.8-6.7-3.1-12.4 2.8-18.9zM195.4 294.7c-.7-3.1-1.5-5.5-1.6-8 0-1.3 1.2-2.7 1.8-4 1.1.7 2.7 1.1 3.3 2.1 1.2 2 1.7 4.3 2.7 6.7-2.1 1.1-4 2.1-6.2 3.2zM175 260.2c-4.2-2-8.3-4-12.5-5.9.3-.5.5-1.1.8-1.6 4.2 1.9 8.5 3.8 12.7 5.7-.4.6-.7 1.2-1 1.8zM195.5 311.4c-1.4-9.1-1.1-9.6 5.1-9.7-1.7 3.1-3.2 6-5.1 9.7zM443.5 36.1c4.1-.1 8.9-1.7 10.1 3.5.9 3.8-3.3 2.6-5.5 2.8-4.8.5-5.4-2.2-4.6-6.3z" fill="#fff"/>
  <path d="M173.7 325.8c-21.4 3.8-43.1 4.4-64.7 6.1-.1-.7-.1-1.4-.2-2l64.5-6c.1.6.3 1.3.4 1.9zM83.1 319.5c4.6 1 9.2 2.7 13.8 3 5.7.3 11.5-.3 17.2-.8 7.3-.6 14.5-1.4 22.1-1-2.5.7-5 1.5-7.5 2-8.4 1.6-16.7 3.4-25.1 4.4-3.1.4-6.5-1.4-9.8-2.2-2.5-.6-5-1.8-7.5-1.9-2.7-.1-3.6-1.1-3.1-3.6l-.1.1zM142.1 282.8c4.5-6 6.2-12.2 0-19.2 5.6.6 6.8 3.9 7.6 6.9 1.2 4.5-1.9 9.6-7.6 12.3zM104.7 281.7c-5.4-.2-7.2-3.9-5.5-11.2 1.8 3.8 3.6 7.6 5.5 11.2-.1.1 0 0 0 0z"/>
  <text transform="translate(35.423 40.917)" fill="#fff" font-family="BaskervilleT-Bold" font-size="35" letter-spacing="4">PEANUTS</text>
  <text transform="translate(361.127 52.393)"><tspan x="0" y="0" font-family="Peanuts" font-size="37">HEY, PATTY!</tspan><tspan x="0" y="44.4" font-family="Peanuts" font-size="37">gUESS WHAT</tspan><tspan x="0" y="88.8" font-family="Peanuts" font-size="37">I GOT FOR</tspan><tspan x="0" y="133.2" font-family="Peanuts" font-size="37">CHRISTMAS!</tspan></text>
</svg>
