<svg xmlns="http://www.w3.org/2000/svg" viewBox="0 0 595.3 469" xml:space="preserve">
  <path fill="#fff" d="M0 0h595.3v469H0z"/>
  <path d="M0 0h595.3v469H0V0zm589.9 44.6c0-11.2.1-22.5 0-33.7 0-3.5-.8-6.2-5.4-6.2-22.3 0-44.6-.2-66.9-.4-14.5-.1-28.9-.6-43.4-.6-25.1.1-50.2.5-75.4.6-60.8.4-121.7.9-182.6 1.1-24 .1-47.9-.5-71.9-.5-16.1 0-32.2.7-48.4 1-9.4.2-18.8.4-28.1.3-19.5-.2-39-.6-58.6-.8-3.7 0-4.9 2.2-4.9 5.7 0 5.5-.2 11.1-.3 16.7-.3 38.7-.5 77.4-.7 116.1-.1 23.5 0 47-.2 70.5-.2 27.9-.7 55.9-.8 83.8 0 17.6.4 35.3.8 52.9.3 14.5 1 29 1 43.5.1 11-.7 22.1-.8 33.1-.1 10.6.4 21.2.1 31.8-.1 4.7 1.3 5.9 5.8 5.9 19.8-.3 39.7-.3 59.6-.5 20.7-.3 41.4-.9 62.1-1 14 0 27.9 1 41.9 1.1 29.4.1 58.8-.1 88.1-.1 35 0 69.9-.1 104.9.1 20.4.1 40.9.8 61.3.7 9.4 0 18.7-1.4 28.1-1.5 18.1-.3 36.3-.1 54.4-.1 7 0 13.9.4 20.9.5 5.9.1 11.9.1 17.9.1 11.9 0 23.9.1 35.8 0 4.5-.1 6.3-3.5 6.3-7.3.1-9.5-.4-19-.4-28.4 0-20.8.2-41.5.4-62.3.2-31.1.6-62.2.7-93.2.1-35.3.1-70.7 0-106-.1-14.9-.9-29.8-1-44.7-.4-26.2-.3-52.2-.3-78.2z" fill="#fff"/>
  <path d="M589.9 44.6c0 26-.1 52 0 78 .1 14.9.9 29.8 1 44.7.2 35.3.1 70.7 0 106-.1 31.1-.4 62.2-.7 93.2-.1 20.8-.3 41.5-.4 62.3 0 9.5.5 19 .4 28.4 0 3.9-1.8 7.3-6.3 7.3-11.9.2-23.9 0-35.8 0-6 0-11.9 0-17.9-.1-7-.1-13.9-.5-20.9-.5-18.1-.1-36.3-.2-54.4.1-9.4.1-18.7 1.5-28.1 1.5-20.4 0-40.9-.7-61.3-.7-35-.1-69.9-.1-104.9-.1-29.4 0-58.8.2-88.1.1-14-.1-27.9-1.1-41.9-1.1-20.7 0-41.4.7-62.1 1-19.9.2-39.7.2-59.6.5-4.5.1-6-1.2-5.8-5.9.3-10.6-.2-21.2-.1-31.8.1-11 .9-22.1.8-33.1-.1-14.5-.7-29-1-43.5-.3-17.6-.8-35.3-.8-52.9.1-27.9.6-55.9.8-83.8.2-23.5.1-47 .2-70.5.2-38.7.5-77.4.7-116.1 0-5.6.3-11.1.3-16.7 0-3.5 1.2-5.7 4.9-5.7 19.5.2 39 .6 58.5.8 9.4.1 18.8-.1 28.1-.3 16.1-.3 32.2-1 48.4-1 24 0 47.9.6 71.9.5 61.3 0 122.2-.5 183.1-.9 25.1-.2 50.2-.6 75.4-.6 14.5 0 28.9.4 43.4.6 22.3.2 44.6.4 66.9.4 4.6 0 5.4 2.7 5.4 6.2 0 11.2 0 22.4-.1 33.7zm-42.6 353c.8-1.3 1.6-2.6 2.6-4.3-10.8-.3-17.7 7.1-25.8 11.6 3.3.1 6.4-.5 9.3-1.6 4.8-1.8 9.4-3.9 14.1-5.9-.4.7-.6 1.6-1.2 2-3.9 2.3-7.9 4.5-11.8 6.7.3.6.6 1.3.9 1.9 9.4-1.5 16.6-8 24.7-12.8-3-.5-5.7 0-8.4.7-1.6.4-3 1.1-4.4 1.7zM9.5 435.4v4.4c5-3.1 9.2-5.7 13.4-8.3.3.4.6.9.9 1.3-4.6 3.3-9.3 6.7-13.9 10 .4.5.7 1 1.1 1.4 6.4-4.3 12.8-8.6 19.8-13.4-2.5-2.3-4.7-4.3-6.9-6.2 3.2-2.7 4.4-6.1 3.7-10.1-.2-.9-2.5-2.4-2.8-2.2-5.4 3.9-10.6 8.1-15.9 12.2.4.5.7 1.1 1.1 1.6 4.9-3.1 9.7-6.1 14.6-9.2l.9 1.2c-4.1 3.2-8 6.7-12.4 9.3-2.7 1.6-3.5 3.2-3.2 5.9-.2.7-.3 1.4-.4 2.1zm555.8-10c-5.6 3.7-11.2 7.5-17.2 11.5 7.3.9 35.5-15.1 35.8-20.7-2.7 1.3-5 2.4-7.3 3.6-3.8 1.9-7.6 3.8-11.5 5.8 5.3-3.6 10.8-7.1 16-10.9 1.7-1.2 2.8-3.3 4.2-5-.4-.2-.7-.4-1.1-.7-17 9.3-33.9 18.5-50.6 27.7 3.1 1.9 6.8 1.4 10.9-.8 6.8-3.7 13.9-7 20.8-10.5zM112.7 211.7c9-2.7 18.1-5.5 27.1-8.2.2.4.3.8.5 1.1-2.9 2-5.9 4-8.8 6 .2.3.4.7.5 1l16.2-7.5c.3.6.6 1.2.8 1.8-6.6 3.7-13.1 7.3-19.7 11 .2.4.4.7.6 1.1 8.7-4.7 17.3-9.3 26-14 .4.6.7 1.3 1.1 1.9-8.5 4.9-16.9 9.8-25.4 14.7 2.8.1 5.1-1.4 7.5-2 8.6-2.1 16.4-6.3 24.6-9.2 12.7-4.4 24.1-12.6 35.9-19.5 10.3-6 20.4-12.4 30.5-18.8 3.1-1.9 5.8-4.3 9-6.7-1.2-1.2-1.7-1.9-2.3-2.1-16-7.6-31.9-15.5-48.1-22.5-10.3-4.4-21.8-5.5-32.6-3.9-13.7 2.1-26.7 7.6-37.5 16.9-5.8 5-10.7 10.8-12.8 18.5 6.6-6.7 10.7-15.8 20.4-19.4l-18 20.7c.4.3.8.6 1.1.9 6.3-5.4 12.7-10.8 19-16.1.5.4 1 .9 1.4 1.3-3.2 3.3-6.3 6.6-9.5 9.9.2.2.4.4.7.6 6.5-4.7 12.9-9.4 19.4-14.1.6.7 1.3 1.4 1.9 2.1-1.7 1.2-3.5 2.4-5.2 3.7-8.4 6.8-17 13.4-25.2 20.6-3.2 2.8-5.5 6.8-8.5 10.5 11-9 21.6-17.7 32.1-26.4.6.8 1.3 1.6 1.9 2.4-5.1 3.8-10.1 7.6-15.2 11.3-8.9 6.5-11.8 9.5-12.9 13.4 5.4-3.5 11.3-7.3 17.2-11.2l.9 1.2c-7.6 6.1-15.2 12.2-22.7 18.3.4.5.7 1 1.1 1.4 7.3-4.5 14.5-9.1 21.8-13.6.4.6.8 1.2 1.1 1.8-6.5 6.3-16.9 7.8-22.5 16.8 6.2-3.5 11.5-6.6 16.9-9.6.3.5.5.9.8 1.4-2.2 1.5-4.4 3.1-6.5 4.6.2.3.3.5.5.8 2.1-.7 4.2-1.4 6.2-2.2.2.5.4 1 .6 1.4-2 1-4.2 1.8-6.1 3-1.9 1.4-3.8 3.3-5.8 4.9-4.5-.3-7.1 2.6-6.8 6.3.2 1.7 1.7 6.9 6.9 5.2-4-4.4-3.9-8-.1-11.5zm313-29.2c-25.7 15.7-59.7 37.1-97 43.9.1 1.2-.1 2.6.4 3.6 5.6 10.9 12.5 20.6 23.9 26.3 2.3 1.2 4 3.8 5.9 5.7-.4.6-.9 1.3-1.3 1.9-2.4-.7-5.1-1-7.3-2.2-8-4.2-14.5-10.1-20-17.3-12.8-16.6-14.2-35.6-10.4-54.8 3.3-16.5 12.5-30.4 24.6-42.1 4-3.9 8.7-7.2 13.2-10.9-.5-1.5-1-3.4-1.6-5.1 5.2-5.8 6.7-5.7 11.2 0 .6.8 2.5 1.5 3.2 1.1 8.2-4 16.7-4.5 25.8-4.6 10.5-.1 20.7.5 30 5.2 12.4 6.2 24.3 13.4 36.4 20.2 5.4 3 10.7 7.8 16.4 8.6 10 1.3 18.5 4.9 25.6 11.5 7.4 6.9 6.9 15.1-1 21.4-3.6 2.8-8.1 4.8-11 8.1-5.6 6.5-10.4 13.7-15.7 20.5-2.4 3.1-2.3 4.8 1.7 6.2 8.1 2.9 8.6 6.4 2.1 11.9-2.2 1.9-3.7 3.5-1.9 6.8 1.2 2.1 1.3 5.1 1 7.5-1.2 8.9-7.9 14.5-14.7 18.3-10.6 6-22.3 9.8-34.7 10.9-4.3.4-7.2 2.6-8.2 7.2-.9 4.4 4.4 15 9.4 18.7 6.4 4.7 14.3 7.6 18 15.5.4.8 2.4 1.1 3.7 1.1 7.1-.3 14.1-1.2 21.2-1.1 16.3.2 32.6.7 48.9 1.2 8.3.2 16.5.4 24.8 1 12 .9 23.9 2.2 35.9 3.3V119c-8.6.8-16.8 2.2-24.9 2.1-32.6-.7-65.2-2.1-97.8-3-13.6-.4-27.2-.4-40.7-.7-10.6-.2-21.1-.8-31.7-.9-30.3-.2-60.7-.2-91-.4-1.4 0-2.8-.4-4.2-.4-1.8 0-3.9-.3-5.3.5-2.8 1.6-5.2 3.9-8.2 6.3-.2-5.3 6-11.7 10.6-11.7 10.3.1 20.6.5 30.9.5 19 .1 38-.1 57 .1 7.5.1 15 1.4 22.6 1.5 11.4.2 22.8-.5 34.2-.3 17.5.3 35 1.1 52.4 1.7 9 .3 17.9.7 26.9.6 20.6-.3 41.2 2.5 61.8-.6 7.6-1.2 7.7-.7 7.7-8.2 0-15.8-.1-31.5-.1-47.3V11.5c-2.6.4-3.7.7-4.7.7-15.3-.3-30.6-.8-45.9-1-20.6-.2-41.3-.3-61.9-.4-11.4-.1-22.8-.3-34.2-.1-16.3.4-32.5 1.6-48.8 1.6-20.2 0-40.5-1.1-60.7-1.2-26.4-.1-52.8.5-79.2.7-14.5.2-28.9.2-43.3.2-28.1 0-56.3-.2-84.4-.1-14 0-27.9.5-41.9.7-7.9.1-15.8.1-23.8 0-13.8-.2-27.6-.4-41.4-.8-3.5-.1-4.6.8-4.5 4.6.2 12.4-.3 24.8-.4 37.2 0 11.5.7 23.1.1 34.6-.6 11.8-.6 12.8 9.6 18 1.7.9 3.7 1.4 5.5 1.7 4.5.6 9.1.9 13.6 1.5 9.8 1.2 19.6 3 29.5 3.7 9.3.6 18.7 0 28.1.3 15.4.5 30.8 1.7 46.1 1.8 12.1.1 24.2-.9 36.3-1.5 7.6-.4 15.1-1.1 22.7-1.2 9.9-.2 19.8.1 29.6.2h48.8c-3.9 6.1-7.1 11.1-10.3 16.2.3.2.5.5.8.7 2-1.7 4-3.4 6-5.2.5.2.9.4 1.4.5-.5 1.3-.8 2.8-1.6 3.9-1.1 1.5-2.6 2.8-4 4.1-5.8 5.4-11.6 10.8-17.5 16.1-.5-.3-1.1-.7-1.6-1 3.4-12.3 14.6-20.5 19.5-32.3-5.9.3-11.4.8-16.9.9-16.5.3-33.1.5-49.6.8-9.6.2-19.2.8-28.8.8-40.6 0-81.3 2.3-121.9-1.4-14-1.2-27.9-2.2-41.1-7.4-3.8-1.5-4.7.2-4.6 3.2 0 4.1.7 8.1.7 12.2 0 31.5 0 63-.2 94.6-.1 28.5-.5 57-.7 85.5-.1 8.4 0 16.9 0 25 5.8-.3 10.8.2 15.4-.8 12-2.8 23.6 1.8 35.5 1.2 3.9-.2 7.9.5 11.8 1 1.2.2 2.5 1.4 3.6 1.3 8.6-1.2 17.2.4 26.1-1.9 10.1-2.6 21.3-.7 32-.8 1.7 0 4.1-.3 4.9-1.4 2.7-3.8 4.8-8 7.7-13.1-2.8.9-4.1 1.9-5.4 1.7-3.5-.4-9.4.7-8.9-4.3.4-4.3-2.9-9.7 2.4-13.3.7-.5 1-1.9 1.2-2.9.4-3.2.7-6.5 1-9.9-1.4.5-3.5 1.6-5.6 1.8-2.7.3-5.9.7-8-.5-6.1-3.4-8.8-13.2-6.6-19.9 2.4-7.4 6.2-13.6 13.6-16.8-2.8-4.5-5.5-8.7-8.2-12.9-.4-.7-1.4-1.1-2.3-1.3-8.7-2.1-14.2-8.6-17.9-15.8-3.1-5.9-4.1-13-5.7-19.7-3.3-14.4 1-27 9.7-38.3 3.5-4.6 7.6-8.8 11.4-13.2-1.3-1.1-2.6-2-3.7-3.2-4.5-4.7-2.7-12.2 3.3-14.1 1.3-.4 2.6-.9 3.7-1.7 6.6-4.8 15.2-1.9 17.6 6.1 1.2-.4 2.3-1 3.5-1.3 8.2-2.1 16.4-5.8 24.6-5.9 9.1-.1 18.6 2 27.2 5 12.1 4.2 23.8 9.8 35.4 15.5 5.4 2.7 10.1 6.9 15.1 10.4 3 2 5.9 4.1 9.1 5.6 2.5 1.2 5.5 1.4 8.2 2.2 6.1 1.7 12.9 8.5 11.5 14-1.2 4.6-5.1 9.8-9.2 12.1-4.4 2.5-7.7 5.2-9.9 9.5-1.9 3.6-4.1 7.1-6 10.7-1.4 2.6-2.7 5.4-3.6 8.2-.2.7 1.7 3 2 2.9 4.6-1.7 7.4 1.4 8.2 4.5.6 2.3-1.9 5.4-2.9 8.1-.6 1.6-1.7 3.6-1.2 4.8 1.9 4.3.2 7.3-3.3 8.9-3.9 1.7-8.3 2.7-12.6 3.4-7.2 1.2-11.3 4.7-11.2 9.1 2.5 2.6 5.3 4.3 6 6.7.5 1.5-2 4-3.3 5.9-.5.7-1.4 1.1-2.2 1.4-8.7 3.5-17.4 6.9-26.7 10.6 0-.1-.1 1-.3 2.1-.2 1-.6 2-.9 3 .6-.2 1.1-.4 1.7-.5 1.6 3.7 3.2 7.4 5 11 .6 1.3 1.6 2.6 2.7 3.5 6.2 5.3 12.7 10.3 15.3 18.7.3 1 3 1.9 4.6 1.9 9 .1 18.1-.7 27-.2 9.8.5 19.6 3.3 29.5.9 14.4-3.5 29.1-2.3 43.6-1.1 10.3.9 20.5 3.3 30.8 4.4 2.3.2 5.9-1.4 7.2-3.3 5.7-8.8 11-17.9 16.1-27.2 1-1.8 1.1-5 .2-6.8-3-5.8-3.3-8.1 2.3-11.5 4.8-3 4.1-6.7 2.2-9.9-1.3-2.2-4.8-3-7.4-4.3-1.4-.7-3.1-.8-4.3-1.6-4.5-3.2-8.8-6.5-13.2-9.8 2.3-6.3 5-2.9 7.7-1.1 4 2.8 8 5.6 12 8.5.3-.4.6-.9.9-1.3-4.7-4.1-4.7-4.1-1.6-7.7 5.6 2.9 11.2 5.8 17.7 9.1-.8-3.6-1.2-5.7-1.9-8.7 6.4 3.6 11.6 6.6 16.8 9.5.4-.4.8-.9 1.1-1.3-2.3-3-4.6-6-7-9.1.9-1 1.8-1.9 4.4-4.7 2.9 4.3 5.7 8.2 8.4 12.2.6-.5 1.1-1 1.7-1.5-1.3-1.9-2.9-3.7-4-5.7-1.2-2.2-3.3-4.7 1.2-6.7 3.6 4.2 7.2 8.3 11.3 13-4.4 2.6-8.2 4.3-11.2 6.9-2.9 2.5-5.5 2.5-8.9 1.5-2.4-.7-5.1-.5-7.6-.6-2-.1-3.9-.1-5.9-.1h-4.9c2.3 16.2 17.4 17.7 27 25.7 1.4-2 3.6-3.7 3.7-5.5.4-6.7 5.2-8.5 10.2-10 1.9-.6 4.1.1 6-.5 9.4-3.2 18.9-6.1 28-10.2 4-1.8 8.7-5.2 10-9 1.7-4.8 1.9-10.9-1.8-15.9-1.9-2.7-1.3-4.6 2.2-5.5 1.9-.5 3.7-1.6 5.5-2.5v-1.5c-3.1-1-6.2-1.9-8-2.5-2.6 2.1-4.8 5.1-6 4.7-3.5-1-2.5-4-1.5-6.7 1.2-3.1 2-6.3 3.2-10 2 .9 3.3 1.6 4.4 2.1 5.5-7.2 10.7-14 15.9-20.9-.3-.6-.6-1.2-.8-1.7-6.9 0-13.7.2-20.6-.1-2.3-.1-4.5-1.5-6.7-2.5-1.6-.7-3.3-2.6-4.5-2.3-3.9.9-8 2.1-11.2 4.3-5.5 3.7-10.9 7.8-15.5 12.5-4.3 4.4-10.9 8.7-8.5 16.2 2.3 6.8 5.6 13.4 9.6 19.4 3.4 5 5.5 9.9 5.3 16.6-1.6-.9-3.1-1.2-3.7-2.1-5-7.2-10.1-14.3-14.7-21.8-1.8-3-2.6-6.7-3.2-10.2-1.2-6.5 2.9-11 6.9-15.1 6.5-6.7 13.7-12.8 19.6-18.3-3.5-.4-8.4.2-12.1-1.5-5.8-3.1-2.6-8.5-1.4-13.7zM9.3 384.2c3.6.6 6.8 1 10 1.7 4.5 1 9.1 3.1 13.6 3 11.3-.3 22.6-1.4 33.8-2.3 2.7-.2 5.4-1.3 7.9-1 8.8.9 17.5 2.3 26.2 3.5 3.7.5 7.5 1.4 11.2 1.6 6.7.3 13.5-.5 20 .5 11.2 1.8 22.2 2.6 33.5.6 10.8-1.9 21.7-2.7 32.6-3.9 8.2-.9 16.4-1.7 24.7-2.4 3.7-.3 7.4-.6 11.1-.4 12 .7 22.8 7.4 35.3 6.1 12.9-1.3 25.8-.8 38.5-4.4 7.6-2.1 15.5-3.5 23.3-4.1 4.2-.3 8.6 2.5 13 2.7 12.5.6 25 .8 37.6.6 9.5-.2 19-1.8 28.3 1.4 4.3 1.5 8.9 2.9 13.4 3.2 11 .7 22 .6 33 .9 4.3.1 8.7 1.1 12.9.5 9.6-1.5 19.1-3.9 28.7-5.6 3.6-.6 7.8.6 11.2-.6 12.8-4.3 25.5-1.5 38.2 0 9.2 1.1 18.5 1.9 27.8 2.6 2.9.2 5.8-.6 9.5-1-.3-5.9-.9-12.2-.9-18.4.1-9.8.7-19.5 1.1-29.3.1-3.1-.8-4.8-4.3-4.6-3.7.2-7.5.6-11.1 0-11-1.8-21.8-2.8-33-2.4-14.7.5-29.5-2.2-44.3-2.5-12.3-.3-24.7 1.2-37.1 1.2-3.3 0-4.8.6-6.4 3.3-3.3 5.4-7.7 10.1-14.5 9.7-6.7-.4-13.8-.8-19.8-3.3-10.1-4.2-20.2-6.1-31-5.1-4 .4-8 1.7-11.9 1.6-8.2-.3-16.4-1.3-24.6-2.1-10.3-1-20.6-2.2-31-3-12-.9-23.9-1.6-35.9 1.4-5.7 1.4-12.1 1.3-18 .5-13.5-1.9-26.8-4.5-40.4-1.5-1.1.2-2.4.6-3.2 1.4-4.7 4.6-10.2 7-16.7 7.4-7.7.6-15.4 1.7-22.2-4.1-2.2-1.9-6-2.5-9.1-2.6-12.4-.6-24.7 1.6-37.2-1.4-12.9-3.1-25.6 1-38.4 3.2-7.7 1.3-15.8-.4-23.8-.5-7.4-.1-15-4.5-22.3.4-.8.5-2 .5-3 .5-8.9-.6-17.8-1.4-26.8-2-3.3-.2-6.6 0-9.9 0 .4 16.3.4 33.2.4 49zm241.9-186.5c-2.2-.7-3.9-1.1-5.6-1.8-1.6-.6-3.4-1.1-4.5-2.1-2.5-2.3-10-3-12.5-.8-6.7 5.9-14.4 6.2-21.8 1.3-1.3-.8-3.8-1.1-5.1-.3-3.6 2-6.8 4.7-9.2 6.3 2.4 2.5 5.5 5 7.7 8.1 1.7 2.3.8 4.2-2.6 3.7-.9-.1-1.8-.1-3.6-.3 1.1 2 1.9 3.3 2.8 4.9-3.1 1.1-5.7 2.1-8.4 3.1.1-.5.1-1 .2-1.5-4-.6-8.1-2-12-1.5-1.2.2-2.5 5.4-2.5 8.3 0 8.3 6 10 13.4 9.6 0 .8-.1 1.5-.1 2.3-2.8.9-5.6 1.8-7.3 2.3-3.7 5.8-7.1 11.1-10.6 16.6 6.9 1.1 11.3 5.4 10.4 10.2-.8 4.5-2 9-3.7 13.1-3.2 7.7-3.4 7.6 4.3 10.8 3.5 1.4 6.9 3 10.9 4.7.1-1.9.2-2.8.2-3.6-.4-7.8-.2-7.3 7.8-9 8.5-1.8 16.7-4.9 25-7.4-1.8-2.5-3.4-3.6-5.1-4.2-4.7-1.8-4.9-4.3-2.1-8.1 5-6.5 10.6-11.8 19.5-11.8 2.2 0 4.8 0 6.4-1.2 3.7-2.6 0-5-1-7.3-2.5-5.6-2.6-5.4 3.3-5.8 1.2-.1 2.4-1.6 3.6-2.4-1-1-1.9-2.6-3.1-2.8-2.7-.6-5.5-.6-7.7-.8-1.5 3-2.8 5.6-4.4 8.9-2.1-3.8-1.8-15.6.4-18.7 1-1.3 3.3-1.7 5.3-2.5 3.7-6.5 7.6-13.3 11.7-20.3zm117.1 224.4c6.6-3.2 13-6.4 19.5-9.5.2.5.5 1 .7 1.4-4.2 2.2-8.5 4.3-12.6 6.7-7.8 4.6-7.7 4.6-9.4 9.5 4.4-2.3 8.6-4.6 12.8-6.8.3.5.5 1 .8 1.5-7.3 4-14.6 8-22.8 12.4.9-2.1 1.4-3.1 2.1-4.6-19.2 7.6-36.4 17.9-37.6 22.5 1.9-.7 3.7-1.5 5.6-2.2.1.2.3.5.4.7-1.5 1.4-2.9 2.7-4.4 4.1.3.5.7 1 1 1.5 4.4-2.7 8.7-5.4 13.2-8 4.3-2.5 8.6-4.7 13-7.1.2.4.5.9.7 1.3-6.4 4-12.8 8-19.1 12 5.8.9 11.2 1.1 16.6.9 6.4-.2 13.2-1.9 19.3-.6 5.9 1.3 10.3-.2 15-2.6 8.4-4.3 16.6-8.8 24.9-13.3.8-.5 1.3-1.5 2.1-2.1 2-1.5 4.2-4.1 6.2-4.1 7.5.3 12.5-4.5 18.3-7.7 4.5-2.5 9-5.1 13.4-7.7.4.7.8 1.3 1.1 2-7 4-13.9 8-21 12 3.3 3.8 6.7 1.4 9.8-.3 3-1.7 5.7-3.7 8.6-5.6.3.4.6.9.8 1.3-2.4 2-4.7 4-7.3 6.2 12.9 2.4 12.9 2.4 13.6-3.1-2.4 1.1-4.5 2.2-7.5 3.6.7-1.6.8-2.4 1.2-2.7 5.1-2.9 4.8-7.3 3.4-12-.3-.8-.7-1.6-1.1-2.4-3.1-7.5-1.5-10.5 6.1-13.6 7.4-2.9 14.5-6.4 21.7-9.6-.3-.6-.6-1.3-.9-1.9-19.5 6.5-36.4 18.6-54.9 27.3-.3-.5-.5-.9-.8-1.4 13.3-7.4 26.7-14.9 40-22.3-.2-.5-.4-1.1-.5-1.6-5.2 1.3-10.5 2.6-16 3.9-.2-.2-1.2-1.9-2-1.8-4.2.7-8.8.9-12.4 2.9-15.3 8.3-30.2 17.2-45.3 25.8-10 5.7-20.2 11.2-30.3 16.7-.3-.5-.5-.9-.8-1.4 24.7-13.9 49.4-27.7 74.5-41.9-6.2-2-11.2-3.9-16.3-5.2-1.9-.5-4.4-.2-6.1.6-10.6 5.3-20.8 11.4-31.7 16.1-5 2.3-7 4.5-5.6 10.2zm-75.9-28.2c-2.4.2-3.1.2-3.7.4-4.1.9-8.5 3.1-12.3 2.5-6.5-1.1-12.5-1.2-18.3 2.1-12.9 7.2-25.9 14.3-38.6 21.7-15.6 9.1-31.1 18.4-46.5 27.8-4.5 2.8-8.8 6.1-13.9 9.7 5.8.4 10.2.7 14.6 1.1 9.1.8 17.6.4 25.5-5.8 6.2-4.9 13.6-8.4 20.6-12.3 11.3-6.3 22.6-12.4 34-18.6 6-3.3 12-6.5 18-9.8.3.5.6 1.1.9 1.6-10.5 6-21.1 11.9-31.9 18.1 13.7 1.8 21.9-9 33.6-11.1-5.6 3.4-11.3 6.7-16.9 10.1 2.1.7 4 .6 5.5-.1 2.5-1.2 4.7-3.1 7.3-4.4 8.8-4.6 9.4-6.4 4.4-16 13.3-6.7 26.6-13.3 40-20-6.8.9-13.7 1.8-19.7 4.5-8.4 3.7-16.3 8.7-24.3 13.2-16.8 9.4-33.6 18.9-50.4 28.3-11 6.2-22.1 12.4-33.2 18.5-1 .6-2.3.7-3.4 1l-.6-1.5c35.8-20.2 71.8-40.2 109.3-61zm175.8 16.5v-.4c-2.6.1-5.2.2-7.8.4-5.9.5-7.1 2.1-5.7 7.7.5 2.1 1.3 4.2 1.3 6.3-.1 5.2 2.6 6.4 7.2 6.2 10.1-.3 20.2-.4 30.3-.4 12.6 0 25.3-.1 37.9.5 4.4.2 4.3-1.8 4.1-4.6-.2-2.5-1.2-5-.9-7.4.7-7.3 0-8.3-7.7-8.3h-58.7zm-161-.4v.2h-12.5c-14.6-.2-12.8-.4-12.6 14.2 0 1.5 2.2 4.1 3.5 4.2 7.8.7 15.6 1.1 23.4 1 10.2-.2 20.3-1.1 30.5-1.4 4.8-.1 9.7 1 14.5.8 6.9-.4 10-4.8 9.7-12.6-.2-3.9-3.6-6.3-9.8-6.3-15.7-.2-31.2-.1-46.7-.1zM449 177.5c.7-.6 1.3-1.1 2-1.7-1.5 9.4 6.9 7.3 9.8 11.6 11.3-2.9 11.3-2.9 14.5-.7-4.8 2.6-9.2 4.9-13.5 7.3.3.6.5 1.1.8 1.7 8.4.6 15.7-3.1 23-6.6.7-.3.5-4.5-.5-5.8-2.3-2.9-5.4-5.2-8.2-7.7l.6-1.5c1.4-.2 3.5-1 4.2-.4 6.7 5.9 14.5 11.2 12.8 22.1 7.8-2.2 12.3-8.3 9.3-13.4-2.2-3.8-6.4-7.1-10.5-9.1-8.2-4-17-7.1-25.6-10.3-1.7-.6-4.2-.6-5.8.2-8.9 4.5-17.3 10-26.5 13.7-5.8 2.4-6.5 5.9-6.4 10.9 0 3.6 1.7 4.7 5 4.7 7.5-.1 13.7-5.4 14.5-12.6.2-.8.4-1.6.5-2.4zm-345.1 232c-9.7-.3-19.3-1.4-29.1-.4-11.4 1.2-23.2.4-34.7-.1-8.3-.3-8.3-.7-8 7.6.1 1.2.1 2.5-.1 3.7-1.3 5.4 2.4 6.9 6.2 6.6 20.6-1.2 41.2 3.4 61.8-.1 3.3-.6 4.7-2.2 4.6-5.5-.3-3.7-.5-7.5-.7-11.8zm11.5-1.5c0 5.8-.3 10.7.2 15.5.1 1.5 2.3 4.1 3.5 4.1 10.5.2 21 0 31.5-.1 5-.1 9.9-.2 14.9-.1 6.3.2 12.5.7 18.8.8 3.2 0 5.7-.9 4.4-5.2-.7-2.3-1.2-4.9-.8-7.2.8-4.2-2.3-5.6-4.7-5.7-9.6-.5-19.3-.2-29-.3-7.2 0-14.4.1-21.5-.2-5.6-.2-11.1-1-17.3-1.6zm199.9 45.8c.4-2.6 1-5 1.2-7.5.5-6.1-1.3-8.1-7.4-8-4.8 0-9.5.3-14.3.2-14.4-.4-28.8-1.1-43.3-1.2-5 0-10.7-2.3-14.2 1.2 0 4.5-.3 7.9.1 11.2.2 1.4 1.4 3.5 2.6 3.9 2.3.8 4.9.8 7.3.8 13.8-.1 27.6-.4 41.4-.5 8.9-.1 17.6-.1 26.6-.1zm-248.5-.2H146c-.6-5.1-.9-8.8-1.6-12.4-.2-.9-1.5-2.3-2.4-2.4-5-.6-10-1.1-15-1.1-4.8 0-9.7.9-14.5 1-12.6 0-25.2-.2-37.8-.3-8.5-.1-10.1 1.5-9.2 10 .1 1.8.9 3.6 1.3 5.2zM246 394.7c-6-1.8-10.6-1.1-15.9 2.2-9.4 6-19.6 10.6-29.3 16.3-3.3 1.9-7.9 3-7.3 9.2.8 8.1-9.1 16.9-18.8 17 4.1-2.6 7.6-4.8 11.1-7-.2-.4-.3-.8-.5-1.3-3.4.8-8 3.4-9.8 2.1-6.9-4.9-10.9 1-15.9 3-2.6 1-5.1 2.2-7.6 3.3-.2-.4-.4-.9-.6-1.3 4-2 7.9-4.1 11.9-6.1-.1-.6-.2-1.1-.3-1.7-3.6.4-7.5.2-10.8 1.5-4.9 1.9-5.2 4.8-2.5 10 2.4 4.5 4.7 1.2 7 0 1.9-.9 3.7-2.1 5.6-3.1 3.3-1.7 6.7-3.2 10.1-4.8l.6 1.2c-6.3 3.5-12.4 7.6-19 10.3-3.9 1.6-4 3.7-3.8 7.4 7.2-4 14.1-7.7 20.9-11.5.3.6.6 1.1.9 1.7-10 5.3-19.9 10.5-29.4 15.5 7.8.9 14.5-2.2 21.7-6.7 23.7-15 48.1-28.9 72.2-43.2 6.6-3.9 13.4-7.7 20.1-11.5-3.2-1-6.6-1.8-8.9-.6-11.9 6.3-23.6 13.1-35.3 19.8-4.5 2.5-9 4.9-13.5 7.4-.3-.6-.7-1.2-1-1.8 15.8-9 31.6-18 48.1-27.3zm168.9 46.9c.6 2.4 1.8 5.6 1.9 8.7.1 4.1 2.1 5.4 5.6 5.2 3.2-.1 6.3-.5 9.5-.5 18.1-.3 36.3-.5 54.4-.7 6.3-.1 6.6-.8 7-7.5.3-5.4-2.4-5.8-6.6-5.7-9 .3-17.9.4-26.9.5h-44.9zm94.5-2.1c.1 3.8 4.8 6.9 1.9 11.2-.1.2 2.1 2.8 3.3 2.9 8.2.5 16.4.5 24.5.8 6.8.2 13.5.6 20.3.5 7.4-.1 14.9-.6 22.3-1.2 1-.1 2.6-2 2.7-3.2.4-3.1.1-6.3.1-8.8-25.4-.7-49.9-1.5-75.1-2.2zM166.7 329.1c.2.5.5 1 .7 1.5 1.4-.4 2.9-1 4.3-1.1 1.7-.1 4.3-.4 5 .5 6.2 8.4 15.6 6.2 23.9 7.1 3.3.3 6.9-1.3 10.3-2.4 3.5-1.1 4.2-4 2.5-6.8-1.8-3.2-3.8-6.7-6.5-9.1-4.5-4-8.5-9.7-15.8-7.9-2.9.7-5.5 2.2-8.3 3.2-7.3 2.9-11.6 9-16.1 15zm230 1.8c8 2.6 15.4 5.6 23.2 7.4 7.4 1.7 15.2 3 22.5-1.1 3.9-2.2 4.4-5.7 1.1-8.6-3.8-3.3-7.3-7-11.6-9.5-3.8-2.3-8.9-5.5-12.5-4.6-9.4 2.3-18.2 7.1-22.7 16.4zm186.8 61.4c-7.2 3.4-15.6.9-22.7 6-4.5 3.3-9.6 6.1-14.8 8.2-3.5 1.4-5.8 2.7-6 7.3 14.2-2.4 24.2-13.4 38.1-17.6-.7 1.1-.8 1.6-1 1.7-11.1 5.9-22.3 11.8-33.4 17.7-2.7 1.4-5.6 2.9-2 6.9 13.4-7.7 26.7-15.4 40-23 .3.6.7 1.2 1 1.8-14.3 8.2-28.6 16.4-43.2 24.8.8 1.5 1.4 2.7 2.1 4.1 2-.9 3.8-1.7 5.5-2.6 8.1-4.5 16.4-8.7 24.1-13.6 7.2-4.6 16.8-8.1 13-20 .1-.2 0-.3-.7-1.7zm-219.8-57.8c3.8-.2 6-.1 8.2-.4 5.1-.6 10.2-1.3 15.3-2.1 1.7-.3 3.8-.6 4.9-1.7 3.5-3.6 6.7-7.5 9.6-10.8-6-5.5-12.2-11.4-18.9-17.5-6.3 10.7-12.2 20.8-19.1 32.5zM9.1 406.3c5-2.7 9.3-5 13.6-7.3-3.6 5.9-12.1 6.3-13.2 14.3 7.1-4.8 14.1-9.7 21.2-14.5.4.5.7 1 1.1 1.6-7.8 5.6-15.6 11.3-23.4 16.9.3.6.6 1.1.9 1.7 1.4-.4 3-.4 4.2-1.1 4.6-3 9-6.5 13.7-9.4 2.3-1.4 5.1-2.1 7.8-3 2.6-.9 5.5-1.2 7.9-2.5 4.2-2.2 8.1-4.8 12.9-7.8-9.8-2.6-14.7 7.3-24.1 7.8 3.9-2.7 6.6-4.6 8.6-6-10.2-2-20.4-4-31.1-6-.1 4.9-.1 9.6-.1 15.3zm411-99c-1.3-1.5-1.9-2.5-2.8-3.1-2.8-1.7-5.7-3.2-8.4-4.9-6.7-4.3-13.3-8.7-20.1-12.8-1.4-.8-4.7-1-5.1-.3-.9 1.6-1 4-.6 5.9.3 1.4 1.6 2.7 2.7 3.9 4.8 4.9 9.7 9.6 14.5 14.5 1.4 1.4 2.8 4.5 3.6 4.3 4.1-.8 8.1-2.3 12-3.9 1.4-.8 2.5-2.2 4.2-3.6zm94.7 84.8c-7.3 3.9-14.6 7.8-21.8 11.6 14.5 2.1 24.1-9.3 37.3-11.2-7.5 3.8-14.9 7.6-23.7 12.1 14.7 1.7 23.2-7.9 34.7-12.5-18.9-6.7-49.8-.2-63.3 13.2 14.1-.7 24.1-10.5 36.8-13.2zm-320.2-88.3c-1.2-1-2.3-2.5-3.8-3.2-5.4-2.6-11.1-4.7-16.4-7.5-3.3-1.7-6-3.3-9.8-1.4-1.5.8-3.7.2-5.5.4-1.3.1-2.6.4-3.9.6.4 1.1.4 2.7 1.2 3.3 5.7 4.6 11.5 9 17.2 13.6 2.3 1.8 4 1.9 6.7.4 4.3-2.5 9.1-4.1 14.3-6.2zm-56-34.3c.3.4.6.8 1 1.2 4.9-5.1-1-7.9-2.8-11.3-2.1-4.1-6.1-4.6-9.6-1.9-5.1 4-6.9 9.5-6.2 15.5.5 3.5 2.1 8.1 4.7 9.7 4.4 2.5 10.4-.3 13.4-4.4-2.4-3.3-10 .9-9-6.2.1-1.3 5.5-1.8 8.5-2.6zm19.5 16.6c1.3 2.8 3.3 3.5 6.7 2.1 5.5-2.4 10.3-11.2 10.6-19.2.2-4.7-1.5-8.2-5.7-9-4.7-.9-7.6 2.7-9.2 6.7-1.1 2.8-1.6 5.8-2.3 8.6 1.4 1.2 3 2.1 4 3.6 1.2 1.8 1.9 3.9 2.7 5.9-2.1.3-4.2.8-6.8 1.3zM328 389.4c.3.5.5 1 .8 1.5-4.2 2.3-8.4 4.6-12.7 6.8-4.3 2.2-8.8 4.2-14.2 6.8 6.2 1 31-10.6 35.3-16.4-6.4.4-12.2-.5-17.2 1.3-7.1 2.6-13.6 7.1-20.3 10.8-3.1 1.7-6.1 3.6-9.1 5.4.3.6.7 1.2 1 1.8 12.1-6 24.3-12 36.4-18zm-228.8 7.5c.2.4.5.8.7 1.2-3.1 1.7-6.2 3.5-9.4 5.3 3.8 1.8 14.8-3.4 17.2-7.8-2-.4-4.1-1.1-6.2-1.3-8-.9-16.3-4.8-23.4 3.5-2.5 2.9-7 4.2-10.6 6.2.3.6.5 1.1.8 1.7 7.1-3.4 14.2-6.9 21.3-10.3.2.5.4.9.6 1.4-4 2.5-8 5-12.1 7.4.3.5.5 1.1.8 1.6 6.9-3 13.6-6 20.3-8.9zm-66.4 61.6c.1.3.2.6.3 1 4.6 0 9.2.1 13.8-.1.7 0 1.8-.7 2-1.4 2-5.6 6.6-3.6 10.4-4.2.4.5.8 1 1.3 1.5-1.9.8-3.9 1.6-5.8 2.4.5.7.9 1.4 1.4 2 2.4-.5 4.8-1 6.7-1.4-1.2-6.6-2.2-12.3-3.3-18.3-8.7 6.1-17.8 12.3-26.8 18.5zm332.8-51.2c1.2 4.9 3.4 4.9 6.6 3.3 10.3-5.3 20.6-10.4 30.9-15.6.6-.3 1-1.1 1.5-1.6-.3-.4-.5-.9-.8-1.3-14.3.6-24.8 11.3-38.2 15.2zm8.7-214.5c4.6-1.5 9.1-3 13.8-4.6-2-4.6-3.7-8.6-5.4-12.5-13.5 4.3-14.9 7-8.4 17.1zm34-27.3c-12.6 3.5-13.6 5.2-9.4 14.6.2.5.4 1.1.8 1.4 1 .6 2.3 1.5 3.1 1.3 2.8-.9 5.7-2 8.2-3.5.9-.5 1.6-2.5 1.3-3.5-1-3.5-2.5-6.7-4-10.3zM193.2 415c13.9-7.8 27.4-15.3 41.7-23.4-4.6-.8-42.2 16.4-43.2 19.1.5 1.3.9 2.6 1.5 4.3zm220.7-273.7c3.9-.3 7.5-.6 11.2-.9.1.6.2 1.1.3 1.7l-9.6 4.2c.9 2.1 1.9 3.5 2.2 5 .9 4.5 3.3 5 6.9 3 1.2-.7 2.7-.9 3.9-1.6.7-.4 1.5-1.4 1.5-2.1-.3-8.8-7.7-15.4-17.1-15.1.2 1.9.5 3.7.7 5.8zm-93.1 307.1c.5.6 1 1.2 1.5 1.9 8.6-5.4 17.2-10.8 26.1-16.5-4-.4-7.2-.6-10.4-1.1-6.7-1-11.5 3.3-16.7 6.3-.4.2.1 2.1.3 4.2 5.9-3.1 11.1-5.8 16.2-8.4-4.6 6-13.2 7-17 13.6zm-307 10.1c4.8 1.2 41.4-21.7 43.2-27.3-15.4 7.2-28.6 17.9-43.2 27.3zm349.4-291.2c2.3 3.7 4 9.1 6.5 9.5 3.3.5 8.8-2.1 10.3-5 1.3-2.5-1.8-7.2-3-11.2-4.9 2.4-8.7 4.2-13.8 6.7zm69.5-12.1c-2.4.8-4.4 1.5-6.4 2.2-5 1.8-5.5 4.1-2.6 11.5 1.7 4.5 4.2 2.4 6.7 1.1 2-1.1 4.1-2 6.3-3.1-1.4-4.1-2.6-7.8-4-11.7zm-43.6 1.6c4.2 2.7 1.1 10.5 8.3 9 3-.6 7.4-2.3 8-4.3.8-3-1.3-6.7-2.3-10.8-4.5 1.9-8.6 3.8-14 6.1zm-28.4 235.9c-14-3-23.1 7.8-34.6 11.9 13.1.7 23.6-6.4 34.6-11.9zm-173.9 13.5c14.8-1.4 26.1-11.3 39.3-16.7-15 .9-26.7 9.9-39.3 16.7zm-139 26.6c-.1-.5-.2-1-.3-1.4-1.8.3-3.8.2-5.2 1-4.7 3-9.2 6.3-13.7 9.5-5.2 3.6-10 7.8-15.6 10.4-3.9 1.9-3.9 4.1-4.1 7.1 13.2-9 26-17.8 38.9-26.6zM358 404.3c6.9 2.4 20.5-3.2 35.4-13.9-4 .1-8.2.2-11.8 1.6-4.4 1.7-8.2 4.6-12.4 6.9-3.7 1.9-7.5 3.6-11.2 5.4zm1.3-251c.4 2.1.5 4.4 1.4 6.1.6 1.2 2.7 2.9 3.7 2.6 3.8-1 7.5-2.7 11.3-4.2-1.2-3.8-2.1-6.8-3.1-10.1-4.6 2-8.6 3.6-13.3 5.6zm-243.4-6.6 2.4.9c4.6-2.9 9.3-5.8 14.1-8.8-5.2-5.9-9.9-6.4-16.3-1.3-1.5 1.3-.2 6.1-.2 9.2zm78 311.5c.3.6.6 1.1.8 1.7 14.8-2.1 24.6-13.7 37.4-19.7-.4-.8-.8-1.5-1.2-2.3-12.3 6.8-24.6 13.5-37 20.3zm162-272c-3.3 1.9-7.7 2.9-9 5.5-1 2 1.2 8.3 2.8 8.6 3.4.7 7.4-1.2 11.1-2.1-1.7-4.2-2.9-7.3-4.9-12zm32.5-33.6c5.2-2 9-3.5 13.7-5.4-1-2.8-1.9-5.7-2.8-8.4-2.6.9-5 1.6-7.4 2.6-2.2.9-6.1 1.9-6.1 3-.1 2.7 1.6 5.4 2.6 8.2zm22.1 291.1c-10.7 2.9-18.5 9.7-27.3 14.6 8.8 1.9 25.4-6.8 27.3-14.6zm-41-306.3c-16.7 6.7-17 5.8-14.9 12.7 4-1 8.1-1.5 11.8-3.1 5.6-2.3 6.2-4.9 3.1-9.6zm6.9 255.9c-13-1.7-22.4 6.7-33.3 11 13.1 2 22-8.1 33.3-11zM322.8 204c1.7 2.1 3.8 6.2 5.1 5.9 3-.6 7.6-2.8 8-5.1.5-2.5-2.3-6.8-4.8-8.3-2.5-1.4-7.2 3.5-8.3 7.5zm-256 229c0-.3 0-.7.1-1-2.4.8-5.2 1.2-7.2 2.5-9.2 5.9-18.2 12-27.2 18.1-2.7 1.8-5.1 4-7.6 6.1.3.5.7.9 1 1.4C39.5 451 53.2 442 66.8 433zM9.2 450.8c.4.4.9.7 1.3 1.1 9.2-6.4 18.4-12.8 27.9-19.4-5.9-1.5-9.3.3-26.5 14.2-1.2 1-1.8 2.7-2.7 4.1zm339.1-264.4c1.3-1.1 5.2-3.1 5.1-4.8-.2-3.2-2.7-6.3-4.2-9.5-2.4 1.8-4.7 3.6-7.1 5.4 2.5 2.5-1.5 8.4 6.2 8.9zm46.5 9c-5.9-7.3-11-1.8-16-.4-1.2.3-1.6 3.2-2.4 4.9 1.7.7 3.8 2.4 5 1.9 4.5-1.6 8.7-4 13.4-6.4zm-26.8 13c-2-2.8-3.4-6.8-5.5-7.2-2.7-.5-6.8 1.1-8.6 3.2-1.6 1.9-.8 5.8-1.1 9.7 6.3-2.3 10.8-4.1 15.2-5.7zm191.5 228c10.1 1.4 25.1-7.5 24.2-13.9-8.2 4.8-16.2 9.4-24.2 13.9zm-244.1-33c.4 1 .8 1.9 1.2 2.9 10-4.8 20-9.5 30-14.3-.2-.6-.5-1.1-.7-1.7-11.7 1-20.1 9.3-30.5 13.1zm32.1-246.5c-3.2 2.1-7.4 3.4-8.4 5.9-1 2.5 1.1 6.3 1.9 9.8 3.6-1.8 6.1-3.1 8.3-4.2-.5-3.5-1-6.6-1.8-11.5zM45 405.6c10.9-2.1 19.5-9.3 29.1-14.1-11.9-.1-19.8 8.4-29.1 14.1zm299.1-187.7c-6.5-8.5-6.5-8.5-17.2-3.9 1.1 1.8 2 5 3.1 5.1 4.5.1 8.9-.7 14.1-1.2zm-117.2 239c1.3 3 9.6 3.9 14.9.7-7.2 2.9-8.3-3.2-10.9-7.5-4.8 2.8-9.2 5.4-13.5 8 .2.5.4 1.1.6 1.6 2.9-.9 5.9-1.8 8.9-2.8zm-32.8-64.2c-11.3.5-19.8 7.6-29.2 12.5 11.1-1.1 19.3-8.6 29.2-12.5zm274 11.3c.3.7.5 1.4.8 2.1 7.9-3.8 15.8-7.7 23.7-11.5-.2-.5-.4-.9-.6-1.4-9.2.8-16.6 5.6-23.9 10.8zm-290.7-.3c.3.6.6 1.2.9 1.9 10.4-3.1 19.5-9.2 29.1-13.9-.3-.6-.6-1.2-.8-1.8-9.8 4.6-19.5 9.2-29.2 13.8zM458 156.4c-4.9-2.3-9-4.1-14-6.5 2.7 12.8 3.8 13.2 14 6.5zm-251.4 302c4.9 1 23.8-9.7 25.2-15-8 4.9-16.2 9.7-25.2 15zm-125-65c-.4-.7-.8-1.5-1.2-2.2-8.3 4.5-16.5 9.1-24.8 13.6.5.8.9 1.6 1.4 2.5 8.2-4.7 16.4-9.3 24.6-13.9zM399.7 135c-.2-.8-.4-1.6-.6-2.5-5.6.4-11.2.8-17.2 1.2.8 2.4 1.4 4 2.2 6.3 5.3-1.8 10.4-3.4 15.6-5zm10.7 315.4c-4.3 2.5-8.7 5.1-14 8.1 5.9.3 10.7.6 15.4.7.4 0 1.4-1.9 1.2-2.7-.4-2-1.5-3.8-2.6-6.1zm-301.1-41.6c5.5-6.9 15.3-7 21.5-13.1-4.1-.5-22.2 7.8-23.1 10.5.6.9 1.3 2 1.6 2.6zm45.1-4.9c.4.8.7 1.6 1.1 2.4 8.2-3.8 16.4-7.7 24.6-11.5-.3-.7-.6-1.4-.9-2-8.3 3.6-16.6 7.3-24.8 11.1zm169.2-207.6c8.7-3.1 10-8 4.9-16.1-1.7 5.6-3.2 10.3-4.9 16.1zM143.8 403.5c.3.7.6 1.4.9 2.2 7.3-3.2 14.7-6.5 22-9.7-.3-.7-.6-1.3-.9-2-7.3 3.1-14.6 6.3-22 9.5zm275.6-222.2c-7-.6-15.5 3.6-16.3 9.1 5-2.8 10-5.6 16.3-9.1zM140.3 397.6c-3.6-2-8.8-.2-17.8 6.5 6.7.4 11.6-4.6 17.8-6.5zm-40.1 5.9c.3.7.5 1.4.8 2.2 6.1-3.1 12.2-6.3 18.3-9.4-.3-.7-.6-1.3-.9-2-6 3-12.1 6.1-18.2 9.2zm33.6-.4c.3.7.5 1.5.8 2.2 5.3-2.3 10.6-4.7 16-7-6.7-1.5-11.7 1.7-16.8 4.8zm1.7-101.1c.3.7.7 1.4 1 2.1 2.6-.5 5.3-.6 7.6-1.6 1.2-.5 1.7-2.6 2.6-4-1.4-.2-2.9-.8-4-.4-2.5 1-4.8 2.6-7.2 3.9zm449.3 127.7c-4.7 2.5-8.1 4.2-12.3 6.4 8.3 2.8 10.2 1.9 12.3-6.4zm-319.7 2.8c7.5 1.4 11.8-1.2 12-7.3-4 2.4-7.6 4.6-12 7.3zM154.8 271.4c-2.5-.1-5-.4-7.5-.4-.7 0-1.8.7-2 1.3-.2.6.2 1.7.8 2.2 3.2 3.3 6.8 1.9 8.7-3.1zm193-65.1c-.5.2-1.1.3-1.6.5.4 3.2.8 6.3 1.2 10.3 2.1-1.2 3.4-1.9 4.6-2.6-1.5-3-2.8-5.6-4.2-8.2zM500.4 452c1.9-3.1 3.3-5.2 5.2-8.4-6.7 1-7.5 2.3-5.2 8.4zM147.3 290.3c-.4-.9-.9-1.9-1.3-2.8-2.1 1.1-4.1 2.1-6.1 3.3-.1.1.6 1.6.9 2.5 2.1-1 4.3-2 6.5-3z"/>
  <path d="M9.3 384.2v-49.3c3.3 0 6.6-.2 9.9 0 8.9.6 17.8 1.4 26.8 2 1 .1 2.2 0 3-.5 7.4-4.9 14.9-.5 22.3-.4 8 .1 16.1 1.9 23.8.5 12.8-2.2 25.4-6.3 38.4-3.2 12.4 3 24.8.8 37.2 1.4 3.1.2 6.9.8 9.1 2.6 6.8 5.8 14.4 4.7 22.2 4.1 6.5-.5 12.1-2.8 16.7-7.4.8-.8 2.1-1.1 3.2-1.4 13.6-3 27-.4 40.4 1.5 5.9.8 12.3.9 18-.5 12-3 23.9-2.3 35.9-1.4 10.3.8 20.6 2.1 31 3 8.2.8 16.4 1.8 24.6 2.1 3.9.2 7.9-1.2 11.9-1.6 10.8-1 20.9 1 31 5.1 6 2.5 13.1 2.9 19.8 3.3 6.9.4 11.2-4.3 14.5-9.7 1.6-2.7 3.1-3.2 6.4-3.3 12.4 0 24.7-1.5 37.1-1.2 14.8.3 29.6 3 44.3 2.5 11.3-.4 22.1.7 33 2.4 3.6.6 7.4.2 11.1 0 3.5-.2 4.4 1.5 4.3 4.6-.5 9.8-1 19.5-1.1 29.3-.1 6.2.6 12.5.9 18.4-3.7.4-6.6 1.2-9.5 1-9.3-.6-18.6-1.4-27.8-2.6-12.7-1.6-25.4-4.3-38.2 0-3.4 1.1-7.5-.1-11.2.6-9.6 1.7-19.1 4.1-28.7 5.6-4.2.6-8.6-.4-12.9-.5-11-.3-22-.3-33-.9-4.5-.3-9.1-1.7-13.4-3.2-9.4-3.2-18.8-1.6-28.3-1.4-12.5.2-25.1-.1-37.6-.6-4.4-.2-8.8-3-13-2.7-7.8.6-15.7 2-23.3 4.1-12.7 3.5-25.7 3.1-38.5 4.4-12.6 1.2-23.3-5.4-35.3-6.1-3.7-.2-7.4.1-11.1.4-8.2.7-16.4 1.5-24.7 2.4-10.9 1.2-21.8 2-32.6 3.9-11.3 2-22.3 1.2-33.5-.6-6.5-1-13.4-.2-20-.5-3.8-.2-7.5-1-11.2-1.6-8.7-1.2-17.5-2.6-26.2-3.5-2.6-.3-5.3.8-7.9 1-11.3.9-22.5 2.1-33.8 2.3-4.5.1-9-2-13.6-3-3.6-.4-6.8-.8-10.4-1.4zm401-37.9c.2-.5.3-1.1.5-1.6-1-.5-2.1-1.3-3.1-1.3-10.5-.5-21-.8-31.5-1.2-9.3-.4-18.6-1.2-28-1.4-7.6-.2-15.2.5-22.8.3-7.3-.2-14.6-1.3-21.9-1.7-15-.8-29.9-1.6-44.9-1.8-11.8-.1-23.6.7-35.4 1.2-.9 0-1.7 1.5-2.5 2.3 1.3.5 2.6 1.4 3.9 1.4 11.8-.5 24-3.1 35.4-1.2 12.8 2.2 25.7-.5 38.4 3.5 6.6 2.1 14.6-.1 22-.4 4.4-.2 8.7-1.2 12.8 1.9 1.4 1 3.8.9 5.7.9 8.1-.2 16.2-.8 24.3-.8 15.6-.2 31.3-.1 47.1-.1zm-233.9-5.4c-.1-.6-.2-1.1-.3-1.7-19.2-2.2-38.4.4-57.3 1.8-18.7 1.3-37.5-2.5-56 2.6 3.6 1.1 7.2 1.4 10.8 1.4 9.8.1 19.6 0 29.5.2 2.3 0 4.6 1.3 6.8 1.1 10.3-.8 20.5-2.3 30.7-2.9 6.4-.4 12.8.6 19.2.2 5.6-.4 11.1-1.8 16.6-2.7zm168.5 30.3c-.2-.6-.3-1.2-.5-1.8-1.8.4-3.5.7-5.3 1.1-1.4.3-3.6 1.2-4 .7-2.6-3.7-5.4-1.6-8.4-.8-4.2 1-8.5 1.5-12.8 2.2-3.8.6-7.6 1.3-11.4 1.9v1.6c1 .3 2 .8 3 .7 11.4-.7 22.4-5.3 34.2-3.3 1.6.2 3.5-1.5 5.2-2.3zm-134.8.5.3 1.8c2.7-.3 6.7-1.9 7.8-.8 4.8 4.9 9.3-1 13.8.4.4.1 1.2-1.3 2-2.3-3.9-1.8-7.7-.1-11.6-2.2-2.8-1.4-8.1 1.9-12.3 3.1zM36.4 384.6c.4-.5.8-1.1 1.2-1.6-3.2-1.8-6.8-3.2-9.6-5.4-6.7-5.5-6.6-5.7-8.7-4.4 4.7 5.5 10.1 9.6 17.1 11.4zm445-10.5c5.9-1.2 10.5-2 15-3 .7-.2 1.3-1.5 1.7-2.4.1-.3-.7-1.2-1.2-1.5-2.6-1.1-12.7 2.8-15.5 6.9zm-73.8-2.5c-.4.5-.8 1.1-1.2 1.6 6 3.7 12 7.4 18.2 11.2.2-3.1-6.7-8.1-17-12.8zm50.1 9.1v-1.9c-5.3-1.6-10.5-1.7-15.7 0v2c5.3-.1 10.5-.1 15.7-.1zm-352.9.7c-5.9-.6-11.1-1.1-16.9-1.6 3.3 4.9 12.7 5.8 16.9 1.6zm32.7-.8c4.5 3 15.6 1.5 18.4-2.1-6.2.7-11.8 1.3-18.4 2.1zm-94.7-7.1c3.2 6 8.3 6.7 12.7 8.5.4.2 1.5-.8 1.9-1.5.2-.3-.4-1.5-.8-1.7-4.2-1.7-8.3-3.2-13.8-5.3zm156.3-2.5c4.6 3 11.8.4 14.5-4.5-4.8 1.5-9.1 2.8-14.5 4.5zm226.1 5.1c-.3.5-.7 1-1 1.6 3.2 1.9 6.4 3.8 9.7 5.5.4.2 1.4-.5 2.1-.8-.3-.7-.4-1.9-1-2.2-3.2-1.5-6.5-2.8-9.8-4.1zm-237.1-.1c-.2-.8-.4-1.5-.6-2.3-3.7 1-7.5 2-11.2 3.1.1.6.3 1.2.4 1.9 3.9-.9 7.6-1.8 11.4-2.7zM112.7 211.7c2-1.7 3.9-3.5 6-4.9 1.9-1.2 4-2 6.1-3-.2-.5-.4-1-.6-1.4-2.1.7-4.2 1.4-6.2 2.2-.2-.3-.3-.5-.5-.8 2.2-1.5 4.4-3.1 6.5-4.6-.3-.5-.5-.9-.8-1.4-5.3 3.1-10.7 6.1-16.9 9.6 5.6-9 16-10.5 22.5-16.8-.4-.6-.8-1.2-1.1-1.8-7.3 4.5-14.5 9.1-21.8 13.6-.4-.5-.7-1-1.1-1.4 7.6-6.1 15.2-12.2 22.7-18.3l-.9-1.2c-5.9 3.8-11.8 7.7-17.2 11.2 1.1-3.9 4-6.9 12.9-13.4 5.1-3.7 10.1-7.5 15.2-11.3-.6-.8-1.3-1.6-1.9-2.4-10.6 8.7-21.1 17.3-32.1 26.4 2.9-3.7 5.2-7.6 8.5-10.5 8.1-7.1 16.7-13.8 25.2-20.6 1.7-1.3 3.5-2.5 5.2-3.7-.6-.7-1.3-1.4-1.9-2.1-6.5 4.7-12.9 9.4-19.4 14.1-.2-.2-.4-.4-.7-.6 3.2-3.3 6.3-6.6 9.5-9.9-.5-.4-1-.9-1.4-1.3-6.3 5.4-12.7 10.8-19 16.1-.4-.3-.8-.6-1.1-.9l18-20.7c-9.7 3.6-13.9 12.7-20.4 19.4 2.1-7.7 7-13.5 12.8-18.5 10.8-9.3 23.8-14.7 37.5-16.9 10.8-1.7 22.3-.5 32.6 3.9 16.3 7 32.1 14.9 48.1 22.5.6.3 1 1 2.3 2.1-3.1 2.4-5.9 4.8-9 6.7-10.1 6.4-20.2 12.8-30.5 18.8-11.8 6.9-23.2 15.1-35.9 19.5-8.2 2.9-16 7.1-24.6 9.2-2.4.6-4.7 2.1-7.5 2 8.5-4.9 16.9-9.8 25.4-14.7-.4-.6-.7-1.3-1.1-1.9-8.7 4.7-17.3 9.3-26 14-.2-.4-.4-.7-.6-1.1 6.6-3.7 13.1-7.3 19.7-11-.3-.6-.6-1.2-.8-1.8l-16.2 7.5c-.2-.3-.4-.7-.5-1 2.9-2 5.9-4 8.8-6-.2-.4-.3-.8-.5-1.1-9.2 2.7-18.3 5.5-27.3 8.2zM251.2 197.7c-4.1 7.1-8 13.8-11.6 20.1-1.9.9-4.3 1.2-5.3 2.5-2.2 3.1-2.5 14.9-.4 18.7 1.6-3.3 2.9-5.9 4.4-8.9 2.1.2 5 .2 7.7.8 1.2.3 2.1 1.9 3.1 2.8-1.2.8-2.3 2.3-3.6 2.4-5.9.4-5.8.2-3.3 5.8 1 2.2 4.7 4.7 1 7.3-1.6 1.1-4.2 1.2-6.4 1.2-8.9.1-14.5 5.3-19.5 11.8-2.9 3.8-2.6 6.3 2.1 8.1 1.7.7 3.3 1.8 5.1 4.2-8.3 2.5-16.6 5.6-25 7.4-8 1.7-8.1 1.2-7.8 9 0 .9-.1 1.8-.2 3.6-3.9-1.7-7.4-3.3-10.9-4.7-7.8-3.2-7.5-3.1-4.3-10.8 1.8-4.2 3-8.7 3.7-13.1.9-4.8-3.5-9.1-10.4-10.2 3.5-5.5 6.8-10.7 10.6-16.6 1.7-.5 4.5-1.4 7.3-2.3 0-.8.1-1.5.1-2.3-7.4.3-13.4-1.3-13.4-9.6 0-2.9 1.3-8.1 2.5-8.3 3.9-.5 8 .9 12 1.5-.1.5-.1 1-.2 1.5 2.7-1 5.3-2 8.4-3.1-.9-1.6-1.6-2.9-2.8-4.9 1.7.1 2.7.1 3.6.3 3.4.5 4.3-1.3 2.6-3.7-2.3-3.1-5.3-5.6-7.7-8.1 2.3-1.6 5.5-4.3 9.2-6.3 1.3-.7 3.9-.5 5.1.3 7.4 4.9 15 4.6 21.8-1.3 2.5-2.2 10.1-1.5 12.5.8 1.2 1.1 3 1.6 4.5 2.1 1.6.8 3.3 1.3 5.5 2zM368.3 422.1c-1.4-5.7.6-7.8 5.6-10 10.9-4.7 21.1-10.8 31.7-16.1 1.7-.9 4.2-1.1 6.1-.6 5.1 1.3 10.1 3.2 16.3 5.2-25.1 14.1-49.8 28-74.5 41.9.3.5.5.9.8 1.4 10.1-5.6 20.2-11.1 30.3-16.7 15.1-8.6 30-17.5 45.3-25.8 3.6-2 8.2-2.2 12.4-2.9.8-.1 1.8 1.6 2 1.8 5.5-1.4 10.8-2.6 16-3.9.2.5.4 1.1.5 1.6-13.3 7.4-26.7 14.9-40 22.3.3.5.5.9.8 1.4 18.5-8.7 35.4-20.8 54.9-27.3.3.6.6 1.3.9 1.9-7.2 3.2-14.4 6.7-21.7 9.6-7.6 3-9.2 6-6.1 13.6.3.8.8 1.6 1.1 2.4 1.5 4.7 1.7 9.1-3.4 12-.4.2-.5 1.1-1.2 2.7 3.1-1.5 5.2-2.5 7.5-3.6-.7 5.5-.7 5.5-13.6 3.1 2.6-2.2 4.9-4.2 7.3-6.2-.3-.4-.6-.9-.8-1.3-2.9 1.9-5.6 3.9-8.6 5.6-3.2 1.8-6.5 4.2-9.8.3 7.1-4.1 14-8 21-12-.4-.7-.8-1.3-1.1-2-4.5 2.6-8.9 5.2-13.4 7.7-5.8 3.2-10.9 7.9-18.3 7.7-2-.1-4.2 2.6-6.2 4.1-.8.6-1.3 1.7-2.1 2.1-8.3 4.5-16.5 9-24.9 13.3-4.7 2.4-9.1 3.9-15 2.6-6.1-1.3-12.8.4-19.3.6-5.4.2-10.8 0-16.6-.9 6.4-4 12.8-8 19.1-12-.2-.4-.5-.9-.7-1.3-4.3 2.4-8.7 4.6-13 7.1-4.5 2.6-8.8 5.3-13.2 8-.3-.5-.7-1-1-1.5 1.5-1.4 2.9-2.7 4.4-4.1-.1-.2-.3-.5-.4-.7-1.9.7-3.7 1.5-5.6 2.2 1.2-4.6 18.4-14.9 37.6-22.5-.7 1.5-1.2 2.6-2.1 4.6 8.2-4.5 15.5-8.5 22.8-12.4-.3-.5-.5-1-.8-1.5-4.2 2.2-8.4 4.4-12.8 6.8 1.7-4.8 1.7-4.9 9.4-9.5 4.1-2.4 8.4-4.5 12.6-6.7-.2-.5-.5-1-.7-1.4-6.5 2.9-12.9 6-19.5 9.3zm45.2-4.1c-2.2.7-4.5 1.2-6.4 2.2-9.7 5.4-19.3 11-29 16.5-3.5 2-7 3.8-10.5 5.7.2.5.5.9.7 1.4.5 0 1.1.2 1.4 0 7.9-4.3 15.9-8.5 23.7-13.1 6.8-4 13.3-8.6 19.9-12.9 3.3-1.5 6.7-2.7 9.9-4.4 6.3-3.5 12.4-7.2 18.7-10.8-.4-.6-.7-1.2-1.1-1.8-9 5.8-18.1 11.5-27.3 17.2zm-30.9 23.1c.2.5.5 1.1.7 1.6l18.3-9.9c6-3.2 11.9-6.5 17.9-9.7-.3-.5-.7-1.1-1-1.6-12 6.5-24 13-35.9 19.6zm32.2-35.8c-.3-.5-.7-1.1-1-1.6l-32.7 18.6.9 1.5c10.9-6.2 21.9-12.4 32.8-18.5zm5.2 23c.3.6.7 1.2 1 1.8 8.5-4.5 17-9.1 25.5-13.6-.3-.5-.6-1.1-.9-1.6-8.6 4.5-17.1 8.9-25.6 13.4zm-38.2 21.8c.4.6.7 1.1 1.1 1.7 8.2-4.9 16.3-9.8 24.5-14.7-.3-.5-.7-1.1-1-1.6-8.3 4.8-16.4 9.7-24.6 14.6zm-.3-6.4c-.5-.5-.9-1-1.4-1.5-6.8 4.5-13.7 9-20.5 13.5.3.5.7.9 1 1.4 3.6-2.2 7.1-4.4 10.7-6.7 3.4-2.3 6.8-4.5 10.2-6.7zm23.3-38.7-.6-1.2c-4.9 2.4-9.8 4.9-14.7 7.3.3.7.7 1.3 1 2 4.7-2.8 9.5-5.4 14.3-8.1zM338 446.4l1.2 1.5c4.1-2.6 8.2-5.3 12.4-7.9-.3-.4-.5-.8-.8-1.2-4.3 2.6-8.6 5.1-12.8 7.6z" fill="#fff"/>
  <path d="M292.4 393.9c-37.5 20.8-73.5 40.8-109.5 60.8l.6 1.5c1.1-.3 2.4-.5 3.4-1 11.1-6.1 22.1-12.3 33.2-18.5 16.8-9.4 33.6-18.9 50.4-28.3 8-4.5 15.9-9.5 24.3-13.2 6-2.7 12.8-3.5 19.7-4.5-13.3 6.7-26.6 13.3-40 20 5 9.6 4.4 11.4-4.4 16-2.5 1.3-4.7 3.2-7.3 4.4-1.6.8-3.5.8-5.5.1 5.6-3.4 11.3-6.7 16.9-10.1-11.7 2.2-19.9 13-33.6 11.1 10.9-6.2 21.4-12.1 31.9-18.1-.3-.5-.6-1.1-.9-1.6-6 3.3-12 6.5-18 9.8-11.3 6.2-22.7 12.3-34 18.6-7 3.9-14.3 7.4-20.6 12.3-7.9 6.2-16.4 6.6-25.5 5.8-4.4-.4-8.9-.7-14.6-1.1 5.1-3.6 9.3-6.9 13.9-9.7 15.4-9.4 30.9-18.7 46.5-27.8 12.8-7.4 25.7-14.5 38.6-21.7 5.8-3.3 11.8-3.2 18.3-2.1 3.9.6 8.2-1.6 12.3-2.5.8 0 1.5 0 3.9-.2zM260.9 406c-10.6 2-53.8 27.4-55.7 31.6 18.7-10.6 37.2-21.1 55.7-31.6zm-77.3 42.1c.4.5.7.9 1.1 1.4l18-10.8c-.4-.5-.7-1.1-1.1-1.6-6 3.6-12 7.3-18 11zM468.2 410.4h58.6c7.7 0 8.4 1 7.7 8.3-.2 2.4.7 4.9.9 7.4.2 2.8.3 4.8-4.1 4.6-12.6-.6-25.3-.5-37.9-.5-10.1 0-20.2.1-30.3.4-4.6.1-7.3-1-7.2-6.2.1-2.1-.8-4.2-1.3-6.3-1.4-5.6-.2-7.3 5.7-7.7 2.6-.2 5.2-.3 7.8-.4.1.1.1.3.1.4z" fill="#fff"/>
  <path d="M307.2 410c15.5 0 31.1-.1 46.6 0 6.2 0 9.6 2.4 9.8 6.3.3 7.8-2.8 12.2-9.7 12.6-4.8.3-9.7-.9-14.5-.8-10.2.3-20.3 1.2-30.5 1.4-7.8.1-15.6-.3-23.4-1-1.3-.1-3.5-2.7-3.5-4.2-.1-14.5-2-14.3 12.6-14.2h12.5c.1.1.1 0 .1-.1zM449 177.5c-.1.8-.3 1.6-.4 2.4-.8 7.2-7 12.5-14.5 12.6-3.3 0-5-1-5-4.7 0-5 .6-8.5 6.4-10.9 9.2-3.7 17.6-9.2 26.5-13.7 1.6-.8 4.1-.8 5.8-.2 8.6 3.2 17.3 6.3 25.6 10.3 4.1 2 8.2 5.3 10.5 9.1 3 5.1-1.5 11.3-9.3 13.4 1.7-10.9-6.1-16.2-12.8-22.1-.7-.6-2.8.2-4.2.4l-.6 1.5c2.8 2.5 5.9 4.8 8.2 7.7 1.1 1.4 1.2 5.5.5 5.8-7.3 3.5-14.7 7.2-23 6.6-.3-.6-.5-1.1-.8-1.7 4.3-2.3 8.7-4.7 13.5-7.3-3.1-2.2-3.1-2.2-14.5.7-2.9-4.3-11.3-2.1-9.8-11.6-.8.6-1.4 1.2-2.1 1.7zM103.9 409.5c.2 4.3.5 8.1.6 11.9.2 3.2-1.2 4.9-4.6 5.5-20.6 3.5-41.2-1.1-61.8.1-3.8.2-7.5-1.2-6.2-6.6.3-1.2.2-2.4.1-3.7-.4-8.3-.4-8 8-7.6 11.6.4 23.3 1.3 34.7.1 9.9-1.2 19.4-.1 29.2.3zM115.4 408c6.2.6 11.7 1.4 17.2 1.6 7.2.3 14.4.1 21.5.2 9.7 0 19.3-.2 29 .3 2.4.1 5.5 1.5 4.7 5.7-.4 2.3.1 4.9.8 7.2 1.3 4.3-1.2 5.2-4.4 5.2-6.3-.1-12.5-.7-18.8-.8-5-.1-9.9.1-14.9.1-10.5.1-21 .4-31.5.1-1.3 0-3.4-2.6-3.5-4.1-.4-4.8-.1-9.7-.1-15.5zM315.3 453.8c-9 0-17.8-.1-26.5 0-13.8.1-27.6.4-41.4.5-2.5 0-5.1 0-7.3-.8-1.2-.4-2.4-2.4-2.6-3.9-.4-3.3-.1-6.7-.1-11.2 3.5-3.6 9.2-1.3 14.2-1.2 14.4.1 28.8.9 43.3 1.2 4.8.1 9.5-.1 14.3-.2 6.1-.1 7.9 1.9 7.4 8-.3 2.6-.9 5.1-1.3 7.6zM66.8 453.6c-.4-1.6-1.2-3.4-1.4-5.3-.8-8.5.7-10.1 9.2-10 12.6.1 25.2.4 37.8.3 4.8 0 9.7-1 14.5-1 5 0 10 .5 15 1.1.9.1 2.2 1.4 2.4 2.4.7 3.6 1 7.3 1.6 12.4-26.5.1-52.6.1-79.1.1z" fill="#fff"/>
  <path d="M246 394.7c-16.5 9.3-32.3 18.3-48.1 27.3.3.6.7 1.2 1 1.8 4.5-2.5 9-4.9 13.5-7.4 11.8-6.6 23.4-13.4 35.3-19.8 2.3-1.2 5.7-.4 8.9.6-6.7 3.8-13.5 7.6-20.1 11.5-24.1 14.3-48.5 28.2-72.2 43.2-7.2 4.6-13.9 7.6-21.7 6.7 9.5-5 19.5-10.2 29.4-15.5-.3-.6-.6-1.1-.9-1.7-6.8 3.8-13.7 7.5-20.9 11.5-.2-3.6 0-5.7 3.8-7.4 6.6-2.8 12.7-6.8 19-10.3l-.6-1.2c-3.4 1.6-6.7 3.2-10.1 4.8-1.9.9-3.7 2.1-5.6 3.1-2.3 1.1-4.6 4.4-7 0-2.7-5.2-2.4-8.1 2.5-10 3.3-1.3 7.2-1 10.8-1.5.1.6.2 1.1.3 1.7-4 2-7.9 4.1-11.9 6.1.2.4.4.9.6 1.3 2.5-1.1 5-2.3 7.6-3.3 5-2 9-7.9 15.9-3 1.9 1.3 6.5-1.3 9.8-2.1.2.4.3.8.5 1.3-3.5 2.2-7 4.4-11.1 7 9.7-.1 19.6-8.9 18.8-17-.6-6.2 4-7.2 7.3-9.2 9.6-5.6 19.9-10.2 29.3-16.3 5.2-3.3 9.9-4.1 15.9-2.2zM414.9 441.6h44.9c9 0 17.9-.1 26.9-.5 4.2-.2 6.9.3 6.6 5.7-.3 6.6-.7 7.4-7 7.5-18.1.3-36.3.5-54.4.7-3.2 0-6.3.4-9.5.5-3.6.1-5.5-1.1-5.6-5.2-.1-3.2-1.4-6.3-1.9-8.7zM509.4 439.5c25.1.7 49.7 1.4 75.1 2.2 0 2.4.3 5.6-.1 8.8-.1 1.2-1.7 3.1-2.7 3.2-7.4.6-14.9 1.1-22.3 1.2-6.8.1-13.5-.3-20.3-.5-8.2-.2-16.4-.3-24.5-.8-1.2-.1-3.4-2.7-3.3-2.9 3-4.3-1.8-7.4-1.9-11.2zM166.7 329.1c4.5-5.9 8.7-12.1 16.2-15 2.8-1.1 5.4-2.5 8.3-3.2 7.3-1.8 11.3 4 15.8 7.9 2.7 2.4 4.7 5.8 6.5 9.1 1.6 2.9 1 5.7-2.5 6.8-3.4 1.1-7 2.8-10.3 2.4-8.3-.9-17.6 1.3-23.9-7.1-.7-.9-3.3-.6-5-.5-1.5.1-2.9.7-4.3 1.1-.3-.6-.5-1-.8-1.5zM396.7 330.9c4.5-9.3 13.2-14.1 22.7-16.5 3.6-.9 8.7 2.3 12.5 4.6 4.2 2.6 7.8 6.2 11.6 9.5 3.3 2.9 2.7 6.4-1.1 8.6-7.3 4.1-15 2.8-22.5 1.1-7.8-1.7-15.2-4.7-23.2-7.3zM583.5 392.3c.7 1.3.8 1.5.8 1.7 3.8 11.9-5.8 15.4-13 20-7.8 4.9-16.1 9.2-24.1 13.6-1.7.9-3.5 1.7-5.5 2.6-.7-1.4-1.3-2.6-2.1-4.1 14.5-8.3 28.9-16.6 43.2-24.8-.3-.6-.7-1.2-1-1.8-13.3 7.6-26.6 15.3-40 23-3.6-4-.7-5.5 2-6.9 11.1-5.9 22.3-11.8 33.4-17.7.3-.1.3-.6 1-1.7-13.8 4.2-23.9 15.2-38.1 17.6.2-4.5 2.5-5.9 6-7.3 5.2-2.1 10.2-4.9 14.8-8.2 6.9-5.1 15.4-2.6 22.6-6zM363.7 334.5c6.9-11.7 12.8-21.8 19.1-32.5 6.6 6.2 12.9 12 18.9 17.5-2.9 3.3-6 7.2-9.6 10.8-1.1 1.1-3.2 1.4-4.9 1.7-5.1.8-10.2 1.5-15.3 2.1-2.2.3-4.4.2-8.2.4zM9.1 406.3v-15.4c10.7 2.1 20.9 4.1 31.1 6-2 1.4-4.7 3.3-8.6 6 9.4-.5 14.3-10.4 24.1-7.8-4.8 2.9-8.7 5.6-12.9 7.8-2.4 1.3-5.3 1.6-7.9 2.5-2.6.9-5.4 1.6-7.8 3-4.7 2.9-9.1 6.4-13.7 9.4-1.1.8-2.8.8-4.2 1.1-.3-.6-.6-1.1-.9-1.7 7.8-5.6 15.6-11.3 23.4-16.9-.4-.5-.7-1-1.1-1.6-7.1 4.8-14.1 9.7-21.2 14.5 1.1-8 9.6-8.4 13.2-14.3-4.2 2.4-8.5 4.7-13.5 7.4zM420.1 307.3c-1.7 1.4-2.8 2.8-4.3 3.4-3.9 1.6-7.9 3.1-12 3.9-.9.2-2.3-2.9-3.6-4.3-4.8-4.9-9.7-9.6-14.5-14.5-1.1-1.1-2.4-2.4-2.7-3.9-.4-1.9-.3-4.3.6-5.9.4-.7 3.8-.5 5.1.3 6.8 4.1 13.4 8.6 20.1 12.8 2.8 1.7 5.7 3.2 8.4 4.9 1 .7 1.6 1.8 2.9 3.3zM514.8 392.1c-12.7 2.6-22.7 12.4-36.8 13.4 13.6-13.4 44.5-19.9 63.3-13.2-11.5 4.6-20 14.1-34.7 12.5 8.8-4.5 16.2-8.3 23.7-12.1-13.2 1.8-22.8 13.3-37.3 11.2 7.2-4 14.5-7.9 21.8-11.8zM194.6 303.8c-5.2 2.2-10 3.7-14.2 6.1-2.7 1.5-4.5 1.4-6.7-.4-5.7-4.6-11.6-9-17.2-13.6-.8-.6-.8-2.2-1.2-3.3 1.3-.2 2.6-.5 3.9-.6 1.9-.1 4 .4 5.5-.4 3.8-1.9 6.6-.3 9.8 1.4 5.3 2.8 11 4.9 16.4 7.5 1.4.7 2.5 2.2 3.7 3.3zM138.6 269.5c-3 .8-8.4 1.3-8.5 2.5-1 7 6.7 2.9 9 6.2-3 4.2-9 7-13.4 4.4-2.6-1.5-4.3-6.2-4.7-9.7-.8-6 1-11.5 6.2-15.5 3.5-2.7 7.6-2.1 9.6 1.9 1.8 3.5 7.6 6.2 2.8 11.3-.3-.3-.7-.7-1-1.1zM158.1 286.1c2.6-.5 4.7-1 6.8-1.4-.9-2-1.5-4.1-2.7-5.9-1-1.4-2.6-2.4-4-3.6.7-2.8 1.2-5.9 2.3-8.6 1.6-4 4.5-7.6 9.2-6.7 4.3.8 5.9 4.4 5.7 9-.3 8-5.1 16.8-10.6 19.2-3.4 1.5-5.4.8-6.7-2zM328 389.4c-12.1 6-24.2 12-36.4 18-.3-.6-.7-1.2-1-1.8 3-1.8 6-3.6 9.1-5.4 6.7-3.7 13.2-8.2 20.3-10.8 4.9-1.8 10.8-.9 17.2-1.3-4.4 5.8-29.1 17.4-35.3 16.4 5.4-2.6 9.9-4.6 14.2-6.8 4.3-2.2 8.5-4.5 12.7-6.8-.3-.5-.6-1-.8-1.5zM565.3 425.4c-7 3.5-14 6.8-20.8 10.5-4.1 2.2-7.8 2.7-10.9.8 16.7-9.1 33.7-18.4 50.6-27.7.4.2.7.4 1.1.7-1.4 1.7-2.5 3.7-4.2 5-5.2 3.8-10.6 7.3-16 10.9.1 0 .2-.2.2-.2zM99.2 396.9c-6.7 2.9-13.4 5.9-20.1 8.8-.3-.5-.5-1.1-.8-1.6 4-2.5 8-5 12.1-7.4-.2-.5-.4-.9-.6-1.4-7.1 3.4-14.2 6.9-21.3 10.3-.3-.6-.5-1.1-.8-1.7 3.6-2 8.1-3.3 10.6-6.2 7-8.3 15.3-4.4 23.4-3.5 2.1.2 4.2.9 6.2 1.3-2.4 4.4-13.5 9.6-17.2 7.8 3.2-1.8 6.3-3.5 9.4-5.3-.5-.3-.7-.7-.9-1.1zM32.8 458.5c9.1-6.2 18.1-12.5 26.8-18.4 1.1 5.9 2.1 11.7 3.3 18.3-1.9.4-4.3.9-6.7 1.4-.5-.7-.9-1.4-1.4-2 1.9-.8 3.9-1.6 5.8-2.4-.4-.5-.8-1-1.3-1.5-3.7.6-8.4-1.4-10.4 4.2-.2.6-1.3 1.3-2 1.4-4.6.1-9.2.1-13.8.1-.1-.4-.2-.8-.3-1.1zm7.5-2.3c.3.7.6 1.4.9 2 5.3-3.3 10.5-6.6 15.8-9.9-.3-.6-.7-1.1-1-1.7-5.3 3.2-10.5 6.4-15.7 9.6zM365.6 407.3c13.4-3.8 23.9-14.6 38.2-15.2.3.4.5.9.8 1.3-.5.5-.9 1.3-1.5 1.6-10.3 5.2-20.6 10.3-30.9 15.6-3.2 1.6-5.4 1.6-6.6-3.3zM374.3 192.8c-6.5-10.1-5-12.9 8.4-17.1 1.7 4 3.4 8 5.4 12.5-4.7 1.6-9.2 3.1-13.8 4.6zM408.3 165.5c1.5 3.6 3 6.8 4.1 10.1.3 1-.5 3-1.3 3.5-2.6 1.5-5.4 2.6-8.2 3.5-.8.3-2.1-.7-3.1-1.3-.4-.2-.6-.9-.8-1.4-4.3-9.2-3.3-10.9 9.3-14.4z" fill="#fff"/>
  <path d="M193.2 415c-.6-1.7-1-3.1-1.4-4.3.9-2.6 38.6-19.9 43.2-19.1-14.4 8.1-27.9 15.7-41.8 23.4zM413.9 141.3c-.3-2.1-.5-3.9-.8-5.8 9.4-.3 16.8 6.4 17.1 15.1 0 .7-.8 1.7-1.5 2.1-1.2.7-2.7 1-3.9 1.6-3.7 2-6 1.5-6.9-3-.3-1.5-1.3-2.9-2.2-5l9.6-4.2c-.1-.6-.2-1.1-.3-1.7-3.5.4-7.2.6-11.1.9zM320.8 448.4c3.8-6.7 12.4-7.7 17.1-13.6-5.1 2.7-10.3 5.4-16.2 8.4-.2-2.1-.7-3.9-.3-4.2 5.2-3 9.9-7.3 16.7-6.3 3.1.5 6.3.7 10.4 1.1-9 5.6-17.6 11.1-26.1 16.5-.6-.6-1.1-1.2-1.6-1.9zM13.8 458.5c14.6-9.4 27.9-20.1 43.2-27.3-1.8 5.6-38.4 28.4-43.2 27.3zM363.2 167.3c5.1-2.5 8.9-4.3 13.7-6.7 1.2 4 4.3 8.7 3 11.2-1.4 2.9-7 5.5-10.3 5-2.4-.3-4.1-5.8-6.4-9.5zM432.7 155.2c1.4 4 2.6 7.6 4 11.6-2.2 1.1-4.3 2.1-6.3 3.1-2.5 1.3-5 3.4-6.7-1.1-2.8-7.5-2.4-9.7 2.6-11.5 2-.6 4-1.3 6.4-2.1zM389.1 156.8c5.4-2.4 9.6-4.2 14-6.1 1 4.1 3.1 7.9 2.3 10.8-.6 2.1-5 3.7-8 4.3-7.2 1.5-4.1-6.3-8.3-9zM360.7 392.7c-11 5.5-21.4 12.6-34.6 11.9 11.4-4.1 20.6-14.8 34.6-11.9zM186.8 406.2c12.6-6.8 24.3-15.8 39.3-16.7-13.2 5.4-24.5 15.3-39.3 16.7zM47.8 432.8c-12.8 8.8-25.7 17.6-39 26.7.2-3.1.2-5.3 4.1-7.1 5.6-2.7 10.5-6.9 15.6-10.4 4.6-3.2 9-6.5 13.7-9.5 1.4-.9 3.5-.7 5.2-1 .2.3.3.8.4 1.3zM358 404.3c3.7-1.8 7.6-3.5 11.2-5.4 4.2-2.2 8.1-5.2 12.4-6.9 3.6-1.4 7.8-1.5 11.8-1.6-15 10.7-28.5 16.3-35.4 13.9zM359.3 153.3c4.7-1.9 8.8-3.6 13.4-5.5 1 3.3 1.9 6.3 3.1 10.1-3.8 1.5-7.5 3.2-11.3 4.2-1 .3-3.1-1.4-3.7-2.6-1-1.9-1.1-4.1-1.5-6.2zM9.8 433.3c-.3-2.7.5-4.4 3.2-5.9 4.4-2.6 8.3-6.2 12.4-9.3l-.9-1.2c-4.9 3.1-9.7 6.1-14.6 9.2-.4-.5-.7-1.1-1.1-1.6 5.3-4.1 10.5-8.2 15.9-12.2.3-.2 2.7 1.2 2.8 2.2.7 4-.5 7.5-3.7 10.1l.2-.1c-4.7 2.9-9.5 5.9-14.2 8.8zM115.9 146.7c0-3.1-1.3-7.9.2-9.1 6.4-5.2 11.1-4.6 16.3 1.3-4.8 3-9.4 5.9-14.1 8.8-.8-.4-1.6-.7-2.4-1zM565.2 425.6c3.8-1.9 7.6-3.8 11.5-5.8 2.3-1.1 4.6-2.3 7.3-3.6-.4 5.6-28.6 21.6-35.8 20.7 6.1-4.1 11.6-7.8 17.2-11.6-.1.1-.2.3-.2.3zM193.9 458.2c12.3-6.8 24.7-13.5 37-20.3.4.8.8 1.5 1.2 2.3-12.8 6-22.6 17.5-37.4 19.7-.2-.6-.5-1.1-.8-1.7zM355.9 186.2c1.9 4.7 3.2 7.8 5 12-3.8.9-7.7 2.8-11.1 2.1-1.6-.3-3.9-6.6-2.8-8.6 1.3-2.6 5.6-3.6 8.9-5.5zM388.4 152.6c-1-2.8-2.7-5.5-2.6-8.1 0-1.1 3.9-2.1 6.1-3 2.4-1 4.8-1.7 7.4-2.6.9 2.7 1.9 5.5 2.8 8.4-4.7 1.7-8.5 3.2-13.7 5.3zM410.5 443.7c-2 7.8-18.5 16.5-27.3 14.6 8.8-4.9 16.6-11.7 27.3-14.6zM369.5 137.4c3.1 4.8 2.5 7.4-3 9.6-3.7 1.5-7.9 2.1-11.8 3.1-2.2-7-1.9-6.1 14.8-12.7zM376.4 393.3c-11.4 2.9-20.2 13-33.3 11 11-4.3 20.3-12.7 33.3-11z" fill="#fff"/>
  <path d="M23.8 424.6c2.2 2 4.4 4 6.9 6.2-7.1 4.8-13.4 9.1-19.8 13.4-.4-.5-.7-1-1.1-1.4 4.6-3.3 9.3-6.7 13.9-10-.3-.4-.6-.9-.9-1.3-4.2 2.6-8.5 5.3-13.4 8.3v-4.4c6-2.1 11.4-5 14.5-10.9.1 0-.1.1-.1.1zM322.8 204c1.1-4 5.8-9 8.3-7.5 2.5 1.5 5.3 5.9 4.8 8.3-.4 2.2-5 4.5-8 5.1-1.3.3-3.4-3.8-5.1-5.9zM66.8 433c-13.7 9-27.3 18-41 27-.3-.5-.7-.9-1-1.4 2.5-2 4.9-4.2 7.6-6.1 9-6.1 18-12.2 27.2-18.1 2.1-1.3 4.8-1.7 7.2-2.5.1.4 0 .7 0 1.1zM9.2 450.8c.9-1.4 1.5-3.1 2.7-4.1 17.2-13.9 20.6-15.7 26.5-14.2-9.5 6.6-18.7 13-27.9 19.4-.4-.4-.9-.8-1.3-1.1zM348.3 186.4c-7.7-.5-3.7-6.4-6.2-8.8 2.4-1.8 4.7-3.6 7.1-5.4 1.5 3.2 4 6.2 4.2 9.5.1 1.7-3.8 3.6-5.1 4.7zM394.8 195.4c-4.7 2.3-8.9 4.7-13.4 6.4-1.3.5-3.3-1.2-5-1.9.8-1.7 1.2-4.6 2.4-4.9 4.9-1.3 10.1-6.9 16 .4zM368 208.4c-4.3 1.6-8.9 3.4-15.1 5.7.3-3.9-.5-7.8 1.1-9.7 1.7-2.1 5.9-3.7 8.6-3.2 2 .4 3.4 4.3 5.4 7.2zM559.5 436.4c8-4.6 15.9-9.1 24.2-13.9.9 6.4-14.1 15.3-24.2 13.9zM315.4 403.4c10.4-3.8 18.8-12.2 30.4-13.1.2.6.5 1.1.7 1.7-10 4.8-20 9.5-30 14.3-.3-1-.7-1.9-1.1-2.9zM347.5 156.9c.8 5 1.3 8 1.9 11.5-2.2 1.1-4.7 2.4-8.3 4.2-.8-3.5-2.9-7.3-1.9-9.8 1-2.6 5.1-3.9 8.3-5.9zM45 405.6c9.3-5.7 17.2-14.1 29.1-14.1-9.6 4.8-18.2 12-29.1 14.1zM547.3 397.6c1.5-.6 2.9-1.3 4.4-1.7 2.7-.7 5.4-1.2 8.4-.7-8.1 4.8-15.3 11.3-24.7 12.8-.3-.6-.6-1.3-.9-1.9 4-2.2 7.9-4.4 11.8-6.7.6-.4.8-1.3 1.2-2-.1 0-.2.2-.2.2zM344.1 217.9c-5.2.5-9.7 1.3-14.1 1.1-1.1 0-2.1-3.3-3.1-5.1 10.7-4.6 10.7-4.6 17.2 4z" fill="#fff"/>
  <path d="M547.4 397.4c-4.7 2-9.4 4.1-14.1 5.9-2.9 1.1-6 1.7-9.3 1.6 8.2-4.6 15-11.9 25.8-11.6-1 1.7-1.8 3-2.6 4.3.1 0 .2-.2.2-.2zM226.9 456.9c-3 1-5.9 1.9-8.9 2.9-.2-.5-.4-1.1-.6-1.6 4.4-2.6 8.7-5.2 13.5-8 2.6 4.3 3.7 10.4 10.9 7.5-5.3 3.1-13.6 2.2-14.9-.8zM194.1 392.7c-9.9 3.8-18.1 11.4-29.2 12.5 9.4-4.9 17.9-11.9 29.2-12.5zM468.1 404c7.3-5.2 14.7-10 23.9-10.8.2.5.4.9.6 1.4-7.9 3.8-15.8 7.7-23.7 11.5-.2-.7-.5-1.4-.8-2.1zM177.4 403.7c9.7-4.6 19.4-9.2 29.1-13.9.3.6.6 1.2.8 1.8-9.6 4.8-18.7 10.9-29.1 13.9-.2-.6-.5-1.2-.8-1.8zM458 156.4c-10.2 6.7-11.3 6.2-14-6.5 5 2.4 9.1 4.3 14 6.5zM206.6 458.4c9-5.3 17.1-10.2 25.2-15-1.3 5.3-20.3 16-25.2 15zM81.6 393.4 57 407.2c-.5-.8-.9-1.6-1.4-2.5 8.3-4.5 16.5-9.1 24.8-13.6.4.8.8 1.6 1.2 2.3zM399.7 135c-5.1 1.6-10.3 3.2-15.7 5-.8-2.2-1.3-3.8-2.2-6.3 6-.4 11.6-.8 17.2-1.2.3.8.5 1.7.7 2.5zM410.4 450.4c1.1 2.4 2.1 4.1 2.6 6 .2.8-.8 2.7-1.2 2.7-4.7 0-9.5-.4-15.4-.7 5.3-3 9.7-5.5 14-8zM109.3 408.8c-.3-.5-1-1.7-1.6-2.6.9-2.7 19-11 23.1-10.5-6.2 6.1-15.9 6.2-21.5 13.1zM154.4 403.9c8.2-3.7 16.5-7.4 24.7-11.2.3.7.6 1.4.9 2-8.2 3.8-16.4 7.7-24.6 11.5-.3-.8-.7-1.6-1-2.3zM323.6 196.3c1.8-5.8 3.2-10.5 4.9-16.1 5.1 8.1 3.7 13-4.9 16.1zM143.8 403.5c7.4-3.2 14.7-6.4 22.1-9.6.3.7.6 1.3.9 2-7.3 3.2-14.7 6.5-22 9.7-.4-.6-.7-1.3-1-2.1zM419.4 181.3c-6.3 3.5-11.3 6.3-16.3 9.1.8-5.5 9.2-9.8 16.3-9.1zM140.3 397.6c-6.2 1.9-11.1 6.9-17.8 6.5 9-6.7 14.2-8.5 17.8-6.5zM100.2 403.5c6.1-3.1 12.1-6.2 18.2-9.2.3.7.6 1.3.9 2-6.1 3.1-12.2 6.3-18.3 9.4-.2-.8-.5-1.5-.8-2.2zM133.8 403.1c5-3 10-6.2 16.7-4.8-5.3 2.3-10.6 4.7-16 7-.2-.8-.4-1.5-.7-2.2zM135.5 302c2.4-1.3 4.7-2.9 7.2-3.9 1.1-.4 2.7.2 4 .4-.8 1.4-1.4 3.5-2.6 4-2.3 1-5.1 1.1-7.6 1.6-.3-.7-.7-1.4-1-2.1zM584.8 429.7c-2.1 8.3-4 9.2-12.3 6.4 4.2-2.2 7.6-3.9 12.3-6.4zM112.7 211.7c-3.8 3.5-3.9 7 .1 11.5-5.2 1.7-6.7-3.5-6.9-5.2-.3-3.7 2.3-6.6 6.8-6.3zM265.1 432.5c4.4-2.7 8-4.9 12-7.3-.2 6-4.5 8.6-12 7.3z" fill="#fff"/>
  <path d="M24 424.5c-3.2 5.9-8.6 8.7-14.5 10.9.1-.7.2-1.4.3-2 4.7-3 9.5-6 14.2-8.9z"/>
  <path d="M154.8 271.4c-1.9 5-5.5 6.4-8.8 3.1-.5-.5-1-1.7-.8-2.2.3-.6 1.3-1.3 2-1.3 2.6 0 5.1.3 7.6.4zM347.8 206.3c1.3 2.6 2.6 5.1 4.2 8.2-1.2.7-2.5 1.4-4.6 2.6-.5-3.9-.8-7.1-1.2-10.3.6-.2 1.1-.3 1.6-.5zM500.4 452c-2.3-6.1-1.5-7.4 5.2-8.4-1.9 3.1-3.2 5.3-5.2 8.4zM147.3 290.3c-2.2 1-4.3 2-6.5 2.9-.3-.9-1.1-2.4-.9-2.5 2-1.2 4.1-2.2 6.1-3.3.4 1 .8 2 1.3 2.9z" fill="#fff"/>
  <path d="M410.3 346.3c-15.8 0-31.5-.1-47.3 0-8.1.1-16.2.6-24.3.8-1.9 0-4.3.1-5.7-.9-4.1-3.1-8.4-2-12.8-1.9-7.4.3-15.3 2.5-22 .4-12.7-4-25.6-1.3-38.4-3.5-11.4-1.9-23.5.7-35.4 1.2-1.3.1-2.6-.9-3.9-1.4.8-.8 1.6-2.2 2.5-2.3 11.8-.6 23.6-1.3 35.4-1.2 15 .2 30 1 44.9 1.8 7.3.4 14.6 1.5 21.9 1.7 7.6.2 15.2-.5 22.8-.3 9.3.2 18.6 1 28 1.4 10.5.5 21 .8 31.5 1.2 1.1 0 2.1.9 3.1 1.3 0 .6-.1 1.1-.3 1.7zM176.4 340.9c-5.5.9-11 2.3-16.5 2.6-6.4.4-12.8-.6-19.2-.2-10.3.7-20.5 2.1-30.7 2.9-2.2.2-4.6-1.1-6.8-1.1-9.8-.2-19.6-.1-29.5-.2-3.6 0-7.2-.3-10.8-1.4 18.5-5.1 37.3-1.3 56-2.6 18.9-1.4 38.1-3.9 57.3-1.8 0 .7.1 1.2.2 1.8zM344.9 371.2c-1.7.8-3.6 2.5-5.1 2.2-11.7-2-22.8 2.6-34.2 3.3-1 .1-2-.5-3-.7v-1.6c3.8-.6 7.6-1.3 11.4-1.9 4.3-.7 8.6-1.2 12.8-2.2 3-.7 5.8-2.8 8.4.8.3.5 2.6-.4 4-.7 1.8-.4 3.5-.7 5.3-1.1 0 .7.2 1.3.4 1.9zM210.1 371.7c4.2-1.2 9.5-4.5 12.2-3.1 3.9 2.1 7.7.4 11.6 2.2-.8.9-1.6 2.4-2 2.3-4.5-1.3-9 4.5-13.8-.4-1.1-1.2-5.2.4-7.8.8 0-.6-.1-1.2-.2-1.8zM36.4 384.6c-7-1.8-12.4-5.9-17.2-11.5 2.1-1.2 2-1 8.7 4.4 2.8 2.3 6.4 3.7 9.6 5.4-.3.6-.7 1.2-1.1 1.7zM481.4 374.1c2.8-4.2 12.9-8 15.5-6.9.6.2 1.3 1.2 1.2 1.5-.3.9-.9 2.2-1.7 2.4-4.5 1.1-9.1 1.9-15 3zM407.6 371.6c10.4 4.7 17.3 9.7 17 12.8-6.2-3.8-12.2-7.5-18.2-11.2.4-.6.8-1.1 1.2-1.6zM457.7 380.7H442v-2c5.2-1.7 10.4-1.6 15.7 0v2zM104.8 381.4c-4.1 4.2-13.6 3.3-16.9-1.6 5.8.5 11 1 16.9 1.6zM137.5 380.6c6.6-.8 12.2-1.4 18.4-2.1-2.8 3.6-13.9 5.1-18.4 2.1zM42.8 373.5c5.5 2.1 9.6 3.7 13.7 5.3.5.2 1 1.4.8 1.7-.4.7-1.5 1.7-1.9 1.5-4.3-1.8-9.5-2.5-12.6-8.5zM199.1 371c5.4-1.7 9.7-3 14.5-4.5-2.7 4.9-9.9 7.4-14.5 4.5zM425.2 376.1c3.3 1.4 6.6 2.6 9.8 4.1.5.3.6 1.4 1 2.2-.7.3-1.7 1-2.1.8-3.3-1.7-6.4-3.7-9.7-5.5.3-.6.7-1.1 1-1.6zM188.1 376c-3.8.9-7.6 1.8-11.3 2.6-.1-.6-.3-1.2-.4-1.9 3.7-1 7.5-2 11.2-3.1.1.9.3 1.6.5 2.4zM413.4 417.9c-6.6 4.3-13.1 8.9-19.9 12.9-7.7 4.6-15.8 8.8-23.7 13.1-.4.2-.9 0-1.4 0-.2-.5-.5-.9-.7-1.4l10.5-5.7c9.7-5.5 19.3-11.1 29-16.5 2-1.1 4.3-1.5 6.4-2.2l-.2-.2zM382.6 441.1c12-6.5 23.9-13.1 35.9-19.6.3.5.7 1.1 1 1.6-6 3.2-11.9 6.5-17.9 9.7l-18.3 9.9c-.3-.6-.5-1.1-.7-1.6zM414.8 405.3c-11 6.2-21.9 12.3-32.9 18.5l-.9-1.5 32.7-18.6c.5.5.8 1 1.1 1.6zM420 428.3c8.5-4.5 17.1-8.9 25.6-13.4.3.5.6 1.1.9 1.6-8.5 4.5-17 9.1-25.5 13.6-.4-.6-.7-1.2-1-1.8zM381.8 450.1c8.2-4.9 16.3-9.8 24.5-14.6.3.5.7 1.1 1 1.6-8.2 4.9-16.3 9.8-24.5 14.7-.3-.6-.6-1.1-1-1.7z"/>
  <path d="M413.5 418c9.1-5.7 18.2-11.4 27.4-17.2.4.6.7 1.2 1.1 1.8-6.2 3.6-12.4 7.3-18.7 10.8-3.2 1.7-6.6 3-9.9 4.4 0 .1.1.2.1.2zM381.5 443.7l-10.2 6.6c-3.5 2.3-7.1 4.5-10.7 6.7-.3-.5-.7-.9-1-1.4 6.8-4.5 13.7-9 20.5-13.5.5.6.9 1.1 1.4 1.6zM404.8 405c-4.8 2.7-9.5 5.3-14.3 8-.3-.7-.7-1.3-1-2 4.9-2.4 9.8-4.9 14.7-7.3.2.5.4.9.6 1.3zM338 446.4c4.2-2.5 8.5-5 12.7-7.6.3.4.5.8.8 1.2-4.1 2.6-8.2 5.3-12.4 7.9-.3-.5-.7-1-1.1-1.5zM260.9 406c-18.5 10.5-36.9 21-55.7 31.6 1.8-4.2 45-29.6 55.7-31.6zM183.6 448.1l18-11.1c.4.5.7 1.1 1.1 1.6l-18 10.8c-.4-.4-.7-.9-1.1-1.3zM40.3 456.2c5.2-3.2 10.4-6.4 15.7-9.5.3.6.7 1.1 1 1.7-5.3 3.3-10.5 6.6-15.8 9.9-.3-.8-.6-1.4-.9-2.1z"/>
  <text transform="translate(67.392 53.525)"><tspan x="0" y="0" font-family="Peanuts" font-size="36">DON&apos;T I KNOW IT? AND NEW</tspan><tspan x="-52.7" y="43.2" font-family="Peanuts" font-size="36">YEAR&apos;S COMES RIGHT AFTER THAT</tspan></text>
</svg>
