<svg xmlns="http://www.w3.org/2000/svg" viewBox="0 0 595.3 461.9" xml:space="preserve">
  <path d="M0 0h595.5v461.9H0V0zm557.9 460.5v-.3c7.6 0 15.1-.1 22.7 0 5.8.1 7.4-1.3 7.5-7.2.3-24.6.7-49.2.9-73.9.2-17.9 0-35.8.2-53.6.2-26.4.7-52.9.9-79.3.2-23 .4-46 .4-68.9 0-21.3-.4-42.5-.3-63.8 0-10.2.8-20.5 1-30.7.2-12.7 0-25.4 0-38 0-10.8.4-21.5.1-32.3-.1-2.2-2.4-6-4-6.1-12.7-1-25.4-1.4-38.1-1.7-14-.3-28.1-.3-42.1-.3-26 0-52 .2-78 0-27.1-.2-54.1-1-81.2-1-49.1.1-98.2.7-147.3 1-2.9 0-5.7-.3-8.6-.3-21.2.1-42.4.3-63.7.3-18.5 0-37.1-.1-55.6-.3-11.7-.2-23.6-.7-35.5-.8-9.2-.1-18.5-.3-27.7.3-1.9.1-5.2 3.1-5.3 4.8-.4 9.1.1 18.2.1 27.3-.1 33.7-.2 67.3-.4 101-.1 18-.5 36.1-.7 54.1-.1 5.5-.1 11.1.1 16.6.2 8 1.7 16.2.7 24.1-1.2 9.6-.9 19-.7 28.5.3 20.9.4 41.8.3 62.7-.1 40.8-.4 81.6-.6 122.4 0 1.2.2 2.7-.3 3.7-2.3 4.4.3 6 3.8 6.8 2 .4 4.1 0 6.2.1 16.9.3 33.9.7 50.8.8 18.9.1 37.7-.2 56.6 0 18.3.2 36.5 1.1 54.8 1.1 50.7.2 101.3 0 152 .1 9.9 0 19.8.9 29.6.9 22.7.2 45.3.2 68 .2 27.8 0 55.6-.2 83.3 0 16.7.2 33.4 1.1 50.1 1.7z" fill="#fff"/>
  <path d="M557.9 460.5c-16.7-.6-33.5-1.5-50.2-1.6-27.8-.3-55.6 0-83.3 0-22.7 0-45.3 0-68-.2-9.9-.1-19.8-.9-29.6-.9-50.7-.1-101.3.1-152-.1-18.3-.1-36.5-.9-54.8-1.1-18.8-.2-37.7.1-56.6 0-16.9-.1-33.9-.5-50.8-.8-2.1 0-4.2.4-6.2-.1-3.5-.8-6.2-2.4-3.8-6.8.5-1 .3-2.5.3-3.7.2-40.8.5-81.6.6-122.4.1-20.9 0-41.8-.3-62.7-.1-9.5-.5-19 .7-28.5 1-7.9-.5-16-.7-24.1-.2-5.5-.2-11.1-.1-16.6.2-18 .6-36.1.7-54.1.3-33.8.4-67.4.5-101.1 0-9.1-.5-18.2-.1-27.3.1-1.8 3.4-4.7 5.3-4.8 9.2-.6 18.5-.4 27.7-.3 11.9.1 23.8.6 35.6.7 18.5.2 37.1.3 55.6.3 21.2 0 42.4-.2 63.7-.3 2.9 0 5.7.4 8.6.3 49.1-.3 98.2-.9 147.3-1 27.1-.1 54.1.8 81.2 1 26 .2 52 0 78 0 14 0 28.1 0 42.1.3 12.7.3 25.4.7 38.1 1.7 1.5.1 3.9 4 4 6.1.3 10.8-.1 21.5-.1 32.3 0 12.7.1 25.4 0 38-.1 10.2-.9 20.5-1 30.7 0 21.3.3 42.5.3 63.8 0 23-.2 46-.4 68.9-.3 26.4-.7 52.9-.9 79.3-.2 17.9 0 35.8-.2 53.6-.2 24.6-.6 49.2-.9 73.9-.1 5.9-1.7 7.2-7.5 7.2-7.6-.1-15.1 0-22.7 0 0 .2 0 .3-.1.4zM10.2 133.7c0 7.9.1 15.1 0 22.3-.1 7.1-.6 14.2-.5 21.3.1 5.6 1 11.3 1 16.9-.1 12.3-.8 24.6-.9 36.9-.1 19.5.3 39.1.2 58.7-.3 29.9-.9 59.9-1.3 89.8-.3 22.1-.4 44.3-.6 66.4 0 2.9.7 4 4.1 4 22.2.2 44.4.9 66.6 1.1 14.4.2 28.9-.3 43.3-.2 13.6 0 27.2.2 40.8.5 12.6.2 25.2.8 37.9.9 7.4 0 14.9-.9 22.3-.9 11.6 0 23.2.7 34.9.8 19.2.1 38.4-.2 57.6-.1 32.7.2 65.5.6 98.2.8 17.9.1 35.7-.4 53.6-.3 12.2 0 24.5.7 36.7.9 10.2.2 20.4.3 30.6.4 15.7.1 31.4 0 48.3 0 0-7.8-.1-15 0-22.2l.6-58.8c.2-26.2.3-52.3.3-78.5 0-6.6-.5-13.3-.4-19.9.3-16.6 1.1-33.2 1.3-49.8.1-9.2-1-18.5-1-27.7-.1-13.7.3-27.5.5-41.2.1-3.4.6-6.7.6-10 0-18.2-.1-36.4 0-54.6 0-5.6 1-11.3.9-16.9-.1-9.4-2.2-19.1-.7-28.3 1.7-10.2 0-20 .2-30 0-1.4-1.7-4-2.9-4.2-3.4-.5-7 .1-10.5.1-18.6 0-37.3.2-55.9-.1-9.1-.1-18.2-1.5-27.3-1.8-20.1-.7-40.2-1-60.3-1-16.1 0-32.2.4-48.3.5-11.6.1-23.1.3-34.7.1-16.2-.2-32.4-.9-48.7-.8-35.9.1-71.8.6-107.8.9-16.3.1-32.6.2-48.9.2-13.8 0-27.6-.4-41.4-.4-11.6-.1-23.2.1-34.9.2-15.7 0-31.5 0-47.2.1-1.9 0-3.8.2-5.6.2 0 17.3 0 34 .1 50.6 0 1.1 1.6 3.2 2.4 3.2 15.4.2 30.8.3 46.2.2 18.9-.1 37.8-.2 56.7-.6 9.3-.2 19.2 2.5 25.7-4.3 3 1.9 4.9 4.2 7 4.3 7.3.6 14.6.6 21.9.5 10.6-.1 21.2-.7 31.8-.7 10.2 0 20.5.6 30.7.6 3.9 0 7.9-.8 11.8-.8 5 0 10 .5 15.1.5 13.3 0 26.5-.2 39.8-.2h36.7c0-.4-.1-1.2.2-1.7 1-1.7 2.3-3.3 3.4-5 1 1.4 1.9 3 3.2 4.2 1.3 1.3 2.9 3.1 4.4 3.1 8.1.3 16.2.1 23.6.1 1.4-3.2 2.4-5.6 3.5-8 .6 0 1.2-.1 1.8-.1 1.2 2 2.2 4.2 3.6 6 .8 1 2.2 2.1 3.4 2.1 20 .1 40 .1 60 .1 9.3 0 18.7-.2 28 .1 14.4.4 28.8 1.5 43.2 1.8 17.7.3 35.4 0 53.1.1 4.2 0 7.2 1.7 6.9 6.9-.4 7.3-.5 14.7-.6 22.1-.2 12.3 0 24.6-.6 36.9-.1 2-3.2 5.6-5 5.7-11.7.5-23.4.3-35.1 0-20.8-.5-41.6-1.5-62.5-1.7-27.5-.4-54.9-.2-82.4-.4-10.6-.1-21.3-.5-31.9-.8-7.4-.3-14.9-.9-22.3-1-6.6 0-13.1.8-19.7.8-13.4 0-26.8-.6-40.2-.5-41.7.2-83.3.7-125 .8-25.1.1-50.2 1.6-75.3-1-10.3-1.1-20.8 1.1-31.4.1-10.6-1.2-21.4-.3-32.9-.3zm180.4-4.4c122.4 1 243.5 2 364.6 2.9v-11h-7.8c-16.6-.3-33.3-.7-49.9-1.1-6.7-.2-13.4-.6-20.2-.6-23.5-.2-47.1-.5-70.6-.4-4.4 0-8.9-.3-13 3.9-5.6 5.7-13.6 5-19.2.3-7.4-6.2-14.4-6.4-21.6-.7-6.9 5.4-12.6 4.5-17.8-2.5-.6-.8-1.8-1.5-2.9-1.6-2.2-.3-4.4 0-6.7-.1-4.2-.2-8.2-.3-10.5 4.2-1.1 2.1-2.4 4-4.1 6.7-2.5-3.2-3.6-4.4-4.4-5.7-2.4-3.7-4.8-3.7-7.6-.3-4.8 5.7-10.3 5.2-15.4-.4-1.9-2.1-5.3-3.8-8.1-4-7.3-.5-14.7.1-22.1.2-12.6 0-25.2-.2-37.8-.1-4.4 0-9.2-.8-13 .9-4.2 1.7-7.5 5.8-11.9 9.4zm366.6-59c-8.1 0-16.1.1-24.1 0-15.9-.2-31.7-.7-47.6-.8-33-.2-65.9-.1-98.9-.4-4.6 0-6.3 1.2-6.3 6.1 0 4.9 1.7 6.1 6.4 6.1 23.9-.3 47.8-.3 71.7-.3 3 0 6 .5 9.3.8 1.7-1.8 3.6-3.8 6.3-6.7-.3 2.7-.5 4.3-.8 6.3 5.1-1.1 11 3.7 14.2-2.8 4.1 1.2 7.8 3.1 11.5 3.3 17.1.6 34.3.7 51.5.9 7.6.1 7.6 0 7.4-8.1-.2-1-.4-2-.6-4.4zm-264.6-.2c-.2-.5-.4-1.1-.6-1.6H146v7c7 1.8 13.5 4.1 20.2 5.2 7.7 1.2 15.3.4 20.8-6.3 3-3.6 6.1-3.9 9.5-.3 5.2 5.6 11.3 7.8 19.3 7.5 19.5-.8 39.1-.8 58.6-.8 8.6 0 11.8-7.6 18.2-10.7zm194.1 34c-.2-.6-.3-1.2-.5-1.8-16.4 0-32.9.1-49.3 0-5.9 0-11.8-.8-17.7-.8-11.3-.1-22.7 0-34 .2-2 0-5.4-1-5.1 3.3.2 2.8.3 5.6.4 8.2 3.1-1.5 5.6-3.3 8.2-3.7 2.3-.4 6.4 0 7.2 1.4 2.4 4.5 5.9 3.8 9.7 3.9 17.3 0 34.6.1 51.9.2h28.3c-5.2-4.8-2.8-8 .9-10.9zM135.6 74.7c.6-6.4.6-6.3-6.7-6.4-5.6 0-11.3-.4-16.9-.4-21.4.1-42.8.3-64.2.5h-6.5c1.1 4.3 2 8 3 12.2h48.9c.7-3.4 1-5.9 1.8-8.2.3-.9 2.1-1.2 3.2-1.8.2 1.1.7 2.2.6 3.2-.6 4.9 1.1 7.4 6.3 7.2 6.1-.3 12.3.2 18.2-.8 4.1-.6 7.7-3.3 12.3-5.5zM10.1 113H70c6.6 0 13.1-.2 19.7 0 4.5.1 6.5-3.3 6.4-6.3-.1-3.7-3.2-6-7.7-5.8-8.2.3-16.5.2-24.7.2-16.1 0-32.2.1-48.3.1-1.7 0-3.5.2-5.4.3.1 3.9.1 7.4.1 11.5zm370.7-16.1c17.7 0 34.9-.1 52.1 0 11.6.1 23.3.5 34.9.5 1.2 0 2.9-1.3 3.5-2.5.4-.8-.5-2.7-1.4-3.5-3.8-3.8-7.8-6.4-13.9-4.7-3.5 1-7.5.1-11.3-.2-4.7-.3-9.4-1.2-14.1-1.2-6.3.1-12.5 1.1-18.8 1.1-7.2 0-14.5-.9-21.7-1-10.4-.1-10.4.1-9.8 10.5.2.5.4.8.5 1zM95.7 118.4c-2.8.3-6.1 1-9.5.9-9.6-.1-19.2-.8-28.7-.9-13.4-.1-26.8 0-40.2 0-7.5 0-7.5-.1-7.4 7.3 0 1 .2 2.1.4 4.2h85.4v-11.5zm181.6-16.5h-71.9c.5 3.9.7 6.9 1.4 9.8.3 1 2 2.1 3.1 2.3 3.3.5 6.8 1 10.1.9 16-.4 32-1 48-1.4 8-.2 8-.2 8.4-8.2.1-1.1.6-2.1.9-3.4zm.7-5.6c.6-11.4.6-11.3-9.2-11.2-18.5.2-36.9.4-55.4.7h-5.5v10.8c8.3 0 16.4-.1 24.4 0 7.5.1 15 .4 22.5-.2 7.6-.5 15.3-.1 23.2-.1zm278.3 19.3c.2-1.6.2-2.8.4-4 1.6-7.9 1.6-7.8-6.3-7.8-10.4-.1-20.8-.6-31.2-.6-9.7 0-19.9-1.7-27.6 6.7 2.2 4.6 5.8 5.9 10.8 5.4 4.6-.4 9.3.3 14 .3h39.9zM495.8 98H516c12.6.1 25.2.3 37.8.1 1.3 0 3.4-2.3 3.7-3.8.9-5.8-.4-6.8-6.4-6.8-13.7 0-27.3.1-41 0-11.3-.2-11.7 0-14.3 10.5zM35.2 89.8c-.2 3.3-.3 4.9-.4 7.3 19.7 0 38.9 0 58.2-.2.8 0 2.4-2.6 2.1-3.6-.7-2.9-2.1-5.6-3.3-8.4-8.8 0-18-.8-26.9.3-7.3.9-15.8-3.4-22 3.9-1.6 1.9-2.9 4.1-4.4 6.4-.9-1.4-1.7-2.8-3.3-5.7zM100 113h24.2c1.6 0 3.2-.7 4.6-.4 6.6 1.5 7.2 1.2 7.1-5.6v-5.2H103c-1.2 4.6-2.1 7.8-3 11.2zm36.1-27.6H98.8c1.3 4.3 2.3 7.8 3.5 11.6 8.4 0 17.6.1 26.7-.1 2.7-.1 7.1-.6 7.5-2 .9-2.9-.2-6.5-.4-9.5zm5.5 44.6c-2.8-3.3-5.5-6.5-8.2-9.7.4-.6.7-1.1 1.1-1.7h-31.3c-1.2 3.5-2.5 7.2-4 11.3 15.2.1 29 .1 42.4.1zM337 80.5v-5.1c0-6.8-.1-6.9-7-6.9-7.6 0-15.2 0-22.8.1-1.6 0-3.1.6-4.9.9 2.8 3.8 5.1 6.9 7.6 9.9.5.7 1.8 1 2.7 1 7.9.1 15.8.1 24.4.1zm-163.9 20.7c-6.3 0-12.3-.1-18.2 0-3.1 0-7.3-.7-8.8.9-1.7 1.7-1 5.9-.9 9 0 .9 1.8 2.6 2.7 2.6 4.5.1 9-.5 13.5-.5 11-.2 11-.2 11.7-12zm171.8-20.9c7.7.4 15.1.7 22.6 1.1 4 .2 6.5-.8 4.7-5.6-.3-.7.1-1.6.2-2.4.4-3.6-1.6-4.7-4.8-4.7-4 0-8 .2-12-.1-10.9-1-11.8-.2-10.7 11.7zm-161.3 49.5c-4.7-4.4-7.9-10-12.1-10.8-7.9-1.6-16.3-.5-24.4-.5l-.6 1.2c10.4 3.2 1.1 6.8.4 10 12.1.1 23.8.1 36.7.1zM345 85.7v10.8c6.5.3 12.6.8 18.7.9 9.7.1 9.7-.1 9.1-10.2 0-.3-.2-.7-.5-1.5H345zm-8 27.6c0-3.5.3-6.3-.1-8.9-.2-1.2-1.7-3.1-2.6-3.2-7.7-.3-15.3-.1-22.9-.1v12.2H337zM310.3 85c.2 2.9.2 5.6.7 8.1.3 1.3 1.5 3.4 2.4 3.4 7.8.3 15.7.2 23.3.2V85h-26.4zM145.8 96.2c8.2 0 16.1.1 23.9-.1 1.4 0 2.7-1.3 4-2-1.8-2.5 1.9-7.5-3.7-8.2-4.8-.6-9.6-1.1-14.4-1-10.3.1-10.3.3-9.8 11.3zm198.9 14.1c1.3-.4 2-.4 2.6-.8 7.9-4.9 8.6-4.5 14 3.2 1 1.5 4.5 2.1 6.6 1.8 1.5-.2 3.1-2.5 3.8-4.3.8-2.3.7-4.9 1.1-8.3h-28.1v8.4zM35.2 72.6c.6-.5 1.1-1 1.7-1.5-1-.9-2-2.5-3-2.5-7.5-.2-15-.1-22.8-.1-.2 2.7.1 4.9-.6 6.9-1.3 4 .2 5.2 4 5.2 4.7-.1 9.4 0 12.9 0 1.9-4 3.4-7.3 5.1-10.9 1.2 1.2 2 2 2.7 2.9zM10.5 96.3h20.4c-1.3-3.9-2.5-7.5-3.6-10.9H10.5v10.9zm171.2 16.1c1.5.6 3 1.7 4.1 1.5 3.6-.8 8.7 2.1 10.7-2.3 3.2-7.1.8-10.3-7.1-10.5-2.5-.1-5.1.8-7.7 1.2v10.1zm105-11.2c.2 3.6.1 5.9.4 8.2.1 1.1.5 2.7 1.3 3.3 4.5 3.3 12 0 12.8-5.4.1-.9.6-1.8.4-2.6-.4-1.2-1.2-3.2-1.9-3.3-4.3-.4-8.5-.2-13-.2zm.6-15.7c-.9 10.9-.7 11.3 5 11.4 8.2.1 10.4-1.7 9.8-7.9-.5-4.1-4.4-5-14.8-3.5zm-105.7.6c.2 2.7.1 5 .6 7.3.2 1.2 1.4 3 2.3 3 4.3.3 8.7.1 13 .1 1.2-10.6-.1-11.5-15.9-10.4zm296.1 1c7.7 5.3 1.1 7.2-1.4 10.2 8 1 11.6-1.9 12.6-10.2h-11.2zm87.2-3.5c5.1-3.6 1.4-8.2 1.7-12.8-2.2.2-3.9.4-6.6.6 2.8 4.2-2 10 4.9 12.2zm-3.7 20.4v11.2h5c.1-2.2-.2-4.3.4-6.1 2.1-5.5-.7-5.9-5.4-5.1zm5 16.7c-2.1.6-5.3.8-5.4 1.5-.5 3.1-.4 6.3.3 9.3.2.8 3.1 1.1 5.1 1.7v-12.5zm.1-20.9c0-4 .2-6.9-.1-9.7-.1-1-1.2-2.1-2.1-2.7-.4-.3-2.2.3-2.3.7-.5 2.9-1 6-.7 8.9.2 1 2.9 1.7 5.2 2.8z"/>
  <path d="M10.2 133.7c11.5 0 22.2-.8 32.8.2 10.6 1.1 21.1-1.2 31.4-.1 25.1 2.6 50.2 1.1 75.3 1 41.7-.1 83.3-.6 125-.8 13.4-.1 26.8.5 40.2.5 6.6 0 13.1-.8 19.7-.8 7.4 0 14.9.7 22.3 1 10.6.4 21.3.8 31.9.8 27.5.2 54.9 0 82.4.4 20.8.3 41.6 1.3 62.5 1.7 11.7.3 23.4.4 35.1 0 1.8-.1 4.9-3.6 5-5.7.6-12.3.4-24.6.6-36.9.1-7.4.2-14.7.6-22.1.3-5.2-2.6-6.9-6.9-6.9-17.7-.1-35.4.2-53.1-.1-14.4-.3-28.8-1.4-43.2-1.8-9.3-.3-18.7-.1-28-.1-20 0-40 .1-60-.1-1.1 0-2.6-1.1-3.4-2.1-1.4-1.9-2.4-4-3.6-6-.6 0-1.2.1-1.8.1-1 2.4-2.1 4.8-3.5 8-7.4 0-15.5.2-23.6-.1-1.5-.1-3.1-1.9-4.4-3.1-1.2-1.2-2.1-2.8-3.2-4.2-1.1 1.7-2.4 3.3-3.4 5-.3.5-.2 1.4-.2 1.7H300c-13.3 0-26.5.2-39.8.2-5 0-10-.5-15.1-.5-3.9 0-7.9.8-11.8.8-10.2-.1-20.5-.7-30.7-.6-10.6 0-21.2.6-31.8.7-7.3.1-14.6.1-21.9-.5-2.1-.2-4-2.4-7-4.3-6.5 6.8-16.4 4.1-25.7 4.3-18.8.5-37.7.7-56.6.7-15.4.1-30.8 0-46.2-.2-.9 0-2.4-2.1-2.4-3.2-.2-16.6-.2-33.3-.2-50.6 1.8-.1 3.7-.2 5.6-.2 15.8-.1 31.6-.1 47.3-.1 11.6 0 23.2-.3 34.8-.2 13.8 0 27.6.4 41.4.4 16.3 0 32.6 0 48.9-.2 35.9-.3 71.8-.8 107.8-.9 16.2-.1 32.4.7 48.7.8 11.6.1 23.1 0 34.7-.1 16.1-.2 32.2-.6 48.3-.5 20.1.1 40.2.3 60.4.8 9.1.2 18.2 1.6 27.3 1.8 18.6.3 37.3.1 55.9.1 3.5 0 7.1-.6 10.5-.1 1.2.2 2.9 2.7 2.9 4.2-.2 10 1.5 19.8-.2 30-1.6 9.1.6 18.8.7 28.3.1 5.6-.9 11.3-.9 16.9-.1 18.2 0 36.4 0 54.6 0 3.3-.6 6.7-.6 10-.2 13.7-.6 27.5-.5 41.2 0 9.2 1.1 18.5 1 27.7-.2 16.6-.9 33.2-1.3 49.8-.1 6.6.4 13.3.4 19.9l-.3 78.5c-.1 19.6-.4 39.2-.6 58.8-.1 7.2 0 14.4 0 22.2h-48.3c-10.2 0-20.4-.1-30.6-.4-12.2-.2-24.5-.9-36.7-.9-17.9-.1-35.7.4-53.6.3-32.7-.1-65.5-.6-98.2-.8-19.2-.1-38.4.2-57.6.1-11.6-.1-23.2-.8-34.9-.8-7.4 0-14.9 1-22.3.9-12.6-.1-25.2-.7-37.9-.9-13.6-.2-27.2-.4-40.8-.5-14.4 0-28.9.4-43.3.2-22.2-.2-44.4-.9-66.6-1.1-3.3 0-4.1-1.1-4.1-4 .2-22.1.3-44.3.6-66.4.4-29.9 1-59.9 1.3-89.8.2-19.5-.3-39.1-.2-58.7.1-12.3.8-24.6.9-36.9 0-5.6-.9-11.2-1-16.9-.1-7.1.4-14.2.5-21.3.1-7 0-14.2 0-22.1zm160 191.3c0-.8 0-1.5-.1-2.3 2.2-.5 4.4-1.5 6.6-1.5 9.3.1 17.7 5.2 27.5 4.1 9.4-1.1 14.8-3.4 18.4-12.2 1.2-2.9 2.2-4.6 5.9-4.8 6.2-.3 8.7-6 5.7-11.5-.6-1.1-.7-3.8-.2-4 6.8-3 13.8-8.1 20.5-7.8 8.2.4 14.7.5 20.9-5.7 5.4-5.3 6.7-9.2 5.2-16.6-1.5-7.3-7.3-10.8-11.6-15.7-1.5-1.7-3-3.7-3.8-5.8-1.2-3.2-1.2-6.8-2.7-9.8-2.4-4.6-5.9-8.6-8.3-13.2-1.4-2.6-1.6-5.8-2.4-8.7-.4-1.5-.7-3.1-1.4-4.5-4.3-8.5-9.7-15.9-18.2-20.7-1.1-.6-1.8-2.3-2.5-3.6-.8-1.6-1-4-2.3-4.8-6-3.9-12-7.8-18.4-10.8-6.1-2.9-12.8-4.7-19.2-7-.8-.3-1.8-.8-2.6-.6-6.7 1.6-13.3 3.4-20 5.1-.7.2-1.6-.1-2.9-.2 2.4-4.2 4.5-8 6.6-11.7-.4-.3-.8-.5-1.2-.8-.7.8-1.4 1.7-2.1 2.5-2.2 2.7-4.2 5.7-6.7 8.1-1.8 1.6-4.9 1.9-6.4 3.6-3.1 3.5-5.1 8-8.4 11.3-6.5 6.3-13.6 12-17.6 20.4-3.9 8.2-9.2 16.2-11 24.9-2.9 14-2.5 28.8 2.6 42.3 3.6 9.7 10 18.4 15.3 27.5 2.5 4.2 4.7 8 .1 12.4-3.2 3-5.9 6.6-9 9.8-8.1 8.4-17.1 16.2-24.4 25.3-10.5 13.1-19.8 27.1-29.6 40.8-.6.9-1.1 2.7-.7 3.3 2.9 4.1-.1 6.9-1.8 9.9-2.6 4.5-5.4 8.7-8 12.8-4.9 0-9.8-.2-14.7 0-8.9.4-17.7 1.3-26.6 1.7-5.2.2-6.7 2.5-5.1 7.7 2.1-.4 4.1-.7 6.4-1.1-.8 1.1-1.5 2.1-3 4.4 5.5-.5 9.6-1.5 13.6-1.2 15.5 1 31.2-3 46.5 1.9.3.1.7 0 1.1 0 14 1.5 27.9 4.7 42.1 3.1 4.9-.6 10.7 3.3 14.6-3.2.5-.8 5.7-.3 7 1.1 2.3 2.5 3.4 6.2 4.6 9.5 2.1 6 5 7.4 10.5 4.2 2.6-1.5 5.4-3.2 7.4-5.3 2.9-3.1 6.5-3.5 10.3-3.5 4.7.1 9.4.4 14.1.4 1.2 0 2.4-1 3.6-1.6l-.6-1.8H174c.6-1.2 1.2-1.6 1.9-1.6 7.7-.1 15.5-.6 23.1.2 3.5.3 8.8-.8 10 4.9 1.1 4.9 2.2 9.8 2.9 14.8.4 3.1-.2 6.1 4.6 6.3 4.7.2 5.4-3.1 6.1-6.1 1-4.4 1.3-8.9 2-13.8h20.2c0 .3 0 .6.1.9-5 .2-10 .5-15 .7-.1.6-.1 1.1-.2 1.7 1.5.4 3.1 1.1 4.6 1 5.2-.2 10.4-1 15.6-1.1 14.3-.3 28.6-.4 42.9-.7 1.6 0 3.4 0 4.8-.6 3.4-1.5 6.7-3.4 9.9-5.2.9 5.9 1.1 11.1 2.7 15.9.6 1.8 4.1 3.2 6.4 3.5 1 .1 3.1-2.9 3.5-4.7 1-4.7 1.4-9.5 1.9-12.7h10.2c1 0 2 .1 3 .1 12.1-.3 24.3-.6 36.4-1 1.3 0 2.6-.8 3.9-1.3 1.5-.6 3-1.8 4.5-1.8 8.5 0 16.9.5 25.4.6 6.3.1 12.7 0 19 0v-2.4h-18.8v-1.5H444c-2.3-2.2-4.6-3.7-7-4-11.9-1.1-23.8-2-35.7-2.8-3.1-.2-5.2-.3-4-4.6 1.1-3.8.7-8 1.6-11.8.3-1.3 2.5-2.6 4.1-3 5.7-1.4 11.7-1.8 17.2-3.8 9.5-3.5 13.4-8.1 13.1-17.1-.1-5-1.7-10.2-.7-15 .8-3.9-.9-5.4-2.7-7.8-3.9-5.1-9.7-4.1-14.7-4.6-9.5-1-19-.9-28.6-1.2-11.5-.4-23-1-34.5-1-13 0-26.1.7-39.1.7-9.8 0-19.6-.7-29.4-.8-12.5 0-25 .6-37.5.4-5.4-.1-8 2.3-8.2 6.9-.3 5.9-4.9 7.8-8.6 11.5-1.8-2.5-3-4.6-4.7-6.3-3.2-3.3-6-7.5-10-9.3-11.1-5-22.7-9-34-13.5-3.3-1.3-6.8-3.3-10.4-5.1zM153.4 51c.1.5.2 1 .3 1.4.9.1 1.9.5 2.7.3 7-1.8 14.2-3.3 21-5.9 13.2-5.1 27.1-6.3 40.8-7.2 18.9-1.2 37.9-.6 56.9.2 19.7.9 38.8 4.8 56.9 13 .9.4 2.6-.7 5.3-1.6-2.8-1.7-4.1-2.8-5.6-3.5-20.4-10-42.7-11.8-64.7-13.2-17.6-1.2-35.5-.2-53 1.7-16 1.8-31.7 6-47.4 9.6-4.6 1-8.9 3.4-13.2 5.2zm342 193c-.8-.8-1.7-1.5-2.5-2.3-12.5 12.6-23.4 26.7-34.9 40.3-11.5 13.7-24.5 26.1-34.7 40.8.6.5 1.3 1.1 1.9 1.6l70.2-80.4zM381 322.7c15.7-23.2 32.4-45.3 46.1-69.4-7.7 3.5-47.2 63.3-46.1 69.4zm-32-.2c6.2-4.8 14.3-37.6 10.5-43-3.5 14.6-6.8 28.1-10.5 43zm134.4-.6c-7.8.5-34.4 19.5-35 24.8 12.1-8.5 24.7-15 35-24.8zM322 299.3v19.8c3.8-3.9 3.3-16.8 0-19.8z" fill="#fff"/>
  <path d="M190.6 129.3c4.4-3.6 7.7-7.7 12-9.5 3.8-1.6 8.6-.8 13-.9 12.6 0 25.2.1 37.8.1 7.4 0 14.8-.6 22.1-.2 2.8.2 6.2 1.9 8.1 4 5 5.6 10.5 6.1 15.4.4 2.8-3.4 5.2-3.3 7.6.3.9 1.3 1.9 2.5 4.4 5.7 1.7-2.7 3-4.7 4.1-6.7 2.3-4.5 6.3-4.4 10.5-4.2 2.2.1 4.5-.1 6.7.1 1 .1 2.3.8 2.9 1.6 5.2 7 10.9 7.9 17.8 2.5 7.2-5.7 14.3-5.4 21.6.7 5.6 4.7 13.6 5.4 19.2-.3 4.2-4.3 8.6-3.9 13-3.9 23.5-.1 47.1.2 70.6.4 6.7.1 13.4.5 20.2.6 16.6.4 33.3.7 49.9 1.1 2.5.1 5 0 7.8 0v11c-121.2-.8-242.2-1.8-364.7-2.8zM557.2 70.3c.2 2.4.4 3.4.4 4.4.2 8.1.2 8.2-7.4 8.1-17.2-.2-34.3-.3-51.5-.9-3.7-.1-7.4-2.1-11.5-3.3-3.1 6.5-9.1 1.7-14.2 2.8.2-2 .4-3.6.8-6.3-2.7 2.8-4.6 4.9-6.3 6.7-3.3-.3-6.3-.8-9.3-.8-23.9 0-47.8 0-71.7.3-4.7.1-6.3-1.2-6.4-6.1 0-4.9 1.6-6.1 6.3-6.1 33 .2 65.9.2 98.9.4 15.9.1 31.7.6 47.6.8 8.2.1 16.2 0 24.3 0zM292.6 70.1c-6.3 3.1-9.6 10.6-18.2 10.7-19.5 0-39.1 0-58.6.8-8 .3-14.1-1.8-19.3-7.5-3.3-3.6-6.5-3.3-9.5.3-5.6 6.7-13.1 7.5-20.8 6.3-6.7-1.1-13.2-3.3-20.2-5.2v-7h146c.2.6.4 1.1.6 1.6zM486.7 104.1c-3.6 3-6 6.2-.9 10.9h-28.3c-17.3-.1-34.6-.2-51.9-.2-3.7 0-7.3.6-9.7-3.9-.7-1.4-4.8-1.8-7.2-1.4-2.7.4-5.1 2.2-8.2 3.7-.1-2.7-.2-5.5-.4-8.2-.4-4.3 3.1-3.2 5.1-3.3 11.3-.2 22.7-.3 34-.2 5.9.1 11.8.8 17.7.8 16.4.1 32.9 0 49.3 0 .1.6.3 1.2.5 1.8zM135.6 74.7c-4.6 2.2-8.2 4.9-12.2 5.5-6 1-12.2.5-18.2.8-5.2.2-6.9-2.4-6.3-7.2.1-1-.4-2.1-.6-3.2-1.1.6-2.8 1-3.2 1.8-.9 2.3-1.1 4.8-1.8 8.2H44.4c-1.1-4.3-2-7.9-3-12.2h6.5c21.4-.2 42.8-.4 64.2-.5 5.6 0 11.3.4 16.9.4 7.2.1 7.2 0 6.6 6.4zM10.1 113v-11.5c1.9-.1 3.6-.3 5.4-.3 16.1-.1 32.2-.1 48.3-.1 8.2 0 16.5.1 24.7-.2 4.4-.2 7.5 2.1 7.7 5.8.1 3-1.9 6.4-6.4 6.3-6.6-.2-13.1 0-19.7 0h-60zM380.8 96.9c-.1-.2-.3-.5-.3-.9-.7-10.4-.7-10.6 9.8-10.5 7.2.1 14.5 1 21.7 1 6.3 0 12.5-1.1 18.8-1.1 4.7 0 9.4.9 14.1 1.2 3.8.2 7.8 1.2 11.3.2 6.1-1.8 10.1.9 13.9 4.7.9.9 1.8 2.8 1.4 3.5-.6 1.2-2.3 2.5-3.5 2.5-11.6 0-23.3-.5-34.9-.5-17.4-.2-34.6-.1-52.3-.1zM95.7 118.4V130H10.3c-.2-2.1-.3-3.2-.4-4.2-.2-7.3-.2-7.3 7.4-7.3 13.4 0 26.8-.2 40.2 0 9.6.1 19.2.7 28.7.9 3.4 0 6.8-.7 9.5-1zM277.3 101.9c-.3 1.3-.8 2.3-.8 3.3-.4 8.1-.4 8-8.4 8.2-16 .5-32 1-48 1.4-3.4.1-6.8-.3-10.1-.9-1.2-.2-2.9-1.3-3.1-2.3-.8-2.9-.9-5.9-1.4-9.8 23.9.1 47.5.1 71.8.1zM278 96.3c-7.9 0-15.6-.4-23.2.1-7.5.6-15 .3-22.5.2-8-.2-16.1 0-24.4 0V85.8h5.5c18.5-.2 36.9-.4 55.4-.7 9.8-.1 9.8-.2 9.2 11.2zM556.3 115.6h-39.8c-4.7 0-9.4-.7-14-.3-5 .5-8.6-.8-10.8-5.4 7.7-8.4 17.9-6.7 27.6-6.7 10.4 0 20.8.5 31.2.6 7.9.1 7.9-.1 6.3 7.8-.4 1.2-.4 2.4-.5 4zm-3.1-4.4v-3.8c-1.9 0-4-.4-5.8.1-.6.2-.6 2.6-.8 4.1 2.2-.1 4.4-.3 6.6-.4zM495.8 98c2.7-10.5 3-10.7 14.3-10.6 13.7.1 27.3.1 41 0 6 0 7.3 1.1 6.4 6.8-.2 1.5-2.4 3.8-3.7 3.8-12.6.2-25.2 0-37.8-.1-6.7.1-13.4.1-20.2.1zm55-8.1c-1.1-.8-2.2-1.6-3.4-2.3-.5 2-1.3 4-1.3 6 0 .8 1.8 2.6 2.4 2.4 1.7-.4 3.1-1.6 4.6-2.5-.7-1.2-1.5-2.4-2.3-3.6zM35.2 89.8c1.6 2.8 2.4 4.2 3.3 5.7 1.6-2.3 2.8-4.5 4.4-6.4 6.1-7.3 14.6-3 22-3.9 9-1 18.2-.3 26.9-.3 1.2 2.8 2.6 5.5 3.3 8.4.2 1-1.4 3.6-2.1 3.6-19.2.2-38.5.2-58.2.2.1-2.4.2-4 .4-7.3zM100 113c.9-3.4 1.8-6.7 3.1-11.2H136v5.2c0 6.8-.5 7.2-7.1 5.6-1.4-.3-3.1.4-4.6.4-7.8.1-15.6 0-24.3 0zM136.1 85.4c.2 3 1.4 6.6.4 9.5-.5 1.4-4.9 1.9-7.5 2-9.1.2-18.2.1-26.7.1-1.1-3.8-2.2-7.3-3.5-11.6h37.3zM141.6 130H99.2c1.5-4.2 2.8-7.8 4-11.3h31.3c-.4.6-.7 1.1-1.1 1.7 2.7 3.1 5.4 6.3 8.2 9.6zM337 80.5h-24.4c-.9 0-2.2-.4-2.7-1-2.5-3-4.7-6.2-7.6-9.9 1.8-.3 3.3-.9 4.9-.9 7.6-.1 15.2-.1 22.8-.1 6.9 0 7 .1 7 6.9v5zM173.1 101.2c-.7 11.8-.7 11.8-11.6 11.9-4.5.1-9 .6-13.5.5-1 0-2.7-1.6-2.7-2.6-.1-3.1-.8-7.2.9-9 1.5-1.6 5.8-.8 8.8-.9 5.9 0 11.8.1 18.1.1zM344.9 80.3c-1.1-11.9-.2-12.7 10.8-11.8 4 .3 8 .1 12 .1 3.2 0 5.2 1.1 4.8 4.7-.1.8-.5 1.8-.2 2.4 1.7 4.8-.7 5.8-4.7 5.6-7.5-.3-15-.6-22.7-1zM183.6 129.8h-36.7c.7-3.3 10-6.8-.4-10l.6-1.2c8.2 0 16.6-1.1 24.4.5 4.2.7 7.5 6.3 12.1 10.7zM345 85.7h27.3c.3.8.5 1.2.5 1.5.6 10.1.6 10.3-9.1 10.2-6.1 0-12.2-.5-18.7-.9V85.7zM337 113.3h-25.7v-12.2c7.6 0 15.2-.1 22.9.1 1 0 2.5 1.9 2.6 3.2.5 2.6.2 5.3.2 8.9zM310.3 85h26.4v11.7c-7.7 0-15.5.1-23.3-.2-.9 0-2.1-2.1-2.4-3.4-.5-2.5-.5-5.2-.7-8.1zM145.8 96.2c-.6-11-.6-11.2 9.9-11.3 4.8-.1 9.6.5 14.4 1 5.5.7 1.8 5.7 3.7 8.2-1.3.7-2.7 2-4 2-7.9.2-15.7.1-24 .1zM344.7 110.3v-8.4h28.1c-.4 3.5-.3 6.1-1.1 8.3-.6 1.7-2.3 4.1-3.8 4.3-2.1.3-5.6-.3-6.6-1.8-5.3-7.7-6.1-8.1-14-3.2-.6.4-1.3.5-2.6.8zM35.2 72.6c-.8-.9-1.5-1.7-2.7-3.1-1.7 3.6-3.2 6.9-5.1 10.9-3.5 0-8.2-.1-12.9 0-3.7.1-5.3-1.2-4-5.2.6-2 .4-4.2.6-6.9 7.7 0 15.3-.1 22.8.1 1 0 2 1.6 3 2.5-.5.7-1.1 1.2-1.7 1.7zM10.5 96.3V85.4h16.8c1.1 3.4 2.3 7 3.6 10.9H10.5zM181.7 112.4v-10.1c2.6-.4 5.2-1.3 7.7-1.2 7.9.2 10.4 3.4 7.1 10.5-2 4.4-7.1 1.5-10.7 2.3-1.1.2-2.5-.9-4.1-1.5zM286.7 101.2c4.5 0 8.8-.2 13 .2.7.1 1.5 2 1.9 3.3.2.7-.3 1.7-.4 2.6-.8 5.4-8.4 8.7-12.8 5.4-.8-.6-1.1-2.1-1.3-3.3-.3-2.3-.3-4.6-.4-8.2zM287.3 85.5C297.7 84 301.6 85 302 89c.6 6.2-1.6 8-9.8 7.9-5.7-.1-5.9-.6-4.9-11.4zM181.6 86.1c15.8-1.1 17.2-.2 15.8 10.5-4.3 0-8.7.2-13-.1-.8-.1-2-1.9-2.3-3-.5-2.3-.4-4.7-.5-7.4zM477.7 87.1h11.2c-1 8.2-4.5 11.2-12.6 10.2 2.5-2.9 9.1-4.9 1.4-10.2zM564.9 83.6c-6.9-2.2-2.1-8-4.9-12.1 2.7-.3 4.4-.4 6.6-.6-.3 4.4 3.4 9.1-1.7 12.7zM561.2 104c4.8-.7 7.5-.3 5.4 5.2-.7 1.7-.3 3.8-.4 6.1h-5V104zM566.2 120.7v12.5c-2-.6-4.9-.9-5.1-1.7-.7-3-.8-6.3-.3-9.3.2-.7 3.3-.9 5.4-1.5zM566.3 99.8c-2.3-1.2-5-1.8-5.1-2.8-.3-2.9.2-5.9.7-8.9.1-.4 1.8-1 2.3-.7.9.6 2 1.7 2.1 2.7.2 2.9 0 5.7 0 9.7z" fill="#fff"/>
  <path d="M170.2 325c3.6 1.8 7 3.8 10.7 5.3 11.3 4.5 22.9 8.5 34 13.5 3.9 1.8 6.8 6 10 9.3 1.6 1.7 2.9 3.8 4.7 6.3 3.7-3.7 8.2-5.6 8.6-11.5.3-4.7 2.8-7.1 8.2-6.9 12.5.3 25-.4 37.5-.4 9.8 0 19.6.8 29.4.8 13 0 26.1-.7 39.1-.7 11.5 0 23 .7 34.5 1 9.5.3 19.1.2 28.6 1.2 5 .5 10.8-.5 14.7 4.6 1.8 2.4 3.6 3.9 2.7 7.8-1 4.7.6 9.9.7 15 .2 9-3.6 13.6-13.1 17.1-5.5 2-11.5 2.4-17.2 3.8-1.6.4-3.7 1.7-4.1 3-.9 3.9-.6 8-1.6 11.8-1.2 4.3.9 4.4 4 4.6 11.9.8 23.8 1.7 35.7 2.8 2.4.2 4.7 1.7 7 4h-38.4v1.5h18.8v2.4c-6.3 0-12.7.1-19 0-8.5-.1-16.9-.6-25.4-.6-1.5 0-3 1.2-4.5 1.8-1.3.5-2.6 1.3-3.9 1.3-12.1.4-24.3.7-36.4 1-1 0-2-.1-3-.1h-10.2c-.4 3.2-.8 8-1.9 12.7-.4 1.9-2.5 4.9-3.5 4.7-2.3-.3-5.9-1.8-6.4-3.5-1.5-4.8-1.8-10.1-2.7-15.9-3.3 1.7-6.5 3.6-9.9 5.2-1.4.6-3.2.6-4.8.6-14.3.2-28.6.3-42.9.7-5.2.1-10.4.9-15.6 1.1-1.5.1-3-.7-4.6-1 .1-.6.1-1.1.2-1.7 5-.2 10-.5 15-.7 0-.3 0-.6-.1-.9h-20.2c-.7 4.8-1 9.4-2 13.8-.7 3-1.4 6.2-6.1 6.1-4.8-.2-4.2-3.2-4.6-6.3-.7-5-1.8-9.9-2.9-14.8-1.2-5.7-6.5-4.6-10-4.9-7.6-.7-15.4-.2-23.1-.2-.6 0-1.3.4-1.9 1.6h19.8l.6 1.8c-1.2.6-2.4 1.6-3.6 1.6-4.7 0-9.4-.3-14.1-.4-3.8-.1-7.3.4-10.3 3.5-2.1 2.2-4.8 3.8-7.4 5.3-5.5 3.2-8.4 1.9-10.5-4.2-1.1-3.3-2.3-7-4.6-9.5-1.3-1.5-6.5-2-7-1.1-3.9 6.5-9.7 2.7-14.6 3.2-14.2 1.6-28.1-1.6-42.1-3.1-.4 0-.8.1-1.1 0-15.3-4.9-31-.9-46.5-1.9-4.1-.3-8.2.7-13.6 1.2 1.6-2.3 2.2-3.3 3-4.4-2.3.4-4.3.7-6.4 1.1-1.6-5.2 0-7.5 5.1-7.7 8.9-.4 17.7-1.2 26.6-1.7 4.9-.2 9.8 0 14.7 0 2.6-4.1 5.4-8.4 8-12.8 1.7-3 4.8-5.9 1.8-9.9-.5-.6 0-2.4.7-3.3 9.8-13.7 19.1-27.7 29.6-40.8 7.3-9.1 16.2-16.9 24.4-25.3 3.1-3.2 5.7-6.8 9-9.8 4.7-4.3 2.4-8.2-.1-12.4-5.3-9.1-11.7-17.8-15.3-27.5-5.1-13.5-5.5-28.2-2.6-42.3 1.8-8.7 7.1-16.7 11-24.9 4-8.4 11.1-14.1 17.6-20.4 3.3-3.2 5.3-7.8 8.4-11.3 1.5-1.7 4.7-2 6.4-3.6 2.5-2.4 4.5-5.4 6.7-8.1.7-.9 1.4-1.7 2.1-2.5.4.3.8.5 1.2.8-2.1 3.7-4.2 7.5-6.6 11.7 1.3.1 2.1.4 2.9.2 6.7-1.7 13.3-3.5 20-5.1.8-.2 1.7.3 2.6.6 6.4 2.3 13.1 4.1 19.2 7 6.4 3 12.4 7 18.4 10.8 1.3.8 1.5 3.2 2.3 4.8.7 1.3 1.3 2.9 2.5 3.6 8.5 4.8 13.9 12.2 18.2 20.7.7 1.4 1 3 1.4 4.5.8 2.9 1 6.1 2.4 8.7 2.4 4.6 6 8.6 8.3 13.2 1.5 2.9 1.5 6.6 2.7 9.8.8 2.1 2.3 4 3.8 5.8 4.2 4.9 10 8.4 11.6 15.7 1.6 7.4.3 11.3-5.2 16.6-6.2 6.2-12.7 6.1-20.9 5.7-6.7-.3-13.7 4.8-20.5 7.8-.5.2-.4 2.9.2 4 3 5.4.5 11.2-5.7 11.5-3.7.2-4.7 1.9-5.9 4.8-3.6 8.8-8.9 11.1-18.4 12.2-9.8 1.1-18.2-4-27.5-4.1-2.2 0-4.4 1-6.6 1.5-.2.6-.2 1.3-.2 2.1zm-31.1-133.7h-.9c-1.5 1.3-3.4 2.4-4.3 4.1-2.5 5.1-4.7 10.3-6.6 15.5-2.4 6.5-5.8 13.1-6.3 19.8-.6 7.9 1.5 16.1 2.5 24.1.2 1.3 1 2.4 1.5 3.6.4-.1.8-.2 1.1-.3-.8-5-1.5-9.9-2.3-14.9.6-.2 1.2-.4 1.7-.6 5.1 10.9 3.1 25.9 17.3 31.8.7-3.2 1.4-6.6 2.3-10.9 1.3 1.9 1.9 2.9 2.9 4.2 1.1-3.8 2-6.9 3-10.2 2.9 1.3 5.1 2.2 6 2.6 4-1.7 6.8-2.9 9.7-4.1l1.2 2.1c-2.4 1.6-4.5 4-7.1 4.7-8.5 2.2-10.9 11.1-17.2 15.5-.3.2.2 1.4 0 2-.5 1.7-1.1 3.4-1.9 5.6 1.5 4.3 5.9 8.5 3.6 14.8-.5 1.3.6 4 1.9 5.1 5.8 5.1 11.9 9.8 18.1 14.8.7-.6 1.5-1 2-1.7 3.4-5.2 7.9-4.9 13-3.3 4 1.3 8.2 2 13.6 3.2-2.7-8.8 2.9-17.1-3.5-25.4h11.3c-5.6 9.1-2.5 17.8-1.6 26.4 10.6 1.6 17.6-3.5 19.2-13.9.3-1.8 1-3.6 1.7-5.8 2.1 1.2 3.5 2.4 4.9 2.6 1.6.2 3.3-.5 5-.8-.7-1.3-1.2-2.8-2-4-1.1-1.6-2.5-3.1-3.8-4.6-3.1.8-6.4 1.7-9.8 2.5-.2-.6-.4-1.1-.5-1.7 3.3-4.6 8-8.1 13.6-7.3 8.3 1.3 13-5.3 20.9-6.6-5.1-6.2-9.3-11.4-13.5-16.5.6-.1 1.2-.2 1.7-.3.2-2.2 1.1-4.6.5-6.6-1-3.3-.1-4.9 3.6-6.4-1 6.6 1.2 11.3 6.4 14.6 1.1.7 1.8 1.8 2.8 2.5 2.6 2.1 3.9 4.2.1 6.4 2.7 2.6 5.3 2.8 6.9-.3 1.2-2.2 1.8-4.8 2.2-7.3.5-3.5.7-7.1 1-10.6.7 0 1.5 0 2.2.1.8 4.1 2.3 8.2 2.1 12.3-.2 4-2.2 8-3.4 12 7 2.5 14.7-2.6 14.6-9.8-.1-6.4-3.4-11.3-7.3-16.3-5.5-7-11.8-14.1-14.6-22.2-3.4-10.1-11.3-18.6-11-30 0-.7-1.4-1.3-2.2-2-1-.8-2.1-1.4-2.9-2.3-5.5-6.3-10.2-13.8-16.7-18.7-6.7-5-15.1-8.2-23.2-11-5.9-2-12.8-1.3-18.8-3.2-7.2-2.1-12.2 1.1-17.2 4.8-5.4 4-10.5 8.5-15.5 13-3.2 3-5.5 6.1-8 8.9zm21.5 144.8c-4.5 5.2-7.9 9.1-11.2 13.1-2 2.4-3.1 4.6 1.2 5.8 5.2 1.5 10.5 2.9 15.4 5 10.3 4.4 23.6 2.7 30.2 14.8.1.2.7.1 1 .1.5-1.6 1-3.3 1.8-6 2.3 3.1 3.9 5.5 6 8.4.8-4.2-1.4-9.9 5.5-9-.2-1.5-.9-3.1-.4-3.8 3.4-4.4.1-6.2-3-7.6-15.4-7-31.1-13.9-46.5-20.8zM427 351.5v-1.4c-.9-.5-1.7-1.3-2.7-1.5-12.7-2.6-25.5-3.5-38.4-1.6-6.7 1-13.2 2.4-19.9 3.6-5.1.9-10.2 1.4-15.2 2.3-11 1.9-22.1 3.8-33 6-10.2 2-20.3 4.4-30.5 6.5-2.4.5-4.9.3-8.4.5-.1.1-.9 1.3-2.7 4.1 19.2-1.2 37-2.1 54.8-3.5 3.7-.3 7.8-1.6 10.8-3.7 6-4.3 12.8-5.4 19.6-6.1 9.6-.9 19.3-1.1 28.9-1.6 7.1-.4 14.3-.6 21.3-1.2 5.2-.6 10.3-1.6 15.4-2.4zm-82.2 61c0-.7 0-1.4.1-2.1h43v-17.6c-7.3.9-14.1 2-21 2.4-7 .4-13.2 2.2-17.8 7.6-4 4.8-9.1 7.1-15 8.1l-11.1 1.8v1.7c7.7 5 16.2.3 24.3.8 8.8.6 17.7.1 26.6 0 8.6 0 17.2-.1 25.9-.1h25.5v-1.5c-26.9-.4-53.7-.7-80.5-1.1zm-37.4-.2h-24c-17.4-.1-34.8-.3-52.3-.4-4.4 0-6.3 2.6-6 8.5.2 4.1 3.4 3.6 6 3.5 4.8-.1 9.7-.7 14.5-.8 13-.1 26 0 38.9 0 1.4 0 3.9 0 4.1-.6 1.4-4.1 4.7-2.6 7.3-2.7 3.7-.2 7.5-.1 11.4-.1.2-1.2.3-1.9.3-2.6.1-1 0-2-.2-4.8zm41.6-66.5c0-.4.1-.9.1-1.3-14.5.7-28.9 1.3-43.4 2 0 0-.1-.8-.1-1.3-3 1.7-5.8 4.1-9 4.9-10.7 2.7-21.6 4.8-32.5 7-6.3 1.3-12.7 2.2-19.2 3.3 1.1 2.1 2.5 7.2 4.4 7.4 7.8.9 15.8.4 23.8.4.1-.4.1-.8.2-1.1-5.5-.7-11-1.3-16.8-2 5.2-4.1 31.8-7.9 36.1-5.5-.6.7-1.2 1.4-1.8 2.2 1.9.2 3.4-.4 3.9-1.4 3.1-6.2 10.1-8 14.4-4.5 2.1-1.4 3.7-3.1 5.5-3.5 11.3-2.5 22.8-4.5 34.4-6.6zm-195.6 82.7c2.3-.3 4.4.1 5.7-.8 3.8-2.6 8-5.1 10.7-8.7 5.5-7.3 10.7-15.1 14.9-23.2 2.1-4 2.2-9.3 2.5-14 .2-2.9-1.8-6.3-4.9-4.2-4 2.7-8.2 5.8-8.4 11.8-.2 4.5-1.1 9-2.1 13.5-.8 3.4-2.8 4.9-6.7 1.1-.6 10.1-12.1 13.8-11.7 24.5zM406 379c5.7-.9 4.9 2.8 3.8 7.1 5.4-1.8 9.9-3.3 14.3-4.9 4.3-1.6 5.2-5.4 5.1-9.2-.1-5.3-.9-10.6-1.5-16.5-8.1 1.5-16.5 3.1-24.9 4.6.1.5.1 1 .2 1.6 1.7 0 3.6-.5 5.1.2 1 .5 1.9 2.3 2 3.6.1 1.1-1 2.3-1.6 3.4.3.2.6.4 1 .5-1.6 1.1-3.2 2.2-5.1 3.5 3.5.6 6 1 8.6 1.4v1.7c-2.4 1.1-4.7 2-7 3zm-83.4-.3c.1.5.3 1 .4 1.4-4.5 1.1-8.9 2.2-13.4 3.4.1.3.2.7.3 1l15 1.8.3 2.1c-4.3 1-8.6 2-13.9 3.2 5.8 1.4 10.3 2.4 14.8 3.5l.3 2.1c-2.4.9-4.8 1.7-7.6 2.7 1.7 1 3.4 2 5.2 3-1.4 1.6-2.4 2.8-4.2 4.9 6.1-.9 11-1.7 16-2.4 0-7.8.1-15.1-.1-22.4 0-1.7-.8-3.4-1.1-5.1-.3-2 .2-4.6-.8-6-.8-1-3.5-.7-5.3-.8-5.5-.5-6.7 5.9-12.4 6.9 3 .3 4.8.5 6.5.7zm-131.9 16.5c-4 7-7.8 13.6-12.1 21.1 10.3.8 20.1 1.5 29.9 2.2.6-4.5-.4-6.8-5-6.6-2.3.1-4.5-.7-6.8-.9-4.1-.3-6-2.1-5.4-6.6.3-2.7-.3-5.6-.6-9.2zm-53.2-32.5c.1-.6.2-1.1.3-1.7-10.2-3.1-18.6-9.3-26.8-15.8-4.1-3.3-6.2-2.5-8.5 2.6 7.4 4.3 14.5 9.1 22.2 12.8 3.8 1.7 8.5 1.4 12.8 2.1zm3.4-11.4c5.1-7 10.1-13.7 14.9-20.3-4.1-3.6-6.7-2.8-9 .4-1.9 2.6-4 5.1-5.8 7.7-2.3 3.3-4.5 6.7-6.9 10.5 2.6.6 4.4 1.1 6.8 1.7zm26.3-21.9c1.6 1.8 2 2.7 2.6 3 13.5 6.6 27 13.3 40.6 19.7 1.8.8 4.2.5 6.3.7l.6-2.4c-16.2-6.8-32.3-13.6-50.1-21zm-4.6-.5c.1-.3.3-.7.4-1-8.4-6.8-16.7-13.6-25.1-20.4-.5.2-.9.3-1.4.5.5 1.8 1 3.5 1.5 5.3.4 1.5.8 3 1.1 4.5-1.8 0-3.7.2-5.5 0-1.3-.1-2.5-.8-5.5-1.7 1.4 3 2 5.9 2.8 6 2.4.1 5.7 0 7.2-1.5 4.3-4.3 7.7-3 11.7 0 4.1 3 8.5 5.5 12.8 8.3zM126 347.8c7-8.3 13.4-15.9 20.1-23.8-8.4-1.4-22.1 14.4-20.1 23.8zm20.8 62.3c9.4-7.1 14.6-19 10.7-23.9-9.3 10.2-13.8 19.9-10.7 23.9zm97.6-56.4c10.5-2.5 20.5-4.9 30.6-7.3-7.9-.9-15.5-.5-23.1-1-6.2-.4-8.7 1.7-7.5 8.3zm-82.2 40.8c-3.8 5.7-7.6 10.9-10.7 16.5-.9 1.6-.1 4.2-.1 7.5 8.8-7 14-19.1 10.8-24zm34-8.7v1.5h31.3v-1.5h-31.3zm165.6 33.3v-1h-37.5v1h37.5zm-192-52.8c-.4.5-.8 1-1.2 1.4 2 2.8 4 5.7 6.4 9.1 2.7-1.7 5.2-3.2 8.5-5.2-5.2-2.1-9.4-3.7-13.7-5.3zm-73.5-12.6c-.1.4-.5 1.3-.4 2.1.1.9.5 2.1 1.1 2.5 4.3 2.3 8.7 4.4 13.1 6.6.6.3 1.4.8 2 .7.6-.1 1.3-.7 1.6-1.3.2-.5 0-1.6-.4-1.8-5.1-2.7-10.3-5.3-17-8.8zm135.3 28.4c-3.5-4.2-14.1-3.9-17.1 0h17.1zm43.9-31.7c.1.6.1 1.2.2 1.7 7.8-1.6 15.7-3.3 23.5-4.9l-.3-1.5c-7.8 1.6-15.6 3.2-23.4 4.7zm-36.1 24h-16.8c5.8 3.5 13.3 3.2 16.8 0zM34.2 412.6v.8h18.6c0-.3-.1-.6-.1-.8H34.2zm54.3-48.1c-.1 1-.2 1.9-.3 2.9 4.8.7 9.7 1.4 14.5 2.1 0-.5.1-1.1.1-1.6-4.7-1.2-9.5-2.3-14.3-3.4zm84.6 14.4c-2.5-.8-4.6-1.7-4.8-1.4-1.6 2.5-2.9 5.3-4.3 7.9.8.7 1.6 1.4 2.5 2 1.9-2.3 3.7-4.7 6.6-8.5zM41.2 408v1h20.2v-1H41.2zm275 28.1c1-2.6 2-4.5 2.3-6.5.1-.8-1-2-1.9-2.6-.5-.4-2.2-.1-2.2 0-.2 1-.2 2.1 0 3.1.4 1.7 1 3.4 1.8 6zM153.4 51c4.4-1.8 8.6-4.2 13.1-5.2 15.7-3.6 31.5-7.8 47.4-9.6 17.5-2 35.5-2.9 53-1.7 22 1.5 44.3 3.2 64.7 13.4 1.5.7 2.9 1.8 5.6 3.5-2.7.8-4.3 2-5.3 1.6-18.1-8.2-37.3-12.1-56.9-13-18.9-.8-38-1.4-56.9-.2-13.7.9-27.6 2.2-40.8 7.2-6.8 2.6-14 4-21 5.9-.8.2-1.8-.2-2.7-.3 0-.6-.1-1.1-.2-1.6zM495.4 244l-70.2 80.4c-.6-.5-1.3-1.1-1.9-1.6 10.2-14.7 23.2-27.1 34.7-40.8 11.4-13.6 22.4-27.7 34.9-40.3.8.7 1.6 1.5 2.5 2.3z"/>
  <path d="M381 322.7c-1.1-6 38.3-65.8 46.1-69.4-13.6 24.1-30.4 46.2-46.1 69.4zM349 322.5c3.6-14.9 6.9-28.4 10.5-43 3.9 5.4-4.2 38.2-10.5 43zM483.4 321.9c-10.2 9.8-22.8 16.3-35 24.8.6-5.3 27.1-24.3 35-24.8zM322 299.3c3.3 2.9 3.8 15.8 0 19.8v-19.8zM553.2 111.2c-2.2.1-4.4.3-6.6.4.3-1.4.2-3.9.8-4.1 1.8-.5 3.8-.2 5.8-.1v3.8zM550.8 89.9l2.4 3.6c-1.5.9-3 2.1-4.6 2.5-.6.2-2.4-1.6-2.4-2.4 0-2 .8-4 1.3-6 1.1.7 2.2 1.5 3.3 2.3z"/>
  <path d="M139.1 191.3c2.5-2.9 4.8-6 7.7-8.5 5-4.5 10.1-9 15.5-13 5-3.7 10.1-7 17.2-4.8 6 1.8 12.9 1.1 18.8 3.2 8.1 2.8 16.4 5.9 23.2 11 6.6 4.9 11.2 12.4 16.7 18.7.8.9 1.9 1.5 2.9 2.3.8.6 2.3 1.3 2.2 2-.2 11.4 7.6 19.9 11 30 2.8 8.1 9.1 15.2 14.6 22.2 3.9 5 7.2 9.8 7.3 16.3.1 7.2-7.5 12.3-14.6 9.8 1.2-4 3.2-7.9 3.4-12 .2-4-1.3-8.2-2.1-12.3-.7 0-1.5 0-2.2-.1-.3 3.5-.4 7.1-1 10.6-.4 2.5-1 5.1-2.2 7.3-1.6 3.1-4.2 2.9-6.9.3 3.8-2.2 2.5-4.3-.1-6.4-1-.8-1.8-1.9-2.8-2.5-5.2-3.2-7.4-8-6.4-14.6-3.7 1.4-4.5 3.1-3.6 6.4.6 2-.3 4.4-.5 6.6-.6.1-1.2.2-1.7.3 4.2 5.1 8.4 10.3 13.5 16.5-7.9 1.3-12.6 7.9-20.9 6.6-5.6-.9-10.3 2.6-13.6 7.3.2.6.4 1.1.5 1.7 3.3-.9 6.6-1.7 9.8-2.5 1.3 1.6 2.7 3 3.8 4.6.8 1.2 1.4 2.6 2 4-1.7.3-3.4 1-5 .8-1.4-.2-2.8-1.4-4.9-2.6-.7 2.3-1.4 4-1.7 5.8-1.6 10.4-8.5 15.5-19.2 13.9-.9-8.6-4-17.3 1.6-26.4h-11.3c6.4 8.3.8 16.6 3.5 25.4-5.4-1.3-9.6-1.9-13.6-3.2-5.2-1.7-9.7-2-13 3.3-.5.7-1.3 1.2-2 1.7-6.2-5-12.3-9.7-18.1-14.8-1.2-1.1-2.4-3.8-1.9-5.1 2.4-6.3-2-10.5-3.6-14.8.7-2.2 1.4-3.9 1.9-5.6.2-.6-.3-1.8 0-2 6.4-4.4 8.7-13.3 17.2-15.5 2.6-.7 4.8-3.1 7.1-4.7l-1.2-2.1c-2.9 1.2-5.7 2.4-9.7 4.1-.9-.4-3.1-1.3-6-2.6-1 3.3-1.9 6.4-3 10.2-.9-1.4-1.6-2.4-2.9-4.2-.9 4.3-1.7 7.7-2.3 10.9-14.2-5.9-12.1-20.9-17.3-31.8-.6.2-1.2.4-1.7.6.8 5 1.5 9.9 2.3 14.9-.4.1-.8.2-1.1.3-.5-1.2-1.4-2.4-1.5-3.6-1-8-3.1-16.2-2.5-24.1.5-6.7 3.9-13.3 6.3-19.8 2-5.3 4.2-10.5 6.6-15.5.8-1.7 2.8-2.7 4.3-4.1.6-.4.9-.4 1.2-.4zm52.2 62.7c1.1-1.4 1.9-2 2.1-2.8 1-4.4-2.1-8.9-7.6-12.1-4.2-2.4-7.1-1.2-10.1 2.1-5.7 6.1-7.4 11.2-4.8 16.7 2.1 4.4 8 6.7 14.8 5.7 1.3-4.3-2.3-4.5-4.7-6.2-2.3-1.7-4.7-4.8-5-7.5-.4-3.6.9-7.5 6.1-7.6 4.5-.1 7 1.7 7.3 6.4 0 1.6 1 3 1.9 5.3zm26.7-11.5c3.4-3.3 6.4-6.1 10.4-9.9-4.2.6-6.6.9-7.7 1-3.7.8-5.8 1.3-8.6 1.9-.1 1.7-.3 4-.6 7.1 2.6-1.9 4.1-3 6.1-4.4.2 2 .2 3 .4 4.3zm9-3c-.2-.7-.5-1.3-.7-2-1.1 1.4-3.3 3.5-3 4 1.2 2 3.1 4.6 5.1 4.8 2.8.3 5.9-1.1 8.9-1.9-.1-.8-.1-1.5-.2-2.3-3.5-.9-6.8-1.7-10.1-2.6zm-22 12.7c.8-3.9 1.7-7.8 2.2-11.7.1-.6-2.5-2.3-3.2-2-3.3 1.5-3.7 10.7 1 13.7zM160.6 336.1c15.5 6.9 31.1 13.7 46.7 20.8 3.1 1.4 6.4 3.2 3 7.6-.5.7.2 2.3.4 3.8-6.9-.8-4.7 4.8-5.5 9-2.1-3-3.8-5.3-6-8.4-.8 2.7-1.3 4.4-1.8 6-.4 0-.9.1-1-.1-6.6-12.1-19.9-10.4-30.2-14.8-5-2.1-10.2-3.5-15.4-5-4.4-1.2-3.3-3.4-1.2-5.8 3.1-4 6.5-7.9 11-13.1zM427 351.5c-5.1.8-10.2 1.9-15.4 2.3-7.1.6-14.2.9-21.3 1.2-9.6.5-19.3.7-28.9 1.6-6.8.7-13.6 1.8-19.6 6.1-3 2.1-7.1 3.4-10.8 3.7-17.8 1.4-35.5 2.3-54.8 3.5 1.8-2.7 2.6-3.9 2.7-4.1 3.5-.2 6.1-.1 8.4-.5 10.2-2.1 20.3-4.5 30.5-6.5 11-2.2 22-4.1 33-6 5-.9 10.2-1.4 15.2-2.3 6.6-1.1 13.2-2.6 19.9-3.6 12.9-1.9 25.7-1.1 38.4 1.6 1 .2 1.8 1 2.7 1.5v1.5zM344.8 412.5c26.8.3 53.6.7 80.4 1v1.5h-25.5c-8.6 0-17.2.1-25.9.1-8.9 0-17.8.5-26.6 0-8.1-.5-16.6 4.3-24.3-.8v-1.7l11.1-1.8c5.9-1 11-3.3 15-8.1 4.5-5.4 10.8-7.2 17.8-7.6 6.9-.4 13.7-1.5 21-2.4v17.6h-43c.1.8 0 1.5 0 2.2zM307.4 412.3c.2 2.8.3 3.8.3 4.9 0 .7-.2 1.4-.3 2.6-3.9 0-7.6-.2-11.4.1-2.6.2-5.9-1.4-7.3 2.7-.2.6-2.7.6-4.1.6-13 0-26-.1-38.9 0-4.8 0-9.7.6-14.5.8-2.6.1-5.8.6-6-3.5-.3-5.8 1.6-8.5 6-8.5 17.4.1 34.8.3 52.3.4 7.8-.1 15.7-.1 23.9-.1zm-21.2 9.8c0-1 0-1.9-.1-2.9h-57.7c.2 1.8.9 2.8 1.5 2.8 18.8.2 37.5.1 56.3.1z" fill="#fff"/>
  <path d="M349 345.8c-11.5 2.1-23.1 4.1-34.6 6.4-1.8.4-3.3 2.1-5.5 3.5-4.3-3.4-11.3-1.6-14.4 4.5-.5 1-2 1.6-3.9 1.4.6-.7 1.2-1.4 1.8-2.2-4.3-2.4-31 1.4-36.1 5.5 5.8.7 11.3 1.4 16.8 2-.1.4-.1.8-.2 1.1-7.9 0-16 .5-23.8-.4-1.9-.2-3.2-5.4-4.4-7.4 6.5-1.1 12.9-2 19.2-3.3 10.9-2.2 21.7-4.3 32.5-7 3.2-.8 6-3.2 9-4.9.1.6.1 1.4.1 1.3 14.5-.7 29-1.3 43.4-2 .1.7.1 1.1.1 1.5zM153.4 428.5C153 417.8 164.5 414 165 404c3.9 3.8 5.9 2.3 6.7-1.1 1-4.4 2-9 2.1-13.5.2-6 4.4-9.1 8.4-11.8 3.1-2.1 5.1 1.3 4.9 4.2-.3 4.7-.4 10-2.5 14-4.2 8.1-9.4 15.9-14.9 23.2-2.7 3.6-6.9 6.1-10.7 8.7-1.2.9-3.3.6-5.6.8zM406 379c2.3-1 4.6-1.9 6.9-2.9v-1.7c-2.6-.4-5.2-.9-8.6-1.4 1.9-1.3 3.5-2.4 5.1-3.5-.3-.2-.6-.4-1-.5.6-1.1 1.7-2.3 1.6-3.4-.1-1.3-.9-3.2-2-3.6-1.4-.6-3.4-.2-5.1-.2-.1-.5-.1-1-.2-1.6 8.4-1.6 16.8-3.1 24.9-4.6.6 5.9 1.4 11.2 1.5 16.5.1 3.8-.8 7.7-5.1 9.2-4.4 1.6-8.9 3.1-14.3 4.9 1.2-4.3 2.1-8.1-3.7-7.2zM322.6 378.7c-1.7-.2-3.5-.4-6.4-.7 5.7-1.1 6.9-7.4 12.4-6.9 1.9.2 4.6-.2 5.3.8 1 1.4.5 4 .8 6 .3 1.7 1.1 3.4 1.1 5.1.1 7.3.1 14.6.1 22.4-5 .8-9.9 1.5-16 2.4 1.8-2.1 2.8-3.3 4.2-4.9-1.8-1-3.5-2-5.2-3 2.7-1 5.1-1.8 7.6-2.7l-.3-2.1c-4.5-1.1-9-2.1-14.8-3.5 5.3-1.2 9.6-2.2 13.9-3.2l-.3-2.1-15-1.8c-.1-.3-.2-.7-.3-1 4.5-1.1 8.9-2.2 13.4-3.4-.2-.4-.4-.9-.5-1.4zM190.7 395.2c.3 3.5.9 6.4.6 9.2-.5 4.4 1.3 6.2 5.4 6.6 2.3.2 4.6 1 6.8.9 4.6-.2 5.6 2.1 5 6.6-9.8-.7-19.6-1.4-29.9-2.2 4.3-7.5 8.1-14 12.1-21.1zM137.5 362.7c-4.3-.7-9-.4-12.8-2.2-7.7-3.7-14.8-8.4-22.2-12.8 2.3-5.1 4.4-5.9 8.5-2.6 8.2 6.5 16.5 12.7 26.8 15.8-.1.7-.2 1.2-.3 1.8zM140.9 351.3c-2.4-.6-4.2-1.1-6.8-1.8 2.5-3.8 4.6-7.2 6.9-10.5 1.8-2.6 3.9-5.1 5.8-7.7 2.3-3.2 4.9-4 9-.4-4.8 6.7-9.8 13.4-14.9 20.4zM167.2 329.4c17.7 7.4 33.9 14.1 50.1 20.9l-.6 2.4c-2.1-.2-4.5.2-6.3-.7-13.6-6.4-27.1-13.1-40.6-19.7-.6-.2-1-1.1-2.6-2.9zM162.6 328.9c-4.2-2.7-8.6-5.3-12.7-8.3-4.1-3-7.5-4.3-11.7 0-1.5 1.5-4.8 1.7-7.2 1.5-.8 0-1.4-3-2.8-6 3 1 4.2 1.6 5.5 1.7 1.8.2 3.7 0 5.5 0-.4-1.5-.7-3-1.1-4.5-.5-1.8-1-3.5-1.5-5.3.5-.2.9-.3 1.4-.5 8.4 6.8 16.7 13.6 25.1 20.4-.3.3-.4.7-.5 1z" fill="#fff"/>
  <path d="M126 347.8c-1.9-9.4 11.8-25.2 20.1-23.8-6.7 7.9-13.1 15.5-20.1 23.8zM146.8 410.1c-3-4 1.5-13.7 10.7-23.9 3.8 4.9-1.4 16.8-10.7 23.9zM244.4 353.7c-1.2-6.5 1.3-8.7 7.4-8.3 7.6.5 15.3.1 23.1 1-10 2.3-20.1 4.8-30.5 7.3zM162.2 394.5c3.2 4.9-2 17-10.9 23.9 0-3.2-.8-5.8.1-7.5 3.2-5.4 7-10.6 10.8-16.4zM196.2 385.8h31.3v1.5h-31.3v-1.5zM361.8 419.1h-37.4v-1h37.5c-.1.4-.1.7-.1 1zM169.8 366.3c4.2 1.6 8.4 3.2 13.7 5.3-3.3 2-5.8 3.6-8.5 5.2-2.4-3.4-4.4-6.2-6.4-9.1.4-.4.8-.9 1.2-1.4zM96.3 353.7c6.8 3.5 11.9 6.1 17 8.8.4.2.6 1.3.4 1.8-.2.6-1 1.2-1.6 1.3-.6.1-1.3-.4-2-.7-4.4-2.2-8.8-4.3-13.1-6.6-.7-.4-1-1.6-1.1-2.5-.1-.8.3-1.7.4-2.1zM231.6 382.1h-17.1c3-3.8 13.6-4.1 17.1 0zM275.5 350.4c7.8-1.6 15.6-3.1 23.4-4.7l.3 1.5c-7.8 1.6-15.7 3.3-23.5 4.9 0-.5-.1-1.1-.2-1.7zM239.4 374.4c-3.5 3.2-11 3.5-16.8 0h16.8zM34.2 412.6h18.5c0 .3.1.6.1.8H34.2v-.8zM88.5 364.5c4.8 1.1 9.6 2.2 14.3 3.3 0 .5-.1 1.1-.1 1.6-4.8-.7-9.7-1.4-14.5-2.1.1-.9.2-1.9.3-2.8zM173.1 378.9c-2.9 3.7-4.8 6.1-6.6 8.5-.8-.7-1.6-1.4-2.5-2 1.4-2.7 2.7-5.4 4.3-7.9.2-.3 2.3.7 4.8 1.4zM41.2 408h20.2v1H41.2v-1zM316.2 436.1c-.8-2.6-1.4-4.3-1.7-5.9-.2-1-.2-2.1 0-3.1 0-.2 1.7-.4 2.2 0 .8.6 2 1.9 1.9 2.6-.4 1.9-1.4 3.8-2.4 6.4z" fill="#fff"/>
  <path d="M191.3 254c-.9-2.3-1.9-3.7-2-5.1-.3-4.7-2.7-6.6-7.3-6.4-5.2.1-6.5 4-6.1 7.6.3 2.7 2.7 5.8 5 7.5 2.4 1.7 6 1.9 4.7 6.2-6.8 1-12.7-1.3-14.8-5.7-2.6-5.5-.9-10.6 4.8-16.7 3.1-3.3 5.9-4.5 10.1-2.1 5.5 3.2 8.6 7.7 7.6 12.1-.1.5-.9 1.1-2 2.6zM218 242.5c-.1-1.4-.2-2.4-.4-4.3-2 1.5-3.5 2.6-6.1 4.4.3-3.1.5-5.4.6-7.1 2.8-.6 5-1.1 8.6-1.9 1.1-.1 3.5-.5 7.7-1-4 3.8-7 6.7-10.4 9.9zM227 239.5c3.3.9 6.7 1.8 10 2.7.1.8.1 1.5.2 2.3-3 .7-6 2.2-8.9 1.9-1.9-.2-3.8-2.8-5.1-4.8-.3-.5 1.9-2.6 3-4 .3.5.5 1.2.8 1.9zM205 252.2c-4.7-3.1-4.2-12.2-1-13.7.7-.3 3.2 1.4 3.2 2-.5 4-1.5 7.8-2.2 11.7zM286.2 422.1c-18.8 0-37.5 0-56.3-.1-.7 0-1.3-1-1.5-2.8h57.7c.1 1 .1 2 .1 2.9z"/>
</svg>
