<svg xmlns="http://www.w3.org/2000/svg" viewBox="0 0 595.3 460.8" xml:space="preserve">
  <path fill="#fff" d="M2 2h592v454.6H2z"/>
  <path d="M595.3 460.8H0V0h595.3v460.8zm-37.6-7.3v1c7.6 0 15.1-.3 22.7.1 4.9.2 6.6-1.4 6.6-6.4 0-16.4.5-32.9.7-49.3.3-21.1.7-42.2.8-63.3.1-12.2-.4-24.5-.4-36.7.1-16.7.6-33.4.5-50 0-12.7-.8-25.4-.9-38.1-.1-9.7.6-19.3.7-29 .2-32.4.2-64.8.2-97.2 0-25.2-.1-50.4-.4-75.6 0-1.2-1.3-3.1-2.3-3.3-3.5-.8-7.1-1.2-10.6-1.2-6.6-.1-13.3.3-19.9.3-30.8-.2-61.6-.5-92.5-.5-12.5 0-25 .8-37.6.9-14.2 0-28.5-.7-42.7-.6-70.8.1-141.6.5-212.4.9l-131.7.6h-3.3c-8.2-.2-16.4-.5-24.6-.8-3.6-.1-5.2 1.4-5.3 5.2-.2 19.3-.6 38.7-.9 58.1 0 2.3 1 4.6.9 6.9-.1 10-.6 20.1-.6 30.1 0 15.4.6 30.8.5 46.2-.1 14.9-.8 29.9-.9 44.8-.1 26.7.1 53.4.3 80 .1 12.4.6 24.8.5 37.1-.1 12.4-.6 24.9-.8 37.3-.2 9.6-.1 19.3-.2 28.9l-.9 68.9c0 3.9 2.2 5.5 5.9 5.4 5-.1 9.9-.3 14.9-.4 12.8-.2 25.7-.6 38.5-.5 13.4.1 26.9 3 40.2-1.1.9-.3 2 .5 3 .7 2.4.5 4.9 1.2 7.3 1.2 8.8.1 17.5-.1 26.3-.1 19.3-.2 38.6-.5 57.9-.4 17.2 0 34.4.7 51.6.6 33.7-.2 67.4-.7 101.1-1 14.5-.1 28.9.5 43.4-.2 14.2-.7 28.3 2.4 42.5.1 2.7-.4 5.6 1.3 8.4 1.3 10-.1 19.9-.5 29.9-.7 13.2-.2 26.4-.2 39.7-.3 14.6.1 29.2.1 43.9.1z" fill="#fff"/>
  <path d="M557.7 453.5h-43.9c-13.2 0-26.4.1-39.7.3-10 .1-19.9.6-29.9.7-2.8 0-5.8-1.8-8.4-1.3-14.2 2.3-28.3-.7-42.5-.1-14.4.7-28.9.1-43.4.2-33.7.3-67.4.8-101.1 1-17.2.1-34.4-.6-51.6-.6-19.3 0-38.6.3-57.9.4-8.8.1-17.5.2-26.3.1-2.4 0-4.9-.8-7.3-1.2-1-.2-2.2-1-3-.7-13.3 4.1-26.8 1.3-40.2 1.1-12.8-.1-25.7.3-38.5.5-5 .1-9.9.3-14.9.4-3.7.1-5.9-1.5-5.9-5.4l.9-68.9c.1-9.6.1-19.3.2-28.9.2-12.4.8-24.9.8-37.3.1-12.4-.4-24.8-.5-37.1-.2-26.7-.4-53.4-.3-80 0-14.9.8-29.9.9-44.8.1-15.4-.5-30.8-.5-46.2 0-10 .5-20.1.6-30.1 0-2.3-1-4.6-.9-6.9.3-19.4.7-38.8.9-58.2 0-3.7 1.7-5.3 5.3-5.1 8.2.2 16.4.5 24.6.7h3.3l131.7-.6c70.8-.4 141.6-.8 212.4-1.1 14.3-.1 28.5.6 42.7.6 12.5 0 25-.9 37.6-.9 30.8 0 61.6.4 92.5.5 6.6 0 13.3-.4 19.9-.3 3.6 0 7.2.5 10.6 1.2 1 .2 2.3 2.2 2.3 3.3.2 25.2.4 50.4.4 75.6 0 32.4-.1 64.8-.2 97.2 0 9.7-.7 19.3-.7 29 .1 12.7.8 25.4.9 38.1 0 16.7-.5 33.4-.5 50 0 12.2.5 24.5.4 36.7-.1 21.1-.5 42.2-.8 63.3-.2 16.4-.7 32.9-.7 49.3 0 5-1.7 6.7-6.6 6.4-7.5-.3-15.1-.1-22.7-.1v-.8zM9.9 448.3c7.5 0 16-.1 24.6 0 11 .1 22 .6 33.1.6 17 .1 34.1 0 51.1-.1 22-.1 44-.4 66-.5 18.3 0 36.6.5 54.9.5 37-.2 74.1-.7 111.1-.8 25.4-.1 50.7.5 76.1.5 14.8 0 29.6-.7 44.3-.8 21.9-.1 43.7.1 65.6.1h44.9c0-7.9-.1-16.1 0-24.4.2-26.7.6-53.3.8-80 .2-27.7.2-55.5.2-83.2 0-3.6-.7-7.2-.7-10.8.1-23.6.3-47.3.6-70.9.1-12 0-24.1.6-36.1.5-9.1-.3-11.1-6.6-11.1-15.9 0-31.9-.1-47.8-.2-27.6-.1-55.2-.2-82.8-.2-23.7 0-47.4.3-71.1.2-18.9 0-37.7-.5-56.6-.5-15.5 0-31 .5-46.5.4-17.9-.1-35.8-.6-53.7-1-10.2-.2-20.5-.7-30.7-.8-27.3-.1-54.5 0-81.4 0-1.4 2.9-2.3 4.7-3.1 6.5.5.4.8.7 1.1.8 2.6 1.1 6.5 1.4 7.6 3.3 1.1 1.9-.6 5.4-1.1 8.2-.4 2.6-.7 5.2-.9 6.6-5.2-1-9.8-3-13.8-2.3-3.8.7-5.9 1.7-8.4-2.2-1.6-2.5-4.8-3.3-7.2.3-.6 1-1.8 1.6-2.9 2.2-3.9 2-7.9 3.8-12.1 5.8-3.3-2.8-7.4-6.2-11.1-9.3 1.7-5 3.5-10.2 5.8-16.8-3.4-.9-6.3-2.1-9.2-2.3-5.8-.5-11.6-.5-17.4-.8-3.8-.2-6-1.1-5.8-6.1.8-17.1.8-34.3 1.1-51.4.1-6 1.9-8 7.8-8 8.2-.1 16.4 0 25.1 0 8.6-7 20.4-2.6 28.9-5.4 6 2.2 10.8 5 15.9 5.7 7.2 1 14.7.4 22 .5 21.1.2 42.2.5 63.3.6 12.4.1 24.8-.1 37.2-.2h28.6c-.7-3.1-3.7-6.4 2.9-7.7-.2 2.9-.4 5.3-.6 7.2h323.5V10.9H278.7v32.9c0 5.8-1.8 7.7-7.6 7.8h-10.2c4.3 3 8.5 4.6 5.7 10.8-5.4-9-11.5-6.7-17.8-.8-.3-.7-.5-1.4-.8-2.2 1.8-2 3.6-4 5.7-6.2H10.1c-.2 131.5-.2 262.8-.2 395.1zM582.1 70.4c-8.2 0-15.7.3-23.2-.1-8.2-.4-16.4-1.9-24.7-1.9-57.2-.1-114.4-.1-171.6.1-10.7 0-21.4.9-32.1 1.1-13.5.3-27 .5-40.5.6-7.7.1-15.4.1-23-.1-13-.4-26-1-39-1.8-4.4-.3-5.8 1.7-5.7 5.6.1 1.6 0 3.2 0 5.3 6.2 0 11.9-.1 17.7 0 6.7.2 13.6.8 18.7-4.4 5.4-5.4 8.3-1.4 11.9 1.9 1.3 1.2 3.1 2.9 4.7 2.9 6.5 0 13-.5 19.7-.8-.1-.5-.5-1.3-.5-2.1-.1-1.4-.5-3.4.2-4 1-.9 3.1-1.4 4.3-.9 3.1 1.2 6 3 8.9 4.8 7.5 4.6 10.3 4.4 16.4-1.7 4.7-4.6 8.8-4.9 13.2 0 3.4 3.7 7.1 5 12 4 2.6-.5 5.4-.1 7.3-.1 2-2.6 3.8-4.8 5.4-6.9 1.8 1.4 3.2 2.3 4.4 3.3 7 6.2 13.3 6.1 20-.3 6.5-6.4 12-3.4 15.8 2.2.7 1 1.2 2.1 1.7 3.1 3-.5 5.7-.9 9-1.4-1.2-1.1-2.1-2-3.1-2.8 3.9-4.6 9.9-4.5 13.5-.3 1.6 1.8 3.7 4.2 5.8 4.3 7.9.5 15.8.2 23.7.2-.4-.5-.8-1-1.1-1.5l3.9-7.8c.7 0 1.3.1 2 .1 1.5 2.7 3 5.3 4.6 8.1h119.9c-.2-3.7-.2-6.5-.2-8.7zm.2 44.9H548c-13.1-.1-26.1-.3-39.2-.3-22.6-.1-45.3-.1-67.9-.1-5.5 0-11.5 5.9-12.3 11.9h153.7v-11.5zm-141.5-5.5c5.4.6 10.4 1.5 15.5 1.7 7 .3 14.1.1 21.1 0 10.7-.1 21.5-.2 32.2-.2 14.5 0 29.1.2 43.6.2 8.5 0 17 .1 25.5-.2 5.8-.2 3.2-4.9 3.6-7.9.4-3.1-1.4-3.8-4.3-3.6-4.6.3-9.3.1-13.9 0-14-.4-28.1-1.1-42.1-1.2-8-.1-16.9-1.5-20.2 9.3-.1.2-.6.2-2.7.9 1.2-3.8 2.1-6.6 3.2-10.1h-5.8l-43.4.6c-7 .2-10.3 3-12.3 10.5zm-178.4 15c.2.7.5 1.3.7 2h146v-11.5h-27.8c-3.1 3.7-6 7-8.8 10.3-4.8-3-11.1-4.1-10.6-10.7h-48c-.1.5-.2.9-.2 1.4 1.7.8 3.3 1.5 5.7 2.6-2.5 2.1-4.8 3.9-7.8 6.4-3.5-2.8-7.5-6-13.1-10.4-4.1 0-10.7.8-17-.2-9.7-1.5-12.5 7.2-19.1 10.1zm246.4-29.6h73.1V84.4h-5.2c-17.2 0-34.4.9-51.5-.3-8.4-.6-12.9 1.9-15.8 9-.1.4-.2.7-.6 2.1zm-136.5 4.4c-.1 2.2.2 3.8-.3 5-2.6 6.7 1.8 6.1 5.9 6 15-.1 29.9-.2 44.9-.1 3.2 0 6.5.7 10.2 1.2.9-1.4 2.1-3.4 3.4-5.3 2.5-4 1.3-6.8-3.4-6.8-20.1-.1-40.1 0-60.7 0zM104.9 70.1c6.5 4 9.7 10.4 17.5 10 6.9-.4 13.8 0 20.6 0h25.7c.5-7.6-4.4-11.8-11.6-11-3.7.4-7.4.9-11 1-13.1.1-26.2 0-41.2 0zm257.8 41.1c-.3-5.1-.6-8.7-.8-12.4-3.5.4-6.5 1-9.4 1-12.6 0-25.1-.1-37.7-.5-6.2-.2-3.1 4.9-4.3 7.3-.4.7 2.4 4.4 3.7 4.4 16 .3 32 .2 48.5.2zm131.1-27.5c-4.6 0-8.7.1-12.9 0-4.2-.1-8.5-.4-12.7-.8-9.5-.9-14.4 2.1-18.1 11.9 6.7 0 13.3-.1 19.9 0 10.1.2 20.2.4 30.2.8 3.8.1 6.8-.3 7-5-12.1-1.7-12.1-1.7-13.4-6.9zM372.2 95h55.9c-2.2-10.3-20.4-16.3-28.8-9.8-4.1 3.1-8.2 3.6-12.7 1.5-2-1-3.3-4.3-6.1-1.5-2.9 3-10 2.6-8.3 9.8zm-8.8-11.4c-4.7 0-8.8-.2-12.9 0-4.8.3-10.4-.6-14.2 1.7-6.1 3.6-10.6 3-15.4-1.6-3 2.2-5.8 4.1-8.3 6.3-.9.8-1.2 2.5-1.1 3.8 0 .7 1.4 1.7 2.2 1.8 3.1.3 6.3.2 9.5.2h38.6c.6-4.4 1.1-8 1.6-12.2zM122.5 95.3h11.7l30.6-.3c4.9 0 3.8-3.5 4-6.4.2-2.9.1-4.2-3.8-4.1-12.9.4-25.8 0-38.7 0h-9.5c2.2 4.1 3.9 7.3 5.7 10.8zM275.9 110c.8.2 3.1 1.3 5.5 1.4 4.3.3 8.6 0 13 0 4.7 0 9 .9 8.2-6.8-.4-4.2-1.1-5.3-5-5.2-7.2.2-14.4.1-21.6.2-6.1.1-17.9 6.5-20.3 10.9 3.3 0 6.6.1 9.9 0 3 0 6-.2 10.3-.5zm-103.1 0h44.3c-1.2-3.6-2.5-10.5-3.5-10.5-6.5.4-14.4-4.5-19.6 4-6.2-7.9-14-3.6-21.3-4.1.1 3.8.1 6.9.1 10.6zm-50.4-10.2c.4 3.6.7 6.7 1.1 10h44.3v-10h-45.4zM53.7 79.6h53.5c-1.2 1.1-2.5 2.1-3.7 3.2-.3-2.7.1-5.8-1.2-7.8-1.6-2.4-4.6-5.1-7.1-5.3-9.2-.7-18.5-1-27.6 0-5.4.6-11.6 2.4-13.9 9.9zm98.4 34.4h-21.2c-11.7 0-13.1 1-16.3 11.2h38.2c-1.6-2.2-2.7-3.6-3.9-5.2.7-1.4 1.5-3 3.2-6zm61.2-45h-40c5.8 5.6 8.7 12.5 17.6 10.6 3.6-.8 7.5-.2 11.3-.2 5.8-.2 10-4.1 11.1-10.4zm43.9 57.1c-9.8-10.2-20.5-13.9-33.3-10.4-.7 3.2-1.5 6.7-2.3 10.4h35.6zm45.1-41.4h-24.7c0 3-.2 5.7.1 8.3.1 1.1 1.4 3.1 2.1 3.1 7.4.2 14.8.1 22.5.1V84.7zm-237.9 15c.3 6.1 1.4 10.7 7.8 10.9 4.1.2 8.3.1 12.4 0 4.6-.1 8.8-5.4 8.2-10.9H64.4zm106.1 25c18.4 2.4 24.7 2.3 28.2.2v-10.1c-5.8 0-11.9.1-18.1 0-4.6-.1-9.1-.6-8.2 6.4.2.9-1 2-1.9 3.5zm-83.4-.1c5.6.4 11.7 2.2 17 .7 4.5-1.3 7.9-6.3 11.8-9.6-.4-.5-.7-1-1.1-1.5-10.2-.5-20.8-2.7-27.7 10.4zm157.5-14c-.3-4.4-.5-7.9-.7-10.7-5.5-.4-10.8-1-16-.9-1.6 0-3.2 1.9-4.8 2.9 1.8 2.6-2 7.9 3.1 8.6 5.8.7 11.9.1 18.4.1zM223 84.8c.1 1.6.5 3 .4 4.4-.7 5.2 1.5 6.7 6.4 6.3 3.4-.3 6.9.5 10.3.6 3.2.1 4.9-1.7 4.6-4.9-.2-2.1-.7-4.1-1.1-6.5-6.7.1-13.5.1-20.6.1zm29.1-.3c-.2 1.8-.4 3.3-.5 4.8-.1 4.1 2.1 6.3 5.9 6.8 2.8.4 5.7.5 8.6.2 1.7-.2 4.1-1 4.8-2.3 1.9-3.8-1.9-9.3-6.4-9.4-3.9-.2-7.9-.1-12.4-.1zM43.4 114.1c1.2 2.7 2.1 4.6 2.9 6.5.9 2.1 1.7 3.5 4.8 2.7 2.3-.6 5.1.9 7.7 1.1 4.2.3 8.7 3.2 13.1-.8-4.5-2.1-11.6-1.2-9.2-9.4-6.4-.1-12.4-.1-19.3-.1zm25.4-28.7c-.3-.6-.5-1.1-.8-1.7-5.1 0-10.1-.3-15.2.1-2.1.2-4.3 1.3-5.9 2.7-2.2 2-3.9 4.6-6.7 8 5.5 0 10.3.3 15-.2 1.3-.1 2.3-2.5 3.7-3.6 1.1-.8 2.5-1.1 3.7-1.7 2.1-1.1 4.1-2.4 6.2-3.6zm45.6 14.5c-13.2-.7-13.2-.7-17.2 9.9 4.8.2 9.7.5 14.7.7 2.8.1 5.4-3.1 4.5-6-.5-1.5-1.3-3.1-2-4.6zm-74.1 9.7c5.9 0 11.4.2 16.9-.2.9-.1 2.5-2.7 2.3-4-.5-3.5-2.6-6.7-6.4-6.4-3.7.3-8.9-2-10.5 4.2-.5 1.9-1.3 3.7-2.3 6.4zm75.4-14.4c-2.1-4.2-3.9-7.8-5.6-11H95.7c.3 1.5.3 3 1 4.1 1.3 2.4 2.6 6.2 4.4 6.5 4.6 1.1 9.6.4 14.6.4zm-48.1-1.1h25c-2-5.5-6.2-7.3-11.3-8.4-7.2-1.6-9.1 5.6-13.7 8.4zM51.5 69.7H32.3c1.5 4.1 2.6 9.3 3.4 9.3 4.4-.3 9-1.4 13.1-3.2 1.5-.6 1.8-3.9 2.7-6.1zm380.5 14c2.9 3.9 5 7.5 7.9 10 1.2 1.1 5.4.7 6.5-.5 2.2-2.5 3.2-6.1 4.9-9.5H432zm-330.3 63.5c-2.1-2.3-4-5.1-6.6-7.1-6.7-5.1-10.1-4.1-11.6 3.2 6.1.7 9.8 9.7 18.2 3.9zm113.9-62c-8.8-3.2-10.3 4.6-15.3 9.5h15.3v-9.5zm-31 9.6c.2-.4.4-.9.7-1.3-3.1-3.3-6.1-6.6-9.2-9.9-.6.1-1.1.2-1.7.4-.6 3.5-1.2 6.9-1.8 10.8h12zm17.7-10.5h-15.6c3.1 4 5.6 7.2 8.7 11.2 2.5-4 4.6-7.3 6.9-11.2zM41 124.5c-.8-2.6-1.3-4.8-2.3-6.8-.8-1.6-2.3-2.8-3.5-4.2-.8 1.3-2.3 2.6-2.4 3.9-.6 7.7.5 8.5 8.2 7.1zm36.1 15.1c-1.7-1-2.8-2.2-3.7-2-4.4.9-6.9 10.1-3.8 13.9 1.6-.9 3.2-1.8 5.1-2.9-5-4.1-1.1-6.1 2.4-9zm-43-55.3v10c.3.1.7.2 1 .3 2.1-3.7 4.1-7.4 6.8-12.1-3.5.8-5.7 1.3-7.8 1.8zm5.5 15.8c-.2-.5-.3-.9-.5-1.4-2.1.8-5.4 1.1-6.1 2.6-.9 2.1.2 5 .4 7.5.5-.1 1-.1 1.5-.2 1.6-2.8 3.2-5.7 4.7-8.5zm29 37.4c-6.8-.9-5.9 5.2-8.4 7.8-.4.5 0 1.8 0 2.7 1-.3 2.6-.2 3-.9 2-3 3.5-6.2 5.4-9.6zm184.1-31.1c3.4-2.6 5.6-4.4 8.9-7h-8.5c-.1 1.8-.2 3.6-.4 7z"/>
  <path d="M582.1 70.4V79H462.2c-1.6-2.8-3.1-5.4-4.6-8.1-.7 0-1.3-.1-2-.1l-3.9 7.8c.4.5.8 1 1.1 1.5-7.9 0-15.9.3-23.7-.2-2-.1-4.2-2.5-5.8-4.3-3.6-4.2-9.5-4.2-13.5.3.9.9 1.9 1.7 3.1 2.8-3.3.5-6 1-9 1.4-.5-1-1.1-2.1-1.7-3.1-3.7-5.6-9.2-8.5-15.8-2.2-6.6 6.5-13 6.5-20 .3-1.2-1.1-2.6-2-4.4-3.3-1.6 2.1-3.4 4.3-5.4 6.9-1.9 0-4.7-.4-7.3.1-4.9 1-8.6-.2-12-4-4.4-4.9-8.5-4.7-13.2 0-6.2 6.1-9 6.4-16.4 1.7-2.9-1.8-5.8-3.5-8.9-4.8-1.2-.5-3.3 0-4.3.9-.7.6-.3 2.6-.2 4 0 .8.4 1.6.5 2.1-6.7.3-13.2.8-19.7.8-1.6 0-3.3-1.6-4.7-2.9-3.6-3.3-6.6-7.4-11.9-1.9-5.1 5.2-12 4.6-18.7 4.4-5.7-.2-11.5 0-17.7 0v-5.3c-.1-3.9 1.3-5.9 5.7-5.6 13 .8 26 1.4 39 1.8 7.7.3 15.3.2 23 .1 13.5-.1 27-.3 40.5-.6 10.7-.3 21.4-1.1 32.1-1.1 57.2-.2 114.4-.2 171.6-.1 8.2 0 16.4 1.6 24.7 1.9 7.7.5 15.2.2 23.4.2zM582.3 115.3v11.5H428.6c.8-6 6.9-11.9 12.3-11.9 22.6 0 45.3 0 67.9.1 13.1 0 26.1.2 39.2.3 11.3.1 22.5 0 34.3 0zM440.8 109.8c2-7.5 5.3-10.4 12.2-10.5l43.4-.6h5.8c-1.1 3.5-2 6.3-3.2 10.1 2.1-.7 2.7-.7 2.7-.9 3.2-10.7 12.2-9.3 20.2-9.3 14 .2 28.1.8 42.1 1.2 4.6.1 9.3.3 13.9 0 2.9-.2 4.7.5 4.3 3.6-.4 2.9 2.2 7.7-3.6 7.9-8.5.3-17 .2-25.5.2-14.5 0-29.1-.2-43.6-.2-10.7 0-21.5.1-32.2.2-7 0-14.1.2-21.1 0-5-.1-10-1-15.4-1.7zM262.4 124.8c6.6-2.9 9.4-11.6 19-10.2 6.3 1 13 .2 17 .2 5.6 4.4 9.6 7.6 13.1 10.4 3-2.5 5.3-4.4 7.8-6.4-2.3-1.1-4-1.8-5.7-2.6.1-.5.2-.9.2-1.4h48c-.5 6.6 5.8 7.7 10.6 10.7 2.8-3.3 5.6-6.6 8.8-10.3H409v11.5H263c-.2-.6-.4-1.2-.6-1.9zM508.8 95.2c.4-1.4.5-1.8.6-2.1 3-7.1 7.5-9.5 15.8-9 17.1 1.1 34.3.3 51.5.3h5.2v10.8h-73.1zM372.3 99.6c20.6 0 40.6-.1 60.7 0 4.7 0 6 2.8 3.4 6.8-1.2 1.9-2.5 3.9-3.4 5.3-3.7-.4-7-1.1-10.2-1.2-15-.1-29.9 0-44.9.1-4.2 0-8.6.6-5.9-6 .4-1.2.1-2.8.3-5zM104.9 70.1c15 0 28.1.1 41.2 0 3.7 0 7.4-.6 11-1 7.3-.8 12.1 3.4 11.6 11H143c-6.9 0-13.8-.3-20.6 0-7.8.4-11-6-17.5-10zM362.7 111.2c-16.5 0-32.5.1-48.5-.2-1.4 0-4.1-3.7-3.7-4.4 1.3-2.5-1.9-7.5 4.3-7.3 12.6.4 25.1.5 37.7.5 3 0 6-.6 9.4-1 .3 3.8.5 7.4.8 12.4zM493.8 83.7c1.3 5.2 1.3 5.2 13.4 6.9-.2 4.7-3.3 5.1-7 5-10.1-.4-20.1-.6-30.2-.8-6.6-.1-13.1 0-19.9 0 3.7-9.8 8.6-12.8 18.1-11.9 4.2.4 8.5.6 12.7.8 4.2.1 8.3 0 12.9 0zM372.2 95c-1.7-7.2 5.4-6.8 8.4-9.8 2.8-2.8 4.1.5 6.1 1.5 4.4 2.2 8.6 1.7 12.7-1.5 8.4-6.5 26.7-.4 28.8 9.8h-56zM363.4 83.6c-.5 4.2-1 7.8-1.6 12.3h-38.6c-3.2 0-6.3 0-9.5-.2-.8-.1-2.2-1.1-2.2-1.8-.1-1.3.2-3 1.1-3.8 2.5-2.2 5.4-4.1 8.3-6.3 4.8 4.6 9.3 5.2 15.4 1.6 3.7-2.2 9.4-1.4 14.2-1.7 4.1-.3 8.2-.1 12.9-.1zM122.5 95.3c-1.8-3.5-3.5-6.7-5.6-10.8h9.5c12.9.1 25.8.4 38.7 0 3.9-.1 4 1.2 3.8 4.1-.2 2.9.9 6.4-4 6.4-10.2 0-20.4.2-30.6.3h-11.8zm11.6-5.8c-1.9-1.2-3.1-2.7-4.3-2.6-1 0-2.6 1.8-2.6 2.8 0 1.1 1.6 2.2 2.4 3.3 1.3-.9 2.5-1.9 4.5-3.5zM275.9 110c-4.3.2-7.3.4-10.3.5-3.3.1-6.6 0-9.9 0 2.4-4.4 14.1-10.8 20.3-10.9 7.2-.1 14.4 0 21.6-.2 3.9-.1 4.5 1 5 5.2.8 7.7-3.6 6.9-8.2 6.8-4.3 0-8.7.3-13 0-2.4-.1-4.7-1.1-5.5-1.4zM172.8 110V99.4c7.2.5 15-3.8 21.3 4.1 5.3-8.5 13.1-3.6 19.6-4 1-.1 2.3 6.8 3.5 10.5h-44.4zM122.4 99.8h45.4v10h-44.3c-.3-3.3-.7-6.4-1.1-10zm7 8.5c1.5-1.8 3.2-2.9 3.3-4.2.1-.9-2.3-3.1-2.8-2.9-1.6.7-2.7 2.2-4.1 3.5 1.1.9 2.1 2 3.6 3.6zM53.7 79.6c2.3-7.5 8.5-9.2 13.9-9.8 9.1-1 18.4-.7 27.5-.1 2.5.2 5.6 2.9 7.1 5.3 1.3 2 .9 5.2 1.2 7.8 1.2-1.1 2.5-2.1 3.7-3.2H53.7zM152.1 114c-1.6 3-2.5 4.6-3.2 6 1.2 1.6 2.2 3 3.9 5.2h-38.2c3.2-10.2 4.6-11.2 16.3-11.2h21.2zM213.3 69c-1.1 6.4-5.3 10.3-11.1 10.3-3.8 0-7.7-.6-11.3.2-8.9 1.9-11.7-4.9-17.6-10.6 14.4.1 27.2.1 40 .1zM257.2 126.1h-35.6c.8-3.7 1.6-7.2 2.3-10.4 12.9-3.5 23.5.2 33.3 10.4zM302.3 84.7v11.5c-7.6 0-15.1.1-22.5-.1-.8 0-2-1.9-2.1-3.1-.3-2.6-.1-5.3-.1-8.3h24.7zM64.4 99.7h28.5c.6 5.5-3.6 10.8-8.2 10.9-4.1.1-8.3.2-12.4 0-6.4-.2-7.6-4.9-7.9-10.9zM170.5 124.7c.8-1.5 2-2.6 1.9-3.5-1-7 3.5-6.5 8.2-6.4 6.2.2 12.4 0 18.1 0v10.1c-3.5 2.1-9.8 2.2-28.2-.2zM87.1 124.6c6.9-13.1 17.5-10.9 27.6-10.4.4.5.7 1 1.1 1.5-3.9 3.4-7.3 8.4-11.8 9.6-5.2 1.5-11.3-.3-16.9-.7zM244.6 110.6c-6.5 0-12.6.6-18.5-.2-5.1-.7-1.3-5.9-3.1-8.6 1.6-1 3.2-2.9 4.8-2.9 5.2-.1 10.5.5 16 .9.2 2.9.5 6.3.8 10.8zM223 84.8h20.6c.4 2.3 1 4.4 1.1 6.5.3 3.2-1.4 5-4.6 4.9-3.5-.1-6.9-.9-10.3-.6-4.9.4-7.2-1.2-6.4-6.3.1-1.4-.3-2.9-.4-4.5zM252.1 84.5c4.5 0 8.5-.1 12.4 0 4.4.1 8.3 5.6 6.4 9.4-.6 1.3-3.1 2.1-4.8 2.3-2.8.3-5.7.1-8.6-.2-3.8-.5-6.1-2.7-5.9-6.8.1-1.4.3-2.9.5-4.7zM43.4 114.1h19.4c-2.5 8.2 4.7 7.3 9.2 9.4-4.5 4-8.9 1.1-13.1.8-2.6-.2-5.4-1.7-7.7-1.1-3.1.8-3.9-.6-4.8-2.7-.9-1.8-1.7-3.7-3-6.4zM68.8 85.4c-2.1 1.2-4.1 2.5-6.2 3.7-1.2.7-2.7.9-3.7 1.7-1.4 1.1-2.4 3.5-3.7 3.6-4.7.4-9.5.2-15 .2 2.8-3.4 4.5-6 6.7-8 1.6-1.4 3.9-2.6 5.9-2.7 5-.4 10.1-.1 15.2-.1.3.4.5 1 .8 1.6zM114.4 99.9c.6 1.5 1.5 3 2 4.7.9 2.8-1.7 6.1-4.5 6-4.9-.2-9.8-.5-14.7-.7 4-10.7 4-10.7 17.2-10zM40.3 109.6c1-2.7 1.8-4.5 2.3-6.4 1.6-6.1 6.8-3.9 10.5-4.2 3.8-.3 5.9 2.9 6.4 6.4.2 1.2-1.4 3.9-2.3 4-5.5.4-11.1.2-16.9.2zM115.7 95.2c-4.9 0-10 .6-14.7-.3-1.8-.4-3.1-4.2-4.4-6.5-.6-1.2-.6-2.7-1-4.1H110c1.8 3.2 3.6 6.8 5.7 10.9zM67.6 94.1c4.7-2.8 6.5-10 13.7-8.4 5 1.1 9.3 2.9 11.3 8.4h-25zM51.5 69.7c-.9 2.2-1.2 5.5-2.7 6.1-4.1 1.8-8.6 2.9-13.1 3.2-.8 0-2-5.2-3.4-9.3h19.2zM432 83.7h19.3c-1.7 3.4-2.7 7-4.9 9.5-1.1 1.2-5.3 1.6-6.5.5-2.9-2.6-5-6.2-7.9-10zM101.7 147.2c-8.4 5.8-12.1-3.2-18.2-3.8 1.5-7.3 4.9-8.3 11.6-3.2 2.6 1.9 4.5 4.7 6.6 7zM215.6 85.2v9.5h-15.3c4.9-4.9 6.5-12.8 15.3-9.5zM184.6 94.8h-12c.7-3.9 1.2-7.4 1.8-10.8.6-.1 1.1-.2 1.7-.4 3.1 3.3 6.1 6.6 9.2 9.9-.3.4-.5.9-.7 1.3zM202.3 84.3c-2.4 3.9-4.4 7.2-6.9 11.2-3.1-4-5.6-7.2-8.7-11.2h15.6zM41 124.5c-7.7 1.4-8.8.6-8.2-7.1.1-1.4 1.6-2.6 2.4-3.9 1.2 1.4 2.7 2.6 3.5 4.2 1.1 1.9 1.5 4.2 2.3 6.8zM77.1 139.6c-3.4 2.8-7.3 4.9-2.4 9-1.9 1.1-3.5 2-5.1 2.9-3-3.8-.6-13 3.8-13.9.8-.2 2 1.1 3.7 2zM34.1 84.3c2.1-.5 4.3-1 7.8-1.9-2.6 4.7-4.7 8.4-6.8 12.1-.3-.1-.7-.2-1-.3v-9.9zM39.6 100.1c-1.5 2.8-3.1 5.7-4.6 8.5-.5.1-1 .1-1.5.2-.2-2.6-1.3-5.5-.4-7.5.7-1.5 3.9-1.8 6.1-2.6.1.4.3.9.4 1.4zM68.6 137.5c-1.9 3.5-3.5 6.7-5.4 9.7-.4.7-2 .6-3 .9 0-.9-.5-2.3 0-2.7 2.6-2.7 1.6-8.8 8.4-7.9zM252.7 106.4c.2-3.4.3-5.2.3-7h8.5c-3.2 2.5-5.4 4.3-8.8 7z" fill="#fff"/>
  <path d="M229.8 409.8c4.4-8.3 11-5.3 16.4-5.8 7.8-.7 15.6-.7 23.4-1 .6 0 1.1-.7 2-1.3h-39.8c-.1-.5-.2-1.1-.2-1.6 1.8-.3 3.7-.9 5.5-.9 13.3-.4 26.7-.8 40-.9 10.3-.1 20.6.2 30.8.7 1.6.1 3.2 1.7 5.2 2.8.6-3.3 1.5-6.2-3.6-6.2-18.9.2-37.9.2-56.8.3h-17.6c-5.4 0-7 2.7-7.3 8-.4 6.9-1.7 13.9-3.3 20.6-.3 1.5-3.5 3.2-5.3 3.2-2.4-.1-4-1.8-4.3-5.1-.4-5.2-2.3-10.3-3-15.4-.5-3.5-.1-7.1-.1-10.9h-11.6c-.1.2-.2.5-.2.7 1.6.4 3.1.9 4.7 1.3 0 .2 0 .4.1.6h-25c0-.4-.1-.7-.1-1.1h15.9c-5.6-7.5-3.7-15.1-2.7-22.4.8-5.8 2.6-11.5 3.5-17.4.4-2.4-.6-5 .2-8 1.2 1 2.4 2 3.9 3.3 1.3-2.3 2.3-4.3 3.8-6.9 1.6 2.4 2.6 3.9 4.3 6.6.7-4.6 1.1-7.8 1.6-11h1.5c.8 1.4 1.7 2.9 3.2 5.5-.3-3-.6-4.8-.6-6.5 0-1.4.6-2.8.9-4.2 1.4.6 3 .8 4.1 1.7 1.5 1.3 2.6 3.1 3.9 4.7.5-.4 1.1-.8 1.6-1.3-1.9-2.2-3.3-5.3-5.6-6.4-10-4.7-20.2-8.8-30.4-13-6-2.5-12-4.6-18.4-7.1-5.5 8.2-11 16.3-17 25 6.2 1.6 11.6 3 17.6 4.6-.3.2.2-.1.6-.4 3.2-1.8 6.9-5.7 9.6-5.1 5 1.1 9.6 4.3 10.8 10.6 2 9.9-1.7 18.3-5.5 27-5 11.4-12 21.4-20.8 30.2-3.3 3.3-6 3.9-9.5.4-3.6-3.6-7.9-4.7-13.1-4.6-19.3.6-38.6.7-57.9 1-.3 0-.5-.4-.8-2.2h59.4v-2.6c-31.8-.7-63.6.3-95.4 2 0-.6-.1-1.2-.1-1.8 9.4-.5 18.9-1 28.3-1.5v-.7H31.9c-.1-.3-.2-.7-.3-1 1.1-.6 2.3-1.1 3.4-1.7-.1-.2-.1-.4-.2-.7-5.5.5-11 1-16.5 1.4-.1-.8-.1-1.6-.2-2.4 15.4-.9 30.9-1.8 46.9-2.7-3-8.7 2.1-14.9 4.5-21.7 1.2-3.6 1.9-7.6 3.8-10.7 5.9-9.6 11.8-19.1 18.5-28.1 8.5-11.3 17.8-22 26.7-33 3.2-4 6.5-7.9 9.6-12.1 4.4-5.9 3.9-11.8-.1-18-5.7-8.9-11.9-17.7-15.8-27.4-3.9-9.8-3.9-20.4-3.4-31.5.6-13.5 5.3-24.6 11.7-35.5 3-5.1 9-8.5 12.5-13.4 3.6-5.1 10.7-6.9 12.4-13.7.2-.8 1-1.5 1.8-1.9 3.1-1.7 5.7-3.9 7.2-6.4 1.7 2.3 3.1 4.4 4 5.5 9.2-2.6 18-6.3 27.2-7.3 6-.6 15 .7 18.1 4.7 6.8 8.6 17.1 11 24.5 17.8 1.1 1 2.8 3 2.5 3.8-1.8 4.6 1.3 7 4.1 8.7 6.2 3.8 5.9 10.9 9.1 16.3 5.3 8.8 9.5 18.3 15 27 2.3 3.6 7 5.7 10.6 8.6 1.4 1.1 2.7 2.3 3.9 3.5 12.7 12.7 5 20.2-7.7 26.4-2.3 1.1-5.6.2-8.5.1-.7 0-1.6-.6-2-.3-7 4.1-13.9 8.2-20.8 12.4-.5.3-.7 1.2-1.1 1.9.7.8 1.3 1.4 1.9 2.1 5.5 5.9 5 8.3-2.2 11.8-1 .5-2.2 1.5-2.3 2.4-1.4 10.9-3.9 13.1-13.2 16.2-11.2 3.8-21.9.6-32.7-.6-4.6-.5-9.1-1.8-14-2.8-.5 1.1-1.1 2.3-2.1 4.6 7.1 1.1 13.6 2.5 20.1 3.1 10.4.9 20.8 1.5 31.1 1.8 3.2.1 6.4-1.2 9.6-1.3 2.3 0 4.7.9 7.1 1.4-.6 2-1.2 4-2 6-.2.5-1 .8-1.4 1 1.8 2.1 4.4 3.8 4.7 5.8.3 1.7-2.3 3.8-3.4 5.8-.9 1.7-1.1 3.8-2.2 5.2-1.5 1.9-3.5 3.4-5.7 5.3.9 2.9 2.2 6.9 3.5 10.9 3.6-2.3 6.9-4.4 10.3-6.6.6-8.6.7-8.6 9.9-8.7 11.2-.2 22.4-.9 33.7-1 10.9 0 21.8.6 32.8.8 11.7.2 23.4.4 35.1.2 13.9-.3 27.8-1.4 41.7-1.5 9.9-.1 19.8.8 29.7 1.6 5.8.5 8.4 3.5 8.7 9.6.3 5.3.8 10.6.5 15.8-.8 11.9-8.4 18.5-20.5 18.4-1.8 0-3.7-.3-5.4.1-3.7.9-8.1 1.1-7.3 7 .3 2.2-.2 4.6-.9 6.7-1.7 5.3 1.2 5.9 5.4 6.3 6.9.6 13.7 2 20.6 2.6 3.3.3 6.7-.5 10-.9.1.7.3 1.5.4 2.2-3.9.6-7.8 1.7-11.6 1.7-4.2 0-8.3-1.1-13.1-1.7.2 1.8.4 3 .7 5.7h-41.7c-.7 0-1.9-.4-2.1-.2-2.6 4.7-7.1 2.7-10.8 2.9-8.3.6-16.5 1-25.9 1.6 1.6-4 2.5-6.7 3.9-9.1.5-.8 2.7-.7 4.1-.7 5.2-.1 10.4 0 15.6 0V396c-3.9 0-7.7.2-11.6-.1-1.7-.1-3.3-1-4.9-1.6-4.8-1.7-7.3 0-7.9 4.8-.9 7.2-1.7 14.4-3.3 21.5-.4 1.7-3.8 3.6-5.9 3.7-1.5.1-3.9-2.5-4.4-4.3-1-3.9-1-8-1.4-12.1-.3-3.4-4.2-5.9-6-3.6-4.3 5.6-10 2.7-14.9 2.9-17.7.8-35.5.8-53.2 1.2-3.1.5-6.3 1-10.6 1.4zM149.4 155c-2.5-.7-6.2-1.5-8.1 3.7-.4 1.2-1.9 2.2-3.2 2.8-8.1 3.9-13 11.1-16.4 18.6-4.5 10-9.1 19.8-9.5 31.8-.4 12 3.8 21.6 8.6 31.6.1.2.9.1 1.4.2-3.5-17.8-3.5-17.8-.3-20 2.4 12.6 2.4 12.7 7.5 18.6.9 1.1 2.1 1.9 3.2 2.8 3.2 2.5 5.5 10.5 4 15.6-3.8-4.4-7.3-8.5-10.8-12.6-.4.3-.8.7-1.2 1 1.9 3.3 3.4 7 5.9 9.9 5.8 6.5 7.9 13.8 5.7 22.6 7.5 4.6 14.9 9.3 22.3 13.8 2.8 1.7 5 2.1 7-1.6.9-1.7 4.1-3.2 6.2-3 5.7.5 11.2 2.3 16.9 3 6.3.8 12.6 1.1 19.7 1.7-2.2-7.6-4-13.9-6.2-21.4 2.9-.2 5.9-.4 9.7-.7-3.4 8.6-.9 15 2.8 21.1 8.7-2.7 10.2-4.9 10.9-14.4.2-2.4 1.2-4.7 1.9-7.3 2.1 1.6 3.3 2.5 4.9 3.7.9-1.5 1.6-2.6 2-3.3-2.2-2.4-3.8-4.5-5.8-6.1-.8-.7-2.6-.5-3.8-.2-2.1.5-4 1.4-6.1 2.1 4-10.1 13.9-10.7 21.7-15.4-2.1-3.2-4-6.1-6-9 .5-.4 1-.9 1.4-1.3 3 2.6 6 5.1 9.5 8.1 1.4-1 3.5-2.4 5.8-4.1-6.7-4.8-12.7-9.3-19.2-14 2.1-1 3.4-1.7 4.6-2.3-3.3-10.9-3.3-11 .8-11.7-.2 9.7 6.5 15.6 12.5 21.8 1.2 1.2 4.5 1.7 5.8.9 1.2-.8 1.5-3.8 1.3-5.8-.3-2.6-1.8-5-2.4-7.5-.4-1.6-.1-3.4-.1-6 6.1 5.6 7.9 15.1 5.2 23.7 5.2 3 8.5 0 11.9-3.5 3.2-3.3 2.2-6.7.3-9.8-1.7-2.7-3.7-5.6-6.3-7.4-9.5-6.4-15-16.1-21.6-24.9-.2-.3-.7-.7-.6-.8 2-5.6-3.3-7.5-5.2-10.4 0-2.2.6-4-.1-5.3-4.8-9.6-12-17.8-18.5-26-5.8-7.3-14.3-13.8-25.4-12.9-1.1.1-2.2-.4-4.2-.9 1.8-1.5 2.8-2.4 3.9-3.3-.1-.4-.2-.9-.3-1.3-7.4 1.7-14.8 3.4-22.2 5-.6.1-1.8.2-1.8.1-1.5-4.2-3.9-1.4-5.4-.4-4.9 3.1-9.3 6.6-14.6 10.4zm102.8 194.5c-.3-.5-.7-.9-1-1.4-1.4 1.2-3.8 2.2-4.1 3.6-.5 3.1 1.6 4.1 4.7 4.1 3.5 0 7.2 1.2 10.6.7 10-1.5 20-3.3 29.9-5.4 6.2-1.3 12.3-3.7 18.5-5.2 1.5-.4 3.3.7 4.9 1.2l-.3 1.5c2.6-.7 5.3-1.5 7.9-2.2v-.8c-1.3-.2-2.7-.5-4-.7 4-1.2 7.5-6.1 11.8-1.2.3.3 2.5-.4 3.3-1.2 1-.9 1.6-2.4 2.3-3.7.8 1.2 1.5 2.4 2.7 4.2 1.4-1.7 2.8-3.4 4.1-5 6.1 6 8.3-4.3 11.6-3.5h-61.3c-.7 2-1.1 3.5-1.7 5.4h4.7c0 .3.1.7.1 1l-10.2 2.7c-.1-.3-.2-.7-.2-1 1.4-1.1 2.7-2.2 4.1-3.3-.2-.3-.4-.6-.7-.9-1.3.3-2.6.6-4 1-.6-4.3-4.2-6-9.9-5.4-5 .5-10 .9-15 1.1-5.2.2-10.5 0-16 0-.1 1.6-.2 2.7-.2 3.8-.1 6.1.3 6.4 6.3 4.9 7.9-2 15.8-4.2 24.6-6.6-.9 1.3-1.1 1.9-1.4 2.1-2.2.9-1.9 8.9-6.8 2.5-.1-.1-1.9.7-1.9 1 .2 3.3-2 2.9-4.2 3.3-2.7.6-5.3 2-7.9 3 3.6.3 7-.4 10.3-1.2 3.3-.9 6.6-2 9.9-3 .2.7.4 1.4.5 2.1-8 2-16 4.1-23.9 6.1l-.6-1.5c1-.7 1.8-1.4 2.5-2.1zm-65 4.6c-1.3-2.2-2.8-6-5.5-8.5-.9-.8-5.7 1-7.2 2.9-2.3 2.8-4.1 6.6-4.4 10.1-.3 4.2 2.7 9.1 1.4 12.6-1.2 3.3.4 10.1-6.7 9.9-.3 0-.6.8-.9 1.3-2.3 4.2-3.9 8.9-6.9 12.6-3.2 4-.6 6.1 1.7 8 3 2.5 5.5.8 7.5-2.1 2.3-3.4 4.9-6.6 7.2-10 7.2-10.6 11.4-22.3 13.8-36.8zm240.9-17.5c-1.4-1.1-1.7-1.5-1.9-1.5-10.3-.8-20.6-2.1-31-2.1-12.2 0-23.9 2.7-35.6 7.1-8.8 3.3-17.9 7-27.9 6.2-.9-.1-2 .7-2.8 1.2-6 3.9-12.4 5.4-19.6 4.8-2.7-.2-5.6 1.2-8.3 1.9 8.8.4 17.4.9 26 .3 7.7-.6 15.5-1.1 21.9-7 2.6-2.4 7.1-3.3 10.8-3.6 9.8-.8 19.7-.8 29.5-1.4 9.1-.5 18.2-1.2 27.2-2.3 3.7-.3 7.2-2.1 11.7-3.6zm-39.7 38.8c-9.2 1.4-17.6 2.6-25.9 4.1-4.5.8-17 10.7-19.2 14.3h46.4c-.5-6.6-.9-12.5-1.3-18.4zM221.9 329c0-.1.2-.6.2-1.1l.3-4.2c1.1.8 2.2 1.6 3.3 2.5 1 .8 1.9 1.7 2.9 2.6.3-.3.6-.6.9-.8-1.7-3.3-3.3-6.7-5-10 .3-.4.6-.8 1-1.1 2.6 1.5 5.3 2.9 7.9 4.4.4-.5.8-1.1 1.2-1.6-3.2-2.7-6.4-5.4-10-8.5 3.2-1 5.3-1.7 8.2-2.6h-13.9c4.5 7.5 4.7 7.8 2.5 9.7-1.3 1.1-3.9 1.8-5.4 1.2-2-.8-3.4-3-5-4.5l1.2-1.2c1.7 1.1 3.4 2.1 6.4 4.1-1.6-4.2-2.7-6.8-3.9-9.9h-31.1c-.5 2.3-1 4.3-1.5 6.4 7.1 2.8 13.8 5.5 20.7 8 6.2 2.2 12.6 4.3 19.1 6.6zm-116.7-6.5c-.1.1-.8.7-1.4 1.3-4.5 4.5-4.5 5.9 1.1 9.2 5 3 10.6 5.1 15.3 8.6 3.8 2.9 7.7 2.7 12 3.2 6 .7 11.9 2.5 17.9 3.6 4.1.7 8.3.9 12.4 1.3.1-.5.1-1 .2-1.6-.9-.5-1.7-1.2-2.6-1.5-8.5-2.2-17.2-3.9-25.6-6.7-3.9-1.3-9.6-1.7-10.1-7.9 0-.5-.9-1.1-1.5-1.4-5.8-2.5-11.6-5.2-17.7-8.1zm310.5 28.9c-1 2.3-1.8 4-2.2 4.9 1.1 1.5 2.7 2.6 2.6 3.6-.3 2.8-1.3 5.5-2 8.4 10.9-.3 14.8-3.5 15.2-12.5.2-4.6 0-9.2 0-13.9-22.8 3.8-22.8 3.8-24.6 9.4 3.6.1 6.9.1 11 .1zm-267.7 6c-3.5 10.2-6.9 20-10.2 29.8 2.2 1.3 4.2 2.5 6.7 3.9 2.3-4 5-7.8 6.8-12 4.3-10 6.4-13.9-3.3-21.7zm197.1 30.7c-1-2.1-1.6-3-1.8-4-1.1-4.9-5.1-8.9-2.2-14.9 1.6-3.3.3-8 .3-12.1-5.8 1.6-11.4 2.4-13.4 9.2 2.3.4 4.6.8 7.3 1.2-1.1 2-1.9 3.6-2 3.8.7 4.4 2.1 7.8 1.3 10.6-.7 2.7-3.6 4.8-6.6 8.3 6.2-.7 11.2-1.4 17.1-2.1zm-232.6-40c-6.1-3.3-12-6.6-18-9.6-.6-.3-2.2.3-2.8 1-1.5 1.7-2.6 3.7-3.9 5.5 7.2 8.1 15.4 9.4 24.7 3.1zm20.2-13.7c.8.2 1.5.5 2.3.7 5.6-9.2 11.1-18.4 16.7-27.5-3-2.9-5.7-2.5-7.7.7-2.7 4.2-5.3 8.5-7.3 13-1.9 4.1-2.7 8.7-4 13.1zm26.3-24.5c-6.4 6.9-14.8 24.1-13.3 30 .8-1.8 1.1-2.7 1.6-3.5 4.4-6.6 8.5-13.5 13.3-19.7 2.9-3.8 1.7-5.2-1.6-6.8zm-5.8 85.6c5.2-7.4 8-15.4 6.8-25.6-3.5 6.6-5.9 12.5-9.4 17.6-3.9 5.6-4.2 5.8 2.6 8zm6.5-90.8c.1-.2.2-.3.2-.5-8.7-5.6-17.4-11.2-26.3-17-.9 1.3-1.7 2.6-2.6 3.8 5 5.3 11 8.5 17.8 10.2 3.7 1 7.3 2.3 10.9 3.5zM110.9 315c2.6 1.8 4.3 3 6 4.1 6.8 4.3 8.9 3.9 10.6-2.2-4-2.3-8.1-4.6-12.3-7-1.5 1.8-2.8 3.4-4.3 5.1zm89.1 46.4v2c.7.3 1.5.9 2.2.8 7.4-.6 14.9-1.6 22.3-1.9 5.2-.2 10.5.6 15.7.7.9 0 1.9-1.2 2.8-1.8-.2-.5-.4-1.1-.6-1.6-14.1.6-28.3 1.2-42.4 1.8zm-63-55.3c-3.1-2.3-5.9-4.7-9-6.5-.9-.5-2.8.5-4.3.9.4 1.2.3 3 1.1 3.6 2.9 2.2 6.2 4 9.4 6 1.2-1.5 2-2.8 2.8-4zm73.5 60.2.3.6H233c0-.2-.1-.4-.1-.6h-22.4zM42.9 393.7c.1.2.1.4.2.6h22.8c0-.6-.1-1.2-.1-1.8-7.7.4-15.3.8-22.9 1.2zm46.5-37.3c-2.4-.7-3.9-1.6-5.3-1.4-1.4.2-2.8 1.3-3.9 2.4-.5.5-.3 1.8-.4 2.8 1.4-.3 2.8-.4 4.1-.8 1.5-.8 3-1.7 5.5-3zm300.4 44.2c0-.4-.1-.7-.1-1.1h-17.9v1.1h18z"/>
  <path d="M391.1 306.8c18-32.3 42.6-59.6 66.1-89.3.7 2.3 1.3 3.4 1 3.8-22.3 28.6-44.7 57-67.1 85.5zM357.9 306.6c11.2-22.3 22.4-44.6 33.5-66.9.7.2 1.4.5 2.1.7-.6 2-.8 4.2-1.7 6.1-5.2 10.6-10.6 21.1-16 31.7-4.6 9-9.2 17.9-13.9 26.8-.6 1-1.6 1.9-2.4 2.8-.5-.5-1-.8-1.6-1.2zM429.8 309.7c6-9.3 15.5-15.4 22.8-23.6 7.3-8.2 15.6-15.5 24.5-23.3-.5 1.6-.5 3.6-1.5 4.6-9.1 9.1-18.5 18.1-27.6 27.2-5.5 5.4-10.9 11.1-16.3 16.6-.7-.5-1.3-1-1.9-1.5zM193 404.9h9.5v2.1c-8.3 0-16.6.2-24.8-.2-1.4-.1-2.6-2.7-4.7-4.9h37.2c0 .5.1.9.1 1.4h-17.2c-.1.5-.1 1-.1 1.6zM342.1 264c-3.9 14.3-7.9 28.7-11.8 43-.6-.2-1.2-.3-1.9-.5 2.9-14.6 5.5-29.3 11-43.2 1 .3 1.9.5 2.7.7zM449.5 336.7c5.9-7.9 27.8-19.1 32.6-16.8-11 6.3-21.3 12.6-32.6 16.8zM357.7 58.8c-.8 1.4-1.6 2.8-2.7 4.7-1.8-1.5-3.3-2.8-5.2-4.3-.8.5-1.9 1.2-3.9 2.4.5-1.8.5-3 1.1-3.5 1.7-1.4 3.5-3.2 5.5-3.7 2.5-.6 5.4-.2 7.8-.8 2.5 1.1 4.9 2.3 7.5 3.4-2.1 5.4-4.2 6.1-10.1 1.8zM268 309.8c1.2-10.5 2.5-21-11.5-25.4 5.9-1.8 12.4 2 14.8 7.4 3.1 7 1.7 15.1-3.3 18zM250.7 308.8c-.6-4-.2-8.6-2.1-11.8-1.6-2.6-5.9-3.6-9.1-5.3 4.7-1.8 10.5-.2 13.5 3.7 3.7 4.9.7 9.1-2.3 13.4zM134.1 89.5c-1.9 1.5-3.2 2.6-4.5 3.6-.9-1.1-2.4-2.2-2.4-3.3 0-1 1.6-2.8 2.6-2.8 1.1-.1 2.4 1.3 4.3 2.5zM129.4 108.3c-1.5-1.6-2.5-2.7-3.5-3.7 1.3-1.2 2.5-2.7 4.1-3.5.4-.2 2.9 2 2.8 2.9-.2 1.4-1.8 2.5-3.4 4.3z"/>
  <path d="M149.4 155c5.3-3.9 9.7-7.3 14.4-10.4 1.5-1 3.9-3.8 5.4.4.1.2 1.2.1 1.8-.1 7.4-1.7 14.8-3.3 22.2-5 .1.4.2.9.3 1.3-1.1.9-2.1 1.8-3.9 3.3 2 .4 3.1 1 4.2.9 11.1-.9 19.7 5.7 25.4 12.9 6.5 8.2 13.7 16.4 18.5 26 .6 1.3.1 3.2.1 5.3 2 2.9 7.2 4.8 5.2 10.4-.1.2.4.6.6.8 6.6 8.8 12.1 18.5 21.6 24.9 2.6 1.7 4.6 4.6 6.3 7.4 1.9 3.1 2.9 6.5-.3 9.8-3.4 3.5-6.7 6.5-11.9 3.5 2.7-8.6.9-18-5.2-23.7 0 2.5-.3 4.3.1 6 .6 2.6 2 5 2.4 7.5.2 1.9-.1 4.9-1.3 5.8-1.2.8-4.6.3-5.8-.9-6-6.1-12.7-12.1-12.5-21.8-4.2.7-4.2.8-.8 11.7-1.2.6-2.5 1.2-4.6 2.3 6.5 4.7 12.6 9.1 19.2 14-2.4 1.7-4.4 3.1-5.8 4.1-3.5-3-6.5-5.6-9.5-8.1-.5.4-1 .9-1.4 1.3 1.9 2.9 3.8 5.8 6 9-7.8 4.6-17.6 5.3-21.7 15.4 2-.7 4-1.6 6.1-2.1 1.2-.3 3-.5 3.8.2 2 1.6 3.6 3.8 5.8 6.1-.4.7-1.1 1.8-2 3.3-1.5-1.2-2.8-2.1-4.9-3.7-.7 2.7-1.8 5-1.9 7.3-.7 9.5-2.2 11.7-10.9 14.4-3.7-6.2-6.3-12.5-2.8-21.1-3.8.3-6.8.5-9.7.7 2.2 7.5 4 13.8 6.2 21.4-7.1-.6-13.4-.8-19.7-1.7-5.7-.8-11.2-2.5-16.9-3-2-.2-5.2 1.3-6.2 3-2.1 3.7-4.2 3.3-7 1.6-7.4-4.6-14.8-9.2-22.3-13.8 2.1-8.8 0-16.1-5.7-22.6-2.5-2.8-3.9-6.5-5.9-9.9.4-.3.8-.7 1.2-1 3.5 4.1 7 8.1 10.8 12.6 1.5-5.2-.8-13.1-4-15.6-1.1-.9-2.3-1.7-3.2-2.8-5.1-5.9-5.1-5.9-7.5-18.6-3.2 2.2-3.2 2.2.3 20-.5-.1-1.3 0-1.4-.2-4.9-10-9-19.5-8.6-31.6.4-11.9 5-21.8 9.5-31.8 3.3-7.5 8.2-14.8 16.4-18.6 1.2-.6 2.7-1.6 3.2-2.8 2.1-5.1 5.8-4.4 8.3-3.7zm34.4 90.3c-1.5-.6-3.3-.9-4.5-1.9-6.4-4.9-4.8-14.6 0-18.1 1.6-1.2 4.5-1.6 6.4-1.1 1.3.3 2.2 2.9 2.9 4.5.6 1.4.9 3.1 1.6 6 3.5-5 2-8.2-.1-11.2-2.4-3.3-5.4-5.8-9.8-4.1-7.5 2.9-12.6 12.5-11.1 20.2 1.2 6.2 8.1 10.2 14.6 5.7zm21.7-27.4c.4 0 .8.1 1.1.1.8-2.5 1.5-5 2.3-7.5-5.8-2.4-7-1.9-10.3 3.7-1.6 2.7-1.6 8.8.2 10.2l5-12c1 2.8 1.3 4.2 1.7 5.5zm-56.1 25.9c.4.6.9 1.2 1.3 1.8 1.7-11.2 10-5.1 16.3-6.8-2.6-2.1-4.3-3.4-5.1-4.1-3.3.6-6.5.3-8.3 1.7-2.1 1.7-2.9 4.9-4.2 7.4zm.4-4.1c-7.2.7-9 4.8-6.3 10.5 2-3.2 3.8-6.3 6.3-10.5zm66.4-27.7c0 .7-.1 1.4-.1 2 11.8 2.6 12.8 2.6 13.2-.8-4.3-.4-8.7-.8-13.1-1.2zM252.2 349.5c-.8.7-1.6 1.4-2.3 2.1l.6 1.5c8-2 16-4.1 23.9-6.1-.2-.7-.4-1.4-.5-2.1-3.3 1-6.5 2.1-9.9 3-3.3.9-6.7 1.5-10.3 1.2 2.6-1 5.2-2.4 7.9-3 2.2-.5 4.4 0 4.2-3.3 0-.3 1.8-1.1 1.9-1 4.9 6.5 4.6-1.6 6.8-2.5.4-.1.6-.8 1.4-2.1-8.8 2.3-16.7 4.5-24.6 6.6-6 1.6-6.3 1.3-6.3-4.9 0-1.1.1-2.1.2-3.8 5.5 0 10.7.1 16 0 5-.2 10-.6 15-1.1 5.7-.6 9.2 1.1 9.9 5.4 1.3-.3 2.7-.6 4-1 .2.3.4.6.7.9-1.4 1.1-2.7 2.2-4.1 3.3.1.3.2.7.2 1l10.2-2.7c0-.3-.1-.7-.1-1h-4.7c.6-1.9 1.1-3.3 1.7-5.4h61.3c-3.3-.8-5.5 9.5-11.6 3.5-1.3 1.6-2.7 3.3-4.1 5-1.2-1.8-2-3-2.7-4.2-.7 1.3-1.3 2.7-2.3 3.7-.8.8-3 1.6-3.3 1.2-4.3-4.9-7.8 0-11.8 1.2 1.3.2 2.7.5 4 .7v.8c-2.6.7-5.3 1.5-7.9 2.2l.3-1.5c-1.7-.4-3.5-1.5-4.9-1.2-6.2 1.5-12.2 3.9-18.5 5.2-9.9 2.1-19.9 3.9-29.9 5.4-3.4.5-7-.7-10.6-.7-3.1 0-5.2-1-4.7-4.1.2-1.4 2.7-2.4 4.1-3.6.1.4.5.9.8 1.4zM187.2 354.1c-2.4 14.5-6.6 26.1-13.8 36.6-2.3 3.4-4.9 6.6-7.2 10-2 3-4.5 4.6-7.5 2.1-2.3-1.9-4.9-4-1.7-8 3-3.7 4.6-8.3 6.9-12.6.3-.5.6-1.3.9-1.3 7.1.2 5.5-6.6 6.7-9.9 1.3-3.5-1.8-8.4-1.4-12.6.3-3.5 2.2-7.3 4.4-10.1 1.5-1.9 6.4-3.7 7.2-2.9 2.6 2.7 4.2 6.5 5.5 8.7zM428.1 336.6c-4.5 1.5-8 3.3-11.7 3.7-9 1.1-18.1 1.7-27.2 2.3-9.8.6-19.7.6-29.5 1.4-3.7.3-8.2 1.3-10.8 3.6-6.4 5.9-14.2 6.4-21.9 7-8.5.7-17.1.2-26-.3 2.8-.7 5.6-2.2 8.3-1.9 7.2.6 13.6-.8 19.6-4.8.9-.6 1.9-1.3 2.8-1.2 9.9.8 19.1-2.9 27.9-6.2 11.6-4.4 23.4-7.1 35.6-7.1 10.3 0 20.6 1.3 31 2.1.2-.1.5.3 1.9 1.4zM388.4 375.4c.4 5.8.8 11.8 1.3 18.4h-46.4c2.2-3.6 14.7-13.5 19.2-14.3 8.3-1.5 16.7-2.6 25.9-4.1zM221.9 329c-6.5-2.3-12.9-4.4-19.3-6.8-6.8-2.5-13.6-5.3-20.7-8 .5-2.2 1-4.2 1.5-6.4h31.1c1.2 3.1 2.3 5.8 3.9 9.9-3.1-2-4.8-3-6.4-4.1l-1.2 1.2c1.7 1.6 3.1 3.8 5 4.5 1.5.6 4.1-.1 5.4-1.2 2.3-1.9 2-2.2-2.5-9.7h13.9c-2.9.9-5 1.6-8.2 2.6 3.6 3.1 6.8 5.8 10 8.5-.4.5-.8 1.1-1.2 1.6-2.6-1.5-5.3-2.9-7.9-4.4-.3.4-.6.8-1 1.1 1.7 3.3 3.3 6.7 5 10-.3.3-.6.6-.9.8-.9-.9-1.9-1.8-2.9-2.6-1.1-.9-2.2-1.7-3.3-2.5l-.3 4.2c.2.7 0 1.2 0 1.3zM105.2 322.5c6.1 2.9 11.8 5.5 17.5 8.3.6.3 1.5.9 1.5 1.4.5 6.3 6.1 6.6 10.1 7.9 8.3 2.8 17 4.5 25.6 6.7.9.2 1.8 1 2.6 1.5-.1.5-.1 1-.2 1.6-4.1-.4-8.3-.6-12.4-1.3-6-1-11.9-2.9-17.9-3.6-4.2-.5-8.1-.3-12-3.2-4.6-3.5-10.3-5.6-15.3-8.6-5.5-3.4-5.6-4.7-1.1-9.2.8-.8 1.5-1.4 1.6-1.5zM415.7 351.4h-10.9c1.8-5.6 1.8-5.6 24.6-9.4 0 4.7.2 9.3 0 13.9-.5 8.9-4.3 12.1-15.2 12.5.7-2.9 1.7-5.6 2-8.4.1-1-1.5-2.1-2.6-3.6.3-1 1.1-2.6 2.1-5zM148 357.4c9.7 7.8 7.6 11.7 3.3 21.8-1.8 4.2-4.5 8-6.8 12-2.5-1.5-4.5-2.6-6.7-3.9 3.3-9.9 6.7-19.7 10.2-29.9zM345.1 388.1c-5.9.7-10.9 1.3-17.1 2.1 2.9-3.5 5.9-5.6 6.6-8.3.7-2.8-.7-6.2-1.3-10.6.1-.2.9-1.8 2-3.8-2.6-.4-4.9-.8-7.3-1.2 2-6.7 7.5-7.6 13.4-9.2 0 4.2 1.3 8.9-.3 12.1-2.9 6 1.1 10.1 2.2 14.9.2 1 .8 1.9 1.8 4zM112.5 348.1c-9.3 6.3-17.5 5-24.7-3.2 1.2-1.8 2.4-3.8 3.9-5.5.6-.7 2.1-1.3 2.8-1 6 3.1 11.9 6.4 18 9.7zM132.7 334.4c1.3-4.4 2.1-9 3.9-13.1 2-4.5 4.6-8.8 7.3-13 2-3.1 4.8-3.6 7.7-.7-5.5 9.1-11.1 18.3-16.7 27.5-.7-.2-1.5-.5-2.2-.7zM159 309.9c3.3 1.6 4.5 3.1 1.6 6.8-4.9 6.2-9 13.1-13.3 19.7-.5.7-.8 1.6-1.6 3.5-1.5-6 6.9-23.1 13.3-30zM153.2 395.5c-6.8-2.2-6.5-2.4-2.7-8 3.5-5.2 6-11.1 9.4-17.6 1.3 10.2-1.5 18.2-6.7 25.6zM159.7 304.7c-3.6-1.2-7.2-2.5-10.9-3.4-6.8-1.7-12.8-4.9-17.8-10.2.8-1.2 1.7-2.5 2.6-3.8 8.9 5.8 17.6 11.4 26.3 17 0 .1-.1.2-.2.4zM110.9 315c1.5-1.8 2.8-3.3 4.3-5.1 4.3 2.4 8.3 4.8 12.3 7-1.7 6.1-3.9 6.6-10.6 2.2-1.7-1.1-3.4-2.3-6-4.1zM200 361.4c14.2-.6 28.3-1.2 42.5-1.8.2.5.4 1.1.6 1.6-.9.6-1.9 1.8-2.8 1.8-5.2-.1-10.5-.9-15.7-.7-7.5.3-14.9 1.3-22.3 1.9-.7.1-1.5-.5-2.2-.8-.1-.7-.1-1.3-.1-2zM137 306.1c-.8 1.2-1.6 2.5-2.7 4-3.3-2-6.5-3.8-9.4-6-.8-.6-.8-2.4-1.1-3.6 1.5-.3 3.3-1.4 4.3-.9 3 1.8 5.8 4.2 8.9 6.5zM210.5 366.3h22.4c0 .2.1.4.1.6h-22.2c-.2-.2-.3-.4-.3-.6zM42.9 393.7c7.6-.4 15.3-.8 22.9-1.2 0 .6.1 1.2.1 1.8H43.1c-.1-.2-.2-.4-.2-.6zM89.4 356.4c-2.5 1.3-3.9 2.2-5.5 2.9-1.3.5-2.7.6-4.1.8.1-.9-.2-2.2.4-2.8 1.1-1.1 2.5-2.2 3.9-2.4 1.3-.2 2.9.8 5.3 1.5zM389.8 400.6h-17.9v-1.1h17.9c-.1.4 0 .8 0 1.1z" fill="#fff"/>
  <path d="M183.8 245.3c-6.5 4.6-13.4.6-14.6-5.6-1.5-7.7 3.7-17.3 11.1-20.2 4.4-1.7 7.4.8 9.8 4.1 2.1 3 3.6 6.2.1 11.2-.8-2.9-1-4.6-1.6-6-.8-1.7-1.6-4.2-2.9-4.5-2-.5-4.8-.1-6.4 1.1-4.8 3.5-6.5 13.2 0 18.1 1.3.8 3 1.1 4.5 1.8zM205.5 217.9c-.4-1.4-.8-2.7-1.6-5.4l-5 12c-1.8-1.5-1.9-7.5-.2-10.2 3.3-5.6 4.5-6.1 10.3-3.7-.8 2.5-1.5 5-2.3 7.5-.4-.1-.8-.1-1.2-.2zM149.4 243.8c1.3-2.5 2.1-5.7 4.1-7.4 1.8-1.4 4.9-1.1 8.3-1.7.9.7 2.5 2 5.1 4.1-6.3 1.7-14.6-4.4-16.3 6.8-.3-.6-.8-1.2-1.2-1.8zM149.8 239.7c-2.5 4.2-4.4 7.3-6.3 10.5-2.7-5.7-.8-9.8 6.3-10.5zM216.2 212c4.4.4 8.7.8 13.1 1.2-.4 3.4-1.4 3.5-13.2.8 0-.7.1-1.3.1-2z"/>
  <text transform="translate(32.317 42.06)" fill="#fff" font-family="BaskervilleT-Bold" font-size="35" letter-spacing="4">PEANUTS</text>
  <text transform="translate(311.49 440.99)" fill="#010101" font-family="BaskervilleT-Bold" font-size="12">Copr 1951 by United Feature Syndicate, Inc.</text>
</svg>
