<svg xmlns="http://www.w3.org/2000/svg" viewBox="0 0 595.3 461.2" xml:space="preserve">
  <path d="M0 0h595.3v461.2H0V0zm3.5 3.9c.4 4.2.9 7.2.9 10.3 0 18.5-.1 37-.2 55.6-.1 17.5-.5 34.9-.4 52.4 0 13.9.8 27.9.7 41.8-.2 26.3-1 52.6-1.1 78.9-.2 36.1 0 72.2-.2 108.3 0 7.5-1 15-.9 22.6 0 8.4 1.1 16.7 1.1 25.1.1 16.9 0 33.9-.3 50.8C3 454.3 5 455.8 9 456c7.3.4 14.6.9 21.9 1 30 .3 60 .5 90 .6 29.6.1 59.2-.1 88.8-.1 15.6 0 31.1.3 46.7.4 20.4.1 40.8.1 61.2.3 26.7.2 53.5.7 80.2.8 43.6.2 87.3.1 130.9.2 16.1 0 32.3.3 48.4.3 3 0 6.1-.2 9-1.1 1.7-.5 4-2.3 4.3-3.8.8-3.6.7-7.5.7-11.2.1-11.2 0-22.3.2-33.5.2-11.1.6-22.2.7-33.3.1-7.2-.2-14.4-.2-21.6 0-8.2.3-16.4.3-24.7-.2-30.3-.7-60.5-.7-90.8 0-21.8 1-43.7 1.1-65.5.1-34-.3-68.1-.4-102.1 0-20.4 0-40.9.3-61.3.1-5.5-3.3-5.9-6.9-5.8-13.3.1-26.6.7-39.9.5-22-.3-44-1.3-66-1.6-16.5-.4-33 .3-49.5.3-14.2 0-28.5-.7-42.7-.6-35.7.1-71.3.6-106.9.9-24.7.2-49.3 0-74 .1-28.5.1-57 .5-85.5.5-12.3 0-24.6-.4-36.8-.8-8.2-.2-16.5-.7-24.7-.7-5.2 0-10.4.9-15.6.8-9-.1-18.1-.7-27.1-.9-4.4-.1-8.8.4-13.3.6z" fill="#fff"/>
  <path d="M3.5 3.9c4.5-.2 8.9-.7 13.3-.6 9 .2 18.1.8 27.1.9 5.2.1 10.4-.9 15.6-.8 8.2 0 16.4.5 24.7.8 12.3.3 24.6.8 36.8.8 28.5 0 57-.4 85.5-.5 24.7-.1 49.3 0 74-.1 35.6-.2 71.3-.8 106.9-.9 14.2-.2 28.4.5 42.7.5 16.5 0 33.1-.7 49.6-.5 22 .3 44 1.3 66 1.6 13.3.2 26.6-.5 39.9-.5 3.6 0 7 .3 6.9 5.8-.4 20.4-.4 40.8-.3 61.3.1 34 .5 68.1.4 102.1 0 21.8-1 43.7-1.1 65.5 0 30.3.5 60.5.7 90.8.1 8.2-.2 16.4-.3 24.7 0 7.2.3 14.4.2 21.6-.1 11.1-.6 22.2-.7 33.3-.2 11.2-.1 22.3-.2 33.5 0 3.8.1 7.6-.7 11.2-.3 1.6-2.6 3.3-4.3 3.8-2.8.9-6 1.1-9 1.1-16.1 0-32.3-.2-48.4-.3-43.6-.1-87.3 0-130.9-.2-26.7-.1-53.5-.6-80.2-.8-20.4-.2-40.8-.2-61.2-.3-15.6-.1-31.1-.4-46.7-.4-29.6 0-59.2.2-88.8.1-30-.1-60-.3-90-.6-7.3-.1-14.6-.6-21.9-1-4-.2-6.1-1.7-5.9-6.4.4-16.9.5-33.9.3-50.8-.1-8.4-1.1-16.7-1.1-25.1 0-7.5.9-15 .9-22.6.1-36.1 0-72.2.2-108.3.2-26.3 1-52.6 1.1-78.9.1-13.9-.7-27.9-.7-41.8 0-17.5.3-34.9.4-52.4.1-18.5.2-37 .2-55.6-.1-2.7-.6-5.7-1-10zm361 129.7c.3.6.6 1.3.9 1.9-2.2 1.3-4.3 3.3-6.7 3.9-6.6 1.5-13.4 2.6-20.1 3.6-14.9 2.3-29.8 5.2-44.8 6.6-14.6 1.4-29.2 1.5-43.9 1.7-8.7.1-17.5-.7-26.2-.9-6.3-.2-12.6.2-18.8-.3-15.4-1.4-30.8-2.7-46.1-5-9.9-1.5-19.8-3.9-29.1-7.4-6.5-2.5-12.1-7.3-19.8-6.4-2.7.3-5.5-.2-8.2-.1-12.8.2-25.7.4-38.5.8-2.9.1-6.2 2.1-8.7 1.2-13.3-4.5-27-2-40.4-3.2-3.6-.3-4 1.7-4 4.7.1 13.4 0 26.7-.1 40.1-.3 31.7-.8 63.4-1 95.1-.2 26.8-.3 53.6-.2 80.4 0 26.5.3 52.9.4 79.4 0 5-.7 10-.6 14.9 0 1.3 2 3.6 3.2 3.7 8.9.9 17.9 1.8 26.8 2 18.3.5 36.7.9 55 .9 40.3 0 80.5-.2 120.8-.3 14.9 0 29.8-.2 44.8 0 9.7.1 19.4 1 29.1 1 18.9.1 37.8-.1 56.7-.1 16.9-.1 33.8-.2 50.7-.2 16.8 0 33.6.1 50.5.2 16.8.1 33.5.1 50.3.3 9.4.1 18.9.3 28.3.3 8.9 0 17.9-.2 26.8-.2h34.2V417c0-12.5-.2-25-.1-37.6 0-13.6.2-27.2.3-40.8.2-26.1.4-52.1.5-78.2.1-20 .1-39.9.2-59.9v-65.7C432.9 132 279.5 132 126 132c7.8 3.2 15.5 6.1 23.4 7.8 6.4 1.4 13.1 1.3 19.7 2.1 11.5 1.3 23 3.4 34.5 4 16.8.9 33.6 1 50.4 1 11.6 0 23.2-.5 34.7-1.4 9.6-.7 19.1-2.3 28.7-3.6 9.8-1.3 19.6-2.6 29.3-4.2 5.9-1 11.9-2.7 17.8-4.1zM209.8 62.5c1-1.6 2.2-3.7 3.4-5.8 2.1-3.4 5.4-5.2 9-4 3.5 1.1 7.8 2 8 7.4.1 3.4 3 3.3 5.6 3.3 18.4-.2 36.7-.2 55.1-.7 3.4-.1 6.8-1.6 10-2.9 2.8-1.1 5.5-4.1 6.8 1.5.1.6 1.6 1.1 2.6 1.2 2.4.2 4.7 0 7.1 0 11.7.3 23.5.8 35.2.8 8.1 0 16.2-.7 24.3-.7 15.6 0 31.2.3 46.8.5 11.1.1 22.2.3 33.3.4 8.1.1 16.2.1 24.3.2 23.1.2 46.2.4 69.3.5 11.9.1 23.9 0 36.9 0V17.9c0-7.1-.1-7.1-7.4-7.1-9.4 0-18.8.1-28.3-.1-9.1-.2-18.3-1.1-27.4-1.2-8.2-.2-16.5.4-24.7.4-10.4 0-20.8-.3-31.1-.3-14.5-.1-28.9 0-43.4-.1-3.4 0-6.8-.5-10.1-.5-8.3.2-16.6.7-25 .8-15.8.1-31.6 0-47.4 0-5.9 0-11.8.1-17.7.1-6.3 0-12.6-.3-18.9-.2-6.1.1-12.1.6-18.2.6-9.2-.1-18.3-.7-27.5-.7-5.4 0-11 1.7-16.3 1-4.6-.7-8.7-.7-13.5-.2-9.6 1-19.5-.1-29.2-.2-5.3-.1-10.7-.1-16-.1-29.5.1-59 .2-88.5.2H10.4v52.1c4.5.2 9.1 1 13.5.5 9.4-1 19 1.7 28.4-2.3 3.9-1.7 9.1-.8 13.6-.3 3.6.4 6.9 2.7 10.5 3 6.5.5 13 .4 19.5 0 2.6-.2 5.5-1.3 7.6-2.8 4.3-3.1 8.8-3.7 12.9-.5 3.1 2.5 6.3 3.5 10.3 3.3 12.1-.4 24.2-.5 36.2-.6 15.6-.3 31.2-.2 46.9-.2zM391 73.2c5.2 6.7 12 6.5 19.3 5.6 3.5-.4 7.1.6 10.7 1v1.7c6-2.7 12-5.4 18.5-8.4 3.9 5.1 9.7 6.4 16.5 5.8 6.9-.6 13.8.2 20.7-.4 6.9-.6 12.4-4 16.7-10.4H306.8c.9 2.7 1.1 5.8 2.2 6.1 4.6 1.5 9.5 2.6 14.4 3.1 1.8.2 4.1-1 5.6-2.3 5.6-5 8.5-5.4 14.6-1.3 8.5 5.6 16.9 5.4 25.1-.5 9.1 8.2 13.7 6.1 22.3 0zm-95-5.6h-44.2c-24.9 0-49.8 0-74.7.1-16.8 0-33.6.1-50.4.4-1.2 0-3.6 2.3-3.4 3 .6 2.5-.7 7.2 4.1 6.4 4.3-.7 8.4-2.5 12.7-3.8 2.8 1.4 6.1 3.7 9.7 4.7 2.1.6 5.4-1.7 7-.8 3.7 2.1 5.7-.6 6.5-2.3 2.6-5.9 5-4.5 8.6-.9 6 6.1 12.1 5.3 16.2 1.5 8.4-7.8 12.8-7.4 19.2 3 2.4-.6 5.9-.4 7.4-2 3.2-3.6 5.8-2.1 9.1-.7 2.7 1.2 5.8 2.8 8.6 2.6 6.9-.5 14.3 2.1 20.4-4.1 6.3-6.3 7.8-6 14.6-.1 5 4.3 11.2 5.2 17.1 4.1 4.4-.9 8.3-3.8 12.6-5.9-.1-.8-.5-2.5-1.1-5.2zm62.4 48.4-.6.9c1.7.7 3.5 1.4 5.7 2.3-3.5 2.8-3.9 7.9-9.7 7.4-7.6-.7-5-6.9-6.2-10.8-8.4 0-16.4.1-24.4 0-5.2-.1-9.7 4.8-9.4 11.7h171.5c-4.2-3.4-6.6-10.8-14.9-6 .3-1.8.5-2.9.6-3.4-8.7-3.4-12.9 3.2-17.8 7.9-1.7-1.1-3-1.7-4.1-2.6-6.2-5.6-6-5.4-12.6-.3-1.6 1.3-5 1.3-7.1.6-2.2-.7-4-2.9-6-4.6-5.2-4.4-16.2-3.4-19.8 1.6-1.5 2.1-4.3 5.5-5.1 5.2-3.2-1.4-7.6-3.7-8.2-6.4-1.2-5.4-4.1-3-5.8-3.3-.6 2.6-.6 4.8-1.6 6.3-3 4.3-9.9 3.1-12.3-2.9-1.6-3.9-4-3.6-6.7-3.9-1.8-.2-3.7.2-5.5.3zm-242-17.8c-23.9 0-47.5 0-71 .1-1.3 0-3.6 1.8-3.6 2.8-.2 3.1.4 6.3.8 9.5 0 .1.9 0 1.4.1 5.9.5 11.7 1.3 17.6 1.4 14.4.2 28.7.1 43.1.1 12.9 0 12.9 0 11.7-14zm.5-15.2H42.5c0 2.4.5 4.3-.1 5.7-1.8 4.4.2 5.5 4.1 5.3 3-.2 6-.1 9-.1 9.5 0 19-.1 28.5 0 5.8.1 11.6.9 17.4.9 5 0 10-.7 15.4-1 .1-4.2.1-7.4.1-10.8zm-36.8 43.5h36.1v-10.8H42.6l-1.2 1.2c1.9 2.3 3.4 5.3 5.9 6.8 2.5 1.4 5.9 1.2 8.9 1.9 6.4 1.5 12.6.8 18.3-2 3.3-1.6 6.1-4.5 9.1-6.8l1.5.9c-1.6 2.7-3 5.3-5 8.8zm450.1-31.1c2.3.7 4.4 1.9 6.5 1.9 5.6-.1 11.2-1.2 16.8-1.1 9 .2 18 1 26.9 1.5 4.4.2 7.3-1 6.4-6.3-.4-2.1-.1-4.2-.1-6.4h-55.4c-.3 3-.7 6.5-1.1 10.4zm56.3-25.3h-54.9c-1.2 8.9-1.2 8.8 6.8 9.5 5.1.4 10.2 1.6 15.2 1.6 5.2.1 10.5-.9 15.7-1.2 5.7-.4 11.4-.5 17.2-.8v-9.1zM347.7 99.8h-40.9v11.3h40.9V99.8zm-171.5-.2c.6 4.4 1.2 8 1.7 11.4h39c.2-3.9.3-7.5.5-11.4h-41.2zm42.1 27.5c-.4-1.9-1-3.8-1.1-5.7-.3-5.7-2.8-7-8.5-5.8-4.1.8-8.5.3-12.7.2-6.2-.2-12.4-.6-18.6-.9-.1.6-.3 1.2-.4 1.8 1.7 1.2 3.5 2.4 5.4 3.7-2 2.3-3.7 4.5-5.6 6.8 14.1-.1 27.9-.1 41.5-.1zm263.5-43c.2 2.1.2 4.7.6 4.8 6.2 1.1 9.9 7.6 16.9 7.2 8.8-.5 17.6-.1 26.5-.1 2.2-7 1.2-11.6-3.3-11.7-7.5-.1-15.7-3.2-22.1 4.5-4.8-7.1-11.6-4.4-18.6-4.7zM297 83c-9.2 3.7-19.1-2.3-28.3 2.9-.5.3-1.4-.1-2.1-.2-4.2-.9-8.4-2.1-12.7-2.6-1.1-.1-2.6 2-3.5 3.4-.3.4.9 2.3 1.8 2.7 3.6 1.6 7.4 2.9 11.1 4.2 1.8.6 3.7 1.4 5.5 1.5 6.4.2 12.8.1 19.2.2 10.3 0 11-.8 9-12.1zm-68.9 28.6h37.8c-1-2.9-1.2-6.5-2.8-7.3-3.8-2-8.3-3.2-12.6-4-3.9-.7-8-.4-12-.9-11-1.3-12.5 0-11.4 10.7 0 .2.2.3 1 1.5zm268.1.7c-10.2-11.9-27.6-16-43.4-10.7.4 3.5.9 7 1.4 10.9 1.9 0 3.7-.3 5.4.1 8.2 1.7 16.4-2.6 24.7.5 3.3 1.2 7.6-.4 11.9-.8zM340 94.6v-.4c1.8 0 3.7.1 5.5-.1 1.1-.1 3.2-.8 3.2-1.1-.2-2.9-.8-5.9-1.5-8.8 0-.1-2.5.4-3.9.6-3.3.5-7.4 2.6-9.9 1.3-7.9-3.9-16-2.3-23.9-2.4-5.3-.1-1.8 5.2-2.7 7.9-.2.6 2 2.7 3.1 2.7 10 .4 20 .3 30.1.3zm-162.1.3h39.9c.1-1.1.2-1.8.3-2.5 1.7-8.5.9-9.9-7.5-9.8-3.3 0-6.6 1.3-9.9 1.9-2.2.4-4.5 1.5-6.5 1-7-1.8-13.5 1.6-16.3 9.4zm127 32.7c-6.6-4-8.3-13.8-19.9-11.8-9.3 1.6-16.4 3.4-21.7 11.8h41.6zm220.6 1c.1-1.7.2-2.7.2-3.8.5-6.8.2-7.2-6.8-7-2.3 0-4.7 1.2-6.8.7-9.3-2.4-13.3 4.9-19.2 8.7.2.5.3 1 .5 1.5 10.5-.1 21.1-.1 32.1-.1zm4.4-14.4h17.8c2.6-4.3 5.1-8.4 7.7-12.9h-24.9c-.1 3.5-.3 8-.6 12.9zm33.3-.9c.3.6.6 1.1 1 1.7 6.7 0 13.6.7 20.1-.2 5.1-.7 1.2-5.8 2.1-8.8.4-1.3-1.1-3.3-1.8-4.9-.1-.2-1 .1-1.5.1-5.8.1-11.6.1-17.4.4-1.1 0-2.1.9-4.2 1.9 7.1 2.8 6.3 6.1 1.7 9.8zM38.6 67.2c-8.2 0-15.8.5-23.2-.2-5.1-.5-6 1.5-5.6 5.6.1 1.6.2 3.1.3 5 4.5 0 8.7-.4 12.8.1 7.6 1 12.2-2.3 15.7-10.5zm47.1 10c2.5.6 5.2 1.9 7.9 1.8 7.5-.2 14.9-1 23.2-1.7.1-.9.2-2.7.3-4.5-1.5 0-3 .3-4.4 0-2.6-.5-5.6-.6-7.5-2.1-6.3-4.7-13.1-2.9-19.6-3 .1 3.4.1 6.1.1 9.5zm419.4 23.1c.4 2.2 1.1 4 .9 5.7-.7 6.3 2.2 7.3 8 7.7 11.6.7 12.6.4 11.9-11.2 0-.8-1.3-2.1-2-2.1-6.2-.1-12.4-.1-18.8-.1zm-9.7-32.4c3.2 3.9 5.6 6.9 8.2 9.8.6.6 1.7 1.1 2.6 1.1 6.7.1 13.4 0 20.3 0V70c-10.1-.6-20.1-1.3-31.1-2.1zm-199 32.1h-21.2v11.6c6.5 0 12.6.1 18.7-.1.9 0 2.3-1.6 2.5-2.6.2-3 0-6.1 0-8.9zm289.9 29.3c.1-2.3.4-4.5.3-6.6-.1-1-1-2.9-1.6-2.9-5.8-.2-11.6-.5-17.3.2-1.8.2-3.2 3.7-4.9 5.6-.5.6-1.3 1.1-2.3 1.9-.7-1.7-1.2-3-2.1-5.5-1 3-1.5 4.7-2 6.3.6.5.8 1 1.1 1h28.8zM142.8 98.4c-5.4 0-10.2.1-15 0-3.1-.1-4.6.7-3.8 4.2.6 2.9-.5 7.4 1.1 8.5 2.2 1.6 6.2.7 9.4.8 1.8.1 3.7.2 5.4-.2 1.1-.2 2.7-1.2 2.8-2 .3-3.3.1-6.8.1-11.3zM36.2 126.5c-5.1-4.7-6.7-11.7-14.3-11.4-2.7.1-5.5 0-8.1.7-1.5.4-3.9 2.3-3.7 2.9.8 2.7-2.5 7.7 3.6 7.8 7 .1 14 0 22.5 0zm5.7-49.2h21.5c2.4-3.4 4.4-6.2 6.8-9.6-7 0-13.1-.4-19.1.1-7.2.5-9.9 3.6-9.2 9.5zm377.4 6.9h-19.9c-.9 11.7-.9 11.7 9.9 11.6h7.8c.8-3.9 1.5-7.6 2.2-11.6zm53 11.3c-.4-1.7-1.4-3.2-1.1-4.3 1.9-6.5-1-8.3-7-7.7-3.8.4-7.7.4-11.2.6.4 4.4.6 7.6 1 11.5 6-.1 11.8-.1 18.3-.1zm-321.7 3.7c0 4-.4 6.6.1 9 .3 1.3 2 3.2 3.2 3.3 5 .4 10 .2 14.6.2V99.3c-6.1-.1-11.7-.1-17.9-.1zm.2-5.5h18.3v-6.9c.1-3.5-.7-5.8-5-4.2-.9.3-2 .1-3 0-13.7-.7-10.5 1.1-10.3 11.1zm379.6 34.7c7.8.5 15 .9 22.2 1.4.4-5.9-2.1-9.2-7-9.9-3.2-.5-6.6-.2-9.7-1.1-5.1-1.5-5.9-1.1-5.9 4.4.1 1.5.3 3.1.4 5.2zm-112.8-27.8c-5.4 0-10.3-.2-15.2.2-1.1.1-3.1 2.2-3 3.2.3 3 1.2 8.2 2.4 8.3 5 .6 10.2-.3 15.2-.6.2-3.6.3-7.1.6-11.1zm-245.7 25.9c-1.2-2.8-2-5.2-3.2-7.4-.6-1.2-1.6-3-2.6-3.2-4.2-.6-8.6-.8-12.8-.8-.9 0-2.3 1.4-2.5 2.3-.1.8 1.1 2 1.9 2.7.8.6 1.9.8 2.8 1.2-.3 1.9-.5 3.5-.7 5.1 6.2.1 12.1.1 17.1.1zm271.7-25.2H428c-1.4 11.5 3.8 14.6 15.6 9.6v-9.6zm-300.7 26.1c-.4-4-.5-6.8-1.1-9.5-.2-1-1.7-2.5-2.7-2.6-4.9-.3-9.8-.1-14.7-.1-.3.5-.6 1-1 1.6 2.4 3.1 4.3 7.2 7.4 9 3.3 1.7 7.8 1.1 12.1 1.6zm283.4-30.5c3.9-.7 5.6-1 7.3-1.3 3.3-.5 8.5.2 9.7-1.6 2.7-4.2-2.8-6.1-5-8.8-2.4-3-6.4-2.9-8.4 0-1.9 2.9-2.2 6.9-3.6 11.7zM228 127.7h23.3c.2-.6.3-1.3.5-1.9-4-1.8-8-3.5-12.6-5.5v-3.2c-3-.5-6-1.2-9-1.3-1.1-.1-2.2 1.1-3.4 1.7.2.3.4.5.6.8h5.2c-1.6 3.3-2.8 5.8-4.6 9.4zM124.7 94.4c4.9 0 9.5.2 14-.1 4.1-.2 5.7-3 3-6.1-2-2.4-5.6-5.1-8.4-5-4.7.2-8.9 6.5-8.6 11.2zm117.1.5c-.3-2.7-.9-4.7-.7-6.6.5-5-2.5-5.7-6.3-5.4-1 .1-2.2 1-3 .7-5.1-2.3-4.8 1.1-5 4.4-.3 4.9 1.2 7.5 6.7 6.8 2.6-.2 5.3.1 8.3.1zM10.2 110h13.9c-.6-4.1-1.1-7.7-1.6-11.3-11.3-.6-14.2-2.4-12.3 11.3zm16-26.8c-5-.3-9.2-.5-13.4-.6-.9 0-2.5.7-2.5 1.1-.3 2.8-.5 5.8.1 8.5.1.6 3.7.6 5.7.7 2.5.1 5 0 7.6 0 .8-3.4 1.6-6.4 2.5-9.7zm343.7 16.5c-4.7.4-8.9.7-12.8 1v10.7h12.8V99.7zm1.8-5.1c-1-3.4-1-7.4-3.1-9.4-1.7-1.6-5.8-1.6-8.6-1-4.3.8-3.9 4.9-3.2 7.9.3 1.2 3.1 2.1 5 2.4 2.7.4 5.6.1 9.9.1zm19.4 5.9h-11.9c.2 3.8-.3 7.8 1 11.1.4 1.1 7.4 1.4 8.3 0 1.9-2.8 1.8-7 2.6-11.1zm-1.3-4.7c-.3-4.3 3.3-10-3.1-11.4-1.9-.4-6.6 3.6-6.9 6-1 8.1 6.8 2.7 10 5.4zM32.6 98.6c.5 3.8.9 7.3 1.5 10.7.1.6 1.6 1.5 2.2 1.4.7-.2 1.6-1.3 1.7-2.1.2-3.2.1-6.5.1-10h-5.5zm5.6-14.9c-.5-.4-1-.9-1.4-1.3-1.3 1-3.3 1.8-3.9 3.1-.9 2.1-.8 4.6-1.1 7.4 2.1-.2 3.6-.3 5-.5.5-3.2 1-5.9 1.4-8.7zm223.1 39.4c1.5-1.6 3.1-2.7 3.4-4 .2-1-1.5-3.2-2.4-3.3-2.4-.1-4.8.8-7.9 1.4 2.5 2.2 4.6 3.9 6.9 5.9z"/>
  <path d="M364.5 133.6c-6 1.4-11.9 3.1-18 4.1-9.7 1.6-19.5 2.9-29.3 4.2-9.6 1.3-19.1 2.9-28.7 3.6-11.5.9-23.1 1.4-34.7 1.4-16.8 0-33.6-.1-50.4-1-11.5-.6-23-2.7-34.5-4-6.6-.7-13.3-.7-19.7-2.1-8-1.7-15.7-4.5-23.4-7.8 153.5 0 306.9 0 460.7 2.8v65.7c-.1 20-.1 39.9-.2 59.9-.1 26.1-.3 52.1-.5 78.2-.1 13.6-.3 27.2-.3 40.8 0 12.5.1 25 .1 37.6v35.2h-34.2c-8.9 0-17.9.2-26.8.2-9.4 0-18.9-.3-28.3-.3l-50.3-.3c-16.8-.1-33.6-.2-50.5-.2s-33.8.2-50.7.2c-18.9.1-37.8.3-56.7.1-9.7-.1-19.4-.9-29.1-1-14.9-.2-29.8 0-44.8 0-40.3.1-80.5.3-120.8.3-18.3 0-36.7-.4-55-.9-9-.3-17.9-1.1-26.8-2-1.2-.1-3.2-2.4-3.2-3.7-.1-5 .6-10 .6-14.9-.1-26.5-.3-52.9-.4-79.4 0-26.8 0-53.6.2-80.4.2-31.7.7-63.4 1-95.1.1-13.4.2-26.7.1-40.1 0-3 .4-5 4-4.7 13.4 1.2 27.1-1.3 40.4 3.2 2.5.8 5.8-1.1 8.7-1.2 12.8-.4 25.7-.6 38.5-.8 2.7 0 5.5.4 8.2.1 7.7-.9 13.3 4 19.8 6.4 9.3 3.5 19.3 5.9 29.1 7.4 15.3 2.3 30.7 3.6 46.1 5 6.2.6 12.5.2 18.8.3 8.7.3 17.5 1 26.2.9 14.6-.2 29.3-.3 43.9-1.7 15-1.4 29.9-4.3 44.8-6.6 6.7-1.1 13.5-2.1 20.1-3.6 2.4-.6 4.5-2.5 6.7-3.9-.1-.6-.4-1.3-.7-1.9zM34.4 416.2c0 .4.1.9.1 1.3 4.4 0 8.8.1 13.3 0 3.7-.1 7.6-1.4 11.1-.6 9.7 2.3 19.5 1 29.2 1 11.5 0 23.1-.5 34.4 1 9.5 1.3 18.7 5.1 28.1 7.7 1.6.4 4.2 1.1 5 .3 4.8-5 9.3-2.2 14.3-.6 8.1 2.5 16.3 4.8 24.7 6 5 .7 11.4-.4 13.2-5.8 2.4-7.4 6.8-8.5 13.3-7.8 1.5.2 3-.4 5.6-.8 1 7.3 1.8 14.4 3.2 21.4.3 1.7 2.4 4.2 3.8 4.3 1.8.1 4.7-1.4 5.5-3 1.2-2.4.7-5.7 1.5-8.4.6-2 1.8-5.1 3.3-5.4 4-.8 8.2-.3 12.3-.5 18.4-.6 36.9-1.2 55.3-1.8 1.3 0 2.9-.6 3.8-1.5 3.4-3.7 10.7-4.2 13.2-.1 1.4 2.2 2.2 5.3 2 7.9-.5 5.5 1.1 9.2 5.6 9.6 5.4.4 4.5-3.9 4.8-7.2.1-1.1.7-2 .9-3.1 1.5-7 2.4-7.6 9.4-6.9 3.1.3 6.2.9 9.3.9 13.3 0 26.6-.2 39.9-.4 1.5 0 3.8-.2 4.2-1.1 1.7-3.4 4.6-2.9 7.5-2.9 6.5-.1 13.1-.1 19.6-.2 2.9-.1 5.8-.3 8.8-.4v-1.8h-6c-14.8.1-29.7.2-44.5.2-12.5 0-25-.2-37.5-.2-8.4 0-8.5.1-8.2-6.1 29.7 5.2 59.6 3.8 89.5 4 0-.6.1-1.3.1-1.9-8.1-.6-16.1-1.2-24.5-1.8 0-2-.3-3.7.1-5.3 1.1-4.8-.7-11.4 7-12.5 2.9-.4 5.9-.4 8.8-.7 9.3-.9 14.8-5.4 16.6-14.4 1-5 1.1-10.2 1.2-15.4.2-8.6-2.2-11.6-10.6-12.3-15.6-1.3-31.2-2.6-46.9-2.9-21.5-.5-43 .1-64.5 0-20.3 0-40.7-.2-61-.3-3.6 0-6.4.4-6.9 4.9-.3 2.1-1.6 4.5-3.2 5.9-7.2 6-15.8 4.8-24.3 4.5 2.8-2.3 5.1-4.4 7.7-6.2.6-.4 2.3.1 2.8.7 3.2 3.4 5.4.5 7.5-1.1 2.3-1.7 5.1-3.6 6-6 .6-1.8-1.4-4.6-2.3-7.1.4-.3.9-.5 1.3-.9 2.1-2 4.3-4 6.4-6-2.3-1.3-4.7-2.6-7.1-3.9-2.9-1.6-7.2-1.4-8.3-5.4-1.6-5.7-5.1-4.3-9.2-3.6-3.6.6-8 .9-11.2-.5-8.1-3.4-15.6-8-23.5-11.8-4.7-2.3-7.4-5.7-8.8-10.8-1.1-3.8-.6-6.1 3.1-7.8 4.5-2 9.6-3.6 13.1-6.8 8.8-8.1 16.9-17.1 25.3-25.7 3.9-3.9 5-8.3 3.4-13.6-.9-2.9-1.9-6.3-1.1-8.9 1.8-5.8.3-9.7-4.9-12.5 1.8-3.1 3.4-5.9 4.8-8.7 6.2-12.3 6.7-23.1-8.8-30.3-5.3-2.5-11.2-4.7-15.2-8.7-9.5-9.5-21.7-13.3-33.6-17.7-5.1-1.9-10.8-1.7-16.2-2.8-11-2.3-21.8-1.4-32.5 2.1-1.2.4-2.5 1.1-3.5.9-8-1.8-14.9.6-19.6 6.9-6.8 9-12.8 18.6-18.9 28.2-2.6 4.1-5.7 8.6-6.4 13.2-1.1 7.2-.6 14.6-.2 21.9.4 6.8 1.7 13.4 6.8 18.6 1.1 1.2 1.8 3.6 1.5 5.2-1.4 7.7 4.9 15.9 12.6 16.8 3.1.4 7.3 1.6 8.9 3.9 7 10 17.1 15.4 28.1 18.2 12.6 3.2 14.2 11.6 13.4 21.1-.5 7-3.2 14.1-6.2 20.5-9.5 19.9-19.8 39.5-29.6 59.3-2 4-3.2 8.4-5 12.5-.5 1.2-2.1 2.7-3.2 2.8-14.4.9-28.8 1.6-43.2 2.4-.7 0-1.5-.4-2.2-.6 6.5-1.6 12.8-2.7 19.2-3.1 6.1-.4 12.5 1.8 18.4-.8-.1-1-.2-1.9-.2-2.9-24.5 1.6-48.9 3.3-73.4 4.9v3c4.7-.3 9.5-.5 14.2-.8-.1.3-.1.5-.2.8l-6.6 2.4c.1.4.3.8.4 1.1 3.2-.4 6.5-.7 9.7-1.1 0 .4.1.8.1 1.1-2 .2-3.5.5-5 .8zm398.6-166c-5.6 2.3-40.8 71.8-39.9 77.7 14.9-25.5 28-51.3 39.9-77.7zm-8.3 77.7c.5.5 1 .9 1.4 1.4 1.2-.8 2.7-1.4 3.5-2.5 14.6-19.2 29.2-38.3 43.6-57.6.9-1.2.6-3.2.9-4.9-.6-.2-1.3-.5-1.9-.7-15.7 21.4-31.6 42.8-47.5 64.3zm-141.4-8.6c.5-3 1.3-4.9 1-6.5-1.7-8.6-7.2-15.2-14.9-17.7-8.3-2.7-17.4-2.8-26.2-3.3-2.9-.2-5.9 1.7-10.1 3 2 1 2.7 1.8 3.2 1.6 7.9-2.4 15.8-2.6 23.9-.6 6.5 1.6 12.9 2.4 16.1 9.4 1.9 4.2 4.1 8.3 7 14.1zm216.8-4.6c-5.7-1.2-43.4 28.2-45 34.2 14.9-11.9 30.5-21.5 45-34.2zm-130.9 12.2c6.1-13.9 12.1-26.6 14.7-40.6-5.1 3.5-16.9 35.3-14.7 40.6zm-152.3-18.1c0 .5.1 1.1.1 1.6h16.6c8.8 0 17.5.2 22.3 9.4.9 1.6 1.5 3.4 2.2 5.1h1.4c.2-1.3 1-2.7.6-3.8-1.6-5.7-5.6-10-11-11.2-7-1.6-14.4-1.8-21.6-2.1-3.5-.2-7.1.6-10.6 1zm240.3 66.7c8.7-1.1 16.1-2 24.7-3-5.1-4.5-19.1-2.6-24.7 3zm-125.1-48c4.5-5 4.7-13.2 0-18.2v18.2zM209.8 62.5c-15.7 0-31.3-.1-46.9 0-12.1.1-24.2.2-36.2.6-4 .1-7.2-.9-10.3-3.3-4.1-3.2-8.6-2.5-12.9.5-2.1 1.5-5 2.6-7.6 2.8-6.5.4-13 .5-19.5 0-3.6-.3-6.9-2.6-10.5-3-4.5-.5-9.7-1.4-13.6.3-9.4 4-19 1.3-28.4 2.3-4.4.5-8.9-.3-13.5-.5V10.1h86.5c29.5 0 59-.1 88.5-.2 5.3 0 10.7 0 16 .1 9.8.2 19.6 1.3 29.2.2 4.7-.5 8.8-.5 13.5.2 5.3.8 10.8-1 16.3-1 9.2 0 18.3.7 27.5.7 6.1.1 12.1-.5 18.2-.6 6.3-.1 12.6.2 18.9.2 5.9 0 11.8-.1 17.7-.1 15.8 0 31.6.1 47.4 0 8.3-.1 16.6-.6 25-.8 3.4-.1 6.8.5 10.1.5 14.5.1 28.9 0 43.4.1 10.4 0 20.8.3 31.1.3 8.2 0 16.5-.5 24.7-.4 9.1.2 18.3 1 27.4 1.2 9.4.2 18.8.1 28.3.1 7.3 0 7.4 0 7.4 7.1V64c-13 0-25 .1-36.9 0-23.1-.1-46.2-.3-69.3-.5-8.1-.1-16.2-.1-24.3-.2-11.1-.1-22.2-.3-33.3-.4-15.6-.2-31.2-.5-46.8-.5-8.1 0-16.2.7-24.3.7-11.7-.1-23.5-.5-35.2-.8-2.4-.1-4.7.1-7.1 0-.9-.1-2.4-.6-2.6-1.2-1.3-5.6-4-2.7-6.8-1.5-3.2 1.3-6.6 2.8-10 2.9-18.3.4-36.7.5-55.1.7-2.7 0-5.5.1-5.6-3.3-.2-5.4-4.5-6.3-8-7.4-3.6-1.1-6.9.6-9 4-1.2 2.2-2.4 4.3-3.4 6zm-79.4-6c5.1-1 10.2-1.9 15.2-2.9 8.1-1.6 16-2.1 23.2 3.5.9.7 2.9.1 4.5.1 0-.6.1-1.3.1-1.9-3.8-2.3-7.4-6-11.4-6.6-11.4-1.9-21.9 1.7-31.6 7.8zM391 73.2c-8.6 6.1-13.2 8.1-22.3 0-8.2 6-16.7 6.2-25.1.5-6.1-4.1-9-3.6-14.6 1.3-1.5 1.3-3.8 2.5-5.6 2.3-4.9-.6-9.7-1.6-14.4-3.1-1.1-.4-1.3-3.5-2.2-6.1h186.6c-4.3 6.4-9.8 9.8-16.7 10.4-6.9.6-13.8-.2-20.7.4-6.9.6-12.7-.7-16.5-5.8C433 76 427 78.7 421 81.5v-1.7c-3.6-.4-7.2-1.4-10.7-1-7.3 1-14.1 1.1-19.3-5.6zM296 67.6c.6 2.7 1.1 4.4 1.3 5.2-4.3 2.1-8.3 5.1-12.6 5.9-6 1.2-12.1.2-17.1-4.1-6.8-5.8-8.3-6.1-14.6.1-6.1 6.1-13.5 3.5-20.4 4.1-2.8.2-5.8-1.4-8.6-2.6-3.2-1.4-5.9-2.9-9.1.7-1.5 1.7-5.1 1.4-7.4 2-6.4-10.4-10.8-10.8-19.2-3-4 3.8-10.2 4.6-16.2-1.5-3.6-3.7-5.9-5-8.6.9-.8 1.7-2.8 4.4-6.5 2.3-1.6-.9-4.9 1.4-7 .8-3.6-1.1-6.9-3.3-9.7-4.7-4.3 1.3-8.4 3.2-12.7 3.8-4.8.7-3.4-4-4.1-6.4-.2-.7 2.2-3 3.4-3 16.8-.3 33.6-.4 50.4-.4 24.9-.1 49.8-.1 74.7-.1h44zM358.4 116c1.8-.1 3.7-.5 5.5-.3 2.7.3 5.1-.1 6.7 3.9 2.4 6 9.3 7.2 12.3 2.9 1-1.5 1-3.7 1.6-6.3 1.7.3 4.6-2.1 5.8 3.3.6 2.7 5 5 8.2 6.4.8.4 3.7-3.1 5.1-5.2 3.6-5.1 14.7-6.1 19.8-1.6 1.9 1.6 3.7 3.8 6 4.6 2.1.7 5.5.6 7.1-.6 6.6-5.1 6.4-5.3 12.6.3 1 .9 2.4 1.6 4.1 2.6 4.9-4.7 9.1-11.3 17.8-7.9-.1.5-.3 1.6-.6 3.4 8.4-4.7 10.8 2.6 14.9 6H313.8c-.3-6.9 4.2-11.7 9.4-11.7 8 .1 15.9 0 24.4 0 1.2 3.9-1.4 10.1 6.2 10.8 5.8.5 6.2-4.6 9.7-7.4-2.2-.9-3.9-1.6-5.7-2.3l.6-.9zM116.4 98.2c1.3 14 1.3 14-11.7 14-14.4 0-28.7.1-43.1-.1-5.9-.1-11.7-.9-17.6-1.4-.5 0-1.4 0-1.4-.1-.4-3.2-1.1-6.3-.8-9.5.1-1.1 2.4-2.8 3.6-2.8 23.5-.1 47.1-.1 71-.1zM116.9 83v10.7c-5.4.4-10.4 1-15.4 1-5.8 0-11.6-.8-17.4-.9-9.5-.2-19 0-28.5 0-3 0-6-.1-9 .1-4 .2-5.9-.8-4.1-5.3.6-1.4.1-3.2.1-5.7 24.5.1 48.8.1 74.3.1zM80.1 126.5c1.9-3.4 3.4-6.1 4.9-8.7l-1.5-.9c-3 2.3-5.7 5.2-9.1 6.8-5.7 2.8-12 3.5-18.3 2-3-.7-6.4-.5-8.9-1.9-2.4-1.4-3.9-4.5-5.9-6.8l1.2-1.2h73.6v10.8c-11.6-.1-23.6-.1-36-.1zM530.2 95.4c.4-3.9.8-7.4 1.1-10.5h55.4c0 2.1-.3 4.3.1 6.4.9 5.3-1.9 6.6-6.4 6.3-9-.5-18-1.3-26.9-1.5-5.6-.1-11.2 1-16.8 1.1-2.1.1-4.2-1.1-6.5-1.8zM586.5 70.1v9.1c-5.8.3-11.5.4-17.2.8-5.3.3-10.5 1.3-15.7 1.2-5.1-.1-10.2-1.2-15.2-1.6-8-.7-8-.6-6.8-9.5h54.9zM347.7 99.8v11.3h-40.9V99.8h40.9zM176.2 99.6h41.1c-.2 3.9-.3 7.5-.5 11.4h-39c-.4-3.4-.9-7-1.6-11.4zM218.3 127.1h-41.5c1.9-2.3 3.7-4.4 5.6-6.8-1.9-1.3-3.6-2.5-5.4-3.7.1-.6.3-1.2.4-1.8 6.2.3 12.4.7 18.6.9 4.2.1 8.6.7 12.7-.2 5.7-1.2 8.1.2 8.5 5.8.2 2 .7 3.9 1.1 5.8zM481.8 84.1c7 .3 13.8-2.4 18.6 4.6 6.3-7.6 14.6-4.6 22.1-4.5 4.5.1 5.4 4.7 3.3 11.7-8.9 0-17.7-.4-26.5.1-7 .4-10.7-6.1-16.9-7.2-.4 0-.4-2.5-.6-4.7zM297 83c2 11.3 1.2 12.1-8.9 12-6.4-.1-12.8 0-19.2-.2-1.9-.1-3.7-.8-5.5-1.5-3.7-1.3-7.5-2.6-11.1-4.2-.9-.4-2-2.3-1.8-2.7.9-1.4 2.4-3.5 3.5-3.4 4.3.5 8.4 1.7 12.7 2.6.7.2 1.6.5 2.1.2 9.1-5.1 19.1.9 28.2-2.8zM228.1 111.6c-.9-1.2-1-1.3-1-1.5-1-10.7.4-12 11.4-10.7 4 .5 8.1.1 12 .9 4.3.8 8.8 2 12.6 4 1.6.8 1.7 4.4 2.8 7.3h-37.8zM496.2 112.3c-4.3.4-8.5 2-11.8.8-8.4-3.1-16.5 1.2-24.7-.5-1.7-.3-3.5-.1-5.4-.1-.5-3.9-.9-7.4-1.4-10.9 15.7-5.3 33.1-1.1 43.3 10.7zM340 94.6c-10 0-20.1.1-30.1-.1-1.1 0-3.2-2.2-3.1-2.7.9-2.7-2.6-8 2.7-7.9 7.9.1 16.1-1.6 23.9 2.4 2.4 1.2 6.5-.8 9.9-1.3 1.4-.2 3.9-.7 3.9-.6.7 2.9 1.3 5.8 1.5 8.8 0 .3-2.1 1-3.2 1.1-1.8.2-3.6.1-5.5.1v.2zM177.9 94.9c2.8-7.9 9.3-11.2 16.3-9.4 2 .5 4.3-.6 6.5-1 3.3-.6 6.6-1.9 9.9-1.9 8.4 0 9.3 1.3 7.5 9.8-.1.7-.2 1.4-.3 2.5h-39.9zM304.9 127.6h-41.7c5.4-8.4 12.5-10.3 21.7-11.8 11.7-2 13.4 7.8 20 11.8zM525.5 128.6h-32.1c-.2-.5-.3-1-.5-1.5 5.9-3.8 9.9-11.1 19.2-8.7 2.1.5 4.5-.6 6.8-.7 7-.1 7.3.2 6.8 7 0 1.2-.1 2.3-.2 3.9zM529.9 114.2c.2-4.8.5-9.3.6-12.9h24.9c-2.7 4.4-5.2 8.6-7.7 12.9h-17.8zM563.2 113.3c4.5-3.7 5.3-7-1.7-9.8 2.1-1 3.1-1.9 4.2-1.9 5.8-.2 11.6-.3 17.4-.4.5 0 1.5-.3 1.5-.1.8 1.6 2.2 3.6 1.8 4.9-.9 3 2.9 8-2.1 8.8-6.6 1-13.4.2-20.1.2-.3-.6-.6-1.1-1-1.7zM38.6 67.2c-3.5 8.1-8.1 11.5-15.7 10.5-4.1-.5-8.3-.1-12.8-.1-.1-1.8-.2-3.4-.3-5-.4-4.1.5-6.1 5.6-5.6 7.4.8 14.9.2 23.2.2zM85.7 77.2v-9.5c6.4.1 13.3-1.7 19.6 3 2 1.5 4.9 1.6 7.5 2.1 1.4.3 2.9 0 4.4 0-.1 1.8-.3 3.6-.3 4.5-8.4.7-15.9 1.5-23.3 1.7-2.7.1-5.4-1.2-7.9-1.8zM505.1 100.3c6.3 0 12.6-.1 18.8.1.7 0 2 1.3 2 2.1.7 11.6-.3 11.9-11.9 11.2-5.9-.4-8.8-1.4-8-7.7.2-1.7-.5-3.4-.9-5.7zM495.4 67.9c11 .8 21 1.5 31 2.2v8.8h-20.3c-.9 0-2-.5-2.6-1.1-2.5-3-4.9-6-8.1-9.9zM296.4 100c0 2.7.2 5.8-.1 8.9-.1 1-1.6 2.6-2.5 2.6-6.1.2-12.2.1-18.7.1V100h21.3zM586.3 129.3h-28.9c-.3 0-.5-.5-1.1-1 .5-1.6 1.1-3.3 2-6.3 1 2.5 1.5 3.8 2.1 5.5 1-.8 1.8-1.2 2.3-1.9 1.7-1.9 3-5.3 4.9-5.6 5.7-.8 11.5-.4 17.3-.2.6 0 1.5 1.8 1.6 2.9.3 2.1 0 4.2-.2 6.6zM142.8 98.4c0 4.5.2 8-.1 11.4-.1.8-1.7 1.8-2.8 2-1.7.4-3.6.3-5.4.2-3.2-.1-7.2.7-9.4-.8-1.6-1.1-.4-5.6-1.1-8.5-.8-3.6.8-4.3 3.8-4.2 4.8 0 9.6-.1 15-.1zM36.2 126.5c-8.4 0-15.5.1-22.6 0-6-.1-2.8-5.1-3.6-7.8-.2-.6 2.2-2.6 3.7-2.9 2.6-.6 5.4-.6 8.1-.7 7.7-.3 9.2 6.6 14.4 11.4zM41.9 77.3c-.7-5.9 2-9 9.1-9.5 6.1-.4 12.2-.1 19.1-.1-2.4 3.4-4.4 6.2-6.8 9.6H41.9zM419.3 84.2c-.7 4-1.4 7.7-2.2 11.6h-7.8c-10.9.1-10.9.1-9.9-11.6h19.9zM472.3 95.5H454c-.3-3.9-.6-7.1-1-11.5 3.5-.2 7.4-.2 11.2-.6 5.9-.6 8.9 1.2 7 7.7-.3 1.2.6 2.7 1.1 4.4zM150.6 99.2h18v12.4c-4.6 0-9.6.2-14.6-.2-1.2-.1-2.9-2-3.2-3.3-.6-2.4-.2-5-.2-8.9zM150.8 93.7c-.2-10-3.4-11.8 10.3-11 1 .1 2.1.3 3 0 4.3-1.6 5 .7 5 4.2-.1 2.1 0 4.3 0 6.9-6.2-.1-12.1-.1-18.3-.1zM530.4 128.4c-.1-2.1-.3-3.7-.3-5.3 0-5.5.8-5.9 5.9-4.4 3.1.9 6.4.6 9.7 1.1 4.9.7 7.4 4 7 9.9-7.3-.3-14.5-.8-22.3-1.3zM417.6 100.6c-.2 3.9-.4 7.5-.6 11.1-5 .3-10.2 1.2-15.2.6-1.2-.1-2.1-5.4-2.4-8.3-.1-1 1.9-3.1 3-3.2 4.8-.4 9.7-.2 15.2-.2zM171.9 126.5h-17c.2-1.7.4-3.2.7-5.1-.9-.4-2-.6-2.8-1.2-.9-.7-2.1-1.9-1.9-2.7.2-.9 1.6-2.3 2.5-2.3 4.3 0 8.6.2 12.8.8 1 .1 2 1.9 2.6 3.2 1.1 2.1 1.9 4.4 3.1 7.3zM443.6 101.3v9.6c-11.8 5-17 2-15.6-9.6h15.6zM142.9 127.4c-4.3-.5-8.8.1-12-1.7-3.2-1.7-5-5.9-7.4-9 .3-.5.6-1 1-1.6 4.9 0 9.8-.1 14.7.1 1 .1 2.5 1.5 2.7 2.6.5 2.8.6 5.7 1 9.6zM426.3 96.9c1.4-4.8 1.7-8.8 3.7-11.7 2-2.9 6-3 8.4 0 2.2 2.7 7.7 4.6 5 8.8-1.2 1.9-6.3 1.1-9.7 1.6-1.8.3-3.5.6-7.4 1.3zM228 127.7c1.8-3.6 3.1-6.1 4.7-9.4h-5.2c-.2-.3-.4-.5-.6-.8 1.1-.6 2.3-1.8 3.4-1.7 3 .2 6 .8 9 1.3v3.2c4.6 2 8.6 3.8 12.6 5.5-.2.6-.3 1.3-.5 1.9H228zM124.7 94.4c-.3-4.7 3.9-10.9 8.6-11.1 2.8-.1 6.3 2.6 8.4 5 2.7 3.2 1.1 5.9-3 6.1-4.5.2-9.1 0-14 0zM241.8 94.9c-2.9 0-5.7-.3-8.3.1-5.5.7-7-2-6.7-6.8.2-3.3-.1-6.7 5-4.4.7.3 1.9-.6 3-.7 3.9-.3 6.8.4 6.3 5.4-.2 1.7.4 3.7.7 6.4zM10.2 110c-1.9-13.7 1-11.9 12.3-11.3.5 3.6 1 7.2 1.6 11.3H10.2zM26.2 83.2c-.9 3.3-1.7 6.3-2.6 9.8-2.6 0-5.1.1-7.6 0-2-.1-5.5-.1-5.7-.7-.6-2.7-.3-5.7-.1-8.5 0-.5 1.6-1.1 2.5-1.1 4.3-.1 8.5.2 13.5.5zM369.9 99.7v11.7h-12.8v-10.7c3.9-.3 8.1-.6 12.8-1zM371.7 94.6c-4.3 0-7.2.3-9.9-.1-1.8-.3-4.7-1.2-5-2.4-.7-3-1.1-7.1 3.2-7.9 2.8-.6 6.9-.6 8.6 1 2.1 1.9 2.1 5.9 3.1 9.4zM391.1 100.5c-.8 4-.7 8.3-2.6 11.1-.9 1.4-7.9 1-8.3 0-1.3-3.3-.8-7.3-1-11.1h11.9zM389.8 95.8c-3.2-2.6-11 2.8-10-5.5.3-2.4 5-6.4 6.9-6 6.4 1.5 2.8 7.2 3.1 11.5zM32.6 98.6H38c0 3.5.1 6.7-.1 10 0 .8-1 1.9-1.7 2.1-.6.1-2.1-.8-2.2-1.4-.6-3.4-.9-6.9-1.4-10.7zM38.2 83.7c-.5 2.8-.9 5.5-1.5 8.7-1.3.1-2.9.3-5 .5.4-2.8.3-5.3 1.1-7.4.5-1.3 2.5-2.1 3.9-3.1.6.4 1.1.9 1.5 1.3zM261.3 123.1c-2.3-2-4.4-3.7-6.9-5.9 3.2-.6 5.6-1.4 7.9-1.4.9 0 2.6 2.3 2.4 3.3-.3 1.3-2 2.4-3.4 4z" fill="#fff"/>
  <path d="M34.4 416.2c1.5-.3 2.9-.6 4.4-1 0-.4-.1-.8-.1-1.1-3.2.4-6.5.7-9.7 1.1-.1-.4-.3-.8-.4-1.1l6.6-2.4c.1-.3.1-.5.2-.8-4.7.3-9.5.5-14.2.8v-3c24.5-1.6 48.9-3.3 73.4-4.9.1 1 .2 1.9.2 2.9-5.9 2.6-12.3.4-18.4.8-6.4.4-12.8 1.6-19.2 3.1.7.2 1.5.6 2.2.6 14.4-.7 28.8-1.4 43.2-2.4 1.2-.1 2.7-1.6 3.2-2.8 1.9-4.1 3-8.5 5-12.5 9.8-19.8 20.1-39.4 29.6-59.3 3.1-6.4 5.7-13.5 6.2-20.5.7-9.5-.8-17.9-13.4-21.1-11-2.8-21.1-8.1-28.1-18.2-1.6-2.3-5.7-3.6-8.9-3.9-7.8-1-14.1-9.1-12.6-16.8.3-1.6-.3-4-1.5-5.2-5.1-5.3-6.4-11.8-6.8-18.6-.4-7.3-.9-14.8.2-21.9.7-4.6 3.8-9.1 6.4-13.2 6-9.6 12.1-19.2 18.9-28.2 4.7-6.2 11.6-8.6 19.6-6.9 1.1.2 2.4-.5 3.5-.9 10.6-3.4 21.4-4.3 32.5-2.1 5.4 1.1 11.2.9 16.2 2.8 11.9 4.4 24.1 8.2 33.6 17.7 4 4 9.9 6.3 15.2 8.7 15.5 7.2 15.1 17.9 8.8 30.3-1.4 2.8-3.1 5.6-4.8 8.7 5.3 2.9 6.8 6.8 4.9 12.5-.8 2.6.2 6.1 1.1 8.9 1.7 5.4.5 9.7-3.4 13.6-8.4 8.6-16.5 17.6-25.3 25.7-3.5 3.2-8.6 4.8-13.1 6.8-3.8 1.7-4.2 4-3.1 7.8 1.4 5.1 4.1 8.5 8.8 10.8 7.9 3.8 15.4 8.4 23.5 11.8 3.3 1.4 7.6 1.1 11.2.5 4.1-.7 7.7-2.2 9.2 3.6 1.1 4 5.4 3.8 8.3 5.4 2.4 1.3 4.7 2.6 7.1 3.9-2.1 2-4.3 4-6.4 6-.4.4-.9.6-1.3.9.9 2.4 3 5.2 2.3 7.1-.8 2.4-3.7 4.3-6 6-2.2 1.6-4.4 4.5-7.5 1.1-.6-.6-2.3-1.1-2.8-.7-2.6 1.8-4.9 3.9-7.7 6.2 8.5.3 17.1 1.5 24.3-4.5 1.6-1.3 3-3.8 3.2-5.9.5-4.6 3.3-4.9 6.9-4.9 20.3.1 40.7.3 61 .3 21.5 0 43-.5 64.5 0 15.6.3 31.3 1.7 46.9 2.9 8.4.7 10.7 3.7 10.6 12.3-.1 5.1-.2 10.4-1.2 15.4-1.8 9-7.4 13.5-16.6 14.4-2.9.3-5.9.3-8.8.7-7.7 1.1-5.9 7.7-7 12.5-.3 1.5-.1 3.2-.1 5.3 8.3.6 16.4 1.2 24.5 1.8 0 .6-.1 1.3-.1 1.9-29.9-.1-59.8 1.2-89.5-4-.2 6.2-.1 6.2 8.2 6.1 12.5-.1 25 .2 37.5.2 14.8 0 29.7-.1 44.5-.2h6v1.8c-2.9.1-5.8.4-8.8.4-6.5.1-13.1.1-19.6.2-2.8 0-5.7-.5-7.5 2.9-.4.9-2.8 1.1-4.2 1.1-13.3.2-26.6.3-39.9.4-3.1 0-6.2-.6-9.3-.9-7-.7-7.9 0-9.4 6.9-.2 1-.8 2-.9 3.1-.3 3.3.6 7.6-4.8 7.2-4.4-.4-6-4.1-5.6-9.6.2-2.6-.6-5.7-2-7.9-2.5-4-9.9-3.6-13.2.1-.8.9-2.5 1.4-3.8 1.5-18.4.7-36.9 1.3-55.3 1.8-4.1.1-8.4-.3-12.3.5-1.4.3-2.7 3.4-3.3 5.4-.8 2.7-.3 5.9-1.5 8.4-.8 1.6-3.6 3.1-5.5 3-1.4-.1-3.4-2.6-3.8-4.3-1.3-7-2.1-14-3.2-21.4-2.5.4-4.1 1-5.6.8-6.4-.7-10.9.4-13.3 7.8-1.7 5.5-8.2 6.5-13.2 5.8-8.3-1.2-16.6-3.5-24.7-6-5-1.6-9.6-4.4-14.3.6-.8.8-3.4.2-5-.3-9.4-2.6-18.6-6.4-28.1-7.7-11.3-1.5-22.9-1-34.4-1-9.7 0-19.5 1.3-29.2-1-3.4-.8-7.4.5-11.1.6-4.4.1-8.8 0-13.3 0 .6-.2.6-.7.5-1.1zm65.1-171.1c-.2.8-.4 1.7-.7 2.5-1.5-.3-3-.9-4.4-.8-1.2.1-3.4.8-3.5 1.4-.3 4-1.2 8.5.3 11.8 1.4 3.1 5.3 5.2 9.8 4.2 1.4-.3 4 .4 4.6 1.5 5.9 11.2 16.1 16.6 27.4 19.9 9.5 2.7 18.8 5.7 29.2 5.6 12.6-.2 24.6-1.9 35-8.6 8.8-5.6 17.7-12 24.3-19.9 7-8.3 10.2-10 1.4-20.7-1.6-1.9-4.1-4-4.1-6 .1-6.7.8-13.5 5.4-19.1 6.1-7.6 6.7-15.7 1.3-20.9-3.7-3.5-8-6.5-12.3-9.9-1.4 7.3-1.4 7.3-8.7 3.1-.3-2.6.3-5.6-.9-6.6-4.5-3.7-9.1-7.6-14.4-9.7-9.9-3.9-20.2-6.7-30.4-9.7-9.7-2.8-19.2-2.9-28.3 2.2-1.7.9-3.8 1.9-5.6 1.7-7.5-1-12.6 3.9-18.5 6.9-1.4.7-3 1.2-4.4 1.8-.2-.3-.4-.6-.5-.9 2.9-3.1 5.9-6.2 8.8-9.4-6.7 3-11.1 7.6-13.8 14.3-2.1 5.5-5.3 10.6-8.9 15.3-2.3 3.1-7.6 12.6-7.1 16.2.8 5.3 1.9 10.5 2.8 15.8.2 1.2.5 2.6.1 3.6-3.3 9.2-.3 13.1 9.3 12.5 2.3-.1 4.6 1.2 6.8 1.9zm136.1 85c-.2-.6-.4-1.1-.6-1.7-.9 0-1.9-.4-2.6-.1-15 5.7-30.3 6.2-45.9 3.5-1.3-.2-4.1 1.4-4.4 2.6-1.7 6.4-3.1 13-4.1 19.6-.2 1.4-.1 4 3.8 3.2 6.2-1.3 12.8-1.1 19.2-1.7 3.5-.3 7.1-1 10.6-1 1.8 0 3.7 1 5.4 1.8 1 .5 1.6 1.7 3.3 3.6-.2-3.6-.3-5.6-.4-7.6h4.4c.5-2.5.4-6.2 1.5-6.6 2.1-.7 4.9.4 8.5.9-1.8-5.1-9.8-5.2-10.5-12 3.6-1.4 7.7-2.9 11.8-4.5zm-34 75.7c-2.4-9.1-5.4-18.6-13-25.5-7.2-6.6-15.2-4.1-17.6 4.3-3 10.5-1.2 20.3 3.5 29.8 9.3-3 18.1-5.8 27.1-8.6zm232.7-47.3v-1.9c-6.5-.7-13.1-1.6-19.6-2.2-6.9-.6-13.8-.6-20.7-1.3-4.5-.5-15.5.4-19.3 3 3.2-.5 6.4-.9 9.5-1.4.1.6.2 1.1.3 1.7-23.3 5.2-46.6 10.4-69.9 15.7 11.8.9 23.4 1.2 34.9.7 3-.1 6-2.7 8.9-4.4 2.4-1.4 4.5-4.1 6.9-4.4 18.1-2 36-6.1 54.3-4.6 4.8.4 9.8-.5 14.7-.9zm-84.3-5.1v-1.1c-4 0-8-.3-11.9.1-6.7.5-13.4 1.5-20.2 2.2-2.6.3-7.1 1.3-7.5.5-1.9-4.1-4.1-2.2-6.5-1.3-2.7 1-5.4 1.7-8 2.8-2.4 1.1-4.4 3.2-6.8 3.8-9.3 2.5-18.6 4.7-28 6.6-3.7.7-4.5 2.2-3.1 5.6 1.9.2 4 .3 6 .8 7.3 2 12.9-3.5 19.5-4.7 15.2-2.9 30.2-6.4 45.2-9.9 7-1.6 14.1-3.6 21.3-5.4zm-16.6 51.9c7.4-.4 14.1-.7 20.9-1.1-4.6-8.8-4.2-17.6-2.3-27.3-10.8 2.2-21.4 4.4-31.9 6.6-.1.3-.1.5-.2.8 5.6.8 11.2 1.6 16.7 2.4v1.8c-3.8 1.2-7.7 2.4-12.4 3.9 11.6.9 11.7 1 8.8 6.2 5.1 2.4 5.2 3.2.4 6.7zm67.6 6c-.3-3.4-.5-6.9-.8-10.5-.3-2.7-1.5-4.3-4.6-4-3.6.4-7.1 1.1-10.7 1.1-11.9.1-18.5 4.1-26.7 13.4H401zm-208.9-34.8c1.9 2.3 3.4 4.7 5.5 6.6.8.7 2.8.9 3.9.4 3.5-1.7 6-9 4.6-12.8-1.6-4.2-6.3-6.2-11.6-4.9-1.6.4-3.2.7-4.7.7-9.8.1-19.7.5-29.5.2-9.9-.2-19.7-1.1-30.3-1.7-.2.5-.8 2.1-1.3 3.6.9.5 1.2.8 1.5.7 11.1-.3 22.1 1.2 32.9 3.9 2.9.7 6.1.8 9.2.6 3.9-.2 7.7-1 11.6-1.5 1.1-.1 2.3.1 3.3-.2 3.9-1.2 7.6-3 11.6-3.7 1.5-.3 3.5 1.5 5.2 2.3-1 1.3-1.7 3.2-3 3.7-2.8 1.1-5.8 1.4-8.9 2.1zM327 415.8c-.5-3.6-2.7-4.7-6.4-4.6-8.6.3-17.3.4-26 .4-14.5-.1-28.9-.3-43.4-.6-7-.2-7.2-.2-8.4 6.3 27.9-1 55.8-3.8 84.2-1.5zm98.9-43c-2 5.5-3.8 10.2-5.7 15.5 4.7-1.3 9.1-2.1 13.1-3.8 1.7-.7 3.6-3.3 3.8-5.1.5-5.4.2-10.8.2-16.9-8 2.3-17.1-.8-22.2 7.7 3.8.8 7.4 1.7 10.8 2.6zm-255.7-16.1c-1.9-9.7 1.7-17.6 5.8-25.5-4.7-3.9-7.6-3.8-10.2 1.5-2 4.2-3.7 8.7-4.3 13.3-.9 8.1.6 9.6 8.7 10.7zm10 62.3c-.1.6-.2 1.1-.4 1.7 4.5 1.9 8.8 4.7 13.5 5.4 3.5.5 8.7-.9 10.6-3.3 1.9-2.5.7-7.4.9-11.5-9.2 2.8-16.9 5.3-24.6 7.7zm-14-40c-12.8-1.7-25.4-3.5-38-4.8-1.5-.2-3.3 2.4-4.9 3.7 1.3 1.1 2.6 3.1 3.8 3.1 9-.6 17.8.3 26.6 1.7 1.5.2 3.1-.2 4.5.2 6.2 2.1 6.3 2.1 8-3.9zm90-17.3c12.6-2.7 24.2-5.3 35.9-7.8-.1-.6-.1-1.1-.2-1.7-10.9 0-21.8-.1-32.7.1-1 0-2.5 1.7-2.9 2.9-.5 1.5-.1 3.2-.1 6.5zm-71.9-44.9c-.6-8-1.3-8.8-6-6.7-8.1 3.5-16.2 2.4-24.8.8.2 1.3.2 3.5.5 3.5 10 .9 19.9 1.6 30.3 2.4zm-21.6 10.3c-3.9-1.9-7.4.3-9.8 6.2-3.3 8.1-3.8 19.3 1.7 19.9-2.1-9.9 3.3-17.6 8.1-26.1zm-12.3-27.7c1.2 1.9 1.4 2.9 2 3.2 8.7 4.5 18 3.9 27.3 2.7.7-.1 1.9-2.6 1.5-3.1-.7-1.2-2.7-2.8-3.5-2.4-8.6 3.6-17.2 2.1-27.3-.4zm12.6 92.3c.2-1.1.5-2.2.7-3.3-14.8.6-29.8 2.5-43.6-3.8 13.4 7.8 28.1 8 42.9 7.1zm188.7-34c-.2-.6-.3-1.2-.5-1.8-18.2 4.1-36.4 8.2-54.6 12.2.2.7.3 1.3.5 2 18.2-4.1 36.4-8.2 54.6-12.4zM141 347.1c-.6.3-1.3.5-1.9.8-1.7 3-3.5 5.9-5.8 9.8 5.8.8 10.4 1.4 14 1.8-.9-1.5-2.2-3.1-3.1-4.9-1.2-2.4-2.1-5-3.2-7.5zm27.9 71.8c.2-.6.4-1.1.5-1.7-1.5-3.7-3-7.4-4.7-11.3-3.6 1.5-8 3.8-6.1 7.7 1.5 2.8 6.8 3.6 10.3 5.3zm230.1 1.5v-.6h-49.6v.6H399zm-189.7-52.8c3.6-.8 6.6-1.4 9.6-2.1.1-.6.1-1.2.2-1.7-3.7-1.5-7.4-3.1-11.1-4.6-.4.6-.8 1.2-1.3 1.8.8 2.1 1.7 4.3 2.6 6.6zm16.8 44.5c-6.5-1.8-12.4-3.4-18.3-5.1.8 3.2 1 7.2 7.3 5.4 2.6-.7 5.8.7 9.7 1.3-.4.5.2-.3 1.3-1.6zM175.9 323c0 .6-.1 1.3-.1 1.9 4.2.4 8.3.8 12.5 1.2-3.5-8-8.3-.9-12.4-3.1zm25.7 4c4 .4 7.8.7 11.6 1-8.4-6.5-8.4-6.5-11.6-1z"/>
  <path d="M433 250.2c-11.9 26.4-25 52.2-39.9 77.7-.9-5.9 34.3-75.4 39.9-77.7zM424.7 327.9c15.9-21.4 31.7-42.8 47.6-64.3.6.2 1.3.5 1.9.7-.3 1.6 0 3.7-.9 4.9-14.4 19.3-29 38.5-43.6 57.6-.8 1.1-2.3 1.7-3.5 2.5-.5-.5-1-1-1.5-1.4zM283.3 319.3c-2.9-5.7-5.1-9.9-7-14.2-3.2-7-9.7-7.8-16.1-9.4-8.1-2-16-1.8-23.9.6-.5.1-1.2-.6-3.2-1.6 4.1-1.3 7.2-3.2 10.1-3 8.8.6 18 .7 26.2 3.3 7.7 2.5 13.2 9.2 14.9 17.7.3 1.7-.6 3.6-1 6.6zM500.1 314.7c-14.5 12.7-30.1 22.4-45 34.2 1.6-6 39.3-35.5 45-34.2zM369.2 326.9c-2.2-5.3 9.6-37 14.7-40.6-2.6 13.9-8.6 26.7-14.7 40.6zM216.9 308.8c3.5-.4 7.1-1.2 10.6-1.1 7.2.3 14.6.5 21.6 2.1 5.4 1.2 9.4 5.6 11 11.2.3 1.1-.4 2.5-.6 3.8h-1.4c-.7-1.7-1.3-3.4-2.2-5.1-4.9-9.2-13.6-9.4-22.3-9.4H217c0-.4-.1-.9-.1-1.5zM457.2 375.5c5.6-5.5 19.5-7.5 24.7-3-8.6 1-16 1.9-24.7 3zM332.1 327.5v-18.2c4.7 5.1 4.5 13.2 0 18.2zM130.4 56.5c9.8-6.1 20.3-9.7 31.5-7.9 4.1.6 7.6 4.3 11.4 6.6 0 .6-.1 1.3-.1 1.9-1.5 0-3.5.6-4.5-.1-7.1-5.6-15-5.1-23.2-3.5-5 1-10.1 2-15.1 3z"/>
  <path d="M99.5 245.1c-2.2-.7-4.5-2-6.7-1.9-9.6.6-12.6-3.3-9.3-12.5.4-1.1.1-2.5-.1-3.6-.9-5.3-2-10.5-2.8-15.8-.5-3.6 4.7-13.1 7.1-16.2 3.5-4.7 6.7-9.9 8.9-15.3 2.6-6.8 7.1-11.4 13.8-14.3-2.9 3.1-5.9 6.2-8.8 9.4.2.3.4.6.5.9 1.5-.6 3-1.1 4.4-1.8 5.9-3 11-7.9 18.5-6.9 1.8.2 3.9-.8 5.6-1.7 9.1-5.1 18.6-5.1 28.3-2.2 10.2 3 20.5 5.8 30.4 9.7 5.3 2.1 9.9 6 14.4 9.7 1.2 1 .6 4 .9 6.6 7.3 4.1 7.3 4.1 8.7-3.1 4.3 3.4 8.6 6.4 12.3 9.9 5.5 5.3 4.9 13.4-1.3 20.9-4.6 5.6-5.2 12.4-5.4 19.1 0 2 2.5 4.1 4.1 6 8.9 10.7 5.6 12.5-1.4 20.7-6.7 7.9-15.5 14.3-24.3 19.9-10.5 6.6-22.4 8.4-35 8.6-10.4.1-19.7-2.9-29.2-5.6-11.3-3.3-21.5-8.7-27.4-19.9-.6-1.1-3.2-1.8-4.6-1.5-4.5 1-8.4-1-9.8-4.2-1.5-3.3-.6-7.9-.3-11.8 0-.6 2.2-1.3 3.5-1.4 1.5-.1 2.9.5 4.4.8.2-.9.4-1.7.6-2.5zm100.6-40.4c1-8.1-.7-11.8-5.8-12 5.7 12.1-1.3 18.3-12.7 18.5 1.3-3.6 6.8-4.8 6.5-10.9-7.6 9.3-17.8 11.7-26.8 16.1-.7.4-1.7.1-2.6.2-.1-.4-.3-.8-.4-1.2 4-2.2 7.9-4.4 13.1-7.3-8.4-3-12 3.6-17.2 5.4-5.7 1.9-11.3 4.1-17 6.2-.3-.6-.6-1.1-.9-1.7 1.1-2.4 2.2-4.7 3.3-7.1-.5-.2-.9-.4-1.4-.6-2.1 3.1-4.1 6.1-6.2 9.2 3.5 3.2 6.4 5.1 10.9 2.5 2.5-1.4 6.4-1.9 9-1 4.9 1.7 8.9.5 13.3-1 4.1-1.3 8.5-1.8 12.7-2.6 1.4-.3 2.9-.1 4.2-.6 6.1-2.7 12-5.6 18-8.4 5.6-2.6 7.6-6.8 5.9-12.7-1.1-3.8-5.6-7.6-8.5-6.9 6.4 6.9 7.4 13 2.6 15.9zm2.9 56.6c-.3-1.3-.5-3.5-1.4-5.3-1.1-2.2-2.3-2.5-4.3-.1-7.1 8.2-16.6 12.2-27.1 11.9-9.9-.3-19.7-2.2-30.3-3.5-.5 1.9-1 4.3-1.4 6.1 3.3.2 5.6.2 7.9.5 4.6.6 9.1 1.6 13.7 2.1 12.9 1.6 24.5-1.8 35.2-9.2 1.7-1.3 4.4-1.5 7.7-2.5zm-96.6-23.2c1.1-6.8 1.9-12.1 2.9-17.4.1-.6 1.3-1.4 2-1.4 5.8-.1 6.3-5.5 9.3-8.4-2.8.9-5.2 2.5-7.8 3.6-2.5 1.1-5.5 1.3-7.9 2.6-1.3.7-2 2.9-2.3 4.5-.8 4.5-1.2 9.1-1.9 15 1.4.4 4 1.1 5.7 1.5zm44.1-5.2c-1.1 1.8-4.4 4.7-3.9 6.7.7 2.8 4.2 4.8 6.5 7.2 1.7-1.8 4.3-3.5 4.7-5.5.8-3.6-3.2-8.6-7.3-8.4zm23.1 11c4.9 4 7.8 3.7 10.8-.1 3.1-3.9 2.7-7.7-1.1-10.7-4.9-3.8-6 1.1-9.6 3.9h7.1v4.5c-2.2.8-4.3 1.5-7.2 2.4zm28.1-9.1c-.9-4.9-2.3-7.7-6.3-7.8-3.9-.2-4.7 3.2-4.4 6 .3 2.8-.1 7.4 4.7 6.7 2.2-.3 4-3.2 6-4.9zM235.6 330.1c-4.1 1.6-8.3 3.1-12 4.6.7 6.8 8.8 6.8 10.5 12-3.6-.5-6.4-1.6-8.5-.9-1.1.4-1 4.1-1.5 6.6h-4.4c.1 2 .2 4 .4 7.6-1.6-1.8-2.3-3-3.3-3.6-1.7-.9-3.6-1.9-5.4-1.8-3.5 0-7.1.7-10.6 1-6.4.5-12.9.4-19.2 1.7-3.9.8-4-1.8-3.8-3.2 1-6.6 2.4-13.1 4.1-19.6.3-1.2 3.1-2.9 4.4-2.6 15.6 2.7 31 2.2 45.9-3.5.8-.3 1.8 0 2.6.1.4.5.6 1 .8 1.6zM201.6 405.8c-9 2.9-17.8 5.6-27 8.6-4.8-9.5-6.5-19.4-3.5-29.8 2.4-8.4 10.3-10.9 17.6-4.3 7.5 6.9 10.5 16.3 12.9 25.5zM434.3 358.5c-4.9.3-9.8 1.3-14.7.9-18.4-1.5-36.3 2.6-54.3 4.6-2.4.3-4.5 3-6.9 4.4-2.9 1.7-5.8 4.2-8.9 4.4-11.5.5-23.1.2-34.9-.7 23.3-5.2 46.6-10.4 69.9-15.7-.1-.6-.2-1.1-.3-1.7-3.2.5-6.4.9-9.5 1.4 3.8-2.6 14.8-3.4 19.3-3 6.9.7 13.8.7 20.7 1.3 6.6.6 13.1 1.4 19.6 2.2v1.9zM350 353.4c-7.1 1.8-14.3 3.8-21.4 5.5-15 3.4-30.1 7-45.2 9.9-6.6 1.2-12.1 6.7-19.5 4.7-2-.5-4.1-.5-6-.8-1.3-3.5-.6-4.9 3.1-5.6 9.4-1.8 18.8-4.1 28-6.6 2.4-.6 4.4-2.8 6.8-3.8 2.6-1.2 5.3-1.9 8-2.8 2.4-.9 4.7-2.8 6.5 1.3.4.8 4.9-.2 7.5-.5 6.7-.7 13.4-1.7 20.2-2.2 4-.3 8-.1 11.9-.1.1.3.1.6.1 1zM333.4 405.3c4.8-3.5 4.7-4.3-.3-6.8 2.9-5.2 2.8-5.3-8.8-6.2 4.7-1.5 8.5-2.7 12.4-3.9v-1.8c-5.6-.8-11.2-1.6-16.7-2.4.1-.3.1-.5.2-.8 10.5-2.2 21-4.3 31.9-6.6-2 9.7-2.4 18.4 2.3 27.3-6.9.5-13.5.9-21 1.2zM401 411.3h-42.8c8.2-9.3 14.8-13.3 26.7-13.4 3.6 0 7.1-.7 10.7-1.1 3-.4 4.3 1.3 4.6 4 .4 3.6.6 7.2.8 10.5z" fill="#fff"/>
  <path d="M192.1 376.5c3.1-.7 6.1-1.1 8.7-2.1 1.3-.5 2-2.4 3-3.7-1.8-.8-3.7-2.6-5.2-2.3-3.9.8-7.7 2.5-11.6 3.7-1 .3-2.2.1-3.3.2-3.9.5-7.7 1.3-11.6 1.5-3.1.2-6.3.1-9.2-.6-10.8-2.7-21.7-4.1-32.9-3.9-.3 0-.6-.3-1.5-.7.5-1.5 1.1-3 1.3-3.6 10.7.6 20.5 1.5 30.3 1.7 9.8.2 19.7-.1 29.5-.2 1.6 0 3.2-.4 4.7-.7 5.3-1.2 10 .7 11.6 4.9 1.4 3.8-1 11.1-4.6 12.8-1 .5-3.1.4-3.9-.4-1.8-1.9-3.4-4.2-5.3-6.6zM327 415.8c-28.4-2.4-56.3.4-84.1 1.5 1.1-6.5 1.4-6.5 8.4-6.3 14.5.3 28.9.5 43.4.6 8.7.1 17.3-.1 26-.4 3.6-.1 5.8 1.1 6.3 4.6zM425.9 372.8c-3.5-.9-7.1-1.7-10.9-2.7 5.2-8.4 14.2-5.3 22.2-7.7 0 6.1.3 11.6-.2 16.9-.2 1.9-2 4.4-3.8 5.1-4 1.7-8.4 2.5-13.1 3.8 2.1-5.2 3.8-9.9 5.8-15.4zM170.2 356.7c-8.1-1.1-9.6-2.6-8.6-10.7.6-4.5 2.3-9.1 4.3-13.3 2.6-5.3 5.5-5.5 10.2-1.5-4.2 8-7.8 15.9-5.9 25.5zM180.2 419c7.7-2.4 15.4-4.9 24.6-7.8-.2 4.1 1 9-.9 11.5s-7.2 3.8-10.6 3.3c-4.6-.6-9-3.5-13.5-5.4.2-.5.3-1 .4-1.6zM166.2 379c-1.8 6-1.9 6-7.9 3.9-1.4-.5-3 0-4.5-.2-8.8-1.5-17.7-2.3-26.6-1.7-1.2.1-2.6-2-3.8-3.1 1.6-1.3 3.4-3.8 4.9-3.7 12.5 1.4 25.1 3.1 37.9 4.8zM256.2 361.7c0-3.2-.4-5 .1-6.4.4-1.2 1.9-2.9 2.9-2.9 10.9-.2 21.8-.1 32.7-.1.1.6.1 1.1.2 1.7-11.6 2.4-23.3 4.9-35.9 7.7zM184.3 316.8c-10.4-.8-20.4-1.5-30.3-2.4-.3 0-.3-2.2-.5-3.5 8.6 1.6 16.7 2.7 24.8-.8 4.8-2.1 5.4-1.4 6 6.7zM162.7 327.1c-4.9 8.4-10.3 16.1-8.1 26.2-5.5-.6-5-11.8-1.7-19.9 2.4-6 5.9-8.2 9.8-6.3zM150.4 299.4c10.1 2.5 18.7 4 27.4.3.7-.3 2.8 1.3 3.5 2.4.3.6-.8 3-1.5 3.1-9.3 1.2-18.6 1.8-27.3-2.7-.7-.3-1-1.3-2.1-3.1zM163 391.7c-14.8.9-29.5.7-42.9-7.1 13.8 6.3 28.8 4.5 43.6 3.8-.2 1-.4 2.2-.7 3.3zM351.7 357.7c-18.2 4.1-36.4 8.3-54.7 12.4-.2-.7-.3-1.3-.5-2 18.2-4.1 36.4-8.2 54.6-12.2.3.6.4 1.2.6 1.8zM141 347.1c1.1 2.5 2 5.1 3.2 7.5.9 1.8 2.1 3.4 3.1 4.9-3.5-.5-8.2-1.1-14-1.8 2.3-3.9 4-6.9 5.8-9.8.6-.3 1.3-.5 1.9-.8zM168.9 418.9c-3.5-1.7-8.8-2.5-10.2-5.3-1.9-3.9 2.5-6.2 6.1-7.7 1.6 3.9 3.1 7.6 4.7 11.3-.2.6-.4 1.1-.6 1.7zM399 420.4h-49.6v-.6H399v.6zM209.3 367.6c-.9-2.3-1.7-4.5-2.6-6.6.4-.6.8-1.2 1.3-1.8 3.7 1.5 7.4 3.1 11.1 4.6-.1.6-.1 1.2-.2 1.7-3 .6-6 1.3-9.6 2.1zM226.1 412.1c-1.1 1.3-1.7 2.1-1.3 1.6-3.9-.6-7.1-2-9.7-1.3-6.3 1.7-6.5-2.3-7.3-5.4 5.9 1.7 11.8 3.3 18.3 5.1zM175.9 323c4 2.2 8.8-4.9 12.4 3.2-4.2-.4-8.3-.8-12.5-1.2 0-.7.1-1.3.1-2zM201.6 327c3.1-5.5 3.1-5.5 11.6 1-3.7-.3-7.5-.7-11.6-1z" fill="#fff"/>
  <path d="M200.1 204.7c4.8-2.9 3.8-9-2.6-16 2.9-.6 7.4 3.1 8.5 6.9 1.6 5.9-.4 10.1-5.9 12.7-6 2.8-12 5.7-18 8.4-1.2.5-2.8.4-4.2.6-4.3.8-8.6 1.2-12.7 2.6-4.5 1.4-8.5 2.7-13.3 1-2.6-.9-6.5-.4-9 1-4.6 2.6-7.4.7-10.9-2.5 2.1-3.1 4.2-6.2 6.2-9.2.5.2.9.4 1.4.6-1.1 2.4-2.2 4.7-3.3 7.1.3.6.6 1.1.9 1.7 5.7-2.1 11.3-4.3 17-6.2 5.3-1.7 8.9-8.4 17.2-5.4-5.1 2.9-9.1 5.1-13.1 7.3.1.4.3.8.4 1.2.9 0 1.9.2 2.6-.2 9-4.4 19.2-6.7 26.8-16.1.3 6.1-5.2 7.3-6.5 10.9 11.4-.1 18.4-6.3 12.7-18.5 5.1.3 6.9 4 5.8 12.1zM203 261.3c-3.3 1-6 1.1-7.9 2.4-10.7 7.3-22.3 10.7-35.2 9.2-4.6-.6-9.1-1.5-13.7-2.1-2.3-.3-4.6-.3-7.9-.5.4-1.7 1-4.1 1.4-6.1 10.6 1.3 20.4 3.2 30.3 3.5 10.5.3 20-3.7 27.1-11.9 2-2.4 3.3-2 4.3.1 1 1.9 1.2 4.1 1.6 5.4zM106.4 238.1c-1.7-.4-4.3-1.1-5.6-1.5.7-5.9 1.2-10.5 1.9-15 .3-1.6 1.1-3.8 2.3-4.5 2.4-1.3 5.3-1.5 7.9-2.6 2.6-1.1 4.9-2.7 7.8-3.6-3 2.9-3.6 8.3-9.3 8.4-.7 0-1.9.8-2 1.4-1.1 5.3-1.9 10.6-3 17.4zM150.5 232.9c4.1-.2 8.1 4.8 7.4 8.3-.4 2.1-3.1 3.7-4.7 5.5-2.3-2.4-5.8-4.4-6.5-7.2-.6-1.9 2.7-4.8 3.8-6.6zM173.6 243.9c2.9-1 5-1.6 7.2-2.4V237h-7.1c3.7-2.7 4.8-7.6 9.6-3.9 3.8 2.9 4.2 6.7 1.1 10.7-3 3.8-5.9 4.1-10.8.1zM201.7 234.8c-2 1.7-3.8 4.5-6 4.9-4.8.8-4.4-3.9-4.7-6.7-.3-2.8.5-6.2 4.4-6 4 .2 5.4 3 6.3 7.8z"/>
</svg>
