<svg xmlns="http://www.w3.org/2000/svg" viewBox="0 0 595.3 468.8" xml:space="preserve">
  <path fill="#fff" d="M0 0h595.3v468.8H0z"/>
  <path d="M19.6 468.8h-2.2c1.8-4.8-1.7-4.3-4.5-4.4-7.1-.3-11-4-11-10.5 0-24.5-.2-49-.1-73.5.1-27 .2-54.1.5-81.1 0-1.7.9-3.7 2.1-4.9 2.7-2.8 2.7-6.6-.4-8.8-3.4-2.3-4.1-15.2-.4-17 3.9-1.9 3.2-4.9 2.3-7.2-.5-1.2-3.8-1.3-5.9-2V255c.9-2.4 2.6-4.8 2.7-7.3.2-6.2-.5-12.4-.5-18.6 0-42.7.1-85.5 0-128.2 0-17.1-.6-34.1-.8-51.2-.2-12.5-.2-25-.1-37.5 0-7 .9-8.2 7.5-8.2 17.6-.2 35.2 0 52.8-.1 12.2.1 24.4-.3 36.7-.4 16.4-.1 32.8-.2 49.2-.1 2.8 0 4.4-.8 5.1-3.4h25.1c.1.3.2.5.4.8.2-.3.5-.5.7-.8h24c.1.5.1 1.5.2 1.5 3.8.5 7.6 1.5 11.4 1.4 9.8-.2 19.6-1.1 29.4-1.2 16.4-.1 32.7.2 49.1.2 1.2 0 2.5-1.3 3.7-1.9h298.7v30.5c-1 .6-2.6 1-2.8 1.9-.7 2.6-1.2 5.4-1.2 8.2 0 12.1.2 24.2.5 36.3.1 2.8 1.5 5.9.7 8.4-1.1 3.6.5 4.9 2.9 6.4v165.7c-3.7 2.2-3.7 10.8 0 14.2v78.5c-.7.8-2 1.5-2 2.3-.2 8.1-.5 16.2-.2 24.3.1 3.9 1.4 7.7 2.2 11.6v58.9c-.9 2.7-3.1 5.6-2.6 8.1 1.1 6.3-.3 10.8-6.1 13.7H436.2c-6.5-.6-12.9-1.4-19.4-1.8-1.8-.1-3.8 1.1-5.6 1.8h-1.1c-6.3-.6-12.5-1.2-18.8-1.7-.2 0-.5 1.1-.8 1.7H372c-1.1-.8-2.1-2.1-3.2-2.2-9.3-.2-18.6-.2-27.9.1-1.6 0-3.2 1.4-4.9 2.1h-9.8c-4.4-.7-8.8-1.8-13.2-1.9-17.1-.4-34.2-.6-51.2-.6-13.6 0-27.2.3-40.8.2-3.8 0-7.6-1.3-11.5-1.7-1.6-.2-3.4.3-6.1.5 1.9 1.7 2.9 2.6 3.9 3.5H204c-.7-1.4-1.5-2.8-2-3.8-7.3 0-14.3-.1-21.2 0-9.7.1-19.4.3-29 .4-1.7-.3-3.4-.9-5.1-.9-16.5.5-33.1 1.3-49.6 1.7-3.2.1-6.5-1.6-9.8-1.7-5-.1-10.1.5-15.1.7-7 .2-14 .4-21.1.4-10.2.1-20.5 0-30.9 0-.3.6-.4 1.8-.6 3zM283 202.1c.4-5.1.7-10.1-6.3-13.8 1.9 5.3 3.4 9.4 4.9 13.5.1.2 1 .2 1.5.2-.3 1.9-1.4 4.3-.6 5.7 2.4 4.5 1 6.5-3.5 8-2.5.8-4.5 2.9-6.8 4.3-1 .6-2.1 1.1-3.3 1.3-2.6.6-5.2 1.1-7.8 1.7 0 .8 0 1.7.1 2.5 1.8.1 3.8.9 5.3.3 5-2.2 9.7-5 14.5-7.5 6.4-3.3 8.8-8.1 7.7-15.1-1.9-.5-3.8-.8-5.7-1.1zM18.7 459h31.1c18.6.1 37.2.3 55.8.3 11.9 0 23.8-.1 35.7-.3 7.3-.1 14.6-.9 21.9-.9 8.5 0 17.1.8 25.6.9 16.4.1 32.8-.2 49.2-.2 20.1.1 40.2.6 60.4.7 34.1.2 68.1.1 102.2.2 4.3 0 8.6.1 12.9.3 7.7.3 15.4 1 23.2 1.1 11.6.2 23.2 0 34.9 0h41.2c-1.1-1.2-1.4-1.9-1.7-1.9-10.3-.9-19.6-4.9-28.3-10.2-2.1-1.3-4.5-2.4-1.4-4.8 2 1 3.8 2 5.9 3-.9-3.2-2.6-5.8-2.1-7.8 2.2-8.6 5.1-16.9 7.5-25.5.9-3.3 1-6.8 1.5-10.5-5.2.1-5 7.8-11.3 6.7 2.3-2.5 3.9-4.4 5-5.6-2-5-3.8-9.6-5.7-14.1-.6.1-1.1.2-1.7.3l-6.9 27.6c3.6-7.1 9.8-3.9 16-5.1-2.1 3.7-3.3 6.8-5.3 9.1-2.5 2.8-4.8 6.6-10 5.5-1.1-.2-3.5 2-4 3.5-1 3.4-2.6 8-1.1 10.4 2.4 4 7.1 6.6 12.1 10.9-3 .5-5.1 1.4-6.6.9-3.7-1.2-7.7-2.4-10.5-4.9-2.4-2.1-3.8-2.4-6.2-.9-9.9 6.2-20.6 4.1-31.2 2.6-1.6-.2-3.5-1.5-4.2-2.8-.4-.7.8-3.1 1.9-3.9 2.1-1.7 4.7-2.8 6.8-4 1.7-8.4 3.4-16.9 5-25.4 1.7-9.1 3.4-18.2 5-27.3.6-3.4-.7-4.2-3.9-3-10.2 3.7-20.4 7.2-30.6 10.8-12.4 4.3-24.8 8.5-37.2 12.9-10.2 3.7-20.3 8-30.5 11.7-7.3 2.6-14.8 4.9-22.3 6.8-6.7 1.8-13.6 2.9-20.4 4.3-.3-.7-.5-1.4-.8-2.2 1.3-.9 2.6-2.1 4.1-2.7 4-1.5 8-2.5 12-3.9 6.5-2.3 12.8-5.1 19.4-7.1 8.7-2.6 17.7-4.1 26.3-7 12.9-4.3 25.6-9.3 38.4-13.9 12.7-4.6 25.4-9.2 38.2-13.5 8.1-2.7 9-3.4 8.6-12.1-.2-5.6-.6-11.3-.5-16.9.2-16.3.5-32.6.7-48.9.1-9.5-1-10.4-10.6-9.1-1.1.1-2.1.4-3.2.5-3.6.4-7.3.7-10.9 1-2.3.1-4.7-.1-7 .1-5.7.5-11.3 1.1-17 1.6-.1-.7-.1-1.3-.2-2 15.4-4.9 31.9-3.8 48.1-6.8-.6-9.9-1.2-19.3-1.7-29.2h-49.5v-1.7c16.4-.9 32.6-4.6 50.3-.8-.2-4.2-.6-8.4-.5-12.6.1-11.1.7-22.3.4-33.4-.2-7.9-1.3-15.8-2.5-23.6-1.4-9-5.4-16.3-13.9-21-2.7-1.5-4.3-5-7.1-8.5h4.6c-1.2-4.5-2.4-8.9-3.5-13.3l2.1-.9c3.2 5.3 6.5 10.6 9.7 15.9l1.8-.9c-1.9-10.3-3.9-20.5-5.8-30.7-12.1.8-23.7 1.9-35.2 2.3-16.5.6-32.9 1.1-49.4 1-17.8-.1-35.5-.9-53.3-1.5-5.2-.2-9.8 0-11.5 6.1-.7 2.4-2 4.6-3 6.8-1.5 3.2-3.1 6.3-4.6 9.5-.7-.2-1.4-.4-2.2-.6v-21.8c-50.9 2.5-99.7-5.3-148.6-21.7-10.3 47.9-17.7 96-22.7 144.6.6.1 1.2.3 1.8.4.6-2.5 1.3-5 2-8 4.7-.2 7.6-3.3 8.2-7.4 2.4-.6 4-.8 5.4-1.5 1.4-.7 2.4-2 3.6-3.1-.1 1.6 0 3.3-.2 4.9-.1.7-.7 1.3-.8 2-.1 1.4-.1 2.8-.1 4.2 1.2-.6 2.5-1.1 3.7-1.8 1.1-.7 2.2-1.5 3.3-2.3l1.1 1.1c-2 3.1-3.9 6.2-5.9 9.4.3.3.7.6 1 .8 2.4-1.8 4.8-3.5 8.3-6.1v9.2c2.8-3.3 5.1-6 7.3-8.6.5.4 1 .8 1.6 1.3l-5.1 7.8c3.8-1 7.1-1.8 11-2.9-.4 2.4-.7 3.8-1 5.7 2.3-.5 3.9-.9 5.7-1.3-.1 1.1-.1 2-.2 2.7 1.3-.2 2.7-.9 3.3-.5 5.1 3.2 10.7 2.9 16.3 2.8 15.4-.3 30.8-.7 46.1-.7 5.9 0 11.9.5 17.8 1 1.2.1 2.3.9 3.5 1.4-.1.8-.2 1.6-.3 2.3-22.5 2.2-45.2-2.8-67.8-.3-22.8 2.5-45.8-1.2-69.5 1.3 5.2 1.2 9.4 2.2 14.5 3.4-3.2 5-7.4 4.7-11.6 4.5-2.6-.1-5.3-.2-7.8.2-6.7 1.2-13.4 2.7-20 3.9-.6.1-1.4-.7-1.5-.8 1-2.4 1.7-4.4 2.5-6.3-1.9-.7-3.7-1.8-5.6-1.9-4.5-.3-9-.1-12.3-.1-1.4-2.8-2.4-4.7-3.4-6.7-1.5 5-1.5 9.1 4.7 10 1.7.3 3.1 2.1 4.6 3.2-1.9.8-3.8 2-5.7 2.1-5 .3-9.9-.6-13.3 5-1 1.6-5 1.3-7.7 1.9-.1-.5-.3-1.1-.4-1.6.8-.7 2.1-1.2 2.3-2 .5-2.3.6-4.8.5-7.2 0-.4-1.7-1.1-2.6-1-7.9.9-15.9 1.8-23.7 2.8v63.2c68.6-14.2 137.3-24.3 208-29.4-4.5-4.4-3.4-7.1-.8-10.1 1.6-1.9 2.6-4.3 3.7-6.5 2.4-4.7 4.4-9.7 7.2-14.2 4-6.4 8.8-12.3 12.7-18.7 2.2-3.7 5.9-7.6 2.3-12.7-.6-.1-1.3-.2-2-.3-8.6-1.5-16.7-3.9-19.5-13.6-1-3.4-.9-7.2-2.1-10.4-1.9-4.9-2.6-9.6-2.6-14.9 0-10.1 5.7-16.3 13.1-21.3 3.6-2.5 8.2-3.5 12.3-5.3 13.4-6.1 26.4-4.9 38.3 3.4 7.5 5.2 15.1 11.3 13.6 22.1-.7 5.4-.3 10.4.3 15.8 1.2 10.3-2.6 16.6-12.2 20.7-5.5 2.4-11.4 3.6-18.1 5.6.5 2.1.5 4.9 1.7 7 7.6 13.6 15.2 27.1 23.2 40.4 2.4 4 1 7.2-1.2 9.8-1.9 2.3-5.1 3.6-8.7 6 2.8 7.2-2.3 11.2-10.1 13.4-1.4.4-3.1.2-4.2.9-1 .7-2.3 2.5-2 3.5.6 2.3 2 4.4 3 6.6.2-.5.3-.9.5-1.4 3.8 1.1 9.4.9 11.1 3.4 3.7 5.3-3.4 6.5-6.1 9.3 12.4 5.7 22.8-4.7 35.7-3.3-2.5 1.7-3.9 3.3-5.6 3.7-9.1 2.1-18.4 3.8-27.5 6-8.4 2.1-16.8 4.2-25.2 6.6-14.7 4.3-30.1 6.3-45.2 9.6-9.8 2.1-19.2 6.2-30.6 3.3 7.4-6.1 18-1 23.9-8.4l-3.9.9c0-.5-.1-.9-.1-1.4h7.5c.1-.2.6-1 1.3-2.1.4 1.3.8 2.2 1.4 4.1 1.1-2.2 1.8-3.6 2.8-5.5.6 1.4 1 2.4 1.1 2.7 10-2.1 19.8-4.2 28.5-6.1-3.4-7.1-7.2-13.7-9.9-20.7-2.1-5.3 1.3-9.2 7.1-9.5 2.4-.1 4.8-.6 8.7-1.1-13.9-5.8-13.9-5.8-15-17.1-4.3 1.6-8.7 3.8-13.3 4.9-3.3.8-7 0-10.5.3-5.5.5-10.9 1.5-16.4 2.1-11.7 1.2-23.4 2.1-35.1 3.3-4.8.5-9.5 1.7-14.2 2.4-11.4 1.7-22.8 3.3-34.2 5-11.4 1.6-22.8 3-34.1 4.9-18.1 3-36.2 6.4-54.3 9.1-3.6.5-4.4 1.3-4.5 4.6 0 9.7-.6 19.4-.5 29.1.1 10.9 1.1 21.8 1.2 32.6.2 16.8.1 33.6.1 50.8 1.3.3 3.3.7 5.2 1.1m255-323.8c.4.1.8.2 1.3.3.7-1.1 1.6-2.1 2.1-3.3 2.9-6.2 7.4-9.2 14.6-8.8 9 .5 18.1.2 27.1.2 24.4-.1 48.8.3 73.2-.7 19.8-.8 39.6-2.7 59.2-5.6 12-1.7 24.1-5 35.3-9.7 17-7.1 33.3-15.7 44.8-31.4 7.7-10.4 9.7-21.2 7.9-33.5-1.5-10.4-6.1-19.3-11-28.3-2-3.8-4.2-5.6-8.2-5.5-5.3.1-10.5.6-15.8.6-8.4 0-16.9-.4-25.3-.5-11.3-.1-22.7-.1-34 .1-9.4.2-18.8.8-28.2.9-11.4 0-22.9-.5-34.3-.5-5.4 0-10.8.9-16.2.8-8.7-.2-17.4-1-26.1-1.2-4.3-.1-8.6.9-12.9.9-7.8 0-15.6-.7-23.5-.6-27.4.4-54.9 1.3-82.3 1.6-10.2.1-20.3-.8-30.5-.8-7.8 0-15.7.8-23.5.8-15.4 0-30.7-.4-46.1-.4-2.1 0-4.5 1.2-6.3 2.5-10.3 7-17 17.1-23.2 27.4-9.3 15.5-6.6 27.2 2.6 39.2 7.6 9.9 18 17.1 29.7 21.8 9.9 4 19.9 7.7 30.1 10.6 6.9 2 14.1 2.6 21.2 3.7 11.8 1.9 23.6 3.8 35.4 5.4 4.7.7 9.4 1 14.1 1.1 13.7.3 27.4.5 41 .4 3.8 0 7.3 1.9 7.6 5.8.4 2.2.2 4.4.2 6.7zm-183 9.8c.9-1.3 1.9-2 2-2.9.5-4.8.8-9.7 1.2-14.5.8-9.7 1.7-19.4 2.5-29.1.5-6.4-.9-11.9-5.3-17.1-3.5-4.1-6-9.3-8.1-14.4-2.7-6.5-2.4-13.1 1.3-19.5 2.4-4.2 6.2-8.6 6.1-12.9-.2-7.3-2.8-14.6-4.7-21.8-.2-.9-2.1-2-3.2-2-7.9-.1-15.9-.2-23.8.3-1.4.1-3.5 2.5-3.8 4.2-2.4 11.1-4.3 22.3-6.6 33.5-3 15.1-4 30.1-2.8 45.6 1.4 18.8.4 37.8.8 56.7.3 13.9 1.4 27.8 2 41.7.6 11.2 1 22.4 1.7 33.5.5 8.7 1.3 17.3 2 26.9 1.7-3.1 3-5.6 4.3-8.1.4.2.8.3 1.2.5-.2 1.6-.4 3.2-.5 4.8.3.2.6.3.9.5 1.6-2 3.1-4 5-6.4.8 3.4 1.3 5.8 1.9 8.3l1.5.3c1.5-4.4 3.1-8.8 4.6-13.1.7.2 1.4.3 2.1.5-.5 3.9-1 7.9-1.5 12.3 2.6-2.2 5.4-3.4 5.8-5.2 2.7-12.5 5.2-25.1 7.2-37.8 2.3-14.3 4.4-28.6 6-42.9.8-7.1 1.6-14.6-3-21-1.7-2.3-3.7-4.3-5.6-6.5 2-2.4 3.7-4.5 6-7.2 1 4.7 1.8 8.4 2.8 12.8zm458.4 111.9c0-12.9-.1-26.1 0-39.3.1-9.3-.6-18.7.7-27.8 1.1-7.1-.9-13-3-19.3-4.2-12.7-9.1-25.2-12.3-38.2-3.4-13.6-5.1-27.7-7.5-41.5-3.3-.9-4.7 0-5 3.6-.4 5.8-1.2 11.5-2 17.3-1.9 13.7-3.6 27.4-6 41-1.6 8.9-4.9 17.5-6.2 26.4-1.1 7.1-1.9 15 0 21.7 1.6 5.6 2.9 10.8 2.8 16.5-.2 12.9-.1 25.8-.1 39.6h38.6zM10.5 27.6c-.8.1-1.7.2-2.5.3v11.2c.2 24.3.4 48.6.7 72.9.1 4.1 1.1 8.2 1 12.3-.2 19.3-.6 38.7-.8 58-.1 8.3.3 16.5.2 24.8-.1 18.3-.4 36.6-.3 54.9 0 2 2.1 3.9 3.3 5.8.7-.3 1.4-.6 2-.9-.2-2.3-.4-4.7-.7-7 .8-.7 1.5-1.4 2.3-2.2.4 1.8.8 3.7 1.1 5.5 2.2-5.1.1-10.8 5.7-14.3v12.4c2.2-2.9 3.5-4.7 5-6.6 1.1 2.7 1.6 4.7 2.7 6.1.5.6 3.1.3 3.6-.4 1-1.4 1.5-3.3 1.8-5.1.2-.9-.6-2-.6-3-.7-15.5-1.4-31.1-2-46.6-.2-5.3 0-10.6-.2-16-.5-11-1.3-21.9-1.7-32.9-.2-5.5.7-11.1.3-16.7-.8-11.8-1.7-23.6-3.4-35.2-1.8-13.1-4.2-26.2-7-39.2-2-9.7-5-19.3-7.6-28.9-.7-3.1-1.9-6.2-2.9-9.2zm434.3 97.1c.7-.1 1.3-.1 2-.2.4 1.8.9 3.6 1.3 5.5.8 4 1.4 8 2.2 12.1 2.6 13.6 9.7 25.8 10.7 40.3.8 11.8 1.2 23.7 2 35.5.8 11.5 1.6 22.9 2.6 34.4.1 1 1.9 2.6 3.1 2.8 4.4.7 8.9.9 13.4 1.2 3.1.2 4.1-1.4 4.1-4.4.1-14.3.4-28.5.4-42.8 0-5.9-1.8-12-.8-17.7 2.2-11.9-1.2-23.1-3.4-34.3-1.7-8.8-4.6-17.3-7.1-25.9-1.3-4.5-2.7-8.9-4-13.3-13.9 2.9-27.2 5.6-40.8 8.4.9 13.7 9.2 22 18.5 29.5-2.2-10.4-5-20.5-4.2-31.1zM540.3 439c.2.2.3.5.4.5 4.2-.2 8.8.5 12.6-.9 4-1.5 8.2 6 11.4-.8.1-.2 1.3.1 2 .3 2.9.7 5.9 1.4 8.8 2.1 3.5.8 7 1.7 10.5 2.5.1-.3.1-.7.2-1-2.2-1.3-4.3-2.5-6.5-3.8.2-.4.4-.8.7-1.2h5.4v-85.4c-5 0-9.3.1-13.6 0-2.6-.1-3.5.8-4.1 3.6-1.9 10.4-3.5 20.9-6.9 30.8-6.2 17.9-13.8 35.4-20.9 53.3zm5-150.7c-11.3 0-21.5.2-31.8-.1-3.6-.1-6 1-6.2 4.3-.2 6.2-1.8 12.5 1.4 18.7 1.5 2.8 1.8 6.6 1.6 9.9-.3 5.5-1.5 10.9-2.4 16.3-1.4 8.1-2.9 16.2-4.5 25.4 8.4-1.5 15.6-2.7 22.8-4.2 11.6-2.5 10.9-2.8 11.7-14.8.8-13.4 2.9-26.7 4.6-40 .7-5.3 1.9-10.5 2.8-15.5zm-301.8-25.7c-1.2 4-2.8 8.9-4.2 13.9-3.1 11.5-6.3 23-9.1 34.6-.4 1.7.6 4.8 1.9 5.5 12.8 7.4 26.1 5 39.3 1.5.8-.2 1.6-.9 2-1.6 1.6-3.1-1.3-14.6-4.3-16.4-6.4-4-7.5-10.3-8.4-17.5 1.4.6 2.6.6 2.8 1.2 1.3 2.5 2.4 5.2 3.6 7.8 1.4 3 6.9 5.5 9.5 4.2 4.3-2.2 2.4-5.4 1-8.3-3.1-6.5-6.4-13-9.3-19.6-1.3-3-3.1-3.7-6.2-3.8-5.9-.1-11.9-.9-18.6-1.5zM548 153.2c.6-8 1.4-14.5 1.4-21.1 0-10.9-.8-21.9-.9-32.8-.1-15.4.4-30.7 0-46.1-.2-9.2-1.2-18.4-2.4-27.5-.8-5.9-2.5-11.7-3.7-17.1-5.9.3-10.6.6-16.4.9 6.7 9.9 11.6 19 13.5 30.2 2.3 14 .8 26.3-7.4 37.9-1.1 1.5-1.3 4.1-1 6 1.9 10.2 4.9 20.2 6 30.5 1.6 13.1 4.8 25.6 10.9 39.1zm37.2 105.5V97.4c-2.2 8.3-3.3 16.7-4.6 25.1-1.1 6.7-1.2 14-4 20-3.6 7.7-1.9 15-1.8 22.6.3 12.3 2 24.8.7 37-1.9 18.4-6.3 36.6.1 55.7 2.6.2 5.9.5 9.6.9zM563.1 90.2c-3.1-2.4-5.9.2-6.4 4.1-.4 3.5-3.2 6.8-3.5 10.3-.6 7.3-.3 14.6-.4 21.9-.3 17-.7 34-1 50.9 0 1.5.4 3-.1 4.3-2 6 1.3 4.9 4.9 3.8 4.3-1.3 8.6-2.6 13.9-4.1-.3-7.6-.7-16.5-1.1-25.3-.7-.4-1.3-.7-2-1.1-4 2.1-8 4.1-13.3 6.9 3.8-4.8 6.3-8.7 11.7-9.1 1.1-.1 2.8-.8 3.1-1.6 2.4-6.7 5.2-13.4 6.6-20.3 1.3-6.6.4-13.6 1.6-20.2 2.1-11.6 5-23 7.5-34.4.4-1.6.8-3.2 1.1-4.8-.4-.2-.9-.3-1.3-.5-.6 1.1-1.4 2.2-1.7 3.4-1.7 6.8-3.5 13.6-5 20.4-2.5 11.9-4.6 24-7.1 35.9-1.1 5.2-2.8 10.3-4.2 15.5-.8 0-1.5-.1-2.3-.1-.5-3-1.6-5.9-1.5-8.9.1-3.3 1.9-6.5 1.8-9.7-.1-8.3-.8-16.6-1.1-24.9 0-4.3 1.9-10.7-.2-12.4zm-95.4 280.6c5.8-1.8 12-.6 13.3-6.6 2.3-10.9 4.2-22 5.2-33.2 1-11.5.9-23.1 1.1-34.6 0-2.5-.9-5-1.4-7.7-4.9.8-9.4 2.8-13.1 1.8-7.2-2-6 2.7-6 6.2 0 5.3.9 10.5.9 15.8.1 19.1 0 38.2 0 58.3zm35.5-3.1c-.7 4.6-1.4 9.2-2 13.8-.9 7.3-1.3 14.8-2.8 22-2.2 10.7-5 21.3-8.1 31.8-.9 3-.5 5 1.8 5.6 1.3.4 4.1-1.2 4.9-2.6 5.7-9.8 11.5-19.6 16.4-29.7 6.8-14.2 12.9-28.7 19.3-43.1.4-.9.6-2 1.3-4.4-10.8 2.3-20.6 4.4-30.8 6.6zm23.8 24.8c8.6 2.3 11 9.4 6.5 15.9-.6.8-1.5 2.1-1.2 2.7 2.5 5.1-2.1 4.6-3.2 6.2-1.4 4.7-2.7 9.5-4.1 14.2h-2.3c-.6-8.1-1.2-16.1-1.8-23.2-7.3 12.3-15.2 25.5-23.2 39 3 .8 5.4 1.4 7.7 2.1 5.6 1.7 11.2 3.7 16.9 5 1.6.4 4.6-.9 5.2-2.2 2.3-4.7 3.6-9.8 5.6-14.6 4.7-11.3 9.7-22.4 14.4-33.7 1.3-3.1 2.5-6.5 2.5-9.7 0-1.2-4-2.2-6-3.5-.7-.4-1.3-1.2-1.8-1.9-2.8-3.8-5.6-7.7-9-12.3-2.2 5.5-4.1 10.6-6.2 16zm46.8-105.4c-.5 2.3-1.1 4.5-1.4 6.8-1.1 6.9-1.9 13.8-3.3 20.6-1.9 9.7-3 19.4-1.8 29.2.2 1.4 1.9 3.6 3.1 3.8 3.2.3 6.5-.1 9.7-.7 2.8-.5 5.6-1.3 5.6-5.3-.1-12-.1-24.1-.1-36.1v-18.2c-4.5-.1-7.9-.1-11.8-.1zm-31.6 83.3c-.4.4-.7.8-1.1 1.2 2.9 3.3 5.5 7 8.9 9.8 4.5 3.7 5.2 3 7.3-2.4 4.9-13 6.9-26.3 4.6-40.2-.6-3.5-1.9-4.5-4.6-6-2.3-1.3-4-4-5.3-6.5-1.7-3.4-2.6-7.1-3.8-10.7-.8.2-1.5.4-2.3.5-.6 7.1-1.1 14.1-1.7 21.2-.3 4.3-.4 8.6-1 12.9-.9 6.3-2.3 12.5 2.4 17.9 1.9 2.1 3.7 4.4 5.5 6.5l-.9 1.2c-2.7-1.7-5.4-3.6-8-5.4zm-34.3-87h37.2c0-6.1-.7-11.4.2-16.4.8-4.5-.8-5.6-4.5-5.7-11.5-.5-23-1-35.2-1.5.8 8.5 1.6 16.3 2.3 23.6zm58.7-59.4c-1.8-1.9-4.3-3.4-4.9-5.5-1-3.7-6.7-5.2-4.7-10.5.4-1.1-1.3-4.2-2.6-4.6-2.8-.9-4.8.5-4.7 4 .4 13.3-1 26.5.3 39.8.9 9.3.7 18.6 1 28v6.9c6.1-7.3 10.7-5.8 15.5.4.4-8.4.7-15.5 1.1-22.3-1.1 1.1-2.4 2.5-3.8 4-1.3-.8-2.3-1.7-3.5-2-7.9-2.6-9.2-5-7.8-13.2.8-4.7.8-9.6 1.4-14.4.2-1.8 1.3-3.5 2.1-5.2.5.2 1.1.4 1.6.6v21.5c3.6-3.2 8.1-5.3 8.6-8.2 1.2-6.2.4-12.9.4-19.3zM447.5 354.9c.4 0 .8 0 1.2.1.3-3.5.6-7.1.9-10.6 2.5 6.7 4.2 13.3 5.4 19.9.8 4.2 3.6 5.5 6.8 6.5V325c-3.7 4.1-6.4 7.2-9.8 11-1-6.7.2-10.8 4.4-14.8 2.9-2.8 4.7-7.5 5.5-11.7.8-3.9-.3-8.1-.8-12.2-.2-1.7-.8-3.4-1.6-6.5-3.3 3.9-5 7.2-7.8 8.9-4 2.4-4.3 6-4.4 9.6-.2 8 .1 16 .2 24v21.6zM585.2 11.2c-.6-.1-1.3-.2-1.9-.3-.3 1-.8 1.9-1 2.9-1.7 6.6-3.3 13.2-5.2 19.8-1.3 4.7-3.9 9.2-4.4 13.9-1.9 17.7-3.3 35.4-4.7 53.2-.2 3.1.7 6.2 1.2 9.9 1.1-1 1.5-1.3 1.6-1.5 4-16.6 7.9-33.2 11.8-49.9 1-4.4 2.4-8.9 2.5-13.4.3-11.6.1-23.1.1-34.6zm-554.8-.7c-.6.3-1.2.7-1.8 1 .3 4.7.7 9.3.9 14 .5 11.4.9 22.9 1.4 34.3.7 14.7 1.4 29.4 2 44.1.7 17.9 1.1 35.8 2.1 53.7.4 7 1.8 14 2.7 21 .2 0 .4-.1.6-.1V58.2c-1.4-1.2-3.8-2.4-3.8-3.6-.8-13.3-1.1-26.7-1.8-40-.1-1.4-1.5-2.8-2.3-4.1zM83.6 253c.4-7.9.4-15.6 1.3-23.1 2.4-19 5-37.9 7.9-56.9 2.8-18.2 5.9-36.3 9-54.5.9-5.3 1.6-10.6 2.9-15.7 1-4-.5-5.8-4.8-7.3-3.9 29.7-7.5 59-11.7 88.2-4.2 29.4-9 58.8-13.7 88.7 3.7-.7 5.9-1.1 8-1.5v-8.5c-.2 0-.3 0-.5.1-.6 2.5-1.3 5-1.9 7.5-.6-.1-1.1-.2-1.7-.4.8-5.8 1.7-11.6 2.5-17.5 1.2.4 1.9.6 2.7.9zm141.3-25.6c-.5 6.6 2 9.7 7.5 10.4 1.1.2 2 1.3 3.1 1.9 1.2.6 2.5 1.1 3.8 1.5 3 .8 6.1 1.4 9.2 2.1 1.3.3 2.6 1.1 3.8.9 4.2-.5 8.3-1.1 12.4-1.9 8.3-1.7 16.9-1.7 22.5-10.7 3.2-5.2 2.1-9.4 2-15.5-19.7 19-40.7 23.7-64.3 11.3zm302.9 232.9h58.3c1.3-5.3.3-7.4-4.9-9.6-11-4.8-21.9-5.9-33.5-3.8-.8.1-2 .7-2.1 1.3-2.2 7.5-8.3 5.8-13.3 6-1.6 2-3.1 4.1-4.5 6.1zm-62.4-175c6.3 0 11.4-.1 16.6 0 2.8.1 4.3-.8 4.3-3.8 0-6 0-12 .3-18 .1-3.2-1.1-3.6-4.1-3.5-3.7.1-7.6-.3-11-1.7-3.5-1.5-4.8-.9-5 2.5-.4 8.4-.8 16.8-1.1 24.5zM455 444.5c1.9-12 3.6-22.5 5.4-33.7-3.4 3.7-5.6 8.1-8.2 8.4-3.2.4-6.8-2.7-11.4-4.8-2.1 9.1-4.1 18.3-6.3 28.1 7.5.8 14.2 1.4 20.5 2zM566.4 9.2c-.7 8.3-1.1 16.1-2.2 23.8-.4 2.6-.5 6.5-5 6.6-4.6.1-3.8-3.7-4.2-6.2-1.1-7.8-1.8-15.7-2.7-23.8h-4.8c.3 2.7.4 5.2 1 7.5 3 11.1 4.6 22.2 3.6 33.8-.1 1.4 1.6 2.9 2.4 4.4 2-7.3 7.4-7.1 12.2-7.3 2-13.1 3.9-25.7 5.9-38.7-2.5-.1-4.3-.1-6.2-.1zM479 373c-1.6.4-2.9 1-4 .9-5.6-.5-7.6 2.5-7.5 7.6.4 13-.8 25.8-4.6 38.4-1.3 4.3-2 8.7-2.7 13.2-.3 2 .3 4 .5 6.6 5.2-4.4 16-44.7 18.3-66.7zm-17.9 37.1c.8-10 1.5-19.5 2.3-29.1-6 .5-11 .9-16.6 1.3v7.7c.1 11.1.1 11.1 11.3 12.7.2 0 .4.5.8 1.3-4.5 3.4-8.7 1.3-13.4-1.1 3.3 7.7 10.1 5 15.6 7.2zm30.4-201.3 2.1.6c1.3-1.6 3.5-3.1 3.6-4.9 1-9.7 1.9-19.4 2.1-29.1.1-8.2-.8-16.4-1.5-24.6 0-.6-1.2-1.1-2.6-2.2-1.5 4-3.6 7.2-3.8 10.6-.6 10.1-.5 20.3-.5 30.5 0 6.3.4 12.7.6 19.1zm-41.3 73.5c.2-5.6 2.5-9.2 7.4-11.3.7-.3 1.1-1.8 1.2-2.7.4-4.3 1-8.7.9-13 0-1-2.7-2.7-4.1-2.7-2.7 0-5.5 1.1-8.2 1.7-.2-.6-.3-1.3-.5-1.9 4.4-1.4 8.7-2.9 13.1-4.3-9-2.7-15.2 2.3-14.3 10.3.1 1.2.1 2.5-.1 3.8-1 7.1.6 13.6 4.6 20.1zm7.7-74.6c-2.2 4.5-4.1 8.3-5.9 12.1-2.1 4.6-4 5.2-8.4 2.5.5 8.7 1 17.4 1.5 25.9 2.6-2.8 4.2-4.9 6.1-6.6 1.5-1.2 3.6-1.6 5.2-2.8 1.2-.9 2.7-2.5 2.7-3.8-.2-8.7-.7-17.4-1.2-27.3zm-11.8 2.2c.8-4 .4-9.1 2.7-12.3 3.4-4.6 1.7-7.9.2-12.1-1.7-4.6-3.8-9.5-3.8-14.2 0-9.8.3-10.2-9-11.4 3.4 16.7 6.6 33.4 9.9 50zm66.8-110.1c-.8-.4-1.5-.9-2.3-1.3-1.9 1.9-5.1 3.4-5.6 5.6-1.7 7.6-2.9 15.4-3.5 23.2-.5 6.8-.1 13.7.1 20.5 0 .7 1 1.5 2.2 3.2 3.3-17.8 6.2-34.5 9.1-51.2zm49.7-21.9c.6-.2 1.2-.3 1.8-.5.6-5.8 1.4-11.6 1.7-17.4.2-5.3-2.1-6.4-7.1-4.2-1.7.7-3.7 1-5.7 1.5V86c.4 0 .8.1 1.3.1 1.4-3.9 2.8-7.9 4.1-11.8.6-.1 1.3-.1 1.9-.2.7 1.2 1.3 2.5 2 3.8zm-453.2 24c-3.6 24.9-9.2 49-8.7 73.8 1.9-6.6 2.9-13.4 4-20.2 2.6-15.7 5.1-31.4 8.1-47 .7-3.4-.1-5-3.4-6.6zm476 161.7c-2.6-.6-4.7-1.2-6.8-1.6-5.2-1.2-6.5-.2-6.3 5.3.2 5 .8 9.9 1.3 15.2 3.1 0 5.9.3 8.5-.1 1.2-.2 3-2 3.1-3.2.4-5.3.2-10.5.2-15.6zm-489.1-57c-.7 0-1.5-.1-2.2-.1-.6 5.9-1.2 11.8-1.7 17.8-.4 5.1-.2 10.3-1.1 15.4-1.6 9.1-3.9 18.1-5.7 27.2-.2 1.2.4 2.5.7 3.8 1.5-.5 3.7-.5 4.2-1.5 1.2-2.1 1.9-4.6 2.1-7 1.1-13.2 2-26.5 2.9-39.7.4-5.4.5-10.7.8-15.9zM28.2 70.5C27 49.6 25.9 29.8 24.8 9.8c-3.9 1.8-4.4 2.8-4 6.1.5 5.1 1.2 10.1 1 15.1-.3 12.2.7 24.2 3.8 36 .4 1.1 1.4 2 2.6 3.5zm467.6 198c-2.3 9.2-1.3 12.5 4.3 13.6.1-1.1.3-2.1.3-3.2.3-9.5.3-19 1-28.5.4-5.9-.7-7.8-7.9-8.9 2.2 1.7 3.8 2.9 4.8 3.7-.3 2.4-.5 4.2-.8 6.2h-6.2c2.3 5.7-3.4 12.6 4.5 17.1zm4.5 65.2c4.9-6.1 4.8-12.1 3.2-18.4-1.4-5.5-3-11.1-2.8-16.7.2-6-3-6.9-8.1-7.7.2 3.4-.8 7.4.7 9.4 5.4 6.9 5.4 14.5 5.1 22.5-.1 3.7 1.2 7.3 1.9 10.9zm.1-230.1c-3.2 3.2-7.8 5.6-8.4 8.7-1.3 6.4-.4 13.2-.4 19.9h3.9c-1.7 2.3-3.2 4.5-4.8 6.6.5.4 1 .7 1.6 1.1 1.8-3.1 5.8-3.8 5.7-9.3-.1-8.4 1.4-16.9 2.4-27zm-14.6 261.1c8-2.3 13.7-5.5 14.2-14.9.3-4.8-.6-4.4-4.1-3.6-2.6.6-5.4.1-8.2.1-.6 6-1.2 11.9-1.9 18.4zM500 238.1v-25.4c-3.9 5.1-8.2 10-8.5 16.8-.2 5.9 4.3 9.7 8.5 8.6zM232.9 342.8c3.7 9.7 10.6 13.5 18.1 9.9-4.3-11-6.7-12.3-18.1-9.9zM486.1 113c-.3-.4-.7-.8-1-1.3-1.1 1.9-3 3.8-3.2 5.8-.3 3.5 1.4 7.3.7 10.6-1.4 6.1 2.5 11 1.7 16.8.6 0 1.2-.1 1.8-.1V113zM38.8 218.9c1 1.3 1.6 2.1 2.7 3.5-.7-10.3-1.3-19.6-1.9-29.5-3.5 6.2-4.4 17.4-2.4 29.3.6-1.3 1-2.1 1.6-3.3zm52.8-191c7.3-4.1 5.4-10.7 5.2-17h-6.2c.3 5.7.7 11.1 1 17zm465.8 170.9c-.1.7-.2 1.5-.4 2.2 4.3 1 8.5 2 12.8 3 .7-3.3 1.4-6.6 2.2-10.1h-11.1c3 1.7 5.3 2.9 7.5 4.1-.2.4-.5.9-.7 1.3-3.4-.2-6.8-.4-10.3-.5zM16.4 37.1c.4-.1.7-.3 1.1-.4V9.4c-2.3 1.3-4.1 2-4 2.4.8 8.4 1.9 16.8 2.9 25.3zm245.9 221.5c-5.7-6-13-7.1-16.8-2.7 6.4 4.5 10.5 5.2 16.8 2.7zM43.4 240.3c-.7.1-1.4.2-2 .3.5 10.5 1 21 1.5 31.6.9-.1 1.9-.1 2.8-.2-.8-10.6-1.5-21.2-2.3-31.7zm1-224.5c-4.7 7.1-7.5 30.8-4.4 34 1.4-11.1 2.8-22.1 4.4-34zm203.3 320c4.3-2.2 8.9-3.1 9.8-8.7-5.1.4-9.6.8-14.4 1.2 1.7 2.8 3 4.9 4.6 7.5zm314.8-19.1c.4.1.7.2 1.1.2.7-5.1 1.4-10.2 2.3-16.8-3.3 3.2-5.4 5.2-7.6 7.2 1.4 3 2.8 6.2 4.2 9.4zm-315-111.3 1.2-1.8c-1.7-1.7-3.6-4.8-5.2-4.7-2.8.2-5.9 2.6-4.3 6.3 2.7 6 5.4-1 8.3.2zm-10.6 66.4c-.4-.3-.9-.6-1.3-.9-2.9 4.4-5.8 8.8-8.9 13.4 1.7 1 3 1.8 4.7 2.9 2-5.6 3.7-10.5 5.5-15.4zM537 371.7c1.3 8.6 8.6 16.9 15 17.3-4.9-5.6-9.9-11.3-15-17.3zM249.4 182c0 2.8-.2 4.1 0 5.4.2 1.3.5 3.2 1.3 3.6 1.1.5 2.8-.3 4.2-.5-.4-2.6-.4-5.5-1.6-7.7-.4-.9-3.3-.7-3.9-.8zm-148.6-4c-.7-.1-1.5-.1-2.2-.2-1 7.4-1.9 14.8-2.9 22.2.7.1 1.4.2 2 .3 1-7.5 2.1-14.9 3.1-22.3zm156.4 16c-6 1.7-6.2 2-3.4 8.6 6.3-1.4 6.6-2.3 3.4-8.6zm-13.7 23.1c3.1-2 5.4-3.4 7.5-5 .2-.2-.6-2.6-1-2.6-2.7 0-5.3.4-8.4.7.7 2.5 1.1 4 1.9 6.9zm.9 2.3c3.4 4.8 6.6 4.5 10.1 1.4-2.4-6.9-6-2.9-10.1-1.4zM558.3 23.6c.5.1 1 .2 1.5.4.4-4.8.8-9.5 1.2-14.3-.4-.3-.7-.7-1.1-1-.9 1.2-2.6 2.4-2.6 3.6 0 3.7.6 7.5 1 11.3zM244.6 193.4c-2.6-1.5-4.6-5-7.7-1.2-.7.8-.5 3.5.1 3.9 3.2 2.1 5.6.8 7.6-2.7zm21.6 25.5 1.2-2.4c-1.7-1.3-3.5-2.6-5.2-3.9-1 1.6-2.1 3.2-3.1 4.9 2.3.4 4.7.9 7.1 1.4zm12.4-5.7c-.9-2.1-1.8-3.9-2.7-6.1-2.2 1.2-3.9 2.1-5.5 3 2.7 5.6 2.9 5.6 8.2 3.1zm-12.3-15.3c1.8-.8 3.6-1.7 7.3-3.3-3-1.9-5.2-4.3-6.5-3.9-3.9 1.1-2.8 4.1-.8 7.2zm-28.8 139 .3-2.7c-2.8-.4-5.7-.8-8.5-1.2 0 1.2-.2 3.4-.1 3.4 2.8.3 5.6.4 8.3.5zm21.7-108.8c-4.5-4.3-8.9-3.8-12.8.9 4.1-.3 8-.6 12.8-.9zM36.2 23.7c.7.1 1.4.1 2.1.2.5-4.2 1-8.5 1.5-12.7h-2.7c-.3 4.5-.6 8.5-.9 12.5zm246.3 273c-1.2 3.1-2.1 5.3-2.9 7.5 1.4.1 3.3.9 4.1.2 2.8-1.8 2.8-4.2-1.2-7.7zm-61.8.7c-.8 1.5-1.8 3.6-3.4 6.9 4-.2 7-.4 10.3-.6-2.5-2.4-4.4-4.1-6.9-6.3zm9.7-84.1c1.6-2.1 3.4-3.4 3.2-4.3-.4-1.6-1.8-3-3.2-4.1-.4-.3-3.1 1.6-3 2 .5 1.9 1.6 3.7 3 6.4zm32.5-8.4c-.9-.7-1.8-1.3-2.7-2-1.5 1.9-3.1 3.9-4.6 5.8 1.1.7 3.1 2.1 3.2 1.9 1.5-1.8 2.8-3.8 4.1-5.7zm12.7-1.9c-2.5-1.5-4.1-3.2-5-2.9-1.3.5-2.1 2.4-3.2 3.7 1.1.9 2.3 2.4 3.4 2.4 1.3-.1 2.5-1.6 4.8-3.2zM451 164.2c-2.4 5.4-.7 10.3 4.1 12.2-1.4-4.1-2.6-7.7-4.1-12.2zm44.3 215.1c2-4.7 1.1-7.2-4.7-6.3 1.6 2.1 3.1 4.2 4.7 6.3zM225.4 202.4c.9.3 1.8.5 2.8.8.6-1.9 1.2-3.9 1.8-5.8-1.2-.3-2.5-.6-3.7-.9-.4 1.9-.6 3.9-.9 5.9z"/>
  <path d="M152.6 0c-.7 2.6-2.3 3.5-5.1 3.4-16.4-.1-32.8 0-49.2.1-12.3.1-24.5.5-36.8.6-17.6.1-35.2-.1-52.8.1-6.6.1-7.5 1.2-7.5 8.2 0 12.5 0 25 .1 37.5.2 17 .8 34 .9 51.1.1 42.7 0 85.5 0 128.2 0 6.2.7 12.4.5 18.6-.1 2.5-1.7 4.9-2.7 7.3V0h152.6zM0 259.5c2.1.6 5.4.7 5.9 2 .9 2.3 1.6 5.3-2.3 7.2-3.6 1.8-3 14.7.4 17 3.2 2.2 3.2 6 .4 8.8-1.2 1.2-2.1 3.2-2.1 4.9-.3 27-.4 54.1-.5 81.1-.1 24.5.1 49 .1 73.5 0 6.5 3.9 10.2 11 10.5 2.8.1 6.3-.4 4.5 4.4H0V259.5zM19.6 468.8c.1-1.2.3-2.4.4-3.2h30.9c7 0 14-.2 21.1-.4 5-.2 10.1-.8 15.1-.7 3.3.1 6.5 1.8 9.8 1.7 16.5-.4 33.1-1.2 49.6-1.7 1.7-.1 3.4.6 5.1.9.3 1.1.7 2.3 1 3.4h-133zM207.1 468.8c-1-.9-2-1.8-3.9-3.5 2.7-.3 4.4-.7 6.1-.5 3.8.4 7.7 1.6 11.5 1.7 13.6.1 27.2-.3 40.8-.2 17.1.1 34.2.2 51.2.6 4.4.1 8.8 1.3 13.2 1.9H207.1zM595.3 91.6c-2.4-1.5-4-2.8-2.9-6.4.8-2.5-.6-5.6-.7-8.4-.3-12.1-.4-24.2-.5-36.3 0-2.7.5-5.5 1.2-8.2.2-.8 1.9-1.2 2.8-1.9.1 20.5.1 40.8.1 61.2zM296.5 0c-1.2.7-2.5 1.9-3.7 1.9-16.4 0-32.7-.3-49.1-.2-9.8.1-19.6 1-29.4 1.2-3.8.1-7.6-.8-11.4-1.4-.1 0-.2-1-.2-1.5h93.8z" fill="#fff"/>
  <path d="M152.6 468.8c-.3-1.1-.7-2.3-1-3.4 9.7-.1 19.4-.3 29-.4 7-.1 13.9 0 21.2 0 .5 1 1.3 2.4 2 3.8h-51.2zM595.3 388.1c-.8-3.9-2.1-7.7-2.2-11.6-.3-8.1 0-16.2.2-24.3 0-.8 1.3-1.5 2-2.3v38.2zM335.8 468.8c1.6-.7 3.2-2.1 4.9-2.1 9.3-.2 18.6-.2 27.9-.1 1.1 0 2.1 1.4 3.2 2.2h-36zM586.6 468.8c5.8-2.9 7.2-7.4 6.1-13.7-.4-2.5 1.7-5.4 2.6-8.1v21.8h-8.7zM411 468.8c1.9-.6 3.8-1.9 5.6-1.8 6.5.3 13 1.1 19.4 1.8h-25zM390.3 468.8c.3-.6.6-1.7.8-1.7 6.3.5 12.5 1.1 18.8 1.7h-19.6zM595.3 271.5c-3.7-3.3-3.7-12 0-14.2v14.2zM178.8 0c-.2.3-.5.5-.7.8-.1-.3-.2-.5-.4-.8h1.1zM87.3 144.9c-1-4.5-1.9-8.2-3-12.9-2.3 2.8-4 4.9-6 7.2 1.9 2.2 3.9 4.2 5.6 6.5 4.7 6.4 3.8 13.9 3 21-1.6 14.4-3.7 28.7-6 42.9-2 12.7-4.5 25.3-7.2 37.8-.4 1.8-3.2 3-5.8 5.2.5-4.4 1-8.3 1.5-12.3-.7-.2-1.4-.3-2.1-.5-1.5 4.4-3.1 8.8-4.6 13.1l-1.5-.3c-.6-2.4-1.1-4.9-1.9-8.3-1.9 2.4-3.4 4.4-5 6.4-.3-.2-.6-.3-.9-.5.2-1.6.4-3.2.5-4.8-.4-.2-.8-.3-1.2-.5-1.3 2.5-2.7 5-4.3 8.1-.7-9.6-1.5-18.2-2-26.9-.7-11.2-1.1-22.4-1.7-33.5-.7-13.9-1.7-27.8-2-41.7-.4-18.9.6-37.9-.8-56.7-1.2-15.5-.2-30.5 2.8-45.6 2.2-11.2 4.2-22.4 6.6-33.5.4-1.7 2.4-4.1 3.8-4.2 7.9-.5 15.9-.4 23.8-.3 1.1 0 3 1.1 3.2 2 1.9 7.2 4.5 14.5 4.7 21.8.1 4.2-3.7 8.7-6.1 12.9-3.7 6.4-4 13-1.3 19.5 2.1 5 4.6 10.2 8.1 14.4 4.4 5.2 5.8 10.7 5.3 17.1-.8 9.7-1.7 19.4-2.5 29.1-.4 4.8-.7 9.7-1.2 14.5.1 1-.8 1.7-1.8 3zM545.7 256.8h-38.5c0-13.8-.1-26.7.1-39.6.1-5.8-1.2-11-2.8-16.5-1.9-6.7-1.1-14.6 0-21.7 1.3-8.9 4.6-17.5 6.2-26.4 2.4-13.6 4.1-27.3 6-41 .8-5.7 1.7-11.5 2-17.3.2-3.6 1.6-4.5 5-3.6 2.4 13.8 4.2 27.9 7.5 41.5 3.2 13 8.1 25.5 12.3 38.2 2.1 6.3 4 12.2 3 19.3-1.4 9.1-.7 18.5-.7 27.8-.2 13.2-.1 26.3-.1 39.3zM10.5 27.6c1.1 3.1 2.3 6.1 3.1 9.2 2.6 9.6 5.6 19.1 7.6 28.9 2.7 13 5.1 26.1 7 39.2 1.6 11.7 2.5 23.5 3.4 35.2.4 5.5-.5 11.1-.3 16.7.4 11 1.2 22 1.7 32.9.2 5.3 0 10.6.2 16 .6 15.5 1.3 31.1 2 46.6 0 1 .8 2.1.6 3-.3 1.8-.8 3.7-1.8 5.1-.5.7-3.1.9-3.6.4-1.1-1.4-1.6-3.3-2.7-6.1-1.4 1.9-2.8 3.7-5 6.6v-12.4c-5.6 3.5-3.5 9.2-5.7 14.3-.4-1.8-.8-3.7-1.1-5.5-.8.7-1.5 1.4-2.3 2.2.2 2.3.4 4.7.7 7-.7.3-1.4.6-2 .9-1.2-1.9-3.3-3.9-3.3-5.8-.1-18.3.2-36.6.3-54.8 0-8.3-.3-16.5-.2-24.8.2-19.3.7-38.7.8-58 0-4.1-1-8.2-1-12.3-.5-24.4-.7-48.7-.9-73V27.9c.8-.1 1.6-.2 2.5-.3zM444.8 124.7c-.8 10.6 2 20.7 4.2 31-9.3-7.5-17.6-15.9-18.5-29.5 13.5-2.8 26.9-5.6 40.8-8.4 1.3 4.4 2.7 8.8 4 13.3 2.4 8.6 5.3 17.2 7.1 25.9 2.2 11.3 5.6 22.4 3.4 34.3-1 5.7.8 11.8.8 17.7 0 14.3-.3 28.5-.4 42.8 0 2.9-1 4.6-4.1 4.4-4.5-.3-9-.5-13.4-1.2-1.2-.2-3-1.7-3.1-2.8-1-11.4-1.9-22.9-2.6-34.4-.8-11.8-1.2-23.7-2-35.5-1-14.5-8.1-26.7-10.7-40.3-.8-4-1.4-8-2.2-12.1-.4-1.8-.9-3.7-1.3-5.5-.7.2-1.4.3-2 .3zM540.3 439c7.1-17.9 14.6-35.4 20.9-53.3 3.5-9.9 5-20.5 6.9-30.8.5-2.9 1.4-3.7 4.1-3.6 4.3.1 8.6 0 13.6 0v85.4h-5.4c-.2.4-.4.8-.7 1.2 2.2 1.3 4.3 2.5 6.5 3.8-.1.3-.1.7-.2 1-3.5-.8-7-1.7-10.5-2.5-2.9-.7-5.9-1.4-8.8-2.1-.7-.2-1.9-.5-2-.3-3.2 6.8-7.4-.7-11.4.8-3.8 1.4-8.4.7-12.6.9 0 0-.2-.3-.4-.5zM545.3 288.3c-.9 5-2.1 10.2-2.8 15.4-1.7 13.3-3.8 26.6-4.6 40-.7 12-.1 12.2-11.7 14.8-7.1 1.6-14.4 2.7-22.8 4.2 1.6-9.2 3.1-17.3 4.5-25.4.9-5.4 2-10.8 2.4-16.3.2-3.3-.1-7-1.6-9.9-3.1-6.2-1.6-12.5-1.4-18.7.1-3.4 2.6-4.4 6.2-4.3 10.3.4 20.5.2 31.8.2zM243.5 262.6c6.6.6 12.7 1.4 18.7 1.5 3.1.1 4.9.8 6.2 3.8 2.9 6.6 6.2 13 9.3 19.6 1.4 2.9 3.3 6.1-1 8.3-2.6 1.3-8-1.1-9.5-4.2-1.2-2.6-2.3-5.3-3.6-7.8-.3-.5-1.4-.6-2.8-1.2.9 7.3 2 13.6 8.4 17.5 3 1.8 5.9 13.3 4.3 16.4-.4.7-1.2 1.4-2 1.6-13.3 3.6-26.6 6-39.3-1.5-1.3-.8-2.3-3.9-1.9-5.5 2.8-11.6 6-23.1 9.1-34.6 1.3-5 2.9-9.9 4.1-13.9zM548 153.2c-6.1-13.5-9.3-26-10.8-39.2-1.1-10.3-4.1-20.3-6-30.5-.4-1.9-.1-4.5 1-6 8.2-11.6 9.7-23.9 7.4-37.9-1.9-11.1-6.8-20.3-13.5-30.2 5.7-.3 10.5-.6 16.4-.9 1.2 5.4 3 11.2 3.7 17.1 1.2 9.1 2.2 18.3 2.4 27.5.3 15.4-.2 30.7 0 46.1.1 10.9.9 21.9.9 32.8-.1 6.7-.9 13.3-1.5 21.2zM585.2 258.7c-3.7-.4-7-.7-9.6-1-6.4-19-1.9-37.3-.1-55.7 1.2-12.2-.5-24.6-.7-37-.2-7.5-1.8-14.9 1.8-22.6 2.8-6 2.9-13.3 4-20 1.3-8.4 2.4-16.8 4.6-25.1v161.4z" fill="#fff"/>
  <path d="M563.1 90.2c2.2 1.7.3 8.1.4 12.4.3 8.3 1 16.6 1.1 24.9 0 3.2-1.7 6.5-1.8 9.7-.1 2.9.9 5.9 1.5 8.9.8 0 1.5.1 2.3.1 1.4-5.2 3.1-10.3 4.2-15.5 2.5-11.9 4.6-24 7.1-35.9 1.4-6.9 3.2-13.6 5-20.4.3-1.2 1.1-2.3 1.7-3.4.4.2.9.3 1.3.5-.4 1.6-.8 3.2-1.1 4.8-2.6 11.5-5.5 22.9-7.5 34.4-1.2 6.6-.3 13.6-1.6 20.2-1.4 6.9-4.2 13.6-6.6 20.3-.3.8-2 1.5-3.1 1.6-5.3.4-7.9 4.3-11.7 9.1 5.3-2.7 9.3-4.8 13.3-6.9.7.4 1.3.7 2 1.1.4 8.9.8 17.7 1.1 25.3-5.3 1.6-9.6 2.8-13.9 4.1-3.5 1.1-6.8 2.2-4.9-3.8.4-1.3 0-2.9.1-4.3.3-17 .7-34 1-50.9.1-7.3-.2-14.7.4-21.9.3-3.5 3.1-6.8 3.5-10.3.2-3.9 3.1-6.6 6.2-4.1zm5.5 72c-3.3-4.2-6-2.5-8.1-.7-1.3 1.1-1.6 3.3-2.4 4.9.5.2 1 .4 1.5.7 1.1-1 2.1-2.3 3.4-3 1.5-.9 3.3-1.2 5.6-1.9zM467.7 370.8c0-20 .1-39.1 0-58.2 0-5.3-.9-10.5-.9-15.8 0-3.5-1.2-8.2 6-6.2 3.7 1 8.3-1 13.1-1.8.5 2.6 1.4 5.2 1.4 7.7-.2 11.5 0 23.1-1.1 34.6-1 11.1-2.9 22.2-5.2 33.2-1.3 5.8-7.5 4.6-13.3 6.5zM503.2 367.7c10.2-2.2 20.1-4.3 30.8-6.7-.7 2.4-.9 3.5-1.3 4.4-6.4 14.4-12.5 28.9-19.3 43.1-4.9 10.2-10.7 20-16.4 29.7-.8 1.4-3.6 3-4.9 2.6-2.3-.7-2.7-2.6-1.8-5.6 3.1-10.5 5.9-21.1 8.1-31.8 1.5-7.2 1.9-14.7 2.8-22 .6-4.5 1.3-9.1 2-13.7zM527 392.5c2.1-5.5 4-10.5 6.1-15.9 3.4 4.6 6.2 8.5 9 12.3.5.7 1.1 1.5 1.8 1.9 2.1 1.2 6 2.3 6 3.5.1 3.2-1.2 6.6-2.5 9.7-4.7 11.3-9.7 22.4-14.4 33.7-2 4.8-3.3 9.9-5.6 14.6-.6 1.3-3.6 2.5-5.2 2.2-5.7-1.3-11.2-3.3-16.9-5-2.4-.7-4.7-1.3-7.7-2.1 8-13.5 15.9-26.8 23.2-39 .5 7 1.1 15.1 1.8 23.2h2.3c1.4-4.7 2.7-9.5 4.1-14.2 1.1-1.6 5.6-1.1 3.2-6.2-.3-.6.7-1.9 1.2-2.7 4.6-6.6 2.2-13.6-6.4-16zm8.8-6c-1.2.6-2 .8-2 1 .1 1.4-.2 3.3.6 4.2 1.9 2.1 4.3 3.6 6.5 5.4 0 0 .7-.6.6-.7-1.9-3.3-3.8-6.5-5.7-9.9zM573.8 287.1h11.7v18.2c0 12 0 24.1.1 36.1 0 4-2.7 4.8-5.6 5.3-3.2.6-6.5 1-9.7.7-1.2-.1-2.9-2.3-3.1-3.8-1.1-9.8-.1-19.5 1.8-29.2 1.4-6.8 2.2-13.8 3.3-20.6.4-2.2 1-4.4 1.5-6.7zM542.2 370.4c2.7 1.8 5.4 3.7 8.1 5.5l.9-1.2c-1.8-2.2-3.6-4.4-5.5-6.5-4.8-5.5-3.4-11.7-2.4-17.9.6-4.2.7-8.6 1-12.9.5-7.1 1.1-14.1 1.7-21.2.8-.2 1.5-.4 2.3-.5 1.2 3.6 2.2 7.3 3.8 10.7 1.2 2.5 3 5.2 5.3 6.5 2.7 1.5 4 2.5 4.6 6 2.3 13.9.3 27.2-4.6 40.2-2 5.4-2.8 6.1-7.3 2.4-3.4-2.8-6-6.5-8.9-9.8.2-.5.6-.9 1-1.3zM507.9 283.4c-.7-7.3-1.4-15.1-2.3-23.7 12.3.5 23.8 1 35.2 1.5 3.6.2 5.3 1.2 4.5 5.7-.9 5-.2 10.3-.2 16.4-12.3.1-24.3.1-37.2.1zM566.6 224c0 6.4.8 13.1-.4 19.4-.5 2.8-5.1 4.9-8.6 8.2v-21.5c-.5-.2-1.1-.4-1.6-.6-.7 1.7-1.8 3.4-2.1 5.2-.6 4.8-.6 9.7-1.4 14.4-1.4 8.2-.1 10.6 7.8 13.2 1.1.4 2.1 1.2 3.5 2 1.4-1.5 2.7-2.8 3.8-4-.3 6.9-.7 13.9-1.1 22.3-4.8-6.2-9.5-7.8-15.5-.4v-6.9c-.3-9.3-.1-18.7-1-28-1.3-13.3.2-26.6-.3-39.8-.1-3.5 1.9-4.9 4.7-4 1.3.4 3 3.5 2.6 4.6-2.1 5.3 3.6 6.7 4.7 10.5.6 2 3.1 3.5 4.9 5.4zM447.5 354.9v-21.7c0-8-.4-16-.2-24 .1-3.6.4-7.2 4.4-9.6 2.8-1.6 4.5-5 7.8-8.9.8 3.1 1.4 4.8 1.6 6.5.5 4.1 1.6 8.3.8 12.2-.8 4.2-2.6 8.9-5.5 11.7-4.2 4-5.4 8.1-4.4 14.8 3.4-3.8 6.2-6.9 9.8-11v45.8c-3.2-.9-6-2.2-6.8-6.5-1.2-6.7-2.9-13.2-5.4-19.9-.3 3.5-.6 7.1-.9 10.6h-1.2z" fill="#fff"/>
  <path d="M585.2 11.2c0 11.5.2 23-.1 34.5-.1 4.5-1.5 9-2.5 13.4-3.9 16.6-7.8 33.3-11.8 49.9-.1.3-.5.5-1.6 1.5-.5-3.7-1.4-6.9-1.2-9.9 1.3-17.7 2.7-35.5 4.7-53.2.5-4.7 3.1-9.2 4.4-13.9 1.9-6.6 3.5-13.2 5.2-19.8.3-1 .7-1.9 1-2.9.6.2 1.2.3 1.9.4zM30.4 10.5c.8 1.4 2.2 2.7 2.3 4.1.7 13.3 1 26.7 1.8 40 .1 1.3 2.5 2.4 3.8 3.6v120.3c-.2 0-.4.1-.6.1-.9-7-2.3-14-2.7-21-.9-17.9-1.3-35.8-2.1-53.7-.6-14.7-1.4-29.4-2-44.1-.5-11.4-.9-22.9-1.4-34.3-.2-4.7-.6-9.3-.9-14 .6-.4 1.2-.7 1.8-1zM83.6 253c-.8-.2-1.6-.4-2.8-.8-.8 5.9-1.7 11.7-2.5 17.5.6.1 1.1.2 1.7.4.6-2.5 1.3-5 1.9-7.5.2 0 .3 0 .5-.1v8.5c-2.1.4-4.3.8-8 1.5 4.6-29.9 9.5-59.3 13.7-88.7 4.2-29.2 7.8-58.5 11.7-88.2 4.4 1.5 5.9 3.3 4.8 7.3-1.3 5.2-2 10.5-2.9 15.7-3 18.2-6.2 36.3-9 54.5-2.9 18.9-5.5 37.9-7.9 56.9-.8 7.4-.8 15-1.2 23zM224.9 227.4c23.6 12.4 44.6 7.6 64.2-11.2.2 6.1 1.3 10.3-2 15.5-5.5 8.9-14.2 9-22.5 10.7-4.1.8-8.3 1.4-12.4 1.9-1.2.1-2.6-.6-3.8-.9-3.1-.7-6.1-1.4-9.2-2.1-1.3-.3-2.6-.9-3.8-1.5-1.1-.5-2-1.7-3.1-1.9-5.4-.8-7.9-3.8-7.4-10.5zM527.8 460.3c1.4-2 2.9-4 4.5-6.3 5-.2 11.1 1.5 13.3-6 .2-.6 1.4-1.1 2.1-1.3 11.5-2 22.4-.9 33.5 3.8 5.2 2.2 6.2 4.3 4.9 9.6-19.4.2-38.9.2-58.3.2zM465.4 285.3c.4-7.7.7-16.1 1.2-24.4.2-3.4 1.6-4 5-2.5 3.3 1.4 7.3 1.8 11 1.7 3-.1 4.2.3 4.1 3.5-.2 6-.2 12-.3 18 0 3-1.5 3.9-4.3 3.8-5.3-.2-10.5-.1-16.7-.1zM455 444.5c-6.3-.6-12.9-1.3-20.6-2 2.2-9.7 4.3-18.9 6.3-28.1 4.5 2.1 8.2 5.2 11.4 4.8 2.7-.3 4.9-4.7 8.2-8.4-1.7 11.2-3.4 21.7-5.3 33.7zM566.4 9.2h6.1c-2 13-3.9 25.6-5.9 38.7-4.8.2-10.2 0-12.2 7.3-.9-1.5-2.5-3-2.4-4.4 1-11.5-.6-22.7-3.6-33.8-.6-2.3-.7-4.8-1-7.5h4.8c.9 8.1 1.7 16 2.7 23.8.4 2.5-.5 6.3 4.2 6.2 4.5-.1 4.6-3.9 5-6.6 1.2-7.6 1.6-15.4 2.3-23.7zM479 373c-2.3 22-13.1 62.3-18.3 66.6-.2-2.5-.8-4.6-.5-6.6.6-4.4 1.3-8.9 2.7-13.2 3.9-12.5 5.1-25.3 4.6-38.4-.2-5.2 1.8-8.1 7.5-7.6 1.1.2 2.4-.4 4-.8zM461.1 410.1c-5.5-2.1-12.3.5-15.6-7.2 4.7 2.4 8.9 4.5 13.4 1.1-.5-.7-.6-1.2-.8-1.3-11.2-1.6-11.2-1.6-11.3-12.7v-7.7c5.6-.5 10.6-.9 16.6-1.3-.7 9.6-1.5 19.1-2.3 29.1zM491.5 208.8c-.2-6.4-.6-12.8-.6-19.2 0-10.2-.1-20.3.5-30.5.2-3.4 2.3-6.6 3.8-10.6 1.4 1.2 2.6 1.7 2.6 2.2.6 8.2 1.6 16.4 1.5 24.6-.1 9.7-1.1 19.4-2.1 29.1-.2 1.7-2.4 3.3-3.6 4.9-.7-.1-1.4-.3-2.1-.5zM450.2 282.3c-4-6.5-5.6-13.1-4.6-20.2.2-1.2.3-2.5.1-3.8-.9-7.9 5.3-12.9 14.3-10.3-4.4 1.4-8.7 2.9-13.1 4.3.2.6.3 1.3.5 1.9 2.7-.6 5.5-1.7 8.2-1.7 1.4 0 4.1 1.7 4.1 2.7.1 4.3-.4 8.7-.9 13-.1 1-.6 2.5-1.2 2.7-4.8 2.2-7.2 5.9-7.4 11.4zM457.9 207.7c.5 9.8 1.1 18.6 1.3 27.3 0 1.3-1.5 2.8-2.7 3.8-1.5 1.2-3.7 1.6-5.2 2.8-2 1.7-3.6 3.8-6.1 6.6-.5-8.5-1-17.2-1.5-25.9 4.4 2.7 6.3 2.1 8.4-2.5 1.6-3.8 3.6-7.6 5.8-12.1zM446.1 209.9c-3.3-16.6-6.6-33.3-9.9-50 9.3 1.2 9 1.6 9 11.4 0 4.7 2.1 9.6 3.8 14.2 1.5 4.1 3.2 7.5-.2 12.1-2.3 3.2-1.9 8.3-2.7 12.3zM512.9 99.8c-2.9 16.7-5.9 33.4-9 51.3-1.2-1.7-2.2-2.5-2.2-3.2-.2-6.8-.6-13.7-.1-20.5.6-7.8 1.8-15.6 3.5-23.2.5-2.2 3.6-3.8 5.6-5.6.7.3 1.5.8 2.2 1.2zM562.6 77.9c-.7-1.3-1.4-2.5-2.1-3.8-.6.1-1.3.1-1.9.2-1.4 3.9-2.8 7.9-4.1 11.8-.4 0-.8-.1-1.3-.1V57.3c2-.5 4-.7 5.7-1.5 5-2.1 7.3-1 7.1 4.2-.2 5.8-1.1 11.6-1.7 17.4-.5.1-1.1.3-1.7.5zM109.4 101.9c3.3 1.6 4.1 3.1 3.4 6.6-3 15.6-5.5 31.3-8.1 47-1.1 6.8-2.1 13.6-4 20.2-.5-24.8 5.1-48.9 8.7-73.8zM585.4 263.6c0 5.1.2 10.3-.1 15.5-.1 1.2-1.9 2.9-3.1 3.2-2.7.5-5.5.1-8.5.1-.5-5.3-1.1-10.2-1.3-15.2-.2-5.5 1.2-6.4 6.3-5.3 2 .5 4.1 1.1 6.7 1.7zM96.3 206.6c-.3 5.3-.4 10.6-.8 15.9-.9 13.2-1.8 26.5-2.9 39.7-.2 2.4-.9 4.9-2.1 7-.6 1-2.8 1-4.2 1.5-.2-1.3-.9-2.6-.7-3.8 1.9-9.1 4.1-18.1 5.7-27.2.9-5 .7-10.3 1.1-15.4.5-5.9 1.1-11.9 1.7-17.8.7 0 1.5 0 2.2.1zM28.2 70.5C27 69 26 68.1 25.7 67c-3.2-11.8-4.2-23.8-3.8-36 .1-5-.6-10-1.1-15-.3-3.3.1-4.3 4-6.1 1.1 19.9 2.2 39.7 3.4 60.6zM495.8 268.5c-7.9-4.5-2.2-11.4-4.5-17.1h6.2c.3-2 .5-3.8.8-6.2-.9-.7-2.6-2-4.8-3.7 7.2 1 8.3 3 7.9 8.9-.7 9.5-.7 19-1 28.5 0 1.1-.2 2.1-.3 3.2-5.6-1.1-6.6-4.5-4.3-13.6zM500.3 333.7c-.7-3.6-1.9-7.3-1.8-10.8.2-8 .3-15.6-5.1-22.5-1.5-2-.5-6-.7-9.4 5.1.9 8.3 1.8 8.1 7.7-.1 5.5 1.5 11.2 2.8 16.7 1.5 6.3 1.5 12.3-3.3 18.3zM500.4 103.6c-1 10.1-2.5 18.6-2.4 27.1.1 5.4-4 6.1-5.7 9.3-.5-.4-1-.7-1.6-1.1 1.6-2.1 3.1-4.3 4.8-6.6h-3.9c0-6.7-.9-13.5.4-19.9.6-3.2 5.2-5.6 8.4-8.8zM485.8 364.7c.6-6.4 1.2-12.4 1.8-18.4 2.8 0 5.6.5 8.2-.1 3.5-.8 4.4-1.2 4.1 3.6-.4 9.4-6.1 12.6-14.1 14.9zM500 238.1c-4.2 1.1-8.7-2.6-8.5-8.6.2-6.8 4.6-11.7 8.5-16.8v25.4z" fill="#fff"/>
  <path d="M283 202.1c1.9.3 3.8.6 5.8 1 1.1 7-1.4 11.8-7.7 15.1-4.8 2.5-9.6 5.3-14.5 7.5-1.4.6-3.5-.2-5.3-.3 0-.8 0-1.7-.1-2.5 2.6-.5 5.2-1 7.8-1.7 1.1-.3 2.3-.7 3.3-1.3 2.3-1.4 4.3-3.5 6.8-4.3 4.4-1.5 5.8-3.5 3.5-8-.7-1.4.4-3.8.6-5.7l-.2.2zM232.9 342.8c11.4-2.4 13.8-1.1 18.1 9.9-7.5 3.6-14.4-.2-18.1-9.9zM486.1 113v31.8c-.6 0-1.2.1-1.8.1.8-5.8-3-10.7-1.7-16.8.7-3.3-1-7.1-.7-10.6.2-2 2.1-3.9 3.2-5.8.4.4.7.8 1 1.3zM38.8 218.9l-1.6 3.2c-2-11.8-1.1-23.1 2.4-29.3.6 9.9 1.2 19.2 1.9 29.5-1.1-1.3-1.7-2-2.7-3.4zM91.6 27.9c-.4-5.9-.7-11.3-1-17h6.2c.2 6.3 2.1 12.9-5.2 17zM557.4 198.8c3.4.2 6.8.4 10.3.6.2-.4.5-.9.7-1.3-2.2-1.2-4.5-2.4-7.5-4.1H572c-.8 3.5-1.5 6.8-2.2 10.1-4.3-1-8.5-2-12.8-3 .2-.9.3-1.6.4-2.3zM16.4 37.1c-1-8.4-2.1-16.9-2.9-25.3 0-.5 1.8-1.1 4-2.4v27.3c-.4.1-.7.2-1.1.4zM262.3 258.6c-6.4 2.4-10.5 1.7-16.8-2.7 3.8-4.3 11.1-3.3 16.8 2.7zM43.4 240.3c.8 10.6 1.5 21.1 2.3 31.7-.9.1-1.9.1-2.8.2-.5-10.5-1-21-1.5-31.6.6-.1 1.3-.2 2-.3zM44.4 15.8c-1.5 11.8-3 22.9-4.4 34-3.1-3.2-.3-26.8 4.4-34zM247.7 335.8c-1.6-2.6-2.9-4.7-4.7-7.5 4.8-.4 9.3-.8 14.4-1.2-.7 5.6-5.4 6.5-9.7 8.7zM562.5 316.7c-1.4-3.2-2.8-6.4-4.2-9.4 2.2-2 4.3-4 7.6-7.2-.9 6.7-1.6 11.7-2.3 16.8-.3-.1-.7-.2-1.1-.2zM247.5 205.4c-2.8-1.2-5.5 5.8-8.2-.2-1.7-3.7 1.4-6.1 4.3-6.3 1.6-.1 3.4 3 5.2 4.7-.5.6-.9 1.2-1.3 1.8zM236.9 271.8c-1.8 4.9-3.5 9.8-5.5 15.4-1.8-1.1-3.1-1.9-4.7-2.9 3.1-4.7 6-9 8.9-13.4.4.3.9.6 1.3.9zM537 371.7c5.2 6 10.1 11.7 15 17.3-6.4-.4-13.8-8.7-15-17.3zM249.4 182c.5.1 3.5-.1 4 .9 1.2 2.2 1.1 5.1 1.6 7.7-1.4.2-3.1 1-4.2.5-.8-.4-1.1-2.3-1.3-3.6-.2-1.4-.1-2.7-.1-5.5zM100.8 178l-3 22.2c-.7-.1-1.4-.2-2-.3 1-7.4 1.9-14.8 2.9-22.2.6.2 1.3.2 2.1.3zM257.2 194c3.2 6.3 2.8 7.3-3.4 8.6-2.7-6.6-2.6-6.9 3.4-8.6zM243.5 217.1c-.8-2.9-1.2-4.4-1.8-6.8 3-.3 5.7-.7 8.4-.7.3 0 1.2 2.4 1 2.6-2.2 1.6-4.5 2.9-7.6 4.9zM244.4 219.4c4.1-1.5 7.7-5.6 10.1 1.4-3.5 3.2-6.7 3.4-10.1-1.4zM558.3 23.6c-.4-3.8-1-7.6-1-11.4 0-1.2 1.7-2.4 2.6-3.6.4.3.7.7 1.1 1-.4 4.8-.8 9.5-1.2 14.3l-1.5-.3zM244.6 193.4c-1.9 3.5-4.4 4.8-7.6 2.7-.7-.4-.8-3.1-.1-3.9 3.1-3.7 5.1-.2 7.7 1.2z" fill="#fff"/>
  <path d="M283.2 201.9c-.5-.1-1.5 0-1.5-.2-1.6-4.1-3-8.2-4.9-13.5 7 3.7 6.8 8.7 6.3 13.8l.1-.1zM266.2 218.9l-7.2-1.5c1-1.6 2.1-3.2 3.1-4.9 1.7 1.3 3.5 2.6 5.2 3.9-.3.9-.7 1.7-1.1 2.5zM278.6 213.2c-5.3 2.5-5.5 2.4-8.3-3.1 1.6-.9 3.3-1.8 5.5-3 1 2.2 1.8 4.1 2.8 6.1zM266.3 197.9c-2-3.2-3-6.1.8-7.3 1.3-.4 3.5 2 6.5 3.9-3.7 1.8-5.5 2.6-7.3 3.4zM237.5 336.9c-2.8-.1-5.6-.2-8.3-.6-.1 0 .1-2.2.1-3.4 2.8.4 5.7.8 8.5 1.2-.1 1-.2 1.9-.3 2.8zM259.2 228.1c-4.8.3-8.6.6-12.8.9 3.9-4.7 8.3-5.2 12.8-.9zM36.2 23.7c.3-4 .6-8 1-12.5h2.7c-.5 4.2-1 8.5-1.5 12.7-.8-.1-1.5-.2-2.2-.2zM282.5 296.7c4 3.4 3.9 5.8 1.2 7.7-.9.6-2.7-.1-4.1-.2.9-2.2 1.8-4.4 2.9-7.5zM220.7 297.4c2.4 2.2 4.3 4 6.9 6.3-3.3.2-6.3.4-10.3.6 1.7-3.3 2.7-5.4 3.4-6.9zM230.4 213.3c-1.4-2.8-2.5-4.5-3-6.4-.1-.4 2.6-2.2 3-2 1.4 1 2.8 2.5 3.2 4.1.1.9-1.6 2.3-3.2 4.3zM262.9 204.9c-1.3 2-2.6 4-4.1 5.8-.1.2-2.1-1.2-3.2-1.9 1.5-1.9 3.1-3.9 4.6-5.8.9.5 1.8 1.2 2.7 1.9zM275.6 203c-2.3 1.6-3.5 3.1-4.8 3.1-1.1 0-2.3-1.5-3.4-2.4 1-1.3 1.8-3.2 3.2-3.7.9-.2 2.5 1.5 5 3zM451 164.2c1.5 4.5 2.7 8.1 4.1 12.2-4.8-1.9-6.5-6.8-4.1-12.2zM495.3 379.3c-1.6-2.1-3.1-4.2-4.7-6.3 5.8-.9 6.7 1.7 4.7 6.3zM225.4 202.4c.3-2 .6-3.9.9-5.9 1.2.3 2.5.6 3.7.9-.6 1.9-1.2 3.9-1.8 5.8-1-.3-1.9-.6-2.8-.8z" fill="#fff"/>
  <path d="M334.8 337.6c-9.8-5.2-9.8-5.2-5.6-19.8-3.2-1.3-6.5-2.6-10.6-4.2 2.2-3.2 4.2-5.4 5.4-8.1 1.1-2.3 1.2-5 2.1-7.4 3.8-10.3 9.8-19.4 16-28.4.5-.7.6-1.6 1-3-1.5-.3-3.5-.1-4-.9-.9-1.4-1.7-3.7-1.1-5.1 1.5-3.6-.5-6-3-6.5-3.7-.7-6.1-1.9-6.9-5.5-1-4.2 1.6-6.7 4.8-8.7.4-.3.9-.6 2.5-1.6-3-3.5-6.4-6.4-8.6-10.1-2.9-4.7-6.9-9.9-7-14.9-.2-9.5 4.2-17.9 13.2-22.6 6.6-3.4 13.2-7.1 20.2-9.1 15.6-4.6 38.4 6.5 39.7 23.1.2 2.9.6 6.1-.3 8.7-2.7 7.8-4.9 15.4-2.4 23.8.5 1.8-1.1 4.3-1.8 6.4-.7 2.1-2 4.2-2.2 6.4-.7 5.6-4 8.8-8.8 8.8-2.9 11.1 4.2 19.5 7.8 28.8 2 5.1 5.2 10.2 9.3 13.7 4.5 3.9 4.5 7.6 2 11.6-2.4 3.8-5.8 7.2-11.6 4 .4 4.1.6 7.6 1.2 11 .8 4.7-1.4 7.1-5.5 8.6-3.5 1.2-7 2.7-10.5 4.1.2.5.4.9.5 1.4 2.6-.3 5.3-1.3 7.8-.9 2.3.4 4.3 2.2 6.4 3.4-1.1 1.9-1.9 4.3-3.4 5.7-2.3 2.2-5.2 3.8-7.7 6.8 15.3-2.9 30.6-5.7 47.1-8.8-5 8.3-12.3 6-18 7.9-5.3 1.7-11.1.2-15.7 5.9-2.4 3-9 2.7-13.7 4-5.9 1.7-11.7 3.8-17.6 5.4-5.4 1.4-10.9 2-16.3 3.4-13.2 3.5-26.2 7.2-39.4 10.8-15.7 4.3-31.4 8.5-47 12.8-2.6.7-5.1 1.9-7.7 2.6-1.7.5-3.6.5-5.6-.3 34.2-11.2 68.8-20.7 103.3-31.2l-79.8 17.1c-.2-.7-.3-1.3-.5-2 24.7-8 50-14.1 75.3-20.1-3.2-8.7-13.4-16.6-3.3-27zm21.4-106c6.8-1.1 12.2-1.7 17.6-2.9 10.4-2.4 16.9-16.2 13.3-26.2-4.5-12.2-14.6-14.8-25.6-16.2-7.5-.9-14.1 2-21 5.1-6.5 2.9-12.2 6.1-14.3 13-2.9 9.3-2.8 15.9 8.3 18.5-1.1-1.7-2-3.1-2.6-4.1 5.7 1.4 11.5 2.9 17.4 4.3 1.5.4 3.5-.1 4.6.7 2 1.4 3.4 3.5 5.1 5.3-.6.5-1.1 1-2.8 2.5zm-9.1 120.2c-3 .8-5.6 1.5-9.5 2.5 3.6 4.2 6.4 7.8 9.6 11.1.7.7 3 .3 4.2-.3.6-.3.8-2.5.4-3.5-1.2-3.2-2.9-6.2-4.7-9.8zm37.5-42.6c1.6 2.3 2.7 3.8 3.8 5.4 1.7-1.8 4.1-3.3 4.9-5.5.4-1-2.5-3.1-3.8-4.7-1.5 1.4-2.9 2.8-4.9 4.8zm-1.9-64.5c-.5-.4-.9-.7-1.4-1.1-1.6 1.2-4.5 2.4-4.4 3.4.3 3.1 1.7 6 2.7 9 .8-.1 1.6-.2 2.3-.4.3-3.6.5-7.3.8-10.9zm-29.2-7.4c-.4.6-.8 1.2-1.1 1.8 5.9 4.5 6.9 6.3 2.4 12-.4.5.2 1.8.3 2.8.8-.5 1.9-.8 2.3-1.5 1.5-2.5 2.7-5.2 4.2-8.2-2.6-2.3-5.3-4.6-8.1-6.9zm13.4 11.5c-3.9-1-6.2.1-6 4 .1 1.1 1.9 3.2 2.7 3.1 4.2-.5 4.2-3.5 3.3-7.1zm-34.2 1.4c.5.4.9.9 1.4 1.3l4.5-4.5c-1.6-1.3-3.2-2.6-5.9-4.9v8.1zm13.4.6c.5.3 1 .7 1.4 1 3.5-1.1 6.7-2.4 4.3-9.3-2.3 3.5-4 5.9-5.7 8.3zm-3.4 96.7c0-.8 0-1.5-.1-2.3-2.3-.3-4.7-.7-7.5-1.1.8 2.5 1.3 3.8 1.9 5.6 2.1-.7 3.9-1.4 5.7-2.2zM389.3 440.8v-10.6c-7.4-2.3-7.9-3.5-4.2-9.2 1 .5 2.1 1.1 3.1 1.7 2-4.2 3.4-8.7 9.2-9.8.3-1.3.8-3.2 1.2-5.2 4.1 5.2-.5 9.6-.5 15.1 2-1.4 3.5-2.4 5.9-4.1-2.8 5.3-5.2 9.6-7.5 14 .4.3.7.5 1.1.8 3-2.3 6-4.5 9-6.8.2.3.5.5.7.8-2.8 3.2-5.7 6.5-8.7 10-.6-.6-1.3-1.5-2.2-2.4-2 2.3-3.9 4.4-5.8 6.5-.3-.3-.8-.5-1.3-.8z"/>
  <path d="M336.2 260.4c-20.4 3.3-40.8-1.3-61.2.5l-.6-2.4c2.2-.7 4.4-2 6.6-2 17.4.1 34.8.5 52.1.8 1 0 2 .5 3 .7 0 .8.1 1.6.1 2.4zM291.5 302.3c.8-.3 1.7-.9 2.5-1 8.4-.5 16.9-1 25.3-1.3.7 0 1.4 1.3 2.1 2-1.1.7-2.1 1.9-3.3 2-4.2.6-8.5 1.1-12.8 1-4.3-.1-8.5-.9-12.8-1.4-.3-.3-.6-.8-1-1.3zM420.6 414.1c.8 1.1 1.6 2.2 2.7 3.6.9-1.5 1.7-2.7 3.5-5.4.6 1.4 1.4 2.3 1.4 3.3 0 2 0 4.1-.8 5.8-.8 1.6-2.5 2.8-3.9 4.1-.7.7-1.8 2-2.1 1.9-1-.5-2.3-1.5-2.4-2.4-.3-3.5-.1-7.1-.1-10.7.6 0 1.1-.1 1.7-.2zM568.6 162.2c-2.3.7-4.1 1-5.6 1.8-1.3.7-2.3 2-3.4 3-.5-.2-1-.4-1.5-.7.8-1.7 1.1-3.9 2.4-4.9 2.2-1.7 4.9-3.4 8.1.8zM535.8 386.5l5.7 9.9c.1.1-.6.7-.6.7-2.2-1.7-4.6-3.3-6.5-5.4-.8-.9-.5-2.7-.6-4.2-.1-.1.8-.4 2-1z"/>
  <path d="M356.2 231.6c1.7-1.5 2.2-2 2.7-2.4-1.7-1.8-3.2-3.9-5.1-5.3-1.1-.8-3.1-.4-4.6-.7-5.9-1.4-11.7-2.9-17.4-4.3.7 1 1.5 2.4 2.6 4.1-11-2.6-11.1-9.2-8.3-18.5 2.1-6.9 7.8-10.1 14.3-13 6.8-3 13.4-6 21-5.1 11 1.3 21.1 3.9 25.6 16.2 3.7 10-2.8 23.7-13.3 26.2-5.3 1.1-10.7 1.7-17.5 2.8zm-8-27.8c5-1 9.4-4.1 9.6-6.9.1-3.2-3.9-6.4-8.1-5.9-4.1.5-6.2 3.9-6.1 7.5 0 1.7 3 3.5 4.6 5.3zm-2.9 16.7c4.2-1.3 8.2 1.2 12.2-1.7-3.7-.8-8.3-.8-8.7-2.1-1.3-4.4-4.9-3.7-6.7-2.8-4.5 2.2-7.5.5-10.8-2-.5-.4-1.5-.1-2.8-.1 5.1 5.6 10.1 8.6 17.4 3.2-.2 2.4-.3 3.6-.6 5.5zM347.1 351.8c1.8 3.6 3.4 6.6 4.7 9.7.4 1 .2 3.1-.4 3.5-1.2.6-3.5 1-4.2.3-3.2-3.2-6-6.8-9.6-11.1 3.9-.9 6.6-1.6 9.5-2.4zM384.6 309.2c2-2 3.4-3.4 4.8-4.9 1.4 1.6 4.2 3.7 3.8 4.7-.7 2.1-3.1 3.7-4.9 5.5-.9-1.5-2-3-3.7-5.3zM382.7 244.7c-.3 3.7-.5 7.3-.8 11-.8.1-1.6.2-2.3.4-1-3-2.4-6-2.7-9-.1-1 2.9-2.3 4.4-3.4.5.2.9.6 1.4 1zM353.5 237.3c2.7 2.3 5.4 4.6 8.1 6.8-1.5 3-2.8 5.6-4.2 8.2-.4.7-1.5 1-2.3 1.5-.1-.9-.7-2.3-.3-2.8 4.6-5.6 3.5-7.5-2.4-12 .4-.5.8-1.1 1.1-1.7zM366.9 248.8c.9 3.5.9 6.5-3.3 7-.8.1-2.6-1.9-2.7-3.1-.2-3.7 2.1-4.9 6-3.9zM332.7 250.2v-8.1c2.7 2.3 4.3 3.6 5.9 4.9l-4.5 4.5c-.5-.4-.9-.9-1.4-1.3zM346.1 250.8c1.7-2.4 3.3-4.8 5.8-8.3 2.4 6.9-.9 8.2-4.3 9.3-.5-.4-1-.7-1.5-1zM342.7 347.5c-1.8.7-3.6 1.4-5.7 2.2-.6-1.8-1.1-3.2-1.9-5.6 2.9.4 5.2.8 7.5 1.1.1.8.1 1.6.1 2.3z" fill="#fff"/>
  <path d="M348.2 203.8c-1.6-1.8-4.6-3.5-4.6-5.4-.1-3.6 2-7 6.1-7.5 4.2-.5 8.2 2.7 8.1 5.9-.2 2.8-4.6 5.9-9.6 7zM345.3 220.5c.3-1.9.4-3.1.7-5.5-7.2 5.4-12.3 2.4-17.4-3.2 1.3 0 2.3-.3 2.8.1 3.3 2.5 6.3 4.2 10.8 2 1.8-.9 5.4-1.6 6.7 2.8.4 1.2 5 1.3 8.7 2.1-4.1 2.9-8 .4-12.3 1.7z"/>
  <text transform="translate(120.531 58.702)"><tspan x="0" y="0" font-family="Peanuts" font-size="38">I DON&apos;T KNOW WHERE</tspan><tspan x="35.5" y="45.6" font-family="Peanuts" font-size="38">THE TIME GOES...</tspan></text>
  <text transform="translate(137.788 450.682)" fill="#010101" font-family="BaskervilleT-Bold" font-size="12">Copr 1951 by United Feature Syndicate, Inc.</text>
  <text transform="translate(18.677 420.933)" fill="#010101" font-family="BaskervilleT-Bold" font-size="26" letter-spacing="1">1-12</text>
  <text transform="translate(17.189 453.994)" fill="#010101" font-family="Peanuts" font-size="26" letter-spacing="4">SCHULZ</text>
</svg>
