<svg xmlns="http://www.w3.org/2000/svg" viewBox="0 0 595.3 469.6" xml:space="preserve">
  <path fill="#fff" d="M0 0h595.3v469.6H0z"/>
  <path d="M588.6 0h4.4c.2 16.7.7 33.3.7 50 .2 136.1.3 272.1.4 408.2v11.4H571c-.1-.4-.1-1-.2-1-11.1-.4-22.1-1-33.2-1-10.3 0-20.6.9-30.9 1-16.6.1-33.1 0-49.7-.1-43.3-.2-86.6-.6-129.9-.8-65.3-.2-130.7-.3-196-.6-16-.1-32.1-1.7-48.1-1-9 .4-18-.9-27.1 0-7.5.8-15.2-.7-22.8-.9-10.6-.2-21.3-.1-31.9-.1-.4-.4-.8-.7-1.2-1.1v-99.1c.8-8.7 2.1-17.4 2.3-26C2.4 330.4 1 322 1 313.5c0-44.3.1-88.6.2-132.8 0-16.4 0-32.9.3-49.3C1.9 103.9 2.6 76.5 3 49c.2-14.7 0-29.5 0-44.5-.1.1 0-.1.2-.1C22 2 40.9 5.6 59.7 3.7c4.3-.4 8.7.8 14 1.3-.1-.3.2 1 .5 2.2 4.5-.7 8.8-1.2 13.1-2 1.7-.3 3.3-1.6 5-1.7 6.8-.2 13.6-.1 20.3-.2l121.2-.9c65.8-.4 131.6-.8 197.4-1.1 42-.2 84.1-.1 126.1-.3 10.4 0 20.9-.7 31.3-1zm-83.3 121c15.8 1.8 27.7 9 38.6 18.1 4.3 3.6 7.9 8 11.4 12.4 3.9 4.9 8.1 9.9 10.8 15.5 8.6 17.8 13.2 36.4 11.6 56.5-1.2 16.2-3.8 31.7-12.3 45.9-6.3 10.5-13.5 20-25.2 25.1-4.3 1.9-4.5 4-1.4 7.7 14 16.7 12.9 32.7.8 48.5-1.8 2.3-3.4 4.8-5.5 7.6h52.7V10.1c-15.5 0-30.4.1-45.3 0-26-.2-52-.7-78.1-.7-22.7 0-45.5.5-68.2.7-14.4.1-28.8 0-43.3.1-2.9 0-5.7 1-8.6 1-14.6-.2-29.3-.7-43.9-1-7.6-.1-15.2-.1-22.9.2-1.1 0-2.9 2-3.1 3.3-.4 3.3-.3 6.6-.1 10 .3 7.7.8 15.3 1 23 0 1.9-.6 3.9-1.3 5.7-.3.8-1.5 1.7-2.4 1.8-6.4.5-12.8 1.1-19.2 1.2-30.3.1-60.6 0-90.9.1-6.3 0-12.6 0-18.8.1-17.6.3-35.2.7-52.7.8-6.7 0-13.4-.8-20.1-.9-12.9-.2-25.7-.1-38.6-.1H9.1v26.5c-.1 25.7-.3 51.3-.4 77 0 2.3 1 4.6.9 6.9-.5 13-1.7 26-1.8 39.1-.2 14.4.8 28.8.8 43.2 0 11.1-.8 22.3-.9 33.4-.2 19.3-.1 38.5-.1 57.8 0 3.7 1.2 7.5.5 11.1-.7 3.5-.7 4.5 3.2 4 1.2-.2 2.6 1.8 3.9 2.7-1.3.8-2.9 2.5-3.7 2.2-4-1.5-3.9.9-4 3.5-.2 5.2-.6 10.4-.6 15.5-.1 13.7 0 27.4.1 41.1 0 6.3.6 12.6.5 18.9-.1 6-.9 11.9-1.4 17.7 9.3 2.5 12.7 2.1 14.1-1.8H8.8c0-.5-.1-1-.1-1.5 4-.8 8.1-2.1 12.1-2.4 7.9-.7 15.9-1.2 23.8-1.2 3.5 0 7 1.3 10.6 2 1.1.4 2.3-.8 3.6-.7 9.4.2 18.7.7 28.1.9 2.7.1 5.4-.9 8.1-.9 6.1 0 12.2-.1 18.2.7 9.4 1.2 18.6-3.2 28.3-.1 4.5 1.4 10.1-.9 15.1-.7 5 .2 10 1.5 15 2 2.1.2 4.5-1.3 6.2-.6 8.8 3.6 17-.1 25.4-.2 2.5.5 5 .6 7.5 1 4.4.7 8.7-2.8 13.2-.2 1 .6 2.9.6 3.8 0 6.5-4.3 12.5.7 18.6.2 1.4 5.1-1 6.8-5 6.4-4.7-.4-9.5-1.9-14.1-1.6-4.6.3-8.7 1.4-13.7.1-5-1.3-11.1 1.7-17.6 3 2 .6 3.1 1.3 4.2 1.3 11-.1 21.9-.3 32.9-.5 22.3-.4 44.7-.9 67-1 11.7-.1 23.4.9 35.1.9 21.6-.1 43.3-.7 64.9-.8 12.5 0 24.9.8 37.4.8 6.6 0 13.6-3 19.6-1.4 6.1 1.6 11.7.9 17.5.9 10.2.1 20.4-.2 30.6-.4 3.9-.1 7.8-.6 11.8-.5 6.7.2 13.4 1.2 20.1 1.2 3.8 0 7.7-1.7 11.6-1.6 5.8.2 11.5 1.5 17.2 1.9 5.3.4 10.7-.1 16.1.1 5.6.2 4.3-3.7 4.3-6.8 0-4.6-.2-9.3 0-13.9.2-5.3 1.1-10.5 1-15.7-.1-6.3-1.1-12.6-1.2-19-.1-13.2.2-26.4.1-39.6 0-.9-2.1-2.4-3.2-2.4-3.7-.2-7.4.3-11.1.3-10.4-.1-20.9-.4-31.3-.5-1.4 0-3.4 1.1-4.1.5-5.1-4.2-8.6.2-11.9 2.5-10.9 7.8-22.7 13.3-35.9 15.2-16.2 2.3-32.5 4.9-49 3.4-7.3-.6-14.6-.7-21.9-1.2-12.1-.8-24.2-1.7-35.8-6.1-2.6-1-4.8 0-6.3 3.1-1.8 3.9-4.1 7.6-6.6 11.1-6.1 8.4-15.2 13.6-24.8 15.2-12.5 2.1-23.5-3.5-31-14-2-2.8-7.1-6-3-11.6 2.2 2.8 3.8 5.6 6.1 7.5 3.4 2.7 7.4 6.5 11.1 6.6 9.7.1 25.1-13.3 27.2-22.6.4-2-.3-5.8-1.4-6.2-4.6-1.8-9.5-3.5-14.3-3.7-8.7-.3-17.5.8-26.2.8-6.7 0-13.5-.9-20.2-.9-13 .1-26 .7-39 .9-3.4.1-6.8-.9-10.2-1-5.3-.2-10.6 0-15.9 0-.2-.6-.5-1.2-.7-1.8 1.3-.7 2.5-1.9 3.8-2 5.3-.3 10.5-.4 15.8-.4 9 .1 18.1.3 27.1.4 9.8.1 19.5.3 29.3.4 10.6.1 21.2 0 33.1 0-1.5-2-1.7-2.6-2.1-2.8-15.4-8.3-20.6-25.7-17.3-40.7 1.8-8.4 4.4-16.6 6.7-25.1-5.1-3.5-10.3-7.1-15.5-10.7-8.9-6-16.1-13.6-20.4-23.3-4.7-10.6-5.6-21.8-2.8-33.2 4.6-18.5 10.1-36.6 20-53 7.3-12 14.3-24.1 26.7-31.9 2.3-1.4 2.8-4.8-.1-7.6-5.7-5.4-11.5-10.6-16.5-16.6-6.4-7.7-10.2-16.7-7.7-27.1 3.7-15.9 14-27 27.9-34.4 10.4-5.6 21.8-9.3 32.6-14.4 12.9-6.1 26.9-7.4 40.6-8.3 25.6-1.7 50.9 1.2 74.8 11.8 13.7 6.1 25.4 14.3 33.5 27.3 7 11.3 6.7 27.9-.5 38.4-3.1 3.8-6.5 7.8-10.4 12.8zM330.6 399.4c7.5 2.8 13.3 2.6 20.3.3 13.1-4.3 18.6-13.7 21.9-25.7.3-1.1 2.3-2.5 3.4-2.4 4.5.3 9 1.1 13.4 1.8 11.5 1.9 23 4.9 34.6 5.5 14.5.8 29.1.2 43.6-.8 8.7-.6 17.3-2.8 26-4.5 20.4-4 36.4-14.5 45.8-33.3 3.9-7.8 4.8-16.8 1-25.3-3.3-7.3-7.3-14.3-11.3-22.2 1.8-.6 3.8-1.1 5.6-1.9 5.1-2.4 11-4 15-7.7 4.6-4.3 7.8-10.3 11-15.9 8-14.3 10.9-29.9 11.1-46.1.1-8 .5-16.3-1.2-24-4.6-21.5-13.4-41.2-31.3-55-10.9-8.4-22-17-37.3-15.8-1 .1-3.7-3.8-3.2-4.6 2.2-4.1 5.9-7.6 7.8-11.8 3.2-7.1 7.1-14.4 7.8-21.9 1.1-11.2-5.5-20.2-13-28-9.3-9.6-21.8-13.9-34-17.9-10.3-3.3-21.2-5.1-31.9-6.7-7.3-1.1-14.8-.9-22.2-.5-5.2.2-10.3 2.3-15.5 2.5-11.5.4-22.5 1.9-33.1 6.8-12.8 5.9-26.3 10.4-37.4 19.7-16 13.4-19.9 36.1-4.6 52.9 4.4 4.8 9.6 9 14.2 13.7 1.6 1.6 2.7 3.6 4.1 5.5-2.4 2.3-4 4.5-6.1 5.8-12.7 7.1-18.7 19.8-26.1 31.2-8.2 12.6-12.9 26.8-16.1 41.3-2.1 9.4-4.4 19.4-3.3 28.7 2.2 18.6 15.3 30 31 38.4 6.9 3.7 9 7.3 6.9 14.8-2.9 10.7-7 21-5.1 32.8 1.3 8.1 3.5 15.4 9.9 19.9 7.6 5.2 16.2 8.9 24.5 13 3.3 1.6 4.8 3.6 3.6 7.3-5 14-14.4 23.7-29.8 30.1zm-182.2 60.1v2c5.9-.3 11.8-.7 17.8-1v-1.8c-6-3.2-11.9 2.7-17.8.8zm-70.3.3c4.8.3 9.5.6 15.7.9-5.8-6.9-10.9-2.4-15.7-.9zm23 .5h13.4c-4.6-4.6-9.1.2-13.4 0z"/>
  <path d="M588.6 0c-10.4.3-20.9 1-31.3 1-42 .2-84.1.1-126.1.3-65.8.3-131.6.7-197.4 1.1l-121.2.9c-6.8 0-13.6-.1-20.3.2-1.7.1-3.3 1.4-5 1.7-4.2.8-8.5 1.3-13.1 2-.3-1.2-.6-2.5-.5-2.2-5.3-.5-9.7-1.8-14-1.3C40.9 5.6 22 2 3.2 4.4c-.1 0-.3.2-.2.1 0 15 .2 29.8 0 44.6-.4 27.4-1.1 54.9-1.5 82.3-.2 16.4-.2 32.9-.3 49.3-.1 44.2-.2 88.5-.2 132.8 0 8.4 1.4 16.9 1.3 25.3-.2 8.7-1.5 17.4-2.3 26V0h588.6zM1.2 465.2c10.6 0 21.3-.1 31.9.1 7.6.1 15.3 1.6 22.8.9 9.1-.9 18 .4 27.1 0 16-.7 32.1.9 48.1 1 65.3.3 130.7.3 196 .6 43.3.2 86.6.5 129.9.8 16.6.1 33.2.2 49.7.1 10.3-.1 20.6-.9 30.9-1 11.1 0 22.1.6 33.2 1 .1 0 .1.7.2 1H0v-4.4c.4-.1.8-.1 1.2-.1zM594.1 469.6v-11.4c-.1-136.1-.2-272.1-.4-408.2 0-16.7-.5-33.3-.7-50 .7.4 2 .6 2.1 1.1.3 1.2.1 2.5.1 3.8v459.7c0 1.7-.7 3.4-1.1 5z" fill="#fff"/>
  <path d="M1.2 465.2H0v-1.1c.4.4.8.7 1.2 1.1zM505.3 121c3.9-5 7.3-9 10.3-13.4 7.2-10.5 7.6-27.1.5-38.4-8.1-13-19.8-21.2-33.5-27.3-23.9-10.6-49.2-13.5-74.8-11.8-13.7.9-27.7 2.1-40.6 8.3-10.7 5.1-22.1 8.8-32.6 14.4-13.9 7.4-24.2 18.5-27.9 34.4-2.4 10.4 1.3 19.4 7.7 27.1 5 6 10.8 11.2 16.5 16.6 2.9 2.7 2.4 6.2.1 7.6-12.5 7.8-19.5 19.9-26.7 31.9-10 16.4-15.4 34.6-20 53-2.8 11.4-1.9 22.6 2.8 33.2 4.3 9.8 11.5 17.3 20.4 23.3 5.2 3.5 10.3 7.1 15.5 10.7-2.3 8.5-4.8 16.7-6.7 25.1-3.3 15 1.9 32.4 17.3 40.7.4.2.6.8 2.1 2.8h-33.1c-9.8-.1-19.5-.2-29.3-.4-9-.1-18.1-.3-27.1-.4-5.3 0-10.6 0-15.8.4-1.3.1-2.5 1.3-3.8 2 .2.6.5 1.2.7 1.8 5.3 0 10.6-.1 15.9 0 3.4.1 6.8 1 10.2 1 13-.2 26-.8 39-.9 6.7-.1 13.5.9 20.2.9 8.7-.1 17.5-1.1 26.2-.8 4.8.2 9.8 1.8 14.3 3.7 1.2.5 1.9 4.3 1.4 6.2-2.1 9.2-17.5 22.7-27.2 22.6-3.8 0-7.7-3.9-11.1-6.6-2.3-1.8-3.9-4.7-6.1-7.5-4.1 5.6 1 8.7 3 11.6 7.5 10.5 18.5 16.1 31 14 9.5-1.6 18.6-6.8 24.8-15.2 2.5-3.5 4.8-7.2 6.6-11.1 1.4-3.1 3.7-4.1 6.3-3.1 11.6 4.4 23.7 5.2 35.8 6.1 7.3.5 14.6.5 21.9 1.2 16.5 1.4 32.8-1.2 49-3.4 13.2-1.8 25-7.4 35.9-15.2 3.2-2.3 6.7-6.7 11.9-2.5.7.6 2.7-.5 4.1-.5 10.4.1 20.9.4 31.3.5 3.7 0 7.4-.5 11.1-.3 1.2.1 3.2 1.6 3.2 2.4.1 13.2-.2 26.4-.1 39.6.1 6.3 1.1 12.6 1.2 19 .1 5.2-.8 10.5-1 15.7-.2 4.6 0 9.3 0 13.9 0 3.1 1.3 7-4.3 6.8-5.3-.2-10.7.2-16.1-.1-5.8-.4-11.5-1.7-17.2-1.9-3.8-.1-7.7 1.6-11.6 1.6-6.7 0-13.4-1-20.1-1.2-3.9-.1-7.8.4-11.8.5-10.2.2-20.4.5-30.6.4-5.8 0-11.4.7-17.5-.9-6-1.6-13 1.4-19.6 1.4-12.5.1-24.9-.8-37.4-.8-21.6.1-43.3.7-64.9.8-11.7 0-23.4-1-35.1-.9-22.3.1-44.7.6-67 1-11 .2-21.9.4-32.9.5-1.1 0-2.3-.7-4.2-1.3 6.5-1.3 12.6-4.3 17.6-3 5.1 1.3 9.1.2 13.7-.1 4.6-.3 9.4 1.2 14.1 1.6 4 .3 6.4-1.3 5-6.4-6.1.5-12.1-4.5-18.6-.2-.9.6-2.8.6-3.8 0-4.5-2.6-8.8.8-13.2.2-2.5-.4-5-.4-7.5-1-8.4.1-16.7 3.9-25.4.2-1.7-.7-4.2.8-6.2.6-5-.5-10-1.8-15-2-5.1-.2-10.6 2.1-15.1.7-9.7-3.1-18.8 1.3-28.3.1-6-.8-12.2-.7-18.2-.7-2.7 0-5.4 1-8.1.9-9.4-.2-18.7-.7-28.1-.9-1.2 0-2.5 1.2-3.6.7-3.5-.7-7-2-10.6-2-7.9 0-15.9.5-23.8 1.2-4.1.4-8.1 1.6-12.1 2.4 0 .5.1 1 .1 1.5h11.4c-1.5 3.9-4.8 4.3-14.1 1.8.5-5.8 1.3-11.8 1.4-17.7.2-6.3-.4-12.6-.5-18.9.1-13.4.1-27.1.2-40.8 0-5.2.4-10.4.6-15.5.1-2.5 0-5 4-3.5.8.3 2.4-1.4 3.7-2.2-1.3-1-2.7-2.9-3.9-2.7-3.9.5-3.9-.6-3.2-4 .7-3.5-.5-7.4-.5-11.1-.1-19.3-.1-38.5.1-57.8.1-11.1.9-22.3.9-33.4 0-14.4-.9-28.8-.8-43.2.1-13 1.3-26 1.8-39.1.1-2.3-.9-4.6-.9-6.9.1-25.7.3-51.3.4-77V55.1h21.2c12.9 0 25.7-.1 38.6.1 6.7.1 13.4.9 20.1.9 17.6-.1 35.2-.6 52.7-.8 6.3-.1 12.6-.1 18.8-.1 30.3 0 60.6.1 90.9-.1 6.4 0 12.8-.6 19.2-1.2.9-.1 2.1-1 2.4-1.8.7-1.8 1.3-3.8 1.3-5.7-.2-7.7-.7-15.3-1-23-.1-3.3-.3-6.7.1-10 .2-1.3 1.9-3.3 3.1-3.3 7.6-.3 15.2-.3 22.9-.2 14.6.3 29.3.8 43.9 1 2.9 0 5.7-1 8.6-1 14.4-.1 28.8 0 43.3-.1 22.7-.2 45.5-.7 68.2-.7 26 0 52 .5 78.1.7 14.9.1 29.7 0 45.3 0V358h-52.7c2.1-2.9 3.8-5.3 5.5-7.6 12.1-15.8 13.2-31.7-.8-48.5-3.1-3.6-2.8-5.8 1.4-7.7 11.7-5.1 18.9-14.6 25.2-25.1 8.5-14.1 11.1-29.7 12.3-45.9 1.5-20.1-3-38.7-11.6-56.5-2.7-5.6-6.9-10.5-10.8-15.5-3.5-4.4-7.1-8.8-11.4-12.4-11.1-8.9-23-16-38.8-17.8zm-259.8-5.1c-3.8-2-7.7-4.3-11.7-6.1-9.3-4.1-18.6-8-28-11.7-4.7-1.9-10-1.9-11.9-8.4-2.1-7.5-5.2-14.8-8.2-22.1-.7-1.6-3.1-3.6-4.6-3.4-10.4.8-20.8 1.9-31.1 3.3-6.6.9-12.9 2.8-18.1 7.4-1.8 1.6-3.7 2.8-2.2 6.4 3.8 8.9 6.7 18.1 9.9 27.3 1.5 4.3-1.8 8.1-5.8 7.6.6-3.3 1.2-6.5 1.8-9.8-.5-.1-1-.3-1.5-.4-3.4 6.6-6.8 13.2-10.1 19.8-.5.9-.8 2.3-.5 3.1 2.8 6.1-1.1 10.7-3.1 15.8-.5 1.1-1.1 2.2-1.4 3.4-2.3 7.6-2.4 15.3-2.5 23.3-.2 14 2.5 26.9 10.1 38.5 6.9 10.6 16.5 18.6 27.5 25.3-1.7 4.1-7.1 6.8-4.5 12.3.2.4-1.3 1.6-2 2.4-6.6 8.2-13.2 16.3-19.7 24.5-4.4 5.6-7.9 12.5-13.4 16.4-10.3 7.3-21.7 13.1-30.4 22.4-2.3 2.4-5.2 6.4-4.7 9 1.8 8.4 1.6 10.5-5.6 14.8-7.9-7.8.4-18.2-4.1-26.5-5.7 2-12 2.8-16.4 6.1-8.7 6.4-17.6 13.3-24 21.7-7.1 9.4-12.7 20.5-16.9 31.6-5.2 13.8-4.2 27.1 12.3 36.2 3.5-6.9 6.9-13.7 10.9-21.6 8.1 16.4 22.1 17.3 36.6 16.6 2.2-.1 4.3-1.6 6.5-1.9 6.1-1.1 12.3-1.4 18.2-2.9 7.1-1.7 13.8-4.7 20.9-6.3 6.7-1.6 13.6-1.9 20.3-3.1 12.2-2.2 22.7 6.9 20.5 19.1-1.4 7.6-.1 16.2-6.1 22.7-.3.4.3 2.2.9 2.8 1.3 1.1 2.9 1.9 4.4 2.8-1.7 3.4-3.4 6.7-5.1 10.1.4.7.8 1.4 1.1 2.1 8-.4 16.2 0 24.1-1.3 9.2-1.4 18.5-3.2 27-6.7 8.1-3.4 15.3-9 22.7-13.9 3.1-2.1 5.7-5 8.6-7.5 8-6.7 12.9-14.9 12.8-25.6-.1-5.6-3.3-7.2-8.2-4.5-4.6 2.5-8.7 6.5-14.3 4.9.7-6.4 2.6-12.8 1.9-19-.9-9.1-6.7-13.9-18.5-17.8-1.4-.5-2.7-1-3.1-1.2 2.8-6.4 5.6-12 7.6-17.9 1.4-4.1 3-3.3 5.8-1.6 11.3 6.9 22.9 11.9 35.9 3.5.7-.4 2 .1 3 .1h9.8l.3.2c2.9 3 5.3 7.4 8.8 8.6 3.7 1.3 8.4-.4 12.6-1.1 1-.2 2.1-1.7 2.4-2.8.6-2.4.7-5 1-7.5 9.5-.8 11.4-4.9 6.4-13.8-.5-.9 0-2.9.7-3.7 3.6-3.7 1.9-6.9-.6-10.1-4-5-10.3-4.8-15-4.1-9.5 1.3-18.8.4-28.1-.5-13.3-1.3-24.2-7.4-32.1-17.8.9-2 2.2-3.8 2.3-5.6.1-5-.8-10-.4-14.9.3-4.5-2-7.4-5.3-8.7-3.6-1.4-2.7-2.9-1.6-5.2 2.3-5.2 7.2-6 11.8-7.4 6-1.8 11.6-4.1 14.8-10.3 2-3.8.9-5.7-2.5-7.2-6.7-3-13.6-5.7-20-9.1-6.5-3.5-9.6-12.9-7-19.7.5-1.3 2.2-2.8 3.5-3 2.3-.4 4.8.1 7.2.4 8.7 1.1 17.4 2.7 26.2 3.5 6.1.6 12.2.2 18.3.4 4.6.2 6.3-1.6 5.5-6.2-.7-3.8-.4-7 3.5-9.1 4.2-2.2 5.8-6.2 4.8-10.5-1.2-4.7-3.6-8.7-9.4-9.8-2.2-.4-4.7-2.8-5.9-5-2.9-4.9-5.2-10.1-7.5-15.4-.5-1 0-2.6.4-3.8.3-1.1 1.8-2.8 1.6-3-1.1-1-2.5-1.8-3.9-2.4-2.4-.9-5-1.6-8.6-2.8.1 1.5.1 3.4.4 5.2.2 1.2 1.5 2.5 1.2 3.4-2.1 5.7.8 4.7 3.8 3.2 1.1 2.4 2.2 4.4 2.9 6.7 1.1 3.5 3.7 8.5 2.3 10.5-3.9 5.7-2.3 11-2 16.5.6.2 1.2.4 1.8.5 1.4-3.4 2.9-6.8 4.5-10.6 3.5.8 7.3.9 10.3 2.6 1.7 1 2.5 4.3 2.8 6.7.1 1.3-2.1 4.1-2.7 4-7.4-1.5-5.3 2.8-5 6.9.2 2.7 2.3 7.2-3.2 7.7-3.6.3-7.4.3-11-.1-12.8-1.2-25.6-2.5-38.3-4-1.3-.2-2.8-1.8-3.4-3.1-1.3-2.6-2.2-5.4-3.2-8.2-.5-1.4-1.5-3.1-1.1-4.3 2.6-7.1-.3-13.1-3.5-18.9 7.5-5.5 8-5.7 6.5-10.7-.9-3-3.6-5.5-5.6-8-1.5-1.9-4.4-3.4-4.9-5.4-2.2-9.8-3.8-19.7-5.7-30.2 17.5 5.3 35 12 49.6 26.9 1.5-6.4 2.6-11.5 3.8-16.6 8.2-.7 5.7 10 12.1 11 1.3-10.1-3.3-17-12-18.5-2.8 3.9-5.2 7.7-8 12.1zm-142.1-9.2c-3.3-16.9 2-29.9 12-41.7-1.1-.3-2.4-1.2-3-.8-6.4 3.5-7 11-11.1 16.2-5 6.3-4.1 20.1 2.1 26.3zm-16.3 4.5c0-1.8.1-3.6 0-5.4-.1-2.2-1.1-4.7-.4-6.7 3-8.6 6.5-17 10-26-.9.4-2.5.7-3.3 1.7-10.6 13.1-13.4 27.3-6.3 36.4zm114-51c2.8 6.3 5.7 12.6 8.5 18.9.5-.1 1-.3 1.5-.4-.4-7.2-1.8-13.9-10-18.5z" fill="#fff"/>
  <path d="M148.4 459.5c5.9 1.8 11.8-4 17.7-.8v1.8c-5.9.3-11.8.7-17.8 1 .1-.6.1-1.3.1-2zM78.1 459.8c4.8-1.5 9.9-6 15.7.9-6.1-.3-10.9-.6-15.7-.9zM101.1 460.3c4.4.2 8.9-4.6 13.4 0h-13.4z" fill="#fff"/>
  <path d="M245.5 115.9c2.8-4.4 5.2-8.2 7.6-12 8.7 1.4 13.3 8.4 12 18.5-6.4-1-4-11.6-12.1-11-1.2 5.1-2.3 10.2-3.8 16.6-14.6-15-32-21.6-49.6-26.9 1.9 10.5 3.5 20.4 5.7 30.2.5 2.1 3.3 3.5 4.9 5.4 2.1 2.6 4.7 5 5.6 8 1.5 5 1 5.1-6.5 10.7 3.2 5.9 6 11.9 3.5 18.9-.4 1.1.6 2.9 1.1 4.3 1 2.8 1.9 5.6 3.2 8.2.7 1.3 2.2 2.9 3.4 3.1 12.8 1.5 25.6 2.8 38.3 4 3.6.3 7.4.4 11 .1 5.5-.5 3.4-5 3.2-7.7-.3-4.1-2.4-8.4 5-6.9.7.1 2.9-2.7 2.7-4-.3-2.4-1.1-5.8-2.8-6.7-3-1.7-6.8-1.8-10.3-2.6-1.6 3.8-3.1 7.2-4.5 10.6-.6-.2-1.2-.4-1.8-.5-.3-5.5-1.9-10.8 2-16.5 1.4-2-1.2-7-2.3-10.5-.7-2.2-1.8-4.3-2.9-6.7-3.1 1.5-6 2.5-3.8-3.2.3-.8-1-2.2-1.2-3.4-.3-1.8-.3-3.7-.4-5.2 3.6 1.2 6.1 1.9 8.6 2.8 1.4.5 2.8 1.3 3.9 2.4.2.2-1.3 1.9-1.6 3-.4 1.2-.9 2.8-.4 3.8 2.3 5.2 4.6 10.5 7.5 15.4 1.3 2.1 3.7 4.6 5.9 5 5.8 1.1 8.2 5 9.4 9.8 1.1 4.3-.6 8.3-4.8 10.5-4 2.1-4.2 5.4-3.5 9.1.8 4.6-.9 6.4-5.5 6.2-6.1-.2-12.2.2-18.3-.4-8.8-.8-17.4-2.3-26.2-3.5-2.4-.3-4.9-.7-7.2-.4-1.3.2-3 1.7-3.5 3-2.6 6.8.5 16.2 7 19.7 6.4 3.5 13.3 6.1 20 9.1 3.4 1.5 4.5 3.4 2.5 7.2-3.2 6.2-8.8 8.5-14.8 10.3-4.7 1.4-9.5 2.1-11.8 7.4-1 2.4-2 3.8 1.6 5.2 3.3 1.3 5.6 4.2 5.3 8.7-.3 4.9.5 9.9.4 14.9 0 1.8-1.4 3.6-2.3 5.6 7.9 10.4 18.8 16.5 32.1 17.8 9.3.9 18.5 1.8 28.1.5 4.8-.6 11.1-.8 15 4.1 2.6 3.2 4.2 6.4.6 10.1-.7.8-1.2 2.8-.7 3.7 5 8.9 3.1 13-6.4 13.8-.3 2.6-.4 5.1-1 7.5-.3 1.1-1.5 2.6-2.4 2.8-4.2.7-9 2.4-12.6 1.1-3.5-1.2-5.9-5.6-8.8-8.6-.3-.3-.6-.5-.3-.2h-9.8c-1 0-2.3-.6-3-.1-12.9 8.3-24.5 3.4-35.9-3.5-2.9-1.8-4.4-2.5-5.8 1.6-2 5.9-4.8 11.5-7.6 17.9.5.2 1.8.8 3.1 1.2 11.8 3.9 17.6 8.7 18.5 17.8.6 6.2-1.2 12.6-1.9 19 5.6 1.7 9.8-2.4 14.3-4.9 4.9-2.7 8.1-1.1 8.2 4.5.1 10.7-4.8 18.9-12.8 25.6-2.9 2.4-5.5 5.4-8.6 7.5-7.4 4.9-14.6 10.6-22.7 13.9-8.5 3.5-17.9 5.3-27 6.7-7.9 1.2-16.1.9-24.1 1.3-.4-.7-.8-1.4-1.1-2.1 1.7-3.3 3.4-6.6 5.1-10.1-1.5-.9-3.2-1.7-4.4-2.8-.7-.6-1.3-2.4-.9-2.8 6-6.5 4.7-15.1 6.1-22.7 2.2-12.2-8.3-21.3-20.5-19.1-6.8 1.2-13.7 1.6-20.3 3.1-7.1 1.7-13.8 4.6-20.9 6.3-6 1.4-12.2 1.8-18.2 2.9-2.2.4-4.3 1.8-6.5 1.9-14.5.7-28.5-.2-36.6-16.6-4 7.9-7.4 14.8-10.9 21.6-16.2-9.2-17.2-22.5-12-36.3 4.2-11.1 9.8-22.1 16.9-31.6 6.4-8.5 15.4-15.3 24-21.7 4.4-3.3 10.7-4.1 16.4-6.1 4.5 8.2-3.8 18.7 4.1 26.5 7.2-4.3 7.5-6.4 5.6-14.8-.6-2.6 2.4-6.6 4.7-9 8.8-9.3 20.1-15.1 30.4-22.4 5.6-3.9 9-10.9 13.4-16.4 6.5-8.2 13.1-16.4 19.7-24.5.7-.8 2.2-2 2-2.4-2.6-5.5 2.8-8.2 4.5-12.3-11-6.7-20.6-14.7-27.5-25.3-7.6-11.6-10.3-24.5-10.1-38.5.1-7.9.2-15.7 2.5-23.3.4-1.2 1-2.2 1.4-3.4 2-5.1 5.9-9.7 3.1-15.8-.4-.8 0-2.2.5-3.1 3.3-6.6 6.7-13.2 10.1-19.8.5.1 1 .3 1.5.4-.6 3.3-1.2 6.6-1.8 9.8 4 .5 7.3-3.3 5.8-7.6-3.1-9.1-6.1-18.4-9.9-27.3-1.5-3.5.4-4.8 2.2-6.4 5.1-4.5 11.5-6.5 18.1-7.4 10.3-1.4 20.7-2.5 31.1-3.3 1.5-.1 3.9 1.9 4.6 3.4 3 7.2 6.1 14.5 8.2 22.1 1.8 6.5 7.2 6.5 11.9 8.4 9.4 3.7 18.7 7.7 28 11.7 4.1 1.8 8 4.1 11.8 6.1zm-104.2 161-1.8-.9c1.1-2.8 2.1-5.6 3.4-8.2 1.5-2.9 3.3-5.6 5-8.3 1.7-2.5 3.4-5 5.2-7.5-1.6-.4-2.7-.4-3.1.2-4.9 6.8-9.7 13.8-14.6 20.6-5 6.9-9.4 14.6-15.6 20.2-7.9 7.2-17.2 13-26.2 18.9-7.7 5.1-9.8 7.6-7.3 16.1 1.5 5.1 3.9 11.3 7.9 14.1 7.5 5.2 16.5 8.3 24.8 12.3.1-.8.1-1.7.2-2.5 2.2-.4 4.5-1.1 6.8-1.2 1.2-.1 2.5 1.1 3.6.9 9.3-1.8 18.7-3.5 27.9-6 6-1.6 11.6-4.6 17.4-6.9.3.7.5 1.5.8 2.2-13.1 8.7-27.8 12.8-43.9 13.1 1.5 1.2 2.8 1.9 4.2 2 6.1.5 12.3 1 18.4 1.1 9.1.2 18.1 2.3 27.3-.1 5.4-1.5 11.1-2 14.7-7.1 2.5-3.5 5.3-6.9 7.3-10.7 3.8-7.1 7.3-14.2 7.1-22.8-.1-8.2 1.3-16.3 1.6-24.5.3-7.6.1-15.2.1-22.7-.4-.1-.8-.1-1.1-.2-2 4.9-4.1 9.8-6.2 14.8-2.2-1.4-3.3-2.2-4-2.6-1.7 4.7-3.2 8.9-4.7 13.1-.6-.1-1.3-.2-1.9-.4-.1-1.7-.7-3.5-.3-5.1 3.6-14.5 7.3-29.1 11.2-43.5 3.9-14.8 7.5-29.5 7.5-45.1-10.5-3.4-20.7-6.6-30.8-10-4.2-1.4-5.7.3-5.7 4.4-.1 4.4 0 8.8-.8 13-1.9 9.9-4.2 19.7-6.4 30.1 2 .1 3.6.4 5.2.4 5.8-.3 11.7-.9 17.5-.9 1.4 0 2.8 1.4 4.3 2.2-1.3.7-2.6 1.8-3.9 2-4.1.6-8.3 1.2-12.4 1.1-3.9-.1-7.9-1-12.4-1.7-2.7 5.3-5.2 12.3-9.4 18-1.9 2.6-1.8 9.6-8.5 7.2-.3-.1-1.1 1.3-1.6 2-2.6 2.9-4.7 5.9-6.8 8.9zm21.4-41.2c.3-1.3.7-2.7 1-4.1 2-9.3 4.5-18.5 6-27.9 1.4-8.7 1.9-17.6 2.9-26.4.1-.8.4-1.6.4-2.4-.2-2.2.3-5-.9-6.6-4-5.5-8.6-10.6-13.2-16.1-3 2.6-4.9 1.1-6.1-2.4-1.7-5.1-3.3-10.3-5.1-15.4-2.1-5.9-4.2-11.8-6.7-18.6-4 5.1-7.4 9.5-9.7 12.6 0 3.5.7 6.8-.1 7.3-6.4 3.4-6.5 10.1-7.3 15.4-1.5 9.5-1.7 19.3-1.2 28.9.4 6.7 1.5 14 4.7 19.7 4.3 7.6 10.4 14.4 16.6 20.7 5.4 5.7 12.1 10.1 18.7 15.3zm14.3-106c6.2-5.6 10.5-5.6 18-.4 1 .7 3 .9 4 .3.9-.6 1.8-2.6 1.5-3.6-2.3-8.8-4.7-17.6-7.5-26.2-3.1-9.4-6.5-18.6-10.1-27.7-.5-1.2-2.7-2.5-4-2.4-7.2.4-14.4 1.1-21.6 2.1-6.4.8-12.6 2.1-19 3.2 3.6 3.2 7 5.5 9.6 8.6 5.8 6.9 11.3 14 16.8 21.2 2.2 2.8 3.1 5.6 1.8 9.5-2.1 6.5-3.2 13.4-4.8 20.8 5.1-2.9 8.1-11 15.3-5.4zm-4.4 5.3c-.4-.4-.8-.9-1.2-1.3-1.6 1.3-4.5 2.5-4.7 4-.7 4.9-1.9 10.7-.1 14.9 3.1 7 8.5 13.1 12.9 19.6-.9 1.2-1.8 2.5-3.5 4.9 11.2-8.4 21.3-3.2 31.3-1.2 2.6-8.1 2.6-8.1-.4-13.8-4.4-8.3-4.4-8.3 3.7-12.7.8-.4 1.5-.9 2.8-1.7-1.7-1.9-3.5-5.1-4.6-4.8-3.5.7-6.7 2.8-11.2 4.8 2.1-4.3 3.8-7.9 5.5-11.4-.3-.5-.7-1-1-1.5-2.6.8-5.9.8-7.7 2.5-2.1 2-2.8 5.5-4.3 8.9-7.6-5.5 2.1-9.7-.4-14.2-5.5-2.3-8.3-1.2-10 4.5-.8 2.7-1.2 5.5-2.4 8-.6 1.4-2.3 2.3-3.5 3.5-1-1.7-2.7-3.4-2.8-5.2-.1-2.6 1-5.2 1.6-7.8zm-149 267.2c1.1-4.3 2.5-7.7 2.8-11.1.7-8.2.9-16.5 1.2-24.8.1-2.7-.1-5.5 3.4-4.3 1.7-3.2 3.4-6.2 5.3-9.7 1.3 1.4 2.2 2.4 2.8 3 7.2-8 14.1-16.3 21.9-23.8 3.4-3.2 5.3-6.6 6.1-10.8.4-2 .1-4.2.1-6.4.3 0-.1-.2-.4 0-10.2 4.6-18.6 11.5-26.4 19.4-10.7 10.9-18.1 23.6-22.8 38.1-2.3 7-2.5 14.1.4 21 1.1 3 3.2 5.5 5.6 9.4zm248.8-92.4c-7.9 1.2-16.1.4-22.8 5.5-2.4 1.9-6 4-6.3 6.4-.5 3.7 1.1 7.8 5.9 9.1 4 1 7.9 3 11.9 3.1 6.6.1 13.1-.8 15.8 7.3 0 .1.6-.1.7-.1.4-3.1.8-6.3 1.2-9.4 5.7 1.4 3 9.6 10.7 8.6-1.7-4.5-3.2-8.5-4.9-12.8-5.6 1.3-11.2-5.5-17.3-.4-.3.2-1.7-.9-2.5-1.4.6-.8.9-2.1 1.7-2.5 3.9-1.9 7.6-5 12.6-1.9 1.6 1 4.2.1 6.2.1-.8-8.2-12.8-2.6-12.9-11.6zM155.5 144.2c.4-.2.8-.4 1.2-.7 1.7-9.9 3.6-19.7 5.1-29.6.3-1.9-.4-4.5-1.6-5.9-6.3-6.8-12.8-13.3-16.6-22-1.3-2.9-4.4-6.2-8.7-5.1 6.9 21.3 13.8 42.3 20.6 63.3zm89.3 246c-5.4 3.4-10.7 6.5-15.6 10.1-2.3 1.7-4.4 4.1-5.9 6.6-2.7 4.2-3.2 10.3-11.3 9.6 2 1.8 3.1 2.7 4.7 4.1-10 5.4-19.4 10.5-28.8 15.7 6.7-1.3 13.6-2.5 19.8-5.3 7.1-3.3 13.7-7.7 20-12.3 9.4-7 18.4-14.5 17.1-28.5zm-28.1-171.3c-2.7 11.2-5 21.7-7.7 32.1-1.4 5.5-.8 6.7 4.4 6.6-1.4-7.9 5.5-14.5 10.9-17.2 5.2-2.5 10.8-4.4 16.1-6.7.8-.3 1.4-1.2 2-1.9-.8-.5-1.5-1.1-2.4-1.6-4-2-8-4.1-12-6-3.6-1.7-7.3-3.4-11.3-5.3zM176.4 183c12.2 3.7 24 7.3 35.7 10.8 1.3-8 .8-9.2-6.2-11.9-3.1-1.2-6.4-2.2-9.8-2.7-6.5-1-13.1-1.6-19.8-2.3.1 2.9.1 4.6.1 6.1zm49.3 148.6c.4-.5.9-1 1.3-1.5-1-12.2 7.9-18.3 16-24.9-9.1-5-13-4.1-15 3.7 1.7-1.5 3.4-3.1 5.1-4.6.5.3.9.7 1.4 1-1.1 1.4-1.8 3.5-3.3 4.2-4.1 2-5.3 7.9-11.1 8-.7 0-2.4 6.2-1.5 8.8.9 2.4 4.7 3.6 7.1 5.3zm19.3 5.3c-12.4-12.5-6.5-21.7 4-26.5 1.4-.6 2.5-1.9 4.4-3.4-7.7-1.8-11 3.1-15 6.4-6.3 5-6.1 12-5.6 18.9.1.9 1.4 2.1 2.4 2.4 2.7.9 5.7 1.3 9.8 2.2zm30.8-28-.3 2.1c6.4 1.4 12.7 3 19.1 4.2.8.1 2.4-1.4 2.8-2.5.2-.6-1.1-2.6-1.9-2.6-6.5-.6-13.1-.9-19.7-1.2zm-99.2 123.4c.2.6.5 1.3.7 1.9 7.4-2.7 14.8-5.3 22.1-8.2.8-.3.9-2.2 1.3-3.3-8.4 3.3-16.3 6.4-24.1 9.6zm120.2-101.5c3.7-3.2 1.3-5.8-.9-7.6-3-2.4-5.6-1.5-7 2.1 2.5 1.9 5 3.6 7.9 5.5zm-138.4 110c5.8-.3 9.4-.6 13-.8.1-.4.1-.7.2-1.1-2.4-.7-4.8-1.3-7.5-2.1.7-1.2 1.3-2.2 1.9-3.3-.5-.3-1.1-.7-1.6-1-1.7 2.5-3.5 4.8-6 8.3zM203 272.9c.5.1 1 .1 1.4.2 1.6-2.4 3.4-4.8 4.8-7.3.4-.7.1-2.7-.4-2.9-1-.4-3.3-.3-3.4.1-1 3.2-1.6 6.6-2.4 9.9zm27.7 27.1c-8.5 2.4-10.9 5.6-9 10.9 1.3-2 2.5-4 4-5.7 1.5-1.9 3.3-3.5 5-5.2zm-9.8 1.1c2.6-2 5.7-3.3 5.8-4.8.1-1.8-2.3-3.8-4.4-6.8-.5 4.4-.8 7.2-1.4 11.6zM103.4 106.7c-6.2-6.2-7.1-20-2.1-26.4 4.1-5.2 4.7-12.8 11.1-16.2.6-.3 1.9.5 3 .8-10.1 11.9-15.3 24.9-12 41.8zM87.1 111.2c-7.1-9.2-4.2-23.3 6.3-36.3.8-1 2.4-1.3 3.3-1.7-3.5 8.9-7 17.4-10 26-.7 1.9.3 4.4.4 6.7v5.3z"/>
  <path d="M201.1 60.2c8.2 4.6 9.7 11.4 10 18.5-.5.1-1 .3-1.5.4-2.9-6.3-5.7-12.6-8.5-18.9z"/>
  <path d="M141.3 276.9c2.1-3 4.2-6 6.3-8.9.5-.7 1.3-2.1 1.6-2 6.8 2.4 6.6-4.6 8.5-7.2 4.2-5.8 6.7-12.7 9.4-18 4.6.6 8.5 1.6 12.4 1.7 4.1.1 8.3-.5 12.4-1.1 1.4-.2 2.6-1.3 3.9-2-1.4-.8-2.8-2.2-4.3-2.2-5.8.1-11.7.7-17.5.9-1.6.1-3.1-.2-5.2-.4 2.2-10.4 4.6-20.2 6.4-30.1.8-4.2.8-8.7.8-13 0-4.1 1.5-5.8 5.7-4.4 10.2 3.3 20.4 6.6 30.8 10 0 15.5-3.6 30.3-7.5 45.1-3.9 14.5-7.5 29-11.2 43.5-.4 1.6.2 3.4.3 5.1.6.1 1.3.2 1.9.4 1.5-4.2 3-8.4 4.7-13.1.6.4 1.8 1.2 4 2.6 2.1-5 4.1-9.9 6.2-14.8.4.1.8.1 1.1.2 0 7.6.2 15.2-.1 22.7-.3 8.2-1.8 16.3-1.6 24.5.1 8.6-3.3 15.7-7.1 22.8-2 3.8-4.8 7.2-7.3 10.7-3.6 5-9.3 5.6-14.7 7.1-9.1 2.5-18.2.3-27.3.1-6.2-.1-12.3-.6-18.4-1.1-1.4-.1-2.7-.8-4.2-2 16.1-.3 30.8-4.4 43.9-13.1-.3-.7-.5-1.5-.8-2.2-5.8 2.4-11.4 5.3-17.4 6.9-9.2 2.5-18.6 4.1-27.9 6-1.1.2-2.4-1-3.6-.9-2.3.2-4.5.8-6.8 1.2-.1.8-.1 1.7-.2 2.5-8.4-4-17.3-7.1-24.8-12.3-4-2.8-6.5-9-7.9-14.1-2.4-8.5-.4-11 7.3-16.1 9-5.9 18.3-11.7 26.2-18.9 6.2-5.6 10.6-13.3 15.6-20.2 5-6.8 9.7-13.8 14.6-20.6.4-.6 1.5-.6 3.1-.2-1.7 2.5-3.5 5-5.2 7.5-1.8 2.7-3.5 5.4-5 8.3-1.3 2.6-2.3 5.5-3.4 8.2 1.1.3 1.7.6 2.3.9zm35.2-1.5c-.9-.3-2.4-1.2-2.7-.8-7.8 7.6-15.6 15.4-23.3 23.1-.7.7-1.1 1.8-1.6 2.7.4.3.7.6 1.1.9 1.3-1.2 2.5-2.4 3.8-3.6 7.7-7.5 15.3-15 23-22.5-1.1 1.7-2.1 3.6-3.3 5.1-2.7 3.3-5.5 6.5-8.3 9.7l1 1c2-1.5 4-3.1 6-4.6l.6.9c-1.4 1.6-2.8 3.2-4.1 4.8 4.3 5.9 4.6 5.9 8.4 0 .6-.9 1.7-1.5 2.6-2.2 1.9-1.5 3.9-2.9 5.6-4.6 1.8-1.9 3.1-4.4 5-6.3 4.6-4.9 5.6-8.2 4.1-14.9-4.2 4.6-8.5 9.3-12.5 13.8-2.4-1.1-3.9-1.8-5.4-2.5zm-26.6 60.3c-15.1 1.3-29.6 2.5-44.6 3.8 3.6 5.7 9.2 3.6 13.4 3.4 10-.6 19.8-2.3 29.7-3.8.6-.2 1-2.1 1.5-3.4zm26.4-111.3c8.7-1.3 16.9-2.5 25.2-3.8-4.8-5.5-22.6-3.1-25.2 3.8zm-7.1 23.1c-.2.4-.5.9-.7 1.3 1.9.7 3.7 1.9 5.6 1.9 4.4.1 8.8-.1 13.1-.8 1.3-.2 2.3-2.3 3.4-3.5-1.2-.3-2.4-.8-3.6-.7-6 .5-11.9 1.2-17.8 1.8zm38.1 70.8c-.5-.3-1-.5-1.4-.8-4.4 5.2-8.9 10.4-13.3 15.6l1.5 1.2c5-4.8 10.4-9.4 13.2-16zm-46.5-24.8c-3.7 4.7-7.5 9.4-11.2 14.1.5.3.9.7 1.4 1 3.8-4.7 10.3-7.6 9.8-15.1zm6.8 59.6c4.4-2.3 9-3.3 9.1-8.7-1.7 3.8-9.1 2-9.1 8.7zm20.6-23.4c5.9-1.6 9.2-6.4 8.2-12-2.9 4.2-5.3 7.7-8.2 12z" fill="#fff"/>
  <path d="M162.7 235.7c-6.6-5.2-13.3-9.6-18.8-15.2-6.2-6.3-12.3-13.1-16.6-20.7-3.2-5.7-4.4-13-4.7-19.7-.5-9.6-.3-19.4 1.2-28.9.9-5.3.9-12 7.3-15.4.8-.5.1-3.8.1-7.3 2.4-3.1 5.8-7.5 9.7-12.6 2.4 6.8 4.6 12.7 6.7 18.6 1.8 5.1 3.4 10.3 5.1 15.4 1.2 3.5 3.1 5 6.1 2.4 4.5 5.4 9.1 10.5 13.2 16.1 1.2 1.6.7 4.3.9 6.6.1.8-.3 1.6-.4 2.4-.9 8.8-1.4 17.7-2.9 26.4-1.5 9.4-4 18.6-6 27.9-.3 1.3-.6 2.7-.9 4zM177 129.7c-7.2-5.6-10.2 2.5-15.5 5.2 1.6-7.3 2.7-14.2 4.8-20.8 1.3-3.9.3-6.7-1.8-9.5-5.5-7.1-11-14.3-16.8-21.2-2.6-3.1-6-5.5-9.6-8.6 6.4-1.1 12.7-2.3 19-3.2 7.2-.9 14.4-1.6 21.6-2.1 1.3-.1 3.6 1.2 4 2.4 3.6 9.2 7.1 18.4 10.1 27.7 2.8 8.6 5.2 17.4 7.5 26.2.3 1.1-.5 3.1-1.5 3.6-1 .6-3 .4-4-.3-7.3-5-11.5-5-17.8.6z" fill="#fff"/>
  <path d="M172.6 135c-.6 2.6-1.6 5.2-1.5 7.7.1 1.8 1.8 3.5 2.8 5.2 1.2-1.1 2.9-2.1 3.5-3.5 1.1-2.5 1.6-5.3 2.4-8 1.7-5.6 4.4-6.8 10-4.5 2.5 4.5-7.3 8.7.4 14.2 1.6-3.4 2.3-6.9 4.3-8.9 1.7-1.7 5-1.7 7.7-2.5.3.5.7 1 1 1.5-1.7 3.6-3.4 7.1-5.5 11.4 4.5-2.1 7.7-4.1 11.2-4.8 1.1-.2 2.9 3 4.6 4.8-1.3.8-2.1 1.3-2.8 1.7-8.1 4.5-8.1 4.5-3.7 12.7 3 5.7 3 5.7.4 13.8-9.9-2-20.1-7.2-31.3 1.2 1.8-2.4 2.7-3.7 3.5-4.9-4.4-6.5-9.7-12.5-12.9-19.6-1.9-4.2-.6-9.9.1-14.9.2-1.5 3-2.7 4.7-4 .3.6.7 1 1.1 1.4zM23.6 402.2c-2.4-3.9-4.5-6.4-5.7-9.3-2.9-6.9-2.7-13.9-.4-21 4.7-14.5 12.2-27.2 22.8-38.1 7.8-8 16.2-14.8 26.4-19.4.3-.1.7.1.4 0 0 2.2.3 4.4-.1 6.4-.9 4.2-2.7 7.5-6.1 10.8-7.8 7.4-14.7 15.8-21.9 23.8-.6-.7-1.5-1.6-2.8-3-1.9 3.5-3.5 6.5-5.3 9.7-3.4-1.1-3.3 1.6-3.4 4.3-.3 8.3-.5 16.5-1.2 24.8-.2 3.3-1.6 6.6-2.7 11zm39.2-78.6c-.4-.6-.8-1.2-1.3-1.8-3.4 2.2-7.2 4-10.1 6.8-3.2 3-5.6 6.4-9.7 9-5 3.1-8.2 9.3-13.1 15.3 4.1-2 6.9-2.9 9.3-4.5 3.7-2.6 5.8-6.6 10.4-9 5.9-3.2 9.7-10.4 14.5-15.8zM272.4 309.8c.1 9 12.1 3.4 12.8 11.6-2 0-4.6.8-6.2-.1-5-3-8.6.1-12.6 1.9-.8.4-1.1 1.6-1.7 2.5.9.5 2.3 1.7 2.5 1.4 6.1-5.1 11.7 1.7 17.3.4 1.7 4.4 3.2 8.3 4.9 12.8-7.7 1-5-7.1-10.7-8.6-.4 3.1-.8 6.3-1.2 9.4-.2 0-.7.1-.7.1-2.6-8.2-9.2-7.2-15.8-7.3-4-.1-7.9-2.1-11.9-3.1-4.8-1.2-6.4-5.4-5.9-9.1.3-2.4 3.9-4.5 6.3-6.4 6.8-5.1 15-4.3 22.9-5.5zM155.5 144.2c-6.8-21-13.7-42-20.7-63.3 4.3-1 7.4 2.2 8.7 5.1 3.9 8.7 10.4 15.2 16.6 22 1.2 1.3 1.9 4 1.6 5.9-1.5 9.9-3.4 19.7-5.1 29.6-.3.2-.7.4-1.1.7zM244.8 390.2c1.3 14-7.7 21.5-17.2 28.4-6.3 4.6-13 9-20 12.3-6.1 2.9-13.1 4-19.8 5.3 9.4-5.1 18.8-10.2 28.8-15.7-1.6-1.4-2.6-2.3-4.7-4.1 8.1.7 8.6-5.5 11.3-9.6 1.6-2.5 3.6-4.9 5.9-6.6 5-3.5 10.3-6.6 15.7-10zM216.7 218.9c4.1 1.9 7.8 3.6 11.4 5.3l12 6c.8.4 1.6 1 2.4 1.6-.7.6-1.2 1.5-2 1.9-5.4 2.3-10.9 4.2-16.1 6.7-5.4 2.6-12.4 9.3-10.9 17.2-5.1.1-5.8-1.1-4.4-6.6 2.5-10.4 4.9-20.8 7.6-32.1z" fill="#fff"/>
  <path d="M176.4 183v-6.1c6.8.8 13.3 1.3 19.8 2.3 3.3.5 6.6 1.5 9.8 2.7 7 2.7 7.4 3.9 6.2 11.9-11.8-3.5-23.6-7.1-35.8-10.8zM225.7 331.6c-2.5-1.7-6.2-2.9-7-5.2-.9-2.6.8-8.8 1.5-8.8 5.8-.1 7-6 11.1-8 1.4-.7 2.2-2.8 3.3-4.2-.5-.3-.9-.7-1.4-1-1.7 1.5-3.4 3.1-5.1 4.6 2-7.8 5.9-8.7 15-3.7-8.2 6.6-17 12.7-16 24.9-.5.4-.9.9-1.4 1.4z" fill="#fff"/>
  <path d="M245 336.9c-4.1-.9-7-1.4-9.8-2.2-1-.3-2.4-1.5-2.4-2.4-.6-7-.8-13.9 5.6-18.9 4.1-3.2 7.4-8.1 15-6.4-1.9 1.5-3 2.7-4.4 3.4-10.5 4.8-16.4 14.1-4 26.5zM275.8 308.9c6.6.3 13.1.6 19.7 1.1.8.1 2.1 2.1 1.9 2.6-.4 1.1-2 2.7-2.8 2.5-6.4-1.2-12.8-2.7-19.1-4.2.1-.6.2-1.3.3-2zM176.6 432.3c7.9-3.1 15.7-6.2 24.1-9.6-.4 1.1-.5 3-1.3 3.3-7.3 2.9-14.7 5.5-22.1 8.2-.2-.7-.5-1.3-.7-1.9zM296.8 330.8c-2.9-2-5.4-3.7-7.9-5.5 1.5-3.6 4.1-4.5 7-2.1 2.2 1.9 4.6 4.4.9 7.6zM158.4 440.8c2.5-3.4 4.3-5.8 6-8.2.5.3 1.1.7 1.6 1-.6 1.1-1.2 2.1-1.9 3.3 2.7.7 5.1 1.4 7.5 2.1-.1.4-.1.7-.2 1.1-3.6.1-7.2.3-13 .7zM203 272.9c.7-3.3 1.4-6.7 2.4-10 .1-.4 2.4-.5 3.4-.1.5.2.8 2.2.4 2.9-1.4 2.6-3.1 4.9-4.8 7.3-.4 0-.9 0-1.4-.1zM230.7 300c-1.7 1.7-3.5 3.4-5.1 5.2-1.4 1.7-2.6 3.7-4 5.7-1.8-5.4.6-8.5 9.1-10.9zM220.9 301.1c.5-4.4.9-7.2 1.4-11.6 2 3 4.5 4.9 4.4 6.8-.1 1.5-3.2 2.8-5.8 4.8z" fill="#fff"/>
  <path d="M176.5 275.4c1.5.7 3 1.4 5.1 2.4 4.1-4.5 8.4-9.2 12.5-13.8 1.5 6.8.6 10-4.1 14.9-1.8 1.9-3.1 4.4-5 6.3-1.6 1.7-3.7 3.1-5.6 4.6-.9.7-2 1.3-2.6 2.2-3.8 5.8-4.1 5.9-8.4 0 1.3-1.5 2.7-3.2 4.1-4.8l-.6-.9c-2 1.5-4 3.1-6 4.6l-1-1c2.8-3.2 5.6-6.4 8.3-9.7 1.3-1.6 2.2-3.4 3.3-5.1v.3zm16.7-4.3-1.5-1.2c-3.7 4.5-7.4 9-11.1 13.6.5.4 1 .8 1.4 1.2 3.8-4.6 7.5-9.1 11.2-13.6zM149.9 335.7c-.6 1.3-.9 3.2-1.6 3.3-9.9 1.5-19.8 3.3-29.7 3.8-4.1.2-9.8 2.4-13.4-3.4 15.2-1.2 29.6-2.4 44.7-3.7zM176.3 224.4c2.5-6.9 20.4-9.3 25.2-3.8-8.2 1.3-16.5 2.5-25.2 3.8z"/>
  <path d="M176.7 275.2c-7.7 7.5-15.3 15-23 22.5-1.2 1.2-2.5 2.4-3.8 3.6-.4-.3-.7-.6-1.1-.9.5-.9.9-2 1.6-2.7 7.7-7.8 15.4-15.5 23.3-23.1.3-.3 1.8.5 2.8.8l.2-.2zM169.2 247.5c5.9-.6 11.8-1.3 17.7-1.8 1.2-.1 2.4.5 3.6.7-1.1 1.2-2.1 3.3-3.4 3.5-4.3.7-8.7.9-13.1.8-1.9 0-3.7-1.2-5.6-1.9.3-.4.6-.9.8-1.3zM207.3 318.3c-2.8 6.6-8.2 11.2-13.3 16l-1.5-1.2c4.4-5.2 8.9-10.4 13.3-15.6.5.3 1 .5 1.5.8zM160.8 293.5c.5 7.5-6.1 10.3-9.8 15.2-.5-.3-.9-.7-1.4-1 3.7-4.7 7.5-9.5 11.2-14.2zM167.6 353.1c-.1-6.8 7.3-4.9 9.1-8.7 0 5.5-4.7 6.4-9.1 8.7zM188.2 329.7c2.9-4.3 5.3-7.8 8.2-12 1 5.6-2.3 10.4-8.2 12zM62.8 323.6c-4.7 5.4-8.5 12.7-14.5 15.8-4.7 2.4-6.7 6.4-10.4 9-2.3 1.7-5.2 2.6-9.3 4.5 4.9-6 8.1-12.1 13.1-15.3 4.1-2.6 6.5-6 9.7-9 2.9-2.7 6.7-4.6 10.1-6.8.4.6.9 1.2 1.3 1.8z"/>
  <path d="M193.2 271.1c-3.7 4.5-7.4 9-11.2 13.5-.5-.4-1-.8-1.4-1.2 3.7-4.5 7.4-9 11.1-13.6.6.5 1.1.9 1.5 1.3z" fill="#fff"/>
  <text transform="translate(28.614 41.427)" fill="#fff" font-family="BaskervilleT-Bold" font-size="35" letter-spacing="4">PEANUTS</text>
  <text transform="translate(362.423 149.663)"><tspan x="0" y="0" font-family="Peanuts" font-size="75">HEY,</tspan><tspan x="-55" y="90" font-family="Peanuts" font-size="75">PATTY!!</tspan><tspan x="-27.6" y="180" font-family="Peanuts" font-size="75">LOOK!</tspan></text>
</svg>
