<svg xmlns="http://www.w3.org/2000/svg" viewBox="0 0 595.3 464.5" xml:space="preserve">
  <path fill="#fff" d="M0 0h595.3v464.5H0z"/>
  <path d="M337 0h258.3v464.5H0v-419c.3-6.5.7-12.9.8-19.3.1-8.2 0-16.5 0-25h5.9c61-.1 122-.2 183-.2h130.5c5.7-.1 11.2-.7 16.8-1zM8.3 456.8h120.4c.5-2.2.9-4.2 1.4-6.2.8-3.2 2.4-7.4-1.9-8.3-7.3-1.6-8.3-5.9-7.8-12.1.7-8.6 2.2-17.3 1.2-25.7-1-8.2.2-15.5 3.2-22.9 1.2-2.9 2.6-6.1-2.4-8.4-2.6-1.2-5.5-6.1-5-8.8 1.1-6.5 4.1-12.6 6.4-18.9.4-1.2 1.5-2.3 1.5-3.4-.1-8.7 4.1-15.9 11.7-19.2-.8-6.6 3.7-11.5 10.4-11.9 2-.1 4.5-1.7 5.7-3.3 2.5-3.3 4.3-7.2 6.6-11.2.5.7.4.3.1.2-.5-.3-1-.6-1.5-.7-16.5-5.3-29.2-15.4-37.5-30.7-1.8-3.3-3.8-6.6-5.4-10.1-2.2-4.7-5.9-9.5-5.9-14.3 0-6.7 2.4-13.5 4.2-20.1 3.7-13.7 10.7-25.7 20.3-36.1 14.2-15.3 31.9-23.6 52.7-25.1 6.1-.4 12.5 1.7 18.4.7 11.1-1.9 20.6 2.5 29.6 6.8 11.4 5.5 21 14.3 26.3 26.3 3.1 7 4.8 14.6 7 22 1.1 3.7 1 8.4 3.4 11.1 6.3 7.2 6.7 14.9 3.7 23-1 2.8-4.2 5.6-7 6.7-4.7 1.8-7.2 4.9-9.6 9-3.1 5.5-6.4 11.2-10.9 15.5-6.6 6.2-14.4 11.3-21.7 16.8.7 1.4 2.2 3.2 2.6 5.2 2.1 10.9 4 21.8 5.8 32.7 1.8 10.7 3.8 21.5 5.1 32.3 1.2 10.4 1.9 20.9 2.2 31.3.2 4.9 2.9 10.5-2.5 14.6-.2.2-.2.7-.2 1 .2 8.3.3 16.7.8 25 .3 4.8-.2 8.6-6.2 9.1-1.6.1-3.3.5-4.7 1.3-1.3.8-2.2 2.2-3.3 3.4 1.4 1.1 2.7 2.9 4.3 3.1 3.3.4 6.7-.1 10.1-.1 8.3.1 16.7 2.9 24.9-.5.3-.1.7 0 1.1 0 6.6.6 13.2 1.6 19.8 1.7 10.5.2 20.9-.4 31.4-.5 9.8-.1 19.6 0 30.1 0V432c-10.9-4.1-21.2-8-31.6-11.7-6.7-2.4-13.6-4.4-20.3-6.6-1.5-.5-3-.9-4.5-1.4.8-1.7 1.2-3.9 2.6-5 3.7-2.8 7.9-5 11.8-7.8 7.5-5.3 14.8-11.2 25.2-10.2-.2-1.3-.8-2.3-.5-3 3.9-8.3 4.3-17.2 3.8-26.1-.2-3.4-2.6-7-1.9-10.1 2.6-12 6.4-23.6 12.9-34.2 2.7-4.4 4.9-9.1 6.8-13.9 1.1-2.7.8-6 1.7-8.8 1.7-5.1.6-7.3-4.3-9.5-3.9-1.8-8.2-3.6-11.2-6.6-9.3-9.3-21.4-14.6-31.5-22.6-4.8-3.8-10.7-7-13.9-11.9-6.6-10-7.1-21.9-4.5-33.3 1.9-8.6 5.5-16.8 8.6-25.1 3.5-9.2 7.9-17.8 15.5-24.5 3.1-2.7 5.7-5.9 8.9-9.3-5.4-.7-9.7-1.7-14-1.7-10.4 0-20.7.7-31.1.8-12.2.1-24.3-.2-36.5-.3l-41.9-.3c-12.6 0-25.1.1-37.7.2-14 .1-28 .2-42.1.4-9 .1-18.1.1-27.1.4-5.7.2-11.3 1-17 .9-7.1-.1-14.3-.3-21.4-1.2-13.5-1.7-27.7.4-40-7.6-.6-.4-1.8 0-3.6.2-.1 105-.1 209.9-.1 314.6zM589.5 76.2c-.3-10.5-1.3-21.1-1.5-31.6-.2-11 .5-22.1.5-33.1 0-1.3-2.2-3.5-3.4-3.6-6.7-.4-13.4-.3-20-.2-6.2.2-12.4.9-18.6 1-4.9 0-9.8-1-14.8-1-11.1.1-22.2.8-33.3.9-24.5.1-49-.2-73.5 0-25.5.2-50.9 1-76.4 1.3-16.4.2-32.8.1-49.2-.1-18.5-.2-36.9-.9-55.4-1.1-14 0-27.9.3-41.9.4-17 .1-34 .2-51.1.2-26.1 0-52.2-.2-78.3-.3-19.4-.1-38.9 0-58.4-.3-4.4-.1-6.2 1.2-6 5.7.2 8.8.2 17.6.2 26.3 0 4.7-.5 9.4-.5 14.1.1 7.2.6 14.3.7 21.4.2 16.8-.1 33.6.5 50.5.1 3.5 2.1 8.8 4.7 10.1 5.7 2.8 12.3 4.5 18.7 5 17.5 1.2 35 1.9 52.6 2.1 13.7.1 27.5-1.1 41.2-1.3 14.5-.2 29 0 43.4.1 11.4.1 22.8.7 34.2.6 21.8-.1 43.6-.9 65.4-.7 18.5.2 37 1.7 55.5 2 6.4.1 13.1-1 19.3-2.9 15.4-4.7 30.2-4.2 44.8 2.7 2.3 1.1 4.8 1.9 7.3 2.2 10.9 1 21.8 1.8 32.8 2.5 12.5.7 25 1 37.5 1.8 2.5.2 6 .9 7.3 2.7 3.5 5 5.1 10.7 3.1 17.1-1.7 5.6-3 11.2-4.4 16.8 11.5-7.4 13.7-19.3 13.4-31.6-.1-5.5 3.1-5.5 5.9-5.7 12.5-.9 25-3.8 37.7-1.8 4.2.7 8.7.7 12.9.3 12.2-1.4 24.4-2.9 36.5-4.9 8.8-1.4 9.4-2.8 9.6-12 .1-5.5.8-10.9 1-16.4.2-5.8 0-11.6 0-18.1M429.1 379.6c.3 1.3 1 2.8.9 4.4-.2 5.3 2 8.4 7.2 9.4 1.2.2 2.3 1.1 3.3 1.9 4.8 3.9 9.9 7.4 14 11.9 3.8 4.1 6.4 9.3 9.8 14.6-1.5.5-2.7 1-4.1 1.4-10.7 2.5-21.4 4.8-32 7.6-1.6.4-3.7 2.8-3.7 4.3-.1 6 .4 12 .9 18 .3 3.1 2.1 4.2 5.4 3.8 3.4-.4 6.9 0 10.3.1 6 .1 12 .4 17.9.4 7.1.1 14.1-.1 21.2-.1 6.1 0 12.2.2 18.3.1 5.5 0 11.1-.2 16.6-.3 5.2-.1 10.3 0 15.5-.2 3.4-.1 6.8-.7 10.2-.7 14.3 0 28.7.3 43 .2 1.1 0 3-2.3 3-3.6.3-13.9.1-27.9.4-41.8.2-10.8.9-21.6 1-32.5.1-8.2-.8-16.4-.8-24.6 0-11.2.4-22.4.4-33.6 0-16.9-.5-33.9-.4-50.8.1-14.8.9-29.6 1.1-44.3.1-5.1-.6-10.2-.6-15.3 0-4 .7-8 .7-12-.1-6.2-.7-12.4-.7-18.7 0-9.9.4-19.8.7-29.6.1-3.6-1.3-4.2-4.2-2.6-11.7 6.3-24.8 5.7-37.4 7.8-7.4 1.3-15.2.7-22.8.9-6.4.1-12.8.7-19.1.1-9.3-.9-11.3.1-12.5 8.9-.1.7-.4 1.4-.6 2.1-2.9 12.7-12.2 20.6-21.9 27.9-1.6 1.2-5 .2-8.7.2 9.1-11.3 9.6-22.9 8.9-34.6-.1-1.1-2.5-2.7-3.9-2.8-10.3-.8-20.6-1.2-30.9-2-6.1-.5-12.1-1.7-18.2-2.2-4.2-.3-8.5-.1-12.8-.1-.2.5-.5 1.1-.7 1.6 2.6 2.2 5.2 4.5 7.7 6.7 6.4 5.6 12.2 12.3 19.4 16.6 6.6 4 13 7.3 18 13.6 6.5 8.3 3.8 23.9-7.6 27.7-6.7 2.3-11.4 12.1-8.4 16.9 3.1 5.1 4.5 10.2 2.1 17.3 9.1 0 17.2.2 25.4-.1 5.7-.2 9.7 3.3 9.1 8.8-1.1 11.4-2.6 22.8-3.7 34.2-.5 5.1-2.4 10.7 3.2 14.8 1 .7 1.3 3 1.3 4.5-.1 4-.8 8-.8 12 .1 7.6-3.7 13.1-8.2 18.6-3.8 4.6-7 9.6-5.4 16.3 1.8 7.8-3.1 17.7-12.3 17.9-4.3.3-9.2-.5-14.5-1zM262.6 233.1c-.5-6.5-1.2-12.6-1.5-18.7-.7-10.5-4.5-20.2-10.9-28-4.8-5.8-11.9-10.1-18.5-14-14.4-8.4-30.5-8.5-46.3-7.4-8.2.6-16.5 3.1-24.2 6.2-6 2.4-11.1 7-16.5 10.7-2.1 1.4-4.4 3-5.7 5.1-4.1 6.4-8 13-11.6 19.7-8.7 16.1-12.3 33.1-3.1 50 4.8 8.8 11.3 17.4 19 23.7 6.8 5.5 16.3 7.9 24.8 11.2 12.6 4.9 25.9 4 38.9 3.1 9.4-.7 18.4-4.2 26.8-9.5 10.2-6.5 17.1-15.1 21.9-25.9 1.8-4 1.8-10.6 9.6-8.6.8.2 3-2.2 3.5-3.8.9-2.9 1.3-6.1 1.3-9.1-.3-4.2-1.6-7.4-7.5-4.7zm170-13.5c-2.4-.8-3.9-1.6-5.4-1.6-3.6-.2-7.2.1-10.9 0-3.3-.1-6.7-1-10-.9-7 .2-14.1 1.1-21.1 1.2-3.3 0-6.7-1.4-10-1.8-6.3-.6-12.6-1.1-18.9-1.2-3.5-.1-8.3-.5-10.3 1.4-8.9 8.5-11.6 19.7-10.2 31.7.8 7.7 5.5 13.2 11.1 18.1 1.3 1.2 1.8 3.4 2.6 5.1-.8.6-1.5 1.1-2.3 1.7-5.4-5.2-12.5-9.5-15.9-15.7-6.8-12.9-5.3-25.9 4.2-37.7 1.6-2 2.2-4.8 3-7.3.6-1.8.1-4.7 1.2-5.3 2.1-1.3 4.9-1.3 8-1.9 1-5.4 8-13.4 12.4-12.5-3.2 5.7-6.3 11.4-9.9 18 7.1-2.1 12.6-3.9 18.2-5.3 2.9-.7 6.4-1.4 6.9 3.6-3.2.8-6.3 1.5-9.3 2.2 3.6.7 7.3 1 10.5-.1 6-1.9 11.8-4.5 17.6-7 2.8-1.2 5.3-2.2 6.1 2.2-4.5 2.1-8.9 4.2-13.2 6.2 8.3 1.6 15.9.8 22.9-3.4 3-1.8 6-3.6 9.1-4.9 1.4-.6 3.2.1 4.8.2-.7 1.3-1 3-2.1 3.9-2.3 1.8-4.9 3.2-7.7 4.9 4.9 2.4 9.1.1 13.7-.9 7.1-1.6 8.2-3.4 4.9-9.8-1.6-3.1-2.8-6.3-4.3-9.5.6-.4 1.2-.7 1.7-1.1 3.7 3.2 7.6 6.1 11.1 9.6.9.9.4 3.4.1 5.1-.4 2.4-1.1 4.8-2.1 8.7 2.5-1.3 4.6-1.7 4.9-2.7 1.3-4 3.2-8.4 2.6-12.3-1.2-7.3-6.5-12.4-13.3-14.9-10.6-3.9-18.2-11.5-25.6-19.2-16.4-17.1-35.1-26.2-59.3-19.8-9.1 2.4-18.8 4-25.6 10.7-6.9 6.7-13.7 14.4-17.7 22.9-6.8 14.9-12.4 30.7-9.6 47.8 1.2 7.6 2.5 15.1 9.2 20.2 1.7-1.6 3.3-3 4.6-4.2 2.2 3.8 4 6.9 5.7 9.9.6-2.6 1.1-4.6 1.8-7.4 4.4 3.8 8.5 6.1 10.7 9.5 5.6 8.8 12.1 16.3 21.7 20.7 2.3 1.1 4.9 1.6 7.1 2.7 7.2 3.7 14.8 5.1 22.7 4.6 1.2-.1 3.3-1.4 3.5-2.4.8-5.1 1.2-10.3 1.7-15.3-4.7-1.5-9.2-3-14.8-4.8 3.2-3.7 5.2-7.3 8.3-9.1 7.1-4.2 15.2-2.8 23-2.3 2 .1 4.1.6 6.1 1.3 3 1.1 5.7 3.1 8.7 3.8 12.6 2.8 18.3-2.2 13.2-13.1-4.1-9.2-3.3-15.6 3.9-22.5zm-51.2 134.2h3.8c9.6-.3 19.3-1.6 28.8-.7 12 1.2 23.7 1.2 35.4-1.1 1.5-.3 3.8-2.4 3.8-3.5-.2-3.2-.9-6.7-2.5-9.5-1.7-3-2.9-5.4-1.3-9 1-2.3 1.5-5.6.6-7.8-1.8-4.4.7-9 2.6-10.1 6.9-3.9 5.4-10.4 6.3-15.9 1.9-11.5 3.2-23.1 4.9-35.4-.8-.2-2.2-1-3.7-1.1-5.4-.4-10.8-.9-16.1-.7-8.7.3-17.4 1.4-26.2 1.8-7.7.3-15.4.2-23.2-.1-3.3-.1-4.9 1.3-5.3 4.3-1.1 9.2-2.2 18.4-3.2 27.6-.1 1.1-.1 2.8.5 3.5 5.8 6.3 9.3 13.3 9 22.2-.3 9.1-2.6 18.3-10.6 20.6-1.5.4-3.4 2.2-3.6 3.5-.4 3.6 0 7.3 0 11.4zm-244.5-7.9c1.5.4 3.6 1.9 4.9 1.3 4-1.8 6.1 1 7.8 3.1 6.4 7.7 12.1 15.7 20.3 22.2 10 7.8 20.3 12.7 32.7 11.7 3.2-.3 6.5-3.7 8.8-6.4.8-.9-.9-4.3-1.8-6.4-1.1-2.6-3.4-5-3.9-7.6-1.5-8.1-2.9-9.9-10.8-10.8-.7-.1-1.5 0-2-.3-5.6-3.6-11-7.5-16.7-11-4-2.5-4.9-5.3-2.7-9.5 1.4-2.7 2.3-5.8-2-7.8-1.1 1.5-1.8 3.5-3 3.9-2.3.6-5.5 1.1-7.1 0-2.8-2.1-4.5-5.6-6.7-8.4-3.2-4-9.3-4-11.5 0 2.3 1.7 4.5 3.4 6.8 5.1 0 .7 0 1.3-.1 2-4.9 1-9.7 2-14.6 2.9.1.4.2.8.3 1.3 1.8.9 3.6 1.9 6.3 3.3-3.5 1.7-5.8 2.9-8.1 4 2.7 1 4.8 1.7 6.9 2.4-1.1 1.4-2.3 3-3.8 5zm248.8-46c-3.2-.2-5.5-1-6.9-.3-5.4 2.9-9.1 7.2-9.7 13.7-1.1 11-6 20.5-12.2 29.4-2.4 3.4-4.8 6.8-7.3 10.2-.7-.4-1.4-.7-2.1-1.1 1.5-3.7 3-7.4 4.9-12.1-6.6 5-11.4 9.6-11 17.5.2 3.3.8 6.9-.2 9.9-2 6.2.6 10.2 5.7 12.3 13.9 5.8 25.4 6.3 29.2-12.2 1.6-7.8.9-16.2.8-24.3-.1-4.7.3-8 6-8.9 2.2-.4 6.9-1.6 4.4-5.9-3.7.7-6.8 1.2-9.8 1.7-.3-.8-.5-1.7-.8-2.5 2-1.1 4-2.4 6.1-3.4 1.6-.7 3.6-.8 5.1-1.6.9-.5 1.5-1.7 2.2-2.6-1.2-.4-2.5-1.2-3.7-1-3.1.5-6.1 1.4-9.4 2.2-.4-6.2 3.1-7.1 6.7-7 5 .2 6.3-1.8 4.6-7-5.2 1.6-10.3 3.3-16.1 5.1 1.4-7.9 8.8-6.7 13.5-12.1zm-221.9 24.3c4-.8 5.1-7.8 10.5-3.7 4.9 3.8 6 7.1 3.9 15.3 2.6 1.6 5.3 3.2 8.5 5.1.6-.8 1.1-1.6 1.7-2.3 5.3-6.6 13.1-9.6 20.3-13.4.8-.4 2.3-.5 3.1 0 5.1 3 4.8 8.3 4.3 13.1-.2 2.2-2.1 4.6-3.7 6.4-1.8 2.1-4.3 3.6-6.4 5.3 4.3 8.6 8.4 16.6 12.5 24.6 9.5-3.6 15.1-14.5 13-24.1-.4-1.9-.4-4-.8-5.9l-7.5-34.2c-6.8 5-13 9.6-19.1 14.1-2.8-2.3-5-4.3-7.5-5.9-2.7-1.7-5.4-3.4-8.2.3-.5.6-3.2.6-3.9-.1-11.1-11.8-12.5-12.1-26.1-5.6-.7.3-1.5.7-2.4 1.1 2.8 3.5 5.2 6.6 7.8 9.9zm-35 63.3c-2.9 9.6-1.5 11.9 6.6 14.2 17.3 5 34.8 9.3 52.9 10.6 14 1 27.9 2.6 41.6-2.1 6.5-2.2 8.6-7.6 4.7-13.9-1.7 3.1-3.3 6.2-5.8 10.9-3.7-7.1-6.4-12.6-9.3-18-.7-1.3-1.7-3-2.9-3.3-.8-.2-2.6 1.2-3.3 2.3-3.1 4.7-5.9 9.6-9 14.3-1.1 1.7-2.6 3.1-4.7 5.4-3.3-5.9-6-10.7-8.7-15.4-3-5.2-8.8-5.6-12.3-.7-2.3 3.1-4.2 6.5-7 9.1-1.8 1.7-4.8 3.1-7.2 2.9-1.4-.1-3-3.1-4-5.1-3.1-6.3-6-12.7-9.6-20.2-4.6 5.8-8.4 10.8-12.4 15.6-1.1 1.3-2.9 2.9-4.2 2.8-1.3-.2-2.5-2.2-3.4-3.7-.7-1.4-1.1-3.1-2-5.7zm30.8-15.3c-3.7-4.8-7-9.4-10.6-13.7-1.7-2-3.6-4.2-5.8-5.4-4.5-2.5-9.4-4.3-14.6-6.6-.3.7-1.1 2.5-1.7 4.4-4 13.9-2.1 18.1 10.7 21.5 7.2 1.9 14.5 2.2 22-.2zm193.6 67.4c-.2 5.1-.6 10.1-.7 15.2 0 .6 1.1 1.8 1.8 1.8 4.1.2 8.2.3 12.3.1 2.9-.1 5.7-.8 8.6-.9 3.4-.2 7 .5 5.3-5.2-.8-2.7-.4-5.8-.5-8.7-9-.8-17.3-1.5-26.8-2.3zm41.2 16.3H420c0-4.6.1-8.1 0-11.6-.1-5.4-2.1-6.9-7.2-5.7-5.7 1.3-11.4 2.3-18.3 3.7-.1 3.2-.1 7.9-.1 13.6zM172.6 451c-3.9-2.2-7.3-4.5-12.8-3.9-7.5.7-15.2-1-22.8-1.6-2.5 8.7-1.6 10.8 7.4 11.7 7 .7 14.2-.4 21.4-.5 3.5-.2 6.7-.3 6.8-5.7zM451 366.7c-.1-1.8 0-3.6-.4-5.2-.7-2.8-1.8-4.5-5.4-3.3-3.9 1.3-8.2 1.6-12.2 2.7-1.9.6-4.7 2.1-4.8 3.4-.2 2 1.1 5.1 2.7 6.2 3.3 2.1 7.1 4 10.9 4.4 5.6.7 9.4-3 9.2-8.2zm-45 10.8c-7.4-8.5-13.3-11.6-21.9-11.3-1.5.1-3.5 1.7-4.3 3.2-.6 1.3.2 3.3.4 5 1.7-.3 3.6-.1 5-.9 2.5-1.3 4.7-3.2 7-4.8.5.5.9 1 1.4 1.4-2.1 2.6-6.4 5.7-5.9 7.6.8 3 5.3 7.5 7.3 7.1 4.1-.9 7.4-4.7 11-7.3zm-39 35c-3.3-2.3-6.7-4.8-10.1-7-.8-.5-2.4-.8-2.9-.3-3.7 3.1-7.1 6.4-10.8 9.7 12.2 9.1 18 8.5 23.8-2.4zm90.4 4.7c-6.7-6.1-12.5-11.4-18.4-16.7-3.2 3.9-5.7 7-8.6 10.5 3.6 2.4 6.4 4.2 8.6 5.7 2.3-.8 3.9-1.3 5.4-1.8v4.6c3.9-.6 7.9-1.4 13-2.3zm-105.9-15c-9.1-8.4-15.1-7.7-24.8 2.9 3.9 2.5 7.8 4.9 11.7 7.3 4.4-3.3 8.6-6.6 13.1-10.2zm31.2 21c-4-2.7-8.1-5.4-11.5-7.7-4.7 3.7-8.4 6.6-12.9 10.2 5.5 2 10 3.8 14.6 5.3.9.3 2.5-.3 3.3-1 2.2-1.8 4-4 6.5-6.8zm31.7-2.4c1.5-4.8 11.5-5.1 6.6-11.6-6-7.9-10.2-8.2-15-1.5-6.8 9.5 7 7.3 8.4 13.1zm-42.7-32c11.1 9.9 15.1 9.6 21.9-1.5-3.4-1.9-7-5.7-10.1-5.3-3.9.4-7.5 4.2-11.8 6.8zm3.3 23.3c10.5 10.1 11.4 11.4 20.4-.9-9.1-7.8-13.4-7.6-20.4.9zm-16.1-110.3c-.4.3-.8.7-1.1 1 1.5 2.1 2.8 4.3 4.5 6.2.3.4 2.5-.2 3.2-.9 4.6-5.1 9-10.3 13.5-15.6-5.7-.8-12.4-1.7-19.1-2.6-.5.3-.9.7-1.4 1 2.6 4 5.1 8.1 7.7 12.1l-1 1c-2.1-.7-4.2-1.5-6.3-2.2zm52.2 121.1c-2.4-2.2-4.3-4.5-6.7-6.1-1.4-1-4.2-1.8-5.3-1.1-2.9 2-5.3 4.8-7.8 7.4-.1.1 1.1 1.6 1.8 2.3 7.8 6.5 10.5 6.1 18-2.5zm-11.8-36.1c5.2 8.5 11.5 7.2 17.6 5.8 2.8-.6 3.6-4.5 1.4-6.4-2-1.8-4.1-3.8-6.4-5.1-1.2-.7-3.5-.9-4.7-.2-2.9 1.7-5.5 4.1-7.9 5.9zm12.1-9.9c4.5 3.6 9 7.3 13.8 11.2 1.6-12.1-.2-17.3-6.9-19.3-2.2 2.4-4.3 5-6.9 8.1zm-52.5-57.5c-3.7 1.6-7.1 2.8-10.1 4.6-.9.5-1.3 3.8-.7 4.4 1.5 1.3 4.2 2.9 5.7 2.4 4.8-1.7 7.5-5.6 7.6-10.8 0-1.5-1.6-2.9-2.4-4.4-.4.3-.9.5-1.3.8.5 1.4 1.1 2.8 1.2 3zm-57.9 89c3.3.9 6.6 2.5 9.8 2.3 2.4-.1 4.7-2.5 6.8-4.3.3-.2-1.1-3.3-2.4-4.2-4-3-12.4.9-14.2 6.2zm117.9 16.1c7.2 2.9 12.6-2 19.8-3.3-12.5-7.8-16.1-7.1-19.8 3.3zm15.3-24.3c-4.8-8-10.7 2-16.2-.5 2.3 3.2 4.8 5.7 7.6 7.9.5.4 2.4-.3 3.2-1.1 1.7-1.7 3.2-3.8 5.4-6.3zm-18.4-34.9h-18.4c8.8 10.9 10.9 10.9 18.4 0zm-229.7 89.9c-.1.4-.2.7-.2 1.1h34.2c.3-.5.6-.9.9-1.4-1.1-.9-2.3-2.6-3.3-2.5-10.5.7-21.1 1.8-31.6 2.8zm130-57.8c6.5 6.4 6.5 6.4 15.3-2.2-3.8-3.5-7.8-2.9-15.3 2.2zm-115.3-83.1c2.2 4.1 4.5 4.6 7.6 1.1 1.5-1.8 3.6-3 5.4-4.5 2.8-2.4 5.5-4.8 8.2-7.2-.3-.4-.6-.7-.9-1.1-6.7 3.9-13.5 7.8-20.3 11.7zm121.5 93.3c-1.7 1.8-3.1 3.3-4.5 4.9 6.1.2 10.4 8.5 17.9 3.3-5-3-8.9-5.4-13.4-8.2zm16.5-64.8c.5.2 1 .3 1.5.5 3.2-3.1 6.3-6.2 9.8-9.7-2.8-1.6-4.5-2.6-6.6-3.8-1.8 4.8-3.3 8.9-4.7 13zm26.9 46.4c-3.8 0-6.1.1-8.4 0-2.5-.2-5-.7-7.5-1-.5 0-1.4.6-1.5 1.1-.2.5.1 1.5.5 1.9 3.9 3.6 11 3.1 16.9-2zm22 50.2c-.6 0-1.1-.1-1.7-.1v17.1c3.4-3.2 3.9-12.1 1.7-17zm-154.6-72.1c-.6-.1-1.2-.2-1.7-.2-1.7 4.5-7.4 8.6.1 15 .6-5.7 1.1-10.3 1.6-14.8zm103.4 12.8c-.6 1.9-1.1 3.5-1.6 5 4.6 5.4 6.7 5.7 10.3 1.5-2.8-2.1-5.5-4.2-8.7-6.5zm37.4 25.1c-4.7-1-8.8-1.8-14.4-3 9.9 8 11.5 8.4 14.4 3zm18.8 26.2c.1-.4.2-.8.2-1.2-2.2-1.4-4.5-2.7-6.9-4.2-1.8 2-3.4 3.8-5.9 6.4 5.3-.4 9-.7 12.6-1zm9.9-35.8c-5.8-5.1-5.8-5.1-11.7 3 4.3-1.2 7.8-2.1 11.7-3zm-205.4-47.2c.6-.4 1.1-.8 1.7-1.2-.8-2-1.1-4.7-2.6-5.8-1.1-.8-3.7.4-5.7.7 0 .6-.1 1.2-.1 1.8 2.2 1.5 4.5 3 6.7 4.5zm260-5.5c1 0 2.1-.1 3.1-.1.1-3.1.6-6.3 0-9.3-.2-.8-4-.8-6.1-1.2-.1.5-.3 1-.4 1.5 2.2 2.5 8 3.3 3.4 9.1zm8.5-21.9c-1.2-1.5-2.3-4-3.2-3.9-2.7.2-5.4 1.4-8 2.3.1.5.3 1.1.4 1.6h10.8zm-60.2 81.4c-3.8.7-6.7 1.3-9.7 1.9 3 5.2 4.7 4.9 9.7-1.9zm58.8-70.5c-.6-6.3-1.9-7.1-8.7-5.3 2.9 1.7 5.6 3.3 8.7 5.3zm-125 86.5c-.4.7-.7 1.4-1.1 2.2 4 1.9 8.1 3.8 12.1 5.6.2-.5.5-1 .7-1.5l-11.7-6.3z"/>
  <path d="M337 0c-5.6.3-11.1.9-16.7.9-43.5.1-87 0-130.5 0-61 0-122 .1-183 .2H.9c0 8.6.1 16.8 0 25C.7 32.6.3 39 0 45.4V0h337zM429.1 379.6c5.4.5 10.2 1.3 15.1 1.2 9.1-.1 14.1-10.1 12.3-17.9-1.6-6.8 1.6-11.7 5.4-16.3 4.6-5.5 8.4-11 8.2-18.6-.1-4 .7-8 .8-12 0-1.5-.3-3.8-1.3-4.5-5.6-4.1-3.7-9.7-3.2-14.8 1-11.4 2.5-22.8 3.7-34.2.6-5.5-3.5-9-9.1-8.8-8.2.3-16.4.1-25.4.1 2.4-7.1 1-12.2-2.1-17.3-3-4.8 1.7-14.6 8.4-16.9 11.3-3.8 14.1-19.4 7.6-27.7-5-6.4-11.4-9.7-18-13.6-7.2-4.3-13-11-19.4-16.6-2.6-2.2-5.1-4.5-7.7-6.7.2-.5.5-1.1.7-1.6 4.3 0 8.5-.3 12.8.1 6.1.5 12.1 1.7 18.2 2.2 10.3.8 20.6 1.2 30.9 2 1.4.1 3.9 1.8 3.9 2.8.7 11.7.1 23.3-8.9 34.6 3.8 0 7.1 1 8.7-.2 9.7-7.3 19-15.2 21.9-27.9.2-.7.5-1.4.6-2.1 1.2-8.8 3.2-9.9 12.5-8.9 6.3.6 12.7 0 19.1-.1 7.6-.2 15.4.4 22.8-.9 12.5-2.1 25.7-1.5 37.4-7.8 2.9-1.6 4.3-1 4.2 2.6-.3 9.9-.7 19.7-.7 29.6 0 6.2.7 12.4.7 18.7 0 4-.7 8-.7 12 0 5.1.7 10.2.6 15.3-.3 14.8-1 29.6-1.1 44.3-.1 16.9.3 33.9.4 50.8 0 11.2-.5 22.4-.4 33.6 0 8.2.9 16.4.8 24.6-.1 10.8-.8 21.6-1 32.5-.2 13.9-.1 27.9-.4 41.8 0 1.3-2 3.6-3 3.6-14.3.1-28.7-.1-43-.2-3.4 0-6.8.6-10.2.7-5.2.1-10.3.1-15.5.2-5.5.1-11.1.3-16.6.3-6.1 0-12.2-.1-18.3-.1-7.1 0-14.1.1-21.2.1-6-.1-12-.3-17.9-.4-3.5-.1-6.9-.5-10.3-.1-3.3.4-5.1-.7-5.4-3.8-.5-6-1-12-.9-18 0-1.5 2.1-3.9 3.7-4.3 10.6-2.8 21.3-5.1 32-7.6 1.3-.3 2.6-.9 4.1-1.4-3.5-5.2-6.1-10.4-9.8-14.6-4.1-4.5-9.3-8-14-11.9-1-.8-2.1-1.7-3.3-1.9-5.3-1-7.5-4.1-7.2-9.4-.5-1.7-1.3-3.3-1.5-4.6zM262.6 233.1c5.9-2.7 7.3.6 7.3 4.7 0 3-.4 6.2-1.3 9.1-.5 1.5-2.7 4-3.5 3.8-7.8-2-7.8 4.7-9.6 8.6-4.9 10.8-11.8 19.4-21.9 25.9-8.3 5.3-17.4 8.8-26.8 9.5-13 .9-26.3 1.8-38.9-3.1-8.5-3.3-18-5.7-24.8-11.2-7.7-6.2-14.2-14.9-19-23.7-9.2-16.8-5.6-33.8 3.1-50 3.6-6.7 7.5-13.3 11.6-19.7 1.3-2.1 3.6-3.6 5.7-5.1 5.4-3.8 10.5-8.3 16.5-10.7 7.7-3.1 16-5.6 24.2-6.2 15.9-1.2 32-1.1 46.3 7.4 6.7 3.9 13.8 8.2 18.5 14 6.4 7.8 10.2 17.5 10.9 28 .5 6.1 1.1 12.2 1.7 18.7zM196.4 186c-1.1-.8-1.9-1.7-2.6-1.7-8.1-.2-16.5-1.8-23.4 4.4-.7.6-1.4 1.4-2.2 1.5-9.3 1.2-10.8 3.3-7.3 11.1-3.4 1.6-6.8 3.3-10.2 4.9 1 4.7 2.9 4.2 5.8 2.1 3.4-2.5 6.8-5.9 11.8-3.5 2 .9 4 1.9 6.2 2.3 9.3 1.6 18.7 3.2 28 4.5 4.4.6 7.4-2.6 7.6-7.2 9.8-3.5 11.1 6 15.2 10.7 4.1-2 4.3-4.3 2.6-7.5-4.4-8.1-9.2-9.6-20.5-6.7-1.7.4-3.5.6-5.5.9-.4.8-1 2-1.4 2.9-4-2.7-7.2-5.5-10.9-7.2-1.9-.9-4.6 0-7 .1 1 1.8 2.1 3.6 3.1 5.5.1.3 0 .6 0 1.8-5.5-1.6-10.8-3-16-4.7-1.3-.4-3.3-1.9-3.3-2.9 0-1.5 1.2-3.7 2.5-4.3 2.7-1.4 5.8-2.1 8.8-2.8 4.2-1 8.8-3.1 12.4-2 3.1.7 4.5 1.3 6.3-2.2zm29.7 52.5c-1.7 4.1-2 7.6-3.7 8.6-4.7 2.8-9.9 6-15.1 6.3-10.1.5-20.2-.8-30.4-1.6-7.3-.6-14.5-2.2-20-7.4-2-1.9-3.3-4.5-4.8-6.8-.8-1.3-1.4-2.7-2.1-4.1-1.6 1-3.6 1.6-4.8 3-.8.9-.9 3.5-.3 4.1 4.8 4.5 9.2 10.1 15 12.5 8.1 3.4 17.1 4.8 25.8 6.2 5.7.9 11.9 1.5 17.3.2 8.7-2.2 17-6 25.2-9.6 1.7-.7 3.9-4.1 3.5-5.2-.9-2.4-3.5-4.1-5.6-6.2zm-37.3-22.6c-.1-.3-.2-.6-.3-.8-2.6 1-5.8 1.4-7.7 3.1-3.5 3.2-6 7.2-4.9 12.6 1.3 6.1 6.3 7.2 11.1 8.1 1.6.3 3.5-1.5 5.3-2.3-1.4-1.3-2.7-3.5-4.1-3.6-4.3-.1-5.7-2.7-5.2-5.9.6-4.1 3-6.9 7.9-6.5 1.5.1 3.2-1 4.8-1.6-1.4-1-2.7-2.1-4.2-2.9-.7-.5-1.8-.2-2.7-.2zm13.5 5.9c5.4 2.5 10.8 5 16.3 7.2.1.1 2.6-3.6 2.2-4.8-1.3-3.5-13.9-6.1-18.5-2.4zm-44.8-2.3c-.3.5-.5.9-.8 1.4 1.4 1.2 2.8 3.1 4.3 3.3 3.2.3 6.5-.2 9.6-.8 1.1-.2 2-1.7 3-2.6-1.1-.9-2.3-2.6-3.4-2.6-4.2.1-8.5.8-12.7 1.3z" fill="#fff"/>
  <path d="M432.6 219.6c-7.3 6.9-8.1 13.2-4 22.2 5 10.9-.7 15.9-13.2 13.1-3-.7-5.8-2.7-8.7-3.8-1.9-.7-4-1.2-6.1-1.3-7.8-.5-15.9-1.9-23 2.3-3.1 1.8-5.1 5.5-8.3 9.1 5.6 1.8 10 3.3 14.8 4.8-.5 5-.8 10.2-1.7 15.3-.2 1-2.2 2.4-3.5 2.4-7.9.5-15.6-.9-22.7-4.6-2.2-1.2-4.8-1.7-7.1-2.7-9.6-4.4-16.1-11.9-21.7-20.7-2.2-3.5-6.3-5.7-10.7-9.5-.7 2.8-1.2 4.8-1.8 7.4-1.8-3-3.6-6.1-5.7-9.9-1.3 1.1-2.8 2.6-4.6 4.2-6.7-5.1-7.9-12.6-9.2-20.2-2.8-17.1 2.8-32.9 9.6-47.8 3.9-8.6 10.8-16.2 17.7-22.9 6.8-6.7 16.5-8.3 25.6-10.7 24.2-6.4 43 2.7 59.3 19.8 7.4 7.8 15 15.4 25.6 19.2 6.8 2.5 12.1 7.6 13.3 14.9.6 3.9-1.4 8.3-2.6 12.3-.3 1-2.4 1.4-4.9 2.7 1-3.9 1.8-6.3 2.1-8.7.3-1.7.8-4.2-.1-5.1-3.4-3.5-7.3-6.4-11.1-9.6-.6.4-1.2.7-1.7 1.1 1.4 3.2 2.7 6.4 4.3 9.5 3.3 6.5 2.2 8.2-4.9 9.8-4.5 1-8.8 3.4-13.7.9 2.8-1.7 5.4-3.1 7.7-4.9 1.1-.8 1.4-2.5 2.1-3.9-1.6-.1-3.5-.7-4.8-.2-3.2 1.3-6.2 3.1-9.1 4.9-7 4.2-14.6 5-22.9 3.4 4.4-2.1 8.8-4.1 13.2-6.2-.8-4.3-3.3-3.3-6.1-2.2-5.8 2.5-11.6 5.1-17.6 7-3.2 1-6.9.8-10.5.1 3-.7 6.1-1.4 9.3-2.2-.5-4.9-4-4.3-6.9-3.6-5.6 1.4-11.1 3.2-18.2 5.3 3.6-6.6 6.7-12.3 9.9-18-4.3-1-11.3 7.1-12.4 12.5-3.1.7-5.9.7-8 1.9-1.1.7-.6 3.6-1.2 5.3-.8 2.5-1.4 5.4-3 7.3-9.6 11.7-11.1 24.8-4.2 37.7 3.3 6.3 10.5 10.6 15.9 15.7.8-.6 1.5-1.1 2.3-1.7-.8-1.7-1.3-3.9-2.6-5.1-5.6-4.9-10.3-10.4-11.1-18.1-1.3-12.1 1.3-23.2 10.2-31.7 2-2 6.8-1.5 10.3-1.4 6.3.1 12.6.6 18.9 1.2 3.4.3 6.7 1.8 10 1.8 7-.1 14.1-1 21.1-1.2 3.3-.1 6.7.7 10 .9 3.6.1 7.2-.2 10.9 0 1.7.3 3.1 1.2 5.5 1.9zm-32.1 6.3c-.5.2-1.1.4-1.6.6 0 1.4-.1 2.8 0 4.2.1 1.7.3 3.4.5 5.2-1.6-.7-3.2-1.5-5.7-2.6-.5 1.6-1.9 3.5-1.5 4.9.4 1.2 2.7 2.2 4.3 2.5 5.4 1 8.4-2.1 9.6-5.1 3.6-1 6.3-1.2 8-2.6.9-.7 0-3.6-.1-5.5-3.2.8-6.3 1.6-11 2.8-.2-.7-1.4-2.5-2.5-4.4zm-24.9 6.2c2.4 1.9 4.4 4.1 5 3.8 1.8-1.1 3.9-2.9 4.2-4.7.2-1.4-2.1-3.2-3.4-4.8-1.6 1.6-3.2 3.2-5.8 5.7z" fill="#fff"/>
  <path d="M381.4 353.8c0-4.1-.3-7.8.2-11.5.2-1.4 2.1-3.1 3.6-3.5 8-2.3 10.3-11.5 10.6-20.6.3-8.9-3.2-15.9-9-22.2-.7-.7-.6-2.3-.5-3.5 1-9.2 2-18.4 3.2-27.6.4-3 2-4.4 5.3-4.3 7.7.2 15.4.4 23.2.1 8.7-.3 17.4-1.4 26.2-1.8 5.4-.2 10.8.3 16.1.7 1.5.1 3 .9 3.7 1.1-1.7 12.3-3 23.9-4.9 35.4-.9 5.6.6 12-6.3 15.9-1.9 1.1-4.4 5.7-2.6 10.1.9 2.2.4 5.5-.6 7.8-1.6 3.6-.4 6 1.3 9 1.6 2.8 2.3 6.3 2.5 9.5.1 1.1-2.3 3.2-3.8 3.5-11.7 2.3-23.5 2.3-35.4 1.1-9.5-.9-19.2.4-28.8.7-1.3.1-2.4.1-4 .1zm61.1-34.5c0-.5 0-1.1.1-1.6-2.8-1.1-5.5-2.7-8.4-3.2-5.8-1.1-11.7-1.7-17.6-2.4-1.7-.2-3.6-.4-5.1 0-2.8.9-5.5 2.2-8.2 3.4.2.6.5 1.3.7 1.9 5.8 0 11.7-.4 17.5.1 5.9.6 11.7 2.2 17.6 3.1 1 .2 2.2-.8 3.4-1.3zm-17.3 22.2c-2.9 0-4.7-.1-6.5 0-2.9.2-5.8.7-8.7.8-6.8.3-13.5.4-20.3 1-1.4.1-2.7 1.7-4.8 3.2 12.2 2 36.9-.6 40.3-5zm-26.7-41.3c.3.5.6 1.1.9 1.6 2.5-1.1 4.9-2.4 7.4-3.3 6.1-2 12.4-3.7 18.5-5.8 1.1-.4 1.8-1.9 2.6-2.9-.8-.5-1.8-1.5-2.4-1.3-8.5 3.2-16.9 6.4-25.3 9.8-.7.3-1.2 1.3-1.7 1.9zm37.6 24.1c-.9-1.8-1.1-2.4-1.3-2.4-7.3-.4-14.7-.8-22-.9-.6 0-1.1 2.2-1.7 3.3h25zM136.9 345.9c1.5-2 2.7-3.6 3.8-5.1-2.1-.7-4.1-1.5-6.9-2.4 2.3-1.1 4.6-2.3 8.1-4-2.7-1.4-4.5-2.3-6.3-3.3-.1-.4-.2-.8-.3-1.3 4.9-1 9.7-2 14.6-2.9 0-.7 0-1.3.1-2-2.3-1.7-4.5-3.4-6.8-5.1 2.2-4 8.2-4 11.5 0 2.3 2.8 4 6.3 6.7 8.4 1.5 1.2 4.8.6 7.1 0 1.2-.3 1.9-2.4 3-3.9 4.3 2 3.4 5.1 2 7.8-2.2 4.2-1.3 7 2.7 9.5 5.7 3.5 11.1 7.3 16.7 11 .5.3 1.3.3 2 .3 7.8.9 9.3 2.7 10.8 10.8.5 2.7 2.7 5 3.9 7.6.9 2.1 2.7 5.5 1.8 6.4-2.3 2.7-5.6 6.2-8.8 6.4-12.5 1-22.7-4-32.7-11.7-8.2-6.4-13.9-14.5-20.3-22.2-1.7-2.1-3.8-4.9-7.8-3.1-1.3.6-3.4-.8-4.9-1.2z" fill="#fff"/>
  <path d="M385.7 299.9c-4.7 5.4-12.1 4.2-13.4 12.2 5.8-1.8 10.9-3.5 16.1-5.1 1.7 5.1.4 7.1-4.6 7-3.7-.1-7.1.7-6.7 7 3.3-.8 6.3-1.7 9.4-2.2 1.1-.2 2.4.7 3.7 1-.7.9-1.3 2.1-2.2 2.6-1.6.8-3.5.9-5.1 1.6-2.1 1-4.1 2.2-6.1 3.4.3.8.5 1.7.8 2.5 3.1-.5 6.1-1.1 9.8-1.7 2.5 4.2-2.2 5.5-4.4 5.9-5.7 1-6 4.3-6 8.9.1 8.1.8 16.5-.8 24.3-3.7 18.5-15.3 18-29.2 12.2-5.1-2.1-7.7-6.1-5.7-12.3 1-3 .4-6.6.2-9.9-.4-7.9 4.4-12.5 11-17.5-1.9 4.8-3.4 8.5-4.9 12.1.7.4 1.4.7 2.1 1.1 2.4-3.4 4.9-6.8 7.3-10.2 6.2-8.9 11.1-18.4 12.2-29.4.6-6.4 4.3-10.8 9.7-13.7 1.4-.8 3.6 0 6.8.2zM163.8 324.2c-2.6-3.3-5-6.4-7.8-10 .9-.4 1.6-.7 2.4-1.1 13.5-6.5 15-6.1 26.1 5.6.7.7 3.4.7 3.9.1 2.8-3.7 5.5-2 8.2-.3 2.4 1.6 4.6 3.6 7.5 5.9 6.1-4.5 12.4-9.1 19.1-14.1 2.5 11.5 5.1 22.9 7.5 34.2.4 1.9.4 4 .8 5.9 2.1 9.5-3.5 20.4-13 24.1-4-8-8.1-16-12.5-24.6 2.1-1.7 4.5-3.3 6.4-5.3 1.6-1.8 3.5-4.2 3.7-6.4.4-4.8.8-10-4.3-13.1-.8-.5-2.3-.4-3.1 0-7.2 3.8-14.9 6.8-20.3 13.4-.6.7-1.1 1.5-1.7 2.3-3.2-1.9-5.9-3.5-8.5-5.1 2.1-8.2 1-11.5-3.9-15.3-5.4-3.9-6.5 3-10.5 3.8zM128.8 387.5c.9 2.6 1.3 4.3 2.1 5.7.9 1.5 2.1 3.5 3.4 3.7 1.3.2 3.1-1.5 4.2-2.8 4-4.8 7.8-9.7 12.4-15.6 3.5 7.5 6.4 13.9 9.6 20.2 1 2 2.6 5 4 5.1 2.4.1 5.4-1.2 7.2-2.9 2.7-2.6 4.7-6 7-9.1 3.5-4.8 9.3-4.5 12.3.7 2.7 4.8 5.4 9.6 8.7 15.4 2.1-2.3 3.6-3.7 4.7-5.4 3.1-4.7 5.9-9.6 9-14.3.7-1.1 2.5-2.6 3.3-2.3 1.2.3 2.2 2 2.9 3.3 2.9 5.4 5.6 10.8 9.3 18 2.5-4.7 4.2-7.8 5.8-10.9 4 6.4 1.9 11.7-4.7 13.9-13.7 4.7-27.6 3.1-41.6 2.1-18.1-1.3-35.5-5.6-52.9-10.6-8.2-2.3-9.5-4.6-6.7-14.2zM159.6 372.2c-7.5 2.4-14.8 2.1-21.9.2-12.8-3.4-14.8-7.6-10.7-21.5.5-1.9 1.4-3.7 1.7-4.4 5.1 2.3 10 4.1 14.6 6.6 2.3 1.2 4.2 3.4 5.8 5.4 3.5 4.4 6.8 8.9 10.5 13.7zM353.2 439.6c9.5.8 17.8 1.5 26.8 2.2.1 2.9-.3 6 .5 8.7 1.7 5.7-1.9 5-5.3 5.2-2.9.1-5.7.8-8.6.9-4.1.1-8.2.1-12.3-.1-.6 0-1.8-1.2-1.8-1.8.1-4.9.4-10 .7-15.1zM394.4 455.9v-13.7c6.9-1.4 12.6-2.4 18.3-3.7 5.1-1.1 7.1.3 7.2 5.7.1 3.5 0 7 0 11.6-8.1.1-16.5.1-25.5.1zM172.6 451c0 5.4-3.2 5.5-6.7 5.6-7.1.1-14.3 1.2-21.4.5-9-.8-10-3-7.4-11.7 7.6.7 15.3 2.4 22.8 1.6 5.4-.5 8.7 1.8 12.7 4zM451 366.7c.1 5.2-3.7 8.9-9.2 8.2-3.8-.5-7.6-2.3-10.9-4.4-1.6-1.1-2.9-4.1-2.7-6.2.1-1.3 2.9-2.9 4.8-3.4 4-1.2 8.3-1.4 12.2-2.7 3.6-1.2 4.8.5 5.4 3.3.4 1.6.3 3.4.4 5.2zM406 377.5c-3.6 2.6-6.9 6.4-10.9 7.2-2 .4-6.5-4.1-7.3-7.1-.5-1.9 3.8-5 5.9-7.6-.5-.5-.9-1-1.4-1.4-2.3 1.6-4.5 3.5-7 4.8-1.4.8-3.3.6-5 .9-.2-1.7-1-3.7-.4-5 .7-1.5 2.7-3.1 4.3-3.2 8.5-.2 14.4 2.9 21.8 11.4zM367 412.5c-5.8 10.9-11.7 11.5-23.8 2.3 3.6-3.3 7.1-6.6 10.8-9.7.5-.5 2.2-.2 2.9.3 3.5 2.3 6.8 4.8 10.1 7.1zM457.4 417.2c-5.2.9-9.2 1.6-13 2.3v-4.6c-1.6.5-3.1 1-5.4 1.8-2.2-1.4-5-3.3-8.6-5.7 2.9-3.5 5.4-6.6 8.6-10.5 5.9 5.3 11.7 10.6 18.4 16.7zM351.5 402.2c-4.6 3.5-8.7 6.8-13.1 10.2-3.9-2.4-7.7-4.8-11.7-7.3 9.7-10.5 15.7-11.3 24.8-2.9zM382.7 423.2c-2.5 2.7-4.4 4.9-6.5 6.8-.8.7-2.4 1.3-3.3 1-4.6-1.5-9.1-3.2-14.6-5.3 4.6-3.6 8.2-6.5 12.9-10.2 3.4 2.3 7.5 5 11.5 7.7zM414.4 420.8c-1.4-5.8-15.2-3.6-8.4-13 4.8-6.7 9-6.4 15 1.5 4.9 6.4-5.1 6.7-6.6 11.5zM371.7 388.8c4.3-2.7 7.8-6.4 11.8-6.9 3.1-.3 6.7 3.4 10.1 5.3-6.8 11.3-10.8 11.6-21.9 1.6zM375 412.1c7-8.5 11.3-8.7 20.4-.9-9 12.2-9.9 11-20.4.9zM358.9 301.8l6.3 2.1 1-1c-2.6-4-5.1-8.1-7.7-12.1.5-.3.9-.7 1.4-1 6.7.9 13.4 1.8 19.1 2.6-4.6 5.3-9 10.6-13.5 15.6-.7.7-2.9 1.3-3.2.9-1.7-1.9-3-4.1-4.5-6.2.3-.2.7-.5 1.1-.9zM411.1 422.9c-7.5 8.6-10.2 9-17.9 2.5-.8-.6-1.9-2.2-1.8-2.3 2.5-2.6 4.8-5.4 7.8-7.4 1.1-.7 3.8.1 5.3 1.1 2.3 1.6 4.3 3.9 6.6 6.1zM399.3 386.8c2.4-1.8 5-4.2 7.9-5.9 1.2-.7 3.4-.5 4.7.2 2.3 1.3 4.4 3.3 6.4 5.1 2.2 1.9 1.4 5.8-1.4 6.4-6.1 1.4-12.4 2.7-17.6-5.8zM411.4 376.9c2.7-3.2 4.8-5.7 6.8-8.2 6.7 2.1 8.6 7.2 6.9 19.3-4.7-3.7-9.3-7.5-13.7-11.1z" fill="#fff"/>
  <path d="M358.9 319.4c-.1-.2-.7-1.6-1.2-3 .4-.3.9-.5 1.3-.8.8 1.5 2.4 2.9 2.4 4.4-.1 5.2-2.8 9.1-7.6 10.8-1.5.5-4.2-1.1-5.7-2.4-.6-.6-.2-3.8.7-4.4 3-1.8 6.4-3 10.1-4.6zM301 408.4c1.8-5.3 10.2-9.2 14.2-6.2 1.2.9 2.6 4 2.4 4.2-2 1.8-4.4 4.1-6.8 4.3-3.2.2-6.6-1.4-9.8-2.3zM418.9 424.5c3.7-10.4 7.3-11.1 19.8-3.3-7.2 1.2-12.6 6.1-19.8 3.3zM434.2 400.2c-2.1 2.5-3.7 4.6-5.5 6.3-.8.7-2.7 1.5-3.2 1.1-2.8-2.1-5.3-4.6-7.6-7.9 5.6 2.5 11.4-7.5 16.3.5zM415.8 365.3c-7.5 10.9-9.6 10.9-18.4 0h18.4zM186.1 455.2c10.5-1 21-2.1 31.6-2.9 1-.1 2.2 1.6 3.3 2.5-.3.5-.6.9-.9 1.4h-34.2c.1-.3.1-.6.2-1zM316.1 397.4c7.5-5.1 11.6-5.7 15.3-2.2-8.9 8.5-8.9 8.5-15.3 2.2zM200.8 314.3c6.8-4 13.6-7.9 20.4-11.8.3.4.6.7.9 1.1-2.7 2.4-5.4 4.8-8.2 7.2-1.8 1.5-3.9 2.8-5.4 4.5-3.2 3.7-5.5 3.1-7.7-1zM322.3 407.6c4.5 2.7 8.4 5.1 13.4 8.2-7.5 5.2-11.8-3-17.9-3.3 1.4-1.5 2.8-3.1 4.5-4.9zM338.8 342.8c1.5-4.1 3-8.3 4.7-12.9 2.1 1.2 3.8 2.2 6.6 3.8-3.5 3.4-6.6 6.5-9.8 9.7-.6-.2-1.1-.4-1.5-.6zM365.7 389.2c-6 5.1-13 5.6-16.9 2-.4-.4-.7-1.4-.5-1.9.1-.5 1-1.1 1.5-1.1 2.5.2 5 .8 7.5 1 2.3.1 4.6 0 8.4 0zM387.7 439.4c2.2 4.9 1.8 13.8-1.7 17v-17.1c.6 0 1.1.1 1.7.1zM233.1 367.3c-.5 4.5-1 9.1-1.7 14.8-7.5-6.5-1.8-10.6-.1-15 .7 0 1.2.1 1.8.2zM336.5 380.1c3.2 2.4 5.9 4.4 8.6 6.4-3.5 4.2-5.6 3.9-10.3-1.5.6-1.5 1.1-3 1.7-4.9zM373.9 405.2c-3 5.4-4.5 5-14.4-3 5.6 1.2 9.7 2.1 14.4 3zM392.7 431.4c-3.7.3-7.3.6-12.6 1 2.4-2.7 4-4.4 5.9-6.4 2.5 1.5 4.7 2.9 6.9 4.2 0 .4-.1.8-.2 1.2zM402.6 395.6c-3.8 1-7.3 1.9-11.7 3 5.9-8.2 5.9-8.2 11.7-3zM197.2 348.4c-2.3-1.5-4.5-3-6.8-4.4 0-.6.1-1.2.1-1.8 1.9-.3 4.6-1.5 5.7-.7 1.5 1.1 1.8 3.8 2.6 5.8-.4.3-1 .7-1.6 1.1zM457.2 342.9c4.6-5.8-1.2-6.6-3.4-9 .1-.5.3-1 .4-1.5 2.1.4 5.9.4 6.1 1.2.6 3 .1 6.2 0 9.3-1-.1-2.1-.1-3.1 0zM465.7 321h-10.8c-.1-.5-.3-1.1-.4-1.6 2.7-.8 5.3-2 8-2.3.9-.1 2 2.4 3.2 3.9zM405.5 402.4c-5 6.8-6.7 7.1-9.7 1.9 3-.6 5.9-1.2 9.7-1.9zM464.3 331.9c-3.1-1.9-5.8-3.5-8.7-5.3 6.8-1.9 8.2-1.1 8.7 5.3zM339.3 418.4c3.9 2.1 7.8 4.2 11.8 6.3-.2.5-.5 1-.7 1.5-4-1.9-8.1-3.8-12.1-5.6.2-.8.6-1.5 1-2.2z" fill="#fff"/>
  <path d="M196.4 186c-1.8 3.6-3.2 2.9-6.3 2-3.7-1-8.3 1.1-12.4 2-3 .7-6.1 1.5-8.8 2.8-1.3.7-2.4 2.8-2.5 4.3 0 1 2 2.5 3.3 2.9 5.2 1.7 10.5 3.1 16 4.7 0-1.2.1-1.6 0-1.8-1-1.8-2.1-3.7-3.1-5.5 2.3-.1 5.1-1 7-.1 3.7 1.7 6.9 4.5 10.9 7.2.4-.8 1.1-2.1 1.4-2.9 2-.3 3.8-.5 5.5-.9 11.3-2.9 16.1-1.4 20.5 6.7 1.8 3.2 1.6 5.5-2.6 7.5-4.1-4.6-5.4-14.2-15.2-10.7-.2 4.6-3.2 7.8-7.6 7.2-9.4-1.3-18.7-2.9-28-4.5-2.1-.4-4.2-1.3-6.2-2.3-5-2.3-8.3 1-11.8 3.5-2.9 2.1-4.9 2.6-5.8-2.1 3.4-1.6 6.8-3.3 10.2-4.9-3.4-7.8-2-9.9 7.3-11.1.8-.1 1.5-.9 2.2-1.5 6.9-6.1 15.3-4.6 23.4-4.4.7.2 1.5 1.1 2.6 1.9zM226.1 238.5c2.1 2.1 4.7 3.8 5.7 6.1.5 1.1-1.8 4.5-3.5 5.2-8.3 3.6-16.6 7.4-25.2 9.6-5.4 1.4-11.6.8-17.3-.2-8.7-1.4-17.8-2.8-25.8-6.2-5.8-2.4-10.2-8-15-12.5-.7-.6-.5-3.3.3-4.1 1.2-1.4 3.2-2 4.8-3 .7 1.4 1.2 2.8 2.1 4.1 1.5 2.4 2.8 5 4.8 6.8 5.6 5.2 12.7 6.8 20 7.4 10.1.8 20.3 2.1 30.4 1.6 5.1-.3 10.4-3.5 15.1-6.3 1.7-.9 2-4.4 3.6-8.5z"/>
  <path d="M188.8 215.9c.9 0 2-.3 2.7.1 1.5.8 2.8 1.9 4.2 2.9-1.6.6-3.2 1.7-4.8 1.6-4.9-.4-7.3 2.4-7.9 6.5-.5 3.3.9 5.8 5.2 5.9 1.4 0 2.7 2.3 4.1 3.6-1.8.8-3.8 2.6-5.3 2.3-4.8-.9-9.9-2-11.1-8.1-1.1-5.3 1.4-9.4 4.9-12.6 1.9-1.7 5.1-2.1 7.7-3.1.1.4.2.7.3.9zM202.3 221.8c4.6-3.7 17.2-1.1 18.5 2.4.4 1.2-2.1 4.8-2.2 4.8-5.5-2.2-10.9-4.7-16.3-7.2zM157.5 219.5c4.3-.5 8.5-1.2 12.8-1.3 1.1 0 2.3 1.7 3.4 2.6-1 .9-1.9 2.4-3 2.6-3.2.6-6.5 1.1-9.6.8-1.5-.1-2.9-2.1-4.3-3.3.1-.5.4-.9.7-1.4zM400.5 225.9c1.1 1.8 2.3 3.7 2.6 4.3 4.6-1.2 7.8-2 11-2.8.1 1.9 1 4.8.1 5.5-1.7 1.4-4.4 1.5-8 2.6-1.1 3-4.2 6.1-9.6 5.1-1.6-.3-3.9-1.3-4.3-2.5-.4-1.4.9-3.3 1.5-4.9 2.4 1.1 4.1 1.8 5.7 2.6-.2-1.7-.4-3.4-.5-5.2-.1-1.4 0-2.8 0-4.2.4-.1 1-.3 1.5-.5zM375.6 232.1c2.5-2.5 4.2-4.1 5.8-5.7 1.2 1.6 3.6 3.4 3.4 4.8-.3 1.8-2.4 3.6-4.2 4.7-.5.3-2.6-1.9-5-3.8zM442.5 319.3c-1.1.5-2.4 1.6-3.4 1.4-5.9-.9-11.7-2.6-17.6-3.1-5.8-.6-11.7-.1-17.5-.1-.2-.6-.5-1.3-.7-1.9 2.7-1.2 5.4-2.5 8.2-3.4 1.6-.5 3.4-.2 5.1 0 5.9.7 11.8 1.3 17.6 2.4 2.9.5 5.6 2.1 8.4 3.2-.1.4-.1.9-.1 1.5zM425.2 341.5c-3.4 4.4-28.1 7-40.3 5 2.1-1.4 3.4-3.1 4.8-3.2 6.7-.5 13.5-.6 20.3-1 2.9-.1 5.8-.6 8.7-.8 1.8-.1 3.6 0 6.5 0zM398.5 300.2c.5-.6 1-1.6 1.7-1.9 8.4-3.4 16.8-6.6 25.3-9.8.6-.2 1.6.8 2.4 1.3-.9 1-1.6 2.6-2.6 2.9-6.1 2.1-12.3 3.8-18.5 5.8-2.5.8-4.9 2.2-7.4 3.3-.3-.5-.6-1.1-.9-1.6zM436.1 324.3h-24.9c.5-1.1 1.1-3.3 1.7-3.3 7.3.1 14.7.5 22 .9.1 0 .3.6 1.2 2.4z"/>
  <text transform="translate(31.585 45.45)"><tspan x="0" y="0" font-family="Peanuts" font-size="36">I WOULD MUCH RATHER HAVE A</tspan><tspan x="0" y="43.2" font-family="Peanuts" font-size="36">PHOTOGRAPH OF YOURSELF TO</tspan><tspan x="0" y="86.4" font-family="Peanuts" font-size="36">HANG ON THE WALL OF MY ROOM&apos;</tspan></text>
  <text transform="rotate(-90 237.832 210.823)" fill="#010101" font-family="BaskervilleT-Bold" font-size="12">Copr 1951 by United Feature Syndicate, Inc.</text>
</svg>
