<svg xmlns="http://www.w3.org/2000/svg" viewBox="0 0 595.3 461.5" xml:space="preserve">
  <path fill="#fff" d="M0 0h594.4v461.5H0z"/>
  <path d="M595.3 311v149.4c-29.4 0-58.7.1-88.1 0-102.5-.3-205-.7-307.6-1.1-64.1-.2-128.2-.6-192.2-.8-3.8 0-6.5-.3-6.5-5.2.1-34 0-67.9-.1-101.9 0-8.3-.5-16.5-.8-24.8V0h235.2c.8.3 1.5.7 2.3.8 31.3.2 62.7.5 94 .6 25.4.1 50.9-.2 76.3-.2 20.9 0 41.9-.1 62.8.1 17.6.1 35.2.7 52.7.7 21.5 0 43-.2 64.5-.6 4.7-.1 6 1.5 5.9 6.1-.1 20.5.1 41 .1 61.6.2 72.2.3 144.4.5 216.7.2 8.2.7 16.7 1 25.2zM388.5 415.2c-3.1-.6-6.2-1.1-9.2-1.8-2.1-.4-4.1-1.1-6.2-1.6.1-.6.2-1.3.3-1.9-2.3.4-6 0-6.7 1.2-3 5.5-7.3 2-11.2 1.8 2.7-.7 5.4-1.4 8.2-2.2-5-4.3-11.1-4.7-17.1-3.8-4.4.7-8.3 1.3-13 .3-5.8-1.3-12.5-9.5-17.8 1-3.2-2-5.9-5.6-9.4-1.2.9.6 1.7 1 3.9 2.4h-14.7c-.1-.3-.1-.6-.2-.8 1.8-.5 3.6-1 5.4-1.6-.2-.5-.3-.9-.5-1.4-4 .8-9.7-2.7-11 5.1-.1.5-1 1.3-1.6 1.3-3.3.1-6.7.1-10.1.1v-2.2c1.5 0 3 .3 4.4-.1 1.9-.5 3.6-1.4 5.6-2.3-10.1-3.9-12.3-3.2-13 4.8-11.4 1-22.8 2-34.3 3-.1-.6-.2-1.2-.3-1.9 11-1.3 21.9-2.7 32.9-4-1.1-1.4-2.1-1.7-3.2-1.7-4.7-.1-9.3 0-14-.3-4.7-.4-9.4-1.6-14.1-1.8-2.1-.1-4.7 1.1-6.3 2.6-3.1 2.8-7.4 3.5-11.7.4h7.9c-.2-1.8-.9-2.9-1.8-3-3.1-.4-6.3-1.1-9.3-.5-3.3.7-8.9 2.5-9 4-.2 4.5-3.3 2.8-5.5 4.8-.4-8.2-5.6-5.5-9.7-5.7.9-.8 1.9-1.6 3.5-2.9-7.6-.6-9.3 6.5-12.5 8.7-1-2.1-1.2-4.1-2.3-4.8-7.1-4.9-13.9-4.5-19.8 2.2-1.2-1.6-1.9-3.4-2.8-3.5-3.3-.3-6.7-.3-10.1 0-7.4.6-14.7 2.2-22-.7-1.5-.6-3.3-.8-4.9-.6-10 1.6-19.9 3.4-29.9 5-3.3.5-6.6.5-9.9.8-.1-.4-.1-.9-.2-1.3 5.6-1 11.3-2 16.9-3-4.6-.5-9 0-13.5.6-2.1.3-4.2 1-6.3 1-7.7.2-15.5.3-23.2.4-.5 0-1.1.3-1.5.1-1.9-.8-3.8-2.3-5.8-2.5-3.4-.4-6.8-.1-10.2-.1H8.9c-.1 1.1-.2 1.9-.3 2.6-1.1 5.5-.5 6.1 5.1 5.2 6.3-1.1 12.5-2.4 18.8-3.2 3.8-.5 7.6-.1 12.4-.1-1.6 1.1-2.2 1.9-3 2-10 1.4-20 3-30.1 3.9-6.2.6-3.8 3.3-2.7 6.2 5.9-1.4 11.3-2.7 16.7-4 .3.4.5.8.8 1.2-1.1.6-2.1 1.4-3.3 1.7-4.2 1.2-8.4 2-12.5 3.6-1.1.4-1.8 2.8-2 4.4-.1.5 1.8 2.1 2.7 2 4.6-.5 9.3-1.3 13.9-2.1 6.4-1.2 12.8-2.5 19.1-3.7.1.7.3 1.4.4 2.1-12.5 2.5-25 5.1-36.6 7.4-.3 3.6-.6 6.3-.6 9 0 2.5-.6 5.3 3.8 5.3 12.2.1 24.4.8 36.6 1 11.1.2 22.3 0 33.4.1 3.3 0 6.6 1 9.8.9 6-.3 12.2-2.6 17.9-1.6 17.1 2.8 32.9-2.9 49.1-5.8 11.5-2 22.9-4.7 34.4-6.8 5.9-1.1 12-1.4 17.9-2.5 16.3-2.8 32.5-5.9 48.8-8.6 1.4-.2 3 1.1 4.6 1.6-6.5 1.8-12.5 2.6-18.4 3.5-6 .8-11.9 1.6-17.9 2.6-5.9 1-11.7 2.2-17.6 3.2-5.6.9-11.3 1.4-16.8 2.4-5.8 1-11.5 2.2-17.2 3.3-5.9 1.2-11.7 2.4-17.6 3.6-5.4 1.1-10.7 2.3-16.1 3.4.1.6.3 1.3.4 1.9 2.4 0 4.9.5 7.2-.1 5.1-1.3 9.9-.9 15.2-.3 7.4.9 15.1-.1 22.7-.8 6.6-.7 13.1-2.1 19.7-3.2l.3 1.8c-2.8.5-5.5 1-8.3 1.4 39.1 3.5 77.7-3 116.5-7-11.4 5.7-24.8 1.8-37.8 7.5h45.8c1.6-1 3-2.3 4.5-2.5 5.6-1 11.3-1.6 17-2.2.9-.1 1.9 1.2 2.9 1.9-.9.5-1.7 1.3-2.6 1.3-4.7.5-9.5.7-14.2 1.1-.7.1-1.3.6-3.3 1.6 7.4 0 13.3.3 19.2-.1 11-.7 21.9-1.9 32.9-2.6 1.8-.1 3.6 1.5 5.7 2.5.3-.5.9-1.6 1.4-2.4 2.1 1.2 3.8 3 5.5 3.1 8.2.3 16.5 1 24.5-.1 10-1.4 19.8-1.5 29.7-.1.8.1 1.7-.7 3.6-1.5-4.2-.6-7.4-.6-10.3-1.6-3.8-1.4-8-2.9-10.9-5.6-2.7-2.5-4.8-4.2-8.4-2.6.2 1.1.5 2.3.8 3.7h-8.7c.6-1 1.1-1.9 1.7-2.9-8.9-1.3-17.4-2.5-25.9-3.6 0-.4.1-.7.1-1.1 1.3-.7 2.6-1.3 4-2-4.5-1.3-8.9-1.6-13.3-2-7.3-.7-14.1 4.9-22-.1-3.5-2.3-9.7-.6-14.7-.3-11.3.6-22.6 1.4-33.9 2.1-.9.1-1.9-.3-2.8-.5.9-1.2 1.9-1.5 2.8-1.7 7.3-1.1 14.6-2.4 21.9-3.3 3.7-.4 7.5-.1 11.2-.1 5.7 0 11.3-.1 16.9-.3.4 0 .8-1.2 1.2-1.9-4.5-.7-8.6-1.3-12.6-1.9 8.4-3.6 16.5-2.2 24.7-2v2.1c-3.5.3-7 .7-10.6 1 .1.7.2 1.3.3 2 4.8-.3 9.6-.8 14.5-1 6.3-.3 12.6-.4 18.9-.5 1.5 0 3.1.6 4.6.4 3.1-.5 6.2-1.9 9.3-2 6.4-.3 7.7-1.7 6.2-8.2h-33.5c0-.3.1-.7.1-1 2.1-.7 4.1-1.6 6-2.5 1.1.5 2.2 1.7 3.3 1.6 8.2-.2 16.4-.7 24.7-1.1.3-1.9.6-3.6.9-5.8-9.8 1.8-19.3 3.5-28.9 5.3zM118.1 64.5c-1.4.5-2.9 1.2-4.4 1.3-8.2.8-16.5 1.8-24.8 2.1-11.7.4-23.5.6-35.3 0-13.3-.6-26.7-2-40-3.3-4.7-.4-6 1.4-6 6 .2 24.7.1 49.5.1 74.2v38.5c0 12.6.3 25.3-.1 37.9-.5 12.1.5 24.2.3 36.4-.6 40.6-.3 81.2-.2 121.8 0 7.6.6 15.3 1 23 1.6 0 2.4.2 3.1 0 12-3 23.8-1.6 35.9-.3 8.8 1 17.9-.5 26.9-.8 3.8-.1 7.6-.6 11.3-.3 5.8.4 11.5 1.3 17.7 2.1 0-13.9.1-26.5-.1-39.1 0-3.5-1.1-6.9-1-10.4.5-12.1 1.6-24.2 2.1-36.3.3-7.9.1-15.8.1-24.4 1.4.8 2.5 1.2 2.5 1.5-.6 36.1-1.2 72.2-1.8 109.3 2.5.2 4.9.5 7.4.4 6.8-.1 13.5-.4 20.3-.4 3.2 0 6.5 1.2 9.6.9 6.3-.4 12.7-.9 18.8-2.4 2.9-.7 7.4.7 8.6-4.9.7-3.1 3.4-1.3 4.5 1 2.1 4.3 4.4 3.7 6.9.5 2.3-3 5-4.6 9-4.1 2.3.3 4.8-.5 8.1-.9.2.9.8 3.1 1.6 6.2 2-1.8 3.7-3.4 5.9-5.4 1.3 2.8 2.5 5.3 3.7 7.8.9-1.6 1.6-3 2.6-4.7 1.4 1.6 2.5 2.7 4.1 4.6 3.5-3.3 6.7-6.3 10.9-10.2.3 3.9.5 7.1.6 9.4h20.6c3-5.1 2.9-5 7.9-.6.8.7 3.2.4 4.4-.3 1.2-.7 1.9-2.4 3.3-4.2 3.7 4.7 7.4 8.4 12.8 3 .5-.5 2.5-.4 3.2.2 4.2 3.2 8.2 4.6 13 1 .7-.5 2.5.1 3.6.6 4.4 2.2 8.7 2 13.5.8 5.6-1.4 11.1-6 17.3-1.6 8.9 6.3 18.5 2.3 27.9 1.6-.7-7.5-1.9-14.7-2.1-22-.6-22.8-.9-45.5-1.2-68.3-.1-10.8 0-21.6 0-32.4 0-1.6-.2-3.2-.4-5.3-2.7.5-4.8.9-7 1.3-3.1.6-5.2-.2-4.9-3.9.2-2.7.6-5.4.6-8-.1-7.8-.4-15.5-.5-23.3 0-.9 1.1-1.9 1.7-2.8 1.7 9.1 2 17.7 2.7 26.3.1 1.7 1.8 4.8 2.6 4.7 3.2-.2 6.4-1.4 6-5.7-.1-1.1-.8-2.1-.7-3.1.6-9.1 1.8-18.3 1.9-27.4.3-19.5.1-39 0-58.5 0-3.5-.9-6.9-1-10.4-.1-6.1.4-12.2.4-18.3 0-7.1-.4-14.3-.4-21.4-.1-9.2.1-18.4-.1-27.6-.2-9.6-.6-19.2-1.3-28.8-.1-1-2-2.5-3.3-2.7-8.1-1-16.3-1.5-24.4-2.5-6-.7-9.1 1.5-8.9 6.7.4 11.2.9 22.5 1 33.7 0 3.8-1 7.6-1.5 11.3-.5 0-.9-.1-1.4-.1-.1-1.7-.3-3.4-.3-5.2V67.6c0-3.4-.1-5.9-5.1-5.4-7.7.9-15.5 1-23.2 1.2-2.5.1-5-.6-7.4-.5-8.2.4-16.4 1.2-24.6 1.5-8.7.3-17.5.1-26.5.1.7 13.3 1.6 25.9 1.9 38.5.6 18.5.8 37 1.2 55.6.4 18.3 1.2 36.6 1 55-.2 17-1.7 33.9-2 50.8-.1 9.3 1.5 18.6 2 28 .5 9.3.7 18.6 1 28 .4 9.4.7 18.8 1.2 28.3.3 6.9.7 13.8 1.3 20.6.8 8.4 1.8 16.7 2.9 26.2-2.4-1.1-3.9-1.4-3.9-1.8-.3-5-.4-10.1-.5-15.2 0-1.6 0-3.3-.2-4.9-1.3-9.4-3.3-18.7-3.9-28.1-.9-15.7-.9-31.4-1.3-47.1-.1-2.8-.7-5.5-.9-8.2-.8-10.9-2.1-21.8-2.2-32.7 0-11.9 1.7-23.7 1.9-35.6.2-16.8-.3-33.6-.5-50.4-.1-6.6-.4-13.2-.4-19.8-.1-5.6 0-11.2 0-16.8 0-11.4.1-22.8-.1-34.2-.1-8.7-.7-17.3-1.1-26-.2-3.4-1.9-4.6-5.4-4.5-8.4.2-16.7-.1-25.1.1-9.8.2-19.5.8-29.3 1-3 .1-6.1-.6-9.1-.6-8.3-.1-16.6.4-24.8-.1-7-.4-10.2 1.4-9.9 7.1.1 3.2.2 6.4 0 9.5-1 12.4-2.4 24.8-3.3 37.2-1.3 18.2-2.2 36.5-3.4 54.7-.2 2.4-.8 4.7-1.2 7.1-.6 0-1.2 0-1.8-.1-.2-1.2-.6-2.5-.6-3.7.8-14.4 1.5-28.7 2.5-43.1 1.3-17.6 3-35.2 4.3-52.8 1.1-7.3 1.3-14.8 1.6-22zm100.3.2c2.9-2.5 4.6-5.3 6.4-5.3 9.9-.4 19.9 0 29.9-.1 8.8-.1 17.6-.4 26.3-.8 7.7-.4 15.4-1.5 23.1-1.4 11.6.2 23.2 1.3 34.7 2 4 .3 8.3 1.8 12 .9 6.3-1.6 6.8 2.4 6.9 6.3.3 7.3.1 14.7.1 22.1 0 14.5-.3 28.9.1 43.4.4 14.4 1.8 28.9 2 43.3.2 15.2-.6 30.4-.9 45.7-.3 13.2-.5 26.3-.9 39.5-.2 5.8-.8 11.5-.9 17.3-.2 7.7 0 15.4 0 22.4 6.4.5 13 .3 19.2 1.7 6.2 1.4 12 4.9 18.2 6.5 3.4.9 7.4-.9 10.9-.3 7.7 1.3 15.4 3.3 23.4 5.1 1.2-2.7 2.6-5.8 4-9-3.3-1.2-5.9-1.8-8.3-3.1-9.9-5-19-10.7-25-20.7-2-3.4-4.2-7.1-9.8-7.7-3.4-.4-8.1-4.8-9.1-8.2-1.1-4.1-4.9-9-.7-13.7.4-.5-.4-2-.5-3.1-.1-1.8-.7-4 .1-5.3 2.7-4.6 5.7-9 8.8-13.4.8-1.1 2.4-1.5 3.5-2.4 1.1-.9 2.2-1.8 2.9-3 6.6-10 8.5-22.1 16.2-31.8 8.7-10.9 20.4-16.4 33-18.9 9.9-2 20.8-1 30.9.5 7.9 1.2 15.9 4.1 22.8 8.1 11.2 6.5 18.9 16.8 24.3 28.5 4.4 9.5 5.4 20.3 11.5 29.3 1.9 2.9 1.4 7.5 1.6 11.3.4 8 .6 16 .7 24 0 .7-.9 1.6-1.6 2.2-2.5 2.2-5 4.6-7.8 6.6-3.4 2.5-7.1 4.4-11.7 2.9-1.3-.4-3.3.5-4.6 1.4-1.9 1.3-3.3 3.2-5.2 4.5-4.7 3.3-9.5 6.4-13 8.7.6 4.1 1.2 7.5 1.7 11 .3 2.5.4 5.1.8 7.6 1.8 11.1 4.4 22.2 5.4 33.4.8 9-.5 18.1-.6 27.2 0 3.6.9 7.2.8 10.8-.1 2.2-.6 5.6-2 6.5-3.3 1.9-3.7 4.1-2.9 7.3.5 1.9.7 4 .7 6 .1 6.5 0 13 0 19.6 27.9-.4 54.8-7.3 82.2-5.3-1.6 1-3.2 1.1-4.8 1.2-7.6.4-15.3.5-22.9 1.3-16 1.6-32 3.9-48 5.3-8.3.7-9.4 1.8-7.4 9.9.4 1.6-1.1 5.2-2.2 5.4-7 1.5-14.2 2.3-21.4 3.2-5.8.8-11.7 1.3-17.5 2 1 1.1 2.1 1.8 3.2 1.8 5.1 0 10.2 0 15.2-.3 9.1-.5 18.1-1.3 27.2-1.7 5-.2 10 0 15.8 0 1.1-.5 3.2-1.5 5.4-2.5.2.5.5 1 .7 1.5-.9.5-1.9 1.1-3.6 2h42c8.4 0 16.8 0 25.2-.3 1.2 0 3.1-2.1 3.2-3.4.4-4.6 1.4-9.6-4.8-12.7 5.6 0 6-3.2 5.9-6.5-.1-4.3-.8-8.7-.6-13 .4-7.5 1.7-14.9 1.8-22.4.1-10.8-.8-21.6-1-32.4-.3-13.1-.2-26.3-.5-39.4 0-1.4-2.2-4.1-2.4-4.1-5.2 2.5-10.4 1.8-15.8.5-2.8-.6-5.9-.8-8.6-.1-8.8 2.4-17.5 2.7-26.2-.1-9.3-3-18.7-5.2-28.5-4.3-3.3.3-6.6.8-9.9 1.2 0-.7-.1-1.5-.1-2.2 14.7-5.8 29.3-1.8 43.9 2.4-.3-.6-.5-1.1-.8-1.7 1.9-1.4 3.9-2.8 5.7-4.1 1.3 1.3 2.3 2.4 3.9 4.1-.6-5.8 3.5-11.5 7.2-11.7.2-2.9.4-5.8.7-8.8h2c.8 4 1.6 8.1 2.5 13.1 1.9-5.4 3.4-9.8 5.2-15 1.7 3.7 3.1 6.8 4.5 9.8.4-.2.8-.3 1.2-.5.3-2.2.6-4.3.9-6.5.8 0 1.6.1 2.4.1-.4 5.7-.8 11.4-1.2 18.1 3-6.3 5.6-11.8 8.8-18.5.7 3.3 1.1 5.1 1.5 6.8 1.7-1.8 2.6-3.6 2.6-5.5.4-11.4.9-22.8.7-34.3-.3-20.9-1.3-41.9-1.7-62.8-.3-15.8-.1-31.6-.1-47.5V8c-29.7 0-58.7-.1-87.7.1-9.2 0-18.4 1-27.6 1-9.8 0-19.5-.9-29.3-1-10.2 0-20.5.8-30.7.8-11.2 0-22.4-.9-33.5-.8-16.2.1-32.5.8-48.7 1-10.7.1-21.4-1-31.9 0-10.6 1-21-1.5-31.8-.3-12.2 1.2-24.8.2-37.3 0-12.4-.2-24.8-1-37.2-.9-29.2.2-58.3 1-87.5 1-29.3 0-58.6-.7-88-1-.9 0-2 .3-2.8-.1-5.3-2.3-5.6.7-5.6 4.9.1 14.2 0 28.4.1 42.5 0 1.6.2 3.2.3 4.9 19.7 1.2 39 2.7 58.3 3.3 12.9.4 25.9-.6 38.8-1 .7 0 1.5-.2 2.2-.2 5.6 0 12.4-5.1 16.1 3.7.3.6 2.1.9 3.2.9 8.9-.2 17.7-.5 26.6-.8 12.6-.4 25.1-1 37.7-1.3 9.5-.2 19 0 27.4 0zm290.7 218.5c-6.1-3.1-9.4-5.4-5.7-10.3.3-.4.4-1.1.2-1.5-2.9-6-1.5-11.8.2-17.7 2.3-7.7 3.1-16.1 10.8-21.2 1.3-.9 2.7-3.3 2.4-4.6-1.9-7.5-2.9-15.7-6.7-22.1-9-14.9-24-19.5-40.6-19.9-4.4-.1-8.9-1-13.2-.6-7.6.7-15.6.9-22.5 3.5-15 5.7-26.2 15.7-32 31.5-6.7 18.2-9.8 35.7.7 54 7.7 13.4 19.3 19.6 33 23.2 9.9 2.5 19.6 4.1 30.4 2.5 9.2-1.3 18.6-1.7 27-5.8 5.3-2.7 9.9-6.8 16-11zm-103.9 47c-3.7 6.1-8.9 7.6-14.5 6-6.4-1.9-11.5-.4-15.1 4.6-3.3 4.6-7.4 3.8-11.6 3.3-1.4-.1-2.7-.7-4.2-1.1-.6 5.1-1.7 9.7-1.7 14.3.1 12.9.9 25.8 1 38.6.1 7.9 5.3 12.8 11.8 9.6 4.8-2.4 8 .2 11.9 1.2 3 .8 6.5 2.5 9.2 1.7 8-2.2 15.7-5 24.5-2.8v-21.2c-2.6 2-4.3 3.3-5.9 4.8-1.9 1.8-3.8 3.6-5.8.3-3.1-5.1-5.9-10.4-9.2-15.4-1.7-2.6-2.4-4.5-.1-7.1 2.3-2.5 2.5-5.3 1.6-9-1-4.3-1.8-9.6 2.6-13.5 6.7 1.6 2.8 9.3 7.4 12.3 2-3.5 5-6.8 5.9-10.5 2.8-11.3 6.6-22 13.3-30.9-4.1 0-8.9 1.4-12-.3-6.6-3.6-13.4-.9-19.8-2.5-5-1.2-10.8-1.5-14.8-4.3-6.8-4.7-13.7-5.5-21.6-4.8v37.4c7.6.6 13.5 1.3 18-5 3.3-4.6 8.3-4.8 13.7-3.9 3.1.5 6.4-.6 9.7-.9 1.9-.4 3.8-.6 5.7-.9zm47-5.1c-.6 3.2-.7 6.2-1.8 8.8-4.5 11.5-4.2 23.5-3.3 35.5.1.8 2.2 1.8 3.5 2.2 2.4.6 4.9.8 7.4 1.1-.1.6-.2 1.1-.3 1.7-3.9.2-7.8.3-11.7.5v2c6 .3 11.9 1.1 17.9.9 7.4-.3 8.2-1.4 8.8-9.7.7-9.4 1-18.8 1.7-28.2.1-1.5 1.6-3 2.4-4.4.5.2 1 .3 1.5.5v11c6-.8 11.5-1.9 15 4.6.4-.5.8-1 1.2-1.4-1.4-9.8-2.8-19.7-4.2-29.7-5.3 4.3-10.4 8.1-15.2 12.2-5.9 5.1-9.1 5.2-12.8-1.8-2.4-4.5-5.3-5.9-10.1-5.8zm-31.9 46.4c5.6-.5 9.8-1.4 13.9-1 6.7.7 7.2.7 7.2-5.5 0-8.6-.5-17.2 3-25.5 1.6-3.7 1.7-8 2.4-12-3.7.8-5.8 2.3-8 3.4-1.3.6-3.3 1.1-4.2.5-4.4-3.1-5.8-.8-6.7 3.2-2.4 12.1-5 24.3-7.6 36.9zm52.6-43.9c9-2.7 16.6-14.2 14.6-21.7-7.7 4.5-15.5 9.1-23.2 13.5 2.5 2.5 5.5 5.3 8.6 8.2zm16.4 115.2c.1-.6.1-1.2.2-1.9-.9-.6-1.8-1.7-2.6-1.6-8.4 1.1-16.9 1.9-25.1 3.7-4.9 1.1-9.3 2.3-14.3.4-3.3-1.3-7-1.7-10.6-2.5l-.3 1.5c17.6 6.8 35.1 5.2 52.7.4zm-4.8-44.3c3-6 3-6 7.2-2.2 1.1-1.5 2.3-3 3.7-4.7-.4-1.1-.6-3.2-1.7-4.7-.9-1.3-2.7-2.7-4.3-2.9-3.1-.3-6.3.3-10.6.6-.7 2.7-1.7 6.6-2.8 10.6.5.3 1 .7 1.5 1 .7-1.7 1.4-3.3 2-5 .5.3 1.1.6 1.6.8 1.2 2.4 2.3 4.5 3.4 6.5zm-71.3-202.3c16.5-14 36.1-17.4 56.9-16.8-20.3-4.3-45.6.1-56.9 16.8zM443 320.6c-3-2.6-4.5-3.8-6.5-5.5 1.1-1.8 2.4-3.5 3.3-5.5.6-1.3.6-2.9.9-4.4-1.5.5-3.9.6-4.4 1.6-2.6 5.2-4.8 10.6-6.9 16-.2.5 1.7 2.5 2.2 2.3 3.5-1 6.8-2.5 11.4-4.5zm-25 58.8c15.6 4 16.4 4 18.6.3-2-1.1-4-2.2-6-3.2.1-.5.2-1 .4-1.5h9.3c-11-3.3-20.5-1.3-22.3 4.4zm76.7-18.4h-16.2c-2 4.4.9 6.8 4.9 7.8 3.5.9 7.3.6 11.3.9V361zm-21.1 24.1v-2c-4.3-2.4-28.8-2.8-31.2-.2 5.3 4.3 11.3 2.2 17 2.1 2.3 0 4.6-.4 6.9-.4 2.4.1 4.8.3 7.3.5zm-47.9-57.6c-.8-.3-1.5-.5-2.3-.8-3 9.4-6 18.8-9.2 28.9.5.2 1.8.8 3.2 1.4 2.9-10.3 5.6-19.9 8.3-29.5zm67.4 51.5c.4-.6.8-1.2 1.3-1.8-1.1-.9-2.2-2.4-3.4-2.6-3.5-.7-7.2-1.1-10.8-1.1-1.4 0-2.8 1.5-4.2 2.4 1 1 2 2.8 3.1 2.9 4.7.4 9.4.2 14 .2zM480 304.9c-7 1.4-14.5 1.2-20.5 8.2 8.9.1 15.2-2.8 20.5-8.2zm-33.4 12.7c2.5-4.3 4.3-7.4 6-10.4-3.2 1.3-8.3-1.2-8.7 4-.2 1.8 1.5 3.8 2.7 6.4zm-46.5 117.5c6.4 1.6 11.4 2.8 16.5 4.1.1-.6.3-1.1.4-1.7-5.4 0-9-7.2-16.9-2.4zm45.1-.4-.3-1.5c-5.4 3.3-12.8-2.1-18.1 5.1 6.6-1.3 12.5-2.4 18.4-3.6zm33.7-85.6-.3 2.7c3.7.6 7.4 1.3 11.1 1.9.2-.8.3-1.6.5-2.3-3.8-.7-7.5-1.5-11.3-2.3z"/>
  <path d="M0 326.6c.3 8.3.8 16.5.8 24.8.1 34 .2 67.9.1 101.9 0 4.9 2.7 5.2 6.5 5.2 64.1.2 128.2.5 192.2.8 102.5.4 205 .8 307.6 1.1 29.4.1 58.7 0 88.1 0-.2.4-.4 1.1-.6 1.1-1.5.1-3 0-4.5 0H-.1c.1-45 .1-89.9.1-134.9zM595.3 311c-.3-8.5-.7-17-.8-25.5-.2-72.2-.3-144.4-.5-216.7 0-20.5-.3-41-.1-61.6 0-4.5-1.2-6.1-5.9-6.1-21.5.4-43 .7-64.5.6-17.6 0-35.2-.6-52.7-.7C449.9.9 428.9.9 408 .9c-25.4 0-50.9.3-76.3.2-31.3-.1-62.7-.3-94-.6-.8 0-1.5-.5-2.3-.8h360.1c-.2 104-.2 207.6-.2 311.3z" fill="#fff"/>
  <path d="M118.1 64.5c-.4 7.2-.5 14.7-1.1 22.2-1.4 17.6-3 35.2-4.3 52.8-1.1 14.3-1.7 28.7-2.5 43.1-.1 1.2.4 2.4.6 3.7.6 0 1.2 0 1.8.1.4-2.4 1-4.7 1.2-7.1 1.2-18.2 2.1-36.5 3.4-54.7.9-12.4 2.3-24.8 3.3-37.2.3-3.2.2-6.4 0-9.5-.2-5.6 2.9-7.5 9.9-7.1 8.3.5 16.6 0 24.8.1 3.1 0 6.1.7 9.1.6 9.8-.2 19.5-.8 29.3-1 8.4-.2 16.7.1 25.1-.1 3.5-.1 5.2 1.1 5.4 4.5.4 8.7.9 17.3 1.1 26 .2 11.4.1 22.8.1 34.2 0 5.6-.1 11.2 0 16.8.1 6.6.3 13.2.4 19.8.2 16.8.8 33.6.5 50.4-.2 11.9-1.9 23.7-1.9 35.6 0 10.9 1.3 21.8 2.2 32.7.2 2.8.8 5.5.9 8.2.4 15.7.4 31.5 1.3 47.1.5 9.4 2.6 18.7 3.9 28.1.2 1.6.2 3.3.2 4.9.1 5.1.2 10.1.5 15.2 0 .4 1.4.7 3.9 1.8-1.1-9.5-2.1-17.8-2.9-26.2-.6-6.9-1-13.7-1.3-20.6-.5-9.4-.8-18.8-1.2-28.3-.4-9.3-.5-18.7-1-28s-2.1-18.7-2-28c.2-17 1.8-33.9 2-50.8.2-18.3-.6-36.6-1-55-.4-18.5-.6-37-1.2-55.6-.4-12.6-1.3-25.2-1.9-38.5 8.9 0 17.7.2 26.5-.1 8.2-.2 16.4-1.1 24.6-1.5 2.5-.1 5 .6 7.4.5 7.7-.3 15.5-.3 23.2-1.2 5-.6 5.1 2 5.1 5.4v40.7c0 1.7.2 3.4.3 5.2.5 0 .9.1 1.4.1.5-3.8 1.6-7.6 1.5-11.3-.1-11.2-.6-22.5-1-33.7-.2-5.1 3-7.4 8.9-6.7 8.1 1 16.3 1.5 24.4 2.5 1.2.2 3.2 1.7 3.3 2.7.6 9.6 1.1 19.2 1.3 28.8.2 9.2 0 18.4.1 27.6.1 7.1.4 14.3.4 21.4 0 6.1-.4 12.2-.4 18.3 0 3.5.9 6.9 1 10.4.1 19.5.3 39 0 58.5-.1 9.1-1.3 18.3-1.9 27.4-.1 1 .6 2.1.7 3.1.4 4.4-2.8 5.5-6 5.7-.8.1-2.5-3-2.6-4.7-.7-8.6-1-17.2-2.7-26.3-.6.9-1.7 1.9-1.7 2.8.1 7.8.4 15.5.5 23.3 0 2.7-.4 5.3-.6 8-.3 3.7 1.8 4.5 4.9 3.9 2.1-.4 4.2-.8 7-1.3.1 2.1.4 3.7.4 5.3 0 10.8-.1 21.6 0 32.4.3 22.8.6 45.6 1.2 68.3.2 7.3 1.3 14.5 2.1 22-9.5.7-19 4.6-27.9-1.6-6.3-4.4-11.7.3-17.3 1.6-4.8 1.2-9.1 1.4-13.5-.8-1.1-.5-2.9-1.1-3.6-.6-4.7 3.6-8.8 2.2-13-1-.7-.6-2.6-.7-3.2-.2-5.4 5.3-9.1 1.7-12.8-3-1.3 1.8-2 3.5-3.3 4.2-1.2.7-3.6 1-4.4.3-5-4.3-4.9-4.5-7.9.6h-20.6c-.2-2.2-.4-5.5-.6-9.4-4.1 3.9-7.4 6.9-10.9 10.2-1.6-1.8-2.7-3-4.1-4.6-.9 1.7-1.7 3.1-2.6 4.7-1.2-2.5-2.3-5-3.7-7.8-2.2 2-3.9 3.5-5.9 5.4-.8-3.1-1.4-5.2-1.6-6.2-3.3.4-5.8 1.2-8.1.9-4-.5-6.7 1.1-9 4.1-2.5 3.3-4.8 3.8-6.9-.5-1.1-2.3-3.9-4.1-4.5-1-1.2 5.6-5.7 4.2-8.6 4.9-6.1 1.5-12.5 2-18.8 2.4-3.2.2-6.4-.9-9.6-.9-6.8 0-13.5.3-20.3.4-2.5 0-4.9-.3-7.4-.4.6-37.1 1.3-73.2 1.8-109.3 0-.3-1.1-.7-2.5-1.5 0 8.7.3 16.6-.1 24.4-.5 12.1-1.5 24.2-2.1 36.3-.2 3.4.9 6.9 1 10.4.1 12.6.1 25.2.1 39.1-6.2-.7-11.9-1.6-17.7-2.1-3.7-.3-7.5.2-11.3.3-9 .4-18.1 1.8-26.9.8-12.1-1.3-23.9-2.7-35.9.3-.7.2-1.5 0-3.1 0-.3-7.8-1-15.4-1-23-.5-40.8-.8-81.4-.2-122.1.2-12.1-.8-24.2-.3-36.4.5-12.6.1-25.3.1-37.9v-38.5c0-24.7.1-49.5-.1-74.2 0-4.6 1.3-6.4 6-6 13.3 1.2 26.6 2.7 40 3.3 11.7.5 23.5.3 35.3 0 8.3-.3 16.5-1.3 24.8-2.1 1.4 0 2.9-.8 4.3-1.2zM87.5 193.1c-.9-.1-1.7-.2-2.6-.3-15.5 35.4-24.9 72.7-35.2 110.3 4.8-.1 7.4-.6 8.4-5.4 2.4-10.8 5.7-21.5 8.7-32.1 3.4-11.9 6.9-23.9 10.4-35.8 1.2-4.1 2.7-8.1 4-12.1 1.3 2.3 1.5 4.6 1.5 6.9.2 8.9.3 17.7.7 26.6.3 8.1.7 16.3 1.5 24.4.2 1.8 2.1 3.5 3.2 5.2 1.3-.8 3.5-1.4 3.9-2.6 4.8-13.8 9.3-27.6 13.8-41.5 1.7-5.2 3.1-10.5 4.6-15.7.5 0 1.1.1 1.6.1 2.3 30.6 4.5 61.1 13 91.4 2.4-2.1 5.8-4.8 5.5-7.1-1.5-12.6-4.2-25.1-5.8-37.8-2.5-19.9-4.5-40-6.7-59.9-.5-4.6-1.1-9.2-1.6-13.8-.8 0-1.6-.1-2.4-.1-7.6 8.8-6.8 20.9-11 31-4.4 10.3-6.5 21.5-9.6 32.4-1.4-1.2-1.9-2.3-1.8-3.4.1-5 .8-10 .5-14.9-.6-12.3-1.4-24.6-2.4-36.9-.3-3-1.4-5.9-2.2-8.9zm-46.3 16.8c-.4 0-.8 0-1.1-.1.4-2.2.9-4.5 1.1-6.7.9-10.4 3.7-12.4 14-10 .7.2 1.6 1 1.9.7 1.8-1.3 4.7-2.7 5-4.4.8-4.4-2.9-5.2-6.3-5.5-12.1-1.1-24.3-2.4-36.4-3.1-1.9-.1-4.9 1.9-5.7 3.7-1.2 2.6.1 4.8 3.6 5.2 3.6.4 7.2 1 10.6 2.1 1.7.5 4.2 2.1 4.2 3.4.4 6.3.5 12.7.1 19-.9 17.4-2.2 34.8-3.3 52.2-.7 11.1-1.8 22.1-1.9 33.2 0 2.3 3.1 5.8 5.4 6.5 3.5 1.1 2.9-2.6 3.1-4.9.3-4.4.8-8.7 1.1-13.1.8-12.3 1.5-24.6 2.2-37 1-13.7 1.7-27.4 2.4-41.2zm123.3-6.3c-.5.2-1.1.5-1.6.7-1.4 4.4-2.7 8.8-4.1 13.1-2.7 8.4-4.9 17.1-8.5 25.1-3.8 8.3-4.2 18.4-12.2 24.7-.7.5-.4 2.2-.5 3.4-.1 1.9.3 4-.1 5.8-1 4.6-2.5 9.1-3.4 13.7-.3 1.2.6 2.7 1 4.1.5.1 1 .2 1.5.2.9-1.6 2.2-3.2 2.7-4.9 1.3-4.1 2.7-8.2 3.2-12.4.4-3.9 2-4.2 5.4-4 6.3.4 12.6.3 18.8-.2 4.7-.4 6.2 1.1 6.5 5.9.3 5.1 2.1 10.1 3.2 15.2.8 0 1.6-.1 2.3-.1.5-2.6 2.2-5.6 1.4-7.6-3.3-7.5-1.6-15.5-3.8-23.3-2.9-9.9-3.3-20.5-4.8-30.8-1.2-7.8-2.3-15.7-3.8-23.5-.2-1.7-2.1-3.3-3.2-5.1zm51.6 17.6c.5.7 1.1 1.3 1.6 2 .7-2.8 1.4-5.6 2.2-8.4-2-.2-4-.5-6-.7-1.3-.1-2.6.1-3.9 0-12.1-1.5-23.3 9.9-26.9 21-2.3 7.1 1.5 14.1 8.1 15.9 3.5.9 7.3 1 10.7 2.2 4.1 1.5 8.9 3 11.6 6.1 3.2 3.7-.3 13.6-5.3 18-6.2 5.6-12 6.5-19.1 2-.3 3.4-.6 6.3-.8 9.3 3.2-.3 5.8-.4 8.3-.7 11.2-1.4 16.1-10.3 21.3-18.5 1.6-2.5 1.9-6.1 1.7-9.2-.5-6.8-5.8-11.8-13.6-13.8-4.2-1.1-8.5-2-12.6-3.2-6.2-1.7-7.7-6.3-4.9-12 4.7-9.3 12.4-12.6 22.2-12.1 1.8.2 3.6 1.4 5.4 2.1zM303.4 67c-1 .1-2.1.1-3.1.2.2 4.4.7 8.7.6 13.1-.1 18.6.1 37.2 3.2 55.6 1.9 11.2 2.5 22.6 3.4 33.9.3 3.8-.1 7.8-.3 11.6-.2 5.9-.6 11.8-.6 17.7 0 1.3 1.2 2.5 2.5 5 .7-3 1.3-4.3 1.2-5.7-1.1-14.8 1.9-29.7-1.4-44.5-1.7-7.6-1.9-15.5-2.4-23.3-.9-15-1.6-30-2.3-45-.2-6.1-.5-12.3-.8-18.6zm5.5 162.5c-5.7 16.2-11.5 32.3-17.2 48.5.9.3 1.8.7 2.6 1 1.5-3.6 3-7.1 4.7-11.3 3.4.3 7.7.4 12 1.1.9.2 1.8 2.4 2.2 3.8.9 2.8 1.5 5.7 2.5 9.5 4-5.1.3-33.4-6.8-52.6zm-32.4-14.3c.6-.1 1.3-.2 1.9-.3v-5c-.3-11.6-.8-23.2-.8-34.8 0-8.2 1.1-16.4.9-24.5-.2-7.5-1.6-15-2.5-22.4-1.6-12.7-1.7-25.5 0-38.2.1-.9-1-2-1.5-3.1-.5.1-1 .3-1.5.4-.7 9.3-2.2 18.7-2 27.9.5 16.5 2.4 33 3 49.5.4 11.1-1 22.3-.8 33.5.2 5.6 2.2 11.3 3.3 17zm-17.9 48.5c0 8.4 7.2 15.8 14 13.6 3.2-1 6.2-3.7 8.4-6.3 6.2-7.4 5.3-23.5 1.2-31.4-2.2-4.2-6.1-5.1-9.9-1.9-2.5 2.1-4.5 4.9-6.5 7.6-4 5.5-7.5 11.2-7.2 18.4zm9.1-29.8c-2-2.1-2.6-3.3-3.2-3.3-8.1.4-16.3 1-24.4 1.8-.6.1-1.3 2.2-1.2 3.3 0 .6 1.6 1.4 2.6 1.5 1.8.2 3.6.1 6.2.1v40.8c.6.1 1.3.2 1.9.3.8-1.3 2.2-2.6 2.2-3.9-.1-9.9-.5-19.8-.6-29.7-.1-6.5 2-8.2 8.8-8.6 2.2-.1 4.4-1.3 7.7-2.3zM161.2 92.8c-.5-.1-1.1-.3-1.6-.4-.8 2.8-2.4 5.7-2.2 8.5.9 17.1 2 34.3 3.4 51.4.3 4.1 1.7 8.1 3.1 12 .6 1.6 2.6 2.7 4 4.1 1.2-1.2 3.1-2.3 3.5-3.7 1.9-7.1 3.4-14.3 5.1-21.4-.8-.2-1.5-.5-2.3-.7-1.8 7.1-3.5 14.3-5.3 21.4-.6-.1-1.3-.2-1.9-.3-7-23.2-6.2-47.1-5.8-70.9zm18.2 90.8c.4.2.8.3 1.2.5.7-.9 1.9-1.7 2-2.7 1.6-9.7 3.3-19.4 4.4-29.1.2-2.3-2.6-4.7-3-7.2-.8-5.4-.7-11-1.3-16.5-1.4-12.4-2.8-24.7-4.6-37-.5-3.1-2.7-5.9-4.1-8.9-.4.2-.9.4-1.3.5.2 1.6.4 3.2.7 4.8 2.1 10.1 4.4 20.2 6.2 30.4 1.1 6.1 1.4 12.4 2.2 18.6.7 6.5 2.2 12.9 2 19.4-.1 6.4-1.8 12.7-2.8 19-.5 2.7-1 5.4-1.6 8.2zM170 374.4c-.5.1-1 .1-1.5.2-8.4-21.4-6.2-44.5-8.8-66.9-1.5 2-2.5 4-2.4 5.9.1 5.1.6 10.2 1 15.3 1.1 11.5 1.9 22.9 3.6 34.3.7 4.7 3 9.2 4.9 13.6 1.6 3.9 4.1 2.1 5.1-.1 2.4-5.3 2.7-10.9 1.4-16.5-.5 0-1.1-.1-1.6-.1-.6 4.8-1.1 9.6-1.7 14.3zm112.1 6.2c.5-.3 1-.5 1.5-.8-4.8-25.8 2.7-52.3-4-78-.8 4-.9 8.1-.8 12.1.3 9.6 1.8 19.3.8 28.7-1.2 11.3-1 22.4.4 33.6.1 1.5 1.3 2.9 2.1 4.4zm-229-215.2c.6-21.3 1.2-42.9 1.8-63.8-5.5 5.8-7 58.6-1.8 63.8zm274.7 77.1c-3.7 1.6-6.6 20.8-5.1 32.9 2.7.3 5.6 1.1 8.4.7 1.2-.1 2.2-2.5 3.2-3.9-1.2-.8-2.6-2.4-3.6-2.2-4.6.9-5-.5-4.4-4.9 1.1-7.3 1.1-14.9 1.5-22.6zm-284-88.3c-5.3-21.1-2.4-40.8 5.4-60-10.9 9.4-14.1 53.1-5.4 60zm136.4 177c-.6.1-1.3.2-1.9.3.7 8.9 2 17.8 1.8 26.7-.3 10.2 3 20.9-3.6 30.7 1.7-.3 3.4-.8 3.9-1.9 1.3-2.9 2.8-6.1 2.7-9.2-.2-11.8-.8-23.6-1.5-35.3-.2-3.8-.9-7.6-1.4-11.3zM69.7 367.3c4.4-6.5 3-44.5-2.2-51.4.8 17.6 1.5 34 2.2 51.4zM41 85c-6.4 11.7-11.8 23.4-8.8 38 3.1-13.4 5.9-25.7 8.8-38zm15.9 303.7c-1.3-13.5-2.4-25.8-3.6-38.6-3.1 11.4-1.5 31.1 3.6 38.6zm8-17.7c.4 0 .9-.1 1.3-.1.2-4.1.7-8.3.6-12.4-.1-3.9-.8-7.8-1.2-11.7-.6.1-1.2.1-1.9.2.4 8.1.8 16 1.2 24z" fill="#fff"/>
  <path d="M388.5 415.1c-1.9 1-3.9 1.9-5.8 2.9 0 .3-.1.7-.1 1h33.5c1.5 6.5.2 7.9-6.2 8.2-3.1.2-6.1 1.5-9.3 2-1.5.2-3.1-.4-4.6-.4-6.3.1-12.6.2-18.9.5-4.8.2-9.7.6-14.5 1-.1-.7-.2-1.3-.3-2 3.5-.3 7-.7 10.6-1v-2.1c-8.2-.2-16.3-1.6-24.7 2 4 .6 8.1 1.2 12.6 1.9-.4.7-.8 1.9-1.2 1.9-5.6.2-11.3.2-16.9.3-3.7 0-7.5-.3-11.2.1-7.3.9-14.6 2.2-21.9 3.3-.9.1-1.9.5-2.8 1.7.9.2 1.9.5 2.8.5 11.3-.7 22.6-1.5 33.9-2.1 5-.3 11.2-2 14.7.3 7.9 5 14.8-.6 22 .1 4.4.4 8.8.7 13.3 2-1.3.7-2.6 1.3-4 2 0 .4-.1.7-.1 1.1 8.5 1.2 17 2.4 25.9 3.6-.6 1-1.2 1.9-1.7 2.9h8.7c-.3-1.4-.5-2.5-.8-3.7 3.7-1.6 5.7.1 8.4 2.6 2.9 2.7 7 4.2 10.9 5.6 2.8 1 6 1 10.3 1.6-1.9.8-2.8 1.7-3.6 1.5-9.9-1.4-19.7-1.3-29.7.1-8 1.1-16.3.4-24.5.1-1.7-.1-3.4-1.8-5.5-3.1-.5.9-1.1 2-1.4 2.4-2.1-.9-3.9-2.6-5.7-2.5-11 .7-21.9 1.9-32.9 2.6-5.9.4-11.8.1-19.2.1 2-1 2.6-1.6 3.3-1.6 4.7-.4 9.5-.6 14.2-1.1.9-.1 1.8-.9 2.6-1.3-1-.7-2-2-2.9-1.9-5.7.5-11.3 1.2-17 2.2-1.5.3-2.9 1.6-4.5 2.5h-45.8c12.9-5.7 26.4-1.8 37.8-7.5-38.8 4-77.4 10.5-116.5 7 2.8-.5 5.5-1 8.3-1.4l-.3-1.8c-6.5 1.1-13.1 2.5-19.7 3.2-7.5.7-15.3 1.8-22.7.8-5.3-.7-10.1-1-15.2.3-2.2.6-4.8.1-7.2.1-.1-.6-.3-1.3-.4-1.9 5.4-1.1 10.7-2.3 16.1-3.4 5.9-1.2 11.7-2.4 17.6-3.6 5.7-1.2 11.4-2.4 17.2-3.3 5.6-.9 11.3-1.5 16.8-2.4 5.9-.9 11.7-2.2 17.6-3.2 5.9-1 11.9-1.7 17.9-2.6 6-.8 11.9-1.6 18.4-3.5-1.5-.6-3.2-1.9-4.6-1.6-16.3 2.8-32.5 5.8-48.8 8.6-5.9 1-12 1.4-17.9 2.5-11.5 2.1-22.9 4.8-34.4 6.8-16.2 2.9-32 8.6-49.1 5.8-5.7-.9-11.9 1.3-17.9 1.6-3.2.2-6.5-.8-9.8-.9-11.1-.1-22.3.1-33.4-.1-12.2-.2-24.4-.9-36.6-1-4.4 0-3.8-2.8-3.8-5.3 0-2.7.3-5.4.6-9 11.5-2.3 24.1-4.9 36.6-7.4-.1-.7-.3-1.4-.4-2.1-6.4 1.2-12.7 2.6-19.1 3.7-4.6.8-9.2 1.6-13.9 2.1-.9.1-2.8-1.4-2.7-2 .2-1.6.9-4 2-4.4 4-1.5 8.3-2.3 12.5-3.6 1.2-.3 2.2-1.1 3.3-1.7-.3-.4-.5-.8-.8-1.2-5.4 1.3-10.8 2.6-16.7 4-1.1-2.9-3.5-5.6 2.7-6.2 10.1-.9 20.1-2.5 30.1-3.9.8-.1 1.4-.9 3-2-4.8 0-8.7-.4-12.4.1-6.3.8-12.5 2.1-18.8 3.2-5.6 1-6.3.3-5.1-5.2.1-.7.2-1.5.3-2.6h32.8c3.4 0 6.9-.3 10.2.1 2 .2 3.8 1.7 5.8 2.5.4.2 1-.1 1.5-.1 7.7-.1 15.5-.2 23.2-.4 2.1-.1 4.2-.7 6.3-1 4.4-.6 8.9-1.2 13.5-.6-5.6 1-11.3 2-16.9 3 .1.4.1.9.2 1.3 3.3-.2 6.7-.3 9.9-.8 10-1.6 19.9-3.4 29.9-5 1.6-.2 3.4 0 4.9.6 7.3 2.9 14.6 1.3 22 .7 3.3-.3 6.7-.3 10.1 0 .9.1 1.6 1.9 2.8 3.5 5.9-6.7 12.7-7.1 19.8-2.2 1.1.8 1.3 2.7 2.3 4.8 3.2-2.2 4.9-9.4 12.5-8.7-1.6 1.3-2.6 2.1-3.5 2.9 4.2.2 9.3-2.5 9.7 5.7 2.2-2 5.3-.3 5.5-4.8.1-1.5 5.7-3.4 9-4 3-.6 6.2.1 9.3.5.8.1 1.5 1.2 1.8 3h-7.9c4.3 3.1 8.6 2.4 11.7-.4 1.6-1.5 4.2-2.6 6.3-2.6 4.7.2 9.4 1.4 14.1 1.8 4.6.4 9.3.2 14 .3 1 0 2 .3 3.2 1.7-11 1.3-21.9 2.7-32.9 4 .1.6.2 1.2.3 1.9 11.4-1 22.9-2 34.3-3 .7-8 3-8.7 13-4.8-2 .8-3.7 1.8-5.6 2.3-1.4.4-2.9.1-4.4.1v2.2c3.4 0 6.7.1 10.1-.1.6 0 1.5-.8 1.6-1.3 1.3-7.8 7-4.3 11-5.1.2.5.3.9.5 1.4-1.8.5-3.6 1-5.4 1.6.1.3.1.6.2.8h14.7c-2.2-1.4-3-1.8-3.9-2.4 3.5-4.4 6.2-.9 9.4 1.2 5.3-10.4 12-2.2 17.8-1 4.7 1 8.6.4 13-.3 6-1 12.1-.6 17.1 3.8-2.8.8-5.5 1.5-8.2 2.2 3.9.2 8.2 3.6 11.2-1.8.7-1.3 4.4-.9 6.7-1.2-.1.6-.2 1.3-.3 1.9 2 .6 4.1 1.2 6.2 1.6 2.9.4 5.9.9 9 1.4 0 .1 0 0 0 0zm-11.6 3.1c-.2-.5-.4-.9-.6-1.4-36.4 4.9-73.5 4.2-109.6 12 36-2.5 72-5.6 107.9-8.7.8-.1 1.5-1.3 2.3-1.9zm-88.4 20.4c-.1-.7-.2-1.4-.3-2-25.6 2.8-51.1 6.3-76.3 11.8.1.6.2 1.1.2 1.7 25.5-3.9 50.9-7.7 76.4-11.5zm77.1 4.2c-.2-.9-.3-1.9-.5-2.8-3.7.5-7.5 1-11.2 1.4-4 .4-8 .7-12 1.1-3.8.4-7.7.7-11.4 1.2-3.4.5-7.6-1.5-10.3 1.5.2.7.3 1.4.5 2.1 14.9-1.5 29.9-3 44.9-4.5zm-96.7-10c.1.8.2 1.7.2 2.5 7.9-.9 15.8-1.5 23.6-2.9 7.5-1.3 15.5.6 22.7-2.4-.1-.7-.2-1.5-.3-2.2-15.4 1.6-30.8 3.3-46.2 5zm76.6-4.6c-.1-.5-.1-1.1-.2-1.6-6.9-1.5-19.3.3-22.2 3.9 7.9-.8 15.1-1.6 22.4-2.3zm-123.6 11.1c.1.6.2 1.2.3 1.7 7.5-1.1 15.1-2.2 22.6-3.3-.1-.7-.2-1.3-.3-2-7.6 1.2-15.1 2.4-22.6 3.6zm78.3-23.2c4.2 2.6 18.1 1.6 20-1.2-6.6.4-13.1.8-20 1.2zm109.3 36c-.1-.4-.1-.8-.2-1.2h-16.7v1.2h16.9zm-186.6-36.8c.2.7.3 1.4.5 2.1 4.8-.6 9.6-1.1 14.5-1.7-.1-.7-.2-1.3-.3-2-4.9.6-9.8 1.1-14.7 1.6zm44.2 20c-.1-.7-.3-1.5-.4-2.2-4.7.6-9.4 1.3-14.1 1.9.1.6.1 1.2.2 1.9 4.8-.6 9.5-1.1 14.3-1.6zm-64.8 7.8v2c5.6-1.3 11.1-2.6 16.7-3.9-.1-.4-.1-.9-.2-1.3-5.5 1-11 2.1-16.5 3.2zM86.1 419.7c.1.7.2 1.4.3 2 4.3-.9 8.6-1.9 12.8-2.8-.1-.7-.3-1.3-.4-2-4.2 1-8.5 1.9-12.7 2.8zm119.1-1.6c.1.6.2 1.1.3 1.7 2.1-.2 4.2-.5 6.3-.7 2.1-.2 4.2-.5 6.4-.7-.1-.8-.2-1.6-.4-2.5-4.2.8-8.4 1.5-12.6 2.2zm-90.3-1.3c-.2-.7-.5-1.4-.7-2.1-2.2.7-4.3 1.5-6.6 2-1.8.4-3.8.6-5.6.9.1.6.3 1.2.4 1.8 4.2-.9 8.3-1.8 12.5-2.6zM509.1 283.2c-6.1 4.2-10.7 8.3-16.1 11-8.4 4.1-17.7 4.5-27 5.8-10.8 1.6-20.5 0-30.4-2.5-13.7-3.5-25.3-9.7-33-23.2-10.5-18.4-7.4-35.8-.7-54 5.8-15.7 17.1-25.8 32-31.5 7-2.7 14.9-2.8 22.5-3.5 4.3-.4 8.8.5 13.2.6 16.6.4 31.6 5 40.6 19.9 3.9 6.4 4.9 14.6 6.7 22.1.3 1.3-1.1 3.7-2.4 4.6-7.6 5.1-8.5 13.5-10.8 21.2-1.8 5.9-3.1 11.7-.2 17.7.2.4.1 1.2-.2 1.5-3.6 4.9-.2 7.2 5.8 10.3zM496 271.4c0-1.3.4-3.3-.1-5-.5-1.3-2.1-2.5-3.4-3.1-.6-.3-2.7 1.1-2.8 1.8-.5 7-6.6 7.5-11 8.9-10.6 3.3-21.4 4-32.5 1.5-8.9-2-17.6-3.9-20.9-15.2-2.2 3.4-4.1 6.2-6.3 9.4 3 .9 6 .9 7.2 2.3 5.6 6.5 13.2 7.9 20.9 9.4 14.8 2.9 29 2.1 41.7-7.2 1.9-1.3 4.4-1.7 7.2-2.8zm-39.7-49.8c-5.3 1.3-20.6-1.4-23.1-4.3-1.5-1.8-2.8-4.6-2.5-6.7.2-1.3 3.5-2.7 5.6-3.1 4.8-.9 9.6-1.2 14.8-1.8-.7-.8-1.1-1.8-1.6-1.7-6.5.2-13.3-1.5-19.3 2.9-4.9 3.5-5.6 7.1-1.7 11.2 6.1 6.5 14.5 8.6 22.7 9.1 9.4.6 19-.7 28.5-1.3 1-.1 2.1-.7 2.8-1.4.3-.4-.1-2.3-.5-2.3-4.7-.8-6.5-4.7-9.1-7.8-.7-.9-2.9-.6-4.5-.8 0 1.6.1 3.1.1 4.7v3.4l-1.5.6c-2.4-2.2-4.8-4.4-7-6.7-3.9-4-8.1-4.4-11.6-.6 2.4 2 4.9 4.1 7.9 6.6zm10.1 15.9c-.3-.8-.6-1.5-.9-2.3h-4.9c-5.6.2-11.5 6-11.3 11.3.2 4.7 5.6 9 11.5 8.6 1.8-.1 3.4-1.7 5.1-2.6-1.7-.9-3.3-2.5-5-2.7-3-.3-6.1-.8-5.8-4.2.3-2.9 1.2-6.6 6-6.1 1.7.2 3.5-1.3 5.3-2zm-29.2-5.5c-2.5 3.4-4.8 5.3-5.6 7.7-1.1 3.7 2 6.5 4.8 6.1 2.3-.4 5-3.7 5.7-6.3.5-1.5-2.5-4-4.9-7.5zm42.2 14.4c6.9-.8 7.2-4.4 6.4-8-.4-1.6-2.3-4-3.5-4-1.7 0-4.9 1.9-4.9 3 0 3 1.3 6 2 9zM405.2 330.2c-1.9.2-3.8.5-5.7.7-3.2.4-6.6 1.5-9.7.9-5.4-.9-10.4-.6-13.7 3.9-4.5 6.3-10.5 5.6-18 5v-37.4c7.9-.7 14.8.1 21.6 4.8 4 2.8 9.8 3.1 14.8 4.3 6.4 1.6 13.2-1.1 19.8 2.5 3.1 1.7 7.9.3 12 .3-6.7 8.9-10.5 19.6-13.3 30.9-.9 3.8-3.9 7-5.9 10.5-4.5-3-.7-10.7-7.4-12.3-4.4 3.9-3.6 9.1-2.6 13.5.9 3.7.6 6.5-1.6 9-2.3 2.6-1.7 4.5.1 7.1 3.3 5 6.1 10.3 9.2 15.4 2 3.3 3.9 1.5 5.8-.3 1.6-1.5 3.3-2.7 5.9-4.8v21.2c-8.8-2.1-16.5.6-24.5 2.8-2.7.8-6.2-.9-9.2-1.7-3.9-1.1-7.1-3.6-11.9-1.2-6.5 3.3-11.7-1.7-11.8-9.6-.1-12.9-.9-25.8-1-38.6 0-4.6 1.1-9.2 1.7-14.3 1.5.4 2.8 1 4.2 1.1 4.3.4 8.3 1.2 11.6-3.3 3.6-5 8.7-6.5 15.1-4.6 5.6 1.9 10.9.4 14.5-5.8zm-43.8 38.6c7.1-2.7 13.8-5.3 21.7-8.4-7.1-2.2-19.1 2.9-21.7 8.4zM452.2 325.1c4.8-.1 7.6 1.3 10 5.8 3.7 7 6.9 6.8 12.8 1.8 4.8-4.1 9.9-8 15.2-12.2 1.4 10 2.8 19.9 4.2 29.7-.4.5-.8 1-1.2 1.4-3.6-6.5-9-5.4-15-4.6v-11c-.5-.2-1-.3-1.5-.5-.8 1.5-2.3 2.9-2.4 4.4-.7 9.4-1 18.8-1.7 28.2-.6 8.3-1.4 9.4-8.8 9.7-5.9.2-11.9-.5-17.9-.9v-2c3.9-.2 7.8-.3 11.7-.5.1-.6.2-1.1.3-1.7-2.5-.3-5-.5-7.4-1.1-1.3-.3-3.4-1.3-3.5-2.2-.9-12-1.2-23.9 3.3-35.5 1.2-2.6 1.3-5.7 1.9-8.8zM420.3 371.5c2.6-12.6 5.1-24.8 7.6-37 .8-4 2.2-6.3 6.7-3.2.9.6 3 .1 4.2-.5 2.3-1.1 4.3-2.6 8-3.4-.8 4-.9 8.3-2.4 12-3.5 8.3-2.9 16.9-3 25.5 0 6.2-.5 6.2-7.2 5.5-4.1-.3-8.3.6-13.9 1.1z" fill="#fff"/>
  <path d="M472.9 327.6c-3.1-2.9-6-5.7-8.6-8.2 7.7-4.5 15.5-9 23.2-13.5 2 7.5-5.7 19-14.6 21.7zM489.3 442.8c-17.5 4.8-35.1 6.4-52.7-.4l.3-1.5c3.5.8 7.2 1.2 10.6 2.5 5 2 9.4.7 14.3-.4 8.2-1.8 16.7-2.6 25.1-3.7.8-.1 1.7 1 2.6 1.6-.1.6-.2 1.2-.2 1.9zM484.5 398.5l-3.3-6.3c-.5-.3-1.1-.6-1.6-.8-.7 1.7-1.4 3.3-2 5-.5-.3-1-.7-1.5-1 1-4 2.1-7.9 2.8-10.6 4.3-.3 7.5-.9 10.6-.6 1.5.1 3.3 1.5 4.3 2.9 1.1 1.5 1.3 3.6 1.7 4.7-1.3 1.7-2.5 3.2-3.7 4.7-4.3-3.9-4.3-3.9-7.3 2zM413.2 196.2c11.4-16.7 36.6-21.1 56.9-16.8-20.8-.6-40.4 2.8-56.9 16.8zM443 320.6c-4.6 1.9-8 3.5-11.4 4.6-.5.2-2.4-1.9-2.2-2.3 2.1-5.4 4.3-10.8 6.9-16 .5-1 2.9-1.1 4.4-1.6-.3 1.5-.3 3-.9 4.4-.9 1.9-2.2 3.7-3.3 5.5 2 1.6 3.5 2.9 6.5 5.4zM418 379.4c1.9-5.7 11.3-7.7 22.2-4.4h-9.3c-.1.5-.2 1-.4 1.5 2 1.1 4 2.2 6 3.2-2.1 3.7-2.9 3.7-18.5-.3zM494.7 361v8.7c-3.9-.3-7.7 0-11.3-.9-4-1-6.9-3.4-4.9-7.8h16.2zM473.6 385.1c-2.5-.1-4.9-.4-7.4-.4-2.3 0-4.6.3-6.9.4-5.7.1-11.7 2.2-17-2.1 2.4-2.7 26.9-2.2 31.2.2.1.6.1 1.2.1 1.9zM388.5 415.2c9.5-1.7 19.1-3.4 29-5.2-.4 2.2-.6 3.9-.9 5.8-8.3.4-16.5.9-24.7 1.1-1.1-.1-2.3-1.2-3.4-1.7 0-.1 0 0 0 0zM425.7 327.5c-2.7 9.6-5.4 19.2-8.3 29.6-1.4-.6-2.7-1.2-3.2-1.4 3.2-10.1 6.2-19.5 9.2-28.9.8.1 1.6.4 2.3.7zM493.1 379c-4.7 0-9.4.2-14-.1-1.1-.1-2.1-1.9-3.1-2.9 1.4-.8 2.8-2.4 4.2-2.4 3.6 0 7.2.4 10.8 1.1 1.3.2 2.3 1.7 3.4 2.6-.4.5-.8 1.1-1.3 1.7zM480 304.9c-5.2 5.4-11.6 8.2-20.5 8.2 6-7 13.5-6.8 20.5-8.2zM446.6 317.6c-1.2-2.6-2.9-4.6-2.7-6.4.4-5.3 5.5-2.8 8.7-4-1.8 3.1-3.6 6.1-6 10.4zM400.1 435.1c7.9-4.7 11.5 2.4 16.9 2.4-.1.6-.3 1.1-.4 1.7-5.1-1.3-10.1-2.5-16.5-4.1zM445.2 434.7c-5.9 1.1-11.8 2.3-18.4 3.6 5.4-7.3 12.7-1.8 18.1-5.1l.3 1.5zM478.9 349.1c3.8.8 7.5 1.5 11.3 2.3-.2.8-.3 1.6-.5 2.3-3.7-.6-7.4-1.3-11.1-1.9l.3-2.7z" fill="#fff"/>
  <path d="M87.5 193.1c.7 2.9 1.9 5.9 2.1 8.8 1 12.3 1.8 24.6 2.4 36.9.2 4.9-.4 9.9-.5 14.9 0 1.1.5 2.2 1.8 3.4 3.1-10.8 5.3-22.1 9.6-32.4 4.3-10.1 3.5-22.2 11-31 .8 0 1.6.1 2.4.1.5 4.6 1.1 9.2 1.6 13.8 2.2 20 4.2 40 6.7 59.9 1.6 12.6 4.3 25.1 5.8 37.8.3 2.3-3.2 5-5.5 7.1-8.5-30.3-10.8-60.9-13-91.4-.5 0-1.1-.1-1.6-.1-1.5 5.2-2.9 10.5-4.6 15.7-4.5 13.9-9 27.7-13.8 41.5-.4 1.2-2.5 1.7-3.9 2.6-1.1-1.7-3-3.4-3.2-5.2-.8-8.1-1.2-16.2-1.5-24.4-.4-8.9-.4-17.7-.7-26.6-.1-2.3-.3-4.6-1.5-6.9-1.3 4-2.8 8.1-4 12.1-3.5 11.9-7 23.8-10.4 35.8-3 10.7-6.3 21.3-8.7 32.1-1.1 4.8-3.6 5.3-8.4 5.4 10.3-37.6 19.7-74.9 35.2-110.3 1 .2 1.9.3 2.7.4zM41.2 209.9c-.7 13.8-1.5 27.5-2.2 41.3-.7 12.3-1.5 24.6-2.2 37-.3 4.4-.7 8.7-1.1 13.1-.2 2.3.4 6-3.1 4.9-2.4-.7-5.5-4.3-5.4-6.5.1-11.1 1.2-22.1 1.9-33.2 1.1-17.4 2.3-34.8 3.3-52.2.3-6.3.3-12.7-.1-19-.1-1.3-2.6-2.9-4.2-3.4-3.4-1.1-7-1.7-10.6-2.1-3.5-.4-4.9-2.7-3.6-5.2.9-1.8 3.8-3.8 5.7-3.7 12.2.7 24.3 2 36.4 3.1 3.5.3 7.1 1.1 6.3 5.5-.3 1.7-3.2 3.1-5 4.4-.3.2-1.3-.6-1.9-.7-10.3-2.4-13.1-.4-14 10-.2 2.3-.7 4.5-1.1 6.7h.9zM164.5 203.6c1.2 1.8 3 3.4 3.4 5.3 1.5 7.8 2.6 15.6 3.8 23.5 1.5 10.3 1.9 20.9 4.8 30.8 2.2 7.7.6 15.8 3.8 23.3.9 2-.8 5-1.4 7.6-.8 0-1.6.1-2.3.1-1.1-5.1-2.9-10.1-3.2-15.2-.3-4.8-1.8-6.3-6.5-5.9-6.2.5-12.6.5-18.8.2-3.4-.2-5 .1-5.4 4-.5 4.2-1.9 8.3-3.2 12.4-.6 1.7-1.8 3.3-2.7 4.9-.5-.1-1-.2-1.5-.2-.4-1.4-1.3-2.8-1-4.1 1-4.6 2.4-9.1 3.4-13.7.4-1.9 0-3.9.1-5.8 0-1.2-.2-2.9.5-3.4 8-6.3 8.4-16.4 12.2-24.7 3.6-8 5.8-16.7 8.5-25.1 1.4-4.4 2.7-8.8 4.1-13.1.3-.4.8-.6 1.4-.9zm-18.1 62.7c7 0 12.7-.1 18.4 0 5.2.1 6.4-1.5 5.4-6.4-.9-4.5-1.1-9-1.9-13.5-1.5-8.9-3.3-17.9-4.9-26.8-.3 0-.7.1-1 .1-5.2 15.3-10.5 30.6-16 46.6zM216.1 221.2c-1.8-.7-3.5-1.9-5.3-2-9.8-.5-17.5 2.8-22.2 12.1-2.9 5.7-1.3 10.2 4.9 12 4.2 1.2 8.4 2.1 12.6 3.2 7.8 2 13.1 7 13.6 13.8.2 3-.1 6.7-1.7 9.2-5.2 8.2-10.2 17.1-21.3 18.5-2.5.3-5.1.4-8.3.7.3-3 .5-5.9.8-9.3 7.2 4.5 12.9 3.6 19.1-2 4.9-4.4 8.5-14.3 5.3-18-2.7-3.1-7.5-4.6-11.6-6.1-3.4-1.3-7.2-1.3-10.7-2.2-6.6-1.8-10.4-8.8-8.1-15.9 3.6-11.1 14.8-22.5 26.9-21 1.3.2 2.6-.1 3.9 0 2 .2 4 .5 6 .7-.7 2.8-1.4 5.6-2.2 8.4-.6-.8-1.2-1.5-1.7-2.1zM303.4 67c.3 6.2.5 12.5.9 18.7.7 15 1.4 30 2.3 45 .5 7.8.7 15.7 2.4 23.3 3.3 14.8.3 29.7 1.4 44.5.1 1.3-.5 2.7-1.2 5.7-1.3-2.5-2.5-3.8-2.5-5 0-5.9.4-11.8.6-17.7.1-3.9.6-7.8.3-11.6-.9-11.3-1.4-22.7-3.4-33.9-3.2-18.5-3.4-37-3.2-55.6 0-4.4-.4-8.7-.6-13.1l3-.3zM308.9 229.5c7.2 19.2 10.9 47.5 6.8 52.6-1-3.8-1.6-6.7-2.5-9.5-.4-1.4-1.3-3.6-2.2-3.8-4.2-.7-8.6-.9-12-1.1-1.8 4.2-3.3 7.7-4.7 11.3-.9-.3-1.8-.7-2.6-1 5.7-16.2 11.4-32.3 17.2-48.5zm3.1 32.2c-1.1-5.7-2.3-11.6-3.4-17.6-.5.1-1.1.2-1.6.3-2 5.4-4 10.9-6.1 16.5 3.9.2 7 .4 11.1.8zM276.5 215.2c-1.1-5.7-3.1-11.4-3.2-17.1-.2-11.1 1.2-22.3.8-33.5-.6-16.5-2.5-33-3-49.5-.3-9.3 1.3-18.6 2-27.9.5-.1 1-.3 1.5-.4.5 1 1.6 2.1 1.5 3.1-1.8 12.7-1.6 25.5 0 38.2.9 7.5 2.2 14.9 2.5 22.4.2 8.2-.9 16.4-.9 24.5 0 11.6.5 23.2.8 34.8v5c-.7.2-1.4.3-2 .4zM258.6 263.7c-.3-7.2 3.2-12.9 7.2-18.4 2-2.7 4-5.4 6.5-7.6 3.8-3.2 7.7-2.3 9.9 1.9 4.1 7.9 5 24-1.2 31.4-2.2 2.6-5.3 5.3-8.4 6.3-6.8 2.2-13.9-5.1-14-13.6zm23.4-6.2c-1.3-5.3-2-9.4-3.5-13.2-.5-1.2-3.9-2.4-5.2-1.8-5.4 2.3-12.1 17.3-10 22.8 1 2.6 3.7 5.6 6.2 6.2 2.2.6 6-1.2 7.5-3.2 2.5-3.2 3.6-7.5 5-10.8zM267.7 233.9c-3.3 1-5.5 2.2-7.8 2.3-6.8.4-8.8 2.1-8.8 8.6.1 9.9.6 19.8.6 29.7 0 1.3-1.4 2.6-2.2 3.9-.6-.1-1.3-.2-1.9-.3v-40.8c-2.6 0-4.4.2-6.2-.1-1-.1-2.5-.9-2.6-1.5-.1-1.1.6-3.3 1.2-3.3 8.1-.8 16.2-1.4 24.4-1.8.7 0 1.3 1.3 3.3 3.3zM161.2 92.8c-.4 23.8-1.2 47.7 5.7 70.8.6.1 1.3.2 1.9.3 1.8-7.1 3.5-14.3 5.3-21.4.8.2 1.5.5 2.3.7-1.7 7.1-3.2 14.3-5.1 21.4-.4 1.4-2.3 2.5-3.5 3.7-1.4-1.3-3.4-2.4-4-4.1-1.4-3.9-2.8-7.9-3.1-12-1.4-17.1-2.5-34.2-3.4-51.4-.1-2.8 1.4-5.7 2.2-8.5.6.2 1.1.3 1.7.5zM179.4 183.6c.5-2.7 1.1-5.4 1.5-8.2 1-6.3 2.7-12.7 2.8-19 .1-6.4-1.3-12.9-2-19.4-.7-6.2-1.1-12.5-2.2-18.6-1.8-10.2-4.1-20.2-6.2-30.4-.3-1.6-.5-3.2-.7-4.8.4-.2.9-.4 1.3-.5 1.4 2.9 3.6 5.8 4.1 8.9 1.9 12.3 3.2 24.6 4.6 37 .6 5.5.5 11 1.3 16.5.4 2.5 3.2 4.9 3 7.2-1 9.7-2.7 19.4-4.4 29.1-.2 1-1.3 1.8-2 2.7-.2-.2-.6-.4-1.1-.5zM170 374.4c.6-4.7 1.1-9.5 1.7-14.2.5 0 1.1.1 1.6.1 1.3 5.6 1 11.2-1.4 16.5-1 2.2-3.6 3.9-5.1.1-1.8-4.5-4.2-9-4.9-13.6-1.6-11.4-2.5-22.9-3.6-34.3-.5-5.1-.9-10.2-1-15.3 0-2 .9-4 2.4-5.9 2.7 22.5.5 45.5 8.8 66.9.5-.2 1-.3 1.5-.3zM282.1 380.6c-.7-1.5-2-2.9-2.2-4.4-1.4-11.2-1.5-22.3-.4-33.6 1-9.4-.5-19.1-.8-28.7-.1-4 0-8 .8-12.1 6.7 25.7-.8 52.2 4 78-.5.2-1 .5-1.4.8zM53.1 165.4c-5.2-5.2-3.7-58 1.8-63.8-.6 20.9-1.2 42.5-1.8 63.8zM327.8 242.5c-.4 7.7-.4 15.3-1.5 22.7-.6 4.4-.2 5.8 4.4 4.9 1-.2 2.4 1.4 3.6 2.2-1.1 1.4-2 3.7-3.2 3.9-2.8.3-5.7-.4-8.4-.7-1.5-12.1 1.4-31.4 5.1-33zM43.8 154.2c-8.7-6.9-5.5-50.6 5.4-60-7.7 19.2-10.7 38.9-5.4 60zM180.2 331.2c.5 3.7 1.2 7.5 1.4 11.2.7 11.8 1.3 23.5 1.5 35.3 0 3.1-1.5 6.2-2.7 9.2-.5 1.1-2.2 1.6-3.9 1.9 6.7-9.8 3.4-20.6 3.6-30.7.2-8.9-1.1-17.8-1.8-26.7.7 0 1.3-.1 1.9-.2zM69.7 367.3c-.7-17.4-1.4-33.8-2.2-51.4 5.2 6.9 6.6 44.9 2.2 51.4zM41 85c-2.8 12.3-5.7 24.5-8.8 38-3-14.5 2.4-26.3 8.8-38zM56.9 388.7c-5-7.5-6.6-27.2-3.6-38.6 1.2 12.8 2.3 25 3.6 38.6zM64.9 371c-.4-8-.8-16-1.1-23.9.6-.1 1.2-.1 1.9-.2.4 3.9 1.1 7.8 1.2 11.7.1 4.1-.4 8.3-.6 12.4h-1.4zM498.8 410.7c1.6-1.3 3.1-3 4.9-3.7 8.9-3.5 17.9-2.5 27-.6 6.6 1.4 13.1 2.7 19.7 3.7 2 .3 4.2-1.1 6.4-1.1 3.6 0 7.2.4 10.8.8 3.4.4 6.8 1.2 10.2 1.3 3 0 6.1-.7 9.3-1.2-.6 5.9-9.4 9.6-19.9 9-1.9-4.5-4.5-5.9-9.7-4.6-4.7 1.2-10 .6-15 0-9.9-1.1-19.7-3.1-29.7-4-4.2-.4-8.5 1-12.7 1.7-.5-.4-.9-.9-1.3-1.3zM550.1 440.3c-.9 7 1.2 8 10.1 6-1.3 3.1-8 4.4-19.9 3.8v-3c-.4-.1-.7-.3-1.1-.4-.6 1.1-1.1 2.3-1.7 3.4-.7-.6-1.4-1.1-2.1-1.7v.7c-4.3-1.8-8.7-3.2-12.8-5.4-3.7-2-3.9-2.3-6.8 1.3-.4.5-2.1.8-2.3.5-3.4-3.8-6.1-2.6-8.8.8-.4.5-1.6.4-3.1.7.6-2.4 1.1-4.2 1.5-5.7-1.7-.7-3.5-1.5-5.3-2.2.2-.8.4-1.6.6-2.3 4.6 0 9.2.1 13.8 0 1.9 0 3.9-.1 5.8-.6 3.6-.8 5.9 1.5 8.6 3 5.5 2.9 11.3.9 17 1.1 2 .1 4 0 6.5 0zM503.8 338.3c1-.5 2-1.2 3-1.3 11.7-1.3 22.7 1.4 33.3 6.2 1.2.5 2.6.7 4 .7 3.9-.1 7.8-.1 11.6-.6 2.1-.2 4-2 6-2 4.7.1 9.5.6 14.2 1.4 1 .2 1.7 1.9 2.5 2.9-1.3.4-2.5 1.1-3.8 1.1-5.2 0-10.3-2.9-15.6.7-1.5 1-4.7-1.1-6.8-.5-12 3.4-21.5-5.3-32.6-6.2-5.2-.4-10.4-.6-15.6-.9 0-.5-.1-1-.2-1.5zM551.8 372.8c-7.5.9-15.1 2.5-22.6 2.5-3.7 0-7.4-3.3-11.3-4.2-2.9-.7-6.2-.1-9.6-.1 2.9-4.1 9.6-5.2 14.9-1.7 5.1 3.4 10.3 3.2 15.7 2.9 2.5-.1 4.9-1.1 7.4-1.6 1.7-.3 3.4-.4 5.1-.6.2 1 .3 1.9.4 2.8z"/>
  <path d="M563.8 417c-1.2 1.6-1.5 2.4-2.1 2.7-.8.3-1.7.3-2.6.4-19.4.5-38.8 1.1-58.2.3 20.6-1.2 41.2-2.3 62.9-3.4zM544.6 367.1c8.3-6.2 28.8-7.4 35.7-2-11.9.6-23.8 1.3-35.7 2zM584 433.7h-18.3v-1c6.1-.7 12.2-1.5 18.2-2.2 0 1.1 0 2.1.1 3.2zM586.2 377.8c-6.3-.4-12.6-.9-18.7-1.3 1.5-2.7 12.9-3.1 18.7 1.3zM563.8 446l17.7-1.8c.1.9.1 1.8.2 2.8-6.1.3-12.1.6-18.2.9.2-.6.2-1.2.3-1.9zM546.2 435.3c2.7-3.1 8.2-3.7 16.6-1.1-5.3.4-10.7.7-16.6 1.1zM376.9 418.2c-.8.7-1.5 1.8-2.3 1.9-35.9 3.1-71.9 6.2-107.9 8.7 36.1-7.8 73.2-7.1 109.6-12 .2.5.4.9.6 1.4zM288.5 438.6c-25.5 3.8-50.9 7.6-76.4 11.4-.1-.6-.2-1.1-.2-1.7 25.2-5.4 50.7-9 76.3-11.8.1.8.2 1.4.3 2.1zM365.6 442.8c-15 1.5-30 3-45.1 4.4-.2-.7-.3-1.4-.5-2.1 2.7-3 6.9-1 10.3-1.5 3.8-.5 7.6-.8 11.4-1.2 4-.4 8-.7 12-1.1 3.8-.4 7.5-.9 11.2-1.4.4 1.1.5 2 .7 2.9zM268.9 432.8c15.4-1.7 30.8-3.4 46.2-5 .1.7.2 1.5.3 2.2-7.2 3-15.2 1.1-22.7 2.4-7.8 1.4-15.7 2-23.6 2.9-.1-.9-.2-1.7-.2-2.5zM345.5 428.2c-7.3.7-14.5 1.5-22.4 2.2 2.9-3.6 15.3-5.4 22.2-3.9.1.6.2 1.2.2 1.7zM221.9 439.3c7.5-1.2 15.1-2.4 22.6-3.6.1.7.2 1.3.3 2-7.5 1.1-15.1 2.2-22.6 3.3-.1-.6-.2-1.1-.3-1.7zM300.2 416.1c6.9-.4 13.5-.8 20-1.2-1.9 2.8-15.8 3.8-20 1.2zM409.5 452.1h-16.9v-1.2h16.7c.1.4.2.8.2 1.2zM222.9 415.3c4.9-.5 9.8-1.1 14.7-1.6.1.7.2 1.3.3 2-4.8.6-9.6 1.1-14.5 1.7-.1-.7-.3-1.4-.5-2.1zM267.1 435.3c-4.8.5-9.5 1.1-14.3 1.6-.1-.6-.1-1.2-.2-1.9 4.7-.6 9.4-1.3 14.1-1.9.1.7.2 1.4.4 2.2zM202.3 443.1l16.5-3.3c.1.4.1.9.2 1.3-5.6 1.3-11.1 2.6-16.7 3.9v-1.9zM86.1 419.7c4.2-.9 8.5-1.9 12.7-2.8.1.7.3 1.3.4 2-4.3.9-8.6 1.9-12.8 2.8-.1-.6-.2-1.3-.3-2zM205.2 418.1c4.2-.7 8.4-1.4 12.5-2.1.1.8.2 1.6.4 2.5-2.1.2-4.2.5-6.4.7-2.1.2-4.2.5-6.3.7 0-.7-.1-1.2-.2-1.8zM114.9 416.8c-4.1.9-8.3 1.7-12.4 2.6-.1-.6-.3-1.2-.4-1.8 1.9-.3 3.8-.4 5.6-.9 2.2-.5 4.4-1.3 6.6-2 .1.6.4 1.4.6 2.1zM496 271.4c-2.8 1.1-5.3 1.5-7.1 2.9-12.8 9.2-27 10-41.7 7.2-7.6-1.5-15.3-2.9-20.9-9.4-1.3-1.5-4.2-1.4-7.2-2.3 2.1-3.2 4-6 6.3-9.4 3.2 11.3 11.9 13.2 20.9 15.2 11 2.5 21.9 1.8 32.5-1.5 4.4-1.4 10.5-2 11-8.9.1-.7 2.2-2.1 2.8-1.8 1.4.6 3 1.8 3.4 3.1.4 1.6 0 3.6 0 4.9zM456.3 221.6c-2.9-2.5-5.4-4.6-7.9-6.7 3.5-3.8 7.6-3.4 11.6.6 2.3 2.3 4.7 4.5 7 6.7l1.5-.6v-3.4c0-1.6-.1-3.1-.1-4.7 1.5.2 3.7-.1 4.5.8 2.6 3.2 4.4 7.1 9.1 7.8.3 0 .8 1.9.5 2.3-.7.7-1.8 1.3-2.8 1.4-9.5.6-19 1.9-28.5 1.3-8.2-.5-16.5-2.5-22.7-9.1-3.9-4.2-3.1-7.7 1.7-11.2 6-4.4 12.8-2.7 19.3-2.9.4 0 .9 1 1.6 1.7-5.2.6-10.1.9-14.8 1.8-2.1.4-5.4 1.8-5.6 3.1-.3 2.1.9 5 2.5 6.7 2.4 2.9 17.8 5.7 23.1 4.4zM466.4 237.5c-1.8.7-3.6 2.1-5.3 2-4.8-.4-5.7 3.3-6 6.1-.3 3.4 2.8 3.9 5.8 4.2 1.7.2 3.3 1.7 5 2.7-1.7.9-3.4 2.5-5.1 2.6-5.9.4-11.3-3.9-11.5-8.6-.2-5.3 5.7-11.2 11.3-11.3h4.9c.3.8.6 1.5.9 2.3zM437.2 232c2.4 3.5 5.4 6 5 7.5-.7 2.5-3.4 5.9-5.7 6.3-2.8.5-6-2.4-4.8-6.1.6-2.3 2.9-4.2 5.5-7.7zM479.4 246.4c-.8-3-2-6-2-9 0-1.1 3.2-3 4.9-3 1.2 0 3.2 2.4 3.5 4 .8 3.6.5 7.2-6.4 8zM361.4 368.8c2.7-5.5 14.6-10.6 21.7-8.4-7.9 3.1-14.7 5.7-21.7 8.4z"/>
  <path d="M146.4 266.3c5.5-16 10.7-31.3 16-46.6.3 0 .7-.1 1-.1 1.6 8.9 3.4 17.8 4.9 26.8.8 4.5 1 9.1 1.9 13.5 1 5-.2 6.5-5.4 6.4-5.7-.1-11.3 0-18.4 0zM312 261.7c-4.2-.3-7.3-.6-11.1-.9 2.1-5.6 4.1-11 6.1-16.5.5-.1 1.1-.2 1.6-.3 1.2 6 2.3 12 3.4 17.7zM282 257.5c-1.4 3.3-2.6 7.5-5 10.8-1.5 2-5.3 3.8-7.5 3.2-2.5-.6-5.2-3.6-6.2-6.2-2.1-5.6 4.6-20.5 10-22.8 1.3-.6 4.7.6 5.2 1.8 1.6 3.8 2.2 7.9 3.5 13.2z" fill="#fff"/>
  <text transform="translate(13.202 25.217)" fill="#010101" font-family="BaskervilleT-Bold" font-size="12">Copr 1951 by United Feature Syndicate, Inc.</text>
  <text transform="translate(490.053 61.689)" fill="#010101" font-family="BaskervilleT-Bold" font-size="26" letter-spacing="1">12-25</text>
  <text transform="translate(467.163 35.294)" fill="#010101" font-family="Peanuts" font-size="26" letter-spacing="4">SCHULZ</text>
</svg>
