<svg xmlns="http://www.w3.org/2000/svg" viewBox="0 0 595.3 456.6" xml:space="preserve">
  <path d="M108.9 456.6H0V1.1c2 .1 4 .2 6 .2 32.4 0 64.9-.1 97.3-.1C263 1.1 422.6 1 582.3 1h10.9v453.1c-9.7 0-19.4-.1-29.1 0-15.5.2-30.9.9-46.4 1-14.8.1-29.6-.4-44.5-.5-20.3 0-40.6.1-60.9.2-8.7 0-17.5-.1-26.2 0-10.6.1-21.2.6-31.8.5-11.2-.1-22.5-.8-33.7-.8-15.9.1-31.9.8-47.8.9-24.2.2-48.5.1-72.7.1-23.2 0-46.4 0-69.6.1-7 .2-14.3.7-21.6 1zm275.5-45.5c-8.7.6-17.4 1.2-26.3 1.8-.3-.5-.8-1.5-.7-1.3-13.6 4.8-27.3 4.3-40.5 6.4-13.5 2.2-27.1 3.9-40.7 5.5-13.4 1.6-26.6 5.2-40 6.2-.1-.9-.2-1.8-.4-2.8 37.6-5.3 75.2-10.6 112.8-16-4.4-.6-8.9-1-13.2-.6-12.1 1.2-24.2 2.6-36.3 4-13.8 1.6-27.6 3.2-41.4 4.7-3.7.4-7.5.2-11.1.7-8 1.1-15.9 2.5-23.8 3.7-9.3 1.5-18.7 2.9-28.1 4.3-4.4.7-8.8 1.6-13.2 2.1-8.5 1-17.2 1.3-25.6 2.7-8.3 1.3-16.5 3.6-24.7 5.2-12.4 2.4-24.9 4.5-37.4 6.7-2.5.4-5.1.6-7.6.8 38.2-10.9 77.5-16.1 116.5-21.9 39.3-5.8 79-9.7 119.8-14.7-6.2-.7-11.1-1.5-16-1.6-8.4-.2-16.4 1.9-24.6 3.7-14.9 3.3-30.6 2.7-46 4-11.5.9-23.1 2-34.5 3.4-13.3 1.6-26.5 3.6-39.7 5.3-4.8.6-9.8.5-14.6 1.4-7.5 1.4-14.8 3.6-22.3 5.1-6.9 1.3-13.8 2.1-20.7 3.2-11.9 2-23.8 4-35.7 6.2-4.3.8-8.6 1.8-12.9 2.7-.1-.5-.3-.9-.4-1.4 1.4-.6 2.7-1.4 4.2-1.7 20.6-3.8 41.2-6.9 61.7-11.3 19.5-4.1 39.2-7.1 59-8.8 8.8-.8 17.6-3 26.4-4 12.2-1.4 24.5-2.3 36.7-3.3 8.8-.8 17.6-1.5 27.1-2.3-1.1-.6-1.7-1.1-2.2-1.1-6-.4-12.1-.6-18.1-1.1-6.1-.5-12.2-2-18.3-1.9-5.8.2-11.5 2-17.3 3-3.9.6-7.8 1-11.6 1.5-9.2 1.4-18.4 3.2-27.6 4.3-15.3 1.9-30.7 3.1-46 5.2-15.2 2.1-30.2 5-45.4 7.5-7.1 1.2-14.3 1.8-21.3 3.1-11.3 2.2-22.6 5-33.8 7.4-.9.2-1.9 0-2.9 0 58.9-16.9 119.6-22.8 180.1-30.6-12.5.4-25-3.1-38.5.3-6.2-4.1-8.6-4.1-15.4.5-.4.3-1 .4-1.5.5-11.4 1.6-22.7 3.1-34.1 4.7-9 1.3-18 2.7-27 4-11.7 1.7-23.5 3.1-35.1 5.2-13.2 2.4-26.3 5.5-39.4 8.2-9 1.8-9 1.7-9 11.5v.5c-.9 5.5 1.9 6.8 6.9 6.8 17.1-.2 34.2.2 51.3-.3 4.3-.1 9.9 2.8 13.3-2.9.3-.4 2.5.3 3.8.5-1.5 3.7 1.5 1.6 2.3 1.6 8.2.1 16.6-.9 24.7.2 9.1 1.2 17.6.3 26.2-2.4.6-.2 2.2.7 2.2.8-.6 2.3.1 3.2 2.2 1.9.4-.3-.2-2.3-.4-3.6 2.7-.3 5.4-.7 8.2-1 0 .4.1.7.1 1.1-1.6.6-3.2 1.3-6.1 2.4 10.5.6 19.5 1.6 28.5 1.6 15.9 0 31.8-.7 47.7-1 6.5-.1 13.1.8 19.4-.3 15.1-2.7 30.1-6.4 45.2-9.7 11.9-2.6 23.7-5.3 35.7-7.5 14-2.5 28-4.6 42-6.7 14.9-2.3 29.8-4.8 44.8-6.7 17.2-2.2 34.4-4.4 51.7-5.8 10.6-.9 21.4-.4 32-.6.5 0 1.1-.1 1.6 0s.9.5 2.3 1.2c-81.3 3.5-159.9 17.5-237.8 35.8 12.7.3 25.2-.3 37.7-1.4 5.8-.5 11.6-2.1 17.4-3.3 13.3-2.7 26.6-5.6 40-8.1 7.1-1.3 14.3-1.8 21.4-2.8 6.3-.9 12.5-2.3 18.8-3.1 6.8-.9 13.6-1.3 20.4-2.1 7.9-.9 15.7-2 23.5-3 10.7-1.4 21.4-2.8 32.2-4 6-.7 12.1-1 18.1-1.5.1.4.2.9.3 1.3-1.2.6-2.3 1.7-3.5 1.8-10.1 1.2-20.2 2.3-30.3 3.5-1.1.1-2 1-3.1 1.5-8.8.3-17.7.3-26.5 1-6.4.5-12.7 2-19.1 2.9-2.5.4-5.1.2-7.6.6-3.8.6-7.4 1.8-11.2 2.2-8.3.9-16.7.9-24.9 2.3-13.2 2.3-26.2 5.4-39.3 8.1-5.4 1.1-10.8 2.3-16.2 3.4l.3 1.8c9.9-1 19.8-2.1 29.4-3.1 1.6.8 3.3 2.3 4.9 2.2 10.1-.2 20 1.2 30.2-1.8 10.9-3.2 22.5-4.1 33.8-6 15.9-2.6 31.9-5 47.8-7.6 8.3-1.3 16.6-3 24.9-4.2 6.6-.9 13.4-1.1 20-1.8 4.7-.5 9.3-1.2 13.9-1.8-.1-.6-.2-1.3-.3-1.9-28.3 3.2-56.7 6-85 9.8-29.2 3.9-58.2 8.8-87.3 13.3.4-1.7.9-2.3 1.6-2.4 13.1-2.3 26.1-4.8 39.2-6.7 19.5-2.8 39.2-5.2 58.7-7.9 4.2-.6 8.3-1.9 12.5-2.8 2.8-.1 5.6-.1 8.4-.4 18.7-1.8 37.4-3.6 56.1-5.5 1-.1 2-.8 3-1.2-.1-.3-.2-.7-.3-1-9.5.7-19 1.4-28.5 2 0-.5-.1-1.1-.1-1.6 1.1-.5 2.2-1.3 3.3-1.4 13.9-1.1 27.8-2.1 41.7-3.1.9-.1 2.4-.2 2.5.2 2.8 6.3 7.8 1 11.6 1.7-2.6-.1-5.1-.3-7.7-.4 2.3-1.5 4.5-1.4 6.7-1.8 4.8-.9 9.7-3.1 13.7 2 .3.4 1.4.3 2.1.2 5.5-.7 11-1.5 16.6-2.1 1.6-.2 3.3.6 4.9.9l-.3 1.8c-7.6.7-15.2 1.4-22.9 2 .1.6.1 1.1.2 1.7 9.8-.6 19.6-1.2 29.7-1.9v-12.7c-5.4.5-10.4 1.2-15.3 1.3-1.2 0-2.4-1.8-3.6-2.8 1.7-1 4.6-3.3 5-2.9 3.9 3.4 6.1 1 8.2-1.9 2.2.9 4 1.7 5.5 2.3 0-7.8-.1-15 0-22.3.2-11 1-21.9 1-32.9 0-10-.9-20-1-29.9-.1-30.8-.1-61.6 0-92.4 0-2.7.8-5.3.8-8-.1-11-.5-22-.5-33.1 0-13.4.3-26.7.3-40.1 0-10.5-.4-21.1-.5-31.6-.1-8.1-.1-16.2 0-24.3.1-6 1.1-12 .8-17.9-.2-2.7 1.9-7.2-2.5-8.3-4.2-1.1-8.7-1.3-13.1-1.4-16.9-.5-33.9-.8-50.8-1.1-14.8-.3-29.6-.4-44.5-.6-4.5 0-9.1.8-13.6.3-6.2-.8-7.5-.2-7.4 6.1.3 13.9.5 27.9 1.3 41.8.1 1.9 2.6 4.4 4.6 5.3 15.2 6.9 28.9 15.3 36.2 31.4 6.1 13.4 6.6 27.1 4.3 41.5-3.5 22.1-17.4 35.6-35.7 45.8-6.2 3.4-12.9 5.9-19.6 8.3-8 3-16.1 5.7-24.3 8.2-2.7.8-3.7 1.8-2.6 4.6 1.7 4.1 3.1 8.3 5.1 12.3 6.1 12.8 12.3 25.5 18.6 38.2 1.3 2.6 3.1 5 4.3 6.9.5-9.1 1.1-18.4 1.7-27.6.6-8.8-.3-17.9 3.1-26.5 1.1 1.1 1.8 2.2 1.7 3.3-.6 6.6-1.8 13.3-1.9 19.9-.3 12.6-.2 25.3 0 37.9 0 2.1 1 4.1 1.7 6.6 2.5-1.4 4.2-2.1 5.5-3.3 4.7-4 8.3-3.7 11.6 2 1.7 3 1.1 6.4-2 8.2-9.3 5.4-19.5 10.3-16.9 24.1.2.9-.1 1.8-.2 2.7-.7 13.1-1.5 26.2-1.9 39.3-.1 3.7 4.7 7.4 7 5.5 6.6-5.5 13.8 1.2 20.4-1.5.4-.2 1.5.4 1.8.9 2.3 3.5 5.2 3.2 8.4 1.7 2.2-1 4.1-.8 6.6-.3 3.4.7 7.2-.9 10.9-1.4 1.2-.2 2.5-.3 3.7-.1 3.1.5 6.2 1.1 9.3 1.9 1.9.4 4.1.6 5.4 1.7 3.5 3 6.4 1.2 7.5-1.6 1.4-3.8 3.5-2.2 5.6-1.9 1.1.2 2.1 1.2 3.2 1.4 5.4.6 10.8 1.1 16.2 1.6 1.7.1 3.5 0 5.2 0 .1-.4.2-.9.3-1.3 1 1.2 2 2.3 3 3.5-5.4 4.2-9.3 3.7-10.9-.5-2 .5-3.9 1-5.8 1.4-7 1.3-14.7-3.7-21.4 2.1-.6.6-2.4-.1-3.7-.4-2.2-.5-4.4-1.5-6.6-1.6-4.8-.3-9.6.3-14.4-.3-5.4-.6-10.5-1.9-16 0-2 .7-4.7-.9-7.1-1.2-1.5-.2-3.1-.5-4.5-.1-1.6.5-3 1.8-4 2.5-3.1-1.7-5.7-3.1-7.8-4.2-2.2 2.1-4.4 5.5-5.5 5.1-5.7-1.8-11.1-1.1-16.6.2-.5.1-1.2-.7-1.9-.8-3.9-.8-8.4-3.2-11.5-2-6.3 2.5-12.2.2-18.2.9-5.7.7-11.2 2.4-16.9 3.6-2.5.5-5 1-7.6 1.5l-.1.3zM90.2 100.8c-.2.2-.4.3-.6.5-.5-1.2-1.4-2.3-1.5-3.5-.5-8.5-1-17.1-1.1-25.6-.2-10.1 0-9.9-9.7-9.5-14.3.5-28.7 1-43 1.2-8.6.1-17.3-.7-25.9-.7-1.3 0-3.6 2.1-3.8 3.4-.5 4.6-.2 9.4-.2 14.1.3 22.8.8 45.7 1.1 68.5.2 22 .2 44 .2 66 0 15.2-.2 30.4-.2 45.6.1 19.1.4 38.2.5 57.3.1 10.7-.1 21.4-.2 32l-.3 45.3c0 1 .3 2.4 1 2.8 3.7 2.1 7.5 3.9 11.3 5.9.9-2.1 1.6-4 2.2-5.3 3.6 1.6 6.5 2.8 9.4 4.1-2 6.8-12.3 7.5-23.1.4-1 8.8-1.9 16.8 1.1 25 35.6-6.2 71-12.4 104.6-18.3-.6-.2-2.6-1.1-4.8-1.8-2.6-.8-5.4-1-8-1.9-6-2-12.4 4.9-18.1-1-5.8 1.8-5.4-1.2-2.9-6.1-5.6 2.8-9.8 5.3-14.3 7-1.8.7-4.3-.2-6.4-.5-1.1-.2-2.2-.7-3.2-1.2-5-2.5-7.8 2.3-11.8 3.3-2 .5-4.5.1-6.5-.5-2.1-.6-3.9-2.1-5.8-3.2 3.3-4.4 5.1-6.1 7.4-2.4 1-2.1 1.8-3.8 2.8-6.2 1.8 1.9 3.2 3.4 4.9 5.1 3.7-2.2 1.3-16.6 11.4-6.1 1.9-1.4 3.8-2.9 5.8-4.4 1.1 2 1.9 3.3 2.2 3.8 2.7-1.9 5.1-3.6 7.4-5.2.4 3 .9 6 1.3 8.8 3.6-.9 8.6-2.4 13.6-3.4 1-.2 2.7.7 3.3 1.6 1.2 1.7 1.9 3.8 2.9 5.9 9.1-2.2 18.1-5.9 27.3-6.1 9.1-.3 18.3 2.9 28.1 4.7-.4-4-.8-8-1.1-12.1-.1-1.7-.2-3.4 0-5.1.6-4.3 1.6-8.6 1.9-12.9.7-10.1.7-20.2 1.6-30.2.5-6.3-.2-7.5-6.5-7.6-16.5-.3-33-.6-49.5-1.1-8.5-.3-8.5-.5-9.4 7.1 0 .2-.5.3-1.5.8-.5-1.9-.8-3.8-1.6-5.5-.6-1.2-1.5-2.6-2.7-3.1-2.4-1.1-5-1.6-7.6-2.4 1.3-2.8 2-4.3 2.3-4.9-1-2.7-1.8-4.8-2.6-6.8 2.5-.9 4.9-1.8 7.4-2.6.5-.2 1.3.2 1.6-.1 1.4-1.2 3.6-2.5 3.7-3.9.7-6.7 1.1-13.4 1.2-20.1.5-20.5.7-40.9 1.2-61.4.1-2.2 1.1-4.4 1.7-6.6.3.1.6.2 1 .4-.6 30.4-1.3 60.7-1.9 91.4h9.6V121.7c-3.9.7-7.7 1.8-11.5 1.8-2.6 0-5.3-1.3-8-2.1.6-1.9 1.2-3.9 1.9-5.8.4-1.1 1.3-2.3 1-3.1-1.4-3.8 1-5 3.8-5.6 3.9-.8 7.8-1.5 11.7-1.6 6.6-.1 13.1.7 19.7.6 7.9-.1 15.7-1 23.6-1.1 15.8-.2 31.6-.2 47.4-.2 2.9 0 5.8-.1 8.7-.4 3.1-.4 6.1-1 9.7-1.7 3.5-10.4 3.5-10.4 6.9-11.8-.8 3.8-1.6 7.4-2.4 10.8.6.5.9.9 1.2.9 7.4.6 14.6.8 22.2-.6 9.4-1.7 19.2-.7 28.8-1.7 5.6-.6 7.3 2.9 8.2 6.6.8 3.7.2 7.8.1 11.7-.2 6.9-.8 13.7-.8 20.6 0 4.8.5 9.6-5.5 11.4-2.2.6-4.5 1-6.6 1.7-5.9 2-6.5 1.6-6.5-4.9 0-7.7-.3-15.4.1-23.1.3-5-1.8-6.5-6.3-6.3-10.9.4-21.9.8-32.8 1.1-3.2.1-4.2 1.6-4 4.5.4 5.6.9 11.2 1.1 16.8.5 21.5.8 43 1.1 64.4 0 3.2-1.1 6.4-1 9.6.2 8.2 1.4 16.4.9 24.6-.4 6-2.9 11.8-4.5 17.7-.8-.1-1.5-.3-2.3-.4.4-2.9.3-5.9 1.2-8.5 2.4-7.2 3.1-14.2 1.8-21.8-1-6.1-.3-12.5-.2-18.8.1-2.9 1-5.7.9-8.6-.6-23.1-1.4-46.3-2.1-69.4-.1-3.2 0-6.5 0-10.3-5.3.5-9.9 1-14.6 1.2-22.1.8-44.2 1.5-66.3 2.3-3 .1-6.1.7-6 4.7 0 6.7.3 13.5.4 20.2.2 11.7.6 23.4.5 35 0 7.6-.8 15.3-.8 22.9 0 1.3 2.1 3.8 3.1 3.8 9.8-.6 19.5-1.6 29.6-2.5.8-5.6-1.8-12.5 7.1-15.1 3.9-1.1 8.4-2.6 11.5.8 1.4 1.5 2.2 4.1 2.2 6.2-.1 11.5-1 22.9-.7 34.4.1 6.8-1.2 9.7-7.9 11-1.5.3-3.2.2-4.6.7-3.8 1.5-5.9.3-6.4-3.8-.4-4.1-.9-8.2-1.4-13.1H119c-.4 7-1.1 13.1-1.1 19.3-.1 21.1 0 42.3-.1 63.4 0 3 .5 4.2 4.2 4.1 5.2-.2 10.5.7 15.8 1.5 10.4 1.5 14-2.2 13.2-12.4-.6-8.4-.2-16.9 0-25.4.1-2.1 1.1-4.1 1.7-6.2 1.3 1.4 1.5 2.7 1.5 4-.3 11.8-.9 23.7-.9 35.5 0 1.5 3.1 4.3 4.5 4.1 7.5-.8 15 1.3 22.7-.4 5.6-1.2 11.9.6 17.9.7 13.8.2 27.5.4 41.3.2 1.2 0 3.3-2.5 3.4-4 .4-4.7.1-9.5.2-14.3.1-5.3-1.1-10 6.5-13.1 4.7-1.9 7-1.3 10.6.2 4 1.6 2.7 4.9 2.6 7.5-.5 11.8-1.1 23.6-1.9 35.3-.1 1.8-1.2 4.5-2.6 5.2-2.9 1.5-6.4 2.5-9.6 2.7-5.1.3-10.3-.2-15.4-.4-12.4-.5-24.9-1.3-37.3-1.6-12.5-.3-25.1 0-37.7-.1-3 0-4.4 1-4.3 4.1.1 4.9.1 9.9-.1 14.8-.6 12.4-1.5 24.7-2 37.1-.2 3.7-.7 8.4 1.2 11 1.2 1.7 6.6.3 10 .3 2.1 0 5.6 1 6 .2 2.3-4.4 5-2.3 7.8-1.1 4.5 1.9 8.8 2.9 13.5.3 1.3-.7 3.2-.4 4.8-.7 4.7-.7 9.5-1.4 14.2-2.3 3.3-.6 6.6-2 9.9-2 16.5-.2 33.1-.1 49.6-.1 2.3 0 4.7-1.1 6.8-.7 6.8 1.4 13.2 1.6 20-1.3 5.8-2.4 12.6-2.4 18.9-3.6 10.8-2.1 21.1-1.3 30.5 5.4 4.4 3.1 9.8 3.6 14.6 1.8 7.8-3 14.7-1.5 21.8 1.8 3 1.4 6.3 2.4 9.6 3.2 6.3 1.5 11.8-.7 17.1-3.7.9-.5 2.6-.5 3.4.1 8.7 5.9 9 5.9 15.7 1 5.4 1.4 10.2 2.6 15.3 3.8 7.6-8.8 3-19.2 4.1-28.8 1-9.6 1.4-19.4 2.2-29.9-3 2-5.2 4-7.7 5.1-2.3.9-6.1 1.9-7.3.8-2.6-2.5-4-6.2-5.6-9.5-.2-.4 1.5-2.2 2.6-2.8 5.7-2.9 6.6-5.6 3.4-11-.8-1.4-1.4-2.8-2.1-4.3-4.8-10-9.8-19.9-14.4-30-5.9-12.8-11.5-25.8-17.3-38.7-.4-.8-1.4-1.4-2.4-2.2-.6 1.8-1 3.2-1.5 4.6-1-5.6-4-4.2-7.7-3.4-5.4 1.3-11 1.7-16.5 2.3-4.7.5-9.5.6-14.2 1.4-1.1.2-2.5 2.7-2.5 4.1.1 6.2.9 12.5 1 18.7.2 14.9.7 29.8 0 44.6-.4 8.3-.3 9.3 8.4 9.5 1.7 0 3.9.1 5.1 1 5.4 4.1-1.7 8.1-.5 12.4.3 1-1.4 3.6-2.5 3.7-3.1.4-6.3 0-9.4-.2-7-.5-14-1.2-21.1-1.5-5.1-.2-10.2.7-15.2.2-2.3-.2-6.2-2.4-6.2-3.7.1-4.1 1.5-8.2 2.8-12.2.2-.5 1.9-.8 2.9-.8 4.4-.1 8.8 0 13.5 0 .5-2.6 1.2-4.8 1.2-7.1.2-7.2-.1-14.4.1-21.6.1-6 1.1-12 .8-18-.7-13.7-2-27.4-3.1-41.1-.7-9.2-1.4-18.4-2.3-27.6-1.4-15.1-3.1-30.2-4.3-45.3-1-12.6-1.4-25.3-2.3-37.9-.4-5.9-2.3-7.2-7.9-5.8-2.2.5-4.1 1.7-7.4 3.1-.8-3.2-1.6-6.1-2.4-9.3-.9-1.4-2.8-3.2-2.9-5.1-.1-1.2 2.5-2.8 4.2-3.7 2.4-1.2 4.9-2.1 7.5-2.7 9.8-2 19.6-3.9 29.5-5.4 4.9-.8 9.9-1 14.8-1.1 12.3-.5 24.7-.8 37-1.1-.7-9.5-1.6-18.1-1.9-26.8-.2-4.3.8-8.6.9-13 .1-3.1-.6-5.5-5-4.9-3.3.5-6.8-.6-10.2-.5-11.2.3-22.5.7-33.7 1.2-11.4.5-22.8 1.5-34.2 1.9-11.3.3-22.5.1-33.8.1-6.4 0-6.8.7-5.7 6.9.6 3.3.1 6.8.1 10.2-.9 0-1.8.1-2.8.1-.1-3.3.2-6.7-.5-9.9-.4-1.7-2.5-4.4-3.9-4.4-4.8 0-9.7 1.3-14.5 1.4-17.4.2-34.7.1-52.1.1-4.5 0-9-.2-13.5-.2h-31.2c0 3.2.1 6.6 0 10-.1 3.2-.3 6.4-1 9.4-.6 2.6 2.9 6.2-2.2 8.8 0-7.9-.1-14.8 0-21.7.1-3.3-1.5-4.6-4.5-4.6-10.5.1-20.9.4-31.4.4-7.1-.1-14.1-.6-21.2-1-2.8-.2-4.6.5-4.6 3.8 0 10.6-.1 20.9-.1 31.2zM586.8 7.5H4.7c.3 4.9.8 10.3.7 15.6-.2 10.1-.5 20.2-1.1 30.4-.3 5 1.7 6.2 6.4 6 20.3-.6 40.6-.8 60.8-1.2 6.1-.1 12.2-.7 18.7-1.2-.7 5 1.8 5.7 5.5 5.7 8.5-.2 16.9-.2 25.4 0 10.2.3 20.7 3.3 30.2-3.1.3-.2.7-.1 1-.1 15.8.3 31.7.6 47.5.7 3.3 0 6.6-1.5 9.9-1.5 4.3 0 8.5 1 12.8 1 8.4.1 16.8.2 25.2-.3 8-.4 16.5 3 23.8-3.1.5-.4 1.4-.2 2.1-.2 3.9.2 7.9.9 11.8.5 14.8-1.6 29.7.1 44.6-2.3 12.8-2.1 26.2-1.3 39.3-1.4 7.6-.1 15.3.6 22.9 1.1 2.9.2 6.6-1.8 8 3 .2.7 2.9.8 4.4.9 3.6.2 7.1.2 10.7.2 5.7.1 11.5.7 17.1 0 8.9-1.1 17.7-3.5 26.6-4.7 5-.7 10.2.1 15.2-.1 8.5-.2 17.1-.6 25.6-.8 4.7-.1 9.3.2 14 .3 5 .1 10-.3 15 .1 9 .7 17.9 1.9 26.9 2.6 3.2.3 6.5-.5 9.7-.3 6.8.3 13.7.9 21.3 1.4.1-16.8.1-32.6.1-49.2zM452.7 218.1c12.4-3.5 23.2-13.4 28.1-25.5 5.3-12.8 6.5-25.6-.3-38.4-5.8-10.8-13.4-19.8-25.3-23.9-6.6-2.2-13.5-3.7-20.4-4.6-8.6-1.2-17.4-1.6-26.1-2.4-1.8-.2-3.6-.4-5.3-.9-3.4-.9-5 .9-5 3.8.2 12.6.6 25.3.9 37.9.1 4.5.1 9.1-.2 13.7-.5 6-2 12.1-1.9 18.1.2 11.6 1.1 23.3 2 34.9.1.9 1.8 2.6 2.4 2.4 14.6-3.6 29.1-7.4 43.7-11.1 3.9-1 4.8-3.2 4.8-7 .1-12.7.4-25.4 1.1-38.1.6-10.2 1.9-20.4 2.8-30.7.3-2.9.4-5.7.7-8.6h1.5c.5 1.6 1.5 3.3 1.4 4.9-.6 11.6-1.4 23.2-2.2 34.8-.9 13.2-1.8 26.6-2.7 40.7zM395 123.2c-4.1.4-8.6.9-13.1 1.1-10.9.5-21.9.9-32.8 1.1-3.5.1-5 1.2-4.8 4.8.3 5.4.2 10.8.7 16.2.7 7.5 1.8 15 2.6 22.4.5 5.3.9 10.6 1.2 16 .3 6.7.2 13.4.7 20.1.6 8 1.4 16 2.7 23.9.6 4 0 10 6.6 9.5 11.8-1 23.6-2.5 35.4-4.1.8-.1 1.9-2.6 1.8-4-.3-4.5-1.1-8.9-1.5-13.4-.6-6.8-1.6-13.7-1.5-20.6.1-7.6 1.6-15.1 1.9-22.7.4-9.9.1-19.8.1-29.7v-20.6zm114 312.5c-26.9 3.8-52.8 7.5-78.7 11.2 0 .5.1.9.1 1.4 14.8-1 29.7-1.7 44.5-3.2 11.1-1.1 22-3.3 33.1-4.9.4-.1 1.1 1.5 2 2.8-11.8 1.3-22.7 2.5-33.5 3.7 1.8 1.1 3.5 1.1 5.3 1.1 14-.4 28-.6 42-1.2 8.8-.4 17.5-1.4 26.6-2.1-.7 1.1-1.3 1.9-2.1 3h37.9v-18c-25.4 2-50.4 3.9-75.3 5.8 0-.5-.1-1.1-.1-1.6 25.2-5 51-4.6 77.1-7-.4-2.3-.7-4.2-1-6.2-9.4 1.1-18.2 2.4-26.9 3.1-10.7.8-21.5 1-32.2 1.8-5.7.4-11.4 1.4-17.1 2.2-3.5.5-7 1.2-10.5 1.4-5.3.4-10.6.2-15.9.8-6 .7-11.9 2.1-17.9 3-11.5 1.7-23.1 3.3-34.6 5.1-12 1.8-24.1 3.7-36.1 5.7-7.7 1.2-15.4 2.6-23.1 3.9 5 .6 9.9.5 14.8.7 16.8.4 33.4-1.1 49.9-4.4 10.7-2.1 21.7-3 32.5-4.6 9.4-1.4 18.7-3.3 28-4.8 2.7-.4 5.6-.6 8.3-.5.8-.2 1.7 1 2.9 1.8zm-55.4-328c-.7-15-1.4-30.7-2.1-46.7h-12.7c-11.6.1-23.2.1-34.7.3-2.4 0-5.3-.8-5 4.2.7 10.9.2 21.9.6 32.8 0 1.3 2.3 3.5 3.7 3.7 6.8.6 13.6.2 20.4 1 9.6 1.2 19.2 3 29.8 4.7zm-95.4 295.7c-5.6-1.4-11.6-1.9-16.6-4.5-4.7-2.5-8.3-5.5-14.5-5.7-10.7-.3-21.2-.7-30.6 4.6-4.6 2.6-8.9 2.8-13.5 2.6-3.1-.1-6.1-1.1-9.1-.9-7.5.7-15 1.8-22.6 2.8.6.5 1.2 1.4 2 1.4 7.7.8 15.4 2.2 23.2 2.1 9.7-.1 19.5-1.5 29.2-2 2.9-.2 5.9 1.1 8.8.9 11.8-.9 23.3.6 34.8 2.4 4.4.8 7.4-1 8.9-3.7zm-252.5-1.6c1.7 1.9 2.3 3.4 3.3 3.6 11.3 2.8 22.6 3.2 35.4-1.5-10.8-1.8-20.3-3.6-29.8-4.7-2.5-.2-5.4 1.5-8.9 2.6zm276.9 4.1c-11.5-8-15.9-8.7-19.6-3.5 6.7 1.2 13.1 2.4 19.6 3.5zm-174-4.2c7.2 6.9 11.6 0 16.8-.7-.1-.6-.2-1.3-.3-1.9-5.2.7-10.5 1.6-16.5 2.6zm320.8 18.9c.1.6.1 1.1.2 1.7 8.7-.7 17.3-1.4 26-2.1-.1-.6-.1-1.3-.2-1.9-8.7.7-17.3 1.5-26 2.3zM374.3 409c-9.4-4.4-11.1-4.3-15.8 1.4 5.6-.5 10.6-.9 15.8-1.4zm153.8 11.8c-6.6.5-13 .9-19.3 1.3 6.3 2.8 17.1 1.7 19.3-1.3z"/>
  <path d="M108.9 456.6c7.3-.3 14.6-.9 21.9-.9 23.2-.1 46.4-.1 69.6-.1 24.2 0 48.5.1 72.7-.1 15.9-.1 31.9-.8 47.8-.9 11.2 0 22.4.7 33.7.8 10.6.1 21.2-.4 31.8-.5 8.7-.1 17.5 0 26.2 0 20.3-.1 40.6-.2 60.9-.2 14.8 0 29.6.5 44.5.5 15.5-.1 30.9-.7 46.4-1 9.7-.2 19.4 0 29.1 0V1.1h-10.9c-159.7.1-319.3.1-479 .2-32.7-.1-65.1 0-97.6 0-2 0-4-.1-6-.2C.2.7.3.1.6 0H595.3v456.6H108.9z" fill="#fff"/>
  <path d="M90.2 100.8c0-10.3.1-20.7 0-31 0-3.3 1.8-4 4.6-3.8 7.1.4 14.1 1 21.2 1 10.5.1 20.9-.2 31.4-.4 3 0 4.6 1.3 4.5 4.6-.1 6.9 0 13.8 0 21.7 5.1-2.6 1.6-6.2 2.2-8.8.8-3 .9-6.3 1-9.4.2-3.4 0-6.8 0-10h31.2c4.5 0 9 .2 13.5.2 17.4 0 34.7.1 52.1-.1 4.8-.1 9.7-1.4 14.5-1.4 1.4 0 3.5 2.6 3.9 4.4.7 3.2.4 6.6.5 9.9.9 0 1.8-.1 2.8-.1 0-3.4.5-6.9-.1-10.2-1.1-6.2-.8-6.9 5.7-6.9 11.3 0 22.5.3 33.8-.1 11.4-.3 22.8-1.3 34.2-1.9 11.2-.5 22.5-.9 33.7-1.2 3.4-.1 6.9 1 10.2.5 4.4-.6 5.1 1.7 5 4.9-.1 4.3-1.1 8.7-.9 13 .3 8.6 1.2 17.3 1.9 26.8-12.3.4-24.7.7-37 1.1-5 .2-9.9.4-14.8 1.1-9.9 1.6-19.7 3.5-29.5 5.4-2.6.5-5.1 1.5-7.5 2.7-1.7.9-4.3 2.5-4.2 3.7.1 1.9 2.1 3.7 2.9 5.1.8 3.2 1.6 6.2 2.4 9.3 3.3-1.4 5.2-2.5 7.4-3.1 5.6-1.4 7.5-.1 7.9 5.8.9 12.6 1.3 25.3 2.3 37.9 1.2 15.1 2.9 30.2 4.3 45.3.8 9.2 1.6 18.4 2.3 27.6 1.1 13.7 2.3 27.4 3.1 41.1.3 6-.7 12-.8 18-.2 7.2 0 14.4-.1 21.6 0 2.3-.8 4.5-1.2 7.1-4.7 0-9.1-.1-13.5 0-1 0-2.8.3-2.9.8-1.2 4-2.7 8.1-2.8 12.2 0 1.3 3.9 3.5 6.2 3.7 5 .4 10.2-.4 15.2-.2 7 .3 14 1 21.1 1.5 3.1.2 6.3.6 9.4.2 1-.1 2.7-2.7 2.5-3.7-1.2-4.3 5.9-8.3.5-12.4-1.3-1-3.4-1-5.1-1-8.8-.2-8.8-1.2-8.4-9.5.7-14.8.2-29.8 0-44.6-.1-6.2-.9-12.5-1-18.7 0-1.4 1.4-3.9 2.5-4.1 4.7-.8 9.5-.9 14.2-1.4 5.5-.6 11.1-1 16.5-2.3 3.7-.9 6.7-2.2 7.7 3.4.4-1.4.9-2.8 1.5-4.6 1 .9 2 1.4 2.4 2.2 5.8 12.9 11.4 25.9 17.3 38.7 4.6 10.1 9.6 20 14.4 30 .7 1.4 1.3 2.9 2.1 4.3 3.2 5.4 2.3 8.1-3.4 11-1.1.6-2.8 2.3-2.6 2.8 1.6 3.4 3 7.1 5.6 9.5 1.2 1.1 5 .1 7.3-.8 2.6-1 4.7-3 7.7-5.1-.7 10.5-1.1 20.2-2.2 29.9-1 9.5 3.5 20-4.1 28.8-5.1-1.3-9.9-2.5-15.3-3.8-6.7 4.9-7.1 4.8-15.7-1-.8-.5-2.5-.5-3.4-.1-5.4 3-10.9 5.2-17.1 3.7-3.3-.8-6.5-1.8-9.6-3.2-7.1-3.4-14-4.8-21.8-1.8-4.8 1.8-10.2 1.4-14.6-1.8-9.4-6.6-19.6-7.4-30.5-5.4-6.3 1.2-13.1 1.2-18.9 3.6-6.9 2.9-13.2 2.7-20 1.3-2.1-.4-4.5.7-6.8.7-16.5.1-33.1-.1-49.6.1-3.3 0-6.6 1.4-9.9 2-4.7.8-9.5 1.6-14.2 2.3-1.6.2-3.5-.1-4.8.7-4.6 2.6-9 1.6-13.5-.3-2.8-1.2-5.5-3.3-7.8 1.1-.4.8-3.9-.2-6-.2-3.5-.1-8.8 1.3-10-.3-1.9-2.6-1.3-7.2-1.2-11 .5-12.4 1.4-24.7 2-37.1.2-4.9.2-9.9.1-14.8-.1-3.1 1.4-4.1 4.3-4.1 12.5.1 25.1-.2 37.7.1 12.4.3 24.9 1.1 37.3 1.6 5.1.2 10.3.7 15.4.4 3.3-.2 6.7-1.2 9.6-2.7 1.4-.7 2.5-3.3 2.6-5.2.8-11.8 1.5-23.5 1.9-35.3.1-2.6 1.5-5.9-2.6-7.5-3.6-1.4-5.9-2-10.6-.2-7.7 3.1-6.4 7.8-6.5 13.1-.1 4.8.3 9.6-.2 14.3-.1 1.5-2.2 4-3.4 4-13.8.2-27.5.1-41.3-.2-6-.1-12.3-2-17.9-.7-7.7 1.7-15.1-.4-22.7.4-1.4.2-4.5-2.7-4.5-4.1 0-11.8.5-23.7.9-35.5 0-1.3-.2-2.6-1.5-4-.6 2.1-1.7 4.1-1.7 6.2-.2 8.5-.6 17 0 25.4.8 10.3-2.8 13.9-13.2 12.4-5.2-.8-10.5-1.7-15.8-1.5-3.7.1-4.2-1.1-4.2-4.1.1-21.1-.1-42.3.1-63.4 0-6.2.7-12.3 1.1-19.3h31.6c.5 4.9 1 9 1.4 13.1.4 4 2.6 5.3 6.4 3.8 1.4-.5 3.1-.4 4.6-.7 6.7-1.3 8-4.2 7.9-11-.2-11.5.6-22.9.7-34.4 0-2.1-.8-4.7-2.2-6.2-3.1-3.4-7.6-1.9-11.5-.8-8.8 2.5-6.3 9.5-7.1 15.1-10.1.9-19.9 1.9-29.6 2.5-1 .1-3.1-2.5-3.1-3.8 0-7.6.8-15.3.8-22.9 0-11.7-.3-23.4-.5-35-.1-6.7-.4-13.5-.4-20.2 0-4 3.1-4.6 6-4.7 22.1-.8 44.2-1.5 66.3-2.3 4.7-.2 9.3-.8 14.6-1.2 0 3.8-.1 7 0 10.3.7 23.1 1.5 46.3 2.1 69.4.1 2.8-.9 5.7-.9 8.6-.1 6.3-.8 12.7.2 18.8 1.3 7.6.7 14.6-1.8 21.8-.9 2.7-.8 5.7-1.2 8.5.8.1 1.5.3 2.3.4 1.6-5.9 4.1-11.7 4.5-17.7.5-8.1-.7-16.4-.9-24.6-.1-3.2 1.1-6.4 1-9.6-.3-21.5-.6-43-1.1-64.4-.1-5.6-.7-11.2-1.1-16.8-.2-2.9.7-4.4 4-4.5 10.9-.2 21.9-.6 32.8-1.1 4.5-.2 6.5 1.3 6.3 6.3-.4 7.7-.1 15.4-.1 23.1 0 6.5.7 6.9 6.5 4.9 2.1-.7 4.4-1.1 6.6-1.7 6.1-1.7 5.5-6.6 5.5-11.4.1-6.9.6-13.7.8-20.6.1-3.9.8-8-.1-11.7-.8-3.7-2.5-7.2-8.2-6.6-9.6 1-19.4 0-28.8 1.7-7.5 1.4-14.8 1.1-22.2.6-.3 0-.5-.4-1.2-.9.7-3.4 1.5-7 2.4-10.8-3.4 1.3-3.4 1.3-6.9 11.8-3.5.6-6.6 1.3-9.7 1.7-2.9.3-5.8.4-8.7.4-15.8.1-31.6 0-47.4.2-7.9.1-15.7 1-23.6 1.1-6.6.1-13.1-.7-19.7-.6-3.9 0-7.8.8-11.7 1.6-2.9.6-5.2 1.8-3.8 5.6.3.8-.7 2.1-1 3.1-.6 1.9-1.3 3.9-1.9 5.8 2.7.7 5.3 2.1 8 2.1 3.8-.1 7.5-1.2 11.5-1.8v191.8h-9.6c.6-30.7 1.3-61 1.9-91.4-.3-.1-.6-.2-1-.4-.6 2.2-1.7 4.4-1.7 6.6-.5 20.5-.7 40.9-1.2 61.4-.2 6.7-.5 13.4-1.2 20.1-.2 1.4-2.4 2.7-3.7 3.9-.3.3-1.1-.1-1.6.1-2.5.8-4.9 1.7-7.4 2.6.8 2.1 1.6 4.1 2.6 6.8-.3.6-1 2.1-2.3 4.9 2.6.8 5.3 1.4 7.6 2.4 1.1.5 2.1 1.9 2.7 3.1.8 1.7 1 3.6 1.6 5.5.9-.5 1.5-.6 1.5-.8 1-7.5.9-7.3 9.4-7.1 16.5.5 33 .8 49.5 1.1 6.3.1 7 1.4 6.5 7.6-.8 10.1-.9 20.2-1.6 30.2-.3 4.3-1.3 8.6-1.9 12.9-.2 1.7-.1 3.4 0 5.1.3 4.1.7 8.1 1.1 12.1-9.8-1.8-19-5-28.1-4.7-9.2.3-18.2 3.9-27.3 6.1-1-2.1-1.7-4.2-2.9-5.9-.7-.9-2.3-1.8-3.3-1.6-5 1-9.9 2.5-13.6 3.4-.4-2.8-.9-5.8-1.3-8.8-2.3 1.6-4.7 3.3-7.4 5.2-.3-.5-1.1-1.8-2.2-3.8-2 1.5-4 3-5.8 4.4-10.1-10.5-7.7 3.9-11.4 6.1-1.6-1.7-3-3.2-4.9-5.1-1.1 2.3-1.9 4.1-2.8 6.2-2.3-3.7-4.1-1.9-7.4 2.4 1.9 1.1 3.7 2.5 5.8 3.2 2 .6 4.5 1 6.5.5 3.9-1 6.8-5.9 11.8-3.3 1 .5 2.1 1 3.2 1.2 2.1.3 4.6 1.2 6.4.5 4.5-1.7 8.7-4.2 14.3-7-2.5 4.8-2.9 7.9 2.9 6.1 5.7 5.9 12.1-1 18.1 1 2.6.9 5.4 1.2 8 1.9 2.1.6 4.2 1.5 4.8 1.8-33.5 5.6-68.9 11.8-104.5 18-3-8.3-2.1-16.3-1.1-25 10.8 7.1 21.1 6.4 23.1-.4-3-1.3-5.9-2.6-9.4-4.1-.5 1.4-1.3 3.2-2.2 5.3-3.8-2-7.6-3.8-11.3-5.9-.7-.4-1-1.8-1-2.8 0-15.1.2-30.2.3-45.3.1-10.7.2-21.4.2-32-.1-19.1-.4-38.2-.5-57.3-.1-15.2.2-30.4.2-45.6 0-22 0-44-.2-66-.2-22.9-.7-45.7-1.1-68.5-.1-4.7-.3-9.4.2-14.1.1-1.3 2.4-3.4 3.8-3.4 8.7 0 17.3.8 25.9.7 14.3-.1 28.7-.6 43-1.2 9.7-.4 9.5-.5 9.7 9.5.2 8.6.6 17.1 1.1 25.6.1 1.2 1 2.3 1.5 3.5.2 0 .4-.2.6-.4zM33.8 346.9c-.1-1.2-.3-2.5-.4-3.7-.2-4.4-.9-8.9-.2-13.2.4-2.8 3.6-5.3 4.1-8.1 2.6-15.8 4.2-31.5 2.6-47.7-2.1-20.1-2.6-40.3-3.5-60.5-.7-15.6-.8-31.3-1.1-47 0-1.8.6-3.6.7-5.3.5-8.7 1-17.5 1.6-27.2-1.5 1.3-2.1 1.6-2.5 2.2-.4.5-.6 1.3-.7 1.9-.8 14.1-1.8 28.1-2.3 42.2-.3 9.5-.5 19.1.1 28.6 1 14.8 3 29.5 4.1 44.3.5 6.6.1 13.2.1 19.8 0 12.9.6 25.8-.3 38.6-.4 5.7-.7 11.9-5.8 16.9-4.2 3.8-2.2 14.5 3.5 18.2zm239.1-168.3-.6-.3c-.5 1.6-1.4 3.2-1.5 4.8-.2 7.8-.2 15.6-.1 23.4.3 14.4.8 28.8 1 43.2.2 8.6-.2 17.2.1 25.8.9 23.4-1.2 46.6-4.6 69.7-1.3 8.9-1.6 18-1.9 27-.1 1.8 1.6 3.6 2.5 5.5.6-.2 1.1-.4 1.7-.6 0-2.1-.1-4.3 0-6.4.7-11.6 1.3-23.2 2.2-34.7.8-10.1 3.2-20.1 3.1-30.1-.3-33.4 2-66.8-1.9-100.2-.9-9 0-18.1 0-27.1zm122.6 103.7c-.4 2.3-1.1 4.5-1.1 6.8.1 22.3.6 44.5.6 66.8 0 10.7-.8 21.4-1 32.2-.1 4.1.5 8.3.7 12.4.7 0 1.3-.1 2-.1 1-39.5 3.9-78.7-1.2-118.1zm-90.1 3.6c-6.3-29.2-2.6-58.4 0-88-8.1 7-8.2 80.5 0 88zm-106.8-16.5c6.3 8.6 12.3 7.9 16.7 2.8 2.4-2.8 4-6.9 4.6-10.6 1.1-6.6 1.7-13.4 1.7-20.2.1-5.6-.9-11.3-1.4-17-.7 0-1.5.1-2.2.1 0 4.4-.6 8.9.1 13.1 1.6 9.7.1 19-2.5 28.1-2.1 7.2-6.3 8.4-13 4.5-.9-.3-2-.3-4-.8zM8.2 419c0 1.1.1 2.1.1 3.2 21.4-3.6 42.8-7.3 64.3-10.9-.1-.8-.3-1.6-.4-2.4-21.4 3.4-42.7 6.7-64 10.1zm181.9-151.6c-5.1 7.6-2.1 21.9 3.5 26.5 5 4 9.4 2 14.3-.6-1-.9-2.2-1.5-3.1-1.2-4.3 1.5-8.3 1.6-10.1-3.3-1.7-4.7-2.7-9.7-3.9-14.7-.4-1.8-.4-3.7-.7-6.7zm-165.4 74c-.6-.1-1.3-.2-1.9-.2-.3 4.3-1.1 8.8-.6 13 .8 7 2.4 13.7 10.3 16.8 4 1.6 6.1.2 8.5-3.1-12.4-1.2-12.7-1.4-14.7-13.9-.6-4.1-1-8.4-1.6-12.6zm63.7 13.3c-.7 0-1.4-.1-2.1-.1-1.5 13-4 26-3.8 39.1.9.1 1.8.1 2.7.2 1-13.1 2.1-26.1 3.2-39.2zm117.7 28.1c1.1-10.2 2.3-20.5 3.3-30.7.1-.9-1.1-1.9-2.2-3.8-3.5 11.9-5.2 22.9-1.1 34.5z" fill="#fff"/>
  <path d="M446.2 426.3c1-.5 2-1.4 3.1-1.5 10.1-1.2 20.2-2.2 30.3-3.5 1.2-.2 2.4-1.2 3.5-1.8-.1-.4-.2-.9-.3-1.3-6 .5-12.1.8-18.1 1.5-10.7 1.2-21.5 2.6-32.2 4-7.8 1-15.7 2.1-23.5 3-6.8.8-13.6 1.2-20.4 2.1-6.3.8-12.5 2.2-18.8 3.1-7.1 1-14.4 1.5-21.4 2.8-13.4 2.5-26.7 5.4-40 8.1-5.8 1.2-11.5 2.8-17.4 3.3-12.5 1.1-25 1.7-37.7 1.4 77.9-18.3 156.5-32.3 237.8-35.8-1.4-.8-1.8-1.1-2.3-1.2-.5-.1-1.1-.1-1.6 0-10.7.1-21.4-.3-32 .6-17.3 1.5-34.5 3.6-51.7 5.8-15 2-29.9 4.4-44.8 6.7-14 2.2-28.1 4.2-42 6.7-12 2.2-23.8 4.9-35.7 7.5-15 3.3-30 7-45.2 9.7-6.3 1.1-12.9.2-19.4.3-15.9.3-31.8 1-47.7 1-9 0-18-1-28.5-1.6 2.9-1.1 4.5-1.7 6.1-2.4 0-.4-.1-.7-.1-1.1-2.7.3-5.4.7-8.2 1 .2 1.4.8 3.4.4 3.6-2 1.3-2.8.4-2.2-1.9 0-.1-1.6-1-2.2-.8-8.6 2.7-17.1 3.7-26.2 2.4-8.1-1.1-16.5-.1-24.7-.2-.8 0-3.8 2.1-2.3-1.6-1.3-.2-3.5-1-3.8-.5-3.5 5.6-9 2.7-13.3 2.9-17.1.5-34.2.1-51.3.3-4.9.1-7.8-1.2-6.9-6.8v-.5c0-9.8 0-9.7 9-11.5 13.2-2.7 26.2-5.8 39.4-8.2 11.6-2.1 23.4-3.5 35.1-5.2 9-1.3 18-2.7 27-4 11.4-1.6 22.7-3.1 34.1-4.7.5-.1 1.1-.2 1.5-.5 6.8-4.6 9.2-4.5 15.4-.5 13.5-3.4 26 0 38.5-.3-60.4 7.8-121.1 13.7-180.1 30.6 1 0 2 .2 2.9 0 11.3-2.5 22.5-5.2 33.8-7.4 7-1.4 14.2-2 21.3-3.1 15.1-2.5 30.2-5.4 45.4-7.5 15.3-2.1 30.7-3.3 46-5.2 9.3-1.2 18.4-2.9 27.6-4.3 3.9-.6 7.8-.9 11.6-1.5 5.8-1 11.5-2.8 17.3-3 6.1-.2 12.2 1.3 18.3 1.9 6 .5 12.1.7 18.1 1.1.5 0 1.1.5 2.2 1.1-9.6.8-18.4 1.5-27.1 2.3-12.2 1.1-24.5 1.9-36.7 3.3-8.8 1-17.5 3.3-26.4 4-19.9 1.7-39.5 4.7-59 8.8-20.4 4.3-41.1 7.5-61.7 11.3-1.5.3-2.8 1.1-4.2 1.7.1.5.3.9.4 1.4 4.3-.9 8.6-1.9 12.9-2.7 11.9-2.1 23.8-4.2 35.7-6.2 6.9-1.1 13.9-1.9 20.7-3.2 7.5-1.5 14.8-3.7 22.3-5.1 4.8-.9 9.7-.8 14.6-1.4 13.3-1.7 26.5-3.8 39.7-5.3 11.5-1.4 23-2.5 34.5-3.4 15.4-1.3 31.1-.7 46-4 8.2-1.8 16.2-3.9 24.6-3.7 4.9.1 9.8 1 16 1.6-40.9 4.9-80.5 8.9-119.8 14.7-39.1 5.7-78.3 10.9-116.5 21.9 2.5-.3 5.1-.4 7.6-.8 12.5-2.2 25-4.3 37.4-6.7 8.3-1.6 16.4-3.9 24.7-5.2 8.5-1.3 17.1-1.7 25.6-2.7 4.4-.5 8.8-1.4 13.2-2.1 9.3-1.5 18.7-2.9 28.1-4.3 7.9-1.2 15.8-2.6 23.8-3.7 3.7-.5 7.4-.3 11.1-.7 13.8-1.5 27.6-3.2 41.4-4.7 12.1-1.4 24.2-2.8 36.3-4 4.4-.4 8.8-.1 13.2.6-37.6 5.3-75.2 10.6-112.8 16 .1.9.2 1.8.4 2.8 13.5-1 26.6-4.6 40-6.2 13.6-1.6 27.2-3.4 40.7-5.5 13.2-2.1 27-1.6 40.5-6.4-.1-.2.4.8.7 1.3 8.9-.6 17.6-1.2 26.3-1.8 0 2.9-1.3 4.2-4.4 3.8-2.2-.3-4.6-.3-6.8 0-9.9 1.4-19.8 3-29.8 4.3-7.4 1-15 1.2-22.4 2.5-19.2 3.4-38.4 7.1-57.6 10.7-3.8.7-7.7 1.6-11.5 2.2-7.2 1-14.5 1.6-21.7 2.7-8.8 1.5-17.6 3.3-26.4 5.2-3.9.8-7.6 2.3-11.4 3.4.2.4.3.9.5 1.3 65.7-11.6 131.3-23.7 199-32.3-3.6-1.8-5.6-2.8-7.6-3.7 2.5-.5 5.1-.9 7.6-1.5 5.6-1.2 11.2-2.9 16.9-3.6 6-.7 11.9 1.6 18.2-.9 3.1-1.2 7.6 1.2 11.5 2 .7.1 1.4 1 1.9.8 5.5-1.3 10.9-2 16.6-.2 1.1.3 3.3-3 5.5-5.1 2.1 1.1 4.7 2.5 7.8 4.2 1-.6 2.4-1.9 4-2.5 1.3-.4 3-.2 4.5.1 2.4.4 5.1 1.9 7.1 1.2 5.5-1.9 10.6-.6 16 0 4.7.6 9.6 0 14.4.3 2.2.1 4.4 1.1 6.6 1.6 1.2.3 3 .9 3.7.4 6.7-5.7 14.4-.8 21.4-2.1 1.9-.4 3.8-.9 5.8-1.4 1.6 4.2 5.6 4.7 10.9.5-1-1.2-2-2.3-3-3.5-.1.4-.2.9-.3 1.3-1.7 0-3.5.1-5.2 0-5.4-.4-10.8-.9-16.2-1.6-1.1-.1-2.1-1.2-3.2-1.4-2-.3-4.2-1.9-5.6 1.9-1 2.8-4 4.6-7.5 1.6-1.3-1.1-3.5-1.3-5.4-1.7-3.1-.7-6.2-1.3-9.3-1.9-1.2-.2-2.5-.1-3.7.1-3.7.5-7.5 2.1-10.9 1.4-2.5-.5-4.4-.7-6.6.3-3.2 1.5-6.2 1.8-8.4-1.7-.3-.5-1.4-1.1-1.8-.9-6.6 2.7-13.8-3.9-20.4 1.5-2.3 1.9-7.2-1.8-7-5.5.4-13.1 1.2-26.2 1.9-39.3 0-.9.3-1.9.2-2.7-2.6-13.8 7.6-18.7 16.9-24.1 3.1-1.8 3.7-5.1 2-8.2-3.2-5.7-6.8-6-11.6-2-1.3 1.1-3 1.8-5.5 3.3-.7-2.5-1.7-4.6-1.7-6.6-.1-12.6-.3-25.3 0-37.9.2-6.6 1.4-13.3 1.9-19.9.1-1.1-.7-2.2-1.7-3.3-3.4 8.6-2.5 17.6-3.1 26.5-.6 9.3-1.1 18.5-1.7 27.6-1.2-1.9-3-4.3-4.3-6.9-6.3-12.7-12.5-25.4-18.6-38.2-1.9-4-3.3-8.2-5.1-12.3-1.2-2.7-.2-3.7 2.6-4.6 8.2-2.5 16.3-5.2 24.3-8.2 6.6-2.5 13.4-4.9 19.6-8.3 18.3-10.1 32.2-23.6 35.7-45.8 2.3-14.4 1.7-28-4.3-41.5-7.3-16.1-20.9-24.5-36.2-31.4-2-.9-4.5-3.4-4.6-5.3-.7-13.9-1-27.8-1.3-41.8-.1-6.3 1.2-6.9 7.4-6.1 4.4.6 9.1-.3 13.6-.3 14.8.1 29.6.3 44.5.6 16.9.3 33.9.7 50.8 1.1 4.4.1 8.9.3 13.1 1.4 4.4 1.1 2.3 5.6 2.5 8.3.4 5.9-.6 11.9-.8 17.9-.2 8.1-.1 16.2 0 24.3.1 10.5.5 21.1.5 31.6 0 13.4-.3 26.7-.3 40.1 0 11 .4 22 .5 33.1 0 2.7-.8 5.3-.8 8-.1 30.8-.1 61.6 0 92.4 0 10 1 20 1 29.9 0 11-.7 21.9-1 32.9-.2 7.2 0 14.5 0 22.3-1.5-.6-3.3-1.4-5.5-2.3-2 2.9-4.3 5.3-8.2 1.9-.5-.4-3.3 1.9-5 2.9 1.2 1 2.4 2.9 3.6 2.8 4.9-.1 9.9-.8 15.3-1.3v12.7c-10.1.6-19.9 1.3-29.7 1.9-.1-.6-.1-1.1-.2-1.7 7.6-.7 15.2-1.4 22.9-2l.3-1.8c-1.6-.3-3.3-1.1-4.9-.9-5.5.5-11 1.4-16.6 2.1-.7.1-1.8.2-2.1-.2-4-5.1-8.9-2.9-13.7-2-2.2.4-4.4.4-6.7 1.8 2.6.1 5.1.3 7.7.4-3.8-.7-8.8 4.5-11.6-1.7-.2-.4-1.7-.2-2.5-.2-13.9 1-27.8 2-41.7 3.1-1.1.1-2.2.9-3.3 1.4 0 .5.1 1.1.1 1.6 9.5-.7 19-1.4 28.5-2 .1.3.2.7.3 1-1 .4-1.9 1.1-3 1.2-18.7 1.9-37.4 3.7-56.1 5.5-2.8.3-5.6.2-8.4.4h.4zm88.7-333.7c0 4.1-.2 7.6 0 11 1 11.8 2.1 23.5 3.2 35.3.5 5.7 1.2 11.4 1.4 17.2.7 15.4 1.3 30.8 1.8 46.2.1 3.3-.2 6.6-.3 9.9-.2 8.9-1.1 17.9-.5 26.8.7 9.8 3.4 19.5 4 29.4.8 14.8.5 29.7-4.1 44.2-1.4 4.4-3.9 4.7-7.3 4.5-3.6-.2-4.9-2.2-5-5.6-.3-6.5-.8-13-1.2-19.7-.6.7-1.8 1.4-1.8 2.1-.2 6.2-1.2 12.7.2 18.6.8 3.3 5.3 6.6 8.8 8.1 1.6.7 6.3-2.3 7.4-4.6 2.5-5.4 4-11.4 5.3-17.2 2.8-12.7 2.1-25.6.8-38.4-1.1-11.5-3-22.9-3.9-34.4-.4-5.7 1.1-11.6.9-17.4-.9-25.4-2-50.9-3.3-76.3-.5-10.5-1.1-21-2.4-31.4-.4-2.8.5-7.6-4-8.3zm26 173.7c-.6 0-1.1 0-1.7.1-.4 4.5-.7 9.1-1.4 13.6-2.3 16.5-2.6 33.4-8.9 49.1-2.3 5.8-4.8 11.6-7.9 17-3 5.2-9.7 5.2-12.5.1-4.5-8.3-8.9-16.8-9.3-26.6-.1-3.4-.9-6.8-1.4-10.2-1.3.5-1.7.9-1.8 1.3-1 11.4.9 22.6 6.7 32.4 7.1 12.1 11.9 15.3 22.2 2.3 1.7-2.2 2.5-5.1 3.7-7.6.5.1.9.3 1.4.4 0 4.3.6 8.7-.1 12.9-2.3 13.1-2.6 13.3-11.4 12.5.5 4.1 3.4 5 8 2.6 5-2.6 5.5-7.6 5.6-12.2.3-6.9-.8-13.8-.3-20.7.4-5 2.6-9.7 3.6-14.7 1.2-6.2 2.1-12.4 3-18.6 1.3-9.1 2.6-18.2 3.6-27.3.4-2.1-.6-4.3-1.1-6.4zM148.7 442.8c.2.8.3 1.5.5 2.3 19.5-3.7 39-7.3 58.5-11-.6-1.3-1.5-1.9-2.3-1.8-19 3.2-38 6.1-56.7 10.5zm59.6-11.2c6.4 2.9 21.9.3 25.1-3.8-8.4 1.2-16.1 2.4-25.1 3.8z" fill="#fff"/>
  <path d="M586.8 7.5v49.1c-7.6-.5-14.5-1.1-21.3-1.4-3.2-.1-6.5.6-9.7.3-9-.7-17.9-1.9-26.9-2.6-5-.4-10 0-15-.1-4.7-.1-9.3-.4-14-.3-8.5.2-17.1.6-25.6.8-5.1.1-10.3-.6-15.2.1-8.9 1.2-17.7 3.6-26.6 4.7-5.6.7-11.4.1-17.1 0-3.6 0-7.1 0-10.7-.2-1.5-.1-4.2-.2-4.4-.9-1.4-4.8-5.2-2.8-8-3-7.6-.5-15.3-1.1-22.9-1.1-13.1.1-26.5-.7-39.3 1.4-14.9 2.4-29.8.7-44.6 2.3-3.9.4-7.9-.3-11.8-.5-.7 0-1.7-.2-2.1.2-7.3 6.1-15.8 2.7-23.8 3.1-8.4.4-16.8.4-25.2.3-4.3-.1-8.5-1.1-12.8-1-3.3 0-6.6 1.5-9.9 1.5-15.8-.1-31.7-.4-47.5-.7-.4 0-.8-.1-1 .1-9.5 6.5-20 3.4-30.2 3.1-8.5-.2-16.9-.2-25.4 0-3.7.1-6.2-.7-5.5-5.7-6.5.4-12.6 1-18.7 1.2-20.3.5-40.6.7-60.8 1.2-4.6.1-6.7-1-6.4-6.1.6-10.1.9-20.3 1.1-30.4 0-5.1-.5-10.5-.8-15.4h582.1zM452.7 218.1c1-14.1 1.9-27.5 2.8-40.8.8-11.6 1.6-23.2 2.2-34.8.1-1.6-.9-3.3-1.4-4.9h-1.5c-.2 2.9-.4 5.7-.7 8.6-.9 10.2-2.2 20.4-2.8 30.7-.7 12.7-1 25.4-1.1 38.1 0 3.8-.9 6-4.8 7-14.6 3.6-29.1 7.5-43.7 11.1-.6.2-2.4-1.5-2.4-2.4-.8-11.6-1.8-23.3-2-34.9-.1-6 1.4-12 1.9-18.1.3-4.5.3-9.1.2-13.7-.3-12.6-.7-25.3-.9-37.9 0-2.9 1.6-4.7 5-3.8 1.7.4 3.5.7 5.3.9 8.7.8 17.5 1.2 26.1 2.4 6.9 1 13.8 2.4 20.4 4.6 11.9 4.1 19.5 13.1 25.3 23.9 6.9 12.8 5.6 25.6.3 38.4-5.1 12.2-15.8 22.1-28.2 25.6zM395 123.2v20.6c0 9.9.3 19.8-.1 29.7-.3 7.6-1.8 15.1-1.9 22.7-.1 6.8.8 13.7 1.5 20.6.4 4.5 1.3 8.9 1.5 13.4.1 1.3-1 3.9-1.8 4-11.8 1.6-23.5 3.1-35.4 4.1-6.7.5-6-5.5-6.6-9.5-1.2-7.9-2.1-15.9-2.7-23.9-.5-6.7-.4-13.4-.7-20.1-.3-5.3-.6-10.7-1.2-16-.8-7.5-1.9-14.9-2.6-22.4-.5-5.4-.4-10.8-.7-16.2-.2-3.6 1.3-4.7 4.8-4.8 10.9-.2 21.9-.6 32.8-1.1 4.6-.2 9.1-.8 13.1-1.1zM509 435.7c-1.2-.9-2.1-2.1-3-2.1-2.8-.1-5.6 0-8.3.5-9.4 1.5-18.7 3.4-28 4.8-10.8 1.7-21.8 2.5-32.5 4.6-16.5 3.3-33.1 4.8-49.9 4.4-4.9-.1-9.8 0-14.8-.7l23.1-3.9c12-1.9 24-3.8 36.1-5.7 11.5-1.7 23.1-3.3 34.6-5.1 6-.9 11.9-2.3 17.9-3 5.3-.6 10.6-.4 15.9-.8 3.5-.3 7-1 10.5-1.4 5.7-.8 11.3-1.8 17.1-2.2 10.7-.8 21.5-.9 32.2-1.8 8.8-.7 17.5-2 26.9-3.1.3 2 .6 4 1 6.2-26.1 2.5-51.9 2.1-77.1 7 0 .5.1 1.1.1 1.6 25-1.9 50-3.8 75.3-5.8v18h-37.9c.7-1.1 1.3-1.9 2.1-3-9.1.8-17.9 1.7-26.6 2.1-14 .6-28 .8-42 1.2-1.7 0-3.5 0-5.3-1.1 10.9-1.2 21.7-2.4 33.5-3.7-.9-1.3-1.5-2.8-2-2.8-11 1.6-22 3.8-33.1 4.9-14.8 1.5-29.7 2.2-44.5 3.2 0-.5-.1-.9-.1-1.4 26-3.3 51.9-7 78.8-10.9zm3.3 4.7.3 2.4c11.5-1.1 23-2.4 34.5-3.3 9.6-.7 19.3-.9 29-1.5 1.5-.1 3-.7 4.5-1.1-23.2-2.1-45.7 1.1-68.3 3.5zm40.6 3.4c0 .8.1 1.6.1 2.4 5.2-.3 10.4-.6 15.7-1v-1.5c-5.3.1-10.6.1-15.8.1zM453.6 107.7c-10.5-1.7-20.2-3.5-29.9-4.7-6.7-.8-13.6-.4-20.4-1-1.4-.1-3.6-2.3-3.7-3.7-.4-10.9.1-21.9-.6-32.8-.3-4.9 2.6-4.1 5-4.2 11.6-.2 23.2-.2 34.7-.3h12.7c.8 16 1.5 31.7 2.2 46.7zM446.1 426.2c-4.2 1-8.3 2.2-12.5 2.8-19.6 2.7-39.2 5-58.7 7.9-13.1 1.9-26.2 4.4-39.2 6.7-.6.1-1.2.7-1.6 2.4 29.1-4.5 58.2-9.4 87.3-13.3 28.2-3.8 56.6-6.6 85-9.8.1.6.2 1.3.3 1.9-4.6.6-9.3 1.3-13.9 1.8-6.7.7-13.4.9-20 1.8-8.3 1.1-16.6 2.8-24.9 4.2-15.9 2.6-31.9 5-47.8 7.6-11.3 1.8-22.9 2.8-33.8 6-10.2 2.9-20.1 1.5-30.2 1.8-1.6 0-3.3-1.5-4.9-2.2-9.5 1-19.5 2.1-29.4 3.1l-.3-1.8c5.4-1.1 10.8-2.3 16.2-3.4 13.1-2.8 26.1-5.9 39.3-8.1 8.2-1.4 16.6-1.4 24.9-2.3 3.8-.4 7.5-1.6 11.2-2.2 2.5-.4 5.1-.2 7.6-.6 6.4-.9 12.7-2.4 19.1-2.9 8.6-1 17.5-1 26.3-1.4.1.1 0 0 0 0zM358.2 403.4c-1.6 2.8-4.5 4.5-8.9 3.8-11.5-1.8-23.1-3.3-34.8-2.4-2.9.2-5.9-1.1-8.8-.9-9.8.5-19.5 1.9-29.2 2-7.7.1-15.4-1.3-23.2-2.1-.7-.1-1.3-1-2-1.4 7.6-1 15.1-2.1 22.6-2.8 3-.3 6.1.8 9.1.9 4.7.1 8.9 0 13.5-2.6 9.4-5.3 20-4.9 30.6-4.6 6.2.2 9.8 3.2 14.5 5.7 5 2.4 11 2.9 16.6 4.4zM105.7 401.8c3.5-1.1 6.3-2.8 8.9-2.5 9.5 1.1 19 2.9 29.8 4.7-12.8 4.6-24.1 4.3-35.4 1.5-.9-.3-1.6-1.8-3.3-3.7zM382.6 405.9c-6.5-1.2-12.9-2.3-19.6-3.5 3.7-5.1 8.1-4.5 19.6 3.5zM208.6 401.7c6-1 11.3-1.8 16.5-2.7.1.6.2 1.3.3 1.9-5.2.7-9.6 7.6-16.8.8zM529.4 420.6c8.7-.8 17.4-1.5 26-2.3.1.6.1 1.3.2 1.9-8.7.7-17.3 1.4-26 2.1-.1-.6-.1-1.1-.2-1.7zM374.3 409c-5.2.5-10.3.9-15.8 1.4 4.7-5.7 6.5-5.8 15.8-1.4zM528.1 420.8c-2.2 3.1-13 4.2-19.3 1.3 6.3-.4 12.7-.9 19.3-1.3z" fill="#fff"/>
  <path d="M33.8 346.9c-5.7-3.7-7.7-14.4-3.6-18.4 5.1-4.9 5.4-11.1 5.8-16.9.8-12.8.3-25.7.3-38.6 0-6.6.4-13.2-.1-19.8-1.2-14.8-3.1-29.5-4.1-44.3-.6-9.5-.5-19.1-.1-28.6.5-14.1 1.5-28.1 2.3-42.2 0-.7.3-1.4.7-1.9.4-.6 1-.9 2.5-2.2-.6 9.8-1 18.5-1.6 27.2-.1 1.8-.7 3.6-.7 5.3.3 15.7.5 31.3 1.1 47 .9 20.2 1.4 40.5 3.5 60.5 1.7 16.2 0 31.9-2.6 47.7-.5 2.8-3.6 5.3-4.1 8.1-.6 4.3.1 8.8.2 13.2.2 1.4.4 2.7.5 3.9zM272.9 178.6c0 9-.9 18.2.2 27.1 3.8 33.4 1.5 66.8 1.9 100.2.1 10-2.2 20.1-3.1 30.1-1 11.6-1.5 23.2-2.2 34.7-.1 2.1 0 4.3 0 6.4-.6.2-1.1.4-1.7.6-.9-1.8-2.6-3.7-2.5-5.5.3-9 .6-18.1 1.9-27 3.5-23.1 5.5-46.3 4.6-69.7-.3-8.6.1-17.2-.1-25.8-.3-14.4-.8-28.8-1-43.2-.1-7.8-.1-15.6.1-23.4 0-1.6 1-3.2 1.5-4.8 0 .1.2.2.4.3zM395.5 282.3c5.1 39.4 2.2 78.7 1.2 118-.7 0-1.3.1-2 .1-.3-4.1-.8-8.3-.7-12.4.2-10.7 1-21.5 1-32.2 0-22.3-.4-44.5-.6-66.8 0-2.2.7-4.5 1.1-6.7zM305.4 285.9c-8.2-7.5-8.1-80.9 0-88-2.6 29.6-6.3 58.8 0 88zM198.6 269.4c2.1.5 3.2.5 4 .9 6.7 3.8 10.9 2.7 13-4.5 2.7-9.1 4.2-18.4 2.5-28.1-.7-4.3-.1-8.7-.1-13.1.7 0 1.5-.1 2.2-.1.5 5.7 1.5 11.3 1.4 17-.1 6.7-.6 13.5-1.7 20.2-.6 3.7-2.2 7.7-4.6 10.6-4.4 5-10.5 5.7-16.7-2.9zM8.2 419c21.3-3.4 42.7-6.7 64-10.1.1.8.3 1.6.4 2.4-21.4 3.6-42.8 7.3-64.3 10.9-.1-1.1-.1-2.1-.1-3.2zM190.1 267.4c.3 3 .4 4.9.8 6.7 1.2 4.9 2.1 9.9 3.9 14.7 1.8 4.9 5.8 4.8 10.1 3.3.9-.3 2.2.3 3.1 1.2-4.9 2.6-9.3 4.6-14.3.6-5.8-4.6-8.7-18.8-3.6-26.5zM24.7 341.4c.5 4.2 1 8.5 1.6 12.7 2 12.4 2.3 12.7 14.7 13.9-2.4 3.3-4.5 4.7-8.5 3.1-7.8-3.1-9.5-9.8-10.3-16.8-.5-4.3.4-8.7.6-13 .7 0 1.3 0 1.9.1zM88.4 354.7c-1.1 13.1-2.1 26.1-3.2 39.2-.9-.1-1.8-.1-2.7-.2-.2-13.1 2.3-26.1 3.8-39.1.7 0 1.4.1 2.1.1zM206.1 382.8c-4.1-11.6-2.4-22.5 1.1-34.6 1.1 1.9 2.3 2.9 2.2 3.8-.9 10.3-2.1 20.5-3.3 30.8zM534.9 92.6c4.5.7 3.7 5.5 4 8.2 1.3 10.4 1.9 20.9 2.4 31.4 1.2 25.4 2.4 50.9 3.3 76.3.2 5.8-1.3 11.6-.9 17.4.9 11.5 2.8 22.9 3.9 34.4 1.3 12.8 2 25.7-.8 38.4-1.3 5.9-2.8 11.8-5.3 17.2-1.1 2.3-5.8 5.3-7.4 4.6-3.6-1.5-8-4.8-8.8-8.1-1.4-5.9-.4-12.4-.2-18.6 0-.8 1.2-1.5 1.8-2.1.4 6.7 1 13.2 1.2 19.7.2 3.4 1.4 5.4 5 5.6 3.5.1 6-.2 7.3-4.5 4.5-14.5 4.8-29.3 4.1-44.2-.5-9.8-3.3-19.5-4-29.4-.6-8.9.2-17.8.5-26.8.1-3.3.4-6.6.3-9.9-.5-15.4-1.1-30.8-1.8-46.2-.3-5.7-.9-11.4-1.4-17.2-1.1-11.8-2.2-23.5-3.2-35.3-.3-3.3 0-6.8 0-10.9z"/>
  <path d="M560.9 266.3c.4 2.1 1.5 4.3 1.2 6.4-1 9.1-2.3 18.2-3.6 27.3-.9 6.2-1.8 12.4-3 18.6-1 4.9-3.3 9.7-3.6 14.7-.5 6.8.6 13.8.3 20.7-.2 4.6-.6 9.6-5.6 12.2-4.6 2.4-7.5 1.5-8-2.6 8.8.8 9.1.6 11.4-12.5.7-4.2.1-8.6.1-12.9-.5-.1-.9-.3-1.4-.4-1.2 2.6-2 5.4-3.7 7.6-10.3 13-15.1 9.8-22.2-2.3-5.7-9.8-7.6-20.9-6.7-32.4 0-.4.4-.8 1.8-1.3.5 3.4 1.3 6.8 1.4 10.2.3 9.9 4.8 18.3 9.3 26.6 2.7 5.1 9.5 5.1 12.5-.1 3.1-5.4 5.6-11.2 7.9-17 6.3-15.7 6.6-32.6 8.9-49.1.6-4.5.9-9 1.4-13.6.5 0 1.1-.1 1.6-.1zM384.2 411.2c2 1 4 2 7.6 3.7-67.7 8.6-133.3 20.6-199 32.3-.2-.4-.3-.9-.5-1.3 3.8-1.2 7.5-2.6 11.4-3.4 8.8-1.9 17.6-3.7 26.4-5.2 7.2-1.2 14.5-1.7 21.7-2.7 3.9-.5 7.7-1.4 11.5-2.2 19.2-3.6 38.4-7.4 57.6-10.7 7.4-1.3 14.9-1.5 22.4-2.5 9.9-1.3 19.9-3 29.8-4.3 2.2-.3 4.6-.2 6.8 0 3.1.4 4.4-.9 4.4-3.8.1 0-.1.1-.1.1zM148.7 442.8c18.7-4.4 37.7-7.3 56.7-10.5.8-.1 1.7.5 2.3 1.8-19.5 3.7-39 7.3-58.5 11-.2-.8-.3-1.6-.5-2.3zM208.3 431.6c9-1.4 16.7-2.6 25.1-3.8-3.2 4.1-18.7 6.7-25.1 3.8zM512.3 440.4c22.6-2.4 45.1-5.6 68.2-3.4-1.5.4-3 1-4.5 1.1-9.6.5-19.3.7-29 1.5-11.5.9-23 2.2-34.5 3.3 0-.9-.1-1.7-.2-2.5zM552.9 443.8h15.7v1.5c-5.2.3-10.4.6-15.7 1v-2.5z"/>
</svg>
