<svg xmlns="http://www.w3.org/2000/svg" viewBox="0 0 595.3 458.9" xml:space="preserve">
  <path d="M97.6 458.9H2.3c-.4-1.9-1.1-3.9-1.1-5.8.3-148.9.6-297.8.8-446.7 0-2.1-.5-4.3-.8-6.4h165.1c.7.3 1.5.9 2.2.9h64.3c17.9 0 35.9 0 53.8.1 75.4 0 150.9 0 226.3.1h80.5v455.6c-1.4.1-3 .2-4.6.3-38.4.2-76.8.5-115.2.6l-342.3.6c-11.2 0-22.5.5-33.7.7zm126.3-54.4c.1-.4.2-.9.4-1.3 2.6-.4 5.1-1 7.7-1.1 3.3-.1 6.8.6 10 .1 5.9-1 11.7-2.9 17.6-4.1 2.3-.5 4.8-.1 7.2.2 4 .4 7.9 1.4 11.9 1.5 2 .1 4-1.7 6-1.6 6.2.3 12.4 1.1 18.6 1.6 1.3.1 2.7-.2 4-.4 5-.5 10.1-1.5 15.1-1.4 6.1.2 12.3 2.5 18.3 2 16.9-1.3 33.8-3.5 50.6-5.6.9-.1 2-2.4 2.2-3.8.2-1.3-1-2.7-1-4.1.3-17.4.6-34.8 1.1-52.2.1-2.4 1.2-4.8 1.8-7.2.4.1.7.2 1.1.2v66.3c4 0 7.4-.8 10.3.2 4 1.3 4.5-.3 4.5-3.4 0-1.1.3-2.2.5-3.4.5 0 1.1-.1 1.6-.1.5 2.4 1.1 4.9 1.9 8.8 6.1.7 12.9 1.5 19.6 2.3 1.1.1 2.1.6 3.2.7 7.1.8 14.7 3.8 21 1.9 9.9-2.8 19.1-1.2 28.7-.5 8.3.6 16.5 1.5 24.7 2 8.3.6 16.7 1.2 25 1.2 6.5-.1 13-1.2 19.5-1.8 3.5-.3 7.1-.8 10.6-.6 6.8.4 13.6 1.3 20.9 2v-43.7c-.2-51.1-.6-102.2-.6-153.4 0-20.8.5-41.6.6-62.4.1-25.3 0-50.6.1-75.9 0-3-.5-5.3-3.8-5.4-6.8-.1-13.5.2-20.3.2-3.8 0-7.6-.1-11.4-.2-4.1-.1-8.2-.6-12.3-.5-4.1 0-8.2.7-12.4.8-8 .1-15.9-.5-23.9-.2-8.4.3-16.8 1.4-25.2 1.8-5.7.3-11.4-.2-17.1-.2-4.2 0-8.4-.1-12.6.2-12.6 1-25 3.2-37.7-.3-5.6-1.5-11.8-1.7-17.7-1.4-10.6.7-21.1 1.6-31.8 1.1-12-.5-24.1-.1-36.6-.1 0 8.7-.1 15.9 0 23.1.2 9 .7 18 1.1 27 .4 8.7.9 17.4 1 26.2.1 4.1-.6 8.2-1 12.3-1 0-1.9-.1-2.9-.1-.7-30.6-1.4-61.1-2.1-91.3-5-.5-8.6-1.2-12.3-1.3-6.8-.2-13.6-.7-20.4-.2-15 1-30.2 3.1-45.4 4-12 .7-24.1.1-37.1.1-.6 22.7-1.1 45-1.7 67.3-.6 22.2-1.3 44.5-1.9 66.7-.8.1-1.6.2-2.4.2-.4-2-1.1-4-1.1-6 .3-19.7.7-39.4 1.1-59.1 0-2.5-.1-4.9 0-7.4.6-18.8 1.3-37.7 2-57.2-5-.7-10-2.1-14.9-2.1-12.5 0-25.1.8-37.6.9-8.9.1-17.9-.7-26.8-.8-10.3-.1-20.6.1-30.8.4-2.9.1-5.1 1.1-5 5.1.3 9.4.1 18.8.1 28.3v20.9h-1.8c-3.5-18.7-.3-37.8-2-57.4-6.2.5-12.1 1.2-18.1 1.4-12 .4-23.9.5-35.9.6-5.3 0-10.8.5-15.9-.5-5.7-1.1-6.1-1.5-6.1 4.1 0 47.4-.1 94.8-.1 142.2 0 23.4 0 46.9.1 70.3 0 18 .1 36 0 54-.1 9.1-.6 18.2-.7 27.3-.1 14.7 0 29.5 0 44.6 5.4-.9 11.2 2.6 15.1-3.6 1.9 1.7 3.5 3.1 5.1 4.6.8-.8 1.5-1.4 2.2-2 6.1-6 6.6-5.8 12.9.2 1 .9 3.8 1 4.9.3 2.4-1.7 4.1-3.9 7.3-1.1.8.7 3-.2 4.6-.1 4 .3 8.7-.5 11.8 1.4 4.8 2.9 9.9 3.9 15 .6.8-.5 1.9-.7 2.8-.7 8.6.5 17.3 1.2 25.9 1.5 1.9.1 4.4-.9 5.7-2.3 4.1-4.4 11.4-3.8 14.5-9.5.2-.4 1.5-.5 2.1-.3 5.2 1.9 12.2 1 13.4 9.5 1.5-1 2.9-1.4 3.5-2.3 1.1-1.8 1.3-4.4 2.7-5.8 1.4-1.4 3.9-1.7 5.9-2.5 0 1.8.1 3.6.1 5.4v1.2c5.7 1 10.4 1.9 15.6 2.9.7-1.4 1.6-3.3 3.3-6.9 2.2 4 3.7 6.7 5 9.1 1.1-2.5 2.3-5 3.7-8.1 1.5 2.3 2.4 3.6 3.4 5 3-3.2 5-5.4 6.9-7.5.5.2.9.2 1.2.4 4.7 2.1 6.3 12.4 14.4 5.2.4-.4 2 .5 3 .9 1.4.6 3 1.4 4.7 2.1zM7.8 59.8c4 .4 7.6 1.1 11.2 1.1 4.7 0 9.5-.9 14.2-1 11.3-.2 22.6-.3 33.9 0 10 .3 20 1.8 30.1 2 9.7.2 19.5-.9 29.2-.9 19-.2 38.1-.1 57.1 0 4.9 0 9.8 1 14.7.9 2.8-.1 5.5-2.1 8.3-2.4 4-.4 8.1.4 12.1.2 8-.5 16-1.5 24-2 6-.4 12-.2 18-.6 10.9-.8 21.7-2.2 32.6-2.6 8.2-.3 16.5.6 24.7 1 3.5.1 7.5-1 8.7 4.1.2.6 2.4 1.1 3.7 1 16.8-.6 33.6-1.7 50.5-1.7 12.9 0 25.7 1.8 38.6 1.9 11.3.1 22.6-1.5 33.9-1.7 12.4-.3 24.8.4 37.2.2 12.2-.2 24.4-1.5 36.6-1.5 18.4 0 36.9.5 55.3 1.1 5.3.2 6.6-2 6.6-6.7-.2-12.7-.3-25.5 0-38.2.1-4.9-1.4-6.3-6.3-6.3-37 .2-74 0-111 .1-18.8.1-37.7.7-56.5.7-14.3 0-28.6-.6-42.9-.7-5.8 0-11.7 1-17.5 1-12.3-.1-24.7-1-37-1-28.3.1-56.6.7-84.9.9-21.8.2-43.6.2-65.3.1-15.9-.1-31.8-1-47.7-1-15.8 0-31.5.8-47.3.9-8.9.1-17.8-1-26.7-.9-10.9 0-21.8 1-32.6.8-3.9-.1-5.6-.6-5.6 3.8.2 15.5.1 31 .1 47.4zm93.7 356.4c-.1-.7-.3-1.4-.4-2.1 1.8-.5 3.6-.9 5.4-1.4-.1-.7-.2-1.3-.3-2-7.1.4-14.1 1.1-21.2 1.2-5.2.1-12.1 1.2-15.3-1.6-4.1-3.5-7.3-2.4-10.2-1.1-6.1 2.6-12.1 2.3-18.3 2.1-4.9-.1-10.5-4.4-14.8 1.6-.2.3-1.6-.2-2.4-.4-5.4-1.3-10.8-2.7-16-4v14.9c16.9-3.5 33.1-6.9 49.3-10.3.1.7.3 1.4.4 2.1-16.5 3.5-33.1 7.1-49.5 10.6v7.2c16.6-3.8 32.7-7.4 48.8-11.1.2.7.3 1.3.5 2-16.4 4.2-32.8 8.3-49.6 12.6.1 1.5-.5 4 .4 5 2.1 2.1 2.5 3.1-.3 4.7-.6.3-.5 2.7 0 3.7.6 1 2.1 2 3.2 2.1 2.6.2 5.3-.1 8-.1 10 0 20.1.1 30.1-.1 9.3-.1 18.6-.7 27.9-.6 13.7.1 27.5.9 41.2 1 20.9.2 41.9.1 62.8 0 18.5 0 37 0 55.5-.2 9.2-.1 18.6-1.7 27.5-.4 12.8 1.8 25.4-2.1 38.1-.1 3.9.6 7.9.4 11.8.4 23.8-.2 47.5-.5 71.3-.7.9 0 1.9.1 2.8-.2 6.4-1.8 12.7-4 19.2-5.3 13.1-2.5 26.3-4.8 39.6-6.6 11.2-1.5 22.6-2.4 33.9-3.4 1.2-.1 2.4.4 4 .7-29.5 4.5-58.3 9-87.1 13.4.1.5.1.9.2 1.4h15.5c30.3.1 60.6.3 91 .4 6.3 0 12.7.1 19 0 10.7-.2 21.3-.8 32-.9 7.2-.1 14.3.4 21.5.3 3.9-.1 7.8-.8 12.2-1.3-2.2-4.5 3.2-11-5.4-12.7 6.4-3.1 6.5-4.5 1.9-7.9l3.6-5.7c-.4-.5-.7-1-1.1-1.5-8.6.8-17.2 1.6-25.8 2.3-.1-.5-.1-1.1-.2-1.6 8.5-2.4 17.5-1.7 26.2-2.7v-8.4h-23.8c0 .8 0 1.5-.1 2.3h11.8v1.8c-11.2.8-22.4 1.7-33.5 2.3-6.7.4-13.5-.2-20.2.5-7.6.7-15 2.5-22.6 3.4-6.7.8-13.5.7-20.2 1.5-7.8.9-15.5 2.4-23.3 3.4-6.6.8-13.2 1.1-19.8 2.1-8.4 1.2-16.8 3-25.2 4.2-15.8 2.2-31.7 4.1-47.6 6.1 1.4-1.5 3.2-2.9 5.2-3.2 7.2-1.2 14.4-2.1 21.5-3.1 8.1-1.2 16.1-2.5 24.1-3.6 6.7-.9 13.5-1.4 20.2-2.5 7.5-1.2 14.9-3.3 22.4-4 11.8-1.2 23.8-1.5 35.7-2.5 15.6-1.3 31.2-2.9 46.8-4.3 7-.6 14-1.1 21-1.6v-1.6h-65c-.1-.2-.2-.5-.2-.7 1.5-.5 2.9-1 4.4-1.5l-.3-1.2c-2.9.5-5.8.9-8.9 1.4.6.9 1 1.5 1.3 2-10.4 3.1-21 2.8-31.6 3.2-.1-.5-.1-1.1-.2-1.6 2.2-.3 4.4-.6 6.7-.9-1.5-1.2-3.1-1.9-4.6-1.8-13 .8-25.9 1.6-38.8 2.8-11.1 1-22.1 2.5-33.1 3.8-13.2 1.5-26.5 2.7-39.6 4.6-16.3 2.3-32.6 4.9-48.8 7.7-18 3.1-36 6.5-54 9.7-1 .2-2.3-.7-5-1.6 63.1-14.3 125.9-19.2 188.2-28.3-10.4-.3-20.8.1-31.1 1.1-7.9.8-15.6 2.7-23.5 3.5-7.8.8-15.8.7-23.6 1.5-9.4.9-18.7 2.5-28.1 3.6-5.1.6-10.3.4-15.4 1.2-5.1.8-10 2.7-15.1 3.5-6.4 1.1-12.8 1.8-19.3 2.5-6.1.7-12.3 1.2-18.5 1.8 41.4-9.7 84-12 125.9-18.7-47.7.4-94.5 7.9-141.9 14.5.3-.9.4-1.8.6-1.8l86.4-12.9c0-.1 0-.6-.2-.7-6.9-2.8-14-3.2-21.2-2.2-2.5.3-7.1-.2-7.4.7-1.7 5.7-6.5 3.9-10 4.6-6.9 1.4-14 2.1-21 3-.1-.6-.2-1.3-.3-1.9 4.3-.6 8.5-1.2 13.7-2-1.3-1-1.7-1.7-2.2-1.7-9.8-.9-19.5-1.7-29.3-2.7-2.1-.2-5.4-2.4-6-1.8-3 3.3-5.9 1.4-9 .9-2-.4-4.1 0-6.2.2-6.4.6-13.2 2.7-19.2 1.3-4.3-1-6.8-.3-10.1 2.1-2.1-6.5-7.2-3.6-9.3-1.9-5.8 4.6-10.8 3-16.3.4-1.1-.5-2.6-.3-4-.4v1.6c1.3.4 2.7.8 4 1.2-.1.5-.1 1-.2 1.5-3.2.5-6.4.9-10 1.4.1-2 .2-3.4.3-4.8-9.1.3-17.9 3.6-26.4-.8-1.8.1-3.7.1-5.6.3-3.4.5-7.9 0-9.9 2-6 5.9-13.9 2.5-20.4 5.8zm433.6-6.9c.1-.7.3-1.4.4-2.1-2-.4-4-1.1-6.1-1.3-3.7-.2-7.4-.1-11.1-.2-7.7-.3-15.5-.9-23.2-1-10.6-.2-21.2-.8-31.7.2-7 .7-13.6 1.3-20.2-1.3-.2-.1-.4 0-.5 0-11.5-.3-22.9-1.3-33.9-5.1-3.2-1.1-7-.8-10.5-.6-6.3.5-12.6 1.4-18.9 2.3-8.9 1.2-17.8 2.9-26.8 3.8-5.6.5-11.4.5-17-.3-8.9-1.2-17.7-2.7-26.8-2.5-13.9.4-27.7.1-41.6.2-3.2 0-6.3.6-9.5.9.9 1.5 1.9 1.9 2.8 1.9 3.3.1 6.5.2 9.8.2 9 .1 18 .8 26.9.1 9-.7 17.7-2.8 26.8-.1 11.6 3.6 23.7 4 35.7 3.2 7.1-.5 14.1-2.5 21.1-2.5 16.5.1 32.9 1.2 49.4 1.6 18.4.5 36.8.7 55.2.8 3.7 0 7.5-1.5 11.2-1.3 12.8.9 25.6 2.1 38.5 3.1zm2-2.2c-.1.5-.2 1-.2 1.4 14.4 3.1 28.6.3 44.2-2.1-9.1-1.9-16.6-3.6-24.3.2-1.1.6-2.6.4-3.9.4-5.3.2-10.6.1-15.8.1z"/>
  <path d="M97.6 458.9c11.2-.3 22.4-.7 33.7-.8l342.3-.6c38.4-.1 76.8-.4 115.2-.6 1.6 0 3.2-.2 4.6-.3V1h-80.5C437.5 1 362 1 286.6.9c-17.9 0-35.9-.1-53.8-.1-21.4 0-42.8.1-64.3 0-.7 0-1.5-.6-2.2-.9h428.9v458.9c-165.8.1-331.7.1-497.6.1zM1.2 0c.3 2.1.8 4.3.8 6.4-.2 148.9-.5 297.8-.8 446.7 0 1.9.7 3.9 1.1 5.8-.7-.4-2-.6-2.1-1.1-.3-1.2-.1-2.6-.1-3.8V5c0-1.7.7-3.3 1.1-5z" fill="#fff"/>
  <path d="M223.9 404.5c-1.6-.7-3.3-1.5-4.9-2.2-1-.4-2.6-1.3-3-.9-8.1 7.2-9.8-3.1-14.4-5.2-.3-.1-.7-.2-1.2-.4-2 2.1-4 4.3-6.9 7.5-.9-1.4-1.8-2.7-3.4-5-1.4 3.1-2.6 5.6-3.7 8.1-1.3-2.4-2.8-5.2-5-9.1-1.7 3.6-2.6 5.5-3.3 6.9-5.2-.9-9.9-1.8-15.6-2.9v-1.2c0-1.8-.1-3.6-.1-5.4-2 .8-4.5 1.1-5.9 2.5-1.4 1.4-1.6 4-2.7 5.8-.5.9-1.9 1.3-3.5 2.3-1.2-8.5-8.2-7.6-13.4-9.5-.6-.2-1.9-.1-2.1.3-3.1 5.7-10.4 5.2-14.5 9.5-1.3 1.4-3.8 2.3-5.7 2.3-8.6-.3-17.3-1-25.9-1.5-.9-.1-2 .2-2.8.7-5.1 3.3-10.2 2.2-15-.6-3.1-1.9-7.8-1.1-11.8-1.4-1.5-.1-3.7.9-4.6.1-3.2-2.8-4.9-.6-7.3 1.1-1.1.8-4 .6-4.9-.3-6.4-6.1-6.9-6.2-12.9-.2-.7.6-1.3 1.3-2.2 2-1.6-1.5-3.2-2.9-5.1-4.6-3.9 6.3-9.8 2.7-15.1 3.6 0-15.1-.1-29.9 0-44.6.1-9.1.6-18.2.7-27.3.1-18 0-36 0-54 0-23.4-.1-46.9-.1-70.3 0-47.4 0-94.8.1-142.2 0-5.6.4-5.3 6.1-4.1 5.1 1 10.6.5 15.9.5 12-.1 23.9-.2 35.9-.6 6-.2 11.9-.9 18.1-1.4 1.7 19.6-1.5 38.7 2 57.4h1.8V99.3c0-9.4.2-18.8-.1-28.3-.1-3.9 2.1-5 5-5.1 10.3-.3 20.6-.5 30.8-.4 8.9.1 17.9.8 26.8.8 12.5-.1 25.1-.9 37.6-.9 5 0 9.9 1.3 14.9 2.1-.7 19.5-1.3 38.4-2 57.2-.1 2.5.1 4.9 0 7.4-.4 19.7-.8 39.4-1.1 59.1 0 2 .7 4 1.1 6 .8-.1 1.6-.2 2.4-.2.6-22.2 1.3-44.5 1.9-66.7.6-22.3 1.1-44.5 1.7-67.3 13 0 25.1.6 37.1-.1 15.3-.9 30.4-3 45.7-4.1 6.8-.5 13.6-.1 20.4.2 3.7.1 7.3.8 12.3 1.3.7 30.2 1.4 60.8 2.1 91.3 1 0 1.9.1 2.9.1.3-4.1 1-8.2 1-12.3-.1-8.7-.6-17.4-1-26.2-.4-9-.9-18-1.1-27-.2-7.2 0-14.4 0-23.1 12.5 0 24.6-.4 36.6.1 10.7.5 21.2-.4 31.8-1.1 5.9-.4 12.1-.2 17.7 1.4 12.7 3.5 25.1 1.3 37.7.3 4.2-.3 8.4-.3 12.6-.2 5.7 0 11.4.5 17.1.2 8.4-.4 16.8-1.5 25.2-1.8 8-.3 15.9.2 23.9.2 4.1 0 8.2-.7 12.4-.8 4.1 0 8.2.4 12.3.5 3.8.1 7.6.2 11.4.2 6.8 0 13.6-.3 20.3-.2 3.3.1 3.8 2.4 3.8 5.4-.1 25.3 0 50.6-.1 75.9-.1 20.8-.7 41.6-.6 62.4.1 51.1.4 102.2.6 153.4.1 14.2 0 28.4 0 43.7-7.3-.7-14.1-1.6-20.9-2-3.5-.2-7.1.3-10.6.6-6.5.6-13 1.7-19.5 1.8-8.3.1-16.7-.6-25-1.2s-16.5-1.4-24.7-2c-9.5-.7-18.8-2.3-28.7.5-6.3 1.8-14-1.1-21-1.9-1.1-.1-2.1-.6-3.2-.7-6.7-.8-13.4-1.6-19.6-2.3-.9-4-1.4-6.4-1.9-8.8-.5 0-1.1.1-1.6.1-.2 1.1-.5 2.2-.5 3.4 0 3.1-.5 4.8-4.5 3.4-2.9-.9-6.3-.2-10.3-.2v-66.3c-.4-.1-.7-.2-1.1-.2-.6 2.4-1.7 4.8-1.8 7.2-.5 17.4-.8 34.8-1.1 52.2 0 1.4 1.2 2.8 1 4.1-.2 1.4-1.3 3.7-2.2 3.8-16.8 2.1-33.7 4.3-50.6 5.6-6 .5-12.2-1.8-18.3-2-5-.2-10.1.9-15.1 1.4-1.3.1-2.7.5-4 .4-6.2-.5-12.4-1.3-18.6-1.6-2-.1-4 1.7-6 1.6-4-.1-7.9-1.1-11.9-1.5-2.4-.3-4.9-.6-7.2-.2-5.9 1.2-11.7 3.1-17.6 4.1-3.2.6-6.7-.2-10-.1-2.6.1-5.1.7-7.7 1.1-.3.7-.4 1.1-.5 1.5zM81.5 254.2c6.4-4.5 12-7.6 16.6-11.8 5-4.7 10.3-9.8 13.4-15.7 8.4-16.6 12.3-34.5 11.5-53.1-.5-11.6-6.3-21.3-14.7-28.8-9.8-8.7-22.7-11.8-35.1-14.4-4.3-.9-4.5-2.1-4.4-5.2.6-11.6 1.4-23.1 1.9-34.7 0-.9-1.2-1.9-2.4-3.9-.7 5.8-1.5 10.1-1.6 14.5-.2 7.7-.2 15.4 0 23.2.1 3.9-1.8 4.9-5.1 4.4-14.9-2.1-29.8-1.8-44.5 1.5-3 .7-5.7 2.5-8.1 3.6.8 3.5 1.6 5.7 1.7 8 .4 4.3 2.5 5.8 6.6 4.8 1.8-.4 3.6-1.2 5.3-.9 1.5.3 3.8 1.7 3.9 2.8 1 10.4 1.6 20.7 2.4 31.1.7 9.8 1.5 19.7 2.3 29.5 1.4 17.4 3.9 34.9 4.1 52.3.3 20.9-1.2 41.8-2 62.7-.2 4.3-1.1 8.5-1.6 12.9-3.4-.1-7.6-3.5-9.3 2.1-1.7 5.6 0 10.2 5.2 11.4 7.4 1.8 14.6 3.7 22.7 1.6 6.2-1.6 11.7-3.1 15.4-8.5 1-1.5 3.1-3.4 2.7-4.3-.7-1.8-2.7-3.3-4.5-4.3-1.4-.8-3.3-.5-4.2-.6-2.1-25.3-4.1-50.4-6.2-76.1 2.8 0 5.6.6 7.8-.1 5.2-1.8 5.2 1 5.3 4.8.2 12.1.6 24.3 1.1 36.4.1 1.7.8 3.3 1.3 5l.6-.3v-35.6c11.5 23.6 22.9 47 34.5 70.7-4.1 1.5-7.8 2.8-13.2 4.7 3.3 4 5.8 7.6 8.8 10.6.9.9 3.4.9 4.9.3 7.2-2.8 14.3-5.9 21.4-9 7.7-3.3 8.9-9.2 3.2-15.5-1.7-1.9-3.2-3.2-6-1-2.3 1.9-4.3 1.4-5.8-2-4.2-9-9-17.6-13.3-26.5-7.7-15.5-15.2-31.2-22.6-46.6zm62.2-82.3c2.8 5.1 5.3 10.3 8.3 15.2 5.4 8.9 11.6 17.4 16.7 26.5 5.2 9.4 13.2 16.6 11.7 30.1-2.4 21.4-.8 43.2-.5 64.8.1 5.8 1.6 11.5 2 17.3.1 1.4-1.5 3.9-2.7 4.3-7.5 2.2-7.5 2.1-6 9.5.1.5-.2 1.3.1 1.6 1.8 1.9 3.7 5.3 5.7 5.4 6.5.2 13.1-.9 19.6-1.3 5.6-.4 9.5-.8 8.2-8.9-1.3-7.7-.3-8.3-8.6-10.1-.9-12.3-2-24.9-2.6-37.5-.3-6.2.7-12.4.7-18.6 0-5.8-1.1-11.7-.9-17.5.2-5.2.4-10.8 2.4-15.4 2.5-5.7 6.8-10.6 10.5-15.8 9.1-12.8 18.3-25.6 27.4-38.5 2.1-3 4.2-6.1 5.7-8.4 3.1.2 6.8 1.2 7.3.4 1.6-2.8 3.7-7.4 2.5-9.3-3.5-5.5-8.3-10.3-13.2-14.7-2.9-2.6-6.7-2.4-9.8.7-4 3.9-4.1 5.9.9 12 1.9 2.4 2 3.7.1 6.1-4.9 6.3-9.3 12.9-14 19.3-2.8 3.8-5.9 7.4-8.6 11.2-5.1 7.2-10.1 14.5-16.1 23-12.2-20.1-23.7-38.9-35.1-57.6 8.1-6.6 8.3-6.5 9.6-14.4.3-1.6-.6-4-1.8-5.1-.6-.6-3.2.2-4.6 1-6.8 3.8-13.5 7.8-20.6 11.9-.5-1.5-.9-2.1-.8-2.7 1.6-16.6 3.4-33.2 5-49.8.1-1.5-.2-3-.3-4.5-.9 1.3-2.5 2.6-2.7 4-1.7 13-3.4 26-4.6 39-.6 6.5.1 13.1-.2 19.7-.4 6.3-2 12.7-2 19 .1 23.8.8 47.7.9 71.5.1 12.1-.8 24.2-.9 36.3 0 4.3 1 8.7 2.3 12.7.7 2.2 3.1 3.8 4.7 5.7.7-.2 1.4-.5 2.1-.7.7-4.3 1.4-8.6 2.1-12.8-.6-.1-1.2-.3-1.8-.4-.8 2.6-1.7 5.1-2.5 7.7h-1.4c-.8-5.4-2.2-10.8-2.2-16.2 0-11.7 1-23.5.9-35.2-.1-21.2-1.1-42.3-.8-63.5-.2-6.2-2.7-15.2 7.9-17zm181.6 151c8.1-2.3 15.8-4.7 23.5-6.7 2.6-.7 5.3-1.2 7.9-.9 5.4.6 8.8-2.4 8-7.7-.7-4.5-1.1-9-2.4-13.3-.6-1.9-3-4.2-4.9-4.4-3.5-.4-8.4 1.8-7.7 5.1 1.4 6.2-2.5 5.6-5.7 6.6-2.7.9-5.5 1.8-8.2 2.8-5.7 2-14.3-2.5-14.2-7.6.2-10.9.2-21.7.7-32.6.3-7.1 1.9-14.1 2.1-21.1.4-14 .2-28 .5-42 .1-5.6.7-11.2 1.1-16.7-1.9.7-2.9 1.6-3 2.6-.9 6.3-2.1 12.6-2.4 18.9-.2 6.4.7 12.8.9 19.2.1 2.3-.8 4.6-.9 7-.2 7.4-.2 14.8-.4 22.2-.3 10-.7 19.9-.9 29.9-.1 5.4 0 10.8 0 17.2-1.8-1.3-2.6-1.7-3.1-2.4-.9-.9-1.7-1.9-2.4-3-6.7-11.2-9.8-23.8-10.8-36.5-.9-10.8.1-21.8.9-32.6 1.1-14.1 3.8-28 11.4-40.3 3.1-5 7-9.1 13.1-10.2 4.1-.8 8.4-.9 12.2-2.5 6.6-2.8 11.5 0 16.7 3.3 5.4 3.3 8.8 8.2 12 13.5 2.4 4 5.3 3.8 7.3-.3 2.6-5.2 4.8-10.5 7.3-15.8 2.1-4.5 1.1-7.9-3.1-10.5-4.5-2.8-6.1.8-8.2 3.7-1.4-.6-3.1-.8-4-1.7-5.7-5.5-12.7-8.2-20.5-9.1-12.4-1.5-23.4 1.3-33.4 9.3-7.1 5.7-11 13.4-14.5 21.2-5.1 11.1-9.7 22.6-12.8 34.3-3.6 14-2.8 28.6-2.4 43 .2 6.3.1 12.8 1.6 18.8 4.3 17 13.6 30.1 31.2 35.7 1.5.5 3.4 2.3 3.5 3.7.7 8.6.9 17.2 1.2 25.8.1 2.6-.1 5.1-.3 7.7-1.3 13.4-1.4 26.8.7 40.7 3.2-3.4 4.5-65.8 2.4-74.3zm65.4-78c1.1-9.7 2-18.1 2.9-26.5 1.5-13.9 2.8-27.8 4.5-41.6.2-2 1.2-4.4 2.6-5.8 3.8-3.9 4.1-6.3-.9-8.7-3.1-1.4-7-1.3-10.6-1.1-.7 0-1.7 3.1-1.7 4.9-.1 3.2.8 6.5.5 9.7-.4 5-1.7 10-2.1 15-.6 9-.5 18.1-1.3 27.1-.8 9.2-2.1 18.4-3.2 27.6-1.2 9.4-2.4 18.7-3.7 28.1-1.3 9.1-2.6 18.3-4.1 27.4-1 6.1-2.4 12.2-3.7 18.3-.3 1.5-1.8 3.4-1.3 4.1.8 1.3 2.8 2.4 4.4 2.6 3.1.4 6.3.5 9.4 0 1.9-.3 4.6-1.4 5.2-2.9.7-1.5-.6-4-1.3-5.9-.6-1.6-2.5-3.1-2.5-4.5.3-7.8 1.1-15.7 1.7-23.5.5-6.9 1.1-13.9 1.5-20.8.4-7.6 1.4-8.8 9.1-10 .3-.1.6-.5 1-.5 7.9-.7 15.8-1.5 25.3-2.3 0 20 .1 38.7-.1 57.3-.1 4.3.5 7.7 6.1 10.6 1-4 2.8-7.6 2.7-11.1-.4-19.6-1.2-39.2-1.8-58.8-.2-6.8-.3-13.7-.2-20.6.2-8.4.7-16.8.9-25.3.4-11.1.5-22.1 1.1-33.2.3-5.3 1.7-10.5 1.9-15.7.1-1.7-2.1-5-3.3-5.1-3.7-.2-7.5.9-11.2 1.5.5 2.2.9 4.4 1.5 6.6.2.8 1.1 1.5 1.1 2.2 0 6.8 0 13.6-.2 20.5-.2 7.9-.7 15.8-.8 23.6-.1 11.4 0 22.8 0 34.7-9.4.6-19.4 1.4-29.4 2.1zm52.7-57.6c0 9.4-.1 18.9 0 28.4.2 9.3.9 18.5 1 27.7.2 12 0 24 .1 35.9 0 5 .1 10 .2 14.9.2 7.3 1.2 14.7.4 21.9-.5 4.3.9 6.3 4.6 9.4 1.4-3 3.1-5.4 3.5-8 .6-3.8.2-7.8.1-11.7-.3-10.5-.8-20.9-1-31.4 0-2 .5-4.8 1.8-6 2.6-2.2 6-3.4 9.3-5.1-.1-.1.4.1.5.4 5 15.6 10 31.1 15.1 46.7 1.1 3.3 3.2 6.3-.3 9.5-.7.7.1 3 .3 5.5 5.7-4.3 13-4.8 15.2-10.9-2.4-2.9-5.3-5-6.3-7.7-5.5-15.6-10.7-31.3-15.8-47-.5-1.5-.6-3.7.2-4.9 3.7-5.3 7.1-11 11.7-15.3 10.3-9.6 15.3-20.8 13.8-35-1.7-15.4-15.6-28.8-31.2-28.3-7.9.2-15.8 1.9-23.6 3.2-1.9.3-3.6 1.6-6.5 3 3.1 2.2 4.9 3.5 6.9 4.8zm86.4 122.1c4.9 2.4 9.6 5.3 14.7 7.1 13.6 4.8 26.1-2.5 31.3-14 2.4-5.2 4.3-10.7 6.1-16.2 5.4-16.2-3.9-35.7-17.4-43.3-7.3-4.1-15.6-6.4-23.5-9.2-4.5-1.6-5.5-4.9-5.5-8.9 0-2 .6-3.9 1.1-5.8 5.2-18.2 19.1-28.7 39.9-25.4 2.4.4 5.3.8 6.2-2.6.9-3.3-.7-4.9-3.7-6.2-6.4-2.8-13-1.8-19.1-.4-17.9 4.1-27.1 16.9-32.4 33.5-2.7 8.6-1.2 16 6.3 21 5.1 3.4 11 6.6 16.9 7.7 11.9 2.1 18.6 9.7 22.1 19.7 4.1 11.5.7 22.8-5.3 33.3-2.6 4.5-6.4 6.7-11.4 7.3-5.8.7-11.6.8-16.8-2.5-4.3-2.7-7.3-2.3-9.5 4.9zm-13.3-133.1h-2c-1.9 2.4-5.1 4.6-5.4 7.2-1 7.8-1.2 15.7-1.3 23.6 0 6.4 1 12.8.9 19.2 0 8.9-1.7 18-.7 26.8 1.8 15.3.3 30.8 2.7 46.1 1.2 8 .8 16.5-.1 24.6-.4 4 .9 4.9 3.9 5.3 3.6.5 4.3-1.6 4.2-4.7-.1-8.7.1-17.4-.1-26-.2-12.4-.8-24.9-1-37.3-.2-8.3-.1-16.6.1-24.9.1-5.3.9-10.5.9-15.8.2-11.5.2-23-.1-34.4.1-3.2-1.2-6.5-2-9.7zM246.8 294.4c-.6.1-1.2.1-1.7.2 0 5.3-.6 10.6.1 15.8 1.1 8.2 2.1 16.6 10.7 21.4 4.9 2.7 10.3 1.4 11.1-3.9 1.1-7.7 1.9-15.8.9-23.4-1.8-13.7-5.1-27.2-4.2-41.3.6-10.2-.5-20.5-.9-30.7-.1-1.2-.6-2.5-1-3.7-1.2 15.5-1.3 30.7-1.1 46 .1 5 .7 10 1.2 14.9 1 11.1 2.4 22.2 3 33.4.1 2.3-1.9 6.1-3.8 6.7-3.2 1-7-.4-8.3-4.3-1.7-5.2-3.3-10.6-4.3-16-1-4.9-1.2-10-1.7-15.1zm296.4-116.5c.6.2 1.2.3 1.9.5.5-2.6 1.4-5.2 1.4-7.8-.2-15.5-.5-31-1.1-46.5-.5-15-1.4-29.9-2.1-44.9-.1-1.9 0-3.9 0-5.8-.6-.2-1.3-.4-1.9-.5-.8 2-2.4 4.1-2.4 6.1 0 7.3.6 14.6 1 21.9l3.3 68.7c0 2.9-.1 5.6-.1 8.3zM88 320.7c-.9 0-1.8-.1-2.7-.1 0 3.2-.2 6.4 0 9.6.7 10.6 2.1 21.3 2.2 31.9.1 9.5-1.6 19.1-1.6 28.6 0 3.9-1.1 9.1 4.4 12.8-.8-28.2-1.5-55.5-2.3-82.8zm372.3 63.7c4.2-10.8 0-21.9.7-32.9.7-11.4.2-22.8.2-34-3.5 4.5-4.6 53.4-.9 66.9zm-86-304.6c-1.9 2.1-3.4 3-3.8 4.3-3.8 13.1-6.1 26.2-.5 39.4 2 4.7 5.4 5.4 8.1.9 2.7-4.6 4.1-10 6.1-15-.7-.3-1.3-.6-2-.9-2.6 5.1-5.1 10.2-7.7 15.3-.6-.3-1.2-.6-1.8-.8-3.8-14.1-3.2-27.9 1.6-43.2zm152.9-6c-7.5 22-6.9 44.7-4.6 67.5-.7-22.6 2-45 4.6-67.5zM540.7 395c.4-.4.8-.7 1.2-1.1-.7-2-1.8-4-1.9-6.1-.6-7.8-1-15.7-1.1-23.6 0-5.1.8-10.2.9-15.3 0-1.7-1.2-3.5-1.8-5.2-.8 1.6-2.3 3.1-2.3 4.7-.2 10-.3 19.9 0 29.9.1 4.5 1.2 8.9 2.2 13.3.2 1.4 1.8 2.3 2.8 3.4zM390.1 71.1c-3.1 3.7-1.4 7.9-1 12 .4 4.5.5 8.9.7 13.4.2 4.8.3 9.5.5 14.3.1 4.3.3 8.7.4 13 .8 0 1.7-.1 2.5-.1.8-17.5.4-35-3.1-52.6zm70.7 49.4V69.4c-3.3 3.2-4.8 45.1 0 51.1zM245.2 331.9c-.5 2.4-1.1 4.3-1.1 6.1 0 1.9.7 3.9 1 5.8 1.3 8.7 3 17.2 10.6 22.9 1.8 1.3 5 2.5 6.6 1.8 3-1.4 7.9-2.3 6.7-7.9-8.2 6.6-11.9 6.3-16.1-2.8-3.4-7.7-4.9-16.3-7.7-25.9zm213.3-183.6c-5 6.6-5.6 15.7-2.3 17.6.8-5.9 1.6-11.7 2.3-17.6zm-254 229.6c.6-.1 1.1-.2 1.7-.3-.4-3.9-.7-7.8-1.1-11.6-.6.1-1.3.1-1.9.2.2 3.9-1.7 8.2 1.3 11.7zm187.1-251.8c-4.1 2-4.9 7.5-1.9 11.3.6-4 1.2-7.3 1.9-11.3z" fill="#fff"/>
  <path d="M7.8 59.8c0-16.4.1-31.9-.1-47.4C7.7 8 9.4 8.5 13 8.6c10.9.2 21.8-.7 32.6-.8 8.9 0 17.8 1 26.7.9 15.8-.1 31.5-.9 47.3-.9 15.9 0 31.8.9 47.7 1 21.8.2 43.6.1 65.3-.1 28.3-.2 56.6-.8 84.9-.9 12.3-.1 24.7.8 37 1 5.8.1 11.7-1 17.5-1 14.3.1 28.6.7 42.9.7 18.8 0 37.7-.6 56.5-.7 37-.1 74 0 111-.1 4.9 0 6.4 1.4 6.3 6.3-.3 12.7-.2 25.5 0 38.2.1 4.7-1.3 6.9-6.6 6.7-18.4-.6-36.8-1.1-55.3-1.1-12.2 0-24.4 1.3-36.6 1.5-12.4.2-24.8-.4-37.2-.2-11.3.2-22.6 1.8-33.9 1.7-12.9-.1-25.7-1.9-38.6-1.9-16.8 0-33.6 1.1-50.5 1.7-1.3 0-3.5-.4-3.7-1-1.3-5.2-5.2-4-8.7-4.1-8.2-.3-16.5-1.3-24.7-1-10.9.4-21.7 1.8-32.6 2.6-6 .4-12 .2-18 .6-8 .5-16 1.5-24 2-4 .2-8.1-.5-12.1-.2-2.8.3-5.5 2.3-8.3 2.4-4.9.2-9.8-.9-14.7-.9-19-.1-38.1-.2-57.1 0-9.7.1-19.5 1.1-29.2.9-10-.2-20-1.7-30.1-2-11.3-.4-22.6-.2-33.9 0-4.7.1-9.5.9-14.2 1-3.3 0-6.9-.7-10.9-1.1zM101.5 416.2c6.5-3.3 14.4.1 20.6-6.2 1.9-2 6.5-1.5 9.9-2 1.9-.3 3.8-.2 5.6-.3 8.5 4.3 17.3 1.1 26.4.8-.1 1.3-.2 2.8-.3 4.8 3.6-.5 6.8-1 10-1.4.1-.5.1-1 .2-1.5-1.3-.4-2.7-.8-4-1.2v-1.6c1.3.1 2.8-.1 4 .4 5.5 2.6 10.6 4.2 16.3-.4 2.1-1.7 7.2-4.6 9.3 1.9 3.3-2.4 5.8-3.2 10.1-2.1 6 1.4 12.8-.7 19.2-1.3 2.1-.2 4.2-.6 6.2-.2 3.1.6 6 2.4 9-.9.6-.7 3.9 1.5 6 1.8 9.7 1 19.5 1.8 29.3 2.7.5 0 .9.7 2.2 1.7-5.1.7-9.4 1.4-13.7 2 .1.6.2 1.3.3 1.9 7-1 14.1-1.6 21-3 3.4-.7 8.3 1.1 10-4.6.3-.9 4.8-.3 7.4-.7 7.3-1 14.4-.6 21.2 2.2.2.1.2.6.2.7-28.8 4.3-57.6 8.5-86.4 12.9-.2 0-.3.9-.6 1.8 47.3-6.5 94.2-14.1 141.9-14.5-41.9 6.7-84.4 9.1-125.9 18.7 6.2-.6 12.3-1.1 18.5-1.8 6.4-.7 12.9-1.4 19.3-2.5 5.1-.9 10-2.7 15.1-3.5 5.1-.8 10.3-.6 15.4-1.2 9.4-1.1 18.7-2.6 28.1-3.6 7.8-.8 15.8-.6 23.6-1.5 7.9-.8 15.6-2.8 23.5-3.5 10.3-1 20.7-1.4 31.1-1.1-62.3 9.1-125.1 14-188.2 28.3 2.8.9 4 1.8 5 1.6 18-3.2 36-6.6 54-9.7 16.2-2.8 32.5-5.4 48.8-7.7 13.2-1.8 26.4-3 39.6-4.6 11-1.3 22-2.8 33.1-3.8 12.9-1.2 25.9-2 38.8-2.8 1.5-.1 3.1.6 4.6 1.8-2.2.3-4.4.6-6.7.9.1.5.1 1.1.2 1.6 10.6-.4 21.2-.1 31.6-3.2-.4-.6-.7-1.1-1.3-2 3.1-.5 6-1 8.9-1.4l.3 1.2c-1.5.5-2.9 1-4.4 1.5.1.2.2.5.2.7h65v1.6c-7 .5-14 .9-21 1.6-15.6 1.4-31.2 3-46.8 4.3-11.9 1-23.8 1.3-35.7 2.5-7.5.8-14.9 2.9-22.4 4-6.7 1-13.5 1.6-20.2 2.5-8.1 1.1-16.1 2.4-24.1 3.6-7.2 1-14.4 1.9-21.5 3.1-2 .3-3.8 1.7-5.2 3.2 15.9-2 31.7-3.9 47.6-6.1 8.4-1.2 16.8-3 25.2-4.2 6.6-.9 13.2-1.2 19.8-2.1 7.8-1 15.5-2.5 23.3-3.4 6.7-.8 13.5-.7 20.2-1.5 7.6-.9 15-2.7 22.6-3.4 6.7-.6 13.4-.1 20.2-.5 11.2-.6 22.4-1.5 33.5-2.3v-1.8h-11.8c0-.8 0-1.5.1-2.3h23.8v8.4c-8.7 1-17.7.3-26.2 2.7.1.5.1 1.1.2 1.6 8.6-.8 17.2-1.6 25.8-2.3.4.5.7 1 1.1 1.5-1.2 1.9-2.4 3.7-3.6 5.7 4.6 3.4 4.5 4.8-1.9 7.9 8.6 1.7 3.2 8.1 5.4 12.7-4.4.5-8.3 1.3-12.2 1.3-7.2.1-14.3-.4-21.5-.3-10.7.2-21.3.7-32 .9-6.3.1-12.7.1-19 0-30.3-.1-60.6-.3-91-.4h-15.5c-.1-.5-.1-.9-.2-1.4 28.8-4.4 57.6-8.9 87.1-13.4-1.6-.3-2.9-.8-4-.7-11.3 1.1-22.6 1.9-33.9 3.4-13.2 1.8-26.5 4.1-39.6 6.6-6.5 1.2-12.8 3.5-19.2 5.3-.9.2-1.8.1-2.8.2-23.8.2-47.5.5-71.3.7-3.9 0-7.9.2-11.8-.4-12.7-2-25.3 1.9-38.1.1-9-1.3-18.3.4-27.5.4-18.5.2-37 .2-55.5.2-20.9 0-41.9.1-62.8 0-13.7-.1-27.5-.8-41.2-1-9.3-.1-18.6.5-27.9.6-10 .1-20.1 0-30.1.1-2.7 0-5.3.4-8 .1-1.3.4-2.8-.6-3.4-1.6-.6-1-.6-3.4 0-3.7 2.8-1.7 2.4-2.6.3-4.7-1-.9-.3-3.5-.4-5 16.8-4.3 33.2-8.4 49.6-12.6-.2-.7-.3-1.3-.5-2-16.1 3.7-32.2 7.3-48.8 11.1v-7.2c16.4-3.5 33-7 49.5-10.6-.1-.7-.3-1.4-.4-2.1-16.2 3.4-32.5 6.8-49.3 10.3v-14.9c5.1 1.3 10.5 2.6 16 4 .8.2 2.2.7 2.4.4 4.3-6 9.9-1.7 14.8-1.6 6.3.2 12.3.5 18.3-2.1 2.9-1.3 6.1-2.4 10.2 1.1 3.2 2.8 10.1 1.6 15.3 1.6 7.1-.1 14.1-.8 21.2-1.2.1.7.2 1.3.3 2-1.8.5-3.6.9-5.4 1.4.1.6.2 1.3.4 2zm402.6 12c.1-.4.1-.7.2-1.1-.9-.2-1.7-.6-2.6-.5-15.7 1.9-31.3 3.7-47 5.7-18.2 2.3-36.4 4.8-54.6 7.2-6 .8-12.1 1.6-18 2.9-4 .8-7.7 2.5-11.6 3.8.1.1.2.3.3.4 44.5-6.1 88.9-12.2 133.3-18.4zm-149.2-1.1c.1.6.1 1.2.2 1.8 31.2-3.9 62.4-7.8 94-11.8-.4-.8-.8-2.3-1.1-2.3-31 4.4-62.4 5.8-93.1 12.3zm132.4 7.5v2.3c9.6-.8 19.2-1.8 28.8-2.4 9.4-.6 18.8-.6 28.2-1.2 9.2-.5 18.3-1.4 27.4-2.1-.1-.9-.1-1.8-.2-2.7-28 2.1-56.1 4.1-84.2 6.1zm35.1 9.2c0 .6.1 1.3.1 1.9 18.9-1.3 37.9-2.6 56.8-4 .2 0 .3-1.3.8-3.5-19.7 1.9-38.7 3.8-57.7 5.6zm28-19c-.1-.8-.1-1.5-.2-2.3-7.8.4-15.7.6-23.5 1.1-6.1.5-12.2 1.3-18.3 2.2-.7.1-1.1 1.3-1.7 2 .7.4 1.5 1.1 2.2 1 2.8 0 5.6-.1 8.3-.4 8.7-.9 17.4-1.9 26.1-2.8 2.4-.2 4.8-.5 7.1-.8zm-461.3 1.4c17.5-3.2 35-6.5 53.7-9.9-7.2-2.2-51.8 6.7-53.7 9.9zm408.6 16.1c-.1-.7-.2-1.4-.4-2.1-14.3 3.9-29.9.6-43.5 8 14.7-2 29.3-3.9 43.9-5.9zm-479.5-.5c1.9.7 2.4 1.1 2.8 1 9.7-2.4 19.4-4.8 29.1-7.3 1.1-.3 2.1-1.2 3.1-1.9-1.1-.2-2.4-.8-3.4-.6-6.6 1.3-13.1 2.6-19.6 4.3-3.8 1.1-7.3 2.8-12 4.5zm212.4-23.9c.2.8.3 1.6.5 2.4 10-1.6 19.9-3.3 29.9-4.9-.1-.6-.2-1.2-.3-1.9-10 1.5-20 2.9-30.1 4.4zM62.5 429.6c.2.9.3 1.8.5 2.7 7.9-1.9 15.8-3.8 23.6-5.7-.2-.7-.3-1.3-.5-2-7.8 1.7-15.7 3.4-23.6 5zm264.5 3.6c-.1-.7-.2-1.3-.4-2-8.2 1.4-16.3 2.7-24.5 4.1.1.7.2 1.5.4 2.2 8.1-1.5 16.3-2.9 24.5-4.3zm4.6 12.2c7.5-1.4 14.6-2.7 21.7-4-.1-.7-.3-1.4-.4-2.2-7 1.2-13.9 2.3-20.9 3.7-.3 0-.3 1.4-.4 2.5zm194.1-7.7c0 .8.1 1.6.1 2.4 6.7-.5 13.4-.9 20.1-1.4v-1h-20.2zm-25.7 2c.1 1 .2 2 .4 3.1 5.6-.8 11.1-1.5 16.7-2.3-.1-.7-.2-1.3-.3-2l-16.8 1.2zm-373.6-12.3c-2.6-3.4-12.6-1.8-15.5 2.4 5.2-.8 10.1-1.5 15.5-2.4zm-33.7-10c-.2-.7-.3-1.4-.5-2.1-5.9 1.1-11.9 2.1-17.8 3.2.1.6.2 1.1.3 1.7 6-1 12-1.9 18-2.8zm1.1 16.5c-.1-.7-.3-1.4-.4-2-4.7.9-9.4 1.7-14.1 2.6.1.7.3 1.5.4 2.2 4.6-.9 9.4-1.9 14.1-2.8zM311.5 447c.2.6.3 1.2.5 1.8l14.1-3c-.2-.7-.4-1.4-.5-2.1-4.8 1.1-9.5 2.2-14.1 3.3zm-128.8-29.6c-.1-.6-.2-1.2-.2-1.8-4.6.8-9.3 1.6-13.9 2.4.1.7.3 1.4.4 2.1 4.5-.8 9.1-1.7 13.7-2.7zM564.5 436c0 .7.1 1.3.1 2 5.3-.6 10.7-1.1 16-1.7-.1-.5-.1-1-.2-1.5-5.2.4-10.6.8-15.9 1.2zm-15.6.5.3 2.4c4.2-.5 8.5-1 12.7-1.6-.1-.6-.1-1.2-.2-1.8-4.3.3-8.6.7-12.8 1zm-198.7-6.7c-.1-.7-.2-1.5-.3-2.2-4.2.7-8.3 1.3-12.5 2 .1.7.2 1.4.3 2 4.1-.5 8.3-1.1 12.5-1.8z" fill="#fff"/>
  <path d="M535.1 409.3c-12.9-1-25.7-2.2-38.6-3-3.7-.2-7.5 1.3-11.2 1.3-18.4-.1-36.8-.3-55.2-.8-16.5-.4-32.9-1.5-49.4-1.6-7 0-14 2-21.1 2.5-12 .8-24.1.4-35.7-3.2-9.1-2.8-17.8-.6-26.8.1-8.9.7-17.9 0-26.9-.1-3.3 0-6.5-.1-9.8-.2-.9 0-1.9-.4-2.8-1.9 3.2-.3 6.3-.9 9.5-.9 13.9-.1 27.8.3 41.6-.2 9.1-.3 17.9 1.2 26.8 2.5 5.6.8 11.4.8 17 .3 9-.9 17.9-2.5 26.8-3.8 6.3-.9 12.6-1.8 18.9-2.3 3.5-.3 7.3-.6 10.5.6 11 3.8 22.4 4.9 33.9 5.1.2 0 .4-.1.5 0 6.6 2.6 13.2 2 20.2 1.3 10.5-1 21.1-.4 31.7-.2 7.7.1 15.5.7 23.2 1 3.7.1 7.4 0 11.1.2 2 .1 4.1.8 6.1 1.3 0 .6-.2 1.3-.3 2zM537.1 407.1h15.7c1.3 0 2.8.1 3.9-.4 7.7-3.9 15.2-2.1 24.3-.2-15.7 2.4-29.8 5.3-44.2 2.1l.3-1.5z" fill="#fff"/>
  <path d="M81.5 254.2c7.4 15.4 14.9 31.1 22.5 46.8 4.3 8.9 9.2 17.5 13.3 26.5 1.6 3.3 3.5 3.8 5.8 2 2.8-2.2 4.3-.9 6 1 5.7 6.3 4.5 12.2-3.2 15.5-7.1 3.1-14.2 6.1-21.4 9-1.4.6-4 .6-4.9-.3-3-3-5.5-6.6-8.8-10.6 5.4-1.9 9.1-3.3 13.2-4.7-11.5-23.7-23-47.2-34.5-70.7v35.6l-.6.3c-.4-1.7-1.2-3.3-1.3-5-.5-12.1-.9-24.3-1.1-36.4-.1-3.8-.1-6.6-5.3-4.8-2.3.8-5 .1-7.8.1 2.1 25.6 4.2 50.7 6.2 76.1.9.1 2.8-.1 4.2.6 1.8 1 3.7 2.6 4.5 4.3.4.9-1.7 2.8-2.7 4.3-3.7 5.5-9.2 6.9-15.4 8.5-8.1 2.1-15.3.2-22.7-1.6-5.2-1.3-6.9-5.8-5.2-11.4 1.7-5.6 5.8-2.2 9.3-2.1.6-4.4 1.4-8.6 1.6-12.9.9-20.9 2.3-41.8 2-62.7-.3-17.5-2.7-34.9-4.1-52.3-.8-9.8-1.5-19.7-2.3-29.5-.8-10.4-1.4-20.8-2.4-31.1-.1-1.1-2.4-2.5-3.9-2.8-1.7-.3-3.5.5-5.3.9-4.1 1-6.2-.5-6.6-4.8-.2-2.2-1-4.4-1.7-8 2.4-1.1 5.1-3 8.1-3.6 14.7-3.3 29.5-3.6 44.5-1.5 3.3.5 5.2-.6 5.1-4.4-.2-7.7-.2-15.4 0-23.2.1-4.3.9-8.6 1.6-14.5 1.2 1.9 2.5 2.9 2.4 3.9-.5 11.6-1.3 23.1-1.9 34.7-.2 3 .1 4.3 4.4 5.2 12.4 2.7 25.3 5.7 35.1 14.4 8.4 7.5 14.2 17.2 14.7 28.8.8 18.6-3 36.6-11.5 53.1-3.1 6-8.3 11.1-13.4 15.7-4.5 4-10.1 7.1-16.5 11.6zM45.2 147.5c2.3 30.8 4.6 61.9 6.9 93.1 3.9-1 7-1.4 9.6-2.7 2.9-1.4 5.2-3.3 4.7-7.7-.5-4.2-.3-10 2.2-12.6 5.4-5.5 4.5-12 4.5-18 0-9.8-1.1-19.7-2.1-29.5-.7-7.2-2-14.3-2.9-21-3.8-.9-7.4-2.4-11.1-2.6-3.9-.3-7.8.6-11.8 1zm23.7 86c14.9.9 24.3-11.8 28.7-22.8 2.7-6.8 3.8-13.9 4.9-21.2 1.2-8-.8-14.6-4.5-21.1-5.5-9.9-14.8-15.2-25.5-18.8-.4 1.3-1.3 2.6-1.2 3.9 1.6 13.8 3.7 27.6 5 41.4.6 6.8 1.4 13.9-3.1 20-4.1 5.7-4.7 12-4.3 18.6zM143.7 171.9c-10.5 1.8-8 10.7-8.1 16.8-.3 21.2.7 42.3.8 63.5.1 11.7-.9 23.5-.9 35.2 0 5.4 1.4 10.8 2.2 16.2h1.4c.8-2.6 1.7-5.1 2.5-7.7.6.1 1.2.3 1.8.4-.7 4.3-1.4 8.6-2.1 12.8-.7.2-1.4.5-2.1.7-1.6-1.9-4-3.5-4.7-5.7-1.3-4.1-2.3-8.5-2.3-12.7 0-12.1.9-24.2.9-36.3-.1-23.8-.8-47.7-.9-71.5 0-6.3 1.6-12.6 2-19 .4-6.5-.4-13.2.2-19.7 1.2-13 2.9-26 4.6-39 .2-1.4 1.8-2.7 2.7-4 .1 1.5.4 3 .3 4.5-1.6 16.6-3.3 33.2-5 49.8-.1.6.4 1.2.8 2.7 7.1-4.1 13.8-8.1 20.6-11.9 1.4-.8 4-1.6 4.6-1 1.2 1.2 2.1 3.5 1.8 5.1-1.3 7.9-1.5 7.9-9.6 14.4 11.4 18.7 22.8 37.5 35.1 57.6 5.9-8.5 10.9-15.8 16.1-23 2.7-3.8 5.8-7.4 8.6-11.2 4.7-6.4 9.1-13 14-19.3 1.9-2.4 1.8-3.7-.1-6.1-4.9-6.1-4.8-8.2-.9-12 3.1-3.1 6.9-3.3 9.8-.7 4.9 4.4 9.6 9.2 13.2 14.7 1.2 1.9-.9 6.5-2.5 9.3-.5.8-4.2-.2-7.3-.4-1.6 2.3-3.6 5.4-5.7 8.4-9.1 12.8-18.3 25.6-27.4 38.5-3.7 5.2-8 10.1-10.5 15.8-2 4.6-2.2 10.2-2.4 15.4-.2 5.8.9 11.7.9 17.5 0 6.2-1 12.4-.7 18.6.6 12.6 1.7 25.2 2.6 37.5 8.3 1.8 7.3 2.5 8.6 10.1 1.3 8.1-2.6 8.5-8.2 8.9-6.6.4-13.1 1.5-19.6 1.3-2-.1-3.9-3.4-5.7-5.4-.3-.3 0-1.1-.1-1.6-1.5-7.4-1.5-7.3 6-9.5 1.3-.4 2.8-2.9 2.7-4.3-.4-5.8-1.9-11.5-2-17.3-.3-21.6-1.8-43.5.5-64.8 1.5-13.5-6.5-20.7-11.7-30.1-5-9.1-11.2-17.6-16.7-26.5-2.8-4.7-5.4-9.8-8.1-15zM325.3 322.9c2.2 8.5.9 70.9-2.3 74.2-2.1-13.9-2-27.3-.7-40.7.3-2.6.4-5.1.3-7.7-.3-8.6-.6-17.2-1.2-25.8-.1-1.3-2-3.2-3.5-3.7-17.6-5.7-27-18.7-31.2-35.7-1.5-6-1.4-12.5-1.6-18.8-.4-14.4-1.2-29 2.4-43 3.1-11.8 7.7-23.3 12.8-34.3 3.5-7.7 7.5-15.4 14.5-21.2 9.9-8.1 21-10.8 33.4-9.3 7.7.9 14.7 3.6 20.5 9.1.9.9 2.6 1.1 4 1.7 2.1-2.9 3.7-6.5 8.2-3.7 4.1 2.6 5.2 6 3.1 10.5-2.5 5.2-4.7 10.6-7.3 15.8-2.1 4.2-5 4.4-7.3.3-3.1-5.3-6.6-10.2-12-13.5-5.2-3.2-10.1-6-16.7-3.3-3.7 1.6-8.1 1.7-12.2 2.5-6.1 1.2-10 5.2-13.1 10.2-7.6 12.3-10.3 26.2-11.4 40.3-.9 10.9-1.8 21.9-.9 32.6 1 12.7 4.1 25.3 10.8 36.5.6 1.1 1.5 2.1 2.4 3 .6.6 1.4 1.1 3.1 2.4 0-6.4-.1-11.8 0-17.2.2-10 .7-19.9.9-29.9.2-7.4.2-14.8.4-22.2.1-2.3 1-4.6.9-7-.2-6.4-1.1-12.8-.9-19.2.2-6.3 1.4-12.6 2.4-18.9.2-1 1.2-2 3-2.6-.4 5.6-1 11.2-1.1 16.7-.2 14 0 28-.5 42-.2 7.1-1.8 14.1-2.1 21.1-.5 10.8-.5 21.7-.7 32.6-.1 5.1 8.5 9.6 14.2 7.6 2.7-1 5.4-1.9 8.2-2.8 3.3-1 7.1-.5 5.7-6.6-.7-3.3 4.1-5.5 7.7-5.1 1.8.2 4.3 2.5 4.9 4.4 1.3 4.3 1.7 8.9 2.4 13.3.8 5.3-2.5 8.3-8 7.7-2.6-.3-5.4.2-7.9.9-7.9 2.1-15.5 4.5-23.6 6.8zM390.7 244.9c10-.7 20.1-1.4 29.6-2.1 0-11.9-.1-23.3 0-34.7.1-7.9.6-15.8.8-23.6.2-6.8.2-13.6.2-20.5 0-.7-.9-1.4-1.1-2.2-.6-2.2-1-4.4-1.5-6.6 3.7-.6 7.5-1.7 11.2-1.5 1.2.1 3.3 3.3 3.3 5.1-.2 5.3-1.6 10.5-1.9 15.7-.6 11-.7 22.1-1.1 33.2-.3 8.4-.8 16.8-.9 25.3-.1 6.8-.1 13.7.2 20.6.6 19.6 1.4 39.2 1.8 58.8.1 3.5-1.7 7.1-2.7 11.1-5.6-2.9-6.2-6.3-6.1-10.6.2-18.7.1-37.3.1-57.3-9.5.9-17.4 1.6-25.3 2.3-.3 0-.6.5-1 .5-7.7 1.2-8.7 2.4-9.1 10-.3 7-.9 13.9-1.5 20.8-.6 7.8-1.4 15.7-1.7 23.5-.1 1.5 1.8 2.9 2.5 4.5.7 1.9 2 4.4 1.3 5.9-.6 1.5-3.3 2.6-5.2 2.9-3.1.5-6.3.4-9.4 0-1.6-.2-3.5-1.3-4.4-2.6-.5-.8 1-2.7 1.3-4.1 1.3-6.1 2.7-12.1 3.7-18.3 1.5-9.1 2.8-18.2 4.1-27.4 1.3-9.3 2.5-18.7 3.7-28.1 1.1-9.2 2.5-18.4 3.2-27.6.7-9 .7-18.1 1.3-27.1.4-5 1.7-10 2.1-15 .3-3.2-.6-6.5-.5-9.7.1-1.7 1.1-4.8 1.7-4.9 3.5-.1 7.5-.3 10.6 1.1 5 2.4 4.7 4.8.9 8.7-1.4 1.4-2.3 3.8-2.6 5.8-1.6 13.9-3 27.8-4.5 41.6-1.1 8.4-2.1 16.8-3.1 26.5zM443.4 187.3c-2-1.4-3.9-2.6-7-4.7 2.9-1.4 4.7-2.7 6.5-3 7.8-1.3 15.7-3 23.6-3.2 15.6-.5 29.5 12.8 31.2 28.3 1.5 14.3-3.5 25.4-13.8 35-4.6 4.3-8.1 10-11.7 15.3-.8 1.2-.7 3.4-.2 4.9 5.1 15.7 10.3 31.5 15.8 47 1 2.7 3.8 4.8 6.3 7.7-2.2 6.1-9.5 6.5-15.2 10.9-.2-2.5-1-4.8-.3-5.5 3.5-3.3 1.4-6.2.3-9.5-5.1-15.5-10.1-31.1-15.1-46.7-.1-.3-.5-.5-.5-.4-3.2 1.7-6.6 2.9-9.3 5.1-1.4 1.1-1.9 3.9-1.8 6 .2 10.5.7 20.9 1 31.4.1 3.9.4 7.9-.1 11.7-.4 2.6-2.1 5-3.5 8-3.7-3.1-5.1-5.1-4.6-9.4.8-7.2-.2-14.6-.4-21.9-.1-5-.2-10-.2-14.9 0-12 .1-24-.1-35.9-.1-9.3-.8-18.5-1-27.7 0-9.6.1-19.1.1-28.5zm8.9 70.8c1.2.1 2 .4 2.2.1 6.9-6.6 14.4-12.7 20.4-20.1 5.4-6.6 10.4-14.1 13.1-22 3-9.2 2-18.7-7.2-25.4-8.4-6.1-17.4-6.6-26.8-4.3-1.1.3-2.2 2.6-2.3 4-.4 4-.2 8-.2 11.9-.1 6.9-.2 13.7-.1 20.6.1 6.2.8 12.5.9 18.7.1 5.5 0 11 0 16.5zM529.8 309.4c2.2-7.2 5.2-7.6 9.6-4.7 5.1 3.3 10.9 3.2 16.8 2.5 5-.6 8.8-2.8 11.4-7.3 6-10.5 9.3-21.8 5.3-33.3-3.5-10-10.2-17.6-22.1-19.7-5.9-1-11.8-4.2-16.9-7.7-7.4-5-9-12.4-6.3-21 5.3-16.6 14.5-29.5 32.4-33.5 6.1-1.4 12.7-2.4 19.1.4 3 1.3 4.6 2.9 3.7 6.2-.9 3.5-3.8 3-6.2 2.6-20.8-3.3-34.7 7.2-39.9 25.4-.5 1.9-1.1 3.9-1.1 5.8 0 4 1 7.3 5.5 8.9 8 2.8 16.3 5.1 23.5 9.2 13.5 7.6 22.7 27 17.4 43.3-1.8 5.5-3.7 10.9-6.1 16.2-5.2 11.5-17.7 18.7-31.3 14-5.2-2-9.9-4.9-14.8-7.3zM516.5 176.3c.8 3.2 2.1 6.5 2.2 9.8.3 11.5.2 23 .1 34.4-.1 5.3-.8 10.5-.9 15.8-.2 8.3-.2 16.6-.1 24.9.2 12.4.8 24.9 1 37.3.2 8.7 0 17.4.1 26 0 3.1-.7 5.2-4.2 4.7-2.9-.4-4.3-1.3-3.9-5.3.8-8.2 1.3-16.6.1-24.6-2.4-15.3-.9-30.8-2.7-46.1-1-8.8.6-17.9.7-26.8 0-6.4-1-12.8-.9-19.2 0-7.9.2-15.8 1.3-23.6.4-2.6 3.5-4.8 5.4-7.2.5-.1 1.1-.1 1.8-.1zM246.8 294.4c.5 5 .7 10.2 1.6 15.1 1 5.4 2.6 10.7 4.3 16 1.3 3.9 5.1 5.3 8.3 4.3 1.9-.6 3.9-4.4 3.8-6.7-.6-11.2-1.9-22.3-3-33.4-.5-5-1.1-9.9-1.2-14.9-.2-15.3-.1-30.5 1.1-46 .3 1.2.9 2.5 1 3.7.4 10.2 1.5 20.5.9 30.7-.9 14.1 2.4 27.5 4.2 41.3 1 7.7.2 15.7-.9 23.4-.7 5.3-6.2 6.6-11.1 3.9-8.6-4.7-9.6-13.2-10.7-21.4-.7-5.2-.1-10.5-.1-15.8.6 0 1.2-.1 1.8-.2zM543.2 177.9c0-2.7.1-5.5 0-8.2l-3.3-68.7c-.4-7.3-.9-14.6-1-21.9 0-2 1.5-4.1 2.4-6.1.6.2 1.3.4 1.9.5 0 1.9-.1 3.9 0 5.8.7 15 1.6 29.9 2.1 44.9.6 15.5.9 31 1.1 46.5 0 2.6-.9 5.2-1.4 7.8l-1.8-.6z"/>
  <path d="M88 320.7c.8 27.3 1.5 54.6 2.3 82.8-5.5-3.7-4.3-8.9-4.4-12.8-.1-9.5 1.6-19.1 1.6-28.6-.1-10.6-1.5-21.3-2.2-31.9-.2-3.2 0-6.4 0-9.6.9 0 1.8.1 2.7.1zM460.3 384.4c-3.7-13.6-2.5-62.5.9-66.9 0 11.2.6 22.6-.2 34-.7 11 3.5 22.1-.7 32.9zM374.3 79.8c-4.8 15.3-5.4 29.1-1.7 43 .6.3 1.2.6 1.8.8 2.6-5.1 5.1-10.2 7.7-15.3.7.3 1.3.6 2 .9-2 5-3.4 10.4-6.1 15-2.6 4.5-6.1 3.8-8.1-.9-5.6-13.2-3.4-26.3.5-39.4.5-1.1 2-2 3.9-4.1zM527.2 73.8c-2.7 22.5-5.3 44.9-4.6 67.5-2.2-22.8-2.9-45.5 4.6-67.5zM540.7 395c-1-1.1-2.6-2-2.9-3.3-1-4.4-2.1-8.8-2.2-13.3-.3-9.9-.2-19.9 0-29.9 0-1.6 1.5-3.1 2.3-4.7.6 1.7 1.9 3.5 1.8 5.2-.1 5.1-1 10.2-.9 15.3.1 7.9.5 15.7 1.1 23.6.1 2.1 1.3 4 1.9 6.1-.3.3-.7.6-1.1 1zM390.1 71.1c3.6 17.6 4 35 3.2 52.5-.8 0-1.7.1-2.5.1-.1-4.3-.3-8.7-.4-13-.2-4.8-.3-9.5-.5-14.3-.2-4.5-.3-9-.7-13.4-.5-4-2.2-8.2.9-11.9zM460.8 120.5c-4.8-6-3.3-47.9 0-51.1v51.1zM245.2 331.9c2.8 9.6 4.3 18.1 7.7 25.9 4.1 9.2 7.9 9.4 16.1 2.8 1.2 5.6-3.7 6.5-6.7 7.9-1.6.8-4.9-.4-6.6-1.8-7.6-5.6-9.3-14.2-10.6-22.9-.3-1.9-1-3.9-1-5.8 0-1.8.6-3.6 1.1-6.1zM458.5 148.3c-.8 5.9-1.5 11.7-2.3 17.6-3.3-1.9-2.7-11.1 2.3-17.6zM204.5 377.9c-3-3.6-1.1-7.8-1.3-11.8.6-.1 1.3-.1 1.9-.2.4 3.9.7 7.8 1.1 11.6-.6.2-1.2.3-1.7.4zM391.6 126.1c-.7 4-1.2 7.4-1.9 11.3-3-3.8-2.2-9.4 1.9-11.3zM504.1 428.2c-44.4 6.1-88.8 12.3-133.2 18.4-.1-.1-.2-.3-.3-.4 3.9-1.3 7.6-3 11.6-3.8 5.9-1.3 12-2 18-2.9 18.2-2.5 36.4-4.9 54.6-7.2 15.6-2 31.3-3.8 47-5.7.8-.1 1.7.3 2.6.5-.2.4-.2.8-.3 1.1zM354.9 427.1c30.7-6.5 62.1-8 93.1-12.3.2 0 .7 1.4 1.1 2.3-31.5 4-62.8 7.9-94 11.8 0-.6-.1-1.2-.2-1.8zM487.3 434.6l84.3-6c.1.9.1 1.8.2 2.7-9.1.7-18.3 1.6-27.4 2.1-9.4.6-18.8.6-28.2 1.2-9.6.6-19.2 1.6-28.8 2.4-.1-.8-.1-1.6-.1-2.4zM522.4 443.8c19-1.8 38-3.7 57.7-5.6-.5 2.2-.6 3.4-.8 3.5-18.9 1.4-37.9 2.7-56.8 4-.1-.6-.1-1.3-.1-1.9zM550.4 424.8c-2.4.3-4.7.6-7.1.9-8.7 1-17.4 1.9-26.1 2.8-2.8.3-5.6.4-8.3.4-.7 0-1.5-.7-2.2-1 .6-.7 1.1-2 1.7-2 6.1-.9 12.2-1.7 18.3-2.2 7.8-.6 15.7-.8 23.5-1.1.1.6.2 1.4.2 2.2zM89.1 426.2c1.9-3.3 46.5-12.1 53.7-9.9-18.8 3.5-36.2 6.7-53.7 9.9zM497.7 442.3c-14.6 2-29.3 3.9-43.9 5.9 13.7-7.4 29.2-4.1 43.5-8 .2.7.3 1.4.4 2.1zM18.2 441.8c4.7-1.8 8.2-3.4 12-4.4 6.5-1.7 13-3 19.6-4.3 1.1-.2 2.3.4 3.4.6-1 .6-2 1.6-3.1 1.9-9.7 2.5-19.4 4.9-29.1 7.3-.4 0-1-.4-2.8-1.1zM230.6 417.9c10-1.4 20.1-2.9 30.1-4.3.1.6.2 1.2.3 1.9-10 1.6-19.9 3.3-29.9 4.9-.2-.9-.3-1.7-.5-2.5zM62.5 429.6c7.9-1.7 15.8-3.3 23.7-5 .2.7.3 1.3.5 2-7.9 1.9-15.8 3.8-23.6 5.7-.3-.9-.4-1.8-.6-2.7zM327 433.2c-8.2 1.4-16.3 2.8-24.5 4.2-.1-.7-.2-1.5-.4-2.2 8.2-1.4 16.3-2.7 24.5-4.1.1.7.2 1.4.4 2.1zM331.6 445.4c.1-1 .1-2.5.4-2.5 7-1.3 13.9-2.5 20.9-3.7.1.7.3 1.4.4 2.2-7.1 1.3-14.2 2.6-21.7 4zM525.7 437.7h20.2v1c-6.7.5-13.4.9-20.1 1.4 0-.8-.1-1.6-.1-2.4zM500 439.7c5.6-.4 11.2-.8 16.7-1.2.1.7.2 1.3.3 2-5.6.8-11.1 1.5-16.7 2.3 0-1.1-.1-2.1-.3-3.1zM126.4 427.4c-5.4.8-10.3 1.6-15.5 2.4 3-4.2 12.9-5.7 15.5-2.4zM92.7 417.4l-18 2.7c-.1-.6-.2-1.1-.3-1.7 5.9-1.1 11.9-2.1 17.8-3.2.2.8.3 1.5.5 2.2zM93.8 433.9c-4.7.9-9.4 1.9-14.2 2.8-.1-.7-.3-1.5-.4-2.2 4.7-.9 9.4-1.7 14.1-2.6.2.6.3 1.3.5 2zM311.5 447c4.7-1.1 9.3-2.2 14-3.3.2.7.4 1.4.5 2.1l-14.1 3c-.1-.6-.3-1.2-.4-1.8zM182.7 417.4l-13.8 2.7c-.1-.7-.3-1.4-.4-2.1 4.6-.8 9.3-1.6 13.9-2.4.2.6.3 1.2.3 1.8zM564.5 436c5.3-.4 10.7-.8 16-1.2.1.5.1 1 .2 1.5-5.3.6-10.7 1.1-16 1.7-.1-.6-.2-1.3-.2-2zM548.9 436.5c4.3-.3 8.5-.6 12.8-.9.1.6.1 1.2.2 1.8-4.2.5-8.5 1-12.7 1.6-.2-.9-.3-1.7-.3-2.5zM350.2 429.8c-4.2.6-8.4 1.2-12.6 1.9-.1-.7-.2-1.4-.3-2 4.2-.7 8.3-1.3 12.5-2 .2.7.3 1.4.4 2.1z"/>
  <path d="M45.2 147.5c4-.4 7.9-1.3 11.8-1.1 3.7.2 7.3 1.6 11.1 2.6 1 6.8 2.2 13.9 2.9 21 1 9.8 2.2 19.7 2.1 29.5 0 6 .9 12.5-4.5 18-2.5 2.6-2.7 8.4-2.2 12.6.5 4.5-1.8 6.3-4.7 7.7-2.6 1.3-5.7 1.7-9.6 2.7-2.3-31.1-4.6-62.2-6.9-93z" fill="#fff"/>
  <path d="M68.9 233.5c-.3-6.6.2-13 4.3-18.6 4.5-6.1 3.7-13.3 3.1-20-1.3-13.8-3.4-27.6-5-41.4-.1-1.2.8-2.6 1.2-3.9 10.8 3.6 20 8.9 25.5 18.8 3.6 6.4 5.6 13 4.5 21.1-1.1 7.3-2.1 14.4-4.9 21.2-4.4 11-13.8 23.7-28.7 22.8zM452.3 258.1c0-5.5.1-11 0-16.4-.2-6.2-.8-12.5-.9-18.7-.1-6.9.1-13.7.1-20.6 0-4-.1-8 .2-11.9.1-1.4 1.3-3.7 2.3-4 9.5-2.3 18.5-1.8 26.8 4.3 9.3 6.7 10.3 16.2 7.2 25.4-2.6 7.9-7.7 15.4-13.1 22-6 7.4-13.5 13.5-20.4 20.1-.3.1-1.1-.2-2.2-.2z" fill="#fff"/>
</svg>
