<svg xmlns="http://www.w3.org/2000/svg" viewBox="0 0 595.3 471.5" xml:space="preserve">
  <path fill="#fff" d="M0 0h595.3v471.5H0z"/>
  <path d="M0 470.4V2.7c4.3.3 8.6.8 12.8.9 6.2.1 12.1-2.3 18.9-.3 6.5 1.9 14.1 0 21.3-.1 4 0 9.6-1.2 11.7.8 4.1 4.1 4.9.3 5.6-.4 5.1.4 9 1 12.8.8 3.7-.2 7.4-1.5 11.1-1.8 1.1-.1 2.4 1.4 2.8 1.7 1.4-.6 2.6-1.5 3.9-1.5 18.8-.5 37.5-1 56.3-1.1 53.4-.2 106.8-.2 160.3-.2 90.5 0 181-.1 271.4 0 2.1 0 4.2.7 6.3 1.1v468.8H82.4c-5.6-1.1-11.2-2.2-16.8-3.2-.7 0-1.4 0-2.2-.1-.4.1-.7.2-1.1.3-20.5 4-41.5 1.1-62.3 2zm72.9-109.8c.6-2.8 1.1-5.7 1.8-9.4-1.2 1-2 1.4-2.5 2.1-3.5 5.3-6.8 10.8-10.6 15.9-2.1 2.9-5 5.4-7.7 8.3 1.7.4 4.3 1.1 5.3 1.3 4.9-6.6 9.3-12.5 13.7-18.4.7.4 1.8 1.4 2.2 1.2 1.7-.9 3.1-2.2 5.4-3.9 3.4 10-6.3 15.4-6.4 23.2 7.6 2.5 15 4.8 21.9 7 4.8-22.4 16.2-33.8 40.4-25.9-3.5-7.2-3.5-7.2 6-12.4-1.3-6.8-6-10.8-9.5-7.8-4.9 4.2-9 2.2-13.8.4-3.4-1.3-7.4-1.8-11-1.6-10.3.6-20.9 3.5-29.9-4.8-2.5 4-4.3 8.2-7.3 11.3-3.6 3.9-3.9 10.3-9.6 12.6 3.2-5.3 6.8-10.4 9.5-15.9 1.8-3.7 3.3-8.1 3-12-.5-6.6-2.8-13.1-3.8-19.7-.3-2 .4-4.7 1.7-6.3 4.2-5.4 10.1-8.2 16.6-8.2-3-7.1-6.5-13.6-8.5-20.6-3.4-11.5-3.6-22.6 3-33.7 4.9-8.2 11.5-14.2 18.3-20.6 11.9-11.2 25.9-14.6 40.8-10.4 16.4 4.6 32.2 11.3 48.1 17.5 4.2 1.6 7.2 1 11.1-.7 2.8-1.3 7.2-1.8 9.7-.4 11.1 5.8 17.4 11.5 16.5 25.6-.6 9.2-9.6 15.3-18.2 12.4-1.3-.5-3.9.7-5 1.9s-1.1 3.4-1.4 5.2c-.8 5.1.8 6.8 6.1 6.2 5.7-.7 9.7 3.9 6.6 8.4-2.4 3.6-.6 5.7.8 7.7 5.7 8 5.9 13.3.6 21.3-6.8 10.3-17.4 15.7-27.6 21.4-5 2.8-7.2 5.8-6.2 9.4 4.8 3.2 8.2 5.5 11.7 7.9-1.8 2.3-2.7 3.4-3.7 4.7.8.2 1.3.4 1.8.4.7 0 1.5-.1 2.1-.4 6.5-3.3 11.6-1.1 16.9 3.2 5.9 4.8 8.8 11.3 10.8 18 2.7 9.5 4.6 19.3-1.5 28.5-.5.8-.6 2.1-.5 3.2.3 4.7 1.1 9.5.9 14.2-.3 5.3 2.3 6 6.2 4.6 1.9-.7 3.6-2.4 5-4 4.7-5.5 9.3-11.1 13.9-16.7.7-.9 1.2-1.9 1.8-2.8-.4-.3-.8-.7-1.1-1-1.7 1.7-3.6 3.3-5.1 5.2-3.9 4.7-7.6 9.6-11.7 14.1-1.9 2.1-4.4 3.4-6.7-.2 1.1-1.2 2.3-2.2 3.1-3.4 2.1-3.1 4.4-6.1 6-9.5 1.6-3.4 2.2-7.2 3.7-10.6 1.4-3.3 3.4-6.2 5.3-9.6-14-.7-1.2-8.1-3.8-12-.7.5-1.3 1.1-2.1 1.4-.8.2-1.7.1-3.5.1 2.9-12.2 7.3-23.3 13.5-33.5.8.3 1.6.6 2.4 1-2.8 6.3-5.5 12.6-8.3 18.9.4.2.7.5 1.1.7 4.5-5.9 9-11.7 13.5-17.6.5.3.9.6 1.4.8-3.1 11.7-10.6 21.6-15.3 32.7.5.3.9.6 1.4.9 6.2-7.4 12.3-14.7 18.5-22.1.6.4 1.2.8 1.8 1.3-7.3 12.1-14.7 24.2-22 36.3.5.3 1 .7 1.5 1 5.6-5.9 11.2-11.9 16.8-17.8.5.4.9.8 1.4 1.2-2.9 3.9-5.7 7.7-8.6 11.6.4.4.8.7 1.2 1.1 1.6-2 3.1-4.2 5-5.9 1.4-1.3 3.3-2 4.9-3l1.5 3.6c3.3-3.2 6.5-6.3 9.8-9.4.6.6 1.2 1.1 1.9 1.7-3.6 5.3-7.2 10.7-10.9 15.9-3.7 5.2-7.6 10.3-11.4 15.4l1.5 1.2c5.7-6.5 11.3-13.2 17.1-19.6 1.1-1.3 3-1.8 4.6-2.7.4.6.9 1.2 1.3 1.7-4.2 5.9-8.4 11.9-12.6 17.8l.6.6c2.1-1.2 4.1-2.3 6.2-3.5.4.4.8.7 1.3 1.1-.5 2.3-1.1 4.6-1.6 7.1-4.4-2-9.1 1.4-12.7 8.4.6.1 1.3.5 1.6.3 5.4-3.5 10.5-2.9 15.6.5 1.1.7 2.6 1.1 4 1.1 4.4.1 8.7.1 13.9.1.2-.4 1.1-1.7 1.2-3.1 1.2-12.8 1.3-25.8 3.9-38.3 2-9.5-3.5-12.3-9.5-15.8-1.6-.9-3.4-1.5-5-2.3-4.7-2.2-6-5.5-3.9-10.2-5.2-3.7-10.7-7.1-15.5-11.3-5.5-4.8-10.8-8.1-18.6-6.8-1.9.3-4.4-2.4-6.4-4.1-1.4-1.1-2.4-2.6-3.4-4-1.8-2.4-3.5-4.8-5.1-7.2-.9-1.4-1.5-2.9-2.2-4.4-1.1-2.3-3.1-4.7-3-7 .1-2.6 1-6 5.3-5.6.9.1 1.8-1.6 1.8-1.5-2.9-1.9-5.4-3.5-8-5.2 3.2-3.1 5.5-5 7.5-7.1 3.2-3.4 6.3-3.6 10.1-.6 2.8 2.2 6.2 3.6 9.1 5.2.5-3.7 0-7.2 1.5-9.1 1.5-1.8 5.1-1.8 6.3-2.2 1.6-5.5 1.5-12.4 4.9-15.1 4.9-3.9 4.7-7.9 4.9-12.7.6-15.7 6.2-29.4 17-40.6 3.3-3.4 3.3-5.8.1-8.6-6.6-5.7-12.7-12-20-16.6-11.4-7.1-23.4-13.7-36.9-15.9-11.6-1.9-23.2-3.4-34.9-4.6-11.9-1.3-23.9-2.3-35.9-3.2-10.3-.8-20.7-1.1-31-1.7-14.4-.8-28.7-2-43.1-2.4-8.4-.3-16.9.7-25.3.9-13.2.4-26.5.5-39.7 1.1-3.8.2-7.6 1.2-11.3 2.2-1.1.3-2.7 1.9-2.6 2.9 0 7.5.5 15.1.7 22.6-.5 5.8-.3 11.9-.4 17.9-.1 12.3-.4 24.6-.7 36.9-.1 5.5-.4 11.1-.5 16.6-.1 6-.1 12 .1 18 .1 5.3.6 10.7.5 16 0 5.3-.8 10.6-.8 15.9-.1 11.4 0 22.8 0 34.2V371c6.2.5 11.7-.2 16.5 1.5 5.8 2.1 9.5.2 12.6-3.7 6.6-8.3 12.8-16.8 19-25.3 1.1-1.5 1.4-3.6 2.1-5.4-.4-.2-.8-.4-1.3-.7-8.1 10.7-16.3 21.4-24.2 31.8-2.1-1.6-3.8-2.5-4.9-3.9-1.7-2.1-4.6-5.1-4-6.7 2-6 5.1-11.6 7.8-17.2-4.1-9.9 6.9-16.8 5.6-26.4-4 7.9-7.9 15.7-11.9 23.7-8-5.6-.5-10-1.1-14.7-4.6-.9-5-4.4-4.7-8.3.1-1.2-.5-2.4-.8-3.6-.5-2-1.6-4-1.4-5.9.3-3 1.4-6 2.2-9 .1-.2.6-.3 1.3-.6.6 1.1 1.3 2.2 2.3 4 6.6-14.9 12.9-28.9 19.2-43 .7.2 1.3.4 2 .6-.2 1.3-.1 2.8-.6 4-1.5 3.7-3.4 7.2-4.8 10.9-5 12.6-9.9 25.3-14.7 38-.6 1.5-.1 3.4-.1 5.1.5 0 1 .1 1.5.1 1-2.5 1.5-5.2 2.9-7.4 7.6-11.9 11.8-25.2 16.6-38.3.4-1.2 2.1-1.9 3.3-2.8 0 1.3.3 2.7-.1 3.9-5.7 14.2-11.6 28.3-17.3 42.4-1.7 4.1-2.9 8.4-4.4 12.7 5.6-6.8 10.6-13.6 14.6-21 3.3-6.2 5.2-13.2 8.1-19.6 3.2-7.1 6.8-14 10.2-21 .8.4 1.6.7 2.4 1.1-.9 2.3-1.6 4.6-2.6 6.8-3.4 7.4-7.2 14.7-10.4 22.2-1 2.2-.8 5-1.2 8.2-6.5 2.9-5.6 10.9-8.6 16.8 13.8-11.1 16.1-29.4 27.1-42.3-1.7 11.8-10 20.7-13.8 31.6l1.5.9c1.7-2 3.4-3.9 5.6-6.5 2.2 9.1-5.4 14.1-6 21.6 2.8-3.4 5.6-6.7 8.3-10.1.5.3 1 .5 1.5.8-1.1 8.9-8.7 15-11.5 23.3 2.4-1.6 4.4-3.4 5.9-5.6 2.2-3.2 4.2-3.9 6.7-.4-1.7 2.7-3.4 5.2-5.2 8.1 4.1.9 5.2 2.4 2 5.9-3.2 3.5-5.8 7.6-8.3 11.6-.5.8.6 2.6 1 3.9.5-.1.9-.3 1.4-.4.6-4.7 13.8-22.7 18.2-24-5.5 8-10.7 15.5-15.9 23.1.2.3.3.6.5.8 1.9-.9 3.9-1.9 5.8-2.9 2-.6 4.7-.7 5.7-2.1 4.2-5.3 7.8-11.1 11.8-16.6.5-.7 1.8-.8 2.7-1.2.2 1.1.9 2.3.5 3.2-2.5 5.9-5.2 11.7-7.9 17.5 0 .3-.9.1-1.4.1zm429.4-85.1c1.8-1 2.7-1.1 2.9-1.6 1.5-3.5 2.7-7.1 4.2-10.6 4.6-10.7 4.7-21.4-.1-32-1.2-2.7-.5-3.7 2.3-3.9 3.7-.3 7.5-.2 11-1.2 9.1-2.5 18.6-4.4 26.9-8.6 10.3-5.1 19.8-11.9 29.1-18.7 4.4-3.2 9.5-6.8 10-13.2.4-4.5.2-9.1.1-13.6-.2-9.8-.8-19.5-.7-29.3.2-14.4 1.2-28.8 1.3-43.2.1-11.8 0-23.6-1-35.4-.6-6.3-2.3-13-5.4-18.5-5.7-9.9-12.5-19.3-19.4-28.5-2.4-3.2-6.4-7.2-9.8-7.5-10.8-.8-21.7.3-32.5.3-21.4 0-42.9-.4-64.3-.5-22.4-.1-44.9.1-67.3.2-25 .3-49.8.3-74.6.6-2.5 0-5.6 1.5-7.3 3.4-3.8 3.9-6.9 8.4-10.3 12.7-10 12.8-18.7 26.4-24.3 41.7-3.6 9.9-6 20.4-8.4 30.7-1.4 5.8-2.4 11.8-2.4 17.6-.1 8.9-.1 18.1 1.7 26.7 1.9 9.2 4.6 18.8 9.4 26.7 7.2 12.1 16.7 22.8 29.3 30 4.8 2.8 8.5 7.9 15 7.3 9.1-.9 18.1-2.7 27.3-1 6 1.1 12.3.9 18.1 2.5 12 3.3 22.7 9.2 31.4 18.2 1.5 1.5 3.3 3.6 5.2 3.8 7.4.8 14.8 1.3 22.2 1.5 14.7.3 29.5.6 44.2.4 6.1-.1 12.1-1.7 18.2-2 2.7-.1 5.7.9 8.1 2.2 6.8 3.4 9.5 9.5 10.7 16.9 1.3 8.5 3.3 16.5-.8 25.9zM271.6 9.9c.5 10.2 1.1 20.2 1.3 30.1.1 4 .2 8.4-1.4 11.8-.7 1.4-5.7.8-8.8 1.2-.5.1-1.1.2-1.6.3-4.2.6-8.4 1.6-12.6 1.6-10.5 0-20.9-1-31.4-.8-22.8.4-45.6 1.3-68.4 1.8-2.9.1-5.8-1.1-8.7-.9-11.2 1-22.3 1.2-33.6.8-10.6-.4-21.3.1-31.9.5-12.1.5-24.2 1.3-36.4 2-3.1.2-6.1.5-9.2.6-6.7.1-13.3-.1-20 .1-.8 0-2.3 1.9-2.3 2.9 0 5.5.4 11 .4 16.4.1 13.4.1 26.9-.1 40.3.1 13.2-.4 26.4-.6 39.5 0 3.5.6 7 .9 9.9 6.1-.9 11.4-1.9 16.8-2.6 6.8-.9 13.6-2.1 20.5-2.1 15.6 0 31.2.6 46.8.9 8.2.2 16.4.2 24.6.7 5.9.3 11.9 2.2 17.6 1.7 16.6-1.3 32.9 2 49.3 3.1 10 .7 20.1 1.3 30.1 2.3 5.2.5 10.6 1.2 15.6 2.8 8.5 2.7 17.1 5.5 24.9 9.7 9.1 4.9 17.7 10.9 25.9 17.3 5.1 3.9 8.9 9.4 13.4 14 .6.7 2.3 1.2 2.9.9 3.6-2 7.1-4.2 11.3-6.8-2.3-1.8-3.9-3.1-5.7-4.4-3.5-2.4-7.1-4.6-10.4-7.2-10.4-8.1-17.8-18.7-24.9-29.5-5.1-7.8-8.4-16.3-9.1-25.4-.8-11-.7-22-.6-33 .1-5.6.6-11.3 1.9-16.7 1.8-7.2 4.7-14.1 6.9-21.1 4.7-15.2 13.3-28.4 22-41.5 4.9-7.1 11-13.3 17-20.6-2.5-.3-3.9-.5-5.4-.5-8.7-.1-17.4-.1-27-.1zm126 311.4c2.2-.5 2.8-.4 3.1-.7 6.3-6.4 12.5-12.9 18.8-19.4 5.3-5.5 9.6-11.2 3.4-18.8-.1-.1-.3-.4-.2-.5 1.1-2.7 1.6-6.3 3.6-7.9 1.7-1.3 5.2-.5 7.9-.2 1 .1 2 1.2 4 2.5-1.3-6.2 1.2-9.3 5.1-12.3 3.7-2.8 7-3.4 10.3-.7 3.5 2.9 1.3 5.8-.8 8.5-.2.2 0 .7 0 1.5 3.3-.4 6.8-1.8 9.8-1 2.8.7 6.4 3.3 7.1 5.7.7 2.6-1.7 6-2.6 8.5 2.3 3.1 4.7 6.4 7.2 9.7-4.3 4.1-8.3 7.2-8.5 13 0 1.3-4.1 3.9-4.7 3.5-5-3.4-7.7.1-10.4 3-5.8 6.5-11.9 13-16.9 20.1-5.3 7.5-15.9 12.7-11.9 25.1 11.1-.9 22.6-2.3 34-2.7 16.6-.6 33.3-.6 50-.6 10.9-.1 21.8 0 32.6.3 10.1.3 20.1-2.3 30.4-.2 5.7 1.2 11.8.2 18.7.2V198.5c-19.7 19.6-42.8 32.6-70.7 35.9 6.6 18.1-7 47-19.3 55.4-.2-3-.8-5.4-.5-7.8 1.5-11.4 2.6-22.8-1.1-34.1-3-9-2.6-9.8-11.6-11.3-4.3-.7-7.6 1.4-11.5 1.4-12 0-23.9.8-35.9.7-11.3-.1-22.8 1.4-33.8-3.1-.3-.1-.9.6-1.7 1.2 17.3 28.4 20.1 56.4-3.9 84.5zm189.8 136c0-4.3.1-9.3 0-14.2-.2-6.8-.9-13.6-1-20.4 0-7.8.5-15.6.7-23.3.2-9 .7-18 0-27-.2-2.3 2.8-7.5-3.4-7.8-9.7-.4-19.4-1.1-29.2-1.1-12.6 0-25.2.7-37.8.8-11.1.1-22.2-.4-33.3-.3-9.8.1-19.7.6-29.5 1-5.4.2-10.8.8-16.2 1.1-5.3.2-10.8.9-16 .2-9.2-1.2-18.8 9.3-16.1 18.2 1.3 4.3 2.3 8.7 3.4 13.1 2.2 8.6 4.2 17.2 6.8 25.7.5 1.6 3.1 3.1 5 3.5 6.9 1.5 14 2.1 20.9 3.9 3 .8 3.9.4 5.7-2 3.3-4.5 6.7-9.7 11.4-12.2 4.1-2.3 10.7-3.1 14.9-1.5 9.2 3.6 17.2 16.8 14.5 30.3-1 5.3.4 6.9 5.7 6.6 1.8-.1 3.6-.8 5.4-.7 8.8.6 17.6 1.2 26.4 2 7.9.7 15.8 2 23.7 2.4 12.5.9 24.9 1.2 38 1.7zm-247.5-247c-5.8.6-10.8 1.4-15.7 1.5-11.1.2-20.1 5.4-29 11.1-10.6 6.9-14.3 18-17.4 29.1-1.9 6.9-1.6 14.4-2.5 21.6-.2 1.5-1.2 3.8-2.4 4.2-5.3 1.7-6.9 4.2-5.7 10.1 1.5 7.4 3.4 9.3 9.3 7.6 4.8-1.4 5.1 1.7 6.5 4.5 2.2 4.4 4.1 9 7.2 12.8 7.7 9.5 18.4 14.4 29.9 17.7 6 1.7 12.1 3.7 18.2 3.7 10.4-.1 20.8-1.5 31.1-2.9 16.2-2.2 27.4-11.8 33.8-26.3 4.2-9.6 7.1-19.9 4.9-30.8-1.7-8.2-2.1-17-5.6-24.4-4.3-9.3-9.6-18.1-18.9-24.5-13.8-9.2-28.7-12.8-43.7-15zM125.4 464.1v-.5c1.1 0 2.2-.1 3.3 0 5.6.3 6.9-.8 5.7-6.4-1.3-5.5-3.8-10.7-4.9-16.2-1.9-10.3-6.1-19.2-12.2-27.7-11.7-16.4-29.6-23.2-48.4-17.1-15 4.8-27.4 13.4-35.4 27.2-5.7 9.8-4.8 16.3 6.1 21.5 10 4.8 20.3 8.7 30.1 13.7 4.5 2.3 8.1 5.7 13.8 5.6 14-.3 28-.1 41.9-.1zm12.5-168.4c-.5.3-.9.5-1.4.8 1.1 1.6 2.1 3.3 3.3 4.8 1.1 1.4 2.7 2.6 3.6 4.1 5 8.9 4.3 17.6-.9 26.2-1 1.7-1 4.6-.2 6.5 1.7 4.2 4.1 8.2 6.4 12.2.9 1.5 2 3.7 3.4 4 6 1.2 11.5 4.6 18.2 2.8 5-1.4 7.3-3 6.1-7.8-1.4-5.4.8-8.7 5-11.5 8.5-5.7 17-11.3 25.5-17 9-6.1 9.5-19.5 1.2-26.4-1.4-1.2-1.8-3.6-2.8-5.8 2.7.4 5 1 5.1.8.7-1.8.9-3.8 1.5-6.7-6.9 2.2-12.4 4-18.5 6-.5-4-4.7-8.9.9-11.3 6.8-2.9 4.1-9 5.8-13.5.5-1.3-3.7-5.1-6.3-6.6-11-6.1-21.5-1.3-32 2.1-.6.2-1.1 1.1-1.3 1.7-1.7 6.5-3.3 13-4.9 19.7-4.1-1.1-9-7.2-13.8-1.4-1.8 2.2-2.4 8.2-.9 9.6 2.9 2.8 7.8 3.6 12 5.3-1 4.2-7.5 5.4-15 1.4zm221.3 64.1c-7.9-6.9-18.6-5.2-21 7.5-4.6-4-9-7.7-13.1-11.5-3.8-3.5-7.2-7.4-11.1-10.6-1.9-1.6-5-1.7-6.8-3.4-4-3.7-6.9-3.3-9.1 1.7-1.8 4-3.6 8.1-5.8 11.9-5.5 9.8-5.6 9.7 3.8 15.6 1.5 1 2.8 2.6 4.4 3.2 4.4 1.5 5.8 5.3 4.7 8.6-2.8 8.3 2.8 13.6 5.9 19.8.4.7 3.2 1.2 3.7.7 3-3.3 5.8-6.8 8.4-10.5 3.1-4.6 5.5-5.5 9.8-1.8 4.2 3.7 7.4 8.4 11.6 13.3 1.3-1.2 3.1-2.6 4.5-4.3 2.8-3.1 5.3-6.6 8.2-9.6 5.2-5.4 5.3-5.3 10.4.5.9 1 2.2 1.7 3.3 2.6 2.8 2.4 5.6 4.9 9.4 8.1 2.1-3 4.8-6.1 6.6-9.6 3.1-5.9 4.7-6.3 9.1-1.7 2.2 2.3 4.8 4.1 8.4 7.1-2.4-8.2-4.4-14.9-6.4-21.8 1.4-.7 3.5-1.1 4.7-2.4 3.3-3.4 6.4-7.1 9.5-10.8 2.4-2.9 4.7-6 2.3-10.2-2.7-4.8-5-9.8-8.2-14.2-2.2-3-5.2-6.4-8.4-7.3-4.6-1.3-14 10.2-12.5 14.9 1.8 5.7-1.6 9.2-4.2 13.5-2.8-1.7-5-3.5-7.5-4.3-1.9-.6-4.5-.5-6.5.3-3.1 1.3-5.6 3.2-8.1 4.7zM25.1 444.7c0-5.3-.2-8.8 0-12.1.8-8.9 6.4-15.5 12-21.6 6.1-6.6 12.4-13.5 21.9-15.5 3.1-.7 6.3-.9 9.3-1.9 3.6-1.2 7.1-2.9 10.4-4.4-9.4-4.9-60.1-12.2-73.7-10.7-.1.5-.4 1-.4 1.5-.1 16 .4 32.1-.5 48.1-.5 9.5 6 14.5 10.6 20.7 1.7 2.3 5.2 3.4 7.8 5-2.4-4.2-5.8-7.2-8.2-11-5.8-9.4-5.6-9.5-4.1-11.4 4.9 4.3 9.6 8.5 14.9 13.3zM436.6 287c-1.5-3.7-2.9-6.9-4.4-10.5-2.2.8-3.8 1.4-6.2 2.3 1.8 3.4 2.8 7 5 9.3 3.1 3.2 2.1 5.1-.5 7.7-8.9 8.8-17.5 17.9-26.3 26.8-2.6 2.6-3.3 4.1.4 6.8 3.4 2.5 5.7 6.4 8.3 9.9 1.7 2.4 2.9 5.1 4.6 8.1 13.1-15.2 25.5-29.7 38.3-44.6-.1-.1.9.7 1.8 1.4l3.9 3.3c-.3-1.7-.5-3.5-.8-5.2-.5-2.3-1.1-4.6-1.7-7 2 .4 3.9.9 5.9 1.2.5.1 1.1-.2 2.9-.5-1.2-1.9-1.8-3.7-3.1-4.6-1.8-1.2-4.2-1.5-6.1-2.6-1.4-.8-2.4-2.3-3.5-3.6 1.8-.9 3.5-2.2 5.4-2.7 1.2-.3 2.6.5 4 .8v-7.1c-4.7 1.2-8.9 2.1-12.9 3.3-3.9 1.1-4.8-.8-4.2-4 .2-1.2 1.4-2.3 1.6-3.5.2-1.6 0-3.4-.1-5-1.8.9-4.5 1.4-5.1 2.8-1.1 2.5-1.2 5.5-1.1 8.3-.2 4.5-1.6 7.5-6.1 8.9zM303.7 416.3c-.5.1-.9.2-1.4.3-.3 3.1-.6 6.2-1.1 9.2-.6 4.2 1.1 6.3 5.4 6.8 6.7.8 13.4 2 20 2.8 6 .7 11.5.8 16.3-4.4 9.3-10 23.1-7.4 30.1 1 3.1 3.7 5.6 4.5 9.8 3.8 10.4-1.7 20.7-3.8 30.6-11.3-7-6.9-13.5-13.4-20.1-19.9-3.5 4.4-6.9 8.7-10.3 13-2 2.6-3.9 3.4-6.8.6-4.6-4.6-9.7-8.6-15.3-13.5-2.8 4.3-6.4 9-9.1 14.1-2.8 5.2-5 6.4-9.6 2.7-3.6-3-6.6-6.9-9.6-10.6-3.5-4.2-5.4-4.3-8.4.2-2.6 3.8-5 7.7-7.5 11.5-3.3 5.2-6 5.2-9.3-.1-1.2-1.9-2.4-4.1-3.7-6.2zm-165.1-52c7.1 10.2 11.5 19.9 7.7 31.9-1.8 5.7 4.9 17.2 9.5 18.5 10.6 2.9 21.4 3 32.1 1 2.2-.4 5.3-2.8 5.8-4.8.9-3.4 1-7.5 0-11-3-10.6-6.7-21.1-10.2-31.7-.4.1-1 .4-1.5.3-7.2-1.6-14.4 4.2-21.5-.2-.7-.4-1.8-.2-2.7-.1-2.9.4-6.4 2.2-8.5 1.1-2-1.1-2.4-5-3.7-8.2-1.7.8-4.1 1.9-7 3.2zm96-60.2c2.1.6 3.9.9 5.3 1.7 1.5.9 3.8 2.7 3.7 3.8-.3 1.7-2 3.5-3.6 4.6-1.2.9-3.1.9-4.7 1.4-3.5 1.1-4 3-1.5 6 1.7-.7 3.1-1.8 4.7-1.9 2-.2 4.1.4 6.2.6-1 1.7-2 3.4-3.1 5-1.2 1.7-2.6 3.3-4 4.9l1.5 1.5c1.6-.6 3.1-1.5 4.8-1.9 1.6-.4 3.3-.3 4.8-.4.6 4.4-7 5.4-2.4 9.5 4.8 4.2 5.6-2.6 7.6-3.5 10.7 7.9 21 15.6 31.2 23.1 3.9-6.9 7.1-13.1 10.7-19.1 1.5-2.5 2-4.1-1-5.8-10.6-6.2-21.1-12.4-31.6-18.7-2.8-1.7-4.4-3.6-3-7.7 1.1-3.1 2.2-7.5-3.1-10.4.2 2.6.3 4.4.6 6.1.9 4.3-.6 5.8-4.9 4.3-3.1-1-6-2.6-9.1-3.9-2.7-1.4-5.7-3.4-9.1.8zM125.1 411c.2-.1 1-.6 1.7-1.1.7-.6 1.3-1.4 2.1-1.8 10-5.2 15.2-12.8 13.5-24.6-.9-6.2-9.7-17.3-15.3-17.8-15.6-1.4-26.1 6.8-24.9 23.3.1 1.5 1.2 3.3 2.3 4.4 6.5 5.6 13.2 11.3 20.6 17.6zm352.3 51.8c1.8-4.5 4-8.4 4.8-12.6.8-4.2 1-9-.1-13.1-1.7-6-3.4-12.5-10.1-15.3-7.5-3.2-17.3.3-19.5 12.3-1.5 8-2.9 16.1-5 24-1 3.8.2 4.8 3.5 4.8 8.7-.1 17.4-.1 26.4-.1zm-334.3-56.9c-5 4.1-9.7 8-14.6 12 1.5 4.5 2.8 9.4 4.7 14.2 1 2.6 2.5 6.4 4.4 6.9 6.5 1.4 14 3.7 19.7 1.6 5.9-2.2 9.4-.2 13.5 1.9.6-2.4 1.2-4.4 1.9-6.9 2.4 2 4.1 3.4 6.9 5.8-.9-4.4-1.6-7.4-2.2-10.4.5-.2 1.1-.5 1.6-.7 1.8 1.7 3.7 3.5 5.5 5.2.4-.2.7-.5 1.1-.7-1.6-2.8-3.3-5.6-5.8-9.8 3.9 1.8 6.5 2.9 10.3 4.7-1-1.9-1.3-3.1-1.8-3.2-5.6-1.4-11.2-2.9-16.9-3.8-5.7-.9-11.7-.4-17.1-1.9-7.1-1.9-8.3-9.3-11.2-14.9zm195.7 46.3c0 10.6 0 10.6 10.7 10.4.5 0 1.1.3 1.6.4 7.8.3 15.7.5 23.5.8 2.9.1 5.3-1.1 4.2-4.1-2.7-7.6-5.5-15.2-9.3-22.2-1.5-2.7-5.7-5-8.9-5.4-12.5-1.8-21.8 7.2-21.8 20.1zm-120.6-45.6c.2-.2.9-.5 1-.9 1.8-12.6.4-24.7-7.6-35-4.8-6.2-11.6-7.5-19-4.9-3.4 1.2-5.1 3.3-3.8 7 2.1 5.6 4.1 11.3 6.3 16.8.5 1.2 1.3 2.6 2.3 3.3 6.7 4.5 13.5 8.9 20.8 13.7zm33.9 56.3c4.5-.3 8.5-.8 12.4-.8 3.9 0 7.9.9 11.8.6 1.2-.1 3.3-2.5 3.2-3.8-.4-5.8-.9-11.7-2.3-17.3-1.2-4.6-5.3-7.2-10-7.1-2.7 0-6.8 1.1-8 3.1-4.5 7.4-7.9 15.4-7.1 25.3zm-63-42.8c1.1 1.3 1.5 1.9 2 2.4 5.1 5.5 5.1 7.1.6 12.9-1.2 1.6-1.7 3.6-2.2 4.6 6.3-1.5 12.5-2.8 18.5-4.6 2.7-.8 6.7-2.2 7.4-4.2 1.4-4.1 1-8.8 1.2-13.3.1-1 .1-2.6-.5-3.1-5.2-3.8-10.5-7.5-16.4-11.6-1.7 7 0 15.9-10.6 16.9zm76.5-108.3c14.8 8.6 30.1 17.7 45.7 26.4 2 1.1 5.1.2 8.5.2-.9-1.3-1-1.5-1.1-1.6-17.8-5.6-32.3-15.1-39.8-33.1-.5-1.1-2.5-1.9-3.9-2.2-2.7-.7-5.5-1-8-1.5-.5 3.5-.9 7.1-1.4 11.8zm110.1 23.5c-16.2 5.4-32.1 5.5-48.4 4.5 2.8 2 5.7 3.5 8.8 4.6 5.4 2 11.2 3.3 16.3 5.9 5.9 3.1 9.1 3.3 14.1-1.2 1.6-1.5 3.3-3 5.2-4 3.8-2 4.9-4.9 4-9.8zm108.7 127.6H573c-1.5-.7-2.2-1.3-3-1.4-6.6-.4-13.1-.5-19.7-1-11.7-.8-23.3-1.8-35-2.7-8-.6-16.1-.8-24.1-1.5-4.3-.3-7.1.8-6.8 6.6zM93.7 292c-1.9-7.9-4.7-15.6-5.4-23.4-.8-9.4-1-19.3 5.6-27.4 2.4-2.9 5.5-5.4 8.4-7.9 5.5-4.5 11-8.8 16.7-13 1.4-1 3.4-1.4 5.2-1.5 4.3-.2 8.7-.1 13-.1-20.9-7-46.6 12.8-52.5 34.4-3.4 13 2.9 38 9 38.9zM567.6 10.5c6.3 9.6 12.4 19.1 18.6 28.5.5.8 1.8 1.1 2.4 1.4 0-8.9-.1-17.1 0-25.3.1-3.3-1.1-4.7-4.5-4.6-5.6.1-11.2 0-16.5 0zM227.3 446.8c-10.9-3-19.4.6-27.7 5.8 1.3 2.8 2.2 4.9 3.3 7.1 1.9 3.6 13.1 5.3 15.4 2 3.2-4.6 5.8-9.6 9-14.9zm205 15.6c2.9-6.2 5.5-11.6 7.8-17.1.5-1.2-.2-4.2-1.1-4.5-5.1-2.1-15.1 3.6-16.6 9.2-3.1 11.5-1 13.9 9.9 12.4zm-233.4-.4c-8.8-10.5-14.9-11.7-25.2-6.8-3.6 1.7-1.6 4.5-3 6.4 1.7.7 3.4 1.9 5.1 2 5.6.1 11.2-.2 16.8-.5 2-.1 3.8-.7 6.3-1.1zm16.6-23c10.2 2 19.9 3.8 29.5 6 3.3.8 8.5-2.8 8-6.3-.2-1-1.5-2.4-2.4-2.5-3.2-.3-6.5-.3-9.7-.2-6.3.3-12.7.5-19 1.1-2.3.2-4.3 1.2-6.4 1.9zm28.3 13.2c-10.9-5.9-15.1-3.8-21.4 10.7 9.3.9 17.6-.1 21.4-10.7zM53.4 313.6c-3.7-.2-7.3-.4-5.9 4.2.2.8-.6 2-1.1 3-5.4 9.1-10.9 18.2-16.1 27.4-1.7 3-2.6 6.5-3.9 9.8.6.2 1.2.4 1.8.7 8.3-15 16.7-30.1 25.2-45.1zm100 149c8.1 2.2 10.7.3 16.9-12.3-10.5 2-20.6 4-28.9 10.5.2.7.5 1.4.7 2.1 6.6-2.3 13.3-4.7 19.9-7 .3.7.7 1.3 1 2-2.9 1.4-5.9 2.9-9.6 4.7zm129.3-25.9c1.1 8.2 2.1 16.3 3.3 25.6.9.1 3.2.4 6.8.9-8.8-9.7-1.1-17.6 0-25.7-3.7-.3-7-.6-10.1-.8zm-189.6-133c-13.9-3.6-20.2 2.1-17 14.1 5.4-4.5 10.9-9.1 17-14.1zm229.5 40.7c-.2.3-.5.6-.7 1 4.7 3.9 9.4 7.9 14.8 12.4 1.1-.8 3.5-2.6 6.3-4.6-7.3-3.1-13.8-6-20.4-8.8zM33.3 374.6C39.6 373.4 54 354 54.7 347c-7 9.1-13.8 17.9-21.4 27.6zm44.5-10.2c-.5-.4-1-.7-1.4-1.1-3.9 5-7.9 10.1-11.8 15.1 2.5.6 5.2.7 5.9-.5 2.7-4.2 4.9-8.9 7.3-13.5zm161.1 67.1 1.8 1.2c4.2-6.4 8.4-12.7 12.6-19.1-.4-.3-.9-.6-1.3-.9-3.1 7.1-11.6 10.6-13.1 18.8zm153.9-104.8c-.4-.3-.7-.6-1.1-.9-10.8 8.1-10.8 8.1-9.8 11 3.8-3.4 7.3-6.7 10.9-10.1zM162.6 446.3c-.2-.6-.4-1.1-.6-1.7-6 2-12 4.1-18 6.1.2.6.4 1.3.6 1.9 6.1-2.1 12.1-4.2 18-6.3zM49.2 377.8c.6-3.3 1-6.1 1.5-8.9-.3-.2-.7-.4-1-.7-2.1 1.8-4.2 3.5-6.6 5.6 2.4 1.6 4 2.6 6.1 4zM194 446.2c5.6-1.6 10.5-3 15.5-4.4-.1-.4-.3-.9-.4-1.3-4.7 2.3-11.3-1.4-15.1 5.7zm67.8-28.3c-.5-.4-1-.8-1.5-1.1-3.2 4.6-6.4 9.1-9.7 13.7.5.3.9.6 1.4.9 3.2-4.5 6.5-9 9.8-13.5zM13.3 464.1c-3-3.2-4.9-5.2-7.4-7.9-.8 2.4-1.3 4-1.9 6.1 3 .5 5.4 1 9.3 1.8zm31.8-121.3c-5.3 1.1-8.2 4.8-8 10.2 2.8-3.6 5.3-6.8 8-10.2z"/>
  <path d="M595.3 2.7c-2.1-.4-4.2-1.1-6.3-1.1H317.6c-53.4 0-106.8 0-160.3.2-18.8.1-37.6.7-56.3 1.1-1.3 0-2.5.9-3.9 1.5-.4-.2-1.6-1.8-2.8-1.7-3.8.3-7.4 1.6-11.1 1.8-3.9.2-7.8-.5-12.9-.8-.8.6-1.5 4.4-5.6.4-2.1-2.2-7.7-.9-11.7-.9-7.1.1-14.8 2-21.3.1-6.8-2-12.6.4-18.9.3C8.6 3.5 4.3 3 0 2.7.2 2 .3.6.6.6 1.8.4 3.2.5 4.5.5c195.4 0 390.9 0 586.3.1 1.4 0 4.8-2.3 4.5 2.1zM0 470.4c20.8-1 41.8 2 62.5-1.9.4-.1.7-.2 1.1-.3.7 0 1.4 0 2.2.1 5.6 1.1 11.2 2.2 16.8 3.2H4.5c-1.6 0-3-.7-4.5-1.1zM61.5 359.9c-1.9.9-3.9 1.9-5.8 2.8-.2-.3-.3-.6-.5-.8 5.2-7.6 10.4-15.1 15.9-23.1-4.4 1.4-17.7 19.4-18.2 24-.5.1-.9.3-1.4.4-.4-1.3-1.5-3.2-1-3.9 2.5-4.1 5.1-8.1 8.3-11.6 3.2-3.5 2.1-4.9-2-5.9 1.9-2.9 3.5-5.4 5.2-8.1-2.5-3.5-4.5-2.8-6.7.4-1.5 2.2-3.5 4-5.9 5.6 2.7-8.3 10.4-14.4 11.5-23.3-.5-.3-1-.5-1.5-.8-2.8 3.4-5.6 6.7-8.3 10.1.6-7.5 8.2-12.5 6-21.6-2.2 2.6-3.9 4.6-5.6 6.5l-1.5-.9c3.8-10.8 12.1-19.8 13.8-31.6-10.9 13-13.3 31.2-27.1 42.3 3-5.9 2.1-13.9 8.6-16.8.4-3.2.3-6 1.2-8.2 3.3-7.5 7-14.8 10.4-22.2 1-2.2 1.7-4.5 2.6-6.8-.8-.4-1.6-.7-2.4-1.1-3.4 7-7 13.9-10.2 21-2.9 6.5-4.8 13.4-8.1 19.6-4 7.4-9 14.3-14.6 21 1.5-4.2 2.7-8.5 4.4-12.7 5.7-14.2 11.6-28.3 17.3-42.4.5-1.1.1-2.6.1-3.9-1.1.9-2.8 1.6-3.3 2.8-4.8 13.1-8.9 26.4-16.6 38.3-1.4 2.2-2 4.9-2.9 7.4-.5 0-1-.1-1.5-.1 0-1.7-.5-3.6.1-5.1 4.8-12.7 9.7-25.4 14.7-38 1.5-3.7 3.3-7.2 4.8-10.9.5-1.2.4-2.7.6-4-.7-.2-1.3-.4-2-.6-6.3 14.1-12.6 28.1-19.2 43-1-1.8-1.7-2.9-2.3-4-.7.3-1.3.4-1.3.6-.8 3-1.9 5.9-2.2 9-.2 1.9.9 4 1.4 5.9.3 1.2.9 2.4.8 3.6-.2 3.9.1 7.4 4.7 8.3.7 4.7-6.9 9.1 1.1 14.7 4-8 7.9-15.8 11.9-23.7 1.2 9.5-9.7 16.4-5.6 26.4-2.6 5.6-5.8 11.2-7.8 17.2-.5 1.6 2.4 4.6 4 6.7 1.1 1.4 2.8 2.3 4.9 3.9 7.9-10.4 16.1-21.1 24.2-31.8.4.2.8.4 1.3.7-.7 1.8-1 3.9-2.1 5.4-6.2 8.5-12.4 17.1-19 25.3-3.1 3.9-6.8 5.8-12.6 3.7-4.7-1.7-10.3-1-16.5-1.5v-15.4c0-11.4-.1-22.8 0-34.2.1-5.3.8-10.6.8-15.9.1-5.3-.4-10.7-.5-16-.1-6-.1-12-.1-18 .1-5.5.4-11.1.5-16.6.3-12.3.6-24.7.7-37 .1-6.1-.1-12.2-.3-18.2-.2-7.5-.6-15.1-.7-22.6 0-1 1.5-2.6 2.6-2.9 3.7-1 7.5-2.1 11.3-2.2 13.2-.6 26.5-.7 39.7-1.1 8.5-.3 16.9-1.2 25.3-.9 14.4.4 28.7 1.6 43.1 2.4 10.3.6 20.7.9 31 1.7 12 .9 24 1.9 35.9 3.2 11.7 1.3 23.3 2.7 34.9 4.6 13.6 2.2 25.5 8.8 36.9 15.9 7.3 4.5 13.5 10.9 20 16.6 3.2 2.8 3.2 5.2-.1 8.6-10.8 11.3-16.5 25-17 40.6-.2 4.8 0 8.8-4.9 12.7-3.3 2.7-3.2 9.6-4.9 15.1-1.2.4-4.8.4-6.3 2.2-1.5 1.8-1 5.4-1.5 9.1-2.9-1.6-6.3-3-9.1-5.2-3.8-3-6.9-2.8-10.1.6-2 2.1-4.2 4.1-7.5 7.1 2.6 1.7 5.1 3.3 8 5.2.1 0-.9 1.6-1.8 1.5-4.3-.4-5.2 3-5.3 5.6-.1 2.3 1.9 4.7 3 7 .7 1.5 1.3 3 2.2 4.4 1.6 2.5 3.4 4.9 5.1 7.2 1.1 1.4 2.1 2.9 3.4 4 2 1.6 4.6 4.4 6.4 4.1 7.8-1.3 13.1 2 18.6 6.8 4.8 4.2 10.3 7.5 15.5 11.3-2.1 4.7-.9 8 3.9 10.2 1.7.8 3.5 1.3 5 2.3 6 3.5 11.5 6.2 9.5 15.8-2.6 12.5-2.6 25.5-3.9 38.3-.1 1.3-1.1 2.6-1.2 3.1-5.1 0-9.5.1-13.9-.1-1.3 0-2.9-.4-4-1.1-5.1-3.5-10.3-4-15.6-.5-.3.2-1-.2-1.6-.3 3.6-6.9 8.4-10.4 12.7-8.4.6-2.5 1.1-4.8 1.6-7.1-.4-.4-.8-.7-1.3-1.1-2.1 1.2-4.1 2.3-6.2 3.5l-.6-.6c4.2-5.9 8.4-11.9 12.6-17.8-.4-.6-.9-1.2-1.3-1.7-1.6.9-3.5 1.5-4.6 2.7-5.8 6.4-11.4 13-17.1 19.6l-1.5-1.2c3.8-5.1 7.7-10.2 11.4-15.4 3.7-5.2 7.3-10.6 10.9-15.9-.6-.6-1.2-1.1-1.9-1.7-3.2 3.1-6.5 6.3-9.8 9.4l-1.5-3.6c-1.7 1-3.5 1.7-4.9 3-1.9 1.8-3.3 3.9-5 5.9-.4-.4-.8-.7-1.2-1.1 2.9-3.9 5.7-7.7 8.6-11.6-.5-.4-.9-.8-1.4-1.2-5.6 5.9-11.2 11.9-16.8 17.8-.5-.3-1-.7-1.5-1 7.3-12.1 14.7-24.2 22-36.3-.6-.4-1.2-.8-1.8-1.3-6.2 7.4-12.3 14.7-18.5 22.1-.5-.3-.9-.6-1.4-.9 4.7-11.1 12.2-21 15.3-32.7-.5-.3-.9-.6-1.4-.8-4.5 5.9-9 11.7-13.5 17.6-.4-.2-.7-.5-1.1-.7 2.8-6.3 5.5-12.6 8.3-18.9-.8-.3-1.6-.6-2.4-1-6.2 10.2-10.6 21.3-13.5 33.5 1.8 0 2.7.2 3.5-.1.7-.2 1.4-.9 2.1-1.4 2.6 3.8-10.2 11.3 3.8 12-1.9 3.4-3.9 6.4-5.3 9.6-1.5 3.4-2.1 7.2-3.7 10.6-1.6 3.4-3.9 6.4-6 9.5-.8 1.2-1.9 2.2-3.1 3.4 2.4 3.6 4.9 2.3 6.7.2 4.1-4.6 7.7-9.5 11.7-14.1 1.6-1.8 3.4-3.4 5.1-5.2.4.3.8.7 1.1 1-.6 1-1.1 2-1.8 2.8-4.6 5.6-9.2 11.2-13.9 16.7-1.4 1.6-3.1 3.3-5 4-3.9 1.4-6.5.7-6.2-4.6.3-4.7-.6-9.5-.9-14.2-.1-1.1 0-2.4.5-3.2 6.1-9.2 4.3-19.1 1.5-28.5-1.9-6.7-4.9-13.2-10.8-18-5.3-4.3-10.4-6.5-16.9-3.2-.6.3-1.4.4-2.1.4-.5 0-1-.2-1.8-.4 1-1.3 1.9-2.4 3.7-4.7-3.5-2.4-7-4.7-11.7-7.9-1-3.6 1.2-6.6 6.2-9.4 10.2-5.7 20.8-11.2 27.6-21.4 5.3-8 5.1-13.2-.6-21.3-1.5-2.1-3.3-4.1-.8-7.7 3.1-4.5-1-9.1-6.6-8.4-5.3.6-7-1-6.1-6.2.3-1.8.3-4 1.4-5.2 1.1-1.2 3.6-2.4 5-1.9 8.6 2.9 17.6-3.2 18.2-12.4.8-14.1-5.4-19.8-16.5-25.6-2.5-1.3-6.9-.8-9.7.4-3.9 1.7-6.9 2.4-11.1.7-15.9-6.2-31.7-12.9-48.1-17.5-14.9-4.2-28.9-.8-40.8 10.4-6.7 6.4-13.4 12.4-18.3 20.6-6.6 11.1-6.4 22.3-3 33.7 2.1 7 5.6 13.5 8.5 20.6-6.5.1-12.4 2.8-16.6 8.2-1.2 1.6-2 4.3-1.7 6.3 1.1 6.6 3.3 13.1 3.8 19.7.3 3.9-1.2 8.3-3 12-1.7 6-5.3 11.1-8.6 16.4z" fill="#fff"/>
  <path d="M271.6 9.9h27c1.4 0 2.9.3 5.4.5-6 7.3-12 13.5-16.8 20.6-8.7 13.1-17.3 26.2-22 41.5-2.2 7.1-5.1 14-6.9 21.1-1.3 5.4-1.8 11.1-1.9 16.7-.1 11-.2 22.1.6 33 .7 9.1 4 17.7 9.1 25.4 7.1 10.9 14.5 21.5 24.9 29.5 3.3 2.6 7 4.8 10.4 7.2 1.8 1.2 3.4 2.6 5.7 4.4-4.2 2.6-7.7 4.8-11.3 6.8-.7.4-2.3-.2-2.9-.9-4.5-4.6-8.4-10.1-13.4-14-8.2-6.3-16.8-12.4-25.9-17.3-7.8-4.2-16.4-6.9-24.9-9.7-5-1.6-10.3-2.3-15.6-2.8-10-1-20-1.6-30.1-2.3-16.4-1.1-32.7-4.4-49.3-3.1-5.8.5-11.7-1.4-17.6-1.7-8.2-.5-16.4-.5-24.6-.7-15.6-.4-31.2-1-46.8-.9-6.8 0-13.7 1.3-20.5 2.1-5.3.7-10.6 1.6-16.8 2.6-.3-2.9-1-6.4-.9-9.9 0-13 .5-26.2.6-39.3.2-13.4.2-26.9.1-40.3 0-5.5-.5-11-.4-16.4 0-1 1.5-2.9 2.3-2.9 6.7-.2 13.3 0 20-.1 3.1 0 6.1-.4 9.2-.6 12.1-.7 24.2-1.6 36.4-2 10.6-.4 21.3-.9 31.9-.5 11.2.4 22.4.2 33.6-.8 2.8-.2 5.8.9 8.7.9 22.8-.6 45.6-1.4 68.4-1.8 10.4-.2 20.9.8 31.4.8 4.2 0 8.4-1 12.6-1.6.5-.1 1.1-.3 1.6-.3 3.1-.3 8.1.3 8.8-1.2 1.6-3.4 1.5-7.8 1.4-11.8-.4-10-1-19.9-1.5-30.2zM397.6 321.3c24-28.1 21.2-56.1 3.9-84.4.8-.6 1.4-1.3 1.7-1.2 10.9 4.5 22.5 3 33.8 3.1 12 .1 23.9-.7 35.9-.7 3.9 0 7.2-2.1 11.5-1.4 9 1.4 8.7 2.2 11.6 11.3 3.7 11.3 2.6 22.7 1.1 34.1-.3 2.3.3 4.7.5 7.8 12.3-8.4 25.9-37.4 19.3-55.4 27.9-3.3 50.9-16.3 70.7-35.9V358c-6.9 0-13 1-18.7-.2-10.3-2.1-20.3.4-30.4.2-10.9-.3-21.8-.3-32.6-.3-16.7.1-33.3 0-50 .6-11.5.4-22.9 1.8-34 2.7-4.1-12.3 6.6-17.5 11.9-25.1 5-7.1 11.1-13.6 16.9-20.1 2.6-3 5.4-6.5 10.4-3 .6.4 4.7-2.2 4.7-3.5.2-5.8 4.2-8.9 8.5-13-2.5-3.3-4.9-6.6-7.2-9.7.9-2.5 3.3-5.9 2.6-8.5-.6-2.4-4.3-5-7.1-5.7-3-.8-6.5.6-9.8 1 0-.8-.2-1.3 0-1.5 2.2-2.7 4.3-5.7.8-8.5-3.3-2.7-6.7-2.2-10.3.7-3.9 3-6.5 6.2-5.1 12.3-2-1.3-3-2.4-4-2.5-2.7-.3-6.2-1.1-7.9.2-2 1.6-2.5 5.1-3.6 7.9 0 .1.1.3.2.5 6.2 7.6 1.8 13.3-3.4 18.8-6.2 6.5-12.5 13-18.8 19.4-.3.2-.9.1-3.1.6zM587.4 457.3c-13.1-.5-25.5-.8-37.9-1.5-7.9-.5-15.8-1.7-23.7-2.4-8.8-.8-17.6-1.5-26.4-2-1.8-.1-3.6.6-5.4.7-5.3.3-6.8-1.3-5.7-6.6 2.7-13.5-5.3-26.7-14.5-30.3-4.2-1.7-10.8-.8-14.9 1.5-4.7 2.5-8 7.7-11.4 12.2-1.8 2.4-2.7 2.8-5.7 2-6.8-1.7-14-2.4-20.9-3.9-1.9-.4-4.5-1.9-5-3.5-2.6-8.5-4.6-17.1-6.8-25.7-1.1-4.4-2.1-8.8-3.4-13.1-2.7-8.9 6.9-19.5 16.1-18.2 5.2.7 10.7 0 16-.2 5.4-.3 10.8-.8 16.2-1.1 9.8-.4 19.7-.9 29.5-1 11.1-.1 22.2.4 33.3.3 12.6-.1 25.2-.8 37.8-.8 9.7 0 19.4.7 29.2 1.1 6.2.2 3.3 5.5 3.4 7.8.6 8.9.2 18 0 27-.2 7.8-.7 15.6-.7 23.3 0 6.8.7 13.6 1 20.4 0 4.7-.1 9.7-.1 14z" fill="#fff"/>
  <path d="M339.9 210.3c15 2.2 29.9 5.8 43.5 15.1 9.3 6.4 14.6 15.2 18.9 24.5 3.4 7.4 3.9 16.2 5.6 24.4 2.2 10.8-.7 21.2-4.9 30.8-6.3 14.5-17.5 24.1-33.8 26.3-10.3 1.4-20.7 2.7-31.1 2.9-6.1.1-12.2-2-18.2-3.7-11.4-3.3-22.2-8.1-29.9-17.7-3-3.8-5-8.4-7.2-12.8-1.4-2.8-1.6-5.9-6.5-4.5-5.9 1.7-7.7-.2-9.3-7.6-1.2-5.9.4-8.4 5.7-10.1 1.1-.4 2.2-2.7 2.4-4.2.9-7.2.5-14.7 2.5-21.6 3.1-11.1 6.8-22.3 17.4-29.1 8.9-5.7 17.9-10.9 29-11.1 5.1-.2 10.1-1.1 15.9-1.6zm19.9 100.9c6.3-2.2 13.7-4.2 20.5-7.4 2.3-1.1 4.5-5.3 4.5-8-.1-2.4-2.9-5.9-5.3-6.7-4.5-1.6-9.6-2.7-14.3-2.2-9.3 1.1-19.1 1.8-26.4 8.8-2.1 2-4.3 5.4-4.1 8 .2 2.2 3.6 5.4 6 5.9 5.7 1.3 11.8 1.1 19.1 1.6zm17.1-66.3c5.2-6.3 5.8-10.3 1.6-13.7-5.9-4.8-9.5-5.2-12.6-1.1 1.5.7 3 1.2 4.3 2.1 1.9 1.2 4.9 2.5 5 4 .2 2.1-1.3 5.5-3.1 6.4-4.8 2.2-10.1 3.4-15.1 5 0-.4-.1-.8-.1-1.2 1.9-2.1 3.8-4.3 5.9-6.6-6.5-3.8-14.5-2-18.4 3.5-3.1 4.2-8.4 5.5-13.9 2.7 3.9-1.4 7.4-2.5 10.6-3.9.9-.4 1.2-1.8 1.8-2.8-.7-.4-1.7-1.4-2.2-1.2-4 1.2-8 2.4-11.7 4.2-4.7 2.3-4.6 4.6-.1 7.1 2 1.1 4.2 1.9 2.3 4.9-.4.6.4 1.9.5 2.2 4-.7 7.6-1.4 11.2-2-.5-5.2 1.9-7.6 7.6-5.2 6.9 3 13.1 1.9 17.8.2 3.1 1.1 4.6 1.8 6.3 2.3 1.9.6 3.9 1.1 5.8 1.7.5-.4 1-.7 1.4-1.1-1.5-2.5-3-4.7-4.9-7.5zm-16.5 29.8c-.7.3-1.3.6-2 .9 1.7.9 3.5 2.6 5 2.4 4.7-.6 7.3-3.9 7.8-8.6.6-6.2-1.7-9-8.7-11.1-3.1-1-5.6-.9-6.7 2 2 4.9 10.7-.2 9.6 7.4-.4 2.5-3.3 4.6-5 7zm-19.7-16.3c-2.6 2.9-5.6 4.7-5.8 6.9-.1 1.7 3.1 3.7 4.9 5.6 1.9-2 4.5-3.8 5.3-6.2.5-1.1-2.3-3.5-4.4-6.3zM379 270c2.4-3.4 4.8-6.7.7-9.9-1.9-1.5-4.5-1.6-6 1.2-1.4 2.8 1 7.1 5.3 8.7zM125.4 464.1c-13.9 0-27.9-.2-41.8.1-5.7.1-9.3-3.3-13.8-5.6-9.8-5-20.2-9-30.1-13.7-10.9-5.2-11.9-11.7-6.1-21.5 8.1-13.8 20.4-22.3 35.4-27.2 18.8-6.1 36.7.7 48.4 17.1 6.1 8.5 10.3 17.4 12.2 27.7 1 5.5 3.6 10.7 4.9 16.2 1.3 5.6-.1 6.8-5.7 6.4-1.1-.1-2.2 0-3.3 0-.1.1-.1.3-.1.5zM137.9 295.7c7.5 4.1 14 2.9 15.1-1.4-4.3-1.7-9.1-2.5-12-5.3-1.5-1.5-.9-7.5.9-9.6 4.8-5.8 9.7.4 13.8 1.4 1.7-6.7 3.3-13.2 4.9-19.7.2-.6.7-1.5 1.3-1.7 10.5-3.3 21-8.2 32-2.1 2.7 1.5 6.8 5.3 6.3 6.6-1.7 4.4 1.1 10.5-5.8 13.5-5.6 2.4-1.4 7.3-.9 11.3 6-1.9 11.5-3.7 18.5-6-.6 3-.9 4.9-1.5 6.7-.1.2-2.4-.3-5.1-.8 1 2.2 1.4 4.6 2.8 5.8 8.3 6.8 7.8 20.3-1.2 26.4-8.5 5.7-17 11.4-25.5 17-4.1 2.8-6.3 6.1-5 11.5 1.2 4.8-1.1 6.4-6.1 7.8-6.7 1.9-12.2-1.6-18.2-2.8-1.3-.3-2.5-2.4-3.4-4-2.3-4-4.7-7.9-6.4-12.2-.8-1.9-.8-4.8.2-6.5 5.2-8.7 5.9-17.4.9-26.2-.9-1.6-2.5-2.7-3.6-4.1-1.2-1.5-2.2-3.2-3.3-4.8.4-.3.9-.6 1.3-.8zM359.2 359.8c2.5-1.5 5-3.4 7.8-4.5 1.9-.7 4.5-.9 6.5-.3 2.5.8 4.8 2.7 7.5 4.3 2.6-4.4 6-7.8 4.2-13.5-1.5-4.8 7.8-16.2 12.5-14.9 3.3.9 6.3 4.3 8.4 7.3 3.2 4.4 5.5 9.5 8.2 14.2 2.3 4.1.1 7.2-2.3 10.2-3 3.7-6.1 7.4-9.5 10.8-1.2 1.3-3.3 1.7-4.7 2.4 2 6.9 4 13.6 6.4 21.8-3.6-3-6.2-4.8-8.4-7.1-4.4-4.6-6-4.2-9.1 1.7-1.8 3.5-4.5 6.6-6.6 9.6-3.8-3.2-6.6-5.7-9.4-8.1-1.1-.9-2.4-1.6-3.3-2.6-5.1-5.8-5.1-5.9-10.4-.5-2.9 3-5.4 6.5-8.2 9.6-1.5 1.6-3.2 3-4.5 4.3-4.2-4.9-7.4-9.6-11.6-13.3-4.3-3.8-6.6-2.8-9.8 1.8-2.5 3.7-5.4 7.2-8.4 10.5-.5.5-3.3 0-3.7-.7-3.1-6.2-8.7-11.5-5.9-19.8 1.1-3.3-.3-7.1-4.7-8.6-1.6-.6-2.8-2.2-4.4-3.2-9.4-5.9-9.3-5.8-3.8-15.6 2.2-3.8 4-7.9 5.8-11.9 2.2-5 5.2-5.4 9.1-1.7 1.8 1.7 4.9 1.8 6.8 3.4 3.9 3.3 7.3 7.2 11.1 10.6 4.2 3.9 8.5 7.5 13.1 11.5 2.6-12.9 13.4-14.7 21.3-7.7z" fill="#fff"/>
  <path d="M25.1 444.7c-5.4-4.9-10-9.1-14.7-13.3-1.5 1.9-1.7 2 4.1 11.4 2.3 3.8 5.8 6.8 8.2 11-2.7-1.6-6.1-2.7-7.8-5-4.7-6.2-11.2-11.2-10.6-20.7.9-16 .4-32.1.5-48.1 0-.5.3-1 .4-1.5 13.6-1.5 64.3 5.8 73.7 10.7-3.4 1.4-6.8 3.2-10.4 4.4-3 1-6.2 1.3-9.3 1.9-9.5 2-15.8 8.9-21.9 15.5-5.6 6.1-11.3 12.7-12 21.6-.4 3.4-.2 6.8-.2 12.1zM436.6 287c4.5-1.5 5.9-4.4 5.8-8.8-.1-2.8 0-5.8 1.1-8.3.6-1.4 3.3-1.9 5.1-2.8.1 1.7.3 3.4.1 5-.2 1.2-1.4 2.3-1.6 3.5-.5 3.2.4 5.1 4.2 4 4.1-1.2 8.2-2.1 12.9-3.3v7.1c-1.4-.3-2.9-1.1-4-.8-1.9.5-3.6 1.8-5.4 2.7 1.2 1.2 2.1 2.7 3.5 3.6 1.9 1.1 4.3 1.4 6.1 2.6 1.3.9 1.9 2.8 3.1 4.6-1.8.4-2.4.6-2.9.5-2-.3-3.9-.8-5.9-1.2.6 2.3 1.2 4.6 1.7 7 .4 1.7.6 3.5.8 5.2l-3.9-3.3c-.9-.8-1.9-1.5-1.8-1.4-12.8 14.9-25.2 29.4-38.3 44.6-1.7-3-2.9-5.7-4.6-8.1-2.5-3.5-4.9-7.4-8.3-9.9-3.7-2.7-3-4.3-.4-6.8 8.8-8.9 17.5-18 26.3-26.8 2.7-2.7 3.6-4.5.5-7.7-2.2-2.4-3.3-5.9-5-9.3 2.4-.9 4-1.5 6.2-2.3 1.8 3.5 3.2 6.8 4.7 10.4zm12.5 10.1c-1-4.3-3.1-5.9-6.2-4.2-1.6.9-2.3 3.4-3.3 5.2l1.5 1.2c2.5-.7 5-1.4 8-2.2zM61.5 359.9c5.6-2.3 6-8.6 9.6-12.6 2.9-3.2 4.8-7.4 7.3-11.3 9 8.4 19.6 5.4 29.9 4.8 3.6-.2 7.6.3 11 1.6 4.8 1.8 8.9 3.7 13.8-.4 3.5-3 8.2 1 9.5 7.8-9.5 5.2-9.5 5.2-6 12.4-24.2-7.9-35.6 3.5-40.4 25.9-6.9-2.2-14.3-4.6-21.9-7 .1-7.8 9.8-13.2 6.4-23.2-2.3 1.7-3.7 2.9-5.4 3.9-.4.2-1.4-.8-2.2-1.2v.1c.5.1 1.4.3 1.4.2 2.7-5.8 5.4-11.6 7.9-17.5.4-.8-.3-2.1-.5-3.2-.9.4-2.2.5-2.7 1.2-4 5.5-7.6 11.2-11.8 16.6-1.2 1.1-3.9 1.2-5.9 1.9zM303.7 416.3c1.2 2.1 2.5 4.2 3.7 6.3 3.4 5.4 6 5.4 9.3.1 2.5-3.9 4.9-7.7 7.5-11.5 3-4.5 4.9-4.4 8.4-.2 3 3.7 5.9 7.6 9.6 10.6 4.6 3.7 6.8 2.5 9.6-2.7 2.7-5.1 6.3-9.8 9.1-14.1 5.6 4.9 10.7 9 15.3 13.5 2.9 2.8 4.7 2 6.8-.6 3.4-4.3 6.9-8.6 10.3-13 6.6 6.5 13.1 13 20.1 19.9-9.9 7.4-20.2 9.5-30.6 11.3-4.2.7-6.7-.1-9.8-3.8-7.1-8.4-20.8-11-30.1-1-4.8 5.2-10.4 5.1-16.3 4.4-6.7-.8-13.4-2-20-2.8-4.3-.5-6-2.6-5.4-6.8.4-3.1.7-6.2 1.1-9.2.5-.1 1-.2 1.4-.4zM138.6 364.3c2.9-1.3 5.3-2.4 7.1-3.2 1.3 3.2 1.8 7.1 3.7 8.2 2 1.1 5.6-.7 8.5-1.1.9-.1 2-.3 2.7.1 7.2 4.3 14.4-1.4 21.5.2.5.1 1-.2 1.5-.3 3.5 10.6 7.2 21.1 10.2 31.7 1 3.4.9 7.5 0 11-.6 2-3.6 4.4-5.8 4.8-10.7 2-21.5 1.9-32.1-1-4.5-1.2-11.2-12.8-9.5-18.5 3.7-12-.7-21.7-7.8-31.9zm27.2 32.3c2-.7 3.6-1.8 5.3-1.9 3.7-.2 7.5-.2 11.2.1 3.5.3 4.3-1.6 3.6-4.2-.5-1.8-1.8-3.4-3-5.4-5.6 6-11.6 4.4-18 2.1-3.2 3.6-3 6.7.9 9.3zm15.1-23.3h-1.8c-4.6 11.3-11.6 4-19.1 2.2.2 3.2.1 5.8.7 8.2.3.9 2.4 2 3.6 1.8 4.6-.7 9.2-1.8 13.7-2.9 1.9-.4 3.7-1.2 5.6-1.8l-2.7-7.5zM234.6 304.1c3.3-4.2 6.4-2.2 9.3-1 3 1.3 6 2.9 9.1 3.9 4.3 1.4 5.8 0 4.9-4.3-.3-1.7-.4-3.5-.6-6.1 5.3 3 4.2 7.4 3.1 10.4-1.4 4 .1 6 3 7.7 10.5 6.3 21 12.6 31.6 18.7 2.9 1.7 2.5 3.3 1 5.8-3.6 6-6.9 12.2-10.7 19.1-10.1-7.5-20.5-15.2-31.2-23.1-2.1.9-2.8 7.8-7.6 3.5-4.6-4.1 3-5.1 2.4-9.5-1.4.1-3.1 0-4.8.4-1.7.4-3.2 1.2-4.8 1.9l-1.5-1.5c1.3-1.6 2.7-3.2 4-4.9 1.1-1.6 2.1-3.3 3.1-5-2.1-.2-4.1-.8-6.2-.6-1.5.1-3 1.2-4.7 1.9-2.5-3-2-4.9 1.5-6 1.6-.5 3.5-.5 4.7-1.4 1.6-1.2 3.4-2.9 3.6-4.6.2-1.1-2.2-2.8-3.7-3.8-1.6-.6-3.4-.9-5.5-1.5zm25.1 17-1.2-2.4c-2.3 1-4.6 1.9-6.7 3.1-.2.1.8 2.4 1.2 3.6 2.3-1.4 4.5-2.9 6.7-4.3z" fill="#fff"/>
  <path d="M125.1 411c-7.4-6.3-14.1-11.9-20.6-17.7-1.2-1-2.2-2.8-2.3-4.4-1.2-16.4 9.3-24.6 24.9-23.3 5.6.5 14.4 11.6 15.3 17.8 1.7 11.8-3.5 19.4-13.5 24.6-.8.4-1.4 1.2-2.1 1.8-.7.6-1.5 1-1.7 1.2zM477.4 462.8H451c-3.3 0-4.5-1-3.5-4.8 2.1-7.9 3.5-16 5-24 2.2-12 12-15.5 19.5-12.3 6.7 2.9 8.4 9.4 10.1 15.3 1.1 4.1.9 8.8.1 13.1-.8 4.3-3 8.2-4.8 12.7zM143.1 405.9c2.9 5.7 4.1 13 11.2 14.9 5.5 1.5 11.5 1 17.1 1.9 5.7.9 11.3 2.4 16.9 3.8.5.1.8 1.3 1.8 3.2-3.8-1.7-6.4-2.9-10.3-4.7 2.5 4.2 4.1 7 5.8 9.8-.4.2-.7.5-1.1.7-1.8-1.7-3.7-3.5-5.5-5.2-.5.2-1.1.5-1.6.7.6 3 1.3 6 2.2 10.4-2.8-2.4-4.6-3.8-6.9-5.8-.7 2.4-1.2 4.5-1.9 6.9-4.1-2.1-7.6-4.1-13.5-1.9-5.6 2.1-13.2-.2-19.7-1.6-1.9-.4-3.4-4.3-4.4-6.9-1.9-4.7-3.2-9.7-4.7-14.2 4.9-4 9.6-7.9 14.6-12zM338.8 452.2c0-12.8 9.3-21.8 21.7-20.3 3.2.4 7.5 2.7 8.9 5.4 3.8 7 6.6 14.7 9.3 22.2 1.1 3-1.3 4.2-4.2 4.1-7.8-.3-15.7-.5-23.5-.8-.5 0-1.1-.4-1.6-.4-10.6.4-10.6.4-10.6-10.2zM218.2 406.6c-7.3-4.8-14.1-9.2-20.9-13.7-1-.7-1.8-2-2.3-3.3-2.2-5.6-4.2-11.2-6.3-16.8-1.4-3.7.3-5.8 3.8-7 7.4-2.6 14.2-1.3 19 4.9 8 10.3 9.5 22.4 7.6 35 0 .4-.7.7-.9.9zM252.1 462.9c-.8-9.8 2.6-17.9 7.2-25.3 1.2-2 5.2-3.1 8-3.1 4.6 0 8.8 2.5 10 7.1 1.4 5.6 2 11.5 2.3 17.3.1 1.2-2 3.7-3.2 3.8-3.9.2-7.9-.6-11.8-.6-4 0-8 .5-12.5.8z" fill="#fff"/>
  <path d="M189.1 420.1c10.6-1 8.8-9.9 10.7-16.8 5.9 4.1 11.2 7.8 16.4 11.6.6.5.6 2 .5 3.1-.2 4.5.2 9.2-1.2 13.3-.7 2-4.6 3.4-7.4 4.2-6 1.8-12.2 3-18.5 4.6.4-1 1-3.1 2.2-4.6 4.5-5.8 4.5-7.4-.6-12.9-.5-.7-1-1.2-2.1-2.5zM265.6 311.8c.5-4.7.9-8.3 1.3-11.8 2.6.4 5.3.8 8 1.5 1.4.4 3.4 1.1 3.9 2.2 7.6 18 22 27.5 39.8 33.1.1 0 .2.3 1.1 1.6-3.4 0-6.5 1-8.5-.2-15.5-8.7-30.8-17.7-45.6-26.4zM375.7 335.3c.9 4.9-.2 7.9-4.1 9.8-1.9 1-3.6 2.5-5.2 4-5 4.5-8.2 4.3-14.1 1.2-5.1-2.7-10.9-3.9-16.3-5.9-3-1.1-6-2.6-8.8-4.6 16.3 1 32.3.9 48.5-4.5zM484.4 462.9c-.3-5.9 2.4-6.9 6.9-6.5 8 .7 16.1.9 24.1 1.5 11.7.8 23.3 1.9 35 2.7 6.6.5 13.1.6 19.7 1 .8 0 1.5.7 3 1.4-30.2-.1-59.4-.1-88.7-.1zM93.7 292c-6.1-.9-12.5-26-8.9-38.9 5.9-21.5 31.6-41.4 52.5-34.4-4.4 0-8.7-.1-13 .1-1.8.1-3.8.5-5.2 1.5-5.7 4.2-11.2 8.5-16.7 13-3 2.4-6 4.9-8.4 7.9-6.6 8.1-6.4 18-5.6 27.4.6 7.9 3.4 15.5 5.3 23.4zM567.6 10.5c5.2 0 10.9.1 16.5 0 3.4-.1 4.6 1.3 4.5 4.6-.1 8.2 0 16.5 0 25.3-.5-.3-1.8-.6-2.4-1.4-6.2-9.4-12.3-18.9-18.6-28.5zM227.3 446.8c-3.2 5.3-5.8 10.3-8.9 14.9-2.3 3.3-13.6 1.6-15.4-2-1.1-2.1-2-4.3-3.3-7.1 8.1-5.2 16.7-8.8 27.6-5.8zM432.3 462.4c-11 1.6-13-.8-9.9-12.4 1.5-5.6 11.5-11.4 16.6-9.2.9.4 1.6 3.3 1.1 4.5-2.2 5.5-4.9 10.8-7.8 17.1zM198.9 462c-2.5.5-4.3 1-6.2 1.1-5.6.3-11.2.6-16.8.5-1.7 0-3.4-1.3-5.1-2 1.4-1.9-.6-4.8 3-6.4 10.2-4.9 16.3-3.8 25.1 6.8zM215.5 439c2.1-.7 4.2-1.7 6.3-1.9 6.3-.6 12.7-.8 19-1.1 3.2-.1 6.5-.1 9.7.2.9.1 2.2 1.5 2.4 2.5.6 3.5-4.6 7-8 6.3-9.6-2.2-19.2-4-29.4-6zM243.8 452.2c-3.9 10.6-12.1 11.6-21.4 10.7 6.3-14.5 10.6-16.6 21.4-10.7zM53.4 313.6l-25.2 45c-.6-.2-1.2-.4-1.8-.7 1.3-3.3 2.2-6.8 3.9-9.8 5.2-9.2 10.7-18.3 16.1-27.4.5-.9 1.3-2.1 1.1-3-1.4-4.5 2.1-4.3 5.9-4.1zM153.4 462.6c3.7-1.8 6.7-3.3 9.7-4.8-.3-.7-.7-1.3-1-2-6.6 2.3-13.3 4.7-19.9 7-.2-.7-.5-1.4-.7-2.1 8.3-6.5 18.4-8.4 28.9-10.5-6.3 12.7-8.8 14.6-17 12.4zM282.7 436.7c3.1.2 6.4.5 10.1.8-1.1 8.1-8.8 16 0 25.7-3.6-.5-5.9-.8-6.8-.9-1.2-9.3-2.2-17.4-3.3-25.6zM93.1 303.7c-6 5-11.5 9.6-17 14.1-3.2-12 3.1-17.7 17-14.1zM73 360.4c-4.4 5.9-8.7 11.8-13.7 18.4-1.1-.3-3.7-.9-5.3-1.3 2.7-2.9 5.6-5.3 7.7-8.3 3.7-5.1 7-10.6 10.6-15.9.4-.7 1.3-1.1 2.5-2.1-.7 3.7-1.3 6.5-1.8 9.3v-.1zM322.6 344.4c6.6 2.8 13.1 5.6 20.3 8.7-2.8 2-5.1 3.8-6.3 4.6-5.4-4.5-10.1-8.4-14.8-12.4.3-.2.6-.6.8-.9zM33.3 374.6c7.5-9.7 14.4-18.6 21.3-27.6-.6 7-15 26.4-21.3 27.6zM77.8 364.4c-2.4 4.5-4.5 9.3-7.3 13.5-.8 1.2-3.4 1.1-5.9.5 3.9-5 7.9-10.1 11.8-15.1.4.4.9.8 1.4 1.1zM238.9 431.5c1.5-8.1 10-11.7 13.1-18.8.4.3.9.6 1.3.9-4.2 6.4-8.4 12.7-12.6 19.1l-1.8-1.2zM392.8 326.7c-3.6 3.3-7.2 6.7-10.9 10.1-1.1-2.9-1.1-2.9 9.8-11 .4.4.8.7 1.1.9zM162.6 446.3l-18 6.3c-.2-.6-.4-1.3-.6-1.9 6-2 12-4.1 18-6.1.3.6.5 1.1.6 1.7zM49.2 377.8c-2.1-1.3-3.8-2.4-6.1-3.9 2.4-2 4.5-3.8 6.6-5.6.3.2.7.4 1 .7-.4 2.7-.9 5.5-1.5 8.8zM194 446.2c3.8-7.1 10.4-3.4 15-5.7.1.4.3.9.4 1.3-4.9 1.5-9.8 2.8-15.4 4.4zM261.8 417.9c-3.3 4.5-6.5 9-9.8 13.5-.5-.3-.9-.6-1.4-.9 3.2-4.6 6.4-9.1 9.7-13.7.5.4 1 .7 1.5 1.1zM13.3 464.1c-3.9-.8-6.3-1.2-9.3-1.8.7-2.1 1.2-3.6 1.9-6.1 2.6 2.7 4.4 4.6 7.4 7.9zM45.1 342.8c-2.7 3.4-5.1 6.6-8 10.2-.3-5.5 2.7-9.1 8-10.2zM65.7 468.3c-.7 0-1.4 0-2.2-.1.8 0 1.5.1 2.2.1z" fill="#fff"/>
  <path d="M63.6 468.2c-.4.1-.7.2-1.1.3.3-.1.7-.2 1.1-.3z" fill="#fff"/>
  <path d="M359.8 311.2c-7.3-.5-13.4-.3-19.2-1.5-2.4-.5-5.8-3.7-6-5.9-.2-2.5 2-5.9 4.1-8 7.3-7.1 17.1-7.8 26.4-8.8 4.7-.5 9.8.6 14.3 2.2 2.4.9 5.3 4.4 5.3 6.7.1 2.7-2.1 6.9-4.5 8-6.7 3.2-14.1 5.2-20.4 7.3zM376.9 244.9c1.9 2.8 3.4 5 4.9 7.2-.5.4-1 .7-1.4 1.1-1.9-.6-3.9-1.1-5.8-1.7-1.6-.5-3.2-1.2-6.3-2.3-4.8 1.7-10.9 2.8-17.8-.2-5.7-2.5-8.1 0-7.6 5.2-3.6.7-7.2 1.3-11.2 2-.1-.3-.9-1.6-.5-2.2 1.8-3-.3-3.7-2.3-4.9-4.5-2.6-4.6-4.9.1-7.1 3.7-1.8 7.8-2.9 11.7-4.2.6-.2 1.5.8 2.2 1.2-.6 1-1 2.4-1.8 2.8-3.3 1.4-6.7 2.5-10.6 3.9 5.5 2.8 10.8 1.6 13.9-2.7 4-5.4 11.9-7.2 18.4-3.5-2.1 2.3-4 4.4-5.9 6.6 0 .4.1.8.1 1.2 5.1-1.6 10.4-2.8 15.1-5 1.7-.8 3.2-4.2 3.1-6.4-.1-1.5-3.1-2.8-5-4-1.3-.8-2.8-1.4-4.3-2.1 3.1-4.1 6.7-3.6 12.6 1.1 4.2 3.7 3.6 7.7-1.6 14zM360.4 274.7c1.7-2.3 4.6-4.5 5-7 1-7.6-7.6-2.4-9.6-7.4 1.1-2.9 3.6-3 6.7-2 7 2.2 9.3 5 8.7 11.1-.5 4.7-3.1 7.9-7.8 8.6-1.5.2-3.3-1.6-5-2.4.6-.3 1.3-.6 2-.9zM340.7 258.4c2.1 2.8 4.9 5.2 4.4 6.3-.8 2.4-3.4 4.1-5.3 6.2-1.8-1.9-5.1-3.9-4.9-5.6.2-2.2 3.2-4 5.8-6.9zM379 270c-4.3-1.6-6.8-5.9-5.3-8.7 1.5-2.8 4.1-2.7 6-1.2 4.2 3.2 1.7 6.5-.7 9.9zM449.1 297.1c-2.9.8-5.5 1.5-8 2.2l-1.5-1.2c1.1-1.8 1.8-4.3 3.3-5.2 3-1.7 5.2-.1 6.2 4.2zM165.8 396.6c-3.9-2.6-4.1-5.7-.9-9.3 6.3 2.3 12.3 3.9 18-2.1 1.2 2.1 2.5 3.6 3 5.4.7 2.7-.1 4.5-3.6 4.2-3.7-.3-7.5-.4-11.2-.1-1.7.1-3.3 1.2-5.3 1.9zM180.9 373.3l2.7 7.5c-1.8.6-3.7 1.3-5.6 1.8-4.6 1.1-9.1 2.2-13.7 2.9-1.1.2-3.3-.9-3.6-1.8-.7-2.4-.5-5-.7-8.2 7.5 1.9 14.5 9.1 19.1-2.2h1.8zM259.7 321.1c-2.2 1.5-4.4 2.9-6.6 4.4-.4-1.3-1.4-3.5-1.2-3.6 2.1-1.3 4.4-2.1 6.7-3.1.3.7.7 1.5 1.1 2.3z"/>
  <text transform="translate(27.806 42.247)" fill="#fff" font-family="BaskervilleT-Bold" font-size="35" letter-spacing="4">PEANUTS</text>
  <text transform="translate(327.166 45.699)"><tspan x="0" y="0" font-family="Peanuts" font-size="33">SANTA CLAUS</tspan><tspan x="-7.1" y="39.6" font-family="Peanuts" font-size="33">GETS LETTERS</tspan><tspan x="-15.1" y="79.2" font-family="Peanuts" font-size="33">FROM MILLIONS</tspan><tspan x="-37.5" y="118.8" font-family="Peanuts" font-size="33">OF KIDS ALL OVER</tspan><tspan x="8.9" y="158.4" font-family="Peanuts" font-size="33">THE WORLD...</tspan></text>
</svg>
