<svg xmlns="http://www.w3.org/2000/svg" viewBox="0 0 595.3 465.4" xml:space="preserve">
  <path fill="#fff" d="M0 0h595.3v465.4H0z"/>
  <path d="M595.2 448.9v14.3h-9.6l-165 .6c-102.8.3-205.6.6-308.4 1-3.7 0-7.3.4-11 .6H1.1c3.8-1.9-.1-4.1 0-6.1.5-16.9.6-33.9.5-50.9-.1-26.9-.4-53.8-.5-80.7-.1-27.4-.2-54.9-.1-82.3.1-21.9.7-43.7.8-65.6.1-21.9-.1-43.8-.3-65.7 0-.3-1-.5-1.5-.7V2.3c.8-.4 1.5-.8 2.3-1.1.3-.5.7-.8 1-1.2H593c0 1.1-.1 2.2-.1 3.3l.9 210.3.3 109.4c.1 21.4.2 42.8.1 64.2-.1 13.7-.7 27.5-.6 41.2 0 6.8 1 13.6 1.6 20.5zM584.3 7.7h-27.7c-23.6 0-47.3-.1-70.9.1-13.9.1-27.8.8-41.8 1-13.8.2-27.6-.1-41.4.1-13.7.1-27.5.7-41.2.7-11.4 0-22.9-.6-34.3-.7-23.4-.1-46.7-.1-70.1 0-2 0-4.8.3-5.9 1.6-5.7 6.7-11.1 13.7-16.5 20.7-4.5 5.8-6.4 10.5-1.9 18.8 9.4 17.4 3.8 41.3-17.3 51.3-1.5.7-3.5 2.7-3.5 4.1.3 21.5 9.4 38.5 26.9 50.8 7.3 5.1 15.2 9.4 23.2 13.2 7.5 3.5 15.4 6.3 23.3 8.8 7.2 2.2 14.7 3.1 21.8 5.5 3.4 1.1 5.4.6 8.4-.9 6.4-3.3 13.2-8 19.9-8.2 9.8-.4 19.2-4.2 29.5-1.1 9.5 2.9 19 5.1 27.2 11.2 4.2 3.1 8.8 6.2 13.7 7.7 4 1.3 8.8.3 13.2.2 3.8-.1 7.7-.2 11.4-.7 9.7-1.4 16-.9 16.7 9.9.5 9.3.1 18.6.1 29.3 1.5-2 2.7-3 3.3-4.3 4.3-10.3 6.8-21 6.2-32.3-.1-1.3 1.3-3.8 2.2-3.9 7.7-.7 15.4-.5 23.1-1.4 13.3-1.6 26.8-1.1 39.7-5.5 3.5-1.2 7.1-2.2 10.6-3.2 6.3-1.8 13.1-2.7 19-5.3 10.4-4.7 20.2-10.6 30.4-15.8 2.8-1.4 3.9-3.2 3.7-6.4-.5-7.1-1.1-14.1-1-21.2.2-10.3.9-20.6 1.4-31.1M233.9 240.2c2.1-.5 3-1 3.8-.8 2.4.7 5.3 1.2 6.9 2.8 1.3 1.3 2.1 5.2 1.2 6.2-3.3 3.7-.6 6.2 1.2 8.6 3.8 5.2 3.1 8.1-2.8 10.3-5.7 2.1-11.4 4.1-17 6.7-1.9.9-3.2 3-5.1 5 4.7.8 8.3 1.3 12.5 2-.1 1.9.5 4.4-.5 5.6-4.6 5.5-9.6 10.7-14.4 16-1.7 1.9-3.1 4.1-4.8 6.3 6.6 2.9 6.2 2.6 9.3-1.8 1.3-1.9 4.7-3.3 7.1-3.3 6.9.2 14.4 12.2 12.3 18.9-2.8 8.9-2.7 8.9 4.5 14.9 1.3 1 2.4 2.3 3.5 3.5 8.1 8.6 8.7 18.9 4.9 25.4-4.4 7.6-10.8 10.9-19.5 9.4.4 2.4.8 4.5 1.3 7 7.2-.3 14.3-.7 21.8-1 1.8-3 3.9-6.6 5.9-10.2.3-.6.5-1.3.5-2 .5-4.7 0-9.9 1.8-14.1 1.6-3.6 1.6-6.3-.8-8.2-2.8-2.2-2.3-3.8-1.3-6.4.7-1.8.7-3.9 1.4-5.7 1.4-3.8 3.1-7.4 4.6-11.1.7.2 1.3.5 2 .7-.9 4.4-1.9 8.9-2.8 13.3l1.2.3c1.1-1.8 2.1-3.6 3.2-5.4.3.1.6.2.9.4-.5 2.4-1 4.8-1.8 8.8 3.7-4.4 6.2-7.5 8.8-10.6l1.5 1.2c-3.3 6.1-6.6 12.2-10.3 19 8-3 12.2-9.2 17-14.6.7-.7 2-.9 3-1.3 0 .9.4 2 0 2.8-1.2 2.9-2.5 5.7-3.7 8.2 1.3.5 3.3.7 3.6 1.5 1.7 4.7 4.3 2.4 6.9 1.1 1.5-.7 3-1.2 4.5-1.8l.6 1.5c-2.4 4.9-4.8 9.9-7.4 15.2 4 3 1.2 6-.2 9.3-.7 1.7-1.1 4.9-.3 5.4 1.7 1.2 4.3 1.3 6.6 1.3.9 0 2.3-1.3 2.5-2.2 2.4-9.6 4.6-19.2 6.9-28.8.9-3.7 3.1-7.7-1.7-10.4-3.5-2-7.1-5.4-10.7-5.4-7.7 0-12.9-3.2-17.4-8.7-2.3-2.9-4.9-5.6-7.7-8.8-3.1 4.2-6.3 3.4-9 .6-5.2-5.5-10.2-11.2-14.9-17.1-.8-1 .2-3.7 1-5.4.6-1.4 2.1-2.4 3.1-3.5-2.9-6-2-8.5 5.1-13.6 1.3-.9 3.5-1.2 5-.8 3.8 1.2 7.4 2.9 11.6 4.7-1.6-8.4.9-11.5 7.3-10.3 4.2.8 8.5 7.8 7.2 11.9-2 6.5-1.3 8.7 5.1 11.3 5.8 2.4 11.9 4.1 18 5.9 10 2.9 13 1.5 17.4-7.7-.8-.4-1.5-1-2.4-1.3-16.8-5.6-29.7-15.5-36.1-32.6-.5-1.3-2.3-2.5-3.7-2.8-7.4-2-10.6-5-11.3-11.7-.6-5.3 2.4-9.7 8.8-12.6-1.8-16.7 4.5-30.3 17.7-41.4-9.5-2.5-18.3-4.8-27-7.1-11.7-3-22.6-7.7-32.9-13.8-7.6-4.6-15.5-7.6-24.6-8.3-12.4-.9-24.7-2.9-37.1-4.3-13.1-1.5-26.2-2.7-39.3-4.4-8.8-1.1-17.7.5-26.6-1.8-8.6-2.3-9.3-.9-9.3 8.4 0 5.7-.4 11.4-.2 17.1.1 3.4-1.6 3.3-3.4 2.2-2-1.2-4.5-2.8-5.4-4.8-3-6.6-5.3-13.6-8-20.3-.4-1.1-1.8-2.6-2.7-2.5-4.1.3-8.2 1.4-12.4 1.7-18.1.9-36.1 1.7-54.2 2.4-4.3.2-8.7 0-14.1 0v192.1c6.9.6 13.3 1 19.6 1.6 11.6 1 23.2 1.8 34.8 3.1 8.3.9 8.7.9 12.8-6.9 1.1-2.1 2.5-4 3.6-6 4.2-7.9 8.4-15.9 12.6-23.8-.6-.3-1.1-.6-1.7-1-6.5 12-13.1 24.1-19.6 36.1-.8-.4-1.5-.7-2.3-1.1 7-17.4 14-34.9 21.1-52.3-.4-.2-.9-.3-1.3-.5-9.6 16.8-15.7 35.4-27 51.5-1.3-1.9-2.2-3.8-1.6-5.1 4.2-10.4 8.7-20.7 13.1-31.1 2.1-5 4.2-10.1 6.2-15.1-.4-.2-.9-.3-1.3-.5-8.2 17.3-16.4 34.5-24.8 52.3-6.1-5.4.3-8.3.8-11.9.5-3.8 2.8-7.3 4.3-11-.5-.2-.9-.3-1.4-.5-4.9 7.3-9.9 14.5-14.8 21.9-2.1-1.9-3.4-2.9-4.6-4 10.2-17.8 20.1-35.3 30.1-52.7-.4-.3-.8-.5-1.3-.8-3.3 5.1-6.8 10.1-10 15.3-5.7 9.3-11.1 18.8-16.8 28.1-1.7 2.8-4.1 4.2-7.6 1 9.3-15.3 18.6-30.5 28-45.8-1.7.2-2.7.8-3.3 1.7-6.8 9.8-13.4 19.7-20.3 29.4-.7 1-2.5 1.3-3.8 1.9-.2-1.4-.8-2.9-.4-4.1.8-2.6 2.4-5 3.2-7.7.9-2.9.7-6.1 1.9-8.9 3.8-9.2 8-18.3 11.9-27.4.7-1.6 1.2-3.4 1.7-5-.4-.2-.8-.4-1.3-.5-.7 1.1-1.5 2.2-2.1 3.4-2.3 4.8-4.3 9.8-6.9 14.4-.8 1.4-3.2 1.9-4.9 2.8.2-1.9-.1-4 .7-5.7 1.5-3.4 3.9-6.5 5.4-9.9 2.4-5.4 4.4-11 6.6-16.6-4.7 5-8.4 10.4-12.4 15.6-.8 1.1-3.5 2.2-3.9 1.8-1.3-1.2-2.8-3.2-2.6-4.7.5-3.7 1.2-7.6 3-10.8 9-15.6 18.4-30.9 27.7-46.4 3.5 1.6 3.8 3.6 1.4 6.2-.7.8-1.6 1.6-2.1 2.5-7.8 13.4-15.6 26.9-23.3 40.4-1.1 1.9-1.6 4.1-2.3 6.2 1.6 0 2.3-.4 2.7-1 8.8-12.8 17.4-25.6 26.3-38.3 1.3-1.8 3.4-3 5.2-4.4.2.3.5.6.7.9-6.1 11.3-12.3 22.7-18.4 34l1.8.9c2.7-4.7 5.4-9.5 8.3-14.5 1.3.7 2.4 1.4 3.3 1.9-5.7 12.9-11.2 25.4-16.6 37.9.5.2.9.4 1.4.6.4-.7.9-1.5 1.3-2.3 4.4-9.2 8.8-18.4 13.4-27.6.6-1.1 2.2-1.8 3.3-2.6.2 1.5.7 3.1.6 4.6-.1 1-1 1.9-1.4 2.9-5.9 11.9-11.7 23.9-18 36.6 1.4-1.2 2.5-1.9 3.2-2.9 6.6-9 13.1-18.1 19.8-27 1.4-1.9 3.5-3.3 5.3-4.9.7.5 1.3 1.1 2 1.6-5.4 8.9-10.7 17.8-16.1 26.7.3.2.6.4 1 .6 4-4.9 7.9-9.7 11.9-14.6l1.8 1.2c-.8 2.1-1.4 4.3-2.4 6.2-8.8 15.8-17.7 31.6-26.5 47.4-.7 1.2-.8 2.8-1.2 4.2 6.6-9.4 11.4-19.7 17.8-28.9 6.2-8.9 8.9-20.2 18.4-28.8-.4 2.8-.6 4-.7 5.2.3.1.5.2.8.2 1.6-3 3.2-5.9 4.7-8.9.5.1 1.1.2 1.6.3.3 1.8 1.2 3.8.7 5.2-1.8 5.1-4 10-6.2 14.9-3.4 7.8-7 15.6-10.5 23.4.4.2.8.5 1.2.7 1.7-2.9 3.5-5.8 5-8.8 3.5-6.9 6.6-13.9 10.2-20.6 1-1.8 3.3-3 5-4.4.7.5 1.4 1.1 2.1 1.6-3.6 9.9-7.2 19.7-10.8 29.6.2.1.4.3.5.4 3.1-3.8 6.2-7.6 10.2-12.4 3.9 10.3-5.8 15.4-6.6 22.6 2-.3 3.9-.7 5.8-1v6.1c3.2-3.8 6.5-7.7 9.7-11.5.6.5 1.2 1 1.8 1.4-3 3.9-6 7.7-9.1 11.6 3.3-1.4 5.9-3.5 8.6-5.4 1-.6 2.4-.5 3.7-.7-.2 1.1 0 2.5-.6 3.4-4.6 6.8-9.3 13.4-14.9 21.4 3-1.1 4.9-1.8 6.8-2.5.2.3.5.5.7.8-1.4 1.8-2.7 3.5-4.2 5.5 12.7 2.3 25.2 4.5 38.4 6.8-.8-1.9-1-3-1.6-3.9-5-6.7-7.1-13.7-2-21.3 1.7-2.6 3.8-4.9 5.6-7.4 3.9-5.4 9.1-9 15.6-10.4 6.2-1.3 12.4-3.4 18.3 2.4-2.2-5.2-.9-7.8 3.9-9.1 1.5-.4 2.5-2.4 3.7-3.7-1.9-.3-3.8-.9-5.7-.8-2.7.2-5.4 1-8.2 1.4-7.8 1.1-13.1-4.4-19.1-7.7-3.4-1.9-6-2.2-9.6-1.3-3.3.8-7.2 1-10.4 0-14.6-4.7-18.5-14.3-19.3-27.4-.2-4.4 1.2-8.7 6.5-9.9 3.2-.7 6.4-1.6 9.7-2.4-3.6-6.2-10.4-10.3-13.3-17.8-2.9-7.4-3.3-14.4-.6-21.2 2.8-7.2 6.4-14.4 11.3-20.4 4.3-5.2 10.3-9.4 16.3-12.6 4.8-2.6 10.6-4 16-4.4 9.1-.6 18.6-1.4 27.4.4 11.6 2.3 22.8 7.1 34.2 10.6 1.7.5 4.1 0 5.8-.9 4.8-2.6 9.2-6.3 14.9-1.8 2.8 2.3 6.3 3.8 9 6.2 7.7 7.1 10.6 18.7 5.6 26.7-3.8 6.1-9.2 8-16 6.9-.7 2.7-1.1 5.3-1.8 8.9zm352.2-76.9c-2.3 1.6-4 2.9-5.8 3.9-6.9 3.7-13.9 7.1-20.7 10.9-15.6 8.7-32.9 12.3-50.1 15.2-14.3 2.4-29 2.4-43.5 3.7-1.4.1-3.7 2.4-3.8 3.8-1.1 14.9-5.8 28.3-15.5 39.7-.9 1.1-2.4 1.7-3.6 2.5-.6-1.5-1.8-3-1.8-4.4.1-5.5 1-11 1-16.5-.1-7.5-.6-15-1.3-22.5-.1-1-2.5-2.6-3.8-2.5-9.9.3-19.9.8-30.4 1.4 2.1 3.8 5.1 7.9 6.9 12.5 3.4 9 6.7 18.2 8.9 27.6.8 3.6-1.3 8-2.4 12-4.2 16.2-13.1 28.9-27.7 37.5-1.8 1.1-3.2 2.9-4.8 4.4 2.7 1.2 2.8 5.8 7.2 4.9 2.2-.4 4.6.4 6.9 1 12.4 3.3 15.1-.3 21.8-11.1.6-1 .3-3-.3-4.1-3.3-6.8-3.1-13.4 1.5-17 1.4-1.1 5.2-1.2 6.2-.2 1.9 2 2.6 5.2 4.2 8.8 1-2.5 1.9-4.6 2.8-6.8 1.9-4.7 6.8-8 9.8-6.6 4.7 2.3 6.3 6.8 3.9 11.3 8.6 1 10.8 4.9 7.2 12.6-.5 1-.5 2.7.1 3.7 1.7 3.3 1.5 6-1.1 8.9-1.2 1.3-2 3.4-2.2 5.2-.5 5.6-2.8 7.6-8.4 7.5-1.6 0-3.9.6-4.9 1.8-2.2 2.5-3.7 5.6-5.9 9.1 2.2 0 3.7.1 5.3 0 9.2-.7 18.4-1.7 27.6-1.9 10-.2 20.1.6 30.1.5 17.6-.1 35.3-.7 52.9-.5 10.2.1 20.4 1.4 30.6 1.9.8 0 2.5-1.9 2.5-2.9-.2-9.3-.9-18.7-1-28 0-8.2 1-16.5.9-24.7-.1-12.4-.8-24.9-.9-37.3-.1-7.3.9-14.5 1-21.8.2-11.8 0-23.5.1-35.3-.2-2.6.2-4.7.5-8.2zM104 169.6c.9-.2 1.7-.3 2.6-.5 0-1.5.2-3.1 0-4.6-1.9-14.7-1.5-29.4.3-44.1.1-1.2 2-2.9 3.2-3 4.6-.5 9.2-.7 13.8-.6 1.6 0 3.3 1.5 4.9 1.3 4.4-.6 8.6-2 13-2.8 13.2-2.5 26.7-4.1 39.6-7.6 11.5-3 22.6-7.8 33.6-12.2 7.1-2.8 12.6-8.5 14.7-15.5 4.8-15.9-1-29.8-10.9-42-8.6-10.7-20.8-13.8-34-15.7-14.7-2.2-29.4-4.8-44.3-4.6-5.1.1-10.1.9-15.2 1-7.9.2-15.9-.3-23.7.2-10.7.7-21.3 2-31.9 3.2-11.1 1.3-22.3 2.7-33.4 4.4-6.4.9-12.8 2.1-19.1 3.6-2.8.7-6.2 1.2-6.3 5.5-.3 14.6-.8 29.1-1 43.7-.1 5.5.8 11 .9 16.5.1 6 1.8 8.5 7.7 9.9 4.4 1 9 1.3 13.2 2.9 14.8 5.5 30.4 6.3 45.8 8.1 3.7.4 7.5 0 11.2.1 3.7.1 6.5.9 6.1 5.8-.2 3.3.5 6.8 1.1 10.2 1.1 6 2.4 11.9 3.7 17.8 1.5 6.2 3 12.6 4.4 19zm242.1 254.2c.3.7.5 1.4.8 2-2.2.7-4.3 1.5-6.5 2-1.1.2-2.3-.6-3.5-.5-7.4.5-14.9 1.1-22.3 1.7-3.9.3-7.9.5-11.8 1.1-5.1.7-10.1 3.7-15-.7-.5-.5-2 .1-3 .3-9.2 2.3-18.2 4.1-26.5-2.8-3.7-3-8.1-5.2-12.3-7.5-8-4.2-14-.8-16.2 8.1-1.1 4.4-3.5 8.7-6.1 12.5-2.5 3.6-11.2 4.3-15.1 2.4-6.9-3.3-13.9-6.2-21.3-9.4-.1 1.7-.3 2.6-.3 3.5.4 5.8.6 11.6 1.3 17.4.1 1 2.2 2.4 3.4 2.5 2.5.1 5.1-1.3 7.4-.8 10.1 2.2 20.1-.5 30.3.4 12.5 1.1 25.2 0 37.8-.1 23.6-.2 47.3-.6 70.9-.5 21.2.1 42.4.8 63.6.8 14.1 0 28.1-.4 42.2-.9 15.1-.6 30.2-.9 45.2-2.3 17.4-1.6 34.9-3.6 52.1-6.6 12.8-2.2 25.3-6.2 37.9-9.6 3.7-1 7.2-2.6 5.2-7.9-.5-1.4.4-3.4.7-5.7-2.3-1-4.6-2.3-7.1-3-7.2-2.2-14.3-4.5-21.6-6.2-14.3-3.3-28.7-6.2-43-9.2-3.2-.7-6.3-1.5-9.4-2.1-4.6-.8-9.2-1.5-13.8-2-7.7-.9-15.4-1.6-23.1-2.2-1.2-.1-3.1.1-3.7 1-2.5 3.5-4.8 7.1-6.7 10.9-2.8 5.5-13.1 11-18.9 8.6-5.1-2.1-9.5-6-14.2-9.1.3-.3.5-.6.8-1h-8.8c.1 1.6.2 2.9.4 4.8h-16.2c0 .7.1 1.3.1 2 1.1-.2 2.3-.8 3.4-.6 1.2.2 2.3 1.1 3.5 1.6-1.2.8-2.3 2.1-3.6 2.3-2 .3-4-.2-6.2-.4-.6-1.5-1.4-3.3-2.7-6.5-3 3.7-5.6 6.2-7.2 9.2-3 5.6-12.2 9.8-18.4 6.5-7.6-4.1-14.9-9-22-13.4-2.2.8-4.6 2.3-7.1 2.4-6 .1-11.9-.8-17.9-.8-2.5 0-5 1.3-8.9 2.4 0 0-1.7-.6-3.3-.3-6 .9-11.9 2.5-17.9 3.1-5 .5-5.1 0-6.6 5.1 21.2-2.6 42.4-5.1 63.7-7.7.1.9.3 1.7.4 2.6-2.9.7-5.9 1.3-9.6 2.1 2.6.2 4.6.3 6.7.5zm238.2-96.6c-6.7-.5-14-1.3-21.2-1.5-9.9-.3-19.8.4-29.7-.2-9.7-.6-19.2 1.4-29 .4-10.3-1.1-20.7-.2-31.1-.2-9.2 0-18.4-.3-27.6.1-5 .2-11.2 0-14.7 2.8-4.7 3.6-8.6 6.1-14.7 3.5-1.5 7.4-6.5 7.5-12.7 5.5 1.8 10.7 3.5 20.7 5 29.1 6.7 1.6 12.9 3.1 19.6 4.7.4-.9 1.3-2.7 2.1-4.4 3.5-7.3 8.5-12.9 17.3-12.2 5.6.4 9.9 3.5 12.7 9 3.5 7.1 6.2 13.9 4.5 22.1-.7 3.5-.1 7.7 4.8 8.2 11.6 1.3 23.3 2.1 34.9 3.4 7.5.8 15 1.9 22.4 3.2 7.2 1.3 14.4 2.9 21.5 4.6 7.6 1.8 15.2 3.8 22.8 6 4.6 1.3 9.1 3.2 13.2 4.7v-43.8c-.1-15.2-.1-30.1-.1-45zm-219.6-36.5c16.8-1.6 30.6-8 41.2-20.7 6.4-7.6 8.9-17.2 9.7-26.8.4-5.4-.6-11.3-2.1-16.5-4.3-14.2-9.6-27.9-23.3-36.1-2-1.2-3.8-2.7-5.9-3.6-7.7-3-15.4-7.4-23.4-8.4-14.2-1.9-28.1 1-41.4 7.3-8.3 4-13.3 10.7-18.1 17.7-5.7 8.5-6.6 18.2-5.8 28.3.1 1.5-1.8 4.5-2.6 4.4-4.9-.4-5.6 3.2-5.8 6.2-.2 3.6 1.9 6.7 5.8 7 3.8.3 4.7 2.5 6.2 5.5 3 6 6.1 12.5 10.9 17 8 7.5 17.9 12.5 28.6 15.1 8.6 2 17.4 2.4 26 3.6zM138.6 455.3c3 .4 6.5 1.3 10.1 1.2 9.8-.1 19.7-1.3 29.5-.6 5.2.4 4.3-1.8 4.5-4.7.4-7.9-1.1-15.3-3.1-22.9-2.1-7.8-1.5-16.4-4-24-3.8-11.6-9.2-22.8-20.4-29.7-8.1-5-16.5-7.6-26.4-7.6-12.7 0-25-.6-36.7 5.5-8.9 4.6-16.6 10.3-19.6 20.5-1.5 4.9 0 9.4 4.5 11.8 5.4 2.9 10.7 5.8 16.4 8.1 9 3.5 17.2 7.8 25.2 13.5 10.4 7.3 15.5 17.4 20 28.9zm31.2-192.6c-.1.2-.2.4-.4.6.7.3 1.4.5 2.1.8 8.9 3.6 12 8.3 12.2 17.9.1 2.2.6 4.8 1.9 6.4 2.9 3.4 2.9 7 .5 9.8-4.7 5.3-.6 9.5 1.2 13.7 1.7 4 6 4.3 10 3.9 3-.3 6.1-.5 9.1-1.2 2.7-.6 5.3-1.6 4.8-5.4-.9-5.9 1.3-9.5 6.9-12.5 4-2.2 9.1-5.1 9.7-11.7-2.2 0-4 .1-5.8 0-6-.3-7.9-4-4.6-8.9 4.7-7 12.4-9.2 19.7-11.8 6-2.1 6.6-3.7 2.4-8.9-1.6-2-2.4-4.7-4-7.9 2.8.6 3.9.9 5.4 1.2-.3-1.7-.5-3-.8-4.2-4.3-1.9-10.1 7.8-13.2-4.1.3 4.8.5 7.5.7 10.2-.6.3-1.3.6-1.9.8-1.2-2.4-3.2-4.8-3.2-7.2 0-1.9-.1-6.5 4.9-4.6.4.1 1.7-1.1 1.9-2 .8-2.5 1.3-5.1 2.1-8.5-3.2 1.9-5.5 3.2-8.2 4.8-2.5-4.7 2.2-6.1 3.9-8.4-1.3-1.8-2.3-3.6-3.7-5.1-1.2-1.4-2.6-2.9-4.2-3.6-2.2-1-4.7-1.7-7.2-2.1-1.8-.2-4.4-.3-5.3.7-3.6 4.2-7.7 4.2-12.3 2.6-3-1.1-6-2.3-10.5-4.1 5.8 10.5 7.3 19.3-5.1 24.8 3 2.3 5.6 4.4 8.2 6.4-.2.5-.3 1.1-.5 1.6-1.3-.4-2.6-.7-4-1.1-3.4-1-6.9-2.9-10.2-2.6-3.1.2-4.9 6.6-2.7 9.9 1.9 2.9 3.7 7 8.8 5 1-.4 2.7.8 4 1.3-.9 1.1-1.6 3.1-2.6 3.2-3.3.5-6.6.3-10 .3zm-65.6 98.6c-6.5-1-11.7-2.2-17-2.6-13.8-1.3-27.7-2.2-41.6-3.4-8.1-.7-16.3-1.6-24.4-2.2-3.7-.3-7.4 0-12 0 0 11.8-.1 22.6 0 33.4.1 4.6.8 8.7 4.6 12.3 6.3 6.1 11.6 13.1 17.8 19.3 2.5 2.5 6.3 3.9 9.5 5.8.3-.5.7-1 1-1.4-8.8-6.3-16.2-13.8-20.8-23.8 1.3-.1 2.3.2 2.9.9 4.6 4.8 9.1 9.5 15.5 12.2 3.2 1.4 5.8 4.7 8.1 7.5 7.2 8.8 17.6 11.3 27.5 14.9-1.6-2.1-3.5-3.7-5.4-5.2-10-8.1-19.9-16.4-30.2-24.2-3.5-2.7-2.4-4.1.3-6.2 2.8 2 5.7 4.1 8.7 6.1 1 .6 3.1 1.3 3.2 1.1 2.5-4.8 4.6-1.3 7 .1 4.6 2.7 9.3 5.1 15.3 8.4-1-2.5-1.2-4.3-2.2-5.1-8.4-7.1-8.6-14.2-2.8-23.6 6.2-10.1 14.9-16.7 26-20.6 2.8-1 5.3-2.2 9-3.7zm65.4-242.1c-.2-.2-.4-.5-.6-.7-3.3.6-6.5 1.4-9.8 1.6-6.3.5-13.1-.6-18.8 1.5-7.2 2.7-14.1 1.8-21 1.6-5.2-.2-7.3 1.3-8 6-.4 2.5-.8 5.1-.9 7.7-.1 2.3-.4 5.3.8 6.7 1 1.2 4.2.5 6.4.6h1.6c13.2 1.1 26.5 3.1 39.7 3.1 18.4 0 36.1 4.7 54.2 6.7 5.2.5 10.3 1.3 17.2 2.2-16.8-13.7-25.6-29.6-22.2-50.7-13.6 4.7-26.1 9.2-38.6 13.7zm222.6 183.4c-3.2 9.6-3.5 9.7-12.7 7.7-1.2-.3-2.7-.5-3.8 0-3.8 1.7-6.7 1.2-10.6-.9-4.8-2.7-11.6.4-14.8 5.6-1.6 2.6-2.9 3.3-5.2.9-2.8-2.9-5.6-5.9-8.6-8.5-1.5-1.3-3.7-2.5-5.6-2.4-4.7.1-9.3.9-14.3 1.5-1.4 8.3-2.9 16.9-4.1 24.3 4.5 2.8 7.8 4.9 11.2 7-3.9 6.2-2.6 11.7 2.4 15.7 3.9-5 7.8-10 11.8-14.9 2-2.5 3.6-2.4 5.2.7 2.6 4.8 5.5 9.4 8.9 15.1 4-6 7.8-11.4 11.4-17 2-3.2 3.7-4.1 6.1-.3 2.8 4.4 6.1 8.6 9.4 13.2 2.5-3.6 4.9-7.1 7.3-10.6 2.7-4 5.2-4.1 7.7 0 1.9 3.1 3.6 6.3 5.6 9.7.7-.8 1.2-1.1 1.1-1.3-2.1-8.6-3.8-17.4-6.5-25.9-1.5-4.6-2.1-6.3 1.4-8.9 2.6 6.9 5.1 13.4 7.4 19.8h7.2c-.4-6.8-.8-13.2-1.1-19.5-.3-5.5-2-9.2-8.6-8.8-2.7-.1-5.3-1.4-8.2-2.2zM123.7 449.5c-4.6-2.9-8.5-6.1-13-8.1-3.9-1.7-8.3-2.4-12.6-3-2-.3-4.3.8-6.3.4-3.2-.7-6.3-2-9.8-3.2-.5 5-4 5.4-7.5 4.1-5.5-1.9-10.7-4.6-16.2-6.8-2-.8-4.1-1.2-6.2-1.7-3.9-.8-7.9-1.2-11.7-2.4-3.3-1.1-6.4-4.4-9.1.8-.3.5-2.3.7-3 .2-3.9-2.4-7.8-4.9-11.4-7.7-2.5-1.9-4.4-4.5-6.9-7.1v41h122.1c-1.7-3.7-3.1-7.1-4.9-10.9-1.4 1.9-2.6 3.3-3.5 4.4zM10.4 149.1c2.8-.5 5.8-1.3 8.8-1.4 8.3-.4 16.7-.5 25-.9 2.7-.1 5.4-1 8.1-1.3 4.3-.5 8.7-1.3 13-1.1 8.6.2 17.2.9 25.9 1.4-.5-8.7-.9-16.1-1.3-22.9-27.6.6-53.9-4-79.5-14.2v40.4zM11.8 9.5c-.6 5.2-1.2 9.6-1.5 14 0 .6 2.2 2.2 3.1 2 7.6-1.7 15.2-4.1 22.8-5.6 20.2-4.1 40.7-4.6 61.2-5.7 17.4-.9 34.9-2.2 52.3-1.8 12.8.3 25.6 3.1 38.4 4.6 10 1.2 19.1 4.6 27.1 10.8 3.6 2.8 7 5.8 9.3 7.8 7.2-9.2 14.1-17.9 20.5-26.1H11.8zm147.7 356c7.4 0 12.9-3.5 16.5-9.8 5.4-9.4 2.7-19-.2-28.5-.2-.7-1.3-1.1-2-1.6-8.7-6.5-17.5-2.8-25.3 1.2-6.4 3.3-11.9 9.5-11.7 17.3.2 10.5 8.7 20.7 22.7 21.4zm99.6-67.1c5.1-1.2 8.8-7.2 12.2-.9.3 4.9-9.3 3.9-6.1 10.7 3.8-.8 5.2-7.2 9.8-2.3-1.4 1.8-2.9 3.7-4.4 5.6.1.5.3 1 .4 1.5 2.6-.7 5.2-1.5 9.1-2.6 2.5 2.9 5.6 6.4 8.7 9.8 1.6 1.8 3.1 4.4 5.1 5.2 4 1.6 8.5 2.2 12.8 3.3.8-1.4 1.9-2.4 2-3.6.9-6.2 1.7-12.4 2.3-18.7.1-.8-1.1-2.3-2.1-2.7-4.5-2.1-9.2-3.8-13.7-5.9-6.3-3-8.3-7.6-6.4-14.4 1.5-5.5.5-7.4-5-8.3-.1 1.6-.2 3.3-.2 4.9-.2 6.2-1.5 7-7.2 4.6-2-.8-3.9-2-6-2.4-3.1-.7-6.6-2.2-9.1 2.1 2.1.6 3.8 1 5.4 1.7 2 .8 5.3 1.6 5.5 2.7.5 3.6-2.4 3.9-5.4 3.9-3 .2-6 1.2-7.7 5.8zM427.9 271c-3.1 1.3-4 4.8-.9 8.9 2.6 3.5 2.7 7 .6 10-3.1 4.5-7.2 8.3-10.9 12.4-1.4 1.6-3.7 3.3-3.8 5-.2 5.1.3 10.3.9 15.4.2 1.4 1.8 3.3 3.2 3.7 2 .7 4.6.8 6.6.2 2.5-.8 5.3-2.1 6.8-4.1 4-5.2 7.7-10.8 10.9-16.5 2.4-4.2 4.5-4.9 7.4-.6 4.3-4.5-6.9-9.5.7-13.4 1.7 1.1 3.3 2.2 5 3.3 2.2-7.6-7.1-5.8-7.7-11.8 1.7-.4 3.6-.7 5.4-1.4 1.3-.5 2.5-1.5 3.8-2.3-.3-.5-.6-1.1-.9-1.6-2.3.2-4.7.6-7 .4-1.7-.1-3.4-1-5.2-1.5.5-1.5.9-3.2 1.6-4.6.7-1.5 1.7-3 2.6-4.4-8.7.9-6.9 10.9-14.2 13.7-1.6-3.5-3.2-6.9-4.9-10.8zm-193.3 44.8c-3.6 4.3-6.6-2.5-10.5-.2 1.8 3 3.5 5.9 5.3 8.9-.5.5-.9 1-1.4 1.6-1.8-.8-3.5-2.1-5.4-2.4-1.6-.2-3.3.8-4.7 1.2 3.5 1.9 7.7 2.7 8.2 4.6 2 7.2-6.9 1.4-8 6.3 1.4.3 2.9.2 4.1.9 1.3.8 3 2 3.3 3.3.7 3.7 1.1 7.5 1 11.3-.3 9.1 2.3 14 9.8 17.4 5 2.3 13.2 1.1 14.6-2.2 4.5-10.5 3.6-18.9-6.6-26.1-8.8-6.2-8.8-6.8-5-16.9 2.6-6.9-3.3-15.5-10.5-14.7 1.8 2.3 3.6 4.4 5.8 7zm150.4 84c-1.8-14.1-2.7-19.3-8.6-28.6-2.8-4.4-8.1-5.2-12.4-1.9-13.6 10.5-15.1 28.3-4.8 42 8.5-3.9 17-7.6 25.8-11.5zm-160.4 15c-3.5-8.4-6.4-16.3-10.1-23.7-1.4-2.8-4.3-5.9-7.2-6.8-7.2-2.2-13.8 1.8-15.7 9.4-2.6 10.4.3 20.2 4.7 29.6.4.9 3.1 1.7 4.2 1.3 7.7-3 15.3-6.3 24.1-9.8zm-60-40.9c2.4 3.1 6.1 6.9 8.7 11.3 4 6.7 12.2 7.2 16.6-.2 3.2-5.3 12.6-9.7 17.1-7.4 1.8-1.5 3.2-2.8 5.1-4.4-.4-2-4.2-5 0-7.9 2 1.1 3.7 2 5.4 2.9l.9-1.5c-1.9-1.2-4-2.2-5.6-3.7-1.1-1-1.7-2.8-2.5-4.2 1.4-.7 2.7-1.4 4.2-2 .5-.2 1.2-.1 1.8-.1 0-.5.1-1 .1-1.5-2.6-1.4-5.2-1.9-8.1.4-3.5 2.8-7 5.6-10.6 8.4-5.9 4.7-9.6 4.4-15-.7-.7-.7-3.1-.4-4.1.3-4.8 3.2-9.2 6.7-14 10.3zm291.8 25.7c2.7-10.3 2.7-20.9-.8-31.7-1.9-5.9-7.1-6.5-11.4-7.3-3.7-.8-7.8 1.6-9.1 5.9-1.8 6.3-3.5 12.6-4.6 19-.5 2.6-1 6.1 3.2 7.3 7.4 2.1 14.8 4.4 22.7 6.8zm-277.3-76.7c.5 1.8.6 3.5 1.4 5 2.7 5.4 3.9 10.8 2.6 17-.7 3.1.1 6.8 1 10.1 1.7 6.2 7 7.8 12.1 3.9 1.9-1.4 3.5-3.2 5.6-4.3 3.9-2.1 7.9-4.8 12.1-5.4 2.4-.3 5.4 3 8.3 4.8-.3-2.2-1.4-4.7-.8-6.6 1.6-5.5-.4-6.8-5.3-5.7-.3 1.3-.7 2.6-.8 3.1-3-.5-5.3-1.2-7.7-1.2-3 0-6.1 1-9.1.9-1.2 0-2.4-1.8-3.6-2.7 1.1-.9 2-2.3 3.3-2.7 1-.3 2.4.8 3.6.6 3.3-.4 7.9 2 9.8-4.4-5.7.4-10.7.7-16.7 1 0-1.2-.7-3.6.2-4.9.7-1 3.8-1.5 5-.8 4.8 2.8 7.9-.6 11.4-2.5 1.2-.6 1.6-2.6 2.4-3.9-6.9.6-12.6 1.1-18.4 1.6-.2 0-.3.2-.5.2-1.9.4-4.4 1.6-5.7.8-1.4-.8-1.8-3.5-2.7-5.5-2 .5-4.5 1-7.5 1.6zm105.7 89.2c5.6-7.9 3-17 1.7-25.8-.5-3.6-3-7.3-5.6-10-4-4.2-12.1-3.3-13.4 1.1-2.3 7.5-4.3 15.2-5.9 22.9-.3 1.3 1.5 4 2.9 4.6 6.6 2.6 13.3 4.8 20.3 7.2zm68.8-36.6c-.3-.6-.6-1.3-.8-1.9-6.4-3.1-8.8-9.3-11.8-15.1-.6-1.2-1.7-2.1-2.5-3.1-1 .9-2.3 1.6-2.9 2.7-3.4 6-6.5 12-9.8 18-7-.3-5-8.2-9.3-11.1-.8 1.9-1.5 3.5-2 5.2-.6 1.7-1.3 3.3-1.6 5.1-1.2 7 1 9.3 6.7 7.9 8.3-2 16.8-3.1 25.2-4.8 3-.6 5.8-1.9 8.8-2.9zm-48.1 30.1c1.2-4.3 2-8.1 3.2-11.9 1.8-5.8.2-8.3-5.8-8.7-1.6-.1-3.3.2-4.9-.1-4.6-.6-5.5 1.6-5.5 5.8.1 7.3-.5 14.7-.7 22 6-.5 13-1.1 20.1-1.7 0-.5.1-1.1.1-1.6h-16.9c0-.8-.1-1.6-.1-2.4 3.7-.4 7.5-1 10.5-1.4zm279.8 34.1c-18.8 10.9-39.1 12.2-58.9 15.8h58.1c.2-5.5.4-10.2.8-15.8zm-360.7-73.1c-3 5.1-6.1 10.4-9.2 15.6.9 1.2 2.2 2.8 3.4 4.5 4.5 6.9 7.4 8.2 13 5 1.2-.7 2.6-2.7 2.5-4-.4-8.8-3.6-16.3-9.7-21.1zm178.7-1.1c-8.9 2.6-7.2-8.7-13.7-10.3-.6 1.4-1.2 2.8-1.7 4.3-.6 1.7-.8 3.6-1.7 5-3.6 5.4-3.6 9 .6 14 .8 1 2.4 2 3.6 1.9 5.9-.2 13.9-8.5 12.9-14.9zM155.5 188.4c-16.9-.1-33.9 12.9-39.4 32.6-2.9 10.3.4 22 6.8 25 .1-.6.5-1.3.2-1.6-6.3-8.3-6-16.9-2.3-26.3 3.5-8.9 9-16.2 16.6-21.5 5.1-3.4 11.4-5.2 18.1-8.2zm127.1 230.1c-7.9-2.9-15-5.5-22.1-8.1-2.2 5.7-.1 11.5 5.5 13.3 3.5 1.1 7.6 1.3 11.2.7 1.9-.3 3.2-3.4 5.4-5.9zm-53.3-1.8c4.3-.8 11.3-10.5 14.7-20.2-2.2-.5-4.5-1.1-5.2-1.3-3 2.3-5 4.1-7.2 5.3-3.6 1.9-6 3.7-4 8.3 1.1 2.5 1.2 5.3 1.7 7.9zm201-18.8c0 5.9-.3 11 5.7 13.2 5.7 2.1 12.9 0 17-5-7.4-2.6-14.7-5.3-22.7-8.2zm-162-27.5c11.3-4.8 17.3 1.4 22.7 9.1.5.7 2.1.6 3.2.8.3-.3.6-.7.9-1-5.3-3.3-3-7.4-1.1-11.7-2.5 2.1-4.4 3.7-7 5.9-.5-2.7-.3-5.1-1-5.3-5.5-2.2-2.1-4.7-.5-7.1.6-.9 1.2-1.9 1.7-2.8-.2-.1-.3-.2-.5-.3-2.1 1.8-4.2 3.6-6.4 5.4-.5-.3-.9-.6-1.4-1 1.6-3.6 3.2-7.1 4.7-10.7-.3-.1-.6-.3-.8-.4-4.6 5.9-9.2 12-14.5 19.1zm83.7-71.1c.7.3 2.6 1.3 4.6 1.7 7.9 1.5 16 8.3 23.6-.8 1.4-1.7 2.9-3.5 4.3-5.2-11.7 1.5-22.6 3-32.5 4.3zm59.9 98.5c4.3 2.3 7.6 2.7 7.8-3.7 0-.8.8-1.6 1.2-2.4 1.7-3.8 3.5-7.7 5.5-12.3-11.3 3.2-15.4 8.8-14.5 18.4zm-207.1 34c10.1 7.4 16.1 6.5 19.6-2.7.4-1 .8-2.9.4-3.2-1-.7-2.8-1.4-3.9-1-5.4 2-10.6 4.5-16.1 6.9zm180.3-23.6c-7.3 3.4-14.2 6.5-22 10.1 7.3 2.9 13.4 5.2 18.9-.1 2.5-2.4 5.3-5.5 3.1-10zM128.5 265.4c-4-.3-9-1.7-12.9 2.2-2.6 2.6-1.3 10.8 1.3 14 3.7-5.2 7.6-10.6 11.6-16.2zM29.4 424.1c-6.3-7-12.6-14-18.8-20.9-1.8 7.2 10.4 21 18.8 20.9zm94.5 18.8c-.4-9-23.4-19.8-32.6-22.4 4 3 7.9 7.2 12.5 8.2 4.6 1 8 2.5 11.1 5.7 2.8 3 6 5.7 9 8.5zm242.2-90.3c-4.3 6-8 11.2-12 16.8 5.2-2.5 9.6-4.5 13.9-6.7.8-.4 1.7-2.2 1.4-3.1-.6-2.3-1.9-4.3-3.3-7zm-114.2 46.2c-.6-.4-1.3-.9-1.9-1.3-3.4 4.4-6.9 8.9-10.9 14 3.3 1.1 5.5 1.8 7.5 2.4 2-5.5 3.6-10.3 5.3-15.1zm101.2-93.2c-2.8-1.1-5.2-2.2-7.7-3.1-2.4-.8-4.8-1.4-7.1-2 1.7 2 3.2 3.9 4.7 5.8 4.5 5.6 5.6 5.6 10.1-.7zM240 388.8c-.1.5-.3 1.1-.4 1.6 4.8.4 9.6 1.1 14.5 1.1 1.5 0 3-1.7 4.4-2.6-1.7-.6-3.4-1.8-5.1-1.7-4.5.2-8.9 1-13.4 1.6zm173 20.3h-23.4c6.4 3.5 20.7 2.7 23.4 0zm-65.9-13.8c-4.8 3.2-5.6 7-4.5 11.6 4.5-.4 5.6-3 4.5-11.6zM187 415.8c-.7.2-1.3.3-2 .5 0 4.2-1.5 8.8 2.7 11.7.7-.2 1.4-.4 2.1-.5-1-3.9-1.9-7.8-2.8-11.7zm193.8-112c.1.4.2.8.3 1.3 2.1 0 4.6.7 6.2-.2 1-.6.8-3.5 1.3-6.7-3.5 2.5-5.7 4.1-7.8 5.6z"/>
  <path d="M101.2 465.4c3.7-.2 7.3-.6 11-.6 102.8-.3 205.6-.6 308.4-1l165-.6h9.6c-.4.7-.6 2-1.1 2.1-1.2.3-2.5.1-3.8.1H101.2zM595.2 448.9c-.6-6.8-1.6-13.7-1.7-20.5-.1-13.7.6-27.5.6-41.2.1-21.4 0-42.8-.1-64.2l-.3-109.4-.9-210.3c0-1.1.1-2.2.1-3.3.7.4 2 .6 2.1 1.1.3 1.2.1 2.5.1 3.8.1 148 .1 296 .1 444zM0 113.3c.5.2 1.5.5 1.5.7.2 21.9.4 43.8.3 65.7-.1 21.9-.7 43.7-.8 65.6-.1 27.4 0 54.9.1 82.3.1 26.9.5 53.8.5 80.7 0 17-.1 33.9-.5 50.9-.1 2 3.8 4.2 0 6.1-.4-1.6-1.1-3.3-1.1-4.9V113.3z" fill="#fff"/>
  <path d="M2.3 1.1c-.8.4-1.5.7-2.3 1.1L2.2 0c-.1.4 0 .7.1 1.1z"/>
  <path d="M2.3 1.1C2.2.7 2.1.4 2.2 0h1.1c-.3.4-.7.7-1 1.1zM233.9 240.2c.7-3.5 1.2-6.1 1.7-9.2 6.9 1.2 12.2-.7 16-6.9 5-8 2.2-19.6-5.6-26.7-2.7-2.4-6.1-3.9-9-6.2-5.7-4.5-10.1-.8-14.9 1.8-1.6.9-4.1 1.4-5.8.9-11.4-3.5-22.6-8.3-34.2-10.6-8.8-1.8-18.3-1-27.4-.4-5.4.4-11.3 1.8-16 4.4-6 3.3-12.1 7.4-16.3 12.6-4.8 5.9-8.4 13.2-11.3 20.4-2.7 6.8-2.3 13.8.6 21.2 3 7.5 9.7 11.6 13.3 17.8-3.3.8-6.4 1.7-9.7 2.4-5.3 1.2-6.8 5.5-6.5 9.9.7 13.1 4.6 22.7 19.3 27.4 3.2 1 7.1.8 10.4 0 3.6-.9 6.2-.6 9.6 1.3 6 3.3 11.3 8.8 19.1 7.7 2.7-.4 5.4-1.2 8.2-1.4 1.9-.1 3.8.5 5.7.8-1.2 1.3-2.3 3.3-3.7 3.7-4.8 1.4-6.1 4-3.9 9.1-5.9-5.8-12.2-3.7-18.3-2.4-6.5 1.4-11.7 4.9-15.6 10.4-1.8 2.5-3.9 4.8-5.6 7.4-5.1 7.6-3 14.6 2 21.3.6.8.8 1.9 1.6 3.9-13.2-2.3-25.7-4.6-38.4-6.8 1.5-1.9 2.9-3.7 4.2-5.5-.2-.3-.5-.5-.7-.8-1.9.7-3.8 1.4-6.8 2.5 5.5-7.9 10.3-14.6 14.9-21.4.6-.9.4-2.2.6-3.4-1.2.2-2.7 0-3.7.7-2.8 1.8-5.3 4-8.6 5.4 3-3.9 6-7.7 9.1-11.6-.6-.5-1.2-1-1.8-1.4-3.3 3.8-6.5 7.7-9.7 11.5v-6.1c-1.9.3-3.9.7-5.8 1 .8-7.1 10.4-12.2 6.6-22.6-4 4.8-7.1 8.6-10.2 12.4-.2-.1-.4-.3-.5-.4 3.6-9.9 7.2-19.7 10.8-29.6-.7-.5-1.4-1.1-2.1-1.6-1.7 1.4-4 2.6-5 4.4-3.6 6.8-6.8 13.8-10.2 20.6-1.5 3-3.3 5.9-5 8.8-.4-.2-.8-.5-1.2-.7l10.5-23.4c2.2-4.9 4.4-9.8 6.2-14.9.5-1.5-.4-3.5-.7-5.2-.5-.1-1.1-.2-1.6-.3-1.6 3-3.2 5.9-4.7 8.9-.3-.1-.5-.2-.8-.2.2-1.2.3-2.4.7-5.2-9.5 8.6-12.2 19.9-18.4 28.8-6.4 9.2-11.2 19.5-17.8 28.9.4-1.4.5-3 1.2-4.2 8.8-15.8 17.7-31.6 26.5-47.4 1.1-1.9 1.6-4.1 2.4-6.2l-1.8-1.2c-4 4.9-7.9 9.7-11.9 14.6-.3-.2-.6-.4-1-.6 5.4-8.9 10.7-17.8 16.1-26.7-.7-.5-1.3-1.1-2-1.6-1.8 1.6-3.8 3.1-5.3 4.9-6.7 8.9-13.2 18-19.8 27-.7 1-1.8 1.7-3.2 2.9 6.2-12.7 12.1-24.6 18-36.6.5-1 1.4-1.9 1.4-2.9.1-1.5-.4-3.1-.6-4.6-1.1.9-2.8 1.5-3.3 2.6-4.6 9.1-8.9 18.4-13.4 27.6-.4.8-.8 1.5-1.3 2.3-.5-.2-.9-.4-1.4-.6 5.5-12.5 11-25 16.6-37.9-.9-.5-2.1-1.2-3.3-1.9-2.9 5-5.6 9.7-8.3 14.5l-1.8-.9c6.1-11.3 12.3-22.7 18.4-34-.2-.3-.5-.6-.7-.9-1.7 1.5-3.9 2.6-5.2 4.4-8.9 12.7-17.5 25.5-26.3 38.3-.4.6-1.1 1-2.7 1 .8-2.1 1.2-4.3 2.3-6.2 7.7-13.5 15.5-27 23.3-40.4.5-.9 1.4-1.7 2.1-2.5 2.4-2.6 2.1-4.6-1.4-6.2-9.3 15.5-18.7 30.9-27.7 46.4-1.8 3.2-2.6 7.1-3 10.8-.2 1.5 1.3 3.5 2.6 4.7.4.4 3.1-.7 3.9-1.8 4-5.2 7.7-10.6 12.4-15.6-2.2 5.5-4.2 11.1-6.6 16.6-1.5 3.4-3.9 6.5-5.4 9.9-.7 1.7-.5 3.8-.7 5.7 1.7-.9 4.1-1.4 4.9-2.8 2.6-4.6 4.6-9.6 6.9-14.4.6-1.2 1.4-2.2 2.1-3.4.4.2.8.4 1.3.5-.6 1.7-1 3.4-1.7 5-4 9.2-8.2 18.2-11.9 27.4-1.1 2.8-1 6-1.9 8.9-.8 2.6-2.4 5.1-3.2 7.7-.4 1.2.2 2.7.4 4.1 1.3-.6 3.1-.9 3.8-1.9 6.9-9.7 13.5-19.6 20.3-29.4.6-.9 1.5-1.5 3.3-1.7-9.3 15.3-18.6 30.6-28 45.8 3.5 3.2 5.9 1.7 7.6-1 5.7-9.3 11.1-18.8 16.8-28.1 3.2-5.2 6.6-10.2 10-15.3.4.3.8.5 1.3.8-10 17.5-19.9 34.9-30.1 52.7 1.2 1 2.5 2.1 4.6 4 5-7.3 9.9-14.6 14.8-21.9.5.2.9.3 1.4.5-1.5 3.6-3.8 7.2-4.3 11-.5 3.6-6.9 6.5-.8 11.9 8.4-17.7 16.6-35 24.8-52.3.4.2.9.3 1.3.5-2.1 5-4.1 10.1-6.2 15.1-4.4 10.3-8.9 20.6-13.1 31.1-.5 1.3.4 3.2 1.6 5.1 11.3-16.1 17.5-34.7 27-51.5.4.2.9.3 1.3.5-7 17.4-14 34.9-21.1 52.3.8.4 1.5.7 2.3 1.1 6.5-12 13.1-24.1 19.6-36.1.6.3 1.1.6 1.7 1-4.2 7.9-8.3 15.9-12.6 23.8-1.1 2.1-2.5 4-3.6 6-4 7.8-4.5 7.8-12.8 6.9-11.6-1.3-23.2-2.1-34.8-3.1-6.3-.5-12.6-1-19.6-1.6V154c5.5 0 9.8.1 14.1 0 18.1-.7 36.1-1.5 54.2-2.4 4.1-.2 8.2-1.3 12.4-1.7.8-.1 2.2 1.5 2.7 2.5 2.7 6.8 5 13.7 8 20.3.9 2 3.3 3.6 5.4 4.8 1.8 1.1 3.6 1.2 3.4-2.2-.2-5.7.2-11.4.2-17.1 0-9.3.7-10.6 9.3-8.4 8.9 2.3 17.8.7 26.6 1.8 13.1 1.6 26.2 2.9 39.3 4.4 12.4 1.4 24.7 3.4 37.1 4.3 9.1.7 17 3.8 24.6 8.3 10.3 6.2 21.2 10.9 32.9 13.8 8.7 2.2 17.5 4.6 27 7.1-13.3 11.1-19.6 24.7-17.7 41.4-6.4 2.9-9.4 7.3-8.8 12.6.8 6.6 3.9 9.7 11.3 11.7 1.4.4 3.2 1.6 3.7 2.8 6.5 17.1 19.4 26.9 36.1 32.6.8.3 1.6.9 2.4 1.3-4.4 9.3-7.3 10.7-17.4 7.7-6.1-1.8-12.2-3.5-18-5.9-6.4-2.6-7.1-4.8-5.1-11.3 1.3-4.1-3-11.1-7.2-11.9-6.4-1.2-8.9 1.9-7.3 10.3-4.1-1.7-7.8-3.5-11.6-4.7-1.5-.5-3.8-.1-5 .8-7.1 5.1-8 7.6-5.1 13.6-1 1.1-2.5 2.1-3.1 3.5-.7 1.7-1.7 4.4-1 5.4 4.7 5.9 9.7 11.6 14.9 17.1 2.6 2.8 5.9 3.7 9-.6 2.8 3.2 5.3 5.9 7.7 8.8 4.5 5.5 9.7 8.8 17.4 8.7 3.6 0 7.2 3.4 10.7 5.4 4.7 2.7 2.6 6.7 1.7 10.4-2.3 9.6-4.5 19.2-6.9 28.8-.2.9-1.7 2.2-2.5 2.2-2.2 0-4.8-.2-6.6-1.3-.8-.5-.4-3.7.3-5.4 1.4-3.3 4.1-6.3.2-9.3 2.6-5.3 5-10.2 7.4-15.2l-.6-1.5c-1.5.6-3.1 1.1-4.5 1.8-2.6 1.3-5.1 3.5-6.9-1.1-.3-.8-2.3-1-3.6-1.5 1.2-2.5 2.5-5.3 3.7-8.2.3-.8 0-1.8 0-2.8-1 .4-2.3.6-3 1.3-4.8 5.5-9 11.6-17 14.6 3.7-6.8 7-12.9 10.3-19l-1.5-1.2c-2.6 3.1-5.1 6.2-8.8 10.6.8-4 1.3-6.4 1.8-8.8-.3-.1-.6-.2-.9-.4-1.1 1.8-2.1 3.6-3.2 5.4l-1.2-.3c.9-4.4 1.9-8.9 2.8-13.3-.7-.2-1.3-.5-2-.7-1.5 3.7-3.2 7.4-4.6 11.1-.7 1.8-.6 4-1.4 5.7-1.1 2.5-1.5 4.2 1.3 6.4 2.4 1.9 2.4 4.6.8 8.2-1.9 4.1-1.3 9.3-1.8 14.1-.1.7-.2 1.4-.5 2-2 3.6-4.1 7.1-5.9 10.2-7.5.4-14.6.7-21.8 1-.5-2.5-.8-4.6-1.3-7 8.6 1.5 15-1.8 19.5-9.4 3.8-6.5 3.2-16.9-4.9-25.4-1.1-1.2-2.3-2.4-3.5-3.5-7.3-6-7.3-5.9-4.5-14.9 2.1-6.7-5.4-18.7-12.3-18.9-2.4-.1-5.8 1.4-7.1 3.3-3 4.4-2.6 4.7-9.3 1.8 1.7-2.2 3.1-4.4 4.8-6.3 4.8-5.4 9.8-10.5 14.4-16 1-1.2.4-3.7.5-5.6-4.2-.7-7.8-1.3-12.5-2 1.9-1.9 3.2-4.1 5.1-5 5.5-2.5 11.3-4.5 17-6.7 5.9-2.2 6.6-5.1 2.8-10.3-1.8-2.4-4.5-4.9-1.2-8.6.9-1 .1-4.9-1.2-6.2-1.6-1.6-4.5-2.1-6.9-2.8-.7 0-1.6.6-3.7 1.1zM586.1 163.3c-.4 3.5-.8 5.7-.8 7.8-.1 11.8.1 23.5-.1 35.3-.1 7.3-1 14.5-1 21.8.1 12.4.9 24.9.9 37.3 0 8.2-1 16.5-.9 24.7 0 9.3.8 18.7 1 28 0 1-1.7 2.9-2.5 2.9-10.2-.5-20.4-1.8-30.6-1.9-17.6-.2-35.3.5-52.9.5-10 0-20.1-.8-30.1-.5-9.2.2-18.4 1.3-27.6 1.9-1.6.1-3.1 0-5.3 0 2.2-3.5 3.8-6.6 5.9-9.1 1-1.2 3.2-1.8 4.9-1.8 5.6.1 7.8-1.9 8.4-7.5.2-1.8 1-3.9 2.2-5.2 2.6-2.8 2.9-5.5 1.1-8.9-.5-1-.5-2.7-.1-3.7 3.6-7.7 1.4-11.5-7.2-12.6 2.4-4.5.8-8.9-3.9-11.3-3-1.5-7.9 1.9-9.8 6.6-.9 2.1-1.8 4.3-2.8 6.8-1.6-3.7-2.3-6.8-4.2-8.8-1-1.1-4.9-.9-6.2.2-4.6 3.6-4.8 10.2-1.5 17 .6 1.2.9 3.2.3 4.1-6.7 10.7-9.4 14.4-21.8 11.1-2.2-.6-4.7-1.4-6.9-1-4.4.9-4.6-3.7-7.2-4.9 1.6-1.5 3-3.3 4.8-4.4 14.6-8.6 23.5-21.3 27.7-37.5 1-4 3.2-8.4 2.4-12-2.2-9.4-5.5-18.6-8.9-27.6-1.7-4.6-4.7-8.7-6.9-12.5 10.5-.5 20.4-1.1 30.4-1.4 1.3 0 3.7 1.5 3.8 2.5.7 7.5 1.2 15 1.3 22.5.1 5.5-.8 11-1 16.5 0 1.5 1.2 3 1.8 4.4 1.2-.8 2.6-1.4 3.6-2.5 9.8-11.4 14.4-24.8 15.5-39.7.1-1.4 2.4-3.6 3.8-3.8 14.5-1.4 29.2-1.3 43.5-3.7 17.2-2.9 34.5-6.6 50.1-15.2 6.8-3.8 13.8-7.2 20.7-10.9 2.1-.6 3.8-1.9 6.1-3.5zM346.1 423.8c-2.1-.2-4.1-.4-6.9-.6 3.7-.8 6.7-1.5 9.6-2.1-.1-.9-.3-1.7-.4-2.6-21.2 2.6-42.4 5.1-63.7 7.7 1.5-5.1 1.6-4.6 6.6-5.1 6-.6 11.9-2.2 17.9-3.1 1.6-.2 3.3.3 3.3.3 3.9-1.1 6.4-2.4 8.9-2.4 6 0 11.9.9 17.9.8 2.4 0 4.9-1.6 7.1-2.4 7.1 4.4 14.4 9.3 22 13.4 6.3 3.4 15.4-.9 18.4-6.5 1.6-3 4.2-5.5 7.2-9.2 1.3 3.2 2.1 5 2.7 6.5 2.2.2 4.3.6 6.2.4 1.3-.2 2.4-1.5 3.6-2.3-1.2-.6-2.3-1.4-3.5-1.6-1.1-.2-2.3.4-3.4.6 0-.7-.1-1.3-.1-2h16.2c-.1-1.9-.3-3.2-.4-4.8h8.8c-.3.3-.5.6-.8 1 4.7 3.1 9.1 7 14.2 9.1 5.8 2.4 16.1-3.2 18.9-8.6 1.9-3.8 4.3-7.4 6.7-10.9.6-.8 2.5-1.1 3.7-1 7.7.6 15.4 1.4 23.1 2.2 4.6.5 9.2 1.2 13.8 2 3.2.5 6.3 1.4 9.4 2.1 14.3 3.1 28.7 6 43 9.2 7.3 1.7 14.5 4 21.6 6.2 2.5.8 4.8 2 7.1 3-.3 2.3-1.3 4.3-.7 5.7 2 5.3-1.5 6.9-5.2 7.9-12.6 3.4-25.1 7.4-37.9 9.6-17.2 3-34.7 5-52.1 6.6-15 1.4-30.1 1.8-45.2 2.3-14.1.5-28.1 1-42.2.9-21.2-.1-42.4-.8-63.6-.8-23.6-.1-47.3.3-70.9.5-12.6.1-25.3 1.2-37.8.1-10.1-.9-20.2 1.8-30.3-.4-2.3-.5-4.9.9-7.4.8-1.2-.1-3.2-1.5-3.4-2.5-.7-5.8-.9-11.6-1.3-17.4-.1-.9.1-1.8.3-3.5 7.4 3.2 14.4 6.1 21.3 9.4 3.9 1.9 12.6 1.2 15.1-2.4 2.6-3.8 5-8.1 6.1-12.5 2.2-8.9 8.1-12.3 16.2-8.1 4.3 2.2 8.7 4.4 12.3 7.5 8.4 7 17.3 5.1 26.5 2.8 1-.2 2.5-.8 3-.3 4.9 4.4 9.9 1.5 15 .7 3.9-.6 7.9-.8 11.8-1.1 7.4-.6 14.9-1.2 22.3-1.7 1.2-.1 2.4.7 3.5.5 2.2-.4 4.4-1.3 6.5-2-.1-.5-.3-1.2-.6-1.9zm110.7-6.2c24.6.6 48.9 1.3 73.3 1.9.1-.6.3-1.2.4-1.8-1.4-1-2.7-2.5-4.2-2.7-4.5-.7-9-1.1-13.5-1.2-13.6-.1-27.1 0-40.7-.1-1.7 0-3.5-.6-5.2-.9.1-.5.1-.9.2-1.4 8.7.4 17.4.9 26.1 1.2 1.8.1 3.5-.8 5.3-1.3l-.3-1.8-6.6-.6c-4.7-.5-9.5-1.7-14.2-1.4-5.1.2-11.3-2.9-15.5 3.1 1.5.9 2.5 1.5 4.2 2.5-7.7 1-7.7 1-9.3 4.5zM584.3 327.2v88.5c-4.1-1.5-8.6-3.4-13.2-4.7-7.5-2.2-15.1-4.1-22.8-6-7.1-1.7-14.3-3.3-21.5-4.6-7.4-1.3-14.9-2.4-22.4-3.2-11.6-1.3-23.3-2.1-34.9-3.4-4.9-.5-5.5-4.7-4.8-8.2 1.6-8.2-1-15-4.5-22.1-2.8-5.6-7.1-8.6-12.7-9-8.8-.7-13.8 4.9-17.3 12.2-.8 1.7-1.6 3.5-2.1 4.4-6.8-1.6-12.9-3.1-19.6-4.7-1.4-8.3-3.1-18.3-5-29.1 6.3 2 11.2 2 12.7-5.5 6.1 2.6 10 .2 14.7-3.5 3.5-2.7 9.7-2.5 14.7-2.8 9.2-.4 18.4-.1 27.6-.1 10.4 0 20.8-.8 31.1.2 9.8 1 19.3-.9 29-.4 9.9.6 19.8-.1 29.7.2 7.3.5 14.5 1.3 21.3 1.8z" fill="#fff"/>
  <path d="M364.7 290.7c-8.6-1.1-17.4-1.6-25.8-3.6-10.6-2.6-20.6-7.7-28.6-15.1-4.8-4.5-7.9-11-10.9-17-1.5-3-2.4-5.2-6.2-5.5-4-.3-6.1-3.4-5.8-7 .2-3 .9-6.6 5.8-6.2.8.1 2.7-3 2.6-4.4-.9-10 0-19.8 5.8-28.3 4.8-7 9.8-13.7 18.1-17.7 13.2-6.3 27.1-9.2 41.4-7.3 8 1.1 15.7 5.4 23.4 8.4 2.1.8 3.9 2.4 5.9 3.6 13.7 8.2 19 21.9 23.3 36.1 1.6 5.3 2.6 11.1 2.1 16.5-.8 9.7-3.3 19.2-9.7 26.8-10.8 12.7-24.6 19.1-41.4 20.7zm6.6-41.2c-11.2.3-13.3 1-21.5 6.2-2.6 1.7-5.6 3.4-4.1 6.6 1.4 2.9 4.2 6.4 6.9 7 7.2 1.6 14.8 2.7 22.1 2.1 5.6-.4 11.3-2.8 14.6-8.7 3.1-5.7 1.2-10.8-5.1-11.8-4.2-.7-8.6-1-12.9-1.4zm6.2-31.6c3.2 2 5.4 3.5 7.6 4.7.3.2 1.9-1 1.8-1.1-1-2.3-2.1-4.5-3.4-7 5.2-6.1 2.7-13.7-7-18.5-.9 1.1-1.8 2.2-2.7 3.4 2.1 1.7 4.7 2.8 5.3 4.5.8 2.5 1.1 7-.3 8-4.7 3.4-10.4 5.3-17 4.4 3.7-2.1 7-3.8 10.2-5.6-.1-.5-.2-1.1-.2-1.6-1.8-.4-3.7-1.3-5.3-.9-3.8.9-7.4 2.5-11.1 3.7-2.4.8-4.8 1.3-7.2 1.9-.1-.5-.2-.9-.4-1.4 6.5-2.5 6.5-2.5 5.4-6.8-2.2.9-4.4 1.7-6.4 2.8-1.7.9-4.2 2-4.5 3.4-.3 1.5 1.5 3.5 2.8 6-1.2.6-3.1 1.7-5.1 2.8l1.3 1.3h7.8c1.4-2.1 4.1-4.3 5-3.7 8.7 5.5 16.7 1.9 23.4-.3zm-12.9 20.7c4.2 5.6 9.8 5.7 13.6 2.1 4-3.7 1.7-7.7.9-11.3-1.1-4.6-8.5-7.7-12.9-5.9-.8.4-1.9 1.6-1.8 2.3.1 1 1 2.4 1.9 2.8 1.9.8 4.4.6 6.1 1.7 1.4.9 2.4 3.1 2.5 4.8.1.7-2.4 1.9-3.9 2.4-1.8.7-3.7.7-6.4 1.1zm-21.3-9.1c1.3 4 3.3 7.2 7.6 5.5 1.3-.5 2.6-5.3 1.7-6.9-3.8-6.2-6.1.6-9.3 1.4zm42.3 6.8c2.3-2.8 4.8-4.8 4.4-5.6-.9-2-2.8-4-4.8-4.8-.8-.3-4.1 2.5-4 3.8.1 1.8 2.2 3.6 4.4 6.6zM138.6 455.3c-4.5-11.5-9.6-21.5-20.1-28.9-8-5.6-16.2-9.9-25.2-13.5-5.6-2.2-11-5.2-16.4-8.1-4.5-2.4-6-6.9-4.5-11.8 3.1-10.2 10.7-15.9 19.6-20.5 11.7-6 24-5.5 36.7-5.5 9.9 0 18.3 2.5 26.4 7.6 11.1 6.9 16.5 18.1 20.4 29.7 2.5 7.6 1.9 16.2 4 24 2 7.6 3.5 15.1 3.1 22.9-.2 2.9.7 5.1-4.5 4.7-9.7-.8-19.6.5-29.5.6-3.5 0-7-.9-10-1.2zM169.8 262.7c3.4 0 6.7.3 10.1-.2 1-.1 1.7-2.1 2.6-3.2-1.4-.5-3-1.7-4-1.3-5.1 1.9-6.9-2.1-8.8-5-2.1-3.3-.4-9.6 2.7-9.9 3.3-.2 6.8 1.7 10.2 2.6 1.3.4 2.6.7 4 1.1.2-.5.3-1.1.5-1.6-2.6-2-5.2-4.1-8.2-6.4 12.4-5.6 10.9-14.3 5.1-24.8 4.5 1.8 7.4 3 10.5 4.1 4.6 1.6 8.7 1.6 12.3-2.6.9-1 3.6-.9 5.3-.7 2.5.3 5 1 7.2 2.1 1.6.8 3 2.2 4.2 3.6 1.3 1.5 2.4 3.3 3.7 5.1-1.6 2.2-6.3 3.7-3.9 8.4 2.7-1.6 5.1-3 8.2-4.8-.8 3.4-1.3 6-2.1 8.5-.3.8-1.6 2.1-1.9 2-4.9-1.9-4.9 2.7-4.9 4.6 0 2.4 2.1 4.8 3.2 7.2.6-.3 1.3-.6 1.9-.8-.2-2.7-.4-5.4-.7-10.2 3.1 11.9 8.9 2.2 13.2 4.1.2 1.2.4 2.4.8 4.2-1.5-.3-2.6-.6-5.4-1.2 1.6 3.3 2.4 6 4 7.9 4.2 5.1 3.6 6.8-2.4 8.9-7.3 2.5-15 4.8-19.7 11.8-3.3 5-1.4 8.6 4.6 8.9 1.8.1 3.6 0 5.8 0-.6 6.5-5.7 9.5-9.7 11.7-5.5 3.1-7.8 6.6-6.9 12.5.6 3.8-2.1 4.8-4.8 5.4-3 .7-6.1.9-9.1 1.2-4 .4-8.3.1-10-3.9-1.8-4.2-5.9-8.4-1.2-13.7 2.4-2.7 2.4-6.4-.5-9.8-1.3-1.5-1.8-4.2-1.9-6.4-.3-9.6-3.3-14.3-12.2-17.9-.7-.3-1.4-.6-2.1-.8 0-.3.2-.5.3-.7z" fill="#fff"/>
  <path d="M104.2 361.3c-3.7 1.5-6.2 2.7-8.8 3.6-11.1 3.9-19.8 10.5-26 20.6-5.8 9.4-5.6 16.5 2.8 23.6 1 .8 1.2 2.6 2.2 5.1-6-3.3-10.7-5.8-15.3-8.4-2.4-1.4-4.5-4.9-7-.1-.1.2-2.3-.4-3.2-1.1-3-1.9-5.8-4.1-8.7-6.1-2.7 2.1-3.9 3.5-.3 6.2 10.3 7.8 20.1 16.1 30.2 24.2 1.9 1.6 3.9 3.1 5.4 5.2-9.9-3.6-20.4-6.1-27.5-14.9-2.3-2.9-4.9-6.2-8.1-7.5-6.4-2.7-10.9-7.4-15.5-12.2-.6-.6-1.6-.9-2.9-.9 4.6 10 12 17.4 20.8 23.8-.3.5-.7 1-1 1.4-3.2-1.9-6.9-3.2-9.5-5.8-6.2-6.2-11.5-13.3-17.8-19.3-3.8-3.6-4.5-7.7-4.6-12.3-.1-10.8 0-21.6 0-33.4 4.6 0 8.3-.2 12 0 8.2.6 16.3 1.5 24.4 2.2 13.9 1.1 27.7 2.1 41.6 3.4 5.1.6 10.3 1.7 16.8 2.7zM169.6 119.2c12.5-4.5 24.9-8.9 38.4-13.8-3.4 21 5.4 36.9 22.2 50.7-6.8-.9-12-1.6-17.2-2.2-18.1-1.9-35.8-6.7-54.2-6.7-13.2 0-26.5-2-39.7-3.1h-1.6c-2.2-.1-5.4.5-6.4-.6-1.2-1.5-.8-4.4-.8-6.7.1-2.6.5-5.1.9-7.7.7-4.6 2.8-6.1 8-6 6.9.3 13.9 1.1 21-1.6 5.7-2.1 12.5-.9 18.8-1.5 3.3-.3 6.6-1.1 9.8-1.6.4.3.6.5.8.8zM392.2 302.6c2.9.7 5.5 2.1 8 2 6.6-.4 8.3 3.3 8.6 8.8.3 6.3.7 12.7 1.1 19.5h-7.2c-2.4-6.3-4.9-12.9-7.4-19.8-3.5 2.5-2.9 4.2-1.4 8.9 2.7 8.5 4.4 17.2 6.5 25.9 0 .2-.4.5-1.1 1.3-1.9-3.4-3.7-6.6-5.6-9.7-2.5-4.1-5-4-7.7 0-2.4 3.5-4.8 7-7.3 10.6-3.3-4.6-6.5-8.8-9.4-13.2-2.4-3.8-4-2.9-6.1.3-3.6 5.6-7.4 11.1-11.4 17-3.4-5.7-6.3-10.3-8.9-15.1-1.6-3-3.2-3.1-5.2-.7-4 4.9-7.8 10-11.8 14.9-5-4-6.3-9.5-2.4-15.7-3.4-2.1-6.7-4.2-11.2-7 1.2-7.4 2.7-16 4.1-24.3 5-.6 9.7-1.4 14.3-1.5 1.9 0 4.1 1.2 5.6 2.4 3.1 2.6 5.8 5.6 8.6 8.5 2.3 2.4 3.6 1.7 5.2-.9 3.3-5.2 10-8.3 14.8-5.6 3.9 2.2 6.8 2.6 10.6.9 1.1-.5 2.6-.3 3.8 0 9.4 2.2 9.7 2.1 12.9-7.5z" fill="#fff"/>
  <path d="M123.7 449.5c.9-1.1 2.1-2.5 3.6-4.3 1.7 3.9 3.2 7.2 4.9 10.9H10.1v-41c2.5 2.6 4.4 5.2 6.9 7.1 3.6 2.8 7.5 5.3 11.4 7.7.7.5 2.8.3 3-.2 2.7-5.2 5.8-1.9 9.1-.8 3.8 1.2 7.8 1.6 11.7 2.4 2.1.4 4.2.9 6.2 1.7 5.4 2.2 10.7 4.9 16.2 6.8 3.5 1.2 7 .9 7.5-4.1 3.5 1.2 6.6 2.6 9.8 3.2 2 .4 4.3-.8 6.3-.4 4.3.7 8.7 1.3 12.6 3 4.4 1.9 8.3 5.1 12.9 8zM10.4 149.1v-40.4c25.6 10.1 51.9 14.7 79.5 14.2.4 6.8.8 14.2 1.3 22.9-8.7-.5-17.3-1.2-25.9-1.4-4.3-.1-8.7.6-13 1.1-2.7.3-5.4 1.2-8.1 1.3-8.3.4-16.7.5-25 .9-3 .2-5.9.9-8.8 1.4zM11.8 9.5H245c-6.4 8.1-13.3 16.9-20.5 26.1-2.3-1.9-5.7-4.9-9.3-7.8-8-6.2-17.1-9.6-27.1-10.8-12.8-1.6-25.6-4.4-38.4-4.6-17.4-.4-34.9.8-52.3 1.8-20.5 1.1-41 1.7-61.2 5.7-7.7 1.5-15.2 3.9-22.8 5.6-.9.2-3.1-1.3-3.1-2 .2-4.4.9-8.8 1.5-14zM159.5 365.5c-14-.7-22.5-10.8-22.8-21.4-.2-7.8 5.3-14 11.7-17.3 7.8-4 16.6-7.8 25.3-1.2.7.5 1.8.9 2 1.6 3 9.5 5.7 19.1.2 28.5-3.6 6.2-9.1 9.8-16.4 9.8zM259.1 298.4c1.7-4.7 4.7-5.7 8-5.7 3 0 5.9-.4 5.4-3.9-.2-1.1-3.5-1.9-5.5-2.7-1.6-.6-3.4-1-5.4-1.7 2.5-4.4 6-2.8 9.1-2.1 2.1.4 4 1.6 6 2.4 5.7 2.4 7 1.6 7.2-4.6.1-1.6.1-3.2.2-4.9 5.5.9 6.5 2.8 5 8.3-1.9 6.8.1 11.4 6.4 14.4 4.5 2.1 9.2 3.8 13.7 5.9.9.4 2.2 1.8 2.1 2.7-.6 6.3-1.4 12.5-2.3 18.7-.2 1.1-1.2 2.1-2 3.6-4.3-1-8.8-1.7-12.8-3.3-2.1-.8-3.5-3.4-5.1-5.2-3.1-3.5-6.2-7-8.7-9.8-3.8 1.1-6.4 1.8-9.1 2.6-.1-.5-.3-1-.4-1.5 1.5-1.9 3-3.8 4.4-5.6-4.6-5-6 1.4-9.8 2.3-3.2-6.8 6.4-5.8 6.1-10.7-3.6-6.4-7.4-.3-12.5.8zM427.9 271c1.8 3.9 3.3 7.4 4.9 10.8 7.3-2.8 5.5-12.8 14.2-13.7-.9 1.5-1.8 2.9-2.6 4.4-.7 1.5-1.1 3.1-1.6 4.6 1.7.5 3.4 1.4 5.2 1.5 2.3.2 4.6-.2 7-.4.3.5.6 1.1.9 1.6-1.2.8-2.4 1.7-3.8 2.3-1.8.7-3.7 1-5.4 1.4.6 6 9.9 4.2 7.7 11.8-1.7-1.1-3.3-2.1-5-3.3-7.6 3.9 3.7 8.9-.7 13.4-2.8-4.3-5-3.6-7.4.6-3.3 5.7-6.9 11.3-10.9 16.5-1.5 2-4.3 3.3-6.8 4.1-2 .6-4.6.5-6.6-.2-1.4-.5-3-2.3-3.2-3.7-.7-5.1-1.2-10.3-.9-15.4.1-1.7 2.4-3.4 3.8-5 3.6-4.1 7.7-8 10.9-12.4 2.1-3 2-6.5-.6-10-3.1-4.1-2.2-7.6.9-8.9zm16 17.8c-.5-.8-1.1-1.6-1.6-2.3-2.5 1.6-5.1 3.1-7.4 4.8-.3.2.1 2.2.8 2.8.6.6 2.4.8 2.9.4 1.9-1.8 3.6-3.8 5.3-5.7zM234.6 315.8c-2.2-2.6-3.9-4.7-5.8-7 7.2-.8 13.1 7.8 10.5 14.7-3.8 10.1-3.8 10.6 5 16.9 10.1 7.2 11.1 15.6 6.6 26.1-1.4 3.3-9.6 4.5-14.6 2.2-7.5-3.4-10.1-8.3-9.8-17.4.1-3.8-.3-7.6-1-11.3-.2-1.3-2-2.5-3.3-3.3-1.1-.6-2.6-.6-4.1-.9 1.2-5 10 .9 8-6.3-.5-1.9-4.7-2.8-8.2-4.6 1.5-.4 3.2-1.4 4.7-1.2 1.9.3 3.6 1.5 5.4 2.4.5-.5.9-1 1.4-1.6-1.8-3-3.5-5.9-5.3-8.9 3.8-2.3 6.9 4.5 10.5.2zM385 399.8c-8.8 3.9-17.3 7.7-25.8 11.4-10.3-13.7-8.8-31.5 4.8-42 4.2-3.2 9.5-2.5 12.4 1.9 5.9 9.4 6.8 14.6 8.6 28.7zM224.6 414.8c-8.8 3.6-16.3 6.8-24 9.7-1.1.4-3.8-.3-4.2-1.3-4.4-9.4-7.3-19.2-4.7-29.6 1.9-7.6 8.4-11.6 15.7-9.4 2.9.9 5.8 4 7.2 6.8 3.6 7.5 6.4 15.3 10 23.8zM164.6 373.9c4.8-3.6 9.3-7.1 13.9-10.3 1-.7 3.4-1 4.1-.3 5.4 5.1 9.1 5.4 15 .7 3.5-2.8 7-5.6 10.6-8.4 2.9-2.3 5.5-1.8 8.1-.4 0 .5-.1 1-.1 1.5-.6 0-1.3-.1-1.8.1-1.4.6-2.8 1.3-4.2 2 .8 1.4 1.3 3.1 2.5 4.2 1.6 1.5 3.7 2.5 5.6 3.7l-.9 1.5c-1.7-.9-3.4-1.9-5.4-2.9-4.2 3-.4 6 0 7.9-1.9 1.6-3.3 2.9-5.1 4.4-4.5-2.3-13.9 2.1-17.1 7.4-4.4 7.4-12.7 6.9-16.6.2-2.6-4.4-6.2-8.2-8.6-11.3zM456.4 399.6c-8-2.4-15.4-4.7-22.8-6.8-4.2-1.2-3.6-4.6-3.2-7.3 1.2-6.4 2.8-12.8 4.6-19 1.3-4.3 5.4-6.7 9.1-5.9 4.3.9 9.5 1.4 11.4 7.3 3.6 10.7 3.6 21.4.9 31.7z" fill="#fff"/>
  <path d="M179.1 322.9c3-.6 5.4-1.1 7.4-1.5.9 2 1.3 4.7 2.7 5.5 1.3.8 3.7-.5 5.7-.8.2 0 .3-.2.5-.2 5.8-.5 11.5-1 18.4-1.6-.8 1.3-1.2 3.3-2.4 3.9-3.5 1.8-6.7 5.2-11.4 2.5-1.2-.7-4.3-.2-5 .8-.9 1.3-.2 3.7-.2 4.9 6-.4 11.1-.7 16.7-1-1.9 6.3-6.4 4-9.8 4.4-1.2.1-2.6-1-3.6-.6-1.3.4-2.2 1.8-3.3 2.7 1.2 1 2.4 2.7 3.6 2.7 3 .1 6-.9 9.1-.9 2.3 0 4.7.7 7.7 1.2.1-.5.5-1.8.8-3.1 4.9-1.1 6.9.3 5.3 5.7-.6 2 .5 4.4.8 6.6-3-1.8-5.9-5.1-8.3-4.8-4.2.6-8.2 3.3-12.1 5.4-2 1.1-3.7 2.9-5.6 4.3-5.1 3.9-10.4 2.4-12.1-3.9-.9-3.2-1.7-6.9-1-10.1 1.4-6.2.1-11.6-2.6-17-.7-1.6-.8-3.4-1.3-5.1zM284.8 412.1c-7-2.4-13.7-4.6-20.3-7.3-1.4-.6-3.2-3.2-2.9-4.6 1.6-7.7 3.5-15.3 5.9-22.9 1.4-4.4 9.4-5.3 13.4-1.1 2.6 2.7 5.1 6.4 5.6 10 1.3 8.8 3.9 18-1.7 25.9zM353.6 375.5c-2.9 1-5.8 2.3-8.8 2.9-8.4 1.7-16.9 2.8-25.2 4.8-5.6 1.4-7.9-.9-6.7-7.9.3-1.7 1-3.4 1.6-5.1.6-1.7 1.3-3.3 2-5.2 4.3 2.8 2.3 10.8 9.3 11.1 3.2-6 6.4-12.1 9.8-18 .6-1.1 1.9-1.8 2.9-2.7.8 1 1.9 2 2.5 3.1 2.9 5.9 5.4 12 11.8 15.1.2.7.5 1.3.8 1.9zM305.5 405.6c-3 .4-6.8 1-10.5 1.5 0 .8.1 1.6.1 2.4H312c0 .5-.1 1.1-.1 1.6-7 .6-14 1.2-20.1 1.7.3-7.4.8-14.7.7-22 0-4.1.9-6.3 5.5-5.8 1.6.2 3.3 0 4.9.1 6 .4 7.6 2.9 5.8 8.7-1.1 3.7-2 7.5-3.2 11.8zM585.3 439.7c-.3 5.5-.6 10.3-.9 15.8h-58.1c19.9-3.6 40.2-4.9 59-15.8zM224.6 366.6c6.1 4.8 9.3 12.3 9.6 21 .1 1.3-1.3 3.3-2.5 4-5.5 3.2-8.5 1.9-13-5-1.1-1.7-2.5-3.3-3.4-4.5 3.1-5.1 6.3-10.4 9.3-15.5zM403.3 365.5c1 6.4-7.1 14.6-12.9 14.9-1.2.1-2.8-.9-3.6-1.9-4.2-5.1-4.2-8.6-.6-14 .9-1.4 1.1-3.3 1.7-5 .5-1.4 1.1-2.8 1.7-4.3 6.6 1.6 4.8 12.9 13.7 10.3zM155.5 188.4c-6.7 3-13 4.8-18 8.3-7.6 5.3-13.1 12.6-16.6 21.5-3.7 9.4-4 18 2.3 26.3.2.3-.1 1-.2 1.6-6.5-3.1-9.7-14.8-6.8-25 5.4-19.8 22.4-32.8 39.3-32.7zM282.6 418.5c-2.1 2.5-3.5 5.6-5.3 5.9-3.6.6-7.7.4-11.2-.7-5.7-1.9-7.7-7.6-5.5-13.3 7 2.6 14.1 5.2 22 8.1zM229.3 416.7c-.5-2.6-.6-5.5-1.7-7.8-2.1-4.6.4-6.4 4-8.3 2.3-1.2 4.2-3.1 7.2-5.3.8.2 3 .7 5.2 1.3-3.4 9.7-10.4 19.3-14.7 20.1zM430.3 397.9c8 2.9 15.3 5.6 22.7 8.3-4.1 5-11.2 7.1-17 5-6-2.3-5.7-7.4-5.7-13.3z" fill="#fff"/>
  <path d="M268.3 370.4c5.4-7.1 9.9-13.1 14.5-19.2.3.1.6.3.8.4-1.6 3.6-3.2 7.1-4.7 10.7.5.3.9.6 1.4 1 2.1-1.8 4.2-3.6 6.4-5.4.2.1.3.2.5.3-.6.9-1.1 1.9-1.7 2.8-1.6 2.5-5 4.9.5 7.1.7.3.5 2.6 1 5.3 2.6-2.2 4.6-3.8 7-5.9-1.9 4.3-4.2 8.3 1.1 11.7-.3.3-.6.7-.9 1-1.1-.2-2.7-.1-3.2-.8-5.4-7.6-11.4-13.9-22.7-9zM352 299.3c9.9-1.3 20.7-2.7 32.5-4.3-1.4 1.7-2.9 3.4-4.3 5.2-7.6 9.1-15.7 2.3-23.6.8-2-.5-3.9-1.5-4.6-1.7zM411.9 397.8c-.9-9.6 3.2-15.2 14.5-18.4-2.1 4.6-3.8 8.4-5.5 12.3-.4.8-1.1 1.6-1.2 2.4-.3 6.3-3.6 5.9-7.8 3.7zM204.8 431.8c5.5-2.4 10.7-4.8 16.1-6.9 1.1-.4 2.8.2 3.9 1 .4.3 0 2.2-.4 3.2-3.5 9.2-9.5 10.1-19.6 2.7zM385.1 408.2c2.1 4.5-.7 7.5-3.1 10-5.4 5.4-11.5 3.1-18.9.1 7.9-3.6 14.7-6.7 22-10.1zM128.5 265.4c-4 5.6-7.9 11-11.7 16.3-2.5-3.2-3.9-11.4-1.3-14 4-4 9-2.6 13-2.3zM29.4 424.1c-8.4.1-20.6-13.7-18.8-20.9 6.2 6.9 12.6 13.9 18.8 20.9zM123.9 442.9c-3-2.8-6.2-5.5-9-8.5-3.1-3.2-6.5-4.7-11.1-5.7s-8.5-5.2-12.5-8.2c9.2 2.6 32.1 13.4 32.6 22.4zM366.1 352.6c1.3 2.7 2.6 4.7 3.3 7 .3.8-.6 2.6-1.4 3.1-4.3 2.3-8.7 4.3-13.9 6.7 4.1-5.6 7.8-10.8 12-16.8zM251.9 398.8c-1.7 4.8-3.3 9.6-5.3 15.1-2-.6-4.2-1.4-7.5-2.4 4-5.2 7.4-9.6 10.9-14 .6.4 1.3.9 1.9 1.3zM353.1 305.6c-4.5 6.3-5.6 6.3-10.1.7-1.5-1.9-3.1-3.8-4.7-5.8 2.3.6 4.7 1.2 7.1 2 2.5.9 4.9 2 7.7 3.1zM240 388.8c4.5-.6 8.9-1.4 13.4-1.6 1.7-.1 3.4 1.1 5.1 1.7-1.5.9-3 2.6-4.4 2.6-4.8 0-9.6-.7-14.5-1.1.2-.5.3-1 .4-1.6zM413 409.1c-2.6 2.8-17 3.5-23.4 0H413zM347.1 395.3c1.1 8.6 0 11.2-4.5 11.6-1.1-4.6-.3-8.3 4.5-11.6zM187 415.8c.9 3.9 1.8 7.8 2.8 11.7-.7.2-1.4.4-2.1.5-4.2-3-2.6-7.6-2.7-11.7.7-.2 1.3-.3 2-.5zM380.8 303.8c2.1-1.6 4.2-3.1 7.7-5.7-.5 3.2-.2 6.1-1.3 6.7-1.6.9-4.1.2-6.2.2 0-.3-.1-.7-.2-1.2z" fill="#fff"/>
  <path d="M456.8 417.6c1.6-3.5 1.6-3.5 9.2-4.7-1.6-1-2.7-1.6-4.2-2.5 4.3-6 10.4-2.9 15.5-3.1 4.7-.2 9.5.9 14.2 1.4l6.6.6.3 1.8c-1.8.4-3.6 1.3-5.3 1.3-8.7-.3-17.4-.7-26.1-1.2-.1.5-.1.9-.2 1.4 1.7.3 3.5.9 5.2.9 13.6.1 27.1 0 40.7.1 4.5 0 9 .5 13.5 1.2 1.5.2 2.8 1.8 4.2 2.7-.1.6-.3 1.2-.4 1.8-24.2-.5-48.5-1.1-73.2-1.7zM371.3 249.5c4.3.4 8.7.7 13 1.4 6.2.9 8.2 6.1 5.1 11.8-3.2 5.9-9 8.3-14.6 8.7-7.3.6-14.9-.5-22.1-2.1-2.7-.6-5.5-4.1-6.9-7-1.5-3.1 1.5-4.9 4.1-6.6 8.1-5.2 10.2-5.9 21.4-6.2zM377.5 217.9c-6.8 2.2-14.7 5.8-23.4.2-.9-.6-3.6 1.6-5 3.7h-7.8l-1.3-1.3c1.9-1.1 3.9-2.1 5.1-2.8-1.3-2.5-3.1-4.5-2.8-6 .3-1.4 2.8-2.5 4.5-3.4 2-1.1 4.2-1.9 6.4-2.8 1.1 4.3 1.1 4.3-5.4 6.8.1.5.2.9.4 1.4 2.4-.6 4.9-1.1 7.2-1.9 3.7-1.2 7.3-2.8 11.1-3.7 1.6-.4 3.5.6 5.3.9.1.5.2 1.1.2 1.6-3.2 1.8-6.5 3.6-10.2 5.6 6.6.9 12.3-1 17-4.4 1.4-1 1-5.5.3-8-.5-1.7-3.1-2.8-5.3-4.5.9-1.2 1.9-2.3 2.7-3.4 9.8 4.8 12.2 12.4 7 18.5 1.2 2.5 2.4 4.7 3.4 7 0 .1-1.5 1.3-1.8 1.1-2.2-1.1-4.4-2.6-7.6-4.6zM364.6 238.6c2.7-.4 4.6-.5 6.3-1 1.5-.5 4-1.7 3.9-2.4-.1-1.7-1.1-3.9-2.5-4.8-1.7-1.1-4.2-.9-6.1-1.7-.9-.4-1.8-1.8-1.9-2.8-.1-.7 1-1.9 1.8-2.3 4.3-1.8 11.8 1.3 12.9 5.9.9 3.6 3.1 7.6-.9 11.3-3.7 3.5-9.3 3.4-13.5-2.2zM343.3 229.5c3.2-.8 5.5-7.6 9.3-1.3.9 1.5-.3 6.3-1.7 6.9-4.3 1.6-6.3-1.6-7.6-5.6zM385.6 236.3c-2.2-3-4.3-4.8-4.5-6.6-.1-1.2 3.3-4.1 4-3.8 2 .8 3.9 2.8 4.8 4.8.4.8-2.1 2.8-4.3 5.6zM443.9 288.8c-1.8 1.9-3.4 3.9-5.4 5.6-.5.4-2.2.2-2.9-.4-.6-.6-1.1-2.5-.8-2.8 2.4-1.8 4.9-3.2 7.4-4.8.6.8 1.2 1.6 1.7 2.4z"/>
  <path d="M124.9 60.8c4.6.6 10.3 5.1 10.3 8.6 0 6.3-6.1 5.8-10.3 8.9V60.8zM152.3 67.4c-.8-9.9-.2-10.1 11.1-5.2-4.3 1.9-7.3 3.3-11.1 5.2z" fill="#fff"/>
  <text transform="translate(22.316 83.064)" font-family="Peanuts" font-size="36">INCREDIBLE</text>
  <text transform="translate(248.915 45.412)"><tspan x="0" y="0" font-family="Peanuts" font-size="33">THEN ON CHRISTMAS</tspan><tspan x="0" y="39.6" font-family="Peanuts" font-size="33">EVE HE DELIVERS ALL</tspan><tspan x="0" y="79.2" font-family="Peanuts" font-size="33">THOSE THINGS RIGHT</tspan><tspan x="0" y="118.8" font-family="Peanuts" font-size="33">TO THEIR DOORS!</tspan></text>
</svg>
