<svg xmlns="http://www.w3.org/2000/svg" viewBox="0 0 595.3 462.7" xml:space="preserve">
  <path fill="#fff" d="M0 0h595.3v462.7H0z"/>
  <path d="M595.3 55.2v32c-.3 6.7-.7 13.4-.8 20.1-.2 26.2-.3 52.4-.4 78.6-.1 13.4-.2 26.8-.2 40.2 0 15 .2 30 .1 45-.1 16.9-.5 33.8-.7 50.7l-.3 24.3c-.1 13.4.1 26.7-.2 40.1-.2 9.2-1.5 18.4-1.5 27.5 0 9.5 1 18.9 1.4 28.4.1 2.7-1 5.5-.7 8.1 1.2 12.8-1.1 11.6-9.7 11.5-36.4-.2-72.8-.6-109.2-.7-25-.1-49.9.5-74.9.4-25.5-.1-51-.7-76.5-.8-30.8-.1-61.7 0-92.5.1-37.9 0-75.8.1-113.7.1-3.2 0-6.5-1.4-9.4-.7-6.1 1.4-7.4 1.2-10.1-5.1 1.2-.3 2.4-.8 3.7-.8 15.1-.2 30.2-.3 45.3-.4 11.3-.1 22.6.2 33.9 0 12.3-.1 24.7-.8 37-.8 36.4.1 72.7.5 109.1.7 22.2.1 44.4 0 66.6 0 7.2 0 14.5.2 21.7 0 10.5-.2 21-.6 31.6-.8 4.2 0 8.4.8 12.6.8 11.2 0 22.5-.5 33.7-.4 6 0 12 1.2 18 1.3 12 .1 24-.2 36.1-.2 11.2 0 22.4.2 33.6-.1 1 0 2.8-2.4 2.8-3.7.3-9.1.2-18.1.2-27.2 0-10.5 0-21.1.1-31.6.1-14.1.3-28.2.6-42.4.3-11.1 1-22.2 1.2-33.3.1-7.7-.6-15.3-.5-23 .1-11 .7-21.9.8-32.9 0-9.5-.7-19-.6-28.5.1-10.3.9-20.7 1.2-31 .3-8.9.3-17.7.4-26.6 0-3.7-.2-7.5-.3-11.2-.1-4.5 0-9-.2-13.5-.1-2-.7-3.9-1.2-6.6-3.2 2.8-5 4.9-7.2 6.4-8.4 5.7-16.5 11.9-25.4 16.6-7.6 4.1-16 6.7-24.1 9.6-5.4 1.9-11 3.4-16.6 4.8-11.1 2.8-22.2 5.9-33.5 7.9-8.8 1.5-17.8 1.6-27.3 2.3 2.7 7 5.6 13.6 7.7 20.5 2 6.5 4.1 13.2 4.7 19.9.4 5.4-1.4 11-2.2 16.9 2-2.2 4.2-4.6 6.3-7 .7.5 1.3.9 2 1.4-1.2 2.4-1.8 5.4-3.7 7-4.7 4-7.1 9.2-8.9 14.8-1.7 5.5-5.3 8.8-10.5 10.9-2.1.8-3.9 2.3-5.9 3.5.3.5.6 1 .8 1.5 1.5-.6 3-1.3 4.5-1.9 2.1-.8 4.6-2.8 6.1-2.2 4.6 1.8 9.4 4.1 10.5 10 1.2 6.6 5.2 13.9-3.9 18.3-.5.2-.6 1.2-.7 1.9-1.4 6.2-2.7 12.3-4.1 18.9 4 0 9.1-.4 14.1.1 7.3.7 12.2 8.7 9.5 14.5-1.8 3.9-8.3 5.9-14 5-4.5-.7-9.2-.7-13.8-1-.4.6-.9 1.3-1.3 1.9 1.7 4.5 3.3 9.1 5.1 13.6 3.7 9.2 2.6 18.1-1.4 27.3 2.2.9 5 2.1 7.9 3.3 1.7-4.1 3.2-8 5-11.8 3.9-8.1 10.2-11.6 20.1-10.6 7.3.8 10.4 6.7 13.1 12.6 4 8.7.9 17.2-.9 25.7-.7 3.6-2.1 7.1-2.9 9.8 21.3 1.5 42.1 2.9 62.8 4.4.2 1 .4 2 .5 3.1-1.9.8-3.7 2.1-5.6 2.2-8.7.3-17.4-.1-26.2.3-4.4.2-9 3.4-12.7-1.8-.3-.5-1.9-.1-2.9-.1-6.6.4-13.2.8-19 1.1-3.8 2.9-7.2 7.3-11.4 8.2-7.1 1.5-14.4.2-20-5.8-3.3-3.6-7.1-5.6-12.9-4.2-6.8 1.6-14 1.2-20.9 1.7 0 3.6.2 6.8 0 9.9-.5 5.4-4.4 8.6-8.8 10.3-4.7 1.8-10.2 3.2-15.1 2.5-4.4-.7-8.5-4.2-12.5-6.9s-7.5-6-11.5-8.7c-1.4-.9-4.8-1.2-5.3-.5-2.5 3.9-5.3 1.7-8.2 1.1-4.1-.9-8.2-1.6-12.3-2.3-8.3-1.5-17.2 2.8-25.2-2.4-.5-.3-1.4-.1-2.2 0-8.1.3-16.1.7-24.2 1-1.4 0-3.6.1-4.1-.7-2.3-4-5.4-2.4-8.6-1.9-2.2.4-4.6-.4-7-.7 0-.5.1-1.1.1-1.6 2.5-.2 4.9-.5 7.4-.7 0-.4-.1-.8-.1-1.2-6.9.4-13.7.9-20.6 1.3-.1-.5-.1-1-.2-1.4.8-.5 1.6-1.1 2.4-1.7-9.5.8-18.9 1.6-28.2 2.3-.1-.8-.2-1.6-.3-2.5 9.7-3.4 20-3.1 30.1-3.5 10.4-.4 20.9-1.1 31.3-.9 10.1.2 20.2 1.5 30.7 2.3-1.1-.6-1.9-1-2.6-1.4-8.5-5.5-8.7-9.9-4.8-16.5 2.3-4.1 4.3-8.3 7.1-13.9-7.2 3.7-13.1 6.8-19 9.8-4.3 2.2-7.7.5-8-3.9 10.9.7 27.3-7.3 27.9-12.8-5.3 1.4-10.8 3.2-16.5 4.2-1.8.3-4.5-1.3-5.8-2.9-.9-1.1-.6-3.8.2-5.4 3.8-8.3 11.6-12.3 18.9-16.6 4.3-2.6 8.6-3.2 11.3 2.5.2.3.9.4 1.6.6.6-.8 1.3-1.4 1.6-2.2 6.3-15.2 12.7-30.5 18.9-45.7.4-1.1.5-2.7 0-3.8-1.6-3.3-.6-5.5 2.3-7.4 1.4-.9 2.2-2.6 3.5-4.3-14.5-7.1-31.1-9.6-40.5-24.4-6.2 1.5-10.9-4.2-10.7-9.6.2-6.4 4.3-9.4 8.5-12.9 3.2-2.6 6.5-5.1 9-8.3 3-3.9-.6-10.9-5.4-11.7-2.8-.5-5.7-1.3-8.3-2.5-9.6-4.5-12.5-15.3-6.3-24.1 4.2-6 10-9.9 17.1-11.9 7-2 13.4-4.8 18.5-9.5-8.8-3.7-17.4-7.6-26.2-10.8-3.1-1.1-7.5-1.9-10.2-.5-11.6 6-22.8 12.9-35.9 20.5.3-3.1-.1-5 .7-6.1 3.2-4.6 6.6-8.9 10.1-13.3 3.6-4.5 7.3-8.9 10.9-13.3-7-6.1-13.5-11.7-20.1-17.3-7.5-6.4-13.5-13.8-17.1-23.3-4-10.7-.7-21 1.1-31.2 1.6-9 5.9-17.4 8.4-26.2 4.7-16.2 12.1-31.2 21.2-45.4 2-3.2 4-6.5 6.3-10.2h-28.4v44.5H229c-6.9 0-13.9-.5-20.8-.2-17.2.6-34.5 1.6-51.7 2.3-11.1.5-22.3.8-33.4 1.3-17.6.8-35.1 1.7-52.7 2.5-1.4.1-2.8 0-4.2.2-10.3 1.5-21.2 2.8-32.2 4-7.7.9-15.3 1.7-22.5 2.5-2.5 132.4-4.4 263.7-5 395.5 21.5-1.2 42.1-2.4 62.8-3.5.1 1 .2 2.3.3 3.5-1.5 1.1-2.9 2.6-4.6 3.3-2 .8-4.3.8-6.4 1.1H.1V188.8c1.8-6.3 1.1-12.6 1.2-19.1.2-20.8 1.3-41.6 1.7-62.5 0-9.3-.9-18.8-1-28.2-.1-9.5.5-19 .5-28.4.1-11.5-.2-23 0-34.6 0-1.6 1.6-4 3-4.4 6.1-1.8 12.4-3.8 18.7-4.4 15.6-1.5 31.3-2.4 47-3.2 2.4-.1 4.8.9 7.2 1.3-.2-.2-.4-.5-.5-.7 1.8-.4 3.5-.8 5.4-1.3.7 2.1 1.3 3.8 1.9 5.5.6 3.9 2.8 4 5.3 1.9 1.4-1.1 2.4-2.8 3.5-4.2l9-1.5c1.7 2.6 3.5 4.3 6.1.7.5-.6 2.1-1.2 2.7-.9 3.4 2 4.9-.3 6.5-2.5 5.2-.8 10.3-1.5 15.5-2.3h461.6v49.7l-2.1 3c.6.9 1.3 1.7 2 2.5zm-161 266c1-.8 2.3-1.3 3.1-2.3 2.5-3.2 4.8-6.6 7.2-9.9.7.3 1.4.6 2.1.8-.5 2.6-.4 5.6-1.7 7.8-1.4 2.4-4 4.1-5.8 5.8 6.4.1 10.1-3.5 10.3-10.3.1-2.6 0-5.2 0-7.7 0-10.4-5.6-17.5-14-22.4-7-4.1-14.1-3.8-20.4 2-4.8-7.2-4.8-7.2-8.2-5.8-5.5 2.4-9.6 9.1-8.5 14 1.3 5.6 5.5 3.5 9.4 3-1.5 3.5-3.5 6.4-3.9 9.4-.5 4.2-3.1 9.2 1.8 12.6 8.3 5.8 17.4 8.6 27.2 7.4.5-1.7.9-3.2 1.4-4.6v.2zm-76.2-140.9c1.1-2.1 1.4-4.3 2.7-5 6.1-3.5 12-7.8 18.6-9.4 9.3-2.2 19.2-3.8 28.7-3 14.3 1.3 27.2 6.7 35.5 19.8.9 1.5 3.8 2.6 5.7 2.5 11.1-.6 22.2-1.7 33.3-2.6 2.5-.2 6.2.4 7.4-1 4.7-5.6 11.4-4.2 17.1-6.1 9.2-3 18.6-5.5 27.7-8.9 16.8-6.4 32.3-15.3 45.8-27.5 1.8-1.6 3.9-4 4.1-6.1.6-8 .5-16 .5-24.1-.2-32.1-.6-64.2-.9-96.4 0-.9.3-2.1-.1-2.7-.7-1.1-1.8-2.5-2.8-2.6-5.6-.3-11.3-.3-16.9-.2-20.9.2-41.9.5-62.8.5-36.3 0-72.5-.2-108.8-.2-12.3 0-24.7.2-37 .1-4.7 0-9.4-1-14.1-1-2.9 0-5.9 1.6-8.8 1.5-5.5-.2-11.1-.4-16.4-1.7-8.2-2-12.5 2.2-16.1 8.4-.7 1.3-1.4 2.5-2.3 3.7-9 13-14.5 27.7-19.8 42.4-4.2 11.6-6.7 23.9-9.6 35.9-1 4.2-1.4 8.7-1.2 13 .4 11.2 7 19.4 14.5 26.5 6.7 6.4 14.5 11.6 21.9 17.2 2.4 1.8 4.5 3.9 2.2 6.7-5.3 6.4-10.9 12.5-17 19.5 1.6.3 3.5 1.2 4.4.6 6.4-4.1 12.5-8.6 18.8-12.8 3.8-2.5 7.2-3.9 12.3-1.6 8.4 3.9 17.5 6.4 26.3 9.5.8.3 1.5 1.1 2.3 1.7l-.3.9c-2.7-.4-5.4-.7-8.1-1.1-.1.3-.1.6-.2.9 3.1.8 6.1 1.6 9.2 2.4.6-1.1 1.1-2 1.7-3.1 1.2 1.9 2.2 3 2.5 3.4zM342.7 207c-2.8 5.3-5.2 9.8-7.6 14.3.5.4 1.1.8 1.6 1.2 3.3-1.7 6.6-3.5 10.5-5.5 2.9 2.6 5.9 5.3 9 8 1.7 1.5 3.6 2.9 5.4 4.4.3-.4.7-.8 1-1.2-6.7-9.3-6.7-9.3-3.6-13.2 3.4 3.2 7.6 6 10.1 9.8 3 4.6 6.9 5.4 12.4 6.5-4.3-4.5-7.7-8.1-11-11.6 2.6-3.8 4.8-4.4 7.5-1.3 1.7 1.9 3.2 4.1 5.1 5.7 2.8 2.4 5.9 4.6 9.1 6.5.9.5 2.7-.5 4.1-.8-8.8-5.7-10.5-9.6-5.2-13.5 4.1 3.8 8.3 7.7 13.4 12.3.8-6.2-9.9-8.4-2.8-14.7 1.7 1.6 3.2 3.1 4.6 4.3.7-2.6 1.3-4.9 1.9-7.2.6.1 1.1.2 1.7.2 1.3 3.8 2.5 7.7 3.8 11.5.3-.2.7-.4 1-.6.6-2.3 1.3-4.6 1.9-6.9.7.1 1.4.2 2.1.2.2 3.2.9 6.5.7 9.7-.5 6 2.1 10.7 5.8 16.8 0-2.2.2-2.9 0-3.4-3.5-8.2-2.7-16.6-1.2-25 .9-5.2 5.9-7.7 10.4-4.9 3.1 1.9 5.7 4.5 8.2 6.7 1.6-4.6 3.1-8.7 4.4-12.9.2-.5-.4-1.3-.7-2-6.6-19.3-17.3-28.9-36.1-32.6-6.4-1.3-12.6.7-19 1.4-13.6 1.4-24.1 7.9-34.3 16-6.5 5.2-12.2 11.6-21.3 12.8-7.6 1-14.1 4.2-17 12.6-1.7 4.8.7 7.8 3.3 10.8 1.4 1.6 4 2.3 7.1 3.9-2.4-11.5 5.7-15 10.6-20.7 1.5 1.2 2.7 2.1 3.1 2.4zm70.2 24c-3.1.4-5.5.7-7.9 1.2-1.2.3-2.3 1-3.4 1.5-2 .9-3.9 2.5-6 2.6-4.9.3-9.9.3-14.9-.1-7.3-.6-14.6-1.5-21.9-2.4-2-.2-4-1-6-1.1-3.2-.2-6.4-.1-9.6 0-1.1 0-2.2.2-3.3.3.1 1-.1 2.4.5 3 4.2 4.4 2.4 8-.9 12-6.2 7.4-11 15.6-4.3 24.8 2.8 3.8 7.4 6.5 11.7 8.8 14.3 7.6 28.9 14 45.7 11 3.3-14.6 11.2-20.8 20.7-17.5 13.4-15.5 9.5-30.3-.4-44.1zm5.5 183.5c-.7-3.1-1.1-4.6-1.4-6.1-1.3-6.1-2.1-12.5-4.2-18.3-1-2.8-4.1-5.6-6.9-6.7-6.2-2.2-11.7 1.1-15.4 5.5-9.5 11.3-8.9 24.5-4.7 37.8.3.9 2.7 2 3.7 1.7 7.9-2.4 15.8-4.7 23.4-7.8 2.6-1.1 4.2-4.5 5.5-6.1zm-13.8-64.3c.3-.6.5-1.3.8-1.9 2.4-.8 4.8-1.6 7.7-2.6-2.6-2.4-8.3.9-7.6-5.7h8.3c.1-.6.3-1.3.4-1.9-3-1.1-6-2.1-9-3.2-.1-.5-.2-.9-.2-1.4 1.8-.7 3.6-1.5 5.5-2.2 1.1-.4 2.3-.7 3.5-1.1-1.1-1-2.2-2.7-3.5-3-1.7-.3-3.8.2-5.2 1.2-4.9 3.2-9.6 6.7-14.3 10-2.9 2.1-5.8 5.6-8.8 5.7-4 .2-5.8 2.1-7.8 4.6-2.9 3.5-5.8 7.1-8.6 10.7-2.8 3.6-2.2 7.3 1.6 9.9 7.5 5 13.3 4.3 21.2-.4 7.6-4.5 12.5-13 22.1-14.4.4-.1.6-1.1.7-1.3-2.6-1-4.7-2-6.8-3zm21.8-5.8c-.6.1-1.2.2-1.9.3-1.4-4-2.8-8-4.1-12.1-1.7 5.1-2.7 10.1-2.7 15.1 0 5.7-3 10.4-8.5 11.7-1 .2-1.9.8-2.8 1.2 0 .4 0 .9-.1 1.3 8.5.9 17 2.1 25.5 2.6 2.4.1 5.7-1.1 7.3-2.9 6.1-6.8 3.2-15 2.7-22.8-.1-1.6-.5-3.1-.6-4.3 5.9 1.6 11.1 2.9 16.3 4.3 1.7-8 .6-10.9-3.6-10.6-6.7.5-13.4 1.8-20 2.7.9 11.2.4 11.9-5 9.4-.9 1.4-1.7 2.8-2.5 4.1zm60.9 68.1c1.1-6.8 2-13.4 3.2-19.9 1.1-6.2-2.1-10.9-5.5-15.3-4.8-6.2-13.1-5.6-16.2 1.7-3.5 8.2-5.8 16.8-8.7 25.6 9.7 2.8 18 5.2 27.2 7.9zM447 245.2c-1.3 4.2-2.3 8.1-3.8 11.9-.6 1.4-2.4 2.3-3.7 3.5-.6-1.6-1.2-3.1-1.9-5.1-6.2 2.5-6.3-5.8-11.4-7.6 4.7 13.3-2.6 21.7-10.3 29.7 5.5-.5 11-.9 16.5-1.6 1-.1 2-1.2 2.9-2.1 3.5-3.5 5.1-9.2 11.6-8.8.5 0 1.1-.7 1.6-1.1 4.1-2.6 4-7.2 5.3-10.6-2.4-2.7-4.5-5.3-6.8-8.2zm38 172.4c-8.1-2.7-15.9-5.4-23.7-8-2.2 10.4-.1 14 9.1 16.8 7.8 2.4 10.9.7 14.6-8.8zm-171.3-39.9c.3.7.7 1.4 1 2.1 7.4-2.2 14.9-4 22-6.9 1.6-.6 2.1-5.4 1.8-8.1-.1-1.4-3.5-3.9-4.7-3.5-8.8 2.6-15.7 8.1-20.1 16.4zm77.4 56.4c5.6 6.4 10.9 8.4 18.4 6.7 9.7-2.2 12.4-6.5 8-15.6-2 .5-4.1 1-6.2 1.5.3.4.6.9.9 1.3-1.3.9-2.5 2.3-4 2.6-5.3 1.3-10.7 2.2-17.1 3.5zm-19.8-133c2.1 1.6 3.4 2.6 4.8 3.5 3.2 2.1 6.4 4.4 9.8 6.2 3 1.7 6.2 4.1 9.4 4.1 4.7 0 2.8-5 3.8-7.8.1-.3.4-.6.5-.9 1.5-4.2 0-6.5-4.4-5.9-7.2 1.1-14.4 2.7-21.6-.1-.2 0-.6.3-2.3.9zm-18.1 120.6c2.5-3.2 4.6-5.6 6.4-8.2.8-1.2 1.5-3.4.9-4.2-1.9-2.9-4.5-5.5-6.7-8.1-4.4 3.3-8.3 6.3-12.6 9.5 3.7 3.5 7.3 6.7 12 11zm6.9-66.4c11.7-4.3 18.1-15.7 13.1-22.2-1.5 1.1-3 2.1-4.3 3.1 1.3 2.4 2.4 4.4 4.2 7.8-5.3-2.2-9.3-8.3-12.6-3.1-2.2 3.3-.4 9.2-.4 14.4zm-2.3 45c1.4 1.6 3.1 3.1 4.1 4.9 2.3 3.9 4.6 4.5 8.2 1.5 1-.8 3.3-.1 5.1-.1 5.3-2.6.4-4.8-1.5-6.9-5.8-6.3-8.1-6.1-15.9.6zm40.1-74.6c-5-1.6-10.1-3.2-15.3-4.8-.5.4-.9.9-1.4 1.3 1.1 2.6 1.5 6.5 3.5 7.6 4.7 2.4 10.1 3.6 13.2-4.1zm-50.5 42c-2 2.8-4.3 4.9-5.2 7.5-.6 1.8.2 4.5 1.3 6.2.4.6 3.5 0 5.1-.7 1.8-.7 3.3-2.1 5.4-3.5-2.2-3.2-4.2-6.1-6.6-9.5zm9.8-6c-2.3 1.9-5.6 3.9-5.3 4.6 1 3 3 5.7 5 8.1.4.4 3.1-1.2 4.6-1.8-1.5-3.9-2.6-6.8-4.3-10.9zm6.6 23.5c-.1.5-.3 1-.4 1.5 4.8 4.1 11 4.8 16.9 5.8.6.1 1.5-1.8 2.2-2.7-6.6-1.7-12.7-3.1-18.7-4.6zm-1.3 39.9c1.2-3.8 2.1-6.7 3.1-9.6-.4-.4-.8-.7-1.2-1.1-2.8 2.3-5.7 4.6-9.8 7.9 3.4 1.2 5.6 2 7.9 2.8zm-7.9-74.7c-.6.2-1.3.4-1.9.6-1.3 3.7-2.6 7.3-3.9 11 .3.4.6.7 1 1.1 2.2-1.7 5.3-3.1 6.3-5.4.6-1.8-1-4.8-1.5-7.3zm76.8-126.1c-4.4 5-4.3 6.2 1.1 12 4.3-4.2 2.3-8-1.1-12zm-91.2 183.8c3.6-3.1 6.8-5.9 11.1-9.5-13.5 2.2-15.5 3.9-11.1 9.5zM437.9 228c.8-.3 1.6-.5 2.4-.8 0-2.5.3-5.1-.1-7.5-.2-1.2-2-2.1-3.1-3.1-.9.9-2.6 2.1-2.4 2.8.7 2.9 2.1 5.7 3.2 8.6zM359 377.6c6.2 1.5 11.4 2.9 16.7 3.9 1 .2 2.4-1.3 3.6-2l-.6-1.8c-6.5 2.4-12.8-4.7-19.7-.1zm-21 36.8c.4-.3.7-.6 1.1-.9-2.8-3.9-5.5-7.8-8.7-12.3-.3 1-1.2 2.3-1.2 3.6-.1 6.1 5.6 6.6 8.8 9.6zm16.2-28.9c-2.3 1.7-3.7 2.7-5.4 3.9 7 1.2 9.4-1.4 8.5-9.2-2.6 1-5 2-8.1 3.2 2.2.9 3.2 1.4 5 2.1zm14.9-68.9c-5.6 1.1-5.6 5.9-6.7 9-.7 2 .8 4.9 1.7 7.3.1.4 2.2.1 4.4.1-5.5-4.7-5.3-4.4.6-16.4zm84.5 83.4c-.9-1.9-1.2-3.1-1.4-3-7 1-13.9 2.1-20.9 3.3.1.6.2 1.2.3 1.7 3.3-.6 6.7-1.6 10.1-1.9 3.5-.4 7.2-.1 11.9-.1zm-106.9-10.2c-1.7-.5-2.7-1.2-3.4-1-3.2 1-6.3 2-9.3 3.4-.7.3-.9 1.8-1.3 2.7 1 .2 2.2.9 3.1.6 2.6-.8 5-1.9 7.5-3.1 1-.3 1.8-1.3 3.4-2.6zm30.9-68.8c-.5-.6-.9-1.1-1.4-1.7-2.5 2-5 4-8.4 6.7 3.5.7 5.2 1.1 7.2 1.5.9-2.2 1.7-4.4 2.6-6.5zm1.6-9.9c-2.3 1.3-4.1 2.3-6.9 3.8 4.6 1.2 8.1 2.1 11.6 3l.6-1.2c-1.7-1.8-3.4-3.6-5.3-5.6zm69.2 103.6c.6-.3 1.1-.7 1.7-1 .9-2.6 1.7-5.2 2.6-7.7l-1.5-1.2c-1.6 1.8-3.7 3.4-4.7 5.5-.5.9 1.2 2.9 1.9 4.4zM326.3 256.6c-4.9 3.2-5.2 7.7 0 13.3v-13.3zm125.2-38.7-2.1.3c-3 4.2.5 6.6 2.4 9.4.7-.2 1.5-.4 2.2-.6-.9-3-1.7-6.1-2.5-9.1zm14.6 121c.5.3 1 .5 1.5.8.9-1.4 2.6-3 2.4-4.3-.3-1.7-2.1-3.2-3.2-4.8-.3 1.7-.8 3.4-.9 5.2-.1 1 .1 2.1.2 3.1zm-13.5-52.2c.2-.7.4-1.4.5-2.1-1.9-1.5-3.8-2.9-5.7-4.4-.6.5-1.1.9-1.7 1.4.9 1.7 1.5 3.7 2.8 5 .7.7 2.7.1 4.1.1zM80.1 30.2c.1-.1.3-.1.4-.2 0-.1 0-.3-.1-.5l-.6.3c.2.1.3.3.3.4zm16.7-16.8c-.1.1-.3.2-.3.3 0 .1.2.2.3.3.1-.1.3-.2.3-.3l-.3-.3z"/>
  <path d="M58.5 462.7c2.2-.3 4.4-.4 6.4-1.1 1.7-.7 3.1-2.2 4.6-3.3 4.1 1.5 9.3-3.3 12.8 2.3.1.2 2.2-.7 3.3-1.2 3.5-1.4 7-2.9 10.4-4.4 2.7 6.3 4 6.5 10.1 5.1 2.9-.7 6.3.7 9.4.7 37.9 0 75.8 0 113.7-.1 30.8 0 61.7-.2 92.5-.1 25.5.1 51 .7 76.5.8 25 .1 49.9-.4 74.9-.4 36.4.1 72.8.5 109.2.7 8.6 0 10.9 1.3 9.7-11.5-.3-2.7.8-5.4.7-8.1-.4-9.5-1.4-18.9-1.4-28.4 0-9.2 1.3-18.3 1.5-27.5.3-13.3.1-26.7.2-40.1 0-8.1.1-16.2.3-24.3.2-16.9.6-33.8.7-50.7.1-15-.1-30-.1-45 0-13.4.1-26.8.2-40.2.1-26.2.2-52.4.4-78.6.1-6.7.5-13.4.8-20.1v375.5H58.5zM133.6 0c-5.2.8-10.3 1.5-15.5 2.3-1.8.1-3.7-.1-5.5.2-3.3.7-6.5 1.7-9.8 2.5l-9 1.5c-.8-7.9-6.1-.5-8.9-2.1l4.9 2.8c-2 .7-3.4 1.1-4.9 1.6-.6-1.7-1.2-3.4-1.9-5.5-1.8.4-3.6.8-5.4 1.3.2.2.4.5.5.7-2.4-.5-4.8-1.5-7.2-1.3-15.4.8-31.1 1.7-46.7 3.1-6.3.6-12.6 2.6-18.7 4.4-1.4.4-3 2.9-3 4.4-.2 11.5.1 23 0 34.6-.1 9.5-.6 19-.5 28.5.1 9.4 1 18.9.9 28.3-.4 20.8-1.5 41.6-1.7 62.5-.1 6.4.6 12.8-1.2 19.1V0h133.6z" fill="#fff"/>
  <path d="M595.3 55.2c-.7-.8-1.4-1.7-2.1-2.5.7-.3 1.4-.6 2.1-.8v3.3z"/>
  <path d="M595.3 51.9c-.7.3-1.4.6-2.1.8l2.1-3v2.2zM96.2 455c-3.5 1.5-6.9 3-10.4 4.4-1.1.5-3.2 1.4-3.3 1.2-3.5-5.6-8.7-.8-12.8-2.3-.1-1.3-.2-2.5-.3-3.5-20.7 1.2-41.3 2.3-62.8 3.5.6-131.9 2.6-263.2 5-395.5 7.2-.8 14.9-1.7 22.5-2.5 10.9-1.2 21.8-2.5 32.8-3.7 1.4-.2 2.8-.1 4.2-.2 17.6-.8 35.1-1.7 52.7-2.5 11.1-.5 22.3-.8 33.4-1.3 17.2-.8 34.5-1.7 51.7-2.3 6.9-.3 13.9.2 20.8.2h42.1V6h28.4c-2.3 3.7-4.2 7-6.3 10.2-9 14.2-16.4 29.1-21.2 45.4-2.6 8.8-6.9 17.3-8.4 26.2-1.8 10.2-5.1 20.5-1.1 31.2 3.6 9.5 9.6 16.8 17.1 23.3 6.5 5.6 13.1 11.3 20.1 17.3-3.6 4.3-7.3 8.8-10.9 13.3-3.5 4.3-6.9 8.7-10.1 13.3-.8 1.1-.4 3-.7 6.1 13.1-7.6 24.3-14.5 35.9-20.5 2.6-1.4 7.1-.6 10.2.5 8.8 3.2 17.4 7.1 26.2 10.8-5.1 4.7-11.6 7.5-18.5 9.5-7 2-12.8 5.9-17.1 11.9-6.2 8.7-3.3 19.6 6.3 24.1 2.6 1.2 5.5 2 8.3 2.5 4.8.8 8.4 7.8 5.4 11.7-2.5 3.2-5.8 5.7-9 8.3-4.2 3.4-8.3 6.5-8.5 12.9-.2 5.5 4.5 11.2 10.7 9.6 9.3 14.7 26 17.3 40.5 24.4-1.3 1.7-2.1 3.4-3.5 4.3-3 1.9-3.9 4-2.3 7.4.5 1 .5 2.7 0 3.8-6.2 15.3-12.6 30.5-18.9 45.7-.3.8-1 1.4-1.6 2.2-.7-.3-1.4-.3-1.6-.6-2.7-5.6-7-5.1-11.3-2.5-7.3 4.4-15.1 8.4-18.9 16.6-.7 1.6-1 4.3-.2 5.4 1.3 1.6 4 3.2 5.8 2.9 5.6-.9 11.1-2.8 16.5-4.2-.6 5.6-17 13.5-27.9 12.8.3 4.4 3.7 6.1 8 3.9 5.9-3 11.7-6 19-9.8-2.8 5.6-4.8 9.9-7.1 13.9-3.8 6.7-3.7 11.1 4.8 16.5.7.5 1.5.8 2.6 1.4-10.6-.8-20.6-2.1-30.7-2.3-10.4-.2-20.8.5-31.3.9-10.1.4-20.4.1-30.1 3.5.1.8.2 1.6.3 2.5 9.4-.8 18.8-1.6 28.2-2.3-.8.6-1.6 1.1-2.4 1.7.1.5.1 1 .2 1.4 6.9-.4 13.7-.9 20.6-1.3 0 .4.1.8.1 1.2-2.5.2-4.9.5-7.4.7 0 .5-.1 1.1-.1 1.6 2.3.3 4.7 1 7 .7 3.3-.5 6.3-2.1 8.6 1.9.5.8 2.7.7 4.1.7 8.1-.3 16.1-.6 24.2-1 .7 0 1.7-.3 2.2 0 8 5.2 16.8.9 25.2 2.4 4.1.7 8.2 1.4 12.3 2.3 2.9.6 5.7 2.8 8.2-1.1.5-.7 3.9-.4 5.3.5 4 2.6 7.5 6 11.5 8.7 4 2.7 8.1 6.2 12.5 6.9 4.8.7 10.3-.7 15.1-2.5 4.3-1.6 8.3-4.9 8.8-10.3.3-3.1 0-6.3 0-9.9 6.9-.5 14.2-.1 20.9-1.7 5.8-1.4 9.5.6 12.9 4.2 5.6 6 12.9 7.4 20 5.8 4.2-.9 7.6-5.3 11.4-8.2 5.9-.4 12.4-.8 19-1.1 1-.1 2.5-.4 2.9.1 3.7 5.1 8.3 2 12.7 1.8 8.7-.4 17.4 0 26.2-.3 1.9-.1 3.7-1.4 5.6-2.2-.2-1-.4-2-.5-3.1-20.7-1.4-41.5-2.9-62.8-4.4.8-2.8 2.2-6.2 2.9-9.8 1.7-8.5 4.9-17 .9-25.7-2.7-5.9-5.8-11.8-13.1-12.6-9.9-1.1-16.2 2.4-20.1 10.6-1.8 3.8-3.3 7.7-5 11.8-2.9-1.2-5.7-2.4-7.9-3.3 4-9.2 5-18.1 1.4-27.3-1.8-4.5-3.4-9-5.1-13.6.4-.6.9-1.3 1.3-1.9 4.6.3 9.3.2 13.8 1 5.7.9 12.2-1.1 14-5 2.8-5.8-2.2-13.8-9.5-14.5-5-.5-10.1-.1-14.1-.1 1.4-6.6 2.7-12.8 4.1-18.9.1-.7.3-1.7.7-1.9 9.2-4.5 5.1-11.7 3.9-18.3-1.1-5.9-5.9-8.1-10.5-10-1.5-.6-4 1.4-6.1 2.2-1.5.6-3 1.2-4.5 1.9-.3-.5-.6-1-.8-1.5 2-1.2 3.8-2.7 5.9-3.5 5.2-2.1 8.8-5.3 10.5-10.9 1.7-5.6 4.2-10.8 8.9-14.8 1.9-1.6 2.5-4.7 3.7-7-.7-.5-1.3-.9-2-1.4-2.1 2.4-4.3 4.7-6.3 7 .9-5.8 2.7-11.5 2.2-16.9-.5-6.7-2.6-13.4-4.7-19.9-2.1-6.8-5-13.5-7.7-20.5 9.5-.7 18.6-.8 27.3-2.3 11.3-2 22.4-5.1 33.5-7.9 5.6-1.4 11.2-2.9 16.6-4.8 8.1-2.9 16.5-5.5 24.1-9.6 8.9-4.8 17-10.9 25.4-16.6 2.2-1.5 4-3.5 7.2-6.4.5 2.6 1.1 4.6 1.2 6.6.2 4.5.2 9 .2 13.5.1 3.7.3 7.5.3 11.2-.1 8.9-.1 17.7-.4 26.6-.3 10.4-1.1 20.7-1.2 31-.1 9.5.6 19 .6 28.5-.1 11-.7 21.9-.8 32.9-.1 7.7.6 15.3.5 23-.2 11.1-.9 22.2-1.2 33.3-.3 14.1-.5 28.2-.6 42.4-.1 10.5-.1 21.1-.1 31.6 0 9.1 0 18.1-.2 27.2 0 1.3-1.8 3.6-2.8 3.7-11.2.2-22.4 0-33.6.1-12 0-24 .4-36.1.2-6-.1-12-1.2-18-1.3-11.2-.1-22.5.4-33.7.4-4.2 0-8.4-.9-12.6-.8-10.5.1-21 .6-31.6.8-7.2.1-14.5 0-21.7 0-22.2 0-44.4.1-66.6 0-36.4-.2-72.7-.6-109.1-.7-12.3 0-24.7.7-37 .8-11.3.1-22.6-.1-33.9 0-15.1.1-30.2.2-45.3.4-1.8-.2-3 .3-4.2.5zm-17.8-12c4.5.6 9.4 6 13.1-1.2 1.1.9 2.1 2.5 3.3 2.5 2.9.1 6.7-1.9 8.4-.6 4.7 3.4 9.2.8 13.7.7 3.3 0 6.5-1 9.8-1.1 8.9-.3 17.9-.5 26.8-.4 5 0 10.1 1.2 15.1 1 8.5-.3 17-1.2 25.5-2.1 1.5-.2 2.8-1.4 4.2-2.2-8-2-16.1-1.8-23.4-3.1-8.8-1.5-16.8 1.2-25.1.3 1.4-.9 2.8-1.5 4.3-1.7 15.5-2.2 29.6-7.6 41.3-18.2 4-3.7 6.9-8.6 9.9-13.2 2.4-3.7 2.3-7.3-1.6-10.5-3.6-3-7-2.7-11-1.2-4.5 1.7-9.2 2.9-13.1 4.1-1.6-4.8-2.7-8.3-4-12.1 3.1-1 5.9-2.1 8.9-2.8 3-.7 3.9-2.1 2.4-5-2-3.7-3.4-7.7-5.7-11.1-3.2-4.6-4.2-8.6-1.8-14.3 3.7-8.6 5.8-17.9 8.7-27.3 3.3 2.1 5.5 6.3 9.6 2.7.3-.3 1.4.2 2 .6 6.5 3.4 12.9 2.6 19.7.8 3.5-1 7.3-.7 11.3-1.1-2.7 10.4-2.6 10.1 7.5 12.7 7.3 1.9 14.5 4.5 21.5 7.5 12.8 5.4 25.7 9.9 39.9 9.1 8-.5 16.1-1.4 24.1-.6 4.4.4 5.3-1.8 5.8-4.3 1.9-9.6 3.7-19.2 9.9-27.3 1.6-2 2.1-5 2.5-7.7.6-3.4-.9-5.7-4.6-6.1-4-.5-8-.8-11.9-1.3-6.4-.8-13-.9-19.1-2.6-14.2-4-27.7-10.1-42.4-12.2-2.5-.4-7 0-7.4 1.2-1.9 5.5-6.3 4.3-9.7 4.1-8.3-.3-16.6-1.9-24.9-2.1-6.3-.1-11-3-15.6-6.5-1.9-1.4-3.5-3.5-5.6-4.3-3.2-1.2-3.4-2.5-2.4-5.6 2.8-9.4 2.3-10.2-5.4-15-.3-.2-.4-.9-.7-1.9 1.9-.1 3.5-.3 5-.3 9 0 16.9-3.6 24.6-7.6 5-2.7 4.9-6 .5-9.6-3.2-2.6-6.3-5.5-9-8.7-1.9-2.2-1.7-4.3 2.1-3.8 1.7.2 3.5.4 5.1 1 5.3 2 10.4 4.4 15.7 6.4 3.4 1.2 7.9 2.9 9.7-1.2 1.9-4.5 1.4-9.4 8.5-10.3 2.2-.3 5.4-6.9 5-10.4-.3-2.9-4.9-5.4-7.8-7.9-.9-.8-3.2-1.4-3.1-1.5 1.3-4.3-2.8-9.4 2-13.3.8-.7.5-3.4 0-4.9-.5-1.4-1.9-2.5-3-3.6-.8-.8-1.9-2.1-2.6-1.9-.9.2-1.7 1.6-2.2 2.6-1 2.2-1.8 4.5-2.7 7.1 8.5 6.7-5.3 14.5.4 22.3 4.5-5.8 8.7-2.8 12.9-.3.2 7.4-.7 8.7-5 6.8-4.7-2.1-5.8.1-6.1 4.2-.2 2.6-.9 5.1-1.5 8.1-2.1-.9-3.3-1.4-4.4-1.8-8.3-3.1-16-8-25.6-6.9-6 .7-7.6 3.2-4.1 8.2 3.7 5.1 7.8 9.8 12.9 16.2-6.7 1.6-12.3 3.7-18.1 4.1-11.2.6-12.8 1.6-15.1 12.7-.4 2.2-1.7 4.2-2.6 6.4-2.2-3.1-3.4-6.1-5.5-7.5-6.6-4.3-13.7-7.9-20.4-12.1-5.5-3.5-12.6-5.5-13.7-13.7-.2-1.2-1.9-2.2-2.8-3.3-6-7.2-12.9-14.1-15.7-23.2-4.2-13.8-7.1-27.6-2.1-42.4 3.5-10.4 8.6-19.1 16.5-26.3 2.5-2.3 5.7-3.8 8.5-5.9 4-3 7.5-6.7 11.8-9 3.8-2 8.4-3.2 12.7-3.5 8.1-.5 16.1-1.4 24.3 1.6 8.3 3 15.2 7.3 22.1 12.6 11.9 9.1 18.3 20.9 21.1 35.3.3 1.7 1.3 3.3 2 5l1.8.6c2.3-3.6 4.5-7.2 6.8-10.9.7.6 1.3 1.3 2 1.9l2.7 11.1c5.1-6.4 5-12 1.1-15.3-4.6-3.9-6.8 1.5-10.2 2.8-.5-.5-1.4-1-1.4-1.5-.1-8-4.5-14.5-8.7-20.2-8.9-12-20.8-20.7-35.1-26.1-11.1-4.1-22.1-5.3-33.4-1.5-2.8 1-5.3 4.6-8.8 1.1-.4-.4-2.2.3-3 .9-4.3 3.5-8.5 7-12.6 10.7-1.5 1.3-2.4 3.2-3.9 4.5-8.5 7.4-16.3 15.5-20.3 26.2-1.5 4.1-3.7 8.5.1 12.8.2.2-.2.9-.4 1.7-1-1.1-1.7-2-2.8-3.1-5.3 27.5 4 49.3 24.3 66.9-6.8 4.8-9.6 5.6-6.2 12.9-.7.6-1.7 1.2-2.4 2.1-17.3 21.1-34.8 42.6-52.1 64.3-1.4 1.7-1.9 4.1-2.7 6.3-.7 1.9-1.1 4-2 5.8-2.9 5.7-5.9 11.3-8.7 16.7-.7-1.5-1.3-4.3-3.1-5.8-1.5-1.3-5.1-2.2-6.2-1.3-2.8 2.1-5 5.1-6.8 8.1-6.7 11.7-10.2 24.6-12.6 37.7-2 10.7 2.3 19.6 10 26.7 7.4 6.8 14.4 4.4 15.7-5.5.8-5.9.2-12 4.4-17 .5-.6.7-1.6 1-2.3.6.7 1.3 1.3 1.8 2.1 3.2 4.4 7.2 9.5 12.8 7.4 7-2.6 13.2-7.4 19.7-11.3 1.8-1.1 3.5-2.3 5.3-3.1 3.3-1.5 6.7-2.8 10.3-4.2 4.3 6.7 12.3 5.2 20.7 6.5 0 6.9.9 14.2-.3 21.1-1 5.5-4.7 10.6-7 15.9-1.2 2.7-2.1 5.6-3.2 8.6-5.2-.2-11.5 1.6-17.5-.9-.5-.2-1.3.5-2 .4-2.4-.4-4.8-.9-7.1-1.3-2-.3-4.1-.8-6.1-.7-.3 0-.5 2.7-.8 4.2-1-.4-2.1-.8-3.1-1.1-1.7-.4-4-.3-5.1-1.3-4.9-4.4-9.7-.7-14.6-.4-4.1-.4-8.3-.2-12.2 0-11.8.6-23.6 3-35.3 5-2.8.5-5.3 2-8 3.1.2.6.4 1.2.6 1.7l12-1.8c.1 1.4.2 2.8.2 3.6 6.4 1.3 11-3.6 18.1-1.4 7.4 2.3 16.4-.4 24.7-1.2 2-.6 3.8-1.8 5.5-2.5zm107.5-237.2c-1.8-.1-3.2.1-4-.4-2.6-1.6-6.9-3.3-7-5.2-.2-3.3 1.8-7.1 3.8-9.9.5-.6 5.1 1.9 7.9 2.8 1.3.4 2.7.5 5.1 1-3.8-6.6-7.3-10.6-13.7-9-4.3 1.1-10.5 10.1-10.1 14.5.5 4.7 3.2 8.2 7.6 9.8 3.7 1.3 7.4 1 10.4-3.6z" fill="#fff"/>
  <path d="M342.7 207c-.4-.3-1.6-1.3-3.2-2.5-4.9 5.8-12.9 9.3-10.6 20.7-3.1-1.6-5.7-2.2-7.1-3.9-2.5-2.9-5-6-3.3-10.8 2.9-8.3 9.4-11.5 17-12.6 9.2-1.2 14.8-7.6 21.3-12.8 10.2-8.1 20.7-14.6 34.3-16 6.3-.7 12.6-2.6 19-1.4 18.7 3.7 29.5 13.3 36.1 32.6.2.7.8 1.5.7 2-1.3 4.1-2.8 8.3-4.4 12.9-2.6-2.1-5.2-4.8-8.2-6.7-4.6-2.8-9.5-.3-10.4 4.9-1.5 8.4-2.3 16.8 1.2 25 .2.5 0 1.2 0 3.4-3.7-6.1-6.3-10.8-5.8-16.8.3-3.2-.4-6.4-.7-9.7-.7-.1-1.4-.2-2.1-.2-.6 2.3-1.3 4.6-1.9 6.9-.3.2-.7.4-1 .6-1.3-3.8-2.5-7.7-3.8-11.5-.6-.1-1.1-.2-1.7-.2-.6 2.3-1.2 4.6-1.9 7.2-1.4-1.3-2.9-2.8-4.6-4.3-7.1 6.3 3.6 8.5 2.8 14.7-5.1-4.7-9.3-8.5-13.4-12.3-5.4 3.8-3.6 7.8 5.2 13.5-1.4.3-3.2 1.3-4.1.8-3.2-1.9-6.2-4.1-9.1-6.5-1.9-1.6-3.5-3.8-5.1-5.7-2.7-3.1-4.9-2.5-7.5 1.3 3.3 3.5 6.8 7.1 11 11.6-5.5-1.2-9.4-1.9-12.4-6.5-2.5-3.8-6.6-6.5-10.1-9.8-3.1 3.9-3.1 3.9 3.6 13.2-.3.4-.7.8-1 1.2-1.8-1.4-3.6-2.8-5.4-4.4-3.1-2.7-6.1-5.5-9-8-4 2.1-7.2 3.8-10.5 5.5-.5-.4-1.1-.8-1.6-1.2 2.5-4.4 4.9-8.8 7.7-14.2z" fill="#fff"/>
  <path d="M412.9 231c9.9 13.8 13.8 28.6.4 43.9-9.5-3.3-17.4 2.9-20.7 17.5-16.8 3-31.4-3.4-45.7-11-4.3-2.3-9-5-11.7-8.8-6.7-9.2-2-17.4 4.3-24.8 3.3-3.9 5.2-7.5.9-12-.6-.6-.3-2-.5-3 1.1-.1 2.2-.3 3.3-.3 3.2 0 6.4-.2 9.6 0 2 .1 4 .9 6 1.1 7.3.9 14.6 1.8 21.9 2.4 4.9.4 9.9.5 14.9.1 2-.1 4-1.7 6-2.6 1.1-.5 2.2-1.3 3.4-1.5 2.4-.4 4.8-.6 7.9-1zm-38.3 13.1c-.5-.6-1.1-1.3-1.6-1.9-2.7 1.9-5.5 3.7-8.2 5.6 1.9 2.8 3.2 6.5 5.8 8.1 3.5 2.1 7 .3 8.6-3.7.4-.9 0-2.2-.1-3.3-1.1.2-2.2.3-3.3.6-1.7.4-3.4.8-6 1.5 2.3-3.4 3.5-5.1 4.8-6.9zm-6.4 25.8c3.1 5.4 3.7 5.6 10.3 4.2-1-4.8-2.8-5.5-10.3-4.2zm17.4-18.2c3.2-2 4.9-4.4 2.2-7.2-.8-.9-4-1-4.8-.2-3.4 3.5.4 5.1 2.6 7.4zm-32-6.7c2.2 2.4 4 4.4 5.8 6.4 1-1.3 2.9-2.7 2.7-3.8-.7-3.9-3.4-4.7-8.5-2.6z" fill="#fff"/>
  <path d="M434.4 321c-.4 1.4-.9 2.9-1.4 4.6-9.8 1.2-18.9-1.6-27.2-7.4-5-3.5-2.4-8.4-1.8-12.6.4-3 2.4-5.9 3.9-9.4-3.9.5-8.2 2.6-9.4-3-1.1-4.9 2.9-11.6 8.5-14 3.4-1.4 3.4-1.4 8.2 5.8 6.2-5.8 13.4-6.1 20.4-2 8.4 4.9 14 12 14 22.4v7.7c-.1 6.8-3.9 10.3-10.3 10.3 1.8-1.7 4.4-3.4 5.8-5.8 1.3-2.2 1.2-5.2 1.7-7.8-.7-.3-1.4-.6-2.1-.8-2.4 3.3-4.7 6.7-7.2 9.9-.8 1-2.1 1.5-3.1 2.3.8-2.1 1.2-4.6 2.6-6.3 4.4-5.5 6.8-11.7 7.1-19.2-3.8 1.7-6.9 4.1-9.9 6.4-.7.6-1.5 1-2.1 1.6-5.4 5-10.8 10.1-16.2 15.1 1.7.7 3.2.5 4.6.2 1.8-.5 3.6-1 5.4-1.6l-.1-.1c.6.3 1.5.9 1.7.7 2.6-2.6 5.2-5.3 7.7-8 .6.6 1.1 1.2 1.7 1.8-4.5 3.8-9 7.6-13.4 11.5l.6 1.2c3.3-1.1 6.8-2.3 10.3-3.5zm-22.8-7.4c.4.4.8.7 1.1 1.1 2.7-1.7 5.7-3 8.1-5 4-3.2 7.8-6.8 11.6-10.4 1-1 1.7-2.3 2.5-3.5-1.5.4-3.4.4-4.5 1.3-5.3 4.4-10.5 8.9-15.7 13.5-1 .8-2 1.9-3.1 3zm-3.7-33.8c-2 5.4-7.5 8-5.4 13.8 5.4-1.5 7.4-6.1 5.4-13.8zm-1.8 29.4c5.4-2.2 9.3-3.8 13.2-5.5.9-.4 1.6-1.3 2.4-2-1.2-.4-2.6-1.3-3.6-1-3.4 1.2-6.6 2.6-9.8 4.3-.8.5-1 2.1-2.2 4.2zm21-17.6c-5.1-3-8-2-11.1 3.8 4-1.3 7.2-2.4 11.1-3.8zM418.4 414.5c-1.4 1.6-2.9 5-5.4 6-7.6 3.1-15.5 5.5-23.4 7.8-1 .3-3.4-.8-3.7-1.7-4.2-13.3-4.8-26.4 4.7-37.8 3.7-4.4 9.2-7.7 15.4-5.5 2.8 1 6 3.9 6.9 6.7 2.1 5.9 2.8 12.2 4.2 18.3.3 1.6.6 3.1 1.3 6.2zM404.6 350.2c2.1 1 4.2 2 6.6 3.1-.1.2-.3 1.3-.7 1.3-9.5 1.4-14.5 9.9-22.1 14.4-7.9 4.7-13.7 5.5-21.2.4-3.7-2.5-4.4-6.3-1.6-9.9 2.8-3.6 5.7-7.1 8.6-10.7 2-2.5 3.8-4.4 7.8-4.6 3-.1 5.9-3.7 8.8-5.7 4.8-3.4 9.4-6.9 14.3-10 1.4-.9 3.6-1.4 5.2-1.2 1.3.2 2.3 1.9 3.5 3-1.2.4-2.3.7-3.5 1.1-1.8.7-3.6 1.4-5.5 2.2.1.5.2.9.2 1.4 3 1.1 6 2.1 9 3.2-.1.6-.3 1.3-.4 1.9h-8.3c-.7 6.6 5 3.2 7.6 5.7-2.8 1-5.3 1.8-7.7 2.6-.1.6-.4 1.2-.6 1.8z" fill="#fff"/>
  <path d="M426.4 344.4c.8-1.3 1.7-2.7 2.5-4 5.4 2.5 5.9 1.8 5-9.4 6.6-.9 13.3-2.2 20-2.7 4.2-.3 5.2 2.6 3.6 10.6-5.3-1.4-10.4-2.8-16.3-4.3.2 1.1.5 2.7.6 4.3.4 7.8 3.4 16-2.7 22.8-1.6 1.8-4.9 3.1-7.3 2.9-8.5-.5-17-1.7-25.5-2.6 0-.4 0-.9.1-1.3.9-.4 1.8-1 2.8-1.2 5.4-1.3 8.4-5.9 8.5-11.7 0-5 1-10 2.7-15.1 1.4 4 2.8 8 4.1 12.1.6-.2 1.2-.3 1.9-.4zM487.3 412.5c-9.2-2.7-17.5-5.1-27.2-8 2.9-8.7 5.2-17.4 8.7-25.6 3.1-7.2 11.4-7.9 16.2-1.7 3.4 4.4 6.6 9.1 5.5 15.3-1.2 6.6-2.1 13.2-3.2 20zM447 245.2c2.4 2.9 4.5 5.5 6.8 8.4-1.3 3.4-1.3 8-5.3 10.6-.6.4-1.1 1.1-1.6 1.1-6.5-.5-8.1 5.3-11.6 8.8-.8.8-1.8 1.9-2.9 2.1-5.5.7-11 1.1-16.5 1.6 7.7-8 15-16.5 10.3-29.7 5.1 1.7 5.1 10.1 11.4 7.6.7 1.9 1.3 3.5 1.9 5.1 1.3-1.1 3.1-2.1 3.7-3.5 1.4-4 2.4-8 3.8-12.1zM485 417.6c-3.7 9.5-6.8 11.2-14.6 8.8-9.2-2.7-11.3-6.4-9.1-16.8 7.8 2.7 15.6 5.3 23.7 8zM313.7 377.7c4.4-8.2 11.3-13.7 20.2-16.5 1.2-.4 4.6 2.1 4.7 3.5.2 2.7-.3 7.5-1.8 8.1-7.1 2.9-14.6 4.7-22 6.9-.4-.7-.7-1.3-1.1-2zM391.1 434.1c6.4-1.3 11.8-2.2 17.1-3.5 1.5-.3 2.7-1.7 4-2.6-.3-.4-.6-.9-.9-1.3 2.1-.5 4.2-1 6.2-1.5 4.4 9.1 1.7 13.5-8 15.6-7.5 1.7-12.8-.3-18.4-6.7zM371.3 301.1c1.7-.6 2.1-.9 2.4-.8 7.2 2.8 14.3 1.2 21.6.1 4.4-.6 5.9 1.7 4.4 5.9-.1.3-.4.6-.5.9-1 2.8.9 7.8-3.8 7.8-3.1 0-6.4-2.4-9.4-4.1-3.4-1.9-6.6-4.1-9.8-6.2-1.5-1-2.8-2-4.9-3.6zM353.2 421.7c-4.7-4.3-8.2-7.5-12-10.9 4.3-3.3 8.2-6.2 12.6-9.5 2.2 2.6 4.8 5.2 6.7 8.1.6.9-.2 3-.9 4.2-1.8 2.5-3.9 4.9-6.4 8.1zM360.1 355.3c0-5.2-1.7-11.1.4-14.5 3.3-5.1 7.3.9 12.6 3.1-1.8-3.4-2.9-5.4-4.2-7.8 1.3-.9 2.8-2 4.3-3.1 4.9 6.6-1.5 18-13.1 22.3zM357.8 400.3c7.8-6.7 10-6.9 16-.6 1.9 2 6.7 4.2 1.5 6.9-1.7 0-4-.7-5.1.1-3.6 3-6 2.4-8.2-1.5-1.1-1.8-2.8-3.3-4.2-4.9zM397.9 325.7c-3.1 7.7-8.5 6.5-13.2 4.1-1.9-1-2.4-5-3.5-7.6.5-.4.9-.9 1.4-1.3 5.2 1.6 10.4 3.2 15.3 4.8zM347.4 367.7c2.4 3.4 4.4 6.3 6.6 9.5-2.1 1.4-3.6 2.8-5.4 3.5-1.6.7-4.7 1.3-5.1.7-1.1-1.7-1.9-4.4-1.3-6.2.9-2.6 3.2-4.7 5.2-7.5zM357.2 361.7c1.6 4 2.8 7 4.4 10.9-1.5.6-4.3 2.3-4.6 1.8-2.1-2.4-4-5.1-5-8.1-.4-.7 3-2.6 5.2-4.6zM363.8 385.2c6 1.5 12 2.9 18.7 4.5-.7.9-1.6 2.8-2.2 2.7-6-1-12.1-1.7-16.9-5.8.1-.4.3-.9.4-1.4zM362.5 425.1c-2.2-.8-4.4-1.6-7.9-2.8 4.1-3.3 7-5.6 9.8-7.9.4.4.8.7 1.2 1.1-1 2.8-1.9 5.7-3.1 9.6zM354.6 350.4c.5 2.5 2.2 5.5 1.3 7.4-1 2.3-4.1 3.6-6.3 5.4-.3-.4-.6-.7-1-1.1 1.3-3.7 2.6-7.3 3.9-11 .8-.3 1.4-.5 2.1-.7zM431.4 224.3c3.4 4.1 5.4 7.8 1.1 12-5.4-5.8-5.5-7-1.1-12zM340.2 408.1c-4.3-5.6-2.3-7.3 11.1-9.5-4.3 3.6-7.6 6.4-11.1 9.5zM437.9 228c-1.1-2.8-2.5-5.6-3.3-8.6-.2-.7 1.6-1.9 2.4-2.8 1.1 1 2.8 1.9 3.1 3.1.5 2.4.1 5 .1 7.5-.7.2-1.5.5-2.3.8zM359 377.6c7-4.6 13.2 2.5 19.7.1l.6 1.8c-1.2.7-2.5 2.2-3.6 2-5.4-1-10.6-2.4-16.7-3.9z" fill="#fff"/>
  <path d="M85 8.8c1.4-.5 2.9-1 4.9-1.6L85 4.4c2.8 1.6 8.1-5.8 8.9 2.1-1.2 1.4-2.1 3.1-3.5 4.2-2.6 2.1-4.8 2-5.4-1.9z"/>
  <path d="M338 414.4c-3.2-3-8.9-3.5-8.8-9.6 0-1.3.9-2.7 1.2-3.6 3.2 4.5 5.9 8.4 8.7 12.3-.4.3-.7.6-1.1.9zM354.2 385.5c-1.8-.8-2.9-1.2-4.9-2 3.1-1.2 5.5-2.2 8.1-3.2.9 7.8-1.6 10.4-8.5 9.2 1.7-1.3 3-2.3 5.3-4zM369.1 316.6c-5.9 12-6.1 11.7-.6 16.3-2.2 0-4.2.3-4.4-.1-.9-2.4-2.4-5.2-1.7-7.3 1.1-3 1.1-7.7 6.7-8.9z" fill="#fff"/>
  <path d="M102.9 5.1c3.3-.9 6.5-1.9 9.8-2.5 1.8-.4 3.7-.2 5.5-.2-1.6 2.2-3.1 4.6-6.5 2.5-.5-.3-2.2.3-2.7.9-2.6 3.6-4.4 1.9-6.1-.7z"/>
  <path d="M453.6 400c-4.7 0-8.3-.3-12 .1-3.4.3-6.7 1.2-10.1 1.9-.1-.6-.2-1.2-.3-1.7 6.9-1.1 13.9-2.2 20.9-3.3.2-.1.6 1.1 1.5 3zM346.7 389.8c-1.6 1.3-2.4 2.3-3.4 2.8-2.4 1.2-4.9 2.3-7.5 3.1-.9.3-2-.4-3.1-.6.4-.9.6-2.4 1.3-2.7 3-1.3 6.1-2.4 9.3-3.4.7-.4 1.7.3 3.4.8zM377.6 321c-.9 2.1-1.7 4.3-2.6 6.5-2-.4-3.7-.8-7.2-1.5 3.4-2.7 5.9-4.7 8.4-6.7.5.6.9 1.1 1.4 1.7zM379.2 311.1c1.9 2 3.6 3.8 5.3 5.6l-.6 1.2c-3.5-.9-7-1.8-11.6-3 2.8-1.6 4.5-2.5 6.9-3.8zM448.4 414.7c-.7-1.5-2.4-3.5-2-4.5 1-2.1 3.1-3.7 4.7-5.5l1.5 1.2c-.9 2.6-1.7 5.2-2.6 7.7-.4.5-1 .8-1.6 1.1zM326.3 256.6v13.3c-5.2-5.7-4.8-10.2 0-13.3zM451.5 217.9c.8 3 1.6 6.1 2.5 9.1-.7.2-1.5.4-2.2.6-1.9-2.8-5.5-5.2-2.4-9.4l2.1-.3zM466.1 338.9c-.1-1.1-.3-2.1-.2-3.1.2-1.7.6-3.4.9-5.2 1.1 1.6 2.9 3.1 3.2 4.8.2 1.2-1.5 2.8-2.4 4.3-.4-.3-1-.5-1.5-.8zM452.6 286.7c-1.4 0-3.3.6-4.1-.1-1.3-1.3-1.9-3.3-2.8-5 .6-.5 1.1-.9 1.7-1.4 1.9 1.5 3.8 2.9 5.7 4.4-.2.7-.4 1.4-.5 2.1zM80.1 30.2c-.1-.1-.2-.3-.3-.4l.6-.3c0 .2.1.3.1.5 0 .1-.2.1-.4.2zM96.8 13.4c.1.1.3.2.3.3 0 .1-.2.2-.3.3-.1-.1-.3-.2-.3-.3 0-.1.2-.2.3-.3zM82.9 42.1c.3-.4.7-.7 1-1.1v1.1l.2-.2h-1.3l.1.2z" fill="#fff"/>
  <path d="M95.7 439.1c.2-1.5.4-4.2.8-4.2 2-.1 4.1.3 6.1.7 2.4.4 4.8.9 7.1 1.3.6.1 1.4-.6 2-.4 6.1 2.5 12.4.7 17.5.9 1.1-3 2-5.9 3.2-8.6 2.3-5.3 6-10.4 7-15.9 1.2-6.9.3-14.1.3-21.1-8.4-1.3-16.5.2-20.7-6.5-3.6 1.5-7 2.7-10.3 4.2-1.9.8-3.6 2.1-5.3 3.1-6.5 3.9-12.7 8.7-19.7 11.3-5.7 2.1-9.6-3.1-12.8-7.4-.5-.7-1.2-1.4-1.8-2.1-.3.8-.5 1.7-1 2.3-4.3 5-3.6 11.1-4.4 17-1.3 9.9-8.4 12.3-15.7 5.5-7.7-7.1-12-16-10-26.7 2.4-13.1 5.8-26 12.6-37.7 1.8-3 4-6.1 6.8-8.1 1.2-.9 4.8 0 6.2 1.3 1.7 1.5 2.3 4.3 3.1 5.8 2.9-5.4 5.9-11 8.7-16.7.9-1.8 1.3-3.9 2-5.8.8-2.1 1.3-4.6 2.7-6.3 17.3-21.6 34.8-43.2 52.2-64.7.7-.8 1.7-1.5 2.4-2.1-3.4-7.3-.6-8.1 6.2-12.9-20.2-17.6-29.5-39.4-24.3-66.9 1 1.2 1.8 2 2.8 3.1.2-.9.6-1.5.4-1.7-3.8-4.2-1.6-8.7-.1-12.8 4.1-10.8 11.8-18.8 20.3-26.2 1.5-1.3 2.4-3.2 3.9-4.5 4.1-3.7 8.3-7.2 12.6-10.7.8-.6 2.6-1.3 3-.9 3.5 3.5 6-.2 8.8-1.1 11.4-3.8 22.3-2.6 33.4 1.5 14.3 5.3 26.1 14.1 35.1 26.1 4.2 5.7 8.6 12.2 8.7 20.2 0 .5.9 1.1 1.4 1.5 3.4-1.2 5.6-6.7 10.2-2.8 3.9 3.3 4 8.8-1.1 15.3l-2.7-11.1c-.7-.6-1.3-1.3-2-1.9-2.3 3.6-4.5 7.2-6.8 10.9l-1.8-.6c-.7-1.6-1.6-3.2-2-5-2.7-14.3-9.2-26.2-21.1-35.3-6.9-5.3-13.8-9.6-22.1-12.6-8.2-2.9-16.2-2-24.3-1.6-4.3.3-8.9 1.5-12.7 3.5-4.3 2.3-7.8 6-11.8 9-2.8 2.1-6 3.6-8.5 5.9-7.9 7.2-12.9 15.9-16.5 26.3-5 14.8-2.1 28.6 2.1 42.4 2.8 9.1 9.6 16 15.7 23.2.9 1.1 2.7 2.1 2.8 3.3 1.1 8.1 8.1 10.2 13.7 13.7 6.7 4.2 13.8 7.8 20.4 12.1 2.1 1.4 3.3 4.4 5.5 7.5.9-2.2 2.1-4.2 2.6-6.4 2.2-11 3.9-12 15.1-12.7 5.7-.3 11.4-2.5 18.1-4.1-5.1-6.4-9.3-11.1-12.9-16.2-3.5-4.9-1.9-7.5 4.1-8.2 9.5-1.1 17.3 3.8 25.6 6.9 1.2.4 2.3.9 4.4 1.8.6-3 1.3-5.5 1.5-8.1.3-4.2 1.4-6.3 6.1-4.2 4.3 1.9 5.1.7 5-6.8-4.2-2.5-8.5-5.5-12.9.3-5.7-7.9 8.1-15.6-.4-22.3 1-2.5 1.7-4.9 2.7-7.1.5-1 1.3-2.4 2.2-2.6.7-.2 1.8 1.1 2.6 1.9 1.1 1.1 2.6 2.2 3 3.6.5 1.5.8 4.2 0 4.9-4.8 3.9-.6 9-2 13.3 0 .2 2.2.8 3.1 1.5 2.8 2.5 7.5 5.1 7.8 7.9.3 3.4-2.8 10.1-5 10.4-7.1.9-6.6 5.8-8.5 10.3-1.8 4.1-6.3 2.5-9.7 1.2-5.3-2-10.5-4.4-15.7-6.4-1.6-.6-3.4-.8-5.1-1-3.8-.5-4 1.6-2.1 3.8 2.7 3.1 5.7 6 9 8.7 4.4 3.6 4.5 7-.5 9.6-7.7 4.1-15.6 7.6-24.6 7.6-1.6 0-3.1.2-5 .3.4 1 .4 1.7.7 1.9 7.7 4.8 8.2 5.5 5.4 15-.9 3.1-.8 4.4 2.4 5.6 2.1.8 3.7 2.9 5.6 4.3 4.6 3.5 9.3 6.4 15.6 6.5 8.3.2 16.6 1.7 24.9 2.1 3.4.1 7.9 1.3 9.7-4.1.4-1.1 5-1.5 7.4-1.2 14.7 2.1 28.3 8.2 42.4 12.2 6.1 1.7 12.7 1.8 19.1 2.6 4 .5 8 .8 11.9 1.3 3.7.4 5.2 2.8 4.6 6.1-.5 2.7-1 5.7-2.5 7.7-6.2 8.1-8 17.7-9.9 27.3-.5 2.5-1.4 4.7-5.8 4.3-7.9-.7-16.1.2-24.1.6-14.2.8-27.1-3.7-39.9-9.1-7-3-14.2-5.6-21.5-7.5-10.1-2.6-10.2-2.2-7.5-12.7-4 .3-7.8.1-11.3 1.1-6.7 1.8-13.2 2.6-19.7-.8-.6-.3-1.7-.8-2-.6-4.1 3.6-6.3-.6-9.6-2.7-2.9 9.4-5 18.7-8.7 27.3-2.5 5.8-1.4 9.7 1.8 14.3 2.3 3.4 3.7 7.4 5.7 11.1 1.5 2.9.6 4.2-2.4 5-2.9.7-5.8 1.8-8.9 2.8 1.3 3.8 2.4 7.3 4 12.1 3.9-1.2 8.6-2.3 13.1-4.1 4-1.6 7.4-1.8 11 1.2 3.9 3.2 4 6.8 1.6 10.5-3 4.6-5.9 9.6-9.9 13.2-11.6 10.6-25.8 16-41.3 18.2-1.5.2-2.9.8-4.3 1.7 8.4.9 16.4-1.8 25.1-.3 7.3 1.3 15.4 1.1 23.4 3.1-1.4.7-2.7 2-4.2 2.2-8.5.9-17 1.8-25.5 2.1-5 .2-10.1-.9-15.1-1-8.9-.1-17.9.1-26.8.4-3.3.1-6.5 1.1-9.8 1.1-4.5 0-9 2.7-13.7-.7-1.7-1.2-5.6.7-8.4.6-1.1 0-2.2-1.6-3.3-2.5 1.3-.3 2.6-1.2 4-2.1zm-8.2-84.5c.6.4 1.2.7 1.8 1.1.5-.9.9-1.8 1.4-2.8l-3.3-.6c-1.5.8-2.9 1.6-5.6 3.1 2.9-.3 4.3-.6 5.7-.8zm12.4-39c-.2.1-.3.1-.5.2.2-.1.4-.1.5-.2-.9-1-1.7-2-3.1-3.6-4.5 5.4-8.2 10.3-12.3 14.8-2.8 3.1-2.6 5.8.5 7.9 6.2 4.4 12.7 8.4 19.1 12.5 2.9 1.9 5.2 1.2 5.6-1.6-1.2-7.1-2.5-14.1-3.7-21.1-4.4 2.5-9 5-14 7.8-1-11.6 1.1-15.6 7.9-16.7zm72.1-24.3c-11-9.5-20.5-17.6-29.8-26-3-2.7-5.2-3.4-7.9-.1-4.4 5.6-8.7 11.2-13.4 17.2.7.6 1.7 1.5 2.2 1.8-2.7 9.9-5.3 19.3-8 28.8 3.2 1.1 6.2 2.2 9.2 3.1 5.3 1.6 11.2 2.2 15.7 5 4.8 3 4.9 1.4 6.1-2.7 1.6-5.2 4.2-10.1 6.3-15.1.9.3 1.9.5 2.8.8 0 5.5-4 10.3-4.9 15 4.3-1.1 8.6-2.2 12.8-3.4 3.2-.9 3.3.3 3.2 3.2 0 4.5.9 9 1.5 14.3 8.3-7.9 17.6-12.7 18.8-24.8 1.2-11.6.9-26-2.9-30-.8 2.9-1.5 5.8-2.3 8.6h-2c-.9-3.6-1.7-7.2-2.6-10.8-5 4.3-.2 13.7-4.8 15.1zm62.7 39.6c13.1 5.1 25.5 9.8 37.9 14.7 11.8 4.6 23.9 5.8 36.4 4.6 3.3-.3 6.7-.8 9.9-.2 4.1.7 5.9-.1 6.8-4.5 1.1-5.3 2.8-10.5 4.8-15.5s4.6-9.7 7.2-15.2c-8.6-.8-16.1-.6-23-2.4-14.3-3.7-28.3-8.7-42.6-12.7-4.2-1.2-8.8-.7-14-1.1.9 1.9 1.3 2.4 1.3 2.9 0 3.3.8 7.1-.6 9.8-.8 1.4-5.3.8-8.1 1.3-1.9.4-3.9.8-5.4 1.9-5.6 4.4-9.6 10-10.6 16.4zm-101.9 24.5 1.8.3v9c.7 0 1.3 0 2 .1 2.2-12.5 4.5-24.9 6.6-36.8-9.4-2.9-18.5-5.7-28-8.7-2.4 7.7-2.4 15.5.3 23.1 1.3 3.8 2.6 6.5-2.9 7.7-1.6.4-2.7 3.2-4.6 5.8 4.3-.8 6.7-1.2 9.2-1.7-.5 2.1-1 4.1-1.6 6.6 1.9 2 1.9 2 8.7-5.1.5 1.7.1 3.4.2 5.1.1 1.4.7 2.8 1.1 4.1 1.3-.6 3-.9 3.7-2 1.3-2.2 2.3-4.9 3.5-7.5zm73.3-56.4c-1.6 4.6-3.6 10.1-5.5 15.7-1.8 5.4-.5 7.8 5.2 7.9 7.5.1 15.1-.6 22.6-1.2 2.5-.2 5.7-.3 7.1-1.8 3.4-3.6 5.8-8.2 8.9-12.2.7-.9 2.4-1.4 3.6-1.3 1.6.1 3 1.4 4.5 1.6 1.1.1 2.4-.8 3.6-1.2-.9-1-1.6-2.6-2.6-2.8-4.5-.7-9-1-13.5-1.4-10.9-1-21.8-2.1-33.9-3.3zM62.4 349.9l-2.1-.6c-1.5 1.4-3.2 2.7-4.3 4.4-6.5 10-8.8 21.6-11.6 33-1.7 6.7-2.7 13.8 1.1 20 3.1 5.1 7.4 9.5 11.8 15 2.6-10.1 4.5-18.7-.6-27.3-1.5-2.5-2.8-6.5-1.9-8.9 1.4-3.6-1.7-9.7 5.9-10.6 3.2-.4 6.9-3.6 2.8-8.3-1-1.1-.9-3.3-1-5-.2-3.9-.1-7.8-.1-11.7zm72 82.2c5-.5 9.1-.2 12.9-1.3 12.2-3.5 24.4-6.8 36.2-11.4 8.2-3.2 15.1-8.8 16.9-18.3.2-1.3-.6-3.7-1.6-4.3-2.7-1.5-12.9 2-13.3 4.9-.6 5.4-4.9 7.5-7.5 11.2-3.8 5.5-10.7 4.9-15.2 8.9-.2.2-.9-.3-1.9-.7.8-2.3 1.6-4.4 2.1-6-6 1.2-12 2.2-17.9 3.5-1.1.2-2.4 1.1-3.1 2-2.5 3.7-4.9 7.5-7.6 11.5zm21.7-101.2c-9.8 6.1-13.9 13.7-12.8 23.3.1 1.1 2 2.8 3.1 2.8 6.2.2 12.4-.1 18.6-.2 5.1-.1 9-1.7 10.4-7.3 1-4.1 2.9-7.9 4.3-11.8-4.7 2.7-8.4 6.1-12.2 9.3-1.4 1.2-3.3 2.6-4.9 2.6-.9 0-2.2-2.6-2.7-4.2-1.4-4.7-2.5-9.3-3.8-14.5zM146 405.4c10 .2 17.1-5.3 24.8-9.5 4.5-2.5 2.1-5.1 1.4-7.7-.8-3.3-3.4-2.9-6.1-2.3-6.7 1.5-13.5 2.5-20.2 4.1-1.3.3-3.2 2.4-3.1 3.3.7 4.1 2.1 8.2 3.2 12.1zm29.7-132.6c-1.3-1-2.6-2.2-4.1-3.1-8.8-5.5-17.7-10.9-26.6-16.3-1.7-1-3.8-1.5-5.7-2.3-.4.6-.7 1.3-1.1 1.9 10.1 10.5 20.2 21 30.6 31.7.8-1.8 1.5-4 2.6-5.9 1.2-2 2.7-3.8 4.3-6zm-100 107.7c-.9 3-1.6 5.2-2.2 7.5-1.4 5.8 5 12.9 10.6 11.1 5.5-1.8 10.5-5 15.7-7.5-.1-.5-.1-1.1-.2-1.6-7.8-2.6-17.2-1.3-23.9-9.5zm117.2-88.8c-.9 7.3-1.9 13.6-2.4 19.9-.3 3.5.4 7.1.7 10.7h1.8c.4-.9.9-1.8 1.3-2.8 2.5-7.1 4.6-14.3 7.5-21.3 2-4.6 1.9-6.1-3.1-7.1-1.9-.2-4.1.5-5.8.6zm-86.3 20c.7-.6 1.2-1 1.7-1.4 7.8-7 6.5-18 12-26-9.4 4.1-15.4 16.5-13.7 27.4zm66.3 88.7c-9.3 4.2-18.4 8.4-27.6 12.5 10.7-1.3 21.7-1.6 27.6-12.5zm-99.4-45.6c2.1 1.5 4.2 2.9 6.3 4.4.2-.2.3-.5.5-.7-2.1-2-4.2-3.9-6.4-6-2.3 1.9-4.6 3.8-6.8 5.6.3.4.7.9 1 1.3 1.7-1.5 3.4-2.9 5.4-4.6zM193 270.9c-5.4 2.4-5.4 5.4 0 9.6v-9.6zM69.5 385.1c.5 0 1 .1 1.5.1v-10.1c-6 3.8-1.4 7-1.5 10zm28.5-3.9-.6.6c.7.4 1.3.7 2 1.1.1-.3.4-.9.3-.9-.5-.3-1.1-.6-1.7-.8zm-25.5-10.9c-.1-.1-.1-.3-.2-.4-.2.2-.5.3-.7.5.1.1.2.3.2.3.2-.1.5-.2.7-.4zM78.5 443c-1.8.7-3.5 1.9-5.4 2.1-8.3.8-17.3 3.5-24.7 1.2-7.1-2.2-11.7 2.8-18.1 1.4-.1-.8-.1-2.2-.2-3.6l-12 1.8c-.2-.6-.4-1.2-.6-1.7 2.7-1 5.2-2.6 8-3.1 11.7-2 23.5-4.4 35.3-5 3.8-.2 8.1-.4 12.2 0 1.8 2.4 3.6 4.6 5.5 6.9z"/>
  <path d="M185.9 205.8c-3 4.7-6.7 4.9-10.4 3.6-4.4-1.6-7.1-5.2-7.6-9.8-.4-4.4 5.9-13.4 10.1-14.5 6.4-1.6 9.9 2.5 13.7 9-2.4-.4-3.8-.5-5.1-1-2.8-.9-7.4-3.4-7.9-2.8-2.1 2.8-4.1 6.6-3.8 9.9.1 1.9 4.4 3.7 7 5.2.9.5 2.2.2 4 .4zM78.5 443c-1.9-2.2-3.7-4.5-5.6-6.7 4.8-.3 9.7-4 14.6.4 1.2 1 3.4.9 5.1 1.3-2.2 2.1-4.5 3.6-7.5 1.6-.3-.4-.7-.7-1-1.1-1.9 1.5-3.8 3-5.6 4.5-.1 0 0 0 0 0z"/>
  <path d="M78.4 443c1.9-1.5 3.7-3 5.6-4.5.3.4.7.7 1 1.1 3 2 5.3.5 7.5-1.6 1 .4 2.1.8 3.1 1.2-1.4.9-2.7 1.8-4.1 2.7-3.7 7-8.6 1.7-13.1 1.1zM374.6 244.1c-1.3 1.8-2.6 3.5-4.9 6.8 2.7-.7 4.3-1.1 6-1.5l3.3-.6c0 1.1.5 2.4.1 3.3-1.6 4-5.1 5.8-8.6 3.7-2.6-1.6-3.9-5.3-5.8-8.1 2.7-1.9 5.5-3.7 8.2-5.6.6.7 1.2 1.4 1.7 2zM368.2 269.9c7.4-1.3 9.3-.5 10.3 4.2-6.6 1.4-7.1 1.2-10.3-4.2zM385.6 251.7c-2.2-2.3-6-3.9-2.6-7.4.8-.8 4-.7 4.8.2 2.7 2.9 1 5.2-2.2 7.2zM353.6 245c5.1-2.1 7.8-1.3 8.5 2.6.2 1.1-1.8 2.5-2.7 3.8-1.9-2-3.7-4-5.8-6.4zM434.4 321c-3.5 1.2-7 2.3-10.6 3.5l-.6-1.2c4.5-3.8 9-7.6 13.4-11.5-.6-.6-1.1-1.2-1.7-1.8-2.6 2.7-5.1 5.4-7.7 8-.2.2-1.1-.5-1.7-.8l13.2-14.7c-.5-.5-1.1-1-1.6-1.5-2.8 3.1-5.7 6.1-8.2 9.4-1.5 2-2.2 4.6-3.3 6.9-1.8.5-3.6 1.1-5.4 1.6-1.5.4-3 .6-4.6-.2 5.4-5 10.8-10.1 16.2-15.1.7-.6 1.4-1.1 2.1-1.6 3.1-2.4 6.1-4.8 9.9-6.4-.3 7.5-2.7 13.7-7.1 19.2-1.4 1.7-1.8 4.2-2.6 6.3.2.1.3-.1.3-.1zM411.6 313.6c1.1-1 2.1-2.1 3.2-3.1 5.2-4.5 10.3-9.1 15.7-13.5 1.1-.9 3-.9 4.5-1.3-.8 1.2-1.5 2.6-2.5 3.5-3.8 3.6-7.5 7.1-11.6 10.4-2.5 2-5.4 3.4-8.1 5-.4-.3-.8-.7-1.2-1zM407.9 279.8c2 7.7 0 12.3-5.4 13.8-2.1-5.8 3.5-8.4 5.4-13.8zM406.1 309.2c1.1-2.2 1.4-3.7 2.3-4.2 3.1-1.7 6.4-3.1 9.8-4.3 1-.3 2.4.6 3.6 1-.8.7-1.5 1.6-2.4 2-3.9 1.8-7.8 3.3-13.3 5.5zM427.1 291.6c-3.9 1.4-7.1 2.4-11.1 3.8 3.1-5.7 6-6.8 11.1-3.8zM75.1 38.7l2.1-1.2.2.2c-.8.3-1.5.6-2.3 1 0-.1 0 0 0 0zM77.2 37.5c.1-.3.3-.6.4-.8.2.2.4.3.5.5-.2.2-.5.3-.7.5 0-.1-.2-.2-.2-.2zM79.6 38.6l-1.3 1.3c.4-.5.9-.9 1.3-1.3zM75.1 38.6c-.3.4-.6.9-.9 1.3l-.4-.4c.5-.2.9-.5 1.3-.9 0 .1 0 0 0 0zM82.8 41.9h1.3c-.2.4-.3.8-.5 1.1-.3-.4-.6-.7-.8-1.1z"/>
  <path d="M172 291.3c4.6-1.3-.2-10.7 5-15 .9 3.6 1.7 7.2 2.6 10.8h2c.8-2.8 1.5-5.7 2.3-8.6 3.8 3.9 4.1 18.4 2.9 30-1.2 12.1-10.5 16.9-18.8 24.8-.6-5.3-1.5-9.8-1.5-14.3 0-2.9 0-4.1-3.2-3.2-4.2 1.2-8.5 2.3-12.8 3.4.9-4.7 4.9-9.5 4.9-15-.9-.3-1.9-.5-2.8-.8-2.2 5-4.8 9.9-6.3 15.1-1.2 4-1.3 5.7-6.1 2.7-4.5-2.8-10.4-3.4-15.7-5-3-.9-6-2-9.2-3.1 2.6-9.6 5.2-18.9 8-28.8-.4-.4-1.4-1.2-2.2-1.8 4.6-6 9-11.6 13.4-17.2 2.6-3.4 4.9-2.6 7.9.1 9.1 8.2 18.6 16.3 29.6 25.9zM234.7 330.9c1-6.4 5.1-12 10.8-16.5 1.4-1.1 3.5-1.6 5.4-1.9 2.8-.6 7.4.1 8.1-1.3 1.4-2.6.6-6.4.6-9.8 0-.5-.4-1-1.3-2.9 5.1.4 9.8-.1 14 1.1 14.3 4 28.2 9 42.6 12.7 6.9 1.8 14.3 1.6 23 2.4-2.6 5.5-5.3 10.2-7.2 15.2-2 5-3.7 10.2-4.8 15.5-.9 4.3-2.7 5.2-6.8 4.5-3.2-.6-6.6-.1-9.9.2-12.5 1.2-24.6 0-36.4-4.6-12.7-4.8-25.1-9.5-38.1-14.6zm22.5 5.5c.4 0 .7.1 1.1.1 3.9-5.9 8-11.9 11.8-17.9 1.1-1.7 1.5-3.8 2.6-5.5 2-2.9 2.3-5.5-.6-9.2-2.9 4.5-7.3 8.2-7.6 12.3-.3 4.9-2.6 5-5.6 5.5-.5 5-1.1 9.8-1.7 14.7zm51.2-21.8c-.2 1.5.1 2.9-.4 3.2-3.9 2.8-2.5 9.1-7.7 11.2-1.2.5-1.3 3.4-2 5.2-.4 1-1 1.9-1.3 2.8-.3 1-.9 2.7-.5 3.1 1.5 1.3 3.4 2.2 5.3 3.1.1 0 1.6-1.7 1.4-2.4-1.2-6.1 2.7-10.2 5.9-14.1 4-5.2 4.4-8.3-.7-12.1zm-40.2 25c3.2-2.6 6-3.9 7.4-6.1 1.8-2.8 2.6-6.2 3.4-9.5.3-1.1-.5-2.8-1.4-3.7-.5-.5-2.3-.3-3.2.2-5.4 3.2-5.3 9.3-7.1 14.3-.5 1.1.4 2.6.9 4.8zm58.6-24.7c-1.1 3.3-2.3 6.5-3.3 9.8-.8 2.6-.7 6.4-2.5 7.5-6.3 4-.6 6 .9 9.7 2.6-5.5 6.8-9.7 3.3-15.6 5.5-3 6.1-5.1 1.6-11.4zM245.5 334c3.3-7.2 11.5-10.3 10.5-19.2-8.6 1-8.9 9.8-14.4 13.7 1.1 1.6 2.1 3.1 3.9 5.5zm69.4-11.5c-2.5 4.4-4.9 8.7-7.5 13.2 3.5 3.9 5.8 0 7.6-2.2 2.7-3.1 5.1-6.9-.1-11zm-33.4-6.3h1.8c.9-2.1 2-4.2 2.5-6.5.1-.6-1.7-1.6-2.6-2.5-1.3 1.8-2.9 3.4-3.6 5.4-.3.9 1.2 2.4 1.9 3.6zm26.2 21.9c-1.7 4.8-2.8 7.6-3.9 10.6 3.9.4 6.1-1.4 6.1-5.3.1-1.6-1.2-3.1-2.2-5.3zm-19.9-4.6c.6-.1 1.3-.1 1.9-.2.8-1.4 2.2-2.9 2.1-4.3-.1-1.6-1.3-3.2-2.3-4.5-.1-.2-2.7.8-2.7 1.2.1 2.6.6 5.2 1 7.8zm-2.1 10.5c.2-4.5.4-7.8.6-11.1-.4-.1-.9-.2-1.3-.2-1.6 2.6-3.1 5.1-4.7 7.7 1.4 1 2.6 1.8 5.4 3.6zm7-20.4c1.1-2.2 2.3-3.9 2.8-5.9.2-.9-.6-2.5-1.5-3.1-.6-.4-2.9.1-3 .5-.5 2.9-1.9 6.2 1.7 8.5zM132.8 355.4c-1.2 2.6-2.2 5.3-3.7 7.6-.7 1-2.4 1.3-3.7 2-.4-1.4-1-2.7-1.1-4.1-.1-1.7.3-3.4-.2-5.1-6.8 7.1-6.8 7.1-8.7 5.1.6-2.5 1.1-4.6 1.6-6.6-2.5.4-4.9.9-9.2 1.7 2-2.6 3-5.4 4.6-5.8 5.5-1.2 4.2-3.9 2.9-7.7-2.7-7.7-2.7-15.5-.3-23.1 9.5 2.9 18.6 5.8 28 8.7-2.1 11.9-4.4 24.4-6.6 36.8-.7 0-1.3 0-2-.1v-9c-.4-.2-1-.3-1.6-.4z" fill="#fff"/>
  <path d="M206.1 299c12.1 1.2 23 2.3 33.9 3.3 4.5.4 9.1.7 13.5 1.4 1 .2 1.8 1.8 2.6 2.8-1.2.4-2.4 1.4-3.6 1.2-1.6-.2-3-1.5-4.5-1.6-1.2-.1-2.9.4-3.6 1.3-3.1 4-5.5 8.5-8.9 12.2-1.4 1.5-4.7 1.6-7.1 1.8-7.5.6-15.1 1.3-22.6 1.2-5.8-.1-7.1-2.5-5.2-7.9 1.8-5.6 3.9-11.1 5.5-15.7zM62.4 349.9c0 3.9-.1 7.8 0 11.6.1 1.7 0 3.9 1 5 4.1 4.7.4 8-2.8 8.3-7.6.9-4.5 7.1-5.9 10.6-.9 2.4.4 6.4 1.9 8.9 5.1 8.6 3.2 17.2.6 27.3-4.4-5.6-8.7-9.9-11.8-15-3.7-6.2-2.7-13.3-1.1-20 2.8-11.4 5.1-22.9 11.6-33 1.1-1.7 2.9-2.9 4.3-4.4.8.3 1.5.5 2.2.7zM134.4 432.1c2.7-4.1 5.1-7.9 7.7-11.6.7-.9 1.9-1.8 3.1-2 5.9-1.3 11.8-2.4 17.9-3.5-.6 1.6-1.3 3.7-2.1 6 1 .4 1.8.8 1.9.7 4.4-4 11.3-3.4 15.2-8.9 2.6-3.7 6.9-5.8 7.5-11.2.3-2.9 10.6-6.4 13.3-4.9 1 .6 1.9 2.9 1.6 4.3-1.8 9.6-8.7 15.2-16.9 18.3-11.8 4.5-24.1 7.9-36.2 11.4-3.9 1.2-8 1-13 1.4zM156.1 330.9c1.3 5.2 2.4 9.8 3.7 14.4.5 1.6 1.8 4.2 2.7 4.2 1.6 0 3.5-1.4 4.9-2.6 3.9-3.2 7.6-6.7 12.2-9.3-1.5 3.9-3.3 7.8-4.3 11.8-1.5 5.6-5.3 7.2-10.4 7.3-6.2.1-12.4.4-18.6.2-1.1 0-3-1.7-3.1-2.8-1-9.5 3.1-17.2 12.9-23.2zM99.9 315.6c-6.9 1.1-8.9 5.1-7.9 16.7 5-2.8 9.6-5.3 14-7.8 1.2 6.9 2.5 14 3.7 21.1-.4 2.8-2.7 3.5-5.6 1.6-6.4-4.1-12.9-8.2-19.1-12.5-3.1-2.1-3.3-4.8-.5-7.9 4.1-4.5 7.8-9.4 12.3-14.8 1.4 1.6 2.3 2.6 3.1 3.6 0 .1 0 0 0 0zM146 405.4c-1.1-3.9-2.4-8-3.2-12.2-.2-.9 1.8-3 3.1-3.3 6.7-1.6 13.5-2.6 20.2-4.1 2.7-.6 5.3-1 6.1 2.3.6 2.6 3.1 5.2-1.4 7.7-7.8 4.4-14.8 9.9-24.8 9.6zM175.7 272.8c-1.6 2.2-3.2 4-4.3 6.1-1.1 1.9-1.8 4.1-2.6 5.9-10.4-10.8-20.5-21.2-30.6-31.7.4-.6.7-1.3 1.1-1.9 1.9.7 4 1.2 5.7 2.3 8.9 5.3 17.8 10.8 26.6 16.3 1.5.8 2.8 2 4.1 3zM75.7 380.5c6.7 8.2 16.1 6.9 23.9 9.5.1.5.1 1.1.2 1.6-5.2 2.6-10.3 5.7-15.7 7.5-5.6 1.8-12.1-5.3-10.6-11.1.6-2.2 1.4-4.5 2.2-7.5zM192.9 291.7c1.8-.2 3.9-.9 5.9-.5 5 1 5.1 2.5 3.1 7.1-2.9 6.9-5 14.2-7.5 21.3-.3 1-.9 1.8-1.3 2.8h-1.8c-.3-3.6-.9-7.2-.7-10.7.3-6.4 1.4-12.7 2.3-20zM106.6 311.7c-1.8-10.9 4.3-23.3 13.7-27.4-5.5 8-4.2 19-12 26-.4.4-1 .8-1.7 1.4z" fill="#fff"/>
  <path d="M172.9 400.4c-6 10.9-17 11.2-27.6 12.5 9.2-4.1 18.3-8.3 27.6-12.5zM73.5 354.8c-2 1.7-3.7 3.1-5.4 4.5-.3-.4-.7-.9-1-1.3 2.3-1.9 4.6-3.8 6.8-5.6 2.3 2.1 4.3 4.1 6.4 6-.2.2-.3.5-.5.7-2.1-1.4-4.2-2.8-6.3-4.3zM193 270.9v9.6c-5.3-4.2-5.4-7.2 0-9.6zM69.5 385.1c.2-3-4.5-6.2 1.5-10v10.1c-.6 0-1-.1-1.5-.1zM87.4 352.4l3.3.6c-.5.9-.9 1.8-1.4 2.8 1.1-2.2.9-3.7-2.1-3.5l.2.1z" fill="#fff"/>
  <path d="M87.5 354.6c-1.4.2-2.8.4-5.7.8 2.7-1.5 4.1-2.3 5.6-3.1l-.2-.1.3 2.4z" fill="#fff"/>
  <path d="m87.5 354.6-.3-2.4c3-.2 3.2 1.2 2.1 3.5-.6-.4-1.2-.7-1.8-1.1z"/>
  <path d="M98 381.2c.6.3 1.2.5 1.8.8l-.3.9c-.7-.4-1.3-.7-2-1.1.1-.2.3-.4.5-.6zM72.5 370.3c-.2.1-.4.3-.7.4 0 0-.2-.2-.2-.3.2-.2.5-.3.7-.5.1.2.1.3.2.4zM99.9 315.6s0 .1 0 0c-.2.1-.3.1-.5.2.2-.1.4-.1.5-.2zM85.1 439.6c-.3-.4-.7-.7-1-1.1.3.4.6.7 1 1.1zM314 111.5c-2.2 4.9-4.4 6.1-13.4 7.4.5-2.9 0-6.7 1.5-7.9 3.4-2.8 7.8-2.6 11.9.5zM425.7 317.5c1.1-2.3 1.8-4.9 3.3-6.9 2.5-3.3 5.4-6.3 8.2-9.4.5.5 1.1 1 1.6 1.5l-13.2 14.7.1.1z" fill="#fff"/>
  <path d="M257.2 336.4c.6-4.9 1.2-9.7 1.7-14.7 2.9-.5 5.3-.6 5.6-5.5.3-4 4.6-7.8 7.6-12.3 2.9 3.7 2.5 6.3.6 9.2-1.1 1.6-1.5 3.8-2.6 5.5-3.9 6-7.9 11.9-11.8 17.9-.4-.1-.7-.1-1.1-.1zM308.4 314.6c5.1 3.9 4.7 7 .6 12-3.2 4-7.1 8.1-5.9 14.1.1.7-1.3 2.5-1.4 2.4-1.8-.9-3.7-1.8-5.3-3.1-.4-.4.2-2.1.5-3.1s.9-1.9 1.3-2.8c.7-1.8.8-4.7 2-5.2 5.2-2.1 3.8-8.4 7.7-11.2.6-.3.3-1.6.5-3.1zM268.2 339.6c-.5-2.2-1.4-3.8-1-4.8 1.8-5 1.7-11.1 7.1-14.3.9-.5 2.7-.7 3.2-.2.9.9 1.7 2.6 1.4 3.7-.8 3.3-1.6 6.7-3.4 9.5-1.3 2.2-4.1 3.6-7.3 6.1zM326.8 314.9c4.5 6.2 3.9 8.4-1.7 11.5 3.5 5.9-.7 10-3.3 15.6-1.5-3.7-7.1-5.7-.9-9.7 1.7-1.1 1.6-5 2.5-7.5 1.1-3.4 2.3-6.6 3.4-9.9zM245.5 334c-1.8-2.5-2.8-3.9-3.9-5.5 5.5-3.9 5.9-12.7 14.4-13.7 1 8.9-7.2 12-10.5 19.2zM314.9 322.5c5.2 4.1 2.8 7.9.1 11.1-1.8 2.1-4.1 6.1-7.6 2.2 2.6-4.6 5-8.9 7.5-13.3zM281.5 316.2c-.7-1.2-2.2-2.7-1.9-3.6.7-2 2.4-3.6 3.6-5.4.9.8 2.7 1.9 2.6 2.5-.5 2.2-1.6 4.3-2.5 6.5h-1.8zM307.7 338.1c1 2.2 2.3 3.8 2.3 5.3 0 3.9-2.3 5.6-6.1 5.3 1-3.1 2-5.9 3.8-10.6zM287.8 333.5c-.4-2.6-.9-5.2-1-7.8 0-.4 2.6-1.4 2.7-1.2 1 1.4 2.3 3 2.3 4.5 0 1.4-1.3 2.8-2.1 4.3-.6.1-1.2.1-1.9.2zM285.7 344c-2.8-1.9-4-2.7-5.4-3.7 1.6-2.6 3.1-5.1 4.7-7.7.4.1.9.2 1.3.2-.2 3.4-.4 6.8-.6 11.2zM292.7 323.6c-3.6-2.3-2.2-5.6-1.7-8.6.1-.4 2.4-.9 3-.5.9.6 1.7 2.2 1.5 3.1-.6 2.1-1.8 3.8-2.8 6z"/>
  <text transform="translate(33.066 39.304)" fill="#fff" font-family="BaskervilleT-Bold" font-size="35" letter-spacing="4">PEANUTS</text>
  <text transform="translate(299.49 42.208)"><tspan x="0" y="0" font-family="Peanuts" font-size="34">WOULD YOU LIKE</tspan><tspan x="19.8" y="40.8" font-family="Peanuts" font-size="34">TO READ THIS</tspan><tspan x="15.3" y="81.6" font-family="Peanuts" font-size="34">BEFORE I MAIL</tspan><tspan x="71.1" y="122.4" font-family="Peanuts" font-size="34">IT OFF?</tspan></text>
</svg>
