<svg xmlns="http://www.w3.org/2000/svg" viewBox="0 0 595.3 456.7" xml:space="preserve">
  <path fill="#fff" d="M0 0h595.3v456.7H0z"/>
  <path d="M0 456.7V0h595.3v456.7H0zm4.3-3h586.6c.4-1.9 1-3.4 1-4.9-.1-8-.7-15.9-.7-23.9.1-21.7.7-43.4.7-65 0-21.5-.4-42.9-.5-64.4 0-15 .5-30 .5-45-.1-17.2-.7-34.4-.8-51.6 0-12.1.7-24.3.8-36.4.1-26.6 0-53.2 0-79.7 0-24.3-.1-48.5.1-72.8 0-5.1-1.8-6.7-6.9-6.7-191.3 0-382.7 0-574.1-.1-5.1 0-6.8 1.3-6.8 6.6.2 50.4.1 100.8.1 151.1v292.8z" fill="#fff"/>
  <path d="M4.3 453.7V160.9c0-50.4.1-100.8-.1-151.1 0-5.3 1.7-6.6 6.8-6.6 191.4.1 382.8.1 574.1 0 5.1 0 7 1.5 6.9 6.7-.2 24.3-.1 48.5-.1 72.8 0 26.6.1 53.2 0 79.7-.1 12.1-.8 24.3-.8 36.4 0 17.2.7 34.4.8 51.6.1 15-.5 30-.5 45 0 21.5.5 42.9.5 64.4 0 21.7-.6 43.4-.7 65 0 8 .5 15.9.7 23.9 0 1.5-.6 3-1 4.9-195.4.1-390.6.1-586.6.1zm553.2-266.5c.9-.1 2.3.2 2.6-.2 3-4.4 10.7-4.3 10.9-11.4 0-.8 1.6-1.6 2.3-2.3 2.2 2.3 4 4.3 5.9 6.3.5-.4.9-.9 1.4-1.3-1-1.3-2-2.7-3.1-4-2.7-3.2-2.3-6.6 1.1-9 7.4-5.2 8.3-12.2 2.7-19.8-.6-.9-.7-2.2-.9-3.3-.3-1.9-.2-4-.9-5.8-1.9-4.8-4.1-9.5-6.6-15.3-1.4-.9-3.9-3.3-6.7-4-6.5-1.5-10.5-4-11.6-9.4-.3-1.5.5-3.3.8-4.9h1.4c2 3.7 3.9 7.4 5.8 10.9 1.6-2.9 2.8-5.3 4.1-7.6 2.3 1.8 4.6 3.5 6.7 5.2 1.1-1.7 2.7-4.2 4.6-7.3 1.2 1.8 1.7 2.5 2.1 3.2 3.3 5.1-.4 10.2-.2 15.3.3 4.9.1 9.8 4 13.6.6-13.2.8-26.2.4-39.3-.2-5.3-5.9-7.7-10.3-4.6-4.9 3.5-9 3.1-14.1 0-3.4-2.1-8.4-3.8-11.8-2.8-8.1 2.5-8.9 13-2.3 18.4.8-3 1.6-6 2.4-9.1l1.5.3c.7 3.6 1.5 7.1 2.1 10.7.1.6-.9 1.3-1.3 1.9-3 4.7-6 9.3-8.9 14.1-.5.9-.5 2.1-.8 3.2 1.1 0 2.2.2 3.2 0 10-2.7 10.7-2.4 15.3 5.8 2.5-3.3 5-6.8 7.8-10.5 1.9.6 3.7 1.1 6.4 1.9-4.5 3.5-3.7 11.2-10.2 9.6-1.3 3-2.4 5.5-4.1 9.3-1.7-9.4-4.6-10.9-11.6-7.4 2.3 2.8 4.6 5.7 6.8 8.5-.4.5-.8.9-1.2 1.4-2.2-.5-4.5-1.1-6.6-1.6.8 2.3 1.6 4.7 2.4 7.2-.5.1-1.1.3-1.6.4-5.5-4.4-7.6-10-6.1-17.1-7.2 4.7-14.2 9.3-21.9 14.3 2.1 1.2 3 2.2 3.9 2.2 5.2.1 8.8 2.2 10.2 7.5.2.7 1.7 1 2.5 1.5.5-1.1 1.4-2.2 1.3-3.3 0-1.8-.6-3.6-1.1-5.9 5.7 3.3 7.7 10.5 5.4 15.9-1.2 2.7-3.1 7.5-2.1 8.5 4.9 4.4-.2 6.8-.1 9.7-2-3.4-4.1-6.3-5.5-9.5-.6-1.3.1-3.4.8-4.8 1.2-2.4 2.8-4.6 4.3-7-5.3-.9-10.3-1.1-11.8-7.8-1.9 2.8-3.4 4.9-4.8 6.9 3.5 2.3 6.7 4.4 10.3 6.8-1.8 1.4-2.9 2.2-3.5 2.7-3.3-2.1-6.1-3.9-9.7-6.2-.1 4.1 3 7.9-2.6 8.7-1.4.2-3.9 2-3.8 2.5.6 1.8 1.7 3.6 3 5 1.2 1.2 3.2 1.7 4.2 3 2.7 3.3 5.5 4.7 9.5 1.5.3.5.5 1 .8 1.5-1.9 2.1-3.8 4.2-7.2 7.9-2.1-3.3-3.8-5.9-5.5-8.5-.5 5 1 7.5 5.3 9.8 4.8 2.5 9 4 14 2.9 4.5-1 8.9-2.7 9.9-8.2 3.8-2.4 7.1-4.6 10.4-6.8zm-386 236.5c-6.1 4.6-11.7 10.8-20.7 6.1-.8-.4-2.1-.1-3.2-.1-5.9.3-11.8 1-17.6 1-5.9 0-11.8-1-17.7-.9-18.5.2-37 .6-55.5 1-9.7.2-19.3.6-29 1.1-5.4.3-10.8 1.1-16.3 1.7v13.1c5 .5 10.5 1.6 15.9 1.4 16.2-.9 32.4 1.5 48.7-.2 11.2-1.2 22.8.4 34.2.3 20.3-.1 40.6-.6 61-.9 12.6-.2 25.2-.1 37.9-.1h52.4c26.2 0 52.3-.1 78.5 0 7.5 0 15 1 22.5.9 9.6 0 19.1-.7 28.7-.9 3-.1 6 1 9 .9 10.6-.2 21.2-.9 31.8-.9 9 0 17.9.7 26.9 1 3.1.1 6.3-.7 9.4-.7 8.5 0 16.9.2 25.4.2 10.5-.1 20.9-.4 31.4-.4 3.5 0 7.1 1 10.6 1 14.7-.2 29.5-.7 44.2-1 1.4 0 2.8-.2 4.6-.3v-39.9c0-13.4 0-26.7.1-40.1.1-5.2.9-10.4.8-15.7-.1-11.7-.7-23.5-.8-35.2-.1-7 .5-14 .3-21-.1-2.1-1.6-5.1-3.4-6-6.8-3.6-13.9-6.4-20.9-9.6-12.8-6-25.5-12.1-38.2-18.1-8.2-3.9-9.7-3.2-14.2 4.9-5.5 9.8-7.7 21.9-18.8 27.4.8 1.6 1.6 2.6 1.9 3.8 2.9 9.4 5.7 18.8 8.8 28.1.4 1.2 2.1 2.1 3.4 2.7 6.4 3.2 13.7 4.9 17.7 11.5-4 6-7.9 12-11.8 17.9 3.3 2.8 6.1 5.2 9.3 7.8 1.4-3.3 2.7-6.5 6.1-4 2.3-5.7 3.8-11.7 6.8-16.6 1.8-2.9 6.2-6.1 9.1-5.9 3.2.3 6.7 4 8.9 7 1.7 2.4 2 6 2.2 9.1.8 13-3 24.9-9.7 35.8-6 9.8-12 19.7-18.8 28.8-3.1 4.2-8.4 6.8-13.3 10.7 8.4 2.2 16 1 23.8 3.1 9.5 2.6 20.6-.6 31.1-1.2 5-.3 10 0 15 0l.3 1.8c-5.5 1.5-11 4.2-16.6 4.4-23.7.8-47.4.7-71.1 1.3-14.5.4-28.9 1.3-43.4 2.1-10.7.6-21.4 1.4-32 2.1-1.5.1-4.1.1-4.5-.7-1.9-3.4-4.8-2.5-7.5-2.4-3.4.1-6.7.8-10.1 1-11.8.7-23.5 1.4-35.3 1.9-1 0-2.1-.9-4.4-2 19.1-3 37-3 54.9-3.2 17.5-.3 35-1.8 52.5-2.7-6-1-12-1-17.9-1-8.2-.1-16.5-.6-24.7-.2-7.8.4-15.5 1.9-23.2 2.7-2.3.3-4.7.1-7.1.2-10.7.3-21.4.7-32.1 1-5.8.1-11.6 0-17.5 0V437c11-.6 22.1-1.3 33.1-1.9-24.4-.7-48.6-1.2-72.9-.6-24.2.7-48.3 2.9-72.6 1.6 31.2-2.4 62.3-4.1 93.5-4.8 31.6-.6 63.1-.1 94.7-.1-1.5-.8-3.2-1.1-4.8-1.1-7.2-.1-14.4.1-21.6-.1-15.9-.4-31.8-1.3-47.7-1.3-11.9 0-23.8.8-35.7 1.4-14.7.7-29.5 1.8-44.2 2-12.4.2-24.8-.8-37.2-1.3-.2 0-.3-.5-1.2-1.9 60.8.5 120.8-5.8 180.9-1.8-6.7-8.4-13.2-15.8-18.9-23.7-3.2-4.5-5.8-9.7-7.7-14.9-1.6-4.5 1.5-7.4 6.2-7.1 8.1.5 16.3 1.2 24.3.8 3.5-.1 6.9-2.6 10.4-4.1-2.8-2.3-5.4-5.1-8.5-6.9-7.7-4.5-17.2-7.4-15.5-19.5.1-.6-2.9-1.6-4.5-2.5-4.8-5.5-6-11.6-4.1-18.9 1.5-5.8 2.2-12 2.2-18 0-7.7-.8-15.4-1.5-23.1-.7-7.9-1.7-15.8-2.6-23.8-.4-3.1.3-7.4-1.5-9.1-5.1-4.8-3.7-9.5-1.4-14.5 1.2-2.7.5-3.9-2.2-4.6-12.4-2.8-24-7.3-34.9-14.2-8.7-5.5-15.5-12.4-20.2-21.1-4.7-8.7-7.5-18.2-7.1-28.5.3-7.6-2-15.2-1.7-22.8.3-5.9 2.7-11.8 4.3-17.7.2-.7 1.2-1.1 1.9-1.6 1.3-.9 3.1-1.4 3.9-2.6 4.4-6.2 8.2-12.7 15-17 9.1-5.8 18.9-9 29.2-11.8 14.1-3.7 27.9-3.2 41.1 2.5 9.5 4.1 18.2 9.8 27.3 14.8.6-1 1.5-3 3-4.4 1.6-1.4 3.9-3.2 5.7-3.1 4.4.3 9.9 9.6 9.2 15.6-3-3-6-5.4-8.2-8.3-3.1-4-4.3-2.8-5.2 1.2-.6 2.8-1.2 5.7-2.1 9.8-3.4-2.8-5.7-4.7-7.9-6.6-12.8-11.2-28-16.9-44.6-18.3-5.5-.5-11.2 1.1-16.8 2-19.2 3.2-35.9 10.7-43.8 29.9-3.2 7.8-3.6 16.7-5.2 25.1-3 16 2.2 30.6 9.6 44.2 6.3 11.5 18.4 16.8 29.9 22 4.7 2.1 10.1 2.8 15 4.5 4.6 1.6 10.7 1.8 10.4 8.5 4.4 0 8.3.2 12.2 0 11.9-.9 23.7-1.9 35.6-3 1.2-.1 3.5-2.3 3.3-2.6-2.9-6.4 2.3-8.5 5.8-11.6 5.3-4.6 9.4-10 12.6-17.8-5.3.5-9.5 1.3-13.6 1.3-2.9 0-6.6-.3-8.6-2.1-3.1-2.9-1-6.8 1.1-9.7 1.4-1.9 3.7-3.4 5.9-4.1 6.5-2.1 13.1-3.6 19.6-5.6 6.7-2 7.1-3.1 4.2-9.5-1.4-3.2-3.6-6.6 1.7-8.5 1.5-.5 3.9-2.1 3.8-2.7-.6-2.5-1.5-5.3-3.2-7.3-2.9-3.5-6.6-.1-10 0-.7 0-1.2 3.1-1.9 4.7-.4.9-1 1.6-1.6 2.6-3.9-3.3-6-7.4-3.7-11.8 2-3.8.7-6.2-1.1-9.2-2.4-4.1-4.5-8.4-7.2-13.5 2.2.3 3.5.2 3.8.6 4.1 5.7 8.5 11.3 11.9 17.4 1.7 3 2.8 4.4 6.5 3.9 4.5-.5 8.5 1.4 10.1 6.1 1.3 3.9 4.1 8.7 0 11.7-3.6 2.7-3.8 5.3-3.6 9 .4 8.1-.2 8.8-8.7 10.9-5.4 1.4-10.9 2.6-16.2 4.4-3.1 1-6.3 2.7-6.3 7.5 6.3 0 12.3.1 18.4 0 3.4-.1 5.4 1.8 3.9 4.5-3.2 5.7-7.2 11-11.2 16.2-2.9 3.8-6.4 7.2-9.7 10.8.3.5.6.9.9 1.4 9-1.1 14.2 3.4 17.9 10.9 2.3 4.6 5.4 8.7 8.9 14.2 4.8-7 8.6-12.4 12.4-17.8-6-6.1-16.4-5.6-18.8-16 9.7-5 18.1-12.3 29.6-12.8-6.1-8.3-6.7-11.9-2.4-16.5 5-5.3 9-1 12.5 1.7 1.9-2.4 3.5-4.5 5-6.4 2.1 1.5 3.6 2.5 5.1 3.5.6-.3 1.2-.6 1.7-.8-.8-2.6-.8-5.9-2.4-7.7-4.1-4.4-3.9-8.2 1.3-11.5 1-.6 1.9-1.4 2.5-2.4 1.9-3.4 3.9-6.8 5.4-10.3.6-1.4.7-3.9-.2-4.8-4.3-4.7-4-9.8 1.5-13 4.5-2.6 9.3-4.9 13.1-6.8.2-3.8-.3-7.1.7-9.8.8-2.3 3.8-3.7 5-5.9 2-3.4 4.2-6.5.1-10.9-3.6-3.9-5.7-9.3-2.8-15.3 4.2-8.7 15.2-12 24-8.2 2.7 1.1 6.6 2 8.9.9 4.5-2.4 8.6-2.7 13.7-.2 0-12.1.1-23.1 0-34.2-.1-12.9-.3-25.8-.8-38.7-.1-1.5-1.9-4.2-3-4.2-12.7 0-25.5.5-38.2.7-5.1.1-10.1 0-16.5 0 2.5 1.8 4 2.6 5.2 3.8 5.9 5.3 10.8 11.3 13.2 19.2 3.6 12.1-2.4 21.9-8.4 31-6.4 9.6-17.8 11.6-28.3 14.1-6 1.4-12.2 1.9-18.4 2.7-10.5 1.3-20.9 3.2-31.4 3.8-16.7.9-33.4.9-50.1 1.2-4 .1-8-.1-12 0-10.8.3-21.7 1-32.5 1-11.1 0-22.2-.5-33.3-1.1-4.5-.2-6.1 2-6.4 5.9-.4 5-.6 10-1.2 14.9-.2 1.3-1.2 3.1-2.2 3.5-1.1.4-3.2-.1-4.1-1-5.2-5.1-7.8-11.7-8.6-18.8-.4-3.6-1.7-4.5-5-4.5-9.6-.2-19.1-.6-28.7-1-5.2-.2-10.5-.3-15.7-1.1-9.9-1.5-19.6-3.6-29.5-5.3-12.9-2.2-25.4-5.3-36.2-13.1-5.5-4-11.7-7.8-12.9-15.5-1.8-11.4 2.9-20.5 10.2-28.6 3.5-3.9 7.4-7.5 11.4-11.6h-45.4c1.9 2.3 3.3 4.5 5.2 6 10.5 8.3 14.3 19.9 15.2 32.4 1.4 19.4-11.8 34.6-27.7 41-11 4.4-23 7.7-34.8 8.4-8.5.5-10 4.6-11.7 10.5-.6 2-.8 4.2-1.6 6.1-.7 1.7-1.9 3.2-2.9 4.8-.5-.1-1-.3-1.5-.4-1.8-6.8-3.6-13.6-5-19.2-10.8-2-20.4-3.9-30.1-5.6-13.4-2.7-25.7-7.8-35.1-18.5-5-5.7-8.1-12.5-8.3-20.1C16.7 37.3 26 23.8 40.2 13c.8-.6 1.4-1.6 2.8-3.2H10.3v70.4c0 12.4.3 24.8.3 37.3.1 21 .1 42 .1 63.1 0 1.7-.8 3.4-.7 5.1.5 12.8 1.5 25.7 1.6 38.5.1 16.3-.8 32.5-.8 48.8 0 16.4 1 32.9.9 49.3-.1 17.6-.9 35.2-1.2 52.9-.1 8 .5 16.1.6 24.1.1 4.6-.5 9.3-.3 13.9.1 1.2 2.2 3.3 3.4 3.3 9.9 0 19.7-.5 29.6-.8 1.9-.1 3.8 0 5.5 0-.3-5.5-1-10.2-.6-14.8.4-4.7 2-9.3 2.9-13.9.2-.9-.1-2.5-.7-2.9-3.4-1.9-2.5-4.6-1.8-7.4 1.6-6.5 2.9-13.1 5-19.4 2.5-7.5 5.7-14.8 8.7-22.1 3.5-8.8 7.6-17.3 10.6-26.3 2.5-7.3 3.2-15.2 5.7-22.5 2.5-7.3 2.3-10.8-3.6-15.4-3.7-2.9-7.9-5.3-11.8-8.1-8.1-5.8-16.6-11.1-24-17.7-4.3-3.8-6.5-9.9-10-14.7-6.3-8.5-8.1-17.9-6.5-28.1.5-3.1 2.3-6.7 1.4-9.3-2-5.3-3.9-10.4-1.5-15.9.7-1.7 2.6-3.2 2.8-5 .8-7.5 5.6-13 9.6-18.6 3.5-4.9 9-8.3 12.7-13.2 6.2-8.1 15.2-9.2 23.9-11.8 4.4-1.3 8.1 0 12.1.3 3.2.3 6.5.8 9.7 1.4 1.7.3 3.5.7 4.9 1.6 6.9 4.3 13.9 8.1 21.9 10 4.2 1 8.1 3.6 12.4 4.1 8.4 1 16.5 6.6 25.4 2.5.1 0 .3.2.5.2 10.4 2.4 17.9 8 22 18.3 4.6 11.5-4.2 26.6-14.3 27.3-.7 4.1-1.5 8.3-2.3 13 10.3-2 13.1 3.9 10.8 10.9-.5 1.5-.4 3.6.3 4.8 4.3 7.1 2.3 11.1-6 11.8-8.2.7-15.8 3-22.9 9 2 1.1 3.4 2.3 5.1 2.9 2.6.9 5.4 1.3 8.1 2.2 5.1 1.6 5.7 4.1 3.2 8.7-4.6 8.4-11.5 13.6-20.7 16.2-3.7 1-7.3 2.5-10.6 4.5-5 3.1-5.3 8.6-1.3 12.7 1.3 1.3 2.2 3.1 2.8 4.9 2.7 7.1 5.3 14.3 7.8 21.1 6.8-2.8 12.7-5.3 18.7-7.7 5.9-2.4 7.9 2.3 10.5 6 2.8 3.9-.3 5.9-1.9 7.7 1.5 3.3 4.4 8.5 3.1 9.9-5.1 5.7-4.1 14.9-11.6 18.8-.8.4-1.1 1.6-1.9 2.8l5.4 2.7c.7-1.3 1.1-2.1 1.4-2.8 2.9-6.8 5.5-13.8 8.9-20.3 1-1.9 5.5-4.3 6.5-3.6 2.6 1.7 6.6 3.2 5.8 8-.2 1.4.4 3.5 1.5 4.4 4.6 4 6.2 9.2 6.4 14.9.1 2.8.6 4.1 3.8 4 6.7-.2 13.5-.3 20.3.1 3.4.2 5.2-.5 6.5-4 1.8-4.9 6.9-6.6 12.4-5.4 1 .2 2.1 0 3 0 1.5-10.7 1.5-10.7 12.3-10.7h4.9c14.3-.2 28.5-.6 42.8-.6 8.2 0 16.3 1 24.5 1 8.6.1 17.2-.4 25.8-.5 3.4-.1 6.7.1 10.1.1h25.2c-1.5 1.7-2 2.9-2.7 3-3.4.4-6.9.3-10.3.7-4.4.4-8.8 1.5-13.1 1.4-6.6-.2-13.1-1.6-19.7-1.7-4.8-.1-9.6 1.7-14.4 1.8-10.6.2-21.2-.7-31.9-.1-10.8.6-21.7-.1-32.5-.3-4.9-.1-9.8-.6-14.7-.7-.8 0-2.3 1-2.2 1.5.1 2.5.3 4.9 1 7.3.2.9 1.6 1.9 2.6 2 4.1.2 8.1.2 12.2.2 10.7 0 21.4.1 32.1.1 10.5 0 21.1-.8 31.5.2 9.1.9 17.1-.9 25.1-4.8 2.5-1.2 5.4-1.7 8.2-1.9 11.3-.8 22.7-1.4 34.1-2 2.3 2.4 3.2 4.8-1.3 5.2-3.9.4-8-.2-11.9.2-5.1.5-10.1 1.7-13.8 2.3-3.8 5.2-10.9 1.9-13.9 7.6 9.2-5.8 17.4-2.1 25.8 2-5.2.8-10.4 1.5-15.5 2.3v1.5c2.7.4 5.3.9 8.6 1.4-2.1 1.6-4 3-5.9 4.5.1.4.3.9.4 1.3 9.9-1.1 19.8-2.3 29.6-3.4.6-.1 1.2.8 1.9.8 2.3.1 4.5-.1 6.8-.1 3.3 0 7.2-2.4 10.1 2.5-2.2.7-4.1 1.8-6.1 1.9-14.4 1.2-28.7 2.6-43.1 3.1-7.3.3-13 2.6-18.2 7.4-5.5 5.1-11.7 8.3-19.6 8-7.3-.3-14.6.2-21.9.2-8.5 0-16.9-.2-25.4-.1-1.9 0-3.9 1.2-5.8 1.1-7-.2-13.9-1.1-20.9-1.1-10 0-19.9 1.1-29.9.7-3.6-.1-5.8.3-6.1 3.7-.4 4.9-.1 9.8-.1 15.3 43.2-2.4 85.9-3.6 128.6.2-6.4 3.1-13.3.1-19.9.5-7.4.4-14.9.2-22.4.1-7-.1-14-.8-21-.7-7.1.1-14.3.8-21.4 1.1-7.1.3-14.3.5-21.4.8-7.1.3-14.2.5-21.3.8.1.9.1 1.8.2 2.7 6-.5 12.1-1.1 18.1-1.3 16.6-.5 33.1-.9 49.7-1.1 8.5-.1 16.9 1 25.4.9 12-.2 24.1-1.3 36.1-1.4 6.7-.1 13.4 1.1 20.1 1.4 4.7.2 9.4-.1 14.1-.1 5.7 0 11.4.2 17.1.4.4 0 .7 1.3.9 1.9-13.1 0-26-.1-38.8 0-10.8.1-21.6.9-32.4.8-8.5-.1-17-1.5-25.6-1.6-8.7-.1-17.5.6-26.2.8-18.5.4-37 .7-55.5 1.1-3 .1-5.1.6-5.9 4.4-.5 2.3-3.6 4-6.1 6.7-1.4-3.5-2.9-5.6-3-7.7-.3-7.6-.2-15.2-.2-22.8 0-7.4 0-7.6-7.2-7.6-3.3 0-8.3-.3-9.6 1.6-5.9 8-10.4 16.7-15.4 25zm143.5-320c.6-.1 1.3-.2 1.9-.2 1.5-6 2.9-12.1 4.6-18 .5-1.6 2.2-4 3.4-4 7.2-.4 14.4-.3 21.6-.2 17.3.3 34.6 1 51.9.8 13-.1 26-1.3 39-1.9 2-.1 4.1.7 6.1.5 16-1.5 32-2.9 47.9-5 9.4-1.2 18.7-3.1 27.8-5.4 13.8-3.5 19.2-13.8 20.4-27.2.9-9.7-3.9-17.1-10.1-23.4-3.6-3.7-8.4-8-13.1-8.5-13.2-1.4-26.6-1-40-1.2-7.2-.1-14.4-.1-21.6-.1-7.9-.1-15.8-.3-23.7-.3-7.8.1-15.6.6-23.4.7-6.2 0-12.5-.5-18.7-.5-4.6 0-9.3.3-13.9.3-11 0-21.9-.3-32.9-.3-10.9-.1-21.9.1-32.8 0-20.7-.1-41.3-.3-62-.4-7.4 0-14.8 0-22.2.1-4.5.1-10.1-1.3-13.4.8-9.7 6.1-19.3 12.4-23.9 24.3-6.3 16.4-.3 24.1 12.6 30.3 10.1 4.8 20.8 7.7 31.7 9.7 12.7 2.3 25.5 4.4 38.3 5.5 12.5 1.1 25.2.8 37.7 1.6 1.6.1 3.8 3.1 4.2 5 1.4 5.5 1.9 11.3 2.6 17zm-148.8 61c5.9 7.7 12.5 15.3 2.5 24.5 7.6-3.6 9.7-11.6 5.9-20.6-6.6-15.4-16.7-16.7-32.5-12.5-7.5-3-13.5-7.5-19.5-7.3-8.5.2-13.2-7.9-21.2-7.3-.2 0-.6-.8-.8-1.2-2.2-4.3-5-5.2-8-2.2-10.4-6.2-18.7-.1-28.2 3.5 1.2-2.5 2-4.1 2.8-5.7-5.4 2.1-10 5.1-14.7 8.1-9.6 6.2-13.3 16.7-19.2 25.7-.6 1-.9 2.4-.8 3.5.5 5.3 1.1 10.5 1.8 16.5-2.2-.7-4.1-1.3-5.9-1.9l-.9.9c2.2 2.2 4.3 4.5 7.3 7.5-2.2.9-4.2 1.7-6.5 2.7 0 .5-.2 1.4-.1 2.2 1 5.5 3.5 10.9.1 16.5-.5.9-.3 2.7.2 3.7 3.2 5.2 6 10.9 10.1 15.4 5 5.5 11.1 9.9 16.8 14.7.7.6 1.9.4 4 .8-6.5-6.4-12-12-14.8-19.3.6-.4 1.3-.9 1.9-1.3 3.5 4.6 7.1 9.2 10.6 13.8 2.8-2.9 5.2-2.1 7.7.6 1.1 1.1 2.8 1.6 4.3 2.3 1.4-6.3 4.2.4 6.6-.8-.6-2.5-1.2-5.1-1.8-7.7.5-.3.9-.5 1.4-.8 1.2 2.3 2.4 4.5 3.6 6.8.4-.1.9-.2 1.3-.4-.3-1.7-.8-3.4-.9-5.1 0-.9.6-2.4 1.2-2.6.7-.3 2.2.4 2.6 1.1.5.9.2 2.3.4 3.4.8 5.5-2.5 11.4 1.9 16.8 1.2 1.5 1.8 5.3-2.4 6.1-5.4-5.4-10.7-11.1-19.8-10.7 5.2 3.9 9.6 8.2 14.7 10.9 6.9 3.6 9.3 9.4 9.8 16.4.3 3.5 1.8 3.9 4.7 4.2 8.6.8 17.2 2.1 25.9 3 1.1.1 3.2-1.1 3.5-2.1 2-8.5 7.9-12.6 15.7-15.2 7.1-2.4 14.6-4.5 18.9-11.6 1-1.6 1.9-3.2 2.8-4.8-2.1-.7-4.2-1.3-6.2-2-2.3-.8-4.7-1.4-6.7-2.7-5.2-3.1-5.5-5.3-1.7-10 6.4-7.8 15.9-8.3 24.8-10.2 1.1-.2 2.7-.2 3.2-.9.5-.6.1-2.4-.4-3.2-1.8-2.6-4-5-5.8-7.6-.5-.7-.3-1.9-.5-3.2 2 .4 3.5.7 5.6 1.1-.5-2.5-.9-4.4-1.3-6.6-4.5 1.9-8.3 3.4-12.2 5-3.7-8.2 3.9-14.2 3.7-21.6-2.8 1.5-5.3 2.9-8 4.4-.2-2.3.1-4.2-.6-4.7-2.7-1.8-5.7-3.1-8.6-4.7-1-.6-2.1-1.4-2.4-2.3-.2-.7.6-2 1.3-2.6 1.3-1.1 3-1.8 5-3 1.9 5.5 5 3.6 8.4 1.7 1.5-.9 3.6-.8 6.2-1.3-3.1 5.7-3.1 5.7 1.4 6.2 2.2-9.6-9.2-12.9-10.6-21.5 7.8 4 13.9 8.4 15 17.3 2.5-6.7-3.8-12-2.6-18.1zm-68-57.3c1.6-3.2 3.1-4.9 3.4-6.9 1-5.9 5.4-6.8 10.1-7.5 4-.6 8.1-.9 12-1.9 8.1-2.1 16.3-4 24.2-6.9 8.5-3.2 16.4-8.4 19.6-17.2 6.6-18.5 1.8-35.4-11.4-49.3-4.8-5.1-11.2-8.6-19.8-8.3-25.3.9-50.8.1-76.2.5-4.5.1-9.7 1.4-13.5 3.9-12.9 8.3-21.3 20-23.7 35.6-1.9 11.5 4.5 25.5 14.8 31.1 9.2 5 18.8 8.9 29.3 10.5 3.5.5 6.9 1.8 10.5 2.2 4.8.6 9.6.5 14.3 1.2 1.3.2 2.8 1.9 3.4 3.2 1.2 2.7 1.8 5.6 3 9.8zm244.9 252.3c-5.5 1-10.6 2.7-15.6 2.7-11.3.1-22.6-.8-33.9-.9-8.8 0-17.5.9-26.3.9-6.4 0-12.8-.7-19.3-.8-.8 0-2.1 1.7-2.4 2.8-1.5 5.7-1.1 7.9-8.1 6.9-4.1-.6-7.3 0-7.8 5.3-.1 1.5-2 3.9-3.2 4-11.5.9-23 1.3-34.9 1.9-.5 2.2-1.2 5.5-2 9.5 5.7.2 11.1.7 16.6.7 16.7.1 33.3 0 50 0h39.5c2.4 0 4.8-.4 7.2-.5 10.4-.6 21-.5 31.3-2 3.8-.6 8.4-3.8 10.1-8.3-.4-.4-.8-.8-1.1-1.2-2.7 2.2-5.4 4.4-8.3 6.7-1.8-7 6.8-5.9 7.9-11.6-3.1 1.6-5.4 2.7-7.8 3.9-.2-.3-.5-.6-.7-.9l7.6-7.3c-.4-.4-.9-.8-1.3-1.3-1.8 1.4-3.5 2.9-5.3 4.3-.4-.5-.9-1-1.3-1.5 2.9-2.3 5.8-4.6 9.8-7.7-3.6.6-5.8.9-8 1.2-.2-.4-.4-.8-.7-1.2 2.6-1.6 5.1-3.5 8-5.6zM453.6 246c-1.8 2-3 4.6-4.5 4.8-4.9.9-9.9 1.1-14.9 1.2-5.6.2-11.2-.2-16.8.1-7.4.5-14.8 1.1-22 2.5-3 .6-9.2-1.4-8 6.1 2 12.7 3.4 25.6 5.5 38.3 1.1 6.7 4.8 12.2 9.7 17.5 2.1-4 3.8-7.4 5.5-10.8 3.7-7.2 7.8-7.5 12.6-1.1 2.9 3.8 6.3 7.3 9.4 10.9.8-.1 1.5-.2 2.3-.3 1-3.8 2-7.7 3.4-13.2 2.4-.7 6.7-2.1 11-3.3 3.9-1.1 5.6-3.2 5.5-7.6-.4-9.6-.1-19.2-.1-30.3h-15.4c-9.2 0-11.2-.6-14.8-5.1h38.9c-2.7-3.7-5.1-6.9-7.3-9.7zm47.5-29c-6.2-3.2-9.4-1.6-9.8 4.5-.1 1.9.2 4.1-.6 5.8-4.9 10.5-9.8 21-15.3 31.2-1 1.8-4.4 2.7-6.8 3.3-2.4.6-5.1-.3-7.5.3-1.7.4-4.2 2.1-4.2 3.4-.4 9.2-.2 18.4-.2 27.9 7.5-1.1 14.5-2.7 21.4-3.1 9.5-.5 15.8-4.5 19.8-13.2 3.8-8.2 8.6-16 13-24 2.1 1.1 3.3 1.8 4.6 2.4.2-.2.4-.4.6-.7-1.1-1.7-2.2-3.5-3.3-5.2l.6-1.2c3.3.9 6.6 1.8 9.9 2.8.2-.5.5-1.1.7-1.6-3.4-2.3-6.7-4.6-10.1-7 4.2-4.8 8.3 0 14-.3-1.4-1.9-2.1-3.6-3.3-4.1-2.4-1.1-5.1-1.4-7.6-2.3-1.9-.7-3.8-1.6-5.7-2.5 0-.7 0-1.3.1-2 3.9-1.5 7.9-3.1 11.8-4.6-2.2-4.2-5.9-5.6-9.8-3.7-4.5 2.2-9 4.7-13.5 7-3-3.9-2.9-5.9 1.2-13.1zM116.4 328.2c-6.9 4.6-13.1 8.9-19.6 12.9-9.8 6.1-9.9 6.6-2.8 15.7 1.8 2.2 3.3 4.1 6.6 1.7 2.8-2 6.2-3.2 9.3-4.7 7.6-3.6 15.1-7.8 24-4.6 2.8 1 5.7 1.7 8.6 2.5 2-2.1 3.9-4.1 6.6-6.9 1.5 2.2 3 4.3 4.4 6.4.4-.3.8-.6 1.1-.9-.8-2.2-1.4-4.6-2.4-6.7-2-3.9.9-4.4 3.2-5.3 1.9 2.4 3.7 4.6 5.5 6.7.6-.2 1.1-.5 1.7-.7-.7-2.2-1.2-4.6-2.3-6.7-1.1-2.2-2.7-4.2-4.1-6.2l1.5-1.5c2.7.9 5.4 1.7 8.7 2.8.4-8-9.3-5.8-10.8-12.2 3.2-.9 6.5-1.9 10.6-3.1-1.2-1.3-2.4-3.2-3.2-3.1-4.3.7-8.8 1.3-12.5 3.2-5.2 2.6-9.7 6.5-14.6 9.6-6.2 4-12.6 7.1-19.6 1.3 0-.4-.5-.3.1-.2zm298.6-8.9c-3.2 7.1-6.5 14.4-10.4 23.1-4.5-6.6-8-11.8-11.5-16.9-1.3 3.5-1.3 6.1-1.3 8.8 0 7.7.9 9.4 8.3 10.7 16.2 2.7 32.3 1 47.7-4.5 14.5-5.2 28.6-11.3 43-16.4 3.8-1.3 4.4-3.4 3.8-6.3-.6-3.1-1.9-6.1-3.2-9.9-1.4 4.2-2.5 7.7-4.2 12.7-6.2-4.5-11.8-8.5-16.8-12.2-2.2 7.2-4.2 13.9-6.6 22-7.4-6.2-13.3-11.2-19.5-16.5-3 7.9-6 15.8-9.5 25.2-7-6.9-13.2-13.1-19.8-19.8zm125 23.6c-1 .9-2.6 1.7-3.2 2.9-2.7 5.7-4.9 11.5-7.7 17.1-2.1 4.3-2.3 8.2-.5 12.7.8 2.2.6 4.9.2 7.3-.5 2.8-1.9 5.4-2.8 8.2-.8 2.5-2.5 5.5-5 3.1-3.6-3.4-3.8.2-4.6 1.7-4.1 8.1-9.7 14.6-18.6 17.7-1.3.5-2.9 2.5-3 3.9-.4 4-.1 8-.1 12.6 3.4-1 6.1-1.4 8.4-2.6 10.7-5.4 19.5-13.4 26.2-23.1 8.7-12.6 15.8-26.2 16.6-41.8.2-6.6 2-14.6-5.9-19.7zm-122.5 62.3c-4.3-5.3-8.4-10.3-12.6-15.3-1.2-1.4-2.7-3.3-4.2-3.4-5.7-.4-11.5-.2-18.2-.2 1.2 2.5 1.7 4.3 2.8 5.8 3.5 5.1 7.4 9.9 10.6 15.2 4.3 7.1 10.3 12.1 17.6 15.2 6.4 2.7 13.3 5.2 20.1 5.5 9.2.5 18.5-.8 27.8-2 3.3-.4 5-5 2.9-6.1-9.1-4.9-18.3-11-29.3-5.9-5.8 2.7-11.4 0-17 1-.2 0-.6-.7-1.2-1.6 3-1.8 5.9-3.6 8.8-5.3-5.4-.7-9.8 5.4-15.8-.1 3-1 5.4-1.9 7.7-2.8zm-259.7 22.3c8.5-5.4 21.5-22.1 24-30.9 2.5-8.9 4.9-17.8 6.6-26.9 1.5-7.5 1-15-3.1-22-2.2-3.8-4.4-3-6-.3-2.8 4.7-4.9 9.9-7.2 14.8-1.9 4-.6 7.3 2 10.6 1.7 2.2 2.9 4.8 4.1 7.3 2.1 4.5 1.6 5.1-4 4.5.4 4.7.7 9.4-4.5 8.8-3.7 8-6.1 15.9-10.7 22.2-3.2 4.4-2.2 7.4-1.2 11.9zm309.1-.5c8.2 2 16.8-2.4 24.7 4-1.2-15.5-.9-30.7-15.4-40.6-10.1 5.5-19.8 10.7-29.5 15.9 4.1 2.1 7.9 3 11.6 3.9 10.2 2.6 14.1 9.8 8.6 16.8zm76.9-181.6-.9-1.5c-2.8-.4-5.5-.8-8.6-1.3 2.3-4.8 4.7-6.7 8.9-4.5.7.4 1.8-.2 2.7.1 7.1 2.2 14.1 4.5 21.2 6.7-.1.3-.3.6-.4.9l-9.9-.6v1.9c2.3 0 4.6-.3 6.9.1 1.9.3 3.8 1.3 5.6 2-.2.5-.3.9-.5 1.4-5.2-.6-10.4-1.3-15.6-1.9-.1.5-.1 1-.2 1.5 5.1.7 10.1 1.3 15.2 2.1 2.8.4 7.8.7 7.9 1.6.7 4.9 5.7 3.2 7.8 5.9.5-4.8.1-9.5.6-14.1.4-3.4-1.3-5.4-3.7-6.1-6.9-1.9-14-3.6-21.1-4.7-9.1-1.4-18.3-2.1-27.5-3-1.4-.1-2.9.5-5.2 1 4.6 2.5 6.6 5.1 4.5 9.4-1 2.2-2 4.4-2.8 6.7-.3.9-.4 2.3.1 2.9.4.6 1.8.6 2.7.6 2.3 0 4.5-.2 6.8-.4.4 0 .8-.2 1.7-.5-1.2-1-2-1.7-2.6-2.2 2.2-1.3 4.3-2.7 6.4-4zM491.7 399c9.5-6.4 14.1-16.3 19.1-25.6.9-1.6 1.6-4.1.9-5.5-.9-2-3-3.7-4.9-4.9-.4-.3-2.4 1.7-3.5 2.7-.6.6-1 1.5-1.6 2.1-6.5 6.8-13 13.5-19.6 20.3 3 3.3 6.3 7.1 9.6 10.9zm76-135c0-.3.1-.7.1-1-13.5-2.4-26.9-4.8-40.4-7.2-.3.8-.5 1.5-.8 2.3 16.4 7 32.7 14.3 49.2 21.1 9.1 3.8 9.4 3.3 8.7-6.7-.1-1.7.2-3.4-.1-5.1-.2-1.5-.8-3-1.4-5-2.5 1.7-4.1 2.9-5.9 4.2 1.2.8 2.1 1.3 3 1.9-.1.3-.3.6-.4 1-1.9-.3-3.9-.5-5.8-.8-.1.3-.2.5-.2.8 1.1.7 2.2 1.4 3.7 2.4-8.1 1.7-17.7-1.4-17.4-5.3-3.7-.6-7.4-1.3-11.1-1.9 0-.6.1-1.2.1-1.9 6.2.4 12.4.8 18.7 1.2zM424.2 379.7c-1.9 1.4-3.9 2.8-5.8 4.1 5.2 7.6 10.9 13 18.7 16.4 5.4 2.3 9.6 2.9 13.9-.8.5-.5.4-2.5-.2-3.2-1-1.2-2.5-1.9-3.9-2.7-7.7-4.8-15.5-9.5-22.7-13.8zm-277 27.8c3-6.8 6-13.3 8.7-20.1 1.2-3.1 2-6.5 1.9-9.7 0-1.6-2.5-3.3-4.1-4.6-.3-.3-2.3.7-2.8 1.5-4.5 8.8-8.9 17.6-13 25.9 2.8 2.1 5.4 4 9.3 7zM383.6 250c22-1.6 43.6-3.1 65.2-4.7-.9-2.3-2.5-4.3-6.5-4.1-9.8.7-19.9-.2-29.5 1.8-9.5 1.9-18.8 1.9-28.3 1.9-.2 1.6-.5 3.2-.9 5.1zm131.7 121.3c-1.3 3.4-2 5.6-3 7.6-4.1 8.9-9.5 16.8-16.7 23.4-1.2 1.1-1.1 3.6-1.7 5.5 1.9 0 4.1.6 5.6-.2 8.3-4.5 14-11.6 17.1-20.3 1.7-4.6 1.9-10.1-1.3-16zm13.8-154.9c18.2 2.1 36.5 4.3 55.2 6.5 1.6-4-2.6-3.8-5.1-4.2-11.6-2-23.3-3.3-34.7-5.8-6.3-1.3-11.5-1.7-15.4 3.5zm43-34.2c-6.4 5.3-12.5 10.3-18.6 15.3 2.6-.3 4.6-1.6 6.6-2.8 1.7-1.1 3.5-2.2 5.2-3.3.3.5.5 1 .8 1.5-4.2 2.9-8.5 5.8-12.7 8.7.2.4.5.8.7 1.2 7.4-2.8 14.8-5.6 22.3-8.4-3.4-6 6.9-4.9 6.9-8.7-4.4-1.4-8-2.5-11.2-3.5zM151.4 421.4c-1.2-2.4-1.5-3.6-2.3-4.4-3.5-3.6-6.9-7.3-10.7-10.6-1-.9-3.8-1.3-4.4-.7-2.8 3.1-5.2 6.7-8.5 11.1h17.1c0 .5.1 1 .1 1.5-6.4 2.3-14-.9-20.1 2.9 9.2.2 18.3.2 28.8.2zM567 202.1c-5.6 1.8-10.8 3.5-16 5-.6.2-1.6-.4-2.3-.8-3.6-1.8-7.2-3-10.9 1.5 12.8 2.2 25.1 4.4 37.9 6.6-3.3-4.7-6.3-8.9-8.7-12.3zM164.3 381.5c-1.2 1-1.7 1.2-1.9 1.6-4 8.2-8 16.3-11.6 24.6-.6 1.4.9 3.7 1.4 5.6 1.6-.7 3.9-.9 4.7-2.2 6.2-8.5 8.3-18.2 7.4-29.6zM60.8 360.3c5.2 1.9 9.5 4 14 4.9 4.3.9 8.9.7 13.3.6 1 0 1.8-2.1 2.8-3.2-1.4-.6-2.8-1.4-4.3-1.6-3.9-.8-7.9-1.2-11.8-2-4.7-1-9.3-2.3-14-3.5v4.8zm68.9-57.8c-3.4-5.3-43.2-11.8-48.5-6.9 16.7 2.3 32.3 4.6 48.5 6.9zm-75.6 75.9c8.3 1.4 16 2.3 21-5.1-2.6-.6-5.1-1.4-7.6-1.9-3-.6-5.9-.9-8.9-1.3-2.5-.3-4 .5-3.7 3.5 0 1.5-.5 3-.8 4.8zm58.5-60.2c-9.1 5.2-16.8 9.6-24.6 13.9-2.8 1.5-4.5 3.2-2.9 6.8 2.4-1.2 4.6-2.1 6.7-3.4 6.5-4 13.1-8.1 19.4-12.4.9-.6.8-2.7 1.4-4.9zm-58 101.5v-1.4c-14.2.6-28.3 1.2-42.6 1.9 1.6 4.1 8 4 42.6-.5zm78.2-109.6c-7.8-1.1-14.8-2-22.3-3.1 1.3 2.7 2.1 4.2 2.8 5.6 7 .6 13.9 1.3 21 1.9-.7-1.8-1.1-3.2-1.5-4.4zm34.1 52.1c.8-.4 1-.4 1.1-.6 3.7-7.3 3.5-16.9 12.3-21.3.4-.2.2-2.8-.4-3.8-.4-.6-2.6-1-3.2-.6-1.4 1.1-2.7 2.6-3.3 4.3-2.4 7.2-8 13.4-6.5 22zm-86.3-37.6c.6.5 1.1 1 1.7 1.4 1.8-1 3.5-2.2 5.4-3 6-2.8 12-5.4 18.1-8.1 1.1-.5 2.3-.6 3.4-1 .1-.1-.1-1.8-.4-1.8-1.2-.2-2.5-.4-3.6 0-7.2 2.7-14.3 5.5-21.3 8.5-1.4.7-2.2 2.7-3.3 4zm437-107.3c.1.4.1.7.2 1.1 2.8-1.5 5.7-2.9 8.2-4.7 2.3-1.6 4.3-3.7 6.4-5.6-2.4-1.1-4.8-2.3-7.2-3.4-.2-.1-.6.1-.9.2-2.2 4.2-4.5 8.3-6.7 12.4zm-89.2 185c-4.3-4.6-8.4-9.4-12.9-13.8-1.3-1.3-3.7-1.5-5.5-2.1 3.7 9.4 14.8 17.2 18.4 15.9zM82.7 351.6c.4-.3.7-.6 1.1-1-1.4-1.7-2.6-4-4.4-5-2.5-1.4-5.7-1.5-8.3-2.7-4.5-2.2-4.9.6-5.7 3.5 6.1 1.8 11.7 3.5 17.3 5.2zm68.6 75.1c.8-2.8-.1-3.8-3.5-3.4-5.3.6-10.6.7-15.9 1-2.7.2-5.3.4-8 .7v1.8c9.1-.1 18-.1 27.4-.1zM81.9 301.9c-1.5 2.7-3.8 5.2.6 7.3 3.6 1.8 9.2-.5 11.3-4.7-3.7-.7-7.5-1.6-11.9-2.6zm36.4 19c3 6.2 11.8 6.4 17.1 0h-17.1zM42.2 423.6v1.2h27v-1.2h-27zm17.7-27.3c-1.4-3.2-2.5-6-3.6-8.7-.5 0-.9-.1-1.4-.1-.5 3.9-1 7.7-1.6 11.6.6.1 1.1.3 1.7.4 1.7-1.2 3.5-2.3 4.9-3.2zm397.4-87.1c1-4.3 1.8-7.6 2.8-11.8-3.9 2.5-6.5 4.1-8.2 5.1 1.3 1.8 3.1 3.9 5.4 6.7zM210 402c-.3-.3-.6-.5-.9-.8-.8 1-2.2 2.1-2.2 3.1.3 5.5 1 10.9 1.5 16.4.5 0 1-.1 1.5-.1.1-6.2.1-12.4.1-18.6zM64.1 414.2C61 412 58 409.9 53.9 407c1.4 7 4.8 8.6 10.2 7.2zm90.1-45.9c.4.4.8.8 1.3 1.2.8-1.6 2.1-3.1 2.4-4.8.3-1.6-.3-3.4-.5-5.1-.9.7-2.3 1.2-2.5 2-.5 2.2-.5 4.4-.7 6.7z"/>
  <path d="M390.4 348.7c-11.3.7-22.7 1.2-34 2-2.8.2-5.7.7-8.2 1.9-8 3.9-16 5.6-25.1 4.8-10.4-1-21-.2-31.5-.2-10.7 0-21.4-.1-32.1-.1-4.1 0-8.2.1-12.2-.2-.9-.1-2.3-1.1-2.6-2-.6-2.4-.9-4.9-1-7.3 0-.5 1.5-1.5 2.2-1.5 4.9.1 9.8.6 14.7.7 10.8.2 21.7.9 32.5.3 10.7-.6 21.3.3 31.9.1 4.8-.1 9.6-1.9 14.4-1.8 6.6.1 13.1 1.5 19.7 1.7 4.4.1 8.7-1 13.1-1.4 3.4-.3 6.9-.3 10.3-.7.6-.1 1.2-1.2 2.7-3H360c-3.4 0-6.7-.2-10.1-.1-8.6.1-17.2.6-25.8.5-8.2-.1-16.3-1-24.5-1-14.3 0-28.5.3-42.8.6h-4.9c-10.9 0-10.9 0-12.3 10.7-1 0-2.1.2-3 0-5.5-1.2-10.6.5-12.4 5.4-1.3 3.5-3.1 4.2-6.5 4-6.7-.4-13.5-.4-20.3-.1-3.3.1-3.8-1.3-3.8-4-.2-5.8-1.8-10.9-6.4-14.9-1-.9-1.7-3-1.5-4.4.8-4.7-3.2-6.3-5.8-8-1.1-.7-5.5 1.6-6.5 3.6-3.4 6.5-6 13.5-8.9 20.3-.3.8-.8 1.5-1.4 2.8l-5.4-2.7c.8-1.2 1.2-2.5 1.9-2.8 7.6-3.9 6.5-13.2 11.6-18.8 1.3-1.4-1.6-6.6-3.1-9.9 1.6-1.8 4.6-3.8 1.9-7.7-2.5-3.6-4.5-8.4-10.5-6-5.9 2.4-11.9 4.9-18.7 7.7-2.5-6.8-5.1-14-7.8-21.1-.7-1.7-1.6-3.5-2.8-4.9-4-4.1-3.7-9.6 1.3-12.7 3.2-2 6.9-3.5 10.6-4.5 9.2-2.6 16.1-7.7 20.7-16.2 2.5-4.6 1.9-7.1-3.2-8.7-2.7-.9-5.5-1.3-8.1-2.2-1.7-.6-3.2-1.8-5.1-2.9 7.1-6 14.8-8.3 22.9-9 8.4-.8 10.3-4.7 6-11.8-.8-1.2-.8-3.4-.3-4.8 2.3-7-.5-12.9-10.8-10.9.8-4.6 1.6-8.8 2.3-13 10.1-.7 18.9-15.8 14.3-27.3-4.1-10.3-11.6-15.9-22-18.3-.2 0-.4-.3-.5-.2-8.9 4.1-17-1.5-25.4-2.5-4.2-.5-8.1-3.1-12.4-4.1-8-1.8-15.1-5.6-21.9-10-1.4-.9-3.2-1.3-4.9-1.6-3.2-.6-6.4-1.1-9.7-1.4-4-.3-7.7-1.6-12.1-.3-8.7 2.6-17.7 3.8-23.9 11.8-3.7 4.8-9.2 8.2-12.7 13.2-4 5.6-8.9 11.1-9.6 18.6-.2 1.7-2 3.2-2.8 5-2.4 5.6-.5 10.6 1.5 15.9 1 2.6-.9 6.1-1.4 9.3-1.6 10.2.2 19.6 6.5 28.1 3.5 4.8 5.7 10.9 10 14.7 7.4 6.6 15.9 11.9 24 17.7 3.9 2.8 8.1 5.1 11.8 8.1 5.9 4.6 6 8.1 3.6 15.4-2.5 7.3-3.2 15.2-5.7 22.5-3 8.9-7 17.5-10.6 26.3-3 7.4-6.2 14.6-8.7 22.1-2.1 6.3-3.4 12.9-5 19.4-.7 2.8-1.7 5.5 1.8 7.4.6.3.9 2 .7 2.9-.9 4.7-2.5 9.2-2.9 13.9-.4 4.6.4 9.3.6 14.8-1.8 0-3.6-.1-5.5 0-9.9.3-19.7.8-29.6.8-1.2 0-3.3-2.1-3.4-3.3-.3-4.6.3-9.2.3-13.9-.1-8-.8-16.1-.6-24.1.2-17.6 1.1-35.2 1.2-52.9.1-16.4-.9-32.9-.9-49.3 0-16.3.9-32.5.8-48.8-.1-12.8-1.1-25.7-1.6-38.5-.1-1.7.7-3.4.7-5.1 0-21 0-42-.1-63.1-.1-12.4-.3-24.8-.3-37.3-.1-23.3 0-46.6 0-70.4h32.7c-1.3 1.5-1.9 2.5-2.8 3.2-14 10.6-23.3 24.1-22.6 42.7.3 7.6 3.3 14.4 8.3 20.1C35.1 86.7 47.4 91.8 61 94.2c9.7 1.7 19.3 3.6 30.1 5.6 1.5 5.5 3.2 12.3 5 19.2.5.1 1 .3 1.5.4 1-1.6 2.2-3.1 2.9-4.8.8-1.9 1-4.1 1.6-6.1 1.7-5.9 3.2-10 11.7-10.5 11.7-.7 23.8-4 34.8-8.4 15.9-6.4 29.1-21.6 27.7-41-.9-12.5-4.6-24.1-15.2-32.4-1.9-1.5-3.3-3.7-5.2-6h45.4c-4.1 4.1-7.9 7.7-11.4 11.6-7.3 8.1-12 17.3-10.2 28.6 1.2 7.7 7.4 11.5 12.9 15.5 10.7 7.8 23.3 10.9 36.2 13.1 9.8 1.7 19.6 3.8 29.5 5.3 5.2.8 10.4.9 15.7 1.1 9.5.4 19.1.9 28.7 1 3.3.1 4.6.9 5 4.5.8 7.1 3.4 13.7 8.6 18.8.9.9 3 1.4 4.1 1 1.1-.4 2.1-2.2 2.2-3.5.6-4.9.8-9.9 1.2-14.9.3-3.9 1.9-6.1 6.4-5.9 11.1.6 22.2 1.1 33.3 1.1 10.8 0 21.7-.7 32.5-1 4-.1 8 0 12 0 16.7-.3 33.5-.3 50.1-1.2 10.5-.6 20.9-2.4 31.4-3.8 6.1-.8 12.4-1.2 18.4-2.7 10.5-2.5 21.9-4.5 28.3-14.1 6-9.1 12-18.9 8.4-31-2.3-7.9-7.3-13.9-13.2-19.2-1.3-1.1-2.7-2-5.2-3.8 6.4 0 11.5.1 16.5 0 12.7-.3 25.5-.7 38.2-.7 1 0 2.9 2.7 3 4.2.5 12.9.7 25.8.8 38.7.1 11.1 0 22.2 0 34.2-5.1-2.5-9.2-2.1-13.7.2-2.2 1.2-6.2.3-8.9-.9-8.8-3.8-19.8-.5-24 8.2-2.9 6-.8 11.4 2.8 15.3 4.1 4.4 1.9 7.5-.1 10.9-1.3 2.2-4.2 3.6-5 5.9-1 2.7-.5 5.9-.7 9.8-3.8 2-8.6 4.2-13.1 6.8-5.5 3.2-5.8 8.3-1.5 13 .9.9.8 3.4.2 4.8-1.5 3.6-3.4 7-5.4 10.3-.5 1-1.5 1.8-2.5 2.4-5.2 3.3-5.4 7.1-1.3 11.5 1.7 1.8 1.7 5.1 2.4 7.7-.6.3-1.2.6-1.7.8-1.5-1-3-2.1-5.1-3.5-1.5 1.9-3.1 4-5 6.4-3.5-2.7-7.5-7-12.5-1.7-4.3 4.6-3.6 8.2 2.4 16.5-11.5.5-19.9 7.8-29.6 12.8 2.3 10.4 12.8 9.9 18.8 16-3.8 5.4-7.6 10.9-12.4 17.8-3.5-5.5-6.6-9.7-8.9-14.2-3.7-7.4-8.9-12-17.9-10.9-.3-.5-.6-.9-.9-1.4 3.2-3.6 6.7-7 9.7-10.8 4-5.2 8-10.5 11.2-16.2 1.5-2.7-.5-4.6-3.9-4.5-6.1.1-12.2 0-18.4 0 0-4.8 3.2-6.4 6.3-7.5 5.3-1.8 10.8-3 16.2-4.4 8.4-2.2 9.1-2.8 8.7-10.9-.2-3.7-.1-6.3 3.6-9 4.2-3.1 1.3-7.9 0-11.7-1.6-4.7-5.6-6.6-10.1-6.1-3.8.5-4.8-.9-6.5-3.9-3.4-6.1-7.8-11.7-11.9-17.4-.3-.5-1.6-.3-3.8-.6 2.7 5.1 4.8 9.4 7.2 13.5 1.8 3 3.1 5.4 1.1 9.2-2.3 4.4-.2 8.4 3.7 11.8.6-1 1.2-1.8 1.6-2.6.7-1.6 1.3-4.7 1.9-4.7 3.3 0 7-3.5 10 0 1.6 2 2.6 4.7 3.2 7.3.1.6-2.3 2.2-3.8 2.7-5.4 2-3.2 5.3-1.7 8.5 2.9 6.4 2.6 7.5-4.2 9.5-6.5 2-13.2 3.5-19.6 5.6-2.2.7-4.6 2.3-5.9 4.1-2.1 2.8-4.2 6.8-1.1 9.7 1.9 1.8 5.6 2.1 8.6 2.1 4.2.1 8.3-.7 13.6-1.3-3.2 7.8-7.3 13.2-12.6 17.8-3.5 3-8.7 5.2-5.8 11.6.2.3-2.1 2.5-3.3 2.6-11.8 1.2-23.7 2.2-35.6 3-3.9.3-7.8 0-12.2 0 .3-6.7-5.8-6.9-10.4-8.5-4.9-1.7-10.3-2.4-15-4.5-11.5-5.1-23.6-10.4-29.9-22-7.4-13.5-12.6-28.1-9.6-44.2 1.6-8.4 2-17.4 5.2-25.1 7.9-19.2 24.5-26.7 43.8-29.9 5.6-.9 11.3-2.5 16.8-2 16.7 1.4 31.9 7.1 44.6 18.3 2.2 2 4.5 3.8 7.9 6.6.9-4.1 1.5-6.9 2.1-9.8.9-4 2.2-5.2 5.2-1.2 2.2 2.9 5.2 5.3 8.2 8.3.7-6-4.8-15.3-9.2-15.6-1.8-.1-4.1 1.6-5.7 3.1-1.5 1.4-2.4 3.4-3 4.4-9.1-5-17.9-10.8-27.3-14.8-13.2-5.7-27-6.3-41.1-2.5-10.3 2.7-20.1 6-29.2 11.8-6.8 4.3-10.6 10.8-15 17-.8 1.2-2.6 1.7-3.9 2.6-.7.5-1.8.9-1.9 1.6-1.6 5.9-4.1 11.7-4.3 17.7-.3 7.6 1.9 15.2 1.7 22.8-.3 10.4 2.4 19.8 7.1 28.5 4.7 8.7 11.6 15.7 20.2 21.1 10.9 6.9 22.5 11.4 34.9 14.2 2.8.6 3.5 1.9 2.2 4.6-2.3 5-3.7 9.7 1.4 14.5 1.8 1.7 1.2 6 1.5 9.1.9 7.9 1.9 15.8 2.6 23.8.7 7.7 1.6 15.4 1.5 23.1 0 6-.7 12.2-2.2 18-1.9 7.3-.7 13.3 4.1 18.9l-.2-.2zm9.8-167c-6.6 2.3-12.8 3.3-17.5-2-2.1-2.3-3.6-6.1-3.4-9.2.1-1.8 3.8-4.2 6.3-4.8 2.9-.7 6.1.2 9.2.4-1.4-4.5-5.2-6-12-4.8-4.1.8-8.4 7.3-8.2 12.2.4 8 6.8 15.8 13 15.9 7.4 0 11.8-2.4 12.6-7.7z" fill="#fff"/>
  <path d="M390.3 348.9c1.6.8 4.6 1.9 4.5 2.5-1.7 12.1 7.8 15 15.5 19.5 3.1 1.8 5.7 4.6 8.5 6.9-3.5 1.4-6.9 3.9-10.4 4.1-8.1.3-16.2-.4-24.3-.8-4.6-.3-7.8 2.6-6.2 7.1 1.9 5.2 4.5 10.4 7.7 14.9 5.7 7.9 12.2 15.3 18.9 23.7-60.1-4-120.1 2.3-180.9 1.8.9 1.4 1 1.9 1.2 1.9 12.4.5 24.8 1.4 37.2 1.3 14.7-.2 29.5-1.3 44.2-2 11.9-.5 23.8-1.4 35.7-1.4 15.9.1 31.8.9 47.7 1.3 7.2.2 14.4 0 21.6.1 1.6 0 3.3.3 4.8 1.1-31.6 0-63.2-.5-94.7.1-31.2.6-62.4 2.4-93.5 4.8 24.2 1.3 48.4-.9 72.6-1.6 24.2-.7 48.5-.1 72.9.6-11 .6-22.1 1.3-33.1 1.9v1.6c5.8 0 11.6.1 17.5 0 10.7-.2 21.4-.6 32.1-1 2.4-.1 4.7.1 7.1-.2 7.7-.9 15.5-2.3 23.2-2.7 8.2-.4 16.4.1 24.7.2 6 0 11.9 0 17.9 1-17.5 1-35 2.5-52.5 2.7-17.9.3-35.7.2-54.9 3.2 2.4 1.1 3.4 2.1 4.4 2 11.8-.5 23.5-1.2 35.3-1.9 3.4-.2 6.7-.9 10.1-1 2.7-.1 5.6-1 7.5 2.4.5.8 3 .8 4.5.7 10.7-.6 21.4-1.5 32-2.1 14.5-.8 28.9-1.8 43.4-2.1 23.7-.6 47.4-.5 71.1-1.3 5.6-.2 11.1-2.9 16.6-4.4l-.3-1.8c-5 0-10-.2-15 0-10.4.5-21.6 3.8-31.1 1.2-7.7-2.1-15.3-.9-23.8-3.1 4.9-3.9 10.2-6.5 13.3-10.7 6.9-9.2 12.9-19 18.8-28.8 6.7-10.9 10.5-22.8 9.7-35.8-.2-3.1-.5-6.7-2.2-9.1-2.2-3-5.7-6.7-8.9-7-2.9-.3-7.3 3-9.1 5.9-3 5-4.6 10.9-6.8 16.6-3.5-2.5-4.8.8-6.1 4-3.2-2.7-6-5-9.3-7.8 3.9-5.9 7.8-11.9 11.8-17.9-4-6.6-11.4-8.3-17.7-11.5-1.3-.6-3-1.5-3.4-2.7-3.1-9.3-5.9-18.7-8.8-28.1-.4-1.1-1.1-2.2-1.9-3.8 11.2-5.5 13.4-17.6 18.8-27.4 4.5-8 6-8.8 14.2-4.9 12.7 6 25.4 12.1 38.2 18.1 6.9 3.3 14.1 6.1 20.9 9.6 1.8.9 3.3 3.9 3.4 6 .3 7-.3 14-.3 21 .2 11.7.7 23.5.8 35.2.1 5.2-.8 10.4-.8 15.7-.1 13.4-.1 26.7-.1 40.1v39.9c-1.9.1-3.3.2-4.6.3-14.7.4-29.5.8-44.2 1-3.5.1-7.1-1-10.6-1-10.5 0-20.9.4-31.4.4-8.5.1-16.9-.2-25.4-.2-3.1 0-6.3.8-9.4.7-9-.2-18-1-26.9-1-10.6 0-21.2.7-31.8.9-3 .1-6-1-9-.9-9.6.2-19.1.9-28.7.9-7.5 0-15-.9-22.5-.9-26.2-.1-52.3 0-78.5 0h-52.4c-12.6 0-25.2 0-37.9.1-20.3.2-40.6.8-61 .9-11.4.1-22.9-1.5-34.2-.3-16.3 1.8-32.5-.6-48.7.2-5.4.3-10.9-.9-15.9-1.4v-13.1c5.5-.6 10.9-1.4 16.3-1.7 9.7-.5 19.3-.9 29-1.1 18.5-.4 37-.9 55.5-1 5.9-.1 11.8.9 17.7.9 5.9 0 11.8-.6 17.6-1 1.1-.1 2.4-.4 3.2.1 8.9 4.8 14.6-1.4 20.7-6.1 9.5-.2 19-.3 28.5-.5v-1.3c-1.3-.7-2.6-1.4-4.1-2.2 1.2-.6 2-1 2.8-1.5 0-.3 0-.7-.1-1-1.5-.2-3.1-.3-5.2-.5 2.4 4.7-.3 5.1-3.1 5.3-6.3.6-12.5 1.1-18.8 1.6 5-8.3 9.5-16.9 15.2-24.8 1.4-1.9 6.3-1.6 9.6-1.6 7.2 0 7.2.1 7.2 7.6 0 7.6-.1 15.2.2 22.8.1 2.1 1.6 4.2 3 7.7 2.5-2.6 5.6-4.4 6.1-6.7.8-3.9 2.9-4.4 5.9-4.4 18.5-.4 37-.7 55.5-1.1 8.7-.2 17.5-.9 26.2-.8 8.5.1 17 1.5 25.6 1.6 10.8.1 21.6-.6 32.4-.8 12.9-.2 25.7 0 38.8 0-.3-.6-.6-1.9-.9-1.9-5.7-.2-11.4-.4-17.1-.4-4.7 0-9.4.3-14.1.1-6.7-.3-13.4-1.5-20.1-1.4-12 .2-24.1 1.3-36.1 1.4-8.5.1-16.9-1-25.4-.9-16.6.1-33.2.6-49.7 1.1-6.1.2-12.1.9-18.1 1.3-.1-.9-.1-1.8-.2-2.7 7.1-.3 14.2-.6 21.3-.8 7.1-.3 14.3-.5 21.4-.8 7.1-.3 14.3-1 21.4-1.1 7-.1 14 .6 21 .7 7.5.1 14.9.4 22.4-.1 6.6-.4 13.5 2.6 19.9-.5-42.8-3.8-85.5-2.6-128.6-.2 0-5.5-.3-10.4.1-15.3.3-3.4 2.4-3.8 6.1-3.7 9.9.4 19.9-.7 29.9-.7 7 0 13.9.9 20.9 1.1 1.9.1 3.8-1.1 5.8-1.1 8.5-.1 16.9.1 25.4.1 7.3 0 14.6-.4 21.9-.2 7.9.3 14.1-2.9 19.6-8 5.2-4.8 10.9-7.1 18.2-7.4 14.4-.5 28.8-1.9 43.1-3.1 2-.2 3.9-1.2 6.1-1.9-2.9-4.9-6.8-2.5-10.1-2.5-2.3 0-4.5.1-6.8.1-.6 0-1.3-.8-1.9-.8-9.9 1.1-19.8 2.2-29.6 3.4-.1-.4-.3-.9-.4-1.3 1.9-1.4 3.8-2.8 5.9-4.5-3.3-.5-5.9-1-8.6-1.4v-1.5c5.2-.8 10.4-1.5 15.5-2.3-8.4-4.1-16.6-7.8-25.8-2 3-5.7 10-2.5 13.9-7.6 3.7-.6 8.7-1.8 13.8-2.3 3.9-.4 8 .2 11.9-.2 4.4-.5 3.6-2.8 1.2-5.2.1.4 0 .6 0 .6zm-217.4 77.3c.5 1.7.8 3.2 1 3.2 8.4-.7 16.8-1.5 25.1-2.3 0-.3-.1-.6-.1-.8-8.5-.1-17-.1-26-.1zm6.1-9.2c-.1.7-.1 1.4-.2 2.1 4-.2 8-.4 12.1-.5 0-.5 0-1-.1-1.6H179zM166.2 164.7c-1.2 6.1 5.1 11.4 2.4 17.9-1.1-8.9-7.2-13.3-15-17.3 1.4 8.6 12.8 11.9 10.6 21.5-4.4-.6-4.4-.6-1.4-6.2-2.6.5-4.7.5-6.2 1.3-3.4 1.9-6.5 3.7-8.4-1.7-2 1.2-3.7 1.9-5 3-.7.6-1.5 1.9-1.3 2.6.3 1 1.5 1.8 2.4 2.3 2.8 1.6 5.9 2.9 8.6 4.7.7.4.3 2.4.6 4.7 2.7-1.5 5.2-2.9 8-4.4.2 7.4-7.5 13.4-3.7 21.6 3.9-1.6 7.7-3.2 12.2-5 .4 2.2.8 4.2 1.3 6.6-2.2-.4-3.6-.7-5.6-1.1.2 1.4 0 2.5.5 3.2 1.8 2.6 4 5 5.8 7.6.6.8.9 2.6.4 3.2-.5.7-2.1.7-3.2.9-8.9 1.8-18.4 2.3-24.8 10.2-3.9 4.7-3.5 6.9 1.7 10 2 1.2 4.5 1.8 6.7 2.7 2.1.7 4.2 1.4 6.2 2-.9 1.6-1.8 3.3-2.8 4.8-4.3 7-11.8 9.2-18.9 11.6-7.8 2.7-13.6 6.8-15.7 15.2-.2.9-2.3 2.2-3.5 2.1-8.6-.9-17.2-2.2-25.9-3-3-.3-4.5-.7-4.7-4.2-.5-6.9-2.9-12.7-9.8-16.4-5.2-2.7-9.5-7-14.7-10.9 9.1-.4 14.4 5.3 19.8 10.7 4.2-.8 3.6-4.6 2.4-6.1-4.3-5.4-1-11.3-1.9-16.8-.2-1.1.1-2.5-.4-3.4-.4-.7-1.9-1.4-2.6-1.1-.7.3-1.2 1.7-1.2 2.6.1 1.7.6 3.4.9 5.1-.4.1-.9.2-1.3.4-1.2-2.3-2.4-4.5-3.6-6.8-.5.3-.9.5-1.4.8.6 2.6 1.2 5.2 1.8 7.7-2.3 1.2-5.1-5.5-6.6.8-1.5-.8-3.2-1.2-4.3-2.3-2.5-2.7-4.9-3.5-7.7-.6-3.6-4.6-7.1-9.2-10.6-13.8-.6.4-1.3.9-1.9 1.3 2.8 7.3 8.3 12.9 14.8 19.3-2.1-.4-3.3-.2-4-.8-5.7-4.8-11.8-9.2-16.8-14.7-4.1-4.5-6.9-10.1-10.1-15.4-.6-1-.8-2.8-.2-3.7 3.5-5.6.9-11-.1-16.5-.2-.8.1-1.7.1-2.2 2.3-1 4.3-1.8 6.5-2.7-2.9-3-5.1-5.3-7.3-7.5l.9-.9c1.8.6 3.6 1.2 5.9 1.9-.7-6-1.3-11.2-1.8-16.5-.1-1.2.1-2.6.8-3.5 5.8-9 9.6-19.5 19.2-25.7 4.7-3 9.3-6 14.7-8.1-.8 1.6-1.6 3.2-2.8 5.7 9.5-3.6 17.8-9.8 28.2-3.5 3-3 5.9-2.1 8 2.2.2.4.6 1.2.8 1.2 8-.6 12.7 7.5 21.2 7.3 5.9-.1 12 4.3 19.5 7.3 15.8-4.2 25.9-2.9 32.5 12.5 3.9 9 1.7 17-5.9 20.6 10.2-9 3.6-16.6-2.3-24.3zm-59.5 54.5c-3.5 1.2-5.9 2-8.3 2.7-1.3.4-2.9 1-3.9.6-4.2-1.7-8.8-12.1-6.6-16.3 2.5-4.8 7.5-4.3 12.1-3 .1 0 .3-.2.4-.2-3.9-6.1-13.4-6-17.3.2-3.7 5.7-2.3 11.6.6 16.6 2 3.5 5.9 7.3 9.6 8 5.3 1.1 10.1-2 13.4-8.6zm7.3-40.1c-.5-.1-.9-.1-1.4-.2-1.1 2.4-1.2 5.6-5 5.2.1 3.6 0 7.3.5 10.9.2 1.1 2.5 3.1 3.1 2.8 1.4-.6 3.3-2.2 3.4-3.5.3-3.5-.3-7.1-.5-10.7-.2-1.5-.1-3-.1-4.5zm10 5.5c.3.4.7.9 1 1.3 2.9-.9 6.1-1.4 8.5-3 2.7-1.7 4.7-4.4 7-6.7l-1.2-1.2c-1.4 1.2-2.8 2.5-4.4 3.9-.6-1.5-1-2.5-1.8-4.4-3.3 3.7-6.2 6.9-9.1 10.1zm-6.4 3.9c4.7-1.8 6.8-9.3 4.1-12.4-1.4 4.4-2.8 8.4-4.1 12.4zM547.6 193.8c-1 5.5-5.4 7.2-9.9 8.2-5 1.1-9.3-.4-14-2.9-4.3-2.3-5.8-4.7-5.3-9.8 1.7 2.6 3.4 5.3 5.5 8.5 3.4-3.7 5.3-5.8 7.2-7.9-.3-.5-.5-1-.8-1.5-4 3.2-6.9 1.8-9.5-1.5-1-1.3-3-1.8-4.2-3-1.3-1.4-2.5-3.2-3-5-.1-.4 2.4-2.2 3.8-2.5 5.6-.8 2.5-4.6 2.6-8.7 3.6 2.3 6.4 4.1 9.7 6.2.6-.5 1.7-1.3 3.5-2.7-3.6-2.4-6.8-4.5-10.3-6.8 1.4-2 2.8-4.1 4.8-6.9 1.5 6.7 6.5 6.9 11.8 7.8-1.5 2.3-3.1 4.5-4.3 7-.7 1.4-1.3 3.5-.8 4.8 1.4 3.2 3.5 6.1 5.5 9.5-.1-3 5-5.4.1-9.7-1-.9.9-5.7 2.1-8.5 2.3-5.4.4-12.6-5.4-15.9.5 2.3 1.1 4.1 1.1 5.9 0 1.1-.9 2.2-1.3 3.3-.9-.5-2.4-.8-2.5-1.5-1.4-5.4-5-7.4-10.2-7.5-.9 0-1.8-1-3.9-2.2 7.7-5 14.7-9.6 21.9-14.3-1.5 7.1.5 12.7 6.1 17.1.5-.1 1.1-.3 1.6-.4-.8-2.4-1.6-4.9-2.4-7.2 2.1.5 4.3 1 6.6 1.6.4-.5.8-.9 1.2-1.4-2.3-2.8-4.6-5.7-6.8-8.5 7-3.5 9.9-2 11.6 7.4 1.7-3.8 2.8-6.3 4.1-9.3 6.4 1.7 5.6-6 10.2-9.6-2.7-.8-4.5-1.3-6.4-1.9-2.7 3.7-5.3 7.1-7.8 10.5-4.6-8.2-5.3-8.4-15.3-5.8-1 .3-2.2 0-3.2 0 .2-1.1.2-2.3.8-3.2 2.9-4.7 5.9-9.4 8.9-14.1.4-.7 1.4-1.4 1.3-1.9-.6-3.6-1.4-7.2-2.1-10.7l-1.5-.3c-.8 3.1-1.6 6.2-2.4 9.1-6.7-5.3-5.9-15.9 2.3-18.4 3.4-1 8.5.7 11.8 2.8 5.1 3.1 9.2 3.5 14.1 0 4.4-3.1 10.1-.7 10.3 4.6.4 13.1.1 26.1-.4 39.3-3.9-3.8-3.8-8.7-4-13.6-.3-5.1 3.5-10.2.2-15.3-.5-.7-1-1.4-2.1-3.2-2 3.1-3.6 5.6-4.6 7.3-2.2-1.7-4.5-3.4-6.7-5.2-1.2 2.3-2.5 4.6-4.1 7.6-1.9-3.5-3.8-7.2-5.8-10.9h-1.4c-.3 1.6-1.1 3.4-.8 4.9 1.1 5.4 5.1 8 11.6 9.4 2.9.7 5.4 3.1 6.7 4 2.5 5.7 4.7 10.4 6.6 15.3.7 1.8.6 3.9.9 5.8.2 1.1.3 2.5.9 3.3 5.6 7.6 4.7 14.6-2.7 19.8-3.4 2.4-3.8 5.8-1.1 9 1.1 1.3 2.1 2.6 3.1 4-.5.4-.9.9-1.4 1.3-1.9-2-3.8-4-5.9-6.3-.7.6-2.3 1.4-2.3 2.3-.2 7.1-7.9 7-10.9 11.4-.3.5-1.7.2-2.6.2 1.1-1.2 2.1-2.3 3.2-3.5-5.1 1.6-9.7 4-14.2 6.7-.8.3.2 2.4.6 3.6zm19.1-32.1c-2.4.6-4.5 1.7-6.3 1.5-5.1-.6-5.3-.8-9.7 4.3 2.2-.7 3.4-1.2 4.6-1.4 1.3-.2 3.6-.6 3.8-.1 2.9 5.8 6 2.2 9.4.7-.8-1.9-1.3-3.5-1.8-5z" fill="#fff"/>
  <path d="M343.1 359.7c-2.9 2.1-5.4 4-7.9 5.9.2.4.4.8.7 1.2 2.2-.3 4.3-.7 8-1.2-4 3.1-6.9 5.4-9.8 7.7.4.5.9 1 1.3 1.5 1.8-1.4 3.5-2.9 5.3-4.3.4.4.9.8 1.3 1.3l-7.6 7.3c.2.3.5.6.7.9 2.3-1.2 4.7-2.4 7.8-3.9-1.1 5.7-9.7 4.6-7.9 11.6 2.9-2.3 5.6-4.5 8.3-6.7.4.4.8.8 1.1 1.2-1.7 4.6-6.2 7.7-10.1 8.3-10.3 1.6-20.8 1.4-31.3 2-2.4.1-4.8.5-7.2.5-13.2.1-26.3 0-39.5 0-16.7 0-33.3.1-50 0-5.5 0-10.9-.4-16.6-.7.8-3.9 1.5-7.3 2-9.5 11.9-.6 23.4-1.1 34.9-1.9 1.2-.1 3-2.5 3.2-4 .4-5.3 3.7-5.9 7.8-5.3 6.9 1 6.6-1.2 8.1-6.9.3-1.1 1.6-2.8 2.4-2.8 6.4.1 12.9.8 19.3.8 8.8-.1 17.5-1 26.3-.9 11.3 0 22.6 1 33.9.9 4.9-.3 10-2 15.5-3zM453.6 246c2.1 2.8 4.5 5.9 7.4 9.7h-38.9c3.6 4.5 5.6 5.1 14.8 5.1h15.4c0 11.1-.2 20.7.1 30.3.2 4.4-1.6 6.5-5.5 7.6-4.3 1.2-8.6 2.6-11 3.3-1.4 5.6-2.4 9.4-3.4 13.2-.8.1-1.5.2-2.3.3-3.2-3.6-6.5-7.1-9.4-10.9-4.8-6.3-8.9-6.1-12.6 1.1-1.7 3.4-3.5 6.8-5.5 10.8-4.9-5.2-8.6-10.8-9.7-17.5-2.1-12.7-3.5-25.6-5.5-38.3-1.2-7.5 5-5.4 8-6.1 7.2-1.5 14.7-2 22-2.5 5.6-.4 11.2.1 16.8-.1 5-.2 10-.4 14.9-1.2 1.5-.2 2.6-2.7 4.4-4.8z" fill="#fff"/>
  <path d="M501.1 217c-4.1 7.2-4.2 9.2-.9 13.1 4.5-2.3 8.9-4.7 13.5-7 3.9-1.9 7.6-.4 9.8 3.7-3.9 1.5-7.9 3.1-11.8 4.6 0 .7 0 1.3-.1 2 1.9.8 3.7 1.8 5.7 2.5 2.5.8 5.2 1.2 7.6 2.3 1.2.5 1.8 2.2 3.3 4.1-5.7.3-9.8-4.5-14 .3 3.4 2.3 6.8 4.6 10.1 7-.2.5-.5 1.1-.7 1.6-3.3-.9-6.6-1.8-9.9-2.8l-.6 1.2c1.1 1.7 2.2 3.5 3.3 5.2-.2.2-.4.4-.6.7-1.3-.7-2.6-1.3-4.6-2.4-4.4 8-9.2 15.8-13 24-4.1 8.7-10.4 12.7-19.8 13.2-7 .4-13.9 2-21.4 3.1 0-9.5-.2-18.7.2-27.9 0-1.2 2.6-3 4.2-3.4 2.4-.6 5.1.3 7.5-.3 2.4-.6 5.8-1.5 6.8-3.3 5.4-10.2 10.4-20.7 15.3-31.2.8-1.7.5-3.9.6-5.8.2-6.1 3.4-7.7 9.5-4.5zM116.4 328.2c-.5-.1-.1-.2.1 0 6.9 5.7 13.3 2.7 19.6-1.3 4.9-3.2 9.4-7 14.6-9.6 3.8-1.9 8.3-2.5 12.5-3.2.8-.1 1.9 1.8 3.2 3.1-4.1 1.2-7.3 2.2-10.6 3.1 1.5 6.5 11.2 4.2 10.8 12.2-3.2-1-6-1.9-8.7-2.8l-1.5 1.5c1.4 2.1 3 4 4.1 6.2 1 2.1 1.5 4.4 2.3 6.7-.6.2-1.1.5-1.7.7-1.8-2.2-3.6-4.4-5.5-6.7-2.3 1-5.2 1.4-3.2 5.3 1.1 2.1 1.6 4.5 2.4 6.7-.4.3-.8.6-1.1.9-1.5-2.1-2.9-4.3-4.4-6.4-2.7 2.8-4.6 4.8-6.6 6.9-2.9-.8-5.9-1.5-8.6-2.5-8.9-3.2-16.4 1-24 4.6-3.1 1.5-6.5 2.7-9.3 4.7-3.3 2.4-4.8.6-6.6-1.7-7.2-9.1-7-9.6 2.8-15.7 6.2-3.8 12.5-8.2 19.4-12.7zM415 319.3l19.8 19.8c3.5-9.4 6.5-17.3 9.5-25.2 6.2 5.2 12.1 10.2 19.5 16.5 2.4-8.1 4.5-14.8 6.6-22 5.1 3.7 10.7 7.7 16.8 12.2 1.6-5 2.8-8.5 4.2-12.7 1.2 3.7 2.5 6.7 3.2 9.9.6 2.9.1 5-3.8 6.3-14.5 5.1-28.6 11.2-43 16.4-15.4 5.5-31.5 7.2-47.7 4.5-7.4-1.2-8.3-3-8.3-10.7 0-2.7 0-5.4 1.3-8.8 3.5 5.2 7 10.3 11.5 16.9 3.9-8.7 7.2-16 10.4-23.1zM540 342.9c7.9 5.2 6.1 13.1 5.8 19.8-.8 15.6-7.9 29.2-16.6 41.8-6.7 9.7-15.5 17.7-26.2 23.1-2.3 1.2-5 1.5-8.4 2.6 0-4.6-.3-8.6.1-12.6.1-1.4 1.7-3.4 3-3.9 8.9-3.2 14.4-9.6 18.6-17.7.8-1.5.9-5.1 4.6-1.7 2.6 2.4 4.2-.6 5-3.1.9-2.7 2.2-5.4 2.8-8.2.4-2.4.7-5.2-.2-7.3-1.7-4.5-1.6-8.4.5-12.7 2.7-5.6 5-11.5 7.7-17.1.7-1.4 2.2-2.1 3.3-3zM417.5 405.2c-2.3.9-4.6 1.8-7.7 2.9 6 5.5 10.4-.6 15.8.1-2.9 1.8-5.8 3.5-8.8 5.3.6.8 1 1.6 1.2 1.6 5.6-1 11.2 1.8 17-1 10.9-5.1 20.1 1 29.3 5.9 2.1 1.1.4 5.7-2.9 6.1-9.2 1.1-18.6 2.5-27.8 2-6.8-.4-13.7-2.9-20.1-5.5-7.3-3.1-13.4-8.1-17.6-15.2-3.2-5.3-7.2-10.1-10.6-15.2-1-1.5-1.6-3.3-2.8-5.8 6.7 0 12.5-.2 18.2.2 1.5.1 3 2 4.2 3.4 4.2 4.9 8.2 9.9 12.6 15.2zM157.8 427.5c-1-4.5-2-7.5 1.2-11.9 4.6-6.3 7-14.2 10.7-22.2 5.2.7 4.9-4.1 4.5-8.8 5.5.6 6 .1 4-4.5-1.2-2.5-2.3-5.2-4.1-7.3-2.6-3.3-4-6.6-2-10.6 2.4-5 4.5-10.1 7.2-14.8 1.6-2.7 3.7-3.5 6 .3 4.1 7 4.6 14.5 3.1 22-1.8 9.1-4.2 18-6.6 26.9-2.4 8.8-15.5 25.5-24 30.9z" fill="#fff"/>
  <path d="M466.9 427c5.5-7 1.6-14.3-8.6-16.8-3.7-.9-7.4-1.8-11.6-3.9 9.7-5.2 19.4-10.5 29.5-15.9 14.5 10 14.2 25.1 15.4 40.6-7.9-6.3-16.5-1.9-24.7-4zM543.8 245.4c-2.1 1.3-4.2 2.7-6.3 4 .6.5 1.5 1.2 2.6 2.2-.9.3-1.3.5-1.7.5-2.3.2-4.5.3-6.8.4-.9 0-2.3 0-2.7-.6-.5-.6-.4-2-.1-2.9.8-2.3 1.8-4.5 2.8-6.7 2.1-4.3 0-6.9-4.5-9.4 2.3-.5 3.8-1.1 5.2-1 9.2.9 18.4 1.6 27.5 3 7.1 1.1 14.2 2.8 21.1 4.7 2.4.7 4.1 2.7 3.7 6.1-.5 4.6-.1 9.2-.6 14.1-2.2-2.7-7.1-1-7.8-5.9-.1-.9-5.1-1.2-7.9-1.6-5.1-.8-10.1-1.4-15.2-2.1.1-.5.1-1 .2-1.5 5.2.6 10.4 1.3 15.6 1.9.2-.5.3-.9.5-1.4-1.9-.7-3.7-1.7-5.6-2-2.2-.3-4.6-.1-6.9-.1v-1.9l9.9.6c.1-.3.3-.6.4-.9-7.1-2.3-14.1-4.5-21.2-6.7-.8-.3-2 .3-2.7-.1-4.2-2.2-6.6-.2-8.9 4.5 3.1.5 5.9.9 8.6 1.3.2.5.5 1 .8 1.5zM491.7 399c-3.3-3.8-6.6-7.6-9.5-11 6.6-6.8 13.1-13.5 19.6-20.3.6-.6.9-1.5 1.6-2.1 1.1-1 3.1-3 3.5-2.7 1.9 1.3 4 2.9 4.9 4.9.6 1.4-.1 3.9-.9 5.5-5.2 9.4-9.7 19.3-19.2 25.7zM567.7 264c-6.2-.4-12.5-.9-18.7-1.3 0 .6-.1 1.2-.1 1.9 3.7.6 7.4 1.3 11.1 1.9-.3 3.9 9.2 7.1 17.4 5.3-1.5-1-2.6-1.7-3.7-2.4.1-.3.2-.5.2-.8 1.9.3 3.9.5 5.8.8.1-.3.3-.6.4-1-.9-.6-1.8-1.2-3-1.9 1.8-1.2 3.4-2.4 5.9-4.2.6 1.9 1.2 3.4 1.4 5 .2 1.7-.1 3.4.1 5.1.7 10 .4 10.5-8.7 6.7-16.5-6.8-32.8-14-49.2-21.1.3-.8.5-1.5.8-2.3 13.5 2.4 26.9 4.8 40.4 7.2-.1.5-.1.8-.1 1.1zM424.2 379.7c7.2 4.3 15 9 22.8 13.8 1.4.8 2.9 1.5 3.9 2.7.6.7.7 2.8.2 3.2-4.3 3.7-8.5 3.1-13.9.8-7.9-3.4-13.5-8.8-18.7-16.4 1.8-1.4 3.8-2.8 5.7-4.1zM147.2 407.5c-3.9-2.9-6.5-4.9-9.3-7 4.1-8.3 8.5-17.1 13-25.9.4-.8 2.4-1.8 2.8-1.5 1.6 1.3 4 3 4.1 4.6.1 3.2-.7 6.6-1.9 9.7-2.7 6.7-5.7 13.3-8.7 20.1zM383.6 250c.3-1.9.6-3.5.9-5.1 9.5 0 18.8 0 28.3-1.9 9.6-1.9 19.7-1.1 29.5-1.8 4-.3 5.6 1.7 6.5 4.1-21.6 1.6-43.1 3.1-65.2 4.7zM515.3 371.3c3.2 5.9 3 11.4 1.3 16-3.1 8.7-8.8 15.8-17.1 20.3-1.5.8-3.7.2-5.6.2.5-1.9.4-4.4 1.7-5.5 7.2-6.7 12.7-14.6 16.7-23.4 1-2 1.7-4.2 3-7.6zM529.1 216.4c3.9-5.2 9.1-4.9 15.4-3.5 11.4 2.5 23.1 3.7 34.7 5.8 2.5.4 6.7.2 5.1 4.2-18.7-2.2-37-4.3-55.2-6.5zM572.1 182.2c3.2 1 6.8 2.1 11.1 3.4.1 3.8-10.3 2.8-6.9 8.7-7.5 2.8-14.9 5.6-22.3 8.4-.2-.4-.5-.8-.7-1.2 4.2-2.9 8.5-5.8 12.7-8.7-.3-.5-.5-1-.8-1.5-1.7 1.1-3.5 2.2-5.2 3.3-2 1.2-3.9 2.5-6.6 2.8 6.2-4.9 12.3-9.9 18.7-15.2zM151.4 421.4h-28.6c6.1-3.8 13.6-.6 20.1-2.9 0-.5-.1-1-.1-1.5h-17.1c3.3-4.5 5.7-8 8.5-11.1.6-.6 3.4-.2 4.4.7 3.8 3.3 7.2 7 10.7 10.6.6.6.9 1.8 2.1 4.2zM567 202.1c2.4 3.5 5.4 7.7 8.7 12.4-12.9-2.3-25.1-4.4-37.9-6.6 3.7-4.5 7.3-3.3 10.9-1.5.7.4 1.7.9 2.3.8 5.2-1.6 10.4-3.3 16-5.1zM164.3 381.5c.9 11.4-1.2 21.1-7.4 29.6-.9 1.2-3.1 1.5-4.7 2.2-.5-1.9-2-4.2-1.4-5.6 3.6-8.3 7.7-16.4 11.6-24.6.2-.4.7-.6 1.9-1.6zM60.8 360.3v-4.9c4.8 1.2 9.4 2.5 14 3.5 3.9.8 7.9 1.3 11.8 2 1.5.3 2.8 1.1 4.3 1.6-.9 1.1-1.8 3.2-2.8 3.2-4.4.2-9 .3-13.3-.6-4.5-.8-8.8-3-14-4.8zM129.7 302.5c-16.1-2.3-31.8-4.5-48.5-6.9 5.2-4.9 45 1.5 48.5 6.9zM54.1 378.4c.3-1.8.8-3.3.7-4.8-.3-3 1.2-3.7 3.7-3.5 3 .3 6 .7 8.9 1.3 2.6.5 5.1 1.2 7.6 1.9-4.9 7.4-12.6 6.5-20.9 5.1zM112.6 318.2c-.6 2.2-.5 4.3-1.4 4.9-6.4 4.3-12.9 8.3-19.4 12.4-2.1 1.3-4.3 2.2-6.7 3.4-1.6-3.6.1-5.2 2.9-6.8 7.8-4.2 15.5-8.7 24.6-13.9zM54.6 419.7c-34.6 4.4-41 4.5-42.6.5 14.3-.6 28.5-1.2 42.6-1.9v1.4zM132.8 310.1c.4 1.2.9 2.7 1.5 4.4-7.1-.6-14-1.3-21-1.9-.7-1.4-1.5-2.9-2.8-5.6 7.5 1 14.5 2 22.3 3.1zM166.9 362.2c-1.5-8.6 4.1-14.8 6.6-21.9.6-1.6 1.9-3.2 3.3-4.3.6-.5 2.8-.1 3.2.6.6 1 .9 3.6.4 3.8-8.9 4.4-8.7 13.9-12.3 21.3-.2.1-.4.1-1.2.5zM80.6 324.6c1.1-1.4 1.9-3.4 3.3-4 7-3.1 14.2-5.8 21.3-8.5 1-.4 2.4-.2 3.6 0 .2 0 .5 1.8.4 1.8-1.1.4-2.3.5-3.4 1-6.1 2.6-12.1 5.3-18.1 8.1-1.9.9-3.6 2-5.4 3-.5-.4-1.1-.9-1.7-1.4zM517.6 217.3c2.2-4.1 4.5-8.2 6.8-12.4.2-.1.6-.3.9-.2 2.4 1.1 4.8 2.2 7.2 3.4-2.1 1.9-4.1 4-6.4 5.6-2.6 1.8-5.5 3.2-8.2 4.7-.2-.4-.3-.7-.3-1.1zM428.4 402.3c-3.6 1.3-14.7-6.5-18.4-15.9 1.9.7 4.2.9 5.5 2.1 4.5 4.4 8.7 9.2 12.9 13.8zM82.7 351.6c-5.6-1.7-11.2-3.3-17.3-5.2.9-2.9 1.3-5.7 5.7-3.5 2.6 1.3 5.8 1.4 8.3 2.7 1.8 1 2.9 3.3 4.4 5-.4.3-.7.6-1.1 1zM151.3 426.7H124v-1.8c2.7-.2 5.3-.5 8-.7 5.3-.3 10.6-.4 15.9-1 3.3-.3 4.2.7 3.4 3.5zM81.9 301.9c4.4 1 8.1 1.8 11.9 2.7-2.1 4.2-7.7 6.4-11.3 4.7-4.4-2.2-2-4.7-.6-7.4zM118.3 320.9h17.1c-5.4 6.4-14.1 6.2-17.1 0zM42.2 423.6h27v1.2h-27v-1.2zM59.9 396.3c-1.5 1-3.2 2.1-4.9 3.2-.6-.1-1.1-.3-1.7-.4.5-3.9 1-7.7 1.6-11.6.5 0 .9.1 1.4.1 1.1 2.7 2.3 5.4 3.6 8.7zM457.3 309.2c-2.3-2.8-4.1-5-5.4-6.7 1.7-1.1 4.3-2.7 8.2-5.1-1 4.2-1.8 7.6-2.8 11.8zM210 402v18.6c-.5 0-1 .1-1.5.1-.5-5.5-1.2-10.9-1.5-16.4-.1-1 1.4-2.1 2.2-3.1.3.2.6.5.8.8z" fill="#fff"/>
  <path d="M547.6 193.8c-.4-1.2-1.4-3.3-1.2-3.4 4.5-2.6 9.1-5 14.2-6.7-1.1 1.2-2.1 2.3-3.2 3.5-3.2 2.2-6.5 4.4-9.8 6.6z"/>
  <path d="M64.1 414.2c-5.4 1.4-8.9-.2-10.2-7.2 4.1 2.9 7.2 5.1 10.2 7.2zM154.2 368.3c.2-2.2.2-4.5.7-6.7.2-.8 1.6-1.4 2.5-2 .2 1.7.8 3.5.5 5.1-.3 1.7-1.6 3.2-2.4 4.8-.5-.5-.9-.8-1.3-1.2z" fill="#fff"/>
  <path d="M400.2 181.7c-.8 5.3-5.1 7.7-12.7 7.6-6.2-.1-12.6-7.8-13-15.9-.2-4.9 4.1-11.4 8.2-12.2 6.8-1.3 10.6.2 12 4.8-3.1-.2-6.4-1.1-9.2-.4-2.5.6-6.2 3-6.3 4.8-.2 3 1.4 6.8 3.4 9.2 4.8 5.4 11 4.5 17.6 2.1zM171.5 423.7c6.3-.5 12.5-1.1 18.8-1.6 2.8-.3 5.5-.6 3.1-5.3 2.1.2 3.7.4 5.2.5 0 .3 0 .7.1 1-.8.4-1.6.9-2.8 1.5 1.5.8 2.8 1.5 4.1 2.2v1.3c-9.4 0-19 .2-28.5.4zM172.9 426.2h26c0 .3.1.6.1.8-8.4.8-16.8 1.6-25.1 2.3-.2.1-.5-1.4-1-3.1z"/>
  <path d="M179 417h11.8c0 .5 0 1 .1 1.6-4 .2-8 .4-12.1.5.1-.7.1-1.4.2-2.1zM106.7 219.2c-3.3 6.6-8.1 9.7-13.4 8.7-3.7-.7-7.6-4.6-9.6-8-2.9-5-4.3-10.9-.6-16.6 4-6.2 13.5-6.4 17.3-.2-.1.1-.3.3-.4.2-4.6-1.3-9.6-1.8-12.1 3-2.3 4.3 2.3 14.6 6.6 16.3 1.1.4 2.7-.2 3.9-.6 2.4-.8 4.8-1.7 8.3-2.8zM114 179.1c0 1.5-.1 3 0 4.6.2 3.6.8 7.1.5 10.7-.1 1.3-2 2.9-3.4 3.5-.6.2-2.9-1.7-3.1-2.8-.5-3.6-.4-7.2-.5-10.9 3.8.4 4-2.8 5-5.2.6-.1 1 0 1.5.1zM124 184.6c2.9-3.2 5.8-6.4 9.2-10.1.8 1.9 1.2 2.9 1.8 4.4 1.6-1.5 3-2.7 4.4-3.9l1.2 1.2c-2.3 2.3-4.4 5-7 6.7-2.5 1.6-5.7 2-8.5 3-.5-.4-.8-.8-1.1-1.3zM117.6 188.5c1.3-4 2.7-8 4.1-12.4 2.7 3.1.6 10.6-4.1 12.4zM566.7 161.7c.5 1.5 1.1 3.1 1.8 5.2-3.4 1.5-6.5 5-9.4-.7-.3-.5-2.5-.1-3.8.1-1.2.2-2.3.7-4.6 1.4 4.4-5.1 4.6-4.9 9.7-4.3 1.8.1 3.8-1 6.3-1.7z"/>
  <text transform="translate(60.427 66.789)" font-family="Peanuts" font-size="40">HEY!</text>
  <text transform="translate(200.458 56.357)" font-family="Peanuts" font-size="35">DON&apos;T GET EXCITED</text>
</svg>
