<svg xmlns="http://www.w3.org/2000/svg" viewBox="0 0 595.3 467.4" xml:space="preserve">
  <path d="M595.3 343.9v114.6c-1.7-.8-3.3-2-5-2.2-2.9-.3-5.9.2-8.9.2-30.6.1-61.2.1-91.8.2-18.9.1-37.9.6-56.8.6-22.7 0-45.4-.6-68-.6-16.8 0-33.7.6-50.5.8-12 .1-24 .1-35.9 0-14.5-.2-29.1-.9-43.6-.9-12.4.1-24.8 1-37.2 1.3-18.9.5-37.8.7-56.6 1-3.9.1-7.9-.9-11.6-.4-7.3 1.1-14.4 3-21.7-.1-1.4-.6-3.5.8-5.3 1-1.4.1-2.8-.2-4.1-.3-2.5-1.3-5-2.5-7.6-3.8 6.3-.8 12.6-2.1 18.9-2.3 10.8-.4 21.6.1 32.4-.2 8.5-.3 17-1.3 25.5-2 7.2-.6 14.6-.5 21.7-1.8 13-2.4 25.8-5.8 38.8-8.3 16-3.1 32.2-5.6 48.3-8.4 10.6-1.9 21.1-4 31.7-5.7 21.6-3.4 43.3-6.7 65-9.7 9.4-1.3 18.8-2 28.2-2.9.1.8.2 1.5.3 2.3-66.7 7-132.5 19.1-198.1 32.7.8.7 1.7 1 2.5 1 11-.2 22-.4 32.9-.7.9 0 2.2-.4 2.8-1.1 4-5.4 10-3.3 15-5.1.2.5.3 1.1.5 1.6-3.7 1.2-7.4 2.3-11.2 3.5.1.5.1 1 .2 1.5 9.8 0 19.6.1 29.3 0 11.6-.2 23.3-1.4 34.9-.6 10.7.7 20.5-2.3 30.7-4.1 7.7-1.4 15.3-3.8 23.1-5.1 11.5-2 23.1-3.3 34.7-5 25.2-3.7 50.4-7.8 75.7-11.3 19.2-2.6 38.5-4.6 57.8-6.7 14-1.6 27.9-3 41.9-4.6-.9 1.7-2.5 2.8-4.2 3-10.6 1.3-21.2 2.5-31.8 3.7-10.1 1.2-20.3 2.3-30.4 3.4-13.1 1.5-26.3 3-39.4 4.7-11.5 1.5-23 3.4-34.5 5-13.7 1.9-27.5 3.4-41.2 5.4-11.1 1.7-22.2 3.8-33.2 5.9-7.2 1.4-14.4 3.3-21.6 4.9 5.8.5 11.3.9 16.8.4 10.1-.9 20.3-1.8 30.3-3.5 12.5-2.1 24.8-5.1 37.3-7.6 1.8-.4 3.8.3 5.8.4.1.6.1 1.2.2 1.8l-44.4 7.8.3 2.1c21.6-.3 42.6-5.4 63.8-8.7 21.6-3.4 43.2-6.7 64.9-9.8 21.3-2.9 42.6-5.4 63.9-8.1.1.8.2 1.6.4 2.4-51.4 8-103.4 12.4-154.3 23.9 8.9.1 17.6-.7 26.3-1.9 10.5-1.5 20.9-3.4 31.4-5 13-2 26.1-4 39.1-5.7 7.2-.9 14.5-1.1 21.7-1.9 10.7-1.1 21.4-3.3 32.2-3.5 7.7-.2 12.7-4.2 8.3-12.3-47 6.2-94 12.4-141 18.5l-.3-2.1c10-1.5 20-3 29.9-4.4 15.7-2.2 31.5-4.6 47.3-6.6 15.5-2 31.1-3.6 46.7-5.6 5.5-.7 11-2 16.1-3.8 1.6-.6 2.3-4 2.9-6.2.1-.4-2.3-2-3.6-2.1-3.6-.3-7.3-.2-11-.2-.9 0-2.2.2-2.5.8-2.4 4.8-5.7 2.6-8.7 1.2-3.2-1.4-6.1-3.6-9.2.2-.4.5-2.3.6-3 .2-7.3-5-14.8.5-22.2-.5-.8-.1-1.9 1.4-3.8 2.9h12c0 .6.1 1.3.1 1.9-18.3 2.2-36.7 4.3-55 6.5-.1-.7-.2-1.3-.3-2 13.7-2 27.4-3.9 41.6-6-3.3-4.2-7.1-5.7-11.4-4.7-4.1.9-9.1-3.7-12.4 1.9-.1.1-1.2 0-1.5-.3-5.5-5.2-13 .6-18.7-3.5-7.2 4.1-15.2 2.2-22.7 3.4-4.9.8-8.4-1.3-12.5-2.6-1.8-.6-4.2-1.6-5.4-.9-9.3 5.5-19.1.8-28.6 1.5-6.8.5-13.6-.3-20.4-.1-6.4.2-12.8 1.2-19.2 1.6-7 .5-14.2-2.7-20.9 1.9-.7.4-1.8.2-2.7.3-5.7.6-11.4 1.1-17 1.9-10.4 1.4-20.7 3.2-31.1 4.6-12.3 1.6-24.7 2.7-37 4.5-16.1 2.4-32.1 5.2-48.2 8s-32.2 5.5-48.1 8.9c-15.5 3.3-30.9 7.5-46.3 11.2-1.2.3-2.6-.1-3.9-.2 76.3-23.4 154.9-31.6 233.3-42.4-1.4-1.2-2.8-2-4.4-2.2-3.2-.5-6.9.2-9.6-1.2-7.4-3.5-14.7-.9-20.2 2.2-6.5 3.6-12.7 3.8-19.4 4.5v.1c1.9-1.2 3.9-2.5 5.8-3.7-9.2-.2-18.1 1.5-27 1.3-13.1-.3-26.1-2-39.1-2.9-5.7-.4-10.9 1.8-16.4 3.2-12.6 3.1-25.6 4.4-38.4 6.7-8.8 1.6-17.6 3.7-26.4 5.3-1.4.3-3-.5-4.6-.8 0-.4.1-.8.1-1.2l28.5-6c-3.9-1.1-7.8-1.7-11.6-1.4-2.9.3-5.5 2.2-8.4 2.9-4.5 1.2-9.2 1.9-13.8 2.9-10 2.2-20.1 4.3-30.1 6.5-.2-.7-.3-1.3-.5-2 13.8-3.1 27.5-6.2 41.3-9.3-.1-.4-.2-.9-.4-1.3-11.2.9-22.4 1.9-33.4 2.8-1-1.6-2-3-3-4.5-.3-.3-.5-.6-.8-.9 0 0 .2-.3.3-.3 6.5-.2 13-.1 19.4-.5 4.2-.3 8.4-1.3 12.7-1.9 0-.5-.1-1-.1-1.5-.6-.1-1.2-.4-1.7-.3-6.3.8-12.7 2.4-19 2.2-7.2-.2-14.4-3-21.5-2.6-8.4.5-16.7 3.2-25 4.9.1.8.2 1.5.3 2.3H106c.2-.3 1.1-1.4 2.5-3.1.4 2.6.7 4 1 5.9 1.2-1.7 2-3 2.8-4.2.4 2 .7 4.1 1.2 6.5-7.3 1.7-14.7 3.2-21.9 5.1-9.2 2.5-18.2 5.3-27.3 8.1-11.7 3.5-23.5 6.9-35.2 10.8-5.8 1.9-11.4 4.4-17 7-1.3.6-2 2.6-3 4 .4.2.8.4 1.1.5 31.2-10 62.3-20 93.5-30 .3.8.6 1.6.9 2.5-2.2.8-4.4 1.8-6.7 2.5-7.5 2.1-15.2 3.7-22.7 6.1-12.8 4.1-25.6 8.6-38.3 13.1-8.7 3-17.4 6.1-25.8 9.7-1.6.7-2 4.3-3 6.6 1.9.4 3.8 1.4 5.6 1.2 4.2-.4 8.2-1.6 12.4-2.1 8.9-1.1 17.7-2.6 26.6-2.9 8.7-.3 17.4 1.3 25.9-1.9 1.2-.4 2.9.8 4.4 1.2-.8.6-1.5 1.2-2.3 1.8.6 2.9-.4 4.9-3.5 4.6-5.2-.5-10.4.1-15.5.8-9.8 1.3-19.7 2.6-29.6 3.9H.1C0 317.5 0 167.6 0 17.6c14.5-1.5 28.9-3.5 43.4-4.3 14.3-.7 28.5-3.4 44.4-2.7 3-2.4 3-2 9.1-1.2 3.5.5 7.3-.6 10.9-1 .5 0 1 .5 1.5.4 6.8-1.1 13.5-2.7 20.3-3.2 20.9-1.6 41.9-2.6 62.9-4 3.1-.2 6.1-1.2 9.1-1.8h393.5v342.8c.2.6.2 1 .2 1.3zM112.4 345c-3.6-4.1-7-8.2-6.6-14.1.3-.4.6-.9.9-1.3 1.9-5.4 4-10.7 5.5-16.2.9-3.4 1.2-7.1 1.2-10.7 0-7.7-.9-15.5-.6-23.2.3-9.1 1.8-18.1 2.3-27.1.4-7.2.2-14.4.4-21.6.1-2.3 1-4.6 1.1-6.9.5-10.2.9-20.4 1.3-30.6.5-13.2 1-26.4 1.2-39.6.3-17.1.2-34.2.3-51.3V72.8c-14.6 1.9-27.5 3.6-40.4 5.5-1.9.3-3.6 2-5.4 2.1-9.3.6-18.5.7-27.8 1.2-12 .5-23.9 1.5-36.8 2.4v42.7c0 19.2-.3 38.3-.1 57.5.1 18.9.8 37.8.8 56.7-.2 52.9-.6 105.8-1 158.7 0 1.9.2 3.8.3 5.9 19.1-6.7 42.7-6.5 47 .2 3.1-3.7 22.2-5 25.1-4.5 1.3-1.1 3.6-1.3 5.9-1.3 6.8-.2 13.6-.3 20.4-.4 1.9 0 4.3.7 5.6-.2.9-.6.7-3.4.6-5.1-.3-4.7-1.3-9.4-1.1-14.1.4-10.2 1.4-20.3 2.2-30.5-.8-1.6-1.5-3.1-2.3-4.6zM53 416.1c-1.6 1-3.1 2.7-4.8 3-6.4 1-12.8 1.6-19.3 2.2-6.3.5-12.6.8-19.5 1.2.1 2.7.2 4.9.3 7.2 6.8-2 12.9-3.9 19-5.7-.5 2-1.6 3.3-2.9 3.7-4.6 1.7-9.4 2.9-13.9 4.6-1.3.5-2.1 2-3.1 3.1l1.2 1.2c19.2-5.3 37.5-14 57.5-16.6-9.5 4-19.4 6.9-29.1 10.2-9.1 3.1-18.2 6.4-27.2 9.8-1 .4-1.6 2.2-1.9 2.7 29.1-9.2 58-18.4 87-27.6-.6-.9-1.2-1.8-1.8-2.8-.2.1-.4.2-.7.3.1.9.3 1.9.5 3.2-8-2.1-16.8 3.2-24.2-3.2-.4-.4-1.7.3-2.6.6-4.5 1.4-8.9 2.9-13.4 4.2-.2 0-.8-.9-1.1-1.3-1-3.9 2.2-4.4 4.6-5.4 1.6-.7 3.4-1.1 5.5-1.8-6.9-1-13-2.4-19.1-2.8-6.9-.5-13.9-.4-20.9-.1-3.8.2-7.9.6-11.2 2.3-1.6.8-1.6 4.7-2 7.3 0 .3 2.7 1.3 4.2 1.3 3.6 0 7.1-.2 10.7-.5 6.7-.7 13.3-1.5 19.9-2.5 3.2-.6 6-.5 8.3 2.2zm443.6 33.1-.1-.1c5.1.4 10.2 1.1 15.2 1.1 19.6.2 39.2.2 58.8.3h10.9c.6-4.5 1.4-8.6 1.6-12.7.2-2.8-.8-5.2-4.4-4.8-4.1.5-8.3 1.1-12.4 1.6-11 1.1-22 2.1-33 3.3-10.2 1.1-20.5 2.3-30.7 3.8-15.4 2.3-30.7 4.8-47.6 7.5 2.7.8 4.1 1.7 5.5 1.6 12.2-.5 24.2-1.1 36.2-1.6zM437.7 69.3c-6.2 0-12.1.2-17.9-.1-9.2-.4-18.3-1.3-27.4-1.8-8.1-.5-16.3-.9-24.4-.9-1.3 0-3.4 2.3-3.6 3.7-.8 5.6-1.2 11.2-1.4 16.9-.2 6.3 0 12.6 0 19.2 3.1 0 5.5.4 7.7-.1 5.3-1.1 10.5-2.9 15.8-3.8 4.6-.8 8.6-.1 12.3 3.9 3 3.3 1.6 6.1 1.8 9.4.2 4.5-1.7 6.1-5.9 6.4-4.9.4-9.8.7-14.6 1.8-9.2 2-8.9 2.1-6.2 11.4 6 20.9 11.8 41.8 17.2 62.7 7.7 29.5 15.1 59.1 22.4 88.7 3.9 15.9 7.3 32 11.2 47.8.5 1.9 3.3 4.6 4.8 4.5 6-.6 12-1.9 17.9-3.5 3.6-1 6.4.3 6.6 3.9.1 1.7.6 3.6 0 5-1.5 3.6-1.5 8.4-6.9 9.3-6.4 1-12.8 2.1-19.2 3.5-12.8 2.8-25.5 5.9-38.3 8.7-1.1.2-2.7-.5-3.7-1.3-3.3-2.8-2.7-7-3.8-10.8-1.2-4.2.3-5.6 3.6-6.1 6.4-1 12.9-1.7 20.6-2.6-14.9-63.8-29.8-127.4-44.7-191.1-.6.1-1.2.2-1.7.3.2 3.8 1.1 7.8.4 11.5-2.7 13.9-4.9 27.7-4.5 41.9.2 10.3-1.4 20.7-1.3 31.1.2 17.7 1.7 35.4 1.6 53.1-.1 20.2 3.4 39.7 7.3 59.4.9 4.6 1.3 9.5 1.2 14.2-.3 11.2-1.3 22.3-1.7 33.5-.1 3.5 2.1 4.9 5.9 4.4 9.7-1.2 19.5-2.4 29.3-2.8 6.4-.3 13.1-.1 19.2 1.6 8.9 2.5 16.6-5.9 25.3-1.8 4.3-4 5.5 1.5 8.4 3.2 1.5-2.9 2.9-5.4 5.2-9.7 1.3 3.8 2 5.9 2.6 7.5 3.7-1.6 7.7-3.3 11.7-4.9 0 .9.1 1.7.1 2.6 2.2.3 5.2 1.7 6.4.8 4.2-3.3 6-1.6 7.2 3.3 3.7-3.9 6.7-3.3 8.9.1 1.2-2.2 2.2-4.2 3.3-6.1 1.5 1.3 3 2.6 4.4 4 2.2 2.3 4.5 2.6 7.1.6 2.4-1.8 4.8-3.5 7.9-5.7.5 4.3.9 7.4 1.3 10.6.5 0 1.1 0 1.6.1 1.1-2.3 2.3-4.7 3.4-7 .7-.5 1.3-1 2-1.5.6 2.2 1.2 4.4 1.9 6.6.4-.5.8-1.1 1.2-1.6 1.7-1.8 3.5-3.7 5.2-5.5 1.4 1.8 2.8 3.5 4.2 5.4 3.5.2 7.8-4.1 9.7-.2 3.5 0 5.9-.5 8 .1 3.7 1.2 7 5.3 10.8.1.3-.5 1.8-.2 2.7-.2 4.8-.2 9.5-.4 14.9-.7 0-7.1-.1-13.2 0-19.2.2-17.6.5-35.1.6-52.7.5-83.1.9-166.2 1.3-249.3V66.3c-12 0-22.9.3-33.9-.1-5.7-.3-11.2 2.3-17.3.2-4.3-1.5-9.5-.3-9 7.1.4 5.8-.3 11.7-.7 17.5-.5 8.7-1.6 17.3-1.6 26 0 9.2 1.1 18.4 1.7 27.6.2 2.6.8 5.4.5 7.9-1.9 15.3-5.9 30.2-5.5 45.9.4 17.3-1.8 34.6-2.4 52-.3 10 .8 20.1.4 30.1-.5 12.7-2.1 25.3-2.7 37.9-.3 7.4.6 14.9.6 22.4 0 2.9-.7 5.7-1.1 8.6h-1.9c-.4-1.7-1-3.4-1.1-5.2-.1-6.7-.2-13.3.1-20 .5-9.4 1.6-18.8 2.1-28.3.4-7 .1-14.1.2-21.1 0-8.9-.3-17.8.1-26.6.4-8.5 2-17 2.2-25.5.3-11-.6-21.9-.4-32.9.1-6.5.1-13.6 2.5-19.3 6.6-15.4 2-30.8 2-46.3 0-10.2-.3-20.3.1-30.5.4-9.1 1.5-18.2 2.3-27.8-4.2 0-8.8-.1-13.5 0-10.1.3-20.2 1-30.3 1.1-4.4.1-8.9-1.2-13.3-1-8.4.4-16.8 1.4-24 2 2.5 10.7-2 21.6-.8 32.6 1.2 11.1 1.8 22.2 2.1 33.3.3 11.2.1 22.5 0 33.7-.1 11-.6 21.9-.8 32.9-.1 10.5 0 21 0 31.4-.7 0-1.4.1-2.2.1-.6-5.1-1.9-10.2-1.7-15.3.7-23.8 1.7-47.5 2.6-71.2.1-2.1-.6-4.3-.8-6.4-1.2-12.6-3-25.2-3.3-37.9-.3-10.3 1.1-21 1.9-31.9zm-168 239.9c.9 12.3 2.4 23.9 2.4 35.5-.1 15.1-1.5 30.1-2.1 45.2-.1 1.8 1.4 5 2.7 5.2 4.8 1 9.9 2.1 14.6 1.3 8.1-1.4 15.8-1.8 23.9.2 4.6 1.1 9.7-.3 14.4.4 7 1 13.8 2.9 20.7 4.1 4 .7 8.1.9 13 1.4 0-11.1-1.4-21.6.4-31.6 2.1-12.1-1.5-23-3.1-34.4-1.4-9.8-3.9-19.6-4.6-29.4-1-13.3-.8-26.7-1.2-40-.2-7.8-.7-15.7-.8-23.5-.1-3.7.1-7.3.4-11 .7-8 1.6-16 2.2-24.1.8-10.4 1.4-20.8 2.2-31.2.7-9.5 1.3-18.9 2-28.4-.6-.1-1.2-.1-1.7-.2-6.5 12.7-13.1 25.3-19.4 38-6.2 12.6-11.8 25.5-17.9 38.2-5.4 11.1-7.3 22.6-6.5 34.9.7 10.2.8 20.5.7 30.7-.1 6.9-1.5 13.8-1.8 20.7-.1 3.5 1.2 7 1.4 10.6.7 11.6 1.1 23.2 1.6 34.7 0 .5-.5 1.1-.8 1.6-.5 0-1.1.1-1.6.1-.6-2.8-1.5-5.6-1.8-8.4-1.2-13.5-2.2-27.1-3.2-40.7-.1-2 .2-4 .4-6 .9-7.3 2.4-14.7 2.7-22 .3-6.7-.6-13.5-.8-20.2-.1-3.3 0-6.6 0-9.9-2 2.1-2.7 4.2-3.5 6.3-4.4 11-8.8 22-13.5 32.9-1.8 4.2-2 9.8-7.9 11.4-3.5-3-8-5.4-10.4-9.2-4-6.5-6.9-13.7-9.9-20.7-6-14.2-11.7-28.5-17.7-42.7-8.3-19.4-16.8-38.7-25.2-58.1-2.7-6.3-5.2-12.8-7.9-19.2-1.3-3.1-3-5.9-4.9-9.5-1.9 3.3-3.4 5.6-4.6 8-7.5 15.3-15 30.6-22.3 46.1-5.1 11-9.8 22.1-14.6 33.3-.9 2.1-1.4 4.5-1.5 6.8-.7 13.5-1.3 27.1-1.7 40.6-.3 8.4-.1 16.8-.2 25.1 0 9.2-.3 18.5 0 27.7.5 20.7 1.3 41.4 1.9 62.1.1 2.2 0 4.3 0 7.1 5.3-.9 10-1.9 14.7-2.5 6.7-.9 13.7-.7 20.2-2.4 22-5.9 44.2-5.8 67.4-3.8.4-6.6.9-13.4 1.4-20.2.4-6.9 1.2-13.8 1.1-20.7-.1-7-.7-14.1-1.6-21-1.3-8.6-.8-16.7 2.3-19.2zM167 186.2c1.1-1.5 1.5-1.8 1.7-2.3 9.3-18.8 18.7-37.6 28-56.5 1.5-3.1.2-4.5-2.9-4.6-5.1-.2-10.2-.2-15.3-.6-3.1-.3-6.7-.5-9.1-2.1-4.4-3 .2-5.5 1.5-8.1 4.3-8.6 6.3-9.4 15.7-7.4 8 1.7 16.2 3.7 24.3 4 6.1.2 8.2 3.3 9.4 7.9 2.1 7.6 3.4 15.5 5.6 23.1 2.5 8.6 4.9 17.4 8.6 25.6 6.4 14.3 13.9 28 20.6 42.2 6.5 13.9 12.6 27.9 18.7 42 2.5 5.7 4.4 11.6 7 18.5 1.2-2 2-3.3 2.6-4.6 7-15.3 14-30.5 20.7-45.8 1-2.4 1.5-5.7.7-8-5.7-16.8-8-34.2-9-51.6-.9-15.1.9-30.3 2.1-45.5.5-5.6 3-10.9 4.6-16.4.7.1 1.4.3 2.1.4-9.9 37.4-5.2 74.1 3.4 110.7 6.8-12 12.9-24 18.9-36.1 9.5-19.4 18.9-38.9 28.3-58.3 1.4-2.9 3.8-5.6 4.1-8.6.9-9.8 1-19.6 1.5-29.5.1-2.9-.7-4.6-3.9-4.6-10.3-.1-20.6-.2-30.8-.5-6.9-.2-13.8-.8-20.7-.9-7.2-.1-14.4.3-21.6.4-5.4 0-7 2.4-6.9 7.8.2 7.3-.8 14.6-1.2 21.8-.8 14.9-1.7 29.8-2.3 44.8-.2 4.5.9 9 1 13.6.2 7.9.2 15.9 0 23.8-.4 13.6-1 27.2-1.6 40.8 0 .3-.7.6-2.3 2-.3-4.9-.8-8.7-.8-12.5.1-9.4.8-18.8.8-28.2 0-16-.6-32-.3-48 .5-20.3 1.8-40.6 2.6-61 .3-6.6-1.4-8.1-7.8-7.7-10.2.6-20.3 1.4-30.5 2.1-7.1.4-14.2.8-21.3.9-2.1 0-4.2-1-6.2-.9-9.7.4-19.4 1.4-29.1 1.4-9.3 0-9.5-.3-9.7 9-.1 6.8 0 13.6 0 20.3h-2.6c-.2-6.2-.6-12.4-.6-18.6 0-3.3-.8-4.5-4.4-4.3-5.9.4-11.9.1-17.8.1h-20c0 10.4.3 20.2-.1 30-1 30.4 1.3 60.9-2.2 91.3-1.8 15.3-1.1 30.8-1.8 46.2-.7 16.8-1.8 33.6-2.6 50.4-.1 1.1.7 2.2 1.2 3.8 3.9-9.9 7.4-19.1 11.3-28.2 4.8-11.3 10.1-22.4 15-33.6 3-6.9 5.9-13.9 8.9-20.8 3.5-8.2 7.4-16.3 10.2-24.7 1.4-4 1-8.6 1.1-13 .3-9.1.4-18.2.7-27.4.2-5.4.7-10.9 1.1-16.3.5 0 1 .1 1.6.1-.2 17-.2 34-.2 52.2zM585 8h-80.1c-3.8 0-7.5.9-11.3.8-10.3-.2-20.6-.8-30.8-1-7-.2-13.9-.1-20.9 0-10.3.1-20.5 0-30.8.3-5.9.1-11.8 1.1-17.7 1C383.9 9 374.2 8 364.6 8c-24.8 0-49.6.3-74.4.5H273c0 13.9.1 26.5-.1 39.1 0 1-1.6 2.8-2.5 2.9-9.3.5-18.7.9-28.1 1.1-4.5.1-9.1-.3-13.7 0-6.1.4-12.2 1.8-18.4 2-14.5.6-29.1.2-43.7 1.2-30.9 2-61.8 4.4-92.7 6.9-14.9 1.2-29.8 3.3-44.7 5-5.4.6-10.8 1.7-16.2 2.4-3.9.5-4.1 3.5-3.3 6.1.5 1.4 2.9 3.3 4.3 3.2 10.9-.5 21.5-1.4 32.1-2.3 5.8-.5 11.9-2.8 17.2-1.6 6.3 1.5 11.1-1.2 16.6-1.9 3.6-.5 7.3-.4 10.9-.7 1.2-.1 2.5-.2 3.7-.5 10-2.3 19.9-5 30-.3.6.3 1.4-.1 2.1-.1 6.7-.1 13.4-.4 20.1-.3 4 0 7.9.9 11.8.8 1.5 0 3.6-1.4 4.2-2.6 1.5-3.4 4-3.7 7.1-3.8 14.9-.3 29.7-.6 44.6-1.3 11.8-.5 23.5-1.8 35.2-2.2 7.9-.2 15.8.6 23.7 1.1 2.1.1 4.3 1 6.4 1.5 7.7.8 15.7-.2 23.7-.2 12.4 0 24.8 1.1 37.2 1 7.8 0 15.4.4 23.5-2.1 8.5-2.6 18.5-.4 27.8.1 9.8.4 19.6 1.5 29.5 1.7 7.1.2 14.2-.6 21.3-.9 2.4-.1 4.8-.3 7.1-.3 9.2-.1 18.3-.3 27.5-.3 1 0 2.1.5 3.1.5 14.8-.7 29.6-1.6 44.3-2.1 3.3-.1 6.6 1.3 10 1.3 6.6-.1 13.2-.9 19.9-1 9.4-.2 18.9 0 28.5 0 .7-18 1.3-35.3 2-53.9zM159.5 248c-.4 0-.8.1-1.1.1-3.9 9.6-8.1 19-11.5 28.8-6.1 17.4-11.9 34.9-17.6 52.4-.9 2.6 0 4.5 3.4 4.8 3.5.3 7.1 1.1 10.5 2.1 3.8 1.1 4.6 4 1.7 6.7-1.3 1.3-3.1 2.1-3.6 2.4.4 2.8 1.5 5.4.8 7.2-1.5 3.8-4.4 3.8-8.3 2.3-5.1-2-10.7-2.6-16.3-3.9 1.2 16.9-3.1 33.4.8 48.6h41.8c-.5-7.7-1.2-14.1-1.3-20.4-.2-11.7.2-23.4 0-35.1-.2-11.6-.8-23.2-1-34.8-.1-8.3-.2-16.5.1-24.8.2-5.5 1.4-11 1.8-16.6.4-5.5.5-11 .6-16.5 0-1-.6-2.1-.8-3.3zm4.5 155.5c0 .3.1.7.1 1 7.9 0 16.2 1.5 23.7-.3 16.9-4 33.6-4.7 50.7-3 11.1 1.1 22.3 1.5 33.5 2.1 2.4.1 4.9-.7 7.4-1.1-2.2-1.8-4.5-2.2-6.6-2.9-5.8-1.7-11.5-4.4-17.4-5.2-8.4-1.1-17.1-1-25.6-1-5.3 0-10.6.2-15.8 1.3-9.3 1.9-18.1 5.8-27.8 6-7.4.2-14.8 2-22.2 3.1zm125.7-3.3v2c5.6-.3 11.1-.6 16.7-.9 0-.7-.1-1.5-.1-2.2-5.5.4-11 .7-16.6 1.1zm-181.1-70.8c.1-.1.2-.2.4-.3-.1-.1-.2-.3-.3-.3-.1 0-.2.2-.4.3.1 0 .2.2.3.3z"/>
  <path d="M32 467.4c9.9-1.3 19.7-2.6 29.6-3.9 5.2-.7 10.3-1.3 15.5-.8 3.1.3 4.1-1.7 3.5-4.6 1.6.5 3.5.6 4.8 1.6 4.5 3.6 8.6 1.5 12.7-.5 1.4.1 2.8.5 4.1.3 1.8-.2 3.9-1.6 5.3-1 7.3 3 14.4 1.1 21.7.1 3.8-.6 7.8.4 11.6.4 18.9-.3 37.8-.5 56.6-1 12.4-.3 24.8-1.3 37.2-1.3 14.5-.1 29.1.7 43.6.9 12 .2 24 .2 35.9 0 16.8-.2 33.7-.8 50.5-.8 22.7 0 45.4.5 68 .6 18.9 0 37.9-.5 56.8-.6 30.6-.1 61.2-.1 91.8-.2 3 0 6-.5 8.9-.2 1.7.2 3.3 1.4 5 2.2v8.8H32zM201.7 0c-3 .6-6.1 1.5-9.1 1.8-21 1.4-41.9 2.5-62.9 4-6.8.5-13.5 2.1-20.3 3.2-.5.1-1-.4-1.5-.4-3.7.3-7.4 1.5-10.9 1-6.2-.9-6.2-1.3-9.1 1.2-15.9-.9-30.2 1.8-44.5 2.6-14.5.7-29 2.8-43.4 4.3V0h201.7zM595.3 203.9v-3.3 3.3zM595.3 343.9v-1.1 1.1zM437.7 69.3c-.7 10.9-2.2 21.6-1.9 32.3.3 12.7 2.1 25.3 3.3 37.9.2 2.1.9 4.3.8 6.4-.8 23.7-1.9 47.5-2.6 71.2-.1 5.1 1.1 10.2 1.7 15.3.7 0 1.4-.1 2.2-.1 0-10.5-.1-21 0-31.4.1-11 .6-21.9.8-32.9.1-11.2.4-22.5 0-33.7-.3-11.1-.9-22.3-2.1-33.3-1.2-10.9 3.3-21.9.8-32.6 7.2-.6 15.6-1.6 24-2 4.4-.2 8.8 1.1 13.3 1 10.1-.2 20.2-.8 30.3-1.1 4.6-.1 9.2 0 13.5 0-.8 9.5-1.9 18.6-2.3 27.8-.4 10.1-.1 20.3-.1 30.5 0 15.4 4.6 30.9-2 46.3-2.5 5.7-2.4 12.8-2.5 19.3-.2 11 .7 21.9.4 32.9-.2 8.5-1.8 17-2.2 25.5-.4 8.9-.1 17.7-.1 26.6 0 7 .2 14.1-.2 21.1-.5 9.4-1.6 18.8-2.1 28.3-.4 6.6-.2 13.3-.1 20 0 1.7.7 3.4 1.1 5.2h1.9c.4-2.9 1.2-5.7 1.1-8.6-.1-7.5-1-15-.6-22.4.6-12.7 2.2-25.3 2.7-37.9.4-10-.7-20.1-.4-30.1.6-17.3 2.8-34.7 2.4-52-.4-15.8 3.6-30.7 5.5-45.9.3-2.6-.3-5.3-.5-7.9-.6-9.2-1.6-18.4-1.7-27.6 0-8.7 1.1-17.3 1.6-26 .3-5.8 1.1-11.7.7-17.5-.5-7.4 4.7-8.6 9-7.1 6.1 2.1 11.5-.5 17.3-.2 10.9.5 21.9.1 33.9.1v14.8c-.4 83.1-.9 166.2-1.3 249.3-.1 17.6-.4 35.1-.6 52.7-.1 6.1 0 12.2 0 19.2-5.4.3-10.2.5-14.9.7-.9 0-2.3-.3-2.7.2-3.8 5.2-7.1 1-10.8-.1-2.1-.7-4.5-.1-8-.1-1.9-3.9-6.2.4-9.7.2-1.5-1.9-2.9-3.7-4.2-5.4-1.7 1.8-3.5 3.7-5.2 5.5-.4.5-.8 1.1-1.2 1.6-.6-2.2-1.2-4.4-1.9-6.6-.7.5-1.3 1-2 1.5-1.1 2.3-2.3 4.7-3.4 7-.5 0-1.1 0-1.6-.1-.4-3.1-.8-6.3-1.3-10.6-3.1 2.2-5.5 3.9-7.9 5.7-2.6 1.9-4.8 1.6-7.1-.6-1.4-1.4-2.9-2.7-4.4-4-1 2-2.1 3.9-3.3 6.1-2.2-3.4-5.2-4-8.9-.1-1.2-4.9-3-6.6-7.2-3.3-1.2.9-4.2-.5-6.4-.8 0-.9-.1-1.7-.1-2.6-4 1.7-8 3.4-11.7 4.9-.6-1.6-1.3-3.7-2.6-7.5-2.3 4.2-3.6 6.8-5.2 9.7-2.9-1.7-4-7.2-8.4-3.2-8.7-4-16.4 4.4-25.3 1.8-6.1-1.7-12.8-1.9-19.2-1.6-9.8.4-19.6 1.6-29.3 2.8-3.8.5-6-.9-5.9-4.4.4-11.2 1.3-22.3 1.7-33.5.1-4.7-.3-9.6-1.2-14.2-3.9-19.6-7.4-39.2-7.3-59.4.1-17.7-1.4-35.4-1.6-53.1-.1-10.4 1.5-20.7 1.3-31.1-.3-14.2 1.9-28.1 4.5-41.9.7-3.7-.2-7.6-.4-11.5.6-.1 1.2-.2 1.7-.3 14.9 63.6 29.8 127.2 44.7 191.1-7.7 1-14.2 1.6-20.6 2.6-3.3.5-4.8 1.9-3.6 6.1 1 3.7.4 7.9 3.8 10.8.9.8 2.6 1.6 3.7 1.3 12.8-2.8 25.5-5.9 38.3-8.7 6.3-1.4 12.8-2.4 19.2-3.5 5.4-.9 5.4-5.7 6.9-9.3.6-1.4.1-3.3 0-5-.2-3.6-3-4.9-6.6-3.9-5.9 1.6-11.9 2.9-17.9 3.5-1.5.1-4.4-2.6-4.8-4.5-4-15.9-7.3-31.9-11.2-47.8-7.3-29.6-14.7-59.2-22.4-88.7-5.5-21-11.2-41.9-17.2-62.7-2.7-9.3-3.1-9.4 6.2-11.4 4.8-1 9.7-1.4 14.6-1.8 4.2-.3 6-2 5.9-6.4-.1-3.3 1.3-6.1-1.8-9.4-3.7-4-7.8-4.7-12.3-3.9-5.3.9-10.5 2.7-15.8 3.8-2.2.5-4.6.1-7.7.1 0-6.6-.2-12.9 0-19.2.2-5.6.6-11.3 1.4-16.9.2-1.4 2.4-3.7 3.6-3.7 8.1 0 16.3.4 24.4.9 9.1.5 18.3 1.4 27.4 1.8 5.8-.1 11.7-.3 17.9-.3zm46.8 329.3c.5.3 1.1.5 1.6.8.8-1.4 2.1-2.8 2.2-4.2.1-10.8-.4-21.5-.1-32.3.2-5.8 2.3-11.5 2.1-17.2-.5-11.8-1.8-23.5-3-35.2-.9-9-2.1-18-3.2-26.9-1.4-11.1-3.4-22.1-4.2-33.2-.9-11.5-.8-23.1-1.1-34.6-.1-7.5-.5-15.1 0-22.6 1-12.8 2.6-25.5 3.9-38.3.9-9 1.9-18 2.3-27.1.4-10.4.1-20.7.2-31.1.1-7.6.6-15.1.7-22.7 0-1.4-.8-2.7-1.3-4.1-1.6 2.8-2.5 5.2-2.6 7.7-.5 15.8-.7 31.6-1.4 47.3-.4 10.7-1.4 21.4-2.3 32.1-1.6 19.4-3.9 38.7-4.6 58.2-.5 14.5.9 29.1 1.6 43.7.2 3.4.9 6.8 1.6 10.2 1.9 9.3 4.4 18.5 5.9 27.8 1.8 11.2 3.3 22.6 4.2 33.9.5 7.4.1 14.9-.7 22.2-.7 6.6-3.2 13.1-3.4 19.7-.3 8.6 1 17.3 1.6 25.9zm63.4-290.3c-.5-.1-1.1-.3-1.6-.4-.9 2.1-2.3 4.1-2.5 6.3-.8 8.1-1.3 16.3-1.8 24.4-.3 4.7-.7 9.4-.6 14.1.4 12.1 1.3 24.2 1.8 36.3.4 7.8.8 15.7.7 23.5-.3 17.9-.8 35.9-1.5 53.8-1 24.5-2.5 49-3.4 73.5-.3 9.4.3 18.8.8 28.2.2 4.1 1.3 8.2 2 12.3.9-.1 1.8-.1 2.6-.2-.3-4.9-.7-9.8-.8-14.7-.2-11.1-.7-22.2-.3-33.3.3-10 1.7-20 2.2-30.1.4-8.4-.2-16.8.1-25.2.4-9.1 2-18.1 2.2-27.2.2-12.8-.4-25.6-.6-38.4l-.6-36.7v-1.7c0-17.1 0-34.3.2-51.4 0-4.2.7-8.7 1.1-13.1zm-79.9 257c.6 0 1.3-.1 1.9-.1-.2-1.6-.4-3.1-.6-4.7-1.1-7.9-2.7-15.7-3.1-23.6-1-18.9 2.1-37.4 5.4-55.9.4-2.4-.2-4.9-.4-7.4-.5 0-1.1.1-1.6.1-4.7 30.6-11.2 61-1.6 91.6zm-20-135.5c.4-.1.9-.1 1.3-.2.3-1.1.7-2.3.8-3.4.6-16.6 1.1-33.2 1.8-49.8.2-5.2 1.2-10.4 1.7-15.6.1-1-.5-2-.7-3.1-.7.8-1.7 1.5-2.1 2.4-.6 1.3-.9 2.7-1 4.1-.6 7.3-1.4 14.5-1.7 21.8-.5 13.6-.8 27.3-1.1 41-.1.9.6 1.9 1 2.8zm27.9 120.6c-.9 0-1.9-.1-2.8-.1-.5-10.1-1-20.2-1.4-30.1-5.5 5.2-4.1 25.5 3.2 35.1 1.6-2.1 4.1-3.8 4.3-5.8.7-6.6.9-13.3.8-20-.1-4.6-.9-9.1-1.3-13.6-.6 0-1.1.1-1.7.1-2.8 11.2 3 23.2-1.1 34.4zM114.6 349.5c-.8 10.1-1.8 20.3-2.2 30.5-.2 4.7.8 9.4 1.1 14.1.1 1.8.3 4.5-.6 5.1-1.3.9-3.7.1-5.6.2-6.8.1-13.6.2-20.4.4-2.3.1-4.6.2-5.9 1.3-2.9-.4-22 .9-25.1 4.5-4.3-6.6-27.9-6.8-47-.2-.1-2.1-.4-4-.3-5.9.3-52.9.8-105.8 1-158.7.1-18.9-.6-37.8-.8-56.7-.1-19.1.1-38.3.2-57.4V84c12.9-.9 24.8-1.9 36.7-2.5 9.3-.5 18.5-.6 27.8-1.2 1.8-.1 3.6-1.9 5.4-2.1 12.9-1.9 25.8-3.5 40.4-5.5v29.6c-.1 17.1 0 34.2-.3 51.3-.2 13.2-.7 26.4-1.2 39.6-.3 10.2-.8 20.4-1.3 30.6-.1 2.3-1 4.6-1.1 6.9-.2 7.2 0 14.5-.4 21.6-.6 9.1-2 18.1-2.3 27.1-.3 7.7.5 15.5.6 23.2 0 3.6-.3 7.3-1.2 10.7-1.5 5.5-3.6 10.8-5.5 16.2-.7 0-1.3 0-2 .1-.4-.4-.7-.8-1.1-1.1h-2.2c-.3-.1-.6-.1-1-.1-.8-1.1-1.3-2.7-2.4-3.2-2.2-1.1-5-1.1-7.1-2.4-3.3-2.1-5 .4-6.9 2-1.4 1.2-2.3 2.9-3.7 4.2-3.5 3.2-3.4 12 .5 13 5.7 1.4 11.6 2.1 17.3 3 5.6 1.5 11.1 3 16.6 4.5zM50.4 351c.4-.3.9-.5 1.3-.8-2.2-4-5.3-7.8-6.4-12.1-3.2-12.5-6.1-25.1-8.2-37.8-1.3-8-1.4-16.2-1.7-24.3-.4-10.1-.8-20.3-.5-30.5.4-9.9 1.7-19.7 2.6-29.6-1.6 1.2-3.1 2.8-3.3 4.6-1.2 12.8-2.5 25.7-3.2 38.5-.5 8.3-.9 16.8.2 25 2.2 16.6 5.2 33.2 8.6 49.6 1.5 6.9 5.6 12.7 10.6 17.4zm-1.6-223 1.5.3c8.1 34.9 5.8 70.3 5.1 106.1 6.6-8.8 5.9-100.2-5.1-111.8-4.7 4.8-6.6 10.6-4.9 17.3 1.2-4.6 2.3-8.2 3.4-11.9zm18.4 93.6c.6 0 1.1-.1 1.7-.1.5-2.4 1.6-4.9 1.5-7.3-.6-17.6-1-35.2-2.3-52.7-.9-12.4-2.8-24.7-4.7-37-1.1-7-2.8-14-4.6-20.9-.2-.8-2.5-1.1-2.7-1.2 7.6 39.8 11.9 79.2 11.1 119.2zM43.3 371.3c-10.2-12.1-11.6-25.9-12.8-40.1-1.3 6-2.6 12.2-1.1 17.6 1.9 7.1 5.9 13.8 9.4 20.4.6 1.2 3 1.4 4.5 2.1z" fill="#fff"/>
  <path d="M269.7 309.2c-3 2.5-3.5 10.6-2.4 19.3.9 7 1.5 14 1.6 21 .1 6.9-.7 13.8-1.1 20.7-.4 6.8-.9 13.7-1.4 20.2-23.2-2-45.4-2.1-67.4 3.8-6.5 1.7-13.5 1.5-20.2 2.4-4.7.6-9.4 1.6-14.7 2.5 0-2.8.1-5 0-7.1-.6-20.7-1.4-41.4-1.9-62.1-.2-9.2 0-18.5 0-27.7 0-8.4-.1-16.8.2-25.1.4-13.5 1-27.1 1.7-40.6.1-2.3.6-4.7 1.5-6.8 4.7-11.1 9.5-22.3 14.6-33.3 7.2-15.5 14.8-30.8 22.3-46.1 1.2-2.4 2.7-4.7 4.6-8 1.9 3.6 3.6 6.5 4.9 9.5 2.7 6.3 5.2 12.8 7.9 19.2 8.4 19.4 16.9 38.7 25.2 58.1 6.1 14.2 11.7 28.5 17.7 42.7 3 7 5.8 14.3 9.9 20.7 2.3 3.8 6.8 6.2 10.4 9.2 5.9-1.6 6.1-7.2 7.9-11.4 4.7-10.9 9.1-21.9 13.5-32.9.8-2.1 1.5-4.2 3.5-6.3 0 3.3-.1 6.6 0 9.9.3 6.7 1.1 13.5.8 20.2-.4 7.4-1.8 14.7-2.7 22-.2 2-.5 4-.4 6 1 13.6 2 27.1 3.2 40.7.2 2.8 1.2 5.6 1.8 8.4.5 0 1.1-.1 1.6-.1.3-.6.8-1.1.8-1.6-.5-11.6-.9-23.2-1.6-34.7-.2-3.5-1.6-7.1-1.4-10.6.3-6.9 1.7-13.8 1.8-20.7.2-10.2 0-20.5-.7-30.7-.8-12.3 1.2-23.8 6.5-34.9 6.1-12.7 11.7-25.5 17.9-38.2 6.3-12.8 12.9-25.4 19.4-38 .6.1 1.2.1 1.7.2-.7 9.5-1.3 18.9-2 28.4-.7 10.4-1.4 20.8-2.2 31.2-.6 8-1.5 16-2.2 24.1-.3 3.6-.5 7.3-.4 11 .2 7.8.6 15.7.8 23.5.4 13.3.2 26.7 1.2 40 .8 9.9 3.3 19.6 4.6 29.4 1.6 11.4 5.2 22.3 3.1 34.4-1.8 10-.4 20.5-.4 31.6-4.9-.5-9-.7-13-1.4-6.9-1.2-13.7-3.1-20.7-4.1-4.7-.7-9.9.8-14.4-.4-8.1-2-15.8-1.5-23.9-.2-4.7.8-9.8-.3-14.6-1.3-1.2-.3-2.7-3.4-2.7-5.2.6-15.1 2-30.1 2.1-45.2.1-11.7-1.4-23.3-2.3-35.6zm-54.1 20.2c.6.1 1.3.2 1.9.3.6-2.6 1.6-5.3 1.8-7.9.7-11.7 2.3-23.3.3-35.2-2.1-12.1-2.5-24.4-4.7-36.4-3.4-19-8.8-37.7-9.1-57.4-1 1.9-2 4-1.9 6 .9 10.5 1.6 21 3.3 31.3 2.6 16.9 6.8 33.5 8.6 50.4 1.4 13.8.3 28 .3 41.9 0 2.4-.3 4.7-.5 7zm109.3 29.4c.5 0 1.1.1 1.6.1.2-1.6.8-3.3.7-4.9-.2-6.2-.7-12.3-1-18.5-.4-10.6-.7-21.1-1.1-31.7-.1-1.2-.9-2.3-1.3-3.5-.7.1-1.5.3-2.2.4 1.1 19.4 2.2 38.8 3.3 58.1zM231.2 302h-1.8c0 1.7-.1 3.4 0 5.1.3 9.3 1.3 18.6.8 27.9-.3 5.4-2.4 10.8-4.3 15.9-1.2 3.3-3.6 6.2-5.5 9.2.6.4 1.3.9 1.9 1.3 2.7-4.2 5.9-8.3 8.1-12.8 6.1-12.6 1.7-25.9 1.9-38.9-.1-2.5-.8-5.1-1.1-7.7zm-25.1 16.5c-4.4 4.4-5.5 7.9-3.4 11.8 1.3 2.4 3.6 4.6 6 6 1 .6 3.4-1.5 5.2-2.3-7.3-.3-7.8-.7-7.8-7.9v-7.6z" fill="#fff"/>
  <path d="M167 186.2V134c-.5 0-1-.1-1.6-.1-.4 5.4-.9 10.9-1.1 16.3-.3 9.1-.4 18.2-.7 27.4-.2 4.4.2 9-1.1 13-2.9 8.4-6.8 16.5-10.2 24.7-2.9 6.9-5.8 13.9-8.9 20.8-5 11.2-10.2 22.3-15 33.6-3.9 9.1-7.4 18.3-11.3 28.2-.5-1.6-1.2-2.7-1.2-3.8.8-16.8 1.9-33.6 2.6-50.4.7-15.4 0-31 1.8-46.2 3.5-30.4 1.2-60.9 2.2-91.3.3-9.8.1-19.5.1-30h20c5.9 0 11.9.3 17.8-.1 3.6-.2 4.4 1 4.4 4.3 0 6.2.4 12.4.6 18.6h2.6c0-6.8-.1-13.6 0-20.3.1-9.3.4-9 9.7-9 9.7 0 19.4-1 29.1-1.4 2.1-.1 4.2 1 6.2.9 7.1-.2 14.2-.5 21.3-.9 10.2-.6 20.3-1.4 30.5-2.1 6.5-.4 8.1 1.1 7.8 7.7-.8 20.3-2.1 40.6-2.6 61-.4 16 .3 32 .3 48 0 9.4-.6 18.8-.8 28.2-.1 3.8.5 7.6.8 12.5 1.6-1.4 2.3-1.7 2.3-2 .6-13.6 1.2-27.2 1.6-40.8.2-7.9.2-15.9 0-23.8-.1-4.5-1.1-9.1-1-13.6.6-14.9 1.5-29.8 2.3-44.8.4-7.3 1.4-14.6 1.2-21.8-.1-5.4 1.5-7.8 6.9-7.8 7.2 0 14.4-.5 21.6-.4 6.9.1 13.8.7 20.7.9 10.3.3 20.6.4 30.8.5 3.2 0 4.1 1.7 3.9 4.6-.5 9.8-.6 19.7-1.5 29.5-.3 3-2.7 5.7-4.1 8.6-9.4 19.4-18.8 38.9-28.3 58.3-5.7 12-11.9 24-18.7 36-8.5-36.6-13.3-73.3-3.4-110.7-.7-.1-1.4-.3-2.1-.4-1.6 5.5-4.2 10.8-4.6 16.4-1.3 15.1-3 30.4-2.1 45.5 1 17.4 3.3 34.9 9 51.6.8 2.4.4 5.7-.7 8-6.7 15.4-13.8 30.6-20.7 45.8-.6 1.3-1.5 2.6-2.6 4.6-2.6-6.9-4.5-12.8-7-18.5-6.1-14.1-12.2-28.1-18.7-42-6.6-14.2-14.2-27.9-20.6-42.2-3.7-8.2-6.1-17-8.6-25.6-2.2-7.6-3.5-15.5-5.6-23.1-1.2-4.6-3.4-7.7-9.4-7.9-8.1-.3-16.3-2.3-24.3-4-9.4-2-11.5-1.2-15.7 7.4-1.3 2.6-5.9 5.1-1.5 8.1 2.4 1.7 6 1.9 9.1 2.1 5.1.5 10.2.4 15.3.6 3.1.1 4.5 1.5 2.9 4.6-9.3 18.8-18.6 37.6-28 56.5-.2.6-.6 1-1.7 2.4z" fill="#fff"/>
  <path d="M585 8c-.7 18.6-1.3 35.8-2 53.9-9.6 0-19.1-.1-28.5 0-6.6.1-13.2 1-19.9 1-3.3 0-6.7-1.4-10-1.3-14.8.5-29.6 1.4-44.3 2.1-1 0-2.1-.5-3.1-.5l-27.5.3c-2.4 0-4.8.2-7.1.3-7.1.3-14.2 1.1-21.3.9-9.8-.2-19.6-1.3-29.5-1.7-9.3-.4-19.3-2.6-27.8-.1-8.1 2.5-15.7 2.1-23.5 2.1-12.4 0-24.8-1-37.2-1-8 0-15.9 1-23.7.2-2.1-.5-4.2-1.4-6.4-1.5-7.9-.5-15.8-1.3-23.7-1.1-11.8.3-23.5 1.7-35.2 2.2-14.8.6-29.7 1-44.6 1.3-3.1.1-5.6.3-7.1 3.8-.6 1.3-2.7 2.6-4.2 2.6-3.9.1-7.9-.8-11.8-.8-6.7-.1-13.4.2-20.1.3-.7 0-1.5.4-2.1.1-10.1-4.7-20-2-30 .3-1.2.3-2.5.4-3.7.5-3.6.2-7.3.2-10.9.7-5.5.7-10.3 3.4-16.6 1.9-5.2-1.2-11.4 1.1-17.2 1.6-10.6.9-21.2 1.8-31.9 2.3-1.5.1-3.9-1.8-4.3-3.2-.8-2.6-.7-5.5 3.3-6.1 5.4-.7 10.8-1.8 16.2-2.4C44.2 65 59.1 63 74 61.7c30.9-2.6 61.8-5 92.7-6.9 14.5-.9 29.1-.6 43.7-1.2 6.1-.2 12.2-1.6 18.4-2 4.5-.3 9.1.1 13.7 0 9.4-.2 18.7-.6 28.1-1.1.9-.1 2.5-1.9 2.5-2.9.2-12.6.1-25.2.1-39.1h17.2c24.6-.2 49.4-.5 74.2-.5 9.6 0 19.3 1 28.9 1.1 5.9.1 11.8-.9 17.7-1 10.3-.2 20.5-.2 30.8-.3 7 0 13.9-.1 20.9 0 10.3.2 20.6.8 30.8 1 3.8.1 7.5-.8 11.3-.8h80zM82.8 456.3c-1.5-.4-3.3-1.7-4.4-1.2-8.5 3.2-17.2 1.7-25.9 1.9-8.9.3-17.8 1.7-26.6 2.9-4.2.5-8.2 1.7-12.4 2.1-1.8.2-3.7-.8-5.6-1.2 1-2.3 1.3-5.9 3-6.6 8.4-3.7 17.1-6.7 25.8-9.7 12.7-4.5 25.4-9 38.3-13.1 7.4-2.4 15.1-4 22.7-6.1 2.3-.6 4.4-1.6 6.7-2.5-.3-.8-.6-1.6-.9-2.5-31.2 10-62.3 20-93.5 30-.4-.2-.8-.4-1.1-.5 1-1.4 1.7-3.3 3-4 5.6-2.6 11.2-5.1 17-7 11.7-3.8 23.4-7.2 35.2-10.8 9.1-2.7 18.2-5.6 27.3-8.1 7.2-1.9 14.5-3.4 21.9-5.1-.4-2.5-.8-4.5-1.2-6.5 1 1.5 2 2.9 3 4.5 11-.9 22.2-1.9 33.4-2.8.1.4.2.9.4 1.3-13.8 3.1-27.5 6.2-41.3 9.3.2.7.3 1.3.5 2 10-2.2 20.1-4.4 30.1-6.5 4.6-1 9.2-1.7 13.8-2.9 2.9-.7 5.5-2.6 8.4-2.9 3.8-.4 7.7.3 11.6 1.4l-28.5 6c0 .4-.1.8-.1 1.2 1.5.3 3.1 1.1 4.6.8 8.8-1.7 17.6-3.7 26.4-5.3 12.8-2.3 25.9-3.5 38.4-6.7 5.5-1.4 10.7-3.6 16.4-3.2 13 .9 26.1 2.6 39.1 2.9 8.9.2 17.8-1.4 27-1.3-1.9 1.2-3.9 2.5-5.8 3.7-2.6-.6-5.3-2-7.7-1.6-20.2 3-40.3 6.3-60.4 9.5-9.9 1.6-19.8 3.1-29.7 5-12.7 2.4-25.3 4.8-37.9 7.6-20.9 4.8-41.7 9.8-62.5 15-5.8 1.4-11.4 3.7-17 5.6.1.5.2.9.4 1.4 2-.4 4-.8 6-1.3 13.4-3.7 26.7-7.8 40.2-11.2 11.4-2.9 22.9-5.2 34.4-7.5 13.8-2.8 27.7-5.5 41.6-7.9 16.2-2.8 32.5-5.2 48.7-7.9 7.5-1.2 14.9-3 22.3-4.2 7.1-1.1 14.4-1.7 21.5-2.6 6.6-.7 12.9-.9 19.4-4.5 5.5-3.1 12.8-5.7 20.2-2.2 2.8 1.3 6.4.7 9.6 1.2 1.5.2 3 1 4.4 2.2-78.4 10.8-157 19-233.3 42.4 1.3.1 2.7.5 3.9.2 15.4-3.7 30.8-7.9 46.3-11.2 15.9-3.4 32-6.1 48.1-8.9 16-2.8 32.1-5.6 48.2-8 12.3-1.8 24.7-2.9 37-4.5 10.4-1.4 20.7-3.1 31.1-4.6 5.7-.8 11.3-1.3 17-1.9.9-.1 2 .2 2.7-.3 6.6-4.5 13.9-1.4 20.9-1.9 6.4-.4 12.8-1.4 19.2-1.6 6.8-.2 13.6.6 20.4.1 9.5-.8 19.3 4 28.6-1.5 1.2-.7 3.6.3 5.4.9 4.1 1.3 7.6 3.4 12.5 2.6 7.5-1.2 15.5.7 22.7-3.4 5.7 4.1 13.2-1.8 18.7 3.5.3.3 1.4.5 1.5.3 3.3-5.7 8.3-1 12.4-1.9 4.3-.9 8.1.5 11.4 4.7-14.2 2-27.9 4-41.6 6 .1.7.2 1.3.3 2 18.3-2.2 36.7-4.3 55-6.5 0-.6-.1-1.3-.1-1.9h-12c1.9-1.5 3-3 3.8-2.9 7.4 1.1 14.9-4.4 22.2.5.7.5 2.6.4 3-.2 3.1-3.9 6-1.7 9.2-.2 3 1.4 6.4 3.7 8.7-1.2.3-.5 1.6-.7 2.5-.8 3.7-.1 7.3-.2 11 .2 1.3.1 3.7 1.7 3.6 2.1-.6 2.3-1.3 5.7-2.9 6.2-5.2 1.9-10.7 3.1-16.1 3.8-15.5 2.1-31.1 3.6-46.7 5.6-15.8 2-31.5 4.4-47.3 6.6-10 1.4-20 2.9-29.9 4.4l.3 2.1c47-6.2 94-12.4 141-18.5 4.4 8.2-.6 12.2-8.3 12.3-10.7.2-21.4 2.4-32.2 3.5-7.2.8-14.5 1-21.7 1.9-13.1 1.7-26.1 3.7-39.1 5.7-10.5 1.6-20.9 3.6-31.4 5-8.7 1.2-17.4 2-26.3 1.9 50.9-11.5 102.9-15.9 154.3-23.9-.1-.8-.2-1.6-.4-2.4-21.3 2.7-42.6 5.2-63.9 8.1-21.7 3-43.3 6.4-64.9 9.8-21.2 3.3-42.2 8.4-63.8 8.7l-.3-2.1 44.4-7.8c-.1-.6-.1-1.2-.2-1.8-1.9-.2-4-.8-5.8-.4-12.4 2.4-24.8 5.5-37.3 7.6-10 1.7-20.2 2.7-30.3 3.5-5.5.5-11.1.1-16.8-.4 7.2-1.7 14.3-3.5 21.6-4.9 11-2.2 22.1-4.3 33.2-5.9 13.7-2.1 27.5-3.6 41.2-5.4 11.5-1.6 22.9-3.5 34.5-5 13.1-1.7 26.2-3.2 39.4-4.7 10.1-1.2 20.3-2.3 30.4-3.4 10.6-1.2 21.2-2.4 31.8-3.7 1.7-.2 3.3-1.3 4.2-3-14 1.5-27.9 3-41.9 4.6-19.3 2.2-38.6 4.1-57.8 6.7-25.3 3.5-50.4 7.5-75.7 11.3-11.5 1.7-23.2 3-34.7 5-7.8 1.3-15.3 3.7-23.1 5.1-10.1 1.8-20 4.8-30.7 4.1-11.6-.8-23.3.5-34.9.6-9.8.1-19.6 0-29.3 0-.1-.5-.1-1-.2-1.5 3.7-1.2 7.4-2.3 11.2-3.5-.2-.5-.3-1.1-.5-1.6-4.9 1.8-10.9-.3-15 5.1-.5.7-1.8 1.1-2.8 1.1-11 .3-22 .5-32.9.7-.8 0-1.6-.3-2.5-1 65.6-13.5 131.4-25.6 198.1-32.7-.1-.8-.2-1.5-.3-2.3-9.4 1-18.9 1.6-28.2 2.9-21.7 3.1-43.3 6.3-65 9.7-10.6 1.7-21.1 3.8-31.7 5.7-16.1 2.8-32.2 5.4-48.3 8.4-13 2.5-25.8 6-38.8 8.3-7.1 1.3-14.5 1.2-21.7 1.8-8.5.7-17 1.7-25.5 2-10.8.4-21.6-.1-32.4.2-6.3.2-12.6 1.5-18.9 2.3-2.9-1.4-5.4-.8-7.7 1.4zm54.4-4.8c76.7-19.3 153.9-28.6 230.8-40.6-8.6.1-17.1.8-25.6 2.1-11.8 1.8-23.4 4.1-35.2 5.8-7.2 1-14.6 1.1-21.8 2-9.4 1.2-18.7 2.8-28 4.4-18 3.1-36.1 5.8-54 9.5-21.4 4.3-42.6 9.4-63.8 14.2-.8.1-1.3 1.2-2.4 2.6zM476.1 413c-.1-.7-.2-1.4-.3-2.2-62.3 8-124.8 14.6-186.7 25.9.1.4.1.9.2 1.3 62.3-8.3 124.6-16.7 186.8-25zm-229.6-3.6c-61.4 7.1-122.2 17.3-180.8 37.9 59-18.9 120.1-27.2 180.8-37.9zm43.8 37.2c47.2-7 94.3-14 141.5-21.1-.1-.8-.2-1.5-.4-2.3-47.2 6.5-94.5 12.3-141.1 23.4zm-264.5 6.6c36.1-11 71.6-24.5 108.7-32.2-37.7 5.8-73.3 18.6-108.7 32.2zm448.2-33c-1.4-.9-1.5-1.1-1.7-1.1-11.5 1-23 2-34.5 3.1-.7.1-1.3 1.8-2.1 3 13-1.6 25.1-3.2 38.3-5zm-186.8 19.2c-3.4-3.2-25.3 1.3-27.2 5.4 9-1.8 17.7-3.6 27.2-5.4zM159.5 248c.3 1.2.8 2.4.8 3.5-.1 5.5-.2 11-.6 16.5-.4 5.5-1.6 11-1.8 16.6-.3 8.3-.3 16.5-.1 24.8.2 11.6.8 23.2 1 34.8.2 11.7-.2 23.4 0 35.1.1 6.3.8 12.6 1.3 20.4h-41.8c-3.9-15.3.4-31.8-.8-48.6 5.6 1.3 11.2 1.9 16.3 3.9 3.9 1.5 6.8 1.5 8.3-2.3.7-1.8-.4-4.3-.8-7.2.5-.3 2.2-1.2 3.6-2.4 2.9-2.7 2.1-5.7-1.7-6.7-3.4-1-7-1.7-10.5-2.1-3.4-.3-4.2-2.2-3.4-4.8 5.8-17.5 11.5-35 17.6-52.4 3.4-9.7 7.7-19.2 11.5-28.8.3-.2.7-.3 1.1-.3zM496.6 449.2c-12 .6-24 1.1-36 1.6-1.4.1-2.8-.8-5.5-1.6 16.9-2.7 32.2-5.2 47.6-7.5 10.2-1.5 20.4-2.7 30.7-3.8 11-1.2 22-2.2 33-3.3 4.1-.4 8.3-1.1 12.4-1.6 3.6-.4 4.6 2 4.4 4.8-.3 4.1-1 8.2-1.6 12.7h-10.9c-19.6-.1-39.2-.1-58.8-.3-5.1-.1-10.2-.7-15.3-1.1 5.4-.7 10.8-1.3 16.1-2 7.8-1 15.7-2.1 22.6-3 .9 1.4 1.7 3.8 2.5 3.7 6.3-.2 12.5-.8 18.8-1.3 0-.6 0-1.1-.1-1.7h-17.7c0-.3-.1-.6-.1-1l32.1-3.9c-.1-.8-.2-1.7-.4-2.5-25 2.9-50.1 5.8-75.6 8.7.7 1.2 1.2 2.1 1.8 3.1z" fill="#fff"/>
  <path d="M52.9 416.1c.4.4.9 1.3 1.2 1.2 4.5-1.3 9-2.8 13.4-4.2.9-.3 2.2-.9 2.6-.6 7.4 6.5 16.1 1.1 24.2 3.2-.2-1.3-.4-2.2-.5-3.2.2-.1.4-.2.7-.3.6 1 1.2 1.9 1.8 2.8-29 9.2-57.9 18.4-87 27.6.3-.5.8-2.3 1.9-2.7 9-3.4 18-6.8 27.2-9.8 9.7-3.3 19.5-6.3 29.1-10.2-20 2.7-38.2 11.4-57.5 16.6l-1.2-1.2c1-1.1 1.9-2.6 3.1-3.1 4.6-1.7 9.3-2.9 13.9-4.6 1.3-.5 2.4-1.8 2.9-3.7-6.1 1.8-12.2 3.6-19 5.7-.1-2.3-.2-4.5-.3-7.2 6.8-.4 13.2-.6 19.5-1.2 6.4-.5 12.9-1.2 19.3-2.2 1.7-.2 3.2-1.9 4.7-2.9.1 0 0 0 0 0zM164 403.5c7.4-1.1 14.8-2.9 22.2-3.1 9.8-.3 18.6-4.1 27.8-6 5.1-1.1 10.5-1.3 15.8-1.3 8.5 0 17.2-.1 25.6 1 5.9.8 11.6 3.4 17.4 5.2 2.2.7 4.4 1.1 6.6 2.9-2.5.4-4.9 1.2-7.4 1.1-11.2-.5-22.4-1-33.5-2.1-17.1-1.6-33.9-.9-50.7 3-7.5 1.8-15.8.3-23.7.3 0-.3-.1-.6-.1-1z" fill="#fff"/>
  <path d="M53 416.1c-2.2-2.7-5-2.8-8.3-2.3-6.6 1-13.3 1.8-19.9 2.5-3.5.4-7.1.6-10.7.5-1.5 0-4.3-1-4.2-1.3.3-2.6.4-6.5 2-7.3 3.3-1.7 7.4-2.1 11.2-2.3 7-.3 14-.3 20.9.1 6.2.4 12.2 1.7 19.1 2.8-2.1.7-3.8 1.1-5.5 1.8-2.4 1.1-5.6 1.5-4.6 5.5-.1 0 0 0 0 0zM112 408.5l-2.8 4.2c-.3-1.8-.5-3.3-1-5.9-1.4 1.7-2.3 2.8-2.5 3.1H76.5c-.1-.8-.2-1.5-.3-2.3 8.3-1.7 16.6-4.5 25-4.9 7.1-.4 14.3 2.4 21.5 2.6 6.3.1 12.6-1.4 19-2.2.6-.1 1.2.2 1.7.3 0 .5.1 1 .1 1.5-4.2.7-8.4 1.7-12.7 1.9-6.5.4-12.9.3-19.4.5-.1 0-.3.3-.3.3l.9.9z" fill="#fff"/>
  <path d="M100.5 328.5c.3 0 .6 0 1 .1h2.2c.4.4.7.8 1.1 1.1.4.4.7.8 1.1 1.3-.4 5.9 3 10.1 6.6 14.1-3.7-1.5-7.3-2.9-11-4.4-.7-1.1-1.5-2.2-2.2-3.4-.8-.7-1.5-1.5-2.3-2.2l.1.2-1.2-2.4.1.1.3-1.2 4.2-3.3zM82.8 456.3c2.3-2.2 4.8-2.8 7.6-.9 2.5 1.3 5 2.5 7.6 3.8-4.2 2-8.2 4.1-12.7.5-1.2-1-3.2-1.1-4.8-1.6.8-.6 1.6-1.2 2.3-1.8z"/>
  <path d="M101.4 340.6c3.7 1.5 7.3 2.9 11 4.4.7 1.5 1.5 3 2.2 4.4-5.5-1.5-11-2.9-16.5-4.4.4-.7.7-1.5 1.1-2.2.8-.7 1.5-1.4 2.2-2.2z"/>
  <path d="M289.7 400.2c5.5-.4 11.1-.8 16.6-1.2 0 .7.1 1.5.1 2.2-5.6.3-11.1.6-16.7.9v-1.9zM105.8 330.9c-.4-.4-.7-.8-1.1-1.3.7 0 1.3 0 2-.1-.3.5-.6.9-.9 1.4zM108.6 329.4c-.1-.1-.2-.2-.3-.4.1-.1.3-.3.4-.3.1 0 .2.2.3.3l-.4.4z" fill="#fff"/>
  <path d="M484.5 398.6c-.6-8.7-1.9-17.4-1.6-26 .2-6.6 2.7-13.1 3.4-19.7.7-7.4 1.2-14.9.7-22.2-.8-11.3-2.3-22.7-4.2-33.9-1.5-9.3-3.9-18.5-5.9-27.8-.7-3.4-1.4-6.7-1.6-10.2-.7-14.6-2.1-29.2-1.6-43.7.7-19.4 3.1-38.8 4.6-58.2.9-10.7 1.8-21.4 2.3-32.1.7-15.8.9-31.6 1.4-47.3.1-2.5.9-4.9 2.6-7.7.4 1.4 1.3 2.7 1.3 4.1-.1 7.6-.6 15.1-.7 22.7-.1 10.4.2 20.8-.2 31.1-.4 9-1.4 18.1-2.3 27.1-1.3 12.8-2.9 25.5-3.9 38.3-.6 7.5-.2 15.1 0 22.6.2 11.5.2 23.1 1.1 34.6.9 11.1 2.8 22.1 4.2 33.2 1.1 9 2.3 17.9 3.2 26.9 1.2 11.7 2.5 23.4 3 35.2.2 5.7-1.9 11.5-2.1 17.2-.3 10.8.2 21.5.1 32.3 0 1.4-1.4 2.8-2.2 4.2-.5-.1-1.1-.4-1.6-.7zM547.9 108.3c-.4 4.4-1.1 8.9-1.1 13.3-.2 17.1-.1 34.3-.2 51.4v1.7l.6 36.7c.2 12.8.8 25.6.6 38.4-.2 9.1-1.7 18.1-2.2 27.2-.4 8.4.2 16.8-.1 25.2-.5 10-1.9 20-2.2 30.1-.3 11.1.1 22.2.3 33.3.1 4.9.5 9.8.8 14.7-.9.1-1.8.1-2.6.2-.7-4.1-1.7-8.2-2-12.3-.5-9.4-1.2-18.8-.8-28.2.9-24.5 2.4-49 3.4-73.5.7-17.9 1.2-35.9 1.5-53.8.1-7.8-.3-15.7-.7-23.5-.6-12.1-1.4-24.2-1.8-36.3-.2-4.7.3-9.4.6-14.1.5-8.2 1-16.3 1.8-24.4.2-2.2 1.6-4.2 2.5-6.3.5-.1 1 .1 1.6.2zM468 365.3c-9.7-30.6-3.1-61 1.6-91.5.5 0 1.1-.1 1.6-.1.2 2.5.8 5 .4 7.4-3.3 18.5-6.3 37-5.4 55.9.4 7.9 2 15.7 3.1 23.6.2 1.6.4 3.1.6 4.7H468zM448 229.8c-.4-.9-1.1-1.9-1.1-2.8.3-13.7.6-27.3 1.1-41 .3-7.3 1-14.5 1.7-21.8.1-1.4.5-2.8 1-4.1.4-.9 1.4-1.6 2.1-2.4.3 1 .8 2.1.7 3.1-.5 5.2-1.4 10.4-1.7 15.6-.7 16.6-1.2 33.2-1.8 49.8 0 1.2-.5 2.3-.8 3.4-.3.1-.7.2-1.2.2z"/>
  <path d="M475.9 350.4c4.1-11.2-1.8-23.2.9-34.5.6 0 1.1-.1 1.7-.1.5 4.5 1.3 9.1 1.3 13.6.1 6.7-.1 13.4-.8 20-.2 2-2.7 3.7-4.3 5.8-7.3-9.6-8.6-29.9-3.2-35.1.5 9.8 1 19.9 1.4 30.1 1.1.1 2.1.1 3 .2zM50.4 351c-5.1-4.7-9.2-10.5-10.6-17.3-3.3-16.4-6.3-33-8.6-49.6-1.1-8.2-.6-16.7-.2-25 .7-12.9 1.9-25.7 3.2-38.5.2-1.8 1.7-3.4 3.3-4.6-.9 9.9-2.3 19.7-2.6 29.6-.4 10.1.1 20.3.5 30.5.3 8.1.3 16.4 1.7 24.3 2.1 12.7 5 25.3 8.2 37.8 1.1 4.3 4.2 8.1 6.4 12.1-.4.2-.8.4-1.3.7zM48.8 128c-1.1 3.7-2.2 7.3-3.5 11.8-1.7-6.7.2-12.5 4.9-17.3 11.1 11.6 11.7 103 5.1 111.8.7-35.8 3.1-71.2-5.1-106.1-.4 0-.9-.1-1.4-.2zM67.2 221.6c.8-40-3.5-79.3-11.1-119.2.2.1 2.5.4 2.7 1.2 1.8 6.9 3.5 13.9 4.6 20.9 1.9 12.3 3.8 24.6 4.7 37 1.3 17.5 1.7 35.2 2.3 52.7.1 2.4-1 4.9-1.5 7.3-.6 0-1.2.1-1.7.1zM99.2 342.8c-.4.7-.7 1.5-1.1 2.2-5.8-1-11.7-1.6-17.3-3-3.9-1-3.9-9.9-.5-13 1.4-1.2 2.3-3 3.7-4.2 1.9-1.6 3.6-4 6.9-2 2.1 1.3 4.8 1.3 7.1 2.4 1.1.5 1.6 2.1 2.4 3.2-1.4 1.1-2.8 2.2-4.2 3.4l-1.5-1.2.2.2c-.5-.4-.9-.8-1.4-1.1-.3.7-.6 1.3-.9 2v1.4c0 .7-.1 1.5-.1 2.2l.1-.2v2.4l-.2-.2c.3.7.7 1.5 1 2.2 1.5.8 3 1.6 4.4 2.4.6.3 1 .6 1.4.9zM43.3 371.3c-1.6-.7-4-.9-4.6-2.1-3.5-6.7-7.5-13.3-9.4-20.4-1.5-5.4-.1-11.6 1.1-17.6 1.3 14.2 2.7 28 12.9 40.1z"/>
  <path d="M103.6 328.5h-2.2 2.2z" fill="#fff"/>
  <path d="M215.6 329.4c.2-2.3.4-4.6.5-6.9 0-14 1.2-28.1-.3-41.9-1.8-16.9-6-33.6-8.6-50.4-1.6-10.4-2.4-20.9-3.3-31.3-.2-2 .8-4.1 1.9-6 .3 19.7 5.7 38.4 9.1 57.4 2.2 12 2.6 24.4 4.7 36.4 2 11.8.4 23.5-.3 35.2-.2 2.7-1.2 5.3-1.8 7.9-.6-.1-1.2-.3-1.9-.4zM324.9 358.8c-1.1-19.4-2.2-38.7-3.3-58.1.7-.1 1.5-.3 2.2-.4.5 1.2 1.3 2.3 1.3 3.5.4 10.6.7 21.1 1.1 31.7.2 6.2.7 12.3 1 18.5.1 1.6-.4 3.2-.7 4.9-.5 0-1 0-1.6-.1zM231.2 302c.4 2.6 1.1 5.2 1 7.8-.2 13 4.3 26.3-1.9 38.9-2.2 4.5-5.3 8.5-8.1 12.8-.6-.4-1.3-.9-1.9-1.3 1.9-3.1 4.3-5.9 5.5-9.2 1.9-5.2 4.1-10.6 4.3-15.9.4-9.3-.5-18.6-.8-27.9-.1-1.7 0-3.4 0-5.1.6-.1 1.3-.1 1.9-.1zM206.1 318.5v7.6c0 7.2.5 7.6 7.8 7.9-1.8.8-4.2 2.9-5.2 2.3-2.4-1.3-4.7-3.5-6-6-2.1-3.9-1-7.4 3.4-11.8zM137.2 451.5c1.2-1.4 1.6-2.5 2.3-2.7 21.3-4.8 42.5-9.9 63.8-14.2 17.9-3.6 36-6.4 54-9.5 9.3-1.6 18.7-3.2 28-4.4 7.2-.9 14.6-1 21.8-2 11.8-1.7 23.4-4 35.2-5.8 8.5-1.3 17-2 25.6-2.1-76.8 12.1-154 21.4-230.7 40.7zM289.3 409.9c-7.2.8-14.4 1.5-21.5 2.6-7.5 1.2-14.9 3-22.3 4.2-16.2 2.7-32.5 5.1-48.7 7.9-13.9 2.4-27.8 5.1-41.6 7.9-11.5 2.3-23.1 4.6-34.4 7.5-13.5 3.4-26.8 7.4-40.2 11.2-2 .5-4 .9-6 1.3-.1-.5-.2-.9-.4-1.4 5.7-1.9 11.2-4.1 17-5.6 20.8-5.2 41.6-10.2 62.5-15 12.6-2.9 25.2-5.2 37.9-7.6 9.9-1.8 19.8-3.4 29.7-5 20.1-3.2 40.2-6.5 60.4-9.5 2.4-.4 5 1 7.6 1.5 0 .1 0 0 0 0zM476.1 413c-62.3 8.3-124.5 16.7-186.8 25-.1-.4-.1-.9-.2-1.3 61.8-11.3 124.4-17.9 186.7-25.9.1.7.2 1.5.3 2.2zM246.5 409.4c-60.7 10.7-121.8 19.1-180.8 37.9 58.6-20.6 119.4-30.8 180.8-37.9zM290.3 446.6c46.5-11.1 93.9-16.9 141.2-23.4.1.8.2 1.5.4 2.3-47.2 7.1-94.4 14.1-141.6 21.1zM25.8 453.2c35.4-13.6 71-26.4 108.7-32.2-37.2 7.8-72.6 21.2-108.7 32.2zM474 420.2c-13.2 1.8-25.2 3.4-38.3 5.1.8-1.2 1.3-2.9 2.1-3 11.5-1.2 23-2.1 34.5-3.1.1 0 .3.2 1.7 1zM287.2 439.4c-9.5 1.9-18.2 3.6-27.2 5.4 1.9-4.1 23.7-8.7 27.2-5.4zM496.6 449.2c-.6-.9-1.1-1.8-1.8-3 25.5-2.9 50.5-5.8 75.6-8.7.1.8.2 1.7.4 2.5l-32.1 3.9c0 .3.1.6.1 1h17.7c0 .6 0 1.1.1 1.7-6.3.5-12.5 1.1-18.8 1.3-.8 0-1.6-2.3-2.5-3.7-6.9.9-14.7 2-22.6 3-5.4.7-10.8 1.3-16.1 2-.1-.1 0 0 0 0zM92.6 333v-1.4c.7-.3 1.5-.6 2.2-.8l-.2-.2c.4.8.8 1.6 1.3 2.4l-.1-.2 1.2 2.4-.1-.2c.8.7 1.5 1.5 2.3 2.2.7 1.1 1.5 2.2 2.2 3.4l-2.2 2.2c-.4-.3-.8-.7-1.2-1l.2-.2c0-.7-.1-1.5-.1-2.2l.2.2-1.3-1.3.2.2-1.3-1.3.2.2h-2.4l.2-.2h-1.3l.2.2V335l-.1.2c-.1-.7-.1-1.5-.1-2.2z"/>
  <path d="M99.2 337.3c-.8-.7-1.5-1.5-2.3-2.2.8.7 1.5 1.4 2.3 2.2zM96 333c-.4-.8-.8-1.6-1.3-2.4l1.5 1.2c0 .4-.1.8-.2 1.2z" fill="#fff"/>
  <path d="m97.1 335.2-1.2-2.4c.3.8.8 1.6 1.2 2.4z" fill="#fff"/>
  <path d="M98 341.8c-1.5-.8-3-1.6-4.4-2.4.1-.7.2-1.5.2-2.2l-.2.2H96l-.2-.2 1.3 1.3-.2-.2 1.3 1.3-.2-.2c0 .7.1 1.5.1 2.2l-.1.2z"/>
  <path d="M94.9 330.8c-.7.3-1.5.6-2.2.8.3-.7.6-1.3.9-2 .4.4.9.8 1.3 1.2zM92.6 333c0 .7-.1 1.5-.1 2.2.1-.7.1-1.5.1-2.2zM93.8 337.2c-.1.7-.2 1.5-.2 2.2-.3-.7-.7-1.5-1-2.2.3.1.8.1 1.2 0zM92.7 335v2.4-2.4zM98.2 341.7c0-.7-.1-1.5-.1-2.2 0 .7 0 1.4.1 2.2zM96 337.4h-2.4H96z" fill="#fff"/>
  <path d="m98.2 339.6-1.3-1.3c.4.5.9.9 1.3 1.3z" fill="#fff"/>
  <path d="m97.1 338.5-1.3-1.3c.4.5.9.9 1.3 1.3z" fill="#fff"/>
  <text transform="matrix(.9993 -.03783 .03783 .9993 31.085 49.218)" fill="#fff" font-family="BaskervilleT-Bold" font-size="35" letter-spacing="4">PEANUTS</text>
</svg>
