<svg xmlns="http://www.w3.org/2000/svg" viewBox="0 0 595.3 464" xml:space="preserve">
  <path fill="#fff" d="M0 0h595.3v462.8H0z"/>
  <path d="M595.1 3.4v81c-.6 9.8-1.6 19.6-1.7 29.4-.1 13.8.6 27.6.5 41.3 0 12.9-.8 25.8-.9 38.8-.1 16 .3 32.1.1 48.1-.2 17.9-1 35.8-1.1 53.6-.1 12.5.8 24.9.9 37.4.1 22.8-.1 45.5-.2 68.3-.1 18.4-.3 36.8-.2 55.2 0 4.6-1.5 6.6-6.3 6.4-13.1-.3-26.2-.2-39.4-.2l-537.6-.3c-2.6 0-5.2-.4-8.1-.7v-52.3c0-46.6 0-93.1.1-139.7 0-16.9.5-33.8.5-50.7 0-25.1-.5-50.2-.5-75.4 0-19.9.4-39.8.6-59.7.1-15.3-.1-30.7.2-46C2.1 26.1-.4 13.9 3.1 2c.1-.4-1.3-1.2-2-1.9h43.8c.7.2 1.5.7 2.2.7l127.4.3c129.4.3 258.8.5 388.1.9 10.9 0 21.7.9 32.5 1.4zM203.9 251.5c5.1 12.9 9.8 24.6 14.3 35.8 3.2-.9 6.6-3.2 9.2-2.4 6.7 1.9 10.6-2 14.3-5.9 2.8-2.9 4-3.1 5.6.7 2.1 5.1 4.3 10.1 6.8 15 1.4 2.8 2.7 5 7.2 2.2 6.3-3.9 13.7-6.2 20.7-9 .8-.3 2.4.8 3.1.4 2.9-1.8 8 1.8 9.3-4 2.1-9.2 4.5-18.3 6.6-27.4.4-1.6.3-3.7-.5-5-5.7-9.4 2.3-25.1 13.5-28.9-2.1-1.4-4.4-2.6-6.9-3.1-8.2-1.6-16.9-1.9-24.6-4.8-10.5-4-21.1-8.9-26.3-20.1-1.7-3.6-2.1-7.8-3.1-11.7-6.6 7.5-1.4 13.5 3.1 20.1-3.5-.6-6.2-1.5-7.9-3.3-4.2-4.7-2.9-12.5 2.4-18.6 3.1-3.5 6.7-6.8 9-10.8 2.5-4.2-.6-9.8-4.8-10-7.7-.4-19.7-13.2-19.4-21 .4-13.4 10.7-24.6 25.1-24.5 1.5 0 3.5-.7 4.3-1.8 6.5-8.7 14.8-15.2 24.4-20.1 1.2-.6 2.1-1.6 3.2-2.5-2-1-3.5-.4-4.5-.8-11.6-5.2-24.3-8.1-34.3-16.8-7.2-6.3-13.6-13.6-13.2-23.4.4-10 5.8-18.5 12.9-25.7 4.5-4.5 8.6-9.5 13.5-14.9H208c2.7 2.3 5.1 3.4 6.1 5.3 4.7 8.2 10.1 16.3 13.4 25.1 6.1 16.2.7 30-13.4 40.4-14.2 10.5-30.7 14.5-47.3 18.2-12.7 2.9-25.9 3.3-38.7 5.9-16.1 3.2-32.1 2.2-48.2 1.1-1.8-.1-4.8 1.9-5.3 3.5-1.3 4.4-1.6 9.1-2.3 13.7-.4 2.3-.9 4.5-1.4 7.2-2.3-1.7-3.7-3-5.3-3.7-10.8-5.2-14.7-12.6-12.9-24.5.2-1.2-1-3.6-2-3.9-10.5-2.7-19.4-8-27.8-14.8-5.5-4.4-8.5-10.2-9.4-16.2-2.6-17.5 7.1-30.2 18.9-41.3 6-5.6 12.6-10.5 19.7-16.4H16c-3.4 0-5.5 1.6-5.9 5-.3 2.5-.1 5.2-.1 7.7l-.6 195.1c-.1 19.3.1 38.7 0 58 0 10.4-.4 20.7-.5 31.1-.1 8.8 0 17.5 0 26.3 0 7.3.3 14.6 0 21.9-.4 9.1-.2 9.5 8.4 9.3H20c14.1 0 28.1-.1 42.2 0 4.3 0 8.6 1 12.9 1 12.2 0 24.3-.3 36.5-.6 1.1 0 3.2-1 3.1-1.4-.5-4.7-1.3-9.4-2-14.1-4.6 1.2-6.2-.1-5.3-4.8 1.3-7 2.9-14 4-21 1.7-11 2.8-22 4.8-32.9 1.4-7.6 3.5-15.2 6-22.5 3.5-9.9 7.7-19.6 11.6-29.4-4.7-2.1-10.1-4.2-15.2-6.8-11.6-5.9-21.1-13.8-24.6-27.2-.4-1.4-2.7-2.9-4.3-3.2-6.5-1.2-12.1-6-12.9-11.8-1.2-7.8 2.1-14.8 8-17.9 1.3-.7 2.5-2.3 2.8-3.7.8-3.7.8-7.6 1.6-11.3 2.2-9.7 6.6-18.2 12.3-26.6 8.2-12.1 18.8-19.6 32.6-22.7 6.8-1.5 14-1.1 20.9-2.5 12.1-2.5 23.2 1.7 34 5.3 8 2.7 14.8 8.9 22 13.8 12.8 8.7 17.3 22.7 21.8 36.3 2.2 6.6 1 14.1 5.5 20.4 1.2 1.7.9 5.2.2 7.5-1.9 6-3.8 12.2-6.7 17.7-3.7 7-6.1 13.8-5.4 21.9.6 6.9.2 13.9.1 20.9-.1 4.1-2.1 5.4-6.4 4.8-5.2-.8-10.4-.6-16.2-.9zM116.1 367c-5.7.7-10.4 1.7-15.2 1.7-16.2.3-32.3.1-48.5.3-12.7.1-25.4.8-38 .8-4.9 0-5.9 1.8-5.7 6.1.5 13.8 1 27.6 1 41.4 0 11.2-.5 22.5-1 33.7-.2 4.5 1.5 5.6 5.8 5.3 9.1-.6 18.5-1.9 27.3-.6 8.1 1.2 15.9-.2 23.9.5 5.4.5 11-.1 16.5 0 5.2.1 10.4 1 15.6.8 14.4-.3 28.8-1.3 43.3-1.3 28-.1 56.1.2 84.1.2 8.1 0 16.3-.8 24.4-.7 11 .1 22.1.8 33.1 1 12.4.2 24.9.1 37.3 0 21.7-.1 43.5-.3 65.2-.5 17.7-.2 35.4-.4 53.1-.5 11.4-.1 22.7.1 34.1-.1 6.6-.1 13.2-1 19.8-.9 8.1 0 16.3.8 24.4.9 9 .1 18.1-.5 27.2-.5 4.8 0 9.6.8 14.5.9 7.9.1 15.8.1 23.7-.1 1.2 0 3.1-1 3.3-1.9.8-2.5 1.2-5.3 1.1-7.9-.2-13.8-.8-27.6-.9-41.5-.2-13.2 0-26.5 0-39.7 0-1.7-.2-3.5-.2-5.5h-49.6c-3.5 0-7 .2-10.5 0-3.8-.2-6.7.2-6.1 5.4 3.9-.3 4.6 1.8 3.1 5 3.7 1.2 7.2 2.4 11.9 4-2.5 1.3-4 2-6.2 3.2 6.2-.8 11.7-2.3 17.1-1.9 4.6.3 9.1 2.8 14.7 4.7 2.9-.5 7.1-1.2 11.3-1.8.2.5.5 1 .7 1.6-1.1 1.2-2.2 3.2-3.4 3.3-7.4.5-14.7.4-22.1.7-2.6.1-5.2.8-8.5 1.3 1.1 1.3 1.3 1.8 1.5 1.8 7-.6 13.9-1.5 20.9-1.8 1.6-.1 3.4 1.9 6.4 3.7 4.3.3 10.4.7 16.6 1.1-.9 7.1-5.4 5.9-9.3 5.8-7.8-.3-15.8-1.9-23.3-.7-6.2 1-10.3-.8-14.6-4.3-.8-.7-2.4-.8-3.6-.7-10.6.7-21.2 1.7-31.8 2.3-8 .5-16 1.1-24 .7-7.4-.4-15.2 3.6-22.3-1.6-.4-.3-1.1-.1-1.6 0-6.9 1.1-13.7 2.3-20.6 3.1-1.5.2-3.2-1.2-4.9-1.8.2-.3.4-.7.6-1-8.2 1-16.3 2-24.5 2.9-.1-.7-.2-1.5-.3-2.2 6.3-4.8 15-.1 21.2-5.5-9.7 1.4-19.4 2.7-30.2 4.3 1.3 6.1 2.3 11.1 3.6 16.1.3 1.1 1.9 2.5 2.8 2.5 5.6 0 11.2-.3 16.8-.6 9.6-.5 19.2-1.1 28.8-1.6.1.6.3 1.2.4 1.8-2 .8-4.1 1.6-6.1 2.4 7.5-.2 14.9-4.1 22.1 1.1.1.1.6-.5.9-.5 11.8-.1 23.5-.1 35.3-.3 3.4-.1 6.8-.9 10.1-.9 1.4 0 2.8 1.3 4.3 2.1-.2.4-.3.8-.5 1.2h33.4c.2.6.3 1.2.5 1.9-1.2.8-2.2 2.1-3.5 2.2-5.2.6-10.4.9-15.6 1.2-9.2.4-18.4.8-27.7 1.1-3.2.1-6.3-.2-9.5 0-16 1-32 2.3-48 3.1-3.7.2-7.5-2.2-11.1-1.9-10.9.9-21.7.7-32.6 4.9-14.3 5.4-29.7 8.5-45.4 8-11.3-.3-22.9-.7-29.5-11.2-6.3.6-11.9 1.5-17.6 1.5-7.2 0-14.5-.4-21.7-1.4-2.8-.4-6-2.2-7.7-4.4-1.6-2-1.4-5.3-1.9-7.7-9.7.9-19.8 1.9-30.2 3 .5 1 1 2.1 1.6 3.2 2.9 4.9 2.2 6.7-3.4 8.4-4.4 1.3-8.7 3.2-13.2 3.8-5.4.7-11 .8-16.4.5-5.5-.3-11.1-2-16 1.7-14 10.3-30.3 8.3-45.5 6.3-12.4-1.6-24.1-7.8-36.1-12.2-5.9-2.1-6.3-4.7-1.8-9.2.8-.8 2-1.2 2.5-2 .6-.9 1-2.3.8-3.3-.2-.8-1.5-1.9-2.2-1.9-4.6.4-9.2 1-13.9 1.5 0 .5.1 1 .1 1.5 4.2-.3 8.5-.6 12.7-.9.2.5.4 1.1.6 1.6-2.2 1.3-4.2 3.2-6.5 3.8-7.3 1.7-14.7 3.2-22.1 4.2-7.6 1.1-15.3 1.6-22.9 2.2-3.6.3-7.3.5-10.9.7-.1-.7-.2-1.4-.2-2.1 6.9-1.6 13.7-3.1 20.6-4.7-.1-.5-.3-1.1-.4-1.6-9.5 2.1-19.1 4.2-28.6 6.4-.1-.6-.2-1.1-.3-1.7.9-.4 1.8-1 2.8-1.3 9.7-2.2 19.4-4.8 29.2-6.5 11-1.9 22.2-2.9 33.2-4.6 2.7-.4 6.9-1.6 7.6-3.4 1.7-4.8 2.5-10.1 2.4-15.2-.1-7.4-1.2-14.9-1.9-22.3zM533.8 10c2.4 3 5.2 5.8 7.3 9 5.9 9.3 9.8 18.9 5 30.3-4.3 10.1-10.9 17.9-19.4 24.5-3 2.3-5.3 5.3-4.1 10.2 1 4 .5 8.4.3 12.6-.2 6.4-.9 12.7-1 19.1-.1 8.2.1 8.1 8 8.3 1.8 0 3.6.8 5.3.6 1.8-.2 3.6-1.2 5.3-1.8 1.9-.7 4.7-2.7 5.6-2 4.9 3.6.3 8.3.6 12.6.1 1.5-2.3 3.2-3.7 4.6-.3.3-1.6-.5-2.4-.7-6.1-1.2-12.2-2.3-18.8-3.5 0 5.6.1 10.6 0 15.7-.2 7.2-1 14.5-1 21.7 0 9.4.9 18.9.9 28.3 0 10.3-1.1 20.7-1.1 31 .1 17.2.9 34.4 1.1 51.6 0 5.3-1.4 10.5-1.6 15.8-.2 6.9.6 13.7.5 20.6-.3 12.1-.9 24.1-1.4 35.3h66.1v-7c0-48.8 0-97.5.1-146.3 0-15.2.7-30.4.7-45.5 0-13.3-.6-26.5-.6-39.8 0-11.3.7-22.5.8-33.8.2-11.1.2-22.3 0-33.4-.1-7-.9-14.1-1-21.1-.1-4.2 1-8.4.9-12.5-.1-1.4-2.2-3.9-3.5-4-16.2-.5-32.3-.4-48.9-.4zM420.9 98.7c3.3-.4 6.1-1 9-1.2 5-.2 10.1.5 14.9-.4 13.8-2.8 27.4-6.3 41.2-9.3 11.5-2.6 22-7.8 32-13.6 5.9-3.4 11-8.4 15.7-13.5 3.3-3.6 6-8.2 7.6-12.8 3.5-9.9-.1-19.2-5.6-27.2-2.9-4.3-7.5-9.1-12.2-10.2-7.3-1.7-15.3-.5-22.9-.5-15.5 0-31 0-46.5-.1-8.9-.1-17.7-.8-26.6-.8-13.4.1-26.9.7-40.3.8-10.6.1-21.2 0-31.9 0-14.5 0-29 .1-43.5 0-5.8-.1-11.5-.8-17.3-.9-3.9-.1-8 1.1-11.7.4-6-1.1-10.5-.2-14.3 4.9-3.5 4.7-7.1 9.6-11.5 13.6-5 4.6-8.3 9.9-9.4 16.4-1.3 8-.6 15.6 5.8 21.8 8.7 8.4 19 14.1 30.6 17.2 8.4 2.3 16.5 5 25.6.8 5.7-2.6 11.8-3.2 16-9.3 3.9-5.7 13.5-3 16 3.4.7 1.7 2.7 3 4.3 4 6 3.5 12.1 6.8 18.1 10.2 1.8 1 3.7 2.6 5.6 2.7 10 .9 20.1 2 30.2 2.1 8.8.1 12.5 1.9 14.3 9.4.3 1.2-.3 2.8.2 3.9 3.2 7.5 2.8 14.7-.8 22 9.8-9.4 9.8-21.2 7.4-33.8zm-45.9 2c4.5 8.3 9.8 16 13.1 24.6 4.7 12.1 9.7 24.3 8 38.2-1.3 11.2-4.7 21-12 29.4-2.1 2.3-2.7 7.4-8 4.9-.4-.2-1.4.4-1.8.9-4.5 5.3-10.3 6.7-16.9 6-4.1-.5-5.8 1.5-6.2 5.6 1.5.6 2.8 1 4.1 1.5 5.6 2.5 8.8 7.6 8.9 13 .1 3.2.5 6.7 1.8 9.6 2.9 6.6 6.6 12.9 9.5 19.5 6.9 15.6 13.8 31.3 20.2 47.1 4.4 10.9 8.3 21.9 11.7 33.1 1.7 5.7 4.7 11.9.5 17.8-2.3 3.3-4.9 6.9-8.2 8.9-7 4.1-6.1 10.2-5.8 16.3 8.3-1.2 16.3-2.4 25-3.6-.8 1.9-1.2 2.8-1.9 4.4 3.2-.6 5.8-.6 8-1.5 7.1-3.1 15.3-.5 22.5-5.9 4.8-3.6 3.3-6.5 3.9-10.3-14.7 2.7-42.6 1.8-46.8-2.7 16.4-.6 31.6-1.2 46.8-1.8-.3-2.6-.8-4.5-.8-6.4.1-15 .3-29.9.5-44.9.5-27.8 1-55.6 1.6-83.4.2-9.6.8-19.2 1-28.9.6-24.6 1.2-49.2 1.5-73.9.1-5.8-1.1-11.6-1.5-16.1-9.2.9-17.6 1.8-24.6 2.4-2.1 7.7-3.8 15.1-6.2 22.1-1 2.9-3.6 5.3-5.7 7.7-1.2 1.4-3.1 2.2-4.6 3.2-.6-2.2-2-4.5-1.7-6.5.9-7.2.9-14.3-1-21.3-1-3.5-2.7-6-7.2-5.9-4.1.1-8.3-.5-12.4-1-5-.5-10.2-1.4-15.3-2.1zm-312.1 0c-7.8 6.8-7.1 12.8 2.6 21.6.3-.4 1.1-.9 1-1.2-2.2-7.3 1.8-13.1 4.8-19 .7-1.3 2.8-2.7 4.2-2.6 6.1.2 12.1 1.4 18.2 1.5 7.5.1 15-.2 22.5-.7 9.2-.6 18.4-1.2 27.5-2.7 11.6-1.9 23.4-3.6 34.5-7.2 11.1-3.6 22.4-6.9 32.2-14 7.2-5.3 16-20.1 13.7-28.5-2.4-8.8-5.7-17.6-10.3-25.4-3.5-5.8-8.6-12-16.4-12.5-9.8-.7-19.7-.6-29.6-.6-10.2 0-20.4.3-30.7.4-9.4.1-18.7.1-28.1.1-6.1 0-12.2.3-18.3.1-4.7-.2-9.5-1.7-14-1-7.6 1.2-15.9-1-22.5 5.3-4 3.8-8.8 6.7-13.2 10C30.8 31.9 24 42.2 20.2 54c-1.7 5.3-2.1 11.4.9 17.1 6 11.5 16.7 16.1 28 19.7 5.8 1.9 12.1 2.2 13.8 9.9zm120.9 112.1c0 .2.1.4.1.6.7 0 1.4.1 2.2.1 11 0 21.9.1 32.9-.1 1.8 0 4.3-1.5 5.1-3 2-3.5 3.4-7.5 4.6-11.4 3.2-10.8 2.7-21.5.2-32.4-3.8-16.1-9.3-30.8-23.2-41.5-14-10.8-29.8-16.1-47-16.4-10.6-.2-21 2.6-31.3 6.3-20 7.3-27.9 23.2-32.3 42.1-1.2 5.2-1.3 10.6-2.1 15.9-.2 1.1-1.7 2.9-2.6 2.9-5.7.4-8 2.7-8.2 8.5-.2 6.8 1.6 9.4 7.4 9.3 4.8-.1 6.6 2.3 8 6.3 3.3 9.8 9.6 17 18.2 22.7 9.6 6.3 20.7 8.4 31.2 12.1 1.6.6 4.4-1 6-2.3 2.4-2 4.1-4.9 6.4-7.1 2-2 4-3.5 3-7-.3-1.2 2.2-3.3 3.6-4.7.5-.5 1.8-.1 2.7-.1.7 0 1.4-.2 3-.3-5-2.7-11.6 1.9-14.2-6 2.7-1.7 5.5-5 8.6-5.3 7.1-.7 14.4.7 21.5.1 4.8-.4 5.1 2.9 5.7 5.4.2.9-2.8 2.9-4.6 3.9-1.5.6-3.3.9-4.9 1.4zm303.8-7.9h2.5v148c.4 0 .9.1 1.3.1.5-2 1.4-4 1.4-6-.1-16-.4-32-.5-48.1-.1-8.6 0-17.2 0-25.9v-56.3c0-2.7 1-5.3.9-8-.5-13.4-1.9-26.7-1.8-40.1.2-12.3 2.1-24.6 3-36.9.9-12.8 1.5-25.6 1.9-38.4 0-.5-2.4-1.8-3.4-1.6-6.3 1.6-12.6 3.5-18.8 5.6-1.7.6-3.2 2-4.8 3.1 4 0 6.3.3 4.8 4.5-1.4 4 1.7 9.8-4.7 11.9-.4.1-.6 2.4-.1 3.1 3.4 4.9 1.3 9.9 1.1 15-.9 19.3-1.6 38.7-2 58-.3 16-.4 32.1-.2 48.1.4 41.4 1.1 82.9 1.6 124.3 0 2.5-.6 4.9-.9 7.4-.6-.1-1.2-.1-1.8-.2-.3-20.8-.8-41.5-1-62.3-.2-19.7-.2-39.4 0-59 .2-20.3 1.1-40.7.8-61-.3-20.6 2.6-41.2.8-61.8h-2.6c-.6 34.3-1.1 68.7-1.7 103-.8 0-1.7-.1-2.5-.1 1-44.2 2-88.3 3-132.3-2.4.6-6.7-.2-5.5 4.8 2.7 11.6 1.2 23.2.6 34.8-.5 11-.7 22-.7 33 0 9.8 1.2 19.7.8 29.5-.5 14.3-2.4 28.5-2.8 42.8-.4 12.5.5 25 .8 37.5.1 3.7.1 7.5-.1 11.2-.9 12.8-2.9 25.6-2.7 38.4.2 11.9-1.9 24 1.7 35.8.3 1-.5 2.3-.7 2.9 1.6 1 3.9 1.7 3.9 2.5 0 3.8 1.6 5.5 5.3 5.9 2.7.3 5.4 1.6 8.1 1.7 2.8.1 5.6-.8 9.4-1.3 0 0 1.3 1 2.7 1.2 1.6.2 3.3-.2 4.9-.5 7.1-1.4 16.1 3.9 20.7-6 5.3-.3 4.2-3.6 4.2-7.4.1-14.4.9-28.7 1.4-43.1.3-8.9.5-17.8.4-26.8-.2-17.1-.9-34.1-1-51.2 0-12.7.8-25.5 1-38.2.2-14.4 0-28.8.1-43.2.1-5.3.8-10.6.9-15.9.2-7.3 0-14.6.2-22 .2-8 .8-16 1-24 .1-6.1 0-12.1-.3-18.2 0-.9-1.1-1.8-2.3-3.6-.8 2.9-2.2 5.1-1.7 6.5 2.2 5.8 1.3 11.5 1 17.4-.6 15.5 0 31-.4 46.4-.6 23.6-2 47.1-2.6 70.7-.3 13.8.4 27.6.6 41.4 0 3-.6 6-.5 9 .1 12.9 1.4 25.9.1 38.7-1.1 10.4.7 20.8-2 31.3-2 8-.4 16.9-.4 25.3-1.9 1-3.2 1.6-4.8 2.5.3.9.7 1.5.8 2.1.4 3 1.5 6.4-4.1 4.5-1.4-.5-3.3 1.1-3.3-1.8-2 .7-4 1.4-6 2.2-1.6-1.9 2.1-8-4.4-6.5-.5 2-.9 3.8-1.3 5.5-.7-.1-1.3-.1-2-.2.3-5.7.5-11.5.8-17.4h-3.8v-11.9c-.2-12.1-.3-24.2-.7-36.4-.1-2-1-4-1.7-6-.8-2.4-2.2-4.7-2.5-7.1-.3-3.4.2-6.9.2-10.3.3-17.4.6-34.7.7-52.1.1-20.9 0-41.8 0-62.8.9 0 1.9-.1 2.8-.1 1.7 11.2-.3 22.7.3 34 .6 11.5-.2 23-.3 34.5-.1 11.9 0 23.9 0 35.2 0 0 1.1-.7 3.1-2v58.9c1.9-7.6 3.4-15.1 3.9-22.8.5-9.3.2-18.7.1-28 0-5.9-.3-11.7-.3-17.6 0-11.1.2-22.2.3-33.3 0-.9-.2-1.8-.2-2.7v-21.8zm-106.3-21.8c.3.4.6.8.9 1.1 1.3-.4 3.5-.4 3.7-1.1 2.1-7.5 5.8-15.1 5.3-22.5-.6-10.3-4.5-20.4-6.8-30.6-1-4.3-2.8-6.2-7.5-7.9-16.5-6.1-33.7-6.6-50.8-8.1-10.7-.9-21.6-2-32.4.7-1.9.5-4 0-6 .4-8.8 1.7-17.5 4.4-26.4 5.2-9.9.9-14.6 3.7-18.9 13-2.8 6 1.9 18.8 10.7 21 2.8-18.2 3.9-20.4 11.4-21.3-.8 1.5-1.5 2.7-2.3 4-.8 1.4-1.7 2.7-2.3 4.1-1.2 2.9 1 8.3 3.7 8.9 3 .6 6.9-.1 9 1.5 3.7 2.9 5.5.3 7.5-.6-2.6-3.1-5.3-6-7.6-9.3-.6-.9.1-2.8.2-4.3 1.4.1 3.1-.2 4 .5 2.8 2 5.7 4 7.8 6.6 4.4 5.5 9.8 6.6 17 5.2-4.2-2.6-8.1-4.7-11.6-7.3-1.4-1.1-2.1-3.2-3-4.9 2.1-.1 4.5-1 6.2-.2 3 1.3 5.6 3.5 8.3 5.3 4.3 3 10.2 4.4 13.7 3.2-5-3.1-9.9-6.1-14.8-9 3-5.1 5.3-3.7 8-1.5 5.7 4.6 12 7.5 20.3 7-2.5-2.8-4.6-5-6.4-7.4-.5-.7-.5-2.6-.1-2.9.8-.5 2.3-.7 3.2-.3 2.1.9 4.1 2.3 6.6 3.8-.9-3.8-6.3-5-2.9-9.4 2.9 2.3 5.3 5.6 8.3 6.3 3 .7 4.7 1.8 6.2 4.1 2.3 3.6 5.4 6.8 7 10.7 1.9 4.5 4.1 9.9 3.3 14.3-1.6 8.4-5.5 16.4-8.1 24.7-1.3 4-1.8 8.2-2.7 12.4.6.2 1.3.5 1.9.7 2.6-1.9 5.5-3.5 7.9-5.7 4.7-4.2 5.4-4.5 8.2-1.3-1.7 1.6-3.3 3.1-5.6 5.3 1.4 0 2.6.4 3.3-.1 6-3.6 11.1-8.1 14-14.6.4-.8 2-1.1 3.1-1.6.1 1.2.7 2.8.1 3.6-3.4 4.7-7 9.3-10.3 13.5 6.3 0 8.7-2.2 15.7-15.2zm-75.2 198.4c0-.2.2-1.8.5-3.4.3-1.6.7-3.1 1.2-4.6 2.3-6.6 2.1-7-4.6-9.1-1.9-.6-4.6-2-5.1-3.6-1.1-3.7-1.8-7.8-1.5-11.7.7-9.4 2.1-18.8 3.2-28.4-8.8 2-8.8 2-12.9-1.6-1.3 6.8-2.7 7.5-15.7 7.6 1.3 2.4 2.7 4.6 3.7 7 .4 1.1.4 3-.3 3.7-2.4 2.5-4.9 5.2-8 6.8-5.5 2.8-10.7 5.5-14 11.2-1.8 3-5 4.1-7.3-.1-1.2-2-2.5-4-3.4-6.1-3.6-8.1-7-16.2-10-23.1-4.2-.6-6.8-.9-9.9-1.4.7 4.1 2 8.4 2 12.7 0 3.4-1.4 6.8-2.4 10.1-.7 2.2-2.7 4.3-2.5 6.3.9 9.7 2.5 19.3 3.4 28.9.4 4.3-.1 8.7-.2 13v7.3c12.4-.6 24-1.1 35.5-1.6.2 0 .4 0 .5-.1 8.8-1 17.6-2.2 26.4-2.9 2-.2 4.7.7 6.2 2 3.8 3.4 14.4 4.6 18.5 2.1-1.4-4.8-2.9-9.2-4-13.8-.5-2.1-.3-3.4-3.4-3-6.4.7-12.9.6-19.3.7-1.1 0-2.3-.7-3.5-1.1.9-.8 1.8-2.2 2.8-2.4 3.8-.9 7.7-1.9 11.5-2.1 4.1-.1 8.2.5 12.6.7zm35-177c-4.1-9.7-1-17.9 2.9-26.2 3-6.3 6.6-12.7 4.8-20-1.1-4.3-3.3-11.3-5.8-11.6-6.9-1-14.3.8-21.4 1.7-3.4.5-6.7 1.7-10.1 2.6-1.9.5-3.8.8-5.7 1.3-3.7 1-7.4 2.9-11.1 2.9-5.4 0-10.6-.4-15.9 2.1-2.6 1.2-6.4 0-9.6-.1-1.8 0-3.6.1-5.5.2.1 1.8-.4 3.9.3 5.4 2.4 5.2 1.7 9.5-1.3 14.5-4.6 7.5-4.5 18.5 4.9 23 8.6 4.1 17.3 8 26.3 11 17.3 5.7 34.3 2.6 51-3.2.9-.3 1.4-1.7 2.6-3.3-2.9-.1-4.7-.2-6.4-.3zm-18 43.2c-.1.1-.6.4-.9.8-2.7 3.3-4.5 7.2-10.1 7.2-2.6 0-5.2 3.6-7.8 5.6 4 3 1 6.8.9 10.2-.3 16.4-.6 32.8-1.1 49.2-.2 6.3-.7 12.6-1.1 18.9-.3 4.5-1 9-1 13.4 0 3.5 1.3 6 5.8 6.1 3.7.1 7.3 1.3 11 2.2 8.7 2.2 17.4 4.5 26.9 7-.4-4-.9-6.9-1-9.9-.2-3.3-.6-6.7.1-9.8.9-4.2-2-6.5-4.3-6.9-6.8-1.3-7.2-5.3-5.7-10.5-7.7-3-9.2-7.6-3.2-13.1 5.8-5.4 7.9-10.3 6-18.3-2.7-11.4 2.4-23.2-.7-34.9-.8-2.8-1.3-5.7-1.8-8.6-.8-5.6-1.5-11.1-2.3-17.7-3.2 2.2-4.9 3.4-5.7 4 2.1 2.8 4.1 5.3 5.7 8.1.2.4-1.6 2-2.4 3.1-2.3-1.9-4.6-3.8-7.3-6.1zm13.9-4.3c1.4 7.4 3.7 14.5 4 21.6.2 7 2.3 13.8.7 21.2-1.5 6.8.2 14.4 1 21.5.2 2.2 1.4 5.6 4.8 1.2 1.7-2.3 5.5-3.1 8.2-4.8 1.7-1.1 4-2.4 4.5-4.1 1.2-3.5 2-7.4 1.9-11-.3-5.1-1.8-10.2-2.4-15.3-.4-3.2-.6-6.5-.2-9.6.2-1.6 1.9-3 3-4.5.7 1.7 1.7 3.3 1.9 5 1 8.1 1.8 16.1 2.7 24.8 5.1-5.3 10.4-7.3 19.6-.1-8.3-18-16.6-36.1-25.2-54.7-3.4 4.9-6.3 8.9-9.1 12.8-5.6-1.4-10.2-2.7-15.4-4zm-199.2 41.4c.6-.1 1.2-.3 1.8-.4 1-3 2.3-6 2.8-9.2.4-2.5.8-6.1-.5-7.6-3.5-4-7.9-7.1-12.8-11.2-2.3 9.6-4.6 18.4-6.6 27.2-1.1 4.9-1.7 9.9-2.2 14.8-1.3 13.4 7.4 22 18.3 26.5 5.1 2.1 11.1 3.3 16.5 2.8 7.8-.6 10.8-7.3 12.4-14.1 1.8-7.7 3.2-15.5 5.1-24.8-12.6 7.2-20.4.7-28.2-5.9-4.3 8.2-7 15.9-4.7 25 .7 2.7-1.5 6.3-2.8 9.2-.2.5-3.9.3-4.3-.4-2.1-4.2-4.4-8.5-5.3-13-.7-3.8-.7-8.6 1.2-11.8 2.6-4.6 4.7-8.6 2.9-13.8-.6-1.7-1.1-3.5-1-5.2.1-1.6 1.2-3.1 1.8-4.6.8 1.4 1.9 2.6 2.4 4.1 1.1 4.1 2.1 8.2 3.2 12.4zm250.3 43.7c-5.1 1-8.7 1.7-13.4 2.6-1 .9-3.1 2.6-5 4.3-1.5 1.4-3.3 2.7-4.3 4.4-2.7 4.5-5.8 7.1-11.4 5.1-3.4-1.2-5.4.2-5 3.9.5 5.8 1.2 11.6 1.8 17.6 7.4 0 13.8.4 20.1-.1 11.2-.8 21.3-4.7 30.2-11.4 2.2-1.7 4.7-5 4.5-7.4-.5-6.2-2.4-12.2-3.8-18.7-3.1 3.1-1.4 9.3-7.4 8.9 1.2-2.8 2.3-5.4 3.4-8-.5 0-1.1.1-1.6.1-.5-3.2-1-6.3-1.7-10.8-2.9 4.5-4.9 7.4-6.4 9.5zm-181.2-12.2c-.2.6-.4 1.2-.7 1.8-6 .6-12 1.2-17.9 1.8v1.8c9.2 2.3 18.5-2.4 29.5 0-5.7-19.5-11-37.4-16.3-55.6 1.4.2 2.6.4 4.6.8-1.2-2-1.9-3.2-2.6-4.4-4.5 2.3-5.4 10.2-11.7 7.5-4-1.7-7.2-5.5-12.2-9.7 1.2 8.2 1.9 14.9 3.3 21.6 1.6 7.7 5 15.3 5.5 23.1.7 10 .7 11 9.9 10 .3 0 .7-.5 1-.4 2.6.5 5.1 1.1 7.6 1.7zm-40.6-96.1c5 .4 9.4 1.3 11.3 7.1 1.8 5.5 4.7 10.8 7.3 16 .7 1.3 2.4 2.8 3.8 2.9 8.8.6 17.7.6 26.6 1.3 5.3.4 6.1-2.5 6.2-6.4.1-7.1 0-14.3 0-21.3-12.4-2.9-52.4-2.6-55.2.4zm12.9 60c-.5.1-1 .1-1.5.2-1.3 10.8-2 21.6-4 32.2-2.6 13.9-16.8 24.8-32.1 20-3-.9-5.9-2.9-8.9-3.1-6.9-.3-11.7-3.6-16.8-10.4-1.5 8.5-2.8 15.7-4 22.6 19.6 7.5 64.7-.3 76.7-7.4-2.8-.2-4.5-.7-6.1-.5-6.9 1.1-13.7 2.7-20.5 3.6-12.1 1.7-24.2 2.1-36.2-.6-7.3-1.6-9.2-3.6-9.7-7 7.9 1.6 16.2 4.6 24.5 4.7 13.1.1 26.2-1.8 39.2-3.1 1-.1 2.8-2.2 2.6-3.1-.6-3.4.5-9.6-6.6-5.6-.4.2-1.2-.3-1.9-.4-.2-.6-.3-1.1-.5-1.7 1.7-.7 3.3-1.8 5-2 6.9-1.1 7.5-1.4 6.5-8.1-1-6.9-2.7-13.6-4-20.4-.5-3.3-1.1-6.6-1.7-9.9zm.5-42.8c-4.2-4.1-7.2-4.5-10.7-2.3-2.3 1.4-5.2 3-7.2-1.5 2-1.1 3.9-2.2 5.7-3.2 1.8-.9 3.7-1.7 6.9-3.2-2.8-.9-4.2-1.7-5.6-1.7-5.2 0-13.5 8.2-13.5 13.6-.1 7.8.4 15.6 0 23.3-.2 4.7 1.8 7.5 5.4 9.2 3.3 1.5 7.3 3.5 10.5 2.8 6-1.3 8.1-9.6 1.4-16.5 3.2-1 5.9-1.8 10.4-3.2-2.5-1.4-4.1-2.2-5.7-3.1l-5.4-3c2.1-.7 4.2-1.4 6.3-1.9.5-.1 1.2.3 2.1.6.8-6.5-3.5-4.4-6.1-3.9-5.8 1.2-6.6.8-6.3-4.4 3.5-.4 6.9-.9 11.8-1.6zm209.2 131.8c-1.9.9-3.9 2.3-6.1 2.7-5.5 1-11.1 1.3-16.5 2.5-1.8.4-4.4 2.7-4.5 4.3-.4 5.7-.1 11.6.3 17.3.1 1.5 1.7 4.2 2.7 4.2 8.2.2 16.4-.2 24-.4.1-11.1.1-20.7.1-30.6zm-273.3 50.1c.2.5.4.9.6 1.4 2 .5 4.1 1.1 6.1 1.6 12.7 3.4 25.3 7.2 38 10.1 11.5 2.7 22.7-.2 33.7-3.8 1.2-.4 2.9-2.5 2.7-3.5-.3-1.4-1.9-3.4-3.2-3.7-10.8-2.2-21.7-4.6-32.2 1.7-1.6 1-4.9 1-6.4 0-2-1.3-2.7-.9-4.5 0-1.7.9-5.5 1.2-5.7.7-2.1-5.7-4.8-.7-7-.4-2.3-7.7-10.4-4.4-14.8-8.2-.8-.5-4.8 2.7-7.3 4.1zm245.7-79.2c-1.6-5.7.6-8.5 5.6-9.9 1.8-.5 3.3-2.1 4.8-3.4 3.5-3 3.2-8.1-.5-10.8-1.1-.8-2.5-1.5-3.4-2.6-3.4-4.6-7.4-4.5-12.2-2.3-4.2 2-8.4 4-12.9 4.9-5.6 1.1-8.4 3.1-9.3 8.9 5 .2 7.5-9.7 14.2-4.1-2.1 2.7-3.8 4.8-5.3 7-1.2 1.8-2.5 3.8-3 5.9-.2.8 1.3 2.1 2.1 3.2.7-.7 1.5-1.4 2.2-2.2 2.1-2.3 4.2-4.6 6.4-6.9.5.3 1 .7 1.4 1-1.8 3.5-3.7 7-5.7 10.9 1.4.6 2.7 1.1 3.9 1.7 2.5-3.7 4.6-6.9 6.8-10.2.5.3 1.1.6 1.6.9-.8 2.5-1.6 5.1-2.6 8h5.9zm-23 33.6c-8-.6-16.3-1.2-25.7-1.9-.6 4.2-1.1 9.1-1.9 13.9-.5 3.5 1.2 5.3 4.3 5.4 7.6.2 15.3.1 21.9.1.4-6.1.9-11.7 1.4-17.5zm-122-50.6c-9.4 4.7-20.1-.9-29.3 3.6 2.2 6.1 6.6 6.6 11.5 5.6-.2 1.7-.4 2.8-.6 4.2h5.7c-5.1 3-9 5.3-12.8 7.5 9.1 1.6 15.2-6 23.2-7.8.3.6.5 1.1.8 1.7-6.8 3.6-13.6 7.3-20.4 10.9.2.5.5 1 .7 1.5 7.5-1.9 15-3.6 22.3-5.8 1.1-.3 2.4-2.8 2.2-4.1-.7-5.8-2.1-11.5-3.3-17.3zm49.1 11.7c-4.4-2.3-9.5-3.9-5.1-9.8.3-.4-.3-1.3-.3-2-1-9.2-8.8-15.5-10-24.9-.6-4.6-4.4-8.7-6.7-13.1-.5.1-1 .1-1.6.2.2 2.7.4 5.4.7 8.1.2 2 .6 3.9.5 5.9-.2 5.1-.8 10.2-1 15.3-.1 1.7-.2 4 .8 5.2 4.2 5.1 8.7 9.9 13.3 14.6 2.3 2.3 5.2 4.5 9.4.5zM248.6 352c3.5-3.2 7.3-6.8 10.5-9.8-2.3-2.3-4.8-4.7-7.3-7.2-3.2-3.2-6.3-6.6-9.5-9.8-2.7-2.7-5.8-4.9-4.1-9.9 1.1-3.1.2-6.9.2-10.8-7.3 2.7-9.4 8.4-6.3 14.7 5.5 10.8 11 21.8 16.5 32.8zm-50.4 64.1c-.2.7-.5 1.4-.7 2.1 3.4 1.7 6.7 4 10.3 5.1 3.3 1 7 1.4 10.4 1.2 6.9-.4 13.7-1.3 20.6-2.2 1-.1 2.7-1.5 2.6-2-.2-1.2-1.1-2.8-2.1-3.3-7.3-3.2-14.7-6.5-22.9-2.3-2.3 1.2-5 1.9-7.5 2.6-1.1.3-3.1.3-3.3-.2-2.2-4.9-4.9-.6-7.4-1zm79-102.5c.6.3 1.2.5 1.8.8-.3 1.5-.6 2.9-.7 4.4-.1 1.3 0 2.7 0 4.1.6.2 1.1.3 1.7.5.8-1 2.2-2 2.2-3 0-3.6 1.4-5.3 5-6.6 3.6-1.2 4-6.4 2-9.9-3.8-6.4-8.9-9.1-14.7-7.2-1.7 3-2.9 4.8-3.7 6.7-.6 1.4-.7 3-1 4.5 4.3-2.8 7.9-5.1 11.5-7.4.4.5.8 1 1.2 1.4-.4.8-.7 2.2-1.3 2.3-7.5 1.5-6.4 9.6-10.4 13.7-.6.6.3 2.5.4 3.8.9-.8 1.9-1.5 2.5-2.4 1.2-1.9 2.3-3.8 3.5-5.7zm40.1-90.8c2.7 3.4 5 7.2 8.3 9.9 1.5 1.3 5.8 1.4 7.2.2 4.4-3.9 8.1-8.6 11.8-13.2.9-1.2.8-3.2 1.1-4.4-9.5 2.5-18.5 4.8-28.4 7.5zm-4.6 6.6c-6.4 3.5-10.1 10.1-9.1 16.8.8 5.5 4.2 7 8.5 3.6 3.3-2.7 6.6-5.4 9.3-8.5.8-.9.2-4-.8-5.1-2.1-2.5-4.9-4.3-7.9-6.8zm39.3-11.7c-4.6 6.1-8.4 11.1-12.2 16.2 2.2 1.7 4.6 3.8 7.3 5.5 1.1.7 3.8 1.1 4 .6 3.2-5.3 7.5-10.1 5.9-17.4-1-4.4-2.6-5.5-5-4.9zm26.6 87.2c2.9 6 5.3 10.9 7.7 15.9 5.1-8.9 5.5-8.9 3.4-17.4-.9-3.5-3.8-6.5-5.7-9.8-3.7-6.2-11.3-6.4-16 0 9-1 14.4 4.8 20.2 10-1.3 1.6-2.3 2.9-3.3 4.1-2.2-1-4-1.8-6.3-2.8zm-228.9-36.5c-2.5 4.3-2.7 7.6-.5 10.5 5 6.7 12.1 9 20 7.6 2.1-.4 3.5-4.1 6.1-7.4-11.4.4-20.3-1.1-25.6-10.7zm244.7 144.1c-1.3-7.3-4.4-10.4-11.1-7.7-1.4.6-3.2.1-4.9.1-3.1 0-6.2-.2-9.3.1-1.3.2-2.5 1.5-3.8 2.4 1 1 1.9 2.5 3.1 2.9 3.2 1 6.5 1.9 9.9 2.1 5.4.3 10.7.1 16.1.1zm-35.7-8.4c-.5-6.1-.9-11.2-1.4-16.6h-14.2c.4 3.1 1.1 6.9 1.4 10.8.3 2.9 1.4 3.9 4.3 3 2.3-.7 4.9-2.3 5.9 1.9.1.4 2.2.5 4 .9zm-16.3.1c-1.6-3.2-3.1-6.2-4.5-8.8-4.7.7-8.7 1.5-12.8 1.8-4 .3-8.1.1-12 .1 1.5 5.9 15.3 9.4 29.3 6.9zM122 350.9c-4.3-1.5-6.3.5-4.8 6.8 2.2 9.1 4.8 18.2 7.3 27.6 8.6-5.4 17.6-10.3 22.2-21.4-5.7 5.2-10.5 9.7-15.5 14.1-1.4 1.2-3.3 1.7-5 2.6-.5-1.5-1.1-2.9-1.4-4.4-.8-4.3-1.6-8.7-2.2-13.1-.4-3.8-.4-7.6-.6-12.2zm208.2-248.4c-16.7-5-16.1-4.2-25.6 6.6 5.7-.8 10.3-2.4 14.8-2 7.8.9 9.4.7 10.8-4.6zm-98.7 188.4c-8.5 3.9-11.4 16.7-4.5 21.9v-11.6c3.2-1.3 10.8 3.8 11.6-6-3.8.5-6.7.9-10.4 1.4 1.2-2 1.9-3.3 3.3-5.7zm-80.1-35.2c-4.3-2.7-8.2-5.2-12.2-7.6-1.2-.7-2.7-1-4.1-1.5-.3 1.8-1.5 4.3-.7 5.3 2.9 3.8 6.4 7.1 9.6 10.4 3-2.7 4.8-4.3 7.4-6.6zm33.1-.6c4.3 3.9 7.6 6.8 10.8 9.8 1.4-2.9 3.3-5.8 4.2-8.9 1.1-3.9-1.6-4.9-4.8-4.2-2.8.6-5.5 1.8-10.2 3.3zm99.7-143.6c9.4-1 17.9-2.5 23.7-11.8-9.1 2.3-18.7 1.7-23.7 11.8zm70.7 273.4c4-3.4 3.1-7.5 3.8-11-3.7-.7-7.5-2-11.2-1.9-4.7.1-5.8 3.3-4.5 7.8 3.8-.9 7.3-1.8 11.1-2.7.3 3 .5 4.9.8 7.8zM340.1 94c-4.5-4.7-14-4-21 1.8 5.2 1.4 9.8 3.3 14.5 3.5 2.1 0 4.4-3.5 6.5-5.3zm154.6 116.8h2.1v-45.5c-.5.2-2 .4-2 .7-.1 15-.1 29.9-.1 44.8zM365.8 422.2c0-.7 0-1.4.1-2-8.9-4.4-18.1-5.1-27.6-2.8-.1.7-.1 1.4-.2 2.1 9.2.9 18.5 1.8 27.7 2.7zm-178.9-82.4c-14.1 2.9-29.4 6.1-44 9.1 5.4 3.5 39.4-3.7 44-9.1zm104.4 70.9c7.8 1.2 15.5 2.4 23.3 3.6.1-.5.2-1 .2-1.6-5.5-4.6-17.4-6.2-23.5-2zm59.3-305.4c1.5-5.1.5-9.3-4.4-9.9-2.6-.3-5.6 2.6-8.3 4 .2.5.4 1.1.5 1.6 3.9 1.4 7.9 2.8 12.2 4.3zM164.1 351.9c7.2.3 14.7 2 21.7-5.1-8.7-1.6-14.9 3.4-21.7 5.1zM317.9 91.2c-8.4-.2-16.4 2.4-18.2 6.1 10.9.5 14-.5 18.2-6.1zm82.3 323.4c-8.8 1-17.7 2.1-26.5 3.1 9.3 4.9 17.8-.2 26.5-3.1zm-104.5-97.8c4-1.9 4-2.6-.2-14.7-2.1-6-3.9-7.6-7.2-6.8 4.2 6.4 9 12.8 7.4 21.5zm35.7-208.2c5.8.3 10.8.6 15.8.9v-2.2c-5 1.9-10-8.5-15.8 1.3zm75.2 304.3c0 .6 0 1.1.1 1.7 7.9-.7 15.9-1.3 23.8-2 0-.6-.1-1.2-.1-1.9-7.9.8-15.9 1.5-23.8 2.2zm88.3-168.3h1v-27.2h-1v27.2zM283.5 105.5c-4.3 2.3-7.7 4.1-11.5 6.2 5.9 3.2 7.9 2.1 11.5-6.2zm196.5 311v-1.1h-19.1v1.1H480zm-183 3.2c-5.1-1.9-10.3-3.9-15.4-5.8-.2.5-.4 1-.6 1.4 4.3 4 10.1 4.3 16 4.4zm-75-128.6c-7 1.5-7.7 2.9-5.3 10.3 1.8-3.5 3.4-6.7 5.3-10.3zm155.5-176.3c-2.6-3.4-4.6-6.1-6.7-8.8-.4.2-.8.4-1.1.6.6 2.6 1.2 5.3 1.9 8.2h5.9zm101.9 185.9c.6 0 1.2 0 1.8.1v-20.7h-.9c-.3 6.8-.6 13.7-.9 20.6zm-330-51.6c.3-6.3-.4-6.8-9.6-6.7 3.3 2.4 6.1 4.3 9.6 6.7z"/>
  <path d="M1.1.1c.7.6 2.1 1.5 2 1.9-3.5 12-1 24.1-1.2 36.2-.3 15.3-.1 30.7-.2 46-.1 19.9-.6 39.8-.6 59.7 0 25.1.4 50.2.5 75.4 0 16.9-.5 33.8-.5 50.7C1 316.5 1 363.1 1 409.7V462c2.9.2 5.5.6 8.1.7l537.6.3c13.1 0 26.2-.1 39.4.2 4.9.1 6.4-1.9 6.3-6.4 0-18.4.2-36.8.2-55.2.1-22.8.3-45.5.2-68.3 0-12.5-.9-24.9-.9-37.4.1-17.9.9-35.8 1.1-53.6.2-16-.2-32.1-.1-48.1.1-12.9.8-25.8.9-38.8 0-13.8-.7-27.6-.5-41.3.1-9.8 1.1-19.6 1.7-29.4v379.6H-.1C0 311 0 158 0 5 0 3.4.7 1.8 1.1.1zM595.1 3.4c-10.8-.5-21.6-1.4-32.4-1.5-129.4-.3-258.8-.6-388.2-.8L47.1.8c-.7 0-1.5-.4-2.2-.7h545.9c2.1 0 5.3-1.1 4.3 3.3z" fill="#fff"/>
  <path d="M203.9 251.5c5.7.3 11 .1 16.1.9 4.3.7 6.3-.6 6.4-4.8.1-7 .6-14-.1-20.9-.8-8.1 1.7-14.9 5.4-21.9 2.9-5.5 4.8-11.7 6.7-17.7.7-2.3 1.1-5.8-.2-7.5-4.5-6.3-3.3-13.8-5.5-20.4-4.5-13.6-9-27.6-21.8-36.3-7.2-4.9-14-11.1-22-13.8-10.8-3.6-21.9-7.8-34-5.3-6.8 1.4-14.1 1-20.9 2.5-13.8 3.1-24.4 10.6-32.6 22.7-5.7 8.4-10.1 16.9-12.3 26.6-.8 3.7-.8 7.6-1.6 11.3-.3 1.4-1.6 3-2.8 3.7-5.9 3.1-9.1 10.1-8 17.9.9 5.8 6.4 10.6 12.9 11.8 1.6.3 4 1.8 4.3 3.2 3.5 13.4 13 21.3 24.6 27.2 5.1 2.6 10.5 4.7 15.2 6.8-3.9 9.8-8.1 19.5-11.6 29.4-2.6 7.3-4.6 14.9-6 22.5-2 10.9-3.1 22-4.8 32.9-1.1 7-2.6 14-4 21-.9 4.7.7 6 5.3 4.8.7 4.7 1.5 9.4 2 14.1 0 .4-2 1.3-3.1 1.4-12.2.3-24.3.6-36.5.6-4.3 0-8.6-.9-12.9-1-14.1-.1-28.1 0-42.2 0h-2.7c-8.6.2-8.8-.3-8.4-9.3.3-7.3 0-14.6 0-21.9 0-8.8-.1-17.5 0-26.3.1-10.4.4-20.7.5-31.1.1-19.3 0-38.7 0-58l.6-195.1c0-2.6-.2-5.2.1-7.7.4-3.3 2.5-5 5.9-5H52c-7.1 5.8-13.7 10.7-19.7 16.4-11.9 11.2-21.5 23.9-18.9 41.4.9 6.1 3.9 11.8 9.4 16.2 8.4 6.7 17.3 12.1 27.8 14.8 1 .2 2.2 2.7 2 3.9-1.8 11.9 2 19.3 12.9 24.5 1.6.8 2.9 2 5.3 3.7.5-2.7 1.1-4.9 1.4-7.2.7-4.6 1-9.3 2.3-13.7.5-1.6 3.5-3.6 5.3-3.5 16.1 1 32.1 2.1 48.2-1.1 12.8-2.6 26-3 38.7-5.9 16.5-3.7 33.1-7.8 47.3-18.2 14.1-10.4 19.5-24.2 13.4-40.4-3.3-8.8-8.6-16.8-13.4-25.1-1.1-1.9-3.4-3-6.1-5.3h58.9c-4.9 5.5-9 10.4-13.5 14.9-7.1 7.2-12.5 15.7-12.9 25.7-.4 9.8 6 17.1 13.2 23.4 9.9 8.7 22.6 11.6 34.3 16.8 1 .5 2.6-.2 4.5.8-1.1.8-2 1.9-3.2 2.5-9.6 5-17.8 11.5-24.4 20.1-.8 1.1-2.9 1.8-4.3 1.8-14.4-.1-24.7 11-25.1 24.5-.3 7.9 11.8 20.7 19.4 21 4.2.2 7.3 5.8 4.8 10-2.4 4-5.9 7.3-9 10.8-5.3 6.1-6.6 13.9-2.4 18.6 1.7 1.9 4.4 2.7 7.9 3.3-4.4-6.6-9.7-12.6-3.1-20.1 1 3.9 1.5 8.1 3.1 11.7 5.2 11.1 15.9 16.1 26.3 20.1 7.7 2.9 16.4 3.1 24.6 4.8 2.4.5 4.7 1.7 6.9 3.1-11.2 3.7-19.2 19.4-13.5 28.9.8 1.3.9 3.4.5 5-2.1 9.2-4.5 18.3-6.6 27.4-1.3 5.8-6.4 2.3-9.3 4-.7.4-2.2-.7-3.1-.4-7 2.8-14.4 5-20.7 9-4.5 2.8-5.7.6-7.2-2.2-2.5-4.9-4.7-10-6.8-15-1.6-3.9-2.8-3.7-5.6-.7-3.7 3.9-7.6 7.7-14.3 5.9-2.6-.7-5.9 1.5-9.2 2.4-4.4-11.3-9.1-23-14.2-35.9zM116.1 367c.7 7.5 1.8 15 1.9 22.5.1 5.1-.7 10.5-2.4 15.2-.7 1.8-4.8 3-7.6 3.4-11 1.7-22.2 2.7-33.2 4.6-9.8 1.7-19.4 4.3-29.2 6.5-1 .2-1.9.8-2.8 1.3.1.6.2 1.1.3 1.7 9.5-2.1 19.1-4.2 28.6-6.4.1.5.3 1.1.4 1.6-6.9 1.6-13.7 3.1-20.6 4.7.1.7.2 1.4.2 2.1 3.6-.2 7.3-.4 10.9-.7 7.6-.7 15.3-1.2 22.9-2.2 7.4-1 14.8-2.5 22.1-4.2 2.3-.5 4.3-2.5 6.5-3.8-.2-.5-.4-1.1-.6-1.6-4.2.3-8.5.6-12.7.9 0-.5-.1-1-.1-1.5 4.6-.5 9.2-1.2 13.9-1.5.7-.1 2.1 1.1 2.2 1.9.2 1-.2 2.4-.8 3.3-.5.9-1.7 1.3-2.5 2-4.5 4.5-4.1 7 1.8 9.2 12 4.3 23.7 10.6 36.1 12.2 15.2 2 31.5 4 45.5-6.3 5-3.7 10.5-2 16-1.7 5.5.3 11 .3 16.4-.5 4.5-.6 8.8-2.4 13.2-3.8 5.6-1.7 6.3-3.5 3.4-8.4-.6-1.1-1.1-2.2-1.6-3.2 10.3-1 20.5-2 30.2-3 .5 2.3.3 5.7 1.9 7.7 1.7 2.2 4.9 4 7.7 4.4 7.2 1 14.5 1.4 21.7 1.4 5.7 0 11.3-.9 17.6-1.5 6.5 10.5 18.1 10.8 29.5 11.2 15.6.4 31.1-2.6 45.4-8 10.9-4.2 21.7-4 32.6-4.9 3.6-.3 7.4 2.1 11.1 1.9 16-.8 32-2.1 48-3.1 3.2-.2 6.3.1 9.5 0 9.2-.3 18.5-.7 27.7-1.1 5.2-.3 10.4-.6 15.6-1.2 1.2-.1 2.3-1.4 3.5-2.2-.2-.6-.3-1.2-.5-1.9h-33.4c.2-.4.3-.8.5-1.2-1.4-.7-2.8-2.1-4.3-2.1-3.4 0-6.7.8-10.1.9-11.8.2-23.5.2-35.3.3-.3 0-.8.6-.9.5-7.1-5.2-14.5-1.3-22.1-1.1 2-.8 4.1-1.6 6.1-2.4-.1-.6-.3-1.2-.4-1.8-9.6.5-19.2 1.1-28.8 1.6-5.6.3-11.2.6-16.8.6-1 0-2.6-1.4-2.8-2.5-1.3-4.9-2.3-10-3.6-16.1 10.8-1.5 20.5-2.9 30.2-4.3-6.2 5.4-15 .7-21.2 5.5.1.7.2 1.5.3 2.2 8.2-1 16.3-2 24.5-2.9-.2.3-.4.7-.6 1 1.6.6 3.3 2 4.9 1.8 6.9-.8 13.7-2.1 20.6-3.1.5-.1 1.2-.2 1.6 0 7.1 5.2 14.9 1.2 22.3 1.6 8 .4 16-.2 24-.7 10.6-.6 21.2-1.6 31.8-2.3 1.2-.1 2.8 0 3.6.7 4.3 3.5 8.4 5.3 14.6 4.3 7.5-1.2 15.5.4 23.3.7 3.8.1 8.3 1.3 9.3-5.8-6.2-.4-12.3-.8-16.6-1.1-3.1-1.8-4.8-3.8-6.4-3.7-7 .3-14 1.2-20.9 1.8-.2 0-.4-.5-1.5-1.8 3.3-.5 5.9-1.2 8.5-1.3 7.4-.3 14.8-.2 22.1-.7 1.2-.1 2.2-2.2 3.4-3.3-.2-.5-.5-1-.7-1.6-4.2.7-8.4 1.4-11.3 1.8-5.6-1.9-10.1-4.4-14.7-4.7-5.4-.4-10.9 1.1-17.1 1.9 2.2-1.1 3.7-1.9 6.2-3.2-4.7-1.6-8.2-2.8-11.9-4 1.5-3.3.9-5.3-3.1-5-.6-5.2 2.3-5.6 6.1-5.4 3.5.2 7 0 10.5 0h49.6c.1 2 .2 3.8.2 5.5 0 13.2-.1 26.5 0 39.7.2 13.8.7 27.6.9 41.5 0 2.6-.4 5.4-1.1 7.9-.3.9-2.2 1.9-3.3 1.9-7.9.2-15.8.3-23.7.1-4.8-.1-9.6-.9-14.5-.9-9.1 0-18.1.6-27.2.5-8.1 0-16.3-.9-24.4-.9-6.6 0-13.2.8-19.8.9-11.4.2-22.7 0-34.1.1-17.7.1-35.4.4-53.1.5-21.7.2-43.5.4-65.2.5-12.4.1-24.9.2-37.3 0-11-.2-22.1-.9-33.1-1-8.1-.1-16.3.7-24.4.7-28 0-56.1-.4-84.1-.2-14.4.1-28.8 1-43.3 1.3-5.2.1-10.4-.7-15.6-.8-5.5-.1-11 .5-16.5 0-7.9-.7-15.8.7-23.9-.5-8.9-1.4-18.2 0-27.3.6-4.3.3-6-.9-5.8-5.3.5-11.2 1-22.4 1-33.7 0-13.8-.5-27.6-1-41.4-.2-4.3.8-6.2 5.7-6.1 12.7.1 25.4-.6 38-.8 16.2-.2 32.3 0 48.5-.3 4.7-.3 9.5-1.3 15.2-1.9zm-92.3 52.9c.2.5.5 1 .7 1.5.6.1 1.3.3 1.9.3 11.9-.7 22.2-7.6 34.1-8.9 8-.9 15.8-3.1 23.8-4.5 6-1 12.1-1.5 18.1-2.4 1-.2 1.9-1.3 2.8-2-.2-.5-.4-1-.7-1.5-7.2 1.2-14.3 2.4-21.5 3.6-8.9 1.5-17.9 2.7-26.7 4.5-9.4 1.9-18.7 4.2-28 6.6-1.7.4-3 1.8-4.5 2.8zM533.8 10c16.6 0 32.7-.1 48.9.2 1.2 0 3.4 2.5 3.5 4 .1 4.2-.9 8.4-.9 12.5.1 7 .9 14.1 1 21.1.2 11.1.2 22.3 0 33.4-.2 11.3-.8 22.5-.8 33.8 0 13.3.6 26.5.6 39.8 0 15.2-.7 30.4-.7 45.5-.1 48.8-.1 97.5-.1 146.3v7h-66.1c.5-11.2 1.1-23.2 1.4-35.3.2-6.9-.7-13.7-.5-20.6.1-5.3 1.6-10.5 1.6-15.8-.2-17.2-1-34.4-1.1-51.6-.1-10.3 1-20.7 1.1-31 0-9.4-.9-18.9-.9-28.3 0-7.2.7-14.5 1-21.7.2-5.1 0-10.1 0-15.7 6.6 1.2 12.7 2.3 18.8 3.5.8.2 2.1 1 2.4.7 1.5-1.4 3.8-3.1 3.7-4.6-.3-4.3 4.2-9-.6-12.6-.9-.7-3.7 1.3-5.6 2-1.8.7-3.5 1.6-5.3 1.8-1.7.2-3.5-.5-5.3-.6-7.9-.1-8.1-.1-8-8.3.1-6.4.8-12.7 1-19.1.1-4.2.6-8.6-.3-12.6-1.2-4.8 1.1-7.8 4.1-10.2 8.5-6.6 15.1-14.4 19.4-24.5 4.8-11.4.9-21-5-30.3-2.1-3.1-4.9-5.9-7.3-8.8z" fill="#fff"/>
  <path d="M375 100.7c5 .7 10.3 1.6 15.5 2.2 4.1.5 8.3 1.2 12.4 1 4.5-.2 6.2 2.4 7.2 5.9 1.9 7 1.9 14.1 1 21.3-.3 2.1 1.1 4.4 1.7 6.5 1.6-1.1 3.4-1.9 4.6-3.2 2.2-2.4 4.7-4.8 5.7-7.7 2.4-7 4.1-14.4 6.2-22.1 6.9-.7 15.3-1.5 24.6-2.4.5 4.5 1.6 10.3 1.5 16.1-.3 24.6-.9 49.3-1.5 73.9-.2 9.6-.8 19.2-1 28.9-.6 27.8-1.1 55.6-1.6 83.4-.3 15-.4 29.9-.5 44.9 0 1.9.4 3.8.8 6.4-15.1.6-30.4 1.2-46.8 1.8 4.2 4.5 32 5.4 46.8 2.7-.6 3.8.9 6.7-3.9 10.3-7.2 5.5-15.4 2.9-22.5 5.9-2.2.9-4.8.9-8 1.5.7-1.6 1.1-2.5 1.9-4.4-8.7 1.3-16.7 2.4-25 3.6-.3-6.1-1.2-12.2 5.8-16.3 3.3-2 5.9-5.6 8.2-8.9 4.2-5.9 1.2-12.1-.5-17.8-3.4-11.2-7.3-22.3-11.7-33.1-6.4-15.8-13.3-31.5-20.2-47.1-2.9-6.6-6.7-12.9-9.5-19.5-1.3-2.9-1.7-6.4-1.8-9.6-.1-5.4-3.4-10.6-8.9-13-1.3-.6-2.6-1-4.1-1.5.4-4.1 2.1-6 6.2-5.6 6.5.7 12.4-.7 16.9-6 .4-.5 1.4-1.1 1.8-.9 5.2 2.6 5.9-2.5 8-4.9 7.3-8.4 10.7-18.2 12-29.4 1.6-13.9-3.3-26-8-38.2-3.4-8.6-8.8-16.4-13.3-24.7zM183.8 212.8c1.7-.5 3.5-.7 4.9-1.6 1.8-1.1 4.8-3 4.6-3.9-.6-2.5-.9-5.8-5.7-5.4-7.1.6-14.4-.7-21.5-.1-3.1.3-5.9 3.5-8.6 5.3 2.5 7.9 9.2 3.3 14.2 6-1.5.2-2.3.3-3 .3-.9 0-2.2-.4-2.7.1-1.5 1.4-4 3.5-3.6 4.7.9 3.5-1 5-3 7-2.3 2.2-3.9 5.1-6.4 7.1-1.6 1.3-4.5 2.9-6 2.3-10.5-3.8-21.7-5.8-31.2-12.1-8.6-5.6-15-12.9-18.2-22.7-1.3-4-3.2-6.4-8-6.3-5.8.1-7.6-2.5-7.4-9.3.2-5.9 2.5-8.1 8.2-8.5 1-.1 2.4-1.8 2.6-2.9.9-5.3 1-10.7 2.1-15.9 4.3-18.9 12.3-34.7 32.3-42.1 10.3-3.8 20.6-6.5 31.3-6.3 17.3.3 33 5.6 47 16.4 13.8 10.7 19.4 25.4 23.2 41.5 2.5 10.9 3.1 21.6-.2 32.4-1.2 3.9-2.6 7.8-4.6 11.4-.8 1.5-3.3 2.9-5.1 3-11 .3-21.9.1-32.9.1-.7 0-1.4-.1-2.2-.1-.1 0-.1-.2-.1-.4zm-39.1-54.5c-2.4.4-5.7.3-8.2 1.5-2.4 1.2-6.2 4.5-5.8 5.6 1.8 5 4.5-.1 6.9-.2 8.4-.1 16.9-.5 25.3-.5 6.7 0 13.5.6 20.2.6 7.3-.1 15.3-4.3 21.3 5.3.8-2.4 2.1-4.1 1.7-5.2-1.9-5.5-7.1-6.1-12.1-7.1 8.4-8.7 8.9-12.4 2.7-17.8-4.2-3.6-6.6-3.8-9.2-.4 1.3.7 2.4 1.8 3.7 2 3.6.6 5.5 2.9 4.4 6-.8 2.3-3.1 4.4-5.3 5.6-2.7 1.5-5.9 2.2-9 2.7-3.1.4-6.3.1-10.6.1 2.9-2.7 4.6-4.3 6.6-6.1-5.2-4.8-9.3-.4-13.6.6-4.6 1-9.1 2-15.1 3.3 2.8-2.6 4.3-4 5.8-5.4-.4-.7-.7-1.3-1.1-2-3.3 1.3-6.9 2-9.7 4-.8.6.6 4.5 1.1 7.4zm27.6 11.2c1.7 1 3.3 2.5 5.1 3 3.6 1 5.8 2.7 5.2 6.8-.7 4.4-3.7 4.6-7.2 4.5-1.1 0-2.3.5-3.5.7.7 1.3 1.3 3.6 2 3.6 3.3 0 7.3.3 9.8-1.3 2.2-1.4 4.2-5.3 4-7.9-.5-7.8-7.1-12.9-15.4-9.4zm-9.5 4.3c-3.3-2.6-5.7-5.8-7.2-5.4-2.2.5-4.8 3.4-5.3 5.7-.3 1.3 3.2 4.9 5 4.9 2 0 4.1-2.7 7.5-5.2zm37.5.4c-3.1-2.7-5.1-5.4-6-5-2 .8-3.9 2.8-4.8 4.8-.4.9 2.2 4.2 3.1 4.1 2.1-.2 4.1-1.9 7.7-3.9zM487.6 204.9v22.2c0 .9.3 1.8.2 2.7l-.3 33.3c0 5.9.2 11.7.3 17.6 0 9.3.4 18.7-.1 28-.4 7.6-2 15.2-3.9 22.8v-58.9c-2 1.3-3.1 2-3.1 2 0-11.4-.1-23.3 0-35.2.1-11.5.9-23 .3-34.5-.6-11.3 1.4-22.8-.3-34-.9 0-1.9.1-2.8.1 0 20.9.1 41.8 0 62.8-.1 17.4-.4 34.7-.7 52.1-.1 3.5-.6 6.9-.2 10.3.2 2.4 1.7 4.7 2.5 7.1.7 2 1.7 4 1.7 6 .3 12.1.5 24.2.7 36.4.1 3.9 0 7.7 0 11.9h3.8c-.3 5.9-.5 11.6-.8 17.4.7.1 1.3.1 2 .2.4-1.8.9-3.6 1.3-5.5 6.5-1.5 2.8 4.6 4.4 6.5 2-.7 4-1.5 6-2.2-.1 3 1.9 1.4 3.3 1.8 5.6 1.9 4.4-1.5 4.1-4.5-.1-.6-.4-1.3-.8-2.1 1.6-.8 3-1.5 4.8-2.5 0-8.3-1.6-17.3.4-25.3 2.7-10.5.9-20.9 2-31.3 1.3-12.8 0-25.8-.1-38.7 0-3 .6-6 .5-9-.2-13.8-.9-27.6-.6-41.4.5-23.6 1.9-47.1 2.6-70.7.4-15.5-.2-31 .4-46.4.2-5.9 1.2-11.6-1-17.4-.5-1.4.9-3.6 1.7-6.5 1.1 1.8 2.2 2.7 2.3 3.6.2 6.1.4 12.1.3 18.2-.2 8-.8 16-1 24-.2 7.3 0 14.6-.2 22-.1 5.3-.9 10.6-.9 15.9-.1 14.4.1 28.8-.1 43.2-.2 12.7-1 25.5-1 38.2 0 17.1.8 34.1 1 51.2.1 8.9-.1 17.8-.4 26.8-.4 14.4-1.3 28.7-1.4 43.1 0 3.8 1.1 7.1-4.2 7.4-4.6 9.9-13.6 4.7-20.7 6-1.6.3-3.3.7-4.9.5-1.4-.2-2.7-1.2-2.7-1.2-3.8.6-6.6 1.4-9.4 1.3-2.7-.1-5.4-1.4-8.1-1.7-3.7-.4-5.3-2.2-5.3-5.9 0-.8-2.3-1.5-3.9-2.5.2-.6 1-1.9.7-2.9-3.6-11.8-1.6-23.9-1.7-35.8-.2-12.8 1.8-25.6 2.7-38.4.3-3.7.2-7.5.1-11.2-.3-12.5-1.1-25-.8-37.5.4-14.3 2.3-28.5 2.8-42.8.4-9.8-.8-19.6-.8-29.5 0-11 .2-22 .7-33 .5-11.6 2.1-23.2-.6-34.8-1.2-5 3.1-4.2 5.5-4.8-1 44-2 88.2-3 132.3.8 0 1.7.1 2.5.1.6-34.3 1.1-68.7 1.7-103h2.6c1.8 20.6-1.1 41.2-.8 61.8.3 20.3-.7 40.7-.8 61-.2 19.7-.2 39.4 0 59 .2 20.8.6 41.5 1 62.3.6.1 1.2.1 1.8.2.3-2.5 1-4.9.9-7.4-.5-41.4-1.2-82.9-1.6-124.3-.2-16-.1-32.1.2-48.1.4-19.4 1.1-38.7 2-58 .3-5.1 2.4-10.2-1.1-15-.5-.7-.3-3 .1-3.1 6.4-2.2 3.2-8 4.7-11.9 1.5-4.2-.8-4.5-4.8-4.5 1.6-1.1 3-2.5 4.8-3.1 6.2-2.1 12.5-3.9 18.8-5.6 1-.3 3.4 1.1 3.4 1.6-.5 12.8-1 25.6-1.9 38.4-.9 12.3-2.8 24.6-3 36.9-.2 13.4 1.2 26.7 1.8 40.1.1 2.6-.9 5.3-.9 8-.1 18.8 0 37.6 0 56.3 0 8.6-.1 17.2 0 25.9.2 16 .5 32 .5 48.1 0 2-.9 4-1.4 6-.4 0-.9-.1-1.3-.1v-148c-.8-.3-1.7-.3-2.5-.4zm-25 159V237.4c-3.5 11.7-4.3 121.6 0 126.5zm9.2-150.8c.8.1 1.6.1 2.4.2.2-.8.5-1.6.5-2.4.4-12.6.6-25.2 1.2-37.7.5-10.3 1.4-20.7 2.2-31 .6-8.2 1.5-16.4 2.1-24.6.1-1.6-.9-3.2-1.4-4.8-.7.1-1.5.2-2.2.3-1.6 33.3-3.2 66.6-4.8 100zm1.9 19.3h-2.4v69.5h1.4c1.8-23.2.5-46.4 1-69.5zm-.5 72c-.4.1-.8.1-1.1.2V362c.4 0 .8-.1 1.1-.1v-57.5z" fill="#fff"/>
  <path d="M381.3 183.1c-7 13-9.4 15.2-15.6 15.1 3.3-4.3 7-8.8 10.3-13.5.6-.8 0-2.4-.1-3.6-1.1.5-2.7.8-3.1 1.6-3 6.6-8 11.1-14 14.6-.7.4-1.9.1-3.3.1 2.3-2.1 4-3.7 5.6-5.3-2.7-3.2-3.5-2.9-8.2 1.3-2.4 2.2-5.3 3.8-7.9 5.7-.6-.2-1.3-.5-1.9-.7.9-4.1 1.4-8.4 2.7-12.4 2.6-8.3 6.5-16.3 8.1-24.7.9-4.4-1.4-9.8-3.3-14.3-1.6-3.9-4.8-7.1-7-10.7-1.5-2.4-3.2-3.5-6.2-4.1-3-.7-5.4-4-8.3-6.3-3.4 4.4 2 5.6 2.9 9.4-2.5-1.5-4.4-2.9-6.6-3.8-.9-.4-2.4-.3-3.2.3-.4.3-.4 2.2.1 2.9 1.8 2.4 3.9 4.6 6.4 7.4-8.3.4-14.7-2.4-20.3-7-2.7-2.2-5.1-3.6-8 1.5 4.9 3 9.8 6 14.8 9-3.5 1.2-9.4-.2-13.7-3.2-2.7-1.9-5.3-4.1-8.3-5.3-1.7-.7-4.1.1-6.2.2 1 1.7 1.6 3.8 3 4.9 3.5 2.6 7.4 4.7 11.6 7.3-7.1 1.5-12.6.3-17-5.2-2.1-2.6-5-4.7-7.8-6.6-1-.7-2.7-.3-4-.5-.1 1.5-.9 3.4-.2 4.3 2.2 3.2 5 6.2 7.6 9.3-2 1-3.8 3.5-7.5.6-2.1-1.6-6-1-9-1.5-2.7-.5-5-6-3.7-8.9.6-1.4 1.5-2.8 2.3-4.1.7-1.3 1.4-2.5 2.3-4-7.5.9-8.6 3-11.4 21.3-8.8-2.2-13.4-15-10.7-21 4.3-9.3 9-12.1 18.9-13 8.9-.8 17.6-3.5 26.4-5.2 2-.4 4.1.1 6-.4 10.7-2.6 21.6-1.6 32.4-.7 17.1 1.5 34.3 1.9 50.8 8.1 4.6 1.7 6.5 3.6 7.5 7.9 2.2 10.2 6.1 20.3 6.8 30.6.5 7.4-3.2 15.1-5.3 22.5-.2.7-2.4.7-3.7 1.1-.4-.3-.7-.6-1-1zM306.1 381.5c-4.5-.2-8.5-.8-12.6-.5-3.9.3-7.7 1.2-11.5 2.1-1.1.3-1.9 1.6-2.8 2.4 1.2.4 2.3 1.1 3.5 1.1 6.4-.1 12.9.1 19.3-.7 3.2-.4 2.9.9 3.4 3 1.1 4.6 2.6 9 4 13.8-4.1 2.5-14.7 1.3-18.5-2.1-1.5-1.4-4.2-2.2-6.2-2-8.8.7-17.6 1.9-26.4 2.9-.2 0-.4.1-.5.1-11.6.5-23.1 1.1-35.5 1.6v-7.3c.1-4.3.6-8.7.2-13-.9-9.7-2.6-19.3-3.4-28.9-.2-2 1.9-4.1 2.5-6.3 1-3.3 2.4-6.8 2.4-10.1 0-4.3-1.3-8.7-2-12.7 3.1.4 5.7.8 9.9 1.4 3 6.9 6.4 15 10 23.1.9 2.1 2.2 4.1 3.4 6.1 2.4 4.2 5.5 3.1 7.3.1 3.3-5.6 8.5-8.4 14-11.2 3-1.6 5.5-4.3 8-6.8.7-.7.7-2.7.3-3.7-.9-2.4-2.4-4.6-3.7-7 13-.2 14.4-.8 15.7-7.6 4.1 3.6 4.1 3.6 12.9 1.6-1.1 9.6-2.5 19-3.2 28.4-.3 3.9.4 8 1.5 11.7.5 1.6 3.1 3 5.1 3.6 6.7 2.1 6.9 2.4 4.6 9.1-.5 1.5-.9 3.1-1.2 4.6-.3 1.4-.5 2.9-.5 3.2zM223.3 362v2.6c2 .3 4 .8 5.9.8 18.4.1 36.9.1 55.3 0 2.1 0 4.3-.4 6.3-1 1.5-.4 2.9-1.4 4.4-2.2-1.6-.7-3.2-2.1-4.8-2.1-8.2.1-16.3.8-24.5.9-10 .2-20 0-29.9.1-4.3.1-8.5.6-12.7.9z" fill="#fff"/>
  <path d="M341.1 204.5c1.6.1 3.4.2 6.4.4-1.2 1.6-1.7 3-2.6 3.3-16.7 5.8-33.7 8.9-51 3.2-9-3-17.7-6.9-26.3-11-9.4-4.5-9.5-15.5-4.9-23 3.1-5 3.7-9.3 1.3-14.5-.7-1.5-.2-3.6-.3-5.4 1.8-.1 3.6-.2 5.5-.2 3.3.1 7 1.3 9.6.1 5.3-2.5 10.4-2 15.9-2.1 3.7 0 7.4-1.9 11.1-2.9 1.9-.5 3.8-.8 5.7-1.3 3.4-.9 6.7-2.1 10.1-2.6 7.1-1 14.5-2.7 21.4-1.7 2.5.3 4.7 7.3 5.8 11.6 1.8 7.2-1.9 13.7-4.8 20-3.9 8.2-7 16.4-2.9 26.1zm-22.7-12.8c-4-4.9-11.9-5.9-18.6-2.3-1 .5-2.2 1.9-2.1 2.7.2 1.3 1.1 3.1 2.2 3.7 6.1 3 13.6 1.3 18.5-4.1zm-17-30.2c-6.4-.8-10.3 1.2-10.3 4.9 0 2.8 4.9 7.8 7.7 7.5 3.6-.4 4.7-2.7 3.8-6.1-2 .3-3.9.6-6.4 1 2-2.8 3.5-4.9 5.2-7.3zm-12.3 6.2-5.5-5.5c-1.2 1.2-3.5 2.7-3.3 3.6.5 2.2 2.1 4.1 3.3 6.1 1.4-1.2 2.8-2.2 5.5-4.2zm23.1 1.1c1.6-2.3 3.6-4.1 3.3-4.8-.9-2-2.8-3.5-4.4-5.2-1.2 1.3-3.7 3-3.5 3.9.7 2 2.6 3.6 4.6 6.1zM323.1 247.7c2.7 2.3 5 4.2 7.3 6.2.9-1.1 2.7-2.7 2.4-3.1-1.6-2.8-3.6-5.3-5.7-8.1.8-.6 2.5-1.8 5.7-4 .8 6.5 1.5 12.1 2.3 17.7.4 2.9 1 5.8 1.8 8.6 3.1 11.6-2 23.5.7 34.9 1.9 8.1-.2 13-6 18.3-6 5.6-4.5 10.1 3.2 13.1-1.5 5.2-1.1 9.2 5.7 10.5 2.3.4 5.2 2.7 4.3 6.9-.7 3.1-.3 6.5-.1 9.8.1 3 .6 5.9 1 9.9-9.5-2.5-18.2-4.8-26.9-7-3.6-.9-7.3-2.2-11-2.2-4.5-.1-5.8-2.6-5.8-6.1 0-4.5.7-8.9 1-13.4.4-6.3.9-12.6 1.1-18.9.5-16.4.8-32.8 1.1-49.2.1-3.4 3.1-7.1-.9-10.2 2.6-2 5.2-5.6 7.8-5.6 5.7 0 7.4-4 10.1-7.2.3-.5.8-.8.9-.9zm-4.2 99.1c.8-2.4 2.1-4.2 1.8-5.7-1.6-7.7-4.2-15.3-5.5-23.1-1.5-8.7-1.9-17.6-2.9-26.4-.3-2.2-1-4.4-1.6-6.5-.6.1-1.1.2-1.7.3.6 7.2 1.1 14.4 1.6 21.5.3 4.1.7 8.2.7 12.2 0 2.9-1.2 6-.6 8.7 1.6 6.8 3.8 13.5 6 20.2.8 2.4 2.2 4.5 3.3 6.8l1.8-.9c-1.1-2.7-2.2-5.4-2.9-7.1zm-1.6-45.4c-3.6-9.2 2.7-18.3-2.3-27.7-2.4 8.2-1.3 25.6 2.3 27.7zm16.6 11.5c3.2-3.6 1.7-6.5-1.2-8.7-.5-.4-3.4 1.2-4 2.5-2.2 4.7 2 5 5.2 6.2zm-22.3 23c-.6.2-1.3.4-1.9.6-.5 6.1.4 11.9 3.8 17 .4-.1.9-.2 1.3-.4-1-5.7-2.1-11.4-3.2-17.2zm21.5-51.1c2.3-3.5 2.8-6.6-.4-9.2-.8-.6-3.6-.1-3.9.6-1.9 3.9.5 6.3 4.3 8.6zM337 243.4c5.2 1.4 9.8 2.6 15.1 4 2.8-3.9 5.7-8 9.1-12.8 8.6 18.7 16.9 36.7 25.2 54.7-9.2-7.2-14.5-5.2-19.6.1-.9-8.6-1.7-16.7-2.7-24.8-.2-1.7-1.3-3.3-1.9-5-1 1.5-2.8 2.9-3 4.5-.4 3.2-.2 6.5.2 9.6.7 5.1 2.2 10.2 2.4 15.3.2 3.7-.7 7.5-1.9 11-.6 1.7-2.8 3-4.5 4.1-2.7 1.7-6.4 2.4-8.2 4.8-3.3 4.4-4.5 1-4.8-1.2-.8-7.2-2.4-14.7-1-21.5 1.6-7.4-.5-14.2-.7-21.2.1-7.2-2.2-14.3-3.7-21.6zM137.8 284.8c-1.1-4.1-2.1-8.3-3.4-12.3-.5-1.5-1.6-2.7-2.4-4.1-.6 1.5-1.7 3-1.8 4.6-.1 1.7.4 3.5 1 5.2 1.9 5.3-.2 9.3-2.9 13.8-1.8 3.2-1.9 8-1.2 11.8.8 4.5 3.2 8.9 5.3 13 .4.7 4.1.8 4.3.4 1.3-3 3.5-6.5 2.8-9.2-2.3-9 .4-16.7 4.7-25 7.8 6.6 15.6 13.1 28.2 5.9-1.9 9.3-3.3 17.1-5.1 24.8-1.6 6.9-4.5 13.5-12.4 14.1-5.4.4-11.4-.8-16.5-2.8-10.9-4.5-19.6-13.1-18.3-26.5.5-5 1.1-10 2.2-14.8 1.9-8.8 4.2-17.6 6.6-27.2 4.9 4.2 9.3 7.3 12.8 11.2 1.3 1.5.9 5.1.5 7.6-.5 3.1-1.8 6.1-2.8 9.2-.4 0-1 .1-1.6.3zM388.1 328.5c1.5-2.1 3.4-5 6.3-9.2.7 4.5 1.2 7.6 1.7 10.8.5 0 1.1-.1 1.6-.1-1.1 2.6-2.2 5.2-3.4 8 6 .3 4.3-5.8 7.4-8.9 1.4 6.5 3.3 12.5 3.8 18.7.2 2.4-2.3 5.7-4.5 7.4-8.9 6.7-19.1 10.7-30.2 11.4-6.3.4-12.7.1-20.1.1-.6-6-1.3-11.8-1.8-17.6-.3-3.7 1.6-5.1 5-3.9 5.6 2 8.7-.7 11.4-5.1 1-1.7 2.8-3 4.3-4.4 1.9-1.8 3.9-3.4 5-4.3 4.8-1.2 8.4-1.9 13.5-2.9zm-1 28.3c8.4-1.9 14.3-8 13.9-12-4.5 3.9-9.2 7.9-13.9 12zm3.7-8.3c9.4-4.9 10.9-6.9 8.4-10.3-2.8 3.4-5.6 6.8-8.4 10.3zM206.9 316.3c-2.5-.6-5-1.2-7.5-1.7-.3-.1-.6.4-1 .4-9.2 1-9.2 0-9.9-10-.5-7.8-3.9-15.3-5.5-23.1-1.4-6.6-2.1-13.4-3.3-21.6 5 4.1 8.2 8 12.2 9.7 6.3 2.6 7.2-5.2 11.7-7.5.7 1.2 1.5 2.4 2.6 4.4-2.1-.3-3.3-.5-4.6-.8 5.3 18.1 10.6 36 16.3 55.6-11-2.4-20.3 2.3-29.5 0v-1.8c6-.6 12-1.2 17.9-1.8l.6-1.8zM166.3 220.2c2.8-3 42.8-3.3 55.2-.5 0 7 .1 14.2 0 21.3-.1 3.9-.9 6.8-6.2 6.4-8.8-.8-17.7-.7-26.6-1.3-1.3-.1-3.1-1.6-3.8-2.9-2.7-5.2-5.5-10.4-7.3-16-1.9-5.7-6.2-6.6-11.3-7z" fill="#fff"/>
  <path d="M179.2 280.2c.6 3.3 1.2 6.6 1.8 9.8 1.3 6.8 3 13.6 4 20.4 1 6.7.4 7-6.5 8.1-1.7.3-3.4 1.3-5 2 .2.6.3 1.1.5 1.7.6.2 1.5.7 1.9.4 7.1-3.9 6 2.2 6.6 5.6.2.9-1.6 3-2.6 3.1-13.1 1.3-26.2 3.2-39.2 3.1-8.3 0-16.5-3.1-24.5-4.7.5 3.4 2.4 5.4 9.7 7 12 2.7 24.1 2.3 36.2.6 6.9-1 13.7-2.5 20.5-3.6 1.6-.3 3.4.2 6.1.5-12.1 7.1-57.2 15-76.7 7.4 1.2-6.9 2.5-14 4-22.6 5.1 6.8 9.9 10.1 16.8 10.4 3 .1 5.9 2.1 8.9 3.1 15.3 4.8 29.5-6.2 32.1-20 2-10.6 2.7-21.5 4-32.2.4 0 .9 0 1.4-.1zM179.7 237.4c-4.9.7-8.3 1.2-11.7 1.7-.4 5.1.4 5.5 6.3 4.4 2.6-.5 6.9-2.6 6.1 3.9-.9-.3-1.6-.7-2.1-.6-2.1.5-4.2 1.3-6.3 1.9l5.4 3c1.6.9 3.2 1.7 5.7 3.1-4.5 1.4-7.2 2.2-10.4 3.2 6.7 6.8 4.6 15.2-1.4 16.5-3.2.7-7.2-1.3-10.5-2.8-3.7-1.7-5.7-4.6-5.4-9.2.4-7.7-.1-15.5 0-23.3.1-5.3 8.4-13.6 13.5-13.6 1.4 0 2.8.8 5.6 1.7-3.3 1.5-5.1 2.3-6.9 3.2-1.9 1-3.7 2-5.7 3.2 2 4.4 4.9 2.9 7.2 1.5 3.4-2.3 6.3-2 10.6 2.2zM388.9 369.2v30.7c-7.7.2-15.9.5-24 .4-1 0-2.6-2.7-2.7-4.2-.4-5.8-.7-11.6-.3-17.3.1-1.6 2.7-3.9 4.5-4.3 5.4-1.2 11-1.5 16.5-2.5 2.1-.5 4.1-1.9 6-2.8zM115.6 419.3c2.5-1.5 6.5-4.7 7.3-4.1 4.4 3.7 12.5.5 14.8 8.2 2.1-.3 4.8-5.4 7 .4.2.5 4 .2 5.7-.7 1.7-.9 2.5-1.3 4.5 0 1.6 1 4.8 1 6.4 0 10.5-6.3 21.4-3.8 32.2-1.7 1.3.3 3 2.3 3.2 3.7.2 1-1.5 3.1-2.7 3.5-10.9 3.5-22.1 6.5-33.7 3.8-12.8-3-25.4-6.7-38-10.1-2-.5-4.1-1.1-6.1-1.6-.2-.4-.4-.9-.6-1.4zM361.3 340.1h-5.9c.9-2.9 1.7-5.4 2.6-8-.5-.3-1.1-.6-1.6-.9-2.2 3.2-4.4 6.5-6.8 10.2-1.2-.5-2.5-1.1-3.9-1.7 2-3.8 3.9-7.3 5.7-10.9-.5-.3-1-.7-1.4-1-2.1 2.3-4.2 4.6-6.4 6.9-.7.8-1.5 1.5-2.2 2.2-.7-1.1-2.3-2.4-2.1-3.2.6-2.1 1.8-4.1 3-5.9 1.5-2.2 3.2-4.3 5.3-7-6.7-5.6-9.2 4.3-14.2 4.1.9-5.8 3.7-7.8 9.3-8.9 4.4-.9 8.7-2.9 12.9-4.9 4.8-2.3 8.8-2.3 12.2 2.3.8 1.1 2.2 1.7 3.4 2.6 3.7 2.6 4 7.7.5 10.8-1.5 1.3-3 2.9-4.8 3.4-5 1.4-7.2 4.2-5.6 9.9zM338.3 373.7c-.5 5.9-.9 11.5-1.5 17.5-6.6 0-14.2.1-21.9-.1-3.2-.1-4.9-1.9-4.3-5.4.8-4.9 1.3-9.8 1.9-13.9 9.4.7 17.8 1.3 25.8 1.9z" fill="#fff"/>
  <path d="M216.3 323.1c1.2 5.8 2.5 11.5 3.4 17.3.2 1.3-1.1 3.8-2.2 4.1-7.4 2.2-14.9 3.9-22.3 5.8-.2-.5-.5-1-.7-1.5 6.8-3.6 13.6-7.3 20.4-10.9-.3-.6-.5-1.1-.8-1.7-7.9 1.9-14 9.4-23.2 7.8 3.8-2.3 7.7-4.5 12.8-7.5H198c.2-1.4.4-2.6.6-4.2-5 1.1-9.3.5-11.5-5.6 9.2-4.5 19.8 1.1 29.2-3.6zM265.4 334.8c-4.2 4-7.1 1.8-9.5-.6-4.6-4.7-9.1-9.5-13.3-14.6-1-1.2-.9-3.4-.8-5.2.2-5.1.8-10.2 1-15.3.1-1.9-.3-3.9-.5-5.9-.2-2.7-.4-5.4-.7-8.1.5-.1 1-.1 1.6-.2 2.3 4.3 6.2 8.5 6.7 13.1 1.2 9.4 9 15.7 10 24.9.1.7.6 1.6.3 2-4.3 6 .8 7.6 5.2 9.9z" fill="#fff"/>
  <path d="M248.6 352c-5.5-11-11-21.9-16.4-33-3.1-6.2-.9-12 6.3-14.7 0 3.9.9 7.7-.2 10.8-1.8 5 1.4 7.2 4.1 9.9 3.2 3.3 6.3 6.6 9.5 9.8 2.4 2.5 4.9 4.9 7.3 7.2-3.3 3.1-7.1 6.7-10.6 10zM198.2 416.1c2.4.3 5.2-3.9 7.4 1.1.2.5 2.3.5 3.3.2 2.6-.7 5.2-1.4 7.5-2.6 8.2-4.2 15.5-.9 22.9 2.3 1 .5 1.9 2.1 2.1 3.3.1.5-1.6 1.9-2.6 2-6.8.9-13.7 1.8-20.6 2.2-3.5.2-7.1-.2-10.4-1.2-3.6-1.1-6.9-3.4-10.3-5.1.2-.8.5-1.5.7-2.2zM277.2 313.6c-1.2 1.9-2.3 3.8-3.6 5.6-.7.9-1.7 1.6-2.5 2.4-.2-1.3-1-3.3-.4-3.8 4-4.1 2.9-12.2 10.4-13.7.6-.1.9-1.5 1.3-2.3-.4-.5-.8-1-1.2-1.4-3.6 2.3-7.1 4.6-11.5 7.4.3-1.5.4-3.1 1-4.5.8-1.9 2-3.7 3.7-6.7 5.8-1.8 10.9.8 14.7 7.2 2 3.5 1.6 8.7-2 9.9-3.6 1.2-5 3-5 6.6 0 1-1.5 2-2.2 3-.6-.2-1.1-.3-1.7-.5 0-1.4-.1-2.7 0-4.1.1-1.5.5-2.9.7-4.4-.6-.2-1.2-.4-1.7-.7zM317.3 222.8c9.8-2.6 18.9-5 28.4-7.5-.3 1.2-.2 3.2-1.1 4.4-3.7 4.6-7.4 9.3-11.8 13.2-1.4 1.2-5.7 1.1-7.2-.2-3.3-2.8-5.6-6.6-8.3-9.9zM312.7 229.4c3 2.5 5.8 4.3 7.8 6.7 1 1.2 1.6 4.3.8 5.1-2.8 3.2-6.1 5.9-9.3 8.5-4.2 3.4-7.7 1.9-8.5-3.6-1-6.7 2.8-13.2 9.2-16.7zM352 217.7c2.4-.6 4 .4 5 4.8 1.7 7.3-2.7 12.1-5.9 17.4-.3.5-2.9.1-4-.6-2.7-1.7-5.1-3.8-7.3-5.5 3.8-4.9 7.6-10 12.2-16.1zM378.6 304.9c2.3 1 4.1 1.8 6.3 2.7 1-1.2 2-2.5 3.3-4.1-5.8-5.2-11.2-11-20.2-10 4.7-6.4 12.3-6.2 16 0 1.9 3.3 4.8 6.3 5.7 9.8 2.1 8.4 1.7 8.5-3.4 17.4-2.4-4.9-4.7-9.8-7.7-15.8zM149.7 268.4c5.3 9.6 14.3 11.1 25.6 10.6-2.6 3.3-4 7-6.1 7.4-7.9 1.4-14.9-.8-20-7.6-2.3-2.9-2.1-6.1.5-10.4zM394.4 412.5c-5.4 0-10.7.2-16.1-.1-3.3-.2-6.7-1.1-9.9-2.1-1.2-.4-2.1-1.9-3.1-2.9 1.3-.8 2.4-2.2 3.8-2.4 3.1-.4 6.2-.1 9.3-.1 1.6 0 3.5.5 4.9-.1 6.8-2.7 9.8.3 11.1 7.7zM358.7 404.1c-1.8-.4-3.8-.5-3.9-1-1-4.1-3.6-2.6-5.9-1.9-2.9.9-4-.1-4.3-3-.4-3.8-1-7.6-1.4-10.8h14.2c.4 5.5.8 10.6 1.3 16.7zM342.4 404.2c-14 2.5-27.8-1-29.3-7 4 0 8 .2 12-.1 4.1-.3 8.1-1.1 12.8-1.8 1.4 2.7 2.9 5.8 4.5 8.9zM122 350.9c.2 4.6.2 8.3.6 12.1.5 4.4 1.3 8.7 2.2 13.1.3 1.5.9 2.9 1.4 4.4 1.7-.8 3.6-1.4 5-2.6 5-4.3 9.8-8.8 15.5-14.1-4.7 11.1-13.6 16-22.2 21.4-2.5-9.4-5.1-18.4-7.3-27.6-1.6-6.2.4-8.1 4.8-6.7zM330.2 102.5c-1.4 5.3-3 5.5-10.8 4.6-4.4-.5-9.1 1.1-14.8 2 9.5-10.8 8.9-11.5 25.6-6.6zM231.5 290.9c-1.4 2.4-2.1 3.7-3.3 5.7 3.7-.5 6.6-.9 10.4-1.4-.8 9.8-8.5 4.7-11.6 6v11.6c-7-5.2-4.1-17.9 4.5-21.9zM151.4 255.7c-2.5 2.2-4.4 3.9-7.5 6.6-3.2-3.4-6.7-6.7-9.6-10.4-.8-1 .4-3.5.7-5.3 1.4.5 2.9.8 4.1 1.5 4.1 2.4 8 5 12.3 7.6zM184.5 255.1c4.7-1.5 7.4-2.7 10.3-3.3 3.2-.7 5.9.3 4.8 4.2-.9 3.1-2.8 5.9-4.2 8.9-3.3-3-6.6-5.9-10.9-9.8zM284.2 111.5c5.1-10.1 14.6-9.5 23.7-11.8-5.8 9.3-14.3 10.8-23.7 11.8zM354.9 384.9c-.3-2.9-.5-4.8-.8-7.7-3.8.9-7.4 1.8-11.1 2.7-1.3-4.5-.2-7.7 4.5-7.8 3.7-.1 7.5 1.2 11.2 1.9-.8 3.4.2 7.5-3.8 10.9zM340.1 94c-2.2 1.9-4.4 5.4-6.5 5.3-4.7-.2-9.3-2.1-14.5-3.5 7-5.9 16.6-6.5 21-1.8zM494.7 210.8c0-14.9 0-29.9.1-44.8 0-.3 1.5-.5 2-.7v45.5h-2.1zM365.8 422.2c-9.3-.9-18.5-1.8-27.8-2.7.1-.7.1-1.4.2-2.1 9.5-2.4 18.7-1.7 27.6 2.8.1.6 0 1.3 0 2zM186.9 339.8c-4.6 5.3-38.6 12.5-44 9.1 14.6-2.9 29.8-6.1 44-9.1zM291.3 410.7c6.1-4.3 18-2.6 23.5 2-.1.5-.2 1-.2 1.6-7.8-1.2-15.6-2.4-23.3-3.6zM350.6 105.3c-4.3-1.5-8.3-2.9-12.2-4.2-.2-.5-.4-1.1-.5-1.6 2.8-1.4 5.8-4.4 8.3-4 4.9.5 5.9 4.7 4.4 9.8zM164.1 351.9c6.8-1.7 13-6.7 21.7-5.1-7 7.1-14.5 5.4-21.7 5.1zM317.9 91.2c-4.2 5.6-7.2 6.6-18.2 6.1 1.8-3.6 9.7-6.3 18.2-6.1zM400.2 414.6c-8.7 2.9-17.2 8-26.5 3.1 8.8-1 17.7-2.1 26.5-3.1zM295.7 316.8c1.6-8.7-3.1-15-7.4-21.5 3.2-.8 5.1.8 7.2 6.8 4.2 12 4.2 12.8.2 14.7zM331.4 108.6c5.7-9.8 10.8.7 15.9-1.3v2.2c-5-.3-10.1-.6-15.9-.9zM406.6 412.9c7.9-.7 15.9-1.4 23.8-2.1 0 .6.1 1.2.1 1.9-7.9.7-15.9 1.3-23.8 2-.1-.6-.1-1.2-.1-1.8zM494.9 244.6v-27.2h1v27.2h-1zM283.5 105.5c-3.6 8.2-5.7 9.3-11.5 6.2 3.8-2.1 7.2-3.9 11.5-6.2zM480 416.5h-19.1v-1.1H480c-.1.4 0 .8 0 1.1zM297 419.7c-5.9-.1-11.7-.4-16-4.4.2-.5.4-1 .6-1.4 5.1 1.9 10.2 3.9 15.4 5.8zM222 291.1c-1.8 3.6-3.4 6.7-5.3 10.3-2.4-7.4-1.8-8.7 5.3-10.3zM377.5 114.8h-5.9c-.7-2.9-1.3-5.6-1.9-8.2.4-.2.8-.4 1.1-.6 2.1 2.7 4.1 5.4 6.7 8.8zM479.4 300.7c.3-6.9.6-13.7.9-20.6h.9v20.7c-.6-.1-1.2-.1-1.8-.1zM149.4 249.1c-3.5-2.4-6.3-4.4-9.6-6.7 9.2 0 9.9.4 9.6 6.7z" fill="#fff"/>
  <path d="M23.8 419.9c1.5-1 2.9-2.4 4.5-2.9 9.3-2.4 18.6-4.7 28-6.6 8.8-1.8 17.8-3 26.7-4.5 7.2-1.2 14.3-2.4 21.5-3.6.2.5.4 1 .7 1.5-.9.7-1.8 1.9-2.8 2-6 .9-12.1 1.4-18.1 2.4-8 1.4-15.8 3.6-23.8 4.5-11.9 1.3-22.1 8.2-34.1 8.9-.6 0-1.3-.2-1.9-.3-.3-.4-.5-.9-.7-1.4zM144.7 158.3c-.5-2.9-1.9-6.8-1-7.4 2.8-2 6.4-2.8 9.7-4 .4.7.7 1.3 1.1 2-1.5 1.4-3 2.8-5.8 5.4 5.9-1.3 10.5-2.3 15.1-3.3 4.3-1 8.4-5.4 13.6-.6-1.9 1.8-3.7 3.4-6.6 6.1 4.3 0 7.5.3 10.6-.1 3.1-.4 6.3-1.2 9-2.7 2.2-1.2 4.6-3.4 5.3-5.6 1.1-3.1-.9-5.4-4.4-6-1.3-.2-2.5-1.3-3.7-2 2.6-3.4 5.1-3.2 9.2.4 6.2 5.4 5.6 9-2.7 17.8 4.9 1 10.1 1.6 12.1 7.1.4 1.1-.9 2.8-1.7 5.2-6-9.6-14-5.4-21.3-5.3-6.7.1-13.4-.6-20.2-.6-8.4 0-16.9.4-25.3.5-2.4 0-5.1 5.1-6.9.2-.4-1.1 3.4-4.4 5.8-5.6 2.4-1.2 5.6-1.1 8.1-1.5z"/>
  <path d="M172.3 169.5c8.3-3.5 14.8 1.6 15.5 9.4.2 2.6-1.8 6.6-4 7.9-2.6 1.6-6.5 1.3-9.8 1.3-.7 0-1.3-2.4-2-3.6 1.2-.3 2.3-.7 3.5-.7 3.5.1 6.6-.1 7.2-4.5.6-4.1-1.6-5.8-5.2-6.8-1.9-.6-3.5-2-5.2-3zM162.8 173.8c-3.4 2.5-5.5 5.2-7.6 5.2-1.8 0-5.2-3.6-5-4.9.5-2.3 3.1-5.2 5.3-5.7 1.6-.3 4 2.8 7.3 5.4zM200.3 174.2c-3.6 2-5.5 3.7-7.7 3.9-.9.1-3.5-3.2-3.1-4.1.8-2 2.8-4 4.8-4.8.8-.3 2.9 2.4 6 5zM462.6 363.9c-4.3-4.9-3.4-114.8 0-126.5v126.5zM471.8 213.1c1.6-33.4 3.1-66.7 4.7-100.1.7-.1 1.5-.2 2.2-.3.5 1.6 1.5 3.2 1.4 4.8-.5 8.2-1.4 16.4-2.1 24.6-.8 10.3-1.7 20.7-2.2 31-.6 12.6-.8 25.1-1.2 37.7 0 .8-.3 1.6-.5 2.4-.7 0-1.5-.1-2.3-.1zM473.7 232.4c-.4 23.2.8 46.4-1 69.5h-1.4v-69.5c.8-.1 1.6-.1 2.4 0zM473.2 304.4v57.5c-.4 0-.8.1-1.1.1v-57.4c.3-.1.7-.2 1.1-.2zM223.3 362c4.2-.3 8.4-.8 12.6-.9 10-.1 20 .1 29.9-.1 8.2-.2 16.3-.8 24.5-.9 1.6 0 3.2 1.3 4.8 2.1-1.4.8-2.8 1.8-4.4 2.2-2 .6-4.2 1-6.3 1-18.4.1-36.9.1-55.3 0-2 0-4-.5-5.9-.8.1-.8.1-1.7.1-2.6zM318.4 191.7c-4.9 5.4-12.4 7.1-18.5 4.1-1.1-.6-2-2.3-2.2-3.7-.1-.8 1.1-2.2 2.1-2.7 6.7-3.6 14.6-2.6 18.6 2.3zM301.4 161.5c-1.7 2.4-3.2 4.5-5.2 7.3 2.6-.4 4.4-.7 6.4-1 .9 3.4-.3 5.7-3.8 6.1-2.9.3-7.7-4.7-7.7-7.5 0-3.6 3.9-5.7 10.3-4.9zM289.1 167.7c-2.7 2-4.1 3.1-5.5 4.1-1.2-2-2.8-3.9-3.3-6.1-.2-.9 2.1-2.4 3.3-3.6 1.5 1.6 3 3.1 5.5 5.6zM312.2 168.8c-2-2.5-3.9-4.1-4.5-6.1-.3-.9 2.2-2.6 3.5-3.9 1.5 1.7 3.4 3.2 4.4 5.2.2.7-1.8 2.6-3.4 4.8zM318.9 346.8c.7 1.7 1.8 4.4 2.9 7.1l-1.8.9c-1.1-2.3-2.5-4.4-3.3-6.8-2.2-6.7-4.4-13.4-6-20.2-.6-2.7.6-5.8.6-8.7 0-4.1-.4-8.2-.7-12.2-.5-7.2-1.1-14.4-1.6-21.5.6-.1 1.1-.2 1.7-.3.5 2.2 1.3 4.3 1.6 6.5 1 8.8 1.4 17.7 2.9 26.4 1.3 7.8 3.8 15.4 5.5 23.1.3 1.4-1 3.2-1.8 5.7zM317.3 301.4c-3.6-2.2-4.7-19.5-2.3-27.7 4.9 9.5-1.4 18.5 2.3 27.7zM333.9 312.9c-3.2-1.2-7.4-1.5-5.2-6.2.6-1.3 3.5-2.9 4-2.5 2.9 2.2 4.4 5.1 1.2 8.7zM311.6 335.9c1.1 5.7 2.1 11.4 3.2 17.2-.4.1-.9.2-1.3.4-3.4-5.1-4.3-10.8-3.8-17 .7-.2 1.3-.4 1.9-.6zM333.1 284.8c-3.8-2.3-6.1-4.8-4.3-8.7.3-.7 3.2-1.2 3.9-.6 3.2 2.7 2.7 5.8.4 9.3zM387.1 356.8c4.7-4.1 9.4-8.1 13.9-12 .4 4-5.6 10.1-13.9 12zM390.8 348.5c2.8-3.4 5.6-6.8 8.4-10.3 2.5 3.3 1 5.3-8.4 10.3z"/>
  <text transform="translate(59.377 77.043)" font-family="Peanuts" font-size="58">RATS!</text>
  <text transform="translate(283.524 65.532)" font-family="Peanuts" font-size="42">WHAT IS IT?</text>
</svg>
