<svg xmlns="http://www.w3.org/2000/svg" viewBox="0 0 595.3 464.2" xml:space="preserve">
  <path fill="#fff" d="M0 0h595.2v462.2H0z"/>
  <path d="M595.2 1.1v459.6c-1.8.3-3.5.7-5.3.7-13.6.1-27.3.2-40.9.2l-166.7.3c-34.2.1-68.5.5-102.7.5-22.3 0-44.5-.5-66.8-.6-15.3 0-30.5.3-45.8.5-21.8.2-43.7.4-65.5.5-17.3.2-34.5.2-51.8.2H2.1v-6c0-20 .1-40 0-60-.2-26.2-.6-52.3-.8-78.5-.1-24.9-.1-49.7-.1-74.6 0-15.3-.1-30.6 0-45.9.1-15.9.6-31.9.8-47.8.1-11.7 0-23.3-.1-35-.2-20.8-.6-41.8-.8-62.7-.1-14.3 0-28.7 0-43.1C1.1 4 4 .8 8.3.8c11 .2 22 .2 32.9.3 16.2.1 32.5.3 48.7.3 19.1 0 38.2-.3 57.2-.4 16.5-.1 33.1 0 49.6 0 17.6 0 35.2 0 52.8.1 22.2.1 44.4.6 66.6.6 22.4 0 44.8-.6 67.2-.5 41.1.1 82.2.5 123.2.6 13.3 0 26.6-.5 40-.6 16.3-.2 32.5-.1 48.7-.1zM337.4 330.7c6.9-2.8 9 4.1 13.5 6.9 1.1-3 2.3-5.5 3-8.2.6-2.3 1.4-4.9.9-7.2-1.1-5.7-2.6-11.4-4.3-17-1-3.3-2.5-6.4-4-10.2-1.7 3-2.9 5.1-4.1 7.2 5.7 4 5.9 5.4 2.2 12-.3.6-.7 1.5-.6 2 1.7 4.6-1.5 7.2-3.9 10.1-1.1 1.3-1.8 2.9-2.6 4.4-7-.2-9.2 4.7-11 10.4 1.4 1.3 3 2.7 5.2 4.8 2.3-5.6 4-10.4 5.7-15.2zm-259.8 71c1.6 4 10.1 9.4 13.3 7.8-4.7-2.7-9-5.2-13.4-7.7-.7-1.3-1.2-3-2.3-3.9-4.2-3.6-8.8-6.8-12.9-10.5-1-.9-.9-2.9-1.4-4.4 1.5.2 3.5-.1 4.6.8 3.8 3 7.2 6.5 10.9 9.7 2.5 2.2 5.3 4.2 8.1 6.4.7-1.6 1.3-2.8 1.7-3.7-2.5-1.9-5-3.4-6.9-5.4-4.5-4.8-8.2-10.8-5.5-17.2 5.6-13.3 14.8-23.5 29.3-27.7 3.2-.9 6.6-1.4 11.4-2.3-5.1-1.7-8.8-3.4-12.6-4-12.1-2.1-24.3-3.9-36.5-5.6-16-2.2-31.9-4.4-47.9-6.3-6.4-.8-7.2.2-7.2 4.2-.1 14.3-.4 28.6-.4 42.9 0 10.1.7 20.2.7 30.3 0 10.7-.6 21.3-.9 32-.1 5.6 0 11.2 0 16.6H145c-1.7-9.8-3.3-19.5-4.9-29.2-.7 0-1.5 0-2.2.1-.4 1.7-.9 3.4-1.1 4.3-11.5-4.6-22.7-9.1-33.9-13.6-5.3 8.7-10.6.1-15-.1-1.8 2-3.3 3.7-4.3 4.9-5.2-2.4-9.6-4.4-14.3-6.6-2.2 3.8-5.2 3.6-8.4 2.3-7.4-2.9-14-8-22.5-8-.6 0-1.3-.5-1.9-.9-6-4.4-12-8.8-17.9-13.4-3.1-2.4-4-5.8-2.7-7.5 4.5 4 9 7.9 13.5 11.9.3-.3.5-.7.8-1-3.3-4.6-6.6-9.1-10-13.7.4-.3.9-.6 1.3-.9 4.7 3.6 10.3 6.5 13.8 11 4.5 5.9 10.3 9.8 16.3 13.5 3.7 2.2 7.9 3.4 11.8 5.1.2-.5.5-1 .7-1.5-3-2.2-6.2-4.2-9-6.5-5.9-4.7-11.7-9.4-17.2-14.4-1.2-1.1-.8-3.9-1.2-5.9.7-.4 1.4-.7 2.2-1.1 8.8 7.6 17.4 15.3 26.4 22.7 3.4 2.8 7.4 4.7 11.1 7.1l.9-1.5c-9.9-9.4-19.9-18.8-29.8-28.2.4-.6.7-1.3 1.1-1.9 1.4.4 3.2.5 4.3 1.4 2.6 2.2 4.7 5.1 7.4 7.2 5.6 4.3 11.5 8.3 17.3 12.4zm348.7-166.9c.4-.3 1.4-.5 1.8-1.1 7-12.7 11.1-26.3 10.9-40.9-.1-7.1 2.1-8.7 9.3-7.6 5.1.8 10.4.8 15.5.4 7.3-.7 14.4-2.2 21.7-3.2 9.7-1.4 19.5-2.3 29.2-4.1 8.2-1.5 16.2-3.9 24.4-5.7 15.7-3.6 30.8-8.5 44.9-16.4 1.4-.8 2.9-2.9 2.9-4.4.1-12.9-.2-25.9-.3-38.8-.1-12.5 0-24.9 0-37.4 0-14.8.2-29.6.1-44.4 0-5.1-1.8-10.5-.7-15.3 1.3-5.4-1.1-5.9-4.8-6-7.7-.2-15.4-.1-23-.1-7.5 0-15-.1-22.5 0-18 .2-36 .4-54.1.5-6.3 0-12.6-.3-18.9-.2-3.6 0-7.1.8-10.7.6-8.5-.4-16.9-1.5-25.4-1.7-6.4-.2-12.8.5-19.3.8-3.4.1-6.7.1-10.1 0-9.1-.2-18.3-.8-27.5-.8-5.1 0-10.1 1.4-15.2 1.5-7.4.1-14.8-.6-22.2-.7-11.7-.1-23.5-.1-35.2-.1-8.2 0-16.3.2-24.5.1-8-.1-15.7-.1-21.9 6.6-7.9 8.5-16.4 16.4-24.6 24.7-2.9 3-2.8 6.3-1 10.3 4.6 9.9 4.8 19.8 1 30.4-3.2 9-9.7 15.1-15.8 21.7-.9 1-2.1 2.9-1.8 3.7 3.2 6.9 5.9 14.4 10.5 20.4 7.7 10.2 17.8 17.9 28.9 24.5 13.2 7.8 27.5 13 41.7 18.5 2.9 1.1 5.1 1.7 8.2.2 3.7-1.8 8-2.9 12.1-3.5 10.8-1.5 21.5-2.7 32.5-.2 12 2.7 22.6 7.1 30.7 16.8 1.3 1.5 3.8 2.9 5.7 2.8 11.3-.2 22.6-.7 33.9-1.5 13.2-1 13.6 1.4 16.3 12.1.7 2.7 1.3 5.7 1 8.5-.8 9.4-2.3 19-3.7 29zM10.6 321.9c10.4.6 19.4 1.2 27.1 1.7 4-8.8 7.3-16.2 10.6-23.6-.5-.2-.9-.5-1.4-.7-1.9 2.7-3.6 5.6-5.7 8.1-.7.9-2.5 1.4-3.7 1.2-.7-.1-1.4-2-1.5-3.1 0-1.5.3-3.2 1-4.6 2.5-5.2 5.2-10.2 7.8-15.3-.2-.1-.5-.3-.7-.4-1.6 1.4-3.2 2.8-4.7 4.2-5.3-2.5-3-5.9-1.5-9 2.8-5.6 5.9-11.1 8.8-16.6-.3-.3-.6-.5-.9-.8-2.5 2.7-5 5.4-7.5 8.2-4.4-7 2-24.9 12.5-32.3-4.4 9-8.7 18-13.6 28 12.3-4.8 14.2-16.3 21.3-23.8-2.4 6.7-5.5 13-8.5 19.5-3 6.6-5.8 13.3-8.7 19.9.4.2.9.5 1.3.7 2-2.8 4.4-5.4 6.1-8.4 9.5-16.9 18.8-33.9 28.3-50.8.7-1.2 2.3-2 3.5-2.9.3.4.6.7 1 1.1-.5 1.1-1 2.2-1.6 3.2-8.7 14.9-17.7 29.7-26.1 44.8-3.1 5.6-4.6 12.1-7.1 18.2-1.7 4.2-3.8 8.2-5.7 12.3l1.8.9c6.8-12 13.8-23.9 20.4-36 5.8-10.6 11-21.4 16.7-32.1.3-.5 1.8-.3 3.4-.6-.7 1.8-.9 3-1.5 4-7.8 14.3-15.7 28.5-23.5 42.8-1.6 2.9-5.6 5.3-3 9.7.1.2-1.4 1.9-2.3 2-2 .2-1.8 0-1.5 1.6.3 1.4.5 3.1 0 4.4-1.9 5.5-4.1 10.9-6.2 16.4.4.2.9.5 1.3.7C57.3 293.7 68 272.8 78.7 252c.7.4 1.5.8 2.2 1.1-3 12.6-11.4 22.9-16.4 34.7-4.9 11.6-10.6 22.8-14.3 34.8.6.3 1.2.5 1.8.8 11.9-23 23.9-45.9 35.8-68.9.9.4 1.8.8 2.8 1.3-2.9 10.3-9.4 19.1-13.4 28.9-4.1 9.9-8.9 19.6-13.3 29.4.7.3 1.4.7 2 1l27.9-56.4c.7.1 1.4.3 2.1.4.2 1.5.8 3.1.4 4.4-1.4 4-3 8-4.8 11.9-6.3 14.3-12.8 28.5-19.1 42.7-.7 1.6-1 3.4-1.4 5.1.4.1.8.3 1.2.4 7.5-15.3 14.9-30.6 22.4-45.9 5 6.8-1.9 10.9-2.8 16.2-1 5.8-4.8 11-7.4 16.5-2.4 5.2-4.7 10.5-7 15.8.5.3 1.1.5 1.6.8 2-3.4 4.3-6.7 6.1-10.3 4.4-8.8 8.6-17.7 13.1-26.4.6-1.2 2.5-1.8 3.8-2.6.2 1.7 1.1 3.8.5 5.2-4.8 11.2-9.9 22.3-14.9 33.4.6.3 1.1.6 1.7 1l16.5-27.9 2.4.3c2.1 4.5-1.7 8.8-3 12.8-1.5 4.8-4.4 9.2-6.7 13.8.5.3 1 .6 1.4.8 2.6-3.8 5.2-7.6 7.9-11.5.5.2 1.1.4 1.6.6 2 6.8-4.9 12.1-3.7 19.1 5.6 1.5 12 3.1 19.1 5-2.4-6.8-4.3-12.7.2-17.8 4.7-5.4 10.3-9.8 17.8-11.2 2.7-.5 7-1.5 7.4-3.2 1.5-5.6 5.4-6.6 10.4-6.9-.7-2.7-1.3-5-2.1-8-4.6 3.8-8.8 3.7-12.9 0-.4-.4-2.7.8-3.8 1.7-4.2 3.6-8.7 4.9-14.3 4.6-7.6-.4-12.5-5.4-17.3-9.8-7.4-6.8-7.4-12.8-1.4-21.3 1.9-2.7 4.9-4.8 7.6-7.3-10.5-6.3-17.1-16-16.8-28.1.5-18.5 11.3-32.5 24.8-43.9 13.3-11.1 28.3-10.3 43.5-3.5 8.9 4 18 7.7 27.1 11.2 1.7.7 4.7.8 5.9-.2 6.9-5.6 12.9-2.8 19 1.3 7.2 4.8 8.9 11.5 8.1 19.7-.5 5.6-4 7.8-8.3 10-1.4.7-2.1 3.5-2.5 5.5-.2.7 1.3 2.5 2 2.5 4.8-.1 7.4 1.5 7.7 6.8.2 4 1.4 8 2 12 .1.5-.7 1.2-1.1 1.8-3.5 5.6-10 4.6-14.9 7-2.9 1.4-5.6 3.2-8.4 4.8.3.6.6 1.2.9 1.7 2.2 0 4.3-.1 6.5 0 5.7.3 7.3 3.1 4.9 8.1-3.7 7.8-11.4 10.6-18 14.8-2.5 1.6-4.8 3.6-6.8 5.1 4.2 3.2 7.3 5.6 11.1 8.6 9.1-2.2 10-2 15.1 5.3.5.7 1.2 1.3 1.8 2 6.4 8.4 7.3 16.1 1.5 22.8-4.1 4.8-2.8 9.1-.3 14.3 2.1-4.4 4.2-8.8 5.7-12.1 2.3-.8 4.3-.8 5.1-1.8 1.9-2.3 3.4-5 4.8-7.6 6.1-10.9 12.1-21.8 18.3-32.6.8-1.5 2.9-2.2 4.4-3.3.4.4.7.9 1.1 1.3-2.7 4.8-4.7 10.2-8.3 14.2-7.4 8.2-10.2 18.5-13.8 28.5 1.2-.7 2-1.7 2.7-2.8 7.2-12.9 14.4-25.8 21.7-38.6 1.1-2 2.6-3.9 4.1-5.6.4-.5 1.5-.3 2.3-.5.1.8.4 1.6.3 2.3-.3 1.2-.8 2.3-1.4 3.4-7.6 13.7-15.2 27.5-22.8 41.2.4.3.8.5 1.2.8.7-.8 1.7-1.5 2.2-2.4 7.6-13.2 15.1-26.5 22.8-39.7 1-1.7 3-2.8 4.5-4.2.7.6 1.4 1.1 2 1.7-11.8 16.4-20.4 34.4-27.7 53 10.5-15 17-32.5 29.3-46.5 1.7 6.2-3 10.1-5.2 14.9-2.5 5.5-5.5 10.7-8.2 16.1-2.6 5.1-5 10.3-7.5 15.4 10.2-11.7 14.4-27.3 25.4-38.6-1.3 12.9-10.5 22.5-13.7 34.7 4.3-8.8 13.2-14.7 15.2-25.3 1.6-9 5.2-17.7 7.5-26.6.8-3.3.1-7.1 3.9-9.2.1 0-.9-3.3-2-4-4.5-2.6-9.6-4.3-14-7.1-11.1-7.3-18.3-17.7-22.1-30.4-.9-3.1-2.8-6.1-3.3-9.2-.4-2.6.6-5.4 1.2-8.1.2-1 1.3-1.7 1.6-2.7 4-16.1 11.5-30.1 24.5-40.8.8-.7 1.6-1.9 1.5-2.8-.1-.7-1.4-1.4-2.4-1.8-6.3-2.4-12.7-4.4-18.9-7-10.8-4.6-20.5-10.9-29.9-18-13-9.8-22.5-21.7-27.3-37.3-.8-2.7-2-4.4-5.3-1.8-10.3 8.1-22.5 12-35 15-6.4 1.5-13 2.5-19.5 3.8-6.5 1.3-12.9 2.6-19.4 3.8-1.3.2-2.7-.3-4.1-.2-7.1.7-14.3 1.6-21.4 2.4-2.1.2-4.3 0-6.3 0-.6 3.6-1 6.5-1.4 8.8 17.2 1.5 33.9 3 50.5 4.3 15.6 1.2 31.2 1.7 46.7 3.6 11.1 1.4 22 4.7 32.9 6.9 2.6.5 5.4.6 7.7.8 3.4 1.7 6.9 3.1 10 5.1 11 7 18.7 16.7 23.9 28.7 1.4 3.3.5 3.8-1.6 5.1-2.8-4.2-6.1-7.9-7.9-12.2-2.4-5.9-6.5-10-11.7-12.8-6.2-3.3-12.8-6.1-19.5-8.1-9.4-2.9-18.9-5.4-28.5-7.1-6.8-1.2-14-.8-20.9-1.5-13.8-1.3-27.5-3-41.3-4.2-13.2-1.1-26.4-1.7-40.5-2.6v5.3c0 6.6.1 13.2-.1 19.8 0 1.5-.9 2.9-1.4 4.4-1.4-.8-3-1.4-4.2-2.6-7.4-7.5-10.7-16.7-10.9-27.2-22.6 1.7-45 3.4-66.8 5.1.6 56.6.6 112.6.6 167.7zm576-161.5c-11 8.5-23.4 12.7-36 16.3-13.5 3.8-27.2 6.8-41 9.5-9.3 1.9-18.8 2.8-28.2 4.1-5.7.8-11.4 1.8-17.1 2-5.3.2-10.5-.7-15.8-.8-.9 0-2.8 1.4-2.7 2 .6 10.4-2.6 20-7.4 28.8-4.5 8.2-10.8 15.4-15.7 23.5-2.5 4.1-4 3.7-5.7 1.3 2-6.6 4.3-12.3 5.5-18.3 1-5.1.9-10.4 1.1-15.6.2-4.6.1-9.1.1-13.7-.1-6.7-1.2-7.9-7.8-7.8-3 0-5.9 1.3-8.9 1.4-9.3.2-18.6.1-27.3.1 1.8 8.6 3.4 17.7 5.5 26.6.6 2.7 2.4 5.3 4.2 7.4 4.2 4.8.9 16.7-5.5 19.6-2.1 1-4.2 2.5-5.5 4.4-2.7 3.8-4.1 8.7-7.4 11.8-5.6 5.5-10.4 12.5-19.4 13.4-1.2.1-3.3 2.2-3.1 3.2.7 5.2.8 10.9 3.1 15.4 2.8 5.5 7.4 10 11.3 14.9 2.3 2.8 4.4 3.7 8.1 1.2 4.8-3.2 7.5-6.6 6.9-12.7-.5-5.3 4.2-9.7 9.8-9.5 5.6.2 4.3 5.1 5.3 8.7.5-.1 1-.2 1.4-.3 3.9-.6 8.4-2.8 11.6-1.5 3.9 1.6 4.9 6.3 3.6 11.1-.7 2.5-.1 5.6 3.9 5.4 8.3-.4 16.7-1 25-1 9.8 0 19.5.7 29.3 1 8.6.2 17.3-.7 25.8.3 17.4 2 34.8 4.8 52.1 7.4 14.5 2.2 29.1 4.1 40.7 15.4.2-58.6.2-116.4.2-175zM92.9 128.6c4.3-.3 7.8-.7 11.2-.9 7.1-.4 14.2-.2 21.2-1.3 10.9-1.7 21.6-4.8 32.5-6.2 11.9-1.5 22.8-6 33.3-10.9 10.8-5 19.9-12.4 26.6-22.8 7.1-11.1 6.2-29.3-.1-38.8-7.9-11.9-19.9-18.5-33-22.5-19.3-5.9-39.4-7.7-59.5-7.9-12.3-.1-24.6.4-36.9 1.1-8.7.5-17.3 1.6-25.9 2.8-5.7.8-11.4 2.1-16.9 3.6-11.2 2.9-22.4 5.9-33.6 9.1-.9.2-1.9 1.8-2 2.8-.4 10.7-1 21.3-1 31.9 0 10.2 1.1 20.4.9 30.6-.1 11.7-.6 12.1 10 15.9 11 3.9 22.3 7.4 33.7 10.3 7.6 1.9 15.5 2.2 23.3 3.6 1.5.3 3.7 1.9 3.9 3.2 1.1 6.2 1.7 12.5 2.4 18.7.6 5.7 1.8 11.2 6.5 16.7.3-14.2-1-27.1 3.4-39zm199.7 266.8v-1.3c-4 0-8 .1-11.9 0-10.4-.5-18.8 2.6-24.2 12.4-2.8 5.1-9.3 6.7-14.6 4.1-8.2-4.2-16-9.2-24.3-13.2-2.4-1.1-6.3-.5-8.8.8-1.4.7-1.4 4.3-2 6.7-.6 2.2-.6 5-2 6.5-2.3 2.5-5.6 4.1-8.2 5.9 0 2.1.2 4.3 0 6.4-.6 5.1 2.8 6.8 6.5 7.5 6.2 1.1 12.5 2 18.7 2.2 19.4.6 38.8 1 58.2 1.1 9.1.1 18.1-.7 27.2-1 13.8-.4 27.5-.8 41.3-1.1 3.8-.1 7.7.2 11.5-.1 14.8-1.3 29.6-2.8 44.4-4.3 10.4-1 20.8-1.8 31.1-3.2 6.5-.9 12.8-2.7 19.2-4.4 14.3-3.9 28.5-7.9 42.7-12.2 1.9-.6 3.2-3.1 5.7-5.7-7.3-2.3-12.8-3.7-18.1-5.7-20.5-7.9-42.3-11.2-63.4-16.8-2.9-.8-4.6.5-5.6 3.4-1.2 3.5-2.2 7.5-4.6 10.1-6.8 7.2-14.1 6.4-23.4.5-1.9-1.2-4.2-2.1-6.4-2.2-6.6-.2-13.4-.9-19.7.5-4.1.9-9.5.6-11.6 7.2-3.4 10.7-20 10.2-27.1 3.9-3.4-3.1-8.2-5.1-12.8-6.5-2.8-.9-6.2.2-9.4.4-1.2.1-2.5.2-3.7.4-7.7 1.4-15.3 2.8-23.1 4-1 .1-2.2-1.3-3.3-2 1-.6 2-1.5 3.1-1.7 6.3-1 12.4-1.8 18.6-2.6zm85.3-178.2c.5-.1.9-.3 1.4-.4-2.2-8-3.2-16.6-6.9-23.8-8.5-16.7-25.8-19-41.8-21.1-6.3-.8-13.5-.5-20.6 1.2-11.5 2.7-21.3 6.6-29 15.8-10.1 12.2-17.3 25.1-15.8 41.9 2.1 23.1 17.2 36.4 35 41.5 16.6 4.7 33.9 5.2 51.2-2.1 12.8-5.4 19.3-14.1 23.2-26.2.7-2.2 1.5-4.4 4.9-3 4.6 1.8 5.2-2.4 5.7-5 .5-2.3 1.7-6-3.4-6.3-1.4-.1-3.2-3.2-3.8-5.2-.6-2.2-.1-4.8-.1-7.3zm166.4 108.9c-.4-.5-.7-.9-1.1-1.4-1.4-.2-2.7-.4-4.1-.5-7.9-.6-15.9-.8-23.7-1.7-6.5-.7-12.8-3-19.3-3.2-14.6-.5-29.2 0-43.8 0-13.1-.1-26.2-.3-39.4-.6-3-.1-4.8.6-6.5 3.5-4.1 7.2-6 7.8-12.4 5.8-8.1 8.5-12.2 22.3-28 19.1.3 2.7.4 4.9.9 6.9.3 1 1.3 2.7 2 2.7 5.6.2 11.3.1 16.5.1 1.7-3.8 3.2-7.4 5-10.8 2.7-5.3 7.5-7.4 13.2-7.5 5.8-.1 10 2.3 13.1 7.6 5.1 9 3.8 18.4 2.6 28.1 28.5 3.4 55.6 11.3 82.7 21.8.5-31.7 11.6-56.6 42.3-69.9zM189.2 453.7c.5-.3 3.8-1.4 3.8-2.7.3-4.5-.4-9-1-13.5-.9-5.9-2.5-11.8-3-17.7-.8-10.5-3.4-20.1-8.4-29.5-7.3-13.6-16.5-25.3-29.6-33.2-6.4-3.8-13.7-7.7-20.8-8.3-8.7-.7-18.3.5-26.4 3.8-11.4 4.6-21.1 12.4-23.8 25.7-.3 1.7-.2 4.3.9 5.4 3 3.3 6.2 7 10.1 8.9 10.3 5 21.2 8.9 31.6 13.8 7.6 3.6 15.6 6.9 20.6 14.5 5.2 7.9 7.5 16.3 7 25.8-.2 3.4.1 7.4 6 7.2 10.3-.5 20.6-.2 33-.2zm352-.6c.9-11.1 2.3-21.5 2.6-32 .2-6.5 1.7-12 5.9-16.9 3.6-4.2 6.8-8.9 10.9-12.5 4.4-4 9.9-6.8 14.5-10.7 4.1-3.5 11.5-3.3 12.3-10.4.3-2.8-.7-5.6-.6-8.4.1-3.4.8-6.8.9-10.1.1-7.4-2.3-13.5-9.9-16.3-1.7-.6-3.4-1.2-5-1.9-8.1-3.8-16.4-7.2-25.3-2.8-4 1.9-7.8 4.1-11.6 6.3-8.6 5.1-15 12.3-19.1 21.4-4.2 9.2-5.6 18.8-6.9 28.7-.9 6.7-1.2 11.1 3.4 17.7 8.6 12.5 11.6 27.2 2.8 41.9-2.1 3.6-.8 6.1 2.9 6.1 7.1-.1 14.5-.1 22.2-.1zm-27.8-33.4c-1.5-3.7-2.6-6.5-3.9-9.2-1.9-3.8-4.1-4.5-7.1-.6-1.3 1.7-3.4 3-5.4 3.8-4.9 2.1-9.9 3.9-14.9 5.6-7.1 2.3-14.1 4.7-21.3 6.4-8.9 2-17.8 3.5-26.8 4.7-14 1.9-28.1 3.6-42.2 5.1-8.2.9-16.5 1.5-24.7 2.1-7.8.6-15.6 1.2-23.5 1.5-3.9.2-7.9-.4-11.8-.2-3.2.1-6.4.9-9.6 1-12.3.2-24.6.4-36.8.4-19.6 0-39.2-.2-58.8-.4-.9 0-1.8-.3-2.7-.4-8.2-1.1-16.5-2.2-25.2-3.4 0 5.1.1 8.9 0 12.7-.1 2.8.8 4.4 4 4.4 4.2.1 8.5.9 12.7.8 20.4-.2 40.7-.8 61.1-.9 29.7-.2 59.5 0 89.2 0 42.8 0 85.6-.1 128.3.1 16.6.1 23.5-13.2 19.7-26.5-9.6 2.6-19.1 5.1-28.4 7.6.3.5 1.1 1.7 2.6 4-24 4.7-46.6 11.4-70.2 12.8-.2-.7-.3-1.5-.5-2.2 15.5-3 31-6 46.5-8.9-.1-.6-.2-1.2-.3-1.7-26.4 4-52.5 10.7-79.4 10.7-.1-.6-.2-1.3-.3-1.9 8.8-1.2 17.6-2.3 26.4-3.5-4.7-.4-9.1-.6-13.5-.3-3.9.3-7.7 1.3-11.5 1.9-1.3.2-2.6.5-3.9.5-.2 0-.8-2.1-.6-2.1 1.2-.6 2.5-1.3 3.8-1.4 12.3-1.2 24.6-1.9 36.8-3.5 12.8-1.7 25.6-4 38.4-6.3 9.6-1.7 19.3-3.5 28.8-5.7 8.2-1.9 16.3-4.5 25-7zm-299-192.5c-6.7-4.1-12.5-7.6-18.3-11.2-2.4-1.5-3.4-.7-5.3 1.3-2.4 2.7-5.2 6.5-9.9 2.6-.8-.7-2.6-.3-4.8-.4 6.4 10.4 2.9 17.4-6.6 22.5-.1-.1-.7-.9-1.5-1.2-4.3-1.9-9.9-.1-9.8 3.1.1 4.2 3.4 7.7 7.7 7.7 2.8 0 5.6-.8 8.5-1.2.2.3.4.7.7 1-2.1 2.2-4.1 4.3-6.7 7 0 4.1 5.8 9.9-2.1 14-.4.2-.5 1.4-.3 2 2 6.3-1.3 11.2-4.4 16 6.6 16.2 6.7 14.1 26.4 11.3-2.2-9 3.7-12 10.5-15.1 5.1-2.3 9.3-6.4 14-9.6-4.1-1.8-7.3-2.1-10.3-3-3-.9-4.9-3.7-2.7-6.3 3.3-3.8 7.2-7.3 11.5-9.8 3.8-2.2 8.5-2.9 12.7-4.2 1.9-4.6-11.9-6.8-.5-12.6-.6-.4-1.2-.8-1.8-1.1-4.1 2.1-8.2 4.1-13.2 6.6-.7-2-2.6-4.7-2.1-6.9.3-1.9 3.3-3.3 5.9-5.6 0-.4-.2-1.9-.2-2.7-2-.5-3.4-.7-4.7-1.2-.2-.1-.1-1.7.1-1.8 1.7-.5 3.6-.7 7.2-1.2zm373.2 154.4c-.5-.6-.9-1.1-1.4-1.7-4.8 3.2-9.5 6.4-14.3 9.5-8.7 5.5-17 12.3-19.3 22.1-2.9 12.5-3.1 25.6-4.2 38.5-.1.7 2.1 2.3 3.3 2.3 10.5.4 21 .5 31.5.7 2.8.1 4.5-.7 4.5-3.9-.1-22.4-.1-45-.1-67.5zM250.4 9.8H14.3c-4.4 0-6.1 1-5.2 6 .8 4.4.2 9 .2 13.4 12.5-3.3 24.9-7.1 37.5-9.9 10.4-2.3 21.1-3.7 31.7-5 8.3-1.1 16.6-1.7 25-2.2 5.5-.3 11-.2 16.4-.2 3 0 6 .5 9 .6 9 .3 18.3-.8 27 .9 14.2 2.9 28.9 4.6 42.1 11.4 1.5.8 3.2 1.5 4.6 2.5 5.9 4.5 11.7 9.1 17.1 13.3 9.8-9.8 19.9-20 30.7-30.8zm-53.1 303.5c-2.4.1-3.6-.1-4.5.3-3.9 1.6-7.7 3.6-11.6 5.1-4 1.6-7.2-4.6-11.6-1.2-.3.2-2.3-1.4-3.2-2.4-.9-1.2-1.5-2.7-2.2-4-.6.2-1.2.3-1.8.5.3 1.3.4 2.8 1 3.9 2.4 4.4 5.2 8.5 7.4 13 3 6.3 1.8 12.1-3.5 16.9-1.8 1.7-3.7 3.3-5.5 5 .8 4.9 1.8 9.3 6.1 13.1 3 2.7 4 2.2 6.4.1 9.7-8.7 19-6.8 24.6 4.7.5 1 2.3 2 3.5 2 3.4 0 7.3-3.3 9.8 1.8.1.3 1.9-.2 4.4-.6-6.6-19.8-12.9-39.1-19.3-58.2zM9.8 149.1c8.6-.8 16.3-1.6 24-2.2 9.1-.8 18.3-1.5 27.4-2.2 4.1-.3 8.3-.2 12.4-.9 3-.5 5-2.8 3.8-5.9-.6-1.5-2.6-3.1-4.3-3.5-7.8-1.7-15.7-3.2-23.6-4.4-13.4-2.1-26.3-5.6-37.8-13.1-.3-.2-1 .1-1.9.3v31.9zm155.5 185.6c-.4-2.3-.6-4.6-1.4-6.7-.8-2.3-2.3-4.3-3.3-6.5-1.8-4-8.4-8.2-12.4-6.9-5.4 1.7-10.7 3.7-15.6 6.5-6.3 3.6-6.8 15.5-.8 19.6 4.3 2.9 9.5 4.4 14.3 6.5 9.5 4 18.8-2.2 19.2-12.5zm143.9-12c-2.1-3.7-5.2-6-7-2.6-2.8 5.2-5 11.2-5.5 17.1-.4 4.8 4.3 7.9 9 8.2 5.5.3 11.7.8 15.3-4.7 3.4-5.4 6.4-11.2 8.8-17.1 3.1-7.8 2.8-7.9 9-7l-7.5-5.1c.3-1.3.5-2.8.8-4.5-12.3 1.6-5.9-7.6-8.3-12.6-1.3 11.3-7.3 19.7-14.6 28.3zm37.4 56.8c-1.8-5.3-4.6-10.8-5.6-16.6-1-6-4.1-9.6-9.3-11.2-4.4-1.3-11.6 3.3-13.7 8.3-4.3 10-4.1 20 1.4 29.5 1.6 2.8 3.9 3.6 7.5 1.1 5.8-4.1 12.4-7.1 19.7-11.1zm39.7-84.4c-.7-.2-1.3-.4-2-.6-.4 2-.9 4-1.3 6-.2.8.2 1.8 0 2.6-2.3 7.8-9.3 11.4-14.7 16.5-.5.5-2.2-.3-3.4-.5-1.5-.3-3-.5-4.5-.7-.2 1.6-.8 3.3-.5 4.8 1 3.9 2.1 7.9 3.8 11.5 1.3 2.6 3.3 6.2 5.6 6.6 2.8.6 7.1-.6 9.3-2.6 4.1-3.8 7-9 10.8-13.2 1.4-1.7 3.8-2.5 6.4-4.1-1.4-2.1-1-4.6 2.6-4.9v-7.4c-.9-.9-2.5-2.3-5.1-4.8 4.7-1 8.3-1.7 11.9-2.4-.1-.5-.2-.9-.3-1.4-3.4.7-6.9 1-10.1 2-7.4 2.4-7.8 2.3-8.1-5.8-.1-.5-.3-1.1-.4-1.6zM236 386.5c8 2.5 15.2 4.7 22.8 7 0 0 .8-.4.9-1 1.5-9.4 2.3-18.7-.3-28.1-1.5-5.3-6-6.6-9.6-6.9-3-.3-7.8 2.4-9.1 5-3.7 7.5-6.1 15.8-4.7 24zm176.6-9c3-7.8 3.3-16.9 1.8-26.2-.6-3.6-2.4-6.5-6.7-6.3-4.9.2-11-2.2-13.2 5-1.7 5.7-3.3 11.5-4.5 17.4-1 4.5 1.1 6.7 5.9 7.2 5.3.5 10.5 1.8 16.7 2.9zm-227.4-12.8c-2.4.4-4.7.4-6.7 1.3-3.5 1.5-5.6 3-1.9 7.4 5.6 6.4 10.3 13.6 12.6 22.2.4 1.4 3.9 3.3 4.6 2.9 2.4-1.4 6.8-1.5 5.6-6.3-1.4-5.5-2.6-11.1-4-16.5-1.9-7.5-5.6-11.1-10.2-11zm107.1-32.6c2-4.6 3.8-9.4 6.2-13.7 2-3.6 4.8-6.5 2.3-11.1-.5-1 1-3.1 1.5-4.7 1.2 1.4 2.5 2.7 3.4 4.3 1.4 2.2 2.6 4.6 4.2 7.6 3.2-4.9 5.6-8.6 8.1-12.4-.2-.6-.5-1.2-.7-1.8-4.6 7.7-7.5 3.4-10.8-.1-2.4-2.6-5.3-4.8-9-8.3-2 14.5-11.4 25.8-5.2 40.2zM200 314.2c3.2 6.1 6.5 12.2 9.5 18.3 2.3 4.6 6.6 2.8 8.7 1.6 1.8-1 2.9-5.5 2.3-8-.9-3.8-3.5-7.2-5.4-10.8-3.5-6.2-10.4-6.6-15.1-1.1zm118.7 36c-.3-.2-.5-.5-.8-.7-2.1 2.4-4.9 4.4-6.3 7.2-2.2 4.5-3.8 3-5.8.1-.8-1.2-1.3-2.6-2.4-3.5-2.1-1.8-4.4-3.7-6.9-4.7-.6-.2-2.6 2.8-3.9 4.4-.8 1-1.5 2.2-2.2 3.3-1.9 2.7-3.6 2.7-5.3-.2-.4-.8-.8-1.5-1.8-3.1-.9 5.6-.8 8.8 5.4 8.7 3.4 0 6.9 2.4 10.2 2.2 4.7-.4 9.9-1.3 13.8-3.8 2.9-2 4.1-6.6 6-9.9zm40.5-6.6c-1.4 3.6-2.2 5.9-3.3 8.1-1.4 2.9-2.8 5.5-5.8 1.1-1.8-2.7-4.2-5-6.4-7.5-4.9 4.2-4.2 7.7 4.5 19.5 1-.7 1.9-1.6 3-2 3.7-1.5 9.3-1.9 10.7-4.5 1.5-2.8-.8-7.7-1.5-11.7-.1-.6-.4-1-1.2-3zm-16.5-60.3c-10.9.7-21.4 1.4-33.2 2.2 4.7 1.8 9 4.9 12.7 4.4 4-.6 6 .5 8.3 2.9.9.9 2.4 1.9 3.6 1.8 2.8-.1 8.6-8.2 8.6-11.3zm5.2 103.6c-7.7 3.3-15 6.5-22.5 9.7 6.2 4.2 14.4 5.4 18.2 2.8 4.2-2.8 5.4-6.7 4.3-12.5zm42.3-7.9c-.5 6.8 1.3 10.6 6.2 11.8 5.8 1.4 10.9 1.4 13.1-6-6.3-1.9-12.6-3.8-19.3-5.8zm-170.6-1.2c-.3-.7-.7-1.4-1-2.1-5 2.2-10.8 3.5-14.6 7-1.7 1.6.6 7.6 1 11.6.7.2 1.5.3 2.2.5 4.2-5.8 8.3-11.4 12.4-17zm15.6 14.8c-1.1 6.6 1.8 9 6.7 10.5 8.9 2.7 10 2.7 14-3.4-6.9-2.4-13.6-4.7-20.7-7.1zM111.4 214.8c-5.4 3.7-7.3 18.4-4.2 26.8 2.7 7.1 5.3 10.2 8.3 9.8-5.3-11.4-9.5-23-4.1-36.6zm167.2 122.1c-.6.2-1.3.4-1.9.6 0 2.5.7 5.3-.1 7.6-1.5 4.1-3.9 7.9-5.6 12-.5 1.1.5 2.8.8 4.2 1.9-.9 5.1-1.4 5.5-2.7 1.6-5.2 2.6-10.6 3.3-16.1.1-1.8-1.3-3.7-2-5.6zm-11.2 47.4c2.3-1.5 4.1-2 4.3-2.9 1.3-4.9 2.2-10 3.3-15.4-2.1-.5-4.4-1.1-7.6-1.9v20.2zm109.4-5.6c2.4-5.3 4.5-9.9 6.7-14.7-8.1 1.2-12.8 4.6-11.7 8.9.5 2.4-.1 7.5 5 5.8zm-259.4-92.1c-4.2-7.5-.6-13.1 4.5-18.7-5.8-1.1-7.8 2.2-9.3 5.6-2 4.4-.1 9.9 4.8 13.1zm183.9-.7-.5.5c3.5 3.7 6.9 7.6 10.6 11 .9.8 3.1.6 4.6.2.4-.1.9-3.2.5-3.4-5-2.9-10.1-5.6-15.2-8.3zm-73.2 92.6c-6.9 1.1-7.1 6.5-8.4 10.7-.3 1 1.8 2.7 3 4.3 2-5.4 3.6-9.8 5.4-15zm-32.9 33.7c2.1-2 4-3.8 5.8-5.6-.6-1.8-1.2-3.4-1.9-5.3-2.2 1.8-4.1 3.3-6 4.8.7 2 1.2 3.6 2.1 6.1zM63.7 326.6c.7.3 1.5.6 2.2.9l6.3-15.9c-.5-.2-1.1-.5-1.6-.7-2.3 5.3-4.6 10.5-6.9 15.7zm167.2 31.9c.1.6.3 1.2.4 1.7 2.3-.8 4.7-1.5 7.5-2.5-1.6-3.1-2.6-5-3.6-6.9-.6.6-1.3 1.2-1.9 1.8-.8 2-1.6 4-2.4 5.9zm-4.4 7.8c1.1 2.3 2 4 3.5 7.2 1.8-3.5 3-5.8 4.2-8-.4-.4-.8-.8-1.1-1.2-2 .6-4 1.3-6.6 2zM61.4 315.1l-1.2-.3c-1.8 2.6-3.8 5.1-5.3 7.8-.5.8.2 2.3.3 3.5.8-.1 2.2 0 2.3-.4 1.5-3.4 2.6-7 3.9-10.6zm35.8 2.9c-2.3 4.4-4.5 8.8-7 13.5 3.6-.4 7-6.9 7-13.5zm86.5-9.4c-.5-.5-1-.9-1.5-1.4-1.7 1.2-3.3 2.3-5 3.5 1.1 1.2 2.2 2.5 3.3 3.7 1.1-1.9 2.2-3.9 3.2-5.8z"/>
  <path d="M595.2 1.1c-16.2 0-32.4-.1-48.7.1-13.3.1-26.6.7-40 .6-41.1-.1-82.2-.6-123.2-.6-22.4 0-44.8.5-67.2.5-22.2 0-44.4-.4-66.6-.6C232 1 214.4 1 196.8 1c-16.5 0-33.1-.1-49.6 0-19.1 0-38.2.3-57.3.3-16.2 0-32.5-.2-48.7-.3C30.3 1 19.3 1 8.3.8 4 .8 1.1 4 1.1 9.4c0 14.4-.1 28.7 0 43.1.2 20.9.5 41.8.7 62.7.1 11.7.2 23.3.1 35-.2 15.9-.6 31.9-.8 47.8-.1 15.3 0 30.6 0 45.9 0 24.9-.1 49.8.1 74.6.2 26.2.6 52.3.8 78.5.1 20 0 40 0 60v6h47.6c17.3 0 34.6 0 51.8-.1 21.8-.1 43.7-.3 65.5-.5 15.3-.1 30.5-.5 45.8-.5 22.3.1 44.5.6 66.8.6 34.2 0 68.5-.4 102.7-.5 55.6-.2 111.1-.2 166.7-.3 13.6 0 27.3-.1 40.9-.2 1.8 0 3.5-.5 5.3-.7-.1 1.8.7 4.2-2.7 3.3-.7-.2-1.4 0-2.2 0H-.1C0 309.3 0 154.7 0 0h590.3c1.7 0 3.3.7 4.9 1.1z" fill="#fff"/>
  <path d="M10.6 321.9V154.2c21.8-1.7 44.2-3.4 66.8-5.1.2 10.5 3.5 19.7 10.9 27.2 1.1 1.1 2.8 1.7 4.2 2.6.5-1.5 1.4-2.9 1.4-4.4.2-6.6.1-13.2.1-19.8v-5.3c14.1.9 27.3 1.5 40.5 2.6 13.8 1.2 27.5 2.9 41.3 4.2 7 .6 14.1.2 20.9 1.5 9.6 1.7 19.1 4.2 28.5 7.1 6.7 2.1 13.3 4.8 19.5 8.1 5.2 2.8 9.3 6.9 11.7 12.8 1.8 4.3 5.1 8 7.9 12.2 2.1-1.3 3-1.9 1.6-5.1-5.2-12-12.9-21.7-23.9-28.7-3.1-2-6.6-3.4-10-5.1-2.3-.2-5.1-.3-7.7-.8-11-2.3-21.8-5.6-32.9-6.9-15.5-1.9-31.2-2.3-46.7-3.6-16.7-1.3-33.3-2.8-50.5-4.3.4-2.3.8-5.2 1.4-8.8 2 0 4.2.2 6.3 0 7.1-.7 14.3-1.6 21.4-2.4 1.3-.1 2.8.4 4.1.2 6.5-1.2 12.9-2.6 19.4-3.8 6.5-1.3 13.1-2.2 19.5-3.8 12.5-3 24.7-6.9 35-15 3.3-2.6 4.5-.9 5.3 1.8 4.7 15.7 14.3 27.5 27.3 37.3 9.4 7.1 19.1 13.4 29.9 18 6.2 2.6 12.6 4.7 18.9 7 .9.4 2.3 1.1 2.4 1.8.1.9-.7 2.1-1.5 2.8-13 10.7-20.5 24.7-24.5 40.8-.2 1-1.4 1.7-1.6 2.7-.6 2.7-1.6 5.5-1.2 8.1.5 3.2 2.4 6.1 3.3 9.2 3.8 12.7 11 23.1 22.1 30.4 4.3 2.9 9.4 4.5 14 7.1 1.1.6 2.1 3.9 2 4-3.8 2.1-3.1 5.9-3.9 9.2-2.3 8.9-5.9 17.6-7.5 26.6-1.9 10.6-10.8 16.4-15.2 25.3 3.1-12.1 12.4-21.8 13.7-34.7-11 11.3-15.1 26.9-25.4 38.6 2.5-5.1 5-10.3 7.5-15.4 2.7-5.4 5.6-10.7 8.2-16.1 2.2-4.7 6.9-8.7 5.2-14.9-12.3 14.1-18.8 31.5-29.3 46.5 7.3-18.6 15.9-36.6 27.7-53-.7-.6-1.4-1.1-2-1.7-1.5 1.4-3.5 2.5-4.5 4.2-7.7 13.2-15.2 26.5-22.8 39.7-.5.9-1.5 1.6-2.2 2.4-.4-.3-.8-.5-1.2-.8 7.6-13.7 15.2-27.4 22.8-41.2.6-1.1 1.1-2.2 1.4-3.4.2-.7-.2-1.5-.3-2.3-.8.1-1.9 0-2.3.5-1.5 1.8-2.9 3.6-4.1 5.6-7.3 12.8-14.4 25.7-21.7 38.6-.6 1.1-1.5 2-2.7 2.8 3.6-10 6.3-20.3 13.8-28.5 3.6-4 5.6-9.4 8.3-14.2-.4-.4-.7-.9-1.1-1.3-1.5 1.1-3.6 1.8-4.4 3.3-6.2 10.8-12.2 21.7-18.3 32.6-1.5 2.6-2.9 5.3-4.8 7.6-.8 1-2.8 1-5.1 1.8-1.6 3.3-3.7 7.7-5.7 12.1-2.5-5.2-3.8-9.5.3-14.3 5.8-6.7 4.9-14.4-1.5-22.8-.5-.7-1.3-1.3-1.8-2-5.1-7.3-5.9-7.5-15.1-5.3-3.9-3-6.9-5.3-11.1-8.6 2-1.5 4.3-3.5 6.8-5.1 6.7-4.2 14.3-7.1 18-14.8 2.4-5 .7-7.8-4.9-8.1-2.2-.1-4.3 0-6.5 0-.3-.6-.6-1.2-.9-1.7 2.8-1.6 5.5-3.4 8.4-4.8 4.9-2.4 11.5-1.4 14.9-7 .4-.6 1.2-1.3 1.1-1.8-.6-4-1.8-8-2-12-.3-5.2-2.9-6.9-7.7-6.8-.7 0-2.2-1.8-2-2.5.5-2 1.1-4.8 2.5-5.5 4.3-2.2 7.8-4.4 8.3-10 .8-8.2-.9-14.8-8.1-19.7-6.2-4.2-12.1-6.9-19-1.3-1.3 1-4.2.9-5.9.2-9.1-3.5-18.2-7.2-27.1-11.2-15.2-6.8-30.3-7.6-43.5 3.5-13.6 11.4-24.3 25.4-24.8 43.9-.3 12 6.3 21.8 16.8 28.1-2.7 2.5-5.6 4.5-7.6 7.3-6 8.5-6 14.4 1.4 21.3 4.8 4.4 9.6 9.4 17.3 9.8 5.6.3 10.2-1.1 14.3-4.6 1-.9 3.3-2.1 3.8-1.7 4.1 3.7 8.3 3.8 12.9 0 .8 3 1.4 5.3 2.1 8-5 .3-8.9 1.2-10.4 6.9-.4 1.6-4.7 2.7-7.4 3.2-7.5 1.4-13 5.8-17.8 11.2-4.5 5.1-2.6 11-.2 17.8-7.2-1.9-13.6-3.6-19.1-5-1.2-7 5.7-12.3 3.7-19.1-.5-.2-1.1-.4-1.6-.6-2.6 3.8-5.2 7.6-7.9 11.5-.5-.3-1-.6-1.4-.8 2.3-4.6 5.2-9 6.7-13.8 1.3-4 5.1-8.3 3-12.8l-2.4-.3-16.5 27.9c-.6-.3-1.1-.6-1.7-1 5-11.1 10.1-22.2 14.9-33.4.6-1.4-.3-3.4-.5-5.2-1.3.9-3.2 1.4-3.8 2.6-4.5 8.7-8.6 17.6-13.1 26.4-1.8 3.5-4 6.9-6.1 10.3-.5-.3-1.1-.5-1.6-.8 2.3-5.3 4.6-10.6 7-15.8 2.5-5.5 6.3-10.8 7.4-16.5 1-5.4 7.8-9.5 2.8-16.2-7.5 15.3-14.9 30.6-22.4 45.9-.4-.1-.8-.3-1.2-.4.5-1.7.7-3.5 1.4-5.1 6.3-14.3 12.8-28.5 19.1-42.7 1.7-3.9 3.4-7.8 4.8-11.9.4-1.3-.2-2.9-.4-4.4-.7-.1-1.4-.3-2.1-.4l-27.9 56.4c-.7-.3-1.4-.7-2-1 4.5-9.8 9.2-19.5 13.3-29.4 4.1-9.8 10.5-18.6 13.4-28.9-.9-.4-1.8-.8-2.8-1.3-11.9 23-23.9 45.9-35.8 68.9-.6-.3-1.2-.5-1.8-.8 3.7-12 9.4-23.3 14.3-34.8 5-11.8 13.4-22 16.4-34.7-.7-.4-1.5-.8-2.2-1.1-10.7 20.8-21.4 41.7-32.1 62.5-.4-.2-.9-.5-1.3-.7 2.1-5.4 4.3-10.9 6.2-16.4.5-1.3.3-3 0-4.4-.4-1.7-.6-1.4 1.5-1.6.9-.1 2.4-1.8 2.3-2-2.6-4.4 1.4-6.7 3-9.7 7.8-14.3 15.7-28.5 23.5-42.8.6-1 .8-2.2 1.5-4-1.6.2-3.1.1-3.4.6-5.6 10.7-10.9 21.5-16.7 32.1-6.6 12.1-13.6 24-20.4 36l-1.8-.9c1.9-4.1 4-8.1 5.7-12.3 2.5-6 4-12.5 7.1-18.2 8.4-15.1 17.4-29.9 26.1-44.8.6-1 1.1-2.1 1.6-3.2-.3-.4-.6-.7-1-1.1-1.2 1-2.8 1.7-3.5 2.9-9.5 16.9-18.8 33.9-28.3 50.8-1.7 3-4 5.6-6.1 8.4-.4-.2-.9-.5-1.3-.7 2.9-6.6 5.7-13.3 8.7-19.9 2.9-6.5 6-12.8 8.5-19.5-7.2 7.5-9 19.1-21.3 23.8 4.9-10 9.2-19 13.6-28-10.5 7.5-16.9 25.4-12.5 32.3 2.6-2.8 5.1-5.5 7.5-8.2.3.3.6.5.9.8-3 5.5-6 11-8.8 16.6-1.6 3.1-3.9 6.6 1.5 9 1.5-1.3 3.1-2.8 4.7-4.2.2.1.5.3.7.4-2.6 5.1-5.3 10.2-7.8 15.3-.7 1.4-1 3-1 4.6 0 1.1.8 2.9 1.5 3.1 1.1.2 3-.3 3.7-1.2 2.1-2.5 3.8-5.4 5.7-8.1.5.2.9.5 1.4.7-3.3 7.4-6.7 14.8-10.6 23.6-8.3-.5-17.3-1.1-27.7-1.7zM229 312c4.2-6.2 8.3-12.2 12.4-18.1 2.5-3.6 4.6-9.4 7.9-10.3 6.2-1.7 6.3-6.7 8.7-10.5.5-.8-.2-2.3-.4-3.5-1.2.3-2.9.3-3.5 1-2.8 3.5-5.3 7.2-7.7 10.9-3.5 5.2-6.9 10.4-10.3 15.7-.4-.2-.9-.5-1.3-.7.6-1.3 1-2.7 1.7-4 5.4-9.8 10.9-19.5 16.2-29.4.7-1.2.5-2.9.8-4.4-1.5.7-3.6 1-4.3 2.1-6.4 9.6-12.6 19.4-18.9 29.1-1.8 2.7-3.5 5.4-5.3 8.1-.4-.2-.9-.5-1.3-.7 2.1-4.5 3.8-9.3 6.2-13.6 5.9-10.2 12.2-20.2 18.3-30.4.7-1.1.6-2.6.9-3.9-1.4.7-3.2 1-4.1 2.1-1.4 1.8-2.1 4.1-3.3 6.1-7.5 13.4-15.2 26.8-22.5 40.3-.7 1.3 1.1 4 1.7 6.1 1.5-.6 3.3-.9 4.5-1.9 1.2-1 1.8-2.6 2.7-3.9 1.8-2.7 3.5-5.5 5.3-8.2.5.3.9.6 1.4.9-1.6 3.4-3.1 6.9-4.9 10.3-3.9 7.2-3.9 7.2-.9 10.8zm27.5-23.9c-.7-.4-1.5-.8-2.2-1.2l-15 24.3c-.4-.3-.8-.6-1.2-.8 1.1-2.5 2.3-5 3.4-7.5-.5-.2-1-.5-1.5-.7-2.1 3.6-4.5 7-6.3 10.7-1.3 2.6-5.6 5.7-2 8.2 3.7 2.6 5.6-2.2 7.4-4.8 5.2-7.4 10.3-14.9 15.2-22.5 1.1-1.6 1.5-3.8 2.2-5.7zM62.6 232.6c.7.3 1.4.6 2 .9 3.1-3.8 6.5-7.4 9.3-11.5.9-1.3.1-3.7 0-5.5-.8-.1-1.6-.2-2.3-.3-3 5.5-6 11-9 16.4zM586.6 160.4v174.9c-11.6-11.3-26.3-13.1-40.7-15.4-17.3-2.7-34.7-5.5-52.1-7.4-8.5-1-17.2-.1-25.8-.3-9.8-.2-19.5-.9-29.3-1-8.3 0-16.7.6-25 1-4.1.2-4.6-3-3.9-5.4 1.3-4.8.2-9.5-3.6-11.1-3.1-1.3-7.7.9-11.6 1.5-.5.1-.9.2-1.4.3-1-3.5.4-8.5-5.3-8.7-5.6-.2-10.3 4.2-9.8 9.5.6 6.1-2.2 9.5-6.9 12.7-3.6 2.5-5.8 1.6-8.1-1.2-3.9-4.9-8.5-9.4-11.3-14.9-2.3-4.5-2.5-10.2-3.1-15.4-.1-1 1.9-3.1 3.1-3.2 9-.9 13.8-8 19.4-13.4 3.2-3.1 4.7-8 7.4-11.8 1.3-1.9 3.4-3.4 5.5-4.4 6.4-2.9 9.7-14.8 5.5-19.6-1.8-2.1-3.6-4.7-4.2-7.4-2.1-8.9-3.8-18-5.5-26.6 8.7 0 18 .1 27.3-.1 3-.1 5.9-1.3 8.9-1.4 6.7-.1 7.8 1.1 7.8 7.8 0 4.6.1 9.1-.1 13.7-.2 5.2-.1 10.5-1.1 15.6-1.2 6-3.4 11.7-5.5 18.3 1.6 2.4 3.2 2.8 5.7-1.3 4.9-8 11.2-15.2 15.7-23.5 4.8-8.8 8-18.4 7.4-28.8 0-.7 1.8-2.1 2.7-2 5.3.1 10.6 1 15.8.8 5.7-.2 11.4-1.2 17.1-2 9.4-1.3 18.9-2.3 28.2-4.1 13.7-2.8 27.5-5.7 41-9.5 12.3-3.5 24.8-7.7 35.8-16.2zM77.6 401.7c-5.8-4.1-11.7-8.1-17.3-12.4-2.7-2.1-4.8-5-7.4-7.2-1.1-.9-2.8-1-4.3-1.4-.4.6-.7 1.3-1.1 1.9 9.9 9.4 19.9 18.8 29.8 28.2l-.9 1.5c-3.7-2.3-7.7-4.3-11.1-7.1-8.9-7.4-17.6-15.1-26.4-22.7-.7.4-1.4.7-2.2 1.1.4 2 0 4.8 1.2 5.9 5.5 5.1 11.4 9.8 17.2 14.4 2.9 2.3 6 4.3 9 6.5-.2.5-.5 1-.7 1.5-4-1.7-8.2-2.9-11.8-5.1-6.1-3.6-11.8-7.5-16.3-13.5-3.5-4.5-9.1-7.4-13.8-11-.4.3-.9.6-1.3.9 3.3 4.6 6.6 9.1 10 13.7-.3.3-.5.7-.8 1-4.5-4-9-7.9-13.5-11.9-1.3 1.7-.4 5.1 2.7 7.5 5.9 4.6 11.9 9 17.9 13.4.6.4 1.3.9 1.9.9 8.5 0 15.1 5.1 22.5 8 3.2 1.3 6.3 1.5 8.4-2.3 4.6 2.1 9.1 4.2 14.3 6.6 1-1.2 2.5-2.9 4.3-4.9 4.4.2 9.6 8.9 15 .1 11.2 4.5 22.4 9 33.9 13.6.2-.9.7-2.6 1.1-4.3.7 0 1.5 0 2.2-.1 1.6 9.7 3.3 19.4 4.9 29.2H9.7c0-5.4-.1-11 0-16.6.2-10.7.8-21.3.9-32 0-10.1-.7-20.2-.7-30.3 0-14.3.3-28.6.4-42.9 0-4.1.8-5 7.2-4.2 16 1.9 32 4 47.9 6.3 12.2 1.7 24.3 3.5 36.5 5.6 3.8.7 7.5 2.4 12.6 4-4.8 1-8.2 1.4-11.4 2.3-14.5 4.2-23.7 14.4-29.3 27.7-2.7 6.4 1 12.4 5.5 17.2 1.9 2 4.3 3.4 6.9 5.4-.4.9-1 2.1-1.7 3.7-2.9-2.2-5.6-4.2-8.1-6.4-3.7-3.2-7.1-6.6-10.9-9.7-1.1-.8-3-.5-4.6-.8.4 1.5.4 3.5 1.4 4.4 4.2 3.7 8.7 6.9 12.9 10.5 1.1.9 1.6 2.6 2.3 3.9l.1-.1zM292.6 395.4c-6.1.8-12.3 1.6-18.4 2.5-1.1.2-2.1 1.1-3.1 1.7 1.1.7 2.3 2.1 3.3 2 7.7-1.2 15.4-2.7 23.1-4 1.2-.2 2.5-.3 3.7-.4 3.2-.2 6.6-1.3 9.4-.4 4.5 1.4 9.3 3.4 12.8 6.5 7.1 6.4 23.7 6.9 27.1-3.9 2.1-6.6 7.5-6.3 11.6-7.2 6.3-1.3 13.1-.7 19.7-.5 2.2.1 4.5 1 6.4 2.2 9.3 5.9 16.6 6.7 23.4-.5 2.4-2.6 3.4-6.6 4.6-10.1 1-2.9 2.6-4.2 5.6-3.4 21.1 5.6 42.9 8.9 63.4 16.8 5.3 2 10.8 3.4 18.1 5.7-2.5 2.6-3.8 5.1-5.7 5.7-14.2 4.3-28.4 8.3-42.7 12.2-6.3 1.7-12.7 3.5-19.2 4.4-10.3 1.4-20.7 2.2-31.1 3.2-14.8 1.5-29.6 3-44.4 4.3-3.8.3-7.7 0-11.5.1-13.8.3-27.5.7-41.3 1.1-9.1.3-18.1 1.1-27.2 1-19.4-.1-38.8-.5-58.2-1.1-6.3-.2-12.6-1.1-18.7-2.2-3.7-.7-7.2-2.5-6.5-7.5.3-2.1 0-4.2 0-6.4 2.6-1.8 5.8-3.4 8.2-5.9 1.4-1.5 1.4-4.3 2-6.5.6-2.3.6-5.9 2-6.7 2.5-1.3 6.4-1.9 8.8-.8 8.3 3.9 16.1 9 24.3 13.2 5.3 2.7 11.8 1 14.6-4.1 5.4-9.8 13.8-12.8 24.2-12.4 4 .2 7.9 0 11.9 0-.2.5-.2 1-.2 1.4z" fill="#fff"/>
  <path d="M377.9 217.2c0 2.4-.5 5 .2 7.3.6 2 2.4 5.1 3.8 5.2 5.1.3 3.9 3.9 3.4 6.3-.5 2.6-1.1 6.8-5.7 5-3.4-1.3-4.2.8-4.9 3-3.9 12.1-10.4 20.9-23.2 26.2-17.3 7.3-34.6 6.8-51.2 2.1-17.9-5.1-33-18.4-35-41.5-1.5-16.8 5.6-29.7 15.8-41.9 7.7-9.3 17.6-13.1 29-15.8 7.1-1.7 14.3-2 20.6-1.2 16 2.1 33.2 4.4 41.8 21.1 3.7 7.2 4.7 15.8 6.9 23.8-.5.1-1 .3-1.5.4zm-62.4 23.5c-2.6.5-7.8 1.7-13.1 2.7-4.1.8-5.3 3.9-4 6.8 1.1 2.5 3.9 5 6.6 6 2.9 1.2 6.4.8 9.6.9 6.6.3 13.3 3 19.8-1.1 3.9-2.6 4.6-5.3 1.8-9-4.7-6-11.5-5-20.7-6.3zm9.1-38.5c.9 1.4 1.8 2.6 2.6 3.8-.4.5-.8.9-1.1 1.4-4.7-3.2-9.5-6.4-15.1-10.2-.7 3-1.2 5.4-1.8 8-2-1-4.5-1.8-6.6-3.3-1.6-1.2-3.8-3.4-.6-4.9 2.8-1.3 6.1-1.5 9.1-2.2l6-1.5c-.1-.7-.3-1.3-.4-2-4.2-2.7-8.9-1.5-13.1 0-2.9 1-6.7 3-7.6 5.4-.7 2 1.6 5.8 3.5 8 6.4 7.2 15.5 6 23.9 7.1 4.8.6 8.4-1.2 11.2-5.9-3.8-.5-3.5-9.8-10-3.7zm-12.2 24c.2-3-1.6-7.5 4.9-6.2.7.1 2.4-1.7 2.4-2.7.1-.9-1.8-2.9-2.2-2.7-3.3 1.3-7.1 2.4-9.4 4.8-2.7 3-1.7 7 .8 10.3 2.7 3.4 6.2 3.4 10 2.7.8-.1 1.8-1.1 1.9-1.8.1-.8-.5-2.2-1.2-2.4-2-.8-4.3-1.2-7.2-2zm-20.5-6.1c3.6 2.8 6 4.6 8.3 6.4 1.1-1.5 3.2-3.1 3.2-4.6-.1-2-1.9-5.4-3-5.4-2.4 0-4.7 1.8-8.5 3.6zm40 8.6c2.3-3.3 4.6-5.3 4.9-7.5.2-1.5-2.5-3.3-4-5-1.7 1.5-4.8 2.9-4.8 4.4-.1 2.3 2.1 4.5 3.9 8.1zM544.3 326.1c-30.7 13.3-41.8 38.2-42.2 69.9-27.1-10.6-54.1-18.4-82.7-21.8 1.2-9.7 2.5-19.1-2.6-28.1-3-5.3-7.3-7.7-13.1-7.6-5.6.1-10.5 2.2-13.2 7.5-1.8 3.4-3.2 7-5 10.8-5.2 0-10.9.1-16.5-.1-.7 0-1.8-1.6-2-2.7-.5-2-.6-4.2-.9-6.9 15.7 3.1 19.9-10.6 28-19.1 6.4 2 8.2 1.4 12.4-5.8 1.7-2.9 3.5-3.5 6.5-3.5 13.1.3 26.2.5 39.4.6 14.6.1 29.2-.4 43.8 0 6.5.2 12.8 2.4 19.3 3.2 7.9.9 15.8 1.2 23.7 1.7 1.4.1 2.7.3 4.1.5.3.5.6.9 1 1.4zM189.2 453.7c-12.5 0-22.8-.3-33 .1-5.9.3-6.2-3.8-6-7.2.6-9.5-1.7-17.9-7-25.8-5-7.6-13-10.9-20.6-14.5-10.4-4.9-21.3-8.8-31.6-13.8-3.9-1.9-7.1-5.6-10.1-8.9-1.1-1.2-1.2-3.7-.9-5.4 2.7-13.3 12.4-21.1 23.8-25.7 8.1-3.3 17.7-4.5 26.4-3.8 7.1.6 14.4 4.5 20.8 8.3 13.2 8 22.4 19.6 29.6 33.2 5 9.4 7.6 19 8.4 29.5.4 5.9 2.1 11.8 3 17.7.6 4.5 1.3 9 1 13.5 0 1.4-3.3 2.5-3.8 2.8z" fill="#fff"/>
  <path d="M541.2 453.1c-7.6 0-15 .1-22.4 0-3.7 0-5-2.5-2.9-6.1 8.8-14.7 5.8-29.4-2.8-41.9-4.5-6.6-4.2-11-3.4-17.7 1.3-9.9 2.7-19.6 6.9-28.7 4.2-9.1 10.5-16.3 19.1-21.4 3.8-2.3 7.7-4.4 11.6-6.3 9-4.3 17.2-1 25.3 2.8 1.6.8 3.3 1.3 5 1.9 7.6 2.8 10 8.9 9.9 16.3 0 3.4-.8 6.8-.9 10.1 0 2.8.9 5.7.6 8.4-.8 7.1-8.2 6.9-12.3 10.4-4.6 3.9-10 6.7-14.5 10.7-4.1 3.7-7.3 8.3-10.9 12.5-4.2 4.9-5.7 10.4-5.9 16.9-.2 10.6-1.5 21-2.4 32.1z" fill="#fff"/>
  <path d="M513.4 419.7c-8.7 2.5-16.8 5.1-25.1 7-9.5 2.2-19.2 4-28.8 5.7-12.8 2.3-25.5 4.6-38.4 6.3-12.2 1.6-24.5 2.3-36.8 3.5-1.3.1-2.6.8-3.8 1.4-.1.1.4 2.1.6 2.1 1.3 0 2.6-.3 3.9-.5 3.8-.7 7.7-1.6 11.5-1.9 4.4-.3 8.9-.1 13.5.3-8.8 1.2-17.6 2.3-26.4 3.5.1.6.2 1.3.3 1.9 26.9.1 53-6.7 79.5-10.8.1.6.2 1.2.3 1.7-15.5 3-31 6-46.5 8.9.2.7.3 1.5.5 2.2 23.6-1.4 46.3-8.1 70.2-12.8-1.5-2.3-2.3-3.5-2.6-4 9.3-2.5 18.8-5.1 28.4-7.6 3.8 13.3-3.1 26.6-19.7 26.5-42.8-.2-85.6-.1-128.3-.1-29.7 0-59.5-.1-89.2 0-20.4.1-40.7.7-61.1.9-4.2 0-8.5-.8-12.7-.8-3.2-.1-4-1.6-4-4.4.1-3.8 0-7.6 0-12.7 8.8 1.2 17 2.3 25.2 3.4.9.1 1.8.4 2.7.4 19.6.1 39.2.3 58.8.4 12.3 0 24.6-.1 36.8-.4 3.2-.1 6.4-.9 9.6-1 3.9-.1 7.9.4 11.8.2 7.8-.3 15.7-.9 23.5-1.5 8.2-.6 16.5-1.2 24.7-2.1 14.1-1.6 28.1-3.2 42.2-5.1 9-1.2 18-2.7 26.8-4.7 7.2-1.6 14.3-4.1 21.3-6.4 5-1.6 10-3.5 14.9-5.6 2-.8 4.1-2.1 5.4-3.8 3-3.9 5.1-3.2 7.1.6 1.4 2.8 2.4 5.6 3.9 9.3zM214.4 227.2c-3.6.5-5.5.7-7.4 1.1-.2 0-.3 1.7-.1 1.8 1.3.5 2.7.7 4.7 1.2.1.8.2 2.3.2 2.7-2.5 2.3-5.5 3.7-5.9 5.6-.4 2.3 1.4 4.9 2.1 6.9 5-2.5 9.1-4.6 13.2-6.6.6.4 1.2.8 1.8 1.1-11.4 5.8 2.4 8 .5 12.6-4.1 1.3-8.9 2-12.7 4.2-4.3 2.5-8.2 6.1-11.5 9.8-2.2 2.5-.4 5.3 2.7 6.3 3 .9 6.2 1.2 10.3 3-4.6 3.3-8.9 7.3-14 9.6-6.8 3.2-12.8 6.2-10.5 15.1-19.7 2.8-19.8 4.9-26.4-11.3 3.1-4.7 6.4-9.6 4.4-16-.2-.6 0-1.8.3-2 7.9-4.1 2.1-10 2.1-14 2.6-2.7 4.6-4.9 6.7-7-.2-.3-.4-.7-.7-1-2.8.4-5.6 1.1-8.5 1.2-4.2 0-7.5-3.5-7.7-7.7-.1-3.2 5.4-5.1 9.8-3.1.8.3 1.3 1.1 1.5 1.2 9.6-5.1 13-12.1 6.6-22.5 2.2.2 4-.3 4.8.4 4.6 3.8 7.5.1 9.9-2.6 1.8-2 2.9-2.8 5.3-1.3 6 3.7 11.8 7.2 18.5 11.3zM587.6 381.6v67.6c0 3.2-1.6 4-4.5 3.9-10.5-.3-21-.4-31.5-.7-1.2 0-3.3-1.6-3.3-2.3 1.1-12.9 1.2-26 4.2-38.5 2.3-9.8 10.7-16.6 19.3-22.1 4.8-3.1 9.6-6.3 14.3-9.5.6.5 1.1 1.1 1.5 1.6zM250.4 9.8c-10.8 10.8-20.9 21-30.8 30.8-5.4-4.2-11.2-8.8-17.1-13.3-1.4-1-3-1.7-4.6-2.5-13.2-6.7-27.9-8.4-42.1-11.4-8.7-1.8-18-.7-27-.9-3-.1-6-.6-9-.6-5.5-.1-11-.2-16.4.2-8.3.5-16.7 1.1-25 2.2-10.6 1.4-21.2 2.7-31.7 5-12.6 2.8-25 6.5-37.5 9.9 0-4.4.6-9.1-.2-13.4-.9-4.9.8-6 5.2-6 30.1.1 60.2 0 90.3 0h145.9zM197.3 313.3c6.3 19.1 12.7 38.4 19.3 58.3-2.6.4-4.3.9-4.4.6-2.6-5.1-6.4-1.8-9.8-1.8-1.2 0-3-1-3.5-2-5.6-11.6-15-13.4-24.6-4.7-2.4 2.1-3.3 2.6-6.4-.1-4.3-3.8-5.3-8.2-6.1-13.1 1.9-1.7 3.7-3.4 5.5-5 5.3-4.8 6.5-10.6 3.5-16.9-2.1-4.5-5-8.6-7.4-13-.6-1.2-.7-2.6-1-3.9.6-.2 1.2-.3 1.8-.5.7 1.4 1.2 2.9 2.2 4 .9 1.1 2.9 2.7 3.2 2.4 4.4-3.4 7.7 2.8 11.6 1.2 3.9-1.6 7.7-3.5 11.6-5.1.9-.5 2.1-.3 4.5-.4zm4.7 25.5c0-.2.6-2.4-.1-3.4-1.5-1.8-4.9-4.7-5.6-4.2-4.7 3.2-9 2-14.4-1.2-.2 3.4-.4 5.7-.5 8.1 2 .1 4.1.3 6.1.3 4.5.3 9 .3 14.5.4zm-20.5-18.5c-.7.8-2 1.5-2.1 2.4-.1 2.1.4 4.1.6 6.2 1.5-.3 3.1-.7 4.6-.8 2.7-.2 5.4-.6 8-.3 4.4.6 5.3-.2 3.8-4.4-.6-1.6-1.5-3.1-2.3-4.6-8.6 3.8-8.6 3.8-12.6 1.5zM9.8 149.1v-31.9c.9-.2 1.6-.5 1.9-.3 11.5 7.5 24.4 11 37.8 13.1 7.9 1.2 15.8 2.7 23.6 4.4 1.7.4 3.7 2 4.3 3.5 1.2 3.1-.8 5.4-3.8 5.9-4.1.7-8.3.6-12.4.9-9.1.7-18.3 1.4-27.4 2.2-7.7.6-15.4 1.4-24 2.2z" fill="#fff"/>
  <path d="M165.3 334.7c-.4 10.4-9.8 16.5-19.3 12.4-4.8-2.1-10-3.6-14.3-6.5-6-4.1-5.5-16 .8-19.6 4.9-2.8 10.3-4.8 15.6-6.5 4-1.3 10.7 2.9 12.4 6.9 1 2.2 2.5 4.2 3.3 6.5.9 2.2 1.1 4.5 1.5 6.8zM309.2 322.7c7.3-8.5 13.3-17 14.6-28.3 2.4 5-4 14.2 8.3 12.6-.3 1.7-.6 3.2-.8 4.5l7.5 5.1c-6.2-.9-5.8-.8-9 7-2.4 5.9-5.4 11.7-8.8 17.1-3.5 5.5-9.8 5-15.3 4.7-4.7-.3-9.5-3.4-9-8.2.5-5.9 2.7-11.9 5.5-17.1 1.8-3.4 4.9-1.1 7 2.6zM346.6 379.5c-7.3 4-13.9 7-19.7 11-3.6 2.5-5.8 1.7-7.5-1.1-5.6-9.5-5.7-19.5-1.4-29.5 2.1-5 9.3-9.6 13.7-8.3 5.3 1.6 8.3 5.2 9.3 11.2 1 5.9 3.7 11.4 5.6 16.7zM386.3 295.1c.1.5.3 1.1.3 1.6.4 8 .7 8.2 8.1 5.8 3.3-1.1 6.7-1.4 10.1-2 .1.5.2.9.3 1.4-3.6.7-7.1 1.5-11.9 2.4 2.7 2.5 4.2 3.9 5.1 4.8v7.4c-3.6.4-4 2.9-2.6 4.9-2.6 1.6-4.9 2.5-6.4 4.1-3.7 4.3-6.6 9.4-10.8 13.2-2.2 2-6.4 3.2-9.3 2.6-2.3-.5-4.3-4-5.6-6.6-1.8-3.6-2.8-7.6-3.8-11.5-.4-1.5.3-3.2.5-4.8 1.5.2 3 .5 4.5.7 1.2.2 2.9 1 3.4.5 5.3-5.1 12.4-8.7 14.7-16.5.2-.8-.1-1.7 0-2.6.4-2 .9-4 1.3-6 .8.2 1.5.4 2.1.6zm-2.8 20.2c3.6 2.5 6.5.7 9.2-1.2.4-.3-.1-1.8-.2-2.8-2.5.7-5 1.3-7.5 2.2-.6.1-.9 1-1.5 1.8zM236 386.5c-1.4-8.2 1-16.4 4.6-24 1.3-2.7 6.2-5.3 9.1-5 3.6.3 8.2 1.6 9.6 6.9 2.6 9.4 1.8 18.7.3 28.1-.1.6-.9 1-.9 1-7.5-2.4-14.7-4.6-22.7-7zM412.6 377.5c-6.1-1.1-11.4-2.4-16.7-3-4.8-.5-6.9-2.7-5.9-7.2 1.3-5.9 2.8-11.7 4.5-17.4 2.2-7.1 8.3-4.7 13.2-5 4.3-.2 6.1 2.8 6.7 6.3 1.5 9.4 1.1 18.5-1.8 26.3zM185.2 364.7c4.6-.1 8.2 3.6 10.2 10.9 1.5 5.5 2.7 11 4 16.5 1.2 4.8-3.2 4.9-5.6 6.3-.8.5-4.3-1.5-4.6-2.9-2.2-8.6-7-15.8-12.6-22.2-3.8-4.3-1.6-5.9 1.9-7.4 2-.8 4.3-.8 6.7-1.2z" fill="#fff"/>
  <path d="M292.3 332.1c-6.2-14.3 3.2-25.7 5.2-40.1 3.8 3.4 6.6 5.7 9 8.3 3.3 3.5 6.2 7.8 10.8.1.2.6.5 1.2.7 1.8-2.4 3.7-4.9 7.5-8.1 12.4-1.6-3-2.8-5.4-4.2-7.6-1-1.5-2.3-2.8-3.4-4.3-.6 1.6-2 3.7-1.5 4.7 2.4 4.6-.4 7.5-2.3 11.1-2.5 4.2-4.2 9-6.2 13.6zM200 314.2c4.7-5.6 11.6-5.1 15.1 1.2 2 3.5 4.5 7 5.4 10.8.6 2.5-.5 7.1-2.3 8-2.2 1.1-6.5 3-8.7-1.6-3-6.2-6.3-12.2-9.5-18.4zM337.6 330.8c.9-1.5 1.6-3.1 2.6-4.4 2.5-3 5.6-5.5 3.9-10.1-.2-.5.2-1.4.6-2 3.7-6.7 3.5-8.1-2.2-12 1.2-2.1 2.4-4.2 4.1-7.2 1.5 3.7 3 6.9 4 10.2 1.7 5.6 3.2 11.2 4.3 17 .4 2.3-.3 4.8-.9 7.2-.7 2.7-1.9 5.2-3 8.2-4.5-2.8-6.6-9.7-13.5-6.9h.1zM318.7 350.2c-1.9 3.4-3 8-5.9 9.8-3.9 2.5-9 3.4-13.8 3.8-3.3.3-6.8-2.2-10.2-2.2-6.1.1-6.3-3.2-5.4-8.7.9 1.6 1.4 2.4 1.8 3.1 1.6 3 3.4 2.9 5.3.2.7-1.1 1.4-2.2 2.2-3.3 1.3-1.6 3.2-4.6 3.9-4.4 2.5 1 4.8 2.9 6.9 4.7 1 .9 1.6 2.4 2.4 3.5 2 2.8 3.6 4.3 5.8-.1 1.4-2.8 4.2-4.8 6.3-7.2.2.3.4.5.7.8zM359.2 343.6c.8 2 1.1 2.4 1.2 2.9.7 4 3.1 8.9 1.5 11.7-1.4 2.6-7 3-10.7 4.5-1.1.4-2 1.4-3 2-8.7-11.8-9.4-15.3-4.5-19.5 2.1 2.5 4.5 4.8 6.4 7.5 3 4.4 4.5 1.8 5.8-1.1 1.1-2.1 1.9-4.4 3.3-8zM342.7 283.3c-.1 3.1-5.9 11.2-8.5 11.3-1.2.1-2.7-.9-3.6-1.8-2.4-2.4-4.3-3.5-8.3-2.9-3.7.5-8-2.6-12.7-4.4 11.7-.7 22.2-1.5 33.1-2.2zM347.9 386.9c1.1 5.8-.1 9.7-4.3 12.5-3.9 2.6-12 1.4-18.2-2.8 7.5-3.2 14.8-6.4 22.5-9.7zM390.2 379c6.7 2 13 3.9 19.3 5.8-2.1 7.4-7.3 7.4-13.1 6-4.9-1.2-6.7-5-6.2-11.8zM219.6 377.8c-4.1 5.6-8.2 11.3-12.3 16.9-.7-.2-1.5-.3-2.2-.5-.5-4-2.8-9.9-1-11.6 3.8-3.5 9.6-4.8 14.6-7 .2.7.6 1.4.9 2.2zM235.2 392.6c7.1 2.4 13.8 4.7 20.7 7.1-4.1 6.1-5.1 6.1-14 3.4-4.9-1.5-7.8-3.9-6.7-10.5zM111.4 214.8c-5.4 13.6-1.2 25.2 4 36.6-2.9.4-5.6-2.7-8.3-9.8-3.1-8.4-1.1-23.1 4.3-26.8zM278.6 336.9c.7 1.9 2.2 3.8 1.9 5.6-.7 5.4-1.7 10.9-3.3 16.1-.4 1.3-3.6 1.8-5.5 2.7-.3-1.4-1.2-3.1-.8-4.2 1.7-4.1 4.1-7.8 5.6-12 .8-2.3.1-5 .1-7.6.7-.2 1.4-.4 2-.6zM267.4 384.3v-20.2c3.2.8 5.5 1.4 7.6 1.9-1.1 5.4-2 10.5-3.3 15.4-.2 1-2 1.5-4.3 2.9zM376.8 378.7c-5.1 1.7-4.5-3.3-5.1-5.8-1-4.3 3.7-7.7 11.7-8.9-2.1 4.8-4.2 9.4-6.6 14.7z" fill="#fff"/>
  <path d="M337.4 330.7c-1.7 4.8-3.5 9.6-5.6 15.4-2.3-2.1-3.8-3.5-5.2-4.8 1.8-5.7 4-10.6 11-10.4 0-.1-.2-.2-.2-.2zM117.4 286.6c-4.9-3.2-6.8-8.7-4.8-13.1 1.5-3.4 3.5-6.7 9.3-5.6-5.2 5.5-8.7 11.2-4.5 18.7zM301.3 285.9c5.1 2.7 10.2 5.4 15.2 8.4.4.3 0 3.3-.5 3.4-1.5.4-3.7.6-4.6-.2-3.7-3.5-7.1-7.3-10.6-11 .2-.3.4-.4.5-.6zM228.1 378.5c-1.8 5.1-3.4 9.5-5.4 15-1.2-1.6-3.3-3.3-3-4.3 1.3-4.1 1.5-9.6 8.4-10.7zM195.2 412.2c-.9-2.5-1.4-4.2-2-6.1 1.9-1.5 3.7-3 6-4.8.7 2 1.3 3.5 1.9 5.3-1.9 1.8-3.8 3.6-5.9 5.6zM63.7 326.6c2.3-5.2 4.6-10.4 6.8-15.6.5.2 1.1.5 1.6.7l-6.3 15.9c-.6-.4-1.3-.7-2.1-1zM230.9 358.5c.8-1.9 1.6-3.9 2.4-5.8.6-.6 1.3-1.2 1.9-1.8 1 1.9 2 3.8 3.6 6.9-2.9.9-5.2 1.7-7.5 2.5-.1-.6-.3-1.2-.4-1.8zM226.5 366.3c2.6-.8 4.6-1.4 6.6-2 .4.4.8.8 1.1 1.2-1.2 2.3-2.4 4.5-4.2 8-1.5-3.1-2.4-4.8-3.5-7.2zM61.4 315.1c-1.3 3.5-2.4 7.1-3.8 10.6-.2.4-1.5.3-2.3.4-.1-1.2-.8-2.7-.3-3.5 1.6-2.7 3.5-5.2 5.3-7.8.3.1.7.2 1.1.3zM97.2 318c0 6.6-3.4 13.1-7 13.5 2.5-4.8 4.8-9.1 7-13.5zM183.7 308.6c-1.1 1.9-2.1 3.9-3.2 5.8-1.1-1.2-2.2-2.5-3.3-3.7 1.7-1.2 3.3-2.3 5-3.5.5.5 1 .9 1.5 1.4zM77.5 401.8c4.4 2.5 8.8 5 13.4 7.7-3.2 1.6-11.6-3.8-13.3-7.8l-.1.1z" fill="#fff"/>
  <path d="M229 312c-3-3.6-3-3.6.9-10.7 1.8-3.3 3.3-6.8 4.9-10.3-.5-.3-.9-.6-1.4-.9-1.7 2.7-3.5 5.5-5.3 8.2-.9 1.3-1.5 3-2.7 3.9-1.2 1-3 1.3-4.5 1.9-.6-2.1-2.4-4.7-1.7-6.1 7.3-13.6 15-26.9 22.5-40.3 1.1-2 1.8-4.3 3.3-6.1.9-1.1 2.7-1.4 4.1-2.1-.3 1.3-.2 2.8-.9 3.9-6.1 10.2-12.4 20.2-18.3 30.4-2.5 4.3-4.2 9-6.2 13.6.4.2.9.5 1.3.7 1.8-2.7 3.5-5.4 5.3-8.1 6.3-9.7 12.4-19.5 18.9-29.1.8-1.2 2.9-1.4 4.3-2.1-.2 1.5-.1 3.1-.8 4.4-5.3 9.8-10.8 19.6-16.2 29.4-.7 1.3-1.1 2.6-1.7 4 .4.2.9.5 1.3.7 3.4-5.2 6.8-10.5 10.3-15.7 2.5-3.7 5-7.4 7.7-10.9.6-.8 2.3-.7 3.5-1 .2 1.2.9 2.7.4 3.5-2.4 3.8-2.5 8.8-8.7 10.5-3.3.9-5.4 6.7-7.9 10.3-4.1 5.8-8.1 11.8-12.4 18zM256.5 288.1c-.7 1.9-1.1 4.1-2.2 5.7-4.9 7.6-10 15.1-15.2 22.5-1.8 2.5-3.7 7.4-7.4 4.8-3.6-2.5.7-5.6 2-8.2 1.8-3.7 4.2-7.2 6.3-10.7.5.2 1 .5 1.5.7-1.1 2.5-2.3 5-3.4 7.5.4.3.8.6 1.2.8l15-24.3c.7.4 1.5.8 2.2 1.2zM62.6 232.6c3-5.5 6-10.9 9-16.4.8.1 1.6.2 2.3.3 0 1.9.8 4.3 0 5.5-2.8 4-6.1 7.7-9.3 11.5-.7-.2-1.4-.6-2-.9zM315.5 240.7c9.2 1.3 15.9.3 20.6 6.3 2.8 3.6 2.2 6.4-1.8 9-6.5 4.2-13.1 1.5-19.8 1.1-3.2-.2-6.7.2-9.6-.9-2.6-1.1-5.5-3.5-6.6-6-1.3-2.9-.1-6 4-6.8 5.4-1 10.6-2.2 13.2-2.7zM324.6 202.2c6.5-6.1 6.2 3.2 9.9 3.7-2.8 4.7-6.4 6.5-11.2 5.9-8.4-1.1-17.5 0-23.9-7.1-1.9-2.2-4.3-6-3.5-8 .9-2.4 4.6-4.4 7.6-5.4 4.2-1.5 8.8-2.6 13.1 0 .1.7.3 1.3.4 2l-6 1.5c-3.1.7-6.4.9-9.1 2.2-3.1 1.5-1 3.8.6 4.9 2.1 1.5 4.6 2.3 6.6 3.3.6-2.7 1.1-5 1.8-8 5.7 3.8 10.4 7 15.1 10.2.4-.5.8-.9 1.1-1.4-.7-1.2-1.5-2.4-2.5-3.8zM312.4 226.2c2.9.7 5.2 1.2 7.3 2 .7.3 1.3 1.7 1.2 2.4-.1.7-1.1 1.7-1.9 1.8-3.7.7-7.3.7-10-2.7-2.6-3.3-3.6-7.3-.8-10.3 2.2-2.4 6.1-3.5 9.4-4.8.3-.1 2.2 1.8 2.2 2.7-.1 1-1.8 2.8-2.4 2.7-6.6-1.3-4.7 3.2-5 6.2zM291.9 220.1c3.8-1.8 6.1-3.6 8.4-3.6 1.1 0 2.9 3.4 3 5.4.1 1.5-2 3.1-3.2 4.6-2.2-1.8-4.5-3.6-8.2-6.4zM331.9 228.7c-1.9-3.6-4-5.9-3.9-8.1.1-1.5 3.1-3 4.8-4.4 1.4 1.7 4.1 3.5 4 5-.2 2.2-2.5 4.2-4.9 7.5zM202 338.8c-5.4-.1-10-.2-14.6-.3-2-.1-4.1-.2-6.1-.3.2-2.4.3-4.8.5-8.1 5.4 3.2 9.7 4.4 14.4 1.2.7-.5 4.1 2.4 5.6 4.2.8 1 .2 3.1.2 3.3zM181.5 320.3c4 2.3 4 2.3 12.7-1.5.8 1.5 1.8 3 2.3 4.6 1.5 4.2.5 5-3.8 4.4-2.6-.4-5.3 0-8 .3-1.6.1-3.1.5-4.6.8-.2-2.1-.7-4.2-.6-6.2 0-.9 1.3-1.6 2-2.4zM383.5 315.3c.6-.8 1-1.7 1.5-1.9 2.5-.8 5-1.5 7.5-2.2.1 1 .6 2.5.2 2.8-2.7 2-5.6 3.8-9.2 1.3z"/>
  <text transform="translate(32.324 88.179)" font-family="Peanuts" font-size="36">AMAZING!</text>
  <text transform="translate(258.174 44.325)"><tspan x="0" y="0" font-family="Peanuts" font-size="32">AND HE READS ALL</tspan><tspan x="0" y="38.4" font-family="Peanuts" font-size="32">THOSE LETTERS ONE</tspan><tspan x="0" y="76.8" font-family="Peanuts" font-size="32">BY ONE TO SEE WHAT</tspan><tspan x="0" y="115.2" font-family="Peanuts" font-size="32">THE KIDS WANT..</tspan></text>
</svg>
