<svg xmlns="http://www.w3.org/2000/svg" viewBox="0 0 595.3 465.3" xml:space="preserve">
  <path d="M595.3 318.7v146.6h-62.2c-1.6-.3-3.2-.7-4.9-.8-20.1-.1-40.2-.1-60.3-.2-19 0-38-.1-57-.2-37.4-.1-74.9 0-112.3-.2-15.7-.1-31.4-.6-47-.7-23-.1-46 .1-68.9 0-55-.2-110-.5-165-1-1.9 0-3.7-.8-5.5.5-.1 0-.3-.1-.5-.2.2-.8.3-1.5.7-3.1-2.1 1.5-3.4 2.4-5.2 3.6v-2.3H.1v-27.8c.4-3.9 1-7.9 1.1-11.8.3-8.6.3-17.3.5-25.9.1-5.2.5-10.4.5-15.5 0-4.8-.3-9.7-.5-14.5-.1-2.9-.1-5.9-.6-8.8-.4-2.2 1.9-3.7.5-6.8-1.7-3.7-.4-8.8-.4-13.2 0-13.9.1-27.8.1-41.8 0-7.1 1.2-14.1.8-21.3-.8-12.3-.2-24.8-.1-37.2 0-11.4.1-22.7.2-34.1.1-6.2.2-12.5.7-18.7.4-4.9-1.3-9.7 1.3-14.8 1.2-2.4-.6-6.4-1.1-9.7-2.2-13.6 1.2-27.2-.3-40.8-.5-4.5.6-9.2.6-13.9C3.3 87.5 3 70.8 3 54 2.9 36.4 3 18.9 3 .9c10 .6 19.2.5 28.1 3.3.6.3 1.2.7 1.9 1.1.2-.7.3-1.3.5-2H39c3.8-.8 7.6-2.1 11.4-2.2C65 .9 79.7.9 94.3 1c26.9.2 53.9.6 80.8.7 19.2 0 38.4-.7 57.6-.6 18.9 0 37.9.6 56.8.8 14.2.1 28.5.2 42.7.1 18.4-.2 36.8-.9 55.2-.9C453.7.9 520.2 1 586.6 1c7.6 0 7.6 0 7.6 8 .1 101.1.3 202.1.4 303.2 0 2.1.5 4.3.7 6.5zM403.7 438.2l27.5-.6h5.1c-9.6-1.1-19.1-1.2-28.7-1.1-1.3 0-2.6 1.1-3.9 1.7-1-.5-2-1.7-3-1.6-5.7.2-11.5.8-17.2 1-14 .5-28 .8-42 1.1-17.1.4-34.3.8-51.4 1.1-3.4.1-6.7-.1-10.1.1-13.5 1-26.9 2.1-40.4 3.2-6.7.6-13.4 1.9-20.1 1.8-9.3-.2-18.8 2.6-26.5-.8-1.6 2.6-2.5 6.1-4.6 6.9-3.7 1.6-8.1.4-8.3-4.3-.5-12.1-.2-24.2-.2-36.8-6.5 0-12.2 0-18 .1-.7 0-1.7.6-2.1 1.3-5.2 9-10.3 18-15.3 26.7h27.2c-1.1 3.8-5.9 1.7-7.7 5.4-.6 1.2-6.9.4-10.3-.6-5.8-1.6-11.4-4.1-16.6 1.5-.7.8-1.8 1.2-2.7 1.8-5 3.2-8 2.3-8.8-3.4-.8-5.4-3.1-9.7-7-13.2-2.2-1.9-5.1-3.2-7-5.4-2.7-3-4.8-6.6-7.5-10.3-3.3 6.8-6.1 12.5-9.3 19.1h15c-8.1 2.4-17.6-1.2-23.7 8.2 3.3 0 6.3-.1 9.4 0 2.8.1 5.5.3 8.3.5 0 .7-.1 1.3-.1 2-30.4.8-60.7 1.6-91.1 2.3 0-.8-.1-1.5-.1-2.3 5.1-.2 10.2-.5 15.2-.7 0-.5-.1-1-.1-1.4-6.8-1-13.5-2-20.7-3.1-.5 4-1.1 7.2-1.2 10.4-.2 5.5 1.5 6.8 7.3 6.9 11.6.2 23.1.6 34.7 1 14.9.6 29.8 1.6 44.7 1.9 12.2.2 24.4-.8 36.6-.8 33.9-.1 67.7 0 101.6-.1 7.5 0 15-1 22.6-1 11 .1 22 1 33 .9 15-.1 30-.8 45-1 18.4-.2 36.8-.2 55.2 0 8 .1 15.9 1 23.9 1 9.5 0 19.1-.6 28.6-1 1.3-.1 3.4.2 3.7-.4 2.1-4.4 6-2.6 9.2-2.9 3.5-.3 7.1-.1 10.6-.2 9.4-.3 18.8-.7 28.2-1 11.3-.3 22.6-.4 33.9-.8 6.9-.3 13.8-1.2 20.7-1.3 10.9-.2 21.9 0 32.8-.1 9.1-.1 11.1-2 10.7-8.9-.6-9.2-1.1-18.4-1.1-27.6 0-11.4.9-22.9 1-34.3.2-26.7 0-53.4.1-80.1 0-10.2.8-20.3.8-30.5-.1-15.7-.5-31.4-.9-47.1-.2-9.6-.7-19.2-.7-28.8.1-35.4.4-70.8.5-106.3 0-11.5-.7-22.9-.9-34.4-.2-14.6 0-29.2 0-43.1H274c0 11.3.1 22 0 32.6 0 2.8-.5 5.7-.8 8.5-.3 2.3-.7 3.1-3.8 2.7-5.8-.7-11.8 0-17.7.3-8.9.4-17.8 1.9-26.6 1.2-10-.8-19.8.2-29.7.2-22 .1-44-.1-66.1.1-8.3.1-16.6.9-24.9 1-6.4 0-12.9-.7-19.4-.8-9.6-.2-19.2 0-28.8-.3-7.6-.2-15.3-.8-22.9-1.2-7.1-.4-14.4-.1-21.3-1.4-4.4-.8-5.3.2-5.3 4v211.8c0 19.8.1 39.6 0 59.5-.1 22.9-.4 45.8-.6 68.7 0 4.5-.4 9-.2 13.4.2 6.4.7 12.8 1.2 19.5 2.7.4 6 .9 9.4 1.3v.8c-3.3.5-6.6 1-10 1.5 0 .5.1.9.1 1.4h17.7c-5.5-2.9-8.7-7.1-9.3-12.4-.8-6.8-.5-13.7-.3-20.6.2-7.9.1-15.9 1.3-23.7 2.5-17.2 8.8-33.2 18-47.7 10.1-15.9 23.4-29.2 39.2-39.8.8-.6 1.1-2.1 1.4-3.3 3.2-10.8-.8-20.4-5.2-29.8-6.7-14.5-13.7-28.1-12-45.6 2.2-22 12.8-37.6 29.1-50.4 5.7-4.5 12.8-7.3 19.1-11.1 4.5-2.7 8.8-5.8 13.8-9v5.1c2.7-2.2 5.3-4.2 7.8-6.2l.9.9c-1.2 1.8-2.3 3.6-3.5 5.4h3.9c8.3.2 16.8-.5 24.9.9 9.6 1.6 14.9 10.2 21.4 16.6 10.1 10 14.6 22.5 17.8 35.9 1.6 6.8 3.8 13.8 9.7 18.9 3.5 3 6.5 6.6 9 10.4 9.9 15.5 2.7 32.3-8.1 42.6-4.3 4.1-10.5 3.8-15.7.4-1.1-.7-3.3-.9-4.2-.3-2.9 1.9-5.4 4.3-8 6.4.8.1 1.5.2 2.3.3 1.3 3.3 3.7 6.7 3.5 9.9-.4 4.9-4.7 6.9-9.7 7.2 1.2 7.6-2.6 12.2-8.4 15.4-11.8 6.5-24.6 6.2-37.2 4.5-8.8-1.2-14.5-.4-17.4 4.7 4.3 2.1 8.8 3.9 12.8 6.5 8.2 5.2 22.7 5.8 29.3 0 9.1-8 13.4-4.9 19.2-.1 5.3-2.8 9.9-5.7 14.9-7.6 4.2-1.7 10.7 1.1 11.8 5.5.8 2.8-1 6.4-1.7 10.1 5.7 3.3 6.4 10 .6 14-.8.6-1.4 1.9-1.5 3-.6 4.7-2.7 7.3-7.9 6.1-.8-.2-2.3-.3-2.7.2-3.9 5-7.5 2.8-11.1-.7-.4.2-.9.4-1.3.6.7 6.9 1.4 13.7 2.1 20.3 3.1.2 6.2 1.2 8.6.3 4.1-1.6 9.6 2.1 12.8-3.9 2.7-5.2 7.6-7.5 13.9-4.6.3-1.7 1-2.9.6-3.8-2-5.3 1.4-6.7 5.3-7 4.3-.3 8.7-.1 12.8.8 3.4.7 5.3-.6 6.6-3 4.1-7.7 7.4-16 14.9-19.6-2-3.7-5.9-7.8-5-10.1 1.1-2.7 6.2-3.9 9.4-5.7-.1-2.4-.3-5.8-.6-9.6 3.3.2 5.6.3 9.6.5-1.9-1.9-2.7-3.4-3.9-3.7-7.4-1.8-10-8.7-5.6-14.9.5-.7 1.3-1.6 1.2-2.3-.6-5.3-1.3-10.5-2.1-15.9-7.9-1-10.2-5.9-5.8-13.1 2.8-4.6 5.2-9.4 7.8-14.1-5.7-3.9-7-7-4.4-10.1 5.7-6.8 4.7-12-2.9-15.1-6.4-2.6-11.2-17.5-7.5-23.4.6-.9 1.5-1.8 2.5-2.1 3-.9 6.2-2.5 9.2-2.2 9.2.9 15-4.9 21.3-9.9 11.1-8.7 23.4-14.1 37.9-12.5 5.8.6 11.6 1.6 17.4 2.2 6.3.6 12.7.4 18.9 1.4 3.4.6 7.5 2.2 9.5 4.8 5.3 6.9 10.2 14.3 14.3 22 2.3 4.3 3 9.6 3.8 14.6 1.5 9 .2 18.5 5.3 27 .9 1.5-.3 4.5-1.1 6.6-.7 1.8-2.1 3.3-3 4.5 3.8 3.3 9 5.7 10 9.3.9 3.3-2.6 7.9-4.5 12.7 1.6.2 4.1.4 6.8.7 0-1.7.2-2.7 0-3.5-.9-3.8 0-7.6 3.8-8.2 2.9-.4 7.4 1 8.9 3.2 3.2 4.6 7.2 5.2 11.8 5 3.5-.2 6.9-.6 10.3-1.1 8.3-1.1 16.5-2.2 25-3.4.1-1.5.1-2.6.2-3.6.8-5.5.5-11.7 8.5-12.5 1-.1 2.5-3 2.3-4.3-.2-1.5-1.9-3.5-3.4-3.9-9-2.5-18.1-4.5-27.2-6.9-7.5-2-13.2-6.8-16.3-13.5-1.9-4.1-1.3-9.3-1.8-14-.2-2.8-.2-4.7-4.4-4.9-8.2-.4-11.9-6.7-9.1-14.6 2.1-5.9 7.4-7.7 13-8.8 1.9-11 3.8-21.9 5.7-32.9.6-.1 1.3-.2 1.9-.4.6 1 2 2.1 1.8 2.9-1.1 6-2.6 12-3.6 18.1-.7 4.2-3.4 8.3-.3 12.7 1.4 1.9 2.8 3.9 3.8 6.1.4.9-.3 2.4-.5 3.6-1.2-.7-2.8-1.1-3.4-2.1-.9-1.6-1.2-3.6-1.8-5.6-3.5 1.7-6.6 2.8-9.2 4.6-3.3 2.1-4.7 5.4-2.8 9.1.6 1.1 2.4 2.3 3.6 2.3 9.4-.5 7.9.1 8.7 8.2 1.1 10.7 1.9 19.6 16.1 23.2 8.1 2.1 16.3 4.2 24.4 6.3 6.8 1.7 12 12.7 9.6 18.3-3.3.3-6.2 0-8.7.9-1.4.5-2.2 2.7-3.2 4.2 4-.6 6.7-1.1 7.2 3.3.2 1.6-.1 3.3-.2 4.9-.3 3.8-.7 7.5-1.2 12 4.2-1 7.6-1.6 10.8-2.6 2.3-.7 4.5-1.8 6.8-2.7h13.6c-1.1 1.9-2.6 3.3-4.5 3.8-7.1 2-14.3 3.9-21.5 5.5-3 .6-4.3 1.1-2.8 4.5 3.3 7.7 6.3 15.6 9.5 23.4h37.2c.1.9.3 1.8.4 2.7-5.2 1.2-10.3 2.4-16 3.8 2.8 3.8 5.6 7.5 8.6 11.5 4.7-6.9 9.7-13.3 13.6-20.4 2-3.7 3.7-2.6 5.8-1.2 1.6 1.1 2.9 2.8 4.2 4.3 2.6 2.9 5.1 5.8 8.5 9.7 1.6-7 2.8-12.6 4.1-18.2.5-1.9.7-4.5 2-5.5 1.1-.9 3.6.1 6.3.3-7.3-16-14.5-31.6-21.6-47.2-16.3 8-31.7 15.6-47.1 23.2-6.3 1.6-5.7-4.2-7.7-8.6-.6 2.6-.8 4.1-1.3 5.3-.2.5-1.2 1.2-1.7 1.1-.8-.2-1.7-.9-2-1.6-1.2-2.8 2.8-13.5 5.6-14.8 6.3-3 13-5.5 19.1-9 10.8-6.1 25-5.8 32.2-19.4 4.9-9.2 13.8-16 19.5-24.8 7.7-11.9 13.2-24.9 13.2-39.6 0-4.1-.4-8.4-1.5-12.4-1.9-7.1-4.7-13.6-8.8-20.1-5.5-8.8-10.8-17.1-19.7-22.7-11.4-7.2-24.2-10.2-37.2-9.5-8.8.4-18 3-26.1 6.6-15.7 6.9-29.7 16.4-37.2 33-.4.9-1.1 1.7-2 2.9-4.6-3.5-8.9-6.7-14.1-10.6-1.6 6.1-2.9 11.2-4.2 16.3-.6-.1-1.1-.3-1.7-.4 1-5.1 1.7-10.3 3-15.4.7-2.8 2.4-5.1 6-2.8 3.3 2.1 6.8 4 9.1 5.3 5.1-5.5 9.8-11.9 15.8-16.8 8.2-6.7 16.6-14.1 26.3-17.9 18.2-7.2 37.4-8.1 56-.3 6.2 2.6 12.5 5.5 16.9 11.5 1.7 2.4 3.5 8 9.1 5.4.3-.2 1.7 1.7 2.5 2.7.4.5.4 1.5.8 1.6 3.2.9 6.5 4.3 5.7 7.2-1.3 4.5.4 7.9 2 11.8 2.2 5.3 4.2 11 4.8 16.6 2 18.5-4.2 35.1-14.6 50-6.8 9.7-15.1 18.5-22.6 27.4 3.9 5.1 9 9.7 5.4 17.3-.3.7.4 2 .9 3 5.3 11.1 10.3 22.3 16.2 33.1 9.2 17 16.6 34.8 22.6 53.2.9 2.9 1.8 5.5-1.3 7.8-.6.4-.7 2.8-.2 3.3 3.3 3 4.1 9.5 10.9 8 .6-.1 1.5 1.2 2.2 1.9 5.1 5 5.3 11.5 5.7 17.9.5 9.3 2.3 18.8 1.3 27.9-1.3 11.5-4.9 22.8-7.6 34.6 1 .5 2.3 1.1 5 2.4-3.2.8-5 1.6-6.9 1.7-4.6.2-9.3.1-13.9.1-16.9 0-33.8-.2-50.7 0-22.8.3-45.5.9-68.3 1.4-8.3.2-16.6.4-24.9.9-6.9.5-13.8 1.6-20.7 2.4-.1-.8-.2-1.6-.3-2.3 13.9-1.3 27.7-2.5 41.6-3.8-.1-.5-.1-1-.2-1.4-2.3.2-4.6.5-6.9.6l-65.7 2.1c-19.6.7-39.2 1.5-58.9 2.1-2 .1-4.1-1.3-6.2-2 .3-.7.5-1.4.7-1.9-21.5.8-43.1 1.7-64.7 2.5 0-.8-.1-1.5-.1-2.3 56-2.7 112.6-5.3 169.2-7.8zM190.5 268.8c3.6 2.4 6.6.9 9.5-1.7 10-8.9 10.6-20 8.1-32-1.1-5.2-4.6-8.1-8.1-11.6-8.6-8.7-11.7-20.7-16.7-31.5-1.4-3.1 0-7-.9-9.3-1.2-3.2-.9-9.8-7.8-8.8-.3 0-1-1.4-1.3-2.2-2.5-6.2-6.3-11.4-11.8-15-1.9-1.2-4.7-1-7.7-1.6 1.3-1.5 2.1-2.3 2.9-3.2-17.6-6.4-33.6-5.1-43.7 3.5-1.5-1.1-2.9-2.3-4.7-3.6-.7 2.9-1.2 4.9-1.4 6-2.8-.7-5.7-2.3-6.9-1.5-9.2 6.2-19.9 10.8-24.7 21.9-.7 1.7-1.8 4.7-2.6 4.6-6.4-.6-6.1 4.9-7.2 8.2-1.7 5.2-2.2 10.7-3.2 16.1-2.4 12.1.9 23.2 5.3 34.2.4.9 1.7 1.4 3.8 2.9-4.2-12.6-4.4-17-.8-20 1.9 8.9 3.7 17.6 5.5 26.3l1.5-.3v-12.3c.6-.1 1.3-.1 1.9-.2 1.4 5.2 2.8 10.5 4.1 15.7.5-.1.9-.2 1.4-.4-.1-1.7-.3-3.4-.4-5 .6-.4 1.2-.8 1.8-1.1.7 1.7 1.3 3.3 2 5 .5 0 1-.1 1.5-.1 1.1-6.8 5.7-7.8 10.5-8.2-3.8 6.3-7.3 12.6-11.2 18.6-1 1.5-3.2 3.1-4.7 3-1.3-.1-2.4-2.7-3.5-4.2-2.1-3-4.1-6.1-6.2-9.1l-1.5.9c.5 1.2.8 2.6 1.5 3.7 6.5 10.3 8.1 21.6 3.4 32.7-2.3 5.4 0 7 3.1 9.6 6.3 5.2 12.6 10.5 19.1 15.5.8.6 3.2.4 4.1-.3 4.5-3.4 9.1-5.8 15-4.7 11.6 2.2 23.3 3.1 34.6-.5 5.7-1.8 11.9-4.3 11.5-12.3-.2-3.5 0-7 0-12.1 2.9 2.5 4.7 4.1 6.7 5.9 8.2-6-1.9-9.3-1.6-13.6-1.6.6-2.9 1.1-4.3 1.6.5-1.5.6-3.3 1.6-4.3 1.8-1.7 2.8-4.3 6.7-3.4 2.3.5 5.5-2.8 8.3-4.4-1.3-2.1-2.2-4.5-3.9-6.1-4-3.6-6.2-8.1-6.7-13.2-.2-1.5 1.5-3.2 2.3-4.9.5.2 1 .4 1.4.6.6 10.3 12.2 6 16 11.9-1.7 2.1-3.3 3.9-4.9 5.9 5.5 2.7 9.4 1.2 10.3-3.9.8-4.3.7-8.8 1.2-13.2.1-1 .6-2 1-3 1 .8 2.6 1.3 3 2.3.7 2 .1 4.7 1.2 6.3 3.2 4.7.7 8-2.3 11-3.4 3-7.3 5.8-11.1 8.9zm90.9-61.9c-2 1-2.4 1.4-2.9 1.4-1.6.2-3.2.2-4.8.3.2-.9.3-2.5.8-2.7 1.5-.5 3.7-1.2 4.6-.5 3 2.4 6.2 5 8.1 8.2 2.6 4.5 4.1 9.6 6.3 14.4.7 1.5 1.9 3.3 3.4 4 5.7 2.5 11.5 5 17.4 6.6 5.2 1.4 10.8 1.5 16.1 2.2-1.2.8-2.7 1.8-4.2 2.9.1.2.1.5.2.7 3.7-.7 7.4-1.3 12.4-2.2-5.8 6.3-12.6 5.1-18.9 6.6 2.4 1.5 6 3.7 7.2 2.7 3.5-2.5 3.8 1.4 3.6 1.8-1.5 4.5-.1 9.8-4.7 13.5-3.4 2.7-2.2 7.2 1.8 9.2 2.5 1.3 5.1 2.3 7.7 3.4-1.5 2.8-2.9 5.3-4.4 8 6.5 2.8 12.5 5.7 18.7 8.1 4.7 1.8 6.8-.2 6.2-5.1-2.1.8-4.3 1.6-6.5 2.4-.4-.3-.8-.6-1.1-.9 4.5-3.8-4.8-6.7.3-10.9 3.3-2.7 5.9-6.1 9.1-9.6.9 2.6 1.5 4.3 2.3 6.5 2.8-3.8 5.2-7.1 7.6-10.3.3.2.7.5 1 .7-.7 1.5-1.3 3-2 4.4.4.2.8.5 1.2.7 1.1-1.6 2.1-3.1 3.2-4.7.3 2.2-.8 3.5-.9 4.8-.3 6.9-.2 6.9-6.7 7.9-.5.1-1.2.6-1.2 1-.3 1.4-.3 2.8-.5 4.3 2.6-.3 6.5.5 7.7-1 4-4.9 7-10.5 10.3-15.9 1.8-3 .5-5-2.2-6.6-3.2-1.9-6.3-3.8-9.3-5.6 2.5-4.6 4.3-7.9 5.4-9.9-1.5-4.6-3.3-8-3.7-11.6-1.7-15.7-3.1-31.2-12.3-45-5.2-7.8-11.2-12.9-20.9-12.9-8.6 0-17.2 1.9-25.7-1.4-2.6-1-5.7-1.2-8.6-1-14 1-25.6 6.9-35.3 17.1-2.1 2.2-5.3 3.7-8.3 4.6-3.2 1-6.8 1.1-10.3 1.2-6.3.1-7 3.8-6.7 8.8.4 5.9 2.8 9 7.1 9.4-.9-2.3-1.8-4.9-2.8-7.6 6.4 6.2 6.4 6.2 9.7 5l-2.7-3.6c1.5 0 3.2-.6 4.5 0 3.8 1.7 7.4 3.2 11.8 1.3 1.3-.6 3.6.9 6.5 1.8-2.5 1.1-3.8 1.7-5 2.2.3 1.6.5 3.1.8 4.9-4.9.5-9.3 1-14.1 1.5.2 3.6-4.9 9 2 13.1-2.5 1.2-4.8 2.4-7.2 3.5.1.4.2.7.4 1.1 6.7-1.9 13.3-3.7 19.8-5.5.8-4.7 1.7-10.2 2.6-15.8l2.1.3c-.4 4.6-.8 9.1-1.2 14.1 5.2-1 5.1 2.4 6.3 5.4 2.1 5.3-3.3 5.1-4.6 8.1-4.4-2.5-8.5-5.1-13.9-2.1 2.3.8 3.9 1.1 5.3 1.8 1.7.9 3.1 2.2 4.7 3.4-1.7.8-3.4 1.6-6.2 2.9 2.4 1.4 4.7 2.5 6.8 3.9 1 .7 1.6 1.9 2.4 2.8-1.3.4-3.2 1.5-3.7 1-2.9-2.6-5.5-5.5-8.2-8.3-1.5-1.5-2.9-4-4.6-4.2-1.3-.2-3.3 2.2-4.5 3.8-2.9 3.7-5.8 7.4-8.3 11.4-.9 1.4-.7 3.5-1 5.3 1.8.2 3.6.5 5.5.5 2.7.1 5.4 0 8.1.1 1.7.1 3.5.6 5.2 1-.5-2.1-.8-4.3-1.5-6.3-.3-.8-1.5-1.2-2.2-1.8.1-.5.3-.9.4-1.4 1.5.1 3.1-.1 4.3.5 4.5 2.4 5.7 6.6 5.3 11.5-.3 3.9.3 6.8 4.8 9 2.9 1.4 4.2 6 6.2 9.3-5.3 2.8-5.2-1-6.4-2.8-1-1.5-1.5-3.8-2.9-4.5-4.2-2.2-5.5-5.7-5.5-8.9-4.4-.8-8.5-1.6-12.3-2.3-.1 1.2-.1 3-.4 4.8-.6 3.2.2 5.1 3.8 5 1.7-.1 3.3.1 5-.1 4.7-.6 4.7 1.7 3.4 5.1-5-2.5-9.4-2.4-10.8-.4l6.6 3.3c-.2.5-.4 1.1-.7 1.6-.7.1-1.4.2-2.1.4-3.5.9-7.3 1.9-6.5 6.5.7 4.3 4.3 4.7 8 4.6 5.4-.1 10.7 0 15.7 0-1.8 2.1-3.7 4.2-5.5 6.3-2.2-1.1-4.3-2-6.4-3 .4 1.9 1.5 3.9 2.7 4 11.7.5 22.8-1.3 30.7-12l1.2 1.8c-2.7 2.8-5.3 5.6-8.8 9.3 14-2.2 26.5-4.3 39-6.3-10.1-6.2-11.9-13.2-5.6-19.1-2.4-3.8-4.7-7.4-6.4-10.1-3.7-.7-7.6-1.1-11.4-2.2-.9-.3-1.3-2.6-1.9-3.9.9-.3 2.2-1.2 2.7-.9 7.5 5.1 11.1-2.6 16.3-4.9-1.8-.3-3.2.3-4.5 1.2-3.6 2.5-13.5 1.1-13.4-2.3.1-4.5 1.9-9.1 3.3-14.9 3.2 5.1 5.4 8.6 8.1 12.8.5-1.5 1.9-3.4 1.4-4.3-1.7-3.2-3.5-6.7-6.2-8.9-3.2-2.7-7.4-4.2-11.1-6.2-1.7-.9-3.4-2.8-5.1-2.8-5.4-.1-6-3.9-7.4-7.8-2.1-7.3-5.1-14.5-8-22zM163.1 404.4c7.9 0 15.3-.2 22.6.1 13.2.5 26.5 1.7 39.7 1.9 12.8.2 25.5-.7 38.3-1 10.7-.2 21.5.3 32.2-.2 4.5-.2 9.1-1.8 13.5-3.4 7.9-3 15.3-8.1 23.4-9.4 14.1-2.3 28.6-2.4 43-3.4 2.9-.2 5.7-1.2 8.6-1.2 2.9 0 5.9.7 8.8 1-7.1 5.4-14.5 5.8-22 5.4-7.5-.4-8.1-.1-8.1 7.4v26.1c6.7 0 13.5-.1 20.4.1 2.3.1 4.7.6 6.9 1.1 3 .6 6 1.9 9 2.1 5.2.3 10.4.1 16.1.1-.7 1.7-1 2.4-1.2 2.8h23.1c-7.1-4.8-13.6-8.4-19.1-13.1-12.1-10.2-22.6-21.8-22.4-39 0-2.9 2.2-6.2 4.3-8.5 2.6-2.8 5.8-1.9 8.5.6 4.4 3.9 8.8 7.7 13.1 11.5 1.5 1.3 3.2 2.5 4.4 4 1.8 2.4 3.3 5.1 5.4 8.3 2.7-5.5 4.8-9.7 6.7-14.1.4-.9 0-3.1-.6-3.4-6.7-3.2-3.8-7.7-1.4-11.8 2.3-3.9 5.4-7.3 7.7-11.2 1.2-2 1.8-4.5 2-6.8.2-2.1-.9-4.3-.7-6.4.8-7.1 2-14.2 3.2-22.6-6.8 1.7-12.9 3.3-18.9 4.9-2.6.7-5.9.8-7.7 2.4-5.5 5-9.8 7.6-18.2 3.5-7.7-3.8-11.4-8.8-14.2-15.8-7.6 3.6-9.4-5.2-14.4-7.4-4.7-2.1-6.2-13.2-4-17.7-3 1-5.7 2.4-8.6 3-4.3.9-5.8 3.5-4.9 7.8.6 2.8-.3 5.8-.2 8.8.1 2 .1 4.6 1.3 5.9 6.1 6.6 12.6 12.9 13.8 22.5.4 3.6.5 7.4.4 11 0 2.9.9 4.4 4.1 4.5 5.3.1 10.8.2 16 1.2 2.6.5 6.1 2.4 7 4.6 1.1 2.7-.1 6.3-.4 9.5-.6.1-1.3.2-1.9.3-.5-5.6-3.1-6.7-7.8-4.7-2.1.9-4.6 1.1-6.9 1.1-12.1.1-24.1-.1-36.2.1-9.7.1-19.3.7-28.9 1.1-1.2.1-2.3.7-3.5 1.2-7.1 3.2-13.9 7-22.1 6.5-9.4-.6-18.8-.9-28.1-1.1-2.5-.1-5 .7-7.5.7-14.9.1-29.7 0-43.9 0-.7 3-1.4 6.1-2.1 9.2h-8.1c-3.3 0-5.9 0-5.6 4.9.2 3.2-2.3 5.4-6.2 5.2-5.5-.3-11.1-.8-16.6-.2-2.9.3-7.1-2.4-8.9 2.1-.7 2.3-1.4 5.2-2.2 7.9zm190.1 23.2c0-9.3-.2-18 .1-26.7.2-4.7-2-5.4-5.8-4.9-5.7.9-11.4 2.6-17 2.4-7.5-.3-12.9 3.3-18.2 7.4-4.3 3.3-9.1 4.1-14.2 4.1-5.2 0-10.4-.1-15.5.1-9.2.3-18.4.4-27.5 1.3-15.6 1.5-31.2-.6-46.9.6-4.5.3-9.2-1-14.6-1.7-.5 9.5-1.1 18.8-1.3 28 0 .7 2.1 2.2 3.2 2.1 5.4-.3 10.7-1.2 16.1-1.5 14.2-.9 28.4-1.5 42.7-2.3 16.4-1 32.8-2.3 49.3-3.2 12.9-.7 25.9-.7 38.8-1.2 5.4-.2 10.7-1 16.1-1.6-1.3-.6-2.6-.7-3.8-.6-12.1.3-24.3 1.7-36.3.8-13.1-1.1-25.8 1-38.6 1.4-6.3.2-12.5.5-18.8.7-8 .3-16.1.4-24.1.9-10.7.7-21.4 1.7-32.1 2.5-2.2.2-4.5 0-6.8 0 0-.6 0-1.2.1-1.9 1.9 0 3.8.1 5.7 0 8.1-.4 16.3-.7 24.4-1.3 13.1-.9 26.2-2.2 39.3-3.1 4.3-.3 8.6.1 12.8-.1 13.9-.7 27.8-1.6 41.7-2.1 10-.4 20.2-.1 31.2-.1zm132.2 12.3c-.5.3-.9.6-1.4.8 1.2.8 2.4 2.2 3.7 2.2 2.7.1 5.4-.9 8.1-.9 18.1-.1 36.3-.1 54.4 0 1.2 0 2.5.2 3.6.7 1.4.5 2.8 1.3 3.2 1.5-1.6-10.5-3.1-20.6-4.6-30.7-.5.5-1.7 1.7-2.7 3.1-6.3 8.3-16.6 13.6-25.8 1-4.6-6.3-7.9-15.7-18.6-15.2-1.5.1-2.9-1.7-4.5-1.9-3.7-.6-7.4-1-11.1-1.2-3.9-.2-8.6-5.3-11.3 1.5-1.5 3.6-2.4 7.5-3 11.4-.2 1.3 1.5 2.8 2.4 4.3-1 .8-2.2 1.7-3.5 2.7 1.4 3.5 3.6 6.6 4 10 .9 6.6 2.2 8.4 8.8 8.4h50c1.9 0 3.7.6 5.6.9-.1.5-.2.9-.3 1.4h-57zM165.8 328.6c-5.8-5.7-8.3-6.2-14.6-.4-9.8 9.1-22 8.4-33.6 8.3-6.2 0-12.4-3.6-19.2-5.8-3.9 6.1-8.5 13-12.9 20.2-1.7 2.8-5.4 5.5-3.2 8.3 8.2-.7 15.4-2.1 22.3-1.5 4.7.4 10.7 2.4 13.2 5.9 3.7 4.9 7.2 3.4 11.2 2.8 2.8-.4 5.6-1.4 8.3-2.4 3.6-1.5 7.6-2.7 10.6-5.1 4.9-3.9 8.8-9.3 17.7-6.4-2.6-3-4.3-4.7-5.5-6.6-.6-1-.4-2.6-.6-3.9 1.4.1 3-.2 4.3.4 2.2.9 4.3 2.3 7 3.9-1-10.6-11.4-8.8-16.7-15.4 4.6-.9 7.8-1.5 11.7-2.3zm285.4-.4c0 7.5-.2 14.4.1 21.2.1 1.3 1.7 3.3 2.9 3.5 10.4 2.1 20.7 4.9 31.2 5.5 18 1 35.9-.3 53.8-3.8 7.7-1.5 14.3-4 20.3-7.7-1.2-11.6-5.5-20.7-15.7-26.1-1.9 8.8-3.8 17.3-5.6 25.8-.8.2-1.5.5-2.3.7-6.1-6.2-12.2-12.4-19.4-19.7-4.2 6.9-8.2 13.4-12.2 19.9-1.2 2-2.5 4.1-4.5 7.5-7.4-9.8-13.7-18.2-20.2-26.8-3.2 5.7-6.7 11.7-10.1 17.9-2.6 4.8-4.2 5.3-7.4.8-4-5.6-7-11.8-10.9-18.7zm11.5-14.9c-3-7.8-6.2-16-9.7-24.8-5.9 1.6-12.2 3.7-18.7 5.1-11.1 2.3-12.7 4.4-17.8-4.2-1-1.8-1.4-3.9-2.3-6.8-2 .8-5.7 2-5.6 2.4.9 3.7 2.3 7.3 4 12.1-1.5.6-3.6 1.9-6 2.4-4.2.8-8.5.9-12.6 1.7-1 .2-1.6 2.2-3.2 4.5 6.8-.1 13-5.8 17.1 3.2-3.3 1.8-6.6 3.5-9.7 5.5-1.2.8-1.8 2.6-2.6 3.9 1.8.3 3.6 1.1 5.3.9 1.5-.2 2.7-2 4.2-2.4 1.3-.4 2.9.1 4.3.1-.7 1.4-1.2 3.2-2.3 4.1-1.8 1.4-4.1 2.3-6.9 3.8 7 5.3 8.6-5.3 14.6-3-1.9 2.7-3.5 5.1-5.3 7.7 4.8 1.3 7.5-1.1 10.3-3.9 1.9-1.9 4.4-3.8 7-4.4 12-3 24-5.4 35.9-7.9zm-322.6 92.2c-2 4.6-3.7 8.8-5.7 12.8-5.1 10.4-6 14-5.5 23.2 0 .5.3.9.7 1.9 1.7-1 3.3-1.9 4.7-2.9 7.1-5.3 12.1-12.1 15.6-20.2 4.4-10.2 9.3-20.3 12.9-30.8 3.2-9.5 5.2-19.5.5-29.2-.8-1.6-2.6-3.5-4-3.6-1.8-.1-4.3 1.1-5.5 2.5-2 2.3-3.7 5.1-4.5 8-1.7 5.7-5.1 11.2.2 17.4 3 3.5 3.6 8.7-1.4 12.5-.9.7-.9 2.6-1.2 3.9-.4 2.2-.5 4.4-.9 7.1-3-1.3-4.6-2-5.9-2.6zm338 34.6c0-3.9-6.4-11.6-11.4-11.6-5.8 0-9.7-3.1-13.7-6.2-3.2-2.4-6-5.3-9.1-7.9-.7-.6-1.8-.6-2.8-.9-.1.8-.4 1.5-.4 2.3 0 3.4-.5 5.5-4.3 2.4-.7-.6-2.3.2-3.5 0-1.5-.3-3.7-.5-4.1-1.4-2.5-5.1-6.5-10.6-6.2-15.7.7-12.2-7.7-17.3-15.2-23.5-1-.8-3.8-.7-4.7.1-1.4 1.3-2.7 3.6-2.7 5.5.1 2.8 1.2 5.6 2.2 8.3 3.2 8.5 9.5 14.5 15.9 20.7 11.1 10.7 24 17.8 38.7 22.1 7.1 2 14.3 3.9 21.3 5.8zm-226.2-80.9c.3.6.5 1.2.8 1.8 4.2 0 8.5.6 12.6-.2 3.5-.7 6.9-2.7 10.1-4.4.9-.5.9-2.8 1.8-3.2 8-3.8 16.1-7.4 24.2-11.1l.9 1.8-24.3 10.8c.1.4.3.8.4 1.1 19.2-6.6 38.4-13.2 57.5-19.8.3.6.5 1.2.8 1.9-3.3 1.4-6.6 2.9-9.8 4.3 9.9-1.6 19.8-2.9 29.2-8-14.1-7.6-28.3-8.7-42.1-3-21 8.7-41.4 18.6-62.1 28zm121.6-74.3c0 .5.1 1.1.1 1.6 2.1.1 4.2.2 6.3.5 1.2.2 2.3.7 3.4 1.1-.6 1.2-.9 3-1.9 3.6-2.5 1.6-5.4 2.6-8.1 3.8.1.5.2.9.2 1.4h11.4c.2.6.3 1.2.5 1.7-3 1.7-6 3.4-9.2 5.3.9 1.4 1.6 2.6 3.2 5.1 3.5-4 6.4-7.4 9.4-10.6.9-.9 2.3-1.8 3.5-2 5-.7 10-1.2 15.5-1.8-.7-1-1.1-1.8-1.6-2.4-2.5-2.7-4-5.4-2-9.3 2.1-4 6-4 8.9-3.4 3.1.7 7 2.1 6.8 7.2-.1 3.8 2.6 4.8 6.1 3.8 5.3-1.5 10.6-3.5 16-4.5 6.2-1.1 2.7-5.2 2.6-7.9 0-1-3-2.8-4.5-2.7-7 .4-13.9 1.6-20.9 2-8.6.5-18 3.5-24.2-6.2-.6-.9-3.3-.3-5-.5v1.6c2.4 2.7 4.8 5.4 7.2 8.2l-1.2 2.1c-3.9-.6-7.9-1.8-11.7-1.5-3.7.5-7.2 2.5-10.8 3.8zM573 365.2c-4.4 5.6-7.6 9.7-10.8 13.8-2.1 2.7-1.1 11.1 1.7 13.1 6.5 4.7 7.1 6.9 3.4 13.9-1.1 2.1-2.4 4.1-3.7 6-4.4 6.7-4.6 21.3-.1 27.4 1.7 2.3 3.7 2.7 5.2-.5 3.1-6.6 6.7-12.7 6.5-20.6-.2-7 1.7-14 1.9-21 .2-6.4-.3-12.9-1.1-19.2-.4-4-1.7-7.9-3-12.9zM273.6 361l.3 1.8c31.4-.9 62.7-1.9 94.3-2.8-.4-6.1.3-11.2-1.2-15.7-1.4-3.9-5.2-6.9-6.7-8.7-7.8 3.6-13.9 6.4-20 9.2.1.4.2.9.3 1.3 4.3-1.3 8.6-2.7 13.2-4.2.2 4.6 2.9 3.5 5.6 2.3.7 6.8-1.8 10-8.4 11.1-9.1 1.5-18.1 3.2-26.8 4.7-1-1.7-1.5-2.7-1.7-3-2.9.6-7 1.7-7.1 1.3-2.1-5.3-7.1-1.4-10.6-3.4-3.1-1.7-8.9 1.5-14 1.5-5.8 0-11.5 2.9-17.2 4.6zm-156.2 58.7c.8-1.2 1.8-2.7 2.5-4.2 2.6-5.7 4.9-11.6 7.6-17.2 4.7-10 2.8-17.1-6.6-23.9-.3.2-.8.3-.9.5-4.5 11.2-8.9 22.4-13.2 33.7-.3.9.2 2.6.9 3.3 2.9 2.6 6.1 5 9.7 7.8zm359-24c-1.3-.8-2.6-1.8-4.1-2.3-8.3-3.1-16.7-6.1-25-9.2-2.3-.9-4.4-2.3-5.8 1.1-1.1 2.7-3.7 5.1.6 7.8 3.6 2.3 6.4 6 10 8.5 5.7 4 11.7 7.6 17.4 11.3 2.6-6.6 4.7-11.7 6.9-17.2zm44.7-147.4c-1.9-3.7-3.8-6.5-7.8-4.8-12.7 5.5-25.1 11.7-38 16.4-5.2 1.9-5 4.2-4.6 8.3.4 3.5 1.6 4.7 5 3.1 5.8-2.7 11.8-5.2 17.5-8.1 9.3-4.8 18.5-9.8 27.9-14.9zm-.1 155.4c2.9 3.8 5.8 7.2 8.3 10.8 2.9 4.2 6.7 5.2 11.1 3 8.4-4.2 10.1-12.6 12.4-20.4.5-1.7-1.1-4.1-2-6.8-8.2 9.7-20 9.4-29.8 13.4zM186.9 354c.6-.2 1.2-.3 1.8-.5-.9-4.1-1.8-8.1-2.8-12.4 4 1 6.6 1.6 9.2 2.3.3-.6.7-1.2 1-1.7-2.1-2.2-4.2-4.4-6.6-6.9-4.7 7.3-4.7 7.3-14.3-.8 2 .3 3.4 1.6 5.1 2.1 1.5.5 3.2 0 4.8-.1-.8-1.3-1.3-2.9-2.4-3.9-1.5-1.5-3.3-2.5-5-3.8.2-.4.5-.7.7-1.1 4.8.4 9.5.8 14.5 1.2-1.2-7.4-6.1-7.2-10.5-6.7-7.2.8-10.3 7.1-13.8 10 2.3 4.8 5.5 8.4 5.3 11.8-.3 3.5-3.8 6.8-6 10.2.3.3.7.6 1 1 1.9-1.2 3.7-2.4 5.9-3.9.9 2 1.7 3.8 2.6 5.7h1.3v-9.7c1.1-.1 1.9-.4 2.1-.2 2.1 2.4 4.1 4.9 6.1 7.4zm284.8 101.1c0 .6.1 1.1.1 1.7h116.9c-.7-3.1-.7-5-5.4-4.2-7.8 1.3-15.9.7-23.9.8-6.5 0-12.9-.4-19.4-.2-6.4.1-12.8.9-19.3 1-14.1.2-28.3 0-42.4.1-2.2 0-4.4.5-6.6.8zM77.5 362.4c-11.6-12.6-23.2-25.3-35.6-38.7-1.9 4.4-3 7.1-4.3 9.9 14 9.1 23.9 23.2 39.9 28.8zm-44-21.7c-1.8 3.2-2.5 6.2 2.5 9.5 7 4.5 13.6 9.8 20 15.2 5.9 5 9 5.2 14.2.4-12-8.2-24-16.4-36.7-25.1zm247.8-12.3c17.4-6.7 34.7-13.4 53.4-20.6-3.9 0-6.4-.4-8.7.1-9 2-17.9 4.1-26.8 6.5-7.7 2-16.7 2.9-17.9 14zm156.6 68.5c-.3 8.4 20.7 27.2 31.4 28.1 1-8.4 1-8.4-6.5-11.5-.7-.3-1.4-.5-2-.9-7.5-5.2-15.1-10.4-22.9-15.7zM25.4 362.8c6.2 3.9 12.5 7.8 18.7 11.8 5.3 3.4 9.2 2.5 11.7-1.8-9.3-5.8-18.6-11.6-28-17.4-.6 1.6-1.4 4.2-2.4 7.4zm54.2-54c8.8 6.7 17 12.8 25.1 19 .5-1.5.3-2.4-.3-2.9-10.6-9.4-23.8-15.7-32.3-27.6-.5-.7-3.6-.3-4.7.5-.7.5-.5 3 0 4.4.5 1.5 2 2.5 2.8 4 2.3 4.4 5.1 6.7 9.4 2.6zm157.2 58.7v2.6c22.4-2.1 44.9 2.5 67.3-.4v-2.2h-67.3zm-112 59.4c6.5-11.4 11.3-22.8 10.6-35.9-1 .9-1.7 2-2.2 3.2-3.5 8.1-6.4 16.5-10.6 24.2-2.1 3.9-1.8 5.8 2.2 8.5zM75 346.5c.5.5.9 1 1.4 1.4 1.1-.6 2.6-1 3.3-1.9 4.3-6 8.6-12 12.6-18.2.6-.9-.3-2.8-.5-4.3-1.5.4-3.7.4-4.3 1.4-4.3 7.1-8.3 14.4-12.5 21.6zm288.6-16.1c-7.6-12.7-17.9-16.8-24.7-10.4 8.1 3.5 16.5 7 24.7 10.4zM82.5 314.6c-.5 0-1-.1-1.5-.1-4.4 7-9 13.8-13.1 20.9-1.1 2-.8 4.7-1.2 7.2.5.1 1.1.2 1.6.3 4.4-7.6 8.9-15.2 13.1-22.9.9-1.5.8-3.6 1.1-5.4zm102.6 124.8c.4 0 .8.1 1.3.1.4-.8 1.2-1.5 1.2-2.3.5-6.8 1-13.5 1.1-20.3 0-1.6-1.8-3.2-2.8-4.8-.9 1.7-2.5 3.5-2.5 5.2 0 6 .6 12.1 1 18.1.1 1.3.4 2.7.7 4zm27-75.6c.1 2 .2 3.9.3 5.4h20c-6.2-4.9-12.2-7.7-20.3-5.4zM41.8 380.1c-5-3.2-10-6.5-15.2-9.6-.8-.5-2.8-.3-3.1.3-.6 1-.9 3.1-.3 3.7 1.9 1.7 4.1 3.5 6.4 4 4.2.8 4.3 2.6.7 7 5.2-2.5 8.5-4 11.5-5.4zm29.7-62.5c-.8-.7-1.7-1.4-2.5-2.1-3.4-3.1-6.8-6.3-11.5-10.5 0 3.1-.4 4.8.1 6.2.8 2 2.2 3.7 3.5 5.4 1.3 1.6 2.8 4 4.3 4 2 0 4.1-1.9 6.1-3zm287 126.6c0-.5-.1-1-.1-1.5l-55.2 2.7c0 .5 0 1 .1 1.5l55.2-2.7zM59 333c1.4-2.4 2.4-4 3-5.1-4.7-4.2-9-8-13.3-11.9l-1.5 1.5c3.8 5 7.6 9.9 11.8 15.5zm330.6 102.2V434c-1.6-.2-3.2-.7-4.8-.7-11.8.2-23.7.8-35.5.5-8.3-.2-8.3-.6-9.6 1.3 16.3.1 33.1.1 49.9.1zm-49.5-124c.1.2.1.5.2.7 2.6-.4 5.2-.7 7.7-1.1.2.3.3.6.5.9-1.5 1.1-3 2.2-4.3 3.2 7.2.1 9-1.7 10.7-10.9-5.1 2.6-10 4.9-14.8 7.2zm117.2 130.6c0-.8 0-1.6-.1-2.3-9.2.5-18.3 1-27.5 1.5v.8h27.6zm-172-129.6c-9.5 2.6-9.8 3.2-7.5 13.1 2.6-4.5 4.7-8.3 7.5-13.1zm-149.1 56.3c2.7 2.2 5 4.1 7.3 6 .8-2.5 1.9-5.5 3.3-9.6-4.3 1.4-7.6 2.6-10.6 3.6zm237.3-9c-.1.5-.1 1-.2 1.5h18.8v-1.5h-18.6zM30.2 398.9c-11.9-.8-12.2-.6-10.6 6.7 3.4-2.1 6.9-4.3 10.6-6.7zm241.3 38.4c0 .5 0 .9.1 1.4 7.7-.4 15.4-.8 23.1-1.1 0-.1 0-.2-.1-.3h-23.1zm88.3-38.4c-.6 0-1.3-.1-1.9-.1l-.9 15.9c.6 0 1.2.1 1.8.1.3-5.3.6-10.6 1-15.9zm-224.3-17.7c.5-.6 1.1-1.2 1.6-1.7-3.2-2.9-6.3-5.7-9.5-8.6-.5.5-1 1.1-1.5 1.6 3.2 2.9 6.3 5.8 9.4 8.7zm200.1-31.6c.1.5.3.9.4 1.4l15.9-4.2c-.2-.6-.4-1.3-.6-1.9-5.2 1.5-10.5 3.1-15.7 4.7zM43.8 442.4c0-.6-.1-1.1-.1-1.7-4.9.3-9.7.6-14.6.8v.8c4.9.1 9.8.1 14.7.1z"/>
  <path d="M595.3 318.7c-.2-2.2-.6-4.4-.6-6.5-.2-101.1-.4-202.2-.5-303.2 0-7.9 0-8-7.6-8-66.4 0-132.9-.1-199.3 0-18.4 0-36.8.8-55.2.9-14.2.1-28.4 0-42.6-.1-18.9-.2-37.9-.8-56.8-.8-19.2 0-38.4.7-57.6.6-26.9 0-53.9-.5-80.8-.7-14.6 0-29.3 0-43.9.2-3.8.1-7.6 1.4-11.4 2.2h-5.5l-2.4.9C22.2 1.4 13 1.5 2.9.9c0 18-.1 35.5 0 53.1.1 16.8.4 33.5.4 50.3 0 4.6-1.1 9.3-.6 13.9C4.2 131.8.8 145.5 3 159c.5 3.3 2.3 7.3 1.1 9.7-2.6 5-.9 9.9-1.3 14.8-.5 6.2-.6 12.5-.7 18.7-.1 11.4-.2 22.7-.2 34.1-.1 12.3-.7 24.7.1 37.1.5 7.2-.8 14.2-.8 21.3 0 13.9-.1 27.8-.1 41.8 0 4.5-1.3 9.6.4 13.2 1.4 3.1-.8 4.5-.5 6.8.5 2.9.5 5.9.6 8.8.2 4.8.5 9.7.5 14.5 0 5.2-.4 10.4-.5 15.5-.2 8.6-.2 17.3-.5 25.9-.1 4-.8 7.9-1.1 11.8V0h595.3v318.7zM0 460.9h7.1v2.3c1.7-1.2 3.1-2.2 5.2-3.6-.3 1.6-.5 2.4-.7 3.1.2.1.4.3.5.2 1.8-1.3 3.6-.5 5.5-.5 55 .5 110 .8 165 1 23 .1 46-.1 68.9 0 15.7.1 31.4.6 47 .7 37.4.1 74.9.1 112.3.2 19 0 38 .1 57 .2 20.1.1 40.2.1 60.3.2 1.6 0 3.2.5 4.9.8H-.1c.1-1.6.1-3.1.1-4.6z" fill="#fff"/>
  <path d="M473.7 277.1c-2.2.9-4.4 2-6.7 2.7-3.3 1-6.6 1.6-10.8 2.6.4-4.4.8-8.2 1.2-12 .1-1.6.4-3.3.2-4.9-.4-4.5-3.1-3.9-7.2-3.3 1.1-1.5 1.9-3.7 3.2-4.2 2.5-.8 5.4-.6 8.7-.9 2.4-5.7-2.8-16.6-9.6-18.3-8.1-2.1-16.3-4.2-24.4-6.3-14.2-3.6-15-12.5-16.1-23.2-.8-8 .7-8.6-8.7-8.2-1.2.1-3-1.1-3.6-2.3-2-3.8-.5-7 2.8-9.1 2.7-1.7 5.8-2.9 9.2-4.6.6 2.1.9 4.1 1.8 5.6.6 1 2.2 1.4 3.4 2.1.2-1.2.9-2.7.5-3.6-1-2.2-2.4-4.2-3.8-6.1-3.1-4.3-.4-8.5.3-12.7 1-6.1 2.5-12 3.6-18.1.1-.8-1.2-2-1.8-2.9-.6.1-1.3.2-1.9.4-1.9 11-3.8 21.9-5.7 32.9-5.6 1.1-10.9 2.9-13 8.8-2.8 8 .9 14.3 9.1 14.6 4.1.2 4.1 2.1 4.4 4.9.4 4.7-.1 9.9 1.8 14 3.1 6.7 8.8 11.6 16.3 13.5 9 2.4 18.2 4.4 27.2 6.9 1.4.4 3.2 2.4 3.4 3.9.2 1.4-1.3 4.2-2.3 4.3-8.1.8-7.7 7-8.5 12.5-.1 1.1-.1 2.1-.2 3.6-8.5 1.1-16.7 2.3-25 3.4-3.4.4-6.9.9-10.3 1.1-4.7.2-8.7-.4-11.8-5-1.5-2.2-6.1-3.6-8.9-3.2-3.8.6-4.6 4.4-3.8 8.2.2.9 0 1.8 0 3.5-2.7-.3-5.2-.5-6.8-.7 1.9-4.8 5.4-9.4 4.5-12.7-1-3.6-6.2-6-10-9.3.9-1.3 2.3-2.7 3-4.5.8-2.1 2-5.1 1.1-6.6-5.1-8.5-3.7-18-5.3-27-.8-5-1.5-10.2-3.8-14.6-4.1-7.7-9-15.1-14.3-22-2-2.6-6.1-4.2-9.5-4.8-6.2-1-12.6-.8-18.9-1.4-5.8-.5-11.6-1.6-17.4-2.2-14.5-1.5-26.8 3.8-37.9 12.5-6.3 5-12.1 10.8-21.3 9.9-3-.3-6.2 1.3-9.2 2.2-1 .3-1.9 1.2-2.5 2.1-3.8 5.8 1.1 20.8 7.5 23.4 7.6 3.1 8.6 8.3 2.9 15.1-2.6 3.1-1.3 6.2 4.4 10.1-2.6 4.7-5 9.5-7.8 14.1-4.4 7.2-2.2 12.2 5.8 13.1.7 5.4 1.5 10.6 2.1 15.9.1.7-.7 1.6-1.2 2.3-4.5 6.2-1.9 13.1 5.6 14.9 1.1.3 2 1.8 3.9 3.7-4-.2-6.3-.3-9.6-.5.2 3.8.4 7.2.6 9.6-3.2 1.8-8.3 2.9-9.4 5.7-.9 2.3 3 6.4 5 10.1-7.5 3.6-10.8 11.9-14.9 19.6-1.3 2.5-3.2 3.7-6.6 3-4.2-.9-8.6-1.1-12.8-.8-3.9.2-7.3 1.7-5.3 7 .3.9-.3 2.2-.6 3.8-6.3-2.9-11.2-.6-13.9 4.6-3.2 6-8.6 2.3-12.8 3.9-2.4.9-5.6-.1-8.6-.3-.7-6.6-1.4-13.5-2.1-20.3.4-.2.9-.4 1.3-.6 3.7 3.5 7.3 5.7 11.1.7.4-.5 1.8-.4 2.7-.2 5.2 1.2 7.2-1.4 7.9-6.1.1-1.1.7-2.4 1.5-3 5.7-4 5-10.7-.6-14 .7-3.7 2.5-7.2 1.7-10.1-1.2-4.4-7.6-7.2-11.8-5.5-5 2-9.6 4.9-14.9 7.6-5.8-4.8-10.1-7.9-19.2.1-6.6 5.8-21.1 5.2-29.3 0-4-2.5-8.5-4.3-12.8-6.5 2.9-5.1 8.6-5.9 17.4-4.7 12.7 1.7 25.5 2 37.2-4.5 5.9-3.2 9.6-7.9 8.4-15.4 5-.2 9.3-2.3 9.7-7.2.2-3.2-2.2-6.6-3.5-9.9-.8-.1-1.5-.2-2.3-.3 2.6-2.2 5.1-4.6 8-6.4 1-.6 3.2-.4 4.2.3 5.2 3.4 11.4 3.7 15.7-.4 10.8-10.3 18-27.2 8.1-42.6-2.5-3.8-5.5-7.5-9-10.4-5.9-5.1-8-12.1-9.7-18.9-3.2-13.5-7.8-26-17.8-35.9-6.5-6.4-11.7-15-21.4-16.6-8.1-1.4-16.6-.7-24.9-.9h-3.9c1.2-1.8 2.3-3.6 3.5-5.4l-.9-.9c-2.5 2-5.1 4-7.8 6.2V140c-4.9 3.2-9.2 6.3-13.8 9-6.3 3.8-13.4 6.6-19.1 11.1-16.2 12.9-26.9 28.4-29.1 50.4-1.7 17.5 5.3 31.1 12 45.6 4.4 9.5 8.3 19.1 5.2 29.8-.3 1.2-.6 2.7-1.4 3.3-15.8 10.6-29.1 23.9-39.2 39.8-9.2 14.5-15.5 30.6-18 47.7-1.1 7.8-1.1 15.8-1.3 23.7-.2 6.9-.4 13.8.3 20.6.6 5.3 3.8 9.4 9.3 12.4H6.4c0-.5-.1-.9-.1-1.4 3.3-.5 6.6-1 10-1.5v-.8c-3.3-.5-6.7-.9-9.4-1.3-.4-6.5-.9-12.9-1.1-19.4-.1-4.5.2-9 .2-13.4.2-22.9.5-45.8.6-68.7.1-19.8 0-39.6 0-59.5V55.6c0-3.8.8-4.8 5.3-4 7 1.3 14.2 1 21.3 1.4 7.6.4 15.3 1 22.9 1.2 9.6.3 19.2.1 28.8.3 6.5.1 12.9.9 19.4.8 8.3-.1 16.6-.9 24.9-1 22-.1 44 0 66.1-.1 9.9 0 19.7-1.1 29.7-.2 8.8.7 17.7-.7 26.6-1.2 5.9-.3 11.9-1 17.7-.3 3.1.4 3.6-.4 3.8-2.7.4-2.8.8-5.7.8-8.5.1-10.6 0-21.3 0-32.6h313.5c0 13.9-.1 28.5 0 43.1.1 11.5.9 22.9.9 34.4 0 35.4-.4 70.8-.5 106.3 0 9.6.5 19.2.7 28.8.3 15.7.8 31.4.9 47.1 0 10.2-.8 20.3-.8 30.5-.1 26.7.1 53.4-.1 80.1-.1 11.4-.9 22.9-1 34.3 0 9.2.5 18.4 1.1 27.6.4 6.9-1.6 8.8-10.7 8.9-10.9.1-21.9-.1-32.8.1-6.9.1-13.8 1.1-20.7 1.3-11.3.4-22.6.5-33.9.8-9.4.3-18.8.7-28.2 1-3.5.1-7.1-.1-10.6.2-3.2.2-7.1-1.6-9.2 2.9-.3.6-2.4.4-3.7.4-9.5.4-19.1 1-28.6 1-8 0-15.9-.9-23.9-1-18.4-.2-36.8-.2-55.2 0-15 .2-30 .9-45 1-11 0-22-.9-33-.9-7.5 0-15 .9-22.6 1-33.9.1-67.7 0-101.6.1-12.2 0-24.4 1-36.6.8-14.9-.2-29.8-1.3-44.7-1.9-11.6-.5-23.1-.8-34.7-1-5.8-.1-7.5-1.4-7.3-6.9.1-3.2.7-6.4 1.2-10.4 7.2 1.1 13.9 2.1 20.7 3.1 0 .5.1 1 .1 1.4-5.1.2-10.2.5-15.2.7 0 .8.1 1.5.1 2.3 30.4-.8 60.7-1.6 91.1-2.3 0-.7.1-1.3.1-2-2.8-.2-5.5-.4-8.3-.5-3.1-.1-6.1 0-9.4 0 6-9.4 15.5-5.9 23.7-8.2h-15c3.2-6.6 6-12.4 9.3-19.1 2.7 3.8 4.8 7.3 7.5 10.3 1.9 2.1 4.8 3.4 7 5.4 3.9 3.5 6.2 7.8 7 13.2.8 5.7 3.9 6.6 8.8 3.4.9-.6 2-1 2.7-1.8 5.1-5.6 10.7-3 16.6-1.5 3.4.9 9.7 1.8 10.3.6 1.8-3.7 6.6-1.5 7.7-5.4h-27.2c5-8.7 10.1-17.7 15.3-26.7.4-.6 1.4-1.2 2.1-1.3 5.7-.1 11.5-.1 18-.1 0 12.7-.3 24.8.2 36.8.2 4.7 4.7 5.9 8.3 4.3 2-.9 2.9-4.3 4.6-6.9 7.7 3.4 17.2.7 26.5.8 6.7.1 13.4-1.2 20.1-1.8 13.5-1.1 26.9-2.2 40.4-3.2 3.3-.2 6.7 0 10.1-.1 17.1-.4 34.3-.7 51.4-1.1 14-.3 28-.7 42-1.1 5.7-.2 11.5-.8 17.2-1 1 0 2 1.1 3 1.7v-.1c-56.6 2.6-113.2 5.1-169.8 7.7 0 .8.1 1.5.1 2.3 21.6-.8 43.2-1.7 64.7-2.5-.2.5-.5 1.2-.7 1.9 2.1.7 4.1 2 6.2 2 19.6-.6 39.2-1.4 58.9-2.1 21.9-.8 43.8-1.4 65.7-2.1 2.3-.1 4.6-.4 6.9-.6.1.5.1 1 .2 1.4-13.9 1.3-27.7 2.5-41.6 3.8.1.8.2 1.6.3 2.3 6.9-.8 13.8-1.9 20.7-2.4 8.3-.6 16.6-.8 24.9-.9 22.8-.5 45.5-1.1 68.3-1.4 16.9-.2 33.8 0 50.7 0 4.6 0 9.3.1 13.9-.1 1.8-.1 3.7-.9 6.9-1.7-2.7-1.3-4-2-5-2.4 2.7-11.7 6.3-23 7.6-34.6 1-9.1-.7-18.6-1.3-27.9-.4-6.5-.6-13-5.7-17.9-.7-.7-1.6-2-2.2-1.9-6.8 1.5-7.6-5-10.9-8-.6-.5-.4-2.9.2-3.3 3.1-2.3 2.3-4.9 1.3-7.8-6-18.4-13.3-36.1-22.6-53.2-5.9-10.8-10.8-22-16.2-33.1-.5-.9-1.2-2.3-.9-3 3.6-7.6-1.5-12.2-5.4-17.3 7.4-8.9 15.7-17.7 22.6-27.4 10.4-14.8 16.6-31.4 14.6-50-.6-5.7-2.6-11.3-4.8-16.6-1.6-3.9-3.3-7.3-2-11.8.8-2.9-2.5-6.3-5.7-7.2-.4-.1-.5-1.1-.8-1.6-.8-1-2.1-2.9-2.5-2.7-5.6 2.6-7.3-3-9.1-5.4-4.4-6-10.6-8.8-16.9-11.5-18.6-7.9-37.8-6.9-56 .3-9.6 3.8-18.1 11.2-26.3 17.9-6 4.9-10.7 11.3-15.8 16.8-2.3-1.4-5.8-3.2-9.1-5.3-3.6-2.3-5.3 0-6 2.8-1.3 5-2 10.2-3 15.4.6.1 1.1.3 1.7.4 1.3-5.1 2.6-10.1 4.2-16.3 5.2 3.9 9.5 7.2 14.1 10.6.9-1.3 1.6-2 2-2.9 7.4-16.6 21.4-26.1 37.2-33 8.1-3.6 17.3-6.2 26.1-6.6 13-.6 25.9 2.4 37.2 9.5 8.8 5.6 14.1 13.9 19.7 22.7 4.1 6.5 6.9 13 8.8 20.1 1.1 4 1.5 8.2 1.5 12.4.1 14.6-5.4 27.7-13.2 39.6-5.7 8.8-14.7 15.7-19.5 24.8-7.2 13.5-21.4 13.2-32.2 19.4-6.1 3.4-12.8 5.9-19.1 9-2.8 1.4-6.8 12.1-5.6 14.8.3.7 1.2 1.4 2 1.6.5.1 1.5-.6 1.7-1.1.5-1.3.7-2.7 1.3-5.3 2 4.4 1.4 10.1 7.7 8.6l.1-.2zm2.3-90.3c0 5.2 4.4 7.8 8.6 6.1 3.7-1.5 9.8-10.7 9.5-14.3-.7-7.8-4.8-12.4-12.1-13.7-5.5-1-10.6 2.4-10.4 7 7.6-4.2 11.5-3.9 15.2 1.2 2.8 3.7 2.6 9.6-.7 13.1-2.7 3-5.6 5.7-10.1.6zm-313 248c0-.3 0-.5-.1-.8h-14.7c0 .7.1 1.4.1 2.1 4.9-.4 9.8-.9 14.7-1.3z" fill="#fff"/>
  <path d="M190.5 268.8c3.8-3.1 7.8-5.8 11.2-9.2 3-2.9 5.5-6.3 2.3-11-1.1-1.6-.5-4.3-1.2-6.3-.4-1-2-1.6-3-2.3-.3 1-.9 2-1 3-.4 4.4-.4 8.9-1.2 13.2-.9 5.1-4.9 6.6-10.3 3.9 1.6-2 3.1-3.8 4.9-5.9-3.9-5.9-15.4-1.6-16-11.9-.5-.2-1-.4-1.4-.6-.8 1.6-2.5 3.3-2.3 4.9.6 5.1 2.8 9.6 6.7 13.2 1.7 1.6 2.7 4 3.9 6.1-2.8 1.6-6 4.9-8.3 4.4-4-.9-5 1.7-6.7 3.4-1 1-1.1 2.8-1.6 4.3 1.4-.5 2.7-1 4.3-1.6-.2 4.2 9.8 7.5 1.6 13.6-2-1.7-3.9-3.4-6.7-5.9 0 5.1-.1 8.6 0 12.1.4 8.1-5.8 10.5-11.5 12.3-11.3 3.6-23 2.7-34.6.5-5.9-1.1-10.5 1.3-15 4.7-1 .7-3.3 1-4.1.3-6.5-5-12.7-10.3-19.1-15.5-3.1-2.5-5.3-4.1-3.1-9.6 4.6-11 3-22.3-3.4-32.7-.7-1.1-1-2.5-1.5-3.7l1.5-.9c2.1 3 4.1 6.1 6.2 9.1 1.1 1.5 2.2 4.1 3.5 4.2 1.5.2 3.8-1.5 4.7-3 3.9-6 7.4-12.2 11.2-18.6-4.8.4-9.4 1.4-10.5 8.2-.5 0-1 .1-1.5.1-.7-1.7-1.3-3.3-2-5-.6.4-1.2.8-1.8 1.1.1 1.7.3 3.4.4 5-.5.1-.9.2-1.4.4-1.4-5.2-2.8-10.5-4.1-15.7-.6.1-1.3.1-1.9.2v12.3l-1.5.3c-1.8-8.7-3.6-17.3-5.5-26.3-3.6 3-3.4 7.4.8 20-2.1-1.6-3.4-2-3.8-2.9-4.4-11-7.8-22.2-5.3-34.2 1.1-5.4 1.5-10.9 3.2-16.1 1.1-3.3.8-8.8 7.2-8.2.7.1 1.8-2.9 2.6-4.6 4.8-11.2 15.6-15.7 24.7-21.9 1.2-.8 4.1.8 6.9 1.5.3-1.2.7-3.1 1.4-6 1.7 1.3 3.2 2.5 4.7 3.6 10.1-8.5 26.1-9.9 43.7-3.5-.8.9-1.6 1.8-2.9 3.2 3 .6 5.8.4 7.7 1.6 5.5 3.6 9.3 8.8 11.8 15 .3.8 1 2.2 1.3 2.2 6.9-1 6.6 5.6 7.8 8.8.8 2.2-.6 6.1.9 9.3 5 10.8 8.1 22.8 16.7 31.5 3.5 3.5 7 6.4 8.1 11.6 2.5 12.1 1.9 23.2-8.1 32-3 2.8-6.1 4.4-9.6 2zM135.6 232c1-6-1-10.2-6.8-14.7-1.3-1-3.2-2.3-4.6-2.1-13.4 2-20.8 12.8-17.3 25.7.8 3 4.8 5.6 7.9 7.2 1.4.7 4.2-1.2 5.4-1.6-3.1-2.5-6.7-4.1-7.7-6.7-1.3-3.2-1-7.5-.1-11 1.3-4.9 4.7-8.5 10.3-8.9 5.2-.4 8.8 1.4 10.2 6.8.4 1.4 1.4 2.8 2.7 5.3zm45.5 2.1c-.1-.6-.3-1.3-.4-1.9-2.8.4-5.6 1.1-8.4 1-2.4-.1-4.7-1.1-7-1.8v-1.8c-3.9 1.6-7.7 3.1-12.9 5.3 6 .7 10.5 1.9 14.9 1.7 4.6-.4 10.1 1.8 13.8-2.5zm-25.6-6.6c-.2-.3-.3-.7-.5-1-1.9.6-4.5 2.4-5.6 1.7-4.2-2.7-5 1-5.5 3-.4 1.6 1.1 3.8 2 6.5 4-4.2 6.8-7.2 9.6-10.2zM281.4 206.9c2.9 7.5 5.8 14.7 8.4 22 1.3 3.9 1.9 7.7 7.4 7.8 1.7 0 3.4 1.9 5.1 2.8 3.7 2 7.9 3.5 11.1 6.2 2.7 2.2 4.5 5.7 6.2 8.9.5.9-.9 2.9-1.4 4.3-2.6-4.2-4.9-7.7-8.1-12.8-1.4 5.8-3.2 10.3-3.3 14.9-.1 3.3 9.8 4.8 13.4 2.3 1.3-.9 2.7-1.5 4.5-1.2-5.1 2.3-8.8 10.1-16.3 4.9-.5-.3-1.8.6-2.7.9.6 1.4.9 3.6 1.9 3.9 3.7 1.1 7.6 1.5 11.4 2.2 1.7 2.7 4 6.3 6.4 10.1-6.3 5.9-4.5 13 5.6 19.1-12.5 2-25 4-39 6.3 3.4-3.6 6.1-6.4 8.8-9.3l-1.2-1.8c-7.9 10.7-19 12.5-30.7 12-1.2 0-2.3-2-2.7-4 2.1 1 4.1 1.9 6.4 3 1.8-2.1 3.7-4.2 5.5-6.3-5 0-10.4-.1-15.7 0-3.7.1-7.3-.3-8-4.6-.8-4.7 3-5.6 6.5-6.5.7-.2 1.4-.3 2.1-.4.2-.5.4-1.1.7-1.6-2.2-1.1-4.5-2.2-6.6-3.3 1.4-2.1 5.8-2.1 10.8.4 1.3-3.5 1.3-5.7-3.4-5.1-1.6.2-3.3 0-5 .1-3.7.2-4.4-1.8-3.8-5 .3-1.8.3-3.7.4-4.8 3.8.7 7.9 1.5 12.3 2.3.1 3.2 1.3 6.7 5.5 8.9 1.4.7 1.9 3 2.9 4.5 1.2 1.8 1 5.6 6.4 2.8-2.1-3.3-3.4-7.9-6.2-9.3-4.4-2.2-5.1-5-4.8-9 .4-4.8-.8-9-5.3-11.5-1.2-.6-2.9-.4-4.3-.5-.1.5-.3.9-.4 1.4.8.6 2 1 2.2 1.8.7 2 1 4.2 1.5 6.3-1.7-.3-3.4-.9-5.2-1-2.7-.2-5.4 0-8.1-.1-1.8-.1-3.6-.4-5.5-.5.3-1.8.1-3.9 1-5.3 2.5-4 5.4-7.7 8.3-11.4 1.3-1.6 3.2-4 4.5-3.8 1.7.2 3.1 2.6 4.6 4.2 2.7 2.8 5.3 5.7 8.2 8.3.5.5 2.4-.7 3.7-1-.8-1-1.4-2.1-2.4-2.8-2.1-1.4-4.4-2.5-6.8-3.9 2.7-1.3 4.4-2.1 6.2-2.9-1.6-1.1-3-2.4-4.7-3.4-1.4-.8-3-1.1-5.3-1.8 5.4-3.1 9.5-.4 13.9 2.1 1.3-3 6.7-2.9 4.6-8.1-1.2-2.9-1.1-6.4-6.3-5.4.4-5 .8-9.6 1.2-14.1l-2.1-.3c-.9 5.6-1.8 11.2-2.6 15.8-6.5 1.8-13.1 3.7-19.8 5.5-.1-.4-.2-.7-.4-1.1 2.3-1.2 4.7-2.3 7.2-3.5-6.9-4.2-1.8-9.5-2-13.1 4.8-.5 9.2-1 14.1-1.5-.3-1.9-.6-3.3-.8-4.9 1.2-.5 2.5-1.1 5-2.2-2.9-.9-5.2-2.4-6.5-1.8-4.4 1.9-7.9.3-11.8-1.3-1.3-.5-3 0-4.5 0 .9 1.2 1.8 2.5 2.7 3.6-3.2 1.2-3.2 1.2-9.7-5 1 2.6 1.9 5.2 2.8 7.6-4.3-.3-6.7-3.4-7.1-9.4-.4-5 .4-8.8 6.7-8.8 3.4 0 7-.2 10.3-1.2 3-.9 6.2-2.4 8.3-4.6 9.7-10.2 21.3-16.1 35.3-17.1 2.8-.2 6 0 8.6 1 8.5 3.3 17.1 1.5 25.7 1.4 9.7 0 15.8 5.2 20.9 12.9 9.1 13.7 10.5 29.3 12.3 45 .4 3.6 2.2 7 3.7 11.6-1.1 2-2.9 5.3-5.4 9.9 3 1.8 6.1 3.8 9.3 5.6 2.7 1.6 4.1 3.6 2.2 6.6-3.3 5.4-6.4 11-10.3 15.9-1.2 1.5-5.1.7-7.7 1 .1-1.4.2-2.9.5-4.3.1-.4.8-.9 1.2-1 6.5-1 6.4-1 6.7-7.9.1-1.3 1.2-2.6.9-4.8-1.1 1.6-2.1 3.1-3.2 4.7-.4-.2-.8-.5-1.2-.7.7-1.5 1.3-3 2-4.4-.3-.2-.7-.5-1-.7-2.4 3.2-4.8 6.5-7.6 10.3-.8-2.2-1.4-3.9-2.3-6.5-3.2 3.5-5.8 6.9-9.1 9.6-5.1 4.1 4.3 7.1-.3 10.9.4.3.8.6 1.1.9 2.2-.8 4.4-1.6 6.5-2.4.6 4.9-1.5 6.9-6.2 5.1-6.2-2.4-12.2-5.2-18.7-8.1 1.5-2.7 2.8-5.1 4.4-8-2.6-1.1-5.2-2.2-7.7-3.4-4-2-5.1-6.5-1.8-9.2 4.6-3.7 3.2-9 4.7-13.5.1-.4-.2-4.3-3.6-1.8-1.3.9-4.8-1.2-7.2-2.7 6.3-1.4 13.1-.3 18.9-6.6-5 .9-8.7 1.6-12.4 2.2-.1-.2-.1-.5-.2-.7 1.5-1 3.1-2.1 4.2-2.9-5.4-.7-10.9-.8-16.1-2.2-6-1.6-11.7-4.1-17.4-6.6-1.4-.6-2.7-2.4-3.4-4-2.2-4.8-3.6-9.9-6.3-14.4-1.9-3.2-5.1-5.8-8.1-8.2-.9-.7-3.1 0-4.6.5-.5.2-.5 1.7-.8 2.7l4.8-.3c.1-.1.6-.4 2.5-1.4zm39.2 21.1c.4-1.3.9-2.6 1.3-4 0-.1-1.3-.8-1.8-.6-3.3 1.5-6.5 3.1-9.8 4.7.1.4.2.8.3 1.3l10.2-1.5c-1.3.9-2.5 1.9-4.3 3.2 3.9.4 7.1 1.4 10 .8 3.6-.8 7-2.9 10.4-4.5.2.3.3.6.5 1-1.2 1-2.5 2.1-3.7 3.1.3.4.5.7.8 1.1 3.4-2.3 6.7-4.7 11.2-7.9-2.6-.6-4-1.4-5.1-1.2-6.8 1.3-13.4 3-20 4.5zm-5.2 48.7c-.7-.2-1.4-.4-2.1-.5-3.5 9.4-7.1 18.7-10.6 28.1.4.2.8.3 1.2.5 1.5-1.7 2.9-3.5 3.9-4.7 2.6 1.7 4.6 3 7.6 4.9v-28.3zm37.8-13.7c1-2.4 1.3-4.7 2.5-5.9 4-3.9 5-5.7 4.6-11.2-1.1 2.3-2 4.1-3.2 6.7-.5-2.1-.7-3.3-1-4.5-.4-.1-.8-.1-1.1-.2-1.6 4-3.2 8-4.9 12.2.8.8 1.8 1.7 3.1 2.9zm-52.9-43.1c7.4 4.3 13.8 4.4 16.8.9-5.3-.3-10.4-.6-16.8-.9zm47.6 44.7c-.5-.2-1-.4-1.4-.6l-5.7 6c.3.3.6.7.9 1 1.1-.6 2.2-1.2 3.4-1.8.3.9.6 1.8.9 2.6.5 0 .9.1 1.4.1.1-2.5.3-4.9.5-7.3zM163.1 404.4c.8-2.7 1.4-5.6 2.5-8.2 1.9-4.5 6-1.8 8.9-2.1 5.5-.6 11-.1 16.6.2 3.9.2 6.4-2 6.2-5.2-.3-4.9 2.3-4.9 5.6-4.9h8.1c.7-3.1 1.4-6.2 2.1-9.2H257c2.5 0 5-.8 7.5-.7 9.4.2 18.8.5 28.1 1.1 8.2.5 15-3.3 22.1-6.5 1.1-.5 2.3-1.2 3.5-1.2 9.6-.5 19.3-1 28.9-1.1 12.1-.2 24.1 0 36.2-.1 2.3 0 4.8-.2 6.9-1.1 4.7-2.1 7.3-.9 7.8 4.7.6-.1 1.3-.2 1.9-.3.2-3.2 1.5-6.8.4-9.5-.9-2.2-4.4-4.1-7-4.6-5.2-1-10.6-1.1-16-1.2-3.2-.1-4.1-1.5-4.1-4.5 0-3.7 0-7.4-.4-11-1.1-9.6-7.7-15.8-13.8-22.5-1.2-1.3-1.3-3.9-1.3-5.9-.1-2.9.8-6 .2-8.8-.9-4.2.6-6.9 4.9-7.8 2.9-.6 5.7-1.9 8.6-3-2.1 4.5-.6 15.6 4 17.7 5 2.2 6.8 11 14.4 7.4 2.8 7 6.5 12.1 14.2 15.8 8.4 4.1 12.7 1.6 18.2-3.5 1.8-1.6 5-1.7 7.7-2.4 6.1-1.6 12.1-3.1 18.9-4.9-1.2 8.4-2.3 15.5-3.2 22.6-.2 2.1.9 4.3.7 6.4-.2 2.3-.8 4.8-2 6.8-2.3 3.9-5.4 7.3-7.7 11.2-2.3 4-5.3 8.5 1.4 11.8.6.3 1 2.5.6 3.4-1.9 4.4-4.1 8.6-6.7 14.1-2.1-3.2-3.5-5.9-5.4-8.3-1.2-1.5-2.9-2.7-4.4-4-4.4-3.8-8.8-7.6-13.1-11.5-2.8-2.4-6-3.4-8.5-.6-2.1 2.3-4.3 5.6-4.3 8.5-.2 17.2 10.4 28.8 22.4 39 5.5 4.7 12 8.3 19.1 13.1h-23.1c.2-.5.5-1.2 1.2-2.8-5.7 0-10.9.3-16.1-.1-3-.2-6-1.4-9-2.1-2.3-.5-4.6-1.1-6.9-1.1-6.8-.1-13.7-.1-20.4-.1v-26.1c0-7.5.5-7.8 8.1-7.4 7.5.4 14.9.1 22-5.4-2.9-.4-5.9-1.1-8.8-1-2.9 0-5.7 1-8.6 1.2-14.3 1.1-28.8 1.1-43 3.4-8.1 1.3-15.5 6.4-23.4 9.4-4.3 1.6-8.9 3.2-13.5 3.4-10.7.5-21.5 0-32.2.2-12.8.2-25.5 1.1-38.3 1-13.2-.2-26.5-1.4-39.7-1.9-7.6 0-14.9.2-22.9.2zm167.3-16.2c1.5-.9 3-2 4.6-2.8 1.5-.7 3.2-1.1 4.9-1.6-.2-.6-.4-1.1-.5-1.7-3.6.8-7.2 1.5-10.7 2.3-.1-.3-.2-.7-.3-1 4.2-1.4 8.5-2.8 12.7-4.2-.2-.5-.3-1.1-.5-1.6-6.8 1.2-13.6 2.5-20.4 3.7-.2-.6-.3-1.1-.5-1.7 7.1-2.2 14.1-4.4 21.8-6.8-5-1.6-9.7-.4-14.6-2.4-7.2-3-15.3.5-20.8 7.3 2.6-1.1 5.3-2.2 9.3-3.8-5.5 4.7-9.7 8.3-14 12 .4.4.8.9 1.2 1.3 1.2-.8 2.4-1.7 3.5-2.5.2.2.4.3.6.5-1.6 2.7-3.2 5.5-5.5 9.4 3.6-.3 6-.6 8.4-.8-1.9 2.1-3.7 4.1-5.6 6.2.3.2.5.5.8.7 11-4.3 22-8.6 33-12.8v-.8c-2.5.3-5 .7-7.4 1.1z" fill="#fff"/>
  <path d="M353.2 427.6c-11 0-21.1-.3-31.3.1-13.9.5-27.8 1.5-41.7 2.1-4.3.2-8.6-.2-12.8.1-13.1.9-26.2 2.2-39.3 3.1-8.1.6-16.3.9-24.4 1.3-1.9.1-3.8 0-5.7 0 0 .6 0 1.2-.1 1.9 2.3 0 4.5.1 6.8 0 10.7-.8 21.4-1.8 32.1-2.5 8-.5 16-.6 24.1-.9 6.3-.2 12.5-.5 18.8-.7 12.9-.5 25.6-2.5 38.6-1.4 12 1 24.2-.4 36.3-.8 1.3 0 2.5 0 3.8.6-5.4.5-10.7 1.4-16.1 1.6-12.9.5-25.9.6-38.8 1.2-16.4.8-32.8 2.2-49.3 3.2-14.2.9-28.4 1.5-42.7 2.3-5.4.3-10.7 1.2-16.1 1.5-1.1.1-3.2-1.4-3.2-2.1.3-9.3.8-18.5 1.3-28 5.4.7 10 2.1 14.6 1.7 15.6-1.2 31.2 1 46.9-.6 9.1-.9 18.3-1 27.5-1.3 5.2-.2 10.3-.1 15.5-.1 5.2 0 9.9-.7 14.2-4.1 5.3-4.1 10.7-7.8 18.2-7.4 5.6.3 11.3-1.5 17-2.4 3.8-.6 6 .1 5.8 4.9-.3 8.7 0 17.4 0 26.7zm-24.7-1.2c0-.5.1-1 .1-1.5-2.2-.6-4.3-1.7-6.5-1.6-8.6.3-17.1 1.1-25.7 1.3-12.8.4-25.6.4-38.5.7-7.6.2-15.1.7-22.7 1.1-11.8.7-23.6 1.5-35.3 2.3-1.2.1-2.3 1.2-3.5 1.9.2.6.4 1.2.6 1.9 5.3-.8 10.6-1.9 16-2.2 11.5-.8 22.9-1.2 34.4-1.7l24.3-1.2c10.9-.4 21.8-.9 32.7-1.1 8.1-.1 16.1.1 24.1.1zM473.8 277.2c15.4-7.6 30.8-15.2 47.1-23.2 7.2 15.6 14.3 31.2 21.6 47.2-2.7-.2-5.2-1.1-6.3-.3-1.3 1-1.5 3.6-2 5.5-1.3 5.6-2.5 11.2-4.1 18.2-3.4-3.9-5.9-6.8-8.5-9.7-1.3-1.5-2.6-3.2-4.2-4.3-2.1-1.4-3.8-2.5-5.8 1.2-3.9 7.1-8.9 13.5-13.6 20.4-3-4-5.8-7.7-8.6-11.5 5.7-1.4 10.9-2.6 16-3.8-.1-.9-.3-1.8-.4-2.7h-37.2c-3.1-7.8-6.1-15.7-9.5-23.4-1.5-3.4-.2-3.9 2.8-4.5 7.2-1.5 14.4-3.4 21.5-5.5 1.8-.5 3.4-1.9 4.5-3.8-4.3.2-8.9.2-13.3.2-.1-.1 0 0 0 0zM485.4 439.9h57c.1-.5.2-.9.3-1.4-1.9-.3-3.7-.9-5.6-.9-16.7-.1-33.3 0-50 0-6.6 0-7.9-1.8-8.8-8.4-.4-3.4-2.6-6.6-4-10 1.3-1 2.5-1.9 3.5-2.7-.9-1.6-2.6-3.1-2.4-4.3.6-3.9 1.5-7.8 3-11.4 2.7-6.7 7.4-1.7 11.3-1.5 3.7.2 7.4.6 11.1 1.2 1.6.3 3 2 4.5 1.9 10.8-.5 14 8.9 18.6 15.2 9.2 12.6 19.5 7.3 25.8-1 1-1.3 2.2-2.5 2.7-3.1 1.5 10.1 3.1 20.2 4.6 30.7-.4-.2-1.7-1-3.2-1.5-1.1-.4-2.4-.7-3.6-.7-18.1 0-36.3-.1-54.4 0-2.7 0-5.4 1-8.1.9-1.2 0-2.5-1.4-3.7-2.2.5-.2 1-.5 1.4-.8zM165.8 328.6c-3.9.7-7.1 1.3-11.6 2.1 5.3 6.6 15.7 4.7 16.7 15.4-2.7-1.6-4.8-3-7-3.9-1.3-.5-2.8-.3-4.3-.4.2 1.3-.1 2.9.6 3.9 1.2 1.9 2.9 3.6 5.5 6.6-8.9-2.9-12.8 2.5-17.7 6.4-3 2.4-7 3.6-10.6 5.1-2.7 1.1-5.5 2-8.3 2.4-4 .6-7.6 2.1-11.2-2.8-2.5-3.4-8.6-5.5-13.2-5.9-7-.6-14.2.9-22.3 1.5-2.2-2.7 1.5-5.4 3.2-8.3 4.3-7.1 9-14.1 12.9-20.2 6.9 2.2 13.1 5.7 19.2 5.8 11.6.1 23.7.8 33.6-8.3 6.2-5.5 8.7-5 14.5.6z" fill="#fff"/>
  <path d="M451.2 328.2c3.9 6.8 7 13.1 10.9 18.7 3.2 4.5 4.8 4 7.4-.8 3.4-6.1 6.9-12.2 10.1-17.9 6.5 8.6 12.8 17 20.2 26.8 2-3.4 3.2-5.4 4.5-7.5 4-6.5 7.9-13 12.2-19.9 7.2 7.3 13.3 13.5 19.4 19.7.8-.2 1.5-.5 2.3-.7 1.9-8.5 3.7-16.9 5.6-25.8 10.2 5.4 14.6 14.5 15.7 26.1-6 3.7-12.6 6.2-20.3 7.7-17.9 3.5-35.8 4.8-53.8 3.8-10.5-.6-20.9-3.4-31.2-5.5-1.2-.2-2.9-2.3-2.9-3.5-.3-6.8-.1-13.6-.1-21.2zM462.7 313.3c-11.9 2.6-23.9 5-35.8 7.8-2.6.6-5.1 2.5-7 4.4-2.8 2.8-5.5 5.2-10.3 3.9 1.8-2.6 3.4-5 5.3-7.7-6-2.3-7.6 8.3-14.6 3 2.8-1.5 5.1-2.3 6.9-3.8 1.1-.9 1.5-2.7 2.3-4.1-1.5-.1-3-.5-4.3-.1-1.5.5-2.7 2.2-4.2 2.4-1.7.3-3.5-.5-5.3-.9.8-1.3 1.4-3.1 2.6-3.9 3.1-2.1 6.4-3.7 9.7-5.5-4-9-10.3-3.2-17.1-3.2 1.6-2.3 2.2-4.3 3.2-4.5 4.1-.8 8.5-.9 12.6-1.7 2.4-.5 4.6-1.8 6-2.4-1.7-4.7-3.1-8.3-4-12.1-.1-.3 3.6-1.5 5.6-2.4.9 2.9 1.3 5 2.3 6.8 5 8.6 6.6 6.5 17.8 4.2 6.4-1.4 12.7-3.4 18.7-5.1 3.4 8.9 6.6 17.1 9.6 24.9zM140.1 405.5c1.3.6 2.9 1.3 5.7 2.6.3-2.7.5-4.9.9-7.1.2-1.4.3-3.3 1.2-3.9 5-3.8 4.4-9 1.4-12.5-5.3-6.2-1.9-11.8-.2-17.4.8-2.9 2.6-5.7 4.5-8 1.2-1.4 3.7-2.6 5.5-2.5 1.4.1 3.3 2.1 4 3.6 4.7 9.8 2.7 19.8-.5 29.2-3.6 10.5-8.5 20.5-12.9 30.8-3.5 8-8.5 14.9-15.6 20.2-1.4 1-3 1.9-4.7 2.9-.3-1-.6-1.5-.7-1.9-.5-9.2.4-12.7 5.5-23.2 2.2-4 3.9-8.2 5.9-12.8zM478.1 440.1c-7-1.9-14.2-3.8-21.3-5.9-14.6-4.3-27.6-11.4-38.7-22.1-6.4-6.1-12.7-12.2-15.9-20.7-1-2.7-2.1-5.5-2.2-8.3-.1-1.8 1.2-4.1 2.7-5.5.9-.8 3.7-.9 4.7-.1 7.4 6.2 15.8 11.3 15.2 23.5-.3 5.1 3.8 10.6 6.2 15.7.4.9 2.7 1.1 4.1 1.4 1.1.2 2.8-.6 3.5 0 3.8 3.1 4.3 1 4.3-2.4 0-.8.3-1.5.4-2.3.9.3 2.1.3 2.8.9 3.1 2.6 5.9 5.5 9.1 7.9 4 3 7.9 6.1 13.7 6.2 5 .1 11.3 7.9 11.4 11.7zM251.9 359.2c20.7-9.4 41.1-19.3 62-27.9 13.8-5.7 27.9-4.6 42.1 3-9.4 5-19.3 6.3-29.2 8 3.3-1.4 6.6-2.9 9.8-4.3-.3-.6-.5-1.2-.8-1.9-19.2 6.6-38.4 13.2-57.5 19.8-.1-.4-.3-.8-.4-1.1l24.3-10.8-.9-1.8c-8.1 3.7-16.2 7.3-24.2 11.1-.9.4-.9 2.7-1.8 3.2-3.2 1.8-6.6 3.8-10.1 4.4-4.1.8-8.4.2-12.6.2-.1-.7-.4-1.3-.7-1.9z" fill="#fff"/>
  <path d="M373.5 284.9c3.6-1.3 7.1-3.3 10.8-3.7 3.8-.4 7.8.9 11.7 1.5l1.2-2.1c-2.4-2.7-4.8-5.4-7.2-8.2v-1.6c1.7.1 4.5-.4 5 .5 6.2 9.7 15.6 6.7 24.2 6.2 7-.4 13.9-1.6 20.9-2 1.5-.1 4.5 1.7 4.5 2.7 0 2.7 3.5 6.8-2.6 7.9-5.4 1-10.7 3-16 4.5-3.4 1-6.2 0-6.1-3.8.2-5-3.7-6.5-6.8-7.2-2.9-.7-6.8-.6-8.9 3.4-2 3.9-.5 6.6 2 9.3.6.6.9 1.4 1.6 2.4-5.5.6-10.5 1.1-15.5 1.8-1.3.2-2.6 1-3.5 2-3 3.2-5.9 6.6-9.4 10.6-1.6-2.5-2.3-3.7-3.2-5.1 3.2-1.9 6.2-3.6 9.2-5.3-.2-.6-.3-1.2-.5-1.7h-11.4c-.1-.5-.2-.9-.2-1.4 2.7-1.2 5.6-2.3 8.1-3.8 1-.6 1.3-2.4 1.9-3.6-1.1-.4-2.3-.9-3.4-1.1-2.1-.3-4.2-.3-6.3-.5-.1-.6-.1-1.1-.1-1.7zM573 365.2c1.3 5.1 2.7 8.9 3.1 12.8.7 6.4 1.3 12.8 1.1 19.2-.2 7-2.1 14.1-1.9 21 .2 7.9-3.4 14-6.5 20.6-1.6 3.3-3.6 2.8-5.2.5-4.5-6.2-4.3-20.7.1-27.4 1.3-2 2.6-3.9 3.7-6 3.6-7 3.1-9.2-3.4-13.9-2.7-2-3.8-10.4-1.7-13.1 3.1-4 6.3-8.1 10.7-13.7zM273.6 361c5.7-1.6 11.4-4.6 17.1-4.5 5.1 0 10.8-3.2 14-1.5 3.5 1.9 8.6-2 10.6 3.4.2.4 4.2-.8 7.1-1.3.2.3.7 1.3 1.7 3 8.7-1.5 17.7-3.1 26.8-4.7 6.5-1.1 9.1-4.3 8.4-11.1-2.6 1.2-5.4 2.3-5.6-2.3-4.7 1.5-8.9 2.8-13.2 4.2-.1-.4-.2-.9-.3-1.3 6.1-2.8 12.2-5.6 20-9.2 1.5 1.8 5.3 4.9 6.7 8.7 1.5 4.4.9 9.6 1.2 15.7-31.5.9-62.9 1.9-94.3 2.8 0-.7-.1-1.3-.2-1.9zM117.4 419.7c-3.5-2.8-6.7-5.2-9.7-7.9-.7-.7-1.3-2.4-.9-3.3 4.3-11.3 8.8-22.5 13.2-33.7.1-.3.6-.3.9-.5 9.4 6.8 11.3 13.9 6.6 23.9-2.7 5.7-5 11.5-7.6 17.2-.7 1.7-1.8 3.1-2.5 4.3zM476.4 395.7c-2.2 5.5-4.3 10.7-6.9 17.1-5.7-3.7-11.7-7.3-17.4-11.3-3.5-2.5-6.3-6.2-10-8.5-4.2-2.7-1.7-5.1-.6-7.8 1.4-3.4 3.5-1.9 5.8-1.1 8.3 3.1 16.7 6.1 25 9.2 1.5.6 2.8 1.6 4.1 2.4zM521.1 248.3c-9.5 5.1-18.6 10.1-27.9 14.9-5.7 2.9-11.7 5.4-17.5 8.1-3.4 1.6-4.6.4-5-3.1-.5-4-.6-6.4 4.6-8.3 12.9-4.7 25.3-10.9 38-16.4 4.1-1.7 5.9 1.1 7.8 4.8zM521 403.7c9.8-4 21.6-3.7 29.8-13.3.8 2.7 2.5 5.1 2 6.8-2.3 7.8-4 16.2-12.4 20.4-4.4 2.2-8.2 1.2-11.1-3-2.5-3.7-5.4-7.1-8.3-10.9zM186.9 354c-2-2.5-3.9-5-6-7.4-.2-.2-1 .1-2.1.2v9.7h-1.3c-.8-1.9-1.7-3.7-2.6-5.7-2.2 1.4-4 2.6-5.9 3.9-.3-.3-.7-.6-1-1 2.1-3.4 5.7-6.6 6-10.2.2-3.4-3-7-5.3-11.8 3.4-2.8 6.6-9.1 13.8-10 4.4-.5 9.3-.7 10.5 6.7-4.9-.4-9.7-.8-14.5-1.2-.2.4-.5.7-.7 1.1 1.7 1.2 3.5 2.3 5 3.8 1.1 1.1 1.6 2.6 2.4 3.9-1.6.1-3.4.5-4.8.1-1.7-.5-3.1-1.9-5.1-2.1 9.6 8.1 9.6 8.1 14.3.8 2.4 2.5 4.5 4.7 6.6 6.9-.3.6-.7 1.2-1 1.7-2.6-.6-5.2-1.3-9.2-2.3 1 4.3 1.9 8.3 2.8 12.4-.7.2-1.3.3-1.9.5zM471.7 455.1c2.2-.3 4.4-.9 6.6-.9 14.1-.1 28.3.1 42.4-.1 6.4-.1 12.8-.9 19.3-1 6.5-.1 12.9.3 19.4.2 8 0 16.1.5 23.9-.8 4.7-.8 4.8 1.1 5.4 4.2H471.8c0-.4-.1-1-.1-1.6zM77.5 362.4c-16.1-5.6-26-19.7-39.9-28.7 1.2-2.9 2.4-5.6 4.3-9.9 12.4 13.4 24 26 35.6 38.6zM33.5 340.7c12.7 8.7 24.8 17 36.6 25.1-5.2 4.8-8.3 4.6-14.2-.4-6.4-5.4-13-10.6-20-15.2-5-3.3-4.2-6.3-2.4-9.5zM281.3 328.4c1.1-11.1 10.1-12 17.9-14.1 8.9-2.4 17.8-4.5 26.8-6.5 2.3-.5 4.8-.1 8.7-.1-18.6 7.3-36 14-53.4 20.7zM437.9 396.9c7.8 5.3 15.4 10.5 23 15.7.6.4 1.3.6 2 .9 7.5 3.1 7.5 3.1 6.5 11.5-10.8-.9-31.8-19.7-31.5-28.1zM25.4 362.8c1-3.1 1.9-5.8 2.4-7.5 9.4 5.9 18.7 11.6 28 17.4-2.6 4.3-6.4 5.2-11.7 1.8-6.2-3.9-12.5-7.8-18.7-11.7zM79.6 308.8c-4.3 4.2-7 1.8-9.4-2.7-.7-1.4-2.2-2.5-2.8-4-.5-1.4-.7-3.9 0-4.4 1.2-.8 4.2-1.2 4.7-.5 8.5 11.9 21.7 18.2 32.3 27.6.6.5.8 1.4.3 2.9-8.2-6.1-16.3-12.2-25.1-18.9zM236.8 367.5h67.3v2.2c-22.4 3-44.9-1.7-67.3.4v-2.6zM124.8 426.9c-4-2.7-4.3-4.6-2.1-8.5 4.2-7.7 7.1-16.1 10.6-24.2.5-1.2 1.1-2.3 2.2-3.2.6 13.1-4.2 24.5-10.7 35.9zM75 346.5c4.1-7.2 8.2-14.4 12.6-21.5.6-1 2.8-1 4.3-1.4.2 1.4 1.1 3.3.5 4.3C88.3 334 84 340 79.7 346c-.7.9-2.2 1.3-3.3 1.9l-1.4-1.4zM363.6 330.4c-8.2-3.5-16.6-7-24.7-10.4 6.8-6.4 17.1-2.3 24.7 10.4z" fill="#fff"/>
  <path d="M82.5 314.6c-.3 1.8-.2 3.9-1 5.4-4.2 7.7-8.7 15.3-13.1 22.9-.5-.1-1.1-.2-1.6-.3.3-2.4 0-5.2 1.2-7.2 4.1-7.1 8.7-14 13.1-20.9.4 0 .9 0 1.4.1zM185.1 439.4c-.3-1.3-.6-2.7-.7-4-.4-6-1-12.1-1-18.1 0-1.7 1.6-3.5 2.5-5.2 1 1.6 2.9 3.2 2.8 4.8 0 6.8-.6 13.6-1.1 20.3-.1.8-.8 1.5-1.2 2.3-.5 0-.9-.1-1.3-.1zM212.1 363.8c8.1-2.2 14.1.5 20.2 5.4h-20c0-1.5-.1-3.4-.2-5.4zM41.8 380.1c-3.1 1.4-6.3 2.9-11.6 5.4 3.7-4.4 3.6-6.2-.7-7-2.3-.4-4.5-2.3-6.4-4-.6-.5-.3-2.7.3-3.7.3-.6 2.4-.8 3.1-.3 5.3 3.1 10.3 6.4 15.3 9.6zM71.5 317.6c-2 1.1-4 3-6.1 3-1.4 0-3-2.4-4.3-4-1.4-1.7-2.7-3.4-3.5-5.4-.5-1.3-.1-3-.1-6.2 4.6 4.2 8 7.4 11.5 10.5.8.7 1.6 1.4 2.5 2.1zM358.5 444.2c-18.4.9-36.9 1.8-55.3 2.7 0-.5 0-1-.1-1.5l55.2-2.7c.1.5.2 1 .2 1.5zM59 333c-4.3-5.6-8-10.5-11.8-15.4l1.5-1.5c4.3 3.8 8.6 7.7 13.3 11.9-.6 1-1.5 2.6-3 5zM389.6 435.2h-49.9c1.3-1.9 1.3-1.5 9.6-1.3 11.8.2 23.7-.4 35.5-.5 1.6 0 3.2.4 4.8.7v1.1zM340.1 311.2c4.9-2.3 9.7-4.7 14.8-7.1-1.7 9.2-3.6 11-10.7 10.9 1.3-1 2.8-2.1 4.3-3.2-.2-.3-.3-.6-.5-.9-2.6.4-5.2.7-7.7 1.1-.1-.3-.2-.5-.2-.8zM457.3 441.8h-27.5v-.8c9.2-.5 18.3-1 27.5-1.5v2.3zM285.3 312.2c-2.8 4.9-5 8.6-7.5 13.1-2.3-9.9-2-10.5 7.5-13.1zM136.2 368.5c2.9-1 6.3-2.1 10.6-3.6-1.4 4-2.4 7.1-3.3 9.6-2.3-1.9-4.5-3.8-7.3-6zM403.7 438.2c1.3-.6 2.6-1.7 3.9-1.7 9.6-.1 19.1-.1 28.7 1.1h-5.1c-9.1.2-18.3.4-27.5.6zM373.5 359.5h18.6v1.5h-18.8c.1-.5.1-1 .2-1.5zM30.2 398.9c-3.7 2.4-7.2 4.6-10.6 6.7-1.6-7.3-1.3-7.5 10.6-6.7zM271.5 437.3h23.2c0 .1 0 .2.1.3-7.7.4-15.4.8-23.1 1.1-.2-.5-.2-1-.2-1.4zM359.8 398.9c-.3 5.3-.7 10.6-1 15.9-.6 0-1.2-.1-1.8-.1l.9-15.9c.6.1 1.3.1 1.9.1zM135.5 381.2c-3.1-2.9-6.2-5.8-9.4-8.7.5-.5 1-1.1 1.5-1.6 3.2 2.9 6.3 5.7 9.5 8.6-.5.6-1 1.1-1.6 1.7zM335.6 349.6c5.3-1.6 10.5-3.2 15.8-4.8.2.6.4 1.3.6 1.9l-15.9 4.2c-.3-.4-.4-.8-.5-1.3zM43.8 442.4H29.1v-.8c4.9-.3 9.7-.6 14.6-.8 0 .5 0 1 .1 1.6zM31.1 4.2l2.4-.9c-.1.6-.3 1.3-.5 2-.7-.4-1.3-.8-1.9-1.1zM36.5 3.3H39h-2.5z" fill="#fff"/>
  <path d="M476 186.8c4.5 5 7.5 2.3 10.2-.7 3.2-3.5 3.5-9.4.7-13.1-3.8-5-7.6-5.3-15.2-1.2-.2-4.5 4.9-7.9 10.4-7 7.3 1.3 11.3 6 12.1 13.7.3 3.6-5.8 12.9-9.5 14.3-4.4 1.8-8.7-.7-8.7-6zM163 434.8c-4.9.4-9.8.9-14.7 1.3 0-.7-.1-1.4-.1-2.1h14.7c0 .3 0 .5.1.8zM135.6 232c-1.3-2.5-2.4-3.8-2.7-5.3-1.4-5.4-5-7.2-10.2-6.8-5.6.5-9 4.1-10.3 8.9-.9 3.5-1.1 7.7.1 11 1 2.6 4.7 4.2 7.7 6.7-1.2.4-4 2.4-5.4 1.6-3.1-1.7-7.1-4.3-7.9-7.2-3.4-12.9 3.9-23.8 17.3-25.7 1.4-.2 3.3 1.1 4.6 2.1 5.8 4.5 7.9 8.7 6.8 14.7zM181.1 234.1c-3.7 4.4-9.2 2.1-13.8 2.3-4.4.2-8.9-.9-14.9-1.7 5.2-2.1 9-3.7 12.9-5.3v1.8c2.3.6 4.7 1.7 7 1.8 2.8.1 5.6-.6 8.4-1 .1.8.3 1.4.4 2.1zM155.5 227.5c-2.8 3-5.7 6-9.6 10.2-.9-2.7-2.4-4.9-2-6.5.5-2 1.3-5.7 5.5-3 1.1.7 3.7-1.1 5.6-1.7.2.3.4.6.5 1zM315.4 276.7V305c-2.9-1.9-5-3.2-7.6-4.9-1 1.2-2.5 2.9-3.9 4.7-.4-.2-.8-.3-1.2-.5 3.5-9.4 7.1-18.7 10.6-28.1.7.2 1.4.4 2.1.5zM320.5 228c6.6-1.5 13.3-3.1 19.9-4.5 1.2-.2 2.5.5 5.1 1.2-4.5 3.2-7.9 5.5-11.2 7.9-.3-.4-.5-.7-.8-1.1 1.2-1 2.5-2.1 3.7-3.1-.2-.3-.3-.6-.5-1-3.5 1.5-6.8 3.7-10.4 4.5-2.9.6-6.2-.4-10-.8 1.8-1.4 3.1-2.3 4.3-3.2l-.1.1zM353.2 263c-1.3-1.2-2.3-2.1-3.1-2.9 1.7-4.2 3.3-8.2 4.9-12.2.4.1.8.1 1.1.2.3 1.2.5 2.5 1 4.5 1.2-2.6 2.1-4.5 3.2-6.7.5 5.5-.6 7.3-4.6 11.2-1.2 1.2-1.5 3.5-2.5 5.9zM300.3 219.9c6.4.4 11.5.6 16.8.9-3 3.5-9.4 3.3-16.8-.9zM320.7 227.8l-10.2 1.5c-.1-.4-.2-.8-.3-1.3 3.3-1.6 6.5-3.2 9.8-4.7.4-.2 1.8.5 1.8.6-.3 1.4-.8 2.7-1.3 4 0 .1.2-.1.2-.1zM347.9 264.6c-.2 2.4-.4 4.8-.7 7.3-.5 0-.9-.1-1.4-.1-.3-.8-.6-1.7-.9-2.6-1.1.6-2.3 1.2-3.4 1.8-.3-.3-.6-.7-.9-1l5.7-6c.7.2 1.1.4 1.6.6zM330.4 388.2c2.5-.4 5-.7 7.4-1.1v.8c-11 4.3-22 8.6-33 12.8-.3-.2-.5-.5-.8-.7 1.9-2 3.7-4.1 5.6-6.2-2.4.2-4.8.4-8.4.8 2.3-3.9 3.9-6.6 5.5-9.4-.2-.2-.4-.3-.6-.5-1.2.8-2.4 1.7-3.5 2.5-.4-.4-.8-.9-1.2-1.3l14-12c-4 1.7-6.7 2.8-9.3 3.8 5.6-6.8 13.6-10.3 20.8-7.3 4.9 2 9.5.8 14.6 2.4-7.7 2.4-14.8 4.6-21.8 6.8.2.6.3 1.1.5 1.7 6.8-1.2 13.6-2.5 20.4-3.7.2.5.3 1.1.5 1.6-4.2 1.4-8.5 2.8-12.7 4.2.1.3.2.7.3 1 3.6-.8 7.2-1.5 10.7-2.3.2.6.4 1.1.5 1.7-1.6.5-3.3.9-4.9 1.6-1.7.7-3.1 1.9-4.6 2.8-6-2.7-10.5 1.9-15.8 2.6.1.6.3 1.2.4 1.8 5.1-1.5 10.3-3 15.4-4.4zM328.5 426.4c-8 0-16-.1-24 0-10.9.2-21.8.7-32.7 1.1-8.1.3-16.2.8-24.3 1.2-11.5.5-23 .9-34.4 1.7-5.4.4-10.7 1.5-16 2.2-.2-.6-.4-1.2-.6-1.9 1.2-.7 2.3-1.8 3.5-1.9 11.8-.9 23.6-1.6 35.3-2.3 7.6-.5 15.1-.9 22.7-1.1 12.8-.3 25.7-.4 38.5-.7 8.6-.3 17.1-1.1 25.7-1.3 2.1-.1 4.3 1 6.5 1.6-.1.4-.2.9-.2 1.4z"/>
  <path d="M330.4 388.2c-5.1 1.5-10.2 2.9-15.3 4.4-.1-.6-.3-1.2-.4-1.8 5.2-.7 9.6-5.3 15.7-2.6z" fill="#fff"/>
  <text transform="translate(28.762 40.384)" fill="#fff" font-family="BaskervilleT-Bold" font-size="35" letter-spacing="4">PEANUTS</text>
</svg>
