<svg xmlns="http://www.w3.org/2000/svg" viewBox="0 0 595.3 466.2" xml:space="preserve">
  <path fill="#fff" d="M0 0h595.3v466.2H0z"/>
  <path d="M593.9 466.2H0V0h466c.5.7.9 1.9 1.4 1.9 17.5 0 34.9-.1 52.4-.3 12-.1 24-.2 35.9-.2 11.6-.1 23.3-.2 34.9-.1 1.5 0 2.9 1.4 4.4 2.1v461.7c-.3.4-.7.7-1.1 1.1zM205.7 192.7c.7-.1 1.5-.3 2.2-.4 6.1-.6 12.2-1.4 18.3-1.7 2.1-.1 4.3 1.1 7.5 2 0-2.4.5-5.7-.1-8.9-1.1-5.9 1.4-7.2 6.5-6 .2.1.6-.4.9-.6 1.3-8.4.4-9.5-9.8-12-1.4 2.4-2.8 4.9-4.2 7.5-4.2-3.7-5.7-6.3-3.9-9.8 3.7-7.2 1.3-13.5-1.5-20-1.3-3.1-2.1-6.5-3.2-9.8.6-.3 1.2-.7 1.8-1 1.3 1.3 3.2 2.4 3.9 4 3 6.8 5.7 13.8 8.7 20.6.5 1.2 1.8 3.1 2.6 3 7-.4 11.6 6.7 12.8 12.1 1.2 5.3-1.2 8.7-8.5 12.6 1.1 12.5-2.1 11.8-10.1 11.6-8.9-.2-17.8-.2-26.7 0-2.7 0-5.4.9-8.2 1.4-.2.8-.4 1.6-.5 2.4 9.2 4.2 18.4 8.4 27.7 12.6.2.8.4 1.5.6 2.3-4.8 4.5-9.5 9.1-14.4 13.5-3.4 3-7 5.8-11.3 9.3 2.5 1.1 3.3 1.7 4.1 1.8 6.5.1 9.2 3.3 10.8 9.7 1.5 6.1 5.6 11.6 8.3 17.5 2.5 5.4 10.1 7.1 10.3 14.2 1.1-.1 2.8.1 3.1-.5 2.9-6 5.4-12.3 8.5-18.2 1.7-3.2 3.9-6.4 6.6-8.9 5.3-4.9 11.1-3.3 13.4 3.4.6 1.7.3 3.8.4 5.8 5.8-.5 11.8-2.6 16 4.3 3.6 6 4 11.9 1.8 17.9-1.8 4.7-4.6 9.2-7.8 13.2-1 1.3-4.6.9-6.9.6-1.9-.2-3.6-1.5-5.4-2.4-2.2 6.6-4.3 12.5-6.6 19.5h32.2v3c-11.3 1.6-22.6 1.9-34.1-.2-2 2.1-3.9 5-6.5 6.9-2.6 1.9-5.9 2.9-8.6 4.2.2 1.9 1 3.7.5 5.1-2.6 8.3-1.5 16.7-1.6 25.1-.1 3.7-.5 7.5.1 11.1 1.6 10.2 1.5 10.3-8.6 11.5-2.1.3-5.7 2.2-5.8 3.6-.7 5.9-.3 11.9-.3 18.5 6-.5 11.5-.9 16.6-1.4 3.4 1.1 6.8 2.1 10.1 3.4 3.6 1.4 7.4 2.8 10.6 4.9 2 1.3 3.3 3.9 4.2 5.1 3.1-1.1 4.6-2 6.3-2.2 3.5-.5 7.1-1 10.6-1.1 7.7-.3 15.5-.6 23.2-.4 3.9.1 8.2-4.4 8-8.1-.5-8.2-.6-16.5-.3-24.8.3-7.2 1.3-14.4 2-21.6.3-2.9-.8-4.4-3.6-5.2-3.7-1-7.3-2.6-10.9-3.9-9.3-3.2-18.6-6.5-28-9.4-2.8-.9-4.6-2.2-2.5-4.3 4.9-4.8 10.1-9.4 15.8-13.3 3.3-2.2 7.6-2.8 11.3-4.1-4.4-8.8-5.7-19-18.1-20.9 1.8-1.1 2.4-1.8 2.9-1.8 4.9 0 7.7-2.1 8.4-7.1.1-.9 1.5-1.6 1.9-2.5.5-1.1.7-2.3.7-3.5-.1-2.8-.4-5.5-.8-8.3-.5-3.5-1.4-6.9-1.5-10.4-.1-2.9-.4-6.3.9-8.5 2.6-4.5 2.5-10.6 7.9-13.5.5-.3.1-2.6-.2-3.9-1.1-5-2.3-9.9-3.7-16 4.4.7 7.7.9 10.8 1.7 8.6 2.4 17 5.3 25.6 7.5 1.7.4 4.6-.5 5.6-1.9 2.2-2.9 3.5-6.5 5-9.9.2-.4-.9-1.6-1.7-1.9-8.7-3.5-17.4-7-26.2-10.4-11.8-4.6-19-17.6-16.3-29.7.3-1.1.6-2.3.8-3.4-.5-.3-1-.7-1.6-1-2.8 3.7-5.5 7.5-8.5 11.1-4.1 5 1.5 8.6 1.6 13.3-2.4-1.2-3.7-3.5-5.7-4.3-4.7-2-4-5.1-2.3-8.5 3.6-6.8 8.4-12.3 15.7-15.7 3.9-1.8 8.1-5 6.9-10.1-1.1-4.9-2.2-10.6-9.2-11.6-3.2-.4-6.6-1.2-9.3-2.9-9.7-6.4-9.3-16.6-7.6-26 1.3-7.3 6.7-13.2 14.5-15 4.9-1.2 10.2-.9 15.2-1.9 4.7-1 9.9-1.9 13.8-4.6 12.5-8.5 25.6-15.8 40.4-19 8-1.7 16.9-2.5 24.7-.7 14.2 3.4 24.5 13.9 35 23.5 8 7.3 8.6 20.4 19.9 25.1.6.3 1 1.5 1.2 2.4 2.1 7.6 5.6 15.2 5.7 22.8.1 5.6 2.1 13.3-5.4 17.3-.8.4-1.1 2.3-1.1 3.4.3 14.3-5.9 25.4-16.4 34.5-.6.6-1.5.9-2.4 1.1-3.3.8-6.9 1.1-10 2.3-3.5 1.4-6.6 5.3-10.2.3-.2-.3-1.1-.3-1.6-.2-3.8 1.6-8 2.6-11.1 5.1-2.3 1.9-4.9 6.6-4 8.4 2.9 5.8 1.3 13.3 7.5 17.8 2.4 1.7 3.8 5.1 5.2 8 3.6 7.9 7.4 15.7 10.3 23.9 2.5 7.1 8.6 13.9 3 22.2-.4.7.2 2.1.3 3 4.2-1.5 8.2-3.8 12.3-4.1 6.3-.5 12.1 10.4 9.5 17-.5 1.4-.9 3.3-.3 4.4.4.8 2.6.8 4 .7 5.5-.4 11-1.4 16.5-1.4 14-.1 28.1.1 42.1.4 3.2.1 6.4 1.6 9.6 1.5 4.8-.1 9.6-1.3 14.4-1.3 4.6 0 9.2 1.6 13.8 1.6 4.4 0 8.9-1.6 13.3-1.6 12.5-.2 25 0 37.6-.2 1.4 0 3.9-1.4 4.1-2.5.6-2.8.6-5.9.1-8.8-.2-1.2-2.4-2.9-3.7-3-6-.3-12-.2-18-.2-14.4-.1-28.9-.1-43.3-.2l-59.6-.3c-7-.1-14-.2-21-.6-1-.1-1.9-1.6-2.9-2.5 1.3-.7 2.6-2.1 3.9-2.1 10.9 0 21.8.4 32.7.5 18.4.3 36.8.5 55.3.6 15.7.1 31.3-.1 47 0 8.8.1 9.1-.1 9-9.1V285c.1-11.1.1-22.2.2-33.4 0-17.6.2-35.1.1-52.7-.1-17.2-.8-34.4-.8-51.7 0-10.5 1-21 1-31.5 0-14.8-.5-29.5-.6-44.3-.1-8.2 1-16.4 0-24.5-1.2-10-.7-19.9-.1-29.8.4-5.9-.9-7-6.5-6.6-.9.1-1.9 0-2.8 0-21.2.5-42.4.5-63.5.3l-25.8-.3c-4.5-.1-9-.1-13.5-.1H452c3.1 3.5 5.7 5.8 7.5 8.7 5 7.6 8.2 15.7 2.1 24.1-5.4 7.5-13.1 12.4-21.5 15.8-15.2 6-31.4 7.5-47.5 9.4-9.5 1.1-18.9 2.3-28.4 3-13.7.9-27.5 1.5-41.3 1.9-15.9.4-31.9.3-47.8.7-1.7 0-4.2 1.6-4.8 3.1-2.6 7.1-4.3 14.6-7.2 21.6-2.8 6.9-6.5 13.5-10.3 19.9-1 1.6-3.6 2.2-6.6 4 .5-4.8.9-7.6 1.2-10.5.9-11.2 2-22.3 2.5-33.5.1-2.6-.1-5.9-5.3-5.3-6.8.7-13.8-.4-20.7-.8-6.8-.3-13.7-.8-20.5-1-10.2-.2-20.5.1-30.7-.4-7.6-.4-15.1-1.7-22.6-2.7-7-.9-13.9-2.1-20.9-2.9-9.5-1-19.1-1.2-28.5-2.6-14.1-2.1-28.3-4-41.4-10.3-5.7-2.8-11.1-11.7-8.9-17.2 2.3-5.6 5.7-10.9 9.1-16 2.4-3.5 5.8-6.4 9.5-10.3-5.5 0-10.2.1-14.9 0L15.7 7.9c-3.4-.1-6.2 0-5 5.1.7 2.9-.1 6.1-.1 9.2 0 14-.1 28 .2 42 .2 13.1 1 26.1 1.1 39.2.1 7.7-1 15.5-1.1 23.2-.2 21.2 0 42.4-.1 63.6-.2 24.4-.6 48.9-.8 73.3-.1 9.8 0 19.6 0 29.8.6.1 1.6.6 2.6.6 36.6.4 73.3.8 109.9 1.3 1.3 0 2.7 1.6 4 2.5-1.2.9-2.3 2.5-3.6 2.5-6.1.4-12.2.5-18.3.4-18.5-.3-37-.6-55.6-1-2.7 0-5.3.1-8 .1H10.4v15.9h117.8c.6-5.1.8-10.4 1.8-15.6 2.8-14.6 5.9-29.1 8.6-43.7.3-1.5-.5-3.6-1.5-4.9-3.3-4.3-2.9-6.2 1.6-9.5 1.9-1.4 3.2-3.6 4.4-5.1-8.6-5-16.6-8.9-23.8-14-9.4-6.7-19.4-13.5-25-23.9-6.6-12.3-11.3-25.2-8.7-39.9 1.7-9.6 2.9-19.2 8.4-27.5 3.1-4.7 6.5-9 6.3-15.2 0-1.3 1.6-2.7 2.6-4.1 1.2-1.7 2.4-3.3 3.5-5 1.9-3 3.7-6 5.5-9 .9.3 1.7.7 2.6 1-.3 2.3-.5 4.6-.8 7.3 16.2-12.1 34.1-17.4 53.9-14.1 19.3 3.3 37.4 9.2 47.9 28 2.3-3 3.9-5.7 6-7.8.9-.9 3.2-1.6 4.2-1.1 5.3 2.7 8.2 10.5 5.7 17.8-2.8-4.3-5-7.8-7.3-11.2-2.1 2.8-2.6 4.7-3.3 6.6-1.9 5.2-4 5.7-7.7 1.9-1-1-1.6-2.4-2.6-3.5-3.9-4.3-7.3-9.2-11.9-12.6-4.6-3.4-10.2-5.6-15.7-7.6-15.2-5.4-30.8-7.2-46.5-1.8-8.3 2.9-16.9 5.6-22.6 12.8-9.6 12.2-19 24.5-20.4 41.1-1.1 13.3-1.4 26.2 5.5 38.2 4.7 8.2 11.1 15 18.8 20.4 7.5 5.2 15.3 10.2 23.6 14 3.7 1.7 5.2 3.7 6.5 7.1.9 2.4 2.8 5.5 5 6.2 6.6 2.1 13.5 3.1 20.3 4.6 7.2 1.6 15.6.5 20.7 7.9.2.2 1 0 2.3-.1-.7-3.6-.8-7.1-2-10.2-2.7-7.1-1.7-10.6 4.5-14.9 5.3-3.7 10.3-7.7 16.4-12.2-3-1.3-4.3-1.7-5.6-2.4-6.1-3.2-12.4-6.1-18.2-9.7-2.1-1.3-3.8-4.1-4.4-6.5-.3-1.2 1.6-4 3.2-4.6 2.5-1.1 5.5-1 8.2-1.3 1.6.4 3.4.7 5.2 1.1.8 0 1.6 0 2.3.1.1-.1 0 0 0 0zM580 413.3c3.1.2 7 .5 7.1-3.6.2-11.8-.5-23.5-.5-35.3 0-8.5.6-17.1.8-25.6.1-9.3 0-18.7 0-28.4-4.5.4-8.4.9-12.4 1-15.5.5-31-1.2-46.6-.4-14.2.7-28.4-.7-42.7-1-7.5-.2-14.9.1-22.4 0-5.2 0-10.4-.5-15.5-.4-6.5.1-13.2-.4-19.3 1.1-4.3 1.1-7.8 5.1-12.6 8.6 10.8-.4 21.4 3.2 27.5-8.4 3.5 2.2 3.7 4 1.4 6.6-4.6 5.2-9.7 8.2-16.9 7.4-4.7-.5-9.4-.1-14.8-.1 2.1 3.9 4.3 7.4 5.9 11.2.9 2.2 1.5 5.2.7 7.1-.8 1.7-3.7 2.9-5.9 3.3-7.7 1.4-15.5 2.3-23.2 3.6-.8.1-2 1.7-2 2.7-.2 10.4-.3 20.8-.1 31.1 0 .8 2.5 2.5 3.7 2.3 10.9-1.6 21.7-3.5 33.3-5.5-.5 5.8 3.3 3.5 6.1 4 0-1.1.2-1.7 0-2.1-.4-.8-1-1.6-1.7-2.1-7-5.8-5.5-13.1-3.3-20.2 1.7-5.5 7.7-6.9 12.7-4.1 1.5.9 4.5 1.4 5.6.6 5.2-3.9 10.3-8.2 14.9-12.8 2.6-2.5 4.4-5.9 8.6-3.7 4.9 2.5 9.8 5.1 14.2 8.3 3.4 2.5 7 5.6 8.5 9.2 2.5 6.1 5.6 8.4 12 6.2 1.9-.6 4.3-.1 6.4.4 5.8 1.4 11.5 4.1 17.4 4.6 9.1.8 16.9 4.2 24.5 8.5.2-.4.5-.9.9-1.3 2.9-3 4.7-9.7 9.4-7.3 2.9 1.5 3.2 8.2 4.6 12.5.2.5.1 1.1 0 1.7-.6 3.6-1.3 7.3-2 11.5 4.5.2 8.4.2 12.2.8.6.1 1 2.4 1.6 4 .6 0 1.9-.1 3.3-.2-.7 1.7-1 3-1.4 4.2-8.1-1.6-16.2-.8-24.2.2 0 .5.1 1.1.1 1.6 8.1-.6 16.1-1.2 24.1-1.8zm6.4 25.6v-21.6h-37.6c0-.9.1-2.4.3-4.5-4.2 1.7-8.6 1.2-9.9 6.6-.4 1.7-2.8 3.5-4.7 4.2-5.1 1.9-10.3 3.4-15.5 4.6-8.8 2-12.9 0-17.5-7.5-1.3-2.1-3.6-4.6-5.9-5.1-12.5-2.5-24.7-7.7-38-2.9-6.7 2.4-14.3 1.9-20 6.8 1.7.4 3.3.7 4.9 1.1 3 .7 5.9 1.7 8.9 1.9 3.7.3 8.2-1.4 11.1.2 4 2.2 7.4 1.8 11.3 1.2 2.5-.4 7.1-.8 7.3-.1 1.6 4.9 6.2 3.4 9.5 5.4-2.1 1.4-4.2 2.6-6.4 2.8-8 .9-16 1.5-24.1 2-3.5.2-7-.2-10.4-.5-2.9-.3-5.8-1.5-8.6-1.2-7.4.6-14.9 5-21.8-1.5-.3-.3-1.1-.3-1.6-.1-7.3 2.8-16.1.8-22.2 7.5-1.3 1.4-3.8 1.9-5.9 2.4-5.8 1.3-11.7 2.5-17.5 3.6-7.9 1.5-15.8 4.3-23.6 4.2-14.1-.2-28.2-2-37.1-13.9-4.7.4-8.9 1.1-13 1.1-4.7-.1-9.4-.5-14-1.3-10.5-1.7-12.8-3.9-14.8-13.6-1.7.4-3.8.2-5 1.2-8 6.5-16.4 10-27.1 8.4-3.3-.5-8.1.1-11.6 3.9-5.5 6-13.5 8.1-21.3 9.8-4.2.9-8.7 2.6-12.8 1.9-19.1-2.9-38.2-6.5-57.3-10-1.8-.3-3.4-1.3-5.4-2 1.9-2.5 3.2-4.2 5.2-6.9-8.3 2-15.3 3.6-22.3 5.5-3.6 1-6.8 1.3-7.4-3.5-5.5 1.1-10.6 1.9-15.5 3.3-3.5 1-5.8.9-6.1-3.2-2.6.5-5 .9-7.3 1.4-2.3.5-4.6 1-6.8 1.7-4.5 1.3-4.9-1-3.9-4.6-13.2 3.7-13.2 3.7-17 1.3 2.3-1.2 4.3-2.8 6.5-3.3 16.1-3.2 32.2-6.2 48.3-9.2 1-.2 2.5.1 3.1.8 3.4 3.7 7.2 2.2 11.2 1.5 3.2-.6 8.1-2.5 9.4-1.1 3.7 3.7 7.5 1.2 11.1 1.8 4.3.7 6.5-2.3 6.9-5.6.9-7.2 1.1-14.5 1.5-22.2-2.2.2-3.6.2-5.1.4-7.6.7-10.7-2-10.5-9.6.3-8.6 1-17.3 1.2-25.9.2-9.5.4-19 0-28.5-.1-2.7-1.8-5.6-3.5-7.9-.4-.5-3.4.9-5.2 1.2-1.6.2-3.3.2-5 .2-33.5-.3-67.1-.5-100.6-.8h-6.7c-.6 45.8-1.1 91-1.7 137.4h576.8M165.7 9.4H151c-18.7 0-37.5.8-56.1-.4-17.2-1.1-27.5 7.7-35.5 20.8-5.2 8.5-1.1 18.4 8.2 20.4 14.7 3.1 29.4 5.8 44.2 8.2 9.8 1.6 19.7 2.8 29.5 3.7 8.8.8 17.7.9 26.6 1.4 13 .7 26 1.5 39 2.1 5.2.3 10.4.1 15.6.2 7.7.3 15.3.8 23 1 4.3.1 10.6 4.1 10.4 7.9-.5 8.9-1.4 17.9-2.1 26.8-.1 1 .3 2 .5 2.9 3.4-6.6 6-13.2 7.9-19.9 1.3-4.9 1.6-10.2 2.6-15.2.5-2.6 1.7-4 5.1-3 4 1.1 8.3 1.6 12.5 1.6 7.2 0 14.3-.7 21.5-.9 12.2-.3 24.3-.1 36.5-.5 7-.2 14-1.4 21-2 10.2-.8 20.4-1.1 30.5-2.2 6.9-.7 13.6-2.4 20.4-3.4 13.7-2.1 27.2-4.7 38.8-13.1 3.7-2.7 8-10.3 6.6-14C452 16 446.2 10.1 430 9.9c-19.4-.2-38.7.2-58.1 0-8.9-.1-17.7-1-26.5-1-12 0-23.9.5-35.9.8-2.7.1-5.4.4-8.1.3-11.7-.2-23.4-.7-35.1-.8-11.9-.1-23.8 0-35.7 0-5.6 0-11.1-.1-16.7-.3-7.5-.3-14.9-.7-22.4-1-.9 0-1.7.5-2.6.6-7.5.4-14.9.7-23.2 1.1.1-.6-.2.4 0-.2zm221.6 198.8c-.3-.4-.7-.8-1-1.1l-5.1 2.4c-.5-.3-1-.7-1.5-1 1.6-3.5 2.9-7 4.7-10.3 4.3-7.8 9.5-15.2 13-23.3 1.6-3.6.2-8.6-.2-12.9-.5-5.2-1.1-10.5-2.3-15.6-.4-1.5-2.9-3.4-4.6-3.6-4.1-.4-8.4.9-12.2 1.2-5.2.5-10.6.1-16 1.7-2.6.8-5.8-.5-8.7-.7-1.8-.1-3.7-.4-5.5 0-6.3 1.3-12.5 2.5-18.5-1-.9-.5-2.2-.4-3.2-.3-7.3.9-14.6 1.9-22.2 2.9.1-.6 0-.3 0 .1.1.7.2 1.5.6 2.1 4.6 8.3 4.3 15.8-1.2 24.1-3.3 5-5.5 12.2-1.1 18.2 3.1 4.2 5.8 8.7 11.5 10.9 13 5 25.3 11.2 39.7 12.5 10.6 1 20.5-.7 30.5-3 1.3-.5 2.2-2.2 3.3-3.3zm-87.4 20.3c-.4.5-.8 1-1.3 1.5 2.7 6.5 5.5 13.1 8.1 19.6.8 2 1.8 4.3 1.4 6.2-1.7 8-4.4 15.7-5.1 24-.7 8.5-3.5 16.8-5.8 25-1.3 4.5-.1 6.4 4.5 7.4 7.4 1.6 14.8 3.6 22.1 5.7 8.4 2.4 16.6 5.9 25.1 7.6 8 1.5 16.3 1.3 24.4 1.8 0-8 .2-16.3-.1-24.6-.2-5.2.4-11-6.9-12.9-1.7-.4-3.2-3.8-3.8-6-.6-2.7-.6-5.7 0-8.4 1-4.1-2.3-9.2 2.8-12.5.6-.4-.1-2.3.5-3.1 1.7-2.8 3.3-6.9 5.8-7.7 5-1.6 4.6-4.6 3.8-8.1-.6-2.8-1.7-5.4-2.5-7.7-3.8-.5-7.2-1.5-10.6-1.4-10.1.4-20.3 1.3-30.4 1.9-9.4.6-17.2-5-26-6.9-1.9-.4-4-.9-6-1.4zm30.5-103.1c10.8 5.2 18.1 14.8 30.3 14.6-2.8-3-6.2-5.1-9.2-7.8-2.8-2.5-8.3-3.8-4.9-11.1 8 7.6 16.1 14.5 27.2 16.8-2.1-6.4-11-7.3-10.7-14.6.5-.6 1.1-1.1 1.6-1.7 6.2 5.4 12.4 10.7 19.5 16.8 0-2.3.7-4.4-.1-5.2-4.7-5.3-4.3-11.1-2.3-18.1 1.6 1.2 3.3 1.9 4 3.1 2.9 5.2 5.3 10.7 8.3 15.9 1 1.7 3.3 3.3 5.2 3.6.9.2 2.6-2.6 3.5-4.3.8-1.6.8-3.6 1.4-5.3 1.8-4.9 5.4-6.7 9.7-3.8 4.4 2.9 7.9 7.2 12.6 11.6.4-1.7 1.4-3.7 1-5.2-1.6-5-3.5-10-5.9-14.6-4.9-9.4-12.1-16.6-20.2-23.5-11.8-10.1-25.2-12.8-39-9.7-13.9 3.1-27.4 9.2-39.2 17.7-5.6 4.1-11.5 5.7-18.4 6-15.2.7-18.9 1.9-22.2 15.2-2.2 9 .8 20.4 12.2 20.4 2-5.4-6.5-10.7-.4-16.2 4.3-3.9 8.7-7.8 15.6-8.2-3 5.4-5.6 10-7.9 14.7-.6 1.2-.4 3.9.3 4.3 6.3 3.4 12.8 6 20.5 3.4-2.8-3.9-5.6-7.4-7.7-11.2-.9-1.6-.3-4.1-.3-6.1 2 .3 4.8-.2 5.9.9 3.7 4 7.1 8.3 9.8 13 2.6 4.4 5.9 3.9 10.3 3.9-3.5-5.5-13.2-5.6-10.5-15.3zM199.7 265.7c-.9.1-1.7.2-2.6.4-1.3-1.7-2.5-3.6-3.9-5.1-2.7-2.8-5.2-6.5-8.6-8-4.4-1.9-9.7-1.5-14.4-2.7-7.8-2-15.4-4.5-23.2-6.5-1.5-.4-3.4 1.1-5.1 1.7.8 1.2 1.4 2.6 2.4 3.6.7.7 2 .8 3 1.1 8.5 2.7 17 5 25.3 8.1 3.8 1.5 6.6 3.3 8.9-1.7.4-.9 2.1-1.3 3.3-1.6.4-.1 1.4.8 1.5 1.4 1.1 4.9-5.9 11.1-10.8 9.5-9.3-3-18.7-5.9-27.9-9.2-3.6-1.3-4.9-.9-5.4 3.1-1.6 12.5-3.5 24.9-5.2 37.4-.5 3.4-.5 6.9-.9 10.4-.5 4.1-1.2 8.2-1.8 11.9 10.9-2 21.1-3.9 31.3-5.7 3.9-.7 3.7-3.1 3.2-6.1-.9-5.6-1.5-11.3-2.2-17 1.1-.7 2.1-1.5 3.2-2.2.5 1.6 1.1 3.1 1.4 4.7.6 3.4 1.1 6.8 1.7 10.5 2.3-3.1 5-6.6 8.4-11 3.8 7 7.1 13.1 11.1 20.6 2.9-7.8 5.3-14 7.6-20.2 1.2.4 2.4.5 2.8 1.1 3 4.9 5.8 9.9 8.9 15.2 4-6.6-.5-15.9 7.2-21.1-2.9-7.5-6.3-14.9-8.6-22.7-1.8-5.9-5.9-8.3-11.2-11.2.2 4.4.4 7.9.6 11.3zm67.9 26c-8.2-2.5-1.6-8.1-2.2-11.9-.1-.8 5.2-2.5 9-4.1-3.1-.3-5.5-.6-7.9-.6-4-.1-4.6-2-3.5-5.3 3.8.3 7.4.5 10.9.8.1-1 .2-2 .3-2.9-3.1-.3-6.3-.8-9.4-.9-4.7-.2-10.4 4.3-13.4-3.1 2.4-1.8 4.6-3.4 7.9-5.8-9.4-1.1-10.7-.2-13.6 7.8-3.1 8.5-6.6 16.8-13.3 24.4-2.6-3-4.9-5.6-8.2-9.3.6 2.9.8 4.6 1.3 6.2 1 2.9 2.6 5.6 3.2 8.6 1.4 7 2.1 14.2 3.7 21.1.5 2.3 2.9 5.1 5 5.8 1.4.4 4.6-2.1 5.7-4 3.5-6.8 6.5-13.8 9.5-20.9 2.2-5.2 4.9-8.7 11.2-5.8 1.1.3 2.5-.1 3.8-.1zm110.3-3.6c0 2.5-.2 5.7 0 8.7.8 9.9 3.7 18.8 12.6 24.8 6.6 4.4 13.7 2 15.1-5.7.7-3.9 1.3-7.9 1.1-11.8-.2-4.1-.9-7.5-4.8-11.1-4.9-4.6-10.6-9.9-11-18-.3-6.6-4.4-11.4-8.6-15.8-1.5-1.6-4.7-1.6-7.1-2.3 0 1.7.4 2 .8 2.4 1.4 1.4 2.8 2.9 4.2 4.3-2 .3-4 .6-6 1-1.3.3-2.5 1-4.9 2 2.1.7 2.6.8 3.1 1 2.2 1 4.5 2 6.7 2.9-2 1-4.1 2.1-6.1 3.2-1 .6-1.9 1.3-2.6 1.7 3.1 1.1 5.5 2 7.9 2.9-.1.6-.2 1.3-.3 1.9-3 1.1-5.9 2.1-8.9 3.2-.1.6-.3 1.2-.4 1.7 2.8 1 5.7 1.9 9.2 3zm5.2 76.6c-7.8.8-15.6 1.5-23.3 2.6-1 .1-2.4 1.8-2.5 2.9-1 10.2-1.8 20.4-2.3 30.6-.1 1.6 1.3 4.2 2.7 4.8 6.6 3 13.7 4.2 20.8 3.4 1.9-.2 4.4-3.7 5-6.1.8-2.9-.4-6.2-.4-9.3-.1-9.8 0-19.5 0-28.9zm-245.2 65.1c.9.5 1.8 1.5 2.9 1.7 9.3 1.4 18.6 2.5 27.9 3.9 11 1.6 21.8 5.2 33.1 3 8.8-1.7 18.1-2.7 24-10.8-4.6-6-22.9-11.4-29.7-8.8-1 .4-1.7 1.2-2.6 1.8-3.7 2.6-7.4 5.1-11 7.8-3.6 2.6-7.3.8-10.9.4-1.9-.2-3.7-.5-5.6-.8 0-.4.1-.8.1-1.3l10.5-6.3c-.2-.4-.5-.9-.7-1.3-5 2.4-10 4.8-15.9 7.6 1.3-2.6 2.1-4.1 2.8-5.6-10-2.1-18.8-1.2-24.9 8.7zm201.5-28.4c1.1-7.4 2.1-13.9 3-20.4.6-4.2 1.1-8.4 1.4-12.6.2-2.8.2-4.6-4.1-4.2-5.6.5-11.4-.8-17.1-1.3-3.4-.3-5.4.3-5.6 4.6-.4 10.3-1.4 20.5-2.1 30.9 8 4.7 16.4 4.4 24.5 3zm-171.1-82.7c-8.8 1.4-16.9 2.5-25 4.1-1.4.3-3.5 2.5-3.5 3.8-.1 11.7 2.3 22.7 10.6 31.7 2.9 3.1 4.5 1.9 6.6-.4 3.9-4.4 7.6-9 11.9-13.1 3.2-3.1 4.8-5.9 3.1-10.6-1.7-5-2.5-10.4-3.7-15.5zm274.1 82.5c6.9 6.1 8.5 7 11.7 6 9.3-2.9 18.6-2.2 28-.9 1.5.2 4.1-1 4.9-2.3 6.9-11.5 16.7-18.5 30-20.6 1-.2 2-.7 3-1.1-.1-.5-.2-.9-.2-1.4-5.6 0-11.5 1.1-16.7-.2-13.7-3.3-24.4 2.1-34.2 10.3-7.7 6.4-16.1 9.7-26.5 10.2zm-261.8-82.7c-7.3 12-5.8 16.9 6.6 22 .2.1.3.2.5.2 5.7 1.6 11.6 4.8 17.2 4.5 8.7-.5 17.3-3.5 25.9-5.5-.6-9.8-.3-18.5-8.2-24.6-.8 4.7-1.4 9.1-2.5 13.4-.4 1.5-1.8 2.8-2.8 4.2-1.1-.8-2.4-1.4-3.1-2.5-3.1-4.2-5.9-8.6-9.2-13.3-2.6 6.8-5.1 13.2-7.6 19.6-.8.1-1.6.3-2.4.4-4.6-6.1-9.4-12.2-14.4-18.4zm244.9-159.7c-.1.9-.1 2.4-.5 3.7-1.3 3.9-2.7 7.8-4.4 11.5-.4.9-3 1.9-3.6 1.5-4.4-3-8.6-6.4-12.9-9.7 3.4 14.4-7.8 23.2-14.4 34.3 2.9-.7 5.4-1.8 7.9-2.8 5.2-2.2 6.2-1.6 6.1 4.5 4.7-3.8 9.2-7.3 14.7-11.7.1.2 1 1.6.7 1.9-4.7 5.1-9.6 10-14.4 15 9.5-3.9 18.1-9 19.9-21.2 5.4 3.3 1.6 5.7.8 7.9-1 2.5-2.6 4.8-3.9 7.2.4.3.8.5 1.2.8 1.9-2.1 4.1-4 5.5-6.3 4-6.4 5.7-13.7 4.1-21-1.2-5.4-4.5-10.3-6.8-15.6zM391 420.9c11.1-1.2 21.9-2.4 31.5-3.5-.6-4.5-2.5-8.5-1.2-10.9 1.4-2.6 5.6-3.7 8.9-5.6-1.1-.1-2.2-.4-3.2-.2-7.5 1.4-15.1 3.1-22.6 4.4-1.3.2-2.9-1.2-4.4-1.9.2-.3.4-.6.6-1-3.3.6-6.5 1.1-9.8 1.7-.3-.6-.6-1.3-.9-1.9.8-.4 1.6-.8 2.4-1.4.5-.4.9-1 2-2.2-7.7 2.9-8.2 6.8-3.3 22.5zm65-28.2c.1.3.3.7.4 1 3.4-2 6.8-4.1 10.2-6 6.4-3.7 12.8-7.4 19.2-11.2 1.2-.7 2.9-1.7 3-2.7.1-1.1-1.1-3-2.2-3.4-.9-.4-2.8.4-3.7 1.3-7.6 7.7-16.5 8.3-25.9 4.6-4.6-1.8-7.2-3.5-13 .2-5.4 3.4-8.1 1.9-3.1 8.9 2.7 3.8 5.2 6 8.9 7.4 1.9.4 4.1-.1 6.2-.1zm-270.5-.7c-.9-.1-1.4-.3-1.9-.3-9.4 0-18.9 0-28.3.2-1.3 0-3.3.9-3.8 1.9-.9 2.1-1 4.6-1.3 6.9-.7 4.6.9 7.1 6 6.5 6.1-.8 12.3-1.3 18.4-2.2 13.2-2.1 11.3.3 10.9-13zm39.7 25.8c9.6 14.5 21.3 6.8 32.7 3.7.1-5.3-3.9-6.2-7.1-7.6-9.3-3.9-18.1-3.9-25.6 3.9zm-35.4-26.3c.3 1.6 1.2 3.2 1 4.8-.7 5.4 3.2 5.8 6.4 5.3 5.5-.9 10.9-2.7 16.2-4.4 1-.3 2.3-2.1 2.2-3.1-.2-3.5-.9-7-1.3-9.6-8.2 2.3-16.2 4.6-24.5 7zm218-67.4c4.7 1.9 9.9.6 13.7-4.5-2.7-.2-5.4-.4-8.6-.7 2.7-7 8.3-3 12.8-4.7v-14.3c-3 .2-4.9.3-6.8.4-2.1.1-4.2.2-5.3.3-2.1 8.3-4 15.9-5.8 23.5zm-86.7 6.7c2.4 1.7 5.4 5.3 8.6 5.6 2.9.3 6.2-3.1 9.3-4.9-.4 2.2-2 3.3-2.3 4.6-.4 1.7-.5 4.4.5 5.3 7.4 6.5 10.4 6 16.8-2.4-2.4-1.9-4.7-4-7.3-5.6-2.7-1.7-5.7-3.8-8.6-4-5.6-.2-11.4.9-17 1.4zm-5.9 77.3c6.2 8.8 16.6 3.7 24 7-.1.5-.1 1-.2 1.5-4.7 1.1-9.3 2.2-15.1 3.6 8.5 5.4 15.6-.5 23-.7-4.9-3.3-8.7-6.8-5.4-13.6-8.7.8-16.9 1.5-26.3 2.2zm33.5 7.1c1.2-2.1 1.5-2.4 1.5-2.7.8-14.7 1.7-29.5 2.4-44.2 0-1.1-1.4-2.2-2.1-3.3-.8.8-1.8 1.4-2.3 2.3-.6.9-.9 2-1 3.1-.5 12.5-1 25-1.2 37.5 0 2 1.4 4 2.7 7.3zm28.8-193.7c-11.1 3.2-22.2 4.8-33.5.5-1.1 6.2.6 8.6 6.2 8.3 7-.4 14.1 0 21.2-.1 4.6.1 7-3.2 6.1-8.7zm20.1 129.2c-4.9-3.2-8-6.2-11.7-7.4-2.1-.7-5.1 1.5-7.8 2.4.7 1.7 1.4 3.4 2.1 5 .5 1.1 1 2.3 1.9 4.2-9.8-3.6-9.8-3.6-14 3.2 10.1-1.2 19.8-1.4 29.5-7.4zm-115.4 68.9c8.9 6.8 31.7 8.5 36.7 3.3-11.7-5.2-23.6-6.1-36.7-3.3zm198.2-54.2c-4.4 1.5-8.1 3-11.8 4-1.2.3-3-.3-3.9-1.1-.5-.5-.3-2.6.3-3.3.7-.9 2.2-1.7 3.5-1.8 2.5-.3 5.1-.1 7.7-.1.2-.8.3-1.6.5-2.4-1.6-.5-3.3-1.3-4.9-1.3-2.9.1-5.8.6-8.6 1.3-2.2.6-4.6 1.3-6.4 2.7-2.5 2-1.6 7.7 1.3 8 5.5.6 11.2.8 16.7.3 2.6-.2 5.6-2.2 5.6-6.3zm54.4 52.7c-.1-.6-.2-1.2-.3-1.9-1.3-.5-2.5-1.3-3.8-1.4-5.8-.6-11.7-1.1-17.5-1.2-1.9 0-3.8 1.2-5.8 1.8 1.7 2 3 5.2 5 5.7 3.9.8 8.2.5 12.2-.1 3.5-.5 6.8-1.9 10.2-2.9zm-180.3-6.7c.8 4.2 1.5 6.8 5.8 7 5.5.3 10.9 1.6 16.4 2 2.1.2 5.8-.2 6.1-1.3.7-2.2-.2-5-.5-7.5-9.5 4.4-18.3 2.4-27.8-.2zm-47.1-72.6c4.6 7.7 13 9.2 17.5 3 .7-1 .7-3.7-.1-4.6-4.6-5.4-8.4-5.6-14-1.1-.9.7-1.9 1.5-3.4 2.7zm98.2 1.2c-2.4-1.9-4.5-3.7-6.7-5.3-6.4-4.5-9-3.5-12.2 4.5l6.3 4.2c2.3 1.4 4.6 2.6 6.9 3.9 2.1-2.5 3.6-4.5 5.7-7.3zm-82.8 7.9c9.4 10.2 17.5 9.8 19.9 1.3-10.8-8.3-10.8-8.3-19.9-1.3zm-9.7-18c-7.9-9.4-7.8-8.6-18.9 1.3 8.7 7.9 11.5 7.7 18.9-1.3zm239 80c10.6-8.9 13.4-19 6.5-27.3-2.9 8.4-5.5 15.9-7.9 23.4-.3.9.8 2.2 1.4 3.9zm-181.6-60.2c-13.1-9.7-14-9.7-18.7-1 8.5 8.5 11.6 8.7 18.7 1zm-9.4-10.5c4.5 2.6 8.6 5 12.5 7.3 2.2-2.5 3.9-4.6 5.4-6.4-2.5-7-8.3-6.4-13.7-6.5-1.2 1.6-2.5 3.3-4.2 5.6zm-3 95.7c.1-.7.2-1.3.3-2-9.7-6.7-24.4-8.7-31.2-2.8 11.1 1.7 21 3.2 30.9 4.8zm-83.9-101.2c.2.7.4 1.4.6 2 3.5-.6 7.4-.5 10.3-2.1 4.9-2.9 9.2-6.9 13.7-10.5.7-.5 1.1-1.4 2.5-3.5-10.2 4.9-20.3 6.5-27.1 14.1zm88.6 90.2c-.3.7-.6 1.3-.8 2 3.9 1.9 7.7 5.1 11.7 5.3 4.5.2 9.2-2.2 13.8-3.6-1.6-1.7-3.1-3.3-3.5-3.8-7.9.1-14.5.1-21.2.1zm-212-9.7c.1.5.1 1 .2 1.5 10.4-1.1 20.8-2 31.1-3.5 2.7-.4 4.9-2.5 3.4-5.2-11.8 2.5-23.3 4.9-34.7 7.2zm65.4-7.6c-.6-2.7-1-4.3-1.2-5.2-8.6 2-16.6 3.8-26.1 6 2.1.6 2.7 1 3.2.9 7.8-.5 15.6-1.1 24.1-1.7zm223.6 5.7c-.1-.6-.1-1.2-.2-1.8-2.7-1.4-5.3-3.5-8.2-4.1-1.9-.4-4.3 1.1-6.3 2-.2.1.2 2.7.9 3.1 2.4 1.4 5.1 3 7.8 3.3 1.8.2 4-1.6 6-2.5zm-62.4-85.9c1.1 4-.8 9.2 5.5 9.5 3.2.1 5.6-4.4 4.9-8.4-3.2-.4-6.4-.7-10.4-1.1zm57.6 61.7c.2-.5.4-1 .7-1.6-4.3-3.8-4-9.3.6-12.6.7-.5.6-2.1.9-3.2-2.1.4-4.7.2-6 1.4-2.9 2.8-2.7 11.1.1 14.1.8 1 2.4 1.3 3.7 1.9zm-53.1-136.5c2.7 3 4.5 5.4 6.6 7.3.8.8 2.8 1.2 3.7.8 1.1-.5 2.4-2.9 2.2-3.2-2-2.5-4.2-5.1-6.9-6.8-.9-.6-3.4 1.2-5.6 1.9zm19.9 99.1h13c-5.4-9.3-5.4-9.3-13 0zm-102-7.9c.2-.6.5-1.1.7-1.7-5.3-7.3-8.6-8.4-14.7-4 5 2 9.5 3.8 14 5.7zm42.6 13.8c5.3 1 9.8 1.8 15.4 2.9-6-7.9-10.7-8.9-15.4-2.9zm69-216c-3.2 3.9-2.8 7.3.2 10.4.2.2 2.8-1.1 3.5-2.2 2.4-4 0-6.3-3.7-8.2zm-122.2 161c2.5-1.1 3.6-1.2 3.7-1.6 1.3-4.1 2.6-8.3 3.7-12.5.1-.5-.5-1.2-.8-1.8-.9.4-2.3.6-2.5 1.2-1.3 4.4-2.4 8.8-4.1 14.7zm11.6-45.4c.7-.3 1.4-.6 2.1-.8-.8-2.5-1.7-5-2.5-7.5-1.2.6-2.9 1-3.4 2-2.6 4.3 1.3 4.9 3.8 6.3zm-.6 5.1c-2.4-1.6-4.7-3.1-7.1-4.7l-1.5.3c.4 1.7.2 4.1 1.2 4.8 2.2 1.7 5.2 4.3 7.4-.4zM416 135c-.4.9-.9 1.9-1.3 2.8l5.4 4.5c.5-1.8 2.1-4.4 1.4-5.2-1-1.4-3.6-1.5-5.5-2.1z"/>
  <path d="M595 3.4c-1.5-.7-2.9-2.1-4.4-2.1-11.6-.1-23.3.1-34.9.1-12 .1-24 .2-35.9.2l-52.4.3c-.5 0-.9-1.2-1.4-1.9h125.1c2.5 0 5-.4 3.9 3.4zM593.9 466.2l1.1-1.1c-.3.4-.7.7-1.1 1.1zM203.5 192.6c-1.8-.4-3.5-.8-5.2-1.1-2.7.4-5.7.3-8.2 1.3-1.5.6-3.5 3.4-3.2 4.6.7 2.4 2.3 5.2 4.4 6.5 5.8 3.6 12.1 6.5 18.2 9.7 1.2.6 2.6 1.1 5.6 2.4-6.1 4.5-11.1 8.5-16.4 12.2-6.2 4.3-7.1 7.8-4.5 14.9 1.2 3.1 1.4 6.7 2 10.2-1.3.1-2.1.3-2.3.1-5.1-7.4-13.4-6.2-20.7-7.9-6.8-1.5-13.7-2.5-20.3-4.6-2.1-.7-4-3.8-5-6.2-1.3-3.4-2.7-5.3-6.5-7.1-8.3-3.8-16-8.8-23.6-14-7.7-5.3-14.1-12.1-18.8-20.4-6.9-12-6.6-24.9-5.5-38.2 1.4-16.6 10.8-28.9 20.4-41.1 5.7-7.2 14.3-9.9 22.6-12.8 15.7-5.4 31.2-3.7 46.5 1.8 5.5 1.9 11.1 4.2 15.7 7.6 4.6 3.4 8 8.3 11.9 12.6 1 1.1 1.6 2.5 2.6 3.5 3.7 3.8 5.9 3.3 7.7-1.9.7-1.9 1.2-3.8 3.3-6.6 2.3 3.5 4.5 7 7.3 11.2 2.4-7.3-.4-15.1-5.7-17.8-1-.5-3.3.2-4.2 1.1-2.1 2.2-3.8 4.8-6 7.8-10.5-18.9-28.6-24.7-47.9-28-19.8-3.4-37.7 2-53.9 14.1.3-2.7.6-5 .8-7.3-.9-.3-1.7-.7-2.6-1-1.8 3-3.6 6-5.5 9-1.1 1.7-2.3 3.4-3.5 5-.9 1.3-2.6 2.7-2.6 4.1.2 6.1-3.2 10.5-6.3 15.2-5.5 8.3-6.8 17.9-8.4 27.5-2.6 14.7 2.1 27.7 8.7 39.9 5.6 10.4 15.5 17.2 25 23.9 7.2 5.1 15.2 9 23.8 14-1.3 1.5-2.5 3.7-4.4 5.1-4.5 3.2-4.9 5.2-1.6 9.5 1 1.3 1.7 3.4 1.5 4.9-2.8 14.6-5.9 29.1-8.6 43.7-1 5.2-1.2 10.5-1.8 15.6H10.5v-15.9H41c2.7 0 5.3-.1 8-.1 18.5.3 37 .7 55.6 1 6.1.1 12.2 0 18.3-.4 1.2-.1 2.4-1.6 3.6-2.5-1.3-.9-2.7-2.4-4-2.5-36.6-.5-73.3-.9-109.9-1.3-1 0-2-.4-2.6-.6 0-10.2-.1-20 0-29.8.2-24.4.6-48.9.8-73.3.1-21.2-.1-42.4.1-63.6.1-7.7 1.2-15.5 1.1-23.2-.1-13.1-.9-26.1-1.1-39.2-.2-14-.1-28-.2-42 0-3.1.8-6.3.1-9.2-1.3-5.1 1.6-5.2 5-5.1 12.8.4 25.6.9 38.4 1.2 4.7.1 9.5 0 14.9 0-3.7 3.9-7.1 6.8-9.5 10.3-3.5 5-6.8 10.3-9.1 16-2.3 5.5 3.1 14.4 8.9 17.2 13.1 6.4 27.3 8.2 41.4 10.3 9.4 1.4 19 1.6 28.5 2.6 7 .7 13.9 1.9 20.9 2.9 7.5 1 15.1 2.3 22.6 2.7 10.2.5 20.5.2 30.7.4 6.8.1 13.7.6 20.5 1 6.9.3 13.9 1.5 20.7.8 5.2-.5 5.4 2.7 5.3 5.3-.5 11.2-1.6 22.3-2.5 33.5-.2 2.9-.6 5.7-1.2 10.5 3-1.8 5.7-2.4 6.6-4 3.8-6.4 7.5-13 10.3-19.9 2.9-7 4.5-14.5 7.2-21.6.5-1.5 3.1-3.1 4.8-3.1 15.9-.4 31.9-.3 47.8-.7 13.8-.4 27.5-1 41.3-1.9 9.5-.6 18.9-1.9 28.4-3 16.1-1.9 32.3-3.4 47.5-9.4 8.4-3.3 16.1-8.3 21.5-15.8 6.1-8.5 2.9-16.5-2.1-24.1-1.8-2.8-4.4-5.2-7.5-8.7h22.7c4.5 0 9 .1 13.5.1 8.6.1 17.2.3 25.8.3l63.4.3c.9 0 1.9.1 2.8 0 5.7-.4 6.9.7 6.5 6.6-.6 9.9-1.2 19.8.1 29.8 1 8-.1 16.3 0 24.5.1 14.8.7 29.5.6 44.3 0 10.5-1 21-1 31.5 0 17.2.7 34.4.8 51.7.1 17.6 0 35.1-.1 52.7 0 11.1-.1 22.2-.2 33.4v1.1c.1 9.1-.3 9.2-9 9.1-15.7-.1-31.3.1-47 0-18.4-.1-36.8-.4-55.3-.6-10.9-.2-21.8-.5-32.7-.5-1.3 0-2.6 1.4-3.9 2.1 1 .9 1.9 2.5 2.9 2.5 7 .4 14 .6 21 .6 19.9.2 39.7.2 59.6.3 14.4.1 28.9.2 43.3.2 6 0 12-.1 18 .2 1.4.1 3.5 1.7 3.7 3 .5 2.9.5 6-.1 8.8-.2 1.1-2.6 2.5-4.1 2.5-12.5.2-25 0-37.6.2-4.5.1-8.9 1.6-13.3 1.6-4.6 0-9.2-1.5-13.8-1.6-4.8 0-9.6 1.2-14.4 1.3-3.2 0-6.4-1.5-9.6-1.5-14-.3-28.1-.5-42.1-.4-5.5 0-11 1-16.5 1.4-1.4.1-3.6 0-4-.7-.6-1.1-.3-3 .3-4.4 2.5-6.6-3.2-17.5-9.5-17-4.1.3-8 2.6-12.3 4.1-.1-.9-.7-2.3-.3-3 5.6-8.3-.5-15.2-3-22.2-2.9-8.2-6.7-16-10.3-23.9-1.3-2.9-2.8-6.3-5.2-8-6.2-4.5-4.6-12.1-7.5-17.8-.9-1.8 1.7-6.5 4-8.4 3.1-2.5 7.3-3.5 11.1-5.1.4-.2 1.4-.1 1.6.2 3.6 5 6.7 1.1 10.2-.3 3.1-1.3 6.7-1.5 10-2.3.8-.2 1.7-.6 2.4-1.1 10.5-9.1 16.7-20.2 16.4-34.5 0-1.2.3-3 1.1-3.4 7.5-3.9 5.6-11.7 5.4-17.3-.2-7.7-3.6-15.2-5.7-22.8-.2-.9-.6-2.2-1.2-2.4-11.3-4.7-12-17.8-19.9-25.1-10.5-9.7-20.8-20.2-35-23.5-7.8-1.8-16.7-1-24.7.7-14.8 3.1-27.9 10.4-40.4 19-3.9 2.6-9.1 3.6-13.8 4.6-5 1.1-10.2.7-15.2 1.9-7.8 1.9-13.2 7.7-14.5 15-1.7 9.4-2.1 19.6 7.6 26 2.6 1.7 6.1 2.5 9.3 2.9 7 .9 8 6.6 9.2 11.6 1.2 5.1-3 8.3-6.9 10.1-7.2 3.4-12.1 8.9-15.7 15.7-1.8 3.4-2.5 6.5 2.3 8.5 2 .8 3.3 3.1 5.7 4.3-.1-4.7-5.7-8.4-1.6-13.3 3-3.6 5.7-7.4 8.5-11.1.5.3 1 .7 1.6 1-.3 1.1-.6 2.3-.8 3.4-2.7 12.1 4.5 25.1 16.3 29.7 8.8 3.4 17.5 6.9 26.2 10.4.7.3 1.8 1.6 1.7 1.9-1.5 3.4-2.8 6.9-5 9.9-1 1.3-3.9 2.3-5.6 1.9-8.6-2.2-17.1-5.1-25.6-7.5-3.1-.9-6.4-1-10.8-1.7 1.4 6.1 2.6 11 3.7 16 .3 1.3.7 3.6.2 3.9-5.3 3-5.3 9.1-7.9 13.5-1.3 2.3-1.1 5.7-.9 8.5.2 3.5 1.1 6.9 1.5 10.4.4 2.7.7 5.5.8 8.3.1 1.1-.2 2.4-.7 3.5-.4.9-1.8 1.6-1.9 2.5-.7 5-3.5 7.2-8.4 7.1-.6 0-1.1.7-2.9 1.8 12.4 1.9 13.8 12.1 18.1 20.9-3.7 1.3-8.1 1.9-11.3 4.1-5.7 3.9-10.9 8.5-15.8 13.3-2.1 2.1-.3 3.5 2.5 4.3 9.4 2.9 18.7 6.2 28 9.4 3.7 1.3 7.2 2.9 10.9 3.9 2.9.8 3.9 2.3 3.6 5.2-.8 7.2-1.8 14.4-2 21.6-.3 8.2-.2 16.5.3 24.8.2 3.7-4.1 8.2-8 8.1-7.7-.2-15.5.1-23.2.4-3.5.1-7.1.6-10.6 1.1-1.6.3-3.2 1.1-6.3 2.2-.9-1.2-2.1-3.8-4.2-5.1-3.2-2.1-7-3.4-10.6-4.9-3.3-1.3-6.7-2.3-10.1-3.4-5.1.4-10.5.9-16.6 1.4 0-6.6-.4-12.6.3-18.5.2-1.4 3.7-3.4 5.8-3.6 10.1-1.2 10.2-1.3 8.6-11.5-.6-3.6-.1-7.4-.1-11.1.1-8.4-1-16.9 1.6-25.1.5-1.4-.3-3.2-.5-5.1 2.8-1.3 6-2.3 8.6-4.2 2.6-1.9 4.6-4.7 6.5-6.9 11.5 2.1 22.9 1.8 34.1.2v-3h-32.2c2.4-7 4.4-13 6.6-19.5 1.8.9 3.5 2.2 5.4 2.4 2.3.3 5.9.6 6.9-.6 3.2-4 6-8.5 7.8-13.2 2.3-6 1.8-11.9-1.8-17.9-4.2-7-10.2-4.8-16-4.3-.1-2.1.2-4.1-.4-5.8-2.3-6.7-8.1-8.3-13.4-3.4-2.7 2.5-4.9 5.7-6.6 8.9-3.1 5.9-5.6 12.2-8.5 18.2-.3.5-2 .3-3.1.5-.2-7-7.8-8.7-10.3-14.2-2.7-5.9-6.8-11.4-8.3-17.5-1.6-6.4-4.3-9.6-10.8-9.7-.8 0-1.6-.7-4.1-1.8 4.3-3.5 7.9-6.3 11.3-9.3 4.9-4.4 9.6-9 14.4-13.5-.2-.8-.4-1.5-.6-2.3-9.2-4.2-18.4-8.4-27.7-12.6.2-.8.4-1.6.5-2.4 2.7-.5 5.4-1.4 8.2-1.4 8.9-.2 17.8-.2 26.7 0 8.1.2 11.3.8 10.1-11.6 7.2-3.9 9.7-7.3 8.5-12.6-1.2-5.4-5.8-12.5-12.8-12.1-.8 0-2.1-1.8-2.6-3-2.9-6.8-5.6-13.8-8.7-20.6-.7-1.6-2.5-2.7-3.9-4-.6.3-1.2.7-1.8 1 1 3.3 1.9 6.6 3.2 9.8 2.8 6.5 5.2 12.8 1.5 20-1.8 3.5-.3 6 3.9 9.8 1.5-2.6 2.9-5.1 4.2-7.5 10.2 2.5 11.2 3.7 9.8 12-.3.2-.6.7-.9.6-5.1-1.2-7.6 0-6.5 6 .6 3.2.1 6.5.1 8.9-3.2-.9-5.4-2.1-7.5-2-6.1.3-12.2 1.1-18.3 1.7-.7.1-1.5.3-2.2.4l.1-.1c-.8-.6-1.6-.6-2.3-.6zm-34.3-30.1c1-2 .1-4.2-3.3-5.6-4.7-2-11.1-.7-14.2 3-4 4.8-4.8 12.2-1.8 16.8 4.1 6.4 12 8.6 17.5 4.7 1-.7 1.4-2.4 2-3.7-1.3-.1-2.6 0-3.9-.3-3.2-.8-7.3-.7-9.2-2.8-3.2-3.2-2.2-10.4 1.6-12.2 2.7-1.2 6.5 0 11.3.1z" fill="#fff"/>
  <path d="M580 413.4c.3-1.3.7-2.5 1.2-4.2-1.4.1-2.7.2-3.3.2-.6-1.6-.9-3.9-1.6-4-3.8-.5-7.7-.5-12.2-.8.7-4.2 1.4-7.8 2-11.5.1-.5.2-1.2 0-1.7-1.4-4.4-1.6-11-4.6-12.5-4.7-2.4-6.5 4.3-9.4 7.3-.4.4-.6.9-.9 1.3-7.7-4.3-15.5-7.7-24.5-8.5-5.9-.5-11.6-3.1-17.4-4.6-2-.5-4.5-1-6.4-.4-6.4 2.2-9.5-.1-12-6.2-1.5-3.7-5.2-6.8-8.5-9.2-4.4-3.2-9.3-5.8-14.2-8.3-4.2-2.2-6.1 1.2-8.6 3.7-4.7 4.6-9.7 8.9-14.9 12.8-1.1.8-4.1.3-5.6-.6-5-2.8-10.9-1.4-12.7 4.1-2.2 7.1-3.8 14.4 3.3 20.2.7.6 1.3 1.4 1.7 2.1.2.4 0 1.1 0 2.1-2.9-.4-6.7 1.8-6.1-4-11.6 1.9-22.4 3.9-33.3 5.5-1.1.2-3.7-1.5-3.7-2.3-.2-10.4-.1-20.8.1-31.1 0-.9 1.2-2.5 2-2.7 7.7-1.3 15.5-2.2 23.2-3.6 2.2-.4 5.1-1.6 5.9-3.3.9-1.9.2-4.9-.7-7.1-1.5-3.8-3.8-7.3-5.9-11.2 5.4 0 10.2-.4 14.8.1 7.2.8 12.3-2.3 16.9-7.4 2.4-2.7 2.2-4.4-1.4-6.6-6.1 11.6-16.7 8-27.5 8.4 4.9-3.4 8.4-7.5 12.6-8.6 6.2-1.5 12.9-1 19.3-1.1 5.2-.1 10.4.4 15.5.4 7.5.1 14.9-.2 22.4 0 14.2.3 28.5 1.7 42.7 1 15.6-.8 31.1.9 46.6.4 4-.1 7.9-.6 12.4-1 0 9.7.1 19.1 0 28.4-.1 8.5-.8 17.1-.8 25.6 0 11.8.7 23.5.5 35.3.1 4-3.8 3.7-6.9 3.6zM387.3 208.2c-1.1 1.1-2.1 2.8-3.4 3.1-10 2.3-20 3.9-30.5 3-14.3-1.3-26.7-7.5-39.7-12.5-5.7-2.2-8.4-6.7-11.5-10.9-4.4-6.1-2.2-13.2 1.1-18.2 5.5-8.3 5.8-15.8 1.2-24.1-.3-.6-.4-1.4-.6-2.1-.1-.3.1-.7 0-.1 7.6-1 14.9-2 22.2-2.9 1.1-.1 2.4-.2 3.2.3 6 3.5 12.2 2.3 18.5 1 1.8-.4 3.7-.1 5.5 0 2.9.2 6.1 1.5 8.7.7 5.4-1.6 10.7-1.2 16-1.7 3.8-.4 8.1-1.6 12.2-1.2 1.7.2 4.2 2.1 4.6 3.6 1.2 5.1 1.8 10.4 2.3 15.6.4 4.3 1.8 9.3.2 12.9-3.5 8.1-8.7 15.5-13 23.3-1.8 3.3-3.2 6.9-4.7 10.3.5.3 1 .7 1.5 1l5.1-2.4c.5.5.8.9 1.1 1.3zm-42.8-41.5c-.5-2.4-2.4-4.7 1.8-5.9.7-.2 1.3-2.1 1.2-3.1-.1-.6-1.6-1.6-2.4-1.6-4 .1-8.4 5-7.9 8.3.6 3.8 5.9 7.8 9.7 6.6 2.1-.6 3.9-2.7 5.6-4.4.3-.3-.7-1.8-1.1-2.8l-5.4 2.7c-.1.2-.3.2-1.5.2zm16.3-16.2c-1.7 3-4.5 5.7-4.2 7.9.5 3 3.1 5.8 5.5 8.1.7.7 5.1-11 3.7-12.3-1.1-1.2-2.6-2-5-3.7zm-31.2 19.1c1.7-4.2 3.2-8.1 5.2-12.9-1.3-.8-3.4-3.2-4.9-2.9-1.8.3-3.9 2.8-4.5 4.7-1.4 4-.4 7.8 4.2 11.1zm17.3 14.8c-1.9 1.7-3.1 2.8-4.3 3.9 2.8 1.3 5.6 2.7 8.5 3.7.5.2 1.6-1.4 2.5-2.2-2-1.6-4.1-3.3-6.7-5.4zM299.9 228.5c2 .5 4.1 1 6.1 1.4 8.8 1.9 16.6 7.4 26 6.9 10.1-.6 20.2-1.5 30.4-1.9 3.4-.1 6.8.9 10.6 1.4.8 2.3 1.9 5 2.5 7.7.8 3.5 1.2 6.5-3.8 8.1-2.5.8-4 4.9-5.8 7.7-.5.8.1 2.8-.5 3.1-5.1 3.3-1.8 8.4-2.8 12.5-.6 2.7-.6 5.7 0 8.4.5 2.2 2.1 5.5 3.8 6 7.4 1.9 6.7 7.7 6.9 12.9.3 8.3.1 16.6.1 24.6-8.1-.5-16.4-.3-24.4-1.8-8.5-1.7-16.7-5.1-25.1-7.6-7.3-2.1-14.7-4.1-22.1-5.7-4.5-1-5.7-2.8-4.5-7.4 2.3-8.3 5-16.6 5.8-25 .7-8.3 3.4-16 5.1-24 .4-1.9-.6-4.2-1.4-6.2-2.6-6.6-5.4-13.1-8.1-19.6.3-.5.8-1 1.2-1.5zm55.4 45.2c.1-.8.1-1.6.2-2.4-15.7-1.7-31.3-3.4-47-5.1-.3.8-.6 1.6-.8 2.4 3.8 1.9 8.5 2.5 10.4 6.9.1.2 1 .1 1.6.2 9.9 1.2 19.8 2.4 29.7 3.5 1.4.2 2.8-.2 4.2-.2l-2.1-3.9c.9-.4 2.3-.9 3.8-1.4zm-49.2 11.9c5.7 7.9 48.5 20.5 54.5 15.3-18.5-5.2-36.5-10.3-54.5-15.3zm34.9-33.3.3-1.5c-.6-.3-1.1-.8-1.7-.8-7.6-.4-15.2-.7-22.8-.8-.6 0-1.9 1.8-1.7 2.2.6 1.2 1.8 2.9 2.6 2.8 7.8-.4 15.5-1.2 23.3-1.9zM330.4 125.4c-2.7 9.6 7 9.7 10.7 15.3-4.4 0-7.8.5-10.3-3.9-2.7-4.7-6.2-9-9.8-13-1-1.1-3.9-.7-5.9-.9.1 2.1-.6 4.5.3 6.1 2.1 3.8 4.9 7.2 7.7 11.2-7.7 2.5-14.2-.1-20.5-3.4-.7-.4-.8-3.1-.3-4.3 2.3-4.7 4.9-9.3 7.9-14.7-6.9.4-11.3 4.3-15.6 8.2-6.1 5.5 2.4 10.8.4 16.2-11.5 0-14.5-11.4-12.2-20.4 3.3-13.3 6.9-14.5 22.2-15.2 6.9-.3 12.8-1.9 18.4-6 11.8-8.6 25.3-14.6 39.2-17.7 13.8-3.1 27.1-.4 39 9.7 8.1 7 15.3 14.2 20.2 23.5 2.4 4.6 4.3 9.6 5.9 14.6.5 1.5-.6 3.5-1 5.2-4.7-4.4-8.2-8.6-12.6-11.6-4.3-2.9-7.9-1.1-9.7 3.8-.6 1.7-.6 3.7-1.4 5.3-.9 1.7-2.6 4.5-3.5 4.3-1.9-.3-4.2-1.9-5.2-3.6-3-5.1-5.4-10.7-8.3-15.9-.7-1.2-2.4-1.9-4-3.1-2 7-2.4 12.8 2.3 18.1.8.9.1 3 .1 5.2-7.1-6.1-13.3-11.5-19.5-16.8-.5.6-1.1 1.1-1.6 1.7-.3 7.3 8.6 8.2 10.7 14.6-11.1-2.2-19.2-9.1-27.2-16.8-3.4 7.3 2.1 8.6 4.9 11.1 3 2.7 6.4 4.8 9.2 7.8-12.4.2-19.7-9.4-30.5-14.6zM199.7 265.7c-.2-3.4-.4-6.9-.7-11.4 5.3 2.9 9.5 5.3 11.2 11.2 2.3 7.8 5.7 15.2 8.6 22.7-7.7 5.2-3.3 14.5-7.2 21.1-3.1-5.3-5.9-10.3-8.9-15.2-.4-.6-1.6-.7-2.8-1.1-2.3 6.3-4.7 12.4-7.6 20.2-4.1-7.5-7.3-13.5-11.1-20.6-3.3 4.4-6 7.9-8.4 11-.6-3.7-1-7.1-1.7-10.5-.3-1.6-.9-3.1-1.4-4.7-1.1.7-2.1 1.5-3.2 2.2.7 5.7 1.3 11.4 2.2 17 .5 3 .7 5.4-3.2 6.1-10.2 1.8-20.5 3.7-31.3 5.7.6-3.7 1.3-7.8 1.8-11.9.4-3.5.5-7 .9-10.4 1.7-12.5 3.6-24.9 5.2-37.4.5-4 1.8-4.4 5.4-3.1 9.2 3.4 18.6 6.2 27.9 9.2 4.8 1.6 11.9-4.7 10.8-9.5-.1-.6-1.1-1.5-1.5-1.4-1.2.3-2.9.7-3.3 1.6-2.3 5-5.1 3.2-8.9 1.7-8.3-3.2-16.8-5.5-25.3-8.1-1-.3-2.3-.4-3-1.1-1-1-1.6-2.4-2.4-3.6 1.7-.6 3.6-2.1 5.1-1.7 7.8 1.9 15.4 4.5 23.2 6.5 4.7 1.2 10 .9 14.4 2.7 3.4 1.4 5.9 5.1 8.6 8 1.5 1.6 2.6 3.4 3.9 5.1 1 0 1.9-.2 2.7-.3zM267.6 291.7c-1.2 0-2.7.4-3.7-.1-6.3-2.9-9 .6-11.2 5.8-3 7-6 14.1-9.5 20.9-1 1.9-4.3 4.5-5.7 4-2.1-.7-4.5-3.5-5-5.8-1.7-6.9-2.3-14.1-3.7-21.1-.6-3-2.2-5.7-3.2-8.6-.5-1.6-.7-3.3-1.3-6.2 3.2 3.7 5.5 6.3 8.2 9.3 6.7-7.7 10.2-15.9 13.3-24.4 2.9-7.9 4.1-8.9 13.6-7.8-3.3 2.4-5.5 4-7.9 5.8 3 7.4 8.8 2.9 13.4 3.1 3.1.1 6.3.6 9.4.9-.1 1-.2 2-.3 2.9-3.6-.3-7.1-.5-10.9-.8-1.1 3.3-.5 5.2 3.5 5.3 2.4 0 4.8.4 7.9.6-3.8 1.7-9.1 3.3-9 4.1.4 4-6.1 9.6 2.1 12.1zm-22.8-10.1c.7 1 1.3 2 2 3 3.7-2.3 7.5-4.6 12.2-7.5-1.9-1.3-3.6-2.9-4-2.7-3.5 2.2-6.8 4.8-10.2 7.2z" fill="#fff"/>
  <path d="M377.9 288.1c-3.5-1.1-6.4-2-9.2-2.9.1-.6.3-1.2.4-1.7 3-1.1 5.9-2.1 8.9-3.2.1-.6.2-1.3.3-1.9-2.4-.9-4.8-1.7-7.9-2.9.7-.5 1.6-1.2 2.6-1.7 2-1.1 4.1-2.1 6.1-3.2-2.2-1-4.5-2-6.7-2.9-.5-.2-1-.3-3.1-1 2.4-1 3.6-1.7 4.9-2 2-.5 4-.7 6-1-1.4-1.4-2.8-2.9-4.2-4.3-.3-.4-.7-.6-.8-2.4 2.4.7 5.6.7 7.1 2.3 4.2 4.4 8.3 9.2 8.6 15.8.3 8.1 6.1 13.4 11 18 3.8 3.6 4.5 7.1 4.8 11.1.2 3.9-.3 7.9-1.1 11.8-1.4 7.7-8.5 10.2-15.1 5.7-8.9-6-11.7-14.9-12.6-24.8-.2-3.2 0-6.3 0-8.8zM383.1 364.7c0 9.4-.1 19.1 0 28.9 0 3.1 1.1 6.5.4 9.3-.6 2.4-3.1 5.9-5 6.1-7.1.8-14.2-.4-20.8-3.4-1.4-.6-2.8-3.2-2.7-4.8.5-10.2 1.4-20.4 2.3-30.6.1-1.1 1.5-2.8 2.5-2.9 7.7-1 15.5-1.8 23.3-2.6zM137.9 429.8c6.1-9.9 15-10.7 24.9-8.7-.7 1.5-1.5 3-2.8 5.6 5.9-2.8 10.9-5.2 15.9-7.6.2.4.5.9.7 1.3l-10.5 6.3c0 .4-.1.8-.1 1.3 1.9.3 3.7.5 5.6.8 3.7.4 7.3 2.2 10.9-.4 3.6-2.6 7.4-5.2 11-7.8.9-.6 1.6-1.5 2.6-1.8 6.8-2.6 25.1 2.8 29.7 8.8-5.9 8.1-15.2 9.1-24 10.8-11.2 2.2-22.1-1.3-33.1-3-9.3-1.4-18.6-2.5-27.9-3.9-1.1-.2-2-1.2-2.9-1.7zM339.4 401.4c-8 1.4-16.5 1.8-24.4-3 .7-10.4 1.7-20.6 2.1-30.9.2-4.3 2.2-4.9 5.6-4.6 5.7.5 11.5 1.8 17.1 1.3 4.3-.4 4.3 1.4 4.1 4.2-.3 4.2-.9 8.4-1.4 12.6-1.1 6.5-2.1 13-3.1 20.4zM168.3 318.7c1.2 5.1 2 10.6 3.8 15.7 1.6 4.7.1 7.5-3.1 10.6-4.2 4.1-7.9 8.7-11.9 13.1-2.1 2.3-3.7 3.5-6.6.4-8.3-9.1-10.7-20-10.6-31.7 0-1.3 2.1-3.6 3.5-3.8 8-1.8 16.1-2.9 24.9-4.3zM442.4 401.2c10.4-.5 18.8-3.8 26.4-10.1 9.8-8.1 20.6-13.6 34.2-10.3 5.3 1.3 11.1.2 16.7.2.1.5.2.9.2 1.4-1 .4-2 .9-3 1.1-13.3 2.1-23.1 9-30 20.6-.8 1.3-3.3 2.5-4.9 2.3-9.4-1.4-18.7-2-28 .9-3.2.9-4.7 0-11.6-6.1zM180.6 318.5c5 6.3 9.7 12.3 14.5 18.3.8-.1 1.6-.3 2.4-.4 2.5-6.4 4.9-12.8 7.6-19.6 3.3 4.8 6.1 9.1 9.2 13.3.8 1 2.1 1.7 3.1 2.5 1-1.4 2.4-2.7 2.8-4.2 1-4.3 1.6-8.7 2.5-13.4 7.9 6.2 7.6 14.9 8.2 24.6-8.6 2-17.2 4.9-25.9 5.5-5.6.4-11.5-2.9-17.2-4.5-.2 0-.3-.1-.5-.2-12.5-5.1-14-10-6.7-21.9zM425.5 158.8c2.4 5.2 5.6 10.1 6.8 15.5 1.6 7.2-.1 14.5-4.1 21-1.5 2.4-3.7 4.2-5.5 6.3-.4-.3-.8-.5-1.2-.8 1.3-2.4 2.9-4.6 3.9-7.2.9-2.3 4.7-4.7-.8-7.9-1.8 12.1-10.4 17.3-19.9 21.2 4.8-4.9 9.6-9.9 14.4-15 .3-.3-.6-1.7-.7-1.9-5.5 4.4-10 8-14.7 11.7 0-6.1-.9-6.8-6.1-4.5-2.5 1.1-5.1 2.2-7.9 2.8 6.6-11 17.8-19.8 14.4-34.3 4.3 3.3 8.5 6.7 12.9 9.7.6.4 3.2-.6 3.6-1.5 1.7-3.7 3.1-7.6 4.4-11.5.4-1.2.3-2.6.5-3.6zM391 420.9c-4.8-15.7-4.4-19.6 3.3-22.5-1.1 1.2-1.4 1.8-2 2.2-.7.5-1.6.9-2.4 1.4.3.6.6 1.3.9 1.9 3.3-.6 6.5-1.1 9.8-1.7-.2.3-.4.6-.6 1 1.5.7 3.1 2.1 4.4 1.9 7.6-1.2 15.1-2.9 22.6-4.4 1-.2 2.1.1 3.2.2-3.2 1.9-7.5 3-8.9 5.6-1.3 2.4.6 6.4 1.2 10.9-9.6 1.1-20.4 2.3-31.5 3.5zM456 392.7c-2.1 0-4.3.5-6.2-.1-3.7-1.4-6.3-3.6-8.9-7.4-4.9-7-2.3-5.5 3.1-8.9 5.8-3.6 8.4-2 13-.2 9.4 3.8 18.3 3.1 25.9-4.6.9-.9 2.8-1.6 3.7-1.3 1.1.5 2.3 2.3 2.2 3.4-.1 1-1.8 2-3 2.7-6.4 3.8-12.8 7.5-19.2 11.2l-10.2 6c-.1-.2-.2-.5-.4-.8zM185.5 392c.4 13.3 2.4 10.9-10.9 13-6.1.9-12.3 1.4-18.4 2.2-5.1.6-6.7-1.8-6-6.5.3-2.3.4-4.8 1.3-6.9.4-1 2.4-1.9 3.8-1.9 9.4-.2 18.9-.2 28.3-.2.5 0 1 .1 1.9.3zM225.2 417.8c7.5-7.8 16.3-7.8 25.6-3.9 3.2 1.4 7.2 2.3 7.1 7.6-11.4 3.1-23.1 10.8-32.7-3.7zM189.8 391.5c8.3-2.4 16.4-4.7 24.5-7.1.4 2.6 1.1 6.1 1.3 9.6.1 1-1.2 2.8-2.2 3.1-5.3 1.7-10.7 3.5-16.2 4.4-3.2.5-7.1.1-6.4-5.3.1-1.5-.7-3.1-1-4.7zM407.8 324.1c1.9-7.7 3.7-15.2 5.7-23.6 1.1-.1 3.2-.2 5.3-.3 1.9-.1 3.9-.2 6.8-.4v14.3c-4.5 1.7-10.1-2.3-12.8 4.7 3.3.3 5.9.5 8.6.7-3.8 5.2-8.9 6.6-13.6 4.6zM321.1 330.8c5.6-.5 11.3-1.5 17-1.3 2.9.1 5.9 2.3 8.6 4 2.6 1.6 4.9 3.7 7.3 5.6-6.4 8.4-9.4 8.9-16.8 2.4-1-.9-1-3.6-.5-5.3.4-1.4 2-2.4 2.3-4.6-3.1 1.8-6.4 5.2-9.3 4.9-3.2-.5-6.2-4.1-8.6-5.7zM315.2 408.1c9.3-.7 17.6-1.4 26.4-2-3.3 6.8.5 10.2 5.4 13.6-7.5.2-14.5 6.1-23 .7 5.7-1.4 10.4-2.5 15.1-3.6.1-.5.1-1 .2-1.5-7.5-3.5-17.9 1.6-24.1-7.2zM348.7 415.2c-1.3-3.3-2.7-5.3-2.7-7.3.2-12.5.7-25 1.2-37.5 0-1 .4-2.2 1-3.1.6-.9 1.5-1.6 2.3-2.3.7 1.1 2.1 2.2 2.1 3.3-.7 14.7-1.5 29.5-2.4 44.2 0 .3-.3.6-1.5 2.7zM377.5 221.5c.8 5.5-1.5 8.8-6.1 8.8-7.1 0-14.1-.3-21.2.1-5.6.3-7.3-2.1-6.2-8.3 11.3 4.2 22.4 2.5 33.5-.6zM397.6 350.7c-9.7 5.9-19.4 6.2-29.5 7.4 4.2-6.8 4.2-6.8 14-3.2-.9-1.9-1.4-3-1.9-4.2-.7-1.7-1.4-3.4-2.1-5 2.6-.9 5.6-3.1 7.8-2.4 3.7 1.3 6.8 4.2 11.7 7.4zM282.2 419.6c13.1-2.8 25-1.9 36.7 3.3-5 5.3-27.8 3.5-36.7-3.3z" fill="#fff"/>
  <path d="M480.4 365.4c0 4.1-3 6.1-5.8 6.4-5.5.5-11.1.4-16.7-.3-2.9-.3-3.9-6.1-1.3-8 1.8-1.4 4.2-2.1 6.4-2.7 2.8-.7 5.7-1.2 8.6-1.3 1.6-.1 3.3.8 4.9 1.3-.2.8-.3 1.6-.5 2.4-2.6 0-5.1-.2-7.7.1-1.2.1-2.7.9-3.5 1.8-.6.8-.8 2.9-.3 3.3 1 .8 2.7 1.4 3.9 1.1 3.9-1.1 7.6-2.6 12-4.1zM534.8 418.1c-3.4 1-6.7 2.4-10.1 2.9-4 .5-8.3.9-12.2.1-2-.4-3.4-3.7-5-5.7 1.9-.6 3.9-1.8 5.8-1.8 5.8.1 11.7.7 17.5 1.2 1.3.1 2.5.9 3.8 1.4 0 .7.1 1.3.2 1.9zM354.5 411.4c9.5 2.6 18.3 4.7 27.9.3.3 2.5 1.2 5.3.5 7.5-.3 1-4 1.4-6.1 1.3-5.5-.5-10.9-1.7-16.4-2-4.4-.3-5-2.9-5.9-7.1zM307.4 338.8c1.4-1.1 2.4-1.9 3.4-2.7 5.6-4.5 9.5-4.3 14 1.1.8.9.8 3.6.1 4.6-4.4 6.1-12.8 4.7-17.5-3zM405.6 340c-2.1 2.7-3.6 4.8-5.6 7.3-2.3-1.3-4.6-2.5-6.9-3.9-2.2-1.3-4.3-2.8-6.3-4.2 3.2-8.1 5.8-9 12.2-4.5 2.2 1.6 4.2 3.4 6.6 5.3zM322.8 347.9c9.1-6.9 9.1-6.9 19.9 1.3-2.4 8.5-10.6 8.9-19.9-1.3zM313.1 329.9c-7.4 9-10.2 9.2-18.9 1.3 11.2-9.9 11-10.7 18.9-1.3zM552.1 409.9c-.6-1.6-1.7-2.9-1.4-3.8 2.4-7.6 5-15.1 7.9-23.4 6.8 8.2 4.1 18.3-6.5 27.2zM370.5 349.7c-7 7.7-10.2 7.5-18.7-1 4.6-8.7 5.6-8.7 18.7 1zM361.1 339.2c1.7-2.2 2.9-3.9 4.2-5.6 5.4.1 11.2-.5 13.8 6.5-1.5 1.8-3.3 3.9-5.4 6.4-4-2.4-8-4.7-12.6-7.3zM358.1 434.9c-9.9-1.5-19.8-3.1-30.9-4.8 6.8-5.8 21.5-3.9 31.2 2.8-.1.7-.2 1.3-.3 2zM274.2 333.7c6.8-7.6 16.8-9.2 27.1-14-1.5 2.1-1.9 3-2.5 3.5-4.5 3.6-8.8 7.6-13.7 10.5-2.9 1.7-6.8 1.5-10.3 2.1-.2-.8-.4-1.4-.6-2.1zM362.8 423.9H384c.4.5 2 2.1 3.5 3.8-4.7 1.3-9.3 3.8-13.8 3.6-4-.2-7.8-3.4-11.7-5.3.3-.7.6-1.4.8-2.1zM150.8 414.2c11.5-2.4 22.9-4.7 34.7-7.1 1.5 2.7-.7 4.8-3.4 5.2-10.3 1.4-20.7 2.3-31.1 3.5-.1-.6-.2-1.1-.2-1.6zM216.2 406.6c-8.5.6-16.3 1.2-24.1 1.7-.6 0-1.2-.3-3.2-.9 9.5-2.2 17.5-4 26.1-6 .2.9.6 2.5 1.2 5.2zM439.8 412.3c-2 .9-4.2 2.7-6.1 2.4-2.7-.3-5.3-1.9-7.8-3.3-.7-.4-1-3-.9-3.1 2.1-.9 4.4-2.4 6.3-2 2.9.6 5.5 2.7 8.2 4.1.2.8.2 1.4.3 1.9zM377.4 326.4c4 .4 7.2.7 10.4 1 .7 4-1.7 8.6-4.9 8.4-6.3-.2-4.4-5.4-5.5-9.4zM435 388.1c-1.3-.6-2.9-.9-3.8-1.9-2.8-3.1-3-11.3-.1-14.1 1.3-1.2 4-1 6-1.4-.3 1.1-.2 2.7-.9 3.2-4.6 3.3-5 8.8-.6 12.6-.2.6-.4 1.1-.6 1.6zM381.9 251.6c2.1-.8 4.6-2.5 5.6-1.9 2.7 1.7 4.8 4.3 6.9 6.8.3.3-1.1 2.7-2.2 3.2-.9.4-2.8 0-3.7-.8-2.1-1.9-3.9-4.2-6.6-7.3zM401.8 350.7c7.6-9.3 7.6-9.3 13 0h-13zM299.8 342.8c-4.5-1.8-9-3.7-14-5.7 6.1-4.4 9.4-3.3 14.7 4-.3.6-.5 1.1-.7 1.7zM342.4 356.6c4.8-6 9.4-5 15.4 2.9-5.6-1-10.1-1.9-15.4-2.9zM411.4 140.6c3.7 1.9 6.1 4.2 3.7 8.2-.6 1.1-3.3 2.4-3.5 2.2-3-3-3.4-6.5-.2-10.4zM289.2 301.6c1.6-6 2.7-10.4 4.1-14.7.2-.6 1.7-.8 2.5-1.2.3.6.9 1.3.8 1.8-1.1 4.2-2.4 8.4-3.7 12.5-.1.5-1.2.6-3.7 1.6zM300.8 256.2c-2.5-1.4-6.4-2-3.9-6.4.6-1 2.3-1.3 3.4-2 .8 2.5 1.7 5 2.5 7.5-.6.3-1.3.6-2 .9zM300.2 261.3c-2.1 4.7-5.1 2.1-7.4.5-1-.7-.8-3.2-1.2-4.8l1.5-.3c2.3 1.5 4.7 3 7.1 4.6zM416 135c1.9.6 4.4.7 5.5 2 .7.8-.8 3.4-1.4 5.2l-5.4-4.5c.4-.9.9-1.8 1.3-2.7zM580 413.3c-8 .6-16.1 1.2-24.1 1.8 0-.5-.1-1.1-.1-1.6 8.1-.9 16.1-1.8 24.2-.2 0 .1 0 0 0 0zM203.5 192.6c.8 0 1.6 0 2.3.1-.8-.1-1.6-.1-2.3-.1z" fill="#fff"/>
  <path d="M205.7 192.7c.7-.1 1.5-.3 2.2-.4-.8.1-1.5.3-2.2.4z" fill="#fff"/>
  <path d="M169.2 162.5c-4.7-.1-8.6-1.3-11.2 0-3.7 1.8-4.7 9-1.6 12.2 2 2 6.1 2 9.2 2.8 1.2.3 2.6.2 3.9.3-.7 1.3-1 3-2 3.7-5.5 3.9-13.4 1.7-17.5-4.7-3-4.6-2.2-12 1.8-16.8 3-3.6 9.4-5 14.2-3 3.2 1.3 4.1 3.5 3.2 5.5zM344.5 166.7c1.1-.1 1.3 0 1.5-.1l5.4-2.7c.4.9 1.3 2.5 1.1 2.8-1.7 1.7-3.4 3.8-5.6 4.4-3.9 1.1-9.2-2.8-9.7-6.6-.5-3.3 3.9-8.1 7.9-8.3.8 0 2.3.9 2.4 1.6.1 1-.5 2.9-1.2 3.1-4.1 1.1-2.3 3.5-1.8 5.8zM360.8 150.5c2.4 1.7 3.9 2.5 5 3.6 1.4 1.4-3 13-3.7 12.3-2.4-2.2-5-5.1-5.5-8.1-.3-2 2.5-4.7 4.2-7.8zM329.6 169.6c-4.6-3.3-5.6-7-4.3-11 .6-2 2.7-4.4 4.5-4.7 1.6-.3 3.6 2.1 4.9 2.9-1.9 4.7-3.4 8.5-5.1 12.8zM346.9 184.4c2.6 2.1 4.6 3.7 6.7 5.4-.8.8-2 2.3-2.5 2.2-2.9-1-5.7-2.4-8.5-3.7 1.2-1.1 2.4-2.1 4.3-3.9zM355.3 273.7c-1.5.5-2.9 1-3.8 1.3.7 1.2 1.4 2.5 2.1 3.9-1.4.1-2.8.4-4.2.2-9.9-1.1-19.8-2.3-29.7-3.5-.5-.1-1.5.1-1.6-.2-1.9-4.3-6.6-5-10.4-6.9.3-.8.6-1.6.8-2.4 15.7 1.7 31.3 3.4 47 5.1-.1.9-.2 1.7-.2 2.5zM306.1 285.6c18.1 5.1 36.1 10.1 54.5 15.3-6.1 5.1-48.9-7.5-54.5-15.3zM341 252.3c-7.8.7-15.5 1.5-23.3 1.9-.9 0-2.1-1.7-2.6-2.8-.2-.4 1.1-2.2 1.7-2.2 7.6.1 15.2.5 22.8.8.6 0 1.1.6 1.7.8-.1.6-.2 1-.3 1.5zM244.8 281.6c3.4-2.4 6.7-5 10.2-7.2.5-.3 2.2 1.4 4 2.7-4.7 2.9-8.5 5.2-12.2 7.5-.6-1-1.3-2-2-3z"/>
  <text transform="translate(129.583 52.435)" font-family="Peanuts" font-size="40" letter-spacing="2">PSYCHOLOGY!</text>
  <text transform="translate(13.646 453.36)" fill="#010101" font-family="BaskervilleT-Bold" font-size="26" letter-spacing="1">12-15</text>
  <text transform="translate(471.05 455.339)" fill="#010101" font-family="Peanuts" font-size="26" letter-spacing="4">SCHULZ</text>
</svg>
