<svg xmlns="http://www.w3.org/2000/svg" viewBox="0 0 595.3 460.3" xml:space="preserve">
  <path fill="#fff" d="M0 0h595.3v460.3H0z"/>
  <path d="M4.4 0h590.9v460.3H3.3c-.8-1.6-2.2-3.3-2.3-4.9-.2-14.1-.2-28.1-.2-42.2.1-17.1.2-34.2.2-51.3 0-66.2 0-132.4-.1-198.6C.9 111.5.8 59.6 1 7.8 1.1 5.2 3.3 2.6 4.4 0zm52.4 170c-2.9 7.1-5.7 14.3-8.8 21.4-.8 1.7-3.3 3-3.5 4.7-1.3 10.7-.3 21.4 3.5 31.5 3.7 10 10.8 17.7 19.7 23.7 2.7 1.8 5.2 3.9 7.8 5.8.3-.4.7-.7 1-1.1-3.8-4.8-9.7-8.3-9.2-15.7 3.5 4.2 7.1 8.3 11 12.9.8-4.1 2.7-4.4 5-1.5 1.6 2 2.9 4.2 4.3 6.3.8-2.8.2-5 0-7.3-.2-2 0-4 0-6h1.7c.7 2.4 1.4 4.7 2.2 7.1 1.3-4.2-1.9-10.3 7.4-11.1-1.7 4.6-2.7 9-4.9 12.6-2 3.4-2.7 6.2-.7 9.6 1.9 3.2 1.5 5.7-1.9 6.6 1 5 2.3 9.5 2.7 14.1.3 3 1 4.5 4 5.3 9.1 2.6 18.1 5.5 27.3 8.3 1-2.3 1.8-3.9 2.3-5.6 1.2-3.9 3.9-5.7 7.7-6.9 5.8-1.8 11.5-4 17.1-6.2 1.7-.7 4.3-3 4.6-2.7 2.8 2.7 4.3-.2 6.1-1.1 2.2-1.2 4.2-2.8 6.4-4.1 9.6-5.4 11.6-13.5 5.9-23-1.1-1.9-1.9-4-3.1-6.6 2.9-.6 4.9-1 7-1.3.2-.5.3-1 .5-1.5-2.9-1.1-5.9-2.3-8.9-3.2-1.2-.4-2.6-.2-3.9-.2.3-1.9.1-4 .9-5.6.8-1.5 3-2.1 4-3.6 1.9-2.9 5.1-6.4 4.7-9.1-.6-3.9-5.5-2.4-8.8-3.1-3.2-.7-6.2-2.5-9.3-3.8v-.2l-5.7-2.4c1-1.5 1.8-3.5 3.2-4.4 2.9-1.8 6.1-2.9 9.2-4.3.4-.2 1 0 1.8 0-.4 1.3-.7 2.4-1 3.6 3.1-.2 6.1-.3 9.1-.5-.5 6.8-.1 7.1 6.3 4.7-2.3-5.1-4.5-10.1-6.8-15.2.6-.4 1.1-.8 1.7-1.2 1.7 1.9 3.5 3.7 5.5 5.9 4.9-.9 5.9 0 5.5 6-.1 2.3-.9 4.6-1.3 6.9-.4 2.2-.8 4.4-1.5 8.1 11.1-8.5 11.8-21.3 3.9-30-4.3-4.7-10.2-5.1-15-7.8-8.7-5-16.4-11.9-24.5-18.1-6.4-4.9-12.3-10.4-21-11.4-4.3-.5-8.5-2.1-12.7-3.2.1-.5.1-.9.2-1.4H129c-17.9-9.4-34.4-6.1-49.8 6.5-.2-.5-.4-1.1-.5-1.6 3.6-2.8 7.1-5.7 10.9-8.7-6.8.5-21.8 12.1-22.9 18.4-.8 4.4-2.1 6.7-6.4 5.9.2 2.6.4 4.8.7 8.3-2.1-1.7-3.2-2.5-4.3-3.4.1-3.2-1-6.9.4-9.4 2.9-5.4 7-10.2 10.7-15.3.2-.3.9-.2 1.5-.3.1 1.4.3 2.6.5 5.2 2.3-2.9 3.5-5.2 5.3-6.7 7.8-6.6 16.8-11.2 26.9-11.2 7.1 0 14.2 2.8 21.2 4.6 11.8 3.1 19.3 12.4 27.7 20 9.1 8.2 19.6 14.2 30.8 18.8 11.9 4.9 19.3 16.4 17.5 29.1-.8 5.4-8.4 15.2-12.5 14.5-6.5-1-8 3.3-10.2 7.4-1.5 2.8-1.7 4.6 2.2 5.8 6.6 2 8 6.2 3.5 11.2-2.1 2.4-1.3 3.5-.7 5.9 1.1 4.5 2.7 10.3.7 13.8-2.8 5.1-8.7 8.4-13 12.7-1.4 1.3-2.9 3.2-3.1 4.9-.5 6.6-2.3 12.2-7.8 16.6-2.8 2.3-4.7 5.7-7 8.5 11.4 14.2 11.1 13.5 12.8 20.8 2.8 11.9-6.2 22.7-18.8 21-.1 1.6-.9 4.2-.3 4.5 5.1 3.1 10.4 5.7 14.9 8.2 1-3.4 1.8-6.2 2.6-9.1 1.1-3.8 2.1-7.7 3.4-11.4 1.1-3.2 2.2-6.5 4-9.3 2.4-3.7 6.6-3.2 8.5.8 1.6 3.5 3.7 5.9 7 8.2 4.9 3.4 8.1 8.5 8.2 15.1.1 4.5.9 8.9 1.3 13h20.3c1.2-7.2 6.6-9 13.3-8.4v-12.1c1.5-.3 3.4-.9 5.3-.9 4 .1 8 .8 12 .7 9.4-.1 18.8-.9 28.2-.5 12.3.6 22.4-11.1 18.9-22.8-.4-1.2-2.6-1.8-4-2.6-1.7 5.9-7.9 4.7-11.6 7.3-5.6 4.1-11.1-.5-16.6-.1-.2 0-.5-.8-1.2-2.1 3-1.6 5.9-3 8.8-4.5-5.3 1.1-10.7-3.5-16 .9-1.7 1.4-4.2 2-6.5 2.6-1 .3-2.5.1-3.1-.5-1.1-1.1-2.7-3.2-2.3-4 .9-1.8 2.9-3 4.4-4.5-6.4-7.1-7.3-7.2-14.9-1.6-1.8 1.4-3.8 2.7-6 3.5-1.3.5-3.1-.1-4.6-.2 1.2-1.3 2.3-2.9 3.7-3.9 1.9-1.3 4-2.1 6.1-3.1-4-1.8-7.5-2.3-11-2.9-1.6-.3-3.2-.7-4.7-1.3-1.1-.5-2.1-1.3-3.1-2 .7-.9 1.3-2.6 2.1-2.7 3.4-.4 6.8-.3 10.2-.6 2.4-.2 4.8-.9 7.2-1.3-.1-.6-.3-1.2-.4-1.7-1.3.3-2.6.7-4 .8-3.2.1-6.5 0-9.8-.2-2.4-.1-4.7-1-7-.7-3.9.5-6.6-1.6-6.9-7.8 5.2 1.6 9.8 3.2 14.5 4.6 1.3.4 2.8.7 4 .4 6.5-1.4 12.9-3 19.2-4.4-3.6-7.8-3.6-7.8 6-8 .4 0 .9.1 1.1-.1 1.1-1 2.2-2 3.2-3-1.2-.6-2.4-1.8-3.5-1.7-3 .3-5.9 1.2-8.4 1.7-3.6-1.3-7.2-2.5-11.9-4.2.9 2.1 1.3 2.8 1.6 3.6 1.6 4.9-.3 9.9-4.3 11.3-4.4 1.6-9.7-.5-11.8-4.6-.9-1.9 3.7-15.9 5.6-15.8 5.1.2 9.5-3.9 15.2-1.3 2.8 1.3 7-.3 10.5-.6-.1-.4-.2-.7-.3-1.1-5-2.1-10-4.2-15-6.4 0-.7.1-1.4.1-2.2 2.9-.3 5.9-.6 9-.9-.6-2.5-1.2-4.9-1.8-7.3.5-.3 1-.6 1.5-1 1.4 1.2 3.2 2.3 4.2 3.8 3.1 4.7 7 5.8 11.8 3.3-2.7-2.5-5.8-5.1-8.4-8.1-1-1.2-1.1-3.2-1.6-4.9 2.3-.2 4.8-1.1 6.9-.5 4.4 1.2 8.5 3.2 10.9 4.2 2.1-2.5 3-4.7 4.4-5.1 2.3-.6 4.9.2 7.4.3-1.6-1.9-3.4-3.4-5.4-3.7-7.6-1.4-15.4-2-23-3.6-4-.8-7.6-3-12.1-4.8 3.7-3.7 11.5-5.8 15.4-3.6 10.2 5.8 20.5-1.3 30.6 1.3.2 0 .6-.8 1-1.3-3.8-2.1-7.6-4.2-11.3-6.2l.6-1.8c4.1-1 8.2-2.1 12.4.1 2.3 1.2 4.8 1.7 4.9-1.4.2-3-.6-6.4-2.1-8.9-4.1-6.8-16.3-10.7-23.9-5.9 3.1 6.8 2.5 10-2.3 12.7-4 2.3-6.4-.5-8.1-3.1-3.2-4.9.8-7.1 3.8-9.7.5-2.2 1.3-5 2.9-5.6 5-1.7 10.3-2.6 16.1-3.9-1.1-1.7-1.7-2.8-2.5-4 4.4-2.7 8.5-5 13.6-2.6.7.3 2 .2 2.6-.2 5.1-3.5 10.1-7.2 15.9-11.3-6.2-3.9-4.1-7.5-2.9-12.1 2.2-7.9 2.8-16.3 4.1-25-5.6.8-9-1.7-7.7-5.7 1.5-4.8-.9-6.5-4.1-8.7 1-1.7 1.6-4.3 2.5-4.4 5.3-.6 5.7-5.3 7.9-8.5 2.3-3.2 5.1-1.9 7.2.1 1.2 1.1 1.5 3.2 1.5 3.3 4.1 2.5 7.2 4.4 10.2 6.3-.7.2-1.3.4-2 .5-1.6 5.8-3.2 11.6-4.8 17.7-5.5-3.5-7.5-3-7.6 1.3-.2 7.3-.2 14.6 0 21.9 0 1.7.9 3.4 1.3 4.7 3-.8 5.6-1.4 8.2-2.1.3.5.7.9 1 1.4-1.3 2.5-2.5 5-3.9 7.4-3.1 5.5-1.7 8.9 4.5 11.5 2.1.9 3.9 2.6 5.8 4 .7.6 1.8 1.9 1.6 2.2-.5 1-1.5 1.9-2.6 2.3-1 .4-2.3.3-3.2.4.3 2.2.5 4 .7 5.9 3.8-1.3 7.4-3.1 11.2-3.8 3.2-.6 6.8-.5 9.9.3 1.3.3 1.9 3.4 2.9 5.2-1.4.3-2.9.7-4.3 1-2.1.4-4.3.8-6.9 1.3 2.6 2.2 4.7 3.9 6.8 5.6-1.2 1.5-2.1 2.8-3 4.1-1-.8-1.9-1.5-3.2-2.6-.2 2.7-.3 4.6-.5 7.3-4-.5-7.6-.9-11.8-1.4-.1.7-.2 2.2-.3 3.6 1.3-.1 2.8.2 3.9-.3 5.2-2.5 9.5 0 13.8 2.3 1 .6 2.5 2.7 2.2 3.1-.9 1.3-2.3 2.7-3.7 3.1-1.8.6-3.9.2-5.9.4-.8.1-1.5.7-2.2 1.1.5.8.8 2 1.5 2.4 1.7.9 3.5 1.7 5.3 2 3.6.5 7.4 0 10.8.9 1.9.5 3.6 2.7 4.9 4.5.3.4-1.4 3.2-2.2 3.2-1.8.1-3.6-.9-5.3-1.6-1.5-.5-2.9-1.1-4.3-1.7.4.5.7 1 1.1 1.5-1.9 2.7-3.9 5.4-6 8.3.3.2 1 .9 1.7 1 5.7.3 11.6 0 17.2.9 3.9.6 7.7 2.7 11.2 4.8.7.4-.4 3.8-.6 5.8 0 .5.3 1 .5 1.5 2.6 6.3 1.4 10.5-4.3 15.1-2.8 2.3-9.9 1.7-13.8-1-2-1.3-4.2-2.3-7.6-4.1 4.6 6.5 8.8 11.2 15.5 9.4 4.9-1.4 8.5.2 11.2 3.2 1.3 1.5.2 5.2.2 8.2 1.4-.3 3.2-1.1 4.8-.9 3.1.4 6.2 1.4 9.3 2.2-1.2.9-2.3 1.9-3.5 2.8 1 1.2 2 2.5 3.1 3.7-.1.5-.3 1.1-.4 1.6-9.8-1.3-19.5-2.6-29.5-4 .9 4.1 4.2 6.2 8 5.7 4.9-.7 7.2 1.5 10.8 5.7-3.6-.6-6.1-1.9-7.7-1.1-5.3 2.6-11.1 2.9-16.5 4.8-4.6 1.7-8.3 5.9-12.9 7.7-2.6 1-6.6 2.9-9.3-.9-1.1-1.5-8.3-.2-8.4 1.5-.3 5.3-4.1 5.5-7.9 5.9-2.4 8.4 5.1 16.6 14.8 16.4 24-.4 48-.8 71.9-1.1 4.3 0 8.7.9 13.1.9 1.2 0 3.2-1.9 3.4-3.2.2-1.3-.9-3.9-2-4.2-5.2-1.6-6-5.2-5-9.7.6-2.8 1.4-5.5 2.3-8.3 3.2-9.9 6.6-19.8 9.8-29.7.4-1.3.4-4.1-.2-4.3-8.7-3.5-15.4-9.5-21.4-16.5-4.7-5.5-9.9-10.5-14.7-15.9-3.7-4.2-7.1-8.7-10.6-13-5.4 3.1-10.6.4-10.9-5.3-.1-1.2-.9-2.3-1.5-3.4-1.2-2.2-2.5-4.3-3.7-6.4.4-.2.7-.5 1.1-.7-1.7-1-3.3-1.9-4.7-2.7-.6-7.5 5.4-9.5 10.8-12.7-5.8-2.3-6.8-4.6-3.7-9.4 3-4.5 5.3-4.5 9.2-1.7 2.3 1.7 5 2.7 8.1 4.4.4-1.7.4-3.7 1.3-4.9 1.5-1.9 3.7-4.7 5.6-4.7 6.2 0 11 7.3 9.7 13.5-.9 4.2-.8 8.1 3.1 11.4 10.1 8.6 21.4 15.2 33.6 20.1 3.6 1.4 7.8 2.4 11.6 2.1 2.3-.2 4.5-3.2 6.7-4.9-1.4-1.6-2.6-3.6-4.4-4.7-7.2-4.6-14.7-8.6-21.8-13.4-11.2-7.6-17-18.6-19.2-31.8-.4-2.6-1.4-5.7-3.3-7.2-5.4-4.5-3.6-9.3-.2-12.8 4.5-4.6 5.2-10.2 6.9-15.6 3.6-11.2 8.2-21.6 16.5-30.6 10.4-11.2 23.9-16.6 37.4-20.7 11.4-3.4 23.9-4.8 36.4-2 14.8 3.3 27.5 10.1 36.7 21.9 9.4 12 16.1 25.4 14.8 41.5-.1 1.1.9 2.7 1.8 3.3 10.4 7.3 8.8 15.8 1.2 23.7-3.1 3.2-8 3.5-10 9-4.6 13.1-13.4 23.5-25.8 30.3-2.6 1.4-4.8 3.3-7.7 5.4 4.2 2.7 6.3 8.2 12 6.3 10.2-3.3 20.1-6.7 27.5-15.6 6.3-7.7 6.9-8.6 1.7-17.5-1.5-2.6-2.6-6.3-1.9-9 1.5-6.1 8.2-5.9 13.8.4 1.4-2.9 2.6-5.7 4.1-8.3 3.1-5.2 7.3-5.7 11.3-1 1.8 2.2 2.3 5.5 3.3 8.2 2.6-1.7 5.9-2.1 8.5 1.8 2.4 3.6 2.9 7-1.7 9.5 3.2 2.4 4.9 2 5.1-2.2.3-9.9 1.1-19.8 1-29.7-.1-21.9-.7-43.9-1-65.8-.2-12.6-.5-25.2-.6-37.8 0-2.8.6-5.7.5-8.5-.2-7-.8-14.1-1-21.1-.2-9.6 0-19.2-.1-28.9 0-3.2-1.5-4.8-5.1-4.7-14.7.4-29.5.8-44.3.8-7.1 0-14.2-.7-21.3-.7-26.8 0-53.6.1-80.4.2-.9 0-1.8.6-1.9.7 5.5 6.2 10.9 11 14.8 16.8 6.1 9.1 7.9 19.7 5 30.1-3.2 12-12.7 19.1-23.3 24.1-16.7 7.8-33.9 14.1-52.2 16.8-3.7.5-7.1 2.4-10.6 3.6 5.5 10.3 12.5 18.8 16.6 28.8-5.2-1.9-9.9-3.7-14.1-6.4-7.4-4.8-14.7-9.9-21.7-15.3-4.9-3.8-9.6-5.3-15.8-3.5-3.9 1.1-8.3 0-12.5-.1-1.3 0-2.5-.5-3.7-.5-13.2.7-26.4 1.4-39.6 2.2-7.2.5-14.3 1.5-21.5 1.7-9.7.3-19.4.1-29.1-.2-8.6-.3-17.3-1.2-25.9-1.5-7.1-.3-14.2.3-21.3-.2-8.7-.6-17.3-1.7-26-2.8-8.2-1-16.3-2.7-24.5-3.5-10.8-1.2-21.8-1.5-32.5-2.8-11.1-1.4-22.2-3.1-33.1-5.6-11-2.5-21.9-5.7-32.7-9.2-6.5-2.1-12.7-5.4-19.7-8.4v380.7h44.9c1.4 0 2.8.4 4.1.6 2.6 0 5.5-1.2 8.3-1.2 4.8-.1 9.6.9 14.4.8 17.5-.2 35.1-1 52.6-1 28.2.1 56.4.8 84.6 1 27.9.2 55.8 0 83.6.1 2.7 0 5.3.7 8 .7 8.5-.1 17-.7 25.5-.7 12 0 24 .3 36 .4 4.9 0 9.8-.5 14.6-.4 9.9.2 19.8.9 29.7 1 16.7.2 33.5.1 50.2 0 3.9 0 7.8.1 11.7-.1 7-.3 14.1-1.2 21.1-1.2 14.9-.2 29.8.1 44.7 0 14.1-.1 28.1-.5 42.2-.3 2.9 0 3.1-.2 3.1-2.9 0-10.3.4-20.6.4-30.9.1-16.3 0-32.5 0-48.8v-8.9c-.4-21.3-.8-42.6-1.1-63.9-.2-13 0-26-.1-39.1 0-3.8-1-7.6-.9-11.4 0-5.6.5-11.3.8-17.3-4.1 1.5-6.6 7.8-11.6 2.6-1 1.2-2.1 2-2.5 3.2-5 12.1-12.3 22.3-23.9 29.1-1 .6-1.9 3.2-1.4 4.2 2 4-.1 6.6-2.8 8.4-4.6 3.1-9.6 5.6-14.5 8.2-3.3 1.7-6.2 2.8-4.6 8 2 6.5 2.4 13.5 3.4 20.3.6 4.2 1.7 8.5 1.4 12.7-.5 6.4 6.1 13.6-1.8 19.3-.3.2-.2 1-.2 1.6 0 8-.1 15.9.2 23.9.4 8.7.6 8.9-7.4 11.3-3.5 1.1-5 3.4-4.6 6.2 1.5 9.8 3.3 19.5 5.3 29.2.9 4.5 6 6.4 9.9 4.1-1.4-.3-2.6-.5-3.8-.8 7.5-1.3 14.8-2.2 22.1-2 9.5.3 19 1.3 28.5 2.1 2.7.3 8.7-1.9 4.6 5-.1.2 1 1.3 2.5 3h-58.2c0-.5-.1-1-.1-1.5 5-.3 9.9-.5 14.9-.8-4.9-.9-10.1-1.8-14.7-.7-5.5 1.3-10.5 4.7-15.9 6.5-12.9 4.4-25.4 9.8-39.8 7-10.8-2.1-21.1-4.9-30.4-10.9-1.3-.8-2.8-1.9-4.2-1.9-8.6.5-17.2 1.9-25.8 1.8-11.9-.1-22.7-3.5-30.8-13-.5-.6-1.5-1.2-2.3-1.2-7.7-.1-15.3-.1-23-.1 0 .3-.1.7-.1 1 5 .6 9.9 1.1 14.9 1.7-.1.5-.1.9-.2 1.4-.8.1-1.7.4-2.5.3-5-.3-10-1.1-14.9-.9-10.5.4-21.1 2.6-31.4 1.5-9.9-1.1-19.5.2-29.2.4-20.7.4-41.4 1.6-62.1 2.4-3.7.1-7.3 0-11 0v-1.9c6.1-.5 12.1-1.1 18.2-1.6-.1-.5-.1-1.1-.2-1.6-6.8.5-13.6 1-20.3 1.4.4 4 1.3 6.6.8 8.9-.4 1.8-2.8 4.4-4.2 4.3-1.9-.2-5.2-.1-4.9-4.6.4-4.9-.9-9.9-1.5-15.4h-18.3c5.9-4.4 12.1-2.8 18.2-2 .2-1.5.4-3 .4-4.5.1-5.7-1.6-7.6-6.7-7.4-3.7.1-7.3.4-11 .6-1.2 2.9-2.5 6-3.9 9.1-3 6.5-5.8 13-9.1 19.4-1.3 2.6-3.8 4.9-6.4 1.4-3.5-4.7-7.7-5.4-13.5-5.2-20 .9-40.1.7-60.2 1.5-12 .5-24 2-36 3-1 .1-2-.7-3-1 0-.6.1-1.2.1-1.8 13.1-.9 26.2-1.9 39.4-2.8-.3-.9-.3-1.3-.4-1.3-2.3.1-4.7.3-7 .4-14.3.8-28.7.6-42.9 2.6-8.7 1.2-17.3 1.7-26 1.2-1.1-.1-2.2-.9-3.4-1.3 1-.8 2-2.2 3.1-2.3 10-.9 20-1.5 30-2.3 4.8-.4 9.5-1.1 14.3-1.7-.1-.7-.2-1.4-.3-2.2-16.8 1.6-33.5 3.2-50.7 4.8.3-1.3.4-2.6.6-2.6 14.5-1.7 28.9-3.3 43.6-5-4.7-7.3-5.4-15.6-3.1-24.2.4-1.5 1.3-4.2.8-4.6-4.1-2.6-1.2-6-.5-8.2 7-21.4 13.9-42.8 22.1-63.7 3.5-9.1 3.3-20 11.5-27.2.7-.6.5-2.6.2-3.7-.8-2.4-1.4-5.3-3.1-6.8-8-7.3-15.9-14.8-24.6-21.2-6.9-5-11.8-11.2-15.1-18.5-2.6-5.7-3.8-12.3-5.1-18.5-2.5-11.6-2.7-23.2 4.9-33.3 4.2-4.5 8.3-8.4 12.1-12.6zm300.1-74.2c1.6-.8 2.4-1.4 3.2-1.6 12.4-3 24.8-6.1 37.3-8.8 12.7-2.7 24.1-8.3 35.1-14.9C441.8 65 445.8 56.2 446 46c.3-15-7.5-26.1-18.6-35.3-1-.8-2.2-1.6-3.3-1.7-9-.5-18-1.1-27-1.1-9.7 0-19.3.7-29 .7-8.9 0-17.9-.8-26.8-.9-21.6-.1-43.2 0-64.8 0-24.8 0-49.5.1-74.3 0-16.5-.1-32.9-.7-49.2-.7-12.8 0-25.6.6-38.4.7-29.4.1-58.7.3-88-.1-7.4-.1-12.4 3.4-17.1 7.9-1 1-1.7 2.8-1.7 4.3-.1 14.2-.2 28.4.1 42.6 0 2.1 1.7 5.3 3.4 6.1 7.9 3.7 15.9 7.9 24.4 9.9 15.8 3.8 31.9 6.4 47.9 9.2C98 90 112.4 92.1 126.9 94c7 .9 14.2.7 21.3 1.3 16.7 1.4 33.3 2.9 50 4.3 2.9.3 5.7 1 8.6 1 8.1-.1 16.2-.8 24.2-.9 11.2-.2 22.5 0 33.7-.1 19.4-.2 38.9-.4 58.3-.7 5.3-.1 10.6-.8 18.2-1.5l29.5 23.6.3-.6c-4.5-8.1-9.2-16.1-14.1-24.6zM538 167c-.8-6.7-1.1-13.3-2.5-19.6-3.9-17.2-12.5-31.5-28.9-39.5-6.7-3.3-14.1-5.8-21.4-6.8-10.4-1.4-21.3-1.9-31.4 2.3-9.5 3.9-19.3 7-27.5 14.3-7.3 6.5-13.2 13.6-16.7 22.2-5.2 12.8-10 26.1-6.7 40.4 1.7 7.3 3.3 14.9 6.8 21.3 4.8 9.1 13.6 14.9 22.6 19.5 10.4 5.4 21.6 8.8 33.4 8.4 8.8-.3 17.7-1.2 26.4-2.7 5.8-1 12.4-2.1 16.8-5.5 10.5-8.1 20.8-16.8 25-30.5.8-2.5 4.1-4.8 6.7-6.1 4.2-1.9 5.1-5 4-14.1-.5-4.4-3.2-4.1-6.6-3.6zm-88.2 80.5c.2.6.4 1.1.7 1.7-3.9 2.5-7.7 5-11.7 7.3-.4.2-2-.5-2.2-1.1-1-2.4-1.5-4.9-2.4-7.3-.5-1.3-1.2-3.1-2.3-3.5-3.5-1.4-7.3-1.9-10.7-3.4-3.6-1.6-5-.5-6.4 3-2.6 6.7-5.6 13.2-8.6 19.7-3.5 7.7-3.2 9.1 4.2 13 .9.5 2.1.5 3.1.8 5 1.6 7.8 5.3 6.6 8.4-.5 1.4-.7 3.3-.2 4.7 1 3 2.6 5.9 3.9 8.8 1.1 2.3 1.9 3.7 4.6 1.1 3.9-3.8 8.1-7.2 12.5-10.4 2.9-2.1 5.9-2.7 7.9 1.8 1.9 4.4 4.6 8.5 6.9 12.8.7 1.3 1.2 2.7 2.6 5.9 7.1-7.4 13.3-13.9 19.8-20.6 4.4 6.2 9 12.7 13.4 19.2 2 3 3.2 3.9 5.6.2 3.8-5.8 8.4-11.2 13.2-17.4 4.4 6.2 8.2 11.5 12 16.8.7-2.8.1-5-.2-7.2-.5-4.6.1-9.4-1.4-13.6-1.4-4-.1-4.9 3-6 4.7-1.7 9.5-3.4 14-5.6 2.8-1.3 5.7-3.4 4.3-7.2-3.6-9.7-7.4-19.4-11.2-29.1-.4-1-1.8-1.7-2.7-2.6v1.5c-5.4 1-10.8 2.1-16.2 3.1-1.2.2-2.6.3-3.6 1-4.9 3.7-10.2 7-14.3 11.4-5.1 5.6-12 4.5-16.1.1-5.1-5.4-6.5-5.2-11.5.5-.5.6-1.4.8-2.8 1.5.3-4.7 1.1-8.3 5.2-9.9 3.5-1.5 7.2-2.4 11.8-3.9-10.5-1.2-19.7-2.2-29.4-3.3 4.3 3.6 8.3 7 12.4 10.3-.1.5-.3.9-.4 1.4-2.1-.2-4.4.2-6.1-.6-3-1.5-5.6-3.9-8.6-5.6-2-1.2-5.6-3.1-6.4-2.4-1.8 1.7-2.4 4.8-3.7 7.7 4.6-1.1 8-2.1 11.4-3zM328.4 366.6c-7 .3-14.8.7-22.7 1-10.2.4-20.5.8-30.7.9-7.7.1-15.3-.2-23-.1-5.7.1-11.4.6-17.4.9.7 6.3-1.9 8.2-7.3 8-3.7-.1-7.9-.3-8.9 5.2-.2 1.1-3.7 2.1-5.7 2.2-3.2.1-6.5-.8-9.8-.9-4.9-.1-11.2-2-11.1 6.6 0 .6-.7 1.2-1.6 2.9h29.2c11.1.1 22.2.4 33.3.3 21.5-.2 43-.7 64.5-.9 6.6-.1 12.7-1.1 16.9-6.5-2.1-.1-4.3-.2-6.9-.3 1.2-2.6 1.9-4.1 2.8-6-1.3.1-2.2.2-4.1.4 1-5 1.8-9.8 2.5-13.7zm96.4-41.6c-8.4-2.3-8.6-11.1-12.2-17.6-2.3 6.2-3.6 12.4-5.7 18.3-1.7 4.8.5 6.4 4.3 7.4 7.7 1.9 15.6 3.2 23.1 5.7 20.5 6.7 42 6 63.1 7.3 8.6.5 17.4-2.8 26.1-4.8 3.5-.8 4.6-5.7 2.4-8.4-4.8-6-9.5-12.1-14.5-17.9-.7-.8-3.2-1.2-3.6-.8-2.8 3.3-5.2 6.9-7.7 10.4-1.7 2.5-3.2 5.1-5 8.1-10-5.8-12.6-16.7-19.8-24.6-4.2 5.4-8.2 10.2-11.7 15.3-5.4 7.7-4.4 6.5-11.2.3-.8-.7-1.5-1.7-2-2.6-2.9-4.9-5.7-9.8-9-15.5-5.8 6.8-11.2 13-16.6 19.4zm-107.3 85.3c0-.5 0-1-.1-1.5-30.7 1.3-61.5 2.6-92.2 3.8 0-.7 0-1.4-.1-2.2 5.4-.4 10.8-.8 16.3-1.1 10.3-.5 20.6-.8 30.8-1.2 6.8-.3 13.6-1 20.5-1.2 8.6-.2 17.2.3 25.8 0 7.6-.3 15.3-1.6 22.9-1.8 7.1-.2 14.3.6 21.4 1.1.5 0 .9 1.5 1.7 3h-12.1c0 .6-.1 1.2-.1 1.8 9.5.4 19.1.9 25.8 1.2 7.6-3.6 13.1-6.2 19-9.1-.4-4.1-.9-9.2-1.4-14.3-.4 0-.8-.1-1.2-.1l-1.5 15c-.8 0-1.7-.1-2.5-.1-.5-6.2-1-12.3-1.5-19.2-3.7.5-7.1 1.3-10.5 1.4-9.9.2-19.7-.2-29.6.3-4.3.2-10 .8-12.4 3.5-5.5 6.5-11.9 8.6-19.8 8.5-8.3-.1-16.6 0-24.9 0h-27.7c-1.5 0-2.9.1-4.4.1-12.4 0-24.8.1-37.2 0-3.5 0-6.2.4-5.9 4.9.2 4 0 8.1 0 12.6 14.4-1.1 28.5-2.3 42.5-3.1 17.9-1 35.9-1.5 53.8-2.3 1.7.2 3.2.1 4.6 0zm51.6-176.6c8 13.4 18.3 24.6 30.9 34.6 4-9.1 7.9-17.6 11.7-26.2 1.4-3.2.4-4.9-2.7-6.8-7.5-4.6-14.9-9.6-21.8-15.1-3.9-3.1-7.4-7-5.5-13.4.8-2.6 2.5-6.9-3.3-9.4 0 2.2.2 3.9-.1 5.5-.2 1.5-.5 3.4-1.4 4.4-.6.6-2.8.3-3.9-.3-3.6-1.8-7-4.1-10.7-6-.9-.4-2.3-.2-3.3.1-.6.2-1.5 1.6-1.3 1.9.6 1 1.4 2.1 2.4 2.5 1.1.4 2.9-.3 3.8.3 1.8 1.3 3.2 3.2 4.7 4.9-1 .9-1.9 2.1-3.1 2.5-3.1 1-6.4 1.4-9.5 2.5-1.3.5-2.2 2.1-3.2 3.3.4.4.8.7 1.1 1.1 2.5-.8 4.9-1.9 7.5-2.3 1.2-.2 2.6.8 3.8 1.3-.6 1.4-1 3-1.9 4.1-.7.8-2.7.6-3.4 1.4-1 1.2-1.4 3-2.1 4.5 3.7-.8 5.8-5.1 8.6.1-2.1 2.2-4 4.2-6 6.3.4.5.8 1.1 1.2 1.6 2.3-1 4.7-2.1 7.5-3.4zm164.8 2.5c3.3 7.8 6.9 16.4 10.5 25.1 10.3-5.3 17.2-12.9 21.8-22.7 2.7-5.8 3.3-13.8 14.1-9.6-1.1-2.9-2.3-4.8-3.6-6.5-.9-1.2-1.8-2.3-2.8-3.4 1.8-1 3.5-2.6 5.4-3 1.8-.4 3.8.5 6.2.9-1.2-5-4-5.9-7.6-5.7-1.9.1-3.8.3-5.7-.1-1.2-.2-3-1.3-3.1-2.1-.2-1.1.8-2.9 1.8-3.5 1.9-1.2 4.3-1.7 7-2.7-.6-1.5-1.1-2.9-1.6-4.3-4.6 1.8-9.1 3.5-14 5.4-2.2-2.1-1.7-4.5 1.2-6.8 1.2-1 2.5-2.4 3-3.8s0-3.2-.1-4.8c-1.8.5-3.8.6-5.2 1.6-.9.6-.9 2.6-1.3 4-1.3 3.9-2.7 7.7-4.4 12.7-3.6-4.7-6.2-8-9.1-11.8-3.9 5.3-.4 8.6 1.9 11.7 2.8 3.8 4.5 7.2 1 11.4-4.9 5.7-9.9 11.6-15.4 18zm-456 107.7c2.3 10.9 1.7 22 11.8 29 2.4 1.7 2.6 3.1.7 5.3-.9 1-1.1 2.5-2.3 5.2 3.5-2 5.4-3.1 8.2-4.7-.4 3.6-.6 6-.8 8.4.5.2 1 .5 1.5.7 1.5-2.8 3-5.5 5.1-9.5 1.3 4.6 2.2 8 3.2 11.3.6-.1 1.3-.1 1.9-.2.7-4.4 1.4-8.9 2.1-13.3.6.1 1.2.1 1.9.2 1 3 2 6.1 3 9.1.8-.2 1.6-.4 2.4-.7-1.3-13.8-2.6-27.6-3.9-40.9-10.9.1-22.2.1-34.8.1zM178 373.4c0 3.8 1 8.9-.2 9.5-3.8 1.8-2.5 4.5-3 7.1-1.8 8.6-2.9 17.4-8.8 24.7-.7.9-.2 3.4.5 4.8.8 1.7 2.4 3 3.7 4.5.7-.4 1.3-.6 1.6-1 .7-.8 1.5-1.6 2-2.6 6.4-12.3 12.9-24.6 14.2-38.6.8-9 .7-18.1-.1-27.1-.4-4.3-1.5-9.4-7-11.9-1.3 2.2-3.1 4.1-3.9 6.4-1.6 4.9-5.1 9.8.9 14.7 3.4 2.8 4.4 7.2.1 9.5zm-42.6-74.3c-.2-.1-.4-.2-.7-.4 1.6-1.7 3.3-3.4 4.9-5.2.8-.9 1.2-2.1 1.8-3.2-1.4-.4-2.9-1.3-4.2-1-7.1 1.7-8.4 4.9-4.2 11.2 6.7 10.2 8.4 21.9 10 33.5.7 5.2 1.8 7.9 6.8 8.7 3.8.5 8.5-2.9 9.4-7.2 1.9-8.9-1.1-16.5-7.3-22.7-4.2-4.2-5-8.4-1.5-13.4 3.8-5.4 1.3-11.7-5.2-12.6 1.6 1.9 3 3.7 4.4 5.4-5 2.5-9.6 4.7-14.2 6.9zm235.3 67.8c3 .7 5.4 1.3 7.8 1.8-.1.7-.3 1.3-.4 2h-12.9v.5c4 .6 8.1 1.2 13.3 1.9-3.9 2.4-6.4 3.9-8.8 5.4.1.5.2 1 .4 1.5 13.9-1.5 28.1.1 41.9-5.9-4.3-4.1-4.6-8.9-3.9-14.2.1-1-2.2-3.3-3.3-3.3-6.9 0-13.9.6-20.8.8-4.3.1-8.6 0-12.9 0v1.9c1.6.2 3.2.4 4.7.6.2 1.7.5 3.4.7 5-1.9.6-3.6 1.2-5.8 2zm105.4 61.2c-3.4-1.7-7.8-2.9-10.6-5.6-5.2-5-10.8-5.1-16.9-3-1.8.6-3.2 2.5-4.8 3.7 1.2 1.2 2.2 2.7 3.7 3.5 2.8 1.5 5.8 2.6 8.8 3.7 13.2 4.6 26.7 4.6 40.1 1.9 8.5-1.8 16.6-5.4 25-8.2-1.4-2.2-2.4-3.7-3.5-5.4-9.8 1.6-19.6 5.3-28.6 1.6-4.6 2.7-8.5 5-13.2 7.8zM460.4 383c-2.6-.5-5.1-1.1-7.6-1.4-7.9-.8-15.8-1.7-23.7-2.1-1.3-.1-3.6 1.8-4 3.1-.7 2.3-.6 5-.1 7.3.4 1.7 1.6 4.4 2.9 4.7 9.7 1.8 19.5 3.3 29.4 4.5.9.1 2.8-2.2 2.9-3.5.4-4 .2-8.1.2-12.6zm50.8 2.9c-12 .7-23.3 1.3-34.7 1.9v11.8c4.4 1.3 8.6 2.9 12.9 3.8 4.5.9 9.1 1.1 13.7 1.6 7.6.7 9.3-.7 9.1-8.1 0-3.9-.6-7.8-1-11zm-124.7 30c5.8 2.4 10.9 6 16.3 6.5 9.1.9 18.4.2 27.6-.2 2.7-.1 6.6-.7 7.8-2.5 3.1-4.5 7.4-5 11.8-5.8.9-.2 1.8-.5 2.6-.8-.1-.5-.2-1.1-.2-1.6-2.6.3-5.1.7-7.7.9-1.6.1-3.6.7-4.8 0-3.1-1.8-5-1.4-7 1.7-1 1.5-3.2 2.6-5 2.9-7.5 1.3-13.9-2.1-20.1-5.5-7.1-4-15.3-2.9-21.3 4.4zm32.9-38c-.7-1.7-2.5-2.7-4.6.5-1 1.6-3.5 3-5.4 3.1-5.1.1-6.5 4.1-6.3 7.3.2 5.2-3.3 11.4 3 15.5.2.1.5 0 .6 0 .6-1.7 1.2-3.3 2-5.5 3 2 5.3 3.5 8.1 5.4.9-1.7 2.4-3.2 2.5-4.7.3-7.2.1-14.4.1-21.6zm-266.2-1.7c-2.6 9.2-5.3 18.5-8 28.1.6.4 1.5.9 2.3 1.6 3.4 3 6.4 3.6 8.4-1.4 2-4.9 4.5-9.8 5.5-14.9 2.1-9.7.9-11.2-8.2-13.4zm114.6-24.3h-34.3c.3 1.3.6 2.1.6 2.9-.5 7 .4 8.3 6.9 8.1 7.6-.2 15.2-.8 23.2-1.2-5.3-5.5.7-7.1 3.6-9.8zm139.7-2c-.3-.4-.7-.9-1-1.3-26.6.6-53.2 1.1-80.1 1.7 1.3 2.6 3 5.9 4.7 9.2 2.7-1.5 5.3-3.5 8.2-4.3 14.1-3.8 28.7-2.7 43.2-3.3 7.4-.3 14.8 0 22.3-.2.7.1 1.7-1.1 2.7-1.8zm-165.7 66.7c0 .9 0 1.8.1 2.7 3.8-.3 7.6-.7 11.4-.9 9.8-.4 19.6-.8 29.4-1.1 4.8-.1 9.7.1 14.6-.1 6.2-.2 12.3-.9 18.5-1 10.8-.2 21.6 0 32.4-.1.8 0 1.6-1.1 2.4-1.6-.2-.5-.3-1.1-.5-1.6-36.1 1.1-72.2 2.4-108.3 3.7zm234.5-9.7c2 2 2.9 3.8 4.4 4.3 9.3 3.3 18.6 6.5 29 5.3 3.3-.4 3.9-1.2 3.9-4 .1-3.1-1.1-4.5-4.2-4.2-3.2.3-6.5 1.2-9.7 1-7.4-.5-14.6-1.5-23.4-2.4zM308.4 354c-4.5 3.9-10.2 4.5-15 1.9-5.4-2.9-11.8.8-11.8 5.9h34.2c-3.3-3.5-5.2-5.5-7.4-7.8zm-146.7 59.7c7.2-7.4 9.6-16.4 8.8-26.4-.1-1.2-1.1-2.2-1.6-3.3-1 1.1-2.3 2-2.8 3.3-2 5.3-3.5 10.8-5.5 16.1-1.1 2.9-2.6 5.6-4.1 8.6 2.4.7 3.9 1.2 5.2 1.7zm-26.2-95.2c-1.7-1.2-3.1-2.6-4.7-3.1-1.9-.5-4.3.3-6.2-.3-11.8-3.5-23.6-7.3-35.4-10.9-1.2-.4-2.6.1-4 .2 0 .7-.1 1.4-.1 2.1 17 2.5 31 15.4 50.4 12zM88.4 293c-.3 1-.5 1.9-.8 2.9 1.6.3 3.5.1 4.8.9 11 6.3 23.4 7.7 35.4 10.7 1.1.3 2.4-.4 3.7-.6-.9-1.2-1.6-3.2-2.8-3.5-3.3-.8-6.8-.7-10.1-1.5-7-1.7-13.8-3.7-20.7-5.7-3.2-.8-6.3-2.1-9.5-3.2zm391.1-43.8c2.8 2.2 5 3.9 7.7 6 5.8-5.5 11.3-10.7 16.9-15.9-.3-.4-.6-.8-1-1.2-7.5 3.5-15.1 7.1-23.6 11.1zM312.2 121.4c-2.3-1.6-5.2-3.7-8.1-5.8-1.6 2.2-3.4 4.8-5.4 7.5 1.1 1.2 2.1 2.4 3.1 3.6-.9 1.6-1.7 3.2-2.6 4.7l.7.7c1.6-1.5 3.3-3 4.9-4.5 1.8 1.6 3.5 3 4.5 3.9 1.2-3.8 2-7 2.9-10.1zM112.5 334.1c-3 0-6 .1-8.9 0-6.9-.2-13.9-.5-20.8-.6-1.6 0-3.3.5-4.9.9-.1 0-.1 1.7.1 1.8 1.6.4 3.3.6 4.9.7 6.6.3 13.3.1 19.9.8 2.9.3 5.7 2.2 9.1 3.6.3-3 .5-4.9.6-7.2zm350 73.4c-.2-6.7-3.8-6.6-6.9-5.6-7.6 2.5-14.9 2.6-22.4 0-1.8-.6-3.9-.1-5.9-.1v2.6c11.5 1 23.1 2 35.2 3.1zm-323.3-63.3c.3-3.2.7-5.5-3.3-5.6-4.9-.2-9.8-1-14.7-1.3-1.2-.1-2.5.7-3.8 1.2.9 1.5 1.6 4.2 2.6 4.3 6.3.8 12.6 1 19.2 1.4zm331.4 62.4c.4-4.3.7-7.2.8-10.1.1-2.7.3-5.5-.1-8.2-.2-1.2-1.9-2.1-3-3.1-.8 1-2.3 2-2.3 3 .2 4.8.7 9.7 1.5 14.4.3 1.3 1.9 2.4 3.1 4zM120 352.4c-.2.6-.5 1.2-.7 1.8 6.4 3.8 15.1.1 22.3 6.2-.6-3.9-1-6.1-1.3-8H120zm226.1-94.5h-14.8c3.1 4.2 5.5 7.5 8.1 10.7.1.1 2.1-.8 2.5-1.5 1.4-2.6 2.5-5.4 4.2-9.2zm-177.3 95.8c.6.1 1.1.1 1.7.2 6.6-16.9 6.6-16.9.8-18.8-.8 6.3-1.7 12.4-2.5 18.6zm-107 14.4c.4 6.9 6.2 5.3 9.1 7.4 3.1 2.2 6.5.5 9.3-2.9-6.2-1.6-11.9-2.9-18.4-4.5zm155 8.9c-4.8.5-9.9.1-14.1 1.7-4.1 1.6-4-1.7-5.4-3.1-.8-.8-.6-2.5-.9-3.8-.6 0-1.2-.1-1.7-.1-.3 2.2-1.3 4.6-.7 6.5.3 1.1 3 2.1 4.6 2.3 3.1.4 6.4.8 9.3-.1 2.9-.9 7.8 2 8.9-3.4zm-114.6-50.2c-8.7-4.8-20.9-5-24.7 0h24.7zm14.9 1c.2.5.4.9.6 1.4 6.4.7 12.8 1.4 19.4 2.2 0-3.3-1-5.3-5-5.1-3 .2-6.1-.5-9.2-.3-1.9.2-3.8 1.2-5.8 1.8zm180-126v19.3c1.7-1.6 3.7-2.5 3.8-3.6.3-4.4.3-8.8-.1-13.3 0-.7-2-1.4-3.7-2.4zm39.3 97.1-.6 1.5c5.3 4.1 5.7 5.7 2.8 10.9 2.4-.7 5.5-1.6 6.2-3.3.6-1.8-.7-4.9-2.2-6.6-1.4-1.5-4.1-1.8-6.2-2.5zM138.6 417.6v1.8c3.3-.2 6.5-.5 9.8-.6 1.7-.1 4.8-.4 4.9.2 1.5 4.5 4.7 1.2 6.9 1.9-6.3-7.3-14.1-4.1-21.6-3.3zm213.2-144.7c5.2 1.2 7.6-.4 7.5-4.9 0-4.9-2.1-6.6-7.5-6.1 1.5 3.5 6.8 7 0 11zM219 287.2h2c.8-1.4 2.6-3.1 2.3-4.2-.5-1.9-2.4-3.4-3.7-5-1.3 1.3-3.7 2.7-3.6 3.9.1 1.8 1.9 3.6 3 5.3zm-61.1 83.4c.4-6.1-1.1-7.8-7-8.3-2.2 6.3 2.2 7.2 7 8.3zm-89.5-16.7c-1.6 2.9-2.4 4.5-3.3 6.3 3.4 1.1 6.4 2.2 9.7 3.3 1.6-6.7-4.7-5.4-6.4-9.6zm225.3-9.6c-.3.4-.6.8-.9 1.3 1.8 1.7 3.6 3.5 5.3 5.2 1.7-1.9 3.4-3.8 5.7-6.5h-10.1zm28.4 64.8c0 .4 0 .7.1 1.1h25.4v-1.1h-25.5zM533 422.4c0 .3 0 .5.1.8h21.2c0-.3 0-.5-.1-.8H533zM293 205.1c-.4-.2-.9-.4-1.3-.6-1 2.4-2.5 4.7-2.7 7.1-.1 1.8 1.7 3.7 2.7 5.5.4-.2.9-.4 1.3-.6v-11.4zm14 14.1c4.2-4.6 3.6-8.9-1.5-14.2.5 4.8 1 9.3 1.5 14.2zm-8.4 80.7c-.1-.8-.1-1.5-.2-2.3-4.5.5-9 1-13.5 1.4 0 .7.1 1.3.1 2 4.6-.4 9.1-.7 13.6-1.1zm69.4 79.9c0-.8-.1-1.6-.1-2.3-3.9.3-7.8.7-11.7 1 0 .7.1 1.3.1 2 3.9-.3 7.8-.5 11.7-.7zm-85.2-86.1h11.4c-3.6-2.5-7.3-4.2-11.4 0z"/>
  <path d="M4.4 0C3.3 2.6 1.1 5.2 1.1 7.8.9 59.6.9 111.5.9 163.3c.1 66.2.1 132.4.1 198.6 0 17.1-.1 34.2-.1 51.3 0 14.1 0 28.1.2 42.2 0 1.6 1.5 3.3 2.3 4.9H.1C0 306.9 0 153.4 0 0h4.4zM56.7 170.1c1.1.9 2.1 1.7 4.3 3.4-.3-3.4-.5-5.7-.7-8.3 4.3.8 5.6-1.6 6.4-5.9 1.1-6.3 16.1-17.9 22.9-18.4-3.8 3-7.3 5.8-10.9 8.7.2.5.4 1.1.5 1.6 15.4-12.6 31.9-15.9 49.8-6.5h-13.5c-.1.5-.1.9-.2 1.4 4.2 1.1 8.4 2.7 12.7 3.2 8.7 1 14.6 6.5 21 11.4 8.1 6.2 15.8 13 24.5 18.1 4.8 2.8 10.7 3.1 15 7.8 7.9 8.7 7.2 21.5-3.9 30 .7-3.7 1.1-5.9 1.5-8.1.4-2.3 1.2-4.6 1.3-6.9.3-6-.7-6.9-5.5-6-2-2.2-3.8-4-5.5-5.9-.6.4-1.1.8-1.7 1.2 2.3 5 4.5 10.1 6.8 15.2-6.4 2.4-6.8 2.1-6.3-4.7-3 .2-5.9.3-9.1.5.3-1.1.6-2.2 1-3.6-.8 0-1.4-.2-1.8 0-3.1 1.4-6.3 2.5-9.2 4.3-1.4.9-2.2 2.9-3.2 4.4l5.7 2.4v.2c3.1 1.3 6.1 3.1 9.3 3.8 3.2.7 8.1-.9 8.8 3.1.4 2.8-2.8 6.2-4.7 9.1-1 1.4-3.2 2.1-4 3.6-.8 1.6-.7 3.7-.9 5.6 1.3.1 2.7-.2 3.9.2 3 .9 5.9 2.1 8.9 3.2-.2.5-.3 1-.5 1.5-2 .4-4 .8-7 1.3 1.2 2.6 1.9 4.8 3.1 6.6 5.7 9.5 3.6 17.6-5.9 23-2.2 1.2-4.2 2.9-6.4 4.1-1.8.9-3.3 3.8-6.1 1.1-.3-.3-2.9 2.1-4.6 2.7-5.7 2.2-11.3 4.4-17.1 6.2-3.7 1.2-6.5 3-7.7 6.9-.5 1.7-1.3 3.3-2.3 5.6-9.1-2.8-18.1-5.7-27.3-8.3-3-.9-3.7-2.4-4-5.3-.4-4.6-1.7-9.1-2.7-14.1 3.4-.9 3.8-3.4 1.9-6.6-1.9-3.4-1.3-6.2.7-9.6 2.2-3.6 3.1-7.9 4.9-12.6-9.3.8-6.1 6.9-7.4 11.1-.7-2.4-1.4-4.7-2.2-7.1h-1.7c0 2-.2 4 0 6 .2 2.3.8 4.5 0 7.3-1.4-2.1-2.7-4.3-4.3-6.3-2.3-2.9-4.2-2.6-5 1.5-3.9-4.6-7.4-8.7-11-12.9-.5 7.4 5.4 10.9 9.2 15.7-.3.4-.7.7-1 1.1-2.6-1.9-5.1-4-7.8-5.8-8.8-6.1-15.9-13.8-19.7-23.7-3.8-10-4.7-20.8-3.5-31.5.2-1.7 2.8-2.9 3.5-4.7 3.1-7.1 5.9-14.2 8.8-21.4l-.1.1zm65.5 46.9c-.5-5.4-4.1-8.3-8.2-9.1-2.8-.6-7 .6-9.2 2.5-8.5 7.4-6.7 21.6 3 27.5 3.2 2 8.4-.1 9.3-4.2-6.2.6-10.7-1.1-12.2-7.8-1.1-5.2-.1-10.3 3.7-13.1 5.3-4 9.6.7 13.6 4.2zm17.1-24.3c-.6-.5-1.3-.9-1.9-1.4-1.6.9-3.4 2.7-4.8 2.5-4.1-.6-4.2 1.6-4.3 4.5-.1 2.3-.8 4.6-.7 6.9 0 1.3 1.1 2.5 1.7 3.7.9-.6 2.2-1 2.7-1.9 2.5-4.6 4.9-9.5 7.3-14.3zm19-3.9c-.5-.4-.9-.7-1.4-1.1-3.3 3.8-6.6 7.7-10 11.5.5.4 1 .9 1.6 1.3 3.1-4 8.5-6.2 9.8-11.7zm-8.8 2.4c-6.5 3-9 7.4-6.9 9.8 2.3-3.3 4.6-6.6 6.9-9.8zM538 167c3.4-.5 6-.8 6.6 3.8 1.1 9.1.2 12.2-4 14.1-2.7 1.2-6 3.6-6.7 6.1-4.1 13.7-14.4 22.4-25 30.5-4.4 3.4-11 4.5-16.8 5.5-8.7 1.5-17.5 2.4-26.4 2.7-11.8.4-23-3-33.4-8.4-9-4.7-17.8-10.4-22.6-19.5-3.4-6.5-5.1-14.1-6.8-21.3-3.3-14.3 1.5-27.6 6.7-40.4 3.5-8.6 9.4-15.7 16.7-22.2 8.3-7.3 18-10.4 27.5-14.3 10.1-4.1 20.9-3.7 31.4-2.3 7.3 1 14.8 3.5 21.4 6.8 16.3 8 24.9 22.3 28.9 39.5 1.5 6.2 1.7 12.7 2.5 19.4zm-105.9 11.5c.9 2 1.5 3.6 2.4 5 .7 1.2 2.3 2.1 2.5 3.2 1 8.7 5.3 14.9 13 19.2 10 5.5 20.9 7.9 31.7 5 12.9-3.5 21-13.1 24.5-26.1.8-2.8-.3-5.4-3.9-5.5-2.1 0-4.2.6-6.3.6-20.9-.4-41.7-.9-63.9-1.4zm53.7-41.9c-6.1 2-9.8.4-12.8-4.6-1.7-3-4.6-5.6-7.5-7.5-2.1-1.4-6.4-2.6-7.5-1.5-3.2 3.1 1.2 5 2.7 7.3.8 1.3 2.7 1.8 3.8 3 1.5 1.5 2.8 3.3 4.2 5.1-8.2 4.7-14.4.9-20.1-2.7-6.7-4.2-6-9.8 1.4-13 4.4-1.9 9.2-2.9 13.8-4.3 1.2-.4 2.3-1.1 4.3-2.1-1.9-.9-2.8-1.8-3.4-1.6-6.3 1.6-13 2.5-18.8 5.2-6.2 2.8-9.9 5.6-3.4 14.4l4.2 5.7c-2.3 2.8-7.8 3.6-7.1 8.3 3.2-.5 6.1-1.9 7.9-1.1 4.9 2.2 6.5.9 5.5-3.9 6.4.1 12.6 3 18-2.3.8-.8 2.8-.5 4.3-.4 4 .4 8 1.1 12.2 1.7-.1.5-.5 1.8-.6 2 4 1.7 7.5 3.2 10.8 4.6 1.4-5.3-.3-7.6-7.3-9 1.5-5.3-3-6.8-6.2-8.9-.4-.3-1.8 1-3 1.6 1.7 1.5 3 2.6 4.6 4zm-9.1 20.6c-3.9-4.7-11.9-4.6-15.6-1.1-4.2 4-4.2 12.7.1 16.8 3.5 3.3 10.8 2.5 14.8-2.1-1.9-.5-3.6-1.4-5.2-1.2-3.4.4-6.7.4-7.9-3.3-1.1-3.5 2.4-7.3 6.7-8 2.1-.4 4.2-.6 7.1-1.1zm8.5 4c.1.7.3 1.3.4 2 2.4.6 5 1.9 7.2 1.6 1.2-.2 3-3.6 2.6-5-.5-1.9-2.9-3.3-4.5-4.9l-5.7 6.3zm-32.3.8c.2-.8.3-1.7.5-2.5-2.2-1.5-4.2-3.6-6.6-4.3-.8-.3-3.4 2.5-3.8 4.3-.4 1.5 1.4 5.1 1.8 5 2.7-.4 5.4-1.6 8.1-2.5zM449.8 247.5c-3.4 1-6.8 1.9-11.5 3.2 1.3-3 1.9-6 3.7-7.7.7-.7 4.3 1.2 6.4 2.4 3 1.7 5.5 4.1 8.6 5.6 1.7.8 4.1.5 6.1.6.1-.5.3-.9.4-1.4-4-3.3-8-6.7-12.4-10.3 9.7 1.1 18.9 2.1 29.4 3.3-4.6 1.5-8.3 2.4-11.8 3.9-4 1.7-4.9 5.3-5.2 9.9 1.4-.7 2.3-.9 2.8-1.5 5-5.7 6.4-5.9 11.5-.5 4.2 4.4 11.1 5.4 16.1-.1 4-4.5 9.4-7.8 14.3-11.4.9-.7 2.3-.8 3.6-1 5.4-1.1 10.8-2.1 16.2-3.1v-1.5c.9.8 2.3 1.5 2.7 2.6 3.9 9.6 7.6 19.3 11.2 29.1 1.4 3.8-1.4 5.9-4.3 7.2-4.6 2.1-9.3 3.8-14 5.6-3.1 1.1-4.4 2-3 6 1.5 4.2.9 9.1 1.4 13.6.2 2.3.8 4.5.2 7.2-3.8-5.3-7.6-10.6-12-16.8-4.8 6.2-9.3 11.6-13.2 17.4-2.5 3.7-3.6 2.8-5.6-.2-4.4-6.6-9-13-13.4-19.2-6.5 6.7-12.6 13.2-19.8 20.6-1.4-3.2-1.9-4.6-2.6-5.9-2.3-4.3-5-8.4-6.9-12.8-2-4.5-5-3.9-7.9-1.8-4.4 3.2-8.6 6.6-12.5 10.4-2.7 2.6-3.5 1.2-4.6-1.1-1.3-2.9-2.9-5.8-3.9-8.8-.5-1.4-.3-3.3.2-4.7 1.2-3.1-1.6-6.8-6.6-8.4-1-.3-2.2-.3-3.1-.8-7.4-3.9-7.7-5.4-4.2-13 3-6.5 6-13 8.6-19.7 1.3-3.5 2.7-4.5 6.4-3 3.4 1.5 7.2 2 10.7 3.4 1.1.4 1.8 2.2 2.3 3.5.9 2.4 1.5 4.9 2.4 7.3.2.6 1.8 1.3 2.2 1.1 4-2.3 7.8-4.9 11.7-7.3-.1-.8-.3-1.3-.6-1.9zM328.4 366.6c-.7 3.8-1.5 8.6-2.5 13.8 1.9-.2 2.8-.3 4.1-.4-.9 1.9-1.6 3.4-2.8 6 2.6.1 4.8.2 6.9.3-4.2 5.4-10.3 6.4-16.9 6.5-21.5.3-43 .7-64.5.9-11.1.1-22.2-.2-33.3-.3-9.4-.1-18.7 0-29.2 0 1-1.7 1.7-2.3 1.6-2.9-.1-8.6 6.1-6.7 11.1-6.6 3.3.1 6.5 1 9.8.9 2-.1 5.5-1.1 5.7-2.2 1-5.6 5.2-5.4 8.9-5.2 5.4.2 8-1.8 7.3-8 6-.3 11.7-.8 17.4-.9 7.7-.1 15.3.2 23 .1 10.3-.2 20.5-.6 30.7-.9 7.9-.3 15.7-.7 22.7-1.1z" fill="#fff"/>
  <path d="M424.8 325c5.5-6.4 10.8-12.6 16.7-19.5 3.3 5.8 6.2 10.7 9 15.5.6.9 1.2 1.9 2 2.6 6.8 6.1 5.8 7.3 11.2-.3 3.6-5.1 7.6-9.9 11.7-15.3 7.2 7.9 9.8 18.8 19.8 24.6 1.8-3 3.3-5.6 5-8.1 2.4-3.6 4.9-7.1 7.7-10.4.4-.5 2.9 0 3.6.8 5 5.9 9.7 12 14.5 17.9 2.2 2.7 1.1 7.6-2.4 8.4-8.6 2-17.5 5.3-26.1 4.8-21.1-1.3-42.5-.5-63.1-7.3-7.5-2.5-15.4-3.7-23.1-5.7-3.8-1-6.1-2.6-4.3-7.4 2.1-5.9 3.4-12 5.7-18.3 3.5 6.6 3.7 15.4 12.1 17.7zM317.5 410.3c-1.4.1-2.9.1-4.3.2-17.9.7-35.9 1.3-53.8 2.3-14.1.8-28.1 2-42.5 3.1 0-4.5.2-8.5 0-12.6-.2-4.5 2.4-4.9 5.9-4.9 12.4.1 24.8 0 37.2 0 1.5 0 2.9-.1 4.4-.1h27.7c8.3 0 16.6-.1 24.9 0 7.9.1 14.3-2 19.8-8.5 2.3-2.7 8.1-3.3 12.4-3.5 9.8-.5 19.7-.1 29.6-.3 3.4-.1 6.7-.9 10.5-1.4.5 6.8 1 13 1.5 19.2.8 0 1.7.1 2.5.1l1.5-15c.4 0 .8.1 1.2.1.5 5.1 1 10.2 1.4 14.3-6 2.8-11.4 5.5-19 9.1-6.8-.3-16.3-.8-25.8-1.2 0-.6.1-1.2.1-1.8h12.1c-.8-1.5-1.2-3-1.7-3-7.1-.5-14.3-1.2-21.4-1.1-7.6.2-15.3 1.5-22.9 1.8-8.6.3-17.2-.2-25.8 0-6.8.1-13.6.9-20.5 1.2-10.3.5-20.6.8-30.8 1.2-5.4.2-10.8.7-16.3 1.1 0 .7 0 1.4.1 2.2 30.7-1.3 61.5-2.6 92.2-3.8-.2.3-.2.8-.2 1.3zM369.1 233.7c-2.8 1.3-5.2 2.4-7.6 3.6-.4-.5-.8-1.1-1.2-1.6 2-2.1 3.9-4.1 6-6.3-2.8-5.3-4.9-.9-8.6-.1.7-1.5 1-3.3 2.1-4.5.7-.8 2.6-.6 3.4-1.4 1-1.1 1.3-2.7 1.9-4.1-1.3-.5-2.7-1.5-3.8-1.3-2.6.4-5 1.5-7.5 2.3-.4-.4-.8-.7-1.1-1.1 1.1-1.1 1.9-2.8 3.2-3.3 3.1-1.1 6.4-1.5 9.5-2.5 1.2-.4 2.1-1.6 3.1-2.5-1.5-1.7-2.9-3.5-4.7-4.9-.9-.6-2.6.1-3.8-.3-1-.4-1.9-1.5-2.4-2.5-.2-.3.7-1.6 1.3-1.9 1-.4 2.4-.6 3.3-.1 3.6 1.9 7 4.1 10.7 6 1.1.6 3.3.9 3.9.3 1-1 1.2-2.8 1.4-4.4.2-1.6.1-3.3.1-5.5 5.9 2.5 4.1 6.8 3.3 9.4-1.9 6.3 1.6 10.2 5.5 13.4 6.9 5.5 14.3 10.4 21.8 15.1 3.1 1.9 4.1 3.6 2.7 6.8-3.8 8.5-7.6 17.1-11.7 26.2-12.5-10.2-22.8-21.4-30.8-34.8zm4.2-15.7c-1.5 1.7-2.8 3.1-4.2 4.7 3.5 2.3 6.2 4.6 9.2 0-1.5-1.4-3-2.9-5-4.7zM533.9 236.2c5.5-6.5 10.4-12.3 15.4-18.1 3.5-4.1 1.8-7.6-1-11.4-2.3-3-5.8-6.3-1.9-11.7 2.9 3.8 5.5 7.2 9.1 11.8 1.7-5 3.1-8.9 4.4-12.7.5-1.4.4-3.3 1.3-4 1.4-1 3.5-1.1 5.2-1.6.1 1.6.5 3.3.1 4.8-.5 1.4-1.7 2.8-3 3.8-2.9 2.3-3.3 4.6-1.2 6.8 4.8-1.9 9.4-3.6 14-5.4.5 1.4 1.1 2.8 1.6 4.3-2.8 1-5.1 1.5-7 2.7-1 .6-2 2.4-1.8 3.5.1.9 1.9 1.9 3.1 2.1 1.8.4 3.8.2 5.7.1 3.6-.2 6.5.6 7.6 5.7-2.3-.4-4.4-1.3-6.2-.9-1.9.4-3.6 1.9-5.4 3 .9 1.1 1.9 2.2 2.8 3.4 1.3 1.8 2.5 3.6 3.6 6.5-10.8-4.2-11.4 3.9-14.1 9.6-4.5 9.8-11.5 17.4-21.8 22.7-3.6-8.6-7.2-17.2-10.5-25zm22.9-14.9c.9.4 1.8.9 2.7 1.3 1-3.4 8.2-4 3.3-11.4-2.3 3.9-4.1 7-6 10.1zM77.9 343.9h34.9c1.3 13.2 2.6 27 3.9 40.9-.8.2-1.6.4-2.4.7-1-3-2-6.1-3-9.1-.6-.1-1.2-.1-1.9-.2-.7 4.4-1.4 8.9-2.1 13.3-.6.1-1.3.1-1.9.2-.9-3.3-1.9-6.7-3.2-11.3-2.1 4-3.6 6.7-5.1 9.5-.5-.2-1-.5-1.5-.7.2-2.4.5-4.8.8-8.4-2.8 1.6-4.6 2.6-8.2 4.7 1.1-2.7 1.4-4.2 2.3-5.2 1.9-2.2 1.7-3.6-.7-5.3-10.2-7.1-9.6-18.2-11.9-29.1zM178 373.4c4.3-2.3 3.4-6.7 0-9.5-6-5-2.5-9.8-.9-14.7.7-2.3 2.5-4.2 3.9-6.4 5.5 2.5 6.6 7.6 7 11.9.8 9 .9 18.1.1 27.1-1.3 14-7.8 26.4-14.2 38.6-.5.9-1.3 1.8-2 2.6-.3.4-.9.6-1.6 1-1.3-1.5-2.9-2.8-3.7-4.5-.7-1.4-1.3-3.9-.5-4.8 5.9-7.2 7-16.1 8.8-24.7.5-2.6-.7-5.3 3-7.1 1.1-.6.1-5.7.1-9.5zM135.4 299.1c4.6-2.2 9.2-4.4 14.2-6.8-1.4-1.8-2.9-3.5-4.4-5.4 6.5.8 9 7.2 5.2 12.6-3.5 5-2.7 9.2 1.5 13.4 6.2 6.2 9.3 13.8 7.3 22.7-.9 4.3-5.6 7.8-9.4 7.2-5-.7-6.1-3.5-6.8-8.7-1.6-11.5-3.3-23.3-10-33.5-4.1-6.3-2.9-9.5 4.2-11.2 1.2-.3 2.8.6 4.2 1-.6 1.1-1.1 2.3-1.8 3.2-1.5 1.8-3.2 3.5-4.9 5.2.2.1.5.2.7.3zM370.7 366.9c2.2-.8 3.9-1.4 5.8-2.1-.2-1.5-.4-3.2-.7-5-1.5-.2-3.1-.4-4.7-.6v-1.9c4.3 0 8.6.1 12.9 0 6.9-.2 13.9-.8 20.8-.8 1.2 0 3.5 2.3 3.3 3.3-.8 5.3-.4 10.1 3.9 14.2-13.8 6.1-28 4.4-41.9 5.9-.1-.5-.2-1-.4-1.5 2.4-1.5 4.9-3 8.8-5.4-5.2-.8-9.2-1.3-13.3-1.9v-.5h12.9c.1-.7.3-1.3.4-2-2.4-.4-4.8-1-7.8-1.7zM476.1 428.1c4.7-2.8 8.6-5.1 13.1-7.9 9 3.7 18.8 0 28.6-1.6 1.1 1.7 2.1 3.2 3.5 5.4-8.4 2.8-16.5 6.4-25 8.2-13.4 2.8-26.9 2.8-40.1-1.9-3-1.1-6-2.2-8.8-3.7-1.4-.8-2.5-2.3-3.7-3.5 1.6-1.3 3-3.1 4.8-3.7 6.1-2.1 11.7-2 16.9 3 3 2.8 7.3 4 10.7 5.7zM460.4 383c0 4.5.3 8.6-.1 12.6-.1 1.3-2.1 3.7-2.9 3.5-9.8-1.2-19.6-2.7-29.4-4.5-1.2-.2-2.5-2.9-2.9-4.7-.5-2.4-.6-5 .1-7.3.4-1.4 2.7-3.2 4-3.1 7.9.4 15.8 1.3 23.7 2.1 2.4.3 4.8.9 7.5 1.4zM511.2 385.9c.3 3.2 1 7.1 1.1 11 .2 7.4-1.5 8.8-9.1 8.1-4.6-.4-9.2-.7-13.7-1.6-4.3-.9-8.5-2.5-12.9-3.8v-11.8c11.3-.6 22.6-1.3 34.6-1.9zM386.5 415.9c6.1-7.2 14.2-8.4 21.3-4.5 6.2 3.4 12.6 6.8 20.1 5.5 1.8-.3 4-1.5 5-2.9 2-3 3.9-3.5 7-1.7 1.2.7 3.2.1 4.8 0 2.6-.2 5.1-.6 7.7-.9.1.5.2 1.1.2 1.6-.9.3-1.7.6-2.6.8-4.5.8-8.8 1.3-11.8 5.8-1.2 1.8-5.1 2.4-7.8 2.5-9.2.4-18.5 1.2-27.6.2-5.5-.5-10.5-4-16.3-6.4zM419.4 377.9c0 7.2.1 14.5-.1 21.7-.1 1.5-1.5 3-2.5 4.7-2.8-1.9-5.2-3.4-8.1-5.4-.8 2.2-1.4 3.8-2 5.5 0 0-.4.1-.6 0-6.3-4-2.8-10.3-3-15.5-.2-3.2 1.2-7.2 6.3-7.3 1.9-.1 4.4-1.5 5.4-3.1 2.1-3.4 4-2.4 4.6-.6zM153.2 376.2c9.1 2.2 10.2 3.6 8.2 13.4-1.1 5.1-3.6 10-5.5 14.9-2 5-5 4.4-8.4 1.4-.8-.7-1.7-1.2-2.3-1.6 2.8-9.5 5.4-18.8 8-28.1zM267.8 351.9c-2.9 2.7-8.9 4.3-3.5 9.8-8.1.4-15.6 1-23.2 1.2-6.5.2-7.4-1.1-6.9-8.1.1-.8-.3-1.6-.6-2.9h34.2zM407.5 349.9c-1 .6-1.9 1.8-2.9 1.9-7.4.2-14.8-.1-22.3.2-14.4.6-29-.5-43.2 3.3-2.9.8-5.4 2.8-8.2 4.3-1.7-3.3-3.4-6.6-4.7-9.2 27-.6 53.5-1.1 80.1-1.7.5.4.8.8 1.2 1.2z" fill="#fff"/>
  <path d="m241.8 416.6 108.3-3.9c.2.5.3 1.1.5 1.6-.8.6-1.6 1.6-2.4 1.6-10.8.1-21.6-.1-32.4.1-6.2.1-12.3.8-18.5 1-4.8.2-9.7-.1-14.6.1-9.8.3-19.6.7-29.4 1.1-3.8.2-7.6.6-11.4.9-.1-.8-.1-1.6-.1-2.5zM476.3 406.9c8.8.9 16 1.9 23.3 2.4 3.2.2 6.5-.7 9.7-1 3.1-.3 4.3 1.2 4.2 4.2-.1 2.8-.6 3.6-3.9 4-10.3 1.2-19.6-2-29-5.3-1.4-.5-2.4-2.3-4.3-4.3zM308.4 354c2.2 2.3 4.1 4.3 7.4 7.8h-34.2c0-5.1 6.4-8.7 11.8-5.9 4.9 2.6 10.6 2 15-1.9zM161.7 413.7c-1.4-.4-2.9-.9-5.2-1.7 1.4-3 3-5.7 4.1-8.6 2-5.3 3.5-10.8 5.5-16.1.5-1.3 1.8-2.2 2.8-3.3.6 1.1 1.5 2.2 1.6 3.3.8 10-1.6 18.9-8.8 26.4zM135.5 318.5c-19.4 3.4-33.4-9.5-50.4-12.1 0-.7.1-1.4.1-2.1 1.3-.1 2.8-.5 4-.2 11.8 3.6 23.6 7.4 35.4 10.9 1.9.6 4.2-.2 6.2.3 1.7.6 3 2.1 4.7 3.2zM88.4 293c3.1 1.1 6.2 2.3 9.4 3.3 6.9 2 13.8 4 20.7 5.7 3.3.8 6.9.6 10.1 1.5 1.2.3 1.9 2.3 2.8 3.5-1.2.2-2.6.8-3.7.6-11.9-3-24.4-4.5-35.4-10.7-1.3-.8-3.2-.6-4.8-.9.4-1 .7-2 .9-3zM479.5 249.2c8.5-4 16.1-7.6 23.7-11.1.3.4.6.8 1 1.2-5.5 5.2-11.1 10.4-16.9 15.9-2.7-2.2-5-3.9-7.8-6zM312.2 121.4c-.9 3.1-1.7 6.3-2.7 10.1-1.1-.9-2.8-2.4-4.5-3.9-1.6 1.5-3.3 3-4.9 4.5l-.7-.7c.8-1.5 1.7-3 2.6-4.7-1-1.2-2.1-2.4-3.1-3.6 1.9-2.7 3.8-5.2 5.4-7.5 2.6 2.1 5.6 4.2 7.9 5.8zM112.5 334.1c-.2 2.2-.3 4.2-.5 7.1-3.4-1.4-6.1-3.3-9.1-3.6-6.6-.7-13.3-.5-19.9-.8-1.7-.1-3.3-.4-4.9-.7-.2 0-.2-1.7-.1-1.8 1.6-.4 3.3-1 4.9-.9 6.9.1 13.9.4 20.8.6 2.9.2 5.8.1 8.8.1zM462.5 407.5c-12-1.1-23.6-2.1-35.2-3.1v-2.6c2 0 4.2-.5 5.9.1 7.5 2.6 14.9 2.5 22.4 0 3-1 6.6-1.1 6.9 5.6zM139.2 344.2c-6.6-.4-12.9-.6-19.2-1.4-1-.1-1.8-2.8-2.6-4.3 1.3-.4 2.5-1.2 3.8-1.2 4.9.3 9.8 1.1 14.7 1.3 4 .2 3.6 2.4 3.3 5.6zM470.6 406.6c-1.2-1.5-2.8-2.6-3-4-.8-4.8-1.3-9.6-1.5-14.4 0-1 1.5-2 2.3-3 1 1 2.8 1.9 3 3.1.4 2.7.2 5.4.1 8.2-.2 2.9-.6 5.7-.9 10.1zM120 352.4h20.3c.3 1.9.7 4.2 1.3 8-7.2-6.1-15.9-2.4-22.3-6.2.2-.6.4-1.2.7-1.8zM346.1 257.9c-1.7 3.8-2.8 6.5-4.2 9.1-.4.8-2.4 1.6-2.5 1.5-2.6-3.2-5-6.5-8.1-10.7 5.4.1 10 .1 14.8.1zM168.8 353.7c.8-6.1 1.6-12.3 2.5-18.6 5.8 1.9 5.8 1.9-.8 18.8-.5-.1-1.1-.2-1.7-.2zM61.8 368.1c6.5 1.6 12.2 2.9 18.4 4.4-2.9 3.5-6.2 5.2-9.3 2.9-2.9-2-8.7-.4-9.1-7.3zM216.8 377c-1.1 5.4-6 2.5-9 3.5-2.8.9-6.2.5-9.3.1-1.7-.2-4.3-1.2-4.6-2.3-.5-2 .4-4.3.7-6.5.6 0 1.2.1 1.7.1.3 1.3.1 3.1.9 3.8 1.4 1.3 1.3 4.6 5.4 3.1 4.4-1.7 9.4-1.3 14.2-1.8zM102.2 326.8H77.5c3.8-5 16-4.8 24.7 0zM117.1 327.8c2-.6 3.9-1.6 5.9-1.7 3-.2 6.1.5 9.2.3 4-.3 4.9 1.7 5 5.1-6.7-.8-13.1-1.5-19.4-2.2-.3-.6-.5-1-.7-1.5zM297.1 201.8c1.7 1 3.6 1.6 3.7 2.4.3 4.4.4 8.9.1 13.3-.1 1.1-2 2-3.8 3.6v-19.3zM336.4 298.9c2.1.8 4.8 1 6.2 2.5 1.5 1.6 2.9 4.8 2.2 6.6-.6 1.8-3.8 2.6-6.2 3.3 2.8-5.2 2.5-6.7-2.8-10.9l.6-1.5zM138.6 417.6c7.5-.8 15.3-4 21.6 3.3-2.2-.7-5.4 2.6-6.9-1.9-.2-.5-3.2-.2-4.9-.2-3.3.1-6.6.4-9.8.6v-1.8zM351.8 272.9c6.8-4 1.5-7.5.1-11 5.3-.5 7.5 1.2 7.5 6.1-.1 4.4-2.5 6.1-7.6 4.9zM219 287.2c-1.1-1.8-2.9-3.5-3-5.3 0-1.3 2.3-2.6 3.6-3.9 1.3 1.7 3.1 3.2 3.7 5 .3 1.1-1.5 2.8-2.3 4.2h-2zM157.9 370.6c-4.8-1-9.2-2-7-8.3 5.8.4 7.4 2.2 7 8.3zM68.4 353.9c1.7 4.2 8.1 2.9 6.4 9.6-3.3-1.1-6.3-2.1-9.7-3.3.9-1.9 1.7-3.4 3.3-6.3zM293.7 344.3h10.2c-2.3 2.7-4 4.6-5.7 6.5-1.8-1.7-3.6-3.5-5.3-5.2.2-.5.5-.9.8-1.3zM322.1 409.1h25.4v1.1h-25.4v-1.1zM533 422.4h21.1c0 .3 0 .5.1.8H533v-.8zM293 205.1v11.4c-.4.2-.9.4-1.3.6-1-1.8-2.8-3.7-2.7-5.5.1-2.4 1.7-4.7 2.7-7.1.4.2.9.4 1.3.6zM307 219.2c-.5-4.8-1-9.4-1.5-14.2 5.1 5.2 5.7 9.6 1.5 14.2zM298.6 299.9c-4.5.4-9 .7-13.5 1.1 0-.7-.1-1.3-.1-2 4.5-.5 9-1 13.5-1.4 0 .8.1 1.5.1 2.3zM368 379.8l-11.7.6c0-.7-.1-1.3-.1-2 3.9-.3 7.8-.7 11.7-1 0 .8.1 1.6.1 2.4zM282.8 293.7c4.2-4.2 7.8-2.5 11.4 0h-11.4z" fill="#fff"/>
  <path d="M204.2 417.4c-5 .2-10 .5-15 .7 0 .6.1 1.1.1 1.7h3.9c.1.4.2.8.2 1.1-2.2.2-4.4.5-6.4.7-.5-1.2-1-2-1.1-2.9-.1-1.1.1-3.3.3-3.3 6-.2 12-.1 18-.1v2.1zM198.9 425.9h-18v-1.4h18v1.4zM122.2 217c-4-3.4-8.3-8.1-13.5-4.3-3.8 2.8-4.9 7.9-3.7 13.1 1.5 6.8 6 8.5 12.2 7.8-1 4.1-6.1 6.1-9.3 4.2-9.7-5.9-11.5-20.1-3-27.5 2.2-1.9 6.3-3.1 9.2-2.5 4 .9 7.6 3.8 8.1 9.2zM139.3 192.7c-2.4 4.8-4.8 9.7-7.4 14.5-.5.9-1.8 1.2-2.7 1.9-.6-1.2-1.6-2.5-1.7-3.7-.1-2.3.6-4.6.7-6.9.1-2.9.2-5.1 4.3-4.5 1.5.2 3.2-1.6 4.8-2.5.8.3 1.4.7 2 1.2zM158.3 188.8c-1.3 5.5-6.7 7.7-9.7 11.7-.5-.4-1-.9-1.6-1.3 3.3-3.8 6.6-7.7 10-11.5.4.4.8.8 1.3 1.1zM149.5 191.2c-2.3 3.3-4.6 6.5-6.9 9.8-2.1-2.5.4-6.8 6.9-9.8zM432.1 178.5c22.2.5 43 1 63.9 1.4 2.1 0 4.2-.6 6.3-.6 3.6 0 4.6 2.7 3.9 5.5-3.6 12.9-11.7 22.6-24.5 26.1-10.7 2.9-21.6.5-31.7-5-7.7-4.2-12-10.5-13-19.2-.1-1.1-1.8-2-2.5-3.2-.9-1.4-1.5-3-2.4-5zM485.8 136.6c-1.6-1.4-3-2.6-4.7-4.1 1.1-.6 2.6-1.9 3-1.6 3.2 2.2 7.6 3.6 6.2 8.9 7 1.5 8.8 3.7 7.3 9-3.4-1.4-6.8-2.9-10.8-4.6.1-.2.4-1.5.6-2-4.2-.6-8.2-1.2-12.2-1.7-1.4-.2-3.5-.4-4.3.4-5.4 5.3-11.6 2.4-18 2.3 1 4.9-.6 6.1-5.5 3.9-1.9-.8-4.7.6-7.9 1.1-.7-4.7 4.8-5.4 7.1-8.3l-4.2-5.7c-6.5-8.9-2.8-11.7 3.4-14.4 5.9-2.6 12.5-3.6 18.8-5.2.7-.2 1.6.7 3.4 1.6-2 1-3.1 1.7-4.3 2.1-4.6 1.5-9.4 2.4-13.8 4.3-7.3 3.2-8 8.8-1.4 13 5.7 3.6 12 7.4 20.1 2.7-1.4-1.8-2.7-3.6-4.2-5.1-1.1-1.1-2.9-1.7-3.8-3-1.5-2.2-5.9-4.1-2.7-7.3 1.1-1 5.4.2 7.5 1.5 2.9 1.9 5.8 4.5 7.5 7.5 3.1 5.1 6.8 6.8 12.9 4.7zM476.7 157.2c-3 .4-5 .7-7 1-4.3.7-7.7 4.5-6.7 8 1.1 3.7 4.4 3.8 7.9 3.3 1.6-.2 3.3.7 5.2 1.2-4.1 4.6-11.3 5.4-14.8 2.1-4.3-4-4.4-12.8-.1-16.8 3.7-3.3 11.7-3.4 15.5 1.2zM485.2 161.2c1.9-2.1 3.8-4.2 5.7-6.2 1.6 1.6 4 3 4.5 4.9.4 1.4-1.4 4.8-2.6 5-2.3.3-4.8-1-7.2-1.6-.1-.8-.3-1.4-.4-2.1zM452.9 162c-2.7.9-5.4 2-8.1 2.4-.4.1-2.1-3.5-1.8-5 .4-1.7 3-4.5 3.8-4.3 2.4.8 4.4 2.8 6.6 4.3-.2 1-.4 1.8-.5 2.6zM373.3 218c1.9 1.8 3.5 3.2 5 4.6-3 4.6-5.8 2.3-9.2 0 1.4-1.5 2.7-2.9 4.2-4.6zM556.8 221.3c1.8-3.1 3.6-6.1 6-10.1 4.9 7.4-2.3 8-3.3 11.4-.9-.5-1.8-.9-2.7-1.3z"/>
  <text transform="translate(32.189 63.974)" font-family="Peanuts" font-size="45">MERRY CHRISTMAS!</text>
  <text transform="translate(502.371 63.974)" fill="#010101" font-family="BaskervilleT-Bold" font-size="26" letter-spacing="1">12-25</text>
  <text transform="translate(462.8 36.511)" fill="#010101" font-family="Peanuts" font-size="26" letter-spacing="4">SCHULZ</text>
</svg>
