<svg xmlns="http://www.w3.org/2000/svg" viewBox="0 0 595.3 461.8" xml:space="preserve">
  <path fill="#fff" d="M0 0h595.3v461.8H0z"/>
  <path d="M595.3 2.7v456.9c-5.4-.1-10.7-.1-16.1-.1-13.7 0-27.4 0-41.1.1-69 .3-137.9.5-206.9.8l-87.1.3-138.2.3c-6.1 0-12.1.5-18.2.8H1.3c.3-8.9.8-17.7.9-26.6.1-14.6 0-29.2-.2-43.8-.2-21.9-.6-43.7-.7-65.6-.3-15.4-.3-30.8-.2-46.1.2-21 .6-42.1.6-63.1 0-19.2-.6-38.4-.6-57.5-.1-41 0-82.1 0-123.1V3.3c7.3-.4 13.6-1 19.9-.9 10.1.1 20.1.8 30.2.8 15.1 0 30.3-.6 45.4-.6 12.2 0 24.4.7 36.6.7 10-.1 20-1.1 29.9-1.2 11-.2 21.9.2 32.9.2 24.9 0 49.7-.2 74.6-.2 3.6 0 7.2.7 10.7.6 15.5-.1 31.1-.4 46.6-.5 5.2 0 10.3.8 15.5.7 5.5-.1 11-1 16.5-1 8.4 0 16.7.7 25.1.7 9.4 0 18.8-.8 28.2-.9 33.1-.1 66.2-.1 99.3-.1 23.2 0 46.3-.1 69.5 0 4.5 0 8.9.7 13.3 1.1zm-401.8 115c1.5-.8 3.1-2.2 4.8-2.3 13.7-1.4 27.6 1.5 41.3-2 5-1.3 10.6-.9 15.9-.7 2.2.1 5.2 1.2 6.5 2.9 5.8 7.4 11 15.1 16.5 22.8.5.7 1.1 1.4 2.3 2.9.2-2.2.5-3.5.3-4.6-1-6.3-1.8-12.7-3.4-18.9-1.1-4.4.7-5.4 4.3-5.6 6.5-.4 12.9-.8 19.4-1.1 8.6-.3 17.2-.4 25.9-.8 12-.4 24.1-1 36.1-1.4 1.1 0 2.2 0 3.3.1 11.1.8 22.1 1.7 33.2 2.2 6.4.3 12.8-.4 19.1-.1 10 .5 19.9 1.5 29.9 2.1 9.4.5 18.8.8 28.2 1 5.4.1 10.7-.2 16.1-.2 2.6 0 5.2.5 7.8.3 4.3-.3 8.5-1.7 12.7-1.6 15.9.5 31.6-.1 47.2-3.4 8.4-1.7 16.9-3.1 25.1-4.5.5-4 1.3-7.2 1.3-10.4 0-6.4-.6-12.7-.6-19.1 0-6 .6-12 .7-18 .1-12.9-.4-25.7.1-38.6.3-6.4-1-9.6-5.7-9.4-9.1.5-18.2 1-27.2 1-7.4 0-14.8-.9-22.2-.9-10.9 0-21.8.3-32.7.5-7.5.2-15.1.8-22.6.8-7.3-.1-14.6-1.2-22-1.2-16.8.1-33.7.8-50.5.9-73.8.2-147.6.1-221.4.3-16.3 0-32.5.7-48.8.8-40.4.1-80.8 0-121.1 0-3.4 0-6.5-.5-5.2 5.2.9 4.3-.5 9-.4 13.5.2 9 .7 18.1 1 27.1.1 2.9-.2 5.9 0 8.8.3 5.8 1.1 11.6 1 17.3-.1 11.6-1 23.3-.7 34.9.1 3.7-1.1 8.1 3.4 11.7 12.2 10.1 26.8 14 41.7 16.8 9.8 1.9 20 2.1 30 2.7 13.7.8 27.5 1.3 41.3 1.6 4.1.1 8.3-1.1 12.5-1.4 6.5-.5 13.2 0 19.6-1.2 9.9-1.8 19.7-4.1 29.3-7 12.5-3.8 17.2-10.4 7.5-22-.3-.3-.4-.7-.8-1.8zm94.4 85.8c-2.1-.6-2.6-.8-3.1-.8-13.2-1.5-18.7-7-19.5-19.7-.4-6 5.1-12.4 10.9-13.4 3.3-.5 6.8-1.2 9.5-2.9 10.1-6.3 19.7-13.5 29.9-19.6 10.3-6.1 20.8-10.7 33.8-8.1 12.8 2.5 20.3 10.9 27.3 20.2 3.2 4.3 3.8 10.9 7.6 14.3 4.5 4.1 7.9 8.4 8.6 13.9.8 5.9.3 12.1-.7 18-.6 3.5-3.6 6.6-4.9 10.1-3.2 9.2-8.3 16.5-17.9 20.3-3.9 1.5-7.2 4.6-10.8 7-1.6 1.1-3 2.6-4.8 3.4-5.1 2.3-7.2 6.7-3.6 10.5 5.2 5.6 7.1 12.4 8.8 19.2 3 11.4 6.9 22.8 5.2 36.4 3-2.4 5-4 6.9-5.5 8.2-6.5 14.9-5.8 20.3 1.6 3.5 4.8 3.3 12.5-1.4 18.5 6.5 1.4 7-4.3 8.9-8.5.5.1 1 .2 1.6.3.5 2.7.9 5.5 1.2 7.1 6.2.5 12.1 1 18.4 1.6v-17.3c0-5.5-.1-11 0-16.5.1-2.5 1.6-6.3.6-7.1-3.5-2.9-3.3-6.7-3.8-10.2-.7-4.6-1-9.3-1.1-14-.1-2.5 1.2-5 .9-7.4-.3-2.9-.1-6.3-5.4-6-4.2.3-9.8-.5-12.5-3.1-8.9-8.6-4.6-23.4 5.9-26.8 13.7-4.4 27.8-2.9 41.6-3.4 15.4-.5 30.9.7 46.3 1.1-1.8-5.4-3.3-9.7-4.7-14-2.3-7.4-.3-10.2 7.5-10.3 3.3 0 6.7.8 10 1.2 8.3.9 16.6 1.7 24.9 2.6 2.9.3 5.8.8 8.3 1.2 2.2-11.9 4.1-23 6.4-33.9 1.5-7.2 5.4-9.6 12.7-10 9.5-.5 18.9-1.6 29.1-2.5v-41c-.9 0-1.8-.2-2.7 0-12.7 3-25.4 6.3-38.2 8.9-5 1-10.4.6-15.6.8-16.2.4-32.3 1.2-48.5 1-18.3-.2-36.5-1.3-54.8-2-8.7-.3-17.3-.5-26-.9-5.3-.2-10.5-1-15.7-1.2-5.6-.2-11.2.1-16.8-.1-10.9-.3-21.7-1-32.6-1-8.9 0-17.8 1-26.8 1.4-7 .3-14.1.2-21 .9-1.5.1-4.1 2.9-4 4.3.9 9.4 2.6 18.7 3.8 28.1.2 1.5-.5 3.1-.8 5-1.5-.5-2.4-.6-2.7-1.1-7.7-10.2-15.2-20.5-22.9-30.6-1.2-1.5-3.1-3.4-4.7-3.5-5.2-.2-10.4.4-15.6.8-5.4.4-11.3 2.3-16.2.9-7.6-2.1-14.2 2-21.8.3.5 1.8.6 2.7.9 3.5 2.8 6.7.2 13.7-5.9 17.3-13 7.7-27.7 9.4-42.8 12.5-.7 6.9-1.4 14-2.3 22.2 14-9.5 29-11.2 43.8-9.1 15.3 2.2 27.9 10.8 36.3 22.8 3.8-1.3 6.8-3.3 9.8-3.2 3.4.1 8.4 9.6 7.2 12.9-.4 1.3-2.1 2.4-3.5 2.8-.6.2-2.3-1.4-2.7-2.5-.9-2.2-1.2-4.7-2.1-8.2-1.7 1.9-2.8 3-3.8 4.2-1.1 1.4-2 3-3 4.5-1.8-1.3-4.1-2.4-5.3-4.1-6.3-8.6-13.2-15.8-24-19.6-12.9-4.5-25.7-4.9-38.5-2.2-7 1.5-14.1 4.2-18.6 11.7-4.3 7.4-7.1 14.6-9 23.1-2.8 12.3-1.3 23.2 4.2 34 1.3 2.6 2.9 5.5 5.1 7.1 7.5 5.5 15.3 10.4 22.9 15.7 2.2 1.6 5.4 3.4 5.8 5.6.8 3.7 2.9 4.6 5.8 5.2 6.7 1.4 13.3 3.1 20 4.3 3.9.7 8 .7 12.3 1-.3-2.8 0-5.1-.9-6.9-2-4.4.7-5 3.8-6.6 6.8-3.5 13.3-7.8 20.2-11.9-6.9-5.9-13-11.2-19.6-16.8 3.2-2.4 5.9-4.4 9.9-7.4-1.8 11.5 4.4 15.7 12.5 19.5 0-3.5-.5-6.7.1-9.6 1-4.2-2.7-11.3 7.5-10.7-1.4-2.9-1.8-5.4-3.3-6.5-5.3-3.7-5.9 3.3-10.7 5.2 0-3.4-1.1-7 .2-8.9 3.2-4.8 1.5-9 .5-13.6-.4-1.9.1-4 .2-6 1-.1 2-.3 3-.4 1.9 6 3.8 11.9 5.9 18.6.1 0 1.4-.1 2.5.2 6.8 1.5 10.4 10.6 5.2 14.6-3.7 2.8-3.4 5.7-3.9 9.2-1.1 7.1-2 14.2-9.7 18.4-6.5 3.5-12.2 8.4-18.4 12.8 9.2 3.5 13.1 13.3 8.5 17.4 2.3 9.6 4.3 18.7 6.8 27.5 1.1 3.8.5 9.5 7.2 9.2 2.7-.1 5.5-.6 8.2-.6 3.9.1 7.8.5 11.7.8v1.8c-6.7 4.9-14.7-.6-21.7 2 .7 2.6 1.7 5.2 1.9 7.8.2 3.1-.4 6.3-.6 9.5-.1 1.1-.3 2.2-.3 3.2.2 6.1-.3 12.2.8 18.1.9 4.7-1.9 7.4-4.5 8.2-5.2 1.5-3.8 4.6-3.8 8.5 9.3-1.2 18.1-2.9 26.9-3.3 9.1-.5 18.2.3 27.4.5 0-4.2-.4-9.4.1-14.4.5-4.2 2.5-8.2-3-10.9-1.2-.6-.8-4.1-1.4-6.2-.4-1.4-1-3.5-2-3.9-6-2.1-12.1-4-18.3-5.4-5.4-1.3-5.9-2.2-3.1-7 3.6-6.1 9.1-9.7 15.1-13.1 3.1-1.8 6.2-4.3 8.1-7.3 2.3-3.6 3.6-8 5-12.1.4-1.1-.2-2.5-.3-3.8-1.1.4-2.5.4-3.2 1.2-9.1 9.6-18 9.4-27.7 3.6-9.4-5.6-11.6-13.3-5.1-21.9 2.7-3.6 7.7-5.5 12.1-8.5.1.5 0-.5-.3-1.3-3.7-10.5-3.5-10.8 5.8-17.6 1.1-.8 1.9-2.8 1.8-4-.9-6.2-1.8-12.4-3.6-18.3-1.2-4.2.4-5 3.8-4.8 3.6.2 7.1.6 11.7 1.1-4-6.4-6.4-12.1-1.8-18.7-7 2.5-8.6 6.4-5.5 11.1.5.8.6 2.4.2 3.2-.4.6-2 1.1-2.8.9-4.6-1.4-6.4-9.1-2.8-12.3 3.1-2.7 6.7-4.7 10-7.2 2.3-2 3.7-3.9 5.8-6.2zM10.4 452.6c.9.3 2.1 1 3.3.9 18.4-.1 36.8-.5 55.1-.6 19.2-.1 38.4 0 57.6 0 5 0 9.9.1 14.9.1 8.8 0 17.6-.2 26.4-.1 7.1.1 14.2 1 21.4 1 5.8 0 11.6-1 17.3-1.1 14.8-.4 29.7-.7 44.5-.8 23.3-.2 46.6-.2 69.8-.1 20.5.1 41 .4 61.5.5 9.8 0 19.6-.4 29.4-.5 18.6-.1 37.3-.2 55.9 0 13.3.1 26.6.8 39.9.9 8 .1 16-.7 24-.7 16.7 0 33.4.3 50.1.3 4.3 0 6.6-1.5 6.4-7.2-.7-14.8-.2-29.7-.2-44.6v-21.3c-2.1.1-3.8.4-5.4.3-6.6-.6-13.2-1.5-19.8-2-11.8-.9-23.6-1.4-35.3-2.6-9.2-.9-18.3-2.8-27.5-4.1-6.2-.9-12.5-1.6-18.7-2.1-3-.2-7.6-.8-8.8.8-5.8 8.1-14 5.7-21.4 5.6-6.7-.1-13.4-1.1-19.9-2.3-1.9-.3-3.7-2.6-5-4.3-.8-1 0-3.1-.8-4.3-3.9-6.3-3-13.5-3.6-20.3-.3-3.5.5-7.5-5.5-5.1-2.1.8-4.7.2-7.1.1-5.2-.2-10.5-1.2-15.7-.7-5.1.5-10 2.4-16.4 4.1 5.2 1.2 9.6 1.4 12.9 3.3 3.2 1.9 4.9 1 6.2-1.4 2.1-3.6 4.4-2.7 6.3-.4 1.4 1.7 2.4 4 2.7 6.2 1 8-3.4 14.4-6.6 21.2-2.2 4.6-4.8 5.1-9.5 2.8-3.4-1.6-7.2-2.3-10.8-3.3-.2.5-.4 1.1-.5 1.6 3.3 2.1 6.7 4 9.8 6.4 1.2.9 2.4 3.2 2 4.4-2 7-4.5 13.8-6.9 20.9 1 0 3.1.1 5.1 0 4.6-.3 10.1-2.4 13.6-.6 4.2 2.1 7.6 1.7 11.6 1.4 5.6-.4 11.4-.1 16.9-1.1 7.9-1.4 15.3 1.4 23 1 4.4-.2 9.3-2.1 12.9-.7 4.5 1.8 8.2 1.8 12.7.9 1.6-.3 3.5 1.5 5.3 2.3-1.1 1.3-2.1 2.9-3.4 3.9-.8.6-2.2.4-3.3.4-7.6.1-15.1 0-22.7.2-9.3.2-18.7.5-28 .8-8.2.3-16.4 1.1-24.5 1.2-5 0-10.2-2-15-1.1-7.6 1.3-14.8 2.1-22.2-.1-1.6-.5-4.2-.5-5.3.4-6.6 5.6-14.8 4.7-22.4 5.8-7.5 1.1-15.2.6-22.7 1.4-9.3 1.1-19-3.7-22.9-12.2-5.9 0-11.9.1-17.9 0-2 0-10.8 1.4-12.2 2.4-8.4 6.2-18 3.8-27.2 4.1-1.9.1-4 .3-5.5 1.2-6.3 4.1-12.5 8.4-20.6 7.6-10.9-1.1-22-1.7-32.6-4.2-5.5-1.3-14.5.7-14.9-9.6-10.1 2.4-19.9 5.3-27.7-.4-5.9.6-10.4 1.1-15 1.5-.2-.7-.5-1.5-.7-2.2 2.7-1.1 5.3-2.2 8-3.3-5.4.4-10.6 1.9-15.9 3.2-1.9.5-4.2.5-6.1.1-1.7-.4-3.3-1.7-6.5-3.4 7.1-2 13.4-3.9 19.8-5.4 1.4-.3 3.4 1.9 4.9 1.7 16-2.2 32-4.6 48.3-7 .3-1.8.8-4 1.3-7-2.4-.4-4.9-.5-7.2-1.1-1.3-.4-3.3-1.6-3.4-2.5-.2-4 .4-7.9.5-11.9.1-3.2-.1-6.4-.2-9.7-.2-4.5-.6-9.1-.5-13.6.1-4.8 1.2-9.7.9-14.5-.3-3.7-2.1-7.2-3.7-12.3-.8 2.6-1.2 4.3-2 5.9-.5 1.1-1.3 2.6-2.2 2.7-4.1.6-8.3.7-12.5 1-8.4.6-16.8 1.2-25.2 1.9-.6 4.4-2.3 8.7-6.9 9.2-9.8 1.1-19.8 1.5-29.7 1.7-3 .1-6-1.2-9.1-1.8-6.2-1.3-11.7.1-17.2 3.4-2.9 1.7-6.9 1.3-10.5 1.7-5.1.6-10.2 1.6-15.2 1.3-5.5-.4-11-2.1-16.2-3.2.1 35.6.1 71 .1 107.1zm419-92.6c6.1.8 12 1.9 17.8 2.2 10 .4 19.9 2.7 30.2.5 4.2-.9 9.1 1 13.7 1.6 5.6.8 11.3 1.6 16.9 2.5 5.6.9 11.2 2.4 16.9 2.9 11.8 1.2 23.7 1.9 35.5 2.8 7.8.6 15.6 1.4 23.4 1.6 1.6.1 4.5-1.6 4.5-2.7.5-5.6.3-11.3.2-17l-.9-45.1c-.1-6.7 0-13.4 0-19.6-53.8 1.4-106.9.1-161.1-3.9-.7 25.2-.5 49.4 2.9 74.2zM149.5 156.2c-12 0-22.7-.2-33.4.2-1.9.1-5.3 2.3-5.3 3.7-.4 7.1.2 14.2.3 21.3.2 14.3.4 28.7.5 43 0 2-.3 4.1-.2 6.1.6 12.1 1.7 24.3 2 36.4.3 18.1.1 36.2.1 54.7 12.1-.7 24.4-1.4 36.5-2.1v-58.6c-6.4-4.6-11.8-11.5-14.9-19.6-4.2-11-3.4-22.6-1-34 .2-1.2 1-2.8.5-3.6-2.3-3.8-.1-6.5 2.3-8.4 2.9-2.3 2-7.4 7.5-8.2 2.1-.3 3.6-5.8 5.2-8.9-.1-7.4-.1-15.2-.1-22zm197.3 37c.5-.4 1-.8 1.4-1.3-1.4-1.9-3.1-3.7-4.1-5.8-.7-1.3-.4-3.1-.6-4.7 1.3.6 2.8.9 3.9 1.8 1.5 1.2 2.6 2.7 3.9 4.2 2 2.3 4.4 4.3 5.9 6.9 1.6 2.7 2.9 5.8 3.4 8.9.6 3.9 1.2 8.2.1 11.8-1.9 6.2-5 12.1-7.6 18.1 4.3 1.7 5.6-11.9 11.2-2.1 3.2-.7 3.9-6.9 8.2-3.9 9-5.1 13.1-11.9 6.9-22.9-.5 3.7-.9 6.4-1.4 9.4-6.9-1.6-13.8-3.3-14.9-11.6-.9-6.8-1.2-13.7-.8-20.5.2-4.1 4.2-5.2 7.8-3.2 2.5 1.4 5.3 2.5 8.1 3.8.6-6.7-1.9-12.8-7.9-21.1-8.2-11.3-19.1-17.5-33.3-16.2-13.1 1.2-22.9 9.5-33.4 16.4-6.2 4-11.3 9.4-19.1 11.3-4.6 1.1-10.4 2.2-12.3 8.7-1.7 5.9 4.1 14.8 10.2 14.1-.5-2.2-1.8-4.6-1.5-6.7.5-3.4 2.1-6.7 3.4-10 .1-.1 2.7.2 3 .9 1 2.1 1.5 4.5 2.2 6.8.5.9-.2 2.2-.7 3.5-.3 1-.2 2.2-.3 3.3 1.2-.2 2.4-.3 3.6-.7.8-.3 1.8-.6 2.3-1.3 2.8-3.6 5.8-3.2 8.7-.4 1.8 1.7 3.2 3.8 5 5.4 1.5 1.4 3.4 2.3 5.1 3.4.2-.4.4-.8.7-1.3-1.8-2.1-3.9-4-5.4-6.3-.6-.9-.7-3.1-.1-3.6.9-.8 2.8-1 3.9-.6 1.2.5 1.7 2.2 2.8 3.1 3.2 2.5 5.7 6.5 11.3 6.2-1.7-4.4-9.7-6.1-2.4-12.8 3.2 2.8 6.3 5.9 9.8 8.7 1.3 1 3.1 1.4 4.7 2.1.2-.4.4-.9.6-1.3-3.2-2.3-7.1-4.3-3.9-9.9 4.1 3.3 7.9 6.3 11.6 9.4zm240.8 61.9c-3.4 0-6.5.2-9.6 0-10.6-.8-21.2-1.9-31.8-2.4-11.9-.5-23.8-.7-35.7-.6-13.1.1-26.2.6-39.3.9-14.2.4-28.3.6-42.5 1.2-2.9.1-6.3 1-6.4 5-.1 4.4-.1 8.8.4 13.1.3 3.4 2.2 5 6.2 4.9 15.8-.3 31.5 0 47.3 1.9 8.8 1.1 17.8.8 26.8 1 12.7.2 25.5.1 38.2.3 13.8.2 27.6.6 41.4 1.1 3.8.1 5.2-1.2 5.1-5-.3-6.8-.1-13.6-.1-21.4zM275.4 237c.9 6.4 1.6 12.1 2.7 17.6.3 1.5 1.6 3 2.8 4.1 5.4 4.9 8.9 10.6 9.1 18.3.1 4.4-2 7.3-4.3 10.6-3.7 5.4-1 10 5.6 10.1 3.1.1 6.3.1 9.4.5 10.7 1.5 21.3 3.3 32.1 4.9 1.3-22-1-41.8-8.1-59.9-16.8-2-33-4.1-49.3-6.2zm19.1-34.3c-1.9 4.2-3.1 7.7-5 10.8-4.1 6.7-1.4 18.2 6.1 20.3 6.9 1.9 14.3 1.7 21.5 2.5 3.7.4 7.6.2 11.1 1.3 1.3.4 1.2 4.3 2.5 6 1 1.4 3.1 2.2 4.9 2.6 1.2.3 2.8-.3 4.1-.8 4.9-1.6 9.8-3.4 14.7-5-6.1-.6-8.4-2.2-7-5.6 1.6-4.1 3.4-8.2 5.4-12.1 3.9-7.6 6.1-15.2.5-23-.6-.9-2.1-1.8-3.1-1.7-6 .7-12.1 1.6-18 2.8-5.8 1.1-13.5-.2-13.4 9.2 2.1-.1 4.4-.2 6.6-.4v2.2c-5.2 6.9-9.9 4.6-14.3-1.9-1.1.8-2.2 1.7-3.3 2.5-4.1-4.6-3.5-7.2 1.8-10.2-5.5 0-11.1.3-15.1.5zm-102 120.7c2.8-2.6 5.5-5.2 8.6-8 2.8 5.2 5 9.3 7.2 13.4.6 0 1.1-.1 1.7-.1 1.6-4 3.1-8.1 4.9-12 .6-1.3 1.9-3.1 3-3.2 1.2-.1 2.8 1.3 3.8 2.4 2.4 2.7 4.6 5.6 6.9 8.5l1.5-.6c1.9-12.4-5.9-22.6-8.3-33.9-2 2.1-4 4.2-6.3 6.6-2.1-2.4-3.6-4.2-5.8-6.7-.1 1.9-.1 2.7-.3 3.4-1.1 6.7-4.2 8.2-10.4 5.3-1.6-.7-3.3-1.2-5-1.7-6.7-1.9-13.4-3.8-20.2-5.8-1 2.6-2.3 5.3-3.2 8.2-2.3 7.6-4.5 15.3-6.5 23.1-.6 2.3-.9 5.6 2.6 6.1 5.8.8 11.7 1 17.6 1.3 2.9.1 4.1-.9 3.4-4.3-.7-3.5-.1-7.1-.1-10.8 8.2.5 1.5 7 4.9 8.8zM587 208.2v-51.7c-9.7.7-18.3 1.5-26.9 1.7-4.4.1-7.7.9-8.7 5.7-2.2 10.9-4.3 21.8-6.7 33.9 6.4-1.8 12.1-3.7 17.9-4.8 2.8-.5 6.7-.6 8.7.9 5.8 4.4 10.8 9.7 15.7 14.3zM441.7 234c-4.8.3-8.6.9-12.4.6-6.3-.5-13 5.2-18.9-1.2-.2-.3-1.1-.1-1.6 0-3 .3-6.1.6-9.1.9 1 7.5 2.2 8.5 9.8 8.9 4.7.2 9.4.9 14.1 1 9.6.2 19.2.5 28.6-.4 2-.2 7.1-.3 7.5-5.6.3-5.3.3-9.7-5.7-11.5-4.4-1.3-8.8-3.2-13.3-3.5-10.6-.7-21.3-.7-32-.9-6-.1-7.9 3.8-8.9 9.2 5.2-.9 10-2.3 14.8-2.5 4.5-.2 9.6-3.9 13.7 1 3.5 4.1 9.9-3.3 13.4 4zM65 324.8h-1.4c-2-34-4.1-67.9-6.1-101.9.2-.1.3-.2.5-.2l2.7 7.5c.3-.1.6-.2.9-.2l-6.9-51.3c-1.2 53.2 4.3 106.2 1.8 159H74c-.8-13.8-1.6-27.1-2.4-40.4-.1-1-.6-1.9-.9-2.9-.2.2-.4.5-.6.7v39.7c-.5 0-1 .1-1.5.1-.6-12.1-1.2-24.3-1.8-36.4H65v26.3zm497.3-116.7c.8-.5 1.7-.9 2.5-1.4 7.1 11.4 14.3 22.7 21.4 34.1l1.5-.9c-1.4-10.6 2-22.3-7.9-31-3-2.6-5.1-6.2-8.3-8.6-6.8-5-13.9 0-20.8.3-5.5.2-11.1 1.4-16.6 1.4-3.8 0-7.7-1.3-11.5-1.9-.1.4-.2.9-.3 1.3 6.3 3.5 12.5 7.1 20 11.3-1.5-2.6-2.5-3.7-2.8-5-.2-.8.6-2.1 1.4-2.6.6-.4 2.1 0 2.7.5 4.9 4.6 9.6 9.5 14.6 14 4.8 4.4 9.9 8.5 15.5 13.2-3.9-8.5-7.6-16.6-11.4-24.7zM24.1 239.6c1-1.9 1.6-2.5 1.6-3.2.2-10.8.8-21.5.4-32.3-.2-6.3 4.8-3.9 7.3-5.7 1.3 1.8 3.4 3.5 3.7 5.5 1.1 7.5 1.6 15.1 2.4 22.7.5 0 1 0 1.5-.1v-17.3h1c.4 2.1.7 4.3 1.3 7.8 3-8.2 1.9-12.9-2.7-17.4-.9-.8-1.1-2.6-1.1-3.9-.1-5.6 0-11.2 0-16.7v-13.8c3.2.4 5.5.9 7.8.9 1 0 2.9-1.2 2.8-1.8-.2-4.3-.8-8.5-1.3-12.2-8.6-2.8-17-5.4-25.4-8.1v6.5c2-.5 3.9-1.6 5-1.1 1.7.8 4.4 3 4.1 4-2.6 10-.5 20-.8 30-.2 6.4-.4 6.7-7.7 5.8.1 16.3.1 32.7.1 50.4zm326 101c-8.5-.5-8.1-.4-8.9 6.8-.4 3.5-2.9 6.7-4.3 10-1.5 3.4-3.2 6.7-4.3 10.2-.8 2.5-.7 5.3-1.2 7.9-1.4 7.1-1 7.8 6.7 8.1-.1-2.3-.4-4.7-.3-7 0-1.2.2-2.9 1-3.5.8-.6 2.6-.5 3.7 0 2.7 1.3 5.2 3 8.5 4.9 3.7-9.8 7.2-19 10.7-28.5-4.4-.8-7.8-1.5-11.6-2.2v-6.7zm-325-59.3v13.4c2.2-6 7-5.2 10.9-4.4 3.6.8 3.8 4.1 3.5 7.7-.4 4.5.4 9.1.6 13.7h1.4c0-13.4-.7-26.9.2-40.3.9-13.5-1-26.8-.8-40.2-2.4 7.8-2.4 7.8-15.5 8.9-.4 1.5-.9 3.1-1.6 5.4 5.4-2 6.3.3 6.8 4.6 1.2 9.2 3.6 18.2 4.9 27.4.3 1.8-1.6 4.7-3.3 5.7-1.1.7-3.7-.9-7.1-1.9zm318.4 21c.6 9.1.9 17.9 1.8 26.6.6 6 4.6 9.9 10.6 10.9.5-1.6.9-3.2 1.4-4.7 1.3.3 2.2.6 3.4.9-2.6-7.5 3.5-3.7 6.9-5.2-2.1-1.1-3.7-1.9-5.6-2.9 2.6-2 4-3.1 5.5-4.3-11.9-3.4-4.4-14.8-9.5-21.3h-14.5zM89.7 277.5c0 3.5.1 6.1 0 8.6-.7 9.6-1.7 19.1-2 28.7-.1 4.5-2.5 5.9-5.8 4.6-6.2-2.3-6.2.7-5.3 5.1.2 1.2.3 2.4.4 3.6.5-.3.9-.7 1.4-1 1.7 1.7 3.6 3.3 5 5.2.5.6-.2 2.1-.3 3.1-1.9-.6-3.7-1.1-6-1.8v6c10.2-.5 20.2-1 30.3-1.5-.1-2.6-.2-4.5-.3-6-3.6.2-6.7.5-9.7.5-8.4 0-10-2.1-8-10.1 3.6-13.8 6.1-27.7 5-42.1-.3-4.4-2.9-5-5.7-5.5-4.1-.7-8.4-.7-12.7-1v6c4.2-.6 8.4-1.4 13.7-2.4zM277 264c-3.9-3.3-6.1-2.8-7.8 1.3-2.5 5.9.6 10.6 3.2 15.5.6 1.1.4 2.5.6 3.8-1.2-.1-2.4-.1-3.6-.3-4.2-.7-8.6-.6-10.9 3.3-2.3 3.8-3.5 8 .9 11.9 5.4 4.8 11.5 6.5 18.4 5.7 2-.2 3.9-1.7 5.4-2.3-1.7-2.4-3.4-3.9-3.9-5.8-.9-3.3-1-6.8-1.5-11.1 1.9-1 4.7-2.6 7.6-4.1-1.9-.8-3.6-.7-5.1 0-5.8 2.8-5.8-2.9-7.2-5.3-1.9-3.2 1.1-3.8 3.7-4 .7 0 1.3-.6 2-.8l3.6-1.5c.1-.1-.2-1-.3-1.5-1.3.3-2.5.6-3.8 1-2.9.9-5.8 2-8.2-2 2.2-1.4 4.4-2.5 6.9-3.8zm-121.5.6v56c.5.1.9.3 1.4.4 1-1.4 2.3-2.6 2.8-4.1 2.6-7.5 4.9-15.2 7.5-22.7 1.2-3.6 4-6.9-.5-10.4-.7-.5.5-3.9 1.4-5.7.8-1.4 2.5-2.3 4.2-3.7-5.5-3.2-10.5-6.1-16.8-9.8zm-71.2-76.3c.4 1.5 1.1 2.8 1.1 4.1.6 9.6 1 19.2 1.6 28.9.4 6.2-2.6 8.8-8.3 6.8-3-1-4.3-.7-4.3 2.6-.1 8.5-.4 17-.4 25.5 0 1 .7 1.9 1 2.9.5-.1 1.1-.1 1.6-.2 0-7 .1-13.9-.1-20.9-.1-3.6 1.2-5.1 4.8-4.7 4.2.4 8.4.7 11.3.9v-43.6c4.4 1.5 3.9-1.1 3.1-4.8-5.3 4.4-5.6-1.1-7.2-2.8-2.9 0-5.3-.5-7.5.1-4.7 1.2-5.9-.1-5-4.8.4-1.9-.5-4.2-.7-6.3-.6.1-1.1.2-1.7.3.7 6.4 1.3 12.8 2.1 19.7 2.8-1.2 5.1-2.2 8.6-3.7zm-23.3 19c.5-.1.9-.2 1.4-.3-.1-16.3-4.9-32.3-3.9-48.7 5.5 26.9 7.8 54.2 9.5 81.5.9-.1 1.8-.2 2.7-.2-2-26-4-52.1-6-78.1 5.4 4.9.4 12.4 5.9 17.1 0-7.1-.6-14.1-1.8-21.1-.2-1.3-2.6-2.7-4.2-3.1-3.1-.8-6.3-.9-9.9-1.3-.4 2.5-1.1 5.3-1.1 8.1 0 4.6 0 8.8 2.7 13.5 2.7 4.6 2 11.2 2.7 16.9.7 5.2 1.3 10.4 2 15.7zm126.7 126c-7.4 3.2-15.2-1.1-22.1 1.3.9 5.9 1.1 10.8 2.6 15.2 1.3 3.7 4.1 6.9 6.2 10.3 4.8-2.9 9.9-5.5 14.3-9 1.2-.9.7-4.4.6-6.6-.3-3.4-1-6.7-1.6-11.2zm145.5 4.3c-1-10.5-12.3-17.7-20.2-13.6-12.3 6.3-15.9 21.9-10.3 32 3.2 5.7 7.8 7.8 13.2 6.1-1.7-3.8-3.4-7.6-4.6-10.4-2.2-1-4.4-1.2-5.1-2.4-.9-1.5-1.3-4.2-.5-5.5.7-1.2 3.3-1.5 5.1-2 1.3-.4 2.7-.4 4.1-.5-.5-1.4-1.3-2.8-1.5-4.2-.3-1.9-1-4.3-.2-5.6 2.2-3.7 4.6-2.9 7.7 2.7 5.4-5.1 8.6-.3 12.3 3.4zM199 332.3c-1.7 5.1-4.3 9.3-3.9 13.1.6 5 6 3.2 9.6 3.7.7.1 1.4-.4 2.1-.4 5.9-.3 12-1.6 17.7-.7 5.2.8 9.6.5 14.4-2.1-.6-3.7-1.2-7.3-1.8-10.9-.4-.1-.9-.2-1.3-.3-1.7 3.7-3.3 7.4-5.6 12.5-3.8-6-6.9-10.9-10.4-16.3-2.7 5.6-4.9 10.3-7 14.8-8.5.2-8-8.1-13.8-13.4zM84.4 273.1c1.8-1.3 2.7-2.5 3.6-2.5 5.3-.2 5.4-4.8 5.8-7.8 1.1-7.9 1.1-15.9 1.5-23.8-3.7-.5-7.5-1-12.2-1.6-1.4 12.1-3.3 23.6 1.3 35.7zm-40.6 41.3-1.8-.6c-.4 6.5-2 11.5-9.8 10.6-1.5-.2-3.3 1.8-6.3 3.7v-18c-1 0-1.9.1-2.9.1.4 7.7.8 15.3 1.2 23.6 2.5-.9 3.9-1.4 6.2-2.2.9 3.4 1.6 6.4 2.6 9.3.3 1 1.4 2.5 2.2 2.5 2.7 0 5.6 0 8-1 1.4-.6 2.9-3.2 2.8-4.8-.3-4-1.7-7.9-2.1-11.9-.4-3.8-.1-7.6-.1-11.3zm455-114.8c2.3 5.1 4.6 7.6 9.1 7.6 2.7 0 6.3-.1 7.8 1.5 3 3.2 5.1 7.3 7.2 11.3 2.5 4.6 4.3 9.5 7 14 1.4 2.5 4.6 4 5.8 6.5 2.9 5.6 6.9 3.2 11.8 3.2-1.5-2.3-2.3-3.6-3.3-4.9-6.4-8.3-13.1-16.3-19.3-24.7-6.2-8.8-16.2-10-26.1-14.5zM316.6 371.9c-5.5-1.8-10.2-3.1-14.7-4.8-3.4-1.3-6.1-.1-6.4 3.7-.3 3.2-.5 6.5-.2 9.7.1 1.3 1.4 3.4 2.5 3.5 5.5.9 11 1.2 17.4 1.8.5-5.3 1-10.3 1.4-13.9zm64-44.7c2.7-.5 6.1-.7 6.1-1.3.6-4.8 1.1-9.8.5-14.6-.2-1.5-4.3-3.8-6.2-3.5-5.5 1-11.4 2.1-13.4 9.5 1.8 1.1 3.7 2.9 5.8 3.2 5.7.8 3.9 5.6 4.9 8.7.2.6-3 2.4-4.6 3.7l-2.1 1.5c.2.5.5 1 .7 1.4 3.6-1.6 7.3-3.2 10.6-4.7-1.2-2-1.8-2.9-2.3-3.9zm-205.1 60.7c-.1 1.2-.3 2.5-.4 3.9-.6 5.6 2.1 8.3 7.9 7.6 3-.4 5.9-1.4 8.8-1.8 5-.5 8.2-2.3 7.4-8-.1-.9.6-1.8.9-2.9-8.3.4-16.2.8-24.6 1.2zm391.3-143.4c-13.4-11.5-26.2-22.6-38.7-33.3 6.3 11.5 19 19.5 22.4 34.2 4.9-.3 10.5-.6 16.3-.9zm-485 70.6c.5-2.2 1.2-4 1.3-6 .6-6.9 1-13.8 1.4-20.7.1-1.8 0-3.6-.4-5.4 0-.2-2.5-.4-3.2.1-1.8 1.4-4.3 3.2-4.5 5-.6 6.5 0 13-.5 19.5-.4 4.5.8 7 5.9 7.5zm15.5-145.4v-14.8c-4.9 3.4-2.8 7.4-3.2 10.6-.3 3.3 0 6.6 0 9.9v9.9c.9-1 1.7-2 2.7-3.1.8 2.7 1.4 5.1 2.1 7.2h5.7c-.3-7.1-.6-14-.9-21.3-2.2.5-3.7.9-6.4 1.6zm92.3 243.9c0 .5.1 1 .1 1.5 12 2.7 24 5.1 35.6-3.1-.9-1-1.6-2.5-2.8-2.9-2.2-.9-5-.6-7-1.7-3.2-1.9-5.3-1.3-7.5 1.4-3.1 3.8-11.3 6.7-14.1 5.5-1.3-.6-2.9-.5-4.3-.7zM74.4 196.5c0 7.6-.3 14.6.2 21.6.1 1.7 2.4 3.4 3.7 5 1.3-1.7 3.6-3.3 3.6-5 0-7.7-.7-15.3-1.2-23.3-2.2.6-4.1 1.1-6.3 1.7zm26 120.1c-1.7.1-4.6-.1-4.7.3-.7 3.2-.8 6.6-1.2 9.9 4 .3 7.9.6 12.8.9-2.3-8 2.5-15.7-4-21.2h-2.1c-.3 3.5-.6 7-.8 10.1zm130 89c-.1.5-.1.9-.2 1.4 10 2 19.8 3.3 29.2-3.6-3.8-2.1-7.9-2.6-11.5-4.3-4.6-2.2-6.7-.3-8.4 3.5-1.3 2.9-3.2 4.1-6.5 2.9-.7-.3-1.7 0-2.6.1zM83 156.1c-.2 2-.4 3.7-.6 5.3-.5 4.5-1.2 9.1-1.3 13.7 0 1.1 2 2.8 3.4 3.1 1.2.2 3.9-1 3.9-1.8.8-6.7 1.1-13.5 1.5-20.2-2.8-.1-4.9-.1-6.9-.1zM29.5 320.5c.5.3.9.6 1.4.9 1.7-1.8 4.8-3.5 5-5.3.4-5.9-.2-11.8-.7-17.7-.1-1.3-1.3-2.5-2-3.7-1.2 1.3-3.4 2.6-3.5 4-.3 7.2-.2 14.5-.2 21.8zm21.1-53.3c-.4.1-.7.1-1.1.2-.3 2.6-.5 5.3-.8 7.9-.6 5.3-1.3 10.5-1.5 15.8 0 1 2.1 2.2 3.3 3.3 1-1.4 3-2.8 3-4.2-.1-6.3-.6-12.6-1.1-18.8-.2-1.4-1.2-2.8-1.8-4.2zm53.9-45.1v-28.9c-2.2.4-3.9.7-4.8.9 0 7.6-.3 15.1.2 22.5.2 1.9-.9 7 4.6 5.5zm104.4 164.6c.1.7.1 1.4.2 2h22.3c-1.7-2.7-2.7-6.3-4.2-6.5-6.5-1-12.6 1.3-18.3 4.5zM20.4 174.8c0-7.7.1-15.7-.1-23.7-.1-3.5-.7-7-1.1-10.5-.5.1-1.1.2-1.6.2-3.4 7.6-.9 32.8 2.8 34zm129.3 148.6c-11.9.6-23.1 1.1-34.3 1.8-1 .1-1.9 1.3-2.9 2.1l.6 1.5c12.1-.7 24.3-1.3 36.6-2v-3.4zm22.3-42.7c-.2.4-.4.8-.7 1.2 2.9 1.6 5.7 3.7 8.9 4.7 6.6 2.2 13.6 3.5 20.2 6 3.9 1.5 4.6 0 5.3-3.1-11.4-3-22.6-5.9-33.7-8.8zm-67-54.1c-5.4 2.3-4 5.7-3.9 8.8.1 5 .2 10.1-.1 15.1-.1 1.8-1.2 3.5-1.9 5.4h5.9v-29.3zm-91.6-7.1c-.7-.3-1.4-.6-2.2-.9-.5 1.1-1.3 2.1-1.5 3.3-.5 3.5-.9 7-1 10.4-.1 4.2-.3 8.4.4 12.5.2 1.4 2.9 2.3 4.5 3.4-.1-1.5-.1-2.9-.2-4.4 0-.9-.1-1.7-.1-2.6.1-7.2.1-14.4.1-21.7zm-4.1 70.8V317c.5.1.9.1 1.4.2 1.8-9.5 3.7-19.1 5.7-29.4-3.4 1.1-5.1 1.7-7.1 2.5zm273.5 36.8c-3.5 2.3-6.5 4.3-9.6 6.3 9 8.7 10.4 8.7 15.7-.2-1.9-1.8-3.8-3.8-6.1-6.1zM31.5 203.7c-.6.1-1.2.2-1.7.4.2 3.6.7 7.2.7 10.8-.1 5.4-.8 10.7-.8 16.1 0 1.1 2 2.2 3 3.4.7-1.4 2.2-2.9 2.1-4.3-.4-6.8-1.2-13.5-2-20.2-.2-2.2-.8-4.2-1.3-6.2zm322.3 183c-.2 1.8-.4 2.7-.4 3.6-.2 7-.2 7 6.8 7.1 1.6 0 3.3.7 4.7 1.5 1.1.6 1.9 1.8 2.9 2.7.7-.8 1.9-1.6 1.9-2.3-.2-1.4-.7-3.3-1.8-4-2.6-1.8-5.6-2.9-8.4-4.5-1.8-1.2-3.4-2.6-5.7-4.1zm-325.3-107c.8-.4 1.6-.7 2.4-1.1-1.7-9.2-3.5-18.5-5.2-27.7-1.3 1.1-1.7 2.2-1.7 3.3.3 6.4.4 12.7 1.2 19 .3 2.3 2.2 4.3 3.3 6.5zm18.7-83.4c1.1-.4 2-.6 2-.8.3-8 .6-16.1.7-24.1 0-.4-2-1.1-3.1-1.3-.4-.1-1.5 1.1-1.5 1.7.6 8.1 1.3 16.1 1.9 24.5zm-29 145.3c.6-.1 1.2-.3 1.7-.4-.5-5.2-1-10.5-1.5-15.7-3.3-.4-6.3-.7-9.3-1.1v7.5c10.8-3.9 7.3 5.3 9.1 9.7zM9 215.8c4.8-1.5 5-7.9 0-26.7v26.7zm306.6 132.1c1 3.9 1.7 6.9 2.5 10.2 2.3-1.3 3.7-2 5.1-2.7-1.3-.9-2.6-1.8-5.1-3.5 10.5-1.9 8-9.7 10.4-16.1-2.4.8-4 1.3-5.6 1.9 2.5 6.2.4 12.2-7.3 10.2zm-209.7-61.7v-26.7c-4.7 8.2-3.6 23.8 0 26.7zm315.5 44.2c-6.7 0-12.7-.1-18.7.1-1.9 0-3.7.8-5.6 1.2.2.8.3 1.6.5 2.4H421c0-.5.1-1.7.4-3.7zM47 313.4c2.2-1.2 4.3-2.3 6.4-3.4-.2-3.5-.4-7.1-.7-11.9-1.9.8-5.3 1.4-5.4 2.4-.6 4.2-.3 8.7-.3 12.9zm250.3 5.6c1.5-1.3 2.1-1.9 2.8-2.4 4.1-3.1 5.9-11.2 13.8-6.4.4.2 2.1-1.8 3.3-2.8-1.1-.3-2.3-.5-3.4-1-4.4-2.1-7.9 1.1-11.1 2.7-2.7 1.5-7.2 3.7-5.4 9.9zm45.3 61.6c-.2 4.5-.4 8.7-.7 13.1h5.7c1.1-11.3 1.1-11.3-5-13.1zm40.9 3c-.4 0-.9-.1-1.3-.1-2.7 5.8-5.5 11.5-8.2 17.3.3.4.7.8 1 1.2 1.6-.7 3.9-1 4.6-2.3 2.7-5 4.1-10.4 3.9-16.1zm-358-228.7c-.4 0-.9 0-1.3.1v27.8c.4 0 .9 0 1.3-.1v-27.8zm474.2 76.8c.1-.6.1-1.2.2-1.8-11.5.6-23.1 1.2-34.6 1.8v1.9c11.4-.7 22.9-1.3 34.4-1.9zm-146.6 57.8c-2.8-2.6-4.6-5.6-6.1-5.5-2 .2-3.7 2.9-5.5 4.6 1.7 1.6 3.1 4 5.1 4.5 1.4.3 3.4-1.9 6.5-3.6zM188.6 415.3c-1.3-2.1-2.2-3.7-2.3-3.7-4.8 2-7.7-2.4-11.3-3.7-3.8-1.4-5.1-.1-6.6 3.1 6.5 1.4 12.7 2.7 20.2 4.3zM50.2 338h1.9v-22.2h-1.9V338zm277.1 60.8v1c.5.2.9.5 1.4.6 5.1.7 10.3 1.1 15.4 2.2 4.1.9 5.6.1 4.7-3.8h-21.5zM8.8 252c.1 3.8-1.7 8 3.8 8.2.6 2.6 1 4.6 1.5 6.7.6-.1 1.1-.1 1.7-.2 0-1.4.2-2.7 0-4-.3-2.1-1.7-4.3-1.3-6.1 1.1-5.1-1.7-4.9-5.7-4.6zM391 369.1l1.8.6c3.2-6.4 8.2-12.3 5.1-20.5-2.3 6.6-4.6 13.2-6.9 19.9zm-37.3-97.3c-2-2.1-3.2-3.4-4.4-4.6-1.9 2.3-4 4.5-5.6 7.1-.3.5 1.7 2.3 2.6 3.5 2.3-1.8 4.5-3.6 7.4-6zm-39.3 122c.4-.5.9-.9 1.3-1.4-1.1-.9-2-2.5-3.2-2.7-3.5-.7-7-1-10.6-1.1-2-.1-4 .4-6 .6 0 .5-.1 1.1-.1 1.6 6.2.9 12.4 1.9 18.6 3zm186.5-157.4c0-.5 0-.9-.1-1.4l-34.5 1.5c0 .5 0 1 .1 1.5 11.6-.5 23-1.1 34.5-1.6zM13.1 179.6c2.5-3.7 3-7.7.2-13-2.7 2-4.7 3.5-6.6 4.9.8.4 1.6.7 2.4 1.1 1.3 2.3 2.6 4.6 4 7zm304.6 132.6v5.3c2.8.4 5.5.8 8.7 1.2-1.3-5.4-3.8-7.4-8.7-6.5zm21.3-.8c-.5-.3-1-.6-1.4-.9-1.3 2.1-3.5 4.1-3.5 6.2 0 1.8 2.4 3.6 3.8 5.5.4-.2.8-.5 1.1-.7v-10.1zM78.1 154.2c-4.1 2.7-4.9 10.3-1.6 17.1.6-6.5 1-11.4 1.6-17.1zm246.1 153.2c1.8 2.5 3.5 4.7 5.3 7.2 1.8-1.9 3.1-3.3 5.6-5.9-4.8-.6-8.1-1-10.9-1.3zm-58.4 33.4c4.5 1.1 7.6 1.9 10.7 2.7.2-.3.4-.7.6-1-2.5-2-4.9-3.9-7.8-6.2-.5.9-1.7 2.3-3.5 4.5zM49.9 200.5c-3.8 2.9-3.9 8.4 0 14.7v-14.7zm446.2 12c.4-.2.8-.5 1.2-.7-.5-4.4-.9-8.7-1.5-14.1-1.2 1-3.3 2.1-3.2 2.7.9 4 2.3 8 3.5 12.1zM50.3 234.6h-1.5v16h1.5v-16zm243.2 78.8c2.4-2.5 4.7-5.1 7.6-8.2-6.2-1-8 .9-7.6 8.2zM19.2 194.8c2.9-6.3 2.2-14.1-1.8-16 .6 5.3 1.1 10.3 1.8 16zm31.2 38.5v-12.6c-4.2 6.6-4.1 11.2 0 12.6zm174.9 161.5-.3-2.1c-4.6.5-9.2.9-13.8 1.4.1.8.2 1.7.3 2.5l13.8-1.8zm94.1-12.5c.8.1 1.5.1 2.3.2.2-5.2.5-10.4.7-15.6-.6 0-1.1 0-1.7-.1-.4 5.2-.9 10.3-1.3 15.5zM9.2 134.2c-.4.1-.9.3-1.3.4.7 2.6 1.5 5.3 2.2 7.9 1.5-1.6 3-3.2 4.7-4.9-2.7-1.6-4.2-2.5-5.6-3.4zM296 326.4c-3.1-.5-6-.9-9.5-1.5 4 7.1 5.4 7.2 9.5 1.5zm57.6-50.5c-1.2 2-2.8 3.7-2.5 4.5.9 2.4 2.7 4.6 4.1 6.9l1.5-.9c-1-3.1-1.9-6.2-3.1-10.5zm-7.7-10.3c-.1-.5-.2-1.1-.2-1.6-1.3 0-3.1-.5-3.8.1-1.7 1.5-2.9 3.6-4.2 5.5.6.5 1.2 1.1 1.8 1.6 2.1-1.9 4.3-3.8 6.4-5.6zm39.2 68c.4.6.8 1.2 1.1 1.8 2.5-1.3 5-2.6 7.5-4-4.7-2.6-7.4-1.6-8.6 2.2z"/>
  <path d="M595.3 2.7c-4.4-.4-8.7-1-13.1-1-23.2-.1-46.3 0-69.5 0-33.1 0-66.2 0-99.3.1-9.4 0-18.8.8-28.2.9-8.4 0-16.7-.7-25.1-.7-5.5 0-11 .9-16.5 1-5.2 0-10.3-.7-15.5-.7-15.5.1-31.1.4-46.6.5-3.6 0-7.2-.6-10.7-.6-24.9 0-49.7.2-74.6.2-11 0-21.9-.4-32.9-.2-10 .2-20 1.2-29.9 1.2-12.4-.1-24.6-.9-36.8-.9-15.1 0-30.3.6-45.4.6-10 .1-20.1-.7-30.2-.7-6.3-.1-12.6.5-19.9.8v32.7c0 41-.1 82.1 0 123.1 0 19.2.6 38.4.6 57.5 0 21-.5 42.1-.6 63.1-.1 15.4-.1 30.8 0 46.2.2 21.9.5 43.7.7 65.6.1 14.6.2 29.2.1 43.7-.1 8.9-.6 17.7-.9 26.6-.4-1.5-1-2.9-1-4.4V.5c197 0 393.9 0 590.9.1 1.3 0 4.7-2.3 4.4 2.1zM87.5 461.7c6.1-.3 12.1-.8 18.2-.8 46.1-.2 92.2-.2 138.2-.3l87.1-.3c69-.3 137.9-.5 206.9-.8 13.7-.1 27.4-.1 41.1-.1 5.4 0 10.7.1 16.1.1-.4.7-.6 1.9-1.1 2.1-1.2.3-2.5.1-3.8.1H87.5z" fill="#fff"/>
  <path d="M287.9 203.5c-2.2 2.3-3.5 4.2-5.3 5.6-3.2 2.5-6.9 4.5-10 7.2-3.7 3.2-1.8 10.9 2.8 12.3.8.3 2.4-.2 2.8-.9.4-.8.3-2.4-.2-3.2-3.1-4.7-1.5-8.7 5.5-11.1-4.7 6.6-2.3 12.3 1.8 18.7-4.6-.4-8.1-.9-11.7-1.1-3.4-.2-5 .6-3.8 4.8 1.7 6 2.6 12.2 3.6 18.3.2 1.3-.7 3.3-1.8 4-9.3 6.8-9.5 7.1-5.8 17.6.3.8.4 1.8.3 1.3-4.4 3-9.4 4.8-12.1 8.5-6.5 8.6-4.3 16.3 5.1 21.9 9.7 5.8 18.6 6.1 27.7-3.6.7-.7 2.1-.8 3.2-1.2.1 1.3.7 2.7.3 3.8-1.5 4.1-2.7 8.5-5 12.1-1.9 3-5 5.5-8.1 7.3-6 3.4-11.5 7-15.1 13.1-2.9 4.8-2.4 5.7 3.1 7 6.2 1.5 12.3 3.4 18.3 5.4 1 .3 1.6 2.5 2 3.9.6 2.1.2 5.6 1.4 6.2 5.5 2.8 3.4 6.7 3 10.9-.6 5.1-.1 10.2-.1 14.4-9.2-.2-18.4-1-27.4-.5-8.9.5-17.7 2.1-26.9 3.3-.1-3.9-1.4-7 3.8-8.5 2.6-.8 5.4-3.5 4.5-8.2-1.1-5.9-.7-12.1-.8-18.1 0-1.1.2-2.2.3-3.2.2-3.2.8-6.4.6-9.5-.2-2.6-1.2-5.1-1.9-7.8 7-2.6 15.1 2.9 21.7-2v-1.8c-3.9-.3-7.8-.7-11.7-.8-2.7-.1-5.4.4-8.2.6-6.6.3-6.1-5.4-7.2-9.2-2.5-8.9-4.5-17.9-6.8-27.5 4.6-4.1.7-13.9-8.5-17.4 6.1-4.4 11.9-9.3 18.4-12.8 7.7-4.2 8.6-11.3 9.7-18.4.6-3.5.2-6.4 3.9-9.2 5.2-4 1.5-13.1-5.2-14.6-1.2-.3-2.4-.2-2.5-.2-2.1-6.7-4-12.6-5.9-18.6-1 .1-2 .3-3 .4-.1 2-.6 4.1-.2 6 1 4.6 2.7 8.9-.5 13.6-1.3 1.9-.2 5.5-.2 8.9 4.8-1.8 5.4-8.8 10.7-5.2 1.5 1 1.9 3.6 3.3 6.5-10.2-.6-6.5 6.5-7.5 10.7-.7 2.9-.1 6.1-.1 9.6-8.1-3.8-14.3-8-12.5-19.5-4 3-6.7 5-9.9 7.4 6.6 5.7 12.7 10.9 19.6 16.8-6.9 4.1-13.4 8.4-20.2 11.9-3.1 1.6-5.8 2.3-3.8 6.6.8 1.8.6 4.1.9 6.9-4.3-.3-8.4-.3-12.3-1-6.7-1.2-13.4-2.8-20-4.3-2.9-.6-5-1.5-5.8-5.2-.5-2.2-3.6-4-5.8-5.6-7.6-5.3-15.5-10.2-22.9-15.7-2.2-1.7-3.8-4.5-5.1-7.1-5.5-10.8-7-21.7-4.2-34 1.9-8.4 4.6-15.7 9-23.1 4.4-7.5 11.6-10.2 18.6-11.7 12.8-2.7 25.6-2.3 38.5 2.2 10.8 3.8 17.7 11 24 19.6 1.3 1.7 3.5 2.7 5.3 4.1 1-1.5 1.9-3.1 3-4.5.9-1.3 2.1-2.4 3.8-4.2.9 3.6 1.2 6 2.1 8.2.4 1.1 2.1 2.7 2.7 2.5 1.4-.4 3-1.6 3.5-2.8 1.2-3.3-3.8-12.8-7.2-12.9-3-.1-6 1.9-9.8 3.2-8.4-12-21-20.6-36.3-22.8-14.8-2.2-29.8-.4-43.8 9.1.8-8.2 1.6-15.3 2.3-22.2 15.1-3.1 29.8-4.7 42.8-12.5 6.1-3.6 8.7-10.6 5.9-17.3-.3-.8-.5-1.7-.9-3.5 7.6 1.7 14.2-2.4 21.8-.3 4.9 1.4 10.8-.5 16.2-.9 5.2-.4 10.4-.9 15.6-.8 1.6.1 3.6 2 4.7 3.5 7.7 10.2 15.3 20.4 22.9 30.6.4.5 1.3.5 2.7 1.1.3-1.9 1-3.5.8-5-1.2-9.4-2.8-18.7-3.8-28.1-.1-1.3 2.5-4.1 4-4.3 7-.7 14-.6 21-.9 8.9-.4 17.8-1.3 26.8-1.4 10.9 0 21.7.7 32.6 1 5.6.1 11.2-.2 16.8.1 5.3.2 10.5 1 15.7 1.2 8.7.4 17.3.5 26 .9 18.3.7 36.5 1.8 54.8 2 16.1.2 32.3-.6 48.5-1 5.2-.1 10.5.3 15.6-.8 12.8-2.6 25.5-5.9 38.2-8.9.9-.2 1.8 0 2.7 0v41c-10.2.9-19.6 2-29.1 2.5-7.3.4-11.2 2.8-12.7 10-2.3 11-4.2 22.1-6.4 33.9-2.5-.4-5.4-.9-8.3-1.2-8.3-.9-16.6-1.7-24.9-2.6-3.3-.4-6.7-1.2-10-1.2-7.8.1-9.8 2.9-7.5 10.3 1.3 4.4 2.9 8.7 4.7 14-15.4-.4-30.9-1.6-46.3-1.1-13.9.5-27.9-1-41.6 3.4-10.6 3.4-14.8 18.2-5.9 26.8 2.7 2.6 8.3 3.4 12.5 3.1 5.3-.3 5.1 3 5.4 6 .3 2.4-.9 4.9-.9 7.4.1 4.7.4 9.4 1.1 14 .5 3.6.3 7.3 3.8 10.2 1 .9-.5 4.7-.6 7.1-.1 5.5 0 11 0 16.5v17.3c-6.3-.5-12.2-1-18.4-1.6-.3-1.6-.7-4.3-1.2-7.1-.5-.1-1-.2-1.6-.3-1.9 4.2-2.4 9.9-8.9 8.5 4.7-6 4.9-13.7 1.4-18.5-5.4-7.4-12-8-20.3-1.6-1.9 1.5-3.9 3.1-6.9 5.5 1.8-13.7-2.2-25-5.2-36.4-1.8-6.8-3.6-13.6-8.8-19.2-3.6-3.8-1.5-8.1 3.6-10.5 1.8-.8 3.2-2.3 4.8-3.4 3.5-2.4 6.9-5.4 10.8-7 9.6-3.8 14.6-11.1 17.9-20.3 1.2-3.5 4.3-6.5 4.9-10.1 1-5.9 1.5-12.1.7-18-.7-5.5-4.1-9.8-8.6-13.9-3.7-3.4-4.3-10-7.6-14.3-7-9.3-14.5-17.6-27.3-20.2-13-2.6-23.6 2-33.8 8.1-10.2 6.1-19.8 13.3-29.9 19.6-2.7 1.7-6.3 2.4-9.5 2.9-5.8 1-11.3 7.4-10.9 13.4.8 12.7 6.3 18.2 19.5 19.7.1.6.6.8 2.6 1.4zm-93.5 18.3c-2.3-5.4-5.6-7.7-10.4-6.6-5.6 1.3-7.5 6.2-8.6 10.6-1.8 6.9 7.3 14.5 13.5 11.8 1.4-.6 2.2-2.6 3.3-3.9-1.6-.1-3.2-.2-5.7-.3-4.6-2.8-5.5-7.3-1.8-13.1 3.1.4 6.4.9 9.7 1.5zm81.7 101.9c-.2-.5-.4-1-.6-1.4h-36.1c1.8 1.9 2.8 3.8 3.7 3.8 9.5.2 19 .2 28.5 0 1.5-.1 3-1.6 4.5-2.4z" fill="#fff"/>
  <path d="M10.4 452.6V345.3c5.2 1.1 10.7 2.8 16.2 3.2 5 .3 10.2-.7 15.2-1.3 3.5-.4 7.6 0 10.5-1.7 5.5-3.3 11-4.7 17.2-3.4 3 .6 6.1 1.9 9.1 1.8 9.9-.3 19.8-.6 29.7-1.7 4.6-.5 6.3-4.8 6.9-9.2 8.4-.6 16.8-1.2 25.2-1.9 4.2-.3 8.3-.4 12.5-1 .8-.1 1.7-1.7 2.2-2.7.7-1.6 1.1-3.3 2-5.9 1.6 5.1 3.5 8.6 3.7 12.3.3 4.8-.8 9.7-.9 14.5-.1 4.5.3 9.1.5 13.6.1 3.2.3 6.4.2 9.7-.1 4-.6 8-.5 11.9 0 .9 2.1 2.1 3.4 2.5 2.3.7 4.8.8 7.2 1.1-.6 3-1 5.2-1.3 7-16.3 2.4-32.3 4.8-48.3 7-1.5.2-3.5-2-4.9-1.7-6.4 1.4-12.7 3.4-19.8 5.4 3.2 1.7 4.7 3.1 6.5 3.4 1.9.4 4.1.3 6.1-.1 5.2-1.2 10.4-2.8 15.9-3.2-2.7 1.1-5.3 2.2-8 3.3.2.7.5 1.5.7 2.2 4.5-.5 9.1-.9 15-1.5 7.8 5.8 17.6 2.9 27.7.4.4 10.3 9.4 8.3 14.9 9.6 10.6 2.5 21.7 3.1 32.6 4.2 8 .8 14.2-3.5 20.6-7.6 1.5-1 3.6-1.2 5.5-1.2 9.2-.3 18.8 2.1 27.2-4.1 1.4-1 10.2-2.4 12.2-2.4 6 .1 12 0 17.9 0 3.9 8.5 13.7 13.3 22.9 12.2 7.5-.9 15.2-.3 22.7-1.4 7.6-1.1 15.8-.3 22.4-5.8 1.1-.9 3.6-.9 5.3-.4 7.4 2.2 14.7 1.5 22.2.1 4.8-.8 10 1.2 15 1.1 8.2-.1 16.3-.8 24.5-1.2 9.3-.4 18.7-.7 28-.8 7.6-.1 15.1-.1 22.7-.2 1.1 0 2.5.2 3.3-.4 1.3-1 2.3-2.6 3.4-3.9-1.8-.8-3.8-2.6-5.3-2.3-4.4.9-8.1.9-12.7-.9-3.6-1.5-8.6.5-12.9.7-7.7.4-15.2-2.4-23-1-5.5 1-11.3.7-16.9 1.1-3.9.3-7.4.7-11.6-1.4-3.5-1.8-9 .3-13.6.6-2.1.1-4.2 0-5.1 0 2.4-7.2 4.9-14 6.9-20.9.4-1.2-.9-3.5-2-4.4-3.1-2.4-6.5-4.3-9.8-6.4.2-.5.4-1.1.5-1.6 3.6 1.1 7.4 1.7 10.8 3.3 4.6 2.2 7.3 1.8 9.5-2.8 3.2-6.7 7.6-13.2 6.6-21.2-.3-2.2-1.3-4.5-2.7-6.2-1.9-2.3-4.2-3.3-6.3.4-1.3 2.3-3 3.3-6.2 1.4-3.3-1.9-7.7-2-12.9-3.3 6.4-1.7 11.3-3.6 16.4-4.1 5.2-.5 10.5.5 15.7.7 2.4.1 5 .7 7.1-.1 6-2.3 5.2 1.6 5.5 5.1.7 6.8-.3 14 3.6 20.3.7 1.1 0 3.2.8 4.3 1.3 1.8 3.1 4 5 4.3 6.6 1.2 13.3 2.2 19.9 2.3 7.5.1 15.6 2.5 21.4-5.6 1.1-1.6 5.8-1 8.8-.8 6.3.5 12.5 1.2 18.7 2.1 9.2 1.3 18.3 3.1 27.5 4.1 11.7 1.2 23.6 1.6 35.3 2.6 6.6.5 13.2 1.4 19.8 2 1.6.1 3.2-.2 5.4-.3v21.3c0 14.9-.5 29.7.2 44.6.3 5.7-2.1 7.2-6.4 7.2-16.7 0-33.4-.3-50.1-.3-8 0-16 .7-24 .7-13.3-.1-26.6-.8-39.9-.9-18.6-.2-37.3-.1-55.9 0-9.8 0-19.6.5-29.4.5-20.5-.1-41-.4-61.5-.5-23.3-.1-46.6-.1-69.8.1-14.8.1-29.7.4-44.5.8-5.8.2-11.6 1.1-17.3 1.1-7.1 0-14.2-.9-21.4-1-8.8-.2-17.6 0-26.4.1-5 0-9.9-.1-14.9-.1-19.2 0-38.4-.1-57.6 0-18.4.1-36.8.4-55.1.6-1.3.3-2.5-.4-3.4-.7z" fill="#fff"/>
  <path d="M429.4 360c-3.3-24.8-3.5-49-2.9-74.2 54.2 4.1 107.4 5.4 161.1 3.9 0 6.3-.1 12.9 0 19.6l.9 45.1c.1 5.7.2 11.4-.2 17-.1 1.1-3 2.8-4.5 2.7-7.8-.3-15.6-1-23.4-1.6-11.8-.9-23.7-1.6-35.5-2.8-5.7-.6-11.3-2-16.9-2.9-5.6-.9-11.3-1.7-16.9-2.5-4.6-.7-9.4-2.6-13.7-1.6-10.2 2.2-20.1-.1-30.2-.5-5.9-.3-11.7-1.4-17.8-2.2zm24.6-8.7c-1.9 3.7.2 4.3 3.3 4.3 12.2.3 24.5.8 36.7 1.1 7.4.2 14.8-.1 22.2.1 12.5.4 25 1.1 37.5 1.5 1.4 0 2.8-.9 4.2-1.4-1.4-.8-2.8-2.2-4.2-2.2-12.2-.5-24.4-.7-36.7-1-16.8-.5-33.6-.9-50.4-1.5-3.8-.1-7.6-.6-11.4-.8 6.1-2 12.2-1.2 18.5-.8 14.9.9 29.9.5 44.8.8 8.3.2 16.5.8 24.7 1 2.3.1 4.6-.8 6.9-1.2-.1-.6-.2-1.3-.3-1.9-22.9-.8-45.9-1.5-68.8-2.3 0-.7 0-1.4.1-2.1H505c8.9 0 17.9-.4 26.8-.1 7.4.2 14.9 1.8 22.3 1.6 2.6-.1 8.3 3.1 8.7-4.4-1.5-.2-3.1-.5-4.7-.5-5.7-.1-11.4-.1-17.1-.1-9.7-.1-19.4-.3-29.1-.3-6.1 0-12.2.3-18.4.4-7.7.1-15.4 0-23 .2-1.1 0-2.6 1.2-3.1 2.2-.3.6 1.2 2 1.5 2.4H457c-4-.1-8-.5-12-.2-1.2.1-2.3 2-3.5 3.1 1.2.7 2.4 1.9 3.7 2.1 3 .2 5.9 0 8.8 0zm-18.5-28.1c0 .9.1 1.8.1 2.8 1.6.1 3.3.4 4.9.2 17.3-1.5 34.5-3 51.8-4.5 12.6-1.1 25.1-2.1 37.7-3.2.9-.1 1.8-.4 2.6-.4 8.6-.2 17.3-.7 25.9-.4 5.1.2 7.4-.5 7.7-4.8-43.7 1.5-87.2 5.5-130.7 10.3zm122.1-1.5c-9.3 0-17-.3-24.7.1-12.1.5-24.2 1.4-36.2 2.2-4.6.3-9.2.7-13.9 1.1-7 .7-13.9 1.5-20.9 2.1-5.9.5-11.9.6-17.8 1.2-2.9.3-5.3 1.4-3.5 5.6 3.9-.6 7.6-1.3 11.5-1.7 10.3-1.1 20.7-2 31-2.9 16.7-1.5 33.5-3 50.2-4.3 6.9-.5 13.9-.1 20.9-.4.9 0 1.7-1.5 3.4-3zm-109-9.7c0 .8.1 1.6.1 2.3 1.8.3 3.7 1 5.5.8 9.5-.6 19-1.3 28.5-2.3 1.3-.1 2.3-1.9 4.6-3.7-8 0-14-.4-20 .1-6.2.6-12.4 1.8-18.7 2.8zM149.5 156.2v22c-1.7 3-3.1 8.6-5.2 8.9-5.5.7-4.7 5.8-7.5 8.2-2.4 1.9-4.6 4.6-2.3 8.4.5.8-.2 2.4-.5 3.6-2.3 11.4-3.1 23 1 34 3.1 8.1 8.6 15 14.9 19.6v58.6c-12.1.7-24.4 1.4-36.5 2.1 0-18.4.3-36.6-.1-54.7-.2-12.1-1.3-24.3-2-36.4-.1-2 .3-4.1.2-6.1-.1-14.3-.3-28.7-.5-43-.1-7.1-.6-14.2-.3-21.3.1-1.4 3.4-3.6 5.3-3.7 10.8-.4 21.5-.2 33.5-.2zM346.8 193.2c-3.8-3-7.5-6.1-11.6-9.4-3.2 5.7.7 7.6 3.9 9.9-.2.4-.4.9-.6 1.3-1.6-.7-3.4-1.1-4.7-2.1-3.4-2.8-6.6-5.8-9.8-8.7-7.2 6.7.8 8.4 2.4 12.8-5.5.3-8.1-3.7-11.3-6.2-1.1-.8-1.7-2.6-2.8-3.1-1.1-.4-3-.2-3.9.6-.6.6-.5 2.7.1 3.6 1.6 2.3 3.6 4.2 5.4 6.3-.2.4-.4.8-.7 1.3-1.7-1.1-3.6-2.1-5.1-3.4-1.8-1.6-3.3-3.7-5-5.4-2.9-2.8-5.9-3.3-8.7.4-.5.6-1.5 1-2.3 1.3-1.1.4-2.4.5-3.6.7.1-1.1 0-2.3.3-3.3.4-1.4 1.2-2.6.7-3.5-.7-2.3-1.2-4.7-2.2-6.8-.3-.7-3-1-3-.9-1.3 3.3-2.8 6.6-3.4 10-.3 2.1.9 4.4 1.5 6.7-6.1.7-11.9-8.2-10.2-14.1 1.9-6.5 7.7-7.6 12.3-8.7 7.8-1.8 12.9-7.3 19.1-11.3 10.5-6.8 20.3-15.2 33.4-16.4 14.2-1.3 25.1 4.8 33.3 16.2 6 8.3 8.5 14.4 7.9 21.1-2.8-1.3-5.5-2.4-8.1-3.8-3.6-2-7.5-.8-7.8 3.2-.4 6.8-.1 13.7.8 20.5 1.1 8.3 8 10.1 14.9 11.6.4-3 .8-5.7 1.4-9.4 6.2 11 2.1 17.8-6.9 22.9-4.3-2.9-5 3.2-8.2 3.9-5.6-9.8-6.9 3.8-11.2 2.1 2.6-6 5.7-11.9 7.6-18.1 1.1-3.6.5-7.9-.1-11.8-.5-3.1-1.8-6.2-3.4-8.9-1.5-2.6-3.9-4.6-5.9-6.9-1.3-1.4-2.4-3-3.9-4.2-1.1-.9-2.6-1.2-3.9-1.8.2 1.6-.1 3.3.6 4.7 1.1 2.1 2.7 3.9 4.1 5.8-.4.4-.9.9-1.4 1.3zM587.6 255.1c0 7.8-.2 14.6.1 21.3.1 3.8-1.3 5.2-5.1 5-13.8-.5-27.6-.9-41.4-1.1-12.7-.2-25.5-.1-38.2-.3-8.9-.1-17.9.1-26.8-1-15.7-1.9-31.5-2.2-47.3-1.9-4 .1-5.9-1.5-6.2-4.9-.4-4.3-.5-8.7-.4-13.1.1-4 3.5-4.9 6.4-5 14.2-.6 28.3-.8 42.5-1.2 13.1-.3 26.2-.8 39.3-.9 11.9-.1 23.8.1 35.7.6 10.6.5 21.2 1.7 31.8 2.4 3.1.3 6.2.1 9.6.1zm-128 13.1c-.1.6-.2 1.1-.3 1.7 1.4.8 2.8 2.4 4.2 2.3 5-.3 10-1.3 15.1-1.7 9.8-.8 19.7-1.5 29.6-2.1.7 0 1.5.6 2.2 1.1 1.3 1 2.6 3 3.7 2.9 5.4-.4 10.7-3.5 16.1.1.3.2 1-.4 1.5-.4 4.8-.1 9.5-.1 14.3-.3 3.1-.1 7.1 1.9 9-3.1-1.6-.6-4.2-1-4.3-1.7-.6-5-4.4-4.1-7.3-4.1-9.7.1-19.4.6-29.1 1-4.8.2-9.5.7-13.8 1.1-.9-1.9-1.8-3.8-2-4.4-3.8 0-6-.1-8.2 0-11.1.3-22.3.3-33.4 1.2-4.2.3-9.8-1.1-13.1 5.6 14.7-1 28.3-2 42-3 0 .5.1 1 .1 1.4l-13.2 1.2c-4.5.5-8.8.9-13.1 1.2zM275.4 237c16.3 2.1 32.5 4.2 49.4 6.4 7.1 18 9.4 37.9 8.1 59.9-10.8-1.7-21.4-3.4-32.1-4.9-3.1-.4-6.3-.4-9.4-.5-6.6-.2-9.3-4.8-5.6-10.1 2.3-3.3 4.4-6.2 4.3-10.6-.2-7.7-3.7-13.4-9.1-18.3-1.2-1.1-2.6-2.6-2.8-4.1-1.2-5.8-1.9-11.4-2.8-17.8z" fill="#fff"/>
  <path d="M294.5 202.7c4-.2 9.6-.4 15.2-.7-5.3 3-5.9 5.6-1.8 10.2 1.1-.8 2.2-1.7 3.3-2.5 4.5 6.5 9.1 8.7 14.3 1.9v-2.2c-2.2.1-4.5.2-6.6.4-.2-9.4 7.6-8.1 13.4-9.2 6-1.1 12-2 18-2.8 1-.1 2.4.8 3.1 1.7 5.6 7.8 3.4 15.4-.5 23-2 3.9-3.8 8-5.4 12.1-1.4 3.5 1 5 7 5.6-4.9 1.7-9.8 3.4-14.7 5-1.3.4-2.9 1.1-4.1.8-1.8-.4-3.9-1.3-4.9-2.6-1.3-1.7-1.2-5.5-2.5-6-3.4-1.2-7.3-.9-11.1-1.3-7.2-.7-14.7-.6-21.5-2.5-7.5-2.1-10.2-13.5-6.1-20.3 1.8-3 3-6.5 4.9-10.6zm14.6 24.6c7.5 5 15.2 6.9 23.7 5.2 1.6-.3 3.8-2.1 3.9-3.4.1-1.4-1.5-3.8-2.9-4.4-3.2-1.2-6.9-1.3-10.2-2.2-5.5-1.5-10.2-1.2-14.5 4.8zm15.9-19.1c2.8.9 4.8 1.6 6.8 2.3.3-1.7 1.4-4 .6-5-2.4-3.5-4.4-1.1-7.4 2.7zM192.5 323.4c-3.4-1.8 3.3-8.2-4.8-9.1 0 3.7-.5 7.4.1 10.8.6 3.4-.5 4.5-3.4 4.3-5.9-.3-11.7-.6-17.6-1.3-3.5-.5-3.2-3.8-2.6-6.1 1.9-7.7 4.2-15.4 6.5-23.1.9-2.8 2.2-5.6 3.2-8.2 6.8 1.9 13.5 3.8 20.2 5.8 1.7.5 3.4.9 5 1.7 6.3 2.9 9.3 1.4 10.4-5.3.1-.8.1-1.5.3-3.4 2.2 2.5 3.7 4.3 5.8 6.7 2.3-2.4 4.3-4.5 6.3-6.6 2.4 11.3 10.3 21.6 8.3 33.9l-1.5.6c-2.3-2.8-4.5-5.8-6.9-8.5-1-1.1-2.6-2.5-3.8-2.4-1.1.1-2.4 1.9-3 3.2-1.8 3.9-3.3 8-4.9 12-.6 0-1.1.1-1.7.1-2.2-4.1-4.4-8.2-7.2-13.4-3.1 3.1-5.9 5.6-8.7 8.3zM587 208.2c-4.9-4.6-9.9-9.9-15.6-14.3-2-1.5-5.9-1.5-8.7-.9-5.8 1.1-11.5 3-17.9 4.8 2.4-12.1 4.5-23 6.7-33.9 1-4.8 4.2-5.6 8.7-5.7 8.6-.2 17.1-1.1 26.9-1.7-.1 17-.1 34.5-.1 51.7zM441.7 234c-3.5-7.4-9.9 0-13.3-4-4.1-4.9-9.2-1.2-13.7-1-4.8.2-9.6 1.6-14.8 2.5 1-5.4 2.9-9.4 8.9-9.2 10.7.2 21.4.2 32 .9 4.5.3 8.9 2.2 13.3 3.5 6 1.7 6 6.2 5.7 11.5-.3 5.3-5.4 5.5-7.5 5.6-9.5.9-19.1.5-28.6.4-4.7-.1-9.4-.8-14.1-1-7.6-.4-8.8-1.4-9.8-8.9 3-.3 6.1-.6 9.1-.9.5-.1 1.3-.2 1.6 0 5.9 6.4 12.6.7 18.9 1.2 3.7.3 7.5-.3 12.3-.6zM65 324.8v-26.4h1.8c.6 12.1 1.2 24.3 1.8 36.4.5 0 1-.1 1.5-.1V295c.2-.2.4-.5.6-.7.3 1 .8 1.9.9 2.9.8 13.3 1.6 26.6 2.4 40.4H56.5c2.5-52.8-3.1-105.8-1.8-159l6.9 51.3c-.3.1-.6.2-.9.2l-2.7-7.5c-.2.1-.3.2-.5.2 2 34 4.1 67.9 6.1 101.9.4.1.9.1 1.4.1z" fill="#fff"/>
  <path d="M562.3 208.1c3.7 8.1 7.4 16.2 11.4 25-5.6-4.8-10.7-8.8-15.5-13.2-5-4.5-9.7-9.4-14.6-14-.6-.6-2.1-.9-2.7-.5-.7.4-1.5 1.8-1.4 2.6.3 1.3 1.3 2.4 2.8 5-7.5-4.2-13.8-7.8-20-11.3.1-.4.2-.9.3-1.3 3.8.7 7.7 2 11.5 1.9 5.5 0 11.1-1.2 16.6-1.4 6.9-.3 14-5.3 20.8-.3 3.2 2.3 5.3 5.9 8.3 8.6 9.9 8.7 6.5 20.4 7.9 31l-1.5.9c-7.1-11.4-14.3-22.7-21.4-34.1-.8.2-1.6.6-2.5 1.1zM24.1 239.6v-50.5c7.3.9 7.5.6 7.7-5.8.4-10-1.8-20 .8-30 .3-1-2.4-3.2-4.1-4-1.2-.5-3 .6-5 1.1v-6.5c8.4 2.7 16.8 5.4 25.4 8.1.4 3.7 1 8 1.3 12.2 0 .6-1.8 1.8-2.8 1.8-2.3.1-4.6-.5-7.8-.9v13.8c0 5.6-.1 11.2 0 16.7 0 1.3.2 3.1 1.1 3.9 4.6 4.5 5.7 9.2 2.7 17.4-.6-3.5-1-5.6-1.3-7.8h-1v17.3c-.5 0-1 0-1.5.1-.7-7.6-1.3-15.2-2.4-22.7-.3-2-2.4-3.7-3.7-5.5-2.4 1.8-7.5-.6-7.3 5.7.4 10.7-.2 21.5-.4 32.3-.1.8-.7 1.4-1.7 3.3zM350.1 340.6v6.9c3.8.7 7.3 1.4 11.6 2.2-3.6 9.5-7.1 18.7-10.7 28.5-3.3-1.9-5.8-3.6-8.5-4.9-1-.5-2.8-.6-3.7 0-.8.5-1 2.2-1 3.5-.1 2.3.2 4.6.3 7-7.7-.4-8.2-1-6.7-8.1.5-2.6.4-5.4 1.2-7.9 1.1-3.5 2.8-6.8 4.3-10.2 1.5-3.3 3.9-6.6 4.3-10 .8-7.4.4-7.5 8.9-7zM25.1 281.3c3.4 1 6 2.6 7.3 1.9 1.7-1 3.6-3.9 3.3-5.7-1.3-9.2-3.6-18.2-4.9-27.4-.6-4.3-1.5-6.6-6.8-4.6.7-2.3 1.2-3.9 1.6-5.4 13.1-1 13.1-1 15.5-8.9-.2 13.4 1.7 26.7.8 40.2-.9 13.4-.2 26.9-.2 40.3h-1.4c-.3-4.6-1-9.2-.6-13.7.3-3.6.1-6.9-3.5-7.7-3.9-.9-8.7-1.6-10.9 4.4-.2-4.2-.2-8.4-.2-13.4zM343.5 302.3H358c5.1 6.4-2.4 17.8 9.5 21.3-1.5 1.2-2.9 2.2-5.5 4.3 2 1 3.5 1.8 5.6 2.9-3.4 1.5-9.5-2.3-6.9 5.2-1.2-.3-2.2-.6-3.4-.9-.5 1.6-.9 3.2-1.4 4.7-6-1-10-4.8-10.6-10.9-.9-8.7-1.2-17.5-1.8-26.6zM89.7 277.5c-5.3 1-9.5 1.8-13.9 2.6v-6c4.4.3 8.6.3 12.7 1 2.8.5 5.4 1.1 5.7 5.5 1.1 14.4-1.4 28.3-5 42.1-2.1 8-.4 10.1 8 10.1 3 0 6-.3 9.7-.5.1 1.5.2 3.4.3 6-10.1.5-20.1 1-30.3 1.5v-6c2.3.7 4.1 1.2 6 1.8.1-1.1.8-2.5.3-3.1-1.4-1.9-3.3-3.5-5-5.2-.5.3-.9.7-1.4 1-.1-1.2-.2-2.4-.4-3.6-.9-4.5-.9-7.4 5.3-5.1 3.2 1.2 5.6-.1 5.8-4.6.3-9.6 1.4-19.1 2-28.7.4-2.7.2-5.3.2-8.8zM277 264c-2.5 1.3-4.7 2.4-7.1 3.6 2.4 4 5.3 3 8.2 2 1.2-.4 2.5-.6 3.8-1 .1.5.4 1.4.3 1.5-1.1.6-2.4 1-3.6 1.5-.7.3-1.3.8-2 .8-2.6.2-5.5.8-3.7 4 1.4 2.4 1.4 8.1 7.2 5.3 1.4-.7 3.1-.8 5.1 0-2.9 1.6-5.7 3.1-7.6 4.1.5 4.3.6 7.8 1.5 11.1.5 1.9 2.3 3.4 3.9 5.8-1.5.7-3.3 2.1-5.4 2.3-6.9.8-13-.9-18.4-5.7-4.4-3.9-3.2-8.1-.9-11.9 2.4-3.9 6.7-4 10.9-3.3 1.2.2 2.4.2 3.6.3-.2-1.3 0-2.7-.6-3.8-2.6-4.9-5.6-9.6-3.2-15.5 1.9-3.9 4.1-4.4 8-1.1zM155.5 264.6c6.3 3.7 11.4 6.6 16.9 9.8-1.7 1.5-3.4 2.3-4.2 3.7-.9 1.7-2.1 5.2-1.4 5.7 4.5 3.5 1.7 6.8.5 10.4-2.6 7.5-4.9 15.2-7.5 22.7-.5 1.5-1.9 2.8-2.8 4.1-.5-.1-.9-.3-1.4-.4-.1-18.4-.1-36.8-.1-56zM84.3 188.3c-3.4 1.5-5.8 2.5-8.5 3.7-.7-6.9-1.4-13.3-2.1-19.7.6-.1 1.1-.2 1.7-.3.3 2.1 1.1 4.3.7 6.3-1 4.7.3 6 5 4.8 2.2-.6 4.6-.1 7.5-.1 1.5 1.6 1.9 7.2 7.2 2.8.8 3.6 1.3 6.3-3.1 4.8v43.6c-2.9-.2-7.1-.5-11.3-.9-3.6-.3-4.9 1.2-4.8 4.7.2 7 .1 13.9.1 20.9-.5.1-1.1.1-1.6.2-.4-1-1.1-1.9-1-2.9.1-8.5.3-17 .4-25.5.1-3.3 1.4-3.6 4.3-2.6 5.7 2 8.7-.7 8.3-6.8-.6-9.6-1-19.2-1.6-28.9-.2-1.3-.8-2.6-1.2-4.1zM61 207.3c-.6-5.2-1.3-10.5-1.9-15.7-.7-5.7 0-12.3-2.7-16.9-2.8-4.7-2.7-8.9-2.7-13.5 0-2.8.7-5.6 1.1-8.1 3.6.4 6.8.5 9.9 1.3 1.6.4 4 1.9 4.2 3.1 1.2 6.9 1.8 13.9 1.8 21.1-5.5-4.7-.5-12.2-5.9-17.1 2 26 4 52.1 6 78.1-.9.1-1.8.2-2.7.2-1.7-27.4-3.9-54.6-9.5-81.5-1 16.4 3.8 32.4 3.9 48.7-.6 0-1.1.1-1.5.3zM187.7 333.3c.7 4.5 1.3 7.8 1.6 11.2.2 2.2.6 5.7-.6 6.6-4.4 3.4-9.5 6-14.3 9-2.1-3.4-4.9-6.6-6.2-10.3-1.5-4.4-1.7-9.3-2.6-15.2 6.9-2.4 14.7 1.9 22.1-1.3zM333.2 337.6c-3.7-3.7-6.9-8.4-12.4-3.6-3.1-5.6-5.4-6.4-7.7-2.7-.8 1.4-.1 3.8.2 5.6.3 1.4 1 2.8 1.5 4.2-1.4.2-2.8.2-4.1.5-1.8.5-4.4.8-5.1 2-.8 1.4-.3 4 .5 5.5.7 1.2 2.9 1.4 5.1 2.4 1.2 2.8 2.9 6.7 4.6 10.4-5.5 1.7-10-.3-13.2-6.1-5.6-10-2-25.6 10.3-32 8-3.9 19.3 3.2 20.3 13.8zM199 332.3c5.8 5.3 5.2 13.6 13.9 13.4 2.1-4.4 4.4-9.2 7-14.8 3.4 5.4 6.5 10.3 10.4 16.3 2.3-5 3.9-8.8 5.6-12.5.4.1.9.2 1.3.3.6 3.6 1.2 7.2 1.8 10.9-4.8 2.6-9.2 2.9-14.4 2.1-5.7-.9-11.8.3-17.7.7-.7 0-1.4.5-2.1.4-3.6-.5-9 1.3-9.6-3.7-.5-3.8 2.2-8 3.8-13.1z" fill="#fff"/>
  <path d="M84.4 273.1c-4.6-12.1-2.7-23.6-1.4-35.7 4.7.6 8.5 1.1 12.2 1.6-.4 7.9-.4 15.9-1.5 23.8-.4 2.9-.5 7.6-5.8 7.8-.8 0-1.7 1.2-3.5 2.5zM43.8 314.4c0 3.8-.3 7.5.1 11.2.4 4 1.9 7.9 2.1 11.9.1 1.6-1.4 4.2-2.8 4.8-2.4 1-5.3 1.1-8 1-.8 0-1.9-1.5-2.2-2.5-1-2.9-1.7-5.9-2.6-9.3-2.3.8-3.7 1.3-6.2 2.2-.4-8.2-.8-15.9-1.2-23.6 1 0 1.9-.1 2.9-.1v18c3-1.9 4.8-3.9 6.3-3.7 7.9.9 9.4-4.2 9.8-10.6.5.3 1.1.5 1.8.7zM498.8 199.6c9.8 4.5 19.9 5.7 26.2 14.4 6.2 8.4 12.9 16.5 19.3 24.7 1 1.2 1.7 2.6 3.3 4.9-4.9 0-9 2.4-11.8-3.2-1.3-2.5-4.4-4-5.8-6.5-2.6-4.5-4.5-9.4-7-14-2.1-3.9-4.2-8.1-7.2-11.3-1.5-1.6-5.1-1.5-7.8-1.5-4.6.1-6.9-2.4-9.2-7.5zM316.6 371.9c-.4 3.6-1 8.7-1.5 13.9-6.4-.6-11.9-1-17.4-1.8-1-.2-2.4-2.2-2.5-3.5-.3-3.2-.1-6.5.2-9.7.4-3.8 3-5 6.4-3.7 4.7 1.7 9.4 3 14.8 4.8zM380.6 327.2c.5.9 1.1 1.9 2.3 3.9-3.4 1.5-7 3.1-10.6 4.7-.2-.5-.5-1-.7-1.4l2.1-1.5c1.6-1.2 4.8-3 4.6-3.7-1.1-3.1.7-7.9-4.9-8.7-2.1-.3-3.9-2.2-5.8-3.2 2-7.4 8-8.5 13.4-9.5 1.9-.3 6 2 6.2 3.5.7 4.8.2 9.8-.5 14.6 0 .6-3.4.8-6.1 1.3zM175.5 387.9c8.3-.4 16.3-.8 24.7-1.3-.4 1.1-1 2.1-.9 2.9.8 5.8-2.5 7.5-7.4 8-3 .3-5.9 1.4-8.8 1.8-5.8.7-8.5-2-7.9-7.6 0-1.2.2-2.6.3-3.8zM566.8 244.5c-5.9.3-11.4.6-16.2.9-3.4-14.7-16.1-22.7-22.4-34.2 12.4 10.7 25.2 21.7 38.6 33.3zM81.8 315.1c-5.1-.5-6.3-3-5.9-7.5.5-6.5-.1-13 .5-19.5.2-1.8 2.7-3.6 4.5-5 .7-.6 3.2-.3 3.2-.1.3 1.8.5 3.6.4 5.4-.4 6.9-.8 13.8-1.4 20.7-.1 2-.8 3.9-1.3 6zM97.3 169.7c2.7-.7 4.2-1.1 6.3-1.6.3 7.3.6 14.2.9 21.3h-5.7c-.6-2.2-1.3-4.5-2.1-7.2-1 1.1-1.8 2.1-2.7 3.1v-9.9c0-3.3-.3-6.6 0-9.9.3-3.2-1.7-7.2 3.2-10.6.1 5.3.1 9.6.1 14.8zM189.6 413.6c1.4.2 3 .1 4.3.7 2.8 1.2 11.1-1.7 14.1-5.5 2.2-2.8 4.3-3.3 7.5-1.4 2 1.1 4.7.9 7 1.7 1.2.5 1.9 2 2.8 2.9-11.6 8.2-23.6 5.9-35.6 3.1-.1-.5-.1-1-.1-1.5zM74.4 196.5c2.2-.6 4.1-1.1 6.3-1.6.5 8 1.2 15.7 1.2 23.3 0 1.7-2.4 3.3-3.6 5-1.3-1.7-3.6-3.3-3.7-5-.5-7.1-.2-14.1-.2-21.7zM100.4 316.6c.2-3.1.5-6.6.8-10.1h2.1c6.5 5.6 1.7 13.3 4 21.2-4.8-.4-8.8-.7-12.8-.9.3-3.3.5-6.7 1.2-9.9 0-.4 2.9-.2 4.7-.3zM230.4 405.6c.9 0 1.9-.4 2.7-.1 3.2 1.2 5.2 0 6.5-2.9 1.7-3.9 3.7-5.8 8.4-3.5 3.6 1.7 7.8 2.3 11.5 4.3-9.4 6.9-19.3 5.6-29.2 3.6 0-.5 0-1 .1-1.4zM83 156.1h6.9c-.4 6.7-.8 13.5-1.5 20.2-.1.8-2.7 2.1-3.9 1.8-1.3-.3-3.4-2-3.4-3.1.1-4.6.8-9.1 1.3-13.7.2-1.6.4-3.2.6-5.2z" fill="#fff"/>
  <path d="M29.5 320.5c0-7.3-.2-14.6.2-21.9.1-1.4 2.3-2.7 3.5-4 .7 1.2 1.9 2.4 2 3.7.5 5.9 1.1 11.9.7 17.7-.1 1.9-3.2 3.6-5 5.3-.4-.2-.9-.5-1.4-.8zM50.6 267.2c.6 1.4 1.6 2.7 1.7 4.1.6 6.3 1.1 12.5 1.1 18.8 0 1.4-1.9 2.8-3 4.2-1.1-1.1-3.3-2.2-3.3-3.3.2-5.3 1-10.5 1.5-15.8.3-2.6.5-5.3.8-7.9.5.1.9 0 1.2-.1zM104.5 222.1c-5.5 1.5-4.4-3.6-4.6-5.6-.6-7.4-.2-14.8-.2-22.5.9-.2 2.6-.5 4.8-.9v29zM208.9 386.7c5.7-3.2 11.7-5.5 18.4-4.5 1.5.2 2.5 3.8 4.2 6.5h-22.3c-.1-.7-.2-1.4-.3-2zM20.4 174.8c-3.7-1.2-6.2-26.4-2.7-33.9.5-.1 1.1-.2 1.6-.2.4 3.5 1 7 1.1 10.5.1 7.9 0 15.9 0 23.6zM149.7 323.4v3.4c-12.3.7-24.4 1.3-36.6 2l-.6-1.5c1-.7 1.9-2 2.9-2.1 11.2-.7 22.4-1.2 34.3-1.8zM172 280.7c11.1 2.9 22.2 5.8 33.6 8.8-.7 3.1-1.4 4.5-5.3 3.1-6.5-2.5-13.5-3.7-20.2-6-3.1-1-5.9-3.1-8.9-4.7.4-.4.6-.8.8-1.2zM105 226.6v29.3h-5.9c.7-2 1.8-3.7 1.9-5.4.3-5 .2-10.1.1-15.1-.1-3.1-1.5-6.6 3.9-8.8zM13.4 219.5v21.7c0 .9 0 1.7.1 2.6.1 1.5.1 2.9.2 4.4-1.6-1.1-4.3-2.1-4.5-3.4-.7-4.1-.5-8.3-.4-12.5.1-3.5.5-7 1-10.4.2-1.1 1-2.2 1.5-3.3l2.1.9zM9.3 290.3c2.1-.8 3.8-1.4 7.1-2.6-2 10.4-3.8 19.9-5.7 29.4-.5-.1-.9-.1-1.4-.2v-26.6zM282.8 327.1c2.3 2.3 4.2 4.2 6 6.1-5.3 8.9-6.6 9-15.7.2 3.2-2 6.2-4 9.7-6.3zM31.5 203.7c.4 2.1 1.1 4.1 1.3 6.2.8 6.7 1.6 13.5 2 20.2.1 1.4-1.4 2.8-2.1 4.3-1.1-1.1-3-2.2-3-3.4 0-5.4.7-10.7.8-16.1.1-3.6-.4-7.2-.7-10.8.6-.2 1.1-.3 1.7-.4zM353.8 386.7c2.2 1.6 3.9 3 5.7 4 2.7 1.6 5.8 2.7 8.4 4.5 1.1.7 1.6 2.6 1.8 4 .1.7-1.2 1.5-1.9 2.3-1-.9-1.8-2.1-2.9-2.7-1.4-.8-3.1-1.5-4.7-1.5-7-.1-7 0-6.8-7.1 0-.8.2-1.7.4-3.5zM28.5 279.7c-1.1-2.2-3-4.2-3.3-6.5-.8-6.3-.9-12.7-1.2-19 0-1.1.4-2.2 1.7-3.3 1.7 9.2 3.5 18.5 5.2 27.7-.8.4-1.6.7-2.4 1.1zM47.2 196.3c-.7-8.4-1.3-16.4-1.9-24.5 0-.6 1-1.8 1.5-1.7 1.1.1 3.1.8 3.1 1.3-.1 8-.4 16.1-.7 24.1 0 .1-.9.3-2 .8zM18.2 341.6c-1.8-4.4 1.7-13.6-9-9.7v-7.5c3 .3 5.9.7 9.3 1.1.5 5.2 1 10.5 1.5 15.7-.6.1-1.2.2-1.8.4zM9 215.8v-26.7c5 18.9 4.8 25.3 0 26.7zM315.6 347.9c7.6 2 9.8-4 7.2-10.2 1.6-.5 3.2-1.1 5.6-1.9-2.4 6.3.1 14.2-10.4 16.1 2.4 1.7 3.7 2.6 5.1 3.5-1.4.7-2.8 1.5-5.1 2.7-.7-3.3-1.4-6.3-2.4-10.2zM105.9 286.2c-3.6-2.9-4.7-18.6 0-26.7v26.7zM421.4 330.4c-.2 2-.4 3.2-.4 3.6h-23.4c-.2-.8-.3-1.6-.5-2.4 1.9-.4 3.7-1.1 5.6-1.2 6-.1 12 0 18.7 0zM47 313.4c0-4.2-.4-8.6.3-12.9.2-1 3.6-1.6 5.4-2.4.3 4.8.5 8.4.7 11.9-2.1 1.1-4.2 2.2-6.4 3.4zM297.3 319c-1.8-6.2 2.7-8.4 5.4-9.9 3.2-1.7 6.7-4.8 11.1-2.7 1 .5 2.3.6 3.4 1-1.1 1-2.9 3.1-3.3 2.8-7.9-4.9-9.7 3.2-13.8 6.4-.7.5-1.3 1.2-2.8 2.4zM342.6 380.6c6.1 1.9 6.1 1.9 5 13.1h-5.7c.2-4.4.4-8.7.7-13.1zM383.5 383.6c.3 5.7-1.1 11.1-4 16.1-.7 1.2-3 1.5-4.6 2.3-.3-.4-.7-.8-1-1.2 2.7-5.8 5.5-11.5 8.2-17.3.5 0 .9.1 1.4.1zM25.5 154.9v27.9c-.4 0-.9 0-1.3.1v-27.8c.5-.2.9-.2 1.3-.2zM499.7 231.7c-11.5.6-22.9 1.3-34.4 1.9v-1.9c11.5-.6 23.1-1.2 34.6-1.8-.1.6-.2 1.2-.2 1.8zM353.1 289.5c-3 1.8-5.1 4-6.6 3.6-1.9-.5-3.4-2.9-5.1-4.5 1.8-1.6 3.5-4.4 5.5-4.6 1.6-.1 3.4 2.9 6.2 5.5zM188.6 415.3c-7.5-1.6-13.7-2.9-20.2-4.3 1.5-3.2 2.7-4.5 6.6-3.1 3.7 1.4 6.5 5.8 11.3 3.7.1 0 1 1.7 2.3 3.7zM50.2 338v-22.2h1.9V338h-1.9zM327.3 398.8h21.4c1 3.9-.6 4.7-4.7 3.8-5-1.1-10.2-1.5-15.4-2.2-.5-.1-.9-.4-1.4-.6.1-.3.1-.6.1-1zM8.8 252c4-.4 6.8-.6 5.7 4.5-.4 1.8 1 4.1 1.3 6.1.2 1.3 0 2.7 0 4-.6.1-1.1.1-1.7.2-.5-2-.9-4.1-1.5-6.7-5.5-.1-3.7-4.2-3.8-8.1zM391 369.1c2.3-6.6 4.6-13.2 6.9-19.9 3.1 8.2-2 14.1-5.1 20.5l-1.8-.6zM353.7 271.8c-2.9 2.4-5.1 4.2-7.4 6-.9-1.2-2.9-3.1-2.6-3.5 1.6-2.5 3.7-4.7 5.6-7.1 1.3 1.3 2.5 2.5 4.4 4.6zM314.4 393.8c-6.2-1-12.4-2-18.6-3.1 0-.5.1-1.1.1-1.6 2-.2 4-.7 6-.6 3.5.2 7.1.5 10.6 1.1 1.2.2 2.2 1.8 3.2 2.7-.4.5-.9 1-1.3 1.5zM500.9 236.4c-11.5.5-23 1.1-34.5 1.6 0-.5 0-1-.1-1.5l34.5-1.5c.1.5.1.9.1 1.4zM13.1 179.6c-1.4-2.4-2.6-4.7-3.9-7-.8-.4-1.6-.7-2.4-1.1 1.9-1.4 3.9-2.9 6.6-4.9 2.6 5.3 2.1 9.4-.3 13zM317.7 312.2c4.9-.9 7.4 1.1 8.7 6.5-3.2-.5-5.9-.8-8.7-1.2v-5.3zM339 311.4v10.1c-.4.2-.8.5-1.1.7-1.4-1.8-3.8-3.7-3.8-5.5 0-2.1 2.2-4.2 3.5-6.2.4.3.9.6 1.4.9zM78.1 154.2c-.5 5.7-1 10.6-1.6 17.1-3.3-6.7-2.6-14.4 1.6-17.1zM324.2 307.4c2.8.3 6.1.8 10.9 1.3-2.4 2.6-3.8 4-5.6 5.9-1.8-2.5-3.5-4.7-5.3-7.2zM265.8 340.8c1.8-2.3 3-3.7 3.6-4.4 2.8 2.3 5.3 4.2 7.8 6.2-.2.3-.4.7-.6 1-3.2-.8-6.3-1.6-10.8-2.8zM49.9 200.5v14.7c-4-6.3-3.9-11.8 0-14.7zM496.1 212.5c-1.2-4-2.6-8-3.6-12.1-.1-.6 1.9-1.7 3.2-2.7.6 5.4 1.1 9.8 1.5 14.1-.3.2-.7.4-1.1.7zM50.3 234.6v16h-1.5v-16h1.5zM293.5 313.4c-.5-7.3 1.3-9.2 7.6-8.2-2.9 3.1-5.2 5.7-7.6 8.2zM19.2 194.8c-.6-5.8-1.2-10.7-1.8-16 4 1.9 4.7 9.7 1.8 16zM50.4 233.3c-4.1-1.4-4.2-6 0-12.6v12.6zM225.3 394.8l-13.8 1.8c-.1-.8-.2-1.7-.3-2.5 4.6-.5 9.2-.9 13.8-1.4.2.8.2 1.4.3 2.1zM319.4 382.3c.4-5.2.9-10.3 1.3-15.5.6 0 1.1 0 1.7.1-.2 5.2-.5 10.4-.7 15.6-.8-.1-1.5-.1-2.3-.2zM9.2 134.2c1.5.9 3 1.8 5.5 3.4-1.7 1.8-3.2 3.4-4.7 4.9-.7-2.6-1.5-5.3-2.2-7.9.5-.1.9-.3 1.4-.4zM296 326.4c-4.1 5.7-5.5 5.6-9.5-1.5 3.5.6 6.4 1.1 9.5 1.5zM353.6 275.9c1.3 4.3 2.1 7.4 3 10.5l-1.5.9c-1.4-2.3-3.1-4.4-4.1-6.9-.3-.9 1.4-2.5 2.6-4.5zM345.9 265.6c-2.1 1.8-4.3 3.7-6.4 5.5-.6-.5-1.2-1.1-1.8-1.6 1.4-1.9 2.6-3.9 4.2-5.5.7-.6 2.5-.1 3.8-.1.1.6.1 1.2.2 1.7zM385.1 333.6c1.3-3.9 4-4.9 8.6-2.1-2.5 1.3-5 2.6-7.5 4-.4-.6-.8-1.2-1.1-1.9z" fill="#fff"/>
  <path d="M194.4 221.8c-3.3-.5-6.6-1.1-9.7-1.6-3.7 5.7-2.8 10.3 1.8 13.1 2.5.1 4.1.2 5.7.3-1.1 1.4-1.9 3.3-3.3 3.9-6.2 2.7-15.2-4.9-13.5-11.8 1.1-4.3 2.9-9.3 8.6-10.6 4.9-1 8.1 1.2 10.4 6.7zM276.1 323.7c-1.5.8-3 2.3-4.5 2.4-9.5.2-19 .2-28.5 0-1 0-1.9-1.8-3.7-3.8h36.1c.1.4.4.9.6 1.4zM454 351.3c-2.9 0-5.9.2-8.7-.2-1.3-.1-2.4-1.4-3.7-2.1 1.2-1.1 2.2-3 3.5-3.1 4-.3 8 .1 12 .2 4.2.1 8.3 0 11.9 0-.3-.5-1.8-1.8-1.5-2.4.4-1 2-2.1 3.1-2.2 7.7-.2 15.4-.1 23-.2 6.1-.1 12.2-.4 18.4-.4 9.7 0 19.4.2 29.1.3 5.7.1 11.4 0 17.1.1 1.6 0 3.2.4 4.7.5-.4 7.5-6.1 4.3-8.7 4.4-7.4.3-14.8-1.3-22.3-1.6-8.9-.3-17.9 0-26.8.1h-23.9c0 .7 0 1.4-.1 2.1 22.9.8 45.9 1.5 68.8 2.3.1.6.2 1.3.3 1.9-2.3.4-4.6 1.2-6.9 1.2-8.3-.2-16.5-.8-24.7-1-14.9-.3-29.9.2-44.8-.8-6.3-.4-12.4-1.2-18.5.8-.4.1-.9.1-1.3.1zM435.5 323.2c43.4-4.8 86.9-8.9 130.7-10.3-.3 4.3-2.6 5-7.7 4.8-8.6-.3-17.3.2-25.9.4-.9 0-1.7.3-2.6.4-12.6 1.1-25.1 2.1-37.7 3.2-17.3 1.5-34.5 3.1-51.8 4.5-1.6.1-3.3-.2-4.9-.2 0-.9 0-1.8-.1-2.8zM557.6 321.7c-1.7 1.5-2.5 2.9-3.4 3-7 .3-14-.1-20.9.4-16.8 1.2-33.5 2.8-50.2 4.3-10.3.9-20.7 1.9-31 2.9-3.8.4-7.6 1.1-11.5 1.7-1.8-4.2.6-5.3 3.5-5.6 5.9-.6 11.9-.7 17.8-1.2 7-.6 13.9-1.4 20.9-2.1 4.6-.4 9.2-.8 13.9-1.1 12.1-.8 24.2-1.7 36.2-2.2 7.7-.3 15.4-.1 24.7-.1z"/>
  <path d="M454 351.3h1.3c3.8.3 7.6.7 11.4.8l50.4 1.5c12.2.3 24.4.5 36.7 1 1.4.1 2.8 1.4 4.2 2.2-1.4.5-2.8 1.5-4.2 1.4-12.5-.4-25-1.1-37.5-1.5-7.4-.2-14.8 0-22.2-.1-12.2-.3-24.5-.7-36.7-1.1-3.2.1-5.3-.4-3.4-4.2zM448.6 312c6.2-.9 12.4-2.2 18.7-2.7 6-.5 12-.1 20-.1-2.2 1.9-3.3 3.6-4.6 3.7-9.5 1-19 1.7-28.5 2.3-1.8.1-3.6-.5-5.5-.8 0-.9 0-1.6-.1-2.4zM459.6 268.2c4.3-.3 8.6-.7 12.9-1l13.2-1.2c0-.5-.1-1-.1-1.4-13.7 1-27.4 1.9-42 3 3.3-6.8 8.9-5.3 13.1-5.6 11.1-.9 22.2-.9 33.4-1.2 2.2-.1 4.4 0 8.2 0 .3.5 1.2 2.5 2 4.4 4.3-.4 9.1-.9 13.8-1.1 9.7-.5 19.4-.9 29.1-1 2.9 0 6.7-.9 7.3 4.1.1.7 2.6 1.1 4.3 1.7-1.8 5-5.8 3-9 3.1-4.7.2-9.5.2-14.3.3-.5 0-1.2.6-1.5.4-5.4-3.7-10.7-.5-16.1-.1-1.2.1-2.5-2-3.7-2.9-.7-.5-1.5-1.2-2.2-1.1-9.9.6-19.7 1.3-29.6 2.1-5 .4-10 1.4-15.1 1.7-1.3.1-2.8-1.5-4.2-2.3.3-.8.4-1.3.5-1.9zM309.1 227.3c4.3-6 9.1-6.3 14.5-4.8 3.3.9 7 1 10.2 2.2 1.4.5 3 3 2.9 4.4-.1 1.3-2.4 3.1-3.9 3.4-8.5 1.7-16.2-.2-23.7-5.2zM325 208.2c3-3.9 5-6.2 7.5-2.7.7 1-.4 3.3-.6 5-2.1-.7-4.1-1.4-6.9-2.3z"/>
  <text transform="translate(34.446 49.889)"><tspan x="0" y="0" font-family="Peanuts" font-size="37">&apos;DEAR SANTA CLAUS, I DON&apos;T</tspan><tspan x="0" y="44.4" font-family="Peanuts" font-size="37">THINK I WANT ANY TOYS THIS</tspan><tspan x="0" y="88.8" font-family="Peanuts" font-size="37">YEAR..</tspan></text>
</svg>
