<svg xmlns="http://www.w3.org/2000/svg" viewBox="0 0 595.3 469.3" xml:space="preserve">
  <path fill="#fff" d="M0 0h589v469.3H0z"/>
  <path d="M203.2 469.3H1.6c-.1-4.4-.3-8.9-.3-13.3.2-106.5.4-213 .7-319.4.1-29.3.4-58.7.5-88 .1-16.2.1-32.4.2-48.6h51.2c1.2.2 2.4.7 3.6.7 87.7.2 175.4.3 263 .4 26.8 0 53.7 0 80.5.1 56.4.2 112.8.5 169.2.7h23.4c0 9.4-.1 17.3 0 25.2.1 13.7.6 27.4.5 41.2-.1 13-.8 26-.8 39.1 0 12.1.8 24.2.9 36.3.2 21.3.1 42.7.1 64 .1 70.4.1 140.8.2 211.2 0 10.5.5 21.1.8 31.6v1.1c-.2 2.3-.6 4.6-.6 6.9-.2 9.9-.2 9.9-10.2 9.9l-375.2.3c-2.1-.1-4.1.4-6.1.6zm-144-60c5.4 3.3 10.8 6.7 16.2 10 .3-.5.6-1 .9-1.6-4.5-4.9-10.8-6.8-17.2-8.3-.3-.8-.4-1.8-1-2.2-8.4-5.8-17-11.2-25.2-17.2-5.1-3.8-10.4-7.9-14.2-12.9-8-10.9-.9-25.2 9.5-30.5 12.4-6.3 25.6-11.2 40-11 6.8.1 13.5 0 20.3 0-3.1-2.1-6.4-3.7-9.8-4.5-22-5.2-44.1-10.2-66.2-15-1-.2-3.6 2.1-3.6 3.3-.1 7.9.3 15.9.4 23.8.1 9.2.1 18.5 0 27.7-.1 4.7-.3 8.8 4.9 11.6 5.7 3.1 10.9 7.3 16.2 11 2.4 1.7 4.5 4 7.1 5.5 5.1 2.8 10.4 5.3 15.7 7.8 2 .9 4 1.7 6 2.5zm166.1-266.8c3.2-8.5 6.1-16 8.8-23.6.1-.4-1.4-1.9-2.3-2-5.7-.5-11.5-.5-17.2-1-13.7-1.3-27.4-3-41.1-4.3-12.1-1.2-24.2-1.7-36.2-3.5-12.6-1.9-25-5-37.5-7.6-1.3-.3-2.6-.2-3.9-.1-11.4 1.1-22.8 2.4-34.2 3.3-16.3 1.3-32.6 2.3-48.9 3.4-.7 0-1.3.3-2.7.7v201.6c4.9 1.5 9.9 2.9 14.9 4.6 5.1 1.7 6.9.7 7.5-4.1-1.3.1-2.8.3-4.2.4v-10.1c-2.2 3.6-4.6 7.5-7 11.4-.7-.2-1.4-.4-2-.6-.5-5-1.2-9.9-2.7-14.6-.8-2.4 1.4-5.8 2.3-8.8.1-.2-.1-.6-.1-.8-1.5.2-2.9.4-6 .8 3-8.8 5.6-16.6 8.4-24.9-1.8 1.3-3.2 2.3-4.5 3.3-5.9-3.5.2-7 0-10.5 1.4-.1 2.7-.2 4.3-.3.7-1.5 1.5-3.5 2.4-5.4 2.8-5.7 5.8-11.2 8.4-17 6.1-13.3 11.8-26.6 17.9-39.9 3.2-7.1 6.8-14 10.3-20.9 1.7-3.3 3.6-6.5 5.4-9.7.9.3 1.8.7 2.6 1-.5 2.2-.6 4.6-1.7 6.5-2.8 4.9-6.4 9.3-8.9 14.2-6 11.7-12.4 23.4-17.2 35.7-6.1 15.5-15.9 29.6-18 46.7-.2 1.7-1 3.4-1.5 5.1.6.3 1.3.5 1.9.8 11.1-31.5 26.1-61.1 42.1-90.3.7 2.9.4 5.4-.5 7.7-.6 1.4-2.6 2.3-3.3 3.7-8.8 18.4-17.8 36.7-25.9 55.4-4.2 9.7-6.8 20.2-10.2 30.3-1.3 3.9-2.9 7.6-4.3 11.5.6.2 1.2.5 1.8.7 2.8-6.4 5.6-12.7 8.3-19.1 6.9-16.7 13.7-33.5 20.6-50.2 3.1-7.5 6.2-15 9.6-22.4.8-1.8 2.8-3.1 4.4-4.8 1 1.1 2 2 1.8 2.2-16.9 32.4-30.1 66.3-42.5 100.5.5.2 1 .4 1.4.6C38 269 50.2 239.9 62.3 210.7c5.5 6.7-3.6 9.9-1.4 16.7 1.7-3.2 2.8-5.9 4.4-8.1.9-1.2 2.7-1.6 4.2-2.4 0 1.4.1 2.9-.2 4.3-.1.9-.8 1.6-1.2 2.4-5.1 10.5-10.5 21-15.3 31.7-3.9 8.8-6.6 18.1-10.8 26.7-3.2 6.5-2.4 13.3-3.5 19.9-.1.3.5.8 1.1 1.6 7.9-20.1 15.5-39.7 23.3-59.3 2-5.1 4.2-10 6.6-14.9.4-.8 2.3-.9 3.5-1.3.1.9.6 2.1.2 2.8-9.2 14.9-13.7 31.8-20.4 47.8-4.7 11.2-9.6 22.3-14.3 33.5-.5 1.1-.1 2.5-.1 3.8 1.4-.4 3.6-.3 4.2-1.2 1.4-2.5 2-5.4 3.1-8.1 5.8-14.1 11.5-28.2 17.4-42.2 2.4-5.7 4.7-11.4 7.4-17 .4-.9 2.3-1.2 3.5-1.7.1 1.2.7 2.7.2 3.7-1.4 2.7-3.5 5-4.7 7.8-6.3 15.1-12.4 30.3-18.5 45.5.5.3 1 .7 1.5 1 1.2-1.4 2.8-2.7 3.6-4.4 5.7-12.7 11.2-25.5 17-38.2.5-1.2 2.3-1.9 3.5-2.8.3.5.6.9 1 1.4-8.7 19.3-17.4 38.5-26.8 59.4 2.4-.9 4.6-1.1 5.2-2.1 2.3-3.8 4.2-7.8 5.9-11.8 4.6-10.8 9-21.8 13.7-32.6 1.2-2.7 3.2-5.1 4.9-7.6.8.4 1.6.8 2.4 1.3-5.7 13.3-11.4 26.6-17 39.8 4.2 3.6 4.9-.2 5.9-2.4 3.5-7.6 6.6-15.4 10-22.9 1.8-3.9 4.2-4 6.1-.8-4 8.6-7.9 16.8-11.7 24.9.5.3 1 .5 1.4.8 2.3-3.2 4.6-6.5 6.9-9.7.9.4 1.8.8 2.6 1.2-.8 2.7-.7 7.1-2.4 7.9-6.7 3.3-8.1 9.4-9.6 15.6-.3 1.1.9 3.3 1.8 3.7 3.5 1.4 7.4 1.8 10.9 3.2 14.7 6.3 29.3 12.8 44.2 19.4-1-3.1-2.8-5.7-6.7-6.9-10.3-3.3-19.7-7.8-25.9-17.4-3.4-5.3-3.2-9.6-.3-15.1 5.1-9.4 14-14.6 21.8-20.9 1.8-1.5 4.1-2.4 6.1-3.5 9.8-5.5 13.9-7.6 22.9 1.5 3.4-.6 6.2-.9 9-1.6.8-.2 2.1-1.9 1.9-2.2-1.4-2.6-2.7-6.5-4.8-7.1-10.4-3-19.2-8.5-25.9-16.8-3.9-4.9-6.3-6-10-.4-.7 1.1-2.4 1.5-3.6 2.2-5.5 3-11.3 3.3-17.5 3.9-9.7.9-19.3-4.6-20.3-13.9-1.4-12.8.7-24.3 13.5-31.2 1.7.9 3.5 1.9 4.1 2.2 3.4-3.8 6.5-6.9 9.1-10.3.6-.8.3-3-.4-4-9.8-13.5-8.7-32.6 2.3-45.3 7.5-8.6 15.6-16.2 24.9-23.1 14.4-10.7 30.1-11.2 45.7-7.2 11.7 3 22.4 9.7 33.4 15.1 3.6 1.8 6.7 4.6 10.5 7.3 5.8-3.1 13.2-3.1 19.1 0 8.1 4.3 14 11.3 15.9 21.2 2.1 11.5-6.3 22-17.5 20.7-.7 2.1-1.4 4.2-2.2 6.3 4.5 2.1 7.5 9.7 5.9 14.4 4.3 1.5 9.6 1.9 12.9 4.7 12.1 10 8.5 21.8-.2 32.8-2.7 3.5-8.9 4.1-12.4 1.6-1.5-1.1-2.6-2.9-4.5-5-1.2 1.5-2.2 2.6-3.1 3.9-7.6 11.1-18.5 17.5-31.1 21.4-3.7 1.1-5.1 8.4-2.3 11.1 3.6 3.5 5.9 2.9 10-2.1 5.5-6.7 12.7-6.8 17.8-1.7 12.2 11.9 12.9 27 3 40.2-2 2.7-2.2 4.2-1 7.4 2 5.3 4.1 11.5 3.3 16.8-1 6.3-6.7 10.5-13 12.8-1 .4-2 .9-3 1.3.1.4.2.7.3 1.1 8.6-.6 17.2-1.2 27.6-1.9 2-3.6 5.1-8.7 7.8-14 8.5-16.5 16.7-33.1 25.4-49.5 6.3-12 13-23.9 19.7-35.7.9-1.7 2.8-2.9 4.2-4.3.3.3.5.7.8 1-11.2 23.4-22.5 46.8-33.7 70.2.4.2.8.5 1.3.7.6-.8 1.4-1.5 1.9-2.4 6.5-12.6 12.9-25.2 19.5-37.7 5.6-10.5 11.4-20.8 17.3-31.1.7-1.2 2.2-1.9 3.4-2.9l1.4 1.4-2.1 4.8c-2.6 5.7-7.2 10.1-10.2 15.1-8.6 14.2-15.4 29.5-22.7 44.4-4.2 8.5-7.7 17.3-12.4 25.5-3.5 6.1-.6 7.8 4.8 9.6 12.2-31.5 27.3-61.7 43-91.6.9.4 1.8.8 2.7 1.3-14 26.5-28.2 52.8-38 81.2 2.8-4.2 4.7-8.8 6.9-13.2 7.7-15.6 15.6-31.1 23.5-46.6.6-1.2 2.2-1.8 3.4-2.7.6.5 1.1.9 1.7 1.4-5 10.2-10.1 20.4-15.1 30.7.3.2.6.4.8.6 2.3-3 4.7-6 7-9 .7.4 1.4.7 2.2 1.1-3.2 6.8-6.4 13.6-9.7 20.4.4.2.7.4 1.1.6 2.3-3 4.6-6 7.5-9.7 2.9 7.3-4 11-2.6 17.6.7-1.7 1.3-3.3 2.4-6 5 9.6-2.4 14.3-3.4 21.3-1.9-1.2-3.1-1.9-4.7-2.9-1.5 3.6-2.7 6.8-4.3 10.8 2.1-.4 3.1-.6 4.1-.7 3.3-.2 7.6 1 9.7-.7 2.1-1.7 2.1-6.1 3.1-9.3 2.9-9.7 5.9-19.4 8.8-29.1 3.8-12.8 7.6-25.7 11-38.6 1.6-6.1 2.8-12.4 3.4-18.7.3-3.4.6-6 4.3-7.3 1.1-.4 2.4-2.1 2.3-3-.1-.9-1.8-1.8-2.9-2.5-1.5-.9-3.2-1.7-4.9-2.2-11.7-3.2-19.6-11.5-26.2-20.9-4.9-6.9-7.8-15.1-12.6-22.1-4.8-7-2.6-12.9.5-19.3 1.2-2.4 2.3-4.9 2.9-7.5 3.5-14.6 7.5-28.8 20.4-38.3 2.6-1.9 3.1-4.2-.7-5.7-4.7-1.9-9.2-4.1-13.9-5.9-4.7-1.9-9.4-3.9-14.2-5.1-7.8-2-15.8-3.7-23.7-4.9-3.8-.6-8.4-1.2-11.4.4-4.7 2.5-8.2 7-12.3 10.5-4.9 4.3-9.7 8.6-14.8 12.6-1.9 1-4.2.8-5.7 1.1zm11.5-13.4c.3.2.6.5.9.7 5.7-5.2 11.3-10.6 17.1-15.6 2-1.7 4.8-3.4 7.4-3.6 4.1-.3 8.4.9 12.6.9 12.2-.2 24.4-.8 36.6-1.1 6.9-.2 13.7.2 20.6-.2 12.1-.7 24.2-1.8 36.3-2.6 13.7-.9 27.3-1.7 41-2.7 6.8-.5 13.6-1.5 20.4-2.2 7.1-.7 14.2-.9 21.2-2 7.9-1.2 15.6-3.2 23.4-4.8 5.7-1.2 11.7-1.5 16.9-3.7 11.2-4.6 21.4-10.4 29.3-20.6 7.5-9.7 8.9-19.9 7.7-31.2-.9-8.7-4-16.4-9.4-23.4-2.8-3.6-2.9-8.2-10.2-7.4-11.4 1.2-23-.6-34.4-.6-9.4 0-18.8.9-28.2.9-8.3 0-16.6-.9-24.9-1-16.9-.2-33.8-.1-50.7-.1H145.8c-6.1 0-12.2.7-18.2.5-14.2-.2-28.6-3-42.2 2-16.8 6.2-31.9 15.1-36.6 34.5-1.5 6.3-2.7 13 1.2 18.6C57.1 74.7 66.8 82.2 78.4 87c20.4 8.5 42.2 11.6 63.7 15.2 20.1 3.4 40.6 4.1 60.9 5.9 12.5 1.1 25.1 1.8 39.1 2.8-1.8 6.2-3.5 12.2-5.3 18.2zm348.4 0c0-10.2.2-19.9-.1-29.6-.5-15.9-1.6-31.8-1.9-47.7-.2-12.8.4-25.7.3-38.6 0-1.1-1.9-3-3-3.1-11.5-.6-23-.9-34.5-1.2-6.2-.2-12.3 2.2-18.6.1-1.5-.5-3.7.8-5.5 1.3.7 1.6 1.2 3.3 2.1 4.8 8.7 14.4 14.3 28.9 8 46.3-3.2 8.8-8.3 15.9-14.6 22.1-9.3 9.1-21.2 13.9-33.9 16.4-7.8 1.5-15.5 3.5-23.3 4.8-6.2 1-12.1 3.5-18.9 2.7-5.2-.6-10.7 2.5-16.2 3-10.5 1-21.1.8-31.4 2.2-14.2 1.9-28.6 0-42.8 2.8-7.9 1.5-16.2.4-24.4.4-11.7.1-23.5.3-35.2.5-.3 0-.6.9-.3.4 11 4.6 22.3 8.8 33.1 14.2 3.5 1.7 5.4 1.4 7.7-.6 8.8-7.5 19.7-10.4 30.4-11.8 11.5-1.5 23.7-1.8 34.9 3.5 3.2 1.5 6.8 2.4 10 4 10.7 5.5 19.4 13.3 25.6 23.7 5.8 9.6 7.7 20.2 7.9 31.3 0 2.3 2 4.6 3.2 6.8 1.8 3.3 5.6 6.9 5.1 9.9-.7 4.6-3.3 11.3-6.7 12.5-6.7 2.4-8.1 7.5-10.7 12.5-6.2 12-15.9 20.5-27.6 27-1.6.9-3 2-4.6 3 1.2 1.3 2.3 2.9 3.7 3.8 3.8 2.3 6.9 5.7 4.9 9.8-3.7 7.6.3 13.6 1.7 19.1h22.6c10.1 0 20.2.1 30.2 0 5.7-.1 11.5-1 17.2-.9 14.5.2 29 1 43.5 1.2 9 .2 18-.7 26.9 0 11.4 1 22.8 3.1 35.3 4.8v-160c.4-.1 1.5-.3 3.7-.9-2.2-.2-3.2-.4-3.8-.5zm-3.6 280.1c0-2.1-.2-3.4 0-4.7 1.5-9.3 4.4-18.6 4.5-28 .3-25.1-.5-50.2-.8-75.3 0-3.2-.9-4.6-4.4-4.8-6.2-.4-12.3-1.8-18.4-2.3-8.7-.7-17.5-1.3-26.2-1.5-10-.2-19.9.4-29.9.1-12.4-.3-24.8-1.6-37.1-1.6-15-.1-29.9.7-44.9.9-3.8.1-7.5-.7-12.1-1.2.6 2.5.9 4.2 1.5 5.8 3.7 9.5 7 19 8.3 29.4.7 5.9 4.9 11.3 7.7 16.9.4.8 1.8 1.3 2.8 1.5 3.9.9 7.9 1.5 12.6 2.4 2.6-10.1 11.5-13.8 21.6-15.9.9-.2 2.1-.4 2.9 0 6.5 2.7 11.9 7.3 13.6 13.9 2.9 11 4.1 22.3 2 33.9 31.7 11 65 17 96.3 30.5zm-328.5 13.5c-6.6-.4-12.1-2.1-16.1-7.9-1-1.4-3.8-2.4-5.7-2.2-8.1.9-16.2 2.3-24.3 3.5-4.5.7-7.6 1.5-9.2 7.4-2.4 9-14 12-23.9 9.4-2.7-.7-5.2-1-6.1 2.4-.9 3.2 1.7 10.4 3.8 10.6 18.7 1.9 37.4 4.5 56.1 5.4 16 .7 32.2-.5 48.3-.9 14.8-.4 29.6-.3 44.3-1.2 13.6-.9 27.1-3.1 40.6-4.2 9.7-.8 19.6-.1 29.3-1.4 8.8-1.2 17.6-.9 26.4-1.8 15-1.5 30.1-1.7 45.1-2.4 3.8-.2 7.6-.4 11.4-.8 9.5-1.1 18.9-2.4 28.4-3.6 8.9-1.1 17.9-1.7 26.7-3.4 8.1-1.6 16.2-1.8 24.3-5 7.1-2.8 14.3-4.8 20.8-9 3.2-2.1 2.5-3.7-.4-4.9-6.3-2.7-12.6-5.7-19.1-7.7-13.1-4.2-26.4-7.7-39.6-11.7-6.9-2.1-13.5-5.6-20.5-6.7-9.1-1.5-9-4.4-14.3 5.5-3.3 6.2-9.9 9.2-14.9 8.6-7.5-1-15.9-2-21.9-9-2.4-2.8-7-6.8-10.7-3.8-4.2 3.4-8.6 3.1-13 3.5-4.2.4-6.5 1.6-7.4 6.2-3.1 15.8-22.5 18.1-30.1 10.7-7.2-7-15.7-7.8-24.1-8.6-10.1-.9-20.4.1-30.6.9-8.1.6-16.1 2.1-24.2 3.3-3.9.6-7.8 1.5-11.7 2.2-4.5.8-9.9.4-13.4 2.7-4.5 3-7.6 8.1-11.8 12.9 10.3-1.1 20.1-2.5 30-3.1 9.6-.5 19.3-.1 29-.1 0 .8.1 1.5.1 2.3-2 .2-3.9.6-5.9.7-7 .4-14.1.4-21.1 1.1-9.8.9-19.7 2.3-29.5 3.2-5.3.5-10.7-.2-15.9.6-11.2 1.8-22.3 4.4-33.5 6.3-1.4.2-3.1-1.6-4.7-2.5.1-.7.3-1.4.4-2 12.8-2.1 25.7-3.8 38.6-5.5zm182-232.5c-.4-5.9-.7-12-1.3-18.1-1.8-17.6-11.3-30.5-26.1-39-11.2-6.5-23.5-10.6-37-9.8-13.2.8-25.9 3.3-36.4 11.6-6.8 5.3-13.5 11.4-18.1 18.6-4.5 7.1-7 15.8-9 24.2-2.8 11.3-3.7 22.6.6 34.1 6.1 16.3 17.8 26.6 33.6 32 13.2 4.5 27.1 7.1 41.3 4.7 6.9-1.2 14.1-2.2 20.5-4.9 14-5.7 22.7-17.2 27.4-30.9 2-5.8 4.6-6.9 10.7-6.5.2-4.7.9-9.2.2-13.4 0-1.2-4.2-1.8-6.4-2.6zM164.5 459.9c-.6-2.3-1.2-3.7-1.3-5.1-.8-12.7-1.5-25.4-2.3-38-.3-4.5.5-9.3-.9-13.4-3.1-9.2-6.8-18.2-11.1-26.9-9.1-18.4-25.4-28.3-44-34.9-7.3-2.6-15.1-.3-22.6-.4-11.5-.1-22.5 1.3-33.3 4.5-7.8 2.3-16 4.1-22.3 10.6-8.1 8.3-5.3 17.2 1.7 22 18.2 12.3 36.4 24.6 55.2 36 13.6 8.3 22.6 18.4 20.5 35.4-.3 2.8-1.1 7 .3 8.1 2.6 2.1 6.6 3.3 10.1 3.4 7.5.2 15-.7 22.6-.7 7.6 0 15.1.7 22.7.9 1.4.1 2.9-.9 4.7-1.5zm-58.8-244.7c-.2.7-.3 1.2-.5 1.7-2 5-3.1 10.2 1.8 13.7 4.1 2.9 8.7 2.7 12.9-1.4 2.1-2.1 3.8 0 4.2 2.8.4 2.7.7 5.5 1.9 7.8 4.3 8.9 9.8 16.3 18.8 21.7 13 7.8 26.9 10.1 41.2 10.1 9.8 0 19.8-1.9 28.8-7.4 10.9-6.6 20.8-13.6 24.1-27 2.1-8.4 1.1-15.7-4.3-22.7-3-3.9-7.2-8-4.5-13.5 3.2-6.6 3.8-12.1-3.5-16.3-3.2-1.9-6-4.5-9.3-6.4-2-1.1-4.5-1.3-6.7-2.2-1.9-.7-3.7-1.8-5.6-2.8-3.4 9.8-7.2 11.6-21.5 10.9v8.6c-3-2.2-5.3-3.9-7.1-5.3-4.1.7-4.3 7.4-10.9 4.9 4.4-4.6 8.1-8.5 11.9-12.4-5.3-5.6-5.5-5.7-11.8-.5-9.4 7.8-13.2 9.3-24.1 1.1-1.3-1-2.5-2.4-4-2.8-1.2-.4-3.7-.1-4.1.6-4.5 9.3-9.5 18.6-8.4 29.5 0 .3-.3.6-.5 1-1.5.2-3.1.4-4.6.6-.7 7.4-.6 7.3-8.2 5.4-1.8-.1-3.9.3-6 .3zM9.6 101.3c24.7-1.7 48.9-3.3 74.1-5-1.6-1.1-2.2-1.7-2.9-2-13.2-4.5-24.2-12.2-33-23-5.1-6.3-9.3-14.5-7.3-21.6 3.5-13.2 10-25.6 22.7-33 4.3-2.5 8.6-5.1 14.1-8.3H9.7c-.1 31.1-.1 62.5-.1 92.9zM342.1 270c-4.2 15.7-8.1 30.5-12 45.3-1.1 4.3.5 5.9 4.8 5.8 5.6-.1 11.3-.5 16.8.4 3.8.6 4-.6 4.2-3.5.2-4 .5-8.1 1.2-12 .3-1.4 1.9-2.6 2.9-3.8.4 1.4 1.4 2.9 1.2 4.3-.5 4.1-1.3 8.1-2 12.1.5.2.9.4 1.4.5 1.4-2 2.6-4.2 4.1-6.1 1.5-1.9 3.1-4.5 5-5 1.3-.3 3.9 2.5 4.9 4.4 2.5 4.9 4.4 10.1 7.1 16.3 3.7-8.3 7.1-15.8 11.3-25 4.5 5.6 8.2 10.2 12.9 16 .9-4.9 2.8-9 2.3-12.8-1.3-9.8-3.7-19.4-5.9-29.9-4.4 4-7.8 3.2-11.5-.5-3.9-3.9-5.7-3.2-8.2 1.7-.7 1.3-2.3 2-2.7 2.3-2-3.5-3-7.6-4.9-8-8.3-1.9-12.7 2.9-14 11.7-6.7-5.1-12.6-9.5-18.9-14.2zM9.4 410.1c0 16.5-.1 32.1.2 47.6 0 1.3 2.5 3.6 3.9 3.6 8.1 0 16.3-.8 24.4-.8 5.6 0 11.1.9 16.7 1 10.3.1 20.6-.2 30.9-.4 4.3-.1 8.6-.7 13.1-1-3-11.6 1.3-25.2-11-33.4.7 3.2 1.3 6.5 2.2 11.1-4.8-3.6-8.2-8.2-11.2-7.9-4.5.4-6.9-2.1-10.2-3.3-2.9-1.1-5.8-2-8.8-2.8-4.1-1-8.2-1.9-12.3-2.7-1-.2-2.8-.5-2.9-.1-2.9 6.2-6.1 1.7-9.1.3-1.6-.7-3.2-1.5-5.2-2.5-.6 2.1-1 3.5-1.4 5.1-9.2-.4-12.8-8.1-19.3-13.8zM478.7 444c-15.5 1-29.8 2-46.1 3.1-6.6.4-13.2.8-19.8 1.4-3.9.4-7.8 1.4-11.8 1.5-4.6.2-9.3-.5-14-.2-6.5.4-12.9 1.7-19.3 2.1-12.1.8-24.2 1-36.3 1.9-11.7.8-23.3 2.6-35 3.1-18 .8-36 .9-53.9 1.1-9.7.1-19.4.7-29-.1-13.5-1.2-26.8-3.6-40.3-5.3-1.4-.2-4.1.2-4.2.7-.4 2.2-.5 4.7.2 6.7.3.9 2.8 1.4 4.3 1.4 4.8-.1 9.7-.8 14.5-.8 14 0 28.1.2 42.1.3 15.6.1 31.3 0 46.9.1 8.8.1 17.6.5 26.5.4 11.3-.1 22.5-.9 33.8-1 8.3 0 16.6.9 24.9.9 10.2 0 20.3-.8 30.5-.8 12.3 0 159.6-5.9 171.8-5.7M158.9 322.7c-.7 1-1.1 1.4-1.3 1.8-3.6 7-8.5 12.9-15.7 16.6-1.3.7-2.6 1.6-3.8 2.4.9 1.5 1.8 3 2.9 4.4.8 1 1.9 1.7 2.9 2.5 6.4 4.9 12.5 10.6 21.8 6.6 1.7-.7 4 .1 6 .1 1.6 0 3.6.7 4.9 0 7.7-4.4 12.9-10.6 14.5-19.7.6-3.4 2.2-6.8 4.1-9.7 2.2-3.5 2.1-9.2-1.3-11.1-4.5-2.5-4.8-5.5-2.9-9.3-1-3.1-2.8-7.3-1.5-9.2 1.8-2.4 6.1-2.8 9.5-4.2-2.4-3.7-5.8-.7-9.1.4-2.3.7-4.9 2.4-7 2-2-.4-3.6-2.9-6.9-5.8.3 6.5-.2 11.9.9 16.9 1.6 7.4.6 13.8-4.5 19.2-2.3 2.5-5.5 3.8-8.6.3-1.3-1.6-3.1-2.8-4.9-4.2zM133 335.8c3.9-1.6 7.6-2.3 10.1-4.3 10.6-8.8 14.2-24.7 8.9-37.2-3.5-8.4-8.9-11-17.4-7.9-11.1 4-19.6 11.6-27.7 20-5.1 5.2-3.8 13.8 1 16.9 4.8 3.1 10.1 5.6 15.5 7.6 2.2.8 5.3-.4 7.9-.8 1-.1 1.9-.4 2.8-.7-.2 1-.5 2-.7 3-.2.9-.2 1.8-.4 3.4zm109.1 52.9c11.1 5 21.5 9.7 32.8 14.8-.6-2.5-1.1-4.5-1.6-6.8 3.4-2.4 3.4-2.4 5.3-10.2 3-12.2-6.2-28-18.2-30.5-2.4-.5-6.5.5-7.7 2.3-6.5 9.3-10.1 19.7-10.6 30.4zm132.3 2.5c10.9-4 21-7.7 32.8-12-2.9-9.3-5.3-19.5-9.3-29.1-2.7-6.6-16.4-8.2-19.9-2.5-5 8-9.5 16.6-6.7 26.9 1.5 5.4 2.1 11.2 3.1 16.7zm-173.9-90.1c4.5 3.8 6.3 7.4.7 11.1-.3.2-.3 1-.4 1.6-1.3 6.3-.8 12.8-2.4 19.3-3.4 13.6 11.1 22.3 24.1 19.5 4.9-1.1 8.8-3.5 8.6-9.5-.2-12.7-7.1-21.3-18-26.2-4.9-2.2-5.4-4.9-5.4-9.2 0-3.3-.6-6.7-1-10.9-2.7 1.8-4.2 2.8-6.2 4.3zm-32.4 110.4c1.9-.9 3.9-2 6.1-2.9 2.2-.9 4.4-1.5 6.7-2.2 3.1-1 7.5-1.1 8.9-3.3 1.2-1.9-1.2-5.9-1.8-9.1-1.5-8.4-4.6-16-9.6-23.1-5.7-8.1-10.6-9.9-19.1-4.3-6.5 4.3-6.5 4.7-1.5 10.9.6.8.8 2 1.1 3 2.9 10.3 6 20.3 9.2 31zm283-52c.2 0 .3 0 .5.1 0 1.5.3 3-.1 4.4-1.4 5.7 1.3 7.1 6.5 8.8 6.1 1.9 12 2.3 18.1 3.3 4.1.6 4.7-.7 4.4-3.7-1-8.3-1.7-16.6-3.3-24.8-1.8-9.2-12.8-13.3-20.2-7.7-2 1.6-3.5 4.5-4.2 7.2-1 4-1.2 8.2-1.7 12.4zm-108.4 1.9c-.1 1.8-.2 4.2-.3 7 3.9 2.1 4-1.5 4.5-3.8.8-3.6 2-6.5 6-5.2.5-10.5.9-20.9 1.4-31.3-8.3-.5-16.5-1-24.8-1.4-2.6 8.6-2.5 16.8.9 24.5 1.8 4.3 3.4 7.6-2.2 9.7-.1 0 .1.7.4 2.2 2.5-1.3 4.6-2.4 7.1-3.7 1.4.3 3.6 1 7 2zm221.8 93.5c3.9 0 7.6-1.1 11.3-1 5.5.1 5.6-3.6 5.9-7.2.3-2.8.3-5.7.1-8.5-.5-6.4-1.3-12.7-2-20.3-3.1 2.4-4.6 3.7-6.2 4.9-8 5.9-17.4 8.3-26.7 11.1-3.6 1.1-65.1 9-68.4 10.9M233.7 306c-.6-4.1-.9-7.6-1.6-10.9-2-9.9-10.8-13.9-19.2-8.5-3.4 2.2-5.2 4.9-2.5 9 1.3 2.1 2.8 4.8 2.6 7-.8 6.7 2.4 10.6 7.4 14.3 7.7 5.6 7.8 5.8 11.4-3.1 1.1-2.5 1.4-5.5 1.9-7.8zm88.2 88.7c0-.7-.1-1.5-.1-2.2 5.2-.7 10.5-1.4 15.7-2-.5-2.8-3-3.8-5.6-2.4-1.7.9-3.7 1.7-5.5 1.8-5.2.2-10.3 0-15.5 0h-17.2c-.1-.9-.1-1.8-.2-2.7 11.4-2.7 23.2-1.3 36.3-.3-2.3-1.3-3-2.1-3.8-2.1-12.3-.7-24.7-1.3-37-1.8-1.4-.1-3.9.7-4.1 1.5-.7 2.9-.7 6-.7 9 0 .2 1.8.7 2.7.6 3.1-.4 6.2-1.4 9.3-1.5 5.6-.3 11.2-.3 16.8-.3 2.1 0 4.1.4 6.2.6 0 .6-.1 1.3-.1 1.9-3.9.7-7.8 1.6-11.7 1.9-7.2.6-14.5 1.1-21.7 1.4-3.1.1-4.7 1.8-4.8 5.3l54-7.8c-.1-.5-.1-.9-.2-1.4-4.5.1-8.6.3-12.8.5zm-141.1-31.4c.2.3 1.7 1.4 2.3 3 2.5 6.2 6.4 6.7 12.6 5.3 5.7-1.3 12-.3 19.3-.3 3.7-3.5-2.7-7.8-1.3-10.7-7.7-4-17.8.1-22.5-8.4-3.4 3.6-6.7 7.1-10.4 11.1zm44.4 13.9c-3.8.3-7.1-.4-9.2.9-7 4.4-13.5 9.5-20.9 14.8.9 3.2 2.1 7.2 3.3 11.4 8.2-1.7 14.7-5 18.4-12.6 2.2-4.2 4.9-8.3 8.4-14.5zm-30.9 30c-8.7 3.6-15.6 6.8-22.7 9-2.2.7-4.5.1-3.9 3 .4 2.1 1.7 5.3 3.2 5.8 3.9 1.2 8.3.9 12.4 1.4 4.7.6 8.5-1.2 9.8-5.4 1.2-4 .8-8.5 1.2-13.8zM312.2 379c-.5-5.6-1-10.4-1.5-15.6-6.1 0-12-.1-17.9.1-1.4.1-2.8 1.3-4.2 1.9-1.8.7-3.7 1.4-5.9 2.2.1 5 2.1 8.4 9.4 6.8 2-.4 8-2.3 7.7 3.6 4.3.3 8.1.6 12.4 1zm-71.1 17c0 4.6-.2 8.6.1 12.6.1 1.4 1.6 3.2 2.8 3.7 3.5 1.4 7.1 2.8 10.8 3.3 5.2.7 10.4.1 14.6-4.6-4.7-3-8.9-6.1-13.4-8.4-4.7-2.5-9.7-4.3-14.9-6.6zM172 294.6c-2.1 1.4-3.4 2.2-4.5 3.1-3.9 3.2-5 2.8-6.8-1.7-.4-1-2.3-1.5-3.3-2.1.4 6.8 1 12.4 1.1 17.9.1 3.8 6.7 10.8 10.4 10.1 1.2-.2 2.9-2.3 2.9-3.6.4-7.4.2-15 .2-23.7zm208.2 104.3c5.2 5.3 16.3 7.4 21.8 4.4 4-2.2 5.9-10.2 4.2-17.1-8.6 4.2-17.2 8.4-26 12.7zm12.9-143c-14.9 6.2-29.3 2.7-43.8-.8 4.4 4.5 10.5 5.8 16.1 8.1 6 2.4 11.9 4.8 18.2 7.4 1.2-5.7 12.4-4.6 9.5-14.7zm-34.7 101.8c3.8-1 7.9-1 10.4-3 2.3-1.9 3-5.9 4.2-9.1.5-1.2.7-3 .2-4.1-1.4-3.4-3.3-6.6-5.2-10.4-6 7.3-11.3 14.6-9.6 26.6zm119.1 25.5c-3 0-5.4.2-7.6 0-5.8-.6-11.6-1.1-17.2-2.2-4-.8-3.2 1.1-2.8 3.5 1.1 5.6 12.5 10.8 18.4 8.5 4.6-1.8 8.2-4.2 9.2-9.8zm-239.6-3.8c-8.7-.8-8.9-.9-11.3 3.6-2.8 5.4-5.2 10.9-7.6 16.1 3.4.8 6.4 1.5 8.4 1.9 3.6-7.4 6.9-14.3 10.5-21.6zm154-42.2c5.4 5.1 10.4 9.7 16.2 15.2 1.8-1.6 4.9-3.4 6.4-6.2 1-1.7-.5-4.8-1-7.8-2.4 2.8-4 6-5.1 5.8-2.1-.4-4.3-2.3-5.8-4.2-2.7-3.4-4.8-7.3-7.7-11.6-1.3 3.9-2.3 6.9-3 8.8zM35.3 282.3c1 .4 1.9.8 2.9 1.2 7.2-17.7 14.5-35.3 21.7-53-.4-.2-.9-.4-1.3-.6C48 246.1 43.5 265 35.3 282.3zm399 96.2c2.8-7.7 5.4-15.1 8.1-22.6-8 .9-13.7 6.9-14.3 14.6-.3 5 2.3 7.2 6.2 8zm-191.8-14c-6.5 0-12-.2-17.4.2-1.4.1-3.6 2-3.8 3.4-.2 1.2 1.7 3.9 2.8 4 5.5.4 11.1.2 16.7.2.6-2.6 1.1-4.9 1.7-7.8zm98-106.2c1.1 2.3 1.3 3.6 2.2 4.4 2.8 2.7 5.8 5.1 8.7 7.7 7.5 6.8 7.5 6.8 12.5-1.1-7.3-3.5-14.7-6.9-23.4-11zM34.6 415.2c.4-.4.8-.8 1.3-1.2-2.7-3.5-5.3-7.1-8.1-10.5-2.7-3.3-5.9-6.2-8.5-9.7-4.9-6.7-6.1-7.8-10.1-7.1 7.8 10.3 15.3 20.6 25.4 28.5zm149.3-137.4c-6.2-.4-13.2-.8-20.1-1.2.1 2-.4 4.4.5 5.4 2.1 2.1 5.9 5.6 7.2 4.9 4.8-2.4 8.7-6.2 12.4-9.1zm72.7 70.6c4.6 3.8 5.6-.1 6.6-2.8 1.7-4.4 3.1-8.9 4.6-13.3 1.2-3.5 2.4-7 3.5-10.6-.4-.2-.9-.4-1.3-.5-4.4 8.9-8.8 17.8-13.4 27.2zM24.3 417.9c.4-.3.9-.7 1.3-1-4.9-6.8-9.7-13.6-15.1-21-1.6 7.2 6.2 18.9 13.8 22zm340-27c.8-6.1 1.4-11 2-15.8-.7-.3-1.5-.6-2.2-1-2.6 4.2-5.3 8.5-8.4 13.5 3.5 1.3 5.8 2.2 8.6 3.3zm36.1-130.1c-1.6 1.8-2.8 3.4-4.2 4.7-4.7 4.6-4.7 4.5 1 8.6 7.7-6.2 8.1-7.8 3.2-13.3zm-210.1 116c-.4.6-.9 1.2-1.3 1.8 1.4 1.3 3.4 3.9 4.2 3.6 5.1-1.9 10-4.5 15-6.9-.1-.4-.3-.8-.4-1.2-5.7.9-11.6 1.8-17.5 2.7zM84.2 234c4.6-4.2 7.4-9.5 14.2-7.4-2.4-1.7-5.7-4-7-3.1-3.2 2-7.5 4-7.2 10.5zM419 331.4c-.5.2-1 .3-1.5.5 1.1 4 2 8.1 3.3 12.1.2.6 1.7.9 2.5 1.3.4-.9 1.4-2 1.1-2.6-1.6-3.9-3.6-7.6-5.4-11.3zm-276.2 25.3c-.2.1-.4.3-.6.4 2.7 3.4 5.5 6.8 8.5 10.6 1-1.1 2.2-2.5 3.5-3.9-4.1-2.6-7.7-4.8-11.4-7.1zm181.5-11.9c-.6-.1-1.2-.3-1.8-.4-.7 3.5-1.4 7.1-2.2 10.9h5.1c-.5-3.8-.8-7.2-1.1-10.5zm-131.2 41.5.9 1.8c5.1-2.7 10.3-5.4 15.4-8.2-.2-.5-.5-.9-.7-1.4-5.3 2.7-10.5 5.3-15.6 7.8z"/>
  <path d="M595.3 450.4c-.3-10.5-.8-21.1-.8-31.6-.1-70.4-.2-140.8-.2-211.2 0-21.3.1-42.7-.1-64-.1-12.1-.9-24.2-.9-36.3 0-13 .8-26 .8-39.1.1-13.7-.4-27.4-.5-41.2-.1-7.9 0-15.8 0-25.2h-23.4L401 1.2c-26.8-.1-53.7 0-80.5-.1C232.9 1 145.2.9 57.6.7 56.4.7 55.2.2 54 0h541.3v450.4zM2.7 0c-.1 16.2-.1 32.4-.2 48.6-.2 29.3-.5 58.7-.5 88C1.7 243 1.5 349.5 1.3 456c0 4.4.2 8.9.3 13.3-.4-1.5-1.1-3-1.1-4.5-.1-56.2 0-112.5 0-168.7 0-97.2 0-194.5.1-291.7C.6 3.1-1.7-.3 2.7 0zM203.2 469.3c2-.2 4-.7 6-.7l375.2-.3c10.1 0 10 0 10.2-9.9 0-2.3.4-4.6.6-6.9v17.8h-392z" fill="#fff"/>
  <path d="M225.3 142.5c1.6-.3 3.8 0 5.2-1.1 5.1-4 9.9-8.4 14.8-12.6 4.1-3.6 7.7-8 12.3-10.5 3-1.6 7.7-1 11.4-.4 8 1.3 15.9 2.9 23.7 4.9 4.9 1.2 9.6 3.3 14.2 5.1 4.7 1.9 9.3 4 13.9 5.9 3.8 1.6 3.3 3.8.7 5.7-13 9.5-17 23.7-20.4 38.3-.6 2.6-1.7 5.1-2.9 7.5-3.1 6.4-5.2 12.3-.5 19.3 4.8 7 7.7 15.2 12.6 22.1 6.6 9.4 14.5 17.7 26.2 20.9 1.7.5 3.3 1.3 4.9 2.2 1.1.6 2.8 1.6 2.9 2.5.1 1-1.3 2.7-2.3 3-3.7 1.3-3.9 3.9-4.3 7.3-.6 6.3-1.8 12.6-3.4 18.7-3.4 12.9-7.3 25.7-11 38.6-2.8 9.7-5.9 19.4-8.8 29.1-1 3.2-.9 7.6-3.1 9.3-2.1 1.7-6.4.5-9.7.7-1 0-2 .3-4.1.7 1.6-4 2.9-7.2 4.3-10.8 1.6 1 2.7 1.7 4.7 2.9.9-6.9 8.3-11.7 3.4-21.3-1.1 2.7-1.7 4.4-2.4 6-1.3-6.6 5.6-10.3 2.6-17.6-2.9 3.7-5.2 6.7-7.5 9.7-.4-.2-.7-.4-1.1-.6 3.2-6.8 6.4-13.6 9.7-20.4-.7-.4-1.4-.7-2.2-1.1-2.3 3-4.7 6-7 9-.3-.2-.6-.4-.8-.6 5-10.2 10.1-20.4 15.1-30.7-.6-.5-1.1-.9-1.7-1.4-1.2.9-2.8 1.5-3.4 2.7-7.9 15.5-15.7 31-23.5 46.6-2.2 4.4-4.1 9-6.9 13.2 9.7-28.4 23.9-54.8 38-81.2-.9-.4-1.8-.8-2.7-1.3-15.7 29.9-30.8 60.1-43 91.6-5.4-1.7-8.3-3.5-4.8-9.6 4.7-8.1 8.2-17 12.4-25.5 7.4-14.9 14.1-30.3 22.7-44.4 3.1-5 7.7-9.5 10.2-15.1l2.1-4.8-1.4-1.4c-1.1.9-2.7 1.7-3.4 2.9-5.9 10.3-11.7 20.7-17.3 31.1-6.6 12.5-13 25.2-19.5 37.7-.5.9-1.2 1.6-1.9 2.4-.4-.2-.8-.5-1.3-.7 11.2-23.4 22.5-46.8 33.7-70.2-.3-.3-.5-.7-.8-1-1.4 1.4-3.2 2.6-4.2 4.3-6.7 11.8-13.4 23.7-19.7 35.7-8.6 16.4-16.8 33.1-25.4 49.5-2.7 5.3-5.8 10.4-7.8 14-10.4.7-19 1.3-27.6 1.9-.1-.4-.2-.7-.3-1.1 1-.4 1.9-1 3-1.3 6.3-2.4 12-6.5 13-12.8.9-5.3-1.2-11.5-3.3-16.8-1.2-3.2-1-4.8 1-7.4 9.8-13.2 9.2-28.3-3-40.2-5.1-5-12.3-5-17.8 1.7-4.1 5-6.4 5.6-10 2.1-2.8-2.7-1.3-9.9 2.3-11.1 12.6-3.9 23.5-10.3 31.1-21.4.9-1.3 1.9-2.4 3.1-3.9 1.9 2.1 2.9 3.9 4.5 5 3.6 2.5 9.7 1.9 12.4-1.6 8.6-11 12.3-22.8.2-32.8-3.3-2.7-8.5-3.2-12.9-4.7 1.7-4.7-1.4-12.3-5.9-14.4.7-2.1 1.4-4.2 2.2-6.3 11.2 1.3 19.6-9.3 17.5-20.7-1.8-9.9-7.7-16.9-15.9-21.2-5.9-3.1-13.3-3.1-19.1 0-3.8-2.6-6.9-5.5-10.5-7.3-11-5.4-21.7-12.1-33.4-15.1-15.6-4-31.3-3.5-45.7 7.2-9.3 6.9-17.4 14.5-24.9 23.1-11 12.6-12.1 31.8-2.3 45.3.7 1 1 3.2.4 4-2.6 3.4-5.7 6.5-9.1 10.3-.6-.3-2.4-1.3-4.1-2.2-12.8 6.9-14.9 18.3-13.5 31.2 1 9.3 10.7 14.9 20.3 13.9 6.1-.6 12-.9 17.5-3.9 1.2-.7 2.9-1.1 3.6-2.2 3.7-5.6 6.1-4.5 10 .4 6.6 8.3 15.5 13.7 25.9 16.8 2.1.6 3.4 4.6 4.8 7.1.2.3-1.1 2-1.9 2.2-2.7.7-5.5 1-9 1.6-9-9-13.2-7-22.9-1.5-2.1 1.2-4.3 2.1-6.1 3.5-7.8 6.4-16.7 11.5-21.8 20.9-3 5.5-3.2 9.8.3 15.1 6.3 9.6 15.6 14.1 25.9 17.4 3.9 1.2 5.7 3.8 6.7 6.9-14.9-6.6-29.5-13.1-44.2-19.4-3.5-1.5-7.4-1.9-10.9-3.2-1-.4-2.1-2.6-1.8-3.7 1.5-6.1 2.9-12.2 9.6-15.6 1.7-.8 1.7-5.2 2.4-7.9-.9-.4-1.8-.8-2.6-1.2-2.3 3.2-4.6 6.5-6.9 9.7-.5-.3-1-.5-1.4-.8 3.8-8.2 7.7-16.3 11.7-24.9-1.9-3.2-4.3-3.1-6.1.8-3.5 7.6-6.6 15.3-10 22.9-1 2.2-1.8 6-5.9 2.4 5.6-13.2 11.3-26.5 17-39.8-.8-.4-1.6-.8-2.4-1.3-1.7 2.5-3.7 4.9-4.9 7.6-4.7 10.8-9.1 21.8-13.7 32.6-1.7 4-3.7 8-5.9 11.8-.7 1.1-2.8 1.2-5.2 2.1 9.4-20.8 18.1-40.1 26.8-59.4-.3-.5-.6-.9-1-1.4-1.2.9-3 1.6-3.5 2.8-5.8 12.7-11.3 25.5-17 38.2-.7 1.7-2.4 2.9-3.6 4.4-.5-.3-1-.7-1.5-1 6.1-15.2 12.2-30.4 18.5-45.5 1.2-2.8 3.3-5.1 4.7-7.8.5-1-.1-2.4-.2-3.7-1.2.6-3 .8-3.5 1.7-2.6 5.6-5 11.3-7.4 17-5.8 14.1-11.6 28.1-17.4 42.2-1.1 2.7-1.7 5.6-3.1 8.1-.5.9-2.7.8-4.2 1.2 0-1.3-.4-2.7.1-3.8 4.7-11.2 9.6-22.3 14.3-33.5 6.7-16 11.3-32.9 20.4-47.8.4-.6-.1-1.8-.2-2.8-1.2.4-3.1.5-3.5 1.3-2.4 4.9-4.6 9.8-6.6 14.9-7.8 19.6-15.4 39.2-23.3 59.3-.6-.8-1.1-1.3-1.1-1.6 1.1-6.6.4-13.4 3.5-19.9 4.2-8.6 6.9-18 10.8-26.7 4.8-10.7 10.2-21.1 15.3-31.7.4-.8 1.1-1.6 1.2-2.4.2-1.4.1-2.9.2-4.3-1.4.8-3.3 1.2-4.2 2.4-1.6 2.2-2.7 4.9-4.4 8.1-2.2-6.8 6.9-10 1.4-16.7-12.1 29.1-24.3 58.2-36.4 87.4-.5-.2-1-.4-1.4-.6 12.4-34.2 25.6-68.1 42.5-100.5.1-.2-.9-1.1-1.8-2.2-1.6 1.7-3.5 3-4.4 4.8-3.4 7.4-6.5 14.9-9.6 22.4-6.9 16.7-13.7 33.5-20.6 50.2-2.7 6.4-5.5 12.7-8.3 19.1-.6-.2-1.2-.5-1.8-.7 1.5-3.8 3-7.6 4.3-11.5 3.4-10.1 6-20.5 10.2-30.3 8.1-18.7 17.2-37 25.9-55.4.7-1.4 2.7-2.3 3.3-3.7.9-2.3 1.2-4.9.5-7.7-16.1 29.3-31 58.9-42.1 90.3-.6-.3-1.3-.5-1.9-.8.5-1.7 1.3-3.3 1.5-5.1 2-17.1 11.9-31.1 18-46.7 4.8-12.3 11.2-23.9 17.2-35.7 2.5-5 6.1-9.4 8.9-14.2 1.1-1.9 1.1-4.3 1.7-6.5-.9-.3-1.8-.7-2.6-1-1.8 3.2-3.7 6.4-5.4 9.7-3.5 6.9-7.1 13.9-10.3 20.9-6.1 13.3-11.9 26.6-17.9 39.9-2.6 5.7-5.6 11.3-8.4 17-.9 1.9-1.7 3.9-2.4 5.4-1.6.1-3 .2-4.3.3.2 3.5-5.9 7 0 10.5 1.3-1 2.7-2 4.5-3.3-2.8 8.3-5.4 16.1-8.4 24.9l6-.8c0 .3.2.6.1.8-.8 3-3.1 6.4-2.3 8.8 1.6 4.8 2.3 9.6 2.7 14.6.7.2 1.4.4 2 .6 2.4-3.9 4.8-7.9 7-11.4v10.1c1.4-.1 2.9-.3 4.2-.4-.5 4.8-2.3 5.8-7.5 4.1-5-1.7-10-3.1-14.9-4.6V107.8c1.3-.3 2-.6 2.7-.7 16.3-1.1 32.6-2.2 48.9-3.4 11.4-.9 22.8-2.2 34.2-3.3 1.3-.1 2.6-.2 3.9.1 12.5 2.5 24.9 5.7 37.5 7.6 12 1.8 24.1 2.3 36.2 3.5 13.7 1.4 27.4 3 41.1 4.3 5.7.6 11.5.6 17.2 1 .9.1 2.4 1.6 2.3 2-2.2 7.6-5.1 15.1-8.3 23.6zm33.1 131.6c-.4-.3-.9-.5-1.3-.8 1-2.1 1.9-4.2 2.9-6.4-8.4 8.7-8.5 8.8-4.7 12.8-1.5 4-3.1 7.9-4.6 11.8.5.2 1.1.5 1.6.7l26.1-48.3c.5.3 1 .6 1.5.8-8.3 21.2-21.4 40.3-28.3 62.8 4.5-1 17.6-23.1 17.2-27.8-1.9 2.7-3.7 5.3-5.4 7.9.3-3 1-5.6 2.3-7.9.6-1 2.1-1.9 3.3-2.1 3.5-.5 5.6-4.1 4.1-7.7-.9 1.8-1.9 3.7-2.8 5.5-.6-.3-1.2-.6-1.7-.9 6.4-12.2 12.8-24.4 19.6-37.3-3.3.4-4.3-7.5-8.1-1-6.5 11.3-12.8 22.7-19.2 34-.7 1.4-1.6 2.6-2.5 3.9zm-198.5-112c-2.6-2.1-4.2-1.3-6 2.9-3 7.2-6.1 14.3-9.5 21.2-3.8 7.8-9.2 15-11.7 23.2-3.5 11.5-9.6 21.4-15.2 31.7-.6 1 0 2.7.1 4.1.7.1 1.4.2 2 .3C33 218 46.3 190.3 59.9 162.1zm186.6 184.1c1.1.2 2 .5 2.1.3 14.6-25.3 24.5-53.1 42-76.8 1.5-2 2.1-4.7 3.1-7.1l-1.8-.9c-17.9 26.5-31.3 55.4-45.4 84.5zm41-85.7c-.6-.2-1.3-.4-1.9-.6-3.5 5.9-7.1 11.7-10.4 17.6-8.3 14.9-16.4 29.8-24.6 44.7-1.5 2.7-2.7 5.5-3.8 8.3-.4 1 0 2.3.1 3.4 1.2-.5 2.9-.7 3.5-1.7 1.6-2.6 2.8-5.5 4.1-8.2 6.7-13.4 13.2-26.8 20.2-40 3.4-6.4 7.7-12.4 11.5-18.7.7-1.4.8-3.2 1.3-4.8zM16.6 227.7c.9.4 1.7.9 2.6 1.3 2-3.3 4-6.6 5.9-10 .3-.5-.2-1.5-.3-2.2-.8.1-2 0-2.3.5-2.1 3.4-3.9 6.9-5.9 10.4zm266.3 25.6c.5.3 1 .5 1.4.8 3.3-2.7 5.4-6 6.3-10-.6-.3-1.1-.6-1.7-.9-1.9 3.4-3.9 6.8-6 10.1zM581.6 409.2c-31.3-13.5-64.6-19.4-96.3-30.6 2-11.6.9-22.9-2-33.9-1.8-6.7-7.2-11.2-13.6-13.9-.8-.3-2-.2-2.9 0-10.1 2.2-19 5.8-21.6 15.9-4.7-.9-8.7-1.6-12.6-2.4-1-.2-2.4-.7-2.8-1.5-2.8-5.5-6.9-11-7.7-16.9-1.3-10.4-4.6-19.9-8.3-29.4-.6-1.6-.9-3.3-1.5-5.8 4.6.5 8.4 1.3 12.1 1.2 15-.2 29.9-1 44.9-.9 12.4.1 24.8 1.3 37.1 1.6 10 .3 19.9-.3 29.9-.1 8.8.2 17.5.8 26.2 1.5 6.2.5 12.3 1.9 18.4 2.3 3.5.2 4.4 1.6 4.4 4.8.3 25.1 1.2 50.2.8 75.3-.1 9.3-3 18.6-4.5 28-.2 1.3 0 2.7 0 4.8zM253.1 422.7c-12.9 1.7-25.8 3.3-38.7 5-.1.7-.3 1.4-.4 2 1.6.9 3.3 2.7 4.7 2.5 11.2-1.9 22.3-4.5 33.5-6.3 5.2-.8 10.6-.1 15.9-.6 9.8-.9 19.7-2.3 29.5-3.2 7-.6 14-.7 21.1-1.1 2-.1 3.9-.4 5.9-.7 0-.8-.1-1.5-.1-2.3-9.7 0-19.4-.4-29 .1-9.9.5-19.7 2-30 3.1 4.2-4.7 7.3-9.9 11.8-12.9 3.6-2.3 8.9-1.9 13.4-2.7 3.9-.7 7.8-1.6 11.7-2.2 8-1.2 16.1-2.7 24.2-3.3 10.2-.8 20.5-1.8 30.6-.9 8.4.7 16.9 1.6 24.1 8.6 7.6 7.4 26.9 5.1 30.1-10.7.9-4.6 3.2-5.7 7.4-6.2 4.4-.4 8.8-.1 13-3.5 3.7-3 8.3 1.1 10.7 3.8 5.9 6.9 14.3 8 21.9 9 5.1.7 11.6-2.3 14.9-8.6 5.3-10 5.2-7 14.3-5.5 7 1.1 13.6 4.6 20.5 6.7 13.2 4 26.5 7.5 39.6 11.7 6.5 2.1 12.8 5 19.1 7.7 2.9 1.2 3.6 2.8.4 4.9-6.5 4.3-13.7 6.3-20.8 9-8.1 3.1-16.2 3.4-24.3 5-8.8 1.7-17.8 2.3-26.7 3.4-9.5 1.2-18.9 2.5-28.4 3.6-3.8.4-7.6.6-11.4.8-15 .8-30.1 1-45.1 2.4-8.8.9-17.6.6-26.4 1.8-9.6 1.3-19.5.6-29.3 1.4-13.6 1.1-27.1 3.4-40.6 4.2-14.7.9-29.5.9-44.3 1.2-16.1.4-32.2 1.6-48.3.9-18.7-.9-37.4-3.5-56.1-5.4-2.1-.2-4.7-7.4-3.8-10.6.9-3.4 3.5-3.1 6.1-2.4 10 2.6 21.5-.4 23.9-9.4 1.6-5.8 4.7-6.7 9.2-7.4 8.1-1.2 16.2-2.6 24.3-3.5 1.8-.2 4.7.8 5.7 2.2 4.1 6.4 9.6 8 16.2 8.4zm203.6-8c.2-.4.3-.8.5-1.2-2.2-.3-4.5-1-6.7-.9-6.6.5-13.1 1.5-19.6 2-14.5 1.2-29.1 2.2-43.7 3.4-16.5 1.4-33.1 2.8-49.6 4.4-10.1 1-20.2 2.3-30.3 3.6-10.8 1.3-21.6 2.9-32.4 4.1-7.4.9-14.9 1.4-22.3 2.4-1.3.2-2.4 2.3-3.5 3.6 1.4.3 2.8.9 4.1.7 12.3-1.4 24.6-3.1 36.9-4.5 11.2-1.3 22.3-2.1 33.5-3.4 11.6-1.3 23.2-3.1 34.8-4.4 11-1.3 21.9-2.4 32.9-3.3 10.8-.9 21.6-1.6 32.4-2.3 3.2-.2 6.4.2 9.5-.3 7.8-.9 15.6-2.5 23.5-3.9zm-130.6 24c2.2-.4 3.8-.8 5.4-1 6.8-1 13.6-1.9 20.4-2.8 5.5-.8 11-1.6 16.5-2.3 8.2-1.1 16.3-2.1 24.5-3 10.4-1.2 20.7-2.5 31.1-3.6 7.8-.9 15.6-1.3 23.4-2.5 13.1-1.9 26.2-4.2 39.2-6.5 4.8-.9 9.4-2.4 14.1-3.7-.1-.5-.2-1-.2-1.4-1.1-.2-2.3-.9-3.3-.6-5.1 1.1-10.2 2.7-15.3 3.5-14.8 2.1-29.6 4-44.4 5.7-8.3 1-16.8 1.4-25.1 2.5-14.2 1.9-28.2 4.5-42.4 6.4-13.8 1.9-27.7 3.3-41.6 5.1-2.6.1-4.7 1.5-2.3 4.2zm-24-31.2c11.5 1.4 50.7-2.7 53.4-5.5-8.2-2.6-49.5 1.4-53.4 5.5zm156.3 16.9c5 3.1 41.1-2.6 45.2-7-15.4 2.4-29.6 4.6-45.2 7z" fill="#fff"/>
  <path d="M435.1 190.2c2.3.8 6.4 1.4 6.6 2.5.6 4.3 0 8.7-.2 13.4-6.1-.3-8.7.7-10.7 6.5-4.8 13.7-13.5 25.2-27.4 30.9-6.4 2.6-13.6 3.7-20.5 4.9-14.2 2.4-28.1-.1-41.3-4.7-15.7-5.4-27.5-15.7-33.6-32-4.3-11.5-3.4-22.9-.6-34.1 2.1-8.3 4.5-17 9-24.2 4.5-7.2 11.3-13.3 18.1-18.6 10.5-8.3 23.2-10.8 36.4-11.6 13.5-.8 25.8 3.3 37 9.8 14.8 8.5 24.3 21.4 26.1 39 .4 6.2.6 12.3 1.1 18.2zm-66.4-38.7c-1.4-1.2-2.5-3-3.7-3.1-7.7-.6-15.4-1.3-23-.8-4.9.3-7.3 7-5.2 11.2 4.8 9.6 20.2 19.1 31.3 15.2 3-1.1 6.5-2.6 9.4-2 4.6.9 7.1-.7 9.1-4.3-3.3-.6-3.7-8-9.1-3.7.5 1.3 1 2.6 1.7 4.2-6-1.6-8.3-2.8-12.8-6.5-1.7-1.4-3.5-2.6-5.5-3.5-1.4-.6-3.1-.6-4.7-.8.3 1.7.1 3.8 1.1 4.9 2.3 2.6 5.2 4.7 7.9 7-8.2 3-21.7-5-25-15.1 8.8-5.1 18.1-1.6 28.5-2.7zm-1.7 42.9c-1.5-.4-2.8-1.2-4.1-1.1-2.5 0-5.5 1.4-5.9-2.7-.4-3.5-.3-6.7 4.5-7.2 1.6-.2 3-1.3 4.6-2v-2.2c-2.3-.4-4.9-1.6-6.9-1-6.1 1.8-8.2 5.6-7.8 12.1.3 4.4 2.8 7.5 6.8 8.1 2.9.2 7.2 2 8.8-4zm6.8 27c-.1-.5-.2-1.1-.2-1.6-4.4-1-8.8-2.1-13.3-2.7-1.6-.2-3.5.8-5.1 1.5-.6.3-1.4 1.2-1.3 1.9 0 .7.8 2 1.4 2.1 4.7.7 9.5 1.3 14.2 1.5 1.3-.2 2.8-1.8 4.3-2.7zM349.3 187c-2.6-2.6-4.3-4.5-6.1-6.3-1.7 2.1-4.2 3.9-4.8 6.2-.3 1.1 2.9 4.4 4.5 4.4 1.8.1 3.7-2.4 6.4-4.3zm37.6-1c-3-2.4-4.8-3.9-6.6-5.4-1.4 1.8-4.1 3.8-3.9 5.5.1 2 2.8 3.7 4.3 5.6 1.6-1.5 3.2-3 6.2-5.7zM164.5 459.9c-1.7.6-3.3 1.6-4.7 1.6-7.6-.2-15.1-.9-22.7-.9-7.5 0-15.1.9-22.6.7-3.5-.1-7.5-1.2-10.1-3.4-1.4-1.1-.6-5.4-.3-8.1 2.1-17.1-6.9-27.1-20.5-35.4-18.7-11.4-37-23.7-55.2-36-7-4.8-9.7-13.7-1.7-22 6.3-6.5 14.5-8.3 22.3-10.6 10.8-3.2 21.8-4.6 33.3-4.5 7.5.1 15.3-2.2 22.6.4 18.5 6.6 34.9 16.4 44 34.9 4.3 8.7 8 17.7 11.1 26.9 1.4 4.1.6 8.9.9 13.4.7 12.7 1.5 25.4 2.3 38 .1 1.3.7 2.7 1.3 5zM105.7 215.2c2.1 0 4.2-.4 6.1.1 7.6 1.9 7.5 2 8.2-5.4 1.5-.2 3.1-.4 4.6-.6.2-.4.5-.7.5-1-1-10.9 4-20.2 8.4-29.5.4-.7 2.8-1 4.1-.6 1.5.4 2.7 1.8 4 2.8 10.9 8.2 14.7 6.6 24.1-1.1 6.3-5.2 6.5-5.2 11.8.5-3.8 3.9-7.5 7.8-11.9 12.4 6.6 2.5 6.8-4.2 10.9-4.9 1.8 1.3 4.1 3 7.1 5.3v-8.6c14.4.7 18.1-1.1 21.5-10.9 1.9 1 3.7 2 5.6 2.8 2.2.8 4.7 1 6.7 2.2 3.2 1.9 6 4.5 9.3 6.4 7.2 4.3 6.6 9.7 3.5 16.3-2.6 5.5 1.5 9.6 4.5 13.5 5.4 6.9 6.4 14.2 4.3 22.7-3.3 13.4-13.2 20.3-24.1 27-9 5.5-18.9 7.4-28.8 7.4-14.3 0-28.2-2.3-41.2-10.1-9.1-5.4-14.5-12.8-18.8-21.7-1.1-2.4-1.5-5.2-1.9-7.8-.4-2.8-2.1-4.9-4.2-2.8-4.2 4.1-8.8 4.3-12.9 1.4-4.9-3.5-3.9-8.8-1.8-13.7 0-.8.2-1.4.4-2.1zm55.3 15.6.6 1.8c.5 1.7 1 3.5 1.6 5.2 2.1 6.2 5.3 11.7 11.7 14.2 3.2 1.2 6.7 1.5 10 2.4 7.6 1.9 21.2-2.8 25-9.5 2.8-4.9 4.4-10.5 6.8-16.5-5.5-.8-10.9-2.5-16.1-2.1-10.2.8-20.8-3.5-30.6 2.1-.3.2-.7 0-1.1.1-2.6.8-5.3 1.6-7.9 2.3zm17.2-18.8c3.6-2.2 7.7-3.6 5.7-8.3-2.1-5.1-7.2-1.8-10.8-2.6-1-.2-4.1 3.4-4.2 5.3-.1 3.1 1.5 6.2 5.6 6.4-.4-2.9-.9-5.6-1.3-8.2.5-.1.9-.1 1.4-.2 1.2 2.4 2.3 4.8 3.6 7.6zm20.2-.8c-2.4-.4-3.9-1-5.2-.8-.4 0-1.2 2.2-.9 2.7.9 1.2 2.3 2.7 3.6 2.9 1.6.2 3.8-.4 4.9-1.5 3.2-3.4 3.8-7.8 2-11.9-.7-1.6-4.1-2.8-6.2-2.8-1.3 0-2.5 2.7-3.8 4.2.4.4.8.7 1.2 1.1 1.5-.3 3-.7 5.5-1.3-.4 3-.7 5.2-1.1 7.4zm17.5.4c.8.1 1.6.1 2.4.2.2-2.6.9-5.4.3-7.8-1.2-5.4-6.4-.7-9-3.1-1 1.8-3 3.6-2.8 5.2.3 2.2 2.2 4.2 3.8 6.7 1.9-2.8 2.8-4.2 4.3-6.4.4 2.5.7 3.8 1 5.2zm-5.4-23c.5.4 1.2 1.3 2.1 1.8 1.1.8 2.4 1.3 3.6 2 .1-1.5.8-3.2.2-4.3-1.2-2.3-3-4.3-5.1-7.2-3.6 3.5-6.7 6.4-9.7 9.4.5.6.9 1.3 1.4 1.9 2.2-1 4.4-2.1 7.5-3.6zM9.6 101.3V8.4h67.6c-5.4 3.2-9.7 5.8-14.1 8.3C50.5 24.1 44 36.5 40.4 49.6c-2 7.1 2.2 15.3 7.3 21.6 8.8 10.8 19.8 18.5 33 23 .8.3 1.4.9 2.9 2-25.1 1.8-49.3 3.4-74 5.1zM342.1 270c6.3 4.7 12.2 9 19 14.1 1.3-8.8 5.7-13.6 14-11.7 1.8.4 2.8 4.5 4.9 8 .3-.3 2-1 2.7-2.3 2.5-4.8 4.2-5.6 8.2-1.7 3.7 3.6 7.1 4.5 11.5.5 2.1 10.5 4.5 20.1 5.9 29.9.5 3.8-1.3 8-2.3 12.8-4.7-5.8-8.4-10.5-12.9-16-4.2 9.2-7.5 16.7-11.3 25-2.6-6.1-4.5-11.3-7.1-16.3-1-1.9-3.6-4.7-4.9-4.4-2 .5-3.5 3.1-5 5s-2.7 4-4.1 6.1c-.5-.2-.9-.4-1.4-.5.7-4 1.6-8.1 2-12.1.2-1.4-.8-2.8-1.2-4.3-1 1.3-2.7 2.4-2.9 3.8-.7 3.9-1 8-1.2 12-.2 2.8-.4 4.1-4.2 3.5-5.5-.9-11.2-.5-16.8-.4-4.2.1-5.9-1.5-4.8-5.8 3.8-14.7 7.8-29.4 11.9-45.2zM429.5 461.5c-12.3-.2-24.5-.8-36.8-.9-10.2 0-20.3.8-30.5.8-8.3 0-16.6-.9-24.9-.9-11.3.1-22.5.8-33.8 1-8.8.1-17.6-.4-26.5-.4-15.6-.1-31.3 0-46.9-.1-14-.1-28.1-.3-42.1-.3-4.8 0-9.7.7-14.5.8-1.5 0-4-.5-4.3-1.4-.7-2.1-.6-4.5-.2-6.7.1-.5 2.8-.9 4.2-.7 13.4 1.8 26.8 4.1 40.3 5.3 9.6.8 19.3.3 29 .1 18-.3 36-.4 53.9-1.1 11.7-.5 23.3-2.2 35-3.1 12.1-.8 24.2-1.1 36.3-1.9 6.5-.4 12.9-1.7 19.3-2.1 4.6-.3 9.3.4 14 .2 3.9-.2 7.8-1.2 11.8-1.5M158.9 322.7c1.8 1.5 3.6 2.7 5 4.2 3.1 3.5 6.2 2.2 8.6-.3 5.1-5.4 6.1-11.8 4.5-19.2-1.1-5-.6-10.4-.9-16.9 3.3 2.9 4.9 5.4 6.9 5.8 2.1.4 4.7-1.2 7-2 3.3-1 6.7-4.1 9.1-.4-3.4 1.3-7.7 1.8-9.5 4.2-1.4 1.9.4 6.1 1.5 9.2-1.9 3.8-1.7 6.7 2.9 9.3 3.4 1.9 3.5 7.7 1.3 11.1-1.9 2.9-3.5 6.3-4.1 9.7-1.6 9.1-6.9 15.3-14.5 19.7-1.2.7-3.2.1-4.9 0-2-.1-4.3-.8-6-.1-9.2 4-15.3-1.7-21.8-6.6-1-.8-2.1-1.5-2.9-2.5-1.1-1.3-1.9-2.9-2.9-4.4 1.3-.8 2.5-1.7 3.8-2.4 7.2-3.7 12-9.5 15.7-16.6.1-.4.4-.8 1.2-1.8zM133 335.8c.2-1.7.2-2.6.4-3.4.2-1 .5-2 .7-3-.9.2-1.9.5-2.8.7-2.7.4-5.7 1.6-7.9.8-5.4-2-10.6-4.5-15.5-7.6-4.8-3.1-6.1-11.7-1-16.9 8.1-8.3 16.5-16 27.7-20 8.5-3 13.9-.5 17.4 7.9 5.3 12.5 1.7 28.4-8.9 37.2-2.5 2.1-6.2 2.7-10.1 4.3z" fill="#fff"/>
  <path d="M59.2 409.4c-2-.9-4-1.6-5.9-2.6-5.3-2.5-10.6-5-15.7-7.8-2.6-1.4-4.7-3.7-7.1-5.5-5.3-3.8-10.5-8-16.2-11-5.3-2.8-5-7-4.9-11.6.1-9.2.1-18.5 0-27.7-.1-7.9-.5-15.9-.4-23.8 0-1.2 2.6-3.5 3.6-3.3 22.1 4.8 44.2 9.9 66.2 15 3.4.8 6.6 2.3 9.8 4.5-6.8 0-13.5.1-20.3 0-14.4-.1-27.6 4.7-40 11-10.5 5.3-17.6 19.7-9.5 30.5 3.7 5.1 9 9.1 14.2 12.9 8.2 6 16.8 11.5 25.2 17.2.6.4.7 1.5 1 2.2zM242.1 388.7c.5-10.6 4.1-21.1 10.6-30.4 1.2-1.8 5.3-2.8 7.7-2.3 12.1 2.6 21.2 18.3 18.2 30.5-1.9 7.8-1.9 7.8-5.3 10.2.5 2.3 1 4.3 1.6 6.8-11.3-5.1-21.7-9.8-32.8-14.8zM374.4 391.2c-1-5.5-1.6-11.3-3.1-16.8-2.8-10.3 1.8-18.8 6.7-26.9 3.5-5.7 17.1-4.1 19.9 2.5 3.9 9.6 6.4 19.8 9.3 29.1-11.8 4.4-21.9 8.1-32.8 12.1zM200.5 301.1c2-1.4 3.5-2.4 6.2-4.4.4 4.2 1 7.6 1 10.9 0 4.3.5 7 5.4 9.2 10.9 4.9 17.8 13.4 18 26.2.1 6-3.8 8.4-8.6 9.5-13 2.8-27.4-5.9-24.1-19.5 1.6-6.5 1.1-13 2.4-19.3.1-.5.1-1.4.4-1.6 5.6-3.6 3.8-7.2-.7-11zM168.1 411.5c-3.2-10.7-6.2-20.8-9.3-30.9-.3-1-.5-2.2-1.1-3-5-6.3-5-6.6 1.5-10.9 8.5-5.6 13.4-3.8 19.1 4.3 5 7.2 8.1 14.7 9.6 23.1.6 3.1 3 7.2 1.8 9.1-1.3 2.1-5.8 2.2-8.9 3.3-2.2.7-4.5 1.4-6.7 2.2-2.1.8-4.2 1.9-6 2.8zM451.1 359.5c.5-4.1.7-8.4 1.7-12.4.7-2.6 2.1-5.6 4.2-7.2 7.4-5.6 18.4-1.5 20.2 7.7 1.6 8.2 2.4 16.5 3.3 24.8.3 3-.2 4.3-4.4 3.7-6.1-1-12-1.4-18.1-3.3-5.3-1.7-7.9-3.1-6.5-8.8.3-1.4.1-2.9.1-4.4-.2-.1-.4-.1-.5-.1zM342.7 361.4c-3.4-1-5.6-1.6-7.1-2.1-2.5 1.3-4.6 2.4-7.1 3.7-.3-1.5-.4-2.2-.4-2.2 5.7-2.2 4.1-5.5 2.2-9.7-3.3-7.7-3.5-15.9-.9-24.5 8.3.5 16.5 1 24.8 1.4-.5 10.4-.9 20.8-1.4 31.3-4-1.3-5.2 1.6-6 5.2-.5 2.4-.6 6-4.5 3.8.2-2.7.3-5.2.4-6.9z" fill="#fff"/>
  <path d="M233.7 306c-.5 2.3-.8 5.2-1.9 7.8-3.6 8.8-3.8 8.6-11.4 3.1-5-3.7-8.3-7.6-7.4-14.3.3-2.2-1.2-4.9-2.6-7-2.7-4.2-.9-6.9 2.5-9 8.4-5.4 17.2-1.4 19.2 8.5.7 3.4 1 6.8 1.6 10.9zM321.9 394.7c4.2-.2 8.3-.4 12.5-.6.1.5.1.9.2 1.4l-54 7.8c.1-3.5 1.8-5.1 4.8-5.3 7.2-.3 14.5-.7 21.7-1.4 3.9-.4 7.8-1.2 11.7-1.9 0-.6.1-1.3.1-1.9-2.1-.2-4.1-.6-6.2-.6-5.6 0-11.2 0-16.8.3-3.1.2-6.2 1.1-9.3 1.5-.9.1-2.7-.4-2.7-.6 0-3 0-6.1.7-9 .2-.8 2.7-1.6 4.1-1.5 12.3.5 24.7 1.1 37 1.8.8 0 1.6.9 3.8 2.1-13.2-1-24.9-2.4-36.3.3.1.9.1 1.8.2 2.7h17.2c5.2 0 10.4.2 15.5 0 1.9-.1 3.8-.9 5.5-1.8 2.7-1.4 5.1-.4 5.6 2.4-5.2.7-10.4 1.4-15.7 2 .4.8.4 1.5.4 2.3zM180.8 363.3c3.8-4 7.1-7.5 10.5-11.1 4.7 8.4 14.7 4.3 22.5 8.4-1.4 2.9 4.9 7.2 1.3 10.7-7.2 0-13.5-1.1-19.3.3-6.2 1.4-10.1.9-12.6-5.3-.7-1.5-2.2-2.7-2.4-3zM225.2 377.2c-3.5 6.1-6.2 10.2-8.3 14.6-3.8 7.6-10.2 10.9-18.4 12.6-1.2-4.3-2.4-8.2-3.3-11.4 7.4-5.3 13.9-10.4 20.9-14.8 2-1.3 5.3-.6 9.1-1zM194.3 407.2c-.4 5.3 0 9.8-1.2 13.8-1.3 4.3-5.1 6-9.8 5.4-4.1-.5-8.5-.3-12.4-1.4-1.5-.5-2.8-3.6-3.2-5.8-.5-2.9 1.8-2.4 3.9-3 7.2-2.2 14-5.4 22.7-9zM312.2 379c-4.3-.4-8.2-.7-12.4-1 .3-5.9-5.6-4-7.7-3.6-7.3 1.6-9.4-1.8-9.4-6.8 2.2-.8 4.1-1.4 5.9-2.2 1.4-.6 2.8-1.8 4.2-1.9 5.9-.2 11.8-.1 17.9-.1.6 5.1 1 10 1.5 15.6zM241.1 396c5.2 2.2 10.2 4.1 15 6.6 4.5 2.4 8.6 5.4 13.4 8.4-4.2 4.7-9.4 5.3-14.6 4.6-3.7-.5-7.3-1.8-10.8-3.3-1.3-.5-2.7-2.4-2.8-3.7-.5-3.9-.2-8-.2-12.6zM172 294.6c0 8.7.1 16.3-.1 23.8 0 1.3-1.7 3.3-2.9 3.6-3.7.8-10.3-6.2-10.4-10.1-.1-5.6-.7-11.2-1.1-17.9 1 .6 2.9 1 3.3 2.1 1.8 4.5 2.9 4.9 6.8 1.7 1.1-1 2.3-1.7 4.4-3.2zM380.2 398.9c8.8-4.3 17.4-8.5 26.1-12.7 1.7 6.9-.2 15-4.2 17.1-5.6 3-16.7.9-21.9-4.4zM393.1 255.9c2.9 10.2-8.3 9-9.5 14.6-6.3-2.6-12.2-5-18.2-7.4-5.6-2.2-11.7-3.5-16.1-8.1 14.5 3.6 28.8 7 43.8.9zM358.4 357.7c-1.8-12 3.5-19.3 9.6-26.6 2 3.8 3.8 7 5.2 10.4.5 1.1.2 2.8-.2 4.1-1.2 3.2-1.9 7.2-4.2 9.1-2.5 2-6.6 2-10.4 3zM477.5 383.2c-.9 5.5-4.6 8-9.2 9.8-6 2.3-17.4-2.9-18.4-8.5-.5-2.4-1.3-4.3 2.8-3.5 5.7 1.1 11.5 1.6 17.2 2.2 2.2.2 4.5 0 7.6 0zM237.9 379.4c-3.6 7.4-6.9 14.3-10.5 21.7-2.1-.5-5-1.2-8.4-1.9 2.4-5.2 4.8-10.8 7.6-16.1 2.4-4.6 2.6-4.5 11.3-3.7zM391.9 337.2c.7-1.9 1.7-4.9 3.1-8.8 2.8 4.4 5 8.2 7.7 11.6 1.4 1.8 3.6 3.8 5.8 4.2 1.1.2 2.7-3 5.1-5.8.5 3 2 6.1 1 7.8-1.5 2.8-4.7 4.6-6.4 6.2-5.9-5.5-10.9-10.2-16.3-15.2zM35.3 282.3c8.2-17.3 12.6-36.2 23.3-52.3.4.2.9.4 1.3.6-7.2 17.7-14.5 35.3-21.7 53-.9-.5-1.9-.9-2.9-1.3zM434.3 378.5c-3.9-.8-6.5-3-6.2-8 .6-7.7 6.3-13.7 14.3-14.6-2.7 7.5-5.3 14.9-8.1 22.6zM242.5 364.5c-.6 2.9-1.1 5.1-1.7 7.7-5.6 0-11.2.2-16.7-.2-1.1-.1-3-2.8-2.8-4 .2-1.4 2.4-3.2 3.8-3.4 5.4-.3 10.9-.1 17.4-.1zM340.5 258.3c8.7 4.1 16.1 7.5 23.4 10.9-5 8-5 7.9-12.5 1.1-2.9-2.6-5.9-5-8.7-7.7-.9-.7-1.1-2-2.2-4.3zM34.6 415.2c-10-8-17.6-18.2-25.4-28.5 4-.8 5.2.3 10.1 7.1 2.5 3.5 5.7 6.4 8.5 9.7 2.8 3.4 5.4 7 8.1 10.5-.5.4-.9.8-1.3 1.2zM183.9 277.8c-3.7 2.9-7.7 6.7-12.4 9.1-1.3.7-5.2-2.8-7.2-4.9-.9-1-.4-3.4-.5-5.4 7 .4 14 .8 20.1 1.2zM256.6 348.4c4.6-9.3 9-18.3 13.4-27.2.4.2.9.4 1.3.5-1.2 3.5-2.3 7-3.5 10.6-1.5 4.5-2.8 9-4.6 13.3-1 2.7-2 6.6-6.6 2.8zM24.3 417.9c-7.5-3.1-15.4-14.8-13.8-22.1 5.3 7.5 10.2 14.2 15.1 21-.5.4-.9.7-1.3 1.1zM364.3 390.9c-2.8-1.1-5.1-2-8.6-3.3 3.1-5 5.8-9.2 8.4-13.5.7.3 1.5.6 2.2 1-.6 4.8-1.2 9.7-2 15.8zM400.4 260.8c4.9 5.5 4.5 7.1-3.3 13.3-5.7-4.1-5.7-4.1-1-8.6 1.5-1.4 2.7-2.9 4.3-4.7zM190.3 376.8c5.9-.9 11.7-1.9 17.6-2.8.1.4.3.8.4 1.2-5 2.4-9.9 5-15 6.9-.8.3-2.8-2.3-4.2-3.6.4-.5.8-1.1 1.2-1.7zM84.2 234c-.3-6.5 4-8.5 7.2-10.5 1.3-.8 4.6 1.4 7 3.1-6.8-2.1-9.6 3.3-14.2 7.4zM419 331.4c1.9 3.7 3.8 7.4 5.5 11.2.3.6-.7 1.7-1.1 2.6-.9-.4-2.3-.7-2.5-1.3-1.3-4-2.2-8-3.3-12.1.4-.1.9-.2 1.4-.4zM142.8 356.7c3.6 2.2 7.2 4.5 11.4 7.1-1.3 1.5-2.5 2.8-3.5 3.9-3-3.8-5.8-7.2-8.5-10.6.3-.1.5-.2.6-.4zM324.3 344.8c.3 3.4.7 6.7 1.1 10.5h-5.1c.8-3.8 1.5-7.3 2.2-10.9.5.1 1.1.2 1.8.4zM59.1 409.5c6.4 1.5 12.7 3.4 17.2 8.3-.3.5-.6 1-.9 1.6-5.4-3.3-10.8-6.7-16.2-10l-.1.1zM193.1 386.3c5.2-2.6 10.4-5.2 15.5-7.7.2.5.5.9.7 1.4-5.1 2.7-10.3 5.4-15.4 8.2-.3-.6-.6-1.3-.8-1.9z" fill="#fff"/>
  <path d="M258.4 274.1c.8-1.3 1.8-2.5 2.5-3.8 6.4-11.3 12.7-22.7 19.2-34 3.7-6.5 4.7 1.4 8.1 1-6.8 13-13.2 25.1-19.6 37.3.6.3 1.2.6 1.7.9.9-1.8 1.9-3.7 2.8-5.5 1.5 3.6-.5 7.3-4.1 7.7-1.2.2-2.8 1-3.3 2.1-1.3 2.3-2 4.9-2.3 7.9 1.8-2.6 3.6-5.2 5.4-7.9.5 4.7-12.6 26.8-17.2 27.8 6.9-22.4 20-41.6 28.3-62.8-.5-.3-1-.6-1.5-.8l-26.1 48.3c-.5-.2-1.1-.5-1.6-.7 1.5-3.9 3-7.8 4.6-11.8-3.8-4-3.7-4 4.7-12.8-1 2.1-1.9 4.2-2.9 6.4.5.2.9.4 1.3.7zM59.9 162.1C46.3 190.3 33 218 19.7 245.6c-.7-.1-1.4-.2-2-.3-.1-1.4-.7-3.1-.1-4.1 5.6-10.3 11.7-20.2 15.2-31.7 2.5-8.2 7.9-15.4 11.7-23.2 3.4-7 6.5-14.1 9.5-21.2 1.6-4.3 3.2-5 5.9-3zM246.5 346.2c14.1-29.2 27.6-58.1 45.4-84.5l1.8.9c-1 2.4-1.6 5.1-3.1 7.1-17.5 23.7-27.4 51.5-42 76.8-.1.2-1-.1-2.1-.3zM287.5 260.5c-.5 1.6-.6 3.4-1.4 4.8-3.7 6.3-8.1 12.2-11.5 18.7-7 13.2-13.5 26.7-20.2 40-1.4 2.8-2.5 5.7-4.1 8.2-.6.9-2.3 1.1-3.5 1.7 0-1.1-.4-2.4-.1-3.4 1.1-2.8 2.4-5.6 3.8-8.3 8.1-14.9 16.3-29.8 24.6-44.7 3.3-6 6.9-11.8 10.4-17.6.7.2 1.4.4 2 .6zM16.6 227.7c1.9-3.5 3.8-7 5.9-10.4.3-.5 1.5-.3 2.3-.5.1.8.6 1.7.3 2.2-1.9 3.4-3.9 6.7-5.9 10-.9-.5-1.7-.9-2.6-1.3zM282.9 253.3c2-3.3 4-6.7 6.1-10 .6.3 1.1.6 1.7.9-.9 4-3 7.2-6.3 10l-1.5-.9zM456.7 414.7c-7.8 1.4-15.7 3-23.6 4.2-3.1.5-6.3.1-9.5.3-10.8.7-21.6 1.3-32.4 2.3-11 .9-22 2.1-32.9 3.3-11.6 1.3-23.2 3.1-34.8 4.4-11.1 1.3-22.3 2.1-33.5 3.4-12.3 1.4-24.6 3.1-36.9 4.5-1.3.2-2.7-.5-4.1-.7 1.2-1.2 2.2-3.4 3.5-3.6 7.4-1.1 14.9-1.6 22.3-2.4 10.8-1.3 21.6-2.8 32.4-4.1 10.1-1.3 20.2-2.6 30.3-3.6 16.5-1.6 33.1-3 49.6-4.4 14.5-1.2 29.1-2.2 43.7-3.4 6.6-.6 13.1-1.5 19.6-2 2.2-.2 4.5.5 6.7.9-.1.1-.3.5-.4.9zM326.1 438.7c-2.5-2.7-.3-4.1 2.2-4.5 13.8-1.8 27.7-3.2 41.6-5.1 14.2-1.9 28.2-4.5 42.4-6.4 8.3-1.1 16.8-1.5 25.1-2.5 14.8-1.8 29.6-3.6 44.4-5.7 5.2-.7 10.2-2.4 15.3-3.5 1-.2 2.2.4 3.3.6.1.5.2 1 .2 1.4-4.7 1.2-9.3 2.8-14.1 3.7-13 2.4-26.1 4.6-39.2 6.5-7.7 1.1-15.6 1.6-23.4 2.5-10.4 1.2-20.7 2.4-31.1 3.6-8.2 1-16.3 2-24.5 3-5.5.7-11 1.6-16.5 2.3-6.8 1-13.6 1.9-20.4 2.8-1.4.5-3 .9-5.3 1.3zM302.1 407.5c3.9-4.1 45.2-8.1 53.4-5.5-2.7 2.7-41.8 6.9-53.4 5.5zM458.4 424.4c15.7-2.4 29.8-4.6 45.2-7-4.1 4.4-40.2 10.1-45.2 7zM368.7 151.5c-10.4 1.1-19.7-2.4-28.4 2.8 3.3 10.2 16.8 18.2 25 15.1-2.7-2.3-5.5-4.4-7.9-7-1-1.1-.8-3.2-1.1-4.9 1.6.2 3.3.2 4.7.8 2 .9 3.8 2.1 5.5 3.5 4.5 3.6 6.7 4.9 12.8 6.5-.6-1.6-1.2-2.9-1.7-4.2 5.4-4.3 5.8 3.1 9.1 3.7-2.1 3.6-4.5 5.2-9.1 4.3-2.9-.6-6.4 1-9.4 2-11.1 3.9-26.6-5.6-31.3-15.2-2.1-4.2.3-10.9 5.2-11.2 7.6-.5 15.4.3 23 .8 1.1 0 2.2 1.8 3.6 3zM367 194.4c-1.6 6-5.9 4.3-8.8 3.8-4.1-.6-6.6-3.6-6.8-8.1-.4-6.4 1.7-10.2 7.8-12.1 2-.6 4.6.6 6.9 1v2.2c-1.5.7-3 1.8-4.6 2-4.8.5-4.8 3.8-4.5 7.2.4 4.1 3.4 2.8 5.9 2.7 1.3.1 2.6.8 4.1 1.3zM373.8 221.4c-1.5.9-3 2.5-4.4 2.5-4.8-.1-9.5-.8-14.2-1.5-.6-.1-1.3-1.3-1.4-2.1 0-.6.7-1.6 1.3-1.9 1.6-.7 3.5-1.7 5.1-1.5 4.5.6 8.9 1.8 13.3 2.7.1.8.2 1.3.3 1.8zM349.3 187c-2.6 1.9-4.5 4.4-6.5 4.4-1.6 0-4.8-3.3-4.5-4.4.6-2.3 3.1-4.2 4.8-6.2 1.8 1.7 3.6 3.6 6.2 6.2zM386.9 186c-2.9 2.7-4.6 4.2-6.2 5.7-1.6-1.8-4.2-3.6-4.3-5.6-.1-1.7 2.5-3.6 3.9-5.5 1.8 1.5 3.6 3 6.6 5.4zM161 230.8c2.6-.8 5.2-1.5 7.9-2.3.3-.1.8.1 1.1-.1 9.8-5.7 20.4-1.4 30.6-2.1 5.2-.4 10.6 1.3 16.1 2.1-2.4 6-4.1 11.5-6.8 16.5-3.8 6.7-17.4 11.5-25 9.5-3.3-.9-6.8-1.2-10-2.4-6.4-2.5-9.6-8-11.7-14.2-.6-1.7-1-3.4-1.6-5.2-.2-.5-.4-1.2-.6-1.8zM178.2 212c-1.3-2.8-2.4-5.2-3.5-7.6-.5.1-.9.1-1.4.2.4 2.7.8 5.3 1.3 8.2-4.2-.2-5.8-3.3-5.6-6.4.1-1.9 3.2-5.6 4.2-5.3 3.6.9 8.6-2.4 10.8 2.6 1.9 4.7-2.2 6.2-5.8 8.3zM198.4 211.2c.3-2.2.7-4.4 1.1-7.3-2.5.6-4 .9-5.5 1.3-.4-.4-.8-.7-1.2-1.1 1.3-1.5 2.5-4.2 3.8-4.2 2.2 0 5.5 1.2 6.2 2.8 1.8 4 1.1 8.5-2 11.9-1 1.1-3.3 1.7-4.9 1.5-1.3-.2-2.7-1.7-3.6-2.9-.4-.5.5-2.7.9-2.7 1.3-.2 2.8.3 5.2.7zM215.9 211.6c-.3-1.4-.5-2.7-1-5.2-1.5 2.2-2.4 3.6-4.3 6.4-1.5-2.5-3.5-4.5-3.8-6.7-.2-1.6 1.8-3.5 2.8-5.2 2.6 2.5 7.8-2.3 9 3.1.5 2.5-.2 5.2-.3 7.8-.8-.1-1.6-.1-2.4-.2zM210.5 188.6c-3.1 1.5-5.3 2.5-7.6 3.6-.5-.6-.9-1.3-1.4-1.9 3.1-2.9 6.1-5.9 9.7-9.4 2.1 2.9 4 4.9 5.1 7.2.6 1.1-.1 2.9-.2 4.3-1.2-.7-2.5-1.2-3.6-2-.8-.5-1.5-1.3-2-1.8z"/>
  <text transform="translate(115.346 50.426)"><tspan x="0" y="0" font-family="Peanuts" font-size="38">WHAT A MARVELOUS</tspan><tspan x="32.2" y="45.6" font-family="Peanuts" font-size="38">AGE WE LIVE IN!</tspan></text>
  <text transform="rotate(-90 429.776 -145.576)" fill="#010101" font-family="BaskervilleT-Bold" font-size="12">Copr 1951 by United Feature Syndicate, Inc.</text>
  <text transform="translate(492.358 455.517)" fill="#010101" font-family="Peanuts" font-size="20" letter-spacing="3">SCHULZ</text>
  <text transform="translate(12.79 457.346)" fill="#010101" font-family="BaskervilleT-Bold" font-size="26" letter-spacing="1">12-17</text>
</svg>
