<svg xmlns="http://www.w3.org/2000/svg" viewBox="0 0 595.3 461.6" xml:space="preserve">
  <path fill="#fff" d="M0 0h595.3v461.6H0z"/>
  <path d="M3.3 0h592v460.5c-2 .1-4.1.4-6.1.4h-83.1c-29.9 0-59.9 0-89.8-.2-11.9-.1-23.9-.9-35.8-.9-8.7 0-17.3.9-26 1-12.3.1-24.5-.1-36.8-.1-18.2.1-36.4.3-54.6.3-37.9 0-75.8-.2-113.8-.2-47.4 0-94.8.2-142.1.2-2.1 0-4.2-.3-6.4-.6V250.5C.8 169.7.8 89 .9 8.2.8 5.4 2.4 2.7 3.3 0zm584 452.4v-21.2c0-5.9.3-11.8.2-17.7-.1-5.8-1-11.7-.9-17.5.1-11.6.9-23.2 1-34.7.2-19.6 0-39.3 0-58.9V214.1c0-11 .1-22.1 0-33.1-.2-13.9-.8-27.8-1-41.7-.1-7.5.2-14.9.4-22.4.1-4.3 0-8.5.1-12.8.1-4.6.5-9.2.4-13.7-.1-7.1-.8-14.3-.8-21.4 0-4.2.9-8.3.9-12.5.1-13.1-.2-26.2-.1-39.3.1-8.4-1.2-10.1-8.4-10-11.6.2-23.1.6-34.7.7-16.9.1-33.7 0-50.6 0h-42.6c-11.4 0-22.8.1-34.2 0-5.8-.1-11.6-1-17.5-.9-7.6.1-15.2.9-22.8 1-5 .1-10-.9-15-.8-5.5.2-11 1.5-16.6 1.7-4.7.1-9.4-1.1-14.1-1.1-6.4.1-12.8 1.1-19.3 1.2-7.1 0-14.2-.8-21.2-.8-10.7.1-21.4 1-32.1.8-12.8-.3-25.6-1.6-38.5-1.9-6-.2-11.9 1.2-17.9 1.3-8.4 0-16.9-.8-25.3-.8-7 .1-14 1.3-21 1.4-6.9.1-13.9-.8-20.8-.9-3.5-.1-6.9 1.1-10.4 1-8.3-.3-16.5-1.4-24.8-1.5-9.3-.4-18.5 1.2-27.7.5-11-.8-22 1.2-33.1-.1-8.5-1-17.4 1.2-26 .4-5.4-.5-6.1 1.8-6.1 5.5-.1 7.9.3 15.8.2 23.6-.1 23.8-.3 47.6-.4 71.4-.1 27.2.1 54.3 0 81.5-.1 16.5-.6 32.9-.6 49.4 0 11.9.6 23.7.6 35.6.1 18.3 0 36.5.1 54.8.1 18.2.3 36.3.3 54.5 0 21.4-.1 42.8-.3 64.2 0 3.7 1.7 4.9 4.8 5 8.8.4 17.5 1.1 26.3 1 13.7-.1 27.5-.8 41.2-.9 6.6-.1 13.2 1 19.7.9 10.9-.1 21.8-.8 32.8-1 7.4-.2 14.9 0 22.4 0 55.7-.4 111.4-.8 167.1-1 4.2 0 8.3 1 12.5 1 17.7-.3 35.3-.9 53-1.1 12.2-.1 24.5.5 36.8.5 14.4 0 28.9-.3 43.3-.3 11.7 0 23.5.3 35.2.4 10.5.1 21 .2 31.6.4 6.4.1 12.8.7 19.2.5 11-.4 22.4-1.2 34.7-1.9z"/>
  <path d="M3.3 0C2.4 2.7.8 5.4.8 8.2.6 88.9.7 169.7.7 250.5v209.9c2.3.2 4.4.6 6.4.6 47.4 0 94.8-.2 142.1-.2 37.9 0 75.8.2 113.8.2 18.2 0 36.4-.3 54.6-.3 12.3 0 24.5.2 36.8.1 8.7-.1 17.3-1 26-1 11.9 0 23.9.9 35.8.9 29.9.2 59.9.2 89.8.2h83.1c2 0 4.1-.2 6.1-.4-.2.4-.3 1-.6 1.1-1.5.1-2.9 0-4.4 0H-.1C0 307.8 0 153.9 0 0h3.3z" fill="#fff"/>
  <path d="M68.5 154c5.5-4.8 4.5-13 10.1-17.4-1.1 3.7-2.3 7.4-3.4 11 .3.2.7.3 1 .5 1.3-2 2.9-3.8 4-5.9 6.4-12.6 17.9-14.2 30.1-14.3 3.1 0 6.4.4 9.2-.7 8.2-3.2 15.7-1.4 23.2 2 5.7 2.5 11.3 5.1 17 7.5 7.1 3 14.4 5.7 21.5 8.6 5 2 9.9 2.6 15.3 1.6 6.8-1.3 12.6 2.4 17.4 6.4 5.2 4.3 8.8 9.8 9.6 17.3.7 7.3-5.2 16.9-12.7 18.1-5 .8-9.4 8.3-7.3 12.6.5 1 2.1 2 3.2 2 8.8.3 11.1 3.9 8 12.2-.8 2.3-.6 5.6.4 7.8 3.8 7.9 3.5 15.3-3.4 21-7.9 6.5-16.9 11.6-25.3 17.3-3.7 2.5-7.6 4.8-10.8 7.8-4.4 4-3.3 10.2-.3 15.1 3.3 5.4 5.4 11.7 7.1 17.9 2.5 9.1 3.7 18.7 6.5 27.7 2.1 6.8 3.4 14.7 11.1 18.3 3.1 1.5 6.4 2.7 9.9 4.2-.6-2-1-3.9-1.6-5.7-.9-3.1-2.1-6 2.7-7.1 1.2-.3 2.8-2.4 2.8-3.7-.2-8.8 4.7-14 12.8-17.9 1.7 4.3 3.3 8.9 5.3 13.4.7 1.5 2 2.9 3.3 3.9 7.6 5.7 11.4 13.3 12 22.6.2 2.8 0 5.7 0 8.3 7.5 0 14.2.3 20.8-.1 3.5-.2 7.2-.1 9.9-4.1 1.6-2.4 5.7-3.3 8.7-4.6 1.8-.8 3.8-1 5.6-1.5 1-10.3 1-10 11.6-9.8 6.9.1 13.9-1.2 20.9-1.4 8.2-.2 16.4.3 24.6.4 17.5.1 35 0 52.5 0 9.6 0 19.1.3 28.7.5 13.9.4 27.8.9 41.7 1.2 9.9.2 14.5 6.3 12.4 16.4-.3 1.2-.7 2.4-.5 3.6 1.5 8.2-2.7 13.9-11.1 14.7-5.7.5-11.4 1-17.1 1.1-3.5 0-5.4.7-5.5 4.8-.1 4.8-1.2 9.6-1.9 14.5-.5 3.2 2.7 6.2 6.9 6.2 12.5 0 25-.1 37.5.1 2.7 0 5.5.8 8.2 1.3 0 .5-.1.9-.1 1.4h-47.8c0 .5 0 .9-.1 1.4 7.4.8 14.7 2 22.1 2.4 7.8.4 15.6.1 23.6.1-.2 1-.3 1.6-.4 1.6-10.4.7-20.7 3-31.3.8-5-1-10.5.7-15.8.7-13 .1-26-.1-39.1.1-11.6.2-23.2.7-34.7 1.1-19.7.7-39.5 1.3-59.2 2.3-12.3.6-24.5 2.1-36.8 3.1-4.1.3-8.3 0-12.3.9-2.4.5-4.3 2.9-6.5 4.6-7.4-3.2-6.9-3.1-5.9-12 .6-5.5-.6-11.2-1-17.2-5.7 0-11.3-.2-16.8.2-1 .1-2 2.2-2.8 3.5-4.4 6.5-8.7 13-13 19.6-2.1 3.2-4.2 2.1-6.1-.1-1.9-2.3-3.4-5-5.4-7.1-2.8-2.9-5.7-6.9-9.2-7.7-3.5-.8-7.8 1.9-11.5 4 3.8.2 7.6.3 11.4.8 1.3.2 2.5 1.4 3.7 2.2-1.3.7-2.6 1.9-3.9 2-3.4.3-6.8.1-10.2 1.3h17.4c0 .5.1 1 .1 1.5-5.2.6-10.3 1.4-15.5 1.6-7.5.3-15.1-.1-22.6.1-10.3.2-20.6.8-30.9 1.1-7 .2-14.1-.2-21.1.4-12.3 1-24.6 3-36.9 3.9-7.9.6-15.9.1-24.1-1 10.7-1 21.5-2 32.2-3-.1-.6-.1-1.2-.2-1.7-8.3.8-16.5 1.5-24.8 2.3-5.8.5-11.6 1-17.4 1.4-4.7.4-9.4.7-14.1 1-1 0-2.7-.3-2.9-.9-1.4-3.9-4.8-2.8-7.7-3.1 0-.6 0-1.3.1-1.9 26.6-1.6 53.3-3.1 81.3-4.8-7.8-4.2-15.1-3.8-22.2-3.4-6 .3-11.9 1.5-17.8 2-13.5 1.2-26.9 2.2-40.4 3.2-2.5.2-5 0-7.5-.7 26.4-3.6 52.7-7.8 80.2-6.9-3-9.4-1.8-18.2 1.2-27 1.1-3.3-.1-7.4.9-10.9 2.5-9.5 5.6-18.8 8.4-28.2 3.1-10.3 6.5-20.5 9.4-30.9 2.8-10.2 5.1-20.5 7.7-30.8.6-2.3 1.8-4.5 3-7.6-1.4-8.2-9.4-9.2-16.1-12-5-2.1-9.9-4.3-14.7-6.8-12.7-6.8-23.6-15.6-30.5-28.5-2.3-4.3-4-9.4-4.4-14.2-1-11.4-2.9-22.9 2.4-34.3 2.3-5 1.1-11.5 1.8-17.3.4-2.8 1.5-5.6 2.2-8.3zm3.2 20.6c-.5.1-1 .1-1.4.2-1 3-2 6-2.9 9-.7 2.4-1.4 4.8-1.7 7.3-.4 3.8-.6 7.7-.7 11.5 0 5 5.5 9.6 1.4 15.1-.4.5.6 1.9.9 3 4.2 13.6 14.7 21.2 26.4 27.7 2.6 1.4 5.4 2.5 8.1 3.7-9.2-8.3-14.4-14.7-13.7-16.9 6 4.4 12.3 8.9 18 13.1 2.5 0 5.7-.9 6.8.2 3 3 5.8 3.6 9.3 1.6-1.8-7.1 1.1-15.3 5.4-15.4 2.8 6.1-4.2 12.3.4 18.5 1.2 1.7 1.9 3.9 2.4 5.9.3 1.5-.1 3.2-.3 4.7-6.8-8.4-16.8-6.1-24.1-10.3 10.9 6.2 26.5 7 26.4 25 11.7 1.7 22.9 3.3 34.6 5-1.6-11.6 4.4-18.5 13.2-23.7 8-4.8 16-9.6 23.8-14.7 5.2-3.4 9-8.1 7.9-14.7-.7-3.9-2.4-7.7-4.3-11.2-2-3.5-2.1-3.4 1.4-5.4 1.4-.8 1.9-3.4 2.2-5.3.1-.5-2.8-2.1-4-1.8-3.3.8-6.4 2.3-10.6 4 0-2.3-1.3-6.6.3-8.4 3.3-3.7 2.9-7.5 3.1-11.6.1-3.4-1.5-3.8-4.6-4.3-7.5-1.3-14.7-3.5-22.7-5.5 3.2-3.4 5.3-5.7 7.9-8.5.5 2.3.7 3.6 1 4.9 12.1-3.6 12.1-3.6 15-1.9-3.4 2-6.6 3.8-10.5 6.1 2.7.5 4.3.9 6.2 1.3.6-1.4 1.3-2.7 1.3-2.7 3.4.4 5.9.7 8.4 1 .1-2.6.8-5.5 0-7.8-1.1-3.3-3.4-6.1-5.7-9.9 7.1.6 7.9 6.9 10.9 10.7.5-.2 1.1-.4 1.6-.6-1.2-3.7-2.4-7.3-3.9-11.9 4.5 3 8.2 6.6 7.7 11.1-.5 4.3-3.7 8.2-5.7 12.4l1.4 1.4c2.7-2.3 6.2-4 8.1-6.8 7-10.2-3.9-26.2-17.6-27.1-8.9-.6-17.3-1.2-25.2-6-3.6-2.2-8.4-4.5-12.1-3.8-7.2 1.3-10.8-3.4-15.7-6.4-1.5-.9-3.3-1.4-5-2.1-.2.4-.4.7-.6 1.1.7 1 1.5 1.9 1.8 2.4-9.3-1.8-18.8-4.7-28.4-5-9.9-.3-19.6 2.6-26.9 10.3 1-1.9 2-3.7 3-5.6-.6-.4-1.2-.7-1.9-1.1-3.5 5.4-7.5 10.6-10.3 16.3-2.8 5.8-4.2 12.2-6.2 18.4-.4-.2-.9-.3-1.3-.5.6 1.4 1.1 2.7 1.7 4zm317.5 187.9c-5.2 1-9.7 2.7-14.1 2.7-10.6-.2-21.2-1.5-31.9-1.8-11.6-.3-23.2-.3-34.8 0-5.2.1-12.3-2.2-12.5 7.2 0 .5-.7 1.2-1.3 1.5-3.7 2.1-7.4 4.1-11.8 6.5-.6 6.3-1.1 6.5-9.4 6.8-10 .3-20.1 1-30.1 1.5-2.6 7.9-2.6 7.9 6 7.5h.5c10.3.3 20.6.8 30.9.9 15.9.2 31.8 0 47.7 0 16.2 0 32.5.4 48.7-.2 6.5-.3 12.8-2.9 19.3-4.4-.1-.6-.2-1.2-.3-1.7-1.6-.2-3.1-.4-4.7-.6-.4-.4-.8-.9-1.2-1.3l6.3-4.2c-.3-.3-.6-.7-.8-1-3 1.6-6.1 3.3-9.1 4.9-.4-.2-.8-.3-1.2-.5 1.6-2.6 3.1-5.2 4.7-7.8-.3-.2-.5-.4-.8-.6-1.5 1.2-3.1 2.4-4.6 3.6-.3-.3-.5-.6-.8-.8 1.7-2.2 3.4-4.3 5.1-6.5-.3-.2-.5-.4-.8-.6-1.2.5-2.3 1-3.5 1.5-.3-.3-.5-.6-.8-.9 2.4-2.8 4.8-5.6 7.3-8.3-.2-.3-.3-.5-.5-.8-1.7 1-3.4 2-5 3-.2-.2-.4-.3-.6-.5 1.3-1.4 2.5-3 4.1-5.1zm50.2 21.5c-6.8.6-13.1 1.1-19.4 1.8-4.1.5-8.3.9-12.2 2.2-10.7 3.6-19.1 12.7-31.5 12.5-7-.1-13.9.7-20.9.7-4.7 0-9.4-1-14.1-1-13.4 0-26.9.4-40.3.6-9.8.1-19.7-.1-29.5.2-1.4 0-3.6 1.8-4 3.1-.8 2.5 0 5.6-.8 8.1-1 3 1.1 3.9 2.6 3.9 7.7.2 15.5.1 23.2-.3 5.8-.3 11.6-1.5 17.4-1.9 12.7-.8 25.4-1.4 38-2.1 1-.1 1.9-.8 2.9-1.3-1.6-.9-2.8-1-4.1-.9-11.3.7-22.5 1.5-33.8 2.2-10.4.6-20.9 1.3-31.3 1.7-3.6.1-7.2-.6-10.8-.9.1-.6.1-1.2.2-1.8 2.1 0 4.3.1 6.4 0 13.3-.7 26.6-1.4 39.8-2.2 15.2-1 30.4-2.5 45.7-3.2 12.2-.5 24.5-.1 36.7-.1 3.2 0 6.4-.8 9.6-.7 10 .3 19.9.9 30.1 1.3.1-7.6.1-14.2.1-21.9zM159 333.7c-10.5 1.6-21.6 3.2-33 4.9.4 14.1 6.6 27 17.1 37.8-2.3 2-3.8 3.3-5.3 4.7.3.4.5.9.8 1.3 2.5-.8 5.1-1.7 8.4-2.7-.3 2.6-.6 4.6-.8 6.6.4.2.7.5 1.1.7 1.7-2 3.5-4 6.1-7.1.2 4 .4 6.7.5 9.3 7.9.2 3.6-7.1 6.5-11.1 1.6 2.8 2.9 5.2 4.3 7.5.5.1 1 .1 1.5.2.6-2.2 1.9-4.4 1.6-6.4-.8-6.7-2.1-13.4-3.4-20-1.8-8.8-3.7-17.5-5.4-25.7zm257.2 47.4c7.5-.8 15.8-2 24-2.6 8.3-.6 16.6-.4 24.8-1 4.6-.3 9.6-.7 13.6-2.7 1.7-.9 1.3-6 1.8-9.1.1-.7.4-1.5.3-2.1-.4-2.7-.9-5.4-1.4-8.5-2.4 1.3-3.6 2.5-4.9 2.5-12.4-.3-24.8-1-37.3-1.4-5.6-.2-11.2-.3-16.8 0-1 0-2.7 2.2-2.7 3.3.1 2.6 1.1 5.2 1.7 7.5-4.5.6-8.8 1.2-13.1 1.8.1.8.2 1.5.3 2.3 5.1-.8 10.2-1.7 17-2.8-1.9 2.1-2.6 2.9-3.3 3.7 1.3.3 2.5.5 3.6.7.1.5.1.9.2 1.4-2.6.6-5.1 1.3-6.6 1.6-.4 2.2-.8 3.8-1.2 5.4zm-196.1 42.1c1.2-1.3 2.3-2.1 2.9-3.2 9.8-17.1 18.5-34.4 19.2-54.8.3-10.5-3.5-18.5-10.2-27.5-2.3 2.6-4.5 4.3-5.7 6.5-5.4 10.7-1.9 19.9 4.6 26-1.3 6.7-2.2 11.4-3.2 16.5-1.5-.6-2.9-1.1-4.5-1.7.7 10.2-4.4 18-11.3 25.9 2.6 3.9 5.3 8 8.2 12.3zm203.5-72.1c-1.1-.3-2.1-.9-3.2-1-6.3-.2-12.7-.1-19-.3-3.6-.1-7.2-.7-10.7-.7-3.9 0-7.9.4-11.8.4-4.8 0-9.7-.6-14.5-.4-8.3.2-16.7.9-25 1.1-12.3.3-24.5.1-36.8.4-7.1.2-7.1.5-6.2 7.9.5.1 1 .4 1.5.4 26 .4 52 .9 78.1 1 5.1 0 10.6-.9 15.2-3.1 10.4-4.8 21.1-5.6 32.4-5.7zm-222.2 14.7c-1.4 7.7-2.2 14.5-3.8 21-2.1 8-1.9 9.4 5.2 15.1 7.6-6.9 7.2-17.3 11.3-27.2.6 2.1 1.1 3 .9 3.7-2.2 7.4-4.5 14.8-6.6 22.2-.5 1.7-.3 3.6-.5 5.5 2-.7 4.9-.9 5.9-2.3 4.9-6.6 6.3-14.5 5.8-22.5-.1-2-1.7-4.4-3.3-5.6-4.5-3.5-9.4-6.4-14.9-9.9zm-22.1-56.6c.1-3.3-1.9-4.4-6-4.5-8-.2-16-.7-23.9-2.1-7.6-1.3-15.1-3.7-23.1-5.8v7.3c5.6.6 11.5 1 17.2 1.9 4.5.7 8.9 2.1 13.2 3.4 1.1.3 2 2 2.8 1.9 6.7-.5 13.2-1.4 19.8-2.1zm-3.9-11.4c.8-4.9-1.7-6.3-6.2-6.3-4.8 0-9.7.4-14.4-.5-8.9-1.8-17.6-4.3-26.5-6.6-.7 4.3.2 7 5.4 7.3 3.7.2 7.4 1.5 11.1 2.1 10.1 1.4 20.2 2.6 30.6 4zm46.3 27.8c-6.6 9.5-7 17.5-.8 24.8 1.3-4.3 1.9-8.3 3.6-11.9 3.4-7.1 3.5-7.7-2.8-12.9zm-61.6-2c-.2-.4-.5-.9-.7-1.3-1.6.2-3.2.4-4.7.7-4.7.9-9.5 2-14.2 2.6-4.2.5-8.5.1-12.7.5-1.6.2-3 1.5-4.5 2.3.2.5.4 1 .7 1.5.9.1 1.8.4 2.7.3 9.9-1.1 19.8-2.1 29.7-3.4 1.3-.2 2.4-2.1 3.7-3.2zm3.8-6.4c-2 6.3-1.2 7.1 5.2 7 4 0 7.9.8 12.2 1.3 1.9-4.6.5-7.3-4.6-7.5-4.1-.1-8.2-.5-12.8-.8zm4.1 35.3c7.7-2.3 14.8-4.4 21.8-6.5-.2-.4-.3-.8-.5-1.1-7.8-.4-15.5-.9-23.4-1.3.3 1.9.5 3.5.9 5 .4 1.6.9 3.2 1.2 3.9zm252.1 57.6c0-.5 0-1-.1-1.4h-65.2v1.4h65.3zm-297.9-92.9c-.1.5-.3 1-.4 1.6 1.8.3 3.6.9 5.3.8 3.9-.3 7.8-1 11.7-1.5 7-.8 13.9-1.5 20.7-2.3-2.2-3.2-24-2.7-37.3 1.4zm41.5 14.1c.1 5.6 1.8 6.5 6.4 5.7 3.9-.6 8 .2 12 .2 1.1 0 2.1-.5 3.2-.7-.6-1.2-1.1-3.2-1.9-3.3-6.5-.8-12.8-1.3-19.7-1.9zm-41.4 37.8c-3.3-1.4-6.5-2.8-9.7-4.1-1.1-.5-2.3-1.1-3.5-1.2-1-.1-2.9.4-2.9.8-.2 1.1 0 2.8.8 3.5 5.9 5.2 8.6 5.4 15.3 1zm-13.2-14.2c4.8 2.3 8.8 4.3 13.1 6.3 2-9.4-6.2-8.1-10.6-10.8-.9 1.5-1.6 2.9-2.5 4.5zm94.6-.6c-1.5 10.1-1 10.9 5.9 9.4.3-5.1.3-5.1-5.9-9.4zm-94.2 41.1c-3.7-1.5-6.1-2.5-8.9-3.6.2 3 .3 4.9.5 7.6 2.7-1.4 4.9-2.4 8.4-4z"/>
  <path d="M286.2 210.4c16.1-.2 28.8-7.2 39.1-17-6.9-7-13.7-13.3-19.8-20.2-8.9-9.9-10.5-22.2-9.2-34.7 2.2-22.1 14.7-36.7 34.6-46 11.2-5.2 23-7.2 34.5-6.1 14.9 1.5 28.8 6.4 38.8 19.6 5.7 7.5 9.5 15.7 11.4 24.3 3.2 14.9 2.2 30-8.3 42.4-5.5 6.6-11.7 12.8-18.3 18.2-7.4 6.1-16.7 7.7-26.1 7.7-6.6 0-13.3-1.5-19.8-.9-3.7.4-7.3 3.5-10.6 5.8-11.9 8.4-25.2 11.9-39.7 10.9-2.3-.2-4.4-1.8-6.6-2.8v-1.2zm25.2-2.5c2.4-.5 4.4-.4 5.9-1.3 7.5-4.3 14.8-8.8 22.2-13.2 1.3-.8 3-1.2 4.5-1.2 6.4.2 12.7.9 19.1 1 20.8.1 40.6-13.8 46.5-33.9 5.4-18.4 1.4-35.7-10.3-50.9-3.2-4.2-6.9-8.8-11.5-10.9-13.8-6.5-28.5-7.5-43.5-4.8-12.1 2.2-23.2 6.7-30.6 16.9-8.9 12.3-15.2 25.8-11 41.7 1.8 6.7 3.9 13.4 7 19.6 3.7 7.1 10.8 11.1 17.3 15.4 5.5 3.6 5.8 5.3.7 9.8-4.8 4.2-10.3 7.5-16.3 11.8zM254.8 419.4c-6.7.4-13.4.8-20.1 1.1V418h20.1v1.4z"/>
  <path d="m71.7 174.6-1.8-3.9c.4.2.9.3 1.3.5 2-6.2 3.4-12.6 6.2-18.4 2.7-5.8 6.8-10.9 10.3-16.3.6.4 1.2.7 1.9 1.1-1 1.9-2 3.7-3 5.6 7.4-7.7 17.1-10.6 26.9-10.3 9.6.3 19.1 3.3 28.4 5-.3-.4-1.1-1.4-1.8-2.4.2-.4.4-.7.6-1.1 1.7.7 3.5 1.1 5 2.1 4.8 3 8.4 7.7 15.7 6.4 3.7-.7 8.6 1.6 12.1 3.8 7.9 4.8 16.3 5.4 25.2 6 13.7.9 24.6 16.9 17.6 27.1-1.9 2.8-5.4 4.6-8.1 6.8l-1.4-1.4c2-4.1 5.2-8.1 5.7-12.4.5-4.5-3.1-8.1-7.7-11.1 1.5 4.5 2.7 8.2 3.9 11.9-.5.2-1.1.4-1.6.6-3-3.8-3.9-10.1-10.9-10.7 2.2 3.7 4.5 6.6 5.7 9.9.8 2.3 0 5.2 0 7.8-2.5-.3-5-.6-8.4-1 0 0-.6 1.3-1.3 2.7-1.9-.4-3.6-.7-6.2-1.3 3.9-2.3 7.1-4.1 10.5-6.1-3-1.8-3-1.8-15 1.9-.3-1.3-.5-2.6-1-4.9-2.6 2.8-4.7 5-7.9 8.5 8 2 15.3 4.2 22.7 5.5 3.1.5 4.8.9 4.6 4.3-.2 4.1.2 7.9-3.1 11.6-1.6 1.7-.3 6-.3 8.4 4.2-1.6 7.3-3.2 10.6-4 1.2-.3 4.1 1.3 4 1.8-.2 1.9-.8 4.6-2.2 5.3-3.5 2-3.4 1.9-1.4 5.4 2 3.4 3.6 7.3 4.3 11.2 1.2 6.6-2.7 11.3-7.9 14.7-7.8 5.1-15.8 9.9-23.8 14.7-8.8 5.3-14.8 12.1-13.2 23.7-11.7-1.7-22.9-3.3-34.6-5 .1-18-15.5-18.8-26.4-25 7.3 4.3 17.3 2 24.1 10.3.1-1.6.6-3.2.3-4.7-.4-2.1-1.1-4.3-2.4-5.9-4.6-6.2 2.4-12.4-.4-18.5-4.2.1-7.1 8.2-5.4 15.4-3.6 2-6.3 1.4-9.3-1.6-1.1-1.1-4.3-.2-6.8-.2-5.7-4.2-12-8.7-18-13.1-.7 2.2 4.5 8.6 13.7 16.9-2.7-1.2-5.5-2.3-8.1-3.7-11.6-6.5-22.1-14.1-26.4-27.7-.3-1-1.3-2.5-.9-3 4.2-5.5-1.4-10.1-1.4-15.1 0-3.8.2-7.7.7-11.5.3-2.5 1-4.9 1.7-7.3.9-3 1.9-6 2.9-9 .6-.1 1-.2 1.5-.3zm72.7 40.3c-2.3 1.1-3.9 2.3-5.6 2.6-5.8.9-13.6-5.8-14-11.7-.3-5.5 2-8.1 7.6-8.2h8.5c-2.1-3-7.7-5.7-11-4.1-3.2 1.5-6.8 4.1-8 7.2-2.9 7.1 1.7 16.7 8.6 20.7 5.3 3.2 13 .1 13.9-6.5zm4-21.4c5.5-6.8 11-13.5 15.9-19.7-2.7.6-5.6.8-7.8 2.1-2.1 1.2-3.8 3.4-5.1 5.6-1.7 3-2.9 6.3-4.5 10.1.2.3 1.2 1.5 1.5 1.9zM389.2 362.5c-1.6 2.1-2.8 3.7-4 5.3.2.2.4.3.6.5 1.7-1 3.4-2 5-3 .2.3.3.5.5.8-2.4 2.8-4.8 5.6-7.3 8.3.3.3.5.6.8.9 1.2-.5 2.3-1 3.5-1.5.3.2.5.4.8.6-1.7 2.2-3.4 4.3-5.1 6.5.3.3.5.6.8.8 1.5-1.2 3.1-2.4 4.6-3.6.3.2.5.4.8.6-1.6 2.6-3.1 5.2-4.7 7.8.4.2.8.3 1.2.5 3-1.6 6.1-3.3 9.1-4.9.3.3.6.7.8 1l-6.3 4.2c.4.4.8.9 1.2 1.3 1.6.2 3.1.4 4.7.6.1.6.2 1.2.3 1.7-6.4 1.5-12.8 4.1-19.3 4.4-16.2.6-32.4.2-48.7.2-15.9 0-31.8.1-47.7 0-10.3-.1-20.6-.6-30.9-.9h-.5c-8.6.4-8.6.4-6-7.5 10.1-.5 20.1-1.2 30.1-1.5 8.3-.3 8.8-.5 9.4-6.8 4.5-2.4 8.2-4.4 11.8-6.5.6-.3 1.3-1 1.3-1.5.1-9.4 7.3-7.1 12.5-7.2 11.6-.3 23.2-.4 34.8 0 10.6.3 21.2 1.6 31.9 1.8 4.4-.1 8.9-1.8 14-2.9z" fill="#fff"/>
  <path d="M439.4 384v21.9c-10.2-.5-20.2-1-30.1-1.3-3.2-.1-6.4.7-9.6.7-12.2.1-24.5-.4-36.7.1-15.2.7-30.5 2.2-45.7 3.2-13.3.9-26.6 1.5-39.8 2.2-2.1.1-4.3 0-6.4 0-.1.6-.1 1.2-.2 1.8 3.6.3 7.2 1.1 10.8.9 10.5-.4 20.9-1.1 31.3-1.7 11.3-.7 22.5-1.5 33.8-2.2 1.3-.1 2.5 0 4.1.9-1 .4-1.9 1.2-2.9 1.3-12.7.7-25.4 1.3-38 2.1-5.8.4-11.6 1.6-17.4 1.9-7.7.4-15.5.5-23.2.3-1.5 0-3.6-.9-2.6-3.9.8-2.5.1-5.6.8-8.1.4-1.4 2.6-3.1 4-3.1 9.8-.3 19.7-.1 29.5-.2 13.4-.1 26.9-.5 40.3-.6 4.7 0 9.4 1 14.1 1 7 0 13.9-.8 20.9-.7 12.4.3 20.8-8.9 31.5-12.5 3.9-1.3 8.1-1.7 12.2-2.2 6.2-.7 12.5-1.2 19.3-1.8zM159 333.7c1.7 8.2 3.6 16.9 5.3 25.7 1.3 6.6 2.6 13.3 3.4 20 .3 2-1 4.3-1.6 6.4-.5-.1-1-.1-1.5-.2-1.3-2.3-2.6-4.6-4.3-7.5-2.9 4 1.5 11.3-6.5 11.1-.1-2.6-.3-5.3-.5-9.3-2.7 3.1-4.4 5.1-6.1 7.1-.4-.2-.7-.5-1.1-.7.3-2 .5-4 .8-6.6-3.3 1.1-5.8 1.9-8.4 2.7-.3-.4-.5-.9-.8-1.3 1.5-1.3 3-2.6 5.3-4.7-10.4-10.8-16.6-23.7-17.1-37.8 11.6-1.7 22.6-3.4 33.1-4.9zM416.2 381.1c.4-1.7.8-3.2 1.4-5.5 1.5-.4 4.1-1 6.6-1.6-.1-.5-.1-.9-.2-1.4-1.2-.2-2.3-.5-3.6-.7.7-.8 1.4-1.6 3.3-3.7-6.8 1.1-11.9 1.9-17 2.8-.1-.8-.2-1.5-.3-2.3 4.3-.6 8.6-1.2 13.1-1.8-.6-2.3-1.6-4.9-1.7-7.5-.1-1.1 1.7-3.3 2.7-3.3 5.6-.3 11.2-.1 16.8 0 12.4.4 24.8 1 37.3 1.4 1.2 0 2.5-1.2 4.9-2.5.5 3.1 1 5.8 1.4 8.5.1.7-.2 1.4-.3 2.1-.5 3.2-.1 8.3-1.8 9.1-4 2-8.9 2.4-13.6 2.7-8.3.6-16.6.4-24.8 1-8.4.8-16.7 1.9-24.2 2.7zM220.1 423.2c-2.9-4.4-5.6-8.5-8.2-12.4 6.9-7.9 12-15.7 11.3-25.9 1.6.6 3.1 1.2 4.5 1.7 1-5 1.9-9.7 3.2-16.5-6.5-6.1-10-15.3-4.6-26 1.1-2.2 3.4-3.9 5.7-6.5 6.7 9 10.5 17.1 10.2 27.5-.7 20.4-9.4 37.7-19.2 54.8-.7 1.2-1.7 2-2.9 3.3zM423.6 351.1c-11.3.1-22 .9-32.4 5.8-4.6 2.1-10.1 3.1-15.2 3.1-26-.1-52-.6-78.1-1-.5 0-1-.3-1.5-.4-.9-7.4-.9-7.7 6.2-7.9 12.2-.4 24.5-.2 36.8-.4 8.3-.2 16.7-.9 25-1.1 4.8-.1 9.6.4 14.5.4 3.9 0 7.9-.5 11.8-.4 3.6 0 7.1.6 10.7.7 6.3.2 12.7.1 19 .3 1.1-.1 2.1.5 3.2.9z" fill="#fff"/>
  <path d="M201.4 365.8c5.4 3.5 10.3 6.4 14.9 9.8 1.6 1.2 3.2 3.7 3.3 5.6.5 8.1-.9 15.9-5.8 22.5-1.1 1.4-3.9 1.6-5.9 2.3.1-1.8 0-3.7.5-5.5 2.1-7.4 4.5-14.8 6.6-22.2.2-.7-.4-1.5-.9-3.7-4.1 9.8-3.7 20.2-11.3 27.2-7.1-5.7-7.3-7.1-5.2-15.1 1.7-6.5 2.5-13.2 3.8-20.9zM179.3 309.2c-6.6.8-13.1 1.6-19.7 2.1-.9.1-1.8-1.6-2.8-1.9-4.4-1.3-8.8-2.6-13.2-3.4-5.8-.9-11.7-1.3-17.2-1.9v-7.3c8 2 15.4 4.5 23.1 5.8 7.9 1.3 15.9 1.8 23.9 2.1 4 .1 6 1.2 5.9 4.5zM175.4 297.8c-10.4-1.4-20.5-2.6-30.6-4-3.7-.5-7.4-1.8-11.1-2.1-5.1-.3-6.1-3-5.4-7.3 8.9 2.3 17.6 4.8 26.5 6.6 4.7.9 9.6.6 14.4.5 4.5 0 7 1.4 6.2 6.3zM221.7 325.6c6.3 5.2 6.2 5.8 2.8 12.9-1.7 3.6-2.4 7.6-3.6 11.9-6.1-7.3-5.8-15.2.8-24.8zM160.1 323.6c-1.2 1.1-2.4 2.9-3.8 3.1-9.9 1.3-19.8 2.4-29.7 3.4-.9.1-1.8-.2-2.7-.3-.2-.5-.4-1-.7-1.5 1.5-.8 2.9-2.1 4.5-2.3 4.2-.4 8.5 0 12.7-.5 4.8-.6 9.5-1.7 14.2-2.6 1.6-.3 3.1-.5 4.7-.7.3.6.5 1 .8 1.4zM163.9 317.2c4.6.3 8.7.7 12.8.8 5.1.2 6.5 2.9 4.6 7.5-4.2-.5-8.2-1.4-12.2-1.3-6.4.1-7.2-.7-5.2-7zM168 352.5c-.2-.7-.8-2.3-1.2-4-.4-1.5-.6-3.1-.9-5 7.9.5 15.7.9 23.4 1.3.2.4.3.8.5 1.1-7.1 2.2-14.2 4.3-21.8 6.6zM420.1 410.1h-65.3v-1.4H420c0 .5 0 .9.1 1.4zM122.2 317.2c13.3-4.1 35.1-4.6 37.3-1.3-6.7.7-13.7 1.5-20.7 2.3-3.9.4-7.8 1.2-11.7 1.5-1.8.1-3.6-.5-5.3-.8.2-.7.3-1.2.4-1.7zM163.7 331.3c6.9.6 13.3 1.1 19.6 1.9.8.1 1.3 2.2 1.9 3.3-1.1.2-2.1.7-3.2.7-4 0-8.1-.8-12-.2-4.5.8-6.2-.1-6.3-5.7zM122.3 369.1c-6.7 4.4-9.4 4.3-15.3-1.1-.8-.7-1-2.3-.8-3.5.1-.4 1.9-.8 2.9-.8 1.2.1 2.4.7 3.5 1.2 3.2 1.4 6.4 2.8 9.7 4.2zM109.1 354.9c.9-1.6 1.7-3 2.5-4.5 4.4 2.8 12.6 1.4 10.6 10.8-4.3-2-8.4-4-13.1-6.3zM203.7 354.3c6.2 4.3 6.2 4.3 5.9 9.4-6.8 1.5-7.4.7-5.9-9.4zM109.5 395.4c-3.5 1.6-5.7 2.7-8.5 4-.2-2.7-.3-4.6-.5-7.6 2.9 1.1 5.3 2.1 9 3.6z" fill="#fff"/>
  <path d="M144.4 214.9c-.9 6.6-8.5 9.6-14 6.5-6.9-4-11.5-13.7-8.6-20.7 1.2-3 4.9-5.7 8-7.2 3.3-1.6 8.9 1.1 11 4.1h-8.5c-5.5.1-7.9 2.7-7.6 8.2.4 5.9 8.2 12.5 14 11.7 1.8-.3 3.3-1.5 5.7-2.6zM148.4 193.5l-1.5-2c1.6-3.8 2.8-7.1 4.5-10.1 1.3-2.1 3-4.4 5.1-5.6 2.3-1.3 5.2-1.4 7.8-2.1-5 6.3-10.4 13-15.9 19.8z"/>
  <text transform="translate(340.357 173.834)" font-family="Peanuts" font-size="75">?</text>
  <text transform="translate(292.657 444.31)" fill="#010101" font-family="BaskervilleT-Bold" font-size="12">Copr 1951 by United Feature Syndicate, Inc.</text>
</svg>
