<svg xmlns="http://www.w3.org/2000/svg" viewBox="0 0 350.1 473.4" xml:space="preserve">
  <path fill="#fff" d="M0 0h350.1v473.4H0z"/>
  <path d="M350.1 473.4H0V0h350.1v473.4zm-3.7-3.4c-.1-1.6-.3-3.1-.3-4.5 0-22.4 0-44.7-.1-67.1-.1-11.2-.8-22.5-.6-33.7.2-19.2 1.1-38.5 1.3-57.7.3-29.7.3-59.5.4-89.2.1-30.4 0-60.8 0-91.2 0-23.5.1-47.1.1-70.6V5.3c0-2.4.1-4.9-3.8-3.7-1.3.4-2.9-.3-4.3-.3-36.2-.2-72.3-.5-108.5-.5-41.4 0-82.7.1-124.1.3-32.5 0-65 .4-97.5.5-4.7 0-6.1 1.4-6.1 6.2.2 35.4.1 70.8.2 106.2.1 44.8.4 89.6.5 134.4 0 13.2-.5 26.5-.6 39.7-.1 17.5 0 35 0 52.4v87.7c0 12.9 0 25.9.1 38.8 0 1.1 1.6 3.1 2.5 3 11.5 0 23-.5 34.5-.5 12.4 0 24.8.4 37.3.5 16.3.1 32.6.1 48.9-.2 13.7-.2 27.5-1.1 41.2-1.3 5.3-.1 10.7 1.4 16 1.4 24 .1 47.9-.2 71.9-.2 14.4 0 28.8.3 43.2.3h47.8z" fill="#fff"/>
  <path d="M346.4 470h-47.7c-14.4-.1-28.8-.3-43.2-.3-24 0-47.9.3-71.9.2-5.3 0-10.7-1.4-16-1.4-13.7.2-27.5 1-41.2 1.3-16.3.3-32.6.3-48.9.2-12.4 0-24.8-.5-37.3-.5-11.5 0-23 .5-34.5.5-.9 0-2.5-2-2.5-3-.2-12.9-.2-25.9-.2-38.8v-87.7c0-17.5-.1-35 0-52.4.1-13.2.6-26.5.6-39.7-.1-44.8-.4-89.6-.5-134.4-.1-35.4 0-70.8-.2-106.2C2.9 3 4.3 1.6 9 1.6c32.5-.1 65-.5 97.4-.6C147.8.8 189.1.7 230.5.7c36.2 0 72.3.3 108.5.5 1.4 0 3 .7 4.3.3 3.9-1.2 3.8 1.3 3.8 3.7v50.7c0 23.5-.1 47.1-.1 70.6v91.2c-.1 29.7-.1 59.5-.4 89.2-.2 19.2-1.1 38.5-1.3 57.7-.1 11.2.6 22.5.6 33.7.1 22.4.1 44.7.1 67.1.1 1.5.3 3 .4 4.6zm-262.3-9.2c-6.9 1.3-13.9 2.7-20.8 4 4 .9 8.1 1.9 11.9 1.2 3.1-.7 5.9-3.4 8.9-5.2.8.5 1.7 1.6 2.4 1.5 4.7-.6 9.3-1.4 13.9-2.2 1.6-.3 3.1-1.1 4.6-1.7l-.3-.9c-6.9 1.1-13.8 2.2-20.6 3.3zM148 230.9c-1.8 5.3 1.7 8.7 4.5 12.3.1-2.4-.5-4.6-1-6.8-.4-1.7-.5-3.5-.7-5.2 2.6 1.2 5.4 2.1 7.9 3.6 2.1 1.3 4.5 2.8 5.6 4.8 1.4 2.5 1.3 5.8 2.5 8.5 3.1 7 6.7 13.7 9.8 20.7 6.6 15 9.8 31.4 18.6 45.5 1.5 2.5 4.1 4.9 4.2 7.5.5 8.3 7.2 11.4 12.3 16.7-3.9 4-8.1 8.2-12.3 12.5 2.6 1.1 4.6.7 6.2 1.2 5.5 1.9 10 .2 14.9-2.2 2.7-1.3 6.8-1.6 9.6-.6 6.8 2.5 13.3 6 19.9 9.3 1.4.7 2.2 2.4 3.3 3.6-1.5.5-2.9.9-3.8 1.2 0 5.9 1 12-.3 17.5-1.2 5.3 1.7 11.1-1.8 16-.7-7-.6-14-.8-20.9 0-1.4-1.6-4.1-2.2-4-3.5.4-7.3.8-10.4 2.4-5 2.5-9.2 6.4-14.3 8.6-3.6 1.5-4.5 3.7-4.9 6.9-.7 6.7-.7 6.8-7.4 6.7-2.2 0-4.5-.4-6.7-1.1-7.4-2.2-10.2-1.1-13.5 5.4-.6 1.1-2 2.6-3 2.6-4.1-.2-8.2-1.2-12.3-1.3-3.9-.2-8.9-1.1-11.4.8-6 4.8-9.3 1.6-13-2.3-.3-.3-.8-.6-1.5-1.1-2.9 3.8-5 2.3-6.8-1.2-.9-1.7-2-3.3-3-5-1.3-2.4-3.1-4-6-3.5-3.8.6-7.8 1.1-11.5 2.1-1.4.4-3.2 2.3-3.2 3.6-.3 6.5-.2 13.1-.1 19.6 0 1.8.8 3.6 1.3 6 43.5-7.5 86.5-15 129.5-22.5l.3 1.2c-1.2.8-2.4 1.5-3.8 2.4 2.3 4.7-1 8-4.2 9.5-4 1.9-2.8 4.5-2.7 7.2.1 2.4.4 4.8.4 7.3 0 1.3-.7 2.6-.5 3.8 1.2 7.5 2.5 15 3.8 22.8 6.8-.8 13.6-1.7 20.4-2.4.8-.1 1.6.6 2.4 1-.5.6-1 1.7-1.6 1.8-5.8.5-11.7 1.3-17.5 1.2-3.4-.1-4.3 1.1-4.5 4.7 13.1-1.9 25.8-3.9 37.7-5.6 1.2-4.7 2-8.5 3.1-12.2.9-2.9-.3-4-2.9-4.9-4.2-1.6-8.1-3.7-12.2-5.4-3.5-1.5-3-3.7-2.1-6.8 2-7.2 3.5-14.6 5.1-21.9.1-.6-.7-1.4-1-2.1-1-2.4-2.7-4.8-2.7-7.2-.1-5.7 1.4-11.6.6-17.2-1.7-11.9-2.6-23.7 0-35.6.9-4.1.1-8.5.1-12.8-1.7.5-2.1 1.2-2.7 1.7-.9.8-1.9 1.4-2.9 2.1-.5-1.3-1.3-2.5-1.3-3.8.1-3.1.8-6.2.8-9.3 0-3.6 1.9-5.1 5.2-5.2-4.7 3.6-2.6 8.9-3.4 12.9 16.2-13.2 32.6-26.4 49.4-40.1-1.7-.1-2.9-.6-3.6-.2-6.1 3.3-12.2 6.6-18 10.4-8.4 5.5-16.4 11.5-24.6 17.3-1.9-4-3.7-8-5.7-12-.3-.6-1.3-1.1-2.1-1.2-7.8-1.6-15.6-2.8-23.3-4.6-8.3-2-16.6-4.2-19.4-14.1-1.4-4.9-3.2-9.8-4.8-14.6-5.3 1.4-6.8 1-9.1-2.3-3.7-5.5-1.4-12.8 4.6-15.5 1.5-.6 3.1-2.7 3.2-4.3.5-5.9.2-11.9.5-17.8.3-4.9 1.2-9.8 1.9-14.8.5-.1 1-.1 1.5-.2.4 1.4 1.6 3.1 1.2 4.1-3.3 8.2-2.7 16.8-2.5 25.3 0 1.9 1 4 2 5.7 1.8 3.3 3.8 6.4 2.1 11.6-2-3.8-3.4-6.5-4.8-9.3-2.3 1.4-4.8 2.1-5.7 3.7-1.3 2.3-2.1 5.3-2 7.9 0 .9 3.1 2.5 4.8 2.5 3.6.1 5.7 1.2 5.9 5 .1 1.4.5 2.9.9 4.3 2 7.7 5.1 14.9 13.4 17.1 10.2 2.7 20.7 4.2 30.9 6.6 1.7.4 3.4 2.4 4.5 4 1.7 2.5 2.8 5.3 4.2 8.2 1.9-1.2 3.1-1.8 4.2-2.5 8.6-5.7 17.3-11.4 25.8-17.3 3.4-2.3 7.1-4.4 9.6-7.5 3.6-4.4 6.3-9.5 9.3-14.4 3.1-5.2 6.4-10.4 8.8-15.9 3.9-8.9 4.7-18.4 4.6-28.2-.1-10.7-4.1-19.7-9.1-28.6-1-1.8-3.4-4.4-4.6-4.1-5.2 1-4.5-2.9-5.6-5.5-.6-1.5-.8-3.5-1.9-4.4-7.3-6.3-15.6-10.7-25.2-12.4-6.8-1.2-13.4-1.1-20.4-.1-17.6 2.5-32.6 8.9-42.1 24.8-2.4 4.1-3.9 8.8-6.2 13.9-1.6-1.8-2.7-3.5-4.3-4.7-1.6-1.2-3.7-1.8-5.6-2.7-.6 1.6-1.5 3.1-1.8 4.7-.6 3.6-.9 7.2-1.3 10.8-3.1-8.2-2.4-16.2 4.7-19.8 2.2 1.8 4.6 3.9 6.9 5.9 2.9-4.7 5.4-9.6 8.7-13.9 5.5-7.2 11.9-13.6 20.7-16.7 6.6-2.3 13.2-4.8 20.1-5.9 6.8-1.1 14-1.4 20.8-.5 10.8 1.4 19.9 7 28 14.2.4.4 2.9-.4 3.2-1.1 1.1-2.4 1.6-5.1 2.4-7.7.5.1 1.1.2 1.6.3-.2 1.5-.1 3-.6 4.4-1.9 5.4-1.9 10.3 2.1 15 11.9 13.8 15.2 30.2 12.8 47.6-1.8 13.2-9 24.5-16.5 35.1-3.5 4.9-9.2 7.7-2.1 14.6 4.2 4 5.8 10.6 8.8 15.9 4.8 8.2 9.8 16.2 14.7 24.2 1.8 2.9 3.6 5.8 6.1 9.7.5-2.1.7-2.7.8-3.3l.9-57c.2-13.6.6-27.3.6-40.9 0-28.5-.1-57-.3-85.5-.2-25.6-.8-51.2-.8-76.7 0-20.6.8-41.1 1.1-61.7 0-2.5.8-5.8-3.7-5.9-8.1-.2-16.1-.6-24.2-.9-2.4-.1-4.7.1-7.1.1H290c-.3.5-.5 1-.8 1.5 3.8 3.5 8 6.6 11.3 10.5 3.6 4.3 7.6 8.8 9.5 14 8.8 24.1.2 42.9-21.6 54.3-13.1 6.8-27.4 10.5-42.2 12.3-18.2 2.1-36.2 5.2-54.3 7.8-2.5.4-3.6.9-4.1 3.7-2.6 13-8.7 24.3-16.8 34.6-.7.8-1.9 1.3-3.3 2.1 4.5-12.3 3.6-24.5 5.1-36.3.3-2.7-1.4-5.7-5.6-5.1-2.3.4-4.8.2-7.2.1-11.1-.5-22.1-1.1-33.2-1.7-7.1-.4-14.3-.6-21.3-1.7-9.1-1.4-18.1-3.9-27.2-5.3-13.4-2.1-26.7-4.7-39-10.8C25.4 77 16.1 67 16.9 50.2c.2-3.1.4-6.2 1-9.3 2-9.3 5.2-18.1 11.3-25.7 2.6-3.2 5-6.4 8.2-10.7H5.8v418.1c8.1-.4 16.1-2.9 23.2 3.9-2.2 1.3-4 2.5-5.8 3.4-2.9 1.5-5.9 2.8-8.6 4.6-.9.6-1.8 2.5-1.6 3.4.4 1.4 1.6 3.3 2.8 3.6 5.4 1.4 10.9 2.3 17.3 3.6-.6-2.1-.9-2.8-1.1-3.5-.8-2.5-3-6.4-2.2-7.1 2.2-2 5.5-2.7 8.5-3.7.7-.3 1.7.1 2.5-.1 4-.5 6.5 2.1 7.5 5.1.6 1.8-1.1 4.5-2 6.7-.5 1.1-1.5 1.9-2.6 3.3 3.5.9 6.4 1.9 9.4 2.4.7.1 2.3-1.1 2.5-2 2-8.5 3.8-17.1 5.8-25.7.7-3-.4-3.4-3.1-2.8-4.3 1-8.6 1.9-12.9 2.7-4.1.8-8.1 1.6-12.2 2.3l-.3-1.8 24.6-5.4c-.1-.5-.3-1-.4-1.5-11.9 2.3-23.9 4.7-36.4 7.1.7-1.9 1-2.8 1.7-4.5-2.3 1-3.7 2-5.2 2.1-1.8.1-4.6 2.8-5.1-.9-.2-1.3 2.3-3.8 4-4.2 9.6-2.2 19.4-4 29.1-5.8 3.3-.6 6.7-1.1 10.1-1.6.1.5.2.9.3 1.4-6.8 1.5-13.6 2.9-20.9 4.5.9.6 1.2 1 1.4.9 6.9-1.3 13.9-2.5 20.8-3.9.7-.1 1.7-1.6 1.5-1.9-.4-.9-1.3-1.8-2.3-2.2-3.2-1.6-6.4-3-10.3-4.7 5-6.8 4.3-13.8 3.2-21.3-1.1.3-1.9.5-2.6.7-2.6.8-5.7 2.7-7.8 2-2-.7-3.1-4.2-4.6-6.4-.2-.3-.5-.5-.6-.8-3.4-6-2.4-10.5 3.6-13.8 1.9-1.1 4.3-1.4 6.7-2.1-.4-.8-.7-1.6-1-2.3-2.1-4.7-1.3-9.1 2.3-12.6 3.2-3.2 6.8-2.2 10.4-.4.9.4 1.9.6 2.8 1 3.2 1.5 4.2.5 4.6-3 .7-7.1 1.6-14.3 3-21.3 1-5.3 2-10.4.2-15.6-4.3-12.7-1.7-24.4 4.8-35.6 4.4-7.6 2.6-12.2-5.4-15.2-8.2-3-16.6-6.1-20.8-14.9-1.7-3.6-3.2-7.5-4.2-11.4-.8-3-1.5-4.2-5-3.1-2 .6-5.3-.4-6.9-1.8-5.9-5.4-7-14.1-2.7-20.9 1.6-2.5 1.5-4.2-.1-6.6-4.3-6.8-3.2-16.4 2.7-22.1 3.4-3.2 4.4-6.9 4.8-11.4.5-7.3 3-14.2 8.7-19.6-1.5 3.6-3 7.1-4.9 11.5 1.7-.5 1.9-.4 2-.5.3-.3.7-.7 1-1.1 7.2-9.1 14.8-17.7 27.8-17.7 2.2 0 4.5.1 6.7 0 5.9-.3 12.5-2.5 17.4-.6 11.1 4.3 21.3 10.8 32 16.2 1.7.9 4 .5 6 .8 5.9.9 12.1.9 17.6 2.9 5.8 2.1 7.9 8.3 8.6 14 .8 6.6 1.5 13.6-6.1 17.8-1.9 1-3.2 3.8-4 6-.4 1.2.3 3.6 1.3 4.5 4.9 4.2 5.1 5.8 1.5 11.5-.6 1-.8 3-.2 3.8 4.4 5.6 5 11.5 2 18-.3.6.2 1.5.3 2.3-1-.1-2-.1-3.1-.2 3.1-9.6.4-17.7-6.4-24.8-3.8-3.9-3.6-6.4-.5-11.2 1.6-2.3 2.5-5.1 3.6-7.3-3.5-1.9-6.3-3.5-9.2-5.1.3-.4.5-.8.8-1.3 2.1.7 4.1 1.7 6.3 1.9 1.3.1 3.6-1 3.9-2.1.9-2.9-3.2-9.3-5.9-10.6-1.1 2.2-2 4.4-3.3 6.4-4.4 7-12.1 9.2-19.2 10.4-4.9.9-11 2.2-16.1-1.7-.8-.6-2.8 0-4.1.3-3.5.8-7 1.8-10.6 2.4-6.9 1.3-10-.7-10.1-5.2-3.2-.8-7.7-.6-8.6-2.3-1.7-3.4 2.2-5.1 4.8-6.8 1-.7 2.1-1.2 3.1-1.8.2.3.5.5.7.8-1.9 1.9-3.9 3.7-6.7 6.4 10.3 2 17.1-4.6 25.1-6.1l.6 1.2c-5.5 3-10.9 6-16.4 9 .2.5.5 1.1.7 1.6 13.5 2.8 24.8-5.2 36.9-9.2.2.6.5 1.1.7 1.7-3.8 2-7.5 4.1-12.3 6.7 10.4 1.7 18.9-.2 26.4-4.9 2.5-1.6 4.4-5.3 5.1-8.4.4-1.5-2.6-3.8-3.9-5.9-.4-.7-.1-1.8-.2-2.6 2.8 1.3 5.2 2.2 7.3 3.5 3.9 2.6 7.2 5.6 7.6 10.9.1 1.3 1.5 2.6 2.2 3.9 1-1 2.6-1.8 3.1-3.1 3.1-8.1-2.1-19.1-10.4-21.9-2.4-.8-5-1.5-7.5-1.8-3.9-.5-8-.2-11.8-1.2-2.8-.7-5-3.4-7.7-4.5-5.2-2-10-3.3-14.7-7.6-4-3.8-12.3-4-18.7-4-6 0-12 2.4-17.7 3.6.2-.5.5-1.6.9-2.9-10.6 1.5-11.3-1-27 20.3-.6-.8-1.1-1.6-2.2-3.2-.4 3.2-1.2 5.6-.8 7.6 1.5 6.5-3.5 10.6-5.9 15.4-2.2 4.4-4.7 8-2.8 13.2 1.6 4.6 2.4 9.5 8.6 10.2.9.1 1.7 1.1 2.5 1.7-.2.4-.3.8-.5 1.2-1.4-.4-2.8-.8-4.2-1.3-4.6-1.7-6.5-.9-7.3 4-.8 5.1.6 10 5.1 12.7 2.3 1.3 5.8.6 9.9.8.1.4.7 2.2 1.1 4 1.5 8.8 5.4 16.4 12.8 21.2 8.1 5.3 17.9 6.4 27.1 8.6.8.2 2.4-1 3-1.9 1.4-2.4 2.2-5.2 3.8-7.5 2.3-3.2 3.4-5.7-1.1-7.8-1.8-.8-3.4-1.9-5-2.9-7.5-4.9-9.2-12.9-11.1-21.6 2.8-.5 5.7-1.6 8.5-1.4 7.4.4 14.7 1.8 22.1 2 9.4.2 18.8-.6 28.1-.8 1.5 0 3.1 1 4.6 1.5 0 .5-.1 1.1-.1 1.6-3.9.2-5.3 1.9-5.4 5.6 0 2.1-1.3 4.5-2.7 6.2-3.2 4.1-6.7 8-11 13 2 1 4.1 2.6 6.5 3.1 5.4 1.1 10.8 1 15.3-2.9 3.5-2.7 6.9-5.9 10.5-9.1zm38.4-129.2c6.3-.9 12.3-1.7 18.3-2.6 8.9-1.3 17.8-2.7 26.7-3.9 7.1-1 14.4-1.6 21.4-3 7.3-1.5 14.4-3.6 21.5-5.9 5.5-1.8 11.3-3.5 16.1-6.7 14.5-9.7 22.8-22.9 18.7-41.1-1.1-5.2-3-10.7-6-15-4-5.8-9.9-10.2-14.2-15.9-2.3-2.9-4.6-3.8-7.8-3.8H270c-18.6 0-37.2.2-55.8 0-12.3-.1-24.7-.8-37-.8-8.7 0-17.3.7-26 .9-12.5.2-25 0-37.5.1-22.2.1-44.6.1-67 .4-2.7.1-6.7.6-7.9 2.5-5.3 7.6-12.6 14-14.6 23.6-1.3 6.1-2.4 12.1-3.6 18.2-2 10.3 1.5 19.2 9.2 25.2 6.2 4.8 14 8.1 21.6 10.7 8.6 2.9 17.6 4.6 26.5 6.2 12.2 2.2 24.5 4.2 36.8 5.7 10.4 1.3 20.9 2.2 31.4 2.9 7 .4 14 .2 21 .1 4.4-.1 8 2.7 7.9 7.1-.3 9.2-1 18.4-1.5 28.4 7.4-10.2 10.5-21.4 12.9-33.3zm-47.6 181.1c-.3 1-.6 1.9-.9 2.9-2.7-.6-5.5-1.7-8.2-1.6-2.8.1-5.9.6-8.2 2.1-1.3.8-2.1 4.1-1.6 5.9 1.8 6.6 1.7 7-4.9 7.4-.6 0-1.1.3-3 .8 2.9 3.3 5.2 5.9 6.5 7.4 3.8 2.4 6.7 4.2 9.6 6 .9.6 1.8 1.6 2.8 1.6 9.3.6 19.2 3.3 27.1-7.2v6.8c.4-.2.9-.4 1.3-.6 1.4 2.7 2.8 5.3 4.2 7.8-3.8 1.5-6.4 2.6-9.1 3.5-3.8 1.3-7.6 3.2-11.5 3.5-3.3.3-6.7-1.6-9.6 1.6-.4.4-1.8.1-2.6-.1-5.1-1.3-8-4.1-6.1-8.6-6.3-2.6-12.2-5-18-7.4-3 6.5-.5 21.3 4.7 26.8 2.2-1 4.4-2 6.5-3.2 3.8-2.2 3.8-2.2 5.1-.4-5.1 2.8-10.2 5.7-15.3 8.5 1.3.9 2.1.8 2.8.6 12.7-4.9 25.4-9.9 38.2-14.6 7.3-2.6 14.8-4.8 22.2-6.9 3.9-1.1 9.2-.5 11.5-2.9 1.6-1.6-.8-7.2-1.4-11-.2-1-.2-2-.5-2.9-4-13.6-7.9-27.1-12-40.6-1-3.3-2.9-6.3-4.4-9.5-.4-.9-.7-1.9-1.4-4 2.6 1.7 3.9 2.5 5.3 3.4.2-1.8-.3-2.8-.6-3.9-2.1-7.2-8-6.8-13.7-7.1-4.7-.2-6 3.2-7.6 6.5-2.2 4.6-7.1 4-10.9 5.5-3.3 1.4-3.6-1.3-5.1-2.8-.9-1-2.7-1.1-4-1.6-2.5-1-5-2.1-7.4-3.2l-6.9-3.3c-.3.5-.5 1.1-.8 1.6 5.2 1.5 8.3 7.5 14.8 6.6.5-.1 1.4 1.8 2.1 2.8-1 .5-2.3 1.6-3 1.3-3.3-1.3-6.5-2.9-9.6-4.6-3.3-1.8-6.2-4.9-9.6-5.6-1.7-.4-4.2 3.4-6.4 5.3-.5.4-1.3.5-1.7 1-1.2 1.4-2.9 2.8-3.3 4.5-5.2 21.9-10.6 43.7-11 66.4-.2 10.3-2.1 20.8 4.3 30 5-1.3 10-2.5 14.9-3.9 1.1-.3 2-1.4 2.9-2.1-.9-1-1.7-2.9-2.6-3-4-.5-8-.5-12-.4-.7 0-1.4 1.4-2.2 2-.6.5-1.4.8-2.1 1.2 1.1-3.2 2.1-6 6.3-5.8 3.4.2 6.9-.4 10.2-1 2.2-.4 3.3-1.5 2.8-4.5-1.4-8.3-2-16.7-2.9-25.1-.4-4.1-.6-8.2-.8-12.3-.5-8.9-.9-17.9-1.4-26.8.6-.1 1.2-.1 1.8-.2l3 33.9c.7.1 1.4.2 2 .2.5-2.7 2.1-5.8 1.3-8.1-2.5-7.7-4.4-15 2.1-21.8.5-.6.9-1.3 1.3-2.1 2.6-6 6.6-8.9 13.3-8.7 6.3.3 12-.3 17.3-4.2 1.5-1.1 4.9-1.8 6.2-.9 3.3 2.3 7.5 5.2 8.3 8.5 1.8 7.9 5.5 14.3 10.8 20.1 1.6 1.7.3 9.3-1.5 10.8-2.2 1.8-4.5 3.5-6.8 5.4-.5-1.2-1.3-2.9-1.8-4 2.6-2.9 3.8-5.5 2.3-9.1-1.3-3.1-3.1-6.6-2.8-9.7.4-3.3-1.1-4-3-5.2-3.8-2.4-7.4-3.9-10.7.8-.3.4-1.2.3-1.8.4-.5-5.4 4.7-5.7 7.1-8.4.9-1.1 1.5-2.4 2.2-3.7-1.9-1-4-3.2-5.7-2.9-3 .5-5.7 2.6-8.6 3.9.2.5.3.9.5 1.4 2.7-.9 5.5-1.7 8.2-2.6.2.5.5.9.7 1.4-3.1 1.6-6 4-9.2 4.6-4.1.8-8.5.2-13.7.2 1.6-1.3 2.9-2.3 5.2-4.2-3.8.8-6.1 1.1-8.5 1.8-3.6 1-7.8 6.6-8.1 10.2-.2 1.8-1 3.6-1.9 6.6 3.4 6.2 3.4 6.3 7.5 6.2.2 0 .3-.5.6-1.2-1.1-.4-2-.8-3.2-1.3 1.5-6.1 2-13.4 9.4-14.5 4.6-.7 9.6 2.3 14.4 3.6zm126.3 83.5c.7.2 1.5.5 2.2.7 2-4.2 4.2-8.2 5.8-12.5 1.5-4.1 2.4-8.3 3.6-12.5.6.2 1.1.3 1.7.5-1 6.5-2 13-2.8 19.5-.1 1.1.9 2.5 1.7 3.4 7.1 6.7 15.7 9.4 25.3 9.5 6 0 8-2.2 7.9-8.3-.1-6.7 0-13.3 0-20 .6-.2 1.1-.4 1.7-.6 3.3 4.8-.8 11.6 2.2 17.6 1.7-4.2 3-7.5 4.4-11.1 3.2 4.5 6 8.5 8.8 12.5.7-.2 1.3-.3 2-.5.7-6.8 1.3-13.6 2.1-21.5 3.9 3.3 7.1 6.1 10.6 9.2 1.2-5.5 1-10.1-2.1-14.5-2.5-3.6-5.1-7.2-7.4-11-6.8-11-13.4-22-20.2-33-1.6-2.5-3.3-3.3-6.1-1.1-11.9 9.2-23.9 18.1-35.8 27.4-1.3 1-2.3 3.2-2.5 5-.8 5.5-1.3 11-1.8 16.6-.4 8.1-.8 16.4-1.3 24.7zm-156.5-16.5c.2 1.5 1.2 3.6.6 4.2-5 4.8-.7 7 2.3 9.9 2.1 2 3.7 4.5 5.7 6.5 6.3 6.2 8.9 6.8 14 2.6 6-5 13.1-5.4 20.1-4.7 6 .6 11.7 2 17.6-.2 5-1.9 11-2.6 14.9-5.8 7.9-6.5 14.7-14.3 21.8-21.8.5-.5-.1-3.2-1-3.8-4.3-3-8.7-5.8-13.4-8.2-2-1-4.9-1.5-7.1-1.1-4.8 1-9.5 2.4-14 4.3-16.6 7.1-33 14.5-49.5 21.7-2 .9-4.2 1.3-6.4 2-.2-.6-.4-1.1-.6-1.7 21.7-9.3 43.4-18.6 65-27.8-24.3 4.8-46.9 14.6-70 23.9zm82.5 22.1c-.3.6-.7 1.2-1 1.7-5.5-5.8-11.3-3.2-17.2-1.9-4 .9-8.1 1.1-12.2 1.1-6.9-.1-13.9-.8-20.8-.8-4.5 0-8.6 1.6-10.7 6.4 1.2.8 2.4 1.4 3.3 2.3 6.4 6.6 12.6 13.3 19.1 19.7 1.1 1.1 3.3 2.4 4.5 2 3.3-.9 6.4-2.6 9.8-4.2-1.6-.9-3.1-1.6-4.7-2.4.1-.2.2-.3.3-.5 4.5.5 8.9 1.1 13.6 1.6-.5 1.2-.7 1.9-1 2.6h11.2c2.8-7.3 3.6-8.2 10.8-8.4 2.8-.1 5.7.9 8.6 1.5 5.5 1.2 6.3.4 8.3-4.9 1-2.7 3.1-5.3 5.4-7 3.6-2.7 8.1-4.2 11.6-6.8 2.1-1.6 3.1-4.6 4.7-6.9.9-1.4 1.7-3.3 3-4 2.2-1.2 4.9-1.8 8.3-2.9-3.4-1.7-6.1-3.2-9-4.4-4.4-1.7-9.2-4.9-13.3-4.2-5.8.9-11.3 4.4-15.1 9.8-.9 1.3-2.9 2.6-4.4 2.7-4.4.2-8.9-.7-13.4-.4-1.7.1-3.3 2.1-4.9 3.2 1.1 1 2.3 2.1 3.4 3.1.7.7 1.2 1.4 1.8 2zm30.3 42.8c-11.8 2-23.4 4-34.4 5.9 0 3.8-.2 7.1 0 10.3.3 4.6-3.7 4.2-5.7 4-2.2-.3-6.8 1.2-6.3-4 .3-2.6.6-5.3 1-9.2-5.3 1.1-9.6 2.2-14 2.9-9.8 1.5-19.6 2.6-29.4 4.2-1.6.3-3.4 2.1-4.3 3.7-1.3 2.3-1.9 5-3.1 8.5 7.5.6 15.5-2.8 23.6-3.6 8.3-.8 16.4-2.6 24.7-4 .1.7.2 1.4.3 2-16.6 3-33.1 6.1-49.7 9.1.1.5.1 1 .2 1.5.7.1 1.5.4 2.2.3 12.3-1.6 24.9-2.2 36.8-5.3 7.5-1.9 15.1-1.9 22.6-3.5 2.4-.5 5.2.6 7.8 1-.1.6-.1 1.1-.2 1.7-8.2.7-16.5 1.2-24.7 2.3-13.7 1.8-27.3 3.9-41 6-1.4.2-2.7 1.4-4 2.2.2.3.4.5.6.8 33-4.5 66-9.1 98.8-13.5.5-4.5 1-8.3 1.4-12.1-1.7-.4-2.8-.7-3.5-.9.3-3 .3-5.8.3-10.3zM99.7 426.2c-1.8 7.8-3.4 15.1-5 22.3 3.1-.1 6.7-.3 10.3-.5v1.1c-22.4 3.9-44.8 7.8-67.3 11.6l-.3-1.5c8-1.7 16.1-3.4 24.1-5.1-.1-.5-.2-1-.3-1.4-7 1.3-14 2.6-21 4-.1-.5-.2-1.1-.2-1.6l14.1-3c-.1-.6-.2-1.3-.3-1.9-6.5 1.3-12.9 2.5-19.4 3.8-.1-.6-.3-1.2-.4-1.8l9.6-2.7c-.1-.2-.1-.6-.3-.8-2.6-2.2-5.5-3.7-8.8-2.1-6.9 3.2-13-.6-19.2-2.3-3-.8-7-2.8-5.9-6.7.8-2.9 3.8-5.2 6.1-7.5.9-.9 2.8-.9 4.1-1.4 1.5-.6 2.8-1.5 4.6-2.4-1.1-.8-1.5-1.3-1.9-1.3-3-.1-6-.2-8.9-.2-5.5.1-7.1 1.4-7.2 7-.1 11 0 22.1 0 33.2 1.2.5 2.2 1.2 3.3 1.2 12.3.2 24.6.3 36.9.3 2.8 0 5.6-.5 8.3-1.2 5.7-1.4 11.2-3.4 16.9-4.4 10.1-1.8 20.3-3 30.4-4.6 1.6-.2 3.1-1 4.7-1.6-.1-.5-.2-1-.4-1.6-20.3 3.4-40.6 6.8-62 10.4 1.3-1.5 1.7-2.5 2.2-2.6 7.6-1.4 15.3-2.7 23-3.9 11.3-1.7 22.6-3.1 33.9-4.7 2.3-.3 4.4-1 4.7-4.3.3-3.3 1.7-6.5 2.4-9.1-1.8-2-4.8-4.1-4.5-5 1.7-5.3-2.1-5.9-6.3-7.7zm193.8-22.3c4.1-7 8.5-14.4 12.7-21.9.5-.9.4-2.1.7-3.1-1-.2-2-.5-3-.5-9.7-.5-19.5-.4-27.3-8.8-.5 1.9-1 3.4-1.2 5-.6 4.1-.9 8.3-1.7 12.3-1.1 5.2-3.1 10.3-4 15.5-.8 4.1-.6 8.4-.8 12.6.7.1 1.3.1 2 .2.5-2.4.9-4.8 1.4-7.2.4-.1.8-.2 1.2-.2 1.4 3.4 2.8 6.7 4.2 10.1.5-.2 1-.4 1.4-.6.1-2.2.2-4.4.3-6.5.5 0 .9 0 1.4-.1.7 1.3 1.2 2.7 2.1 3.7 1.1 1.2 2.5 2 3.8 3 .3-1.4.5-2.8.8-4.1.2-.9.6-1.7.9-2.5.7.5 1.3 1 2 1.4 1.4.8 2.9 1.4 4.3 2.1.7-1.5 2-3.2 1.9-4.6-.1-1.7-1.6-3.2-3.1-5.8zm4.6-1.8c15 3.5 29.3 4.6 43.8-.5.4-1.5 1.1-3.2 1.1-5 .1-9.1.2-18.2-.1-27.3 0-1.7-1.6-3.3-2.4-5-.5.1-1.1.2-1.6.4-1.2 7.3-2.3 14.5-3.7 23-5-5.5-8.7-9.6-12.4-13.7-1.9-2.2-3.4-1.7-4.4.8-.6 1.5-.9 3.1-1.4 4.7-1.2 4.3-2.5 8.5-4 14-1.7-2.6-2.5-4.2-3.8-5.3-.7-.6-2.8-.7-3.1-.3-2.6 4.5-5.1 9.2-8 14.2zm-77.2 38.6c-2 1.9-2.9 3.5-4 3.7-6.7 1.2-13.5 2.1-20.2 3-8.2 1.1-16.5 1.8-24.6 3.3-13.1 2.4-26.1 5.2-39.2 7.8-.8.1-1.6-.3-2.5-.5 0-.5-.1-1.1-.1-1.6 20.6-3.6 41.3-7.2 61.9-10.9-.1-.4-.2-.9-.2-1.3-22.4 3.5-44.8 7-67.9 10.5.7 3.5 1.4 7.5 2.2 11.7 33.5-1.8 64.9-11.4 97.2-15.7-.1-.8-.2-1.5-.4-2.3-29.7 5.1-59.3 10.2-89 15.3-.1-.6-.2-1.3-.3-1.9 29.9-5.3 59.9-10.7 89.8-16v-5.1h-2.7zm95.6-.3c-10.4 0-21.2 0-31.9.1-1 0-2.6.8-2.8 1.5-1 4.1-1.8 8.3-2.2 12.4-.1.9 1.4 2.4 2.5 2.9 2.5 1 5.2 1.7 7.9 2.1 7.2 1 14.5 1.9 21.8 2.7 2.8.3 3.5-1.3 3.5-3.9.2-5.7.7-11.4 1.2-17.8zm-204.6-21.3c.2-2.9.6-5.5.6-8 0-5.1-.2-10.2-.5-15.3-.1-1.2-.5-3.1-1.4-3.6-8.1-4.1-16.3-8-24.5-11.6-.7-.3-3.4 1.6-3.4 2.3.2 3.5.5 7.3 1.9 10.4 3.1 7.1 4 15.7 13 19 4.5 1.7 8.7 4.1 14.3 6.8zM86 405.9c-.4-2-.5-3.6-1.1-5-2.6-6.7-7.3-12.9-4.6-20.8.3-.8-.8-2.8-1.7-3.2-5.5-2.4-11.1-4.4-16.7-6.5-.4-.1-.9.2-1.3.4-6.8 2.8-8.9 6-8.9 13.4 0 1.2-.2 2.4.1 3.5.2 1 .8 2.2 1.6 2.6 4.3 2.3 8.7 4.5 13.1 6.6 6 2.9 12.1 5.6 19.5 9zm-13.3-43.1c-2.6-2.9-5.6-5.5-7.7-8.8-3-4.8-7.5-6.9-12.4-9-3.9-1.6-6.5.6-8.2 2.6-1.2 1.4-.2 4.9.4 7.3.4 1.8 1.8 3.5 3.3 6.1-2.2.5-3.9 1.1-5.6 1.1-6.3 0-9.6 4.7-7.1 10.4.5 1.2 1.2 2.3 1.7 3.6 1.2 2.9 3.1 3.7 5.8 2.2 4.7-2.7 10-4.7 13.8-8.3 4.5-4.3 8.3-8.3 15.1-6.8.4.2.9-.4.9-.4zm168.6 42.3c-.3-.4-.6-.9-.9-1.3-2.1 0-4.3-.3-6.4.1-11.7 2.2-23.4 4.8-35.1 6.9-12 2.2-24.1 4-36.2 6-9.6 1.6-19.2 3.2-28.8 4.7-11.9 1.9-23.6 3.3-34.2-4.7-1.1-.9-3.1-.7-4.6-1 1 2.7 2.3 4.7 4.1 5.9 7.8 5.1 16.7 6.9 25.7 5.9 10.1-1.2 20.1-3.5 30.1-5.2 6.1-1.1 12.2-2.3 18.3-3.2 7.2-1.2 14.4-2 21.5-3.3 7-1.2 14-3 21.1-3.9 6.5-.9 13.2-.8 19.7-1.9 2.1-.5 3.8-3.4 5.7-5zM72 423.1c1 9 2 17.5 3 26.2 11.1 1.5 18.9-2.3 19-9.7-4.7 1.7-9.6 3.4-13.6-1.9 3.9-5.2 8.9-2.4 14.5-2.4.5-2.9 1.4-6.2 1.4-9.4 0-2.8-2.4-3.6-5-2.9-4.6 1.2-9.3 2.5-13.9 3.5-1 .2-2.3-.6-3.4-.9v-1l5.1-1.2c0-.3-.1-.7-.1-1-2.1.1-4.1.3-7 .7zm8.2-110.6c.8-4.8 1.4-9.3 2.4-13.6 1.4-6 3.2-11.8 4.5-17.8 1.6-7 3.1-14 4.1-21 .6-4.1.8-8 6.3-7.9 0 0 .1-.3.6-1.7-2.6-1.2-5.6-3.8-8-3.4-3.9.8-2.9 5.1-3.3 8.3-.8 6.1-.8 12.7-3.1 18.2-3.8 8.9-5.4 18.1-6.5 27.5-.1 1.3-.3 2.6-.9 3.7-2.1 3.8-1.3 6.3 3.9 7.7zM343.1 435c-4.8 1.4-8.9 2.7-13.1 3.8-5.4 1.5-8.3 5.1-7.7 10.6.2 1.6 1.7 3.9 3 4.2 4.9 1.1 10 1.5 15 1.9.9.1 2.6-1.6 2.6-2.5.3-5.8.2-11.6.2-18zM171.5 262.6c-.5.1-1 .2-1.6.2 0 .9-.1 1.8.1 2.7 5.4 18.3 10.8 36.7 16.4 54.9.6 1.9 2.9 3.4 4.8 4.6.7.4 3.4-.9 3.4-1.3-.1-2.1-.5-4.3-1.4-6.1-2-4.1-4.9-7.7-6.5-11.9-5.2-14.3-10.1-28.7-15.2-43.1zM121 466v-25.1c-2.9.1-5.6.3-8.6.4-1 4.6-2.2 9.6-3 14.7-1.6 9.7-1.5 9.7 8.4 9.5.9 0 1.8.3 3.2.5zm101.9-13c-22.2 3.8-44.4 7.7-66.7 11.6.1.6.2 1.1.3 1.7 7.2-.9 14.5-1.7 21.7-2.9 7.2-1.1 14.6-2.2 21.6-4.1 9.1-2.5 17.6-3.6 21.1-1.3-13.3 2.3-26.3 4.5-39.3 6.8.1.5.1 1 .2 1.5 14.6-2.1 29.2-4.2 43.6-6.2-.8-2.3-1.5-4.2-2.5-7.1zm-154-23.4c.2 0 .5-.1.7-.1 0-2.1.3-4.3-.1-6.4-.3-1.5-1.5-2.8-2.3-4.2-1.2 1-3.2 1.8-3.5 3-1.6 6.2-2.9 12.5-4 18.9-1.1 6.1 2.7 8.8 8.7 7.2 3.6-.9 3.5-2.9 3-5.5-.7-4.4-1.7-8.6-2.5-12.9zm158-.4c-.4 7.7-.9 14.9-1 22.2 0 1.9.9 5 2.1 5.4 2.3.7 5.3.3 7.6-.6.8-.3 1-3.4.8-5.2-.6-5.5-1.7-11-2.3-16.5-.6-6.9-.5-6.9-7.2-5.3zM91.5 416.7c.4-.4.9-.8 1.3-1.2-1.9-1.8-3.6-4.2-5.9-5.4-6.7-3.5-13.6-6.5-20.3-9.7-3.8-1.8-7.5-4-11.4-5.5-1.1-.4-2.9.7-4.4 1.2.7 1.3 1 3.3 2.1 3.9 4.4 2.3 9 4.3 13.5 6.2 8.3 3.6 16.7 7 25.1 10.5zM205 464.5c0 .5 0 1.1.1 1.6 2.8-.1 5.6-.2 8.4-.4 5.8-.4 11.5-.8 17.3-1.3 4.4-.4 8.8-.8 13.3-1.4 2.7-.3 5.4-1.3 8.1-1.3 7.9-.2 16-5.7 23.8.6.2.2.9-.2 1.4-.4-.7-4.5-3.4-6.1-7.7-5.5-5.3.8-10.6 1.7-16 2.4-10.9 1.6-21.8 3.2-32.7 4.5-5.3.7-10.7.8-16 1.2zm-93.5-80.8c-7.2-3.1-13.9-6.1-20.7-8.8-1.1-.4-2.6.2-3.9.3.7 1.3 1.1 3.1 2.2 3.7 6.9 3.5 13.9 6.7 21.6 10.3.4-2.2.6-3.8.8-5.5zm211.1 73.7c0 .4 0 .7-.1 1.1 1.1.7 2.4 1.2 3.4 2 1.3 1.1 2.3 3.1 3.8 3.6 2.5.9 5.3 1.1 8 1.2 1.8 0 4.5-.1 5.1-1.2.9-1.5.2-3.9.2-5.7-4.1 0-7.2.1-10.2 0-3.4-.2-6.8-.7-10.2-1zM38.5 432.7l-6.3 4.5c2 1.8 3.9 5 6 5.1 2.6.1 7.2.9 7.6-4.2.3-5-3.6-4-7.3-5.4zm79.8-187.3c4.1 7.9 18.3 8 23.7.4-8.1-2-16 5.9-23.7-.4zm-5.1 143.9c6.2-.9 11.6-1.6 18-2.5-2.1-2.8-3.3-4.4-4.9-6.6-2.9 5.8-12.6-1.7-13.1 9.1zm-38-117.6c1.5 1.3 3 2.6 4.4 3.8.5-.1.9-.3 1.4-.4-.3-1.5-.1-4-.9-4.4-2.6-1.3-5.9-3.8-8.2-.1-3.5 5.6-5.2 11.7-4 18.4 1.5-2.7 2.3-5.5 3.3-8.3 1.2-2.8 2.6-5.6 4-9zm198.3 101c-6.6 4.8-9.4 18.1-5.1 24.9 1.7-8.6 3.3-16.3 5.1-24.9zm-165.8 1.6c1.4 8.9 6.8 7 14.9 3.4-4-4.7-9.1-5.9-14.9-3.4zm-42.5-8.9c-.2.8-.4 1.6-.7 2.4 5.1 2.1 10.2 4.3 15.4 6.3 1.2.4 2.8-.2 4.2-.3-.7-1.2-1.1-3.3-2.1-3.6-5.5-1.9-11.1-3.3-16.8-4.8zm.2-31.3c4 1.4 7.4 2.7 11 3.7.8.2 2.9-1 2.8-1.4-.2-1.6-.6-4.2-1.6-4.5-3.4-1.1-7-1.5-10.7-2.2-.4 1.3-.9 2.7-1.5 4.4zm4.1-33.2c.6.2 1.1.5 1.7.7.4-.8.9-1.6 1.2-2.5 1.9-6.3 3.8-12.6 5.6-18.9.2-.7-.2-1.5-.3-2.2-.9.2-2.1 0-2.5.5-.8 1.1-1.5 2.6-1.8 4-1.5 6.1-2.7 12.3-3.9 18.4zm36.6 160c-8.2 1.4-15.6 2.7-23.4 4 .7.6 1.2 1.4 1.6 1.4 5.7-.2 11.4-1 17-.5 4.1.3 4.2-1.7 4.8-4.9zM74.7 257.8c.7 3 .5 5.2 1.5 6.2 1.6 1.6 3.9 2.4 6 3.3.3.1 2-1.9 1.8-2.3-.9-1.7-2-3.3-3.5-4.5-1.1-.9-2.8-1.3-5.8-2.7zm35-13.6c-5-9.4-7.3-10.6-9.7-6 6.6 8 6.6 8 9.7 6zm117.1 170.9c.6 3.1.9 5.3 1.3 7.3h6.1c-.6-2.9-.8-5.5-2-7.7-.3-.6-3.4.2-5.4.4zM80.2 347.3c.1-.6.2-1.3.3-1.9l-15.2-3.8c.6 1.4.9 3.4 1.5 3.5 4.5.6 8.7 3.8 13.4 2.2zm217.5 119c.1-.4.1-.8.2-1.2-1.1-.3-2.2-.6-3.4-.8-3.2-.6-6.3-1.2-9.5-1.8-1.3-.2-2.6-.3-3.9-.3-.1 0-.6 1.4-.3 1.6 1.1.9 2.2 2.2 3.5 2.3 4.5.4 9 .2 13.4.2zM79.9 354c.1-.4.3-.8.4-1.3-4.8-1.1-9.5-2.2-14.5-3.4 1.5 6.6 2.2 5.9 14.1 4.7zm20.7-105.3 1.8-1.5c-1.9-2.5-3.8-5.1-5.9-7.4-.4-.5-2.6-.3-2.8.2-.5 1-.8 2.9-.2 3.4 2.2 2 4.7 3.5 7.1 5.3zm38.6-7.7c3 1.5 5.7 2.8 8.4 4.2-.4-2-.3-4.3-1.3-5.9-2.2-3.2-4.4-1.6-7.1 1.7zm-16.7 194c.2.3.3.6.5 1 1.1-.7 2.3-1.3 3.2-2.1.2-.2-.4-2-.6-2-2.8-.1-5.7-.2-8.5.1-.4 0-.5 2.4-.7 3.6 1.1.1 2.2.5 3.2.4.9-.1 1.9-.7 2.9-1zm.8-120.4c-6.1 1.2-8.4-2.7-10.8-7.3-.9 1.8-1.9 4.2-1.2 5 4.2 4.3 9.5 5.3 12 2.3zm113.4 56.1c2.7-.3 5.3-.4 7.7-1 .8-.2 1.9-1.5 2-2.3 0-.7-1.5-2.1-2-2-3 .7-6.9.1-7.7 5.3zM80 317.1c-3-2.1-5.7-4-8.5-5.8-.6-.4-1.8-.3-2.4.1-.5.3-.7 1.5-.5 2.2.5 1.5 9.4 4.3 11.4 3.5zm-1 8.6c.1-.7.3-1.3.4-2-3.8-1.3-7.6-2.7-12-4.2.3 1.5.2 3.3.7 3.4 3.6 1.1 7.2 1.9 10.9 2.8zm61.1-126.9c2.3 2.8 3.9 4.8 6.3 7.8 1.5-7.8.6-9-6.3-7.8z"/>
  <path d="M150.9 231.3c-.1-.8-.6-1.7-.3-2.3 3-6.4 2.4-12.3-2-18-.6-.8-.4-2.8.2-3.8 3.6-5.7 3.4-7.3-1.5-11.5-1-.9-1.8-3.2-1.3-4.5.8-2.2 2.1-5 4-6 7.6-4.2 6.9-11.2 6.1-17.8-.7-5.7-2.9-11.8-8.6-14-5.5-2-11.7-2.1-17.6-2.9-2-.3-4.3 0-6-.8-10.7-5.4-20.9-11.9-32-16.2-5-1.9-11.6.3-17.4.6-2.2.1-4.5 0-6.7 0-13.1 0-20.6 8.6-27.8 17.7-.3.4-.6.7-1 1.1-.1.1-.3.1-2 .5 1.9-4.4 3.4-8 4.9-11.5-5.7 5.4-8.1 12.2-8.7 19.6-.3 4.5-1.4 8.2-4.8 11.4-5.9 5.7-7 15.2-2.7 22.1 1.6 2.5 1.7 4.1.1 6.6-4.3 6.8-3.3 15.5 2.7 20.9 1.6 1.5 4.9 2.4 6.9 1.8 3.5-1.1 4.2.1 5 3.1 1.1 3.9 2.5 7.7 4.2 11.4 4.1 8.7 12.6 11.8 20.8 14.9 8 3 9.8 7.6 5.4 15.2-6.5 11.2-9.1 23-4.8 35.6 1.8 5.2.9 10.3-.2 15.6-1.4 7-2.3 14.2-3 21.3-.3 3.5-1.3 4.5-4.6 3-.9-.4-1.9-.6-2.8-1-3.6-1.8-7.2-2.8-10.4.4-3.6 3.6-4.4 7.9-2.3 12.6.3.7.7 1.5 1 2.3-2.4.7-4.7 1-6.7 2.1-6 3.3-7.1 7.8-3.5 13.9.2.3.5.5.6.8 1.5 2.3 2.5 5.7 4.6 6.4 2.1.7 5.1-1.2 7.8-2 .7-.2 1.5-.4 2.6-.7 1.1 7.5 1.8 14.5-3.2 21.3 3.8 1.7 7.1 3.1 10.3 4.7.9.5 1.8 1.3 2.3 2.2.2.3-.9 1.8-1.5 1.9-6.9 1.4-13.9 2.7-20.8 3.9-.2 0-.5-.3-1.4-.9 7.3-1.6 14.1-3 20.9-4.5-.1-.5-.2-.9-.3-1.4-3.4.5-6.7 1-10.1 1.6-9.7 1.8-19.5 3.6-29.1 5.8-1.6.4-4.2 3-4 4.2.5 3.7 3.4 1 5.1.9 1.4-.1 2.8-1.1 5.2-2.1-.7 1.8-1 2.6-1.7 4.5 12.5-2.5 24.5-4.8 36.4-7.1.1.5.3 1 .4 1.5L33 421.1l.3 1.8c4.1-.8 8.1-1.5 12.2-2.3 4.3-.9 8.6-1.7 12.9-2.7 2.6-.6 3.7-.1 3.1 2.8-2 8.6-3.7 17.2-5.8 25.7-.2.9-1.8 2.1-2.5 2-3-.5-5.9-1.5-9.4-2.4 1.1-1.4 2.2-2.2 2.6-3.3.9-2.2 2.6-4.9 2-6.7-1-3-3.5-5.6-7.5-5.1-.8.1-1.7-.2-2.5.1-2.9 1.1-6.3 1.8-8.5 3.7-.8.7 1.4 4.6 2.2 7.1.2.7.5 1.5 1.1 3.5-6.4-1.3-11.9-2.2-17.3-3.6-1.2-.3-2.5-2.2-2.8-3.6-.3-1 .6-2.8 1.6-3.4 2.7-1.8 5.8-3 8.6-4.6 1.8-1 3.6-2.1 5.8-3.4-7.2-6.8-15.1-4.3-23.2-3.9V4.7h31.6c-3.2 4.2-5.7 7.5-8.2 10.7C23.2 22.8 19.9 31.6 18 41c-.6 3-.9 6.2-1 9.3C16.1 67 25.4 77 39.3 83.9c12.3 6.1 25.6 8.6 39 10.8 9.1 1.5 18.1 4 27.2 5.3 7 1.1 14.2 1.2 21.3 1.7 11.1.6 22.1 1.2 33.2 1.7 2.4.1 4.8.3 7.2-.1 4.2-.6 5.9 2.4 5.6 5.1-1.5 11.8-.6 24-5.1 36.3 1.4-.9 2.6-1.3 3.3-2.1 8.2-10.3 14.3-21.6 16.8-34.6.5-2.7 1.6-3.3 4.1-3.7 18.1-2.5 36.2-5.6 54.3-7.8 14.8-1.7 29.1-5.4 42.2-12.3C310.1 72.8 318.8 54 310 29.9c-1.9-5.1-5.8-9.7-9.5-14-3.3-3.9-7.5-7-11.3-10.5.3-.5.5-1 .8-1.5h19.4c2.4 0 4.7-.2 7.1-.1 8.1.3 16.1.7 24.2.9 4.5.1 3.7 3.4 3.7 5.9-.3 20.6-1.1 41.1-1.1 61.7 0 25.6.6 51.2.8 76.7.2 28.5.3 57 .3 85.5 0 13.6-.4 27.3-.6 40.9l-.9 57c0 .6-.3 1.2-.8 3.3-2.5-3.9-4.3-6.8-6.1-9.7-4.9-8.1-10-16.1-14.7-24.2-3.1-5.2-4.7-11.8-8.8-15.9-7.1-6.9-1.4-9.7 2.1-14.6 7.5-10.7 14.7-22 16.5-35.1 2.4-17.4-.9-33.9-12.8-47.6-4-4.7-4-9.6-2.1-15 .5-1.4.4-2.9.6-4.4-.5-.1-1.1-.2-1.6-.3-.7 2.6-1.3 5.2-2.4 7.7-.3.7-2.8 1.5-3.2 1.1-8.1-7.2-17.2-12.8-28-14.2-6.8-.9-14-.6-20.8.5-6.8 1.1-13.5 3.6-20.1 5.9-8.8 3.1-15.3 9.4-20.7 16.7-3.3 4.4-5.8 9.3-8.7 13.9-2.4-2-4.7-4-6.9-5.9-7.1 3.6-7.8 11.6-4.7 19.8.4-3.6.7-7.2 1.3-10.8.3-1.6 1.2-3.1 1.8-4.7 1.9.9 4 1.5 5.6 2.7 1.6 1.2 2.7 2.9 4.3 4.7 2.2-5.1 3.8-9.8 6.2-13.9 9.4-15.9 24.4-22.3 42.1-24.8 6.9-1 13.6-1.1 20.4.1 9.6 1.7 17.9 6.1 25.2 12.4 1.1.9 1.3 2.9 1.9 4.4 1.1 2.5.4 6.5 5.6 5.5 1.2-.3 3.6 2.4 4.6 4.1 5 8.9 9 17.9 9.1 28.6.1 9.8-.7 19.3-4.6 28.2-2.4 5.5-5.7 10.7-8.8 15.9-2.9 4.9-5.7 10-9.3 14.4-2.5 3.1-6.3 5.2-9.6 7.5-8.6 5.8-17.2 11.5-25.8 17.3-1.1.7-2.2 1.4-4.2 2.5-1.5-2.9-2.6-5.7-4.2-8.2-1.1-1.6-2.7-3.6-4.5-4-10.3-2.4-20.8-3.9-30.9-6.6-8.3-2.2-11.4-9.4-13.4-17.1-.4-1.4-.8-2.8-.9-4.3-.2-3.8-2.3-4.9-5.9-5-1.7-.1-4.8-1.6-4.8-2.5 0-2.7.7-5.6 2-7.9.9-1.6 3.4-2.3 5.7-3.7 1.5 2.8 2.9 5.5 4.8 9.3 1.7-5.2-.3-8.3-2.1-11.6-1-1.8-2-3.8-2-5.7-.2-8.5-.8-17.1 2.5-25.3.4-1-.8-2.7-1.2-4.1-.5.1-1 .1-1.5.2-.7 4.9-1.6 9.8-1.9 14.8-.4 5.9-.1 11.9-.5 17.8-.1 1.5-1.7 3.6-3.2 4.3-6 2.7-8.3 10-4.6 15.5 2.2 3.3 3.8 3.7 9.1 2.3 1.6 4.8 3.4 9.7 4.8 14.6 2.8 9.9 11.1 12.1 19.4 14.1 7.7 1.8 15.5 3.1 23.3 4.6.8.2 1.8.6 2.1 1.2 2 3.9 3.8 8 5.7 12l.2-.2c-3.3.1-5.2 1.6-5.2 5.2 0 3.1-.7 6.2-.8 9.3 0 1.2.8 2.5 1.3 3.8 1-.7 2-1.3 2.9-2.1.6-.5 1-1.2 2.7-1.7 0 4.3.7 8.7-.1 12.8-2.6 11.9-1.6 23.7 0 35.6.8 5.6-.8 11.5-.6 17.2.1 2.4 1.8 4.8 2.7 7.2.3.7 1.1 1.5 1 2.1-1.6 7.3-3.1 14.7-5.1 21.9-.9 3.1-1.4 5.3 2.1 6.8 4.1 1.7 8.1 3.8 12.2 5.4 2.6 1 3.8 2 2.9 4.9-1.1 3.7-1.9 7.5-3.1 12.2-11.9 1.8-24.7 3.7-37.7 5.6.2-3.6 1.2-4.7 4.5-4.7 5.8.1 11.7-.6 17.5-1.2.6-.1 1.1-1.2 1.6-1.8-.8-.3-1.7-1-2.4-1-6.8.7-13.6 1.6-20.4 2.4-1.3-7.8-2.6-15.3-3.8-22.8-.2-1.2.5-2.5.5-3.8 0-2.4-.3-4.8-.4-7.3-.1-2.7-1.3-5.3 2.7-7.2 3.2-1.5 6.5-4.8 4.2-9.5 1.4-.9 2.6-1.6 3.8-2.4l-.3-1.2c-43 7.5-86.1 14.9-129.5 22.5-.6-2.4-1.3-4.2-1.3-6-.2-6.5-.3-13.1.1-19.6.1-1.3 1.9-3.2 3.2-3.6 3.7-1.1 7.6-1.5 11.5-2.1 3-.5 4.7 1.1 6 3.5.9 1.7 2.1 3.3 3 5 1.8 3.6 3.9 5.1 6.8 1.2.8.5 1.2.8 1.5 1.1 3.7 4 7 7.1 13 2.3 2.5-2 7.5-1 11.4-.8 4.1.2 8.2 1.2 12.3 1.3 1 0 2.4-1.4 3-2.6 3.4-6.5 6.2-7.6 13.5-5.4 2.1.6 4.4 1 6.7 1.1 6.8.1 6.7 0 7.4-6.7.3-3.2 1.3-5.4 4.9-6.9 5.1-2.2 9.3-6.1 14.3-8.6 3.1-1.5 6.8-2 10.4-2.4.6-.1 2.1 2.6 2.2 4 .2 6.9.1 13.9.8 20.9 3.5-4.9.6-10.7 1.8-16 1.3-5.5.3-11.6.3-17.5.9-.3 2.4-.7 3.8-1.2-1.1-1.2-1.9-2.9-3.3-3.6-6.5-3.3-13-6.8-19.9-9.3-2.8-1-6.9-.7-9.6.6-4.9 2.4-9.4 4.1-14.9 2.2-1.6-.6-3.6-.1-6.2-1.2 4.2-4.3 8.4-8.5 12.3-12.5-5.1-5.2-11.8-8.3-12.3-16.7-.1-2.6-2.7-5.1-4.2-7.5-8.8-14.1-12-30.5-18.6-45.5-3.1-7-6.7-13.7-9.8-20.7-1.2-2.7-1.1-6-2.5-8.5-1.1-2-3.5-3.5-5.6-4.8-2.5-1.4-5.3-2.3-7.8-3.4zm104 15c4.1 3.8 9.3 2.8 11.9-1.6 3.1-5.3 3-13.1-1.2-17.6-2.2-2.3-4.8-5.6-9.3-3.7-4.2 1.8-5.9 5-6.8 8.5 2.9-2 5.8-5.4 8.6-5.4 3.4-.1 7.3 2.7 7.7 6.9.3 3.3.1 7.5-1.7 9.9-1.6 2-5.8 2-9.2 3zM9.4 410.2c.1.9.3 1.7.4 2.6 6.5-1.5 12.9-3 19.4-4.5l-.3-1.5c-6.5 1.1-13 2.2-19.5 3.4zM57 132c-.5-.7-1-1.3-1.5-2-4.1 3-8.3 6.1-12.4 9.1.3.4.7.9 1 1.3L57 132z" fill="#fff"/>
  <path d="M147.9 230.9c-3.5 3.2-6.9 6.4-10.5 9.5-4.5 3.9-9.9 4-15.3 2.9-2.4-.5-4.5-2.1-6.5-3.1 4.3-5 7.8-8.8 11-13 1.4-1.8 2.6-4.1 2.7-6.2.1-3.7 1.5-5.5 5.4-5.6 0-.5.1-1.1.1-1.6-1.5-.5-3.1-1.6-4.6-1.5-9.4.2-18.8.9-28.1.8-7.4-.1-14.7-1.5-22.1-2-2.8-.2-5.6.9-8.5 1.4 1.9 8.7 3.6 16.7 11.1 21.6 1.6 1.1 3.3 2.1 5 2.9 4.5 2.1 3.4 4.6 1.1 7.8-1.6 2.2-2.4 5.1-3.8 7.5-.6.9-2.2 2.1-3 1.9-9.2-2.3-19-3.4-27.1-8.6-7.5-4.9-11.4-12.4-12.8-21.2-.3-1.8-.9-3.6-1.1-4-4.1-.2-7.6.5-9.9-.8-4.5-2.6-5.9-7.6-5.1-12.7.8-4.9 2.7-5.7 7.3-4 1.4.5 2.8.9 4.2 1.3.2-.4.3-.8.5-1.2-.8-.6-1.6-1.6-2.5-1.7-6.2-.7-7-5.6-8.6-10.2-1.8-5.2.7-8.8 2.8-13.2 2.4-4.8 7.3-8.9 5.9-15.4-.5-2.1.4-4.4.8-7.6 1.1 1.6 1.7 2.4 2.2 3.2 15.7-21.4 16.4-18.8 27-20.3-.4 1.2-.8 2.3-.9 2.9 5.8-1.3 11.8-3.6 17.7-3.6 6.4 0 14.7.2 18.7 4 4.6 4.4 9.5 5.6 14.7 7.6 2.7 1.1 4.9 3.7 7.7 4.5 3.8 1 7.9.7 11.8 1.2 2.5.3 5.1 1 7.5 1.8 8.3 2.8 13.5 13.8 10.4 21.9-.5 1.2-2 2.1-3.1 3.1-.8-1.3-2.1-2.5-2.2-3.9-.4-5.3-3.7-8.3-7.6-10.9-2.1-1.4-4.5-2.2-7.3-3.5 0 .8-.2 1.9.2 2.6 1.2 2.1 4.2 4.3 3.9 5.9-.7 3.1-2.6 6.8-5.1 8.4-7.6 4.7-16.1 6.6-26.4 4.9 4.8-2.6 8.5-4.6 12.3-6.7-.2-.6-.5-1.1-.7-1.7-12.1 4-23.4 12-36.9 9.2-.2-.5-.5-1.1-.7-1.6 5.5-3 10.9-6 16.4-9l-.6-1.2c-8 1.6-14.8 8.1-25.1 6.1 2.8-2.7 4.8-4.6 6.7-6.4-.2-.3-.5-.5-.7-.8-1 .6-2.1 1.2-3.1 1.8-2.6 1.7-6.5 3.5-4.8 6.8.9 1.7 5.4 1.6 8.6 2.3.1 4.5 3.2 6.5 10.1 5.2 3.6-.7 7-1.7 10.6-2.4 1.4-.3 3.3-.9 4.1-.3 5.1 3.9 11.2 2.5 16.1 1.7 7.1-1.2 14.7-3.4 19.2-10.4 1.3-2 2.2-4.3 3.3-6.4 2.8 1.3 6.8 7.7 5.9 10.6-.3 1-2.6 2.1-3.9 2.1-2.1-.1-4.2-1.2-6.3-1.9-.3.4-.5.8-.8 1.3 2.9 1.6 5.7 3.2 9.2 5.1-1.1 2.2-2 4.9-3.6 7.3-3.1 4.7-3.3 7.2.5 11.2 6.9 7.1 9.5 15.2 6.4 24.8.1-.4.2-.5.2-.5zM37.8 186.7c2 4.8.8 10.4 5 14-1.9-5.6-.1-10 2.9-14.5 2.3-3.5 3.5-7.8 5.2-11.7-.3-.1-.7-.3-1-.4-3 4.1-6 8.2-9.2 12.7-.3 0-1.4 0-2.9-.1zm78.1 11.4c.5.4.9.9 1.4 1.3-1.3 1.3-2.4 2.8-3.8 3.9-.5.4-1.7-.3-2.6-.4 0 .7-.3 1.8 0 2 1.2.6 2.6 1.4 3.7 1.2 3.9-.7 6.9-4.9 5.3-8.4-.7-1.5-4-2.1-6.3-2.6-.9-.2-2.1.9-3.2 1.4.2.5.4.9.6 1.4 1.6 0 3.3.1 4.9.2zM96 204.2c1.9-2 3.7-3.1 4-4.5.2-1-1.6-2.4-2.5-3.6-1.3 1.3-2.9 2.4-3.7 4-.3.6 1.1 2.1 2.2 4.1zm32.3-8.8c-.9-.2-1.8-.4-2.7-.7-.9 2-1.8 4-2.6 6 1.4.1 3.9.7 4.2.3.7-1.7.7-3.7 1.1-5.6zm-76.9-16.1c.5.3.9.5 1.4.8 2.1-3.6 4.1-7.3 6.2-10.9-.6-.3-1.2-.7-1.8-1-1.9 3.7-3.9 7.4-5.8 11.1z" fill="#fff"/>
  <path d="M138.8 282.8c-4.8-1.3-9.8-4.2-14.3-3.6-7.4 1-7.9 8.4-9.4 14.5 1.2.5 2.2.8 3.2 1.3-.4.7-.5 1.2-.6 1.2-4.1.1-4.1.1-7.5-6.2.9-3.1 1.7-4.8 1.9-6.6.3-3.6 4.4-9.2 8.1-10.2 2.3-.6 4.7-1 8.5-1.8-2.3 1.9-3.6 2.9-5.2 4.2 5.1 0 9.6.6 13.7-.2 3.3-.6 6.2-3 9.2-4.6-.2-.5-.5-.9-.7-1.4-2.7.9-5.5 1.7-8.2 2.6-.2-.4-.3-.9-.5-1.4 2.8-1.4 5.6-3.4 8.6-3.9 1.7-.3 3.8 1.8 5.7 2.9-.7 1.2-1.3 2.6-2.2 3.7-2.4 2.7-7.6 2.9-7.1 8.4.7-.1 1.6 0 1.8-.4 3.3-4.7 6.9-3.2 10.7-.8 1.9 1.2 3.4 1.9 3 5.2-.4 3.1 1.5 6.5 2.8 9.7 1.5 3.6.3 6.3-2.3 9.1.5 1.2 1.3 2.9 1.8 4 2.3-1.8 4.6-3.6 6.8-5.4 1.8-1.4 3.1-9 1.5-10.8-5.3-5.8-9-12.2-10.8-20.1-.8-3.4-5-6.3-8.3-8.5-1.3-.9-4.6-.2-6.2.9-5.3 3.9-11.1 4.5-17.3 4.2-6.7-.3-10.7 2.6-13.3 8.7-.3.7-.7 1.5-1.3 2.1-6.5 6.8-4.6 14.1-2.1 21.8.8 2.3-.8 5.4-1.3 8.1-.7-.1-1.4-.2-2-.2l-3-33.9c-.6.1-1.2.1-1.8.2.5 8.9.9 17.9 1.4 26.8.2 4.1.4 8.2.8 12.3.8 8.4 1.5 16.8 2.9 25.1.5 3-.6 4.1-2.8 4.5-3.4.6-6.9 1.2-10.2 1-4.2-.3-5.2 2.5-6.3 5.8.7-.4 1.5-.7 2.1-1.2.8-.6 1.4-1.9 2.2-2 4-.1 8.1-.1 12 .4 1 .1 1.8 2 2.6 3-1 .7-1.9 1.8-2.9 2.1-4.9 1.4-9.9 2.6-14.9 3.9-6.5-9.3-4.6-19.7-4.3-30 .5-22.7 5.9-44.6 11-66.4.4-1.7 2.1-3.1 3.3-4.5.4-.5 1.2-.5 1.7-1 2.2-1.9 4.7-5.7 6.4-5.3 3.4.7 6.3 3.8 9.6 5.6 3.1 1.7 6.3 3.3 9.6 4.6.7.3 2-.9 3-1.3-.7-1-1.5-2.9-2.1-2.8-6.5 1-9.6-5.1-14.8-6.6.3-.5.5-1.1.8-1.6 2.3 1.1 4.6 2.3 6.9 3.3 2.5 1.1 4.9 2.2 7.4 3.2 1.4.6 3.1.7 4 1.6 1.5 1.5 1.8 4.2 5.1 2.8 3.8-1.6 8.7-.9 10.9-5.5 1.6-3.3 2.9-6.7 7.6-6.5 5.7.3 11.6-.1 13.7 7.1.3 1.1.8 2.1.6 3.9-1.3-.9-2.7-1.7-5.3-3.4.7 2.1.9 3.1 1.4 4 1.4 3.2 3.4 6.2 4.4 9.5 4.2 13.5 8.1 27.1 12 40.6.3.9.3 1.9.5 2.9.6 3.8 3 9.3 1.4 11-2.3 2.4-7.6 1.8-11.5 2.9-7.5 2.1-14.9 4.3-22.2 6.9-12.8 4.7-25.5 9.7-38.2 14.6-.7.3-1.5.3-2.8-.6 5.1-2.9 10.2-5.7 15.3-8.5-1.3-1.8-1.3-1.7-5.1.4-2.1 1.2-4.4 2.2-6.5 3.2-5.2-5.5-7.7-20.3-4.7-26.8 5.8 2.4 11.7 4.8 18 7.4-1.9 4.5 1.1 7.3 6.1 8.6.9.2 2.2.5 2.6.1 2.9-3.2 6.3-1.3 9.6-1.6 3.9-.3 7.7-2.2 11.5-3.5 2.7-.9 5.3-2.1 9.1-3.5-1.3-2.5-2.7-5.1-4.2-7.8-.4.2-.9.4-1.3.6v-6.8c-8 10.6-17.8 7.8-27.1 7.2-1-.1-1.9-1-2.8-1.6-2.9-1.8-5.8-3.6-9.6-6-1.3-1.5-3.6-4.1-6.5-7.4 1.9-.5 2.4-.8 3-.8 6.7-.3 6.8-.8 4.9-7.4-.5-1.8.3-5.1 1.6-5.9 2.3-1.5 5.4-2.1 8.2-2.1 2.7-.1 5.5 1 8.2 1.6.2-1 .5-2 .8-2.9zm-4.6 15.9c1.2-1.1 2.5-2.2 3.6-3.4.6-.7 1-1.7 1.5-2.6.6 1.1 1.7 2.2 1.6 3.2-.2 1.4-1 3.1-2.1 4.1-4.4 4.1-4.5 5.9-.5 10.2 4.8-3.7 5-3.7 6-.1 7.7.5 10.9-3.9 11.3-10.6-3.3-6.2-6.6-.4-9.3-.7-2.4-3.5-4.7-7.7-8.1-8.9-3.6-1.3-8.8-1.8-12.1 3.3 3.5 0 8.7-2.2 8.1 5.5zm16.3-9.7c2.2-.1 3.6-.2 5.8-.3-3.8-3.6-6.9-3.2-11.4 1.1 2.9 1.5 4.2 6.7 9.2 2.6-1.2-1.1-2.2-2.1-3.6-3.4zM265.1 366.3c.5-8.3.9-16.6 1.6-24.8.4-5.5.9-11.1 1.8-16.6.3-1.8 1.2-3.9 2.5-5 11.8-9.2 23.9-18.2 35.8-27.4 2.7-2.1 4.5-1.4 6.1 1.1 6.7 11 13.4 22 20.2 33 2.3 3.8 4.8 7.4 7.4 11 3.1 4.4 3.3 9.1 2.1 14.5-3.5-3.1-6.8-5.8-10.6-9.2-.8 7.9-1.5 14.7-2.1 21.5-.7.2-1.3.3-2 .5-2.8-4-5.6-8-8.8-12.5-1.4 3.6-2.7 6.9-4.4 11.1-3-6.1 1.1-12.8-2.2-17.6-.6.2-1.1.4-1.7.6 0 6.7-.1 13.3 0 20 .1 6.1-1.8 8.3-7.9 8.3-9.6 0-18.2-2.8-25.3-9.5-.9-.8-1.9-2.3-1.7-3.4.8-6.5 1.8-13 2.8-19.5-.6-.2-1.1-.3-1.7-.5-1.2 4.2-2 8.5-3.6 12.5-1.6 4.3-3.9 8.4-5.8 12.5-1-.1-1.8-.4-2.5-.6z" fill="#fff"/>
  <path d="M108.6 349.8c23.1-9.3 45.7-19.1 70-24-21.7 9.3-43.4 18.6-65 27.8.2.6.4 1.1.6 1.7 2.1-.6 4.4-1.1 6.4-2 16.5-7.2 33-14.6 49.5-21.7 4.5-1.9 9.2-3.3 14-4.3 2.2-.5 5 0 7.1 1.1 4.6 2.4 9.1 5.2 13.4 8.2.9.6 1.5 3.3 1 3.8-7.1 7.5-13.9 15.3-21.8 21.8-3.9 3.2-9.9 3.9-14.9 5.8-5.8 2.2-11.6.9-17.6.2-7-.7-14-.4-20.1 4.7-5.1 4.3-7.7 3.6-14-2.6-2.1-2-3.6-4.5-5.7-6.5-3-2.8-7.3-5.1-2.3-9.9.5-.5-.4-2.6-.6-4.1zm23.4 8.3c.3.7.6 1.5.9 2.2 14.9-4.5 29.8-9.1 44.7-13.6-.2-.6-.4-1.3-.6-1.9-15 4.4-30 8.8-45 13.3zm54-9.6c-14.4 4.1-27.9 7.9-42.4 12 4.8 1.7 39.2-8 42.4-12z" fill="#fff"/>
  <path d="M191.1 371.9c-.6-.6-1.1-1.3-1.7-1.9-1.1-1.1-2.3-2.1-3.4-3.1 1.6-1.1 3.2-3.1 4.9-3.2 4.4-.3 8.9.5 13.4.4 1.5-.1 3.5-1.4 4.4-2.7 3.8-5.3 9.3-8.8 15.1-9.8 4.1-.7 8.9 2.5 13.3 4.2 2.9 1.1 5.6 2.7 9 4.4-3.4 1.1-6.1 1.6-8.3 2.9-1.3.7-2.1 2.6-3 4-1.6 2.3-2.6 5.3-4.7 6.9-3.6 2.7-8 4.2-11.6 6.8-2.3 1.7-4.4 4.3-5.4 7-2 5.3-2.7 6.1-8.3 4.9-2.8-.6-5.7-1.6-8.6-1.5-7.2.2-8 1-10.8 8.4h-11.2c.3-.7.5-1.3 1-2.6-4.6-.6-9.1-1.1-13.6-1.6-.1.2-.2.3-.3.5 1.5.8 3 1.6 4.7 2.4-3.4 1.5-6.5 3.3-9.8 4.2-1.3.3-3.4-.9-4.5-2-6.4-6.5-12.7-13.2-19.1-19.7-.9-.9-2.1-1.5-3.3-2.3 2.1-4.8 6.2-6.4 10.7-6.4 6.9-.1 13.9.7 20.8.8 4.1 0 8.2-.2 12.2-1.1 5.9-1.3 11.8-3.9 17.2 1.9.2-.6.5-1.2.9-1.8zm-6.8 19.6c.1-.6.2-1.3.3-1.9-4.8-.9-9.5-1.8-14.3-2.7-.1.7-.2 1.4-.4 2.2 4.9.8 9.6 1.6 14.4 2.4zm-14.7 3.5c-4.3-4.4-9.7-5.3-12.1-3.3 4.1 1.1 8.1 2.2 12.1 3.3zm25.4-16.3c-.2-.6-.5-1.2-.7-1.8-3 1.9-8-.7-9.6 4.7 3.4-.9 6.8-1.9 10.3-2.9zm-46.5 3.9c0-.7.1-1.5.1-2.2-2.9-.4-5.9-.7-8.8-1.1-.1.8-.2 1.6-.2 2.4 2.9.3 5.9.6 8.9.9zM221.4 414.7v10.5c.7.2 1.9.5 3.5.9-.4 3.8-.9 7.7-1.4 12.1-32.8 4.5-65.8 9-98.8 13.5-.2-.3-.4-.5-.6-.8 1.3-.8 2.6-2 4-2.2 13.6-2.1 27.3-4.2 41-6 8.2-1.1 16.4-1.6 24.7-2.3.1-.6.1-1.1.2-1.7-2.6-.4-5.4-1.5-7.8-1-7.4 1.6-15 1.5-22.6 3.5-11.9 3.1-24.5 3.7-36.8 5.3-.7.1-1.5-.2-2.2-.3-.1-.5-.1-1-.2-1.5 16.6-3 33.1-6.1 49.7-9.1-.1-.7-.2-1.4-.3-2-8.2 1.4-16.4 3.1-24.7 4-8.2.8-16.1 4.2-23.6 3.6 1.2-3.5 1.8-6.2 3.1-8.5.9-1.6 2.7-3.5 4.3-3.7 9.8-1.6 19.6-2.7 29.4-4.2 4.4-.7 8.7-1.8 14-2.9-.5 4-.8 6.6-1 9.2-.5 5.2 4.1 3.7 6.3 4 2 .2 6 .6 5.7-4-.2-3.2 0-6.5 0-10.3 10.7-2.1 22.2-4.1 34.1-6.1zM99.7 426.2c4.2 1.8 8 2.4 6 7.8-.3.9 2.6 3 4.5 5-.7 2.6-2.1 5.8-2.4 9.1-.3 3.3-2.4 4-4.7 4.3-11.3 1.7-22.6 3.1-33.9 4.7-7.7 1.1-15.3 2.5-23 3.9-.6.1-1 1.1-2.2 2.6 21.5-3.6 41.7-7 62-10.4.1.5.2 1 .4 1.6-1.6.5-3.1 1.3-4.7 1.6-10.1 1.6-20.3 2.8-30.4 4.6-5.7 1-11.2 3.1-16.9 4.4-2.7.7-5.6 1.1-8.3 1.2-12.3 0-24.6-.1-36.9-.3-1 0-2.1-.7-3.3-1.2 0-11.1-.1-22.2 0-33.2.1-5.5 1.7-6.9 7.2-7 3 0 6 0 8.9.2.4 0 .8.5 1.9 1.3-1.8 1-3.2 1.8-4.6 2.4-1.3.6-3.1.5-4.1 1.4-2.3 2.3-5.3 4.6-6.1 7.5-1.1 3.8 2.9 5.8 5.9 6.7 6.2 1.7 12.3 5.5 19.2 2.3 3.4-1.6 6.2-.1 8.8 2.1.2.2.2.6.3.8l-9.6 2.7c.1.6.3 1.2.4 1.8 6.5-1.3 12.9-2.5 19.4-3.8.1.6.2 1.3.3 1.9l-14.1 3c.1.5.2 1.1.2 1.6 7-1.3 14-2.6 21-4 .1.5.2 1 .3 1.4-8 1.7-16.1 3.4-24.1 5.1l.3 1.5c22.4-3.9 44.8-7.8 67.3-11.6v-1.1c-3.6.2-7.2.3-10.3.5 1.9-7.3 3.6-14.5 5.3-22.4zM293.5 403.9c1.5 2.5 3 4.1 3.1 5.7.2 1.5-1.2 3.1-1.9 4.6-1.5-.7-2.9-1.4-4.3-2.1-.7-.4-1.4-.9-2-1.4-.3.8-.7 1.6-.9 2.5-.3 1.4-.5 2.7-.8 4.1-1.3-1-2.7-1.8-3.8-3-.9-1-1.4-2.5-2.1-3.7-.5 0-.9 0-1.4.1-.1 2.2-.2 4.4-.3 6.5-.5.2-1 .4-1.4.6-1.4-3.4-2.8-6.7-4.2-10.1-.4.1-.8.2-1.2.2-.5 2.4-.9 4.8-1.4 7.2-.7-.1-1.3-.1-2-.2.2-4.2.1-8.5.8-12.6 1-5.2 2.9-10.3 4-15.5.9-4 1.1-8.2 1.7-12.3.2-1.5.7-3.1 1.2-5 7.7 8.4 17.6 8.3 27.3 8.8 1 0 2 .4 3 .5-.2 1-.2 2.2-.7 3.1-4.2 7.6-8.6 15.1-12.7 22z" fill="#fff"/>
  <path d="M298.1 402.1c2.8-5 5.4-9.7 8.2-14.3.3-.4 2.4-.3 3.1.3 1.2 1.1 2 2.8 3.8 5.3 1.6-5.4 2.8-9.7 4-14 .5-1.6.8-3.2 1.4-4.7 1-2.5 2.4-2.9 4.4-.8 3.7 4.1 7.4 8.2 12.4 13.7 1.4-8.5 2.5-15.8 3.7-23 .5-.1 1.1-.2 1.6-.4.8 1.7 2.4 3.3 2.4 5 .3 9.1.2 18.2.1 27.3 0 1.7-.8 3.5-1.1 5-14.6 5.2-28.9 4.1-44 .6zM220.9 440.7h2.7v5.1c-29.9 5.3-59.9 10.7-89.8 16 .1.6.2 1.3.3 1.9 29.7-5.1 59.3-10.2 89-15.3.1.8.2 1.5.4 2.3-32.3 4.3-63.6 13.9-97.2 15.7-.8-4.2-1.5-8.2-2.2-11.7 23.1-3.6 45.5-7.1 67.9-10.5.1.4.2.9.2 1.3-20.6 3.6-41.3 7.2-61.9 10.9 0 .5.1 1.1.1 1.6.8.2 1.7.7 2.5.5 13.1-2.6 26.1-5.4 39.2-7.8 8.1-1.5 16.4-2.2 24.6-3.3 6.7-.9 13.5-1.8 20.2-3 1.1-.2 1.9-1.7 4-3.7zM316.5 440.4c-.4 6.4-1 12.1-1.1 17.7-.1 2.6-.8 4.2-3.5 3.9-7.3-.8-14.5-1.7-21.8-2.7-2.7-.4-5.4-1.1-7.9-2.1-1.1-.4-2.6-2-2.5-2.9.4-4.2 1.2-8.3 2.2-12.4.2-.7 1.8-1.5 2.8-1.5h31.8zM111.9 419.1c-5.6-2.7-9.8-5.1-14.3-6.7-9-3.3-9.9-11.9-13-19-1.4-3.2-1.7-6.9-1.9-10.4-.1-.7 2.7-2.7 3.4-2.3 8.3 3.6 16.4 7.5 24.5 11.6.9.4 1.3 2.3 1.4 3.6.3 5.1.4 10.2.5 15.3-.1 2.4-.4 5-.6 7.9zM86 405.9c-7.3-3.4-13.5-6.2-19.5-9.1-4.4-2.1-8.8-4.3-13.1-6.6-.8-.4-1.3-1.7-1.6-2.6-.3-1.1-.1-2.3-.1-3.5 0-7.4 2.1-10.6 8.9-13.4.4-.2 1-.5 1.3-.4 5.6 2.1 11.2 4.2 16.7 6.5.9.4 2 2.4 1.7 3.2-2.7 8 2 14.1 4.6 20.8.5 1.6.7 3.2 1.1 5.1zM72.7 362.8s-.5.6-.8.5c-6.8-1.5-10.7 2.5-15.1 6.8-3.8 3.6-9.1 5.7-13.8 8.3-2.7 1.5-4.7.7-5.8-2.2-.5-1.2-1.2-2.4-1.7-3.6-2.5-5.7.7-10.4 7.1-10.4 1.7 0 3.4-.7 5.6-1.1-1.5-2.7-2.9-4.3-3.3-6.1-.6-2.4-1.5-5.9-.4-7.3 1.7-2 4.3-4.2 8.2-2.6 4.9 2.1 9.4 4.2 12.4 9 2 3.2 5 5.8 7.6 8.7z" fill="#fff"/>
  <path d="M241.3 405.1c-1.9 1.7-3.5 4.5-5.6 4.9-6.5 1.1-13.1 1-19.7 1.9-7.1 1-14 2.7-21.1 3.9-7.2 1.2-14.4 2.1-21.5 3.3-6.1 1-12.2 2.1-18.3 3.2-10 1.8-20 4.1-30.1 5.2-9.1 1-17.9-.8-25.7-5.9-1.8-1.2-3.1-3.2-4.1-5.9 1.6.3 3.5.1 4.6 1 10.5 8.1 22.3 6.7 34.2 4.7 9.6-1.6 19.2-3.2 28.8-4.7 12.1-2 24.2-3.8 36.2-6 11.7-2.1 23.4-4.7 35.1-6.9 2.1-.4 4.2-.1 6.4-.1.2.5.5.9.8 1.4zM72 423.1c2.9-.3 4.9-.6 6.9-.8 0 .3.1.7.1 1l-5.1 1.2v1c1.1.3 2.4 1.1 3.4.9 4.7-1 9.3-2.3 13.9-3.5 2.6-.6 5 .1 5 2.9 0 3.2-.9 6.5-1.4 9.4-5.6 0-10.6-2.8-14.5 2.4 4 5.2 8.8 3.6 13.6 1.9-.1 7.3-7.9 11.1-19 9.7-.9-8.6-1.9-17.2-2.9-26.1zM80.2 312.5c-5.2-1.5-6-3.9-3.9-7.7.6-1.1.8-2.4.9-3.7 1-9.4 2.6-18.6 6.5-27.5 2.4-5.5 2.4-12.1 3.1-18.2.4-3.2-.7-7.6 3.3-8.3 2.4-.5 5.4 2.2 8 3.4-.5 1.4-.5 1.7-.6 1.7-5.6-.1-5.7 3.8-6.3 7.9-1.1 7.1-2.6 14-4.1 21-1.3 6-3.2 11.8-4.5 17.8-.9 4.4-1.5 8.9-2.4 13.6zM343.1 435c0 6.4.1 12.2-.1 18 0 .9-1.8 2.5-2.6 2.5-5-.3-10.1-.8-15-1.9-1.3-.3-2.8-2.6-3-4.2-.7-5.5 2.3-9.1 7.7-10.6 4.1-1.1 8.3-2.4 13-3.8zM263.5 312.9l-.2.2c8.2-5.8 16.3-11.8 24.6-17.3 5.8-3.8 11.9-7 18-10.4.7-.4 1.9.1 3.6.2-16.9 13.7-33.2 26.9-49.4 40.1.9-3.9-1.2-9.1 3.4-12.8zM171.5 262.6c5.1 14.3 10 28.7 15.3 43 1.6 4.2 4.5 7.9 6.5 11.9.9 1.9 1.3 4.1 1.4 6.1 0 .4-2.7 1.8-3.4 1.3-1.9-1.1-4.2-2.7-4.8-4.6-5.7-18.2-11-36.6-16.4-54.9-.2-.8-.1-1.8-.1-2.7.5.1 1 0 1.5-.1zM121 466c-1.4-.2-2.3-.5-3.2-.5-9.9.2-10 .2-8.4-9.5.8-5.1 2.1-10.1 3-14.7 3-.1 5.7-.3 8.6-.4V466zM222.9 453c1 2.9 1.7 4.7 2.5 7.1-14.4 2-29 4.1-43.6 6.2-.1-.5-.1-1-.2-1.5 13-2.2 26-4.5 39.3-6.8-3.5-2.2-11.9-1.2-21.1 1.3-7 1.9-14.4 3-21.6 4.1-7.2 1.1-14.5 1.9-21.7 2.9-.1-.6-.2-1.1-.3-1.7 22.3-3.8 44.5-7.7 66.7-11.6zM68.9 429.6c.9 4.3 1.8 8.5 2.5 12.8.5 2.5.5 4.5-3 5.5-6 1.6-9.8-1.1-8.7-7.2 1.1-6.3 2.4-12.6 4-18.9.3-1.2 2.3-2 3.5-3 .8 1.4 2 2.7 2.3 4.2.4 2.1.1 4.3.1 6.4-.2.1-.5.1-.7.2zM226.9 429.2c6.7-1.6 6.6-1.6 7.3 5.3.6 5.5 1.7 11 2.3 16.5.2 1.8 0 4.9-.8 5.2-2.3.9-5.3 1.3-7.6.6-1.2-.3-2.1-3.5-2.1-5.4 0-7.3.5-14.6.9-22.2zM91.5 416.7c-8.3-3.5-16.7-6.9-25-10.5-4.6-1.9-9.1-3.9-13.5-6.2-1.1-.6-1.4-2.6-2.1-3.9 1.5-.4 3.3-1.6 4.4-1.2 3.9 1.5 7.6 3.7 11.4 5.5 6.8 3.2 13.7 6.2 20.3 9.7 2.3 1.2 3.9 3.6 5.9 5.4-.6.4-1 .8-1.4 1.2zM205 464.5c5.3-.4 10.6-.5 15.9-1.1 10.9-1.4 21.8-3 32.7-4.5 5.3-.8 10.6-1.6 16-2.4 4.2-.6 7 .9 7.7 5.5-.6.2-1.2.6-1.4.4-7.8-6.3-15.9-.8-23.8-.6-2.7.1-5.4 1-8.1 1.3-4.4.5-8.8 1-13.3 1.4-5.8.5-11.5.9-17.3 1.3-2.8.2-5.6.3-8.4.4.1-.7 0-1.2 0-1.7zM111.5 383.7c-.2 1.7-.4 3.2-.7 5.5-7.7-3.6-14.7-6.8-21.6-10.3-1.1-.5-1.5-2.4-2.2-3.7 1.3-.1 2.8-.7 3.9-.3 6.7 2.7 13.3 5.7 20.6 8.8zM322.6 457.4c3.4.3 6.8.8 10.2.9 3.1.2 6.2 0 10.2 0 0 1.8.7 4.2-.2 5.7-.6 1.1-3.3 1.3-5.1 1.2-2.7-.1-5.5-.3-8-1.2-1.5-.5-2.4-2.5-3.8-3.6-1-.8-2.3-1.3-3.4-2 0-.3.1-.6.1-1zM38.5 432.7c3.7 1.4 7.6.4 7.3 5.4-.3 5.1-5 4.3-7.6 4.2-2.1-.1-4-3.3-6-5.1l6.3-4.5zM118.3 245.4c7.7 6.3 15.6-1.7 23.7.4-5.4 7.7-19.6 7.5-23.7-.4zM113.2 389.3c.5-10.8 10.3-3.4 13.1-9.1 1.6 2.2 2.8 3.8 4.9 6.6-6.4.9-11.8 1.7-18 2.5zM75.2 271.7c-1.5 3.4-2.8 6.2-3.9 9s-1.9 5.6-3.3 8.3c-1.3-6.7.5-12.9 4-18.4 2.3-3.7 5.6-1.2 8.2.1.8.4.6 2.9.9 4.4-.5.1-.9.3-1.4.4-1.5-1.2-2.9-2.5-4.5-3.8zM273.5 372.7c-1.8 8.6-3.4 16.3-5.1 24.9-4.3-6.8-1.5-20.1 5.1-24.9zM107.7 374.3c5.8-2.6 10.9-1.3 14.9 3.4-8.2 3.7-13.5 5.6-14.9-3.4zM65.2 365.4c5.6 1.5 11.3 2.9 16.8 4.7 1 .3 1.4 2.4 2.1 3.6-1.4.1-3 .8-4.2.3-5.2-1.9-10.3-4.1-15.4-6.3.3-.7.5-1.5.7-2.3zM65.4 334.1c.6-1.7 1.1-3 1.6-4.4 3.6.7 7.3 1 10.7 2.2 1 .3 1.4 2.9 1.6 4.5 0 .4-2 1.6-2.8 1.4-3.7-1-7.1-2.4-11.1-3.7z" fill="#fff"/>
  <path d="M69.5 300.9c1.3-6.1 2.5-12.3 3.8-18.4.3-1.4.9-2.8 1.8-4 .4-.5 1.7-.4 2.5-.5.1.7.5 1.6.3 2.2-1.8 6.3-3.7 12.6-5.6 18.9-.3.9-.8 1.6-1.2 2.5-.5-.2-1.1-.4-1.6-.7zM106.1 460.9c-.6 3.2-.7 5.2-4.8 4.9-5.6-.5-11.3.3-17 .5-.4 0-.9-.7-1.6-1.4 7.8-1.3 15.2-2.6 23.4-4zM74.7 257.8c3 1.4 4.7 1.8 5.8 2.8 1.4 1.2 2.6 2.8 3.5 4.5.2.4-1.5 2.4-1.8 2.3-2.1-.9-4.4-1.8-6-3.3-1-1.1-.8-3.2-1.5-6.3zM109.7 244.2c-3.1 2-3.1 2-9.7-6 2.4-4.7 4.7-3.4 9.7 6zM226.8 415.1c2-.2 5.1-1 5.4-.4 1.2 2.2 1.3 4.8 2 7.7h-6.1c-.3-2.1-.7-4.2-1.3-7.3zM80.2 347.3c-4.7 1.7-9-1.5-13.4-2.2-.6-.1-.9-2.1-1.5-3.5l15.2 3.8c-.1.6-.2 1.2-.3 1.9zM297.7 466.3c-4.5 0-9 .2-13.4-.1-1.2-.1-2.4-1.4-3.5-2.3-.2-.2.2-1.6.3-1.6 1.3 0 2.6.1 3.9.3 3.2.5 6.3 1.1 9.5 1.8 1.1.2 2.2.5 3.4.8 0 .3-.1.7-.2 1.1zM79.9 354c-11.9 1.2-12.5 1.8-14.1-4.7 5 1.2 9.7 2.3 14.5 3.4-.2.5-.3.9-.4 1.3zM100.6 248.7c-2.4-1.7-5-3.3-7.1-5.3-.6-.5-.3-2.4.2-3.4.2-.4 2.4-.6 2.8-.2 2.1 2.3 4 4.9 5.9 7.4l-1.8 1.5zM139.2 241c2.6-3.3 4.9-4.9 7-1.7 1.1 1.5.9 3.9 1.3 5.9-2.6-1.4-5.3-2.7-8.3-4.2zM122.5 435c-1 .3-1.9.9-2.9.9-1.1.1-2.1-.2-3.2-.4.2-1.3.4-3.6.7-3.6 2.8-.3 5.7-.2 8.5-.1.3 0 .9 1.8.6 2-.9.9-2.1 1.5-3.2 2.1-.2-.2-.4-.6-.5-.9zM84.1 460.8c-3 1.8-5.8 4.5-9 5.2-3.7.8-7.9-.2-11.9-1.2 7-1.3 13.9-2.6 20.9-4zM123.3 314.6c-2.4 3.1-7.8 2-11.9-2.3-.7-.8.2-3.2 1.2-5 2.3 4.5 4.5 8.5 10.7 7.3zM236.7 370.7c.9-5.2 4.7-4.6 7.6-5.3.5-.1 2.1 1.3 2 2 0 .8-1.1 2.1-2 2.3-2.3.6-4.9.7-7.6 1zM80 317.1c-2 .7-10.9-2-11.4-3.4-.2-.7 0-1.9.5-2.2.6-.4 1.8-.5 2.4-.1 2.8 1.7 5.5 3.7 8.5 5.7zM150.8 231.2c.2 1.7.3 3.5.7 5.2.5 2.2 1.2 4.4 1 6.8-2.8-3.7-6.3-7-4.5-12.3l-.2.1c1 .1 2 .2 3 .2.1.1 0 0 0 0zM84.1 460.8c6.9-1.1 13.7-2.2 20.6-3.3l.3.9c-1.5.6-3 1.4-4.6 1.7-4.6.9-9.2 1.6-13.9 2.2-.8.1-1.6-1-2.4-1.5zM79 325.7c-3.6-.9-7.3-1.7-10.9-2.8-.5-.1-.4-1.9-.7-3.4 4.4 1.5 8.2 2.9 12 4.2-.1.7-.3 1.4-.4 2zM140.1 198.8c6.8-1.1 7.7 0 6.3 7.8-2.3-3-4-5-6.3-7.8z" fill="#fff"/>
  <path d="M254.9 246.3c3.5-1 7.7-1 9.2-3 1.8-2.4 2-6.6 1.7-9.9-.4-4.2-4.3-7-7.7-6.9-2.9 0-5.7 3.4-8.6 5.4 1-3.4 2.6-6.6 6.8-8.5 4.5-2 7.1 1.3 9.3 3.7 4.2 4.5 4.4 12.3 1.2 17.6-2.7 4.5-7.9 5.4-11.9 1.6zM9.4 410.2c6.5-1.2 13-2.3 19.5-3.5l.3 1.5c-6.5 1.5-12.9 3-19.4 4.5-.1-.8-.3-1.6-.4-2.5zM57 132l-12.9 8.4c-.3-.4-.7-.9-1-1.3 4.1-3 8.3-6.1 12.4-9.1.5.6 1 1.3 1.5 2zM37.8 186.7c1.6.1 2.6.1 2.9.1 3.2-4.4 6.2-8.6 9.2-12.7.3.1.7.3 1 .4-1.7 3.9-2.9 8.2-5.2 11.7-3 4.5-4.8 8.9-2.9 14.5-4.3-3.6-3-9.2-5-14zM115.9 198.1c-1.6-.1-3.2-.2-4.9-.4-.2-.5-.4-.9-.6-1.4 1.1-.5 2.3-1.6 3.2-1.4 2.3.5 5.6 1.1 6.3 2.6 1.6 3.5-1.4 7.7-5.3 8.4-1.1.2-2.5-.6-3.7-1.2-.3-.1 0-1.3 0-2 .9.2 2.1.8 2.6.4 1.4-1.1 2.6-2.6 3.8-3.9-.5-.2-1-.6-1.4-1.1zM96 204.2c-1.1-2-2.5-3.5-2.2-4.1.8-1.5 2.4-2.7 3.7-4 .9 1.2 2.7 2.6 2.5 3.6-.3 1.4-2.1 2.5-4 4.5zM128.3 195.4c-.3 1.9-.4 3.9-1.2 5.5-.2.5-2.7-.1-4.2-.3.9-2 1.8-4 2.6-6 1 .4 1.9.6 2.8.8zM51.4 179.3c1.9-3.7 3.8-7.4 5.8-11.1.6.3 1.2.7 1.8 1-2.1 3.6-4.1 7.3-6.2 10.9-.4-.3-.9-.6-1.4-.8zM134.2 298.7c.6-7.7-4.5-5.5-8.3-5.5 3.3-5.1 8.5-4.6 12.1-3.3 3.4 1.2 5.7 5.4 8.1 8.9 2.8.4 6.1-5.4 9.3.7-.4 6.6-3.5 11-11.3 10.6-1-3.6-1.1-3.6-6 .1-4-4.3-3.9-6 .5-10.2 1.1-1 1.9-2.6 2.1-4.1.1-1-1-2.1-1.6-3.2-.5.9-.8 1.8-1.5 2.6-.9 1.2-2.2 2.2-3.4 3.4zM150.5 289c1.4 1.3 2.4 2.3 3.6 3.3-5 4.1-6.4-1.1-9.2-2.6 4.6-4.2 7.6-4.7 11.4-1.1-2.2.2-3.6.3-5.8.4zM132 358.1c15-4.4 30-8.9 45-13.3.2.6.4 1.3.6 1.9-14.9 4.5-29.8 9.1-44.7 13.6-.3-.8-.6-1.5-.9-2.2zM186 348.5c-3.2 4-37.6 13.7-42.4 12 14.5-4.1 28-7.9 42.4-12zM184.3 391.5c-4.8-.8-9.6-1.6-14.3-2.4.1-.7.2-1.4.4-2.2 4.8.9 9.5 1.8 14.3 2.7-.2.7-.3 1.3-.4 1.9zM169.6 395c-4-1.1-8-2.2-12.1-3.3 2.3-2 7.8-1.1 12.1 3.3zM195 378.7c-3.5 1-6.9 1.9-10.4 2.9 1.6-5.4 6.6-2.8 9.6-4.7.3.6.6 1.2.8 1.8zM148.5 382.6l-9-.9c.1-.8.2-1.6.2-2.4 2.9.4 5.9.7 8.8 1.1.1.7 0 1.4 0 2.2z"/>
  <text transform="translate(50.096 41.35)"><tspan x="0" y="0" font-family="Peanuts" font-size="28">A NEW BEETHOVEN</tspan><tspan x="0" y="33.6" font-family="Peanuts" font-size="28">SWEAT SHIRT...</tspan></text>
</svg>
