<svg xmlns="http://www.w3.org/2000/svg" viewBox="0 0 589.5 473.4" xml:space="preserve">
  <path fill="#fff" d="M0 0h588.6v473.4H0z"/>
  <path d="M429.5 473h-19c-1-.3-2-1-3-1-19.7-.1-39.5.1-59.2-.1-9.1-.1-18.3-.9-27.4-.9-14.2.1-28.3.8-42.5 1-29.4.2-58.8.2-88.2.4-1.6 0-3.3.4-4.9.6-60.4 0-120.8 0-181.2-.1-1.3 0-4.3 2-4-1.9.3-1 1-2 1-3 .1-12.6 0-25.3.2-37.9.1-9.5.7-19.1.7-28.6 0-7.1-.9-14.2-.9-21.4.1-13.9.7-27.7.8-41.6 0-6.4-.8-12.9-.8-19.3 0-7.1.6-14.3.6-21.4.1-15.7 0-31.3-.1-47-.1-37.1-.3-74.3-.5-111.4 0-1.5-.7-3-1-4.5v-73c.3-1.7 1-3.3 1-5 .1-16.7.1-33.4 0-50.2 0-3.7 1.1-5 4.9-4.9 11.4.4 22.9.8 34.3.8 13.9.1 28-.6 42-.6 9.7 0 19.3.8 29 .8 18.1.1 36.2 0 54.3-.1l113.8-.6c22.2-.1 44.5-.1 66.7-.1h36.4c6.2 0 12.4.1 18.6.1 2.2 0 4.4-.4 6.6-.4 17 0 33.9.2 50.9.1 8.2 0 16.3-.6 24.5-.6 12.2 0 24.4.6 36.6.6 21.8-.1 43.7-.4 65.5-.8 2.7 0 3.6 1 3.4 3.5-.3 4.1-.7 8.2-.7 12.3-.1 13.5-.2 26.9-.1 40.4.2 24.4.8 48.7.8 73.1 0 23.5-.6 46.9-.7 70.4 0 13.3.7 26.7.7 40 .1 74.5.1 149 .1 223.4v6.2c-5.5.4-10.6 1-15.7 1-13.5.2-27 .2-40.5.3-11.3.1-22.6.1-34 .1-21.3.1-42.7.1-64 .2-1.7.1-3.4.7-5 1.1zm-293.1-12.8.1.1c-.9-.6-1.8-1.8-2.8-1.8-8.2 0-16.3.2-24.5.2-3.4 0-6.9-.8-10.3-.8-4 0-8 .5-11.9.9-1.5.2-3.6.5-4.2 1.5-2.2 3.8-5.5 3.5-9.1 3.5-2.5 0-5.1.9-7.6 1.2-.6.1-1.4-.8-2.9-1.8 3.1-.3 5-.5 6.9-.7-3.2-.5-6.4-.9-9.5-.4-13.3 2-26.5 1.3-39.6-.9-.7-.1-1.3-.9-1.9-1.3-1.2-.9-2.4-1.7-3.8-2.7.9-.4 2.1-.9 3.4-1.5 0-.3-.1-.6-.1-1H9.1v-2.2c10.9-.8 21.8-1.7 32.7-2.5.1.5.2 1.1.3 1.6L28 454c0 .4.1.7.1 1.1 7.6-.5 15.2-1.1 23.1-1.6-9.4-11.6-2.9-23.1-2.1-34.3-1-1.9-2.2-4.1-1.9-6 1.1-7.4 1.6-15.1 4.1-22.1 3.4-9.3 7.6-18.4 12.8-26.7 4.6-7.3 10.9-13.5 16.6-20 4.4-4.9 7.3-11.8 15.2-12.5.4 0 .9-1 1.1-1.6.7-2.3 1.6-4.7 1.9-7.1 1-9.4-5.8-16.1-8.9-24.1-3.8-10-9.4-19.2-13.9-29-1.1-2.4-1.6-5.6-1-8.2 2.1-8.4 4.5-16.8 7.3-25.1 3.1-9 8-16.9 15.8-22.7.9-.7 1.7-1.8 2.1-2.9 1-2.4 1.7-4.9 2.7-7.6 1.6.8 2.7 1.3 3.7 1.8 5.7-11 11.8-18.1 16.3-19.1-2.5 2.8-5 5.6-7.6 8.4 3.6-1.2 6.5-2.8 9-4.8 10.7-8.8 22.6-6.6 34-2.7 6.9 2.3 12.9 7.2 19.6 10.2 5.1 2.3 9.4 5 11.8 10 2.8 6 5.1 12.3 7.9 18.4 2.1 4.5 5.2 8.7 6.7 13.4 2.3 7.4 6.9 12.6 13 17 10.3 7.3 13.5 17.8 12.3 29.7-.6 5.6-2.4 11.4-9 12.8-3.6.8-7.5 1.1-11.1.6-7.3-1-14.9 3.2-17.2 10.3.7.6 1.4 1.3 2.1 1.9 6.3 4.9 6 8.8-.8 13-1.4.9-2.3 3.2-2.7 5-.7 3.9-2.8 5.4-6.1 3.2-5.7-3.8-11.1-8-16.7-11.8-3.9-2.7-7.5-6.5-13.8-4.8 2.2 8.2 6.3 15.1 12.9 19.9 2.9 2.1 3.5 4.2.5 5.4-4.4 1.8-9.3 2.6-14.1 3.4-6.3 1-12.7 1.2-19 2.3-1.5.3-2.5 2.7-3.8 4.2 1.5 1 2.9 2.4 4.6 3 3.5 1.3 7.5 1.7 10.8 3.4 8.6 4.3 17.6 2.6 26.5 2.5 2.3 0 4.6-2.3 7-3.3 5.9-2.6 11.7-5.3 17.8-7.4 1.5-.5 4.2.5 5.4 1.7 1.3 1.3 2.2 3.8 2 5.6-.2 1.3-2.5 2.4-4 3.4-.7.4-1.8.3-3.4.5 2.7 3.7 4.8 7 7.3 10 4.5 5.2 4.6 5.9-.6 10.1 1.9 8.1 1.2 8.7-7.4 7.8-.8-.1-2.1 1.2-2.6 2.1-.2.4 1.1 2.3 1.7 2.3 7.2.2 14.4.3 21.6.1 1.2 0 3-1 3.5-2.1 2.5-5.2 6-8.5 12.2-8.1 1.3.1 2.6-1 4-1.6-.2-3.2-.5-6.1-.8-9.7 3.2-.5 6.3-1.4 9.5-1.4 11.8 0 23.6.5 35.4.3 1.9 0 3.9-2.1 5.7-3.5 2.7-2.2 5-5.5 8-6.7 4.5-1.8 9.5-2.2 14.3-2.9 10-1.6 20.1-3 30.1-4.4 2.5-.3 5-.4 8.6-.7-5.7-5.4-2.3-9.5 1.4-13.9-7.5-4-14.9-3.6-22.1-1.3-11.2 3.5-22.4 4.1-33.6.8-1.7-.5-3.1-2.1-4.7-3.1 1-1.5 1.9-3.2 3.1-4.4 1.4-1.3 3.3-2.1 4.8-3.4 1.1-1 1.9-2.4 2.9-3.6-1.6-.6-3.5-2-4.9-1.7-6 1.6-11.8 3.7-17.7 5.7-6.7 2.2-9.6 1.1-12.1-4.4-1.1-2.5-2.5-5-3.7-7.4-11.2 2.3-11.2 2.3-14.4-6.7-1.9-5.4 2.5-7.5 5.3-10.5 1.4-1.6 3.6-3.7 3.4-5.4-.4-5.1-1.8-10.2-2.9-15.6-1 .9-1.8 1.6-3.1 2.8 1.8-6.1 3.5-11.6 5-16.5 1.6 4.2 3.4 8.9 5.4 14-.5.2-1.8.6-3.8 1.1.4 3.1.5 6.2 1.1 9.3.9 4.8 1.7 9.3-3.7 12.2-1.1.6-2.3 1.8-2.5 2.9-.5 2.6-.9 5.4-.2 7.8.4 1.1 3.4 2 5.2 2 2.1 0 4.3-1 6.2-1.5 2.8 4.9 5.5 9.8 8.3 14.8 8.4-2.7 16.1-5.1 23.9-7.6 3.8-1.2 7.3-.1 8.9 3.3 1.6 3.5-1.9 5.2-4.2 6.9-2.1 1.6-4.3 3-6.4 4.4.2.5.4 1 .6 1.4 3.1.1 6.2 0 9.2.5 8.5 1.2 16.7.7 25-1.9 6.3-2 13.2-3.5 19.8 0 4.9 2.6 9.8 5.1 15 7.7 3.5-8.8 6.9-17.5 10.4-26.1 2.6-6.6 4.1-13.3 2.9-20.4-.3-1.8 0-3.8.5-5.6 3.6-12.3 7.8-24.3 6.5-37.8-1.2-12.6-3.9-24.3-12.5-33.9-5.4-6-11.5-11.3-17.4-16.9-.3-.3-.9-.2-1.4-.3-2.1-.5-4.4-.7-6.3-1.6-14.7-7-29.5-7.6-44.8-2-7.6 2.8-14.4 6.7-20.7 11.8-14.2 11.6-24.6 25.2-25.9 44.2-.3 4.5-2.1 5.5-6.3 3.6-1.8-.8-3.7-1.6-5.6-2-1.4-.3-3.7-.5-4.3.3-.9 1.2-1.1 3.4-.7 4.9.9 3.3 2.6 6.4 3.7 9.7.4 1.1.2 2.4.3 3.7-.5.1-1 .2-1.4.3-1.7-4.8-3.7-9.4-5-14.3-.5-2-.1-4.8.9-6.6 2.1-3.6 5.6-3.8 9.7-.9 4.4 3 5.5 2.7 6.2-2.3 1.8-12.2 7.3-22.9 15.1-32 7.7-9 16.6-16.9 27.8-21.8 14.8-6.5 29.7-10.3 45.4-3 1.6.8 3.4 1.2 5.8 2.1-1.1-2.1-1.7-3.3-2.9-5.7 2.4 1.3 3.5 1.9 4.6 2.5.4-1.3.6-2.4 1.3-4.7 1.8 3.4 2.9 5.6 4.6 8.9.4-2 .5-2.5.6-3.1.1-.6.1-1.2.2-1.8 1.5 1.7 2.1 3.5 2.3 5.3.4 3.8 1.8 6.8 5.1 8.8 7.1 4.5 12.3 10.9 16.8 17.8 9 13.9 8.8 29.4 6.8 44.8-1.1 8-4.2 15.7-6.3 23.5-.4 1.4-.4 4.3.1 4.4 4.4 1.4 6 6 9.4 7.9 12.9 7 25.8 14.3 39.4 19.7 9.6 3.9 20.4 4.4 30.4 7.5 7.6 2.3 17 2.8 19.4 13.1.2.8 1.7 1.4 2.7 2 3.1 1.9 6.6 3.4 9.2 5.7 6.4 5.8 14.2 10.7 14.4 20.9 0 1.1 1.3 2.3 2.2 3.1 4.2 3.6 8.1 7.1 7.5 13.5-.5 5.5.3 11.1-.2 16.6-1 11.9-3.1 23.6-9.6 34-2.1 3.3-4.4 6.5-6.7 9.7H510c4.5 0 9-.1 13.5-.1H535c0 .6 0 1.3-.1 1.9-16.6 1.1-33.5-.5-49.9 2.9 0 .5.1 1 .1 1.5 25.1-.7 50.3-1.4 75.4-2.2.1.7.1 1.3.2 2-1.2.2-2.3.7-3.5.7-3.1 0-6.2-.3-9.3-.2-26.1 1.1-52.3 2.2-78.4 3.3-13.2.5-26.5 1-39.7 1.4-3.3.1-6.7 0-10.1 0V458h11.1c-12.8-6.5-26.3-4-39.6-3.4v-1.9c7-.5 13.9-1 21.4-1.6-2.7-3.5-4.9-6.2-9.4-4.6-1.5.5-3.3.3-5 0-7-.9-11.9-6.4-7.7-13 .6-1-.1-2.7-.1-4.1 0-1.9-.6-4.3.3-5.6 3.6-5.2 7.9-9.9 11.6-15 1.2-1.7 2.7-4.9 1.9-6.2-1.5-2.6-4.5-4.3-7.3-6.9-1.4 5.8-4 9.6-9.2 10.5-2.6.5-5.5-.3-8 .5-4.1 1.4-8.9 2.4-9.7 8-.9 6.3-2.2 12.5-2.7 18.8-.4 6.5 1.5 7.6 8.5 6.3 3.1-.6 6.3-.3 9.5-.2.7 0 1.4 1 3.3 2.5h-26.5v-30.6c-1.2-.3-3.5-.6-5.7-1.4-10.3-3.5-19-.6-27.4 5.5-4 2.9-8.6 5.6-13.3 6.7-6.8 1.6-13.9 1.9-20.8 2.2-9.6.3-19.2.1-28.9.1-13.3.1-26.6.1-39.8.4-2.7.1-5.6.8-7.9 2.1-7.3 4.1-6.3 11.5-7.5 18.7 5.9-.4 10.9-.6 16-1 10.9-.7 21.8-1.7 32.7-2.2 10.9-.6 21.8-.7 32.7-1.1 7.6-.3 15.2-.7 22.9-1 4.4-.1 8.7.1 13.1-.1 7.3-.2 14.6-.7 21.9-1 1 0 2 .3 4.4.7-2 1.2-2.9 2.1-3.8 2.2-3 .2-6.1 0-9.1.1-12.4.3-24.9.6-37.3 1.1-13.3.5-26.7 1.4-40 2-10.9.5-21.9.6-32.9 1.2-7 .4-14 1.4-21 2.1-.1.5-.1 1.1-.2 1.6 1.3.4 2.6 1.2 4 1.3 2.2.1 4.4-.1 6.7-.2 13.4-.9 26.9-1.9 40.3-2.8 6.8-.5 13.6-.8 20.4-1.1 12-.7 23.9-1.4 35.9-2 8-.4 16.1-.7 24.1-1 5.4-.2 10.7-.5 16.1-.8 0 .5.1 1 .1 1.5-10.1.6-20.2 1.2-30.3 1.7 0 .6.1 1.3.1 1.9 21.8-.8 43.7-1.6 65.5-2.4v1.8c-9.8.4-19.6.8-29.3 1.2-17.3.7-34.7 1.2-52 2.1-10.7.6-21.4 1.8-32.1 2.6-8.5.6-17 .9-25.5 1.5-7.1.5-14.1 1.4-21.2 1.9-6.5.5-13.1.9-19.6 1.4-.8.1-1.5 1.2-2.2 1.8.2.5.3 1.1.5 1.6 7.6-.9 15.2-2.1 22.9-2.6 17.7-1.2 35.3-2.2 53-3.2 4.2-.2 8.4.1 12.6-.2 6.4-.5 12.8-1.6 19.1-1.8 19.2-.5 38.3-.6 57.5-.9 2.3 0 6-.8 6.5.1 2.9 5.2 7.4 2.3 10.9 2.5 8.3.5 16.7.2 25 .2-10.4 1.2-20.9 1.1-31.2 2.1-14.1 1.4-28.4 2.1-30.7.2 5.8-.6 11.4-1.1 16.9-1.7-2.4-.7-4.8-1-7.1-1-13.1.3-26.2.7-39.4 1.1-11.8.4-23.6.6-35.3 1.2-6.9.4-13.8 1.5-20.7 2-14.2 1-28.5 2-42.7 2.7-6.2.3-12.5-.2-18.8-.1-.7 0-1.3 1-2 1.2-1.6.6-3.7 1.7-4.9 1.1-1.2-.6-2-2.9-2-4.5-.2-5.4-.1-10.9-.1-16.4h-19.5c0-.4-.1-.8-.1-1.2 6.4-.3 12.7-.6 19.1-1 .5-2.8 1.2-5.5 1.3-8.3.1-1.6-.4-4.2-1.5-4.8-4.6-2.6-9.6-4.6-15.1-3.3-1.6.4-3.7 1.7-4.2 3-1.9 5.7-3.3 11.6-5.1 18.4h20.5v1.5c-6.5 0-13-.1-19.5.1-1 0-2 1.1-3 1.6.9.5 1.9 1.4 2.8 1.4 5.6.1 11.1-.1 16.7-.1 5.5 0 5.5 0 4.6 5.1-3.9.5-7.6 1-11.4 1.5 0 .4.1.7.1 1.1 2.9-.2 5.8-.5 8.7-.7 0 .6.1 1.2.1 1.8-5.7.4-11.4.4-16.9 1.2-6.2.9-13.6-1.3-17.9 5.9 1.9.4 3.8 1.1 5.7 1.1 9 .1 18 0 27.1-.1 18.4-.2 36.9-.7 55.3-.8 11.8-.1 23.5.3 35.3.4 14.4.1 28.7 0 43.1 0 53.2-.1 106.4 0 159.6-.2 12.9 0 25.7-.8 38.6-1 12-.1 23.9.1 35.9.1 6.8 0 13.7-.5 20.4 0 4.1.3 4.8-.9 4.7-4.5-.5-9.8-1-19.6-.9-29.3.1-8.3 1.5-16.5 1.6-24.8.1-12.5-.7-25-.8-37.5-.2-27.8-.2-55.7-.3-83.5 0-1.5-.5-2.9-.9-5.2-12 10.1-25.1 14.8-40 15.9 0 2.1.5 4.1-.1 5.6-1.7 4.5-2.8 9.7-5.9 13-8.6 9.4-21 10.5-32.5 11.8-9.1 1-18.6-1.2-27.9-1.4-14.3-.3-27.9-3.2-41.2-8.3-9.3-3.6-19-11.1-14.5-24 .2-.7-.2-1.6-.3-2.7-4.6 0-8.9.1-13.3 0-5.3-.1-13.9-7.3-15.4-12.5-3-10-1.9-20.1-1.5-30.2.4-10 3.1-19.4 6.4-28.7 1.3-3.6.5-5.4-3.2-6-4.2-.6-8.5-1-12.8-1.5 1.2-10.4 7.7-14.6 17.8-11 2.8 1 5.1 1.5 7.6-1.1 10.7-11.1 24.8-15.2 39.1-18.7 8.6-2.1 17.4-3.3 26.2-4.3 11.4-1.3 22.9-2.7 34.4-2.8 10.7 0 21.4 1.7 32.1 2.7 13.6 1.2 25.9 6.2 37.8 12.6 2.6 1.4 4.6 3.8 7.6 6.3.3-4 .8-7.1.8-10.1-.1-6.3-.6-12.7-.6-19-.1-21.5 0-43-.2-64.5-.1-10.9-.7-21.7-.9-32.6-.1-8.1.4-16.1.4-24.2 0-7.9-.4-15.8-.4-23.7 0-4.7-.4-9.5.4-14 .8-4.2-.6-5.1-4.2-5.1-16.1-.2-32.1-.7-48.2-.7-10.8 0-21.6.9-32.4 1-9.9.1-19.8-.6-29.7-.5-12 0-23.9.4-35.9.7-1.1 0-2.1.2-3.6.3 1.9 4.6 3.6 8.2 9.2 6.8 2.7-.7 5.5-.9 8.3-.9 9.1.1 18.2.7 27.3.7 19.5.1 39 0 58.5 0v10c0 14.1-.1 28.3 0 42.4.1 16.2.5 32.5.7 48.7.2 14.6.2 29.2.2 43.9 0 .8-1.4 2.2-2.3 2.3-3.7.4-7.5.5-11.3.5-16.1.1-32.2.2-48.4 0-4.1-.1-6.6 1.2-8.5 4.8-2 3.9-10 6.1-13.7 3.9-1.2-.8-1.8-3.1-2.1-4.8-.2-1 .7-2.2 1.3-3.8-4.5.2-8.5 1-12.4.5-3.5-.4-4.1.5-4.1 3.8 0 5.2-4.2 10.2-8.7 11.3-4.1.9-7.6-.8-9.1-4.2-.6-1.3 1.9-4.9 3.8-5.9 3.4-1.7 7.4-2.1 12.3-3.4-1.9-.8-3.4-1.8-4.9-1.9-2.4-.1-4.9.8-7.3.7-11.2-.2-22.3-.8-33.5-.9-7.7 0-15.4.9-23.1.9-11.3 0-22.5-.7-33.8-.9-8.4-.1-16.8.1-25.2.2-2.8 0-4.5.9-5.1 4.1-.9 4.6-4.7 6.8-9 6.5-2.3-.1-4.9-1.8-6.4-3.6-.8-1 .4-3.7.9-6.3h-55.5v13.1c0 5.1-3 9.8-7.5 10.5-2.3.3-5-1-7.2-2.2-.5-.2.3-3 .6-4.5 1.4-6.3 6.7-4.3 10.6-4.9v-11.8c-10.2 0-19.9-.1-29.6 0-26.2.2-52.3.6-78.5.7-9.5.1-18.9-.4-28.4-.4-6.3 0-12.5.5-18.8.5-6.4 0-7.5-1.2-7.4-7.6 0-2.3.8-4.5.7-6.8-.2-9.8-.8-19.6-.8-29.5 0-20.9.3-41.8.3-62.8 0-11.8-.2-23.7-.5-35.5-.1-4.3 1.7-6 5.9-5.9 6.6.2 13.2 0 19.6 0 .8-3.3 1.4-5.8 2-8.6-2.7.2-5 .6-7.2.5-4.5.9-9.3.2-14.1.3-10.5.1-21 .8-31.6.8-10 0-19.9-.6-29.9-.8-2.5-.1-4.2.5-3.7 4 .6 3.6.2 7.3.2 11-.3 19.5-.9 38.9-.9 58.4 0 15.4.8 30.8.9 46.2.2 16.4.1 32.8.1 49.1 0 13.4.1 26.9.1 40.3v38c0 12.2 0 24.3.1 36.5v42.6c0 6.5.5 13 .4 19.6-.1 12.7-.7 25.4-.8 38.1-.1 12.5.1 24.9.1 37.4 0 11.6-.2 23.3-.2 34.9 0 2.5-.7 6.2.7 7.3 1.6 1.3 5 .4 7.7.4 8.4.3 16.9.9 25.3.9 18 0 36.1-.3 54.1-.5 4.4-.1 8.9-.4 13.3-.4 14.2-.1 28.4 0 42.6 0-1.1-6.3-3-7.8-11.1-8.7zM66 60.1v27.1c0 8.5-.1 17 .2 25.5 0 1.4 1.4 3.8 2.3 3.8 6.1.4 12.2.5 18.3.3 12.9-.3 25.8-.9 38.7-1 21.1-.2 42.3-.2 63.4-.3 24.6-.1 49.1-.3 73.7-.4 23.2-.1 46.3 0 69.5-.2 18.5-.2 37-.8 55.4-.9 13-.1 26 .3 39 .3 2.5 0 5.1-.7 7.6-1.3 9.3-2.4 18.7-4.6 27.9-7.5 4.4-1.4 5.6.3 5.5 4-.1 3.7 1.7 4.5 4.9 4.4 8.4-.1 16.8 0 25.2-.1 4.4-.1 8.9-.8 13.3-.9 7.1-.2 14.2 0 21.7 0V61.7c0-3.5-1.7-5.2-5.3-4.7-2.3.3-4.7.8-7 .8-19.7.1-39.4.4-59.1.1-9.2-.1-9.4-.6-8.6 8.4.1 1.3.4 2.9-.1 3.9-.8 1.7-2.1 4.1-3.6 4.4-5.2 1.2-10.5 1.6-15.8 2.3-6 .9-12 1.8-18 2.8-5.1.9-10.1 2.1-15.2 2.9-6.4 1-12.8 1.8-19.2 2.7-7 1-13.9 3.4-21.2 1V58.1c-1.8-.1-3.2-.2-4.7-.2-16.6 0-33.2.2-49.7 0-4.4-.1-5.9 1.2-5.7 5.7.6 12 .7 23.9 1.1 35.9.1 4.2-1.5 6.6-6 6.5-7.3 0-14.7-.1-22 .1-6.5.1-13 .7-19.5.7-11.8.1-23.6-.3-35.3-.1-7.2.1-8.2-.6-8.2-8V58.9H97c-.3 7 3.6 13.4-.7 19.5-1.3 1.9-4.2 4.5-5.5 4.1-2.1-.6-4.6-3.3-5-5.5-.4-2.4 1.3-5.2 2.2-7.7.1-.2 1.9 0 2.6.4 3 1.9 2.2 3.8-3.6 7.2 1.7 1.1 3.5 3 4.3 2.7 1.6-.7 3.6-2.7 3.7-4.2.2-5.7-.3-11.4-.5-17-10.2.6-18.8 1.1-28.5 1.7zm361.3 229.4c-.7 2.6-1.5 4.8-2 7-1.4 6 1.4 13 6.5 16.3 8.7 5.6 18.6 8.4 28.6 9.9 13.4 2 27.1 3.8 40.5 3.2 10.1-.4 20.7-1.1 30.2-6.1 8.5-4.5 12.8-12 11.5-21.7-.1-.9 1.5-2.9 2.3-2.9 14.7-.3 27.5-6 39.4-14 1-.7 1.8-2.4 1.8-3.6.3-15.4.7-30.9.7-46.3 0-9-.6-18-1.1-27-.1-1.3-1-2.9-1.9-3.8-10.5-10.3-24-14.9-37.8-17.5-12-2.3-24.4-2.5-36.7-3.1-8.6-.4-17.4-1.1-25.9.3-17.5 2.9-35 6.6-52.2 11.1-6.9 1.8-14 5.5-19.2 10.3-5 4.6-8.8 5.9-15.1 3.8-5.8-1.9-8.4-1.3-11 5.2 2.3.2 4.3.4 6.4.4 8.5.3 11.9 6 8.2 13.5-.3.6-.7 1.1-.9 1.8-5.3 16.7-6.2 33.7-3.6 50.9.9 6.1 7.5 12 13.6 12.3 5.9.2 11.5 0 17.7 0zm-212 1.7c.7-1.7 1.6-3.2 2.1-5 .5-1.9.7-4 1.1-6.4 4.3 6.6 1.2 12-8.9 17.2 3.5.1 6.9-.3 10.3-.7 4.1-.5 6.1-3 6.1-7.1 0-1.2-.2-2.4 0-3.5 2.8-11.3-1.3-20.1-10.3-26.8-8.3-6.2-14.5-13.9-18.1-23.5-2.9-7.7-5.3-15.7-8.2-23.4-2.7-7-8.8-11.8-14.3-11.6 2.9 3.5 5.6 6.9 8.3 10.3-.4.3-.8.7-1.2 1-2.6-2.7-5.2-5.5-7.8-8.2-3.9-4.2-7.4-9.1-14.3-7.5-.2 0-.4-.3-.8-.7.9-.8 1.8-1.6 4.1-3.7-6.7-1.1-12-2.9-17.1-2.5-8 .6-15.9 2.8-23.9 4.4-.4.1-.7.7-1.1 1-6 3.8-10 9.2-12.7 15.7-.1.3-.8.4-1.2.7-.8-1.3-1.5-2.4-2.2-3.6-1.3 1.9-1.7 3.7-1.8 5.5-.1 2 0 4.1 0 6.7-1.5-1.4-2.6-2.4-4.3-3.9-2.7 4.8-5.2 9.3-7.8 13.7-.5.9-1.3 1.7-2 2.5-.9 1-2.4 1.9-2.8 3.1-.8 3-.1 7.9-1.8 8.8-4.2 2.2-3.5 5.7-4.6 9-2.6 7.6-2.5 15 1 22.1 5.1 10.4 10.5 20.7 16 30.9 4.6 8.6 10 16.9 2.3 26.7-1.7 2.2.5 3.7 2.6 4.8 8.4 4.4 16.8 9 25.4 13.7 1.1-1 2.4-2 3.4-3.3 4.1-5.5 9.8-6.7 16.2-6.5 4.9.2 9.7 0 14.6-.2 1.1 0 2.2-.9 3.4-1.3-.6-1-1.1-2.1-1.8-3.1-3.5-5.1-7.5-10.1-10.5-15.5-1.1-2.1-1.1-6.3.3-7.9 1.2-1.3 5.5-1.1 7.7 0 5.1 2.6 9.7 6.2 14.4 9.4 4 2.8 8 5.7 12 8.6.5-.4 1.1-.7 1.6-1.1v-12.8c2.1 2.3 3.1 3.4 4.9 5.5 1.1-2.5 2.9-4.9 2.3-5.9-1.1-2-3.4-3.6-5.5-4.8-1.7-1-3.9-1.3-6.3-2 1.7-1.8 3.5-4.3 5.8-5.9 3.6-2.5 7.6-4.4 11-6.3-6.2-5.7-11.8-10.8-17.2-15.8 4.3-5.7 11.3-8.6 16.2-6.4-4.5 1.7-8.3 3.1-12.7 4.8 7.5 8.5 17.9 1.7 26.2 8.1-.4-6.7-.7-12-1.1-17.7 3.6 3.7 4 7.7 3 20.4zm96.5 106.2c3-3.6 5.6-6.7 8.8-10.5-27.6 5.9-54.5 1.2-81.5 2.4 2.6 9.5 2.5 9.1-5.5 13.4-3.1 1.7-7.6 2.2-8.8 6.9-.2.8-2.4 1.6-3.8 1.6-9.4.2-18.9.2-28.3.2-2.7 0-5.5-.6-8.8-1.1-.5 4.7-.9 8.7-1.4 13.6 7.7 0 15.1.2 22.6 0 14.7-.4 29.4-1.2 44.1-1.6 19.3-.5 38.5-.7 57.8-1.2 3.7-.1 7.4-1.1 11-1.6v-.8c-1.6-.4-3.2-.7-6.6-1.5 3.6-3.2 6.3-5.6 9-7.9-.1-.2-.1-.4-.2-.5-2.6 1.4-5.1 2.8-8.6 4.7 3-3.3 5.2-5.8 7.4-8.3-.3-.3-.6-.6-1-.8-1.5 1-2.9 1.9-4.4 2.9-.5-.5-.9-1.1-1.4-1.6 1.8-.9 3.7-1.7 5.5-2.6l-1-1c-1.2-.1-2.5-.2-3.7-.3 13.9-9.1 28.3-14.7 44.6-11 .3-1.5 1.1-2.5 1.8-2.5 6.6.6 13.3 1.4 19.9 2.2.1 0 .2.5.5 1.2-4.6.3-9.2.7-13.8 1 0 .5 0 1.1.1 1.6h11.2c0 .4 0 .8-.1 1.1h-3.8c0 .6 0 1.2.1 1.7l13.2-1.2c-1.3 2.6-2.5 4.8-4.1 5.1-5.3 1-10.7 1.4-16.1 1.8-3.5.3-7 0-10.5 0 0 .8.1 1.6.1 2.4 7.4-3.2 15.5 2.6 20.8-1.3 6.3-.5 10.5-.8 14.8-1.3.4 0 .7-.7.9-1.1 2.5-5-2.7-14.1-8-13.1-7.6 1.3-14.6-1-21.7-2.6-3.5-.8-6.1-.5-8.6 1.5-2.7 2.3-5.1 2.3-8 .2-1.3-1-3.6-1.7-5.1-1.2-5.2 1.6-10.1 3.8-15.2 5.8-4.2 1.7-9.1 3.4-14.2 5.3zM424.5 5.3H96c-.2 6.1.4 8.9 7.3 8 8.3-1.1 17 .4 25.5.4 2.2 0 4.3-1.2 6.2-1.7 1.8.6 3.7 1.7 5.5 1.7 17 .1 34-.1 51-.2l55.7-.3c3.4 0 6.8-.1 10.2-.1 7.6.1 15.2.6 22.8.5 15.9-.3 31.8-1.1 47.7-1.3 9.5-.1 19 .7 28.4.6 18.3-.1 36.6-1.2 54.9-.7 6.5.3 8.9-3.4 13.3-6.9zM447.3 342c-3.9-4.5-3.2-11.6-11-12.7-3.9-.6-7.9-1.6-11.4-3.4-12.9-6.4-25.7-13.2-38.9-20.1-1.5 6.8-2.7 13.9-4.9 20.7-1.7 5.4-1.9 10.5-.7 15.9.6 2.9.7 6 1.4 8.9.3 1.1 1.6 2.4 2.7 2.6 12 2.8 24.2 5.2 36.1 8.3 4.4 1.2 4.7-.2 3.8-3.4-.7-2.5-1.9-4.8-2.8-7.3-.5-1.4-.8-2.8-1.2-4.2.6-.3 1.1-.7 1.7-1 3.9 6.1 3.1 16.1 14.5 17.4-1.6-7.1-3.1-13.9-4.9-21.7h15.6zm-335.9 15.8c-1.2 6.1-2.5 11.7-3.5 17.3-.6 4-.2 8.1-1.2 12-.8 3.4.7 4.3 3.2 4.7 2.8.5 5.7.2 8.4.7 5.9 1 11.7 3 17.6 3.1 8.3.1 16.5-1.1 24.8-1.7 3.4-.3 6.8 0 9.1-3.8.8-1.3 4.5-1.5 6.6-1.1 2.1.4 3.8 2.5 5.8 3.5.8.4 2.5.7 3 .2.7-.7 1.1-2.2.8-3.3-.4-1.8-1.3-3.4-2-5.1.4-.3.9-.6 1.3-.9.9.9 1.8 1.7 2.6 2.7.9 1 1.5 2.4 2.5 3.2.3.2 2.4-.9 2.5-1.6.2-1.4 0-3.2-.8-4.4-1.5-2.4-3.4-4.6-5.1-6.8.4-.4.8-.9 1.2-1.3 3 2.2 6 4.4 9.2 6.8 1.6-8.5.1-10.5-7.2-11.4-2.1-.3-4.2-.8-6.2-1.6-1.1-.4-1.9-1.6-2.8-2.5.8-.9 1.5-2.1 2.5-2.6 2.3-1.2 4.9-2 7.3-3-3.8-5.1-7.1-4.7-11.1-.4-3.4 3.6-7.5 7.6-12 8.9-11.2 3.1-22.5 1.1-33.3-3.2-4.6-1.9-9.4-3.5-13.8-5.1-3.7 9.9-2.9 20.5-8.2 30.9-3.6-6.9-.9-12 .4-17.2 1.4-5.3 2.3-10.7 3.5-16.5-2.1-.3-3.4-.4-5.1-.5zm222.5 22c1.6-1.5 3-3.3 4.8-4.4 1.8-1.2 4-1.8 6.1-2.6.2.4.5.9.7 1.3-2.3 2.1-4.7 4.2-7 6.3 2 3 3.7 3.4 6.2.9 1.9-1.9 4.3-3.5 6.6-5 .7-.5 2-.1 3-.1 0 .5 0 1 .1 1.5-1.6.8-3.3 1.5-4.7 2.6-.8.6-1.8 2.3-1.5 2.9.6 1.1 2 2.4 3.1 2.5 1.3 0 2.5-1.4 3.8-2 2-.9 4.2-2.7 6.1-2.5 9 .9 17.9 2.5 26.9 3.5 2.7.3 5.5-.5 8.3-.7 7.5-.4 15.1-.5 22.6-1.3 4.6-.5 7.5-5.3 7.4-10.3-.2-5.2-3.9-5.2-7.6-5.6-1.1-.1-2.2-.6-3.3-.9-6.1-1.7-12.3-3.5-18.5-5.1-3.5-.9-7-1.6-10.5-2.1-1-.2-2.2.4-3.3.8-1.2.4-2.3 1.2-3.5 1.4-6.5.7-13 1.3-19.6 1.9-1 .1-2.2-.2-3.2-.6-8.7-3.5-16.8.6-24.9 2.1-5 .9-5.8 5.7-2.6 8.5 4.4-5.3 6.9-6.1 8.6-2.5-5.6 1.8-6 2.3-4.1 9.5zm-6.7-261.4c0-.4 0-.8-.1-1.2-76.4.6-152.7 1.3-229.1 1.9 4.3 2.1 5.5 9.1 11.9 7.4.2-1.6.4-3.1.6-4.5.5-.2.9-.4 1.4-.5.5 1 1.5 2.2 1.3 2.9-1 2.8.8 3.2 2.6 3.1 9-.6 18-1 27.1-.9 12.7.3 25.5-.6 38.2-.8 9.6-.1 19.2.4 28.8.3 10.7-.1 21.3-.6 32-.8 4.9-.1 9.7-.1 14.6.1 5.7.2 11.4 1.1 17.1.8 8.2-.3 16.5-1 24.6-2.2 9.7-1.5 19.3-3.7 29-5.6zm127 214.2c-.3.4-.7.8-1 1.2 3 6.1 6 12.3 8.8 18.4.5 1.1 1 3.3.4 3.8-1.2 1.1-3.2 2.1-4.7 1.9-4.7-.6-9.4-1.9-14.2-2.9.2 8.7 7.3 16.1 2.7 25.1-5.4-2.3-10.3-4.3-15.6-6.5-.8 3.2-.5 7.2-2.2 8.2-5.8 3.6-4.3 7.6-2.1 12.3.6 1.3-.1 3.3-.8 4.8-.2.4-2.3.4-3.3 0-3.4-1.4-6.7-3.1-10.1-4.8-3-1.5-6.1-3.1-9.1-4.6-.3.5-.5.9-.8 1.4.8 2.3 1.2 4.9 2.6 6.8 2.3 3.1 5.2 6.7 9.6 6.1 12.9-1.8 26.1-3.5 36.7-12 5.9-4.8 11.9-10.3 15.8-16.7 4.5-7.6 8.1-15.9 8.3-25.4.1-4.9-.6-8.6-5-10.7-5.2-2.5-10.6-4.3-16-6.4zM159.7 436.2c-1.8 9.8-8.3 15.8-14.4 22 2.5 3.5 4.6 7.1 7.4 10 .9.9 4.6.6 5.6-.5 5.7-6.3 11-12.7 14.1-21 5.1-13.6 9.1-27.3 7.7-41.9-.4-4.4-2.2-8.7-4.1-12.7-1.2-2.5-4.3-1.9-5.1.4-2.9 9-10.1 17.8-2.4 27.8.3.4.5.9.7 1.3 2.2 4.7.8 6.7-4.2 6.5v11.1c-2.4-1.3-3.6-2-5.3-3zm80.2-50.1c8.6 0 17.2-.1 25.8 0 4.5 0 9.1.4 13.6.4 7.6 0 15.3.6 22.9-.3 8.2-1 16.3-3.3 24.3-5.5.9-.3 2.1-3.4 1.6-4.5-1.3-3-6.9-4.2-9.9-2.5-4.5 2.6-9.2 3.3-14.4 2.3-7.2-1.4-14.5-2.3-21.8-2.7-5.1-.3-10.2.8-15.3.8-7.8 0-15.5-.6-23.3-.5-1.1 0-3 2-3.3 3.4-.6 2.4-.2 5-.2 9.1zM532.1 23c0-2.5.4-4.5-.1-6.3-.3-1.2-1.9-2.8-2.9-2.8-11.6-.2-23.2-.1-34.7 0-8.1 0-16.2-.1-24.2.3-16.4.9-33.1-1.7-49.5 3.7V23h111.4zm-374.2 3.8c-3.6.2-7.1.4-10.6.5-7.1.2-14.2.4-21.3.3-5.4-.1-10.8-1.3-16.3-1.3-5.7-.1-11.4.7-17.3 1.1.3 1.5.7 2.5.6 3.3-.6 4.8 1.9 5.6 5.9 5.4 5.1-.3 10.2-.1 15.2-.1 3.3 0 5.9-.2 4-4.6-.2-.6.5-1.5 1.1-3.3.6 2.3 1 3.5 1.3 4.5 2.1-.7 4-1.3 6.2-1.9.3 2.1.5 3.5.8 5.3 5.7-.9 11.7 1.8 16.6-1.9 2.1.6 4.4 1.7 6.8 1.7 17.2.1 34.4-.1 51.5-.2 7.6 0 7.6 0 6.2-8.8-12.2 0-24.5.1-36.9-.1-4.9-.1-8.7 1.2-11.1 5.6-.2.4-1.2.3-2.1.4-.2-2-.4-3.8-.6-5.9zm68 120.3c1.5-7.2 0-8.4-6.1-8-10.7.7-21.5.3-32.2.7-8.3.3-17.6-3.3-24.2 5.1-.1.1-.6 0-.8 0-.6-1.7-1.3-3.4-1.9-5.1h-23.1c-7.9 0-15.8.4-23.7 0-6.1-.3-10.9.5-12.3 7.8H128v-1c-2-.7-3.9-1.4-5.9-2.1.2-.5.4-1 .5-1.4 3.2.4 7.5-2.5 8.9 3.5.1.5.9 1.1 1.4 1.1 4.4.1 8.8.1 13.2.1-.2-2-.4-3.3-.5-4.6 1.7 4.9 5.5 4.7 9.3 4.6 9.8-.3 19.7-.5 29.5-.6 13.6-.2 27.4-.1 41.5-.1zm13.7-58.2c0-9.2.1-18.2-.1-27.3 0-1.1-1.3-3.1-2-3.2-7.4-.2-14.7-.1-22.1 0-2.5.1-4.3 1.1-4.2 4.2.2 8.1 0 16.1.2 24.2 0 1.1 1.7 3.1 2.5 3.1 8.4-.1 16.8-.6 25.7-1zM431.1 136c2.9-8.5 2.5-9-6.9-9-17.8 0-35.5-.1-53.3.1-9.6.1-19.1.7-28.7 1-2.1.1-4.7-.3-4.1 3.1.5 2.6-.6 6.5 4.4 6 4.1-.4 8.2-.8 12.3-.8 9.8.1 19.7.7 29.5.6 10.6 0 21.2-.6 31.8-.9 5-.2 9.9-.1 15-.1zM100.8 55.6c1.5.1 2.4.3 3.4.3 6.6.1 13.2.3 19.9.4 10.8.2 21.5.5 32.3.4 9.2-.1 18.4-.9 27.6-1 6.8-.1 13.6.6 20.3.7 6.4.1 7.2-1.4 5.2-7.3-3.1-.2-5.9-.6-8.8-.6-12.2 0-24.4.2-36.6.2-11.5-.1-22.9-.4-34.4-.6-2.9 0-5.7.2-8.6.2-3.4 0-6.8-.3-10.2 0-2.6.2-6-1.3-7.1 3.1-.3 1.3-1.6 2.3-3 4.2zm168.1 33.6v-31c-7.7 0-14.9.2-22.2-.1-4-.2-4.8 2.1-4.9 5.2-.2 6.9-.4 13.7-.2 20.6.1 1.8 2 5 3.2 5.1 8 .4 16 .2 24.1.2zm200.6 358.9c3.4.8 5.6 1.4 7.8 1.7 6.4 1.1 12.2-.2 17.2-4.5 9-7.9 12-18.8 13.9-29.8 1.3-7.6 1.8-15.5 1.6-23.2-.1-4.1-.1-9-3.9-12.2-.6.4-.8.4-.8.5-1 9.9-2.7 19.5-7.1 28.6-.7 1.5 1.5 4.4 2.4 6.7.5.1 1.1.2 1.6.2-2.1 3-3.9 6.5-6.5 8.9-4.7 4.3-10.2 7.7-15 11.9-3.9 3.3-7.2 7.1-11.2 11.2zM272.5 89h24.1V58.1c-7.6 0-14.4-.1-21.2 0-3.4.1-4.3 2.2-4.1 5.3.5 8.3.8 16.5 1.2 25.6zm158.7 60.8h-92.4c-.3 2.2-.1 3.7-.6 4.8-1.2 2.7.3 3.3 2.4 3.3 11-.1 22.1-.3 33.1-.5 8.9-.1 17.9-.4 26.8-.4 7.6.1 15.2.6 22.8.9 8.6.5 8.9.1 7.9-8.1zm-92.9-10.7c.5 3.9-1.6 8.1 4.3 8 12.5-.2 25 0 37.5-.1 14.7-.2 29.3-1.1 43.9-.4 6 .3 8.2-.7 7.8-7.4-30.9-.1-62-.1-93.5-.1zm93.1-21.6h-94.2c.4 1.5 1.1 3.1 1.1 4.8.1 3.2 1.1 4.2 4.3 2.9 1.1-.5 2.6-.1 4-.1h38.5c2.7 0 5.3-.2 8-.3 5.1-.2 10.2-.6 15.4-.6 7.6-.1 15.3 0 23 0-.1-2.8-.1-4.6-.1-6.7zM90.2 152.1c-.4-.6-.5-1.1-.7-1.1-7.4-.4-14.8-.9-22.2-.7-.7 0-1.4 4.9-1.8 7.5 0 .2 2.4 1 3.7 1.1 5.8.3 11.5.4 17.3.5 5.8.1 11.6.1 17.3 0 6.7-.1 13.4-.5 20-.4 7.5.2 15 1.2 23.5-2.1-1.3-2.5-2.3-6.5-3.7-6.7-6.5-.8-13.7-2.7-18.7 4.1-.4.6-1.2.8-.7.5-3.7-1.8-6.5-3.3-9.3-4.5-1.3-.5-2.8-.4-4.3-.5-7.3-.2-14.8-1.7-20.7 4.8-1 1.1-2.8 1.3-4.3 1.9-.2-.5-.4-.9-.6-1.4 1.7-.8 3.3-1.8 5.2-3zm81.4-15.1c12.2 0 23.6.1 34.9 0 9.3-.1 18.7.1 27.9-.9 9.5-1 19-3.4 28.4-5.2.5-.1.9-.8 2.5-2.2h-10.9c-15.7 0-31.5-.1-47.2 0-6.2 0-12.4.7-18.5.7-7 0-14-.6-21.1-.7-1.4 0-2.8.9-4.2 1.4.1.4.2.8.2 1.2 4.2.1 7.7 1.2 8 5.7zM387.2 25.9c-9.6 0-18.8-.1-28 0-6.4.1-12.8 1-19.2.9-12.2-.1-24.5-.6-36.7-.8-1.1 0-2.7.9-3.3 1.8-.5.8.2 2.3.3 3.5 1.3-.2 2.6-.3 3.9-.7 3.6-1 7.1-2.7 9.7 2 .7 1.2 3 2.2 4.5 2.2 13.4.2 26.8.1 40.1 0 .9 0 2-.2 2.7-.7 2.8-1.8 5.4-3.8 8-5.7 8 7 8.6 7.2 18 5.9v-8.4zm2-10.7h-74.6c-.8 3.6-1.3 6-1.9 8.9 9.5 0 19.1.1 28.6 0 12.7-.1 25.3-.2 38-.6 9.8-.3 10.1-.8 9.9-8.3zm143 39.5c.8-7.9.8-8-6.4-7.9-10.2.2-20.4.8-30.5.8-11.1 0-22.2-.5-33.3-.7-3.3 0-6.6.3-10 .5.3 2.7.5 4.9.8 7.2 26.4.1 52.7.1 79.4.1zM151.7 158.5h74.6c0-2.1.4-4.3-.1-6.3-.3-1.1-2-2.7-3.1-2.7-20 0-40.1.1-60.1.3-5.3 0-10 1.1-11.3 8.7zM452.1 44.1h80v-6.4c-13 0-25.6.1-38.2 0-12.9-.1-25.9-.5-38.8-.5-1 0-2.4 1.8-2.9 3.1-.5 1-.1 2.6-.1 3.8zm16.4 92.1c21.7-.5 42.7-1 64.1-1.5 0-2.4.3-4.3-.1-6.2-.2-1-1.5-2.5-2.3-2.5-4-.1-8 .4-11.9.5-8.8.2-17.6.3-26.5.4-7.7.1-15.3 0-23.4 0 .1 3.3.1 6 .1 9.3zm-171.6 13.7h-7.1c-4.7 0-9.4.2-14.2.1-6.1-.2-12.1-.7-18.2-.8-7.4 0-14.8.2-22.2.5-2.1.1-5.2.2-5.9 1.4-1 1.8-.3 4.6-.3 7.1 5-.4 8.8-.9 12.5-.9 8.1 0 16.2.3 24.3.5 8.9.3 17.9.5 26.8 1.1 3.7.3 4.1-2.1 4.5-4.5.5-1.1 0-2.4-.2-4.5zm90-104.5c.5-2 1-3.2 1.1-4.5.2-2.4.2-4.1-3.6-3.6-5.2.7-11-1.3-14.9 4-.3.3-1.5.1-2.2 0-3.9-1.1-7.8-3.1-11.7-3.2-12.8-.4-25.7-.5-38.4.1-5.8.3-11.6 2.5-18.4 4 1.6 1.3 2.5 2.7 3.6 2.8 3.7.6 7.5 1 11.2.9 15.7-.5 31.5-1.4 47.2-1.7 8.5-.1 17.1.8 26.1 1.2zM229 147.8c8.7 0 17.6.1 26.5 0 12.3-.1 24.6-.4 36.9-.6 1.5 0 4.2-.1 4.2-.4.3-2.3.2-4.7-.2-7-.1-.6-1.8-1.1-2.8-1.2-1.1-.1-2.3.4-3.4.4-10.4 0-20.8-.3-31.1 0-8.1.2-16.3.8-24.3 1.8-3 .4-7.8.3-5.8 7zM531.6 34c.3-2.5.3-4.1.6-5.5.8-3.4-1.2-3.6-3.6-3.6-11.5.3-23 .8-34.5 1-9.4.2-18.9 0-28.1 0V34h65.6zm.2 103.3c-3.3.2-6.4.4-9.6.5-9.9.3-19.9.8-29.8.9-6.8.1-13.7-.4-20.5-.8-2.7-.1-4.9.5-4.3 3.7.3 1.8 1.6 4.8 2.4 4.8 12.7 0 25.4-.4 38.2-.6 7.9-.1 15.9 0 24.3 0-.2-3-.5-5.8-.7-8.5zm-65 11.4c1 8.2 1 8.2 8 8.2 17.1 0 34.2-.1 51.2-.1h5.3c.5-3.4.9-6 1.2-8.1h-65.7zM149.4 45.8h59.8c.3-2.1.7-4.5 1.2-7.4-7.5 0-14.1.1-20.7 0-10.9-.1-21.8-.4-32.8-.3-1.3 0-2.8 1.3-3.8 2.4-1.1 1.1-1.8 2.6-3.7 5.3zm318.3 70.7c-.2 7.4-.2 7.3 5.8 7.4 8.2.1 16.4-.8 24.8-.2 11.2.8 22.5.2 34.1.2v-7.3c-21.7-.1-43.1-.1-64.7-.1zM314.5 366.3c-1.6.6-3.1 1.1-4.6 1.8-1.5.6-3.1 1-4.3 2.1-.5.4 0 3 .4 3.2 1.4.4 3.1.4 4.5 0 6.2-1.7 12.7-2.9 16.5-9.3.9-1.5 3-2.7 4.8-3 5.5-1.2 11.2-2.2 16.8-2.9 3.7-.4 7.5 0 11.3-.1 1.1 0 2.2-.4 3.3-.6-.9-1.9-1.5-4-2.8-5.6-.5-.7-3.2-.9-3.5-.4-2.7 4-6.7 3.3-10.6 3.6-4.1.3-8.1 1-12.2 1.6-9 1.4-18 3.4-27.1 4.3-9 .9-9.8 1-12.5 9.5 2.3 2.1 4.1 1.8 6-.7 3.1-4 9.9-6.1 14-3.5zm-179 83c.5-.2 1.2-.3 1.6-.6 10-7.3 15.9-17 16.4-29.5.1-1.7-3.1-3.6-4.7-5.5-1 1.1-2.1 2-2.9 3.2-4 6-7.7 12.3-11.9 18.2-5.5 7.8-5.7 7.6 1.5 14.2zm77.2-433h-13.8c-11.4 0-22.8-.1-34.2 0-1.2 0-2.4.8-3.6 1.3.7.9 1.4 1.9 2.2 2.8 3.4 3.9 7.7 4.4 12.6 4.3 11.3-.3 22.5-.1 33-.1 1.7-3.4 2.8-5.9 3.8-8.3zm265.6 417.6c-21 14.6-43.2 13.4-66.1 5.3-1.7 4.2 0 6.9 3.1 8.6 13.6 7.5 27.8 4.3 41.4 1 8.3-2 16.3-6.8 21.6-14.9zM313.9 54.6c3.3.4 6.5 1.2 9.8 1.2 9.9-.1 19.7-.7 29.6-.8 6.9-.1 7.1-.1 5.5-6.7-4.9-.4-9.8-1.1-14.7-1.1-7.6 0-15.2.8-22.9.7-4.8 0-9-.2-7.3 6.7zM102.5 394.2c.1-.4.3-.8.4-1.2-5.5-2.1-11.1-3.8-16.4-6.3-6.8-3.3-13.3-7.3-20-10.8-1.4-.8-4.4-1.5-4.8-.9-1.5 2.1-4.1 4.7-1.3 7.3 1.9 1.9 4.4 3.4 6.9 4.5 8 3.7 16.1 7.1 24 10.5 3.7-1 7.5-2 11.2-3.1zm197.7-265.6c-2.4 6.8-1.6 8 4.4 8.4 1.5.1 3 .1 4.5 0 8.3 0 16.6.1 24.9-.3.9 0 2.2-3.5 2.2-5.4 0-1.4-1.7-4.1-2.6-4-11.2.2-22.5.8-33.4 1.3zm61.4-55.1c8.4-1.6 16.4-3.1 24.3-4.8.6-.1 1.4-1.5 1.3-2.3-.2-2.7-.8-5.4-1.2-8.2h-24.4v15.3zM134 17c-1.5-.1-2.6-.1-3.7-.2-10.6-.3-21.2-.7-31.8-.9-4.5-.1-2.5 4.3-4 6.3 1.2.9 2.4 2.6 3.6 2.6 9.7.2 19.5.1 29.2.1 7-.1 7-.1 6.7-7.9zm195.5 131v-.5c.9.2 1.9.4 2.8.5 2.5.2 4.7-.4 4-3.4-.6-2.5.4-6.4-4.4-6.3-9.5.1-19-.1-28.5-.1-3.7 0-4.8 2.9-4.8 5.6 0 1.6.3 4.5 4.2 3.9 4.5-.8 9.2-.6 13.8-.5 4.3 0 8.6.5 12.9.8zM143.4 38.2c-5 0-9.3.7-13.3-.2-5.7-1.3-7.5 4-10.7 5.9-1.4-2.3-2.2-5.4-3.6-5.7-4-.7-8.1-.2-13.6-.2 3.1 3.4 1.2 8.5 6.1 8.7 10.8.3 21.6.1 32.3 0 .8 0 2-1 2.1-1.7.6-2.3.6-4.6.7-6.8zM66 137.5h35.9c.7-8.1 0-9.1-4.6-8.6-4 .4-8.1-.1-11.9.7-3.8.7-8.8-1.8-11.3 3.6-.1.3-2.4-.3-3.6-.8-1.2-.6-2.2-1.5-3.3-2.3-.5 1.3-1.1 2.5-1.4 3.8-.2 1 .1 2.1.2 3.6zm306.9 209.3c3.3-13.1 6.7-26 9.7-38.9.6-2.5-.2-5.2-.4-7.9-.5 0-.9.1-1.4.1-3.2 9-6.3 18.1-9.6 27.1-1.5 4-3.4 7.8-4.9 11.8-2.1 5.8-.3 8 6.6 7.8zM420.4 35h19.8c4.9 0 11 1.8 11.3-6.5 0-.7.6-1.4 1-2.3h-32.1V35zM66.6 140.1c-2.4 7.1-1.9 7.7 5.4 7.8 6.4.1 12.7.5 19 .7 5.9.2 9.1-2.8 9.2-8.5H66.6zm382.7 8.8c-3.7 0-7.4.4-11-.1-4.4-.5-4.5 2.7-4.6 5.1-.1 3.1 2.3 3.4 5.1 3.4 6.9-.1 13.8.2 20.7.5 3.1.1 4.7-1.1 5-4.1.3-2.7 0-5-3.8-4.8-3.7.2-7.6 0-11.4 0zM417.2 25.7c-8.1 0-15.8.4-23.4-.2-3.4-.3-4.2 1.1-4.4 3.5-.2 2.6-1.3 6.1 3.5 6 6.9-.1 13.8 0 20.7 0 3.1 0 4.5-1.4 3.9-4.6-.1-1.3-.1-2.6-.3-4.7zm-106 424.5c-.1-.5-.1-1-.2-1.5-33.5.6-66.9 3.3-100.3 7 1.6 1.2 3.3 1.7 5 1.6 15.3-1.2 30.6-2.6 45.9-3.7 14.1-1 28.3-1.7 42.5-2.5 2.3-.3 4.7-.6 7.1-.9zm-175.6-321h-6.2c-5.8.1-11.7 1.3-17.2.1-4.9-1.1-5.1 1.9-5.8 4.4-.9 3.5 2 4.1 4.5 4.1 5.3.1 10.6.1 15.9 0 7.9-.1 7.9-.2 8.8-8.6zm21.8 292.3c-.6.2-1.2.4-1.7.6-2.2 11.4-6.9 21.4-16.5 28.5 2 6 3.1 6.4 7.6 2.8 7.4-5.9 10.6-14.3 13.1-22.8.7-2.5-1.6-6-2.5-9.1zm-30.2-60.3c.5-.6 1.1-1.2 1.6-1.8-1.1-1.6-2.1-3.4-3.5-4.7-1.1-1.1-2.9-1.5-4.3-2.3-8.5-5.1-16.8-10.3-25.4-15.2-1.2-.7-3.2.1-4.9.2.3 1.4.2 3.7 1 4.2 11.8 6.6 23.6 13.1 35.5 19.6zM389.9 55.1h28.3c.6-7.7.5-7.9-6.2-8.1-5.3-.1-10.7 0-16 0-7 0-7.1 0-6.1 8.1zM108.6 354.2c-6.1-1-9.1 1.9-11.5 5.4-5.8 8.5-.4 15.6 3.6 24.1 2.8-10.5 5.3-19.7 7.9-29.5zM389.8 36.5c-.8 8.5-.8 8.5 6.7 8.5 6 0 12 .2 18-.2 1.4-.1 2.7-1.9 4-2.9-1.1-1.3-2-3.7-3.2-3.8-8.4-.8-16.8-1.1-25.5-1.6zm74.5 109v-8.4c-10.1 1.2-19.8 2.3-29.2 3.5-1.5 5.1.7 6.6 4.3 6.4 8.2-.4 16.4-1 24.9-1.5zM420.7 44.6c.7.2 1 .3 1.3.3h21.9c6.9 0 7.6-.9 6-7-7.8 0-15.4.1-23 0-6.8-.1-6.8-.2-6.2 6.7zm29.6 10.2c.2-4.3 1.1-8.3-5.4-7.2-3.9.7-8 .3-12 .3h-12.1v6.9h29.5zm-32.4 3.4h-28.6v9.2c7.8-.9 15.2-1.4 22.3-2.7 3-.5 8.2-.2 6.3-6.5zM92.8 384c.5-.7 1-1.3 1.5-2-2.6-2.7-4.9-5.6-7.8-7.9-4.3-3.5-9.1-6.3-13.4-9.8-2.5-2.1-4.1-1.5-5.7.7-.9 1.3-1.6 2.7-2.8 4.7 9.6 4.9 18.9 9.6 28.2 14.3zM387.6 55.7c-.7-4.7 1.9-10.4-5.6-8-.2.1-.5-.5-.8-.5-5.8.2-11.6.3-17.3.9-1 .1-2.1 2.8-2.3 4.4-.1.9 1.4 2.9 2.3 3 7.6.3 15.3.2 23.7.2zM479 348.3c-1 4.4-1.9 8.1-2.8 11.7.4.1.9.3 1.3.4 1.2-2.6 2.4-5.1 3.7-8 6.7 11.8-1.6 20.1-5.9 29.9 9.5-5.9 12.6-15.2 18-23.6-4.4-3.2-9.1-6.6-14.3-10.4zM89.2 16.8c-6.5 0-13 .7-19.3-.3-3.9-.5-3.8.9-3.9 3.5-.1 2.9 0 5.4 4.1 4.9 4.2-.5 8.5-.8 12.8-.8 8.2 0 8.2.1 6.3-7.3zM212 33.9c2.5-1.4 3.8-2.6 5.3-2.9 2-.3 5.4-.6 5.9.3 3 6 8.3 3.5 12.8 3.9 3.2.3 4.6-1 4.4-4.3-.2-3.2-1.5-4.1-4.7-3.9-4.2.2-8.5-.5-12.8-.7-3.7-.1-7.5 0-11.8 0 .2 2.8.5 4.8.9 7.6zM55.5 387c.4 2.5-.1 6 1.3 7 5.3 4 11.1 7.2 16.8 10.6.6.3 1.7.2 2.3-.1 2.6-1.3 5.2-2.7 7.5-4-9.1-4.4-18-8.7-27.9-13.5zm268.7-236.8h-24.5c-.5 7.4-.4 7.6 6 7.6 5.8.1 11.5 0 17.1 0 .5-2.5.9-4.9 1.4-7.6zM269.6 44.3c2.8.7 5.1 1.7 7.3 1.7 6 0 12-.3 18-.7 1.2-.1 3.2-1.7 3.1-2.4-.3-1.8 1.2-4.4-2.7-5-8.5-1.2-16 2.8-24.1 3.9-.3.1-.5.8-1.6 2.5zm1-11.5c2.1-1 3.6-2 5.2-2.3 2-.3 5.5-.7 6.1.3 4.2 7.4 10.5 4.3 16.4 4.2-.4-3.2-.8-5.8-1-7.7-7.4-.4-14.4-.7-21.3-1.2-4.3-.3-6.1 1.3-5.4 6.7zm-30.7 5c-5.4.6-11.1 0-15.6 2-3.5 1.6-6.3 2.8-10.1 2.2-.8-.1-1.9.7-2.8 1 .6 1.1 1 2.6 1.9 3.1 1.1.6 2.6.3 3.9.2 7.4-.3 14.8-.7 22.6-1 .1-2.1.1-4.3.1-7.5zM66.2 35.5c8.7.1 18.5 3.8 22.9-9-7.9.5-15.4 1.1-22.9 1.6v7.4zM408 443c2.7-8.4-.2-11.9-9-12.1-3.8-.1-6.1 1-6.5 4.9-.3 3.3 3.3 7.1 6.7 7.2 2.8.1 5.6 0 8.8 0zM243 33.5c4.5-4.4 9.1-5.1 11.5-2.4 4.2 4.8 8.6 5.9 14.5 3.5-.4-2.4-.8-4.7-1.3-7.7h-26.2c.6 2.4 1 4.1 1.5 6.6zm-1.5 10.2c1.9.7 3.2 1.6 4.6 1.7 6.5.3 13 .5 19.5.4.9 0 2.3-1.5 2.6-2.5.4-1.5-.1-4.6-.3-4.6-5 0-10.1-.1-15 .6-3.3.5-6.4 2.4-11.4 4.4zm-79.8 93.7c-.1-2.3.4-5-.6-6.9-.6-1.2-3.5-1.3-5.3-1.7-1.3-.2-2.6 0-4 0-6.5 0-8.1 1.5-9.1 8.6h19zm50.8-42.5c-.3 2.6-.5 4.2-.6 5.4 8.3 0 16.2.1 24-.1 1.4 0 2.8-1.7 4.3-2.7-1.6-.9-3.2-2.4-4.8-2.4-7.4-.3-14.8-.2-22.9-.2zm222.2 40.3c2-.3 3.5-.4 4.9-.7 7.6-1.8 15.1-3.6 22.7-5.5 1.1-.3 2.1-1.2 3.2-1.8-1.1-.3-2.2-.9-3.3-1-9.5-.9-18.5.9-27.4 4.6-.1 1-.1 2.3-.1 4.4zm-156.5-40c-.7-.1-2.4-.5-4-.4-1 .1-1.9 1.1-2.9 1.8.6.9 1.1 1.9 2 2.6.7.6 1.8.9 2.7.9 6.3.3 12.6.7 19 .7.8 0 2.2-2.2 2.1-3.4-.1-1.1-1.7-3.1-2.6-3.1-5.1 0-10.2.5-16.3.9zm-53.5-71.1h14.9c1.2-2.8 2.4-5.5 3.7-8.5h-16.5c-.7 3-1.3 5.4-2.1 8.5zm58.8-.2h14.4c1-2.9 1.9-5.7 2.8-8.4h-16.8c-.1 2.8-.3 5.4-.4 8.4zm-29.6.3c6.9-.5 15.1 3 18.1-8-5.6-.4-11.4-.8-17.5-1.2-.2 3.3-.3 5.9-.6 9.2zm107.7 323.1c1.3 2.9 2 4.4 2.7 5.9 2.1 4.2 10.7 6.8 14.7 4.4.5-.3 1.2-1.1 1.1-1.5-.6-4.3-1.4-8.7-2.1-13-1.5 1.1-2.1 2.1-2.4 3.2-1.6 6.8-2.6 6.7-8.9 2.9-1-.8-2.5-1-5.1-1.9zm41.5-333.7c-.5 3.5-.8 6.2-1.2 9.1 5 .4 10.1.8 15 1.2.5-2.2 1.2-3.7 1.2-5.3 0-1.2-.8-3.3-1.6-3.4-4.4-.7-8.8-1.1-13.4-1.6zm-265 10.8h19.8V16c-3.8.3-7.6-.3-10.7 1-3 1.2-5.4 4.2-9.1 7.4zM203.5 436c0 8.5-.1 16.9.1 25.2 0 .7 1.7 2.1 2.1 2 1-.4 2.4-1.5 2.5-2.4.2-8 .1-16.1.1-24.3-1-.1-2.5-.3-4.8-.5zm41.9-340.3c-.4.2-1.7.9-3.1 1.6 1.4 1 2.7 2.8 4.1 2.9 6.4.5 12.8.7 19.3.6 1.2 0 2.3-2.2 3.5-3.4-1.2-.5-2.4-1.5-3.7-1.5-6.2-.2-12.5-.2-20.1-.2zm-71.9 267.5c-4.1.4-7.5 1.4-10.8 1-6-.7-11.9-2.4-17.8-3.4-2.2-.4-5.2-1-5.3 2.8 9.9 5.6 27.2 5.6 33.9-.4zm-74.3-9.3c-4-3.6-7.7-7.2-11.6-10.6-.4-.4-1.7-.3-2.2 0-3.4 2.1-3.4 6.3-.2 8.6 1.5 1 3.2 1.8 4.3 3.1 3.9 4.7 6.6 1.9 9.7-1.1zm197.9-217.5c-.6-3-1.1-5-1.4-6.6-10.5 2-20.4 3.9-30.3 5.9.1.2.1.5.2.7h31.5zm199.3 263c-1.6 3-3.1 5.6-4.2 8.3-1.1 2.4-1.7 5.1-2.5 7.6.4.1.8.3 1.2.4 7.7-12.8 12.2-31.1 8.5-35.6-2.1 6.1-4.2 12.2-6.4 18.4.8.2 1.9.5 3.4.9zM419.3 70.1l.3 2.4c10 .5 19.5-4.5 29.6-3.5.2-3.2.6-5.4-3.8-4.2-5.3 1.4-10.9 1.4-16.2 2.4-3.3.6-6.5 1.9-9.9 2.9zM225.8 48.3V56c2.9.1 5.7.4 8.5.3 2.9 0 6.2.9 6.1-4.1-.1-4.6-3.1-3.9-5.9-3.9h-8.7zm162.4 27.6c.2.5.5.9.7 1.4 9.8-1.2 19.5-2.4 29.3-3.6.2-.5.5-.9.7-1.4-1.1-.8-2.2-2.3-3.2-2.2-8.2.8-16.4 1.9-24.5 3.1-1 .2-1.9 1.7-3 2.7zM284.7 48.1c-.5 2.8-.9 5.2-1.4 7.8 4.4 0 8.4.1 12.4-.1.8 0 2.1-1.4 2.3-2.2.6-3.7-.1-6.3-4.9-5.6-2.7.4-5.6.1-8.4.1zM73.3 358.5c5.5 3.5 10.6 6.7 15.8 9.9.4-.4.9-.8 1.3-1.2-.4-1.8-.4-4-1.4-5.2-2.1-2.3-4.7-4-7.2-5.8-4.8-3.4-5.8-3.1-8.5 2.3zm-21.1 39.4c0 2.9-.9 5.8.2 6.9 2.3 2.4 5.4 5.1 8.5 5.6 2.9.5 6.3-1.6 9.5-2.5-6.5-3.5-11.9-6.5-18.2-10zM84 56.1c-5.1-7.6-6.5-8-17.7-5.5-.5 3.9-.9 7.3 5.3 5.7 3.8-.9 8.1-.2 12.4-.2zm-17.1-10c1.7.3 3.3.6 4.9.8 5.1.7 8.1-1.4 8-6.3-.1-5.3-4.7.2-6.3-2.2-.1-.1-1.2.6-1.8.6-6.3 0-6.8.6-4.8 7.1zm202 2.2c-6 0-12.5-2.1-14.5 6.9 2.9.3 5.8.8 8.7.9 6.5.1 6.7-.2 5.8-7.8zM99.5 126.7c-5.4-6.8-19.4-6.6-23.1 0h23.1zm287.4-52.6c-8.5 1.5-17.1 3-26.6 4.7 4.2 4 24.9.7 26.6-4.7zm45.9 50.2c9.6-2.5 17.7-4.6 26.6-6.9-9-2.6-16.7-.5-24.3 1.9-.9.3-1.2 2.6-2.3 5zM447 59.4c0-.5-.1-.9-.1-1.4-8.1 0-16.2-.1-24.3.1-1 0-2 1.8-3.1 2.8 1.1.5 2.2 1.4 3.3 1.3 5.8-.6 11.6-1.4 17.4-2.1 2.2-.3 4.5-.5 6.8-.7zM79.4 119.5H64.3c2 3.7 3.4 6.3 5.1 9.4 4.1-3.9 7.1-6.6 10-9.4zm81.1 279.9c1.7 4.6-2.7 9.1 1.4 13.2 1-4.7 2-8.8 2.6-12.9.1-1.1-1.3-3.5-1.7-3.4-3.7.6-7.4 1.6-11.9 2.6 3.5 1.5 5.9 5.5 9.6.5zm32-112.4c4.3 6.2 9.8 4.7 14.3 5.8 1.2.3 3-1.6 4.5-2.5-.2-.6-.4-1.1-.6-1.7-5.6-.5-11.2-1-18.2-1.6zm167.7 60c-1.3-1.9-2-4.4-3.5-4.9-2-.7-4.9-.5-6.7.5-1.1.6-1.1 3.7-.9 5.5.1.7 2.3 1.1 3.6 1.7.7-4.3 4-1 7.5-2.8zm139.7 30.3c.3-.2.7-.5 1-.7-1.2-3.9-2.5-7.8-3.8-12-2.5 6.7-4.7 12.4-7.5 19.6 3.3-3.5 5.6-6 7.9-8.5.6.3 1.5.9 2.4 1.6zm-305.8 79.2c-.1-.6-.1-1.3-.2-1.9-6.4.3-12.7.4-19.1 1.1-2.1.2-4 2.2-6 3.4.3.6.6 1.2.9 1.9l6.3-.6v-2.8c6.2-.5 12.1-.8 18.1-1.1zM79.8 46.1c3.8 0 6.2.1 8.6 0 1.2-.1 3.3-.5 3.3-.9.2-1.5-.4-3.1-.7-4.6-1.3.2-2.6.4-3.9.8-1 .3-1.8.8-3.3 1.5.9-1.9 1.5-3.1 2.1-4.3-.5-.3-.9-.5-1.4-.8-1.2 2.2-2.6 4.6-4.7 8.3zm76.6 369.4 2.1-1.2c-.6-2.5-.4-6-2-7.3-1.4-1.1-4.8.4-7.8.9 3.1 3.1 5.4 5.3 7.7 7.6zm34.9-61.1c1.4 2.8 7.5 4.8 9.6 3.2.7-.5.9-3 .3-3.6-3.1-3.4-6.4-1.5-9.9.4zm142.4 29.7.3.9c-3.2 1.3-6.3 2.7-9.5 4 .1.3.3.7.4 1 4.5-1.5 9.1-2.9 14.2-4.6-7.1-4.4-9.9-4.3-15.1.5 3.6-.7 6.6-1.3 9.7-1.8zM93.7 55.4c-1.2-6.9-5.6-8.2-11.3-3.8 3.9 1.3 7.3 2.5 11.3 3.8zm92.8 309.7c0 .5-.1 1.1-.1 1.6 2.8.6 5.5 1.4 8.3 1.7 1.4.2 2.8-.4 4.2-.6-1.1-1.2-2.1-3.3-3.3-3.4-2.9-.2-6 .4-9.1.7zM63.4 456.7c-7.5-4.6-14.6.3-21.7-.7v1.8c7.1-.3 14.1-.7 21.7-1.1zm-4.2 2c.1.3.2.6.3 1h21.4c0-.6-.1-1.3-.1-1.9l-21.6.9zm36-411.4c3-.9 5-1.5 7.1-2.2.1-.4.2-.9.2-1.3-2.5-1.5-5-3-8.6-5.2.6 3.8.9 5.9 1.3 8.7zm23.1 409.3h16.9c-2.6-3.7-11.6-3.9-16.9 0zm-60.1-25.9c-3.5-.9-6.1-1.7-8.9-2.4v7.9c3.4-2.1 5.9-3.6 8.9-5.5zM365 397.4l-.3-1.8c-6 .9-11.9 1.7-17.9 2.6.1.5.2.9.2 1.4 6-.7 12-1.4 18-2.2zm102 52c-3.2 1.1-6.2 2-9.1 3 .1.5.1.9.2 1.4 4-.3 7.9-.7 13.2-1.1-2-1.7-3.2-2.5-4.3-3.3zm-146.6-48.8c.2.5.4 1 .7 1.5 4.5-2.5 9-5 13.5-7.4-.3-.5-.5-.9-.8-1.4-4.5 2.4-8.9 4.8-13.4 7.3zM56.3 443.1c-2.5-1.6-4.6-2.9-7.7-4.9.7 3.3 1.2 5.5 1.7 7.9 2.2-1.1 3.9-2 6-3zm133.5-48c0 .5-.1 1-.1 1.5l13.5.9c0-.6.1-1.1.1-1.7-4.5-.3-9-.5-13.5-.7zM50.3 416.2c2.4-.4 4.4-.7 6.4-1.1v-1.7c-2-.9-4-1.9-6.4-3v5.8zM102.4 51c-.2-.9-.4-1.8-.7-2.6-1.8.4-3.8.6-5.4 1.4-.4.2.2 2.5.3 3.8 1.9-.9 3.8-1.8 5.8-2.6zm90 348.8c-3.8-1.8-6.2-2.9-8.8-4.1v4.9c2.7-.2 5.1-.4 8.8-.8z"/>
  <path d="M429.5 473c1.7-.3 3.3-1 5-1 21.3-.1 42.7-.1 64-.2 11.3 0 22.6-.1 34-.1 13.5-.1 27-.1 40.5-.3 5.1-.1 10.3-.7 15.7-1v-6.2c0-74.5 0-149-.1-223.4 0-13.3-.7-26.7-.7-40 .1-23.5.7-46.9.7-70.4 0-24.4-.6-48.7-.8-73.1-.1-13.5 0-26.9.1-40.4 0-4.1.5-8.2.7-12.3.2-2.5-.7-3.5-3.4-3.5-21.8.3-43.6.7-65.5.8-12.2 0-24.4-.5-36.6-.6-8.2 0-16.3.5-24.5.6-17 .1-33.9-.1-50.9-.1-2.2 0-4.4.3-6.6.4-6.2 0-12.4-.1-18.6-.1-12.1 0-24.3 0-36.4.1-22.2 0-44.5 0-66.7.1l-113.8.6c-18.1.1-36.2.2-54.3.1-9.7-.2-19.3-1-29-1-14 0-28.1.7-42.2.8-11.4 0-22.9-.4-34.3-.8C2.1 1.8.9 3.2.9 6.8c.2 16.8.2 33.5.1 50.2 0 1.7-.6 3.3-1 5V0h589.5v473h-160zM0 135c.4 1.5 1 3 1 4.5.2 37.1.3 74.3.5 111.4.1 15.7.2 31.3.1 47 0 7.1-.7 14.3-.6 21.4 0 6.4.9 12.9.8 19.3-.1 13.9-.7 27.7-.8 41.6 0 7.1.9 14.2.9 21.4 0 9.5-.6 19.1-.7 28.6-.2 12.5-.1 25.1-.2 37.8 0 1-.6 2-1 3V135zM185.2 473c1.6-.2 3.3-.5 4.9-.6 29.4-.1 58.8-.1 88.2-.4 14.2-.1 28.3-.9 42.5-1 9.1-.1 18.2.8 27.4.9 19.7.1 39.5 0 59.2.1 1 0 2 .6 3 1H185.2z" fill="#fff"/>
  <path d="M136.4 460.2c8.1.9 10 2.3 11.3 8.7h-42.6c-4.4 0-8.9.3-13.3.4-18 .2-36.1.5-54.1.5-8.4 0-16.9-.6-25.3-.9-2.6-.1-6.1.9-7.7-.4-1.3-1.1-.7-4.8-.7-7.3 0-11.6.2-23.3.2-34.9 0-12.5-.3-24.9-.1-37.4.1-12.7.6-25.4.8-38.1.1-6.5-.4-13-.4-19.6-.1-14.2 0-28.4 0-42.6 0-12.2 0-24.3-.1-36.5v-38c0-13.4-.1-26.9-.1-40.3 0-16.4.1-32.8-.1-49.1-.2-15.4-1-30.8-.9-46.2-.2-19.5.4-38.9.7-58.4 0-3.7.4-7.4-.2-11C3.3 5.6 5 5 7.5 5c10 .2 19.9.8 29.9.8 10.5 0 21-.7 31.6-.8 4.8-.1 9.6.6 14.4.7 2.2.1 4.5-.3 7.2-.5-.7 2.8-1.3 5.4-2 8.6-6.3 0-13 .1-19.6 0-4.2-.1-6 1.5-5.9 5.9.3 11.8.5 23.7.5 35.5 0 20.9-.3 41.8-.3 62.8 0 9.8.6 19.6.8 29.5 0 2.3-.7 4.5-.7 6.8-.1 6.4.9 7.6 7.4 7.6 6.3 0 12.5-.5 18.8-.5 9.5 0 18.9.4 28.4.4 26.2-.2 52.3-.5 78.5-.7 9.7-.1 19.4 0 29.6 0v11.8c-3.9.6-9.2-1.4-10.6 4.9-.4 1.6-1.1 4.3-.6 4.5 2.2 1.2 4.9 2.5 7.2 2.2 4.5-.6 7.4-5.4 7.5-10.5v-13.1h55.5c-.4 2.7-1.7 5.3-.9 6.3 1.5 1.8 4.2 3.5 6.4 3.6 4.3.2 8.1-1.9 9-6.5.6-3.2 2.2-4.1 5.1-4.1 8.4 0 16.8-.3 25.2-.2 11.3.2 22.5.8 33.8.9 7.7 0 15.4-.9 23.1-.9 11.2.1 22.3.7 33.5.9 2.4 0 4.9-.8 7.3-.7 1.5.1 3 1.1 4.9 1.9-4.9 1.3-8.9 1.7-12.3 3.4-1.9.9-4.3 4.6-3.8 5.9 1.5 3.4 5 5.2 9.1 4.2 4.5-1.1 8.7-6.1 8.7-11.3 0-3.4.6-4.2 4.1-3.8 3.9.4 7.9-.3 12.4-.5-.6 1.5-1.5 2.7-1.3 3.8.3 1.7.8 4 2.1 4.8 3.7 2.2 11.7 0 13.7-3.9 1.9-3.7 4.4-4.9 8.5-4.8 16.1.2 32.2.1 48.4 0 3.8 0 7.5-.1 11.3-.5.9-.1 2.3-1.5 2.3-2.3 0-14.6 0-29.2-.2-43.9-.2-16.2-.6-32.5-.7-48.7-.1-14.1 0-28.3 0-42.4v-10c-19.4 0-39 .1-58.5 0-9.1-.1-18.2-.6-27.3-.7-2.8 0-5.6.2-8.3.9-5.6 1.4-7.4-2.2-9.2-6.8 1.4-.1 2.5-.2 3.6-.3 12-.3 23.9-.7 35.9-.7 9.9 0 19.8.6 29.7.5 10.8-.1 21.6-.9 32.4-1 16.1 0 32.1.5 48.2.7 3.6 0 5 .9 4.2 5.1-.9 4.5-.5 9.3-.4 14 .1 7.9.4 15.8.4 23.7 0 8.1-.5 16.1-.4 24.2.1 10.9.8 21.7.9 32.6.2 21.5.1 43 .2 64.5 0 6.3.6 12.7.6 19 0 3.1-.4 6.1-.8 10.1-2.9-2.5-5-4.9-7.6-6.3-11.8-6.4-24.2-11.4-37.8-12.6-10.7-.9-21.4-2.7-32.1-2.7-11.5 0-23 1.5-34.4 2.8-8.8 1-17.6 2.1-26.2 4.3-14.3 3.5-28.4 7.7-39.1 18.7-2.5 2.6-4.8 2.1-7.6 1.1-10-3.5-16.5.6-17.8 11 4.3.5 8.5.9 12.8 1.5 3.7.5 4.5 2.3 3.2 6-3.3 9.3-6 18.7-6.4 28.7-.4 10.2-1.5 20.3 1.5 30.2 1.5 5.2 10.1 12.4 15.4 12.5 4.4.1 8.7 0 13.3 0 .2 1.1.6 2 .3 2.7-4.4 12.9 5.2 20.4 14.5 24 13.3 5.2 26.9 8 41.2 8.3 9.3.2 18.8 2.4 27.9 1.4 11.5-1.3 24-2.4 32.5-11.8 3.1-3.4 4.2-8.5 5.9-13 .6-1.6.1-3.6.1-5.6 14.9-1 28.1-5.7 40-15.9.4 2.3.9 3.8.9 5.2.1 27.8.1 55.7.3 83.5.1 12.5.9 25 .8 37.5-.1 8.3-1.5 16.5-1.6 24.8-.1 9.8.5 19.6.9 29.3.2 3.5-.6 4.8-4.7 4.5-6.8-.5-13.6 0-20.4 0-12 0-23.9-.3-35.9-.1-12.9.2-25.7 1-38.6 1-53.2.2-106.4.2-159.6.2-14.4 0-28.7.1-43.1 0-11.8-.1-23.5-.5-35.3-.4-18.4.1-36.9.5-55.3.8-9 .1-18 .2-27.1.1-1.9 0-3.8-.7-5.7-1.1 4.3-7.2 11.6-5 17.9-5.9 5.6-.8 11.3-.8 16.9-1.2 0-.6-.1-1.2-.1-1.8-2.9.2-5.8.5-8.7.7 0-.4-.1-.7-.1-1.1 3.7-.5 7.5-1 11.4-1.5.9-5.1.9-5.2-4.6-5.1-5.6 0-11.2.2-16.7.1-.9 0-1.9-.9-2.8-1.4 1-.6 2-1.6 3-1.6 6.5-.1 13-.1 19.5-.1v-1.5h-20.5c1.8-6.8 3.2-12.7 5.1-18.4.4-1.3 2.6-2.6 4.2-3 5.5-1.3 10.5.7 15.1 3.3 1.1.6 1.5 3.2 1.5 4.8-.1 2.8-.9 5.5-1.3 8.3-6.3.3-12.7.6-19.1 1 0 .4.1.8.1 1.2h19.5c0 5.5-.2 10.9.1 16.4.1 1.6.9 4 2 4.5 1.2.6 3.3-.6 4.9-1.1.7-.3 1.4-1.2 2-1.2 6.3 0 12.5.4 18.8.1 14.2-.7 28.5-1.7 42.7-2.7 6.9-.5 13.8-1.6 20.7-2 11.8-.6 23.6-.9 35.3-1.2 13.1-.4 26.2-.8 39.4-1.1 2.4-.1 4.7.3 7.1 1-5.6.5-11.1 1.1-16.9 1.7 2.3 1.9 16.6 1.2 30.7-.2 10.4-1 20.9-.9 31.2-2.1-8.3 0-16.7.3-25-.2-3.6-.2-8 2.6-10.9-2.5-.5-1-4.3-.2-6.5-.1-19.2.3-38.3.4-57.5.9-6.4.2-12.8 1.4-19.1 1.8-4.2.3-8.4-.1-12.6.2-17.7 1-35.3 2-53 3.2-7.6.5-15.2 1.7-22.9 2.6-.2-.5-.3-1.1-.5-1.6.7-.6 1.4-1.7 2.2-1.8 6.5-.6 13.1-.9 19.6-1.4 7.1-.6 14.1-1.4 21.2-1.9 8.5-.6 17-.9 25.5-1.5 10.7-.8 21.4-2 32.1-2.6 17.3-.9 34.7-1.4 52-2.1 9.8-.4 19.6-.8 29.3-1.2v-1.8c-21.8.8-43.7 1.6-65.5 2.4 0-.6-.1-1.3-.1-1.9 10.1-.6 20.2-1.2 30.3-1.7 0-.5-.1-1-.1-1.5-5.4.3-10.7.6-16.1.8-8 .4-16.1.6-24.1 1-12 .6-23.9 1.3-35.9 2-6.8.4-13.6.7-20.4 1.1-13.4.9-26.9 1.9-40.3 2.8-2.2.2-4.5.4-6.7.2-1.4-.1-2.7-.8-4-1.3.1-.5.1-1.1.2-1.6 7-.7 14-1.7 21-2.1 10.9-.6 21.9-.7 32.9-1.2 13.3-.6 26.7-1.5 40-2 12.4-.5 24.9-.7 37.3-1.1 3-.1 6.1.1 9.1-.1.9-.1 1.8-1 3.8-2.2-2.4-.4-3.4-.7-4.4-.7-7.3.3-14.6.7-21.9 1-4.4.1-8.7-.1-13.1.1-7.6.3-15.2.7-22.9 1-10.9.4-21.8.6-32.7 1.1-10.9.6-21.8 1.5-32.7 2.2-5 .3-10 .6-16 1 1.2-7.2.2-14.6 7.5-18.7 2.3-1.3 5.2-2.1 7.9-2.1 13.3-.3 26.5-.3 39.8-.4 9.6-.1 19.3.2 28.9-.1 7-.3 14.1-.6 20.8-2.2 4.7-1.1 9.3-3.8 13.3-6.7 8.4-6.1 17.2-9 27.4-5.5 2.2.8 4.5 1.1 5.7 1.4V443h26.5c-1.9-1.5-2.5-2.5-3.3-2.5-3.2-.1-6.4-.4-9.5.2-7 1.3-8.9.2-8.5-6.3.4-6.3 1.8-12.6 2.7-18.8.8-5.7 5.6-6.7 9.7-8 2.5-.8 5.4 0 8-.5 5.2-1 7.8-4.8 9.2-10.5 2.9 2.6 5.8 4.3 7.3 6.9.8 1.3-.7 4.5-1.9 6.2-3.7 5.1-8 9.8-11.6 15-.9 1.3-.3 3.7-.3 5.6 0 1.4.7 3.1.1 4.1-4.2 6.7.7 12.1 7.7 13 1.6.2 3.5.5 5 0 4.4-1.6 6.6 1.1 9.4 4.6-7.4.5-14.4 1.1-21.4 1.6v1.9c13.3-.6 26.9-3.1 39.6 3.4H420v1.7c3.4 0 6.7.1 10.1 0 13.2-.4 26.5-.9 39.7-1.4 26.1-1.1 52.3-2.2 78.4-3.3 3.1-.1 6.2.2 9.3.2 1.2 0 2.3-.5 3.5-.7-.1-.7-.1-1.3-.2-2-25.1.7-50.3 1.4-75.4 2.2 0-.5-.1-1-.1-1.5 16.4-3.4 33.3-1.8 49.9-2.9 0-.6 0-1.3.1-1.9h-11.5c-4.5 0-9 .1-13.5.1h-13.2c2.2-3.2 4.6-6.4 6.7-9.7 6.5-10.4 8.6-22.1 9.6-34 .5-5.5-.3-11.1.2-16.6.6-6.5-3.3-9.9-7.5-13.5-.9-.8-2.2-2-2.2-3.1-.2-10.2-8-15.1-14.4-20.9-2.6-2.4-6.1-3.8-9.2-5.7-1-.6-2.5-1.2-2.7-2-2.4-10.4-11.8-10.8-19.4-13.1-10-3-20.8-3.6-30.4-7.5-13.6-5.5-26.5-12.7-39.4-19.7-3.4-1.9-5.1-6.5-9.4-7.9-.5-.1-.5-3-.1-4.4 2.1-7.9 5.2-15.5 6.3-23.5 2.1-15.4 2.2-30.9-6.8-44.8-4.5-7-9.6-13.3-16.8-17.8-3.3-2-4.7-5.1-5.1-8.8-.2-1.8-.8-3.6-2.3-5.3-.1.6-.1 1.2-.2 1.8-.1.6-.2 1.1-.6 3.1-1.7-3.3-2.8-5.5-4.6-8.9-.6 2.3-.9 3.4-1.3 4.7-1.1-.6-2.3-1.2-4.6-2.5 1.2 2.4 1.8 3.5 2.9 5.7-2.5-.9-4.2-1.4-5.8-2.1-15.7-7.3-30.6-3.4-45.4 3-11.2 4.9-20.1 12.8-27.8 21.8-7.8 9.1-13.4 19.7-15.1 32-.7 5-1.8 5.3-6.2 2.3-4.1-2.8-7.6-2.7-9.7.9-1 1.8-1.4 4.6-.9 6.6 1.3 4.9 3.3 9.6 5 14.3.5-.1 1-.2 1.4-.3-.1-1.2.1-2.5-.3-3.7-1.1-3.3-2.8-6.4-3.7-9.7-.4-1.5-.2-3.7.7-4.9.5-.7 2.9-.6 4.3-.3 1.9.4 3.8 1.2 5.6 2 4.2 1.9 6 .9 6.3-3.6 1.3-19.1 11.7-32.6 25.9-44.2 6.3-5.2 13.1-9 20.7-11.8 15.3-5.6 30.1-5 44.8 2 1.9.9 4.2 1.1 6.3 1.6.5.1 1.1 0 1.4.3 5.8 5.6 12 10.9 17.4 16.9 8.6 9.6 11.3 21.2 12.5 33.9 1.3 13.4-2.9 25.4-6.5 37.8-.5 1.8-.8 3.8-.5 5.6 1.2 7.2-.3 13.9-2.9 20.4-3.5 8.6-6.9 17.2-10.4 26.1-5.2-2.7-10.2-5.1-15-7.7-6.6-3.5-13.5-2-19.8 0-8.4 2.6-16.5 3.2-25 1.9-3-.4-6.1-.3-9.2-.5-.2-.5-.4-1-.6-1.4 2.2-1.5 4.4-2.9 6.4-4.4 2.3-1.7 5.8-3.4 4.2-6.9-1.6-3.4-5-4.5-8.9-3.3-7.7 2.5-15.5 4.9-23.9 7.6-2.8-5-5.6-9.9-8.3-14.8-1.9.5-4 1.5-6.2 1.5-1.8 0-4.9-.8-5.2-2-.7-2.4-.3-5.2.2-7.8.2-1.1 1.5-2.3 2.5-2.9 5.4-2.9 4.6-7.5 3.7-12.2-.6-3-.7-6.1-1.1-9.3 1.9-.6 3.2-1 3.8-1.1-2-5.1-3.8-9.8-5.4-14-1.5 5-3.1 10.4-5 16.5 1.3-1.2 2.1-1.9 3.1-2.8 1.1 5.4 2.5 10.4 2.9 15.6.1 1.7-2 3.8-3.4 5.4-2.8 3.1-7.2 5.2-5.3 10.5 3.2 8.9 3.2 8.9 14.4 6.7 1.2 2.4 2.5 4.9 3.7 7.4 2.5 5.5 5.4 6.6 12.1 4.4 5.9-1.9 11.7-4.1 17.7-5.7 1.4-.4 3.2 1.1 4.9 1.7-1 1.2-1.8 2.6-2.9 3.6-1.5 1.3-3.4 2.1-4.8 3.4-1.3 1.2-2.1 2.9-3.1 4.4 1.6 1.1 3 2.6 4.7 3.1 11.3 3.3 22.4 2.7 33.6-.8 7.2-2.2 14.6-2.6 22.1 1.3-3.7 4.4-7.1 8.5-1.4 13.9-3.6.3-6.1.3-8.6.7-10 1.4-20.1 2.8-30.1 4.4-4.8.7-9.9 1.2-14.3 2.9-3.1 1.2-5.3 4.5-8 6.7-1.8 1.4-3.8 3.5-5.7 3.5-11.8.1-23.6-.3-35.4-.3-3.2 0-6.4.9-9.5 1.4.3 3.6.5 6.5.8 9.7-1.4.6-2.7 1.7-4 1.6-6.2-.4-9.7 2.9-12.2 8.1-.5 1-2.3 2-3.5 2.1-7.2.2-14.4.1-21.6-.1-.6 0-1.9-1.9-1.7-2.3.5-.9 1.8-2.2 2.6-2.1 8.6.9 9.3.3 7.4-7.8 5.1-4.2 5-4.9.6-10.1-2.5-2.9-4.6-6.3-7.3-10 1.6-.2 2.7-.1 3.4-.5 1.5-.9 3.8-2.1 4-3.4.3-1.8-.7-4.3-2-5.6-1.2-1.2-3.9-2.2-5.4-1.7-6 2.1-11.9 4.8-17.8 7.4-2.4 1-4.6 3.3-7 3.3-8.9.1-17.9 1.8-26.5-2.5-3.3-1.7-7.2-2.1-10.8-3.4-1.7-.6-3.1-2-4.6-3 1.3-1.4 2.3-3.9 3.8-4.2 6.3-1.1 12.7-1.3 19-2.3 4.8-.7 9.6-1.6 14.1-3.4 3-1.2 2.4-3.3-.5-5.4-6.7-4.9-10.7-11.7-12.9-19.9 6.2-1.7 9.8 2.1 13.8 4.8 5.6 3.8 11 8 16.7 11.8 3.2 2.2 5.4.7 6.1-3.2.3-1.8 1.2-4.2 2.7-5 6.7-4.2 7.1-8.1.8-13-.8-.6-1.5-1.3-2.1-1.9 2.3-7.1 9.9-11.3 17.2-10.3 3.6.5 7.5.2 11.1-.6 6.7-1.4 8.4-7.2 9-12.8 1.2-12-2-22.4-12.3-29.7-6.1-4.3-10.7-9.6-13-17-1.5-4.7-4.6-8.8-6.7-13.4-2.8-6.1-5.1-12.4-7.9-18.4-2.4-5-6.7-7.8-11.8-10-6.7-3-12.7-7.8-19.6-10.2-11.5-3.9-23.3-6.1-34 2.7-2.5 2.1-5.4 3.7-9 4.8 2.5-2.8 5.1-5.6 7.6-8.4-4.4 1-10.6 8.2-16.3 19.1-1.1-.5-2.1-1-3.7-1.8-.9 2.7-1.7 5.2-2.7 7.6-.4 1.1-1.2 2.2-2.1 2.9-7.8 5.8-12.7 13.7-15.8 22.7-2.8 8.2-5.2 16.6-7.3 25.1-.6 2.5-.1 5.8 1 8.2 4.5 9.7 10.1 19 13.9 29 3 8 9.8 14.7 8.9 24.1-.2 2.4-1.2 4.8-1.9 7.1-.2.6-.7 1.5-1.1 1.6-7.9.7-10.8 7.6-15.2 12.5-5.8 6.5-12.1 12.7-16.6 20-5.2 8.3-9.5 17.5-12.8 26.7-2.5 7-3.1 14.6-4.1 22.1-.3 1.9.9 4.1 1.9 6-.8 11.2-7.3 22.7 2.1 34.3-7.8.5-15.4 1.1-23.1 1.6 0-.4-.1-.7-.1-1.1l14.1-2.4c-.1-.5-.2-1.1-.3-1.6-10.9.8-21.8 1.7-32.7 2.5v2.2h9.5c0 .3.1.6.1 1-1.2.5-2.5 1.1-3.4 1.5 1.4 1 2.6 1.9 3.8 2.7.6.5 1.2 1.2 1.9 1.3 13.2 2.2 26.3 2.9 39.6.9 3.1-.5 6.3-.1 9.5.4-1.9.2-3.8.4-6.9.7 1.5 1 2.3 1.9 2.9 1.8 2.6-.3 5.1-1.2 7.6-1.2 3.6 0 6.9.3 9.1-3.5.6-1 2.7-1.4 4.2-1.5 4-.5 7.9-.9 11.9-.9 3.4 0 6.9.7 10.3.8 8.2 0 16.3-.2 24.5-.2.9 0 1.8 1.2 2.8 1.8-18-.1-35.9-.2-53.8 2.5 2.9 1 5.7 1 8.6 1 12.4-.1 24.7 0 37.1-.7 2-1.1 6.7 1.6 7.7-3.8zM58.9 157.7c.5-.1 1-.2 1.6-.3-1.5-4.9-3.4-9.8-4.3-14.8-1.4-7.8-2.5-15.6-2.8-23.5-.2-4.2 2.3-8.3 2.6-12.6.3-4.5.6-9.7-1.3-13.6-2-4.3-3.8-7.4-.7-11.9 3.2-4.6 1.8-10.3 1-15.4-1.8-12.2-3.8-24.3 1-36.3 1.5-3.9 2.6-8 4.1-12.6-1.3.6-2 .6-2.1.9-4.7 11.1-9.1 22.2-7.9 34.6.6 6.5 1.8 12.9 1.9 19.3.1 4-.8 8.2-2.3 11.8-1 2.4-1.4 3.6 0 6 1.8 3.5 3.4 7.7 3.2 11.4-.3 5.9-3.2 11.8-3.2 17.7 0 13.8 2.8 27.1 9.2 39.3zm500.2 302.7c-.1-.5-.2-1-.2-1.5-2.9-.4-5.9-1.1-8.8-1-14.8.5-29.5 1.3-44.3 1.9-7.5.3-15.1.5-22.6.8-12.7.5-25.4 1-38.1 1.6-1.2.1-2.4.6-3.6.9.1.3.2.6.2.9 39.2-1.2 78.3-2.4 117.4-3.6zM324 278c4.3 2.3 9.5-.5 10-5.8.5-5.2-1.1-9.5-4.2-13.8-2.5-3.6-5.8-6-9.4-4-3.4 1.8-5.8 5.6-8.4 8.7-.4.5.3 1.9.6 3.2 2.3-2.8 3.8-6.5 6.3-7.2 2.4-.7 6.5.7 8.4 2.6 2.1 2.1 4 6.2 3.3 8.7-.7 2.9-4.3 5.1-6.6 7.6zM218.4 441c.1.9.1 1.8.2 2.6 7.7-.7 15.3-1.5 23-2.1 7.5-.6 15-.9 22.5-1.3-.1-.6-.1-1.2-.2-1.8-15.2.9-30.3 1.7-45.5 2.6zm-.2-85.4c1.7-4 .2-7.6-4.2-10.2-8.4-4.9-18.7-6.2-21.3-2.8 9.5 1.8 21 0 25.5 13zm10.1 3.4c4.9-4.3 5.9-6.9 4.2-9.7-3.5-6-10.9-9.8-16-8 6.1 4.4 18.2 4.7 11.8 17.7zm38-56.6 2.4-1.5c-1.8-2.6-3.5-5.1-5.3-7.7-.6.4-1.2.8-1.9 1.2 1.6 2.6 3.2 5.3 4.8 8z" fill="#fff"/>
  <path d="M66 60.1c9.7-.6 18.3-1.1 28.2-1.7.2 5.6.7 11.3.5 17-.1 1.5-2.1 3.5-3.7 4.2-.8.4-2.6-1.6-4.3-2.7 5.8-3.4 6.6-5.3 3.6-7.2-.7-.5-2.5-.6-2.6-.4-1 2.5-2.7 5.3-2.2 7.7.4 2.2 2.9 4.9 5 5.5 1.4.4 4.2-2.2 5.5-4.1 4.3-6.1.4-12.5.7-19.5h112.5v39.8c0 7.5 1 8.1 8.2 8 11.8-.2 23.6.2 35.3.1 6.5 0 13-.6 19.5-.7 7.3-.1 14.7-.1 22-.1 4.5 0 6.2-2.3 6-6.5-.4-12-.6-24-1.1-35.9-.2-4.4 1.3-5.7 5.7-5.7 16.6.2 33.2 0 49.7 0 1.5 0 2.9.1 4.7.2v28.2c7.3 2.3 14.2 0 21.2-1 6.4-.9 12.8-1.7 19.2-2.7 5.1-.8 10.1-2 15.2-2.9 6-1 12-1.9 18-2.8 5.3-.8 10.6-1.2 15.8-2.3 1.5-.3 2.7-2.7 3.6-4.4.5-1.1.2-2.6.1-3.9-.7-9-.6-8.6 8.6-8.4 19.7.3 39.4 0 59.1-.1 2.3 0 4.7-.5 7-.8 3.6-.5 5.3 1.2 5.3 4.7v51.2c-7.5 0-14.6-.1-21.7 0-4.4.1-8.9.8-13.3.9-8.4.2-16.8 0-25.2.1-3.2.1-5.1-.7-4.9-4.4.1-3.7-1.1-5.3-5.5-4-9.2 2.8-18.5 5.1-27.9 7.5-2.5.6-5.1 1.3-7.6 1.3-13 0-26-.4-39-.3-18.5.2-37 .8-55.4.9-23.2.2-46.3.1-69.5.2-24.6.1-49.1.3-73.7.4-21.1.1-42.3.1-63.4.3-12.9.1-25.8.8-38.7 1-6.1.1-12.2.1-18.3-.3-.9-.1-2.3-2.5-2.3-3.8-.2-8.5-.2-17-.2-25.5.3-9.1.3-18.2.3-27.1zM215.3 291.2c1-12.7.6-16.7-3-20.7.3 5.7.7 11 1.1 17.7-8.3-6.3-18.7.4-26.2-8.1 4.4-1.7 8.2-3.1 12.7-4.8-4.9-2.2-11.9.7-16.2 6.4 5.5 5 11 10.1 17.2 15.8-3.3 1.9-7.4 3.8-11 6.3-2.3 1.6-4.1 4.1-5.8 5.9 2.4.7 4.6.9 6.3 2 2.1 1.2 4.4 2.8 5.5 4.8.6 1.1-1.3 3.4-2.3 5.9-1.8-2-2.9-3.2-4.9-5.5v12.8c-.5.4-1.1.7-1.6 1.1-4-2.9-7.9-5.8-12-8.6-4.7-3.3-9.3-6.8-14.4-9.4-2.1-1.1-6.5-1.3-7.7 0-1.4 1.6-1.4 5.8-.3 7.9 3 5.4 6.9 10.4 10.5 15.5.7 1 1.2 2.1 1.8 3.1-1.1.5-2.2 1.3-3.4 1.3-4.9.2-9.7.3-14.6.2-6.4-.2-12.1 1.1-16.2 6.5-1 1.3-2.3 2.3-3.4 3.3-8.6-4.7-17-9.3-25.4-13.7-2.1-1.1-4.3-2.6-2.6-4.8 7.7-9.8 2.3-18.1-2.3-26.7-5.5-10.2-10.9-20.5-16-30.9-3.4-7.1-3.5-14.5-1-22.1 1.1-3.3.3-6.7 4.6-9 1.7-.9 1-5.8 1.8-8.8.3-1.2 1.8-2.1 2.8-3.1.7-.8 1.5-1.6 2-2.5 2.6-4.4 5.1-8.9 7.8-13.7 1.6 1.5 2.8 2.6 4.3 3.9 0-2.7-.1-4.7 0-6.7.1-1.8.4-3.6 1.8-5.5.7 1.2 1.4 2.3 2.2 3.6.4-.2 1.1-.4 1.2-.7 2.8-6.4 6.8-11.8 12.7-15.7.4-.3.7-.9 1.1-1 7.9-1.6 15.8-3.7 23.9-4.4 5.2-.4 10.5 1.5 17.1 2.5-2.3 2.1-3.2 2.9-4.1 3.7.4.4.6.7.8.7 6.9-1.6 10.5 3.3 14.3 7.5 2.6 2.8 5.2 5.5 7.8 8.2.4-.3.8-.7 1.2-1-2.7-3.4-5.5-6.8-8.3-10.3 5.5-.3 11.7 4.6 14.3 11.6 2.9 7.7 5.3 15.7 8.2 23.4 3.6 9.6 9.7 17.4 18.1 23.5 9 6.7 13.1 15.5 10.3 26.8-.3 1.1-.1 2.3 0 3.5 0 4.1-2 6.5-6.1 7.1-3.4.4-6.9.8-10.3.7 10.1-5.2 13.2-10.6 8.9-17.2-.4 2.4-.5 4.5-1.1 6.4-.5 2-1.4 3.6-2.1 5.3zM92.5 280l-1.5.6c-.1.5-.2 1-.1 1.4 2.2 10.1 7.6 18.8 12.7 27.6.7 1.1 3.1 1.6 4.7 1.7.5 0 1.5-2.3 1.6-3.6.6-7.2 2.8-13.6 8.1-18.9 1.6-1.6 2.1-4.1 3.1-6.2-.4-.2-.7-.4-1.1-.6-2.6 2.8-5.2 5.7-7.8 8.6-.2-1.9-.3-3.7-.4-5.6h-1.2c-.7 4.1-1.4 8.3-2.2 13-1.1-1.3-1.8-2-2.4-2.7-1 .7-1.8 1.3-2.7 2-.3-1-.4-1.9-.8-2.9-.3-.9-.8-1.8-1.6-3.7-.8 2.5-1.2 3.6-2.1 6.1-2.4-6.3-4.4-11.6-6.3-16.8zm57.9-9c1-5.8-2.7-9.4-6.6-12.7-4.1-3.4-6.7-2.9-10.9.5s-6.3 7.8-7.8 12.8c-1.3 4.4-.5 8.1 3.6 11.4 4 3.2 7.5 2.3 11.7-.5-3.8-.8-8.4-.4-9.7-2.4-1.9-2.6-2-7-1.6-10.5.6-4.4 2.4-8.9 7.7-9.8 5.7-1 9.1 2.1 13.6 11.2zm14.1-9.2c-.6-1.7-1-2.9-1.4-4.1-5 3.3-8.5 9.8-7.3 14.1 1.6-2.6 2.9-4.8 4.3-7.1.3.2.7.5 1 .7l-1.2 5.7c.4.1.8.3 1.3.4 2.6-3.9 5.1-7.9 7.7-11.8-.3-.2-.6-.4-.9-.7l-3.5 2.8zm27.1 6.3c-.2-.5-.3-.9-.5-1.4-5.1 1.3-10.2 2.7-15.3 4 .2.6.3 1.2.5 1.7 5.1-1.7 11.1 0 15.3-4.3zm-12.5-4.4c-3.5 1.4-6.9 2.8-10.6 4.3 3.4 3.5 3.4 3.5 10.6-4.3zM311.8 397.4c5-1.9 9.9-3.6 14.8-5.5 5.1-1.9 10-4.1 15.2-5.8 1.5-.5 3.8.3 5.1 1.2 2.9 2.2 5.2 2.1 8-.2 2.5-2.1 5.1-2.3 8.6-1.5 7.1 1.6 14.1 3.9 21.7 2.6 5.3-.9 10.5 8.1 8 13.1-.2.4-.6 1-.9 1.1-4.2.4-8.5.7-14.8 1.3-5.3 3.9-13.4-2-20.8 1.3 0-.8-.1-1.6-.1-2.4 3.5 0 7 .2 10.5 0 5.4-.4 10.8-.8 16.1-1.8 1.6-.3 2.8-2.5 4.1-5.1l-13.2 1.2c0-.6 0-1.2-.1-1.7h3.8c0-.4 0-.8.1-1.1h-11.2c0-.5 0-1.1-.1-1.6 4.6-.3 9.1-.7 13.8-1-.3-.7-.4-1.2-.5-1.2-6.6-.8-13.2-1.6-19.9-2.2-.7-.1-1.5.9-1.8 2.5-16.3-3.6-30.8 2-44.6 11 1.2.1 2.5.2 3.7.3l1 1c-1.8.9-3.7 1.7-5.5 2.6.5.5.9 1.1 1.4 1.6 1.5-1 2.9-1.9 4.4-2.9.3.3.6.6 1 .8-2.2 2.5-4.4 5-7.4 8.3 3.4-1.9 6-3.3 8.6-4.7.1.2.1.4.2.5-2.7 2.4-5.4 4.7-9 7.9 3.5.8 5.1 1.1 6.6 1.5v.8c-3.7.6-7.4 1.5-11 1.6-19.3.5-38.5.7-57.8 1.2-14.7.4-29.4 1.2-44.1 1.6-7.4.2-14.8 0-22.6 0 .5-4.9.9-8.9 1.4-13.6 3.3.4 6 1 8.8 1.1 9.4.1 18.9 0 28.3-.2 1.3 0 3.6-.8 3.8-1.6 1.2-4.7 5.7-5.2 8.8-6.9 7.9-4.3 8.1-3.9 5.5-13.4 27-1.2 53.9 3.5 81.5-2.4-3.7 4-6.4 7.1-9.4 10.7zm-79.9 14.2c-3.9 3-7.2 4.1-11.9 2.9-4.1-1-8.8-.4-13.1 0-1.1.1-2 2-3 3 1.3.3 2.6.7 3.9.7 4.8-.1 9.7-.4 14.5-.5 6.7-.2 14 1.5 17.9-6.4.3-.6 1.6-.6 2.5-1 2.3 6 7.5 9.1 13.5 8.1.1-2.3.2-4.6.4-8.3 3.7 2.5 6.6 4.4 9 6.1.8-2.5.8-4.6 1.9-5.5 3.1-2.3 6.6-4.1 10.9-6.7-.1 1.4.2 2.8-.4 3.7-.9 1.5-2.9 2.5-3.3 4-.4 1.6.7 3.6 1.1 5.4 1.4-.4 3.7-.5 4-1.3 2.4-6.5 6.8-4 11-2.7.5.1 1 .5 1.4.4 2-.7 4-1.4 6-2.2l-2.7-3.6c-.4-.6-.8-1.3-1.8-2.7 7.6 2.4 12.9.7 16.9-6.9-4.5-.7-9.2-2.9-12.5-1.6-3.1 1.2-4.8 6.2-6.9 9.4-2.7-3.3-5.3-6.6-8-9.7-2.5-2.8-9.1-3-10.7.2-2.2 4.2-4.6 3.9-6.9 2.8-.9-2.4-1.4-4.1-2-5.7-2.4 1.4-4.8 2.8-7 4.4-.5.4-.1 2-.1 3.9 2-3 3.3-4.9 4.5-6.7.4.3.8.5 1.1.8-.9 3.8-5.8 6.4-3.3 11.1-1.8.8-3.5 2-5.3 2.1-1.4.1-2.8-1.3-4.2-2.1 1.2-3 2.3-5.6 3.8-9.3-5.5 1.5-10.6 1.1-9.8 7.7.1.5-.4 1.3-.8 1.6-3.4 2.8-6.9 5.5-11 8.7.1-1.9.3-3 .4-4.1zM424.5 5.3c-4.3 3.5-6.8 7.2-13.2 7-18.3-.5-36.6.5-54.9.7-9.5.1-19-.7-28.4-.6-15.9.2-31.8 1-47.7 1.3-7.6.1-15.2-.4-22.8-.5-3.4-.1-6.8 0-10.2.1l-55.7.3c-17 .1-34 .2-51 .2-1.8 0-3.7-1.1-5.5-1.7-1.8.5-4 1.7-6.2 1.7-8.5 0-17.2-1.5-25.5-.4-6.9.9-7.6-1.9-7.3-8 108.9-.1 218.2-.1 328.4-.1zM447.3 342h-15.7c1.7 7.8 3.3 14.6 4.9 21.7-11.3-1.2-10.5-11.3-14.5-17.4-.6.3-1.1.7-1.7 1 .4 1.4.7 2.9 1.2 4.2.9 2.4 2.1 4.8 2.8 7.3.9 3.2.6 4.6-3.8 3.4-11.9-3.2-24.1-5.5-36.1-8.3-1.1-.3-2.4-1.6-2.7-2.6-.7-2.9-.8-6-1.4-8.9-1.2-5.4-1-10.5.7-15.9 2.1-6.8 3.3-13.9 4.9-20.7 13.2 6.9 26 13.7 38.9 20.1 3.5 1.7 7.5 2.8 11.4 3.4 7.8 1.1 7.2 8.2 11.1 12.7zM111.4 357.8c1.8.1 3 .2 5.2.4-1.2 5.8-2.1 11.2-3.5 16.5-1.3 5.2-4 10.3-.4 17.2 5.3-10.4 4.5-21 8.2-30.9 4.4 1.6 9.2 3.2 13.8 5.1 10.8 4.4 22.1 6.3 33.3 3.2 4.5-1.2 8.6-5.2 12-8.9 4-4.4 7.3-4.7 11.1.4-2.5 1-5 1.8-7.3 3-1 .5-1.7 1.7-2.5 2.6.9.8 1.7 2 2.8 2.5 2 .8 4.1 1.3 6.2 1.6 7.3.9 8.8 3 7.2 11.4-3.2-2.4-6.2-4.6-9.2-6.8-.4.4-.8.9-1.2 1.3 1.7 2.3 3.7 4.4 5.1 6.8.7 1.2 1 3 .8 4.4-.1.7-2.2 1.9-2.5 1.6-1.1-.7-1.6-2.1-2.5-3.2-.8-1-1.7-1.8-2.6-2.7-.4.3-.9.6-1.3.9.7 1.7 1.6 3.4 2 5.1.2 1-.1 2.6-.8 3.3-.5.5-2.1.3-3-.2-2-1.1-3.7-3.1-5.8-3.5-2.1-.4-5.8-.2-6.6 1.1-2.3 3.8-5.6 3.6-9.1 3.8-8.3.6-16.5 1.9-24.8 1.7-5.9-.1-11.7-2.1-17.6-3.1-2.8-.5-5.7-.2-8.4-.7-2.5-.4-4-1.4-3.2-4.7.9-3.9.6-8 1.2-12 .8-5.6 2.1-11.1 3.4-17.2z" fill="#fff"/>
  <path d="M333.9 379.8c-1.9-7.1-1.5-7.7 4.2-9.4-1.7-3.6-4.2-2.9-8.6 2.5-3.2-2.8-2.4-7.5 2.6-8.5 8.2-1.5 16.3-5.7 24.9-2.1 1 .4 2.1.6 3.2.6 6.5-.5 13.1-1.2 19.6-1.9 1.2-.1 2.3-1 3.5-1.4 1.1-.4 2.3-.9 3.3-.8 3.5.5 7.1 1.2 10.5 2.1 6.2 1.6 12.3 3.4 18.5 5.1 1.1.3 2.2.8 3.3.9 3.6.4 7.4.4 7.6 5.6.2 5-2.8 9.8-7.4 10.3-7.5.8-15.1.9-22.6 1.3-2.8.2-5.6 1-8.3.7-9-1-17.9-2.6-26.9-3.5-1.9-.2-4.1 1.5-6.1 2.5-1.3.6-2.6 2-3.8 2-1.1 0-2.5-1.3-3.1-2.5-.3-.6.7-2.2 1.5-2.9 1.4-1.1 3.1-1.7 4.7-2.6 0-.5 0-1-.1-1.5-1 0-2.3-.4-3 .1-2.3 1.5-4.7 3-6.6 5-2.5 2.5-4.2 2-6.2-.9 2.3-2.1 4.6-4.2 7-6.3-.2-.4-.5-.9-.7-1.3-2 .8-4.2 1.4-6.1 2.6-1.9 1-3.3 2.8-4.9 4.3zM327.2 118.4c-9.7 1.9-19.3 4.1-29.1 5.6-8.1 1.2-16.4 1.9-24.6 2.2-5.7.2-11.4-.6-17.1-.8-4.9-.2-9.7-.2-14.6-.1-10.7.2-21.3.7-32 .8-9.6.1-19.2-.4-28.8-.3-12.8.1-25.5 1-38.2.8-9.1-.2-18 .3-27.1.9-1.8.1-3.6-.3-2.6-3.1.3-.7-.8-1.9-1.3-2.9-.5.2-.9.4-1.4.5-.2 1.4-.4 2.8-.6 4.5-6.4 1.6-7.6-5.3-11.9-7.4 76.4-.6 152.7-1.3 229.1-1.9.2.4.2.8.2 1.2z" fill="#fff"/>
  <path d="M454.2 332.6c5.4 2.1 10.8 3.9 16 6.4 4.4 2.1 5.1 5.8 5 10.7-.2 9.5-3.8 17.9-8.3 25.4-3.9 6.4-9.8 11.9-15.8 16.7-10.6 8.5-23.8 10.2-36.7 12-4.4.6-7.2-2.9-9.6-6.1-1.4-1.9-1.8-4.5-2.6-6.8.3-.5.5-.9.8-1.4 3 1.5 6 3.1 9.1 4.6 3.3 1.6 6.7 3.3 10.1 4.8 1 .4 3.2.5 3.3 0 .6-1.5 1.4-3.6.8-4.8-2.2-4.7-3.7-8.6 2.1-12.3 1.7-1 1.4-5 2.2-8.2 5.3 2.2 10.2 4.3 15.6 6.5 4.6-9.1-2.6-16.5-2.7-25.1 4.8 1 9.4 2.2 14.2 2.9 1.5.2 3.5-.8 4.7-1.9.6-.5.1-2.6-.4-3.8-2.9-6.2-5.9-12.3-8.8-18.4.3-.4.7-.8 1-1.2zM159.7 436.2c1.7 1 2.9 1.6 5.2 2.9V428c5 .2 6.4-1.8 4.2-6.5-.2-.5-.4-.9-.7-1.3-7.7-10-.5-18.8 2.4-27.8.8-2.4 3.9-2.9 5.1-.4 1.9 4 3.7 8.4 4.1 12.7 1.4 14.6-2.6 28.3-7.7 41.9-3.1 8.3-8.4 14.7-14.1 21-1 1.1-4.7 1.4-5.6.5-2.8-2.9-4.9-6.5-7.4-10 6.3-6.1 12.7-12.1 14.5-21.9zM239.9 386.1c0-4.1-.4-6.8.2-9.3.3-1.3 2.1-3.3 3.3-3.4 7.8-.1 15.5.5 23.3.5 5.1 0 10.2-1.1 15.3-.8 7.3.4 14.6 1.4 21.8 2.7 5.2 1 9.9.3 14.4-2.3 3-1.7 8.6-.5 9.9 2.5.5 1.1-.7 4.3-1.6 4.5-8 2.2-16.1 4.5-24.3 5.5-7.5.9-15.2.4-22.9.3-4.5 0-9.1-.4-13.6-.4-8.6.2-17.1.2-25.8.2zM532.1 23H420.6v-5.1c16.3-5.3 33-2.8 49.5-3.7 8.1-.4 16.2-.3 24.2-.3 11.6-.1 23.2-.1 34.7 0 1 0 2.6 1.6 2.9 2.8.5 1.8.2 3.8.2 6.3zM157.9 26.8c.2 2.1.4 3.9.7 5.9.9-.2 1.9-.1 2.1-.4 2.4-4.4 6.2-5.7 11.1-5.6 12.4.2 24.7.1 36.9.1 1.4 8.8 1.4 8.8-6.2 8.8-17.2.1-34.4.2-51.5.2-2.3 0-4.6-1.1-6.8-1.7-4.9 3.7-10.8 1-16.6 1.9-.3-1.8-.5-3.3-.8-5.3-2.1.7-4 1.3-6.2 1.9-.3-1-.6-2.2-1.3-4.5-.6 1.8-1.3 2.7-1.1 3.3 1.9 4.5-.8 4.7-4 4.6-5.1-.2-10.2-.3-15.2 0-4 .2-6.6-.6-5.9-5.4.1-.9-.3-1.8-.6-3.3 6-.4 11.6-1.1 17.3-1.1 5.4.1 10.8 1.2 16.3 1.3 7.1.2 14.2-.1 21.3-.3 3.4 0 6.9-.2 10.5-.4zM225.9 147.1c-14.1 0-27.9-.1-41.6 0-9.8.1-19.7.4-29.5.6-3.9.1-7.7.3-9.3-4.6.2 1.3.3 2.6.5 4.6-4.4 0-8.8 0-13.2-.1-.5 0-1.3-.6-1.4-1.1-1.4-6-5.7-3.1-8.9-3.5-.2.5-.4 1-.5 1.4 2 .7 3.9 1.4 5.9 2.1v1h-26.4c1.4-7.3 6.2-8.2 12.3-7.8 7.9.4 15.8.1 23.7 0h23.1c.7 1.8 1.3 3.4 1.9 5.1.2 0 .7.2.8 0 6.6-8.4 15.9-4.8 24.2-5.1 10.7-.4 21.5 0 32.2-.7 6.2-.3 7.8.9 6.2 8.1zM239.6 88.9c-8.9.4-17.3.9-25.8 1.1-.9 0-2.5-2-2.5-3.1-.2-8.1 0-16.1-.2-24.2-.1-3.2 1.7-4.2 4.2-4.2 7.4-.2 14.7-.2 22.1 0 .7 0 2 2 2 3.2.3 8.9.2 18 .2 27.2zM431.1 136c-5.1 0-10.1-.1-15 0-10.6.2-21.2.8-31.8.9-9.8 0-19.7-.5-29.5-.6-4.1 0-8.2.4-12.3.8-5 .5-4-3.4-4.4-6-.6-3.3 2-3 4.1-3.1 9.6-.3 19.1-.9 28.7-1 17.8-.2 35.5-.1 53.3-.1 9.5 0 9.8.6 6.9 9.1zM100.8 55.6c1.4-1.9 2.7-2.9 3-4.2 1-4.3 4.5-2.9 7.1-3.1 3.4-.3 6.8 0 10.2 0 2.9 0 5.7-.3 8.6-.2 11.5.2 22.9.5 34.4.6 12.2.1 24.4-.2 36.6-.2 2.9 0 5.7.4 8.8.6 2 6 1.1 7.4-5.2 7.3-6.8-.1-13.6-.8-20.3-.7-9.2.1-18.4.9-27.6 1-10.8.1-21.5-.2-32.3-.4-6.6-.1-13.2-.2-19.9-.4-.9 0-1.9-.2-3.4-.3zM268.9 89.2c-8.1 0-16.1.2-24-.2-1.2-.1-3.1-3.3-3.2-5.1-.3-6.8 0-13.7.2-20.6.1-3.1.8-5.3 4.9-5.2 7.2.3 14.5.1 22.2.1-.1 10.9-.1 20.6-.1 31zM469.5 448.1c4-4.1 7.2-7.9 11-11.2 4.8-4.2 10.3-7.6 15-11.9 2.7-2.4 4.4-5.9 6.5-8.9-.5-.1-1.1-.2-1.6-.2-.9-2.3-3.1-5.2-2.4-6.7 4.4-9.1 6.2-18.7 7.1-28.6 0-.1.3-.2.8-.5 3.8 3.2 3.8 8.2 3.9 12.2.2 7.7-.3 15.6-1.6 23.2-1.9 11.1-4.9 22-13.9 29.8-4.9 4.3-10.8 5.6-17.2 4.5-2-.3-4.2-.9-7.6-1.7zM272.5 89c-.4-9.1-.7-17.3-1.2-25.5-.2-3.2.7-5.3 4.1-5.3 6.8-.1 13.7 0 21.2 0v30.9c-7.5-.1-15.7-.1-24.1-.1zM431.2 149.8c1 8.1.7 8.5-8 8.1-7.6-.3-15.2-.8-22.8-.9-8.9-.1-17.9.2-26.8.4-11 .2-22.1.4-33.1.5-2.2 0-3.6-.5-2.4-3.3.5-1.2.4-2.6.6-4.8h92.5zM338.3 139.1h93.5c.4 6.7-1.7 7.7-7.8 7.4-14.6-.7-29.3.3-43.9.4-12.5.1-25-.1-37.5.1-5.9.1-3.7-4-4.3-7.9zM431.4 117.5v6.6c-7.7 0-15.4-.1-23 0-5.1.1-10.2.4-15.4.6-2.7.1-5.3.3-8 .3h-38.5c-1.3 0-2.8-.3-4 .1-3.2 1.3-4.2.3-4.3-2.9-.1-1.7-.8-3.3-1.1-4.8 31.2.1 62.6.1 94.3.1zM90.2 152.1c-1.8 1.2-3.4 2.2-5 3.2.2.5.4.9.6 1.4 1.5-.6 3.3-.8 4.3-1.9 5.8-6.4 13.4-5 20.7-4.8 1.4 0 3 0 4.3.5 2.8 1.2 5.6 2.6 9.3 4.5-.6.4.3.1.7-.5 5-6.8 12.2-4.9 18.7-4.1 1.4.2 2.3 4.1 3.7 6.7-8.5 3.3-16 2.2-23.5 2.1-6.7-.1-13.4.3-20 .4-5.8.1-11.6 0-17.3 0-5.8-.1-11.5-.2-17.3-.5-1.3-.1-3.7-.9-3.7-1.1.4-2.7 1.1-7.5 1.8-7.5 7.4-.2 14.8.3 22.2.7-.1-.1.1.3.5.9zM171.6 137c-.3-4.5-3.8-5.6-8.1-5.6-.1-.4-.2-.8-.2-1.2 1.4-.5 2.8-1.5 4.2-1.4 7 .1 14 .7 21.1.7 6.2 0 12.4-.6 18.5-.7 15.7-.1 31.5 0 47.2 0h10.9c-1.5 1.4-1.9 2.1-2.5 2.2-9.5 1.8-18.9 4.1-28.4 5.2-9.2 1-18.6.8-27.9.9-11.3 0-22.6-.1-34.8-.1zM387.2 25.9v8.5c-9.4 1.4-10.1 1.2-18-5.9-2.5 1.8-5.2 3.8-8 5.7-.7.5-1.8.7-2.7.7-13.4.1-26.8.1-40.1 0-1.6 0-3.8-1-4.5-2.2-2.6-4.7-6.1-3-9.7-2-1.3.4-2.6.5-3.9.7-.2-1.2-.8-2.7-.3-3.5.6-1 2.2-1.8 3.3-1.8 12.2.2 24.5.7 36.7.8 6.4 0 12.8-.8 19.2-.9 9.2-.2 18.4-.1 28-.1zM389.2 15.2c.1 7.6-.1 8-9.9 8.3-12.6.4-25.3.5-38 .6-9.6.1-19.2 0-28.6 0 .6-2.9 1.1-5.3 1.9-8.9h74.6zM532.2 54.7h-79.4c-.2-2.4-.5-4.6-.8-7.2 3.4-.2 6.7-.5 10-.5 11.1.2 22.2.7 33.3.7 10.2 0 20.4-.6 30.5-.8 7.2-.2 7.2-.1 6.4 7.8zM151.7 158.5c1.3-7.6 6-8.7 11.3-8.7 20-.2 40.1-.3 60.1-.3 1.1 0 2.8 1.6 3.1 2.7.5 2 .1 4.2.1 6.3h-74.6zM452.1 44.1c0-1.2-.4-2.7.1-3.9.5-1.3 1.9-3.1 2.9-3.1 12.9 0 25.9.4 38.8.5 12.6.1 25.2 0 38.2 0V44c-26.5.1-53.1.1-80 .1zM468.5 136.2v-9.4c8.1 0 15.7.1 23.4 0 8.8-.1 17.6-.2 26.5-.4 4-.1 8-.5 11.9-.5.8 0 2.1 1.5 2.3 2.5.4 1.9.1 3.9.1 6.2-21.6.6-42.5 1.1-64.2 1.6zM296.9 149.9c.2 2.1.6 3.4.4 4.6-.5 2.4-.8 4.7-4.5 4.5-8.9-.6-17.9-.9-26.8-1.1-8.1-.3-16.2-.5-24.3-.5-3.7 0-7.5.5-12.5.9 0-2.5-.7-5.3.3-7.1.7-1.2 3.8-1.3 5.9-1.4 7.4-.3 14.8-.5 22.2-.5 6.1 0 12.1.6 18.2.8 4.7.1 9.4-.1 14.2-.1 2.2-.1 4.5-.1 6.9-.1zM386.9 45.4c-8.9-.4-17.5-1.3-26.1-1.1-15.7.3-31.5 1.2-47.2 1.7-3.7.1-7.5-.4-11.2-.9-1.1-.2-2-1.5-3.6-2.8 6.8-1.5 12.5-3.7 18.4-4 12.8-.6 25.6-.5 38.4-.1 3.9.1 7.8 2.1 11.7 3.2.7.2 1.9.4 2.2 0 4-5.3 9.7-3.4 14.9-4 3.8-.5 3.8 1.2 3.6 3.6-.2 1.2-.7 2.4-1.1 4.4zM229 147.8c-1.9-6.7 2.8-6.6 5.8-6.9 8.1-1 16.2-1.6 24.3-1.8 10.4-.3 20.8 0 31.1 0 1.1 0 2.3-.5 3.4-.4 1 .1 2.7.6 2.8 1.2.4 2.3.5 4.7.2 7 0 .3-2.8.4-4.2.4-12.3.2-24.6.5-36.9.6-8.9-.1-17.9-.1-26.5-.1zM531.6 34H466v-8.1c9.2 0 18.7.1 28.1 0 11.5-.2 23-.7 34.5-1 2.4-.1 4.4.2 3.6 3.6-.3 1.4-.3 3-.6 5.5zM531.8 137.3c.2 2.7.5 5.6.7 8.6-8.4 0-16.3-.1-24.3 0-12.7.2-25.4.6-38.2.6-.8 0-2.1-3-2.4-4.8-.6-3.3 1.5-3.9 4.3-3.7 6.8.3 13.7.8 20.5.8 9.9-.1 19.9-.6 29.8-.9 3.2-.2 6.3-.5 9.6-.6zM466.8 148.7h65.8c-.3 2.1-.7 4.8-1.2 8.1h-5.3c-17.1 0-34.2.1-51.2.1-7.1 0-7.1 0-8.1-8.2zM149.4 45.8c1.9-2.7 2.6-4.2 3.8-5.4 1.1-1 2.5-2.4 3.8-2.4 10.9 0 21.8.2 32.8.3 6.6.1 13.2 0 20.7 0-.5 2.9-.9 5.3-1.2 7.4-20 .1-39.5.1-59.9.1zM467.7 116.5h64.6v7.3c-11.5 0-22.8.6-34.1-.2-8.3-.6-16.5.3-24.8.2-5.9.1-5.9.1-5.7-7.3z" fill="#fff"/>
  <path d="M314.5 366.3c-4.1-2.6-11-.4-14.1 3.4-2 2.5-3.8 2.8-6 .7 2.7-8.5 3.6-8.6 12.5-9.5 9.1-.9 18.1-2.8 27.1-4.3 4-.6 8.1-1.3 12.2-1.6 3.9-.3 7.9.4 10.6-3.6.3-.5 2.9-.3 3.5.4 1.3 1.6 1.9 3.7 2.8 5.6-1.1.2-2.2.6-3.3.6-3.8.1-7.6-.4-11.3.1-5.6.6-11.3 1.6-16.8 2.9-1.8.4-3.9 1.6-4.8 3-3.7 6.4-10.2 7.6-16.5 9.3-1.4.4-3.1.4-4.5 0-.5-.2-.9-2.7-.4-3.2 1.1-1 2.8-1.5 4.3-2.1 1.6-.6 3.2-1.1 4.7-1.7zM135.5 449.3c-7.2-6.6-7-6.5-1.4-14.1 4.3-5.9 7.9-12.1 11.9-18.2.8-1.2 1.9-2.1 2.9-3.2 1.6 1.8 4.8 3.7 4.7 5.5-.5 12.4-6.4 22.2-16.4 29.5-.5.3-1.2.4-1.7.5zM212.7 16.3c-1.1 2.4-2.2 4.9-3.7 8.2-10.4 0-21.7-.2-33 .1-4.9.1-9.3-.4-12.6-4.3-.8-.9-1.5-1.9-2.2-2.8 1.2-.4 2.4-1.3 3.6-1.3 11.4-.1 22.8 0 34.2 0 4.6.1 9.2.1 13.7.1zM478.3 433.9c-5.3 8.1-13.3 12.9-21.6 14.9-13.6 3.3-27.8 6.5-41.4-1-3.1-1.7-4.8-4.4-3.1-8.6 22.8 8.2 45.1 9.3 66.1-5.3zM313.9 54.6c-1.7-7 2.5-6.8 7.3-6.7 7.6.1 15.2-.7 22.9-.7 4.9 0 9.7.7 14.7 1.1 1.7 6.6 1.5 6.6-5.5 6.7-9.9.1-19.7.7-29.6.8-3.3.1-6.5-.7-9.8-1.2zM102.5 394.2c-3.7 1-7.4 2.1-11.1 3.1-7.9-3.5-16-6.9-24-10.5-2.5-1.1-5-2.6-6.9-4.5-2.7-2.7-.2-5.2 1.3-7.3.4-.6 3.3.2 4.8.9 6.7 3.5 13.2 7.6 20 10.8 5.3 2.5 10.9 4.2 16.4 6.3-.3.5-.4.8-.5 1.2zM300.2 128.6c10.9-.5 22.2-1.1 33.4-1.3.9 0 2.6 2.7 2.6 4 0 1.9-1.3 5.3-2.2 5.4-8.3.4-16.6.3-24.9.3-1.5 0-3 .1-4.5 0-6-.4-6.8-1.6-4.4-8.4zM361.6 73.5V58.3H386c.5 2.8 1 5.5 1.2 8.2.1.7-.7 2.1-1.3 2.3-8 1.5-15.9 3-24.3 4.7zM134 17c.4 7.8.4 7.8-6.8 7.8-9.7 0-19.5.1-29.2-.1-1.2 0-2.4-1.7-3.6-2.6 1.5-2-.5-6.4 4-6.3 10.6.2 21.2.6 31.8.9 1.2.2 2.3.2 3.8.3zM329.5 148c-4.3-.3-8.6-.8-12.9-.9-4.6-.1-9.3-.3-13.8.5-3.8.7-4.1-2.3-4.2-3.9-.1-2.7 1.1-5.6 4.8-5.6 9.5 0 19 .1 28.5.1 4.7 0 3.8 3.8 4.4 6.3.7 3-1.5 3.6-4 3.4-.9-.1-1.9-.3-2.8-.5.1.3 0 .4 0 .6zM143.4 38.2c-.1 2.2-.1 4.5-.5 6.7-.1.7-1.4 1.7-2.1 1.7-10.8.1-21.6.3-32.3 0-4.9-.1-3-5.3-6.1-8.7 5.4 0 9.6-.4 13.6.2 1.3.2 2.2 3.3 3.6 5.7 3.1-1.8 4.9-7.1 10.7-5.9 3.8 1 8.1.3 13.1.3zM66 137.5c-.1-1.5-.4-2.6-.2-3.7.3-1.3.9-2.5 1.4-3.8 1.1.8 2.1 1.8 3.3 2.3 1.1.5 3.5 1 3.6.8 2.5-5.3 7.5-2.8 11.3-3.6 3.9-.8 8-.3 11.9-.7 4.6-.5 5.2.5 4.6 8.6-11.8.1-23.7.1-35.9.1zM372.9 346.8c-7 .2-8.7-2-6.6-7.7 1.5-4 3.4-7.8 4.9-11.8 3.3-9 6.4-18 9.6-27.1.5 0 .9-.1 1.4-.1.2 2.6.9 5.4.4 7.9-3 12.8-6.4 25.6-9.7 38.8zM420.4 35v-8.8h32.1c-.4.9-.9 1.6-1 2.3-.3 8.3-6.4 6.5-11.3 6.5h-19.8zM66.6 140.1h33.6c0 5.7-3.3 8.7-9.2 8.5-6.4-.2-12.7-.6-19-.7-7.3-.1-7.8-.6-5.4-7.8zM449.3 148.9c3.8 0 7.7.1 11.5 0 3.8-.2 4 2.1 3.8 4.8-.3 3-1.9 4.2-5 4.1-6.9-.3-13.8-.6-20.7-.5-2.8 0-5.2-.3-5.1-3.4.1-2.5.1-5.7 4.6-5.1 3.5.5 7.2.1 10.9.1zM417.2 25.7c.2 2.1.2 3.4.4 4.7.6 3.2-.8 4.6-3.9 4.6-6.9 0-13.8-.1-20.7 0-4.8.1-3.7-3.5-3.5-6 .2-2.3 1-3.7 4.4-3.5 7.6.6 15.3.2 23.3.2zM311.2 450.2c-2.4.2-4.8.6-7.2.7-14.2.9-28.3 1.5-42.5 2.5-15.3 1.1-30.6 2.5-45.9 3.7-1.6.1-3.3-.3-5-1.6 33.4-3.7 66.8-6.4 100.3-7 .2.7.3 1.2.3 1.7zM135.6 129.2c-.9 8.4-.9 8.5-8.7 8.6-5.3.1-10.6.1-15.9 0-2.6-.1-5.5-.6-4.5-4.1.7-2.5.8-5.4 5.8-4.4 5.5 1.2 11.4 0 17.2-.1h6.1z" fill="#fff"/>
  <path d="M157.4 421.5c.9 3.1 3.2 6.5 2.4 9.1-2.5 8.5-5.7 17-13.1 22.8-4.5 3.5-5.5 3.2-7.6-2.8 9.5-7.1 14.3-17.1 16.5-28.5l1.8-.6zM127.2 361.2c-11.8-6.5-23.7-13-35.4-19.7-.9-.5-.7-2.8-1-4.2 1.7-.1 3.7-.8 4.9-.2 8.6 4.9 16.9 10.1 25.4 15.2 1.4.8 3.1 1.3 4.3 2.3 1.4 1.3 2.3 3.1 3.5 4.7-.7.7-1.2 1.3-1.7 1.9zM389.9 55.1c-1-8-.9-8.1 6-8.1 5.3 0 10.7-.1 16 0 6.7.2 6.9.4 6.2 8.1h-28.2zM108.6 354.2c-2.6 9.8-5.1 19.1-7.9 29.4-4-8.5-9.3-15.5-3.6-24.1 2.4-3.4 5.4-6.3 11.5-5.3zM389.8 36.5c8.7.5 17.1.8 25.5 1.6 1.2.1 2.1 2.5 3.2 3.8-1.3 1-2.6 2.9-4 2.9-6 .3-12 .2-18 .2-7.5 0-7.5 0-6.7-8.5zM464.3 145.5c-8.5.5-16.7 1.1-24.9 1.4-3.6.1-5.8-1.3-4.3-6.4 9.3-1.1 19-2.3 29.2-3.5v8.5zM420.7 44.6c-.6-6.9-.6-6.8 6.3-6.7 7.6.1 15.2 0 23 0 1.5 6.1.9 7-6 7h-21.9c-.4 0-.7-.1-1.4-.3zM450.3 54.8h-29.5v-6.9h12.1c4 0 8.1.4 12-.3 6.6-1.1 5.7 2.9 5.4 7.2zM417.9 58.2c1.9 6.3-3.3 6-6.2 6.5-7.2 1.3-14.5 1.8-22.3 2.7v-9.2h28.5zM92.8 384c-9.3-4.7-18.6-9.4-28.2-14.2 1.2-2 1.9-3.4 2.8-4.7 1.6-2.3 3.2-2.8 5.7-.7 4.3 3.5 9.1 6.3 13.4 9.8 2.9 2.3 5.2 5.3 7.8 7.9-.5.6-1 1.3-1.5 1.9zM387.6 55.7c-8.4 0-16.1.1-23.8-.1-.8 0-2.4-2-2.3-3 .2-1.6 1.3-4.3 2.3-4.4 5.7-.7 11.6-.7 17.3-.9.3 0 .6.5.8.5 7.6-2.4 5 3.2 5.7 7.9zM479 348.3c5.2 3.8 10 7.2 14.4 10.4-5.4 8.5-8.6 17.8-18 23.6 4.3-9.8 12.6-18.1 5.9-29.9-1.4 2.9-2.6 5.5-3.7 8-.4-.1-.9-.3-1.3-.4.8-3.6 1.7-7.3 2.7-11.7zM89.2 16.8c1.9 7.4 1.9 7.3-6.2 7.2-4.3 0-8.5.3-12.8.8-4.1.5-4.2-2-4.1-4.9.1-2.5-.1-4 3.9-3.4 6.2 1.1 12.7.3 19.2.3zM212 33.9c-.4-2.8-.6-4.8-1-7.5 4.3 0 8.1-.1 11.8 0 4.3.1 8.6.9 12.8.7 3.3-.2 4.6.6 4.7 3.9.2 3.3-1.2 4.6-4.4 4.3-4.5-.5-9.7 2-12.8-3.9-.5-.9-3.9-.6-5.9-.3-1.4.2-2.7 1.4-5.2 2.8zM55.5 387c9.9 4.8 18.8 9.1 27.8 13.5-2.3 1.2-4.9 2.7-7.5 4-.7.3-1.8.5-2.3.1-5.7-3.4-11.5-6.6-16.8-10.6-1.3-1.1-.8-4.5-1.2-7zM324.2 150.2c-.5 2.7-.9 5.1-1.4 7.7-5.6 0-11.4.1-17.1 0-6.4-.1-6.5-.2-6-7.6 8-.1 16.1-.1 24.5-.1zM269.6 44.3c1.1-1.7 1.3-2.4 1.7-2.4 8-1.1 15.6-5.1 24.1-3.9 3.9.5 2.4 3.2 2.7 5 .1.6-1.9 2.3-3.1 2.4-6 .5-12 .8-18 .7-2.4-.1-4.6-1.1-7.4-1.8zM270.6 32.8c-.6-5.4 1.1-7 5.2-6.7 7 .5 14 .8 21.3 1.2.3 1.9.6 4.6 1 7.7-5.9.1-12.1 3.2-16.4-4.2-.6-1-4-.6-6.1-.3-1.5.3-2.9 1.3-5 2.3zM239.9 37.8v7.6c-7.8.4-15.2.7-22.6 1-1.3.1-2.9.3-3.9-.2-.9-.5-1.3-2-1.9-3.1.9-.4 1.9-1.2 2.8-1 3.7.6 6.6-.6 10.1-2.2 4.4-2.2 10.1-1.6 15.5-2.1zM66.2 35.5v-7.4c7.6-.5 15.1-1 22.9-1.6-4.4 12.8-14.2 9.1-22.9 9zM408 443c-3.2 0-6 .1-8.8 0-3.4-.1-7-3.9-6.7-7.2.3-3.9 2.6-5 6.5-4.9 8.7.2 11.7 3.7 9 12.1zM243 33.5c-.6-2.5-1-4.2-1.5-6.6h26.2c.5 3 .9 5.3 1.3 7.7-5.9 2.4-10.3 1.4-14.5-3.5-2.4-2.7-7-2-11.5 2.4zM241.5 43.7c5-2 8.1-3.8 11.3-4.4 4.9-.8 10-.6 15-.6.1 0 .6 3.1.3 4.6-.2 1-1.7 2.5-2.6 2.5-6.5.1-13-.1-19.5-.4-1.3-.1-2.6-1-4.5-1.7zM161.7 137.4h-19.1c1-7.1 2.6-8.6 9.1-8.6 1.3 0 2.7-.2 4 0 1.9.4 4.7.5 5.3 1.7 1 1.9.6 4.6.7 6.9zM212.5 94.9c8 0 15.5-.1 22.9.1 1.6.1 3.2 1.6 4.8 2.4-1.4.9-2.8 2.6-4.3 2.7-7.8.3-15.7.1-24 .1.2-1 .4-2.7.6-5.3zM434.7 135.2v-4.4c8.9-3.8 17.9-5.5 27.4-4.6 1.1.1 2.2.6 3.3 1-1.1.6-2.1 1.5-3.2 1.8-7.5 1.9-15.1 3.7-22.7 5.5-1.3.2-2.8.4-4.8.7zM278.2 95.2c6.1-.4 11.2-.8 16.3-.8.9 0 2.5 1.9 2.6 3.1.1 1.1-1.4 3.4-2.1 3.4-6.3 0-12.6-.3-19-.7-.9 0-2-.4-2.7-.9-.8-.6-1.3-1.7-2-2.6 1-.6 1.9-1.7 2.9-1.8 1.7-.3 3.3.2 4 .3zM224.7 24.1c.8-3.1 1.4-5.6 2.1-8.5h16.5c-1.3 3-2.5 5.7-3.7 8.5h-14.9zM283.5 23.9c.2-2.9.3-5.5.5-8.4h16.8c-.9 2.7-1.9 5.5-2.8 8.4h-14.5zM253.9 24.2c.2-3.3.4-5.9.6-9.1 6.1.4 11.8.8 17.5 1.2-3 10.9-11.1 7.4-18.1 7.9zM361.6 347.3c2.6.9 4 1.1 5.2 1.8 6.3 3.8 7.2 3.9 8.9-2.9.3-1.1.8-2 2.4-3.2.7 4.3 1.5 8.7 2.1 13 .1.5-.6 1.2-1.1 1.5-4 2.4-12.6-.2-14.7-4.4-.8-1.4-1.4-2.9-2.8-5.8zM403.1 13.6c4.6.5 9 .8 13.4 1.6.7.1 1.5 2.2 1.6 3.4 0 1.6-.6 3.1-1.2 5.3-4.9-.4-10-.8-15-1.2.4-2.8.8-5.6 1.2-9.1zM138.1 24.4c3.7-3.1 6.1-6.1 9.1-7.4 3.1-1.2 6.9-.7 10.7-1v8.4h-19.8zM203.5 436c2.4.2 3.8.4 4.8.5 0 8.2.1 16.3-.1 24.3 0 .9-1.4 2-2.5 2.4-.4.2-2.1-1.2-2.1-2-.2-8.4-.1-16.7-.1-25.2zM245.4 95.7c7.6 0 13.9-.1 20.2.1 1.2 0 2.5 1 3.7 1.5-1.2 1.2-2.3 3.4-3.5 3.4-6.4.2-12.9-.1-19.3-.6-1.4-.1-2.8-1.9-4.1-2.9 1.3-.5 2.6-1.2 3-1.5zM173.5 363.2c-6.7 6-24 6-34 .5.2-3.9 3.1-3.2 5.3-2.8 6 1 11.8 2.7 17.8 3.4 3.4.3 6.8-.7 10.9-1.1zM99.2 353.9c-3 3-5.8 5.8-9.7 1.2-1.1-1.3-2.9-2.1-4.3-3.1-3.3-2.3-3.2-6.5.2-8.6.6-.3 1.8-.4 2.2 0 3.8 3.3 7.6 6.9 11.6 10.5zM297.1 136.4h-31.5c-.1-.2-.1-.5-.2-.7 9.9-1.9 19.8-3.8 30.3-5.9.4 1.7.8 3.6 1.4 6.6zM496.4 399.4c-1.5-.4-2.6-.7-3.5-1 2.2-6.2 4.3-12.3 6.4-18.4 3.7 4.5-.7 22.8-8.5 35.6-.4-.1-.8-.3-1.2-.4.8-2.5 1.5-5.2 2.5-7.6 1.2-2.6 2.7-5.2 4.3-8.2zM419.3 70.1c3.3-1 6.6-2.3 9.9-2.9 5.4-1 11-1.1 16.2-2.4 4.4-1.1 3.9 1 3.8 4.2-10.1-1-19.6 4-29.6 3.5 0-.9-.1-1.7-.3-2.4zM225.8 48.3h8.7c2.8 0 5.8-.7 5.9 3.9.1 5-3.3 4.1-6.1 4.1s-5.6-.2-8.5-.3v-7.7zM388.2 75.9c1-.9 1.9-2.5 3.1-2.7 8.1-1.2 16.3-2.3 24.5-3.1 1-.1 2.1 1.5 3.2 2.2-.2.5-.5.9-.7 1.4-9.8 1.2-19.5 2.4-29.3 3.6-.3-.5-.5-1-.8-1.4zM284.7 48.1c2.8 0 5.6.3 8.3-.1 4.8-.7 5.5 1.9 4.9 5.6-.1.9-1.4 2.2-2.3 2.2-4 .2-8.1.1-12.4.1.6-2.7 1-5 1.5-7.8zM73.3 358.5c2.7-5.5 3.7-5.8 8.4-2.4 2.5 1.8 5.2 3.6 7.2 5.8 1.1 1.2 1 3.4 1.4 5.2-.4.4-.9.8-1.3 1.2-5.1-3.1-10.2-6.3-15.7-9.8zM52.2 397.9c6.4 3.5 11.8 6.5 18.2 10-3.2.9-6.5 3-9.5 2.5-3.1-.5-6.2-3.1-8.5-5.6-1.1-1.1-.2-4-.2-6.9zM84 56.1c-4.3 0-8.6-.8-12.4.2-6.2 1.5-5.8-1.8-5.3-5.7 11.2-2.5 12.6-2.1 17.7 5.5zM66.9 46.1c-2-6.5-1.5-7.1 4.9-7.2.6 0 1.7-.7 1.8-.6 1.5 2.5 6.2-3.1 6.3 2.2.1 4.9-2.8 7-8 6.3-1.7-.2-3.3-.5-5-.7zM268.9 48.3c1 7.6.8 8-5.7 7.8-2.9-.1-5.8-.6-8.7-.9 1.9-9.1 8.4-6.9 14.4-6.9zM99.5 126.7H76.4c3.7-6.6 17.7-6.9 23.1 0zM386.9 74.1c-1.8 5.3-22.4 8.7-26.6 4.7 9.6-1.6 18.1-3.1 26.6-4.7zM432.8 124.3c1-2.4 1.4-4.7 2.3-5 7.6-2.3 15.3-4.5 24.3-1.9-8.9 2.3-17 4.4-26.6 6.9zM447 59.4c-2.3.2-4.6.5-6.8.7-5.8.7-11.6 1.5-17.4 2.1-1 .1-2.2-.8-3.3-1.3 1-1 2-2.8 3.1-2.8 8.1-.2 16.2-.1 24.3-.1 0 .4.1.9.1 1.4zM79.4 119.5c-2.9 2.8-5.9 5.5-10 9.4-1.7-3.1-3.1-5.7-5.1-9.4h15.1zM160.5 399.4c-3.8 5-6.1 1.1-9.6-.6 4.5-1.1 8.2-2 11.9-2.6.4-.1 1.9 2.3 1.7 3.4-.6 4.1-1.6 8.2-2.6 12.9-4.1-4 .3-8.5-1.4-13.1zM192.5 287c7 .6 12.6 1.1 18.2 1.6.2.6.4 1.1.6 1.7-1.5.9-3.3 2.8-4.5 2.5-4.6-1.1-10.1.4-14.3-5.8zM360.2 347c-3.4 1.8-6.7-1.4-7.5 2.8-1.3-.6-3.5-1-3.6-1.7-.3-1.9-.2-4.9.9-5.5 1.8-1 4.7-1.2 6.7-.5 1.4.5 2.2 3 3.5 4.9zM499.9 377.3c-.9-.6-1.8-1.3-2.4-1.6-2.3 2.5-4.6 5-7.9 8.5 2.7-7.2 4.9-12.9 7.5-19.6 1.3 4.2 2.6 8.1 3.8 12-.3.2-.6.4-1 .7zM194.1 456.5c-5.9.3-11.8.6-18 1v2.8l-6.3.6c-.3-.6-.6-1.2-.9-1.9 2-1.2 3.9-3.1 6-3.4 6.3-.7 12.7-.8 19.1-1.1-.1.7 0 1.4.1 2zM79.8 46.1c2.1-3.7 3.4-6.1 4.8-8.4.5.3.9.5 1.4.8-.6 1.2-1.2 2.4-2.1 4.3 1.5-.7 2.4-1.2 3.3-1.5 1.3-.4 2.6-.5 3.9-.8.3 1.5.8 3.1.7 4.6-.1.5-2.2.9-3.3.9-2.4.2-4.9.1-8.7.1zM156.4 415.5c-2.3-2.3-4.6-4.6-7.7-7.6 3-.4 6.4-2 7.8-.9 1.6 1.3 1.4 4.8 2 7.3-.7.5-1.4.9-2.1 1.2zM191.3 354.4c3.5-1.9 6.7-3.8 9.9-.4.6.7.4 3.1-.3 3.6-2.1 1.7-8.2-.4-9.6-3.2zM333.7 384.1c-3 .6-6.1 1.1-9.7 1.8 5.2-4.8 8-4.9 15.1-.5-5.2 1.7-9.7 3.1-14.2 4.6-.1-.3-.3-.7-.4-1 3.2-1.3 6.3-2.7 9.5-4l-.3-.9zM93.7 55.4c-4-1.3-7.4-2.4-11.3-3.8 5.7-4.4 10.1-3.1 11.3 3.8zM186.5 365.1c3-.3 6.1-.9 9.1-.7 1.2.1 2.2 2.2 3.3 3.4-1.4.2-2.9.8-4.2.6-2.8-.4-5.6-1.1-8.3-1.7 0-.6.1-1.1.1-1.6zM63.4 456.7c-7.6.4-14.6.7-21.7 1.1V456c7.1 1.1 14.2-3.9 21.7.7zM59.2 458.7c7.2-.3 14.4-.7 21.6-1 0 .6.1 1.3.1 1.9H59.5c-.1-.2-.2-.5-.3-.9zM95.2 47.3c-.4-2.8-.7-4.9-1.2-8.7 3.6 2.1 6.1 3.7 8.6 5.2-.1.4-.2.9-.2 1.3-2.2.7-4.2 1.3-7.2 2.2zM118.3 456.6c5.3-3.8 14.3-3.7 16.9 0h-16.9zM58.2 430.7c-3 1.8-5.5 3.4-8.9 5.5v-7.9c2.8.8 5.4 1.5 8.9 2.4zM365 397.4c-6 .7-12 1.5-18 2.2-.1-.5-.2-.9-.2-1.4 6-.9 11.9-1.7 17.9-2.6l.3 1.8zM467 449.4c1.1.8 2.2 1.7 4.3 3.3-5.3.5-9.3.8-13.2 1.1-.1-.5-.1-.9-.2-1.4 3-1 5.9-2 9.1-3zM320.4 400.6c4.5-2.4 8.9-4.9 13.4-7.3.3.5.5.9.8 1.4-4.5 2.5-9 5-13.5 7.4-.3-.5-.5-1-.7-1.5zM56.3 443.1c-2.1 1.1-3.8 1.9-6.1 3.1-.5-2.4-1-4.6-1.7-7.9 3.3 1.9 5.3 3.2 7.8 4.8zM189.8 395.1c4.5.2 9 .5 13.5.7 0 .6-.1 1.1-.1 1.7l-13.5-.9c0-.6.1-1 .1-1.5zM50.3 416.2v-5.8c2.4 1.1 4.4 2.1 6.4 3v1.7c-2 .4-4 .7-6.4 1.1zM102.4 51c-1.9.9-3.8 1.7-5.7 2.6-.1-1.3-.8-3.6-.3-3.8 1.6-.8 3.6-1 5.4-1.4.1.8.3 1.7.6 2.6zM192.4 399.8c-3.7.3-6.1.5-8.8.8v-4.9c2.6 1.3 5 2.4 8.8 4.1z" fill="#fff"/>
  <path d="M58.9 157.7c-6.4-12.2-9.3-25.5-9.2-39.2 0-5.9 2.9-11.7 3.2-17.7.2-3.8-1.4-8-3.2-11.4-1.3-2.5-1-3.6 0-6 1.6-3.6 2.4-7.9 2.3-11.8-.1-6.5-1.2-12.9-1.9-19.3-1.2-12.4 3.2-23.5 7.9-34.6.1-.3.8-.4 2.1-.9-1.5 4.6-2.6 8.7-4.1 12.6-4.7 12-2.8 24.1-1 36.3.8 5.1 2.1 10.8-1 15.4s-1.3 7.6.7 11.9c1.8 3.9 1.5 9.1 1.3 13.6-.3 4.2-2.7 8.4-2.6 12.6.3 7.9 1.4 15.7 2.8 23.5.9 5 2.8 9.9 4.3 14.8-.5 0-1 .1-1.6.2zM559.1 460.4c-39.1 1.2-78.2 2.4-117.4 3.6-.1-.3-.2-.6-.2-.9 1.2-.3 2.4-.9 3.6-.9 12.7-.6 25.4-1.1 38.1-1.6 7.5-.3 15.1-.5 22.6-.8 14.8-.6 29.5-1.4 44.3-1.9 2.9-.1 5.8.7 8.8 1 .1.5.2 1 .2 1.5zM324 278c2.2-2.4 5.8-4.7 6.6-7.6.6-2.5-1.2-6.6-3.3-8.7-1.9-1.9-6-3.3-8.4-2.6-2.4.7-4 4.4-6.3 7.2-.3-1.3-1-2.7-.6-3.2 2.6-3.1 5-6.9 8.4-8.7 3.6-1.9 6.8.5 9.4 4 3 4.3 4.6 8.5 4.2 13.8-.4 5.3-5.7 8.1-10 5.8zM136.4 460.2c-1 5.4-5.6 2.7-8 2.9-12.3.7-24.7.6-37.1.7-2.9 0-5.7 0-8.6-1 17.9-2.7 35.9-2.5 53.8-2.5 0 .1-.1-.1-.1-.1zM218.4 441c15.2-.8 30.3-1.7 45.5-2.5.1.6.1 1.2.2 1.8-7.5.4-15 .8-22.5 1.3-7.7.6-15.3 1.4-23 2.1-.1-1-.2-1.9-.2-2.7zM218.2 355.6c-4.4-12.9-15.9-11.2-25.5-13 2.6-3.4 12.9-2.1 21.3 2.8 4.4 2.6 5.9 6.2 4.2 10.2zM228.3 359c6.4-13.1-5.6-13.3-11.7-17.7 5.1-1.8 12.5 2 16 8 1.6 2.9.6 5.5-4.3 9.7zM266.3 302.4c-1.6-2.7-3.1-5.4-4.7-8.1.6-.4 1.2-.8 1.9-1.2 1.8 2.6 3.5 5.1 5.3 7.7-.9.6-1.7 1.1-2.5 1.6zM92.5 280c1.9 5.2 3.8 10.5 6.2 16.9.8-2.4 1.2-3.6 2.1-6.1.8 1.9 1.3 2.8 1.6 3.7.3.9.5 1.9.8 2.9.9-.6 1.7-1.3 2.7-2 .6.7 1.3 1.5 2.4 2.7.8-4.8 1.5-8.9 2.2-13h1.2c.1 1.8.3 3.7.4 5.6 2.7-2.9 5.3-5.8 7.8-8.6.4.2.7.4 1.1.6-1 2.1-1.6 4.7-3.1 6.2-5.3 5.3-7.5 11.6-8.1 18.9-.1 1.3-1.1 3.6-1.6 3.6-1.6 0-4-.5-4.7-1.7-5.1-8.8-10.4-17.5-12.7-27.6-.1-.4.1-1 .1-1.4.6-.3 1.1-.5 1.6-.7zM150.4 271c-4.4-9.2-7.8-12.3-13.7-11.2-5.3.9-7.1 5.4-7.7 9.8-.4 3.5-.3 7.9 1.6 10.5 1.4 1.9 5.9 1.6 9.7 2.4-4.2 2.9-7.7 3.7-11.7.5-4.1-3.3-4.9-7-3.6-11.4 1.5-5.1 3.7-9.4 7.8-12.8 4.2-3.4 6.8-3.9 10.9-.5 4 3.3 7.7 6.9 6.7 12.7zM164.5 261.8l3.5-2.8c.3.2.6.4.9.7-2.6 3.9-5.1 7.9-7.7 11.8-.4-.1-.8-.3-1.3-.4l1.2-5.7c-.3-.2-.7-.5-1-.7-1.4 2.3-2.7 4.5-4.3 7.1-1.2-4.3 2.3-10.8 7.3-14.1.4 1.3.8 2.4 1.4 4.1zM191.6 268.1c-4.2 4.3-10.2 2.6-15.2 4.4-.2-.6-.3-1.2-.5-1.7 5.1-1.3 10.2-2.7 15.3-4 .1.3.3.8.4 1.3zM179.1 263.7c-7.2 7.8-7.2 7.8-10.6 4.3 3.7-1.5 7.2-2.9 10.6-4.3zM231.9 411.6c-.1 1.1-.2 2.2-.4 4.1 4.1-3.2 7.6-5.9 11-8.7.4-.4.9-1.1.8-1.6-.8-6.6 4.3-6.2 9.8-7.7-1.5 3.7-2.5 6.3-3.8 9.3 1.4.7 2.8 2.1 4.2 2.1 1.8-.1 3.5-1.4 5.3-2.1-2.4-4.8 2.4-7.4 3.3-11.1-.4-.3-.8-.5-1.1-.8-1.2 1.8-2.4 3.6-4.5 6.7 0-1.9-.4-3.5.1-3.9 2.2-1.7 4.6-3 7-4.4.6 1.6 1.1 3.2 2 5.7 2.3 1.2 4.7 1.4 6.9-2.8 1.7-3.2 8.2-3 10.7-.2 2.8 3.1 5.4 6.5 8 9.7 2.2-3.2 3.8-8.1 6.9-9.4 3.3-1.3 8 .9 12.5 1.6-4.1 7.7-9.4 9.3-16.9 6.9l1.8 2.7 2.7 3.6c-2 .7-4 1.5-6 2.2-.4.1-.9-.3-1.4-.4-4.2-1.2-8.6-3.7-11 2.7-.3.8-2.6.9-4 1.3-.4-1.8-1.4-3.8-1.1-5.4.3-1.5 2.4-2.5 3.3-4 .5-.9.3-2.3.4-3.7-4.3 2.6-7.8 4.4-10.9 6.7-1.1.8-1.1 3-1.9 5.5-2.4-1.6-5.3-3.6-9-6.1-.2 3.7-.3 6-.4 8.3-5.9 1-11.2-2.1-13.5-8.1-.9.3-2.2.4-2.5 1-3.9 8-11.2 6.3-17.9 6.4-4.8.1-9.7.4-14.5.5-1.3 0-2.6-.5-3.9-.7 1-1.1 1.9-2.9 3-3 4.4-.4 9-1 13.1 0 4.7 1.2 8 .1 11.9-2.9zm35.2-11.3c-2.1 2.5-3.7 4.1-4.6 5.9-.2.3 2.3 2.9 2.8 2.7 2.2-1.1 4-2.7 6-4.1-1.1-1.1-2.1-2.2-4.2-4.5z"/>
  <path d="M427.3 208.5c.4-2.1.8-4.3 1.3-6.4 2.3.6 4.7 1.3 7 1.9l-6.6 5.4c-.6-.3-1.1-.6-1.7-.9zM267.1 400.3c2.1 2.2 3.1 3.4 4.1 4.5-2 1.4-3.9 3.1-6 4.1-.4.2-2.9-2.4-2.8-2.7 1-1.8 2.6-3.3 4.7-5.9z" fill="#fff"/>
  <text transform="translate(420.342 220.44)"><tspan x="0" y="0" font-family="Peanuts" font-size="25.748">BLACK KEYS</tspan><tspan x="3.3" y="30.9" font-family="Peanuts" font-size="25.748">STILL JUST</tspan><tspan x="-.6" y="61.8" font-family="Peanuts" font-size="25.748">PAINTED ON,</tspan><tspan x="31.9" y="92.7" font-family="Peanuts" font-size="25.748">I SEE...</tspan></text>
</svg>
