<svg xmlns="http://www.w3.org/2000/svg" viewBox="0 0 344.7 473.4" xml:space="preserve">
  <path fill="#fff" d="M0 0h344.7v473.4H0z"/>
  <path d="M344.7 459.5c-.5 3.4-1 6.9-1.3 9.4-7.3.4-14.5 1.1-21.7 1.1-9.5 0-19-.6-28.6-.9-2.2-.1-4.5.2-6.7.3-5 0-10-.1-15-.1-6.2 0-12.4.3-18.5.2-12.7-.2-25.4-.8-38.1-.6-23.9.3-47.8 1.1-71.6 1.6-15.3.3-30.6.7-45.9.7-8.1 0-16.2-.8-24.4-.7-11.7.1-23.4.9-35 .9-10.9 0-21.8-.6-32.7-.8C2 470.5 2 469 2 466.5c0-17.1-.3-34.1-.3-51.2 0-14.1.2-28.2.2-42.4 0-19.9-.2-39.7-.1-59.6 0-2.8.8-5.5 1.3-8.3.6.1 1.3.1 1.9.2v162.2h26c8.1 0 16.2.1 24.2-.1 7.4-.1 14.7-.8 22.1-.8 37.5-.2 75-.3 112.4-.4 12.9 0 25.8-.2 38.8-.3 28.8-.1 57.6-.2 86.4-.4 7.5 0 15.1-.2 22.6 0 3.3.1 4.5-1.6 4.4-4.5-.2-6-.9-11.9-.9-17.8-.2-19.8-.2-39.6-.1-59.5 0-10.3.3-20.7.4-31 .1-9.9.1-19.9.1-29.8-.1-37.7-.2-75.4-.4-113.1-.1-10.5-1-20.9-1-31.4 0-7.6 1.3-15.2 1.5-22.9.2-5.1-.7-10.2-.8-15.3-.1-8.6 0-17.1 0-27.1-16.3 5.3-31.7 9.9-47.8 12.7-16.2 2.8-32-1-48-.7 1.6 12.1-6 22.6-19.5 25.6-10.1 2.2-20.6 2.7-31 4l-5.1.6c-.2 4.6-.6 8.7-.6 12.8.1 3.8.7 7.5 1 11.3-.8.2-1.7.4-2.5.6-3.1-6.7-6.5-13.2-9.1-20.1-1.8-4.7-3.7-7.2-9.4-6.8-12.7.9-25.5 1.5-38.2 1.2-15.6-.4-31.2-1.1-46.6-3.2-8.8-1.2-17.4-5.2-25.6-9-6.8-3.1-7.9-9.6-4.8-19.1-8.1 0-16.2.5-24.2-.2s-16-2.6-24.2-4.1V277c-.5.2-1 .3-1.6.5-.6-1.7-1.8-3.4-1.8-5.1-.2-22.5-.2-45-.2-67.5 0-10.1.5-20.2.5-30.3 0-16.1-.5-32.2-.5-48.2-.1-12.1.3-24.2.2-36.3-.3-26.8-.6-53.6-.8-80.5C.8 1.7 2.4.4 10.4.6c10.9.3 21.7.5 32.6.5 16.8.1 33.6.1 50.4 0 19.4 0 38.7-.1 58.1-.1 36.4 0 72.7.2 109.1.1 13.2 0 26.3-.7 39.5-1.1h18.8c6.2.4 12.4 1.2 18.6 1 4.7-.2 6.3 1.5 6.1 5.9-.4 7.1-.9 14.2-.9 21.4 0 16.9.3 33.8.3 50.7.1 23.6.1 47.2.3 70.7 0 1.6.9 3.2 1.3 4.9.1 101.6.1 203.3.1 304.9zM187.6 149c3.6.6 6.1 1.6 8.4 1.4 8.4-.7 17-1.2 25.2-3 5.8-1.3 11.4-3.9 16.6-6.9 4.2-2.4 5.7-12.2 3.6-16.8-.5-1-.4-2.3-.6-3.5 1.2-.2 2.5-.6 3.6-.5 8.3.9 16.6 2.1 24.9 2.7 6.3.5 12.8 1.1 18.9 0 14.7-2.7 29.2-6.1 43.7-9.7 3.1-.8 7.7-3.6 8-5.8 1-8.6.6-17.3.6-26-.1-12.6-.4-25.1-.6-37.7 0-4.6.2-9.1.3-13.7.2-6.3.2-12.7.8-19 .4-4.4-1.1-6.7-5.6-6.7l-29.6.3C297.9 4 290 4 282 4c-4.5 0-9 0-13.5.1-5.3.2-10.7.8-16 .8-9.9 0-19.8-.3-29.7-.3-7.4 0-14.8.5-22.2.5-8.8-.1-17.6-.7-26.4-.7L28.1 5c-5.3 0-10.5-.4-15.8-.9-6.8-.6-8.6.6-8.5 5.5.4 14.9.9 29.8 1 44.7.2 17.6.2 35.4 0 53.1-.1 4.7 1.2 7.4 6.2 8.8 12.7 3.6 25.6 2.7 38.5 2.4 3.7-.1 7.4 0 11.1 0-.5 2.3-1.1 3.1-1.8 3.8-7.2 8.2-6.2 12.4 3.7 17.6 10.6 5.7 22.4 7.2 33.9 8.8 12.8 1.7 25.9 1.4 38.9 1.5 10.9 0 21.7-.8 32.6-1 9-.2 9-.1 12.2 8.4 1.6 4.3 3.2 8.5 5.4 14 .7-8.6 1.4-15.5 2.1-22.7z"/>
  <path d="M344.7 154.5c-.5-1.6-1.3-3.2-1.3-4.9-.2-23.6-.2-47.2-.3-70.7-.1-16.9-.4-33.8-.3-50.7 0-7.1.5-14.2.9-21.4.2-4.4-1.3-6-6.1-5.9-6.2.2-12.4-.6-18.6-1h25.8c-.1 51.6-.1 103.1-.1 154.6z" fill="#fff"/>
  <path d="M281.7 245.5c-.8 2.8-1.7 5.5-2.4 8.4-.4 1.5-1.1 3.3-.7 4.7 2 6.8.4 13.1-3.4 18.6-2.6 3.8-6.2 7.1-9.9 9.9-4 3-8.6 5.3-13 7.7-3.5 1.9-4.6 5.7-1.7 8.5 8.7 8.7 13.3 19.9 18.7 30.5 1 2 .6 4.7 1 7 .3 1.6.7 3.1 1.1 4.7 1.6 7.1 3.3 14.1 4.7 21.2.2 1.1-.2 2.9-1 3.7-5.3 4.9-2.7 10.8-2.3 16.4.4 5.2.9 10.4 1.1 15.6 0 .8-1.2 2.3-2.1 2.5-4.9 1.2-3.7 4.4-2.9 7.7.5 2 .9 4 1.1 5.1h30.8c.9 0 2-.2 2.7.2 6.1 3.7 12.8 3.1 19.5 3.7 1.5.1 2.8 2.4 4.2 3.7-1.1.9-2 2.3-3.3 2.6-3 .6-6.2.8-9.3 1.1-2.1.2-4.4-.2-6.4.4-2.7.8-4.9 2-7.5-.7-.9-1-3.6-1-5.1-.4-1 .4-1.2 2.7-2.2 3.7-3 2.8-5.8 6.2-9.4 7.9-12.5 5.8-24.4.8-36.5-2.5-3.8-1-7.9-1.4-11.8-1.2-8.1.5-16.2 1.7-24.2 2.6-4.4.5-8.8 1.7-13.1 1.4-4.4-.3-9-1.4-13-3.4-3.3-1.6-7.4-4-4.3-9.7-3.7 0-7.9 4.3-8.8-1.7-3.1.5-5.8.9-8.4 1.4-.9.2-2.2.5-2.4 1-1.4 4.1-4.8 5-8.4 6-7.5 2-14.7 6.1-23.1 3.1-1.5-.5-4.1.6-5.7 1.7-8.5 5.2-16.8 8.9-27.6 7.6-10-1.2-19-4-28.2-7.5-2.7-1-5.7-1.2-8.5-1.9-2.8-.8-6.3-1.2-2.9-6.8-6.5 1.9-11.8 3.5-17.2 5 3-6.7 10.7-4.2 15.3-7.7-.2-.5-.3-.9-.5-1.4-9.2 2.6-18.5 5.2-27.7 7.7-.2-.5-.3-1.1-.5-1.6 1.1-.7 2.3-1.3 3.4-2-7.2 3.2-13.6 2.1-20.3-3 9.2-5.6 20.3-3.9 29.5-8.8 1.9 3.2 4.7 2.9 7.7 1.6 2.4-1 4.3-1.6 7.2-.3 2.2 1.1 5.6-.2 9.1-.6-.7 1.7-1.2 2.9-2.2 5.3 2-1.4 3.9-2.1 3.9-3 .4-4.3.6-8.7.2-13-.1-1.2-2.3-2.6-3.9-3.1-3.1-1-6.3-1.5-8.8-2 1-6.7 2.2-13.1 2.6-19.5.2-2.2-2-4.4-2.4-6.8-.4-3.1-.2-6.3-.1-9.4.1-4.7.3-9.4.6-14.1.2-4.2.5-8.5 1-12.7 1.6-13.8 5.9-26.8 10.6-39.8.3-.7.5-1.7.2-2.3-2.2-3.8-1.6-6.4 2.3-9.1 2.9-1.9 1.2-3.9-1.5-5.4-9.5-5.2-18.5-10.9-25.8-19.2-7.3-8.4-10.3-18.4-12.4-29.1-2.2-11.3 1-21.6 4.1-32 .6-2 .6-4.1.9-6.2.2-1.6.3-3.2.5-4.9.7.1 1.3.1 2 .2-.2 4.6.4 9.5-.9 13.7-4 12.5-4.5 25.1-1.2 37.6C36.5 258 45.5 268 58.1 275c3.7 2.1 7.4 4.2 11 6.5 1 .6 2.1 2 2.2 3.1.4 5.9 4.8 7.5 9.2 9.3 6.5 2.6 12.9 5.3 20.1 8.3 14.7-6.4 14.7-6.4 12.8-19.5 6-2.1 12.2-4.1 18.1-6.6 7.5-3.2 14.5-7.3 15.6-16.5.5-4.3 0-8.7.3-13 .1-1 1.6-2.8 2.2-2.7 2.7.5 4.6.6 4.9-2.9.3-3.3-1.1-5.5-4-6.6-2.1-.8-4.3-1.1-6.3-1.7-.8 2.2-1.6 4.5-2.6 7.5-3.2-5.8-2-9.9 2.3-11.4-1.4-6.8-2.8-13.7-4.2-20.5.7-.2 1.3-.4 2-.6 1 2.8 2.1 5.6 2.8 8.5.7 2.9.3 6.2 1.6 8.7 1.1 2.2.1 7.3 5.9 5.8 2.3-.6 6.7 7 6.5 10.2-.2 4.1-2.8 6.8-7.1 7.5-.6 5.4-.4 11-1.9 16-1 3.3-4 6.5-7 8.4-5.6 3.8-11.8 6.6-17.8 9.8-1 .5-2.1.8-3.1 1.1-4.1 1.2-4.4 3.7-1.9 7.2 1.6 2.2 2 5.4 3.3 7.9 8.6 16.8 12.5 35.1 17.2 53.2 1.7 6.7 2.9 13.6 4.2 20.4.2 1.1.3 2.8-.3 3.3-5.8 5.6-2.6 12-2 18.2.1 1.1-.9 2.7-1.8 3.5-1.2 1-2.9 1.8-4.5 2-5.2.6-3.6 5-4.4 7.9-.2.6 2.6 2.3 4.2 3.2 3.2 1.8 6.3 4.2 9.7 5 3.6.7 7.6-.2 11.4-.4 1-.1 1.9-.6 2.8-.6h24.9c4.6 0 9.2.2 13.9.4.6 0 1.5-.1 1.8.2 4.6 4.9 4.8 1.4 4.8-2.5 0-7.9-.6-8.4-9.8-6.4 0-6.2.1-12.1 0-18-.1-7.6.8-15.6-.9-22.8-1.6-6.9-.9-13.2 0-19.8.2-1.4-.3-3.7-1.2-4.4-3.3-2.1-2.9-4.5-1-7 6.3-8.5 12.7-16.9 19.2-25.3 2.1-2.7 4.7-5 6.9-7.7 2.6-3.1.4-5.2-2.1-6.7-4.2-2.5-8.9-4.3-12.6-7.3-7.7-6.1-12.8-14.2-14.1-24.2-.1-.7-.1-1.3-.3-1.9-.4-1.1-.9-2.1-1.3-3.1-8.7.5-11-.5-12.6-5.9-1.4-4.8.7-8.7 4.4-11.2 3.4-2.3 2.8-4.8 1.5-7.5-4.4-9.4-2.1-18.8 5-25.9 3.6-3.6 5.8-8.6 8.5-13.1 2.6-4.4 4.4-9.6 10.1-11.3 4.8-1.4 9.5-2.8 14.3-4.1.7-.2 1.6 0 2.3.1 8.1 1.7 16.5 2.6 24.3 5.4 6 2.1 11.8 5.7 16.5 9.9 7.2 6.5 13.4 14.1 22.1 18.9 6.8 3.8 10.9 9.9 9.9 17.6-.9 7-6.2 11.2-13 13.4-.3.1-.5.4-.8.6.6.3 1 .4 1.5.6zm-58.4-60.7c-.1-.3-.2-.7-.3-1-.6-.1-1.2-.3-1.8-.3-10.8-.4-25.1 10.3-29.2 21.5-1.1 3-3.7 5.5-5.2 8.4-1.7 3.4-4.4 7-4.2 10.5.2 6.3 2.2 12.5 3.3 17.7-1.9.9-5.1 1.5-6.3 3.3-1.8 2.7-3 6.4.3 9.3 3.7 3.3 6.5.5 9.5-2.1.8 1.7 1.5 2.9 1.9 4.3 1.5 5.1 2.5 10.4 4.3 15.4 3.2 8.7 9.6 14.3 18.3 17.1 9.9 3.2 19.9 4.7 30.3 3.4 1.9-.2 3.9-.3 5.7-.8 7.9-2.2 14.6-6.4 20.2-12.5 6-6.6 8.4-12.2 5.3-21-1-2.7-3.2-5.1-3.5-7.8-.4-3.9.5-7.8.9-11.8 3.7 2.3 4.5-1.7 5.4-4.8 1.3-4.5-.3-8.3-3.2-11.8-1.3-1.5-2.3-3.3-3.5-4.9l1.8-1.2c2.9 3.8 7.4 7.2 8.4 11.5s-1.4 9.4-2.2 14c8-.9 11.5-4.1 11.1-10.7-.5-8.2-6.5-14.5-14.6-16.6-3.3-.9-7.9-.2-10-5.1h6.2c-5.8-3.4-10.6-6.3-15.5-9.1.2-.4.3-.7.5-1.1 1.6.2 3.2.3 5.3.5-5.5-7.4-13.8-5.4-20.7-7.8 1.9-.5 3.9-.9 5.8-1.4 0-.4.1-.9.1-1.3-3.8-.7-7.6-1.8-11.5-1.9-3.9-.2-7.9.3-11.7 1.1-3.7.8-7.2 2.5-10.8 3.8-.2-.5-.3-.9-.5-1.4 3.2-1.9 6.6-3.6 10.1-5.4zM67.6 301c-2.2 6.4-4.6 11.6-5.9 17-1.8 7.4-2.7 15-4.1 22.5-.4 2.5-.3 3.5 2.9 3.4 4.6-.1 9.4.2 13.9 1.1 3.5.7 3.9-.6 4.2-3.4.3-2.6 1.1-5.2 1.7-7.8.6.1 1.3.3 1.9.4-.5 2.8-1.9 5.8-1.2 8.2.8 2.8 3.7 4.8 5.2 7.5 2.3 4.1 4 2.3 5.5-.4 2.3-4.2 4.5-8.5 7.4-14.1 2.3 3.3 4 5.8 5.7 8.3 1.7 2.6 3.2 5.3 5.6 9.2 3.6-7.6 6.5-13.6 9.9-20.8 3.2 5.5 5.8 9.9 8.6 14.7 1-1.2 2.2-2 2.1-2.6-2.8-13.8-5.8-27.7-8.8-41.5h-1.7c-1.4 1.6-2.9 3.3-3.4 3.9-3.8-1.1-6.8-2.8-9.7-2.6-2.6.2-5.1 2.5-7.8 4-.2-1-.5-2.4-.9-4.1-3.6-.7-7.8-2.7-10.9-1.7-3.1 1.1-5 5.3-7.8 8.5-3.6-2.8-7.6-5.9-12.4-9.7zm54.6 50.1c-.7 0-1.3.1-2 .1-2.8 5-5.6 10.1-8.7 15.6-4.1-4.9-7.9-9.3-12-14.1-3.6 6-6.8 11.3-10.4 17.4-2.9-4.4-5-7.5-7.1-10.7-.8 5.4-.7 10.3-.1 15.1.1 1 1.7 2.6 2.7 2.7 4.7.4 9.4.9 14.1.4 11-1.2 21.9-3.2 32.9-4.2 4.7-.4 5.1-2.7 4.6-6.2-.3-2-1.1-3.9-2-6.9-.8 2.8-1.3 4.4-2.2 7.5-3.7-6.4-6.7-11.5-9.8-16.7zm-62 80.5c7.5 2.6 14.4 4.9 21.3 7.2 13.5 4.6 26.8 5.5 39.6-2.2 1.4-.8 3.3-2.5 3.3-3.7 0-1.4-1.8-3.6-3.2-3.9-8.1-1.9-16.3-7.4-24.5.1-.9.9-2.6 1-3.5 1.8-5 4.9-9.7 4.4-14.7-1.3 5.1-2.7 10.1-5.4 15-8.1l-.6-1.2c-6 2.5-12.1 5.1-17.1 7.2-2.6-1-4.9-2.6-7.1-2.6-4.1.3-6.4 3.7-8.5 6.7zM76.3 383c.6.1 1.1.1 1.7.2.2-1.7.6-3.4.6-5.2.2-8.5.4-17 .4-25.5 0-1.3-1.1-3.7-1.8-3.7-6.4-.3-12.9-.2-20.6-.2.6 5.1 1.3 10.9 2.1 16.7.3 2.2 2 4.3-1.7 5.4-.9.3-1 3.3-1.5 5 .7.4 1.5.8 2.2 1.1.6-1.3 1.2-2.6 1.9-3.9.6.2 1.2.5 1.7.7-.3 2.1-.5 4.3-.8 6.4.3.2.7.3 1 .5 1.1-1.7 2.3-3.4 3.4-5.1.5-.1.9-.1 1.4-.2.5 2.9 1 5.9 1.5 8.8.4.2.8.3 1.2.5l3.6-9.3c.4-.1.9-.2 1.3-.3.8 2.8 1.6 5.4 2.4 8.1zm163 45c0 .7.1 1.3.1 2 1.9.7 3.7 1.4 5.7 2 2.4.6 4.9.6 7.1 1.6 10.8 4.5 21.8 5.6 33.1 2.3 4.4-1.2 5.3-5 2.1-8.2-3.8-3.8-9.4-3.4-13.3.3-2.7 2.6-5.7 5.7-11.6 3.9 4.4-2.5 7.7-4.4 11-6.3-1.3-1.2-2.2-1.4-2.7-1.1-3.6 2.1-7.2 4.4-10.8 6.4-.8.4-1.9.2-2.9.3.3-1.1.4-2.4 1.1-3.2.8-1 2.1-1.7 3.2-2.5-2.8-.1-5.2 1.1-7.6 1.3-2.7.3-5.5-.7-8.2-.5-2.1 0-4.2 1.1-6.3 1.7zM200 363v5.8c22.4 3.5 44.7 7.1 66.9.1-.4-6.7-.9-6.6-6.7-4.9-6.3 1.8-12.9 2.6-19.4 3.6-3.7.6-7.5.9-11.2.7-9-.5-18-1.5-26.4-5-.8-.3-1.8-.2-3.2-.3zm54.1-3.6v.1c1.9-.3 4-.2 5.6-1 1.4-.7 2.3-2.4 3.4-3.7-1.5-.7-3.2-2.3-4.5-2-6.4 1.5-12.5 3.1-19.3 3.3-11.9.4-23-1.1-34-5.2-1.2-.5-3 .4-4.5.7.7 1.9 1.1 5.5 2 5.6 10.5 1.6 21 3.1 31.6 3.6 6.6.6 13.2-.8 19.7-1.4zm-95.9 68.5c.3-.6.5-1.3.8-1.9-3.2-1.6-6.2-3.9-9.5-4.7-4.3-1-8.8-4.1-13.2 0-1.9 1.7-4.2 3.1-6.3 4.6-2.9 2-3.1 4.3-.1 6.2 1.4.9 3.3 1.4 5.1 1.5 8.2.6 15.9-1.8 23.2-5.7zm51.3 3.4c-1.4-1.1-2.6-2-4.2-3.3v5c-2.5-1.6-4.2-2.6-5.9-3.8-4-2.8-8.2-2.4-12.4-.6-.8.4-1.5 1.7-1.6 2.6 0 .6 1 1.8 1.7 2 3 .8 6.1 1.9 9.1 1.7 11.2-.4 22.5-1.2 33.7-2.2 2.1-.2 4-2 6.1-3.1-3.9-5.5-15.4-4.1-18.7 1.6-1.9-.8-3.9-1.7-5.7-2.4-.8.9-1.4 1.7-2.1 2.5zm-1.5-13.2c7.7 1.2 15.2-3.5 22.4-.4 0 .6.1 1.2.1 1.8-6.5.8-13.1 1.6-19.6 2.4.1.5.1 1 .2 1.5 6.8.7 13.6 1.2 20.8-1.9-.5-4-1-7.9-1.5-11.6-8.1-.7-15.5-1.3-23.3-2 .4 3.4.7 6.6.9 10.2zm51-81.9c.1-2.4 0-6.5-3-4.8-7.8 4.5-15.9 2.3-23.8 2.3-6.3 0-12.7-2.1-19-3.3-1.8-.3-4-1.5-5.1-.9-1.2.7-1.3 3.2-1.9 5 21.4 4.3 21.7 7 52.8 1.7zm.9 3.8c-19.3 9.6-37.6 6.5-55.6-1.2-1.6 4.8.2 6.5 3.6 7.4 13.5 3.6 27.3 3.4 41.1 2.4 3.8-.3 7.5-1.1 12.1-1.8-.2-1.8-.7-4.2-1.2-6.8zm-53.4-21.5c1.1.6 3.1 1.2 3.1 1.7-.3 5.2 3.8 4.6 6.6 4.9 7.4.9 14.9 1.5 22.4 1.9 6.1.3 12.1.1 18.3.1-.5-6.3-1.3-6.5-6.4-5.4-5.4 1.2-11 2.1-16.6 2-7.6 0-14.7-2.8-21-7.2-2.7-1.7-4.8-1.4-6.4 2zm-7.1 56.2c-.2.5-.5 1.1-.7 1.6 1 .7 1.9 1.7 2.9 1.9 4.7.8 9.4 1.4 14.1 2 5.9.8 11.7 1.5 17.6 2.4 11.2 1.8 21.7-2.1 32.3-4.2 3.5-.7 3.3-3 1.6-5.3-2.1.9-4 1.8-5.9 2.5-8.2 2.9-16.4 5-25.5 4.3-7.8-.6-15.5-.9-23.2-2.9-4.3-1.2-8.8-1.6-13.2-2.3zm43.3 42.5c7.3-.4 14.4-.7 21.4-1.3.6 0 1.5-1.4 1.5-2.1-.1-2.5-.5-5-.7-6.7-7.8.4-14.9.7-22.2 1v9.1zm-25.5-113c-1.7 2.6-3.4 5.3-5.3 8.1 14.9 4 29.3 4.7 44 3.4-3.1-7.6-4.5-8.8-8.2-6.2-9.1 6.4-17.8 3.5-26.4-.7-1.5-.7-2.3-2.5-4.1-4.6zM128 402.3c-7.8.7-15.6 1.1-23.3 2.4-1.5.2-2.4 4-3.6 6.1 1.7.6 3.6 2 5.2 1.7 6.1-.9 12.1-2.6 18.2-3.4 4.1-.6 4.5-2.5 3.5-6.8zm-59.9 4.8c.3 2 1.1 3.7.7 5.1-1.1 3.6 1.9 4.5 3.6 4.3 7-.8 14-2.2 21-3.7.7-.2 1.2-2.6 1.2-4 0-.4-2-1.3-2.9-1.2-6.4 1.2-12.6.6-18.9-.5-1.5-.2-3 0-4.7 0zm178.8-106c-6.4-.6-12.2-1.3-18-1.6-2.5-.1-5 .4-7.4.7 2 1.5 3.9 3.5 6.1 4.3 6.6 2.4 13.4 2.7 20.3.6-.5-2.3-.9-3.8-1-4zm-179.6-9.4c-.4.6-.9 1.2-1.3 1.9 4.4 4.2 8.8 8.5 13.6 13.1 1.9-2.5 3.5-4.5 5.2-6.8-5.6-2.7-11.5-5.5-17.5-8.2zm199.1 50.9c-2.5 2.9 2.2 22.1 6.5 26.2-1.6-9.5-1.1-18.4-6.5-26.2zm-32.5 66.6c.6 4.9 1.1 9.5 1.9 14.1.2 1 1.4 1.8 2.1 2.6.8-1.1 2.3-2.2 2.3-3.2-.1-4.6-.7-9.2-1.1-13.9-1.7 0-3.4.2-5.2.4zm-105.2 3.7c-.2-.7-.3-1.3-.5-2-7.7 1.9-15.5 3.8-23.2 5.7.1.5.2 1 .4 1.6 7.7-1.8 15.5-3.6 23.3-5.3zm-59.2 8.3c9.2 2.5 17-2.3 25.3-3.9-.1-.4-.1-.8-.2-1.3-8.2 1.7-16.4 3.4-25.1 5.2zm196.2-.1c-.1-.7-.1-1.3-.2-2-7.1.5-14.2 1.1-21.3 1.6.1.6.1 1.3.2 1.9 7.1-.4 14.2-1 21.3-1.5zm-70.4-62.7c.5 0 1.1.1 1.6.1 1.2-4.1 2.5-8.2 3.5-12.4.2-.8-.6-1.9-.9-2.9-.8.6-2.2 1.2-2.4 1.9-.7 4.5-1.2 8.9-1.8 13.3zm-85.8 62.9c7.3 2.8 10.7 1.8 15.9-4.1-5.2 1.3-10.2 2.6-15.9 4.1zm8.1-118.2c.5-3.2.9-5.4 1.2-7.6-.5-.1-.9-.3-1.4-.4-1.9 1.3-3.8 2.6-6.5 4.4 2.7 1.4 4.3 2.3 6.7 3.6zm17.4 40.5c-.6.2-1.3.3-1.9.5.8 4.3 1.7 8.7 2.5 13 .5-.1 1.1-.2 1.6-.3 1.3-4.8-2.1-8.7-2.2-13.2zm63.7-17.7c2.7 1.8 4.1 2.7 5.9 3.9.9-1.9 1.5-3.2 2.9-6.2-3.5 1-5.5 1.5-8.8 2.3zm3.2 12c.3-.9.6-1.8.9-2.8-2.5-.7-5-1.5-7.5-2.2-.2.7-.4 1.3-.6 2 2.3 1 4.8 2 7.2 3z"/>
  <path d="M43.1 178.8c-.5 1.7-1 3.3-1.8 5.8 14.2-15 29.8-22.2 50.2-18 19.7 4 35.4 12.7 45.7 30.4 4.4-1.4 7.4-8 12.6-3.7 2.8 2.3 4.2 5.9 2 10.2-.6-1.3-1-2.8-2-3.8-1.6-1.7-3.5-3-5.3-4.5-1.7 2.2-3.5 4.4-5 6.8-.6 1-.6 2.5-1.6 3.8-6.5-17.3-19.8-26.6-35.7-32.1-10.8-3.7-22.4-7-34-3.3-10.3 3.3-19.9 8-25.6 18.1-1.6 2.9-2.9 6-4.3 8.8-3.5-3.8-2.4-9.6 4.8-18.5zM92.5 243.1c-6.2 4.4-13 4.4-16.6.5-4.4-4.8-4.5-8.8 0-14.4.9 4.5-1.5 10.2 4.1 12.2 3.8 1.2 8 1.1 12.5 1.7zM79.1 224.1c2.1-.5 4-1.6 5.8-1.3 3.6.6 5.8 3.2 6.3 6-3.6-1.4-7.2-2.8-12.1-4.7z"/>
  <path d="M223.3 184.8c-3.4 1.7-6.9 3.4-10.3 5.2.2.5.3.9.5 1.4 3.6-1.3 7.1-3 10.8-3.8 3.8-.8 7.8-1.3 11.7-1.1 3.8.2 7.7 1.2 11.5 1.9 0 .4-.1.9-.1 1.3-1.9.5-3.9.9-5.8 1.4 6.9 2.4 15.2.4 20.7 7.8-2-.2-3.6-.4-5.3-.5-.2.4-.3.7-.5 1.1 4.8 2.9 9.7 5.7 15.5 9.1h-6.2c2.1 5 6.7 4.3 10 5.1 8.1 2.1 14.1 8.4 14.6 16.6.4 6.6-3.1 9.9-11.1 10.7.9-4.7 3.2-9.7 2.2-14-1-4.2-5.4-7.7-8.4-11.5l-1.8 1.2c1.1 1.7 2.2 3.4 3.5 4.9 3 3.4 4.6 7.3 3.2 11.8-.9 3.1-1.6 7.1-5.4 4.8-.4 4-1.3 7.9-.9 11.8.3 2.7 2.5 5.1 3.5 7.8 3.1 8.8.7 14.4-5.3 21-5.5 6.1-12.2 10.3-20.2 12.5-1.8.5-3.8.6-5.7.8-10.4 1.3-20.4-.2-30.3-3.4-8.8-2.8-15.2-8.4-18.3-17.1-1.8-5-2.8-10.3-4.3-15.4-.4-1.3-1.1-2.6-1.9-4.3-3 2.6-5.8 5.5-9.5 2.1-3.3-2.9-2.1-6.7-.3-9.3 1.2-1.8 4.4-2.4 6.3-3.3-1.1-5.2-3-11.5-3.3-17.7-.1-3.4 2.5-7.1 4.2-10.5 1.5-2.9 4.1-5.4 5.2-8.4 4.1-11.1 18.4-21.9 29.2-21.5.6 0 1.2.2 1.8.3.2.6.4.9.5 1.2zm41 31.4c.6 2.9.9 4.5 1.3 6.1 1.8 5.8 1 8.5-4.4 11.2-4 2-8.5 3.2-12.9 4.4-2.5.7-5.2.5-7.8.6-.1-.7-.2-1.3-.3-2 1.9-.9 3.8-1.6 5.5-2.7 1.7-1.1 3.3-2.5 4.9-3.8-.2-.5-.5-1-.7-1.5-5.1.2-8.3 5.5-13 6.5-5 1.1-10.1 2-15.2 3-.2-.6-.4-1.3-.6-1.9 2.3-1.3 4.4-3 6.8-3.9 2.2-.9 5-.5 6.4-4.4-7 1.9-12.5 3.4-18 4.8-.2-.5-.3-1-.5-1.5 1.5-1.3 3.1-2.5 4.6-3.8-.3-.4-.6-.8-.8-1.1-3.6 2.5-7.3 5-10.9 7.6.1.5.3 1 .4 1.4h7.2c-.3.5-.5 1-.8 1.4 1.7 1.1 3.2 2.5 5 3.3 4.1 1.7 9.5-.8 12.9 3.8.1.1.6-.2 1.1-.4-.4-1.2-.8-2.4-1.1-3.5 8.7 1.2 17 2.3 26.2 3.5-1.2-2.1-2-3.3-2.7-4.6 7.8-3.3 11.8-7.3 12.4-12.5.5-3.6-.7-6.8-5-10zm-32 59.9c5.8 3.7 20.6 1.9 23.1-2.9-6.6-7.5-19.9-5.9-23.1 2.9zm-40.8-48.4c-3.1 4.7-3.1 7.9-.1 11.1.4-2.6.7-4.9 1.1-7.2.5.1 1 .1 1.5.2v3.6c.4.2.7.5 1.1.7 4.5-5.2 8.9-10.3 13.4-15.5-.5-.5-1.1-.9-1.6-1.4-2.7 3.2-5.4 6.4-8 9.6-.3-.2-.5-.5-.8-.7.6-1.4 1.2-2.8 1.8-4.3l-1.2-.6c-1.1 1.8-2.2 3.7-3.4 5.7-1.2-.3-2.5-.8-3.8-1.2zm50.4 24.5c-.8 4.5 1.7 6.5 4 6 3.4-.6 5.2-3.6 4.7-7.5-.5-3.7-2.7-3.2-5.8-2.6 2.4 2.5 4.3 4.8 1 7.7-1.2-1-2.1-2-3.9-3.6zm-9.6 3.2c1.3-2.4 2.6-3.7 2.4-4.6-.3-1.3-1.7-2.3-2.6-3.4-.9.8-2.5 1.7-2.4 2.4.2 1.5 1.3 2.8 2.6 5.6zm21-1.9c.8.1 1.7.1 2.5.2.4-1.7.7-3.5 1.1-5.2l-3.6-.3v5.3zM67.6 301c4.8 3.8 8.8 6.9 12.6 9.9 2.7-3.2 4.7-7.4 7.8-8.5 3.1-1.1 7.3 1 10.9 1.7.4 1.7.7 3.1.9 4.1 2.7-1.5 5.2-3.8 7.8-4 2.9-.2 5.9 1.5 9.7 2.6.5-.6 2-2.3 3.4-3.9h1.7c3 13.8 5.9 27.6 8.8 41.5.1.6-1.1 1.4-2.1 2.6-2.8-4.8-5.4-9.2-8.6-14.7-3.4 7.2-6.3 13.2-9.9 20.8-2.4-3.9-3.9-6.6-5.6-9.2-1.6-2.5-3.4-4.9-5.7-8.3-2.9 5.6-5.1 9.9-7.4 14.1-1.5 2.7-3.1 4.5-5.5.4-1.5-2.7-4.4-4.7-5.2-7.5-.7-2.4.7-5.5 1.2-8.2-.6-.1-1.3-.3-1.9-.4-.6 2.6-1.4 5.2-1.7 7.8-.3 2.7-.7 4.1-4.2 3.4-4.5-1-9.3-1.3-13.9-1.1-3.1.1-3.3-1-2.9-3.4 1.4-7.5 2.3-15.1 4.1-22.5 1.2-5.6 3.5-10.8 5.7-17.2z" fill="#fff"/>
  <path d="M122.2 351.1c3.1 5.2 6.1 10.3 9.9 16.6.9-3.1 1.4-4.6 2.2-7.5.9 3.1 1.7 5 2 6.9.5 3.4 0 5.7-4.6 6.2-11 1-21.9 3-32.9 4.2-4.6.5-9.4 0-14.1-.4-1-.1-2.6-1.7-2.7-2.7-.6-4.8-.7-9.7.1-15.1 2.1 3.2 4.2 6.4 7.1 10.7 3.6-6.1 6.8-11.4 10.4-17.4 4.1 4.9 7.8 9.2 12 14.1 3.1-5.5 5.9-10.5 8.7-15.6.6.1 1.3.1 1.9 0zM60.2 431.6c2.2-3.1 4.4-6.5 8.6-6.6 2.2-.1 4.5 1.6 7.1 2.6 5-2.1 11-4.7 17.1-7.2l.6 1.2c-5 2.7-9.9 5.3-15 8.1 5.1 5.7 9.7 6.2 14.7 1.3.9-.9 2.5-1 3.5-1.8 8.1-7.5 16.4-2 24.5-.1 1.4.3 3.1 2.5 3.2 3.9 0 1.2-1.9 2.9-3.3 3.7-12.8 7.7-26.1 6.7-39.6 2.2-7-2.4-13.9-4.7-21.4-7.3zM76.3 383c-.8-2.6-1.6-5.3-2.4-7.9-.4.1-.9.2-1.3.3l-3.6 9.3c-.4-.2-.8-.3-1.2-.5-.5-2.9-1-5.9-1.5-8.8-.5.1-.9.1-1.4.2-1.1 1.7-2.3 3.4-3.4 5.1-.3-.2-.7-.3-1-.5.3-2.1.5-4.3.8-6.4-.6-.2-1.2-.5-1.7-.7-.6 1.3-1.2 2.6-1.9 3.9-.7-.4-1.5-.8-2.2-1.1.5-1.7.6-4.7 1.5-5 3.7-1.1 2.1-3.3 1.7-5.4-.9-5.8-1.5-11.6-2.1-16.7 7.7 0 14.2-.1 20.6.2.7 0 1.8 2.4 1.8 3.7 0 8.5-.2 17-.4 25.5 0 1.7-.4 3.4-.6 5.2-.5-.3-1.1-.4-1.7-.4zM239.3 428c2.1-.7 4.1-1.7 6.2-1.9 2.7-.2 5.5.8 8.2.5 2.5-.2 4.8-1.4 7.6-1.3-1.1.8-2.4 1.5-3.2 2.5-.7.8-.7 2.1-1.1 3.2 1-.1 2.1.2 2.9-.3 3.7-2 7.2-4.3 10.8-6.4.6-.3 1.4 0 2.7 1.1-3.3 1.9-6.6 3.8-11 6.3 5.9 1.7 8.9-1.4 11.6-3.9 3.9-3.7 9.5-4 13.3-.3 3.2 3.2 2.3 7-2.1 8.2-11.3 3.2-22.3 2.2-33.1-2.3-2.2-.9-4.8-.9-7.1-1.6-1.9-.5-3.8-1.3-5.7-2 .1-.4.1-1.1 0-1.8zM200 363c1.4.1 2.4-.1 3.2.3 8.5 3.5 17.4 4.5 26.4 5 3.7.2 7.5-.2 11.2-.7 6.5-1 13.1-1.8 19.4-3.6 5.8-1.7 6.3-1.7 6.7 4.9-22.3 7-44.5 3.4-66.9-.1V363zM254.1 359.4c-6.6.6-13.1 2-19.7 1.6-10.6-.5-21.1-2.1-31.6-3.6-.9-.1-1.4-3.7-2-5.6 1.5-.3 3.2-1.1 4.5-.7 11 4.1 22.2 5.5 34 5.2 6.8-.2 12.9-1.9 19.3-3.3 1.3-.3 3 1.3 4.5 2-1.1 1.3-2 3-3.4 3.7-1.6.8-3.7.7-5.6 1 .1-.2.1-.3 0-.3zM158.2 427.9c-7.3 3.8-14.9 6.3-23.3 5.7-1.7-.1-3.6-.6-5.1-1.5-3-1.9-2.8-4.1.1-6.2 2.1-1.5 4.4-2.8 6.3-4.6 4.5-4.1 9-1 13.2 0 3.4.8 6.4 3.1 9.5 4.7-.2.7-.5 1.3-.7 1.9zM209.5 431.3c.7-.9 1.3-1.7 2-2.6l5.7 2.4c3.4-5.7 14.8-7 18.7-1.6-2.1 1.1-4.1 2.9-6.1 3.1-11.2 1-22.5 1.7-33.7 2.2-3 .1-6.1-1-9.1-1.7-.7-.2-1.8-1.3-1.7-2 .1-.9.8-2.2 1.6-2.6 4.2-1.8 8.4-2.2 12.4.6 1.7 1.2 3.5 2.2 5.9 3.8v-5c1.7 1.4 2.9 2.3 4.3 3.4zM208 418.1c-.3-3.6-.5-6.8-.8-10.2 7.8.7 15.2 1.3 23.3 2 .5 3.7 1 7.6 1.5 11.6-7.2 3.1-14 2.6-20.8 1.9-.1-.5-.1-1-.2-1.5 6.5-.8 13.1-1.6 19.6-2.4 0-.6-.1-1.2-.1-1.8-7.3-3.1-14.7 1.6-22.5.4zM259 336.2c-31.1 5.3-31.4 2.6-52.9-1.7.6-1.8.7-4.3 1.9-5 1.2-.7 3.4.5 5.1.9 6.3 1.2 12.7 3.3 19 3.3 7.9 0 16 2.1 23.8-2.3 3.1-1.7 3.3 2.4 3.1 4.8z" fill="#fff"/>
  <path d="M259.9 340c.5 2.6.9 5 1.3 6.8-4.6.7-8.4 1.5-12.1 1.8-13.8 1-27.6 1.2-41.1-2.4-3.4-.9-5.2-2.6-3.6-7.4 17.9 7.7 36.2 10.8 55.5 1.2zM206.5 318.5c1.5-3.4 3.7-3.8 6.4-1.9 6.3 4.3 13.4 7.1 21 7.2 5.5 0 11.1-.9 16.6-2 5.1-1.1 5.9-.9 6.4 5.4-6.1 0-12.2.2-18.3-.1-7.5-.4-15-1-22.4-1.9-2.8-.3-6.9.3-6.6-4.9 0-.5-2-1.2-3.1-1.8zM199.4 374.7c4.4.7 8.9 1.2 13.2 2.3 7.6 2 15.4 2.2 23.2 2.9 9.1.7 17.2-1.4 25.5-4.3 2-.7 3.9-1.6 5.9-2.5 1.7 2.3 1.9 4.6-1.6 5.3-10.7 2.1-21.1 6-32.3 4.2-5.8-.9-11.7-1.6-17.6-2.4-4.7-.6-9.4-1.2-14.1-2-1.1-.2-2-1.2-2.9-1.9.2-.5.4-1.1.7-1.6zM242.7 417.2v-9.1c7.3-.3 14.5-.7 22.2-1 .2 1.7.6 4.2.7 6.7 0 .7-.9 2.1-1.5 2.1-7 .5-14.1.9-21.4 1.3zM217.2 304.2c1.8 2.1 2.7 3.9 4.1 4.6 8.6 4.2 17.4 7.1 26.4.7 3.7-2.6 5.1-1.4 8.2 6.2-14.7 1.3-29.1.7-44-3.4 1.8-2.8 3.6-5.5 5.3-8.1zM128 402.3c1 4.4.6 6.3-3.5 6.8-6.1.8-12.1 2.5-18.2 3.4-1.6.2-3.4-1.1-5.2-1.7 1.2-2.1 2.1-5.8 3.6-6.1 7.7-1.4 15.5-1.8 23.3-2.4zM68.1 407.1c1.7 0 3.2-.2 4.6 0 6.3 1.1 12.6 1.7 18.9.5.9-.2 2.9.8 2.9 1.2 0 1.4-.5 3.8-1.2 4-6.9 1.5-13.9 2.9-21 3.7-1.7.2-4.7-.7-3.6-4.3.5-1.4-.3-3.1-.6-5.1z" fill="#fff"/>
  <path d="M246.9 301.1c.1.2.4 1.7 1 4-6.9 2.2-13.7 1.8-20.3-.6-2.3-.8-4.1-2.8-6.1-4.3 2.5-.3 5-.8 7.4-.7 5.8.3 11.6 1 18 1.6zM67.3 291.7c6 2.8 11.9 5.6 17.4 8.1-1.7 2.3-3.3 4.3-5.2 6.8-4.8-4.6-9.2-8.8-13.6-13.1.5-.6.9-1.2 1.4-1.8zM266.4 342.6c5.4 7.8 4.9 16.7 6.5 26.2-4.3-4.1-9-23.2-6.5-26.2zM233.9 409.2c1.9-.2 3.5-.3 5.2-.5.4 4.7 1 9.3 1.1 13.9 0 1.1-1.5 2.2-2.3 3.2-.7-.9-2-1.7-2.1-2.6-.9-4.6-1.3-9.2-1.9-14zM128.7 412.9c-7.8 1.8-15.5 3.5-23.3 5.3-.1-.5-.2-1-.4-1.6 7.7-1.9 15.5-3.8 23.2-5.7.2.7.3 1.3.5 2zM69.5 421.2c8.8-1.8 16.9-3.5 25.1-5.2.1.4.1.8.2 1.3-8.3 1.6-16.1 6.4-25.3 3.9zM265.7 421.1c-7.1.5-14.2 1.1-21.3 1.6-.1-.6-.1-1.3-.2-1.9 7.1-.5 14.2-1.1 21.3-1.6.1.6.1 1.3.2 1.9zM195.3 358.4c.6-4.4 1.1-8.8 1.9-13.2.1-.8 1.5-1.3 2.4-1.9.3 1 1.1 2 .9 2.9-1 4.2-2.3 8.2-3.5 12.4-.6-.1-1.1-.1-1.7-.2zM109.5 421.3c5.8-1.5 10.8-2.8 15.9-4.1-5.3 5.9-8.7 6.9-15.9 4.1zM117.6 303.1c-2.5-1.3-4.1-2.2-6.7-3.5 2.7-1.9 4.6-3.1 6.5-4.4.5.1.9.3 1.4.4-.3 2.1-.6 4.3-1.2 7.5zM135 343.6c.1 4.5 3.6 8.5 2.2 13.2-.5.1-1.1.2-1.6.3-.8-4.3-1.7-8.7-2.5-13 .6-.2 1.2-.4 1.9-.5zM198.7 325.9c3.3-.8 5.3-1.3 8.8-2.2-1.4 2.9-2 4.3-2.9 6.2-1.9-1.2-3.2-2.2-5.9-4zM201.9 337.9c-2.4-1-4.8-2-7.3-3 .2-.7.4-1.3.6-2 2.5.7 5 1.5 7.5 2.2-.2 1-.5 1.9-.8 2.8z" fill="#fff"/>
  <path d="M264.3 216.2c4.3 3.2 5.5 6.4 5.1 10.1-.6 5.2-4.6 9.2-12.4 12.5.8 1.3 1.5 2.5 2.7 4.6-9.2-1.2-17.6-2.4-26.2-3.5.3 1 .7 2.2 1.1 3.5-.5.2-1 .5-1.1.4-3.3-4.6-8.7-2-12.9-3.8-1.8-.8-3.3-2.2-5-3.3.3-.5.5-1 .8-1.4h-7.2c-.1-.5-.3-1-.4-1.4 3.6-2.5 7.3-5 10.9-7.6.3.4.6.8.8 1.1-1.5 1.3-3.1 2.5-4.6 3.8.2.5.3 1 .5 1.5 5.5-1.5 11-3 18-4.8-1.4 3.9-4.2 3.5-6.4 4.4-2.4.9-4.6 2.6-6.8 3.9.2.6.4 1.3.6 1.9 5.1-1 10.1-1.9 15.2-3 4.8-1 7.9-6.3 13-6.5.2.5.5 1 .7 1.5-1.6 1.3-3.2 2.7-4.9 3.8-1.7 1.1-3.7 1.8-5.5 2.7.1.7.2 1.3.3 2 2.6-.2 5.3 0 7.8-.6 4.4-1.2 8.8-2.4 12.9-4.4 5.4-2.6 6.2-5.4 4.4-11.2-.5-1.7-.8-3.3-1.4-6.2zM232.3 276.1c3.3-8.7 16.5-10.3 23.1-2.9-2.6 4.8-17.3 6.6-23.1 2.9zM191.5 227.7c1.3.4 2.6.9 3.7 1.3 1.2-2.1 2.3-3.9 3.4-5.7l1.2.6c-.6 1.4-1.2 2.8-1.8 4.3.3.2.5.5.8.7 2.7-3.2 5.4-6.4 8-9.6.5.5 1.1.9 1.6 1.4-4.5 5.2-8.9 10.3-13.4 15.5-.4-.2-.7-.5-1.1-.7v-3.6c-.5-.1-1-.1-1.5-.2-.3 2.3-.7 4.6-1.1 7.2-3-3.3-2.9-6.5.2-11.2zM241.9 252.2c1.7 1.6 2.7 2.5 4 3.7 3.3-2.9 1.4-5.2-1-7.7 3.1-.5 5.3-1.1 5.8 2.6.5 3.9-1.3 6.8-4.7 7.5-2.4.4-4.8-1.5-4.1-6.1zM232.3 255.4c-1.3-2.8-2.4-4.1-2.6-5.6-.1-.7 1.5-1.6 2.4-2.4.9 1.1 2.3 2.1 2.6 3.4.2.9-1.1 2.2-2.4 4.6zM253.3 253.5v-5.3l3.6.3c-.4 1.7-.7 3.5-1.1 5.2-.8 0-1.7-.1-2.5-.2z"/>
  <text transform="translate(53.563 37.832)"><tspan x="0" y="0" font-family="Peanuts" font-size="28">NOW, WHAT IN THE</tspan><tspan x="-28.8" y="33.6" font-family="Peanuts" font-size="28">WORLD AM I GOING TO</tspan><tspan x="-26.1" y="67.2" font-family="Peanuts" font-size="28">DO WITH AN ELECTRIC</tspan><tspan x="23.7" y="100.8" font-family="Peanuts" font-size="28">TRAIN?!</tspan></text>
  <text transform="translate(9.65 462.562)" fill="#010101" font-family="BaskervilleT-Bold" font-size="20" letter-spacing="1">12-26</text>
  <text transform="translate(250.785 462.562)" fill="#010101" font-family="Peanuts" font-size="20" letter-spacing="3">SCHULZ</text>
</svg>
