<svg xmlns="http://www.w3.org/2000/svg" viewBox="0 0 260.3 473.4" xml:space="preserve">
  <path fill="#fff" d="M0 0h260.3v473.4H0z"/>
  <path d="M206.1 473.4h-89.4c-1.6-.3-3.1-.8-4.7-.8-12.7-.1-25.3-.3-38-.2-8.5.1-17.1.7-25.6 1H2.2c-.3-2.1-.9-4.2-.9-6.3.2-33.2.7-66.4.8-99.6.1-30.1-.1-60.2-.1-90.3 0-15.1.4-30.1.4-45.2 0-25.6-.4-51.2-.4-76.8 0-43.5.1-87 .1-130.5C2 17.9 2 11 2 3.8c4.3 0 8 .1 11.7 0 15.1-.3 30.1-.7 45.2-1.1 14.5-.4 28.9-.7 43.3-1.2 12.7-.4 25.4-.1 38.1-.5 13.4-.4 26.8-.1 40.2-.3 7.2-.1 14.3-.5 21.5-.8h58.3v57.3c-.3.3-.9.7-.9 1-.1 9.6-.1 19.1-.1 28.7 0 1.2.6 2.3 1 3.5v2c-.3 3.5-1 7-.9 10.6.1 5.5.6 11.1.9 16.6V199c-.3 1.6-.7 3.3-.8 4.9-.1 27.1-.1 54.1-.1 81.2 0 62.8-.1 125.6-.1 188.3h-21.1c-1.3-.3-2.7-.9-4-1-8-.1-16-.1-24 0-1.4.1-2.8.7-4.1 1zm-158.3-94c-.2-6.3-3.2-8-11.1-5.8 4.1 2.2 7.6 4 11.1 5.8 8.7 3.6 17.3 7.3 25.7 10.8 1.5-3.1 2.9-6 4.7-9.7-3-1-5.9-2.9-8.6-2.6-3 .3-5.8 2.7-9.8 4.7-1.8-3-4.1-7-5.9-10-2.3 2.6-4.2 4.7-6.1 6.8zM257.2 340V77.1c-1.8.6-3.2.9-4.4 1.5-2.5 1.2-4.7 3.2-7.4 3.9-10.1 2.8-20.2 6-30.5 7.6-13.1 2-26.4 3.1-39.6 3.8-9.2.5-18.5-.6-27.8-.7-8-.1-16 .4-24 .5-10.3.2-20.7.1-31 .5-1.7.1-4.2 2.1-4.9 3.8-1 2.9-.7 6.2-1.3 9.3-.8 4.3-1.9 8.6-2.9 12.9-.7-.1-1.3-.2-2-.2-.4-8.5-.8-17-1.3-26.2-15.4-.7-30.5-1.5-45.7-2.2-2-.1-4.1-.1-6-.7-8.1-2.6-16.2-5.4-24.3-8.2v386.5c2.6.3 5.1.8 7.5.8 5.3-.1 10.6-.6 15.9-.7 9.2-.1 18.4.2 27.6.2 13.2-.1 26.4-.5 39.6-.6 7.2 0 14.4.7 21.6.6 12.2-.1 24.4-.8 36.6-1 8.8-.2 17.6-.1 26.5-.1 9.7 0 19.3-.1 29 0 10.1 0 20.3.1 30.4.3 4.5.1 9 .3 13.3 1.2 3.9.9 5.2-.2 5.2-4-.1-7.8 0-15.6 0-23.4v-29.1c-3.7-.9-5.2.2-5.1 3.7.2 4.8.4 9.6-.2 14.3-.2 1.7-2.5 3.2-3.8 4.7-1.3-1.4-3.3-2.7-3.8-4.4-.7-2.1-.2-4.6-.2-7-.1-13.1 0-13.2-11.6-15.1-11.6-1.9-23-4.8-34.6-6.9-5.6-1-11.5-2.1-17.1-1.5-7.3.8-14.9 2.2-21.5 5.3-10.6 5-21.2 8.1-32.9 5.6-9.5-2-19.3-3.3-28.2-6.9-15.4-5.9-30.3-13.6-45.6-20.2-3.9-1.7-8.6-6-12.8.1-.3.5-1.7.3-2.6.5-.4 5.5-.9 10.8-1 16.1-.1 3.2-.4 6.7-3.8 6.8-4.2.1-3.3-4.4-4.2-7.1-.1-.4.4-1 .3-1.4-1.4-7.4 3.5-16-4.2-22.3-.4-.3 0-1.5 0-2.3 2.8 1.6 5.6 3.6 6 6.1.7 4.4 0 9-.1 13.5v9.2c1.6-1.8 2.4-2.4 2.4-2.9.1-2.7-.9-5.7.1-7.9 1.9-4.3-4-12.4 6.6-13.1-4.3-2.6-8.3-4.7-12.4-6.3-5.2-2-10.6-3.5-15.6-5.7-1.4-.6-2.8-3-2.9-4.8-.4-4.7-.1-9.5-.1-14.8 1.2-.4 3.1-1.4 5.2-1.8 10.8-2.1 21.5-4.3 32.4-6.2 12.4-2.1 24.8-3.9 37.2-5.9 17.8-2.8 35.5-5.8 53.4-8.5 6.3-.9 12.9-2.3 19-1.2 8 1.6 15.6 2.7 23.7.9 4-.9 8.4-1.6 12.4-1 7.6 1.1 15.2 3.1 22.7 4.7 3.4.8 6.7 1.8 10.1 2.6 10.4 2.5 21.3 5 32.7 7.7zM82.9 98.5c.5.4 1.1.9 1.6 1.3.3-.8.6-1.6.8-2.4 1.6-5.9 6.4-7.1 11.5-7.5 3.7-.3 7.4-.2 11-.2 13-.2 25.9-.4 38.9-.5 15-.1 30.1.3 45.1-.3 8.7-.3 17.4-2.1 26.1-3.5 12.4-2 24.7-4.1 35.9-10.6 2.7-1.6 3.5-2.8 3.4-5.5-.1-7.5.1-14.9-.1-22.4-.2-13.2-1-26.3-.7-39.5.1-3.3.2-4.5-3.3-4.5-38.6.5-77.4.7-116.1 1.4-26.2.5-52.4 1.7-78.6 2.4-16.2.3-32.5.1-48.7.2-1.8 0-3.5.1-5.7.2V13c0 18-.2 36 .1 54 .1 6.8 2.3 12.7 9.4 16 9 4.2 18.6 4.3 28.1 5 12.8 1 25.7 1.2 38.5 2.1 1.2.1 2.7 2.2 3.2 3.6.5 1.5-.2 3.3-.4 4.8zM53.5 350.3c0 .5 0 1.1-.1 1.6 7 2.8 13.9 5.8 21 8.3 15.2 5.3 30.5 10.1 45.7 15.4 8.5 3 17.2 2.4 25.7.8 7.9-1.5 15.4-4.6 23.2-6.3 9.9-2.2 20-2.8 30.2-.9 12.3 2.3 24.6 4.2 37 6.2 6.8 1.1 13.5 2.1 20.7 3.3V343c-15.2-3.6-30-7.7-45-10.6-11-2.1-21.6-7.4-33.7-3-7.8 2.9-16.6 3-24.9 4.3-1.8.3-3.6 1-5.4 1.3-6.2.8-12.5 1.1-18.7 2.2-11.8 2.1-23.4 4.7-35.2 6.8-13.5 2.4-27 4.2-40.5 6.3zM10 352.2c.4 3.3.3 6.1 1.1 8.4.8 2.2 2.2 5.2 4.1 5.9 6.4 2.5 13.2 4.2 20.4 6.4-3.7-5.4-8.4-7.6-15.2-6.4 4.4-7.4 9.4.6 13.6-3.2-.5 5.4 2.9 5.9 6 6.7 3 .7 4.8-.8 6.1-3.5 1.6-3.4 4.3-5 9-3-1.4 1.5-2.5 2.8-3.9 4.3 1.5 1 3 2 3.5 2.3 3-1.3 4.8-2.1 6.7-3 .6 1.5 1.2 3.1 2.1 5.2 2.8 1 6.2 1.7 9.6-1.7 1.9-1.9 5.3-4.2 7.8.5-1.1 1-2.2 2-2.4 2.2.1 9.3 8.6 10 13.8 15.3 1.5-1.6 3.2-2.9 4.3-4.6 3.3-5.4 9.6-5.6 13.8-.1-2.1.8-4 1.7-6 2.3-2.3.6-5 .3-7.1 1.4-11.7 6.1-9.3 6.2-16.1-.9-.1-.1-.3 0-.9-.1-1.1 1.5-2.3 3.1-3.5 4.8 13.6 10.1 53.2 21.4 67.8 16.7H137c-.1-.3-.1-.6-.2-.8.9-.6 1.9-1.1 2.3-1.4-.9-3.5-1.7-6.4-2.5-9.1 8.7-1.6 17.7-3.3 26.7-5-.1-.7-.2-1.4-.3-2.2-8.7.8-17.1 5.2-26.1 3.4 3.9-.9 7.8-1.8 11.6-2.6-.1-.4-.2-.9-.3-1.3-4 .5-7.9.9-11.9 1.4-.1-.4-.2-.7-.2-1.1 2.2-.8 4.3-1.6 6.5-2.4l-.3-1.2c-2.7.2-5.4.3-8 .5-.1-.3-.2-.6-.2-.9 2.2-.9 4.4-1.7 6.6-2.6l-.3-1.5c-3.6 0-7.5.7-10.9-.1-10.6-2.6-21.2-5.2-31.5-8.8-15.8-5.5-31.3-11.7-47-17.6-1.2-.5-3.5-1.2-3.7-.8-2.6 4.6-7.1 2-10.5 3-1.7.5-2.7 3-4.5 5.1-6.5-3.1-14.1-6.4-22.3-9.9zm205.9 43.4c2.6 2.5 6.9 2.6 6.8 7.5 0 .3 1 .8 1.6.9 10 1.7 19.9 3.5 29.9 5 1 .2 3.3-1.5 3.3-2.3.1-7.5-.1-15-.5-22.5-.1-1-1.5-2.6-2.5-2.8-4.9-.9-9.9-1.4-14.9-2.2-4.8-.7-9.5-1.6-14.7-2.5.2 2.3.3 3.7.4 5.1l.6-1.5c6.4 1 12.8 1.9 19.2 2.9-.1.6-.1 1.3-.2 1.9-1.6-.2-3.2-.4-4.8-.7-1.8-.3-3.6-.8-5.3-1.1-.1.6-.2 1.1-.3 1.7l14.4 2.7c0 .5-.1 1-.1 1.5-1 0-2.1.2-3.1 0-12.7-2.7-25.3-5.6-38-8.3-1.4-.3-2.8 0-4.3 0 0 .4.1.7.1 1.1 15.6 3.3 31.2 6.6 46.8 10-.1.6-.2 1.2-.4 1.9-20.1-3.3-39.6-10.8-60.4-9.1 6 1.8 12 3.3 18.2 4.3 6.2 1 12.6 1 18.7 2.2 6.2 1.2 12.1 3.5 18.2 5.3l-.3 1.2c-4.6-.9-9.3-1.7-14.2-2.7.3 1.7.5 2.6.8 3.9-5.2-1.2-10.1-2.3-15-3.4zM55.3 345.2c-4.4-.5-8.5-1-13.7-1.5 1.6 2.2 2.2 3 3.3 4.4-3.8-.9-6.9-1.6-9.9-2.4-.1.6-.3 1.3-.4 1.9 3.2.7 6.6 2.3 9.6 1.8 7.1-1.1 14.1-3.2 21.1-4.9 1.7-.4 3.3-1.1 5-1.3 2.2-.3 4.4-.1 6.5-.2-.1-.9-.2-1.9-.3-2.8-7.2.8-14.5 1.7-21.8 2.5.2 1 .4 1.7.6 2.5zm-11.9 7.3c-8.7-5.8-20.3-6.6-29.7-1.6 5.5 2.4 10.4 4.6 15.4 6.6.7.3 1.9-.7 2.9-1.1-.6-.9-1.1-2.2-1.9-2.5-3.1-1.2-6.4-2.1-9.6-3.1 7.7-.9 14.5 5.5 22.9 1.7zm144.3 38.8c-.1.7-.2 1.4-.3 2.2 8.8 1.2 17.5 2.3 26.3 3.5.1-.6.2-1.2.3-1.9-8.8-1.3-17.6-2.5-26.3-3.8zm-43.2-9.1c.2.5.4 1 .6 1.6 6.7 1.4 12.6-.6 18.1-4.4-2.2-.1-4.2.9-6.3 1-2.2.2-4.4 3.9-6.9.1-.4-.4-3.6 1.1-5.5 1.7zm29.5 14.9v1.4h23.8v-1.4H174zm7.8-24.1c-.1-.5-.2-1.1-.3-1.6-6.2 1-12.3 2-18.5 3 .1.7.2 1.4.4 2.1 6.1-1.2 12.2-2.3 18.4-3.5zm-35 26.5c.2.6.4 1.1.6 1.7 4.4-1.4 8.8-2.8 13.6-4.3-.9-1.2-1.8-2.6-2.1-2.5-4.1 1.5-8.1 3.3-12.1 5.1zM102.3 339c.1-.6.1-1.1.2-1.7H86.7c5.5 3.8 10.7 1.2 15.6 1.7zm80.9 50.1-.3-1.5c-5 1-10 2-15 2.9.1.6.3 1.3.4 1.9 5-1.1 9.9-2.2 14.9-3.3zm-24.2 13c-.2-.6-.4-1.1-.6-1.7-4.7 1.6-9.4 3.2-14.2 4.8.2.6.4 1.1.6 1.7 4.7-1.6 9.4-3.2 14.2-4.8zm-45-64.7c.1-.7.1-1.4.2-2.2L104 334c-.1.9-.2 1.8-.2 2.7 3.4.2 6.8.4 10.2.7zm42.6-7.4c.1-.8.2-1.7.3-2.5-3.3-.2-6.6-.5-10-.7-.1.8-.1 1.5-.2 2.3 3.4.3 6.6.6 9.9.9zm-19.4 3.2c-2.9-1.4-4.6-2.5-6.5-2.9-.8-.2-2 1-3 1.6 1 .9 1.8 2.3 2.9 2.5 1.7.1 3.4-.6 6.6-1.2zm63.3 48.3c.1-.5.2-.9.4-1.4-4.7-.5-9.5-1-14.2-1.4-.1.6-.1 1.1-.2 1.7 4.7.3 9.3.7 14 1.1z"/>
  <path d="M202 0c-7.2.3-14.3.7-21.5.8-13.4.2-26.8-.1-40.2.3-12.7.4-25.4.1-38.1.5-14.4.4-28.8.7-43.3 1.1-15 .4-30.1.8-45.2 1.1-3.7.1-7.4 0-11.7 0v20.9c-.1 43.5-.2 87-.1 130.5 0 25.6.3 51.2.4 76.8 0 15.1-.3 30.1-.4 45.2 0 30.1.2 60.2.1 90.3-.1 33.2-.6 66.4-.8 99.6 0 2.1.6 4.2.9 6.3-.7-.3-1.8-.6-1.9-1-.3-1.1-.1-2.3-.1-3.5V0H202zM259.3 473.4c0-62.8.1-125.6.1-188.3 0-27.1.1-54.1.1-81.2 0-1.6.5-3.3.8-4.9v269.9c0 1.5-.7 3-1 4.5zM48.3 473.4c8.5-.4 17.1-.9 25.6-1 12.7-.1 25.3.1 38 .2 1.6 0 3.1.5 4.7.8H48.3zM260.3 90.5c-.3-1.2-1-2.3-1-3.5 0-9.6 0-19.1.1-28.7 0-.3.6-.7.9-1v33.2zM206.1 473.4c1.4-.3 2.7-.9 4.1-.9 8-.1 16-.1 24 0 1.3 0 2.7.6 4 1-10.7-.1-21.4-.1-32.1-.1zM260.3 119.6c-.3-5.5-.9-11-.9-16.6 0-3.5.6-7 .9-10.6v27.2zM136.7 473.4h26.1-26.1z" fill="#fff"/>
  <path d="M257.2 340c-11.4-2.6-22.2-5.1-33.1-7.7-3.4-.8-6.7-1.8-10.1-2.6-7.6-1.7-15.1-3.7-22.7-4.7-4-.6-8.4.1-12.4 1-8.1 1.8-15.7.7-23.7-.9-6-1.2-12.7.2-19 1.2-17.8 2.6-35.6 5.7-53.4 8.5-12.4 2-24.8 3.7-37.2 5.9-10.8 1.9-21.6 4-32.4 6.2-2.1.4-4 1.4-5.2 1.8 0 5.4-.3 10.1.1 14.8.1 1.7 1.5 4.1 2.9 4.8 5.1 2.2 10.5 3.7 15.6 5.7 4.2 1.7 8.2 3.7 12.4 6.3-10.5.7-4.7 8.8-6.6 13.1-1 2.2 0 5.3-.1 7.9 0 .6-.9 1.1-2.4 2.9V395c.1-4.5.8-9.1.1-13.5-.4-2.4-3.2-4.5-6-6.1 0 .8-.3 2 0 2.3 7.7 6.3 2.8 14.9 4.2 22.3.1.4-.4 1-.3 1.4.8 2.8 0 7.3 4.2 7.1 3.4-.1 3.8-3.7 3.8-6.8.1-5.3.7-10.6 1-16.1.9-.1 2.2.1 2.6-.5 4.2-6.1 8.9-1.8 12.8-.1 15.3 6.6 30.1 14.3 45.6 20.4 8.9 3.5 18.8 4.8 28.2 6.9 11.7 2.5 22.2-.6 32.9-5.6 6.6-3.1 14.2-4.5 21.5-5.3 5.6-.6 11.5.4 17.1 1.5 11.6 2.1 23 5 34.6 6.9 11.6 1.9 11.5 2 11.6 15.1 0 2.3-.5 4.8.2 7 .5 1.7 2.5 2.9 3.8 4.4 1.3-1.6 3.6-3 3.8-4.7.5-4.7.4-9.5.2-14.3-.1-3.5 1.4-4.6 5.1-3.7v29.1c0 7.8-.1 15.6 0 23.4.1 3.9-1.3 4.9-5.2 4-4.3-.9-8.9-1.1-13.3-1.2-10.1-.2-20.3-.3-30.4-.3h-29c-8.8 0-17.7-.1-26.5.1-12.2.2-24.4.9-36.6 1-7.2.1-14.4-.6-21.6-.6-13.2 0-26.4.5-39.6.6-9.2.1-18.4-.2-27.6-.2-5.3 0-10.6.6-15.9.7-2.4 0-4.8-.5-7.5-.8V82.9c8.1 2.7 16.2 5.6 24.3 8.2 1.9.6 4 .6 6 .7 15.2.8 30.3 1.5 45.7 2.2.5 9.2.9 17.7 1.3 26.2.7.1 1.3.2 2 .2 1-4.3 2.1-8.6 2.9-12.9.6-3.1.2-6.4 1.3-9.3.6-1.7 3.1-3.8 4.9-3.8 10.3-.5 20.7-.4 31-.5 8-.1 16-.6 24-.5 9.3.1 18.6 1.2 27.8.7 13.2-.7 26.5-1.7 39.6-3.8 10.3-1.6 20.4-4.8 30.5-7.6 2.6-.7 4.9-2.6 7.4-3.9 1.2-.6 2.6-.9 4.4-1.5.4 88 .4 175.5.4 262.7zm-79.3-167c.6-.1 1.5 0 1.9-.4 4.9-5.6 10.2-11 14.2-17.2 1.3-2-1.2-6.3-1.9-9.5-.2-.8-.2-1.6-.3-2.3-1.4-7.6-5.4-14.1-11.4-18.4-6.6-4.7-14.6-6.9-22.9-5.4-7.8 1.4-14.5 4.1-20.1 10.6-6.1 7-5.9 15.9-9.4 23.6-.4 1 .9 2.9 1.7 4.3.6 1.1 1.6 1.9 2.3 2.9 3.3 5.5 6.1 11.5 12.9 13.9 1.3.4 2.2 1.8 3.7 3-2 2.3-4 4.1-5.4 6.2-2.4 3.7-6.3 7.7-6.3 11.5 0 4.9-1.9 8.5-3.7 12.5-1.5 3.4-1.7 6.5.7 9.8 2 2.7 1.4 5.3-2 6.6-4.6 1.8-6.3 5.4-5.6 10 .8 5.2 2.3 10.1 7.3 13 3.4 1.9 6.9 3.7 10.3 5.5-3.5.6-7.2 1.3-10.8 1.9-.1.6-.3 1.2-.4 1.8 2 .8 4.8 3 6 2.3 3.6-2.1 4.6 2.6 7.3 2 5-1 10-1.9 15-2.7 1.1-.2 2.3.2 3.4.4 0 .2 0 .5-.1.7-1.6.4-3.2.8-4.9 1.2.1.4.2.7.2 1.1 8.9-.5 17.8-1.1 26.7-1.6.1-.7.1-1.3.2-2-10.4-1.9-20.9-3.9-30.2-5.6-.5-3.6-.2-7.4-1.8-10.1-2.5-4-3.6-9.6-9.9-10.5-1.3-.2-2.4-2.4-4.1-4.2 1.6-.2 2.4-.5 3.1-.2 4 1.4 8 3.1 12 4.4 1.1.3 2.6-.6 4.1-1-.1.5-.3 1.2-.6 2.2 2.4-.4 4.8-.8 6.7-1.2 4.2 7.9-3.1 9.3-8.1 12.6 2 1.4 3.3 2.9 4.9 3.4 5.5 1.8 11 3.4 16.6 4.8 7.3 1.9 12.2-.4 16-7.2-3.6-5.3-13.5-5.3-12-15 4.4.1 5-2.2 3.3-6.1-.5-1.2-1-3.3-.3-4.1 3.3-4.7 2.2-9.4.7-14.3-2.8-9.2-4.1-19-12.2-25.8-.6-.5.3-3.3 1-4.8.5-1.1 1.7-1.8 2.6-2.7l-.4.1zm-90.5 23c-.4-.8-.7-1.7-1.1-2.5 1.5-.9 3-1.9 4.6-2.6 6.4-2.7 11.6-6.4 11.8-14.3 0-.8.7-1.8 1.4-2.4 6.3-5.1 6-8.3-1.4-11.9 1.3-3.2 3.4-6.4 3.8-9.7 1.1-10-4.3-16.4-14.4-18.6-6-1.3-11.8-3.3-17.8-4.7-3.6-.9-7.5-2.2-11-1.7-7.4 1.2-12.4 5.7-14.1 13.5-.4 2.1-1.7 4.4-3.2 5.9-3.4 3.3-4.9 6.4-1.9 10.8.8 1.2.8 4.4 0 5.1-2.9 2.3-3.6 5.2-2.3 7.9 1 2 3.8 3 6.5 4.9.6 9.4 5.5 14.5 16.1 16.2 1.2.2 2.2 1.5 3.3 2.2-.1.5-.3.9-.4 1.4-2 0-4 .2-6-.1-2.1-.3-4-1.3-6.1-1.8-5.1-1.2-10.3-2.2-15.4-3.5-2.3-.6-4.2-1.7-2.9-5.1.6-1.7-.7-4.2-1.1-6.3-.7-.2-1.3-.5-2-.7-2 2.4-3.9 4.7-6.1 7.4-3.3-1.7-7.2-2.5-10.4 2 .6 1 1.3 2.1 2 3.3-1 .9-2.7 1.7-2.6 2.4.4 3.1.4 7 2.3 9 1.8 1.9 5 6.5 9 1.6.4-.4 1.3-.9 1.7-.7 7.4 2.7 14.7 5.5 21.3 8-1 5.3-1.5 9.2-2.6 13-1.4 4.3-3.3 8.4-5.1 12.6-.5 1.2-1.8 2.8-1.4 3.5 2.8 4.6-.5 6-3.7 7-5.1 1.6-4.7 6.7-.7 9 3 1.7 6.6 3.9 9.6 3.6 9.1-.9 17.4-4.6 24.9-10.3-1.2-2.2-2.2-4-3.2-5.9 5.9-2.5 10.1-.1 13.7 3.7 1.3-1.5 2.5-2.9 3.7-4.3 4.1 4.5 2.4 8.1 0 11.8-1.3 2-3.5 5.5-2.7 6.5 1.5 2.2 4.8 4.5 7.2 4.4 10.7-.4 20.6-3.2 27.5-12.5 3.3-4.5 1.4-11.1-4-12.7-2.9-.9-6-1-8.2-1.4 1.2-1.6 3.4-4.4 3.3-4.5-3.2-2.7-6.3-6.1-10-7.5-3.9-1.5-8.5-1-12.8-1.4-1.7-.1-3.4-.3-5-.5 0-.3.1-.7.1-1h18.6c-.5-3.4-1.2-7.6-1.9-12 2.2-1.3 5.2-2.3 7.1-4.3 4.9-5 11-6.2 16.6-2.6 4.1-2.5 6.9-6 6.7-10.9-.2-3.6-.9-7.4-2.5-10.5-.6-1.1-4.5-.5-6-.6-2.2-1.8-4.2-4.7-6.1-4.6-3.5.1-3.6 3.6-3.6 6.6 0 1.3-.6 3.4-1.5 3.7-7 2.6-14.3 4.8-21.6 7.1zm-15.9 70.9c-6.4-.6-12.3-1.2-18.2-1.8-.2 0-.3 0-.5.1-6.4 1-12.8 1.9-19.2 3.1-1.5.3-2.9 1.5-4.4 2.2.1.3.2.5.4.8 2.7-.4 5.4-.7 8.1-1.1-5 3-7 4.2-7.1 5 10.5-2.2 21.2-4.4 31.9-6.7.1.5.2 1 .4 1.5-3.1.7-6.3 1.3-9.4 2.1-3.4.9-6.7 2-10.1 2.9-2.7.8-5.5 1.5-8.3 2.2.1.6.3 1.1.4 1.7 7.3-1.5 14.6-3 21.8-4.5.1.4.2.8.2 1.2-4.8 1.6-9.5 3.1-14.3 4.7.2.5.3 1.1.5 1.6 10.5-2.4 21-4.7 31.5-7.1.1.5.2 1 .3 1.6-6.8 1.7-13.6 3.3-20.3 5 .2.7.3 1.4.5 2 5.8-1.3 11.5-2.7 17.6-4.1-.4 1.3-.6 2.2-1.2 3.9 11.5-2.1 22.5-4.1 33.9-6.1.1 1.6.2 2.5.2 3.5 0 4.2-.4 8.4.3 12.5.4 2.3 2.5 4.4 3.8 6.6 1.8-1.5 4.3-2.7 5.2-4.7 2.9-6.2 5.2-12.7 7.8-19.1-6.1 5.8-5 15.9-13.7 21.8-.5-6.9-1.2-12.5-1.3-18-.1-4-.6-6.2-5.3-4.3-1.8.7-3.8.9-5.3 1.2-1.2-1.6-2-3.8-3-3.9-4.3-.4-8.7.2-13.1-.2-3.6-.3-7.2-1.2-10.8-1.9-.1 0-.2-.2-.6-.5.4-1 .8-1.9 1.3-3.2zm111.2 192.9c.6.1 1.1.3 1.7.4.3-.9.8-1.7.9-2.7.9-7.9 1.7-15.8 2.8-23.8.2-1.2 1.3-2.4 1.9-3.5 1 .9 2.5 1.7 2.9 2.8 1.6 4.3 3 8.7 4.2 13.1 1.6 6.1 1.6 10.8 6.4 12.7-5.1-10.8-3.3-23.7-13-33.3-8.9 10.7-5.8 23.1-7.8 34.3zm-25.8 4.7c-1.7-9.2-2.9-17-4.6-24.7-.5-2.2-2.1-4.4-3.7-6.1-.6-.6-3.5-.3-3.9.4-1.6 2.8-3 5.8-3.6 9-1.5 7.3-2.6 14.7-3.8 22.1.9.2 1.7.4 2.6.6 1.6-10.3 1.7-21 7.4-30.4 2.2 5.1 3.3 10.3 4.6 15.4 1 4.2-.3 9.3 5 13.7zm-109.6-4.3c.8.1 1.6.2 2.4.4.9-10.5 7.9-20.3 3.3-33.1-11.8 10.5-19.1 22.4-25.3 35.2 7-10.9 14-21.9 23.4-30.9l2.1.9c-2 9.1-4 18.3-5.9 27.5zm168.9-161.6c-.5-.3-1-.7-1.5-1 4.5-10.8 8.9-21.6 13.4-32.4-.6-.2-1.1-.4-1.7-.6-3.5 8.4-7.1 16.7-10.5 25.1-1.5 3.6-2.4 7.4-3.6 11.2l1.5.6c8.9-4.8 13.2-13.6 19-21.1-.3-.3-.6-.6-.9-.8-5.3 6.3-10.5 12.6-15.7 19zM34 423.9c-15.2 10.4-25.4 21.7-25.1 26.6 3.6-4.6 6.7-9.1 10.3-13 3.6-4 7.8-7.4 12.3-11.6 2.5 9.7-4.3 15.5-5.5 22.9 3.5-5.3 6.7-10.7 8.8-16.5.8-2.4-.5-5.6-.8-8.4zm59.3 18c2.1 8.5-3.3 16.1-1.1 24.3 2.3-8.8 3.6-17.6 4.7-26.5.1-.5-1.3-1.2-2-1.8-6.6 7.9-10.6 16.9-9.2 20.9 2.6-5.8 5.1-11.3 7.6-16.9zm136.3-.7c7.4 5.7 9 15.4 17.1 19.8-2.2-3.9-4.8-7.3-7.2-11-2-3-3.4-6.3-5.5-9.2-.8-1.2-2.8-2.5-3.9-2.3-1.2.3-2.8 2.4-2.7 3.6.7 6.4 2 12.8 3 19.2.6-.1 1.1-.2 1.7-.3-.8-6.5-1.6-13.2-2.5-19.8zm-7.5 21.1c.7-1.4 1-1.8.9-2-3.3-6.9-6.4-13.8-10.1-20.5-1.3-2.4-4-2.5-5.3.5-2.6 6-1.1 11.9.1 17.8h1.4v-16.7l1.5-.3c3.8 6.8 7.4 13.6 11.5 21.2zm-27-164.2c-.4-.4-.9-.7-1.3-1.1.1-12.5 5.4-24.5 5-37.1-2.2 7-3.8 14.1-5 21.2-.9 5.4-1.5 10.8-2 16.2-.2 2.6 1.4 4.2 3.7 2.8 2.5-1.6 4.4-4.3 6.6-6.5l-.9-.9c-2 1.8-4 3.6-6.1 5.4zm-82.6 138.2c-6.4 6.7-11.6 22.5-8.8 24.8 2.1-6.4 4.3-12.9 6.4-19.4 2.7 5.1 0 11 3.5 15.5-1.2-6.7 2.6-13.9-1.1-20.9zM51.7 306.4c-.5-.3-1.1-.5-1.6-.8-3.8 4.3-3.5 11.6-10.6 14.7-.8-8.4-1.6-16.1-2.5-24.9-1 1.6-2 2.4-1.9 3.1.6 7.1 1.2 14.2 2.3 21.2.5 3.2 4.2 4.1 6 1.5 3.1-4.8 5.6-9.9 8.3-14.8zm121.8.3c6.9-8.3 10-16.6 11.3-25.8-4.2 6.4-4.7 14.7-11.4 21.1.4-6.6.7-12 1.1-17.4H173c-.4 6.8-3 13.7.5 22.1zm1 155.7c-2.9-7.4-5.7-14.9-8.8-22.8-5.9 7.1-6.7 15.8-2.7 19.2.3-4.2.5-8.8.9-14.6 5.6 6.3 4.1 14.8 10.6 18.2zM81 290.2c-.7.2-1.4.3-2.1.5 1.1 5.2 2 10.5 3.4 15.6.4 1.4 2.1 3.4 3.2 3.4 1.7.1 4.2-.9 4.9-2.3 2.3-4.1 3.9-8.6 5.7-13.1.3-.8-.3-1.9-.7-3.7-3 6.6-4.1 13.2-10.5 18.3-1.4-6.9-2.6-12.8-3.9-18.7zm47.8 2.6c1.1-9 2.1-17.3 3.1-25.6-1.6 2.3-2.5 4.6-2.8 7-.7 5.9-1.3 11.8-1.6 17.8-.1 1.2 1.1 2.9 2.1 3.4.8.4 2.8-.2 3.4-1.1 2.8-3.8 5.4-7.9 8-11.9-.3-.2-.7-.5-1-.7-3.5 3.3-4.1 9.6-11.2 11.1zm-104 37.4c4.9-4.3 7.3-12.2 5-16.5-3.8 3.3.9 11.5-6.9 12.8-2.2-5.2-4.3-10-6.4-14.8-.5.3-1 .5-1.5.8 3 6 2.7 13.9 9.8 17.7zm49.1 107.5c1.4 10.1-4.9 17.8-3.8 27.8 1.5-1.6 2-2 2.1-2.4 1.7-7.7 3.5-15.4 4.9-23.1.3-1.7-.6-3.5-1.2-6.9l-8.1 8.1.9.9c1.6-1.2 3-2.4 5.2-4.4zm-13.2-144c-.6.1-1.3.1-1.9.2.5 5.5.7 11.1 1.7 16.6.3 1.8 2.6 4.4 4.6 1.4 2.5-3.7 4.1-7.9 6.1-11.9-.5-.3-1-.6-1.5-.8-2.1 3.7-4.2 7.3-6.9 12.1-.8-6.9-1.4-12.3-2.1-17.6zm181.6-4.9c-.5-.3-.9-.6-1.4-.9-3.7 6.5-7.6 12.9-11.1 19.4-.5 1 .5 2.8.9 5.2 5.9-5.2 10.7-9.4 15.5-13.6-.2-.2-.4-.5-.7-.7-4.2 3.2-8.5 6.5-12.7 9.7-.3-.4-.7-.8-1-1.2 3.6-6 7.1-12 10.5-17.9zM129.1 465.2c.6-.1 1.1-.1 1.7-.2-.5-6.1-1-12.2-1.7-19.4-5.4 4.6-7.3 9.7-6.8 16 1.4-3.3 2.8-6.6 4.6-11 .9 5.7 1.5 10.1 2.2 14.6zM15.3 429.5c.5.2.9.4 1.4.5 1.2-3 2.2-6.1 3.6-9.1 2-4.4.2-7.3-3.7-9.3-2.8-1.4-5.1-.2-8 4.5 1-.5 1.5-1 2.1-1 2.1-.2 5.8-1 6.2-.2 1.1 2.2 1.3 5 1 7.5-.4 2.4-1.8 4.7-2.6 7.1zm136.3-136.7c-.5-.1-1-.2-1.6-.4-.5 2-1.2 3.9-1.4 5.9-.1 1.2.2 3.4.8 3.6 1.2.4 3.2.1 4-.7 2.8-3 5.3-6.4 7.9-9.6-4.9 1-5 7.6-10.8 8.1.5-2.9.8-4.9 1.1-6.9zm101.9 156.5 1.2-1.2c-1.9-1.9-4.7-5.8-5.6-5.4-4.6 2-1.5 6-.7 9.2v-6.5c2.3 1.7 3.7 2.8 5.1 3.9zm.6-140.2c-.5-.6-1-1.2-1.6-1.7-1.3 4.7-8.4 3.3-9.3 8.5.4.4.7.8 1.1 1.2 3.3-2.7 6.6-5.4 9.8-8zM59.5 455.2c.5.3 1 .5 1.4.8 2.3-4 4.6-8 6.8-12-.5-.3-.9-.5-1.4-.8-2.2 4-4.5 8-6.8 12z" fill="#fff"/>
  <path d="M53.5 350.3c13.5-2.1 27-4 40.5-6.3 11.8-2 23.4-4.7 35.2-6.8 6.2-1.1 12.4-1.4 18.7-2.2 1.8-.2 3.6-1 5.4-1.3 8.3-1.4 17.1-1.5 24.9-4.3 12.1-4.4 22.7.9 33.7 3 15 2.9 29.9 7 45 10.6v35.7c-7.2-1.1-14-2.2-20.7-3.3-12.3-2-24.7-3.9-37-6.2-10.2-1.9-20.2-1.3-30.2.9-7.8 1.7-15.4 4.8-23.2 6.3-8.5 1.6-17.1 2.2-25.7-.8-15.2-5.3-30.6-10.1-45.7-15.4-7.1-2.5-14-5.5-21-8.3.1-.5.1-1 .1-1.6z" fill="#fff"/>
  <path d="M10 352.2c8.2 3.5 15.8 6.8 22.3 9.6 1.7-2.1 2.8-4.6 4.5-5.1 3.5-1 7.9 1.6 10.5-3 .2-.3 2.5.4 3.7.8 15.6 5.9 31.2 12.1 47 17.6 10.3 3.6 20.9 6.2 31.5 8.8 3.4.8 7.3.1 10.9.1l.3 1.5c-2.2.9-4.4 1.7-6.6 2.6.1.3.2.6.2.9 2.7-.2 5.4-.3 8-.5l.3 1.2c-2.2.8-4.3 1.6-6.5 2.4.1.4.2.7.2 1.1 4-.5 7.9-.9 11.9-1.4.1.4.2.9.3 1.3-3.9.9-7.8 1.8-11.6 2.6 9 1.9 17.4-2.6 26.1-3.4.1.7.2 1.4.3 2.2-9 1.7-18 3.4-26.7 5 .7 2.7 1.5 5.6 2.5 9.1-.4.3-1.4.8-2.3 1.4.1.3.1.6.2.8h7.6c-14.6 4.7-54.2-6.5-67.8-16.7 1.2-1.7 2.4-3.3 3.5-4.8.6.1.8 0 .9.1 6.8 7.1 4.3 7 16.1.9 2-1.1 4.8-.8 7.1-1.4 2-.5 4-1.5 6-2.3-4.2-5.5-10.5-5.3-13.8.1-1.1 1.7-2.8 3.1-4.3 4.6-5.2-5.3-13.7-6-13.8-15.3.2-.2 1.3-1.2 2.4-2.2-2.5-4.7-5.9-2.4-7.8-.5-3.4 3.4-6.7 2.8-9.6 1.7-.9-2.1-1.5-3.7-2.1-5.2-1.9.8-3.7 1.7-6.7 3-.5-.3-2-1.3-3.5-2.3 1.3-1.5 2.5-2.7 3.9-4.3-4.7-2-7.4-.4-9 3-1.3 2.7-3.1 4.2-6.1 3.5-3.1-.7-6.5-1.3-6-6.7-4.2 3.8-9.2-4.2-13.6 3.2 6.8-1.2 11.5 1 15.2 6.4-7.2-2.2-14-3.8-20.4-6.4-1.9-.7-3.3-3.7-4.1-5.9-.8-2.1-.7-4.8-1.1-8.1zM215.9 395.6c4.9 1.1 9.8 2.1 15.1 3.3-.3-1.3-.5-2.3-.8-3.9 4.9.9 9.6 1.8 14.2 2.7l.3-1.2c-6.1-1.8-12-4-18.2-5.3-6.1-1.2-12.5-1.3-18.7-2.2-6.1-1-12.2-2.4-18.2-4.3 20.8-1.7 40.3 5.8 60.4 9.1.1-.6.2-1.2.4-1.9-15.6-3.3-31.2-6.6-46.8-10 0-.4-.1-.7-.1-1.1 1.4 0 2.9-.3 4.3 0 12.7 2.7 25.3 5.6 38 8.3 1 .2 2.1 0 3.1 0 0-.5.1-1 .1-1.5l-14.4-2.7c.1-.6.2-1.1.3-1.7 1.8.4 3.5.8 5.3 1.1 1.6.3 3.2.5 4.8.7.1-.6.1-1.3.2-1.9-6.4-1-12.8-1.9-19.2-2.9l-.6 1.5c-.1-1.4-.2-2.8-.4-5.1 5.2.9 10 1.8 14.7 2.5 5 .8 10 1.3 14.9 2.2 1 .2 2.5 1.8 2.5 2.8.4 7.5.6 15 .5 22.5 0 .8-2.3 2.5-3.3 2.3-10-1.5-19.9-3.3-29.9-5-.6-.1-1.6-.6-1.6-.9.1-4.7-4.3-4.8-6.9-7.4z" fill="#fff"/>
  <path d="M47.8 379.4c1.9-2.1 3.9-4.3 6-6.7 1.8 3 4.1 7 5.9 10 4.1-2.1 6.8-4.4 9.8-4.7 2.7-.3 5.7 1.6 8.6 2.6-1.8 3.7-3.2 6.6-4.7 9.7-8.3-3.6-17-7.2-25.6-10.9zM55.3 345.2c-.2-.8-.4-1.4-.6-2.5 7.3-.9 14.6-1.7 21.8-2.5.1.9.2 1.9.3 2.8-2.2 0-4.4-.1-6.5.2-1.7.2-3.3.9-5 1.3-7 1.7-14 3.8-21.1 4.9-3 .5-6.4-1.1-9.6-1.8.1-.6.3-1.3.4-1.9 3 .7 6.1 1.5 9.9 2.4-1.1-1.5-1.7-2.3-3.3-4.4 5.2.5 9.3 1 13.7 1.5zM43.4 352.5c-8.4 3.8-15.2-2.6-22.9-1.8 3.2 1 6.5 1.9 9.6 3.1.8.3 1.3 1.6 1.9 2.5-1 .4-2.2 1.4-2.9 1.1-5-2-9.9-4.2-15.4-6.6 9.4-4.9 21-4.1 29.7 1.7zM187.7 391.3c8.7 1.3 17.5 2.5 26.2 3.8-.1.6-.2 1.2-.3 1.9-8.8-1.2-17.5-2.3-26.3-3.5.2-.7.3-1.5.4-2.2zM144.5 382.2c1.9-.6 5.2-2.2 5.4-1.7 2.5 3.9 4.7.1 6.9-.1 2.1-.2 4.1-1.2 6.3-1-5.5 3.7-11.4 5.7-18.1 4.4-.1-.5-.3-1.1-.5-1.6zM174 397.1h23.8v1.4H174v-1.4zM181.8 373c-6.1 1.2-12.3 2.3-18.4 3.5-.1-.7-.2-1.4-.4-2.1 6.2-1 12.3-2 18.5-3 .1.5.2 1.1.3 1.6zM146.8 399.5c4-1.8 8-3.6 12-5.2.3-.1 1.1 1.4 2.1 2.5-4.8 1.5-9.2 2.9-13.6 4.3-.1-.5-.3-1-.5-1.6zM47.8 379.4c-3.5-1.8-7-3.6-11.1-5.7 7.9-2.3 10.9-.6 11.1 5.7zM102.3 339c-4.9-.5-10.1 2.1-15.6-1.7h15.8c-.1.6-.2 1.1-.2 1.7zM183.2 389.1c-5 1.1-9.9 2.2-14.9 3.3-.1-.6-.3-1.3-.4-1.9 5-1 10-2 15-2.9l.3 1.5zM159 402.1c-4.7 1.6-9.4 3.2-14.2 4.8-.2-.6-.4-1.1-.6-1.7 4.7-1.6 9.4-3.2 14.2-4.8.2.6.4 1.1.6 1.7zM114 337.4c-3.4-.2-6.8-.5-10.2-.7.1-.9.2-1.8.2-2.7l10.2 1.2c0 .7-.1 1.5-.2 2.2zM156.6 330c-3.3-.3-6.6-.6-9.8-.9.1-.8.1-1.5.2-2.3 3.3.2 6.6.5 10 .7-.2.8-.3 1.7-.4 2.5zM137.2 333.2c-3.1.6-4.9 1.3-6.6 1.2-1-.1-1.9-1.6-2.9-2.5 1-.6 2.1-1.8 3-1.6 1.8.4 3.5 1.5 6.5 2.9zM200.5 381.5c-4.7-.4-9.4-.8-14.1-1.1.1-.6.1-1.1.2-1.7 4.7.5 9.5 1 14.2 1.4 0 .5-.1.9-.3 1.4z" fill="#fff"/>
  <path d="M87.4 196c7.3-2.3 14.6-4.6 21.8-7.1.9-.3 1.5-2.4 1.5-3.7 0-3 .1-6.5 3.6-6.6 1.9-.1 3.9 2.8 6.1 4.6 1.6.1 5.5-.5 6 .6 1.6 3.1 2.3 6.9 2.5 10.5.2 4.9-2.6 8.5-6.7 10.9-5.7-3.6-11.8-2.4-16.6 2.6-2 2-5 3-7.1 4.3.7 4.4 1.3 8.6 1.9 12H81.8c0 .3-.1.7-.1 1 1.7.2 3.4.3 5 .5 4.3.4 8.9-.1 12.8 1.4 3.8 1.4 6.9 4.7 10 7.5.1.1-2.1 2.9-3.3 4.5 2.2.3 5.3.5 8.2 1.4 5.4 1.6 7.3 8.2 4 12.7-6.8 9.3-16.8 12.1-27.5 12.5-2.4.1-5.7-2.2-7.2-4.4-.7-1 1.4-4.5 2.7-6.5 2.5-3.7 4.1-7.3 0-11.8-1.3 1.5-2.4 2.8-3.7 4.3-3.6-3.7-7.8-6.2-13.7-3.7 1 1.9 2 3.7 3.2 5.9-7.5 5.8-15.8 9.4-24.9 10.3-3.1.3-6.7-1.9-9.6-3.6-4-2.3-4.3-7.5.7-9 3.2-1 6.5-2.4 3.7-7-.4-.6.9-2.3 1.4-3.5 1.7-4.2 3.7-8.3 5.1-12.6 1.2-3.7 1.6-7.7 2.6-13-6.6-2.5-14-5.3-21.3-8-.4-.2-1.4.3-1.7.7-3.9 4.9-7.1.3-9-1.6-1.9-2-1.9-5.9-2.3-9-.1-.6 1.6-1.5 2.6-2.4-.7-1.2-1.4-2.2-2-3.3 3.2-4.5 7.1-3.6 10.4-2 2.2-2.7 4.2-5 6.1-7.4.7.2 1.3.5 2 .7.4 2.1 1.8 4.6 1.1 6.3-1.3 3.4.6 4.5 2.9 5.1 5.1 1.4 10.3 2.3 15.4 3.5 2.1.5 4 1.5 6.1 1.8 2 .3 4 .1 6 .1.1-.5.3-.9.4-1.4-1.1-.8-2.1-2-3.3-2.2-10.7-1.7-15.6-6.8-16.1-16.2-2.7-1.9-5.5-3-6.5-4.9-1.3-2.7-.6-5.6 2.3-7.9.9-.7.8-3.9 0-5.1-3-4.4-1.5-7.5 1.9-10.8 1.6-1.5 2.8-3.8 3.2-5.9 1.7-7.8 6.6-12.3 14.1-13.5 3.5-.6 7.4.8 11 1.7 6 1.4 11.8 3.5 17.8 4.7 10.1 2.1 15.5 8.5 14.4 18.6-.4 3.4-2.5 6.5-3.8 9.7 7.4 3.6 7.7 6.7 1.4 11.9-.7.5-1.3 1.6-1.4 2.4-.3 7.9-5.4 11.5-11.8 14.3-1.6.7-3.1 1.7-4.6 2.6.2.8.5 1.7.9 2.5zm16-44.7c-.4-8.5-1.9-12.2-12.1-14.4-6-1.3-11.8-3.2-17.7-4.8-1.3-.3-2.6-.6-3.9-.5-3.5.4-7.5 2.2-10.4 1.1-3.8-1.4-4.4.6-5.3 2.7-.8 1.9-.9 4.1-1.6 6.1-.7 2-1.2 4.6-2.7 5.8-4.3 3.4-5 6-2.1 10.4 1.2-1.6 2.5-3.5 3.8-5.3l1.2.6c-1 4-1.9 8-2.9 12l-1.1-1.1c-1.8 1.3-3.6 2.7-6 4.4 1.9 1.2 2.7 2.1 3.3 2 5.9-.8 5.5 3 5.9 7.1.3 2.8 1.7 6.8 3.9 7.9 4.9 2.5 10.5 4.9 15.9 5 6.8.2 13.9-1.4 20.5-3.3 4-1.1 8-3.5 8-9.3 0-2.3 2.5-4.5 3.8-6.7.7-1.2 1.7-2.3 1.8-3.5 0-.6-2.1-1.1-3-1.8-1-.8-2-1.8-2.5-3-.6-1.5-.7-3.2-1.1-5 .6-.8 1.6-2.3 2.6-3.7-1.7-.6-3.4-1.8-5.1-1.8-1.9 0-3.9.7-5.7 1.5-5.9 2.4-11.6 6.1-18.2 1.5-1-.7-3.2.5-4.7.4-2.5-.2-5.1-.5-7.2-1.5-1.5-.8-2.2-3-3.6-4.9 2.5-1.4 5-2.8 7.9-4.4-.3 2-.5 3-.6 3.8 2.8-.8 5.3-1.5 7.8-2.2.3.7.5 1.4.8 2-2.9 1.2-5.7 2.5-8.6 3.7 6.8 1.5 12.9-.8 19.5-2.4-1.8 1.5-3.6 3-5.3 4.5l.9 1.5c6.7-3.1 13.5-6.2 20.6-9.4.6 1.2 1.9 3.1 3.2 5zm-77.3 48.3c7.1 1.9 13.4 3.5 20.6 5.5.8-2.3 1.9-5.2 3-8.1-3.7-1.4-7-2.5-10.1-3.9-3.8-1.6-7.6-3.2-5.2-8.7.3-.6-.3-1.6-.5-2.5-1 .7-1.4 1.4-1.4 2.1-.3 4.3-2.1 5.7-6.2 3.5-1.3-.7-3-.6-4.5-.8-.1.3-.2.7-.3 1 1.3.6 2.6 1.2 5.1 2.4-3 1.4-5 2.4-8.2 3.8 2.7.2 4.1.3 6.2.4-1.9 2.3-3.4 4.1-4.9 5.9.3.3.7.6 1 1 1.5-1.2 3-2.4 4.9-3.9.4 1.7.6 2.7.5 2.3zm64.8 52.2c.3.7.6 1.5.8 2.2 2.7.7 5.4 1.2 8 2.2 7.9 3.1 8.4 2.8 14.3-2.9 2.9-2.8 3.6-6.3 1.5-8.7-1.7-2-6.2-3.6-8.3-2.7-5.7 2.6-10.8 6.6-16.3 9.9zm2.4-35.9c0 .4 0 .7.1 1.1-14.2.8-28.4 1.6-42.6 2.5 0 .7.1 1.4.1 2.1H98c-1.2-4.1-2-6.9-2.6-9.1-4.3.4-7.5 1-10.7 1-9.6.2-19.2.1-28.8.2-.9 0-1.8.5-2.8.7 0 .5.1.9.1 1.4 13.4.1 26.8.1 40.1.1zm31.1-17.9c.4-.4.7-.8 1.1-1.1-1.5-.6-2.9-1.2-5.4-2.2 3.3-1.1 5-1.7 6.6-2.2-.1-.3-.1-.5-.2-.8-1.8-.3-3.6-.6-5.7-1 1.6-1.8 2.9-3.2 4.6-5.1-1.6-.2-1.9-.3-2.2-.2-.5.1-.9.4-1.4.6-4.8 2.9-4.8 2.9-5.6-2.8-.1-.7-1.2-1.2-1.8-1.8-.6.8-1.8 1.8-1.6 2.5 1.1 5.1-2.4 7.6-6 8.8-4.5 1.5-2.9 3.9-2.1 6.5.9 3.2 2.8 3.5 5.8 2.6 3.4-1 7-1.4 10.9-2.1 0 .2-.1-.8-.3-1.9 1.3.1 2.3.1 3.3.2zm-55.8 51.2c-.1-.6-.2-1.1-.4-1.7-3.7 1-7.6 1.8-11.1 3.2-4.6 1.9-8.9 1-12.8-1.3-2.7-1.6-4.9-1.9-6 1-.3.9 1.9 3.6 3.4 4.2 10 3.9 18.5-.4 26.9-5.4zm23.9-43.8v-8.7c-4.6 1.4-8.6 2.6-12.6 3.8.1.3.1.7.2 1 3.4-.3 6.9-.7 10.3-1 .1.8.1 1.7.2 2.5-11 .4-21.9.7-32.9 1.1 0 .4.1.9.1 1.3h34.7zm-37.6 2.7c-.1.3-.2.7-.3 1 1.2.6 2.4 1.6 3.5 1.6 11.6 0 23.2-.2 34.8-.4.6 0 1.2-1.2 1.9-1.8-.7-.4-1.5-1.3-2.2-1.3-2.6.1-5.2.7-7.9.8-10 .1-19.9.1-29.8.1zm-5.4 17.4c4 3.2 20.2 2.5 31-.7-.8-.4-1.3-1-1.9-1-9.3.5-18.7 1.1-29.1 1.7zm41 22.6c.5.2 1 .4 1.5.5 3.7-2.6 7.3-5.2 11-7.8-.2-.6-.3-1.1-.5-1.7-3.6.5-7.5.3-10.7 1.8-1.3.5-.9 4.7-1.3 7.2zm10.2 13.4c.1-.5.1-1 .2-1.5-3.9-1.1-7.8-2.3-11.8-3.1-.8-.2-2 1.3-3 2 .8.9 1.6 2.5 2.4 2.5 4.1.2 8.2.1 12.2.1zm-32.2-66.1c4.9 2.9 8.7 3.5 12.7 2 1-.4 1.6-1.7 2.4-2.5-1.1-.4-2.2-1.3-3.3-1.2-3.4.2-6.8.9-11.8 1.7zm30.3 12.4c-.5-3.7-1.1-7.4-1.6-11.2-3.6 2-3.3 5.9 1.6 11.2zm2.5-12.6c-.6.1-1.3.2-1.9.3.6 3.5 1.2 7.1 1.8 10.6.8-.2 1.6-.3 2.5-.5-.8-3.4-1.6-6.9-2.4-10.4zm-55.9 48.7c.2 4.4 2.1 5.2 10.2 4.1-3.8-1.6-6.8-2.7-10.2-4.1zm6.3-37c.4.3.8.5 1.3.8 2.2-2.6 5.5-4.7 3-9.6-1.4 2.9-2.8 5.8-4.3 8.8zm2.6 27.6-.6-.6-.8.8c.3.1.5.4.8.4.3 0 .4-.4.6-.6z"/>
  <path d="M178.1 172.9c-.9.9-2.1 1.6-2.6 2.7-.7 1.5-1.6 4.3-1 4.8 8.1 6.8 9.5 16.6 12.2 25.8 1.5 4.8 2.6 9.6-.7 14.3-.6.9-.2 2.9.3 4.1 1.6 3.8 1.1 6.2-3.3 6.1-1.5 9.7 8.4 9.7 12 15-3.8 6.8-8.7 9-16 7.2-5.6-1.4-11.1-3-16.6-4.8-1.6-.5-2.9-2-4.9-3.4 5-3.3 12.3-4.7 8.1-12.6-1.9.3-4.2.7-6.7 1.2.3-1 .5-1.7.6-2.2-1.5.4-3 1.4-4.1 1-4.1-1.2-8-3-12-4.4-.6-.2-1.5.1-3.1.2 1.7 1.8 2.7 4 4.1 4.2 6.2.9 7.4 6.5 9.9 10.5 1.6 2.6 1.2 6.5 1.8 10.1 9.3 1.7 19.7 3.7 30.2 5.6-.1.7-.1 1.3-.2 2-8.9.5-17.8 1.1-26.7 1.6-.1-.4-.2-.7-.2-1.1 1.6-.4 3.2-.8 4.9-1.2 0-.2 0-.5.1-.7-1.1-.1-2.3-.5-3.4-.4-5 .8-10 1.8-15 2.7-2.7.5-3.7-4.1-7.3-2-1.2.7-4-1.4-6-2.3.1-.6.3-1.2.4-1.8 3.7-.7 7.3-1.3 10.8-1.9-3.4-1.8-6.9-3.6-10.3-5.5-5-2.8-6.6-7.8-7.3-13-.7-4.6 1-8.2 5.6-10 3.5-1.4 4-3.9 2-6.6-2.4-3.3-2.2-6.4-.7-9.8 1.8-4 3.7-7.5 3.7-12.5 0-3.8 3.9-7.8 6.3-11.5 1.4-2.2 3.4-3.9 5.4-6.2-1.4-1.2-2.4-2.5-3.7-3-6.8-2.4-9.6-8.3-12.9-13.9-.6-1.1-1.7-1.9-2.3-2.9-.7-1.4-2.1-3.3-1.7-4.3 3.5-7.7 3.2-16.6 9.4-23.6 5.6-6.5 12.3-9.2 20.1-10.6 8.3-1.5 16.3.7 22.9 5.4 6 4.3 10 10.8 11.4 18.4.1.8.1 1.6.3 2.3.7 3.3 3.2 7.6 1.9 9.5-4 6.2-9.3 11.5-14.2 17.2-.3.4-1.2.3-1.9.4 1.6-2 3.1-4.2 4.9-6 11.1-11.5 8.6-24.5-.1-35.6-7.7-9.8-18.9-10-31.1-7.2-15.7 3.5-22.9 23.4-16.8 36.3 4.6 9.9 11.8 14.7 22.8 15.3 7.3.4 13.9-1 20.7-2.9zM144.9 186c-.6 3.8-.9 6.7-1.6 9.5-1 4-.6 6.9 4.1 7.6 1.6-1.7 3.1-3.3 4.4-4.8 2.7 2.2 5 5.6 7.1 5.5 2.5-.2 4.7-3.5 7.1-5.6.9 1.1 1.6 2.7 2.8 3.3 1.1.6 3.9.4 4 .1.8-4.5 3.2-3.6 6.6-1-.9-5.8-1.7-10.5-2.6-15.8-2.6 1.7-3.8 2.5-5.1 3.4-2.3-2.9-4.5-3.8-7.8-1.6-1.9 1.3-4.1.9-6.8-.1-4-1.6-8.8 3.2-12.2-.5zm19.7 17.5c-1.1 1.4-2 2.3-2.7 3.3-3.6 5-5 4.9-7.9-.5-.4-.8-1.4-1.4-2.2-2-.7.8-1.3 1.7-2 2.4-1.2 1.2-2.6 2.3-3.9 3.4-.8-1.1-1.5-2.3-2.4-3.4-.4-.5-.9-.9-1.9-1.7-1 2.9-1.9 5.4-2.7 7.7.5.6.7 1 .9 1.1 12.4 3.7 24.9 4.7 37.6 1.9 2.7-.6 3.7-1.9 3.7-4.8 0-4.5-2.6-6-6.3-6.6-3.2 6-4.4 7.4-10.2-.8zm-13.5 39.9c-2.5-3.1-4.6-5.8-7-8.4-2-2.2-3.9-4.8-6.4-6.1-2.2-1.1-6.1-1.6-7.5-.4-1.5 1.3-1.6 5-1.2 7.5.3 2.1 2.1 4.1 3.1 6.1 1.8 3.6 4.7 5 8.5 4.1 3.4-.6 6.7-1.7 10.5-2.8zm12.2.8c-.1.4-.2.7-.4 1.1 1.7.7 3.3 1.6 5 2 2.1.5 4.2.8 6.4 1 4.7.4 9.4.8 14.1.8 1 0 2.1-1.8 3.1-2.8-1-.7-2.1-2.1-3.1-2.1-8.4-.1-16.8 0-25.1 0zm17.3-14.2c-3 1-6.2 2.1-9.5 3.2-1.1.3-2.2.5-3.3.7.6 1.4.9 3.7 1.9 4.1 2.5.9 5.4 1.2 8.1 1.4 4.6.2 5.4-1 3.8-5.3-.5-1.4-.7-2.9-1-4.1zm-10.7-49.9h-18.4c5.8 5.7 12.7 5.6 18.4 0zm-26.8 68.1c-.1.4-.1.9-.2 1.3 3.1.3 6.1.8 9.2.7.7 0 1.3-1.8 2-2.7-.9-.5-1.8-1.6-2.6-1.5-2.8.5-5.5 1.4-8.4 2.2zM71.5 266.9c-.5 1.2-1 2.2-1.4 3.1.4.3.5.5.6.5 3.6.7 7.2 1.6 10.8 1.9 4.3.3 8.7-.2 13.1.2 1 .1 1.9 2.3 3 3.9 1.5-.3 3.5-.5 5.3-1.2 4.7-1.9 5.2.3 5.3 4.3.1 5.6.7 11.1 1.3 18 8.7-5.9 7.6-16 13.7-21.8-2.5 6.4-4.9 12.9-7.8 19.1-.9 1.9-3.4 3.1-5.2 4.7-1.3-2.2-3.4-4.2-3.8-6.6-.6-4.1-.2-8.3-.3-12.5 0-1-.1-2-.2-3.5-11.3 2.1-22.3 4.1-33.9 6.1.5-1.7.8-2.6 1.2-3.9-6.1 1.4-11.8 2.8-17.6 4.1-.2-.7-.3-1.4-.5-2 6.8-1.7 13.6-3.3 20.3-5-.1-.5-.2-1-.3-1.6-10.5 2.4-21 4.7-31.5 7.1-.2-.5-.3-1.1-.5-1.6 4.8-1.6 9.5-3.1 14.3-4.7-.1-.4-.2-.8-.2-1.2-7.3 1.5-14.6 3-21.8 4.5-.1-.6-.3-1.1-.4-1.7 2.8-.7 5.5-1.4 8.3-2.2 3.4-.9 6.7-2 10.1-2.9 3.1-.8 6.2-1.4 9.4-2.1-.1-.5-.2-1-.4-1.5-10.7 2.2-21.3 4.5-31.9 6.7.1-.8 2.2-2 7.1-5-2.7.4-5.4.7-8.1 1.1-.1-.3-.2-.5-.4-.8 1.5-.8 2.8-2 4.4-2.2 6.4-1.2 12.8-2.1 19.2-3.1.2 0 .3-.1.5-.1 6.1.7 12 1.3 18.3 1.9zM182.7 459.8c2.1-11.3-1.1-23.7 7.8-34.2 9.6 9.5 7.9 22.4 13 33.3-4.9-1.8-4.8-6.6-6.4-12.7-1.2-4.4-2.6-8.8-4.2-13.1-.4-1.1-1.9-1.9-2.9-2.8-.7 1.2-1.8 2.3-1.9 3.5-1 7.9-1.8 15.8-2.8 23.8-.1.9-.6 1.8-.9 2.7-.6-.2-1.2-.3-1.7-.5zM156.9 464.5c-5.3-4.4-4-9.5-5.1-13.8-1.3-5.1-2.4-10.3-4.6-15.4-5.6 9.5-5.8 20.2-7.4 30.4-.9-.2-1.7-.4-2.6-.6 1.2-7.4 2.3-14.8 3.8-22.1.7-3.1 2.1-6.2 3.6-9 .4-.7 3.3-1 3.9-.4 1.6 1.7 3.2 3.9 3.7 6.1 1.8 7.8 3 15.6 4.7 24.8zM47.3 460.2c1.9-9.2 3.9-18.4 5.8-27.5l-2.1-.9c-9.4 9-16.4 19.9-23.4 30.9 6.2-12.8 13.5-24.7 25.3-35.2 4.6 12.8-2.3 22.6-3.3 33.1-.7-.2-1.5-.3-2.3-.4zM216.2 298.6c5.2-6.4 10.5-12.7 15.7-19.1.3.3.6.6.9.8-5.8 7.5-10.1 16.3-19 21.1l-1.5-.6c1.2-3.7 2.2-7.5 3.6-11.2 3.4-8.4 7-16.8 10.5-25.1.6.2 1.1.4 1.7.6-4.5 10.8-8.9 21.6-13.4 32.4.5.5 1 .8 1.5 1.1zM34 423.9c.3 2.8 1.6 6 .8 8.4-2.1 5.8-5.2 11.2-8.8 16.5 1.2-7.4 8.1-13.2 5.5-22.9-4.5 4.2-8.7 7.7-12.3 11.6-3.6 3.9-6.7 8.4-10.3 13-.3-4.9 9.8-16.2 25.1-26.6zM93.3 441.9c-2.5 5.5-5 11-7.6 16.8-1.4-3.9 2.7-12.9 9.2-20.9.7.6 2 1.3 2 1.8-1.1 8.9-2.4 17.8-4.7 26.5-2.2-8.1 3.2-15.6 1.1-24.2zM229.6 441.2c.8 6.6 1.6 13.2 2.5 19.8-.6.1-1.1.2-1.7.3-1.1-6.4-2.3-12.8-3-19.2-.1-1.2 1.5-3.3 2.7-3.6 1.1-.2 3.1 1.1 3.9 2.3 2.1 2.9 3.5 6.2 5.5 9.2 2.4 3.6 5 7.1 7.2 11-8.1-4.4-9.7-14.1-17.1-19.8zM222.1 462.3c-4.1-7.6-7.7-14.4-11.4-21.2l-1.5.3v16.7h-1.4c-1.3-5.9-2.7-11.8-.1-17.8 1.3-3 4-2.9 5.3-.5 3.7 6.7 6.8 13.6 10.1 20.5 0 .2-.3.5-1 2zM195.1 298.1c2-1.8 4-3.6 6.1-5.4l.9.9c-2.2 2.2-4 4.8-6.6 6.5-2.3 1.5-3.9-.2-3.7-2.8.5-5.4 1-10.9 2-16.2 1.2-7.1 2.9-14.2 5-21.2.4 12.6-5 24.6-5 37.1.4.4.9.7 1.3 1.1zM112.5 436.3c3.7 6.9-.1 14.1 1.1 20.9-3.6-4.5-.9-10.4-3.5-15.5-2.2 6.5-4.3 13-6.4 19.4-2.8-2.3 2.4-18.1 8.8-24.8zM51.7 306.4c-2.7 4.9-5.1 10.1-8.3 14.7-1.8 2.7-5.5 1.8-6-1.5-1.1-7-1.7-14.1-2.3-21.2-.1-.7.9-1.5 1.9-3.1.9 8.9 1.7 16.5 2.5 24.9 7.1-3 6.8-10.3 10.6-14.7.5.3 1.1.6 1.6.9zM173.5 306.7c-3.5-8.4-1-15.2-.6-22.1h1.5c-.3 5.4-.7 10.9-1.1 17.4 6.7-6.4 7.2-14.7 11.4-21.1-1.2 9.2-4.3 17.5-11.2 25.8zM174.5 462.4c-6.5-3.4-5-11.9-10.7-18.2-.3 5.8-.6 10.3-.9 14.6-3.9-3.4-3.2-12.1 2.7-19.2 3.2 8 6.1 15.4 8.9 22.8z"/>
  <path d="M81 290.2c1.2 5.9 2.4 11.8 3.9 18.8 6.5-5.1 7.5-11.7 10.5-18.3.4 1.8 1 2.9.7 3.7-1.7 4.4-3.4 8.9-5.7 13.1-.7 1.3-3.3 2.3-4.9 2.3-1.2-.1-2.9-2-3.2-3.4-1.4-5.1-2.3-10.4-3.4-15.6.8-.3 1.4-.4 2.1-.6zM128.8 292.8c7.1-1.5 7.7-7.8 11.3-11 .3.2.7.5 1 .7-2.6 4-5.2 8-8 11.9-.6.8-2.7 1.5-3.4 1.1-1.1-.6-2.2-2.3-2.1-3.4.3-5.9.9-11.9 1.6-17.8.3-2.4 1.2-4.7 2.8-7-1.1 8.2-2.1 16.5-3.2 25.5zM24.8 330.2c-7.1-3.8-6.7-11.7-9.7-17.7.5-.3 1-.5 1.5-.8 2.1 4.8 4.1 9.6 6.4 14.8 7.8-1.3 3.1-9.5 6.9-12.8 2.2 4.4-.2 12.3-5.1 16.5zM73.9 437.7c-2.2 1.9-3.7 3.2-5.2 4.5l-.9-.9 8.1-8.1c.6 3.3 1.5 5.2 1.2 6.9-1.5 7.7-3.2 15.4-4.9 23.1-.1.4-.6.7-2.1 2.4-1-10 5.2-17.7 3.8-27.9zM60.7 293.7c.6 5.3 1.3 10.7 2.1 17.5 2.7-4.8 4.8-8.5 6.9-12.1.5.3 1 .6 1.5.8-2 4-3.7 8.2-6.1 11.9-2 3-4.3.4-4.6-1.4-.9-5.5-1.2-11-1.7-16.6.7 0 1.3-.1 1.9-.1zM242.3 288.8c-3.4 6-6.9 12-10.3 18 .3.4.7.8 1 1.2 4.2-3.2 8.5-6.5 12.7-9.7.2.2.4.5.7.7-4.8 4.2-9.6 8.4-15.5 13.6-.5-2.4-1.5-4.3-.9-5.2 3.5-6.6 7.4-13 11.1-19.4.3.1.7.4 1.2.8zM129.1 465.2c-.7-4.4-1.3-8.8-2.2-14.7-1.8 4.4-3.2 7.7-4.6 11-.4-6.3 1.4-11.4 6.8-16 .6 7.3 1.1 13.4 1.7 19.4-.6.1-1.1.2-1.7.3zM15.3 429.5c.9-2.4 2.2-4.7 2.5-7.1.3-2.5.1-5.4-1-7.5-.4-.8-4 0-6.2.2-.6.1-1.1.5-2.1 1 2.9-4.6 5.2-5.9 8-4.5 3.9 2 5.7 4.8 3.7 9.3-1.3 3-2.4 6-3.6 9.1-.4-.1-.9-.3-1.3-.5zM151.6 292.8c-.3 2-.6 4.1-1 6.8 5.7-.4 5.9-7.1 10.8-8.1-2.6 3.2-5 6.6-7.9 9.6-.8.8-2.8 1.1-4 .7-.6-.2-1-2.4-.8-3.6.2-2 .9-4 1.4-5.9.5.2 1 .3 1.5.5zM253.5 449.3c-1.4-1.1-2.9-2.2-5.1-3.9v6.5c-.7-3.2-3.9-7.2.7-9.2.9-.4 3.7 3.5 5.6 5.4l-1.2 1.2zM254.1 309.1c-3.3 2.7-6.5 5.3-9.8 8-.4-.4-.7-.8-1.1-1.2.9-5.2 8-3.7 9.3-8.5.6.5 1.1 1.1 1.6 1.7zM59.5 455.2l6.9-12c.5.3.9.5 1.4.8-2.3 4-4.6 8-6.8 12-.5-.3-1-.6-1.5-.8z"/>
  <path d="M103.4 151.3c-1.3-1.9-2.7-3.7-3.5-4.9-7.1 3.2-13.8 6.3-20.6 9.4l-.9-1.5c1.8-1.5 3.6-3 5.3-4.5-6.7 1.6-12.7 3.9-19.5 2.4 2.9-1.2 5.7-2.5 8.6-3.7-.3-.7-.5-1.4-.8-2-2.5.7-5 1.4-7.8 2.2.1-.8.3-1.8.6-3.8-3 1.6-5.5 3-7.9 4.4 1.3 1.9 2.1 4.1 3.6 4.9 2.1 1.1 4.8 1.3 7.2 1.5 1.6.2 3.7-1 4.7-.4 6.6 4.5 12.3.8 18.2-1.5 1.8-.7 3.8-1.5 5.7-1.5 1.7 0 3.4 1.2 5.1 1.8-1 1.4-2 2.8-2.6 3.7.4 1.8.5 3.5 1.1 5 .5 1.1 1.5 2.1 2.5 3 .9.8 3 1.3 3 1.8 0 1.2-1.1 2.4-1.8 3.5-1.3 2.3-3.8 4.5-3.8 6.7 0 5.8-4 8.1-8 9.3-6.6 1.9-13.7 3.4-20.5 3.3-5.4-.1-11-2.5-15.9-5-2.2-1.1-3.6-5.1-3.9-7.9-.4-4.1 0-7.9-5.9-7.1-.6.1-1.4-.8-3.3-2 2.4-1.7 4.2-3.1 6-4.4l1.1 1.1c1-4 1.9-8 2.9-12l-1.2-.6c-1.3 1.8-2.6 3.6-3.8 5.3-2.9-4.4-2.2-7 2.1-10.4 1.5-1.2 2-3.8 2.7-5.8.7-2 .8-4.2 1.6-6.1.9-2.1 1.5-4.2 5.3-2.7 2.9 1.1 6.9-.8 10.4-1.1 1.3-.1 2.6.2 3.9.5 5.9 1.6 11.8 3.5 17.7 4.8 10.6 2.1 12 5.8 12.4 14.3zM92.3 174H64.2c1.9 7.3 7.3 12.1 13 11.7 9.8-.6 14.4-2.3 15.1-11.7zm-14.6-6c-.1.7-.1 1.3-.2 2 1.8 0 4.2.7 5.4-.2.9-.7.6-3.4.2-5.1-.1-.6-1.9-.9-3.8-1.7 1.2 2.2 1.8 3.3 2.7 5h-4.3zM26.1 199.6c.1.4-.2-.6-.5-2.2-1.9 1.5-3.4 2.7-4.9 3.9-.3-.3-.7-.6-1-1 1.5-1.8 3-3.6 4.9-5.9-2.1-.1-3.5-.2-6.2-.4 3.1-1.5 5.2-2.4 8.2-3.8-2.5-1.2-3.8-1.8-5.1-2.4.1-.3.2-.7.3-1 1.5.2 3.2.1 4.5.8 4.1 2.2 5.9.8 6.2-3.5.1-.7.4-1.4 1.4-2.1.2.8.8 1.8.5 2.5-2.3 5.4 1.5 7.1 5.2 8.7 3.1 1.3 6.4 2.4 10.1 3.9-1.1 3-2.1 5.9-3 8.1-7.2-2-13.5-3.7-20.6-5.6zM90.9 251.8c5.4-3.4 10.6-7.3 16.4-9.8 2.1-.9 6.6.7 8.3 2.7 2.1 2.4 1.4 5.9-1.5 8.7-5.9 5.7-6.4 6-14.3 2.9-2.6-1-5.3-1.5-8-2.2-.3-.8-.6-1.5-.9-2.3zM93.3 215.9H53.1c0-.5-.1-.9-.1-1.4.9-.2 1.8-.7 2.8-.7 9.6-.1 19.2-.1 28.8-.2 3.2-.1 6.5-.6 10.7-1 .6 2.2 1.5 5 2.6 9.1H50.8c0-.7-.1-1.4-.1-2.1 14.2-.8 28.4-1.6 42.6-2.5.1-.5.1-.8 0-1.2zM124.4 198c-1-.1-1.9-.1-3.2-.2.2 1.1.3 2.1.3 1.9-3.9.7-7.5 1-10.9 2.1-3 .9-4.8.6-5.8-2.6-.8-2.6-2.4-5 2.1-6.5 3.6-1.2 7-3.7 6-8.8-.1-.7 1-1.6 1.6-2.5.6.6 1.7 1.2 1.8 1.8.8 5.6.7 5.7 5.6 2.8.4-.3.9-.5 1.4-.6.3-.1.6 0 2.2.2-1.8 1.9-3 3.3-4.6 5.1 2.1.4 3.9.7 5.7 1 .1.3.1.5.2.8-1.7.6-3.3 1.1-6.6 2.2 2.5 1 3.9 1.6 5.4 2.2-.5.4-.9.7-1.2 1.1zM68.6 249.2c-8.3 4.9-16.8 9.3-26.9 5.4-1.5-.6-3.7-3.3-3.4-4.2 1.1-3 3.3-2.6 6-1 3.9 2.3 8.2 3.2 12.8 1.3 3.6-1.4 7.4-2.2 11.1-3.2.1.6.2 1.2.4 1.7zM92.5 205.4H57.8c0-.4-.1-.9-.1-1.3 11-.4 21.9-.7 32.9-1.1-.1-.8-.1-1.7-.2-2.5-3.4.3-6.9.7-10.3 1-.1-.3-.1-.7-.2-1 4-1.2 8-2.4 12.6-3.8v8.7zM54.9 208.1c9.9 0 19.8.1 29.7 0 2.6 0 5.2-.7 7.9-.8.7 0 1.5.8 2.2 1.3-.6.6-1.2 1.8-1.9 1.8-11.6.2-23.2.4-34.8.4-1.2 0-2.4-1-3.5-1.6.2-.5.3-.8.4-1.1zM49.5 225.5c10.4-.6 19.8-1.2 29.2-1.7.5 0 1.1.5 1.9 1-10.9 3.2-27.1 3.9-31.1.7zM90.5 248.1c.4-2.5 0-6.6 1.3-7.2 3.2-1.4 7.1-1.3 10.7-1.8.2.6.3 1.1.5 1.7-3.7 2.6-7.3 5.2-11 7.8-.5-.2-1-.3-1.5-.5zM100.7 261.5c-4 0-8.1.2-12.1-.1-.9-.1-1.6-1.6-2.4-2.5 1-.7 2.1-2.2 3-2 4 .8 7.9 2.1 11.8 3.1-.2.5-.2 1-.3 1.5zM68.5 195.4c5-.8 8.4-1.4 11.9-1.7 1-.1 2.2.8 3.3 1.2-.8.9-1.4 2.2-2.4 2.5-4.1 1.4-7.9.8-12.8-2zM98.8 207.8c-5-5.3-5.2-9.2-1.6-11.2.5 3.8 1.1 7.5 1.6 11.2zM101.3 195.2l2.4 10.5c-.8.2-1.6.3-2.5.5-.6-3.5-1.2-7.1-1.8-10.6.7-.2 1.3-.3 1.9-.4z" fill="#fff"/>
  <path d="M45.4 243.9c3.5 1.4 6.4 2.5 10.2 4.1-8.2 1.1-10.1.3-10.2-4.1zM51.7 206.9c1.4-2.9 2.8-5.9 4.3-8.8 2.5 4.8-.8 6.9-3 9.6-.4-.3-.8-.6-1.3-.8zM54.3 234.5c-.2.2-.4.5-.6.5-.3 0-.5-.2-.8-.4l.8-.8c.3.3.5.5.6.7zM178.1 172.9c-6.7 1.9-13.4 3.4-20.6 2.9-11-.7-18.1-5.5-22.8-15.3-6.1-12.9 1.1-32.7 16.8-36.3 12.2-2.8 23.4-2.6 31.1 7.2 8.8 11.1 11.2 24.1.1 35.6-1.8 1.9-3.3 4-4.9 6 .1 0 .3-.1.3-.1zM165 140c-2-.8-3.8-1.5-6.4-2.5 1.1 2.3 1.7 3.5 2.3 4.7-.3.3-.7.6-1 .8-2.8-1.8-5.6-3.6-8.3-5.3.9-1.9 1.5-3.1 2.4-5-4.1.8-5.2 2.4-4.6 5.6.4 1.8.1 3.8.1 6h23.1c-1.8-2.2-4.1-4.9-7-8.3-.2 2-.4 2.9-.6 4zm10.6 20.9c-4.4 1-8.8 2.8-13.2 2.9-4.7.1-9.5-1.4-14.9-2.4 7 7.3 17.1 7.2 28.1-.5zm-15.5-12.2c-.6-.3-1.2-.6-1.9-1-.8 2-2.4 4.3-2.1 6.1.3 1.3 3.1 2.6 5 2.9 1.2.2 2.6-1.6 3.9-2.5-.2-.3-.5-.6-.7-.9-2.1.2-4.2.3-6.9.5 1.2-2.3 1.9-3.7 2.7-5.1zM144.9 186c3.3 3.7 8.2-1.1 12.2.5 2.7 1 4.8 1.4 6.8.1 3.3-2.2 5.5-1.3 7.8 1.6 1.4-.9 2.6-1.7 5.1-3.4.9 5.3 1.6 10 2.6 15.8-3.4-2.6-5.8-3.6-6.6 1 0 .2-2.8.4-4-.1-1.2-.6-1.9-2.2-2.8-3.3-2.5 2.1-4.6 5.3-7.1 5.6-2 .2-4.4-3.2-7.1-5.5-1.4 1.5-2.8 3.1-4.4 4.8-4.8-.6-5.1-3.6-4.1-7.6.8-2.8 1-5.7 1.6-9.5z" fill="#fff"/>
  <path d="M164.6 203.5c5.8 8.2 7 6.8 10.4.7 3.7.7 6.2 2.1 6.3 6.6 0 2.9-1 4.2-3.7 4.8-12.7 2.8-25.2 1.8-37.6-1.9-.3-.1-.4-.5-.9-1.1.8-2.3 1.7-4.8 2.7-7.7.9.9 1.5 1.2 1.9 1.7.8 1.1 1.6 2.2 2.4 3.4 1.3-1.1 2.6-2.2 3.9-3.4.7-.7 1.3-1.6 2-2.4.7.7 1.7 1.2 2.2 2 2.9 5.4 4.3 5.5 7.9.5.6-.9 1.4-1.8 2.5-3.2zM151.1 243.4c-3.8 1.1-7.1 2.2-10.4 2.9-3.9.9-6.7-.6-8.5-4.1-1-2.1-2.8-4-3.1-6.1-.3-2.5-.3-6.3 1.2-7.5 1.5-1.2 5.4-.7 7.5.4 2.5 1.3 4.4 3.9 6.4 6.1 2.3 2.5 4.4 5.2 6.9 8.3zM163.3 244.2c8.4 0 16.7-.1 25.1.1 1 0 2.1 1.4 3.1 2.1-1 1-2.1 2.8-3.1 2.8-4.7 0-9.4-.4-14.1-.8-2.1-.2-4.3-.5-6.4-1-1.7-.5-3.3-1.3-5-2 .1-.5.2-.8.4-1.2zM180.6 230c.3 1.2.5 2.7 1 4 1.6 4.3.8 5.5-3.8 5.3-2.7-.1-5.6-.4-8.1-1.4-1-.4-1.3-2.7-1.9-4.1 1.1-.2 2.2-.4 3.3-.7 3.3-1 6.6-2.1 9.5-3.1zM169.9 180.1c-5.7 5.6-12.6 5.7-18.4 0h18.4zM143.1 248.2c2.8-.8 5.6-1.6 8.5-2.2.7-.1 1.7 1 2.6 1.5-.7.9-1.3 2.7-2 2.7-3.1 0-6.1-.4-9.2-.7 0-.4.1-.9.1-1.3z" fill="#fff"/>
  <path d="M92.3 174c-.8 9.4-5.3 11.1-15 11.7-5.7.4-11.1-4.4-13-11.7h28zM77.7 168H82c-.9-1.7-1.5-2.8-2.7-5 1.8.8 3.6 1 3.8 1.7.4 1.7.7 4.4-.2 5.1-1.2.9-3.5.2-5.4.2.1-.7.2-1.3.2-2zM165 140c.2-1.1.3-2 .7-4 2.9 3.5 5.2 6.2 7 8.3h-23.1c0-2.2.3-4.2-.1-6-.7-3.2.5-4.8 4.6-5.6-.9 1.9-1.5 3.1-2.4 5 2.7 1.7 5.5 3.5 8.3 5.3.3-.3.7-.6 1-.8-.6-1.2-1.2-2.4-2.3-4.7 2.6 1 4.3 1.7 6.3 2.5zM175.6 160.9c-11 7.7-21.1 7.7-28.1.5 5.4.9 10.2 2.4 14.9 2.4 4.4-.1 8.8-1.8 13.2-2.9zM160.1 148.7c-.7 1.4-1.5 2.8-2.7 5.1 2.8-.2 4.8-.4 6.9-.5.2.3.5.6.7.9-1.3.9-2.8 2.6-3.9 2.5-1.9-.3-4.7-1.6-5-2.9-.4-1.8 1.3-4 2.1-6.1.6.4 1.3.7 1.9 1z"/>
  <circle cx="72" cy="166.1" r="2.6"/>
  <circle cx="88.5" cy="165.9" r="2.6"/>
  <circle cx="150.5" cy="151.1" r="2.6"/>
  <circle cx="170.9" cy="151.1" r="2.6"/>
  <text transform="translate(35.099 41.734)"><tspan x="0" y="0" font-family="Peanuts" font-size="30">LOOK! A NEW</tspan><tspan x="0" y="36" font-family="Peanuts" font-size="30">TOY PIANO!</tspan></text>
</svg>
