<svg xmlns="http://www.w3.org/2000/svg" viewBox="0 0 668.1 475.4" xml:space="preserve">
  <path fill="#fff" d="M0 0h673.3v475.4H0z"/>
  <path d="M35.9 475.4H2.7c-.3-.7-.9-1.3-1-2-.2-6.2-.7-12.4-.7-18.5.1-12.2.6-24.4.6-36.6.1-19-.2-37.9-.2-56.9.1-35.6.4-71.2.4-106.7.1-52.1 0-104.2 0-156.3 0-10.8.6-21.6.6-32.3 0-19.4-.1-38.8-.3-58.3 0-2.9 1.3-4.5 4-4.6 6.5-.3 13.1-.6 19.6-.6 15.6.2 31.3.8 46.9.9 8.3.1 16.4-.6 24.5-.7 11.4 0 22.8.4 34.2.3 9.5-.1 19-.6 28.5-.8 11.5-.2 23.1-.4 34.6-.5 9.5-.1 19 .1 28.5.1 15.5 0 31 0 46.5.1 6.1 0 12.3.5 18.4.4 8.9-.1 17.9-.7 26.8-.8 35.3-.2 70.6-.4 105.8-.4 60.9 0 121.8.1 182.7.5 20.6.1 41.2 1 61.8 1.7 5.8.2 6.5 1.2 5.5 7-.2 1.3-.1 2.7-.1 4.1 0 20.6 0 41.2-.1 61.8-.1 11.7-.3 23.4-.4 35.2-.1 7.6-.1 15.2-.2 22.8-.3 16-.7 32-1 47.9-.2 12.9-.4 25.7-.5 38.6-.1 7.3-.2 14.5 0 21.8.1 4 1.4 8 1.4 12.1 0 3.9-1.3 7.7-1.4 11.6-.2 7.7.1 15.4-.1 23.1-.1 7.9-.8 15.9-.8 23.8 0 7.3.8 14.6.9 22 0 6.7-.8 13.3-.7 20 .2 11 1.2 22 1.3 33 .2 20.2.1 40.3.1 60.5v25.6c-1 .1-2.3.3-3.7.3-17.3 0-34.7 0-52-.1-20.6-.2-41.2-.5-61.8-.7-5.7 0-11.3.7-17 .6-8.3-.1-16.6-.8-25-.7-13.5 0-27.1.6-40.6.7-15 0-30.1-.3-45.1-.4l-75.6-.3c-23.9-.1-47.8-.2-71.8-.1-53.6.2-107.1.6-160.7.8-22.7.1-45.5.1-68.2.2-3.7-.1-7.5.5-11.4.8zM51.3 67.8c-4.4 4.3-2.3 9.9-2.7 15.1 1.9-3.5 2.8-7.3 4-11 1.3-3.9 2.8-7.7 4.2-11.5.7.8 1 1.5.8 2.1-1.3 4.2-2.9 8.3-3.8 12.5-1.5 7.2-5.9 13.6-5.1 21.4.6 6-6 10.1-11.9 8.5-1.3-.3-3.1.8-4.5 1.5-1.4.8-2.6 2.8-3.9 2.8-7 0-14-.4-21.1-.5-.9 0-2.6 1.5-2.6 2.3-.1 15.1-.1 30.2-.1 45.3 0 25.2.1 50.4 0 75.6-.1 17-.6 34.1-.8 51.1-.1 13.5.1 27 .1 40.5 0 6.9.3 13.8-.2 20.7-.3 3.8 1 5.1 4.4 4.8 3.4-.3 6.8-.9 10.2-1 6.5-.3 13-.4 19.5-.5 5.6-.1 11.2.3 16.8-.2 3.7-.4 9 .4 9-6.1 0 0 .8 0 1.2-.1l-.1-.1c-.1 1.7-.2 3.5-.2 5.5h10.9c-.5 1.3-1 1.7-1.6 1.7-11.7.7-23.4 1.6-35.1 1.8-4.9.1-8.6.3-9.5 6h-1.3c.5-1.7 1-3.3 1.7-5.7-8.8.4-17.1.8-25.5 1.2-.2 2.5-.5 5-.8 8.7 25.4-.3 50.4-2.5 75.4-3.5v-23.9c0-10.6 0-21.1-.2-31.7 0-2-1.1-4-1.6-5.4.6-2.2 1.4-4.2 1.6-6.2.4-5.2.7-10.3.7-15.5 0-.9-1.4-1.9-2.1-2.8.5-1.1 1.3-2.2 1.3-3.3.4-10.4.7-20.9.8-31.3 0-8.8-.6-17.5-.6-26.3 0-6.4.7-12.8.7-19.3 0-5.7-.6-11.3-.7-17 0-6 .4-12 .4-18 0-12.4-.2-24.8-.2-37.2 0-11.9.3-23.9.3-35.8 0-1.3-1.2-2.9-2.3-3.9-3.3-2.9-7-5.2-10.2-8.2-5.1-4.8-7.3-11.3-6.4-17.8 1.5-11 7.1-20.6 14.9-28 6.6-6.3 4.9-12.5 3.4-19.4-3.8 0-7.3.4-10.6-.1-3.6-.5-5.2 1.3-6.2 4.1-1.5 4.1-2.6 8.2-4 12.3-1.2 3.2-2.7 6.3-4.2 9.9-1.2-1.4-2-2.3-2.6-3 1.2-1.3 2.5-2.1 2.9-3.2 1.2-2.9 1.9-5.9 3-8.8 1.4-3.6 3.1-7.1 4.8-10.9H47.7v35.2h1.1l3.3-8.1c.4.1.8.3 1.2.4-1.4 7.3-6.3 13.8-5.2 21.5.4.1.9.3 1.3.4 2.1-6 4.2-12.1 6.3-18.1.8.8 1.1 1.6.9 2.2-2.3 6.7-4.9 13.3-7.1 20.1-.9 2.8-3 6.3 1.8 8.2zm505.4 271.5c-.7.1-1.3.1-2 .2-.2-1.1-.7-2.2-.7-3.4-.1-8.1-.2-16.3-.1-24.4.2-14.8.6-29.6.7-44.4.1-15 0-30.1 0-45.1 0-5.6-.1-11.2.1-16.7.1-4.6.7-9.1.7-13.6 0-.9-1.8-2.4-2.8-2.5-4.6-.4-9.2-.2-13.7-.6-6.8-.5-13.7-.9-20.5-2-7.8-1.3-15.6-2.1-23.5-1.7-2.7.1-5.4-1.1-8.2-1.7 10.2-25.3 20.2-50.1 30.8-76-51.4-2-101.9.6-152.4.5-1.4 11.2-2.7 21.3-3.9 31.5-.6 0-1.2.1-1.9.1-2.7-8.5-6.1-16.9-8-25.7-1-4.7-2.9-5.6-7-5.6-23.3.2-46.7.4-70.1.3-11.1 0-22.2-.6-33.8-.9v26.6c-1.5-.3-2.3-.8-2.3-1.3-.2-7.3-.3-14.6-.6-21.8-.1-1.4-.9-2.7-1.5-4.1-.4 1.4-1.2 2.9-1.2 4.3-.1 11.5 0 23 0 34.5 0 2.3-.4 4.5-.7 6.8-.4 0-.9 0-1.3-.1v-45.7c-20.9-1.2-41.6-2.3-62.6-3.5.2 3.9.4 7.4.5 10.8.1 3.3 0 6.7 0 10-.1 3.1-.2 6.1-.4 9.2-.6 0-1.3-.1-1.9-.1v-30.9c-30.2-3.1-59.3-8.6-87.3-20.2.2 2.7.3 4 .3 5.3-.1 5.6-.4 11.2-.4 16.7 0 12.5.3 25.1.3 37.6 0 13.2-.3 26.5-.3 39.7 0 42.4.1 84.7.1 127.1 0 11.6-.4 23.1-.3 34.7 0 1.1 1.9 2.9 3.2 3.1 6.5.9 13 1.3 19.5 2.1.7.1 1.3 1 2.6 2.1-1.8.3-2.5.6-3.2.5-6.1-.9-12.1-1.9-18.2-2.6-1.3-.2-3.8.4-3.9 1-.4 2.5-.2 5.1-.2 7.5 7.2.4 13.4 1.1 19 4.2-5.5-.1-10.8-.9-16.2-1.8-1.9-.3-3.8-1.1-5.7-.9-8.2.7-16.4 1.9-24.7 2.4-11.7.8-23.3 1.1-35 1.7-4.9.3-9.9.8-14.6 1.2 0 18.5-.2 36.5.1 54.4.3 17.8.6 35.7.2 53.6 20.5 0 40.5.1 60.4 0 23.9-.1 47.9-.3 71.8-.5 14.4-.1 28.8-.4 43.3-.5 8.9-.1 17.9.2 26.8.2 12.5 0 24.9-.4 37.4 0 20.1.6 40.2-.6 60.3 0 22.2.7 44.4.4 66.6.4 11 0 21.9-.4 32.9-.5 28.2-.2 56.3-.5 84.5-.5 13.8 0 27.5.2 41.2 1 3.8.2 5-1.2 5.4-4.1.5-4.9.6-9.8 1-14.6.4-5.5.9-11 1.6-16.5.9-6.5 2.1-12.9 3.2-19.7-26.8-3.7-52.6-7.2-78.4-10.7.1-.5.1-.9.2-1.4 26.1 1.9 52.1 4.9 78.4 9.8 1.1-10.6 2.2-20.9 3.4-31.4-3.8-.7-7.4-1.5-11.1-2-8.6-1.1-17.3-1.8-25.8-3.1-5.1-.8-6-3.9-4.2-8.6 2.3-6 3.8-12.3 5.5-18.5 1-3.4 2.1-6 6.5-6 11.3-.1 22.6-.5 33.9-.9 2.5-.1 5-.3 7.5-.5 5.5-.4 11.1-1.1 16.6-1.2 9.7-.2 19.5.1 29.2-.3 7.1-.3 7.6-1.1 7.6-6.5 0-6.3 0-6.3 6.6-6.4 3.6 0 7.3.1 9.9-3.6-6.1-2.7 1-5.1-.3-7.9-1.1-.8-2.3-1.6-3.4-2.4.9-2.3 2.7-4.5 2.3-6.2-2.8-10.5-2-21-1.7-31.7.6-17 .4-34 0-50.9-.1-3.4-.6-6.2 3.3-8.3-4.7-3-2.5-6.1.1-9.5-2.5-1.4-4.6-2.6-7.1-4.1v-8.8c-20.7-1.8-40.9-3.5-62.3-5.3-.1 49.9-.1 99.6-.1 149.3zM357.7 130c.3-.1.7-.2 1-.3 1.1-7.3 2.1-14.6 3.5-21.8.2-1.3 1.8-3.2 2.9-3.3 7.7-.6 15.5-.9 23.3-1.1 10.9-.2 21.7 0 32.6-.2 7-.1 14-.9 21-1 6.8-.1 13.7.5 20.5.4 7.6 0 15.1-.6 22.7-.5 10.4.1 20.7.9 31.1 1.1 16.1.2 32.2.5 48.3.2 10.8-.2 21.5-1.3 32.3-2.4 3.2-.3 6.2-2.2 9.4-2.5 7.7-.7 14.3-3.7 19.2-9.3 5.2-6.1 10-12.7 14.1-19.5 8.7-14.6 4.1-28.7-4-41.6-4.9-7.7-12.7-13.1-21-17.1-5.2-2.4-10.6-5.1-16.1-5.7-8.9-1.1-17.9-.6-26.9-.8-9.7-.3-19.5-.8-29.2-.9-25.2-.1-50.5 0-75.7 0-13.2 0-26.4 0-39.6.1-9.9.1-19.8.7-29.6.7-8.2 0-16.5-.7-24.7-.8-4.1-.1-8.3.8-12.4.8-4.8.1-9.6-.3-14.4-.3-8.8 0-17.7.1-26.5.2-18.3.1-36.6.1-54.9.3-16.4.2-32.8.7-49.3.7-17 0-33.9-.4-50.9-.4-16.4 0-32.9.3-49.3.6-1 0-2.2.2-3.1.6-5.2 2.3-10.5 4.4-15.6 7-8.9 4.4-17.4 9.5-23.2 18-4.1 5.9-7 12-8.7 19.4-1.9 8.4-.3 14.6 5.4 20.3 6.1 6.1 13.8 9.6 21.9 12 12.7 3.7 25.7 6.7 38.6 9.7 7.3 1.7 14.6 3.3 22 4.2 13.7 1.6 27.4 2.8 41.1 3.8 13.7 1.1 27.3 1.8 41 2.6 3.4.2 6.8.1 10.3.2 12.1.5 24.2 1.4 36.3 1.5 20.5.2 41-.1 61.5-.2 8.7 0 8.7-.1 11.4 8.5.4 1.1.5 2.3.8 3.5.9 4.4 1.9 8.9 2.9 13.3zm304.8-99.2c.3.4.7.7 1 1.1-4.7 3.8-9.4 7.7-14.1 11.5-1.9 1.5-3.2 2.5-2.3 5.6.9 3.2.6 7 0 10.4-2 11.3-8.7 20.1-16.2 28.3-3.1 3.3-6.5 6.8-10.5 8.7-9.2 4.4-18.7 8.5-29.3 9.2-8.3.5-16.6 1.9-25 2-14 .2-27.9-.5-41.9-.6-1.9 0-4.8.9-5.4 2.2-3 6.7-5.3 13.6-7.9 20.5-1.7 4.6-3.5 9.2-5.4 13.8-3.4 8.4-6.9 16.8-10.4 25.4 3.6 1.3 6.5 2.3 9.7 3.4-.7 1.2-1.2 2.9-1.6 2.9-3.6-.1-7.2-.5-11.1-.9-.4 2.2-.8 4.1-1.1 5.9 2.7.2 4.9.5 7 .4 6.6-.5 13.3-1.3 19.9-1.8 11.8-.7 23.6-1.4 35.3-1.9 11.6-.5 23.3-.5 34.9-1 11.3-.5 22.6-.5 33.7-2.1 14.6-2 29.1-1.8 43.6-1.2 1.7-4.6.4-8.4-4.2-11.6 2.2-.8 3.4-1.2 5.2-1.8V71.9c-3.8 3-6.9 5.4-10 7.9 1.9-3.1 4.3-5.6 7.2-7.4 3.4-2.1 4.1-4.9 4-8.5-.2-11.5-.1-23-.2-34.5 0-7.7 0-7.7-7.8-7.5H635c4.1 7.8 7.7 14.6 11.5 21.8 5.8-4.6 10.9-8.7 16-12.9zM511.2 347.6c-2.2 8.9-4.5 17.8-6.7 26.7.6.3.8.6 1.1.6 14.6 1.5 29.3 2.8 43.9 4.6 12.2 1.5 24.3 3.8 36.6 5.5 9.6 1.3 19.2 2.2 28.8 3.4 6.5.8 13 2.1 19.6 3 9.6 1.3 19.3 2.4 28.9 3.8 2.1.3 3.4.9 3-2.4-.7-6.8-.8-13.7-1-20.6-.2-7.5 0-7.9-7-9-12.7-1.9-25.6-3.3-38.4-4.7-6.8-.7-13.8-.7-20.6-1.4-8.5-.9-17-2.3-25.6-3.4-8.6-1-17.2-2-25.8-2.8-12.2-1.2-24.4-2.2-36.8-3.3zm58.2 78.3c-.3.4-.7.7-.8 1.1-2.2 9.1-4.4 18.2-6.5 27.3-1 4.1-1.8 8.2-2.6 12.4-.5 2.4-.4 4.8 2.9 4.8 12.5.1 24.9.1 37.4.1 13.1-.1 26.2-.3 39.2-.3 8.3 0 16.6.7 24.8.7 1.1 0 3.1-2.1 3.2-3.2.2-9.7.2-19.3 0-29 0-1.4-1.4-3.9-2.1-3.9-9.3-.2-18.5-7.9-28-.6-.2.2-.8-.2-1.3-.2-9-1-18.1-1.8-27.1-3.1-13.2-2-26.1-4.1-39.1-6.1zm67.1-121.4c-1.5-2.2-2.4-4-3.8-5.3-1.9-1.8-2.2-3.1-1.1-5.8 1.9-4.7 6.8-8.5 4.8-14.6 0-.1.5-.3.9-.6 1.8 4 2.7 7.4-1.1 11.1-1.7 1.7-3.1 5-2.7 7.2.7 4.3 6.2 7.9 10.8 8.1 2.3.1 4.6 0 6.9.2 4.6.4 9.2.9 13.7 1.4.2-.8.4-1.2.4-1.7.2-16.9.5-33.8.7-50.6 0-3.5-3-5.7-6.2-4.1-2.2 1-4.1 2.8-6.2 4.3-12.1-9.3-6.7-15.7 3.3-25.4-1.3 2.6-2.7 5.2-4.6 7.3-4.4 4.9-4.6 8.4-1.3 13.3 1.8 2.7 2.9 2.6 5.2.5 4.7-4.4 5.7-4.2 10.6-.2.1.1.5-.2-.2.1-.5-9.6-1-18.8-1.5-27.9-13.8 0-27.2-2.4-39.9-.8 0 4.7-.1 8.5 0 12.2.3 9.1.9 18.2 1 27.3.1 11.6-1.7 23.1-.8 34.7.7 11.1-1.7 9.7 11.1 9.3zm-67 119.1c5.5.5 9.7.7 13.8 1.2 7.5 1 15 2.3 22.6 3.5 7.7 1.2 15.4 2.1 23 3.5 6.1 1.1 7.4-.4 7-6.8-.5-9.4-.1-18.9-.1-29-25.6-3.5-51.6-7-77.5-10.5 6.2 3.5 12.2 7.8 19.7 5.2-2.9 11.1-5.6 21.7-8.5 32.9zm5.4-29.6c-11.2 2.1-20.6-1.1-30.2-6.9-.2 2.9-.2 4.8-.4 6.7-.7 8.6-1.3 17.3-2.3 25.9-.7 6.4-2.4 12.7-3.1 19-1.1 9.7-1.7 19.5-2.5 29.3-.1 1.7-.3 3.4 2.7 3.1 4.4-.4 8.9-.8 13.2 0 3.1.5 3.5-.2 4.1-2.8 3.5-15.6 7.1-31.2 10.9-46.7 2.3-9 5-17.9 7.6-27.6zM20.9 59.2c1.3.5 2.2.8 1.9.7 0 2.8-.3 4.7.1 6.4 1 4.9-3.1 9.2-8 8.4-2.4-.4-4.9-.6-7.2-.1-1.3.3-3 2.1-3.1 3.4-.3 4.3-.1 8.7.2 13.1 0 .7 1.4 1.9 2.2 2 1.9.2 3.8-.2 5.7-.2h24.8V6.6C33 6.2 29 6 25.1 5.6c-2.5-.2-3.5.6-3.6 3.3-.3 9.1.7 18.2-.5 27.3-.8 7.6-.1 15.2-.1 23zM5.7 102.1c11.2 0 22.4.1 33.7 0C45 102 46 100.8 46 95c0-17.1-.1-34.1-.2-51.2 0-1.7-.2-3.4-.2-5-.3-9.5-.5-18.9-.8-28.4 0-1.5-.1-3-.1-4.6-1 .1-2.7-.3-3 .2-.8 1.2-1.5 2.9-1.5 4.4-.1 7 .1 13.9 0 20.9-.2 11.4-.6 22.8-.7 34.2-.1 8.8 0 17.5.1 26.3 0 2.5-.4 4.2-3.6 3.5-2.7-.6-5.5-1.1-8.3-1-6 .3-12 1.2-18 1.6-5.9.4-6 .3-4 6.2zm659.9 234.4c-17.6-1-35.3-2.1-53.1-3.1v10.5c17.9 1.8 35.3 3.5 53.1 5.3v-12.7zm-44.3-142v8.8c7.6-.6 14.8-1.7 22.1-1.7 7.2 0 14.5 1.1 21.9 1.7 2.8-6 .1-11-6.3-10.7-11.9.5-23.8 1-35.8 1.5-.6.2-1.2.3-1.9.4zm22.5 218.8c-.2-.1.3.4.8.4 6 1 11.9 2.1 17.9 2.9 2.3.3 4.4 0 3.9-3.5-.4-2.5-.1-5.2.1-7.7.3-3.2.5-6.2-3.8-6.7-5.3-.7-10.6-1.3-16-1.8-2.8-.3-4.3.6-3.9 3.9.6 3.9.7 7.9 1 12.5zm23.1 6c-2.2-.1-4.1-.1-5.8-.4-1.9-.3-3.8-1-5.7-1.5-7.6-1.9-8.4-1.4-9.9 6.1-.1.6-.5 1.1-.6 1.7-.6 3 .6 4.5 3.7 4.9 4.5.6 9.1 1.1 13.6 2.2 3.7.9 4.8-.3 4.8-3.7-.1-3-.1-6-.1-9.3zm.1-400.8c1.6-10.6 1.7-10.6-7.3-11.8-4.3-.6-8.7-.9-13.1-1.4-.4 3.8-.9 7-1.1 10.1-.1 1.9.1 3.3 3 3.2 6.1-.3 12.2-.1 18.5-.1zm-30.1 2.1c.3-5.6.6-10.2.9-15.4h-27.2c6.7 4.5 13.6 9.3 20.7 13.9 1.4.8 3.3.9 5.6 1.5zm28.4 309.9c-.2-2.4 1.3-5.1-3.4-5-3.1 0-6.2-1.1-9.4-1.3-8.2-.7-16.4-1.2-24.6-1.7-.2.4-.5.8-.7 1.2 1.2 1.2 2.2 3.3 3.6 3.4 8.2 1.1 16.4 1.8 24.6 2.5 3 .3 6 .5 9.9.9zm.1-112.4c.2-.7.5-1.4.7-2-1.8-.9-3.5-2.3-5.4-2.5-5.6-.6-11.2-.8-16.8-1-4.4-.2-8.7-.1-13.1-.2-1.3 0-2.6-.3-3.9-.5 0 1-.5 2.6 0 3 1.2.8 2.7 1.3 4.1 1.5 6.3.7 12.5 1.3 18.8 1.7 5.2.2 10.4 0 15.6 0zm-37.6 95.7c.6 4.8 2.7 6.5 6.9 5.3.6-.2 1.2-.3 1.8-.3 8.6.9 17.2 1.8 25.9 2.5 1 .1 2-1.2 3-1.9-1.1-.9-2-2.4-3.2-2.5-4.3-.6-8.7-.7-13-1.1-7.1-.5-14.1-1.3-21.4-2zM81.8 18.1c7.6-4 14.7-7.7 21.7-11.4-.1-.3-.2-.7-.3-1H81.8v12.4zm545.9 289.4c-.1.8-.1 1.7-.2 2.5 12.4 1.2 24.9 2.5 37.4 3.7 1.1-3 .3-4.5-2.9-4.4-1.5.1-3 .2-4.5.1-10-.6-19.9-1.3-29.8-1.9zm13.3 88.2c-4 2.1-4.6 26.1-1.1 34.4 1.1-2.3 2.1-4.9 2-7.3-.1-7.3-.6-14.6-.9-21.9v-5.2zM20.5 24.4c-5.4.7-9.8 1.1-14 1.9-.9.2-2 2-2.2 3.2-.1.9 1.1 2.5 2 2.7 3.6.8 7.4 1.2 11.8 1.8.8-2.8 1.5-5.8 2.4-9.6zM4 42.2c5.4 6.3 9.9 11.5 14.9 17.3 0-4.6.6-8.5-.3-12-.4-1.4-4.3-1.8-6.6-2.7-.6-.2-1.1-.6-1.7-.8-1.7-.6-3.5-1-6.3-1.8zm624.3 165.3c.1.5.2 1 .4 1.6 4.7.3 9.4.6 14 .8 6.7.3 13.4.6 20 .7 1.1 0 2.2-.9 3.4-1.4-.1-.4-.3-.9-.4-1.3-4.6 0-9.1.2-13.7 0-6.8-.4-13.6-1.1-20.4-1.5-1-.2-2.2.7-3.3 1.1zm1.6 145.3c2.5 4.8 9.1 5.6 16.8 3.1-.8-.4-1.7-.9-3.1-1.7 4.9.3 9 .5 13.2.8 0-.5.1-.9.1-1.4-.3-.3-.7-.8-1-.8h-26zm-13.9-.7v-2.4l-28.2 1.5c0 .3.1.7.1 1 9.3-.1 18.7-.1 28.1-.1zM643.6 4.6C641.8 5.7 640 6.3 640 7c-.3 3.1-.2 6.3 0 9.5.1 1 1.3 1.8 2 2.7.5-.9 1.5-1.8 1.5-2.8.2-3.5.1-7 .1-11.8zm-80.4 343.2v.6h29.2c0-.2 0-.4-.1-.6h-29.1zM19.2 9.7c.3-.5.6-.9.9-1.4-.5-.8-1.2-2.3-1.7-2.3-4.6.1-9.4-1.2-13.7.8v1.6c4.9.4 9.7.9 14.5 1.3zm558.1 176.5c6.6-.1 13.1 4.1 19.9 1.6v-1.6h-19.9zm47.2-.7c-.1-.5-.2-1-.2-1.5-7.6 1.2-15.1 2.5-22.7 3.7l.3 1.5c7.5-1.2 15.1-2.5 22.6-3.7zm35.6-8.6c-2.9 2-3.2 8.1 0 12.9v-12.9zM11.5 71.9c.3-.5.5-.9.8-1.4-2.2-1.8-4.4-3.7-7.5-6.2.4 3.4.6 5.4.8 7.6h5.9zM6.7 22.2c.1.4.2.7.3 1.1 4.1-.8 8.3-1.7 12.4-2.5-.1-.4-.2-.9-.3-1.3-4.7-1.8-8.3 1.5-12.4 2.7zm649.7 166.2c-.2-4.1-.5-7.8-.8-12.6-2.6 5.6-2 11.6.8 12.6zm-7.3-11.1c-.3 0-.7 0-1-.1-.2 3.9-.5 7.8-.7 11.6.6 0 1.2.1 1.7.1v-11.6z"/>
  <path d="M35.9 475.4c3.9-.3 7.7-.8 11.6-.9 22.7-.1 45.5-.1 68.2-.2 53.6-.3 107.1-.6 160.7-.8 23.9-.1 47.8.1 71.8.1 25.2.1 50.4.1 75.6.3 15 .1 30.1.4 45.1.4 13.5 0 27.1-.6 40.6-.7 8.3 0 16.6.7 25 .7 5.7 0 11.3-.7 17-.6 20.6.1 41.2.5 61.8.7 17.3.1 34.7.1 52 .1 1.3 0 2.7-.2 3.7-.3v-25.6c0-20.2.1-40.4-.1-60.5-.1-11-1.1-22-1.3-33-.1-6.6.7-13.3.7-20 0-7.3-.9-14.6-.9-22 0-7.9.6-15.9.8-23.8.1-7.7-.2-15.4.1-23.1.1-3.9 1.4-7.7 1.4-11.6 0-4-1.3-8-1.4-12.1-.2-7.3-.1-14.5 0-21.8.1-12.9.3-25.7.5-38.6.3-16 .7-32 1-47.9.1-7.6.1-15.2.2-22.8.1-11.7.4-23.4.4-35.2.1-20.6.1-41.2.1-61.8 0-1.4-.1-2.8.1-4.1 1-5.8.3-6.8-5.5-7-20.6-.6-41.2-1.6-61.8-1.7-60.9-.3-121.8-.4-182.7-.5-35.3 0-70.6.2-105.8.4-8.9.1-17.9.7-26.8.8-6.1.1-12.3-.4-18.4-.4-15.7.1-31.2.1-46.7.1-9.5 0-19-.2-28.5-.1-11.5.1-23.1.3-34.6.5-9.5.2-19 .8-28.5.8-11.4.1-22.8-.4-34.2-.3-8.1 0-16.2.7-24.3.6-15.7-.2-31.3-.7-46.9-.9-6.6-.1-13.1.2-19.7.5-2.7.1-4 1.7-4 4.6.2 19.5.4 38.9.4 58.3 0 10.8-.6 21.6-.6 32.3-.1 52.1 0 104.2 0 156.3-.1 35.6-.4 71.2-.4 106.7 0 19 .2 37.9.2 56.9 0 12.2-.6 24.4-.6 36.6 0 6.2.5 12.3.8 18.5 0 .7.6 1.4 1 2H.2C0 316.9 0 158.5 0 0h671.6v475.4H35.9z" fill="#fff"/>
  <path d="M556.7 339.3V190c21.3 1.8 41.6 3.5 62.3 5.3v8.8c2.6 1.5 4.7 2.7 7.1 4.1-2.6 3.4-4.8 6.5-.1 9.5-3.8 2.2-3.3 4.9-3.3 8.3.4 17 .6 34 0 50.9-.4 10.7-1.1 21.2 1.7 31.7.4 1.7-1.4 3.9-2.3 6.2 1.1.8 2.3 1.6 3.4 2.4 1.3 2.8-5.8 5.2.3 7.9-2.6 3.7-6.3 3.6-9.9 3.6-6.6 0-6.6 0-6.6 6.4 0 5.4-.4 6.2-7.6 6.5-9.7.4-19.4 0-29.2.3-5.5.1-11.1.8-16.6 1.2-2.5.2-5 .4-7.5.5-11.3.3-22.6.8-33.9.9-4.4 0-5.5 2.6-6.5 6-1.7 6.2-3.3 12.5-5.5 18.5-1.8 4.7-.9 7.8 4.2 8.6 8.6 1.3 17.2 2 25.8 3.1 3.7.5 7.3 1.3 11.1 2-1.1 10.6-2.2 20.9-3.4 31.4-26.2-4.9-52.2-7.9-78.4-9.8-.1.5-.1.9-.2 1.4 25.8 3.5 51.6 7 78.4 10.7-1.1 6.7-2.3 13.2-3.2 19.7-.7 5.5-1.2 11-1.6 16.5-.4 4.9-.5 9.8-1 14.6-.3 2.9-1.5 4.3-5.4 4.1-13.7-.7-27.5-1-41.2-1-28.2 0-56.3.3-84.5.5-11 .1-21.9.5-32.9.5-22.2 0-44.4.3-66.6-.4-20.1-.6-40.2.6-60.3 0-12.4-.4-24.9 0-37.4 0-8.9 0-17.9-.3-26.8-.2-14.4.1-28.8.4-43.3.5-23.9.2-47.9.4-71.8.5-19.9.1-39.9 0-60.4 0 .4-17.9.1-35.8-.2-53.6-.3-18-.1-36-.1-54.4 4.7-.4 9.7-1 14.6-1.2 11.7-.6 23.3-.9 35-1.7 8.2-.5 16.4-1.7 24.7-2.4 1.9-.2 3.8.6 5.7.9 5.3.9 10.7 1.7 16.2 1.8-5.6-3.2-11.8-3.9-19-4.2 0-2.4-.2-5 .2-7.5.1-.5 2.6-1.1 3.9-1 6.1.7 12.1 1.8 18.2 2.6.7.1 1.5-.2 3.2-.5-1.3-1.1-1.9-2-2.6-2.1-6.5-.7-13-1.2-19.5-2.1-1.2-.2-3.2-2-3.2-3.1-.1-11.6.3-23.1.3-34.7 0-42.4-.1-84.7-.1-127.1 0-13.2.3-26.5.3-39.7 0-12.5-.2-25.1-.3-37.6 0-5.6.3-11.2.4-16.7 0-1.3-.1-2.6-.3-5.3 28.1 11.6 57.1 17.1 87.3 20.2v30.9c.6 0 1.3.1 1.9.1.1-3.1.3-6.1.4-9.2.1-3.3.1-6.7 0-10-.1-3.5-.3-7-.5-10.8 21 1.2 41.7 2.3 62.6 3.5v45.7c.4 0 .9 0 1.3.1.2-2.3.7-4.5.7-6.8.1-11.5 0-23 0-34.5 0-1.4.8-2.9 1.2-4.3.5 1.4 1.4 2.7 1.5 4.1.3 7.3.3 14.6.6 21.8 0 .5.8 1 2.3 1.3v-26.6c11.5.3 22.6.9 33.8.9 23.4.1 46.7-.1 70.1-.3 4.1 0 6 .8 7 5.6 1.9 8.7 5.3 17.1 8 25.7.6 0 1.2-.1 1.9-.1 1.3-10.1 2.5-20.3 3.9-31.5 50.5.1 101-2.5 152.4-.5-10.5 26-20.5 50.8-30.8 76 2.7.6 5.5 1.8 8.2 1.7 7.9-.3 15.7.4 23.5 1.7 6.8 1.1 13.7 1.5 20.5 2 4.6.3 9.2.2 13.7.6 1.1.1 2.8 1.6 2.8 2.5 0 4.5-.6 9.1-.7 13.6-.2 5.6-.1 11.2-.1 16.7 0 15 .1 30.1 0 45.1-.1 14.8-.6 29.6-.7 44.4-.1 8.1 0 16.3.1 24.4 0 1.1.4 2.2.7 3.4.8-.1 1.4-.1 2.1-.2zM110.5 350c-1.4 2.4-2.8 4.7-4.1 7.2-1.9 3.6-1 8.5 2.1 11.1 2.5 2.1 5.1 4.1 7.1 5.7-3.6 8.3-7.1 16.3-11.1 25.4-2.6-3.9-4.4-6.8-6.4-9.5-1.9-2.5-3.6-5.3-6-7.2-3.4-2.8-7-1.6-7.4 2.6-.5 4.3-.6 9.1.9 13.1 3.3 8.7 7.3 17.2 11.8 25.4 4.5 8.2 11 14.7 19.3 19.6 10.3 6 21.1 10 33 10.8 3.3.2 6.4.5 5.9-4.5 4.2.7 5.9-1.3 6.4-4.9.4-3.1 1.8-6.1 1.8-9.1.1-4.4-.8-8.8-1-13.2 0-1.3 1-2.6 1.5-3.9 1.1.8 2.4 1.4 3.3 2.4 8.3 10.1 13.5 16.4 28.8 11.4 5.5-1.8 10.8-4.3 17.4-7 .1 2.6.6 4.8.1 6.8-1.1 5.3-2.7 10.5-3.9 15.8-.1.6.9 1.7 1.7 2.2 4.5 2.8 11.6 1.8 15.7-2.1 2.1-2 4.6-3.8 6-6.2 2.3-3.9 4.9-8.1 5.7-12.5 1.2-7.1.1-14.5 1.4-21.6 2-10.4-4.3-18.5-5.7-28 3.8-1.2 4.6-3.4 1.7-7-.9-1.2-2.4-2-3.3-3.2-1-1.3-2.4-2.9-2.4-4.3.1-4.4.9-8.7 1.4-13.5-9.9 6.8-21.3 6.7-32.9 5.8-.8-3-1.9-5.9-2.3-8.8-.2-1.2.7-3.4 1.7-3.8 6.8-2.8 13.8-5.3 20.7-7.9 1.6-.6 3.2-1.6 4.8-2.4-.2-.4-.4-.8-.6-1.1-7.2 2.6-14.4 5.1-21.4 7.9-3.6 1.4-11.7.2-14.1-2.7-.4-.5-.5-1.3-.7-2-1.1-4.6 1.6-6.6 5.4-8.3 8.5-3.9 17-6 25.7-.7 1.7 1.1 3.4 2.3 5 3.4.3-.4.6-.9 1-1.3-3.2-2.2-6.2-5.2-9.8-6.6-10.7-4.1-19.6 2-29.3 6.8-2-6.5-6.1-10.5-11.9-12.4 5.7 5.1 6.3 12.5 9 18.8 1 2.4 1.8 5 3.5 6.9 4 4.5 5.8 9.5 4.8 16.3-4-1.5-7.7-2.9-11.4-4.3.7-.3 1.4-.7 3.3-1.5-7.7-2.1-14.1-3.8-20.5-5.6-.1.5-.3 1-.4 1.5 4.4 1 8.7 1.9 13 3.2 1.7.5 3.2 1.7 4.7 2.6-3.3-.2-6.6-.4-9.9-.7 0 .3-.1.7-.1 1 1.9.4 3.8.8 6 1.2-1.1 1.1-1.9 1.7-3.1 2.9 6.6.5 12.5 1 18.4 1.5.2.5.4.9.5 1.4-1.5.7-3.1 2-4.6 1.8-13.4-1.3-26.8-2.8-40.3-4.2-3.9-.4-7.8-1-11.8-1.5.2 1.4.7 1.9 1.2 2 8.9 1.6 17.8 3.5 26.8 4.5 8.2.9 16.6.8 24.9 1.1 2 .1 4.1.3 6.1.5 0 .4-.1.7-.1 1.1 1.1-.7 2.3-1.5 4.1-2.6-.3 8.4-.3 16 3.9 22.9 1.6-.9 2.9-1.6 4.5-2.5.2.9.8 2 .5 2.2-4 3.9-7.6 8.6-12.3 11.4-6 3.5-13 5.2-19.5 8.1-3.7 1.6-7.1 3.8-10.2 5.5-.6 1.3-.9 3.1-1.7 3.4-1.3.4-3.7.4-4.4-.4-2.8-3.4-5.3-7-7.4-10.8-4.5-8.2-8.7-16.6-13.1-24.9-1-1.8-2.3-3.5-3.4-5.3-.5.3-.9.6-1.4 1 3.4 6.7 6.5 13.6 10.2 20.2 3.7 6.7 7.1 14 12.3 19.5 4.2 4.4 5.6 8.8 6.1 14.2.2 2.7 0 5.4 0 8.6-2.7-.9-4.2-1.4-5.6-1.9-10.5-3.8-19.6-9.5-26.1-18.9-4.6-6.6-9.4-13-14.7-19.1-5.6-6.4-6.7-9.9-1.7-16.6 4.5-6.1 10.2-11.2 14.8-17.2 1.8-2.4 3.3-6.1 2.8-8.9-1.4-8.9-1.1-10 7.3-12 9.6-2.4 19-2.2 28.2 2.3 4.7 2.3 9.7 4.1 14.6 5.9 1 .4 2.2.1 4.4.1-7.5-3.4-13.7-6.6-20.3-9.1-4.1-1.6-8.6-2.9-12.9-2.9-5.8 0-11.6 1.3-17.3 2.3-3.8.6-8.6-2.6-8.1-6 .5-3.1 1-6.4 2.3-9.2 4.2-8.7 8.5-17.3 13.2-25.7 3.7-6.5 8.2-12.6 12.4-18.9.4.3.8.5 1.2.8-.8 5.1-1.7 10.1-2.6 15.7 1.7.3 3.7 1.3 5.4 1 6.2-1.1 12.5-2.2 18.5-4.1 8.4-2.6 16.4-6.3 24.8-8.9 4.4-1.3 9.2-1.2 14.8-1.9-3.5-5.2 0-12.9-9.4-15.6 3-1.8 5-3.4 7.3-4.2 13.2-5 22.5-14.2 29.3-26.2 1.7-3 3-4.4 6.6-2.9 1.3.5 3.8-.3 5-1.3 6.2-5.3 10.3-12 10.1-20.4-.1-4.8-1.5-9.6-2.9-14.2-3.1-10.1-7.8-19.4-14.3-27.9-3-3.9-7.6-7.3-6.2-13.8.7-3.1-3.5-6.2-5.6-4.7-3.5 2.6-5.1.1-7.2-1.8-1.2-1.1-2.4-2.4-3.9-3.1-6.7-3.5-12.9-7.5-20.5-9.7-12.8-3.6-25.3-6.5-38.6-3.4-7.5 1.7-11.9 6.8-15.2 13.4-.7-.5-1.2-.7-1.4-1.1-3.9-7.1-7.7-14.3-11.8-21.2-1.2-2-1.9-5.6-7-3.9-.2 5.8-1.5 12.3-.6 18.3 2.6 16.5 14.5 24.5 29.3 28.7 12.6 3.6 22.2 11.8 31.8 20.1 7.2 6.2 13.4 13.4 20.7 19.5 6.2 5.2 13.3 9.2 19.9 13.9 4.4 3.1 8.6 6.4 12.8 9.7-.6.9-1.2 1.6-1.6 2.4-6.8 11.7-15.2 21.8-28.6 26.5-3.9 1.3-7.7 3-8.5 8.1-.1.9-2.3 2.2-3.5 2.2-4.1.3-8.4-.4-12.5.2-7.9 1.2-15.2.1-22.3-3.6-1.6-.8-4.1.2-6-.3-1.8-.5-4.9-2.4-4.8-2.7 1.2-3.6-1.9-4.2-3.6-5.2-5.1-2.8-10.7-4.8-15.8-7.8-5.1-3-9.8-6.8-15-10.5 10.3-5.3 19.4-9.9 28.7-14.6-.4-.8-.6-1.5-1-2.1-.7-1-1.5-2-2.3-3-.8 1-1.5 2-2.3 3-1.2 1.5-2.3 3.1-3.7 4.3-4.8 4.3-10.8 6.3-16.9 8.1-2.9.9-4.2-.7-4.2-3.1 0-5.1-.3-10.3.8-15.2.8-3.4.4-3.6-2.7-3.8-5.8-.4-8.2-5.4-6-11 1.7-4.2 5.1-2.6 7.9-2.6 4.4.1 6.6-1.4 8.4-5.7 2.9-7.2 6.8-14 10.3-21 .9-1.7 1.7-3.5 2.5-5.2-8.7 8.6-12.3 15.2-15.6 26.4-.7 2.3-1.5 2.7-3.8 2.3-2.6-.5-6.2-1.2-7.9.1-4.4 3.3-5.9 8.4-4.8 13.8.8 4.3 4.1 5.5 8 5.8.5 0 1.1.5 1.5.7-.3 5.7-.9 11.2-.6 16.7.1 2.6 1.6 5.4 3 7.8 4.5 7.5 12 11.1 19.7 14.6 4.4 2 8.6 4.6 12.8 6.9 0 .5-.1 1-.1 1.4-1.6.3-3.1.5-4.7.8-1.9.3-4.1-.1-5.7.8-7.6 4.2-11.3 10.8-10.7 19.5.1 1.4 1.3 2.8 2.1 4.2 1.1-.9 2.6-1.6 3.4-2.7 2-2.9 3.8-5.9 5.8-9.2 1.7 2.3 3 3.9 4.4 5.8-1 1.8-2 3.6-3.1 5.4-3.6 5.9-7.5 11.7-10.7 17.8-4.2 7.9-9.3 15.5-11.6 24.6-.3-1.1-.7-2.3-1-3.4-.5-.2-1-.4-1.4-.6-3.8 6.6-7.5 13.2-11.3 19.8 0-.3.2-.4.2-.4zm381 74.2c1.9 1 3.8 2.9 5.7 3 9.4.3 18.7.1 28.1-.1 1.1 0 2.3-.8 3.4-1.2-10.4-1.1-20.5-1.4-30.6-.9-2.4.1-3.3-.3-4-2.1-4.1-10.1-13.6-11-22.4-13-4.4-1-8.8-2-13.2-3.2-.8-.2-1.5-1.7-1.8-2.7-.8-3.5-.8-7.3-2.2-10.5-1.8-4.2-1.7-5.6 3.3-5.8 5.2-.2 6.7-3 5-7.4-3.5-8.9-7.3-17.6-6.6-27.5 0-.3-.2-.6-.3-.8-2.7-9.4-5.4-18.8-8.2-28.2-1.6-5.4-3.5-10.8-5.4-16.8 2.8-.4 5.3-.8 7.8-1.1 3.2-.5 6.6-.4 6.2-5.3-.1-.7 1.8-2 2.9-2.1 6-.7 12-.9 17.9-1.8 4.3-.7 7.3-.7 9 4.4 1.4 4.1 7 4.7 10.9 1.9 2.9-2.1 2.9-5.3-.1-9-.8-1-1.5-2-2.7-3.5 2.3-.9 4-1.6 5.6-2.1 3.4-1 7.1-1.4 10.2-3 1.6-.9 2.8-3.7 3-5.8.1-1.7-1.2-4.2-2.6-5.2-1.2-.9-3.5-.2-5.8-.2.8-1.4 1.1-2.9 2-3.5 3.4-2.3 3.6-5.3 2.1-8.7-1.9-4.4-5-2.6-7-1.8-2-2.3-3.7-5.6-5.2-5.6-2.3.1-4.4 2.6-6.7 4.2-1.3-1.2-2.7-2.4-3.9-3.6-5.4 1.4-6.1 5.2-5 10.1-3.2 0-6.1-.2-8.8 0-5.6.5-11.2 1.1-16.8 1.8-3.3.4-6.6 2-9.7 1.5-8.5-1.4-16.9-1.4-25.5-1-2.7.1-5.5-.6-8.3-1v-1.5c14.1-8.2 26.1-18.1 28-35.8 1.7.3 2.9.8 4 .6 4.7-.9 10.1-7.9 10.4-13.2.5-10.1-1-13-8.3-15.4 4.8-13.2 6.9-26.7 3.8-40.7-1.3-5.8-3-11.4-8.6-13.5-4.9-1.9-10.7-3.2-15.6-2.3-4.5.8-6.9-.3-9.3-3.2-4.9-6-11.1-7.7-18.5-5.6-1 .3-2 1.3-2.8 1.2-6.5-1.1-12.2 1.3-17.6 4.3-5.4 3-10.2 6.7-15.4 10.1-1.6 1-3.3 2.5-5.1 2.6-6.9.5-9.6 1.1-14.3 4.6-.2.2-.6.1-.9.2l-18.3 7.5c-4.9 2-9.9 9.1-10.2 14-.5 8.3 5.8 16 15.8 17.8 4.9.9 5.9 2.9 6.3 6.9-1.3 1.1-3.1 2.1-4 3.5-1.4 2.3-3.6 5.3-3 7.4 1.3 4.6.2 8.5-.9 12.7-.5 1.8-.1 3.9.3 5.8 2.6 11.7 11.7 17.7 21.1 22.9 6.4 3.5 13.8 5.3 20.5 8.3 2.5 1.2 4.4 3.8 6.6 5.7-1.5 1.6-2.9 3.3-4.4 4.9-.7.8-1.6 1.5-2.3 2.3-4.6 4.9-9.2 9.9-13.9 14.8-3.6 3.8-7.8 7.2-10.9 11.3-4.6 6-8.4 12.6-12.8 18.7-2.1 2.9-4.9 5.3-7.5 7.8-2.6 2.5-5.6 4.7-8.1 7.4-3.3 3.4-3.2 8.6-.4 11.1 1.3 1.2 2.4 2.5 3.3 4 2.7 4.6 10 4.8 13 .4 1.8-2.7 2.4-6.9 7.8-7.1-.7 1.9-1.3 3.2-1.7 4.7-.2 1-.5 2.9 0 3.1 2.2 1.2 4.8 3.2 6.9 2.8 3.6-.7 6.1-3.3 5.3-7.7-.8-4.5 1.6-8.9 6.8-11.6-.7 3.7-1.5 6.8-1.8 10-.6 5.5-.8 11-3.4 16.3-2.4 4.9-3.5 10.5-4.6 15.9-1.2 5.8.2 6.6 6.3 7.2 1.9.2 6.5-1.1 6.4 3.5-.1 2.6-.9 5.4-1.8 7.9-.4 1.2-1.8 2.1-2.9 2.9-.9.6-2 .7-4.1 1.3 2.8 1.3 4.6 2.1 6.4 2.9l-.3.9c-1.9-.1-3.8-.3-5.5-.4-.4 1.6-.8 2.9-1.1 4.2-1.2-.5-2.4-.9-3.5-1.6-1.7-1.1-3.3-2.5-4.9-3.8-.2.2-.5.3-.7.5.6 1.6 1.2 3.1 2.1 5.6-1.5-.4-2.5-.5-3.4-.9-2.9-1.1-5.8-3.1-8.7-3.3-5.3-.3-10.6.3-15.9.9-15.4 1.9-30.8 4-46.1 6.2-2.1.3-4 1.4-6 2.2 20.2-2.8 40.1-5.7 60.3-6.4-16 2.7-31.9 5.4-47.9 8l.3 1.8c11-1.9 21.9-3.9 32.9-5.8l.3 1.2c-3.2.7-6.4 1.4-9.6 2 .1.3.1.7.2 1 7.5-.8 15.1-1.6 22.6-2.3-.3.4-.5.9-.8 1.3 1.4 1.8 2.5 4.2 4.3 5.2 4.5 2.4 9.3 4.6 14.2 5.8 7.4 1.9 14.9 1.3 22.5.5 4.5-.5 9.2-3.3 14.6.6 2.8 2 8.9-.6 13.8-1.2-.8 1-1.5 1.8-2.7 3.3 10.2-.5 19.5-1 28.9-1.5 2.1-.1 4.7.7 6.4-.3 4.3-2.4 8.6-.9 12.1.6 12.4 5.1 25 7.6 38.2 4.9 7-1.3 14-3.9 17.5-11.3zm-355.2 37.5c.1.4.1.8.2 1.3-8.6 1.8-17.3 3.6-25.9 5.4l.3 1.8c13.9-2.1 27.8-4.2 41.7-6.4.1.4.1.7.2 1.1-4.5 1-9 2.1-13.4 3.1.1.5.2 1.1.3 1.6l26.7-4.2c-.2 2.6-1.1 5.5 3.2 3.6 1.5-.6 3.2-.8 4.9-1 4.4-.5 8.8-1.9 13 1 .7.5 1.7.7 2.5.6 4.9-1 9.7-2.1 14.6-3.1 3.9-.8 7.8-1.3 11.7-1.9l.3.6c-.8.5-1.6 1.1-2.4 1.6 9-.9 17.7-2.9 26.5-4.4 8.5-1.5 17.2-2.5 25.7-3.7l-.3-1.8c-15.7 1.2-31.4 2.5-47.4 3.8.6-1.4.9-2.4 1.5-3.8-4.5.7-8.5 1.7-12.5 1.7-4.4 0-9.1 4.7-13.2-.6-.2-.2-.9-.2-1.3-.1-2.7.4-5.3 1-8 1.3-5.3.7-10.6 1.3-16.2 1.9.7-1.5 1-2.2 1.4-2.9-.8-.3-1.5-1-2.3-1-6.4.7-12.7 1.5-19.1 2.2-4.1.5-8.3 1-12.5 1-1.7 0-3.5-1.9-5.2-1.7-5.4.4-10.8 1.4-16.2 2-6.6.7-13.1 1.4-19.7 2-5.4.5-11 .5-15.7 4.1 6.7-.9 13.3-1.9 20-2.8.1.6.2 1.1.3 1.7-2.5.5-5.1 1-7.6 1.5.1.4.1.9.2 1.3 14.4-2.3 29.1-4.6 43.7-6.8zm219.5-68.6c.1-.8.2-1.5.3-2.3-37.9-4.7-75.7-9.4-113.6-14.1-.1.8-.2 1.5-.3 2.3 37.8 5.8 75.8 9.7 113.6 14.1zM238.1 369c.5 0 1 .1 1.5.1.3-2 .9-4 .9-6 0-4.6-.6-9.2-.6-13.8 0-5.4.6-10.8.6-16.2 0-7.6-.3-15.2-.3-22.7 0-4.2.4-8.4.3-12.6 0-5.9-.4-11.8-.4-17.7 0-8.6.3-17.1.3-25.7 0-.7-1-1.5-1.5-2.2-.3.2-.6.3-.8.5V369zM470 126.5h-1.7c-.1 1.3-.3 2.5-.3 3.8v53.3c0 12.9 0 25.7.1 38.6 0 1.8.8 3.6 1.2 5.3.6-33.8 1.4-67.4.7-101zm-171.1 89.3c.5.1.9.1 1.4.2v-97.9h-1.4v97.7zm222.4 118.8c4.2-4.3 3.6-82.1-.4-87.3 0 3.8-.3 7.4.1 11.1.7 8.1 2.3 16.2 2.4 24.3.1 7.5-1.6 15.1-1.9 22.6-.5 9.5-.2 19.1-.2 29.3zm70.9-2.5c.7 0 1.3.1 2 .1.1-30.7 1.6-61.4 1.3-92.1h-1.6c-.6 30.6-1.2 61.3-1.7 92zm-316.6-13c3.6-7.6 2.9-15.7 2.9-23.7-.1-11.9-.1-23.9-.2-35.8-.1-6.9-.2-13.8-.4-20.6 0-.8-.7-1.6-1.1-2.4-.9 27.8 1.3 55.2-1.2 82.5zM208.2 288c5 10.2 11 20 14.8 30.6 3.6 10.1 4.8 21.1 7.2 32.2 4.5-10.4-5.6-39.8-22-62.8zm366.5-44.3c-.4 0-.7.1-1.1.1-.1 1.4-.4 2.8-.4 4.2 0 6.9-.1 13.8 0 20.7.3 16.8.7 33.7 1.1 50.5 0 1.1.8 2.2 1.2 3.3.2-.2.5-.4.7-.6-.5-26.1-1-52.2-1.5-78.2zm-281.9-89.8c-.4.1-.8.1-1.2.2l-1.5 79.3c1.1-1.1 1.8-2.3 1.9-3.5.4-5.8.8-11.5.9-17.3.4-19 .6-37.9.8-56.9.1-.6-.6-1.2-.9-1.8zm-59.9 182.7h1.3v-26.2c0-9 0-18.1-.1-27.1-.1-8.4.5-16.8-1.2-25v78.3zm27.6 25.8c.5.1.9.1 1.4.2v-66.7h-1.4v66.5zm-81.7-47.7c11.8-2.9 21.1-11.2 33.3-5.8-.3-1.3-.2-2-.5-2.1-4-2.3-7.2-5-13.2-3.3-7.3 2-13.4 5-19.6 11.2zm-20.3 107.4c-17.2-13.5-22.7-33.2-29-52.5-1.9 14.7 19.6 53.4 29 52.5zm26-206.6c-.6 4.2 2.8 4.1 4.6 4.4 4.7.7 9.4-3.2 11.1-8.7 1.2-3.7-.6-9.8-3.4-11.4-3.4-2.1-7.9-.9-12.3 3.8 5-2.4 9.5-3.1 11.9 1 1.2 2.1.9 6.2-.4 8.5-2.3 4.3-6.9 3.4-11.5 2.4zm106.8 29.9c-.6 0-1.3 0-1.9.1.5 16.7 1.1 33.4 1.6 50.2.7 0 1.3 0 2-.1-.6-16.8-1.1-33.5-1.7-50.2zm28.3 54.1c.1-1.4.2-2.8.2-4.2 0-5-.2-9.9-.1-14.9.2-8.2.7-16.5.8-24.7 0-1.2-.9-2.4-1.4-3.6 1 16.1-3.9 31.8.5 47.4zm-41.2 69.1c.5 0 1-.1 1.5-.1l-4.2-43.8c-1.3 14.8-.1 29.4 2.7 43.9zm321.7-70.2c.4 0 .7-.1 1.1-.1v-44.8h-1.1v44.9zM531.5 203h-1.7c0 2.6-.1 5.1 0 7.7.3 6.1.7 12.1.9 18.2.2 5.7 0 11.3.1 17 0 .9.4 1.8.7 3V203zm53 4.4c-.7 0-1.4.1-2.1.1.7 13.8 1.5 27.6 2.2 41.4.6 0 1.2-.1 1.8-.1-.6-13.8-1.3-27.6-1.9-41.4zm1.2 43.4h-1.1v41.8h1.1v-41.8zm-443.7-83c.3-.3.6-.5.8-.8-.6-1-1.4-1.8-1.7-2.9-2.1-6.1-7.7-8.9-12.8-1.6-2.4 3.5-5.2 7.4-3.1 12.8 1.5-3.8 2.4-7.2 4-10.2 2.4-4.4 6.3-4.4 9.4-.5 1 1.3 2.2 2.2 3.4 3.2zm140.8 186c3.8-4.5 5.2-27.4 2.1-35.6-.7 11.9-1.4 23.9-2.1 35.6zm-138.1 27.5c-.5.4-1.1.7-1.6 1.1 6.5 9.5 13 18.9 19.4 28.4.5-.3 1-.7 1.5-1-6.4-9.5-12.9-19-19.3-28.5zm455.5-130.2h1.3c-.1-9.3 1.1-18.6-.1-27.9h-1.2v27.9zM289.3 309v24.3c.5 0 1.1-.1 1.6-.1.8-8.1.8-16.2-1.6-24.2zM525 421.3c-10-.5-18.7-.9-27.4-1.3 0 .5-.1 1.1-.1 1.6 8.3.6 16.6 1.3 24.9 1.8.5.1 1-.8 2.6-2.1zm-300.6-83.4c-7.9 3.6-15.7 7.2-23.6 10.8 9.4-.2 16.8-5 23.6-10.8zm244.5 12.4c.6.1 1.2.1 1.8.2 1.3-7.3 3-14.5.8-22.1-.9 7.3-1.7 14.6-2.6 21.9zm13.5-142.8c-3 2.1-4.4 21.8-1.7 25.6.2-4.4.4-8.6.7-12.8.3-4.3.6-8.5 1-12.8zm-11.1 175.1c-.3 6.2-.6 12.5-1 19.4 3.3-2.4 4-14.4 1-19.4zM214 111.9h-1.4c.6 7.7-2.1 15.5 1.4 23.2v-23.2zm-83.6 98.9h1.6c3.6-5.8 3.3-10-1-11.4l-.6 11.4zm342.5 92.4c-2.3 1.8-2.8 11.5 0 15.3v-15.3zM239.3 135.6c-.6 0-1.2.1-1.8.1.4 5 .8 10.1 1.3 15.1.6-.1 1.2-.1 1.8-.2-.4-5-.8-10-1.3-15zm-16.2 148.8c.7-.1 1.4-.2 2-.3-.5-4.4-.9-8.8-1.4-13.2-.6.1-1.2.1-1.8.2.5 4.4.9 8.9 1.2 13.3zm-30.6-163.3c2.3-.7 2.9-9.2 0-14.2v14.2zm328 124.6h1.2v-13.1h-1.2v13.1zm-5.8 155.8c.6-.1 1.1-.2 1.7-.3-.2-3.2 1.4-6.7-1.7-10.4v10.7zM196.2 290.9c-.6.3-1.2.5-1.8.8 1.4 3.5 2.9 6.9 4.3 10.4.5-.2 1-.4 1.4-.6-1.2-3.5-2.5-7-3.9-10.6zm22.4-149.7h1.4c.3-4 .6-8 .9-12.1h-1.5c-.2 4.1-.5 8.1-.8 12.1zm301.9 88.9c.6 0 1.2-.1 1.8-.1-.2-3.5-.3-7-.5-10.5-.4 0-.9 0-1.3.1v10.5z" fill="#fff"/>
  <path d="M77 271.3c.7.9 2.1 1.9 2.1 2.8 0 5.2-.3 10.3-.7 15.5-.2 2-1 4-1.6 6.2.4 1.5 1.5 3.5 1.6 5.4.2 10.6.2 21.1.2 31.7v23.9c-25 1-50 3.2-75.4 3.5.3-3.7.6-6.2.8-8.7 8.4-.4 16.7-.8 25.5-1.2-.7 2.4-1.2 3.9-1.7 5.7h1.3c.9-5.7 4.7-5.9 9.5-6 11.7-.2 23.4-1.2 35.1-1.8.5 0 1.1-.4 1.6-1.7H64.4c.1-2 .2-3.7.2-5.5.6-1.7 1.4-3.3 1.9-5.1 2.1-7.7 4.1-15.4 6.2-23.1 1.2-4.6 2.3-9.3 3.5-13.9-1.7 1.3-2.7 2.8-3.2 4.5-2.3 8.4-4.5 16.8-6.5 25.3-.9 4.1-1.3 8.3-1.9 12.4-.4 0-1.2 0-1.2.1 0 6.4-5.3 5.7-9 6.1-5.5.6-11.2.2-16.8.2-6.5.1-13 .2-19.5.5-3.4.1-6.8.8-10.2 1-3.4.3-4.7-1-4.4-4.8.5-6.9.2-13.8.2-20.7 0-13.5-.2-27-.1-40.5.4-17.1.9-34.2 1-51.3.1-25.2 0-50.4 0-75.6 0-15.1-.1-30.2.1-45.3 0-.8 1.7-2.3 2.6-2.3 7 .1 14 .5 21.1.5 1.3 0 2.5-2 3.9-2.8 1.4-.8 3.2-1.9 4.5-1.5 5.9 1.6 12.5-2.5 11.9-8.5-.7-7.8 3.6-14.2 5.1-21.4.9-4.3 2.6-8.3 3.8-12.5.2-.6-.1-1.3-.8-2.1-1.4 3.8-3 7.6-4.2 11.5-1.2 3.7-2.1 7.5-4 11 .4-5.2-1.7-10.7 2.6-15.1 2.1-5.9 4.3-11.8 6.4-17.7-.4-.2-.8-.3-1.2-.5-1.7 4.5-3.4 9-4.9 13.6-.5 1.4-.1 3.1-.1 4.7-4.7-1.9-2.7-5.4-1.7-8.3 2.2-6.7 4.7-13.4 7.1-20.1.2-.6-.1-1.3-.9-2.2-2.1 6-4.2 12.1-6.3 18.1-.4-.1-.9-.3-1.3-.4-1-7.7 3.9-14.2 5.1-21.4-.4-.1-.8-.3-1.2-.4l-3.3 8.1h-1.1V6h13.9c-1.7 3.8-3.3 7.3-4.8 10.9-1.1 2.9-1.9 5.9-3 8.8-.5 1.1-1.7 1.9-2.9 3.2.6.8 1.4 1.6 2.6 3 1.6-3.6 3.1-6.7 4.2-9.9 1.5-4 2.6-8.2 4-12.3 1-2.8 2.6-4.6 6.2-4.1 3.3.5 6.8.1 10.6.1 1.4 6.9 3.2 13-3.4 19.4-7.8 7.5-13.5 17.1-14.9 28-.9 6.5 1.4 13 6.4 17.8 3.2 3 6.9 5.4 10.2 8.2 1.1 1 2.3 2.6 2.3 3.9 0 11.9-.2 23.9-.3 35.8 0 12.4.2 24.8.2 37.2 0 6-.5 12-.4 18 0 5.7.7 11.3.7 17 0 6.4-.7 12.8-.7 19.3 0 8.8.6 17.5.6 26.3 0 10.4-.4 20.9-.8 31.3-.2 1.2-1.1 2.3-1.5 3.4-4.6 11.4-7.4 23.3-9.8 35.2 1.1-.9 1.7-1.9 2-3 2.1-7.5 4.2-15 6.2-22.6.7-3.1 1-6.4 1.6-9.6zm-14.4 51.9c-2 7-4 13.9-6 20.9 1.3 0 1.8-.2 1.9-.5 1.7-5.9 3.5-11.8 5.1-17.7.2-.8-.7-1.8-1.1-2.8 4.7-3.7 3.3-9.2 4.9-13.8-.6-.2-1.2-.3-1.8-.5-1.1 4.8-2.1 9.6-3 14.4zm-27.9 4c.4.1.8.2 1.1.3 9.9-34.3 19.8-68.6 29.7-102.8-12.2 33.6-22 67.9-30.8 102.5zm12-67.8c.6.1 1.1.3 1.7.4 6.4-20.3 12.8-40.5 19.2-60.8-.5-.2-1-.3-1.6-.5-6.4 20.3-12.8 40.6-19.3 60.9zm30.2-6.3c-.6-.2-1.2-.3-1.8-.5-4.2 14.2-8.5 28.4-12.7 42.6.5.1 1 .3 1.6.4 4.3-14.2 8.6-28.4 12.9-42.5zm-25.7 89.1c.6.2 1.1.4 1.7.6 3.5-14.9 7-29.8 10.6-44.7-.5-.1-1-.3-1.5-.4-3.6 14.8-7.2 29.7-10.8 44.5zM66.3 81.9c-4.4 4.4-13.8 33.8-12.5 36.3 4.3-12.3 8.4-24.3 12.5-36.3zM71.5 246c-.6-.1-1.2-.1-1.7-.2l-10.2 35.4c.5.1 1 .3 1.5.4 3.5-11.9 7-23.8 10.4-35.6zm-22.8-10.7c.5.2 1.1.3 1.6.5 3.3-10.8 6.6-21.5 9.9-32.3-.5-.2-1-.3-1.4-.5-3.4 10.8-6.7 21.6-10.1 32.3zM8.1 163.6c.6.2 1.2.4 1.8.7 3.5-9.3 7-18.5 10.5-27.8-.5-.2-.9-.4-1.4-.5-3.6 9.2-7.3 18.4-10.9 27.6zm18.7 60.8c.5.2 1.1.3 1.6.5 3.3-10.1 6.5-20.2 9.8-30.4-.5-.1-.9-.3-1.4-.4-3.3 10.1-6.7 20.2-10 30.3zm24.6 90.1c.6.1 1.2.3 1.8.4 1.9-8.9 3.9-17.8 5.8-26.7-.5-.1-1-.2-1.6-.3-1.9 8.8-4 17.7-6 26.6zm15-199.5c-.5-.1-1-.3-1.5-.4l-9 24c.5.2 1.1.4 1.6.6 3-8.2 5.9-16.2 8.9-24.2zM39.6 223.6l1.5.3c2.9-8.7 5.8-17.4 8.8-26.1-.5-.2-1-.3-1.5-.5-2.9 8.8-5.9 17.5-8.8 26.3zm-28.3 53.9c.6.2 1.1.3 1.7.5 2.3-7.8 4.5-15.7 6.8-23.5-.5-.1-1-.3-1.5-.4-2.4 7.8-4.7 15.6-7 23.4zM65.6 16.1c-.6-.2-1.1-.4-1.7-.6-2.5 6.3-4.9 12.5-7.4 18.8.5.2 1 .4 1.4.6 2.6-6.3 5.2-12.5 7.7-18.8zM54 95.3l1.5.6c2.4-6.1 4.8-12.3 7.2-18.4-.5-.2-.9-.4-1.4-.5-2.5 6-4.9 12.2-7.3 18.3zm-8.5 229.8c-.4-.1-.9-.2-1.3-.3l-5.4 21c.5.1 1.1.3 1.6.4 1.7-7.1 3.4-14.1 5.1-21.1zm28.3-104.4c-5 7.9-6.7 15.1-5.3 17.7 1.7-5.9 3.5-11.8 5.3-17.7zm-31.2-92.3c2.6-.5 6.4-10.3 5.6-16.6-1.8 5.5-3.7 11.1-5.6 16.6zm-10 62.1c-.4-.2-.8-.5-1.2-.7-2.1 6.4-4.2 12.7-6.3 19.1.5.2 1 .3 1.5.5l6-18.9zm9.4 92.9c-.5-.2-1.1-.4-1.6-.5l-4.2 16.2c.5.1 1 .3 1.5.4 1.4-5.4 2.9-10.7 4.3-16.1zM8.2 189.5c.5.2 1 .3 1.5.5 1.9-5.7 3.9-11.3 5.8-17-.4-.2-.9-.3-1.3-.5-2 5.7-4 11.3-6 17zm14.7 120.2c-.5-.1-1-.2-1.6-.4-1.2 4.8-2.5 9.7-3.7 14.5.6.1 1.2.3 1.7.4 1.3-4.8 2.4-9.7 3.6-14.5zm37-156.2c-.5-.1-1-.3-1.5-.4-1.6 4.7-3.3 9.4-4.9 14.1.5.2 1 .3 1.6.5 1.6-4.6 3.2-9.4 4.8-14.2zm-10-12.7c-.5-.1-1-.2-1.6-.4-1.7 5.2-3.5 10.4-5.2 15.5.4.1.9.3 1.3.4 1.9-5.1 3.7-10.3 5.5-15.5zm14.3 47c.5.2.9.4 1.4.5 1.6-5 3.2-10.1 4.8-15.1-.5-.2-1-.3-1.6-.5-1.5 5-3.1 10.1-4.6 15.1zM30.8 281c-.6-.1-1.2-.2-1.8-.4-1.3 4.9-2.6 9.9-4 14.8.5.1.9.2 1.4.4 1.5-5 2.9-9.9 4.4-14.8zM73 183c-.5-.1-1.1-.2-1.6-.4-1.4 4.7-2.8 9.3-4.1 14 .5.1.9.3 1.4.4 1.4-4.7 2.9-9.4 4.3-14zm-44.7-43.9c-.5-.2-.9-.5-1.4-.7-1.8 4.8-3.6 9.5-5.4 14.3.4.2.7.3 1.1.5 1.9-4.8 3.8-9.4 5.7-14.1zm26.3-40.5c-.6-.2-1.2-.3-1.8-.5-1.4 4-2.8 7.9-4.2 11.9.5.2.9.3 1.4.5 1.6-4 3.1-7.9 4.6-11.9zm3.7 177.5c-.5-.1-1.1-.2-1.6-.3-1.3 4.4-2.6 8.7-3.9 13.1.4.1.9.3 1.3.4l4.2-13.2zM66 137.5c-.5-.2-1-.4-1.5-.7-1.5 4.3-3.1 8.5-4.6 12.8.4.2.9.3 1.3.5l4.8-12.6zM56.9 274l1.8.3c1.1-4.2 2.2-8.3 3.3-12.5-.4-.1-.9-.2-1.3-.3-1.3 4.2-2.5 8.3-3.8 12.5zM14 252.3c-.5-.1-1-.1-1.5-.2l-3 10.8c.6.1 1.1.3 1.7.4.9-3.6 1.8-7.3 2.8-11zm21.8 56.6c-.5-.2-1.1-.4-1.6-.5-.9 3.6-1.9 7.2-2.8 10.8.5.1 1 .2 1.4.3 1-3.5 2-7.1 3-10.6zm-15.6-84.5c.6.2 1.1.4 1.7.6 1.1-3.7 2.3-7.3 3.4-11-.4-.1-.8-.3-1.3-.4-1.3 3.6-2.5 7.2-3.8 10.8zm11.3 116.9c.5.1.9.2 1.4.4 1-4 2-8 3.1-12-.5-.1-1-.3-1.5-.4l-3 12zm15.4-155 1.2.6c1.4-3.7 2.8-7.5 4.3-11.2-.5-.2-1.1-.4-1.6-.6-1.3 3.7-2.6 7.4-3.9 11.2zM662.5 30.8c-5.1 4.2-10.2 8.3-15.7 12.8-3.8-7.2-7.4-14-11.5-21.8H659.9c7.8-.2 7.8-.2 7.8 7.5.1 11.5 0 23 .2 34.5.1 3.6-.6 6.4-4 8.5-2.9 1.7-5.2 4.3-7.2 7.4 3.1-2.4 6.2-4.9 10-7.9v87.3c-1.7.6-2.9 1-5.2 1.8 4.6 3.2 5.8 7 4.2 11.6-14.6-.6-29.1-.8-43.6 1.2-11.1 1.5-22.5 1.6-33.7 2.1-11.6.5-23.3.6-34.9 1-11.8.5-23.6 1.1-35.3 1.9-6.7.4-13.3 1.3-19.9 1.8-2.1.2-4.3-.2-7-.4.3-1.8.7-3.8 1.1-5.9 3.9.4 7.5.8 11.1.9.5 0 1-1.6 1.6-2.9-3.2-1.1-6.1-2.2-9.7-3.4 3.5-8.5 7-16.9 10.4-25.4 1.9-4.6 3.6-9.2 5.4-13.8 2.6-6.8 4.9-13.8 7.9-20.5.6-1.3 3.5-2.2 5.4-2.2 14 .1 27.9.7 41.9.6 8.3-.1 16.6-1.5 25-2 10.5-.7 20-4.7 29.3-9.2 4-1.9 7.4-5.4 10.5-8.7 7.5-8.2 14.2-17 16.2-28.3.6-3.4.9-7.2 0-10.4-.8-3.1.5-4.1 2.3-5.6 4.8-3.8 9.4-7.6 14.1-11.5-.7-.2-1-.6-1.3-1zm-45.4 130.7c4.3-2 4.2 1.5 5.7 2.7 2.6 2.1 7 2.3 10.7 2.8.9.1 2.4-1.7 2.9-2.9.2-.6-1.2-2-2-2.9-.8-.9-1.8-1.7-1.8-1.6-2.8.1-4.8.1-6.8.3-2.6.3-5.7-3.8-8.7 1.6zm-8.7 0c-2.1 1.1-3.6 5.6-6.8 1.4-3 3.1-1.1 4.5 1.5 5.3 2.3.7 4.7 1 7 1.2 1.1.1 2.9-.3 3.3-1 .6-1.1.3-2.7.4-3.4-2-.1-3.5.2-4.5-.3-.7-.4-.6-2.1-.9-3.2zm33.5.9c5.7 2.1 10.1 3.7 14.6 5.2.8.3 1.8-.2 2.7-.4-.4-1-.7-2.6-1.4-2.8-4.2-1.6-8.4-2.9-12.7-4.1-.4-.2-1.3.8-3.2 2.1zm-46.6 6.2c-4.2-1.4-7.5-2.7-10.9-3.6-.3-.1-1.9 2.3-1.7 3.1 1 2.8 9.3 3.8 12.6.5zm-54.6 5c-1.9-5.4-.6-5.5-11.5-4.6.5 3.1 6.4 5.4 11.5 4.6zm34.5-5.5c-3.6-.8-6.7-1.7-9.8-2.1-.7-.1-1.6 1.3-2.4 2 .7.7 1.3 1.8 2.2 2.1 1.7.6 3.8.4 5.3 1.3 3 1.7 3.7 0 4.7-3.3zm-65.7 3.4c2.8 1.2 5.1 2.2 7.5 3 3.8 1.3 4.9.7 5.5-2.1-3.9-1.2-7.7-2.3-11.6-3.5-.4.7-.9 1.6-1.4 2.6zm37.6-4.8c-1.8 3 .1 4 2.2 4.6 2.6.8 5.5 3.8 8.7-.8-3.9-1.4-7.4-2.6-10.9-3.8zm20.2-41.9c.3.4.5.7.8 1.1 7.1-5.2 14.3-10.3 21.4-15.5-.3-.4-.5-.7-.8-1.1-7.1 5.2-14.3 10.3-21.4 15.5zM652 46.9c.4.4.7.8 1.1 1.2 4.3-3.8 8.7-7.5 13-11.3-.3-.3-.6-.6-.8-1-4.5 3.8-8.9 7.4-13.3 11.1zm11.3-2.6c-.3-.4-.7-.8-1-1.2-3.8 2.9-7.6 5.8-11.3 8.8.3.4.7.8 1 1.3 1.9-1.5 3.7-3 5.6-4.5 1.9-1.5 3.8-2.9 5.7-4.4zM652.5 137c.3.3.5.6.8.9 3.5-2.9 6.9-5.9 10.4-8.8-.3-.4-.7-.7-1-1.1-3.4 3.1-6.8 6.1-10.2 9zM511.2 347.6c12.4 1.1 24.6 2.2 36.8 3.3 8.6.8 17.2 1.8 25.8 2.8 8.5 1 17 2.5 25.6 3.4 6.8.7 13.8.6 20.6 1.4 12.8 1.4 25.6 2.8 38.4 4.7 7 1 6.8 1.5 7 9 .2 6.9.3 13.8 1 20.6.3 3.3-.9 2.7-3 2.4-9.6-1.3-19.3-2.4-28.9-3.8-6.5-.9-13-2.1-19.6-3-9.6-1.2-19.2-2.1-28.8-3.4-12.2-1.7-24.3-4-36.6-5.5-14.6-1.8-29.2-3.1-43.9-4.6-.3 0-.5-.3-1.1-.6 2.2-8.9 4.5-17.9 6.7-26.7zm149.9 23.8c.1-.5.3-1.1.4-1.6-.8-.4-1.6-1.2-2.5-1.3-15.4-1.3-30.8-2.4-46.2-3.9-8.2-.8-16.4-2.1-24.5-3.2-9.3-1.3-18.6-2.8-27.9-4-10.4-1.3-20.9-2.5-31.3-3.6-4.1-.4-8.3-.5-12.4-.7 3 1.5 6 2 9.1 2.5 8.4 1.2 16.8 2.2 25.2 3.4 5.4.8 10.7 2.1 16 2.7 6.1.7 12.2 1.1 17.9 3.7 1.4.6 3.6-.7 5.4-.9 1.6-.2 3.3-.6 4.9-.4 9 1.1 18 2.4 27.1 3.4 8.5 1 17 1.7 25.5 2.6 4.3.4 8.8.9 13.3 1.3zM569.4 425.9c13 2 26 4.2 39 6 9 1.3 18.1 2.1 27.1 3.1.4 0 1.1.4 1.3.2 9.5-7.3 18.7.4 28 .6.8 0 2.1 2.5 2.1 3.9.2 9.7.3 19.3 0 29 0 1.2-2.1 3.2-3.2 3.2-8.3 0-16.5-.6-24.8-.7-13.1-.1-26.1.2-39.2.3-12.5 0-24.9 0-37.4-.1-3.3 0-3.4-2.4-2.9-4.8.8-4.1 1.7-8.3 2.6-12.4 2.1-9.1 4.3-18.2 6.5-27.3.1-.3.6-.7.9-1zM636.5 304.5c-12.9.4-10.4 1.8-11.3-9.1-1-11.6.9-23.1.8-34.7-.1-9.1-.7-18.2-1-27.3-.1-3.7 0-7.5 0-12.2 12.7-1.6 26.2.8 39.9.8.5 9.2 1 18.3 1.5 27.9.8-.3.4 0 .2-.1-4.8-4-5.9-4.2-10.6.2-2.3 2.1-3.4 2.1-5.2-.5-3.4-5-3.1-8.4 1.3-13.3 1.9-2.1 3.3-4.7 4.6-7.3-10 9.7-15.4 16.1-3.3 25.4 2.2-1.5 4-3.3 6.2-4.3 3.2-1.5 6.3.6 6.2 4.1-.2 16.9-.4 33.8-.7 50.6 0 .4-.2.9-.4 1.7-4.6-.5-9.2-1-13.7-1.4-2.3-.2-4.6-.1-6.9-.2-4.6-.2-10.1-3.8-10.8-8.1-.4-2.3 1-5.6 2.7-7.2 3.8-3.7 3-7.1 1.1-11.1-.4.3-.9.5-.9.6 2 6-2.9 9.9-4.8 14.6-1.1 2.6-.8 4 1.1 5.8 1.6 1.1 2.5 2.9 4 5.1zM630 223c-.7.1-1.5.2-2.2.3.7 8.5 1.6 16.9 2.1 25.4.3 5.7 1 11 6.3 14.3 2.6 1.6 5.5 2.8 7.7 4.8 2.9 2.6 6.1 5.4 7.6 8.8 1.6 3.7 1 8.3 1.9 12.3.9 4.1 2.5 8.1 3.7 12.1.4-.1.9-.3 1.3-.4-.9-3.9-2.1-7.8-2.7-11.8-.8-4.7-3.3-9.4-.4-14.8-5.7-4-11.7-7.6-17-12-2.6-2.1-5.3-5.4-5.9-8.5-1.2-6.5-1-13.3-1.5-20-.2-3.5-.6-7-.9-10.5z" fill="#fff"/>
  <path d="M569.5 423.6c2.9-11.2 5.6-21.8 8.4-32.9-7.5 2.6-13.5-1.6-19.7-5.2 26 3.5 52 7 77.5 10.5 0 10.1-.4 19.6.1 29 .3 6.4-1 7.9-7 6.8-7.6-1.4-15.3-2.3-23-3.5-7.5-1.1-15-2.4-22.6-3.5-4-.6-8.2-.8-13.7-1.2zm50-25.3h-.9V423h.9v-24.7zm-28.6 4.5c-.7.1-1.3.2-2 .3 1.1 6.2 2.2 12.3 3.2 18.5l1.5-.3c-.8-6.2-1.7-12.4-2.7-18.5zm5.2 17.7c.6 0 1.1-.1 1.7-.1l-.6-13.8c-.6 0-1.1.1-1.7.1l.6 13.8zm-11.8-12.7c-.4 0-.9 0-1.3-.1v10.7h1.3v-10.6z" fill="#fff"/>
  <path d="M574.9 394c-2.6 9.7-5.3 18.6-7.5 27.6-3.8 15.5-7.4 31.1-10.9 46.7-.6 2.6-1 3.4-4.1 2.8-4.3-.7-8.8-.4-13.2 0-3 .3-2.8-1.4-2.7-3.1.7-9.8 1.4-19.5 2.5-29.3.7-6.4 2.3-12.7 3.1-19 1-8.6 1.6-17.3 2.3-25.9.2-1.9.2-3.8.4-6.7 9.5 5.8 18.9 9 30.1 6.9zm-14.1 35.3c.4.1.9.2 1.3.3 2.6-10.4 5.1-20.7 7.7-31.1-.3-.1-.7-.2-1-.3-.5 1.3-1.1 2.6-1.7 4-.5-.9-.9-1.5-.9-1.5-1.9 9.2-3.6 18.9-5.4 28.6zm-12 37.9c3.4-2.2.7-7.3 4.8-8.5.1 0 .1-.8-.1-.8-3-1.3-1.3-4-1.9-6.1-.3-1-1.7-1.7-2.8-2.8v18.2zm10.9-39.2c-.8-.2-1.5-.3-2.3-.5-1.5 8.6-3 17.1-4.6 25.7.5.1.9.1 1.4.2 1.9-8.4 3.7-16.9 5.5-25.4zm-8.2 20.3c.2-4.4.5-8.8.7-13.2-.5 0-.9 0-1.4-.1 2 4.6-4.3 8.7.7 13.3zM20.9 59.2c0-7.8-.7-15.4.2-22.8 1.1-9.2.2-18.2.5-27.3.1-2.7 1.1-3.6 3.6-3.3 3.9.3 7.9.6 12.4 1V93.1H12.8c-1.9 0-3.9.4-5.7.2-.8-.1-2.2-1.2-2.2-2-.3-4.3-.5-8.7-.2-13.1.1-1.3 1.8-3.1 3.1-3.4 2.3-.5 4.8-.3 7.2.1 4.9.8 9-3.5 8-8.4-.4-1.8-.1-3.7-.1-6.4.3-.1-.7-.4-2-.9z" fill="#fff"/>
  <path d="M5.7 102.1c-2-5.9-1.9-5.8 3.9-6.1 6-.4 12-1.3 18-1.6 2.7-.1 5.6.4 8.3 1 3.2.7 3.6-.9 3.6-3.5-.1-8.8-.2-17.5-.1-26.3.1-11.4.5-22.8.7-34.2.1-7-.1-13.9 0-20.9 0-1.5.7-3.1 1.5-4.4.4-.5 2-.2 3-.2 0 1.5.1 3 .1 4.6.3 9.5.5 18.9.8 28.4 0 1.7.2 3.4.2 5 .2 17 .2 34 .3 51.1 0 5.8-1 7-6.6 7.1-11.3.1-22.5 0-33.7 0zM665.6 336.5v12.7c-17.8-1.8-35.2-3.5-53.1-5.3v-10.5c17.7 1.1 35.5 2.1 53.1 3.1zM621.3 194.5c.7-.1 1.3-.2 1.9-.3 11.9-.5 23.8-1 35.8-1.5 6.3-.3 9.1 4.7 6.3 10.7-7.4-.6-14.6-1.7-21.9-1.7-7.2 0-14.5 1-22.1 1.7v-8.9zM643.8 413.3c-.3-4.6-.4-8.6-.9-12.5-.4-3.3 1.1-4.2 3.9-3.9 5.3.6 10.7 1.2 16 1.8 4.2.5 4.1 3.5 3.8 6.7-.2 2.6-.5 5.2-.1 7.7.5 3.5-1.5 3.8-3.9 3.5-6-.8-12-1.9-17.9-2.9-.6-.1-1.1-.5-.9-.4zM666.9 419.3v9.3c.1 3.4-1.1 4.6-4.8 3.7-4.4-1.1-9-1.6-13.6-2.2-3.1-.4-4.3-1.9-3.7-4.9.1-.6.5-1.1.6-1.7 1.5-7.5 2.3-8 9.9-6.1 1.9.5 3.8 1.2 5.7 1.5 1.9.3 3.7.2 5.9.4zM667 18.5c-6.3 0-12.4-.3-18.5.1-2.9.2-3.1-1.3-3-3.2.2-3.1.7-6.3 1.1-10.1 4.3.4 8.7.8 13.1 1.4 8.9 1.2 8.9 1.3 7.3 11.8zM636.9 20.6c-2.3-.6-4.2-.7-5.6-1.6-7.1-4.6-14-9.4-20.7-13.9h27.2c-.3 5.3-.6 9.9-.9 15.5zM665.3 330.5c-3.9-.4-6.9-.6-9.9-.9-8.2-.8-16.4-1.5-24.6-2.5-1.3-.2-2.4-2.2-3.6-3.4.2-.4.5-.8.7-1.2 8.2.6 16.4 1.1 24.6 1.7 3.1.3 6.3 1.4 9.4 1.3 4.7-.1 3.2 2.6 3.4 5zM665.4 218.1c-5.2 0-10.4.2-15.6-.1-6.3-.3-12.5-1-18.8-1.7-1.4-.2-3-.6-4.1-1.5-.5-.3 0-1.9 0-3 1.3.2 2.6.5 3.9.5 4.4.1 8.7 0 13.1.2 5.6.2 11.2.4 16.8 1 1.9.2 3.6 1.6 5.4 2.5-.2.7-.4 1.4-.7 2.1zM627.8 313.8c7.2.7 14.3 1.4 21.4 2.1 4.3.4 8.7.5 13 1.1 1.2.2 2.1 1.6 3.2 2.5-1 .7-2.1 2-3 1.9-8.6-.7-17.2-1.7-25.9-2.5-.6-.1-1.2.1-1.8.3-4.1 1.1-6.3-.6-6.9-5.4zM81.8 18.1V5.7h21.4c.1.3.2.7.3 1-7 3.7-14 7.4-21.7 11.4zM627.7 307.5c9.9.6 19.8 1.3 29.8 1.9 1.5.1 3-.1 4.5-.1 3.3-.1 4.1 1.4 2.9 4.4-12.5-1.2-24.9-2.5-37.4-3.7.1-.8.1-1.7.2-2.5zM641 395.7c0 2.2-.1 3.7 0 5.1.3 7.3.8 14.6.9 21.9 0 2.5-1 5-2 7.3-3.5-8.2-2.9-32.2 1.1-34.3zM20.5 24.4c-.9 3.8-1.7 6.8-2.4 9.6-4.4-.6-8.1-1-11.8-1.8-.9-.2-2.1-1.8-2-2.7.1-1.2 1.2-3 2.2-3.2 4.3-.9 8.6-1.2 14-1.9zM4 42.2c2.8.8 4.6 1.3 6.4 1.8.6.2 1.1.6 1.7.8 2.3.9 6.2 1.3 6.6 2.7 1 3.5.3 7.5.3 12-5.1-5.8-9.5-11-15-17.3zM628.3 207.5c1.1-.4 2.2-1.3 3.3-1.2 6.8.4 13.6 1.1 20.4 1.5 4.6.2 9.1 0 13.7 0 .1.4.3.9.4 1.3-1.1.5-2.2 1.5-3.4 1.4-6.7-.1-13.4-.4-20-.7-4.7-.2-9.4-.5-14-.8-.1-.5-.2-1-.4-1.5zM629.9 352.8h26c.3 0 .7.5 1 .8 0 .5-.1.9-.1 1.4-4.1-.2-8.3-.5-13.2-.8 1.4.8 2.3 1.2 3.1 1.7-7.6 2.5-14.2 1.7-16.8-3.1zM616 352.1h-28.1c0-.3-.1-.7-.1-1l28.2-1.5v2.5zM643.6 4.6c0 4.7.1 8.2-.1 11.7 0 .9-1 1.8-1.5 2.8-.7-.9-1.9-1.7-2-2.7-.3-3.1-.3-6.3 0-9.5 0-.6 1.8-1.2 3.6-2.3zM563.2 347.8h29.1c0 .2 0 .4.1.6h-29.2v-.6zM19.2 9.7c-4.8-.4-9.6-.9-14.5-1.3V6.8c4.3-2 9.1-.7 13.7-.8.6 0 1.2 1.6 1.8 2.4-.4.4-.7.9-1 1.3zM577.3 186.2h19.9v1.6c-6.7 2.4-13.2-1.8-19.9-1.6zM624.5 185.5c-7.6 1.2-15.1 2.5-22.7 3.7l-.3-1.5c7.6-1.2 15.1-2.5 22.7-3.7.2.5.2 1 .3 1.5zM660.1 176.9v12.9c-3.2-4.7-2.9-10.9 0-12.9zM11.5 71.9H5.6c-.2-2.2-.4-4.2-.8-7.6 3 2.5 5.2 4.4 7.5 6.2-.3.5-.5 1-.8 1.4zM6.7 22.2c4.1-1.1 7.7-4.5 12.4-2.8.1.4.2.9.3 1.3-4.1.8-8.3 1.7-12.4 2.5-.1-.3-.2-.7-.3-1zM656.4 188.4c-2.8-1-3.4-7-.8-12.6.4 4.8.6 8.5.8 12.6zM649.1 177.3V189c-.6 0-1.2-.1-1.7-.1.2-3.9.5-7.8.7-11.6h1z" fill="#fff"/>
  <path d="M491.5 424.2c-3.5 7.5-10.5 10-17.6 11.4-13.1 2.7-25.8.2-38.2-4.9-3.5-1.5-7.8-3-12.1-.6-1.7.9-4.2.1-6.4.3-9.4.5-18.7.9-28.9 1.5 1.2-1.4 1.8-2.2 2.7-3.3-4.9.6-11 3.2-13.8 1.2-5.4-3.9-10-1-14.6-.6-7.6.8-15.2 1.4-22.5-.5-4.9-1.3-9.7-3.5-14.2-5.8-1.8-1-2.9-3.4-4.3-5.2.3-.4.5-.9.8-1.3-7.5.8-15.1 1.6-22.6 2.3-.1-.3-.1-.7-.2-1 3.2-.7 6.4-1.4 9.6-2l-.3-1.2c-11 1.9-21.9 3.9-32.9 5.8l-.3-1.8c16-2.7 31.9-5.4 47.9-8-20.2.7-40.1 3.6-60.3 6.4 2-.8 3.9-1.9 6-2.2 15.4-2.2 30.7-4.3 46.1-6.2 5.3-.7 10.6-1.2 15.9-.9 3 .2 5.8 2.2 8.7 3.3.9.4 1.9.5 3.4.9l-2.1-5.6c.2-.2.5-.3.7-.5 1.6 1.3 3.2 2.6 4.9 3.8 1 .7 2.3 1.1 3.5 1.6.3-1.3.7-2.5 1.1-4.2 1.7.1 3.6.3 5.5.4l.3-.9c-1.8-.8-3.5-1.6-6.4-2.9 2-.6 3.2-.8 4.1-1.3 1.1-.8 2.5-1.7 2.9-2.9.9-2.5 1.7-5.2 1.8-7.9.1-4.5-4.4-3.3-6.4-3.5-6.1-.6-7.5-1.4-6.3-7.2 1.2-5.4 2.2-11 4.6-15.9 2.6-5.3 2.7-10.8 3.4-16.3.4-3.2 1.1-6.3 1.8-10-5.1 2.6-7.6 7-6.8 11.6.8 4.5-1.7 7.1-5.3 7.7-2.1.4-4.7-1.5-6.9-2.8-.5-.3-.2-2.1 0-3.1.3-1.4 1-2.8 1.7-4.7-5.4.2-6 4.4-7.8 7.1-3 4.4-10.3 4.2-13-.4-.9-1.5-2-2.9-3.3-4-2.8-2.5-2.9-7.7.4-11.1 2.5-2.6 5.5-4.8 8.1-7.4 2.6-2.5 5.4-4.9 7.5-7.8 4.4-6.1 8.2-12.7 12.8-18.7 3.2-4.1 7.3-7.5 10.9-11.3 4.7-4.9 9.3-9.9 13.9-14.8.7-.8 1.6-1.5 2.3-2.3 1.5-1.6 3-3.2 4.4-4.9-2.2-1.9-4.1-4.5-6.6-5.7-6.7-3-14.1-4.8-20.5-8.3-9.4-5.2-18.5-11.2-21.1-22.9-.4-1.9-.8-4-.3-5.8 1.1-4.2 2.2-8.1.9-12.7-.6-2 1.6-5.1 3-7.4.9-1.5 2.7-2.4 4-3.5-.4-4-1.4-6-6.3-6.9-10-1.8-16.2-9.4-15.8-17.8.3-4.9 5.3-12 10.2-14l18.3-7.5c.3-.1.7-.1.9-.2 4.8-3.5 7.4-4.2 14.3-4.6 1.7-.1 3.5-1.5 5.1-2.6 5.2-3.3 10-7.1 15.4-10.1s11.1-5.4 17.6-4.3c.8.1 1.8-.9 2.8-1.2 7.3-2.1 13.5-.4 18.5 5.6 2.4 2.9 4.7 4 9.3 3.2 4.9-.9 10.7.5 15.6 2.3 5.6 2.2 7.3 7.7 8.6 13.5 3.1 14.1.9 27.5-3.8 40.7 7.3 2.4 8.8 5.3 8.3 15.4-.3 5.3-5.7 12.3-10.4 13.2-1.1.2-2.3-.3-4-.6-1.9 17.6-13.8 27.6-28 35.8v1.5c2.8.4 5.5 1.1 8.3 1 8.5-.5 17-.4 25.5 1 3.1.5 6.4-1.1 9.7-1.5 5.6-.7 11.2-1.3 16.8-1.8 2.8-.2 5.6 0 8.8 0-1.1-4.8-.4-8.7 5-10.1 1.3 1.1 2.6 2.4 3.9 3.6 2.3-1.6 4.4-4 6.7-4.2 1.5-.1 3.1 3.2 5.2 5.6 1.9-.8 5.1-2.6 7 1.8 1.5 3.4 1.4 6.4-2.1 8.7-.9.6-1.2 2-2 3.5 2.3 0 4.6-.7 5.8.2 1.4 1.1 2.7 3.5 2.6 5.2-.1 2-1.3 4.9-3 5.8-3.1 1.6-6.8 2-10.2 3-1.7.5-3.3 1.2-5.6 2.1 1.2 1.5 2 2.5 2.7 3.5 3 3.7 3.1 6.9.1 9-3.9 2.8-9.5 2.2-10.9-1.9-1.7-5.2-4.7-5.1-9-4.4-5.9.9-12 1.1-17.9 1.8-1.1.1-2.9 1.5-2.9 2.1.4 4.9-3.1 4.8-6.2 5.3-2.5.4-5 .7-7.8 1.1 1.9 5.9 3.7 11.3 5.4 16.8 2.8 9.4 5.5 18.8 8.2 28.2.1.3.3.6.3.8-.7 9.9 3.1 18.6 6.6 27.5 1.7 4.4.2 7.2-5 7.4-5 .2-5.2 1.6-3.3 5.8 1.4 3.2 1.4 7 2.2 10.5.2 1 1 2.4 1.8 2.7 4.3 1.3 8.8 2.2 13.2 3.2 8.8 2 18.2 2.9 22.4 13 .8 1.8 1.6 2.2 4 2.1 10.1-.5 20.2-.2 30.6.9-1.1.4-2.3 1.1-3.4 1.2-9.4.2-18.7.4-28.1.1-1.8-.1-3.7-2-5.6-3.1-2.8-5.9-8.6-6.1-13.8-7.9-7.7-2.7-13.9-2.5-19.7 4.3-1.8 2.1-5.6 5.8-10.8 3 5.5-3.7 10.5-7 15.4-10.3-.4-.5-.7-1.1-1.1-1.6-3.4 2-6.7 4-10.1 6.1-3.5 2.2-7.1 4.3-12.3 2.7 3.2-2.5 5.9-4.5 8.5-6.5-.2-.5-.5-1-.7-1.5-5.8 2-11.7 3.9-17.5 5.9.1-.5.2-1.4.4-3.1-4.6 1.5-10-2.6-13 3.7-.4.9-.9 1.7-1.4 2.5.9.5 1.7 1.2 2.7 1.4 4.3.9 8.7 1.4 12.9 2.5 11.8 3.1 23.2 7.8 36 6.9 9.1-.7 17.3-2.6 24.5-8.1zM336.1 197.7c.9 2.2 1.8 4.1 2.3 6.2.4 1.7.8 3.8.3 5.3-1.7 4.4-4.1 8.5-5.8 12.9-2.4 6.3-3.4 13.1 1.6 18.3 5.3 5.6 11.2 11.4 18.1 14.7 13.5 6.4 27.8 10.4 43.4 8.9 9-.9 17.4-2.3 24.8-7.7 10.7-8 18.4-17.4 15.7-32.3 1.8 1.4 3.1 3.2 4.9 3.7 3.7 1 8.9-3.5 9.3-7.5.3-2.7.6-5.4.8-8.1.2-2.9-3.9-7-6-6l-5.4 2.4c-.3-.4-.7-.8-1-1.1 7.7-4.1 6.8-12.1 8.5-18.6 1.8-6.9 2.1-14.4-4.6-20.2 2.5-2.2 6.7-3.3 4-7.8-1.6-2.7-2.6-5.8-3.9-8.6-.5.2-.9.4-1.4.6.6 1.8 1.2 3.6 2.1 6.6-4.6-3.9-7.4-7.6-12.7-9.1-4.8-1.4-8.4-1.4-12.5 1.3-3.7-5.4-6.7-11.2-13.8-12.2 1.6 2.1 3.7 3.8 5.5 5.7 1.6 1.7 3 3.8 4.5 5.7-11.2-12-25.2-13.5-34.4-7.7 5.5 1.2 11.2-1.4 16.8 2.8-7.5.6-14.2-2.5-20.5 2-3.4 2.4-8.2 2.9-13.1 4.4 1.9.7 2.8 1.1 4.6 1.8-3.5 1.5-6 2.6-8.8 3.8 1.1.9 1.9 1.6 2.7 2.2-.1.4-.2.8-.2 1.2-4-.6-8-1.2-13.3-2 3.1 2.1 5 3.3 7.1 4.7-2.4 3.5-4.5 1.1-6.7.7-3.9-.8-7.9-1.5-11.8-2.3-.1.4-.1.8-.2 1.2l6 3.6-.6 1.2c-2-.5-4-1.3-6-1.4-2.2-.1-4.5.4-6.7.8-10 1.9-15 9-13.5 16.3 1.3 6.3 7.9 11 16 11.9 3.2-17.2 6.2-21.6 15.3-21.6-.7.8-1.5 1.4-2.4 1.7-7 2.7-6.6 6.7-3.9 11.3 3.5 5.9 15.4 9.1 22.3 5.8-4.5-4.2-8.9-8.2-13.2-12.3.4-.5.7-1 1.1-1.6 1.9 1.3 3.9 2.5 5.7 3.9 5.9 4.9 11.2 10.8 19.2 12.6 1 .2 2 0 3 0-.2-1.1-.1-2.5-.8-3.2-1.6-1.8-3.6-3.3-5.3-5-1.9-1.9-4.5-3.6-2.9-7.9 2.1 2.2 3.9 4.1 5.6 5.9 2.7 2.9 4.6 7 9.2 7.4 2.7.2 5.4-.1 8.1-.2-.9-2.3-1.7-4.6-2.6-6.8-.9-1.9-1.9-3.8-2.9-5.7.4-.2.7-.3 1.1-.5 2 2.8 4.3 5.5 5.9 8.5.9 1.6 1.6 4.5.7 5.6-1 1.4-3.7 1.6-5.8 2-2.6.6-5.9 0-7.9 1.4-2.7 1.8-4.8 2-7.5.7-4.5-2.1-8.8-5-13.7-.6-.5.5-1.8.2-2.7.2-9.3-.2-16.1-4.8-22.3-12.2v10c2.2-.9 3.6-1.4 5-2 .2.3.4.6.5 1-1.5.9-3 1.9-4.9 3.3zm147.8 60.2c0 2.4-.6 4.8.1 6.6 1.9 4.8-1.4 4.4-4.1 4.5-8.5.4-17 .6-25.5 1-3.4.2-4.3 1.6-2.9 5.1 1.7 4.1 3.2 8.5 3.5 12.9.5 6.5.1 6.9 6.3 6.4 6.1-.4 12.2-1.7 18.3-2.3 2.6-.3 5.6-1.1 6.3 3.2.3 1.7 1.4 3.9 2.7 4.5 2.1.9 4.8.6 7.2.9-.3-1.7-.2-3.6-.9-5.2-.8-1.8-2.4-3.3-4.4-6 7-2.6 13.4-5 19.9-7.4-.1-1.6-.1-3-.3-5.5-4.7 1.1-8.9 2.2-14.1 3.4 3.7-4.4 6.8-7.9 9.6-11.6.9-1.2 1.4-2.9 1.6-4.4.1-.4-1.7-1.7-2.4-1.5-1.4.4-2.8 1.3-3.7 2.4-1.9 2.1-3.4 4.4-5.3 7-2.4-5.7 5.8-10 .4-15.1-4.9 1.7-3.8 6.3-5.3 9.5-.5.9-1.4 1.6-2.1 2.4-.2-1.1-1-2.4-.6-3.3 2-4.1.3-6.3-4.3-7.5zm-163 94.2c5.6 4.4 7 4.2 10.3-1.5.8-1.3 1.4-3.1 2.5-3.7 2-1.1 4.7-2.5 6.5-2 3.3 1 .6 3.7.7 5.7 0 1.5.9 2.9 1.5 4.4 1.8-1 3.7-1.8 5.3-3 .4-.3.3-1.9-.1-2.6-1.9-3.5.3-5.5 2.4-7.9 3.1-3.6 6.3-7.4 8.1-11.7 1.4-3.5.7-7.9.9-11.7-4.3-3-8.5-6.1-12.9-9.2-.8.6-1.7 1-2.2 1.7-3.6 5.1-7 10.3-10.7 15.3-2.3 3.1-5.1 5.8-7.7 8.7-2.5 2.9-5.2 5.6-7.2 8.8-.8 1.2-.1 3.4-.1 5.2.3 0 .6-.1 1-.1l5.4-7.8c.3.2.7.4 1 .6-1.6 3.6-3.2 7.2-4.7 10.8zm4.9 65.2c0 .5-.1 1.1-.1 1.6 1.9 1.2 3.6 3 5.6 3.5 9.2 2.4 18.1 5.1 28.1 2.9 9.6-2.1 19.6-2.2 29.4-3.2 4.8-.5 9.7-.9 14.5-1.4.1-.5.3-1 .4-1.5-2.2-.7-4.4-2-6.6-2.1-7.4-.4-14.9-.4-22.3-.4-1.6 0-3.4.2-4.6 1-5.6 3.6-11.1 3.3-16.9-.5-2.5-1.6-5.4-3.2-8.2-3.4-4.3-.3-8.7.6-13 1.2-2.2.5-4.3 1.5-6.3 2.3zm67.6-5.3c0-6.4-.4-11.3.2-16.1.4-3-.4-3.3-2.9-3.4-7.4-.5-14.8-1.4-22.2-2.1-2.1-.2-4.2-.2-6.5-.3-.7 4.3-1.3 8.1-2 12.2 11 3.1 21.6 6.2 33.4 9.7zM363 307.9c6.8.9 13.3 2.2 19.8 2.5 6.3.3 12.6-.1 18.9-.6 4.8-.4 9.6-1.4 14.4-2 6.5-.8 13.1-1.4 19.6-2.3.7-.1 1.9-1.7 1.8-2.5-.4-4.2-3.2-6.1-7.4-5.2-8.5 1.8-17 3.3-25.4 5.6-11.2 3-21.9 1-32.8-1.5-6.2-1.4-9-2.2-8.9 6zm82.5 19.5c-1.2.5-2.4 1.3-3.7 1.6-5.3 1.2-10.7 2.4-16.1 3.4-10.7 2-21.3 4.5-32 5.7-11.1 1.3-22-1.3-32.9-5l-1.6 4.8c6.2 1.5 11.8 3.4 17.7 4 14.5 1.7 29 0 43.4-1.9 6-.8 11.9-1.9 17.8-2.8 9.8-1.6 9.8-1.6 7.7-9.5 0-.1-.2-.2-.3-.3zm-27 76c10.5.4 21 .8 31.4 1.1 3 .1 4.9-.4 3.3-4.2-1.1-2.6-1.4-5.6-2.5-8.2-.4-1-2.2-2.2-3.3-2.1-6.9.4-13.8 1.3-20.8 1.6-9.9.4-10.5-2.3-8.1 11.8zm24.4-84.9c-5.9 1-11.2 1.9-16.5 2.9-12.2 2.4-24.4 5.2-37 5.7-3 .1-6.1-.1-9.1-.5-6.2-1-12.4-2.2-18.6-3.3-1.8 4-1.5 5.1 1.8 5.8 17 3.6 34 3.9 51 .2 9.5-2.1 19-5.2 29.9-3.5-.5-2.8-1-5.1-1.5-7.3zm-9.3-25.8c-1.3-3-2.3-5.4-3.1-7.2-7.1 2.2-13.7 4.2-20.3 6.3-9.8 3.2-19.8 4.7-29.8 1.3-5.6-1.9-10.9-5-17.7-8.1-.2 3.6-.7 6.6-.2 9.3.2 1 2.8 1.9 4.4 2.2 6.2 1 12.5 1.5 18.8 2.7 9.7 1.8 19-1 28.4-2.4 5-.7 10-1.8 15-2.8 1.4-.4 2.8-.8 4.5-1.3zm7.7 20.4c-.2-4.4-.7-4.9-5.1-3.5-2.2.7-4.3 1.6-6.6 1.9-11.1 1.5-22.3 2.5-33.4 4.2-9.6 1.5-18.9.2-28.1-2.3-4.2-1.1-6.5-.8-6.7 4.1.4.3.9.7 1.4 1 .7.3 1.4.4 2.2.6 12.1 3 24.4 2 36.7 1.6 3.2-.1 6.4-.6 9.5-1.3 9.9-2 19.7-4.1 30.1-6.3zm11.1 42.1c.3-.5.5-1 .8-1.4-1.3-1.2-2.7-3.4-4-3.3-5.9.4-11.8 1.4-17.7 2.2-8.7 1.1-17.4 2.8-26.1 2.9-10.8.2-21.7 1.8-32.4-1.5-3.9-1.2-7.9-2.3-11.9-3.2-1-.2-2.2.7-3.3 1.1.7 1 1.2 2.5 2.1 2.9 2.5.9 5.2 1.6 7.9 2 7.1 1 14.3 1.2 21.1 3 6.2 1.6 11.9.8 17.9-.3 5.7-1.1 11.4-2.3 17.2-2.8 7-.7 14-.7 21-1.1 2.5-.2 5-.4 7.4-.5zm-2.3-9.4c-1.7-6.6-2.7-7.1-7.7-5.2-1 .4-2 .7-3 .9-9.5 1.7-19 3.4-28.6 4.9-11.1 1.7-22.3 3-33.4.5-5-1.1-10-2.4-15.1-3.3-1-.2-2.3 1-3.5 1.6.9.8 1.7 2.1 2.7 2.3 16.5 3.3 33 4.9 49.8 2.7 12.8-1.6 25.6-2.9 38.8-4.4zm-33.5 63.8c-.8-5.1-1.6-10.1-2.6-15.1-.2-.8-1.8-1.8-2.7-1.9-5-.2-10.1-.1-15.4-.1v17.1h20.7zm-8-142c-2 .6-3.7 1.3-5.5 1.6-6.6 1-13.2 1.8-19.7 2.9-1.6.3-3.8 1.2-4.5 2.5-1.3 2.6 1.5 3.2 3.1 3.8 6.1 2.6 12.7 3.5 18.8 1.2 9.4-3.4 10.9-6.3 7.8-12zm20.7 13.9c-.1-.7-.3-1.4-.4-2.1-1.1.2-2.3.3-3.4.5-3.8.6-7.7 1.9-11.5 1.6-3.7-.4-6.8-.4-9.9 1.8-3.4 2.4-7 4.6-11.6 3.4-5.2-1.3-10.5-2.5-15.7-3.6-3-.6-6-2.7-9.1.4 3.6 1.8 7.3 3.5 11.1 3.9 6.5.8 13.1 1.5 19.6 1 6.9-.5 13.7-2.3 20.5-3.8 3.5-.7 6.9-2 10.4-3.1zm.8-10.9c0 .6-.2 1 0 1.2 4.8 9.6 8.2 19.6 10 30.2.1.8 1.6 1.3 2.5 2 .5-1.1 1.5-2.3 1.3-3.2-.5-2.1-1.9-4.1-2.3-6.2-1.1-6.7-1.8-13.5-3-20.1-.3-1.3-2.2-2.6-3.7-3.3-1.3-.7-3-.4-4.8-.6zm-62.4 99.8c0-.3-.1-.5-.1-.8-2.1-1-4.5-1.7-6.4-2.9-1.6-1.1-2.8-2.8-4.1-4.3 1.7-.7 3.4-1.3 5.1-2 .2-.1.2-.5.3-.7-5.8-2.1-11.1 4.2-10.4 12.4 5.2-.6 10.4-1.1 15.6-1.7zm26.5 57.8.3.3h27v-1.8h-15c-.1-.2-.1-.4-.2-.6 1.3-.6 2.5-1.2 3.8-1.9l-.3-.9c-8.9.9-17.7 1.9-26.6 2.8 0 .5.1.9.1 1.4 6.8-.5 13.7-1 20.5-1.5v1.2c-3.2.3-6.4.6-9.6 1zm25.1-20.3c0 .5 0 1 .1 1.5 11.5 3.9 23.5 3 28.6-1.5h-28.7zm25.8-136.1c-.5 0-1 .1-1.5.1-2.2 3.6 2.2 28.6 5.6 30.3-1.4-10.3-2.7-20.3-4.1-30.4zm-33 4.2c5.3-.3 10.3-.6 15.3-.9.2-.5.4-1.1.6-1.6-1.4-1.2-2.7-3-4.3-3.3-5.1-1-9.6-.1-11.6 5.8zM360 310.9c0 .5.1.9.1 1.4l-.6-7.8c-3.4.8-5.7-5.4-9.5-2 3.6 2.9 6.8 5.7 10 8.4zm3.8 69.7c0-.3 0-.7.1-1-3.1-.6-6.1-1.2-9.2-1.8-1.4-.3-2.8-.5-4.2-.8-.3 1.7-.5 3.3-.7 4.8 5.1-.5 9.5-.8 14-1.2zm4.1 28.2c5.6 5.1 12.5 4.9 19.2 5.7.1-.4.2-.9.3-1.3-6.5-1.4-13-2.9-19.5-4.4zm91.9-24.9c-1.2-3.8-2.2-6.9-3.3-10.3-1.9 1.1-3.1 1.7-3.6 2 1 2.9 1.9 5.5 3 8.5.6 0 1.9-.1 3.9-.2zm-45.6 31c-2.4-1.5-3.6-1.5-4.4 1.4-.3 1.1-2.8 1.6-4.5 2.4 3.2 3.3 3.2 3.3 8.9-3.8zm-78.6-206.4c-6.4 3-7 4.7-4.4 9.6 1.5-3.4 3-6.5 4.4-9.6zm26.8 210.8c-1.8-6-4.2-7.1-9.8-4.9 3.4 1.7 6.1 3 9.8 4.9zm22.3-33.3v2h14.6v-1.2c-4.9-.2-9.8-.5-14.6-.8zm-72 27.8c0 .5.1 1 .1 1.5 4.5-.5 9.1-1 13.6-1.4-.1-.5-.1-1.1-.2-1.6-4.5.4-9 .9-13.5 1.5zM179.4 355.4c3.7 1.4 7.4 2.8 11.4 4.3 1-6.9-.8-11.8-4.8-16.3-1.6-1.9-2.4-4.5-3.5-6.9-2.8-6.3-3.4-13.7-9-18.8 5.8 2 9.9 5.9 11.9 12.4 9.6-4.8 18.5-10.8 29.3-6.8 3.6 1.4 6.5 4.3 9.8 6.6-.3.4-.6.9-1 1.3-1.7-1.1-3.3-2.3-5-3.4-8.7-5.3-17.1-3.2-25.7.7-3.8 1.7-6.5 3.7-5.4 8.3.2.7.3 1.5.7 2 2.4 2.9 10.6 4.1 14.1 2.7 7.1-2.8 14.3-5.3 21.4-7.9.2.4.4.8.6 1.1-1.6.8-3.1 1.7-4.8 2.4-6.9 2.6-13.9 5.1-20.7 7.9-1 .4-1.9 2.6-1.7 3.8.4 2.9 1.5 5.7 2.3 8.8 11.6.9 23.1.9 32.9-5.8-.5 4.8-1.3 9.2-1.4 13.5 0 1.4 1.4 3 2.4 4.3.9 1.2 2.3 2 3.3 3.2 2.8 3.6 2.1 5.8-1.7 7 1.4 9.4 7.7 17.5 5.7 28-1.3 7-.2 14.5-1.4 21.6-.7 4.4-3.3 8.6-5.7 12.5-1.4 2.4-3.9 4.2-6 6.2-4.1 3.9-11.2 4.9-15.7 2.1-.8-.5-1.8-1.6-1.7-2.2 1.2-5.3 2.8-10.5 3.9-15.8.4-2-.1-4.2-.1-6.8-6.6 2.7-11.9 5.2-17.4 7-15.3 5-20.5-1.3-28.8-11.4-.8-1-2.2-1.6-3.3-2.4-.5 1.3-1.5 2.6-1.5 3.9.2 4.4 1.1 8.8 1 13.2 0 3-1.4 6.1-1.8 9.1-.5 3.6-2.2 5.6-6.4 4.9.5 5.1-2.5 4.7-5.9 4.5-12-.8-22.7-4.8-33-10.8-8.3-4.8-14.8-11.4-19.3-19.6-4.4-8.3-8.4-16.8-11.7-25.5-1.5-3.9-1.4-8.8-.9-13.1.4-4.2 4-5.4 7.4-2.6 2.4 2 4.1 4.7 6 7.2 2 2.7 3.8 5.6 6.4 9.5 4-9.1 7.5-17.1 11.1-25.4-2-1.6-4.6-3.7-7.1-5.7-3.1-2.6-4.1-7.5-2.1-11.1 1.3-2.4 2.7-4.8 4.1-7.2-.4 1.7-.8 3.4-1.1 5.1-.5 3.1-1 6.3-1.5 9.4.7.1 1.4.3 2.1.4 1.1-4.8 2.1-9.6 3.2-14.6-1.1-.1-2-.1-2.9-.2 3.8-6.6 7.5-13.2 11.3-19.8.5.2 1 .4 1.4.6.3 1.1.7 2.3 1 3.4 2.3-9.1 7.4-16.6 11.6-24.6 3.2-6.1 7.1-11.9 10.7-17.8 1.1-1.8 2.1-3.6 3.1-5.4-1.4-1.9-2.7-3.5-4.4-5.8-2 3.3-3.8 6.3-5.8 9.2-.8 1.1-2.2 1.8-3.4 2.7-.7-1.4-2-2.7-2.1-4.2-.6-8.7 3.1-15.4 10.7-19.5 1.6-.9 3.8-.5 5.7-.8 1.6-.2 3.1-.5 4.7-.8 0-.5.1-1 .1-1.4-4.3-2.3-8.4-4.9-12.8-6.9-7.6-3.5-15.2-7-19.7-14.6-1.4-2.4-2.9-5.1-3-7.8-.3-5.5.3-11 .6-16.7-.4-.2-1-.6-1.5-.7-3.9-.3-7.1-1.5-8-5.8-1.1-5.5.4-10.6 4.8-13.8 1.8-1.3 5.3-.6 7.9-.1 2.4.5 3.2.1 3.8-2.3 3.3-11.2 6.9-17.8 15.6-26.4-.8 1.7-1.6 3.5-2.5 5.2-3.5 7-7.4 13.8-10.3 21-1.7 4.3-4 5.8-8.4 5.7-2.7-.1-6.2-1.7-7.9 2.6-2.2 5.6.2 10.6 6 11 3.1.2 3.5.3 2.7 3.8-1.1 4.9-.9 10.1-.8 15.2 0 2.4 1.3 3.9 4.2 3.1 6.1-1.8 12-3.8 16.9-8.1 1.4-1.3 2.5-2.9 3.7-4.3.8-1 1.5-2 2.3-3 .8 1 1.6 2 2.3 3 .4.6.6 1.3 1 2.1-9.3 4.7-18.4 9.4-28.7 14.6 5.2 3.7 9.9 7.5 15 10.5 5 3 10.6 4.9 15.8 7.8 1.7.9 4.9 1.5 3.6 5.2-.1.4 3 2.2 4.8 2.7 1.9.5 4.4-.5 6 .3 7.1 3.7 14.4 4.8 22.3 3.6 4.1-.6 8.3.1 12.5-.2 1.3-.1 3.4-1.3 3.5-2.2.8-5 4.6-6.7 8.5-8.1 13.5-4.7 21.8-14.7 28.6-26.5.5-.8 1-1.5 1.6-2.4-4.3-3.2-8.5-6.6-12.8-9.7-6.6-4.7-13.7-8.7-19.9-13.9-7.3-6-13.5-13.3-20.7-19.5-9.6-8.2-19.1-16.5-31.8-20.1-14.9-4.2-26.7-12.3-29.3-28.7-1-6.1.3-12.5.6-18.3 5.2-1.8 5.8 1.8 7 3.9 4.1 7 7.9 14.2 11.8 21.2.2.4.7.5 1.4 1.1 3.2-6.6 7.7-11.6 15.2-13.4 13.3-3.1 25.8-.2 38.6 3.4 7.5 2.2 13.8 6.2 20.5 9.7 1.4.8 2.6 2 3.9 3.1 2.1 1.9 3.7 4.3 7.2 1.8 2.1-1.5 6.3 1.5 5.6 4.7-1.4 6.5 3.2 9.9 6.2 13.8 6.5 8.5 11.2 17.8 14.3 27.9 1.4 4.6 2.7 9.5 2.9 14.2.2 8.3-3.9 15-10.1 20.4-1.2 1-3.7 1.8-5 1.3-3.6-1.5-4.9-.1-6.6 2.9-6.8 12-16.1 21.2-29.3 26.2-2.3.9-4.3 2.5-7.3 4.2 9.4 2.7 5.9 10.4 9.4 15.6-5.6.7-10.5.5-14.8 1.9-8.4 2.6-16.4 6.3-24.8 8.9-6 1.9-12.3 3-18.5 4.1-1.7.3-3.7-.7-5.4-1 .9-5.6 1.8-10.7 2.6-15.7-.4-.3-.8-.5-1.2-.8-4.1 6.3-8.6 12.4-12.4 18.9-4.8 8.4-9.1 17-13.2 25.7-1.3 2.8-1.8 6.1-2.3 9.2-.5 3.4 4.3 6.6 8.1 6 5.8-1 11.5-2.3 17.3-2.3 4.3 0 8.8 1.4 12.9 2.9 6.5 2.5 12.8 5.7 20.3 9.1-2.2 0-3.4.3-4.4-.1-4.9-1.8-9.9-3.6-14.6-5.9-9.1-4.5-18.5-4.6-28.2-2.3-8.4 2.1-8.7 3.1-7.3 12 .4 2.8-1 6.6-2.8 8.9-4.6 6-10.3 11.1-14.8 17.2-5 6.7-3.9 10.2 1.7 16.6 5.3 6 10.1 12.5 14.7 19.1 6.5 9.4 15.6 15.1 26.1 18.9 1.4.5 2.9 1 5.6 1.9 0-3.1.2-5.9 0-8.6-.5-5.4-2-9.8-6.1-14.2-5.2-5.5-8.6-12.8-12.3-19.5-3.7-6.6-6.8-13.4-10.2-20.2.5-.3.9-.6 1.4-1 1.1 1.7 2.4 3.4 3.4 5.3 4.4 8.3 8.5 16.7 13.1 24.9 2.1 3.8 4.7 7.4 7.4 10.8.7.8 3.1.8 4.4.4.8-.2 1.1-2.1 1.7-3.4 3.1-1.7 6.5-3.9 10.2-5.5 6.5-2.8 13.5-4.6 19.5-8.1 4.7-2.7 8.3-7.4 12.3-11.4.2-.2-.3-1.3-.5-2.2-1.6.9-2.9 1.6-4.5 2.5-4.2-6.9-4.2-14.5-3.9-22.9-1.8 1.2-2.9 1.9-4.1 2.6 0-.4.1-.7.1-1.1-2-.2-4.1-.4-6.1-.5-8.3-.4-16.7-.2-24.9-1.1-9-1-17.9-2.9-26.8-4.5-.5-.1-.9-.6-1.2-2 3.9.5 7.8 1 11.8 1.5 13.4 1.5 26.8 3 40.3 4.2 1.5.1 3-1.2 4.6-1.8-.2-.5-.4-.9-.5-1.4-5.9-.5-11.8-1-18.4-1.5 1.2-1.1 2-1.8 3.1-2.9-2.2-.5-4.1-.8-6-1.2 0-.3.1-.7.1-1 3.3.2 6.6.4 9.9.7l-.2.2zm18.9 48.7c-.6.4-1.5.7-1.8 1.2-3.1 4.8-6.1 9.8-9.2 14.6-.9 1.4-2.1 2.6-3.1 3.9-.3-.3-.7-.6-1-.9 2.9-4.5 5.8-8.9 8.7-13.4l-.6-.6c-3.7 3-7.5 5.9-11.2 8.9-.3-.4-.7-.9-1-1.3 5.7-4.3 11.4-8.6 17.1-13-7.8 2.3-15.2 4.9-22.5 7.5-6.4 2.2-6.9 3.8-2.9 9.3.3.4.3 1 .6 1.2 4.4 3 8.5 7.6 13.4 8.6 7.9 1.7 15.7-1.6 23.1-4.9.7-.3 1.6-.7 1.8-1.3 2.3-7 4.7-14 6.5-21.1 1-4.1 1.1-8.4 1.5-12.6.4.1.8.1 1.2.2.2 9.7-.8 19.1-5 28.1-.5 1.1-.3 2.4-.4 3.7 1.4-.1 2.9 0 4.1-.4 4.2-1.4 3.9-5.7 5.5-8.8 4.3-8.5 2.5-17.4 2.1-27-5.7 1.3-10.8 2.5-15.4 3.6-1.1 5.7-1.8 11.2-3.2 16.6-1.4 5.1-3.5 9.9-5.2 14.9-.5-.2-1-.3-1.5-.5 1.5-4.2 3.2-8.4 4.4-12.7 1.2-4.3 1.9-8.7 2.8-13-.4-.1-.7-.1-1.1-.2-1.6 3.1-3.2 6.2-4.7 9.3-.4-.2-.7-.4-1.1-.6.6-1.6 1.1-3.2 1.7-4.9-.4-.2-.9-.3-1.3-.5-.8 2.2-1.6 4.3-2.3 6.5v-.4zm66-187.6c-2.1-8.2-3.2-15.3-5.7-21.8-4.9-12.1-12.3-22.9-21.2-32.4-3.1-3.3-6.3-7-10.2-9-7.3-3.6-14-8.2-22.3-10.3-12.9-3.3-25.5-6.2-38.9-4-7.4 1.2-15.9 12.4-9.6 19.7 3.6 4.2 6.6 9 12.3 11 3.3 1.1 6.4 3 9.2 5.2 5 3.8 9.9 7.8 14.5 12.1 5.1 4.8 9.5 10.5 14.8 15 6 5 12.8 9 19.2 13.5 5.6 4 11.2 8 16.6 12.2 6.7 5.4 11.1 6.7 14 2.6 3.3-4.4 5.2-9.7 7.3-13.8zM152.4 451c.2-.7.4-1.3.6-2-1.4-.7-2.8-1.5-4.2-2.2-4.2-2-8.9-3.4-12.6-6.2-6.3-4.8-12-10.4-17.8-15.8-2.4-2.2-4.8-3.2-8-1.6-.7.3-2.6-.3-2.8-.8-1.7-4.6-4.1-9.3-4.3-14-.3-9.5-5.4-16.2-10.9-22.9-.7-.8-2.7-1.5-3.4-1.1-.9.5-1.7 2.3-1.6 3.4.3 4.1.7 8.2 1.7 12.1C91.8 410 97 419 103.5 427c4.1 5.1 9.4 9.4 14.8 13 4.7 3.2 10 5.5 15.4 7.2 6 1.9 12.4 2.6 18.7 3.8zm55.5-168.3c.2.4.3.8.5 1.2 3 .4 4.9-.7 4.5-4.1-.3-3-1.4-6.3-5.2-5.2-9.4 2.6-18.8 2.6-28.3 1.7-4.5-.4-9.1-.5-13.6-1-3-.3-4.8.4-5.4 3.8-.8 4.4-2.4 8.7-3.4 13-.9 3.9.6 5.5 4.5 4.8 8-1.3 15.7-3.4 23.3-6.7 7.3-3.1 15.3-5 23.1-7.5zM231 421c.3.5.5.9.8 1.4-2.1 1.6-4.1 4.3-6.3 4.6-6.3.8-8.9 4.3-9.4 10-.2 2.8-.2 5.7-.3 8.5 3.4-.6 6.8-.9 10.1-1.9 1.4-.4 2.7-2.1 3.4-3.6 3.9-8.6 8.5-17.1 8.2-26.9-.3-8-1.1-16.1-2-24-.6-5.5-2-6.2-6.9-5.1-.5 10.8-1 21.2-1.6 31.9-.1 0 1 0 2.6-.1-2.9 2.7-5.3 5-7.7 7.4.2.3.5.6.7.8l8.4-3zm-69.9 19.8c-5.7-2.2-11.4-4-16.6-6.6-9.3-4.6-15.1-12.9-21.1-20.9-3.5-4.6-6.8-9.3-10.5-13.7-.7-.8-2.8-.5-4.3-.6-.1 1.2-.7 2.7-.2 3.5 4.1 7 7.8 14.3 12.9 20.6 8.1 10 18.2 17.8 30.6 22.1 5.2 1.6 6.7 3.7 9.2-4.4zm73-63.7c.5-.2 1-.3 1.5-.5-.5-1.3-.6-3.2-1.4-3.7-4-2.2-6.6-5.1-6.4-9.3-8.3 1.6-16.2 3.2-25.4 5 2.5 5.5 4.8 11 7.6 16.4.5.9 2.9.8 4.4 1.2.3-1.4.8-2.8.8-4.2 0-1.3-.4-2.5-.6-3.8.4-.1.8-.3 1.2-.4.8 1.5 1.2 3.4 2.4 4.4 1.4 1.2 3.4 1.5 5.2 2.2-.1-1.4-.2-2.8-.4-4.2-.1-.8-.5-1.5-.9-2.5 3.8-.3 5.6 7.2 9.6 1.9-1-1.8-1.9-3.4-2.8-5 .3-.2.7-.5 1-.7 1.4 1.1 2.8 2.1 4.2 3.2zM158 166.5c-7.7-13.8-15.3-27.4-23.1-41.3-7.5 15.9 6.4 40.4 23.1 41.3zm-39.4 175.2c-4.7 5.3-3.6 11.4-3.9 18.1 5.2-3.1 2.3-8.4 4.9-11.5-.2 4.9 2.8 10.5-4.5 13.5-1.3.5-1.2 4.9-1.4 7.6 0 .5 1.4 1.1 2.2 1.7.6-.9 1.4-1.7 1.7-2.7.5-1.7.7-3.5 1-5.3.4 0 .8.1 1.2.1.1 2.3.2 4.5.3 7.6 3.1-3 5.5-5.5 8.6-8.6-4.9 0-6.4-2.1-6-5.8.3-3 .9-6 .8-9 0-1.3-1.2-2.6-2.1-3.7-.3-.8-1.4-1.1-2.8-2zm18.1-51.9c3.8-5.4 7-9.9 10.5-14.8l1.9 3.8h1.4c.1-2.6.2-5.3.3-7.9-2.4.4-5.3 0-7.2 1.2-6.1 3.7-7.6 9.8-6.9 17.7zm63.2 72.4c4.1 4.2 27.3.2 29.1-4.4-9.4 1.4-19.2 2.9-29.1 4.4zm-93.5 45.5c-.7.3-1.3.5-2 .8 1.2 3.5 2.4 7.1 3.5 10.6l1.8-.6c-1.1-3.5-2.2-7.2-3.3-10.8zm51.5-137.4c-.5.3-1 .5-1.4.8.2 1.7.5 3.3.7 5 1.4-.9 2.7-1.9 4.1-2.8-1.2-1-2.3-2-3.4-3zM126.2 353c-.5.1-1.1.2-1.6.3.4 2.3.9 4.6 1.3 6.9 3.6-3.1 1.5-5.1.3-7.2zM136.3 461.7c-14.7 2.3-29.4 4.5-44 6.8-.1-.4-.1-.9-.2-1.3 2.5-.5 5.1-1 7.6-1.5-.1-.6-.2-1.1-.3-1.7-6.7.9-13.3 1.9-20 2.8 4.7-3.5 10.2-3.6 15.7-4.1 6.6-.6 13.2-1.2 19.7-2 5.4-.6 10.8-1.6 16.2-2 1.7-.1 3.5 1.8 5.2 1.7 4.2 0 8.3-.6 12.5-1 6.4-.7 12.7-1.5 19.1-2.2.7-.1 1.5.6 2.3 1-.3.7-.7 1.4-1.4 2.9 5.6-.7 10.9-1.2 16.2-1.9 2.7-.4 5.4-.9 8-1.3.4-.1 1.2-.1 1.3.1 4.1 5.3 8.8.7 13.2.6 4 0 8-1.1 12.5-1.7-.5 1.4-.9 2.4-1.5 3.8 16-1.3 31.7-2.5 47.4-3.8l.3 1.8c-8.6 1.2-17.2 2.2-25.7 3.7-8.7 1.5-17.4 3.4-26.5 4.4.8-.5 1.6-1.1 2.4-1.6l-.3-.6c-3.9.6-7.8 1.2-11.7 1.9-4.9 1-9.7 2.1-14.6 3.1-.8.2-1.9-.1-2.5-.6-4.2-2.9-8.6-1.4-13-1-1.6.2-3.4.3-4.9 1-4.3 1.9-3.5-1-3.2-3.6-9 1.4-17.8 2.8-26.7 4.2-.1-.5-.2-1.1-.3-1.6 4.5-1 9-2.1 13.4-3.1-.1-.4-.1-.7-.2-1.1-13.9 2.1-27.8 4.2-41.7 6.4l-.3-1.8c8.6-1.8 17.3-3.6 25.9-5.4.3-.5.2-.9.1-1.3z"/>
  <path d="M355.8 393.1c-37.9-4.4-75.8-8.3-113.6-14.1.1-.8.2-1.5.3-2.3 37.9 4.7 75.7 9.4 113.6 14.1-.1.8-.2 1.5-.3 2.3zM238.1 369V252.6c.3-.2.6-.3.8-.5.5.7 1.5 1.5 1.5 2.2 0 8.6-.3 17.1-.3 25.7 0 5.9.4 11.8.4 17.7 0 4.2-.4 8.4-.3 12.6 0 7.6.4 15.2.3 22.7 0 5.4-.6 10.8-.6 16.2 0 4.6.5 9.2.6 13.8 0 2-.6 4-.9 6h-1.5zM470 126.5c.7 33.6-.1 67.1-.6 101-.4-1.8-1.2-3.5-1.2-5.3-.1-12.9-.1-25.7-.1-38.6v-53.3c0-1.3.2-2.5.3-3.8h1.6zM298.9 215.8v-97.7h1.4V216c-.5-.1-1-.1-1.4-.2zM521.3 334.6c0-10.2-.3-19.7.1-29.3.3-7.6 2-15.1 1.9-22.6-.1-8.1-1.7-16.2-2.4-24.3-.3-3.6-.1-7.3-.1-11.1 4 5.2 4.7 83 .5 87.3zM592.2 332.1c.6-30.7 1.1-61.3 1.7-92h1.6c.3 30.7-1.2 61.4-1.3 92.1-.7-.1-1.3-.1-2-.1zM275.6 319.1c2.5-27.4.3-54.8 1.1-82.6.4.8 1.1 1.6 1.1 2.4.2 6.9.4 13.8.4 20.6.1 11.9.1 23.9.2 35.8.1 8.2.8 16.2-2.8 23.8zM208.2 288c16.5 22.9 26.5 52.4 22 62.8-2.4-11.1-3.6-22.1-7.2-32.2-3.8-10.6-9.8-20.4-14.8-30.6zM574.7 243.7l1.5 78.2c-.2.2-.5.4-.7.6-.4-1.1-1.2-2.2-1.2-3.3-.4-16.8-.8-33.7-1.1-50.5-.1-6.9-.1-13.8 0-20.7 0-1.4.2-2.8.4-4.2.3-.1.7-.1 1.1-.1zM292.8 153.9c.3.6 1 1.2 1 1.8-.2 19-.5 37.9-.8 56.9-.1 5.8-.5 11.6-.9 17.3-.1 1.3-.8 2.5-1.9 3.5l1.5-79.3c.3 0 .7-.1 1.1-.2zM232.9 336.6v-78.4c1.7 8.3 1.1 16.7 1.2 25 .1 9 .1 18.1.1 27.1v26.2c-.5.1-.9.1-1.3.1zM260.5 362.4v-66.5h1.4v66.7c-.5-.1-.9-.1-1.4-.2zM178.8 314.7c6.1-6.2 12.2-9.2 19.6-11.2 5.9-1.7 9.1 1 13.2 3.3.3.1.2.8.5 2.1-12.2-5.4-21.4 2.9-33.3 5.8zM158.5 422.1c-9.4.9-30.8-37.8-29-52.5 6.2 19.3 11.8 39 29 52.5zM184.5 215.5c4.6 1 9.2 1.9 11.6-2.4 1.3-2.3 1.6-6.4.4-8.5-2.5-4.1-7-3.4-11.9-1 4.5-4.8 8.9-5.9 12.3-3.8 2.7 1.7 4.5 7.7 3.4 11.4-1.7 5.5-6.3 9.4-11.1 8.7-1.9-.2-5.3-.2-4.7-4.4zM291.3 245.4c.6 16.7 1.1 33.4 1.7 50.2-.7 0-1.3 0-2 .1-.5-16.7-1.1-33.4-1.6-50.2.6-.1 1.3-.1 1.9-.1zM319.6 299.5c-4.4-15.6.5-31.3-.3-47.4.5 1.2 1.4 2.4 1.4 3.6-.2 8.2-.6 16.5-.8 24.7-.1 5 .1 9.9.1 14.9-.2 1.4-.3 2.8-.4 4.2zM278.4 368.6c-2.8-14.5-4-29.1-2.7-43.9l4.2 43.8c-.5 0-1 .1-1.5.1zM600.1 298.4v-44.9h1.1v44.8c-.3.1-.7.1-1.1.1zM531.5 203v45.8c-.3-1.2-.7-2.1-.7-3-.1-5.7.1-11.3-.1-17-.2-6.1-.6-12.1-.9-18.2-.1-2.5 0-5.1 0-7.7.6.1 1.1.1 1.7.1zM584.5 207.4c.6 13.8 1.3 27.6 1.9 41.4-.6 0-1.2.1-1.8.1-.7-13.8-1.5-27.6-2.2-41.4.7 0 1.4-.1 2.1-.1zM585.7 250.8v41.7h-1.1v-41.8c.3.1.7.1 1.1.1zM142 167.8c-1.1-1-2.4-1.9-3.3-3.1-3.2-3.9-7-3.9-9.4.5-1.6 3-2.5 6.3-4 10.2-2.1-5.4.7-9.4 3.1-12.8 5-7.3 10.6-4.5 12.8 1.6.4 1 1.1 1.9 1.7 2.9-.4.2-.7.5-.9.7zM282.8 353.8c.7-11.7 1.4-23.7 2.1-35.6 3.2 8.2 1.7 31.1-2.1 35.6zM144.7 381.3c6.4 9.5 12.9 19 19.3 28.5-.5.3-1 .7-1.5 1-6.5-9.5-13-18.9-19.4-28.4.5-.4 1.1-.7 1.6-1.1zM600.2 251.1v-27.9h1.2c1.2 9.3 0 18.6.1 27.9h-1.3zM289.3 309c2.4 8 2.4 16.1 1.6 24.2-.5 0-1.1.1-1.6.1V309zM525 421.3c-1.5 1.3-2.1 2.2-2.6 2.1-8.3-.5-16.6-1.2-24.9-1.8 0-.5.1-1.1.1-1.6 8.7.5 17.4.9 27.4 1.3zM224.4 337.9c-6.8 5.8-14.2 10.6-23.6 10.8 7.9-3.6 15.7-7.2 23.6-10.8zM468.9 350.3c.9-7.3 1.7-14.6 2.6-21.9 2.2 7.5.6 14.8-.8 22.1-.6-.1-1.2-.2-1.8-.2zM482.4 207.5c-.3 4.3-.7 8.5-1 12.8-.3 4.2-.5 8.4-.7 12.8-2.8-3.8-1.4-23.5 1.7-25.6zM471.3 382.6c2.9 5 2.3 17-1 19.4.4-7 .7-13.2 1-19.4zM214 111.9v23.2c-3.5-7.6-.8-15.4-1.4-23.2h1.4zM130.4 210.8c.2-3.8.4-7.5.6-11.4 4.2 1.4 4.5 5.6 1 11.4h-1.6zM472.9 303.2v15.3c-2.8-3.8-2.3-13.6 0-15.3zM179.5 355.5c-1.6-.9-3-2.1-4.7-2.6-4.3-1.2-8.7-2.1-13-3.2.1-.5.3-1 .4-1.5 6.4 1.8 12.8 3.5 20.5 5.6-1.9.9-2.6 1.2-3.3 1.5 0 .1.1.2.1.2zM239.3 135.6c.4 5 .9 10 1.3 15-.6.1-1.2.1-1.8.2-.4-5-.8-10.1-1.3-15.1.7-.1 1.3-.1 1.8-.1zM223.1 284.4c-.4-4.4-.8-8.8-1.1-13.3.6-.1 1.2-.1 1.8-.2.5 4.4.9 8.8 1.4 13.2l-2.1.3zM192.5 121.1v-14.2c2.9 5 2.3 13.5 0 14.2zM520.5 245.7v-13.1h1.2v13.1h-1.2zM514.7 401.5v-10.7c3.1 3.6 1.4 7.1 1.7 10.4-.6.1-1.1.2-1.7.3zM196.2 290.9c1.3 3.5 2.6 7.1 4 10.6-.5.2-1 .4-1.4.6-1.4-3.5-2.9-6.9-4.3-10.4.5-.2 1.1-.5 1.7-.8zM218.6 141.2c.3-4 .5-8 .8-12.1h1.5c-.3 4-.6 8-.9 12.1-.4.1-.9.1-1.4 0zM520.5 230.1v-10.5c.4 0 .9 0 1.3-.1.2 3.5.3 7 .5 10.5-.5 0-1.2.1-1.8.1zM34.7 327.2c8.8-34.6 18.5-69 30.9-102.6-9.9 34.3-19.8 68.6-29.7 102.8-.4 0-.8-.1-1.2-.2zM46.7 259.4c6.4-20.3 12.9-40.6 19.3-60.9.5.2 1 .3 1.6.5-6.4 20.3-12.8 40.5-19.2 60.8-.6-.2-1.1-.3-1.7-.4zM64.8 341.2c.6-4.1.9-8.3 1.9-12.4 2-8.5 4.2-16.9 6.5-25.3.5-1.7 1.5-3.2 3.2-4.5-1.2 4.6-2.3 9.3-3.5 13.9-2 7.7-4.1 15.4-6.2 23.1-.5 1.7-1.3 3.4-1.9 5.1-.1 0 0 .1 0 .1zM76.9 253.1c-4.3 14.2-8.6 28.4-12.9 42.5-.5-.1-1-.3-1.6-.4 4.2-14.2 8.5-28.4 12.7-42.6.6.1 1.2.3 1.8.5zM51.2 342.2c3.6-14.8 7.1-29.6 10.7-44.5.5.1 1 .3 1.5.4-3.5 14.9-7 29.8-10.6 44.7-.4-.2-1-.4-1.6-.6zM66.3 81.9c-4.1 12-8.3 24-12.5 36.3-1.3-2.5 8.2-31.9 12.5-36.3zM71.5 246c-3.5 11.9-7 23.7-10.4 35.6-.5-.1-1-.3-1.5-.4l10.2-35.4c.6 0 1.2.1 1.7.2zM77 271.3c-.5 3.2-.9 6.5-1.7 9.6-1.9 7.6-4.1 15.1-6.2 22.6-.3 1.1-.9 2.1-2 3 2.5-12 5.3-23.8 9.9-35.2zM48.7 235.3c3.4-10.7 6.7-21.5 10.1-32.2.5.2 1 .3 1.4.5-3.3 10.8-6.6 21.5-9.9 32.3-.5-.2-1.1-.4-1.6-.6zM8.1 163.6c3.6-9.2 7.2-18.5 10.8-27.7.5.2.9.4 1.4.5-3.5 9.3-7 18.5-10.5 27.8-.5-.1-1.1-.4-1.7-.6zM26.8 224.4c3.4-10.1 6.7-20.2 10.1-30.3.5.1.9.3 1.4.4-3.3 10.1-6.5 20.2-9.8 30.4-.7-.2-1.2-.4-1.7-.5zM51.4 314.5c2-8.9 4.1-17.7 6.1-26.6.5.1 1 .2 1.6.3-1.9 8.9-3.9 17.8-5.8 26.7-.7-.2-1.3-.3-1.9-.4zM66.4 115c-3 8-5.9 16.1-8.9 24.1-.5-.2-1.1-.4-1.6-.6l9-24c.5.2 1 .3 1.5.5zM39.6 223.6c2.9-8.7 5.8-17.5 8.7-26.2.5.2 1 .3 1.5.5-2.9 8.7-5.8 17.4-8.8 26.1-.4-.2-.9-.3-1.4-.4zM11.3 277.5c2.3-7.8 4.7-15.7 7-23.5.5.1 1 .3 1.5.4-2.3 7.8-4.5 15.7-6.8 23.5-.6 0-1.2-.2-1.7-.4zM62.4 323.1c.4.9 1.3 2 1.1 2.8-1.6 5.9-3.3 11.8-5.1 17.7-.1.3-.6.6-1.9.5 2-7 4-13.9 6-20.9.1 0-.1-.1-.1-.1zM65.6 16.1c-2.6 6.3-5.1 12.5-7.7 18.8-.5-.2-1-.4-1.4-.6 2.5-6.3 4.9-12.5 7.4-18.8.6.2 1.1.4 1.7.6zM54 95.3c2.4-6.1 4.9-12.2 7.3-18.4.5.2.9.4 1.4.5-2.4 6.1-4.8 12.3-7.2 18.4-.5-.1-1-.3-1.5-.5zM45.5 325.1l-5.1 21c-.5-.1-1.1-.3-1.6-.4l5.4-21c.4.2.8.3 1.3.4zM73.8 220.7c-1.8 5.9-3.5 11.8-5.3 17.7-1.4-2.6.3-9.7 5.3-17.7zM42.6 128.4c1.9-5.5 3.8-11.1 5.6-16.6.8 6.3-3 16.1-5.6 16.6zM32.6 190.5c-2 6.3-4 12.6-6 18.8-.5-.2-1-.3-1.5-.5 2.1-6.4 4.2-12.7 6.3-19.1.4.3.8.5 1.2.8zM42 283.4c-1.4 5.4-2.8 10.7-4.3 16.1-.5-.1-1-.3-1.5-.4l4.2-16.2c.5.2 1 .4 1.6.5zM8.2 189.5c2-5.6 4-11.3 6-16.9.4.2.9.3 1.3.5-1.9 5.7-3.9 11.3-5.8 17-.5-.3-1-.4-1.5-.6z"/>
  <path d="M62.6 323.2c1-4.8 2-9.6 2.9-14.4.6.2 1.2.3 1.8.5-1.7 4.6-.2 10.1-5 13.8.1 0 .3.1.3.1zM22.9 309.7c-1.2 4.9-2.3 9.7-3.5 14.6-.6-.1-1.2-.3-1.7-.4 1.2-4.8 2.5-9.7 3.7-14.5.4 0 1 .1 1.5.3zM59.9 153.5c-1.6 4.8-3.2 9.5-4.9 14.3-.5-.2-1-.3-1.6-.5 1.6-4.7 3.3-9.4 4.9-14.1.6.1 1.1.2 1.6.3zM49.9 140.8c-1.8 5.2-3.6 10.4-5.5 15.6-.4-.1-.9-.3-1.3-.4 1.7-5.2 3.5-10.4 5.2-15.5.6.1 1.1.2 1.6.3zM64.2 187.8c1.5-5 3.1-10 4.6-15.1.5.2 1 .3 1.6.5-1.6 5-3.2 10.1-4.8 15.1-.5-.2-1-.3-1.4-.5zM51.3 67.8c0-1.6-.3-3.3.1-4.7 1.5-4.6 3.3-9.1 4.9-13.6.4.2.8.3 1.2.5-2.1 5.9-4.2 11.8-6.2 17.8-.1-.1 0 0 0 0zM30.8 281c-1.4 4.9-2.9 9.9-4.3 14.8-.5-.1-.9-.2-1.4-.4 1.3-4.9 2.6-9.9 4-14.8.5.1 1.1.2 1.7.4zM73 183c-1.5 4.7-2.9 9.4-4.4 14-.5-.1-.9-.3-1.4-.4 1.4-4.7 2.8-9.3 4.1-14 .6.1 1.2.3 1.7.4zM28.3 139.1c-1.9 4.7-3.9 9.3-5.8 14-.4-.2-.7-.3-1.1-.5 1.8-4.8 3.6-9.5 5.4-14.3.6.3 1 .6 1.5.8zM54.6 98.6c-1.5 4-3 7.9-4.6 11.9-.5-.2-.9-.3-1.4-.5 1.4-4 2.8-7.9 4.2-11.9.7.2 1.2.4 1.8.5zM58.3 276.1l-4.2 13.2c-.4-.1-.9-.3-1.3-.4 1.3-4.4 2.6-8.7 3.9-13.1.5.1 1.1.2 1.6.3zM66 137.5c-1.6 4.2-3.3 8.4-4.9 12.6-.4-.2-.9-.3-1.3-.5 1.5-4.3 3.1-8.5 4.6-12.8.6.2 1.1.5 1.6.7zM56.9 274c1.3-4.2 2.5-8.4 3.8-12.5.4.1.9.2 1.3.3-1.1 4.2-2.2 8.3-3.3 12.5l-1.8-.3zM14 252.3c-.9 3.7-1.8 7.3-2.7 11-.6-.1-1.1-.3-1.7-.4l3-10.8c.4.1.9.1 1.4.2zM35.8 308.9c-1 3.5-2 7.1-3 10.6-.5-.1-1-.2-1.4-.3.9-3.6 1.9-7.2 2.8-10.8.5.2 1 .3 1.6.5zM20.2 224.4c1.3-3.6 2.5-7.2 3.8-10.8.4.1.8.3 1.3.4-1.1 3.7-2.3 7.3-3.4 11-.6-.2-1.2-.4-1.7-.6zM31.5 341.3l3-12c.5.1 1 .3 1.5.4-1 4-2 8-3.1 12-.4-.2-.9-.3-1.4-.4zM46.9 186.3c1.3-3.7 2.6-7.5 3.8-11.2.5.2 1.1.4 1.6.6-1.4 3.7-2.8 7.5-4.3 11.2-.3-.2-.7-.4-1.1-.6zM617.1 161.5c3-5.4 6-1.3 8.8-1.6 2-.2 4-.2 6.8-.3 0 0 .9.7 1.8 1.6.8.9 2.2 2.2 2 2.9-.4 1.2-2 3-2.9 2.9-3.7-.5-8.1-.7-10.7-2.8-1.6-1.2-1.4-4.7-5.8-2.7zM608.4 161.5c.3 1.2.2 2.8.9 3.2 1 .6 2.5.2 4.5.3 0 .7.3 2.3-.4 3.4-.4.7-2.2 1.1-3.3 1-2.4-.2-4.8-.5-7-1.2-2.6-.8-4.5-2.2-1.5-5.3 3.2 4.2 4.7-.3 6.8-1.4zM641.9 162.4c1.9-1.3 2.7-2.3 3.2-2.1 4.3 1.2 8.5 2.5 12.7 4.1.7.3.9 1.9 1.4 2.8-.9.1-1.9.6-2.7.4-4.4-1.5-8.9-3.2-14.6-5.2zM595.3 168.6c-3.3 3.3-11.6 2.3-12.6-.5-.3-.8 1.4-3.2 1.7-3.1 3.4.9 6.7 2.2 10.9 3.6zM540.7 173.6c-5.1.9-10.9-1.5-11.5-4.6 10.9-1 9.6-.9 11.5 4.6zM575.2 168.1c-1.1 3.4-1.8 5.1-4.7 3.4-1.5-.9-3.6-.7-5.3-1.3-.9-.3-1.5-1.4-2.2-2.1.8-.7 1.7-2.1 2.4-2 3.2.3 6.3 1.1 9.8 2zM509.5 171.5c.5-1 1-1.9 1.3-2.6 4 1.2 7.8 2.4 11.6 3.5-.6 2.8-1.8 3.4-5.5 2.1-2.3-.8-4.6-1.8-7.4-3zM547.1 166.7c3.5 1.2 7 2.4 11 3.8-3.3 4.7-6.1 1.6-8.7.8-2.2-.6-4.1-1.7-2.3-4.6zM567.3 124.8c7.1-5.1 14.3-10.3 21.4-15.4.3.4.5.7.8 1.1-7.1 5.2-14.3 10.3-21.4 15.5-.3-.5-.5-.8-.8-1.2zM652 46.9c4.4-3.7 8.8-7.3 13.2-11 .3.3.6.6.8 1-4.3 3.8-8.7 7.5-13 11.3-.3-.5-.7-.9-1-1.3zM663.3 44.3c-1.9 1.4-3.8 2.9-5.7 4.3-1.9 1.5-3.8 3-5.6 4.5-.3-.4-.7-.8-1-1.3 3.8-2.9 7.6-5.8 11.3-8.8.4.5.7.9 1 1.3zM652.5 137c3.4-3 6.8-6 10.2-8.9.3.4.7.7 1 1.1-3.5 2.9-6.9 5.9-10.4 8.8-.3-.3-.6-.6-.8-1zM661.1 371.4c-4.5-.5-9-.9-13.4-1.4-8.5-.9-17-1.6-25.5-2.6-9-1-18-2.4-27.1-3.4-1.6-.2-3.2.2-4.9.4-1.8.3-4 1.6-5.4.9-5.8-2.6-11.9-2.9-17.9-3.7-5.4-.7-10.7-1.9-16-2.7-8.4-1.2-16.8-2.3-25.2-3.4-3.1-.4-6.1-.9-9.1-2.5 4.1.2 8.3.3 12.4.7 10.4 1.1 20.9 2.3 31.3 3.6 9.3 1.2 18.6 2.7 27.9 4 8.2 1.1 16.3 2.5 24.5 3.2 15.4 1.5 30.8 2.6 46.2 3.9.9.1 1.7.8 2.5 1.3-.1.6-.2 1.2-.3 1.7zM630 223c.3 3.5.7 7.1.9 10.6.5 6.7.3 13.5 1.5 20 .6 3.1 3.3 6.4 5.9 8.5 5.4 4.4 11.3 8 17 12-2.9 5.5-.4 10.1.4 14.8.7 4 1.8 7.9 2.7 11.8-.4.1-.9.3-1.3.4-1.3-4-2.8-8-3.7-12.1-.9-4.1-.3-8.6-1.9-12.3-1.5-3.4-4.7-6.2-7.6-8.8-2.2-2-5.1-3.2-7.7-4.8-5.3-3.4-6-8.6-6.3-14.3-.4-8.5-1.4-16.9-2.1-25.4.7-.3 1.5-.3 2.2-.4zM619.5 398.3V423h-.9v-24.7h.9zM590.9 402.8c.9 6.2 1.9 12.4 2.8 18.5l-1.5.3c-1.1-6.2-2.2-12.3-3.2-18.5.6-.1 1.3-.2 1.9-.3zM596.1 420.5l-.6-13.8c.6 0 1.1-.1 1.7-.1l.6 13.8c-.6 0-1.1.1-1.7.1zM584.3 407.8v10.6H583v-10.7c.5 0 .9 0 1.3.1zM560.8 429.3c1.8-9.7 3.6-19.3 5.3-28.7 0 .1.4.6.9 1.5.6-1.5 1.2-2.8 1.7-4 .3.1.7.2 1 .3-2.6 10.4-5.1 20.7-7.7 31.1-.4-.1-.8-.2-1.2-.2zM548.8 467.2V449c1.1 1.1 2.5 1.8 2.8 2.8.6 2-1.1 4.7 1.9 6.1.1.1.1.8.1.8-4 1.3-1.4 6.4-4.8 8.5zM559.7 428c-1.8 8.5-3.7 17-5.5 25.5-.5-.1-.9-.1-1.4-.2 1.5-8.6 3-17.1 4.6-25.7.8.1 1.6.3 2.3.4zM551.5 448.3c-5-4.6 1.3-8.6-.7-13.2.5 0 .9 0 1.4.1-.2 4.3-.4 8.7-.7 13.1z"/>
  <path d="M336.1 197.7c1.9-1.4 3.4-2.4 4.9-3.5-.2-.3-.4-.6-.5-1-1.4.6-2.8 1.1-5 2v-10c6.2 7.4 13 11.9 22.3 12.2.9 0 2.2.3 2.7-.2 4.8-4.4 9.2-1.5 13.7.6 2.6 1.2 4.8 1 7.5-.7 2-1.3 5.3-.8 7.9-1.4 2-.4 4.7-.7 5.8-2 .8-1.1.2-4-.7-5.6-1.6-3-3.9-5.7-5.9-8.5-.4.2-.7.3-1.1.5 1 1.9 2 3.7 2.9 5.7 1 2.2 1.8 4.5 2.6 6.8-2.7.1-5.4.4-8.1.2-4.6-.4-6.5-4.5-9.2-7.4-1.7-1.9-3.5-3.7-5.6-5.9-1.6 4.2 1 5.9 2.9 7.9 1.7 1.7 3.7 3.2 5.3 5 .6.7.5 2.1.8 3.2-1 0-2.1.2-3 0-8-1.8-13.2-7.7-19.2-12.6-1.8-1.5-3.8-2.6-5.7-3.9-.4.5-.7 1-1.1 1.6 4.3 4 8.7 8.1 13.2 12.3-6.9 3.3-18.9 0-22.3-5.8-2.7-4.6-3.1-8.5 3.9-11.3.9-.4 1.7-.9 2.4-1.7-9.1 0-12.1 4.5-15.3 21.6-8.1-.9-14.7-5.7-16-11.9-1.5-7.2 3.4-14.4 13.5-16.3 2.2-.4 4.5-.9 6.7-.8 2 .1 4 .9 6 1.4l.6-1.2-6-3.6c.1-.4.1-.8.2-1.2 3.9.7 7.9 1.4 11.8 2.3 2.1.5 4.3 2.9 6.7-.7-2.1-1.4-4-2.6-7.1-4.7 5.3.8 9.3 1.4 13.3 2 .1-.4.2-.8.2-1.2-.8-.6-1.5-1.3-2.7-2.2 2.8-1.2 5.3-2.3 8.8-3.8-1.8-.7-2.7-1-4.6-1.8 4.9-1.6 9.7-2 13.1-4.4 6.3-4.5 12.9-1.4 20.5-2-5.6-4.3-11.3-1.6-16.8-2.8 9.1-5.8 23.2-4.3 34.4 7.7-1.5-1.9-2.8-3.9-4.5-5.7-1.8-1.9-3.9-3.6-5.5-5.7 7.1 1.1 10.1 6.9 13.8 12.2 4.1-2.7 7.7-2.7 12.5-1.3 5.4 1.5 8.1 5.2 12.7 9.1-.9-2.9-1.5-4.7-2.1-6.6.5-.2.9-.4 1.4-.6 1.3 2.9 2.3 5.9 3.9 8.6 2.7 4.5-1.4 5.7-4 7.8 6.7 5.8 6.4 13.3 4.6 20.2-1.7 6.5-.8 14.5-8.5 18.6.3.4.7.8 1 1.1 1.8-.8 3.7-1.5 5.4-2.4 2.1-1 6.3 3.1 6 6-.2 2.7-.6 5.4-.8 8.1-.4 4-5.6 8.5-9.3 7.5-1.7-.5-3.1-2.3-4.9-3.7 2.7 15-5 24.4-15.7 32.3-7.4 5.5-15.9 6.8-24.8 7.7-15.5 1.6-29.9-2.4-43.4-8.9-6.8-3.2-12.7-9.1-18.1-14.7-5-5.2-4-12-1.6-18.3 1.7-4.4 4.1-8.5 5.8-12.9.6-1.5.2-3.6-.3-5.3-.5-1.9-1.5-3.8-2.3-6zm22.9 29.1c1.3 2.7 2.2 4.7 3.2 6.7 1.5 2.9 2.4 6.4 4.7 8.5 4.9 4.5 11.4 5.1 17.6 4.6 11.5-.9 20-9 18.5-22.7-14.7 2.6-29.8.2-44 2.9zm67.7-44.3c-.2 5.7-1.7 11.6 4.9 14.8 1.2.6 2.2 1.7 3.3 2.6.8-1.7 2-3.3 2.4-5 .4-1.5-.1-3.2-.2-6.1-1.7 2.6-2.8 4.2-3.9 5.8-.4 0-.9 0-1.3-.1-.4-4.2-.8-8.5-1.3-14-1 2-1.3 2.7-1.7 3.5-.7-.5-1.4-1-2.2-1.5zm-48.3 25.6c-2.9-2.2-5.7-2.9-7.5.6-1.1 2.1 1.6 7 4.7 7.7 1.2.3 2.8-1.1 4.2-1.7-5.8-1.3-6.1-1.5-6.1-5.9 1.5-.3 3.1-.5 4.7-.7zm9.7-3.2c-3.3.7-3.7 2.8-2.2 5.3.5.9 2.8 1.8 3.2 1.5 3.1-2.6.7-4.7-1-6.8zm-25.5 8.9c3.1-3.5 3.1-5.4.2-7.8-3.5 3.2-3.5 4.3-.2 7.8zm56.6-32.1c.4-.1.9-.2 1.3-.3.2-6.7-1.3-11.1-4.3-11.1l3 11.4zM483.9 257.9c4.6 1.2 6.3 3.4 4.5 7.7-.4.9.4 2.2.6 3.3.7-.8 1.7-1.5 2.1-2.4 1.5-3.2.4-7.8 5.3-9.5 5.4 5.1-2.8 9.5-.4 15.1 1.9-2.6 3.5-4.9 5.3-7 1-1.1 2.3-1.9 3.7-2.4.6-.2 2.4 1.1 2.4 1.5-.2 1.5-.7 3.2-1.6 4.4-2.9 3.7-6 7.2-9.6 11.6 5.2-1.3 9.4-2.3 14.1-3.4.1 2.4.2 3.9.3 5.5-6.5 2.4-12.9 4.8-19.9 7.4 2 2.7 3.5 4.2 4.4 6 .7 1.5.7 3.4.9 5.2-2.4-.2-5 .1-7.2-.9-1.3-.6-2.4-2.8-2.7-4.5-.7-4.3-3.8-3.4-6.3-3.2-6.1.6-12.2 1.9-18.3 2.3-6.2.4-5.8.1-6.3-6.4-.4-4.4-1.8-8.8-3.5-12.9-1.4-3.5-.5-4.9 2.9-5.1 8.5-.4 17-.6 25.5-1 2.7-.1 6 .3 4.1-4.5-.9-2-.3-4.4-.3-6.8zM320.9 352.1c1.5-3.6 3.1-7.2 4.7-10.8-.3-.2-.7-.4-1-.6l-5.4 7.8c-.3 0-.6.1-1 .1 0-1.8-.7-3.9.1-5.2 2.1-3.2 4.8-5.9 7.2-8.8 2.5-2.9 5.3-5.6 7.7-8.7 3.7-5 7.1-10.2 10.7-15.3.5-.7 1.4-1.1 2.2-1.7 4.4 3.1 8.6 6.2 12.9 9.2-.2 3.8.5 8.1-.9 11.7-1.7 4.3-5 8.1-8.1 11.7-2.1 2.4-4.3 4.4-2.4 7.9.4.7.5 2.3.1 2.6-1.6 1.2-3.5 2-5.3 3-.5-1.5-1.4-2.9-1.5-4.4 0-2 2.6-4.8-.7-5.7-1.9-.5-4.5.9-6.5 2-1.2.7-1.8 2.4-2.5 3.7-3.4 5.6-4.7 5.9-10.3 1.5zM491.5 424.2c-7.2 5.5-15.5 7.4-24.5 8.1-12.8 1-24.2-3.7-36-6.9-4.2-1.1-8.6-1.6-12.9-2.5-.9-.2-1.8-.9-2.7-1.4.5-.8 1-1.7 1.4-2.5 3-6.3 8.4-2.2 13-3.7-.2 1.7-.3 2.6-.4 3.1 5.8-2 11.7-3.9 17.5-5.9.2.5.5 1 .7 1.5-2.6 2-5.3 4.1-8.5 6.5 5.2 1.6 8.8-.5 12.3-2.7 3.3-2.1 6.7-4.1 10.1-6.1.4.5.7 1.1 1.1 1.6-4.9 3.3-9.9 6.6-15.4 10.3 5.2 2.8 8.9-.9 10.8-3 5.8-6.8 12-7 19.7-4.3 5.2 1.8 11.1 2 13.8 7.9zM325.8 417.3c2.1-.7 4.1-1.8 6.2-2.1 4.3-.7 8.7-1.5 13-1.2 2.8.2 5.8 1.8 8.2 3.4 5.8 3.8 11.3 4.1 16.9.5 1.3-.8 3.1-1 4.6-1 7.4 0 14.9 0 22.3.4 2.2.1 4.4 1.4 6.6 2.1-.1.5-.3 1-.4 1.5-4.8.5-9.7.9-14.5 1.4-9.8 1-19.8 1.1-29.4 3.2-10 2.2-18.9-.6-28.1-2.9-2-.5-3.7-2.3-5.6-3.5.1-.8.2-1.3.2-1.8zM393.4 412c-11.8-3.4-22.4-6.6-33.3-9.8.7-4.1 1.3-7.9 2-12.2 2.3.1 4.4.1 6.5.3 7.4.7 14.8 1.6 22.2 2.1 2.5.2 3.3.5 2.9 3.4-.7 4.8-.3 9.8-.3 16.2zM363 307.9c-.2-8.2 2.7-7.4 9-6 10.9 2.5 21.6 4.4 32.8 1.5 8.4-2.2 16.9-3.7 25.4-5.6 4.2-.9 7 .9 7.4 5.2.1.8-1.1 2.4-1.8 2.5-6.5.9-13.1 1.5-19.6 2.3-4.8.6-9.6 1.7-14.4 2-6.3.5-12.6.9-18.9.6-6.6-.3-13.1-1.6-19.9-2.5zM445.5 327.4c.1.1.3.2.3.3 2.1 7.9 2.1 7.9-7.7 9.5-5.9 1-11.9 2-17.8 2.8-14.4 1.9-28.9 3.6-43.4 1.9-5.8-.7-11.5-2.6-17.7-4l1.6-4.8c10.9 3.8 21.7 6.3 32.9 5 10.7-1.2 21.4-3.7 32-5.7 5.4-1 10.7-2.2 16.1-3.4 1.3-.3 2.5-1.1 3.7-1.6zM418.5 403.4c-2.5-14-1.8-11.4 8.1-11.8 6.9-.3 13.8-1.2 20.8-1.6 1.1-.1 2.8 1.1 3.3 2.1 1.1 2.6 1.4 5.6 2.5 8.2 1.6 3.8-.4 4.3-3.3 4.2-10.4-.4-20.9-.8-31.4-1.1z" fill="#fff"/>
  <path d="M442.9 318.5c.5 2.2 1 4.5 1.6 7.3-11-1.8-20.4 1.4-29.9 3.5-17.1 3.7-34 3.4-51-.2-3.3-.7-3.6-1.8-1.8-5.8 6.2 1.1 12.3 2.3 18.6 3.3 3 .5 6.1.7 9.1.5 12.5-.5 24.7-3.3 37-5.7 5.2-1 10.5-1.9 16.4-2.9zM433.6 292.7c-1.7.5-3.1 1-4.5 1.3-5 1-10 2.1-15 2.8-9.4 1.4-18.7 4.2-28.4 2.4-6.2-1.1-12.5-1.6-18.8-2.7-1.6-.3-4.3-1.2-4.4-2.2-.5-2.8 0-5.7.2-9.3 6.8 3.2 12.1 6.2 17.7 8.1 10 3.4 19.9 1.9 29.8-1.3 6.6-2.1 13.2-4.1 20.3-6.3.8 1.7 1.8 4.2 3.1 7.2zM441.3 313.1c-10.3 2.2-20.1 4.3-30 6.3-3.1.6-6.3 1.2-9.5 1.3-12.3.4-24.6 1.4-36.7-1.6-.7-.2-1.5-.3-2.2-.6-.5-.2-1-.7-1.4-1 .2-4.9 2.4-5.2 6.7-4.1 9.2 2.4 18.5 3.8 28.1 2.3 11.1-1.7 22.3-2.7 33.4-4.2 2.2-.3 4.4-1.2 6.6-1.9 4.2-1.4 4.8-1 5 3.5zM452.4 355.2c-2.4.2-4.9.4-7.3.5-7 .3-14 .4-21 1.1-5.8.6-11.5 1.8-17.2 2.8-6 1.1-11.7 2-17.9.3-6.8-1.8-14.1-2-21.1-3-2.7-.4-5.4-1-7.9-2-.9-.3-1.4-1.9-2.1-2.9 1.1-.4 2.3-1.3 3.3-1.1 4 .9 8 2 11.9 3.2 10.7 3.3 21.6 1.7 32.4 1.5 8.7-.2 17.4-1.9 26.1-2.9 5.9-.7 11.8-1.8 17.7-2.2 1.3-.1 2.7 2.1 4 3.3-.4.4-.6.9-.9 1.4z" fill="#fff"/>
  <path d="M450.1 345.8c-13.2 1.5-26 2.8-38.8 4.4-16.8 2.2-33.4.6-49.8-2.7-1-.2-1.8-1.5-2.7-2.3 1.2-.6 2.5-1.8 3.5-1.6 5.1.9 10.1 2.2 15.1 3.3 11.2 2.5 22.3 1.2 33.4-.5 9.6-1.4 19.1-3.2 28.6-4.9 1-.2 2-.5 3-.9 5-1.9 6-1.4 7.7 5.2zM416.6 409.6h-20.7v-17.1c5.3 0 10.4-.1 15.4.1 1 0 2.6 1.1 2.7 1.9 1.1 5 1.8 10 2.6 15.1zm-18.4-13.8c-.1.8-.2 1.7-.2 2.5 4.8.5 9.5 1.1 14.3 1.6l.3-2.1c-4.8-.7-9.6-1.4-14.4-2zM408.6 267.6c3 5.7 1.5 8.7-7.8 12.1-6.1 2.2-12.7 1.3-18.8-1.2-1.6-.7-4.5-1.2-3.1-3.8.7-1.3 2.8-2.2 4.5-2.5 6.5-1.1 13.1-1.9 19.7-2.9 1.8-.4 3.5-1.1 5.5-1.7z" fill="#fff"/>
  <path d="M429.3 281.5c-3.5 1.1-6.9 2.4-10.4 3.2-6.8 1.5-13.6 3.3-20.5 3.8-6.5.5-13.1-.2-19.6-1-3.8-.5-7.5-2.2-11.1-3.9 3.1-3.1 6.2-1 9.1-.4 5.3 1.1 10.5 2.2 15.7 3.6 4.6 1.2 8.2-1 11.6-3.4 3.1-2.2 6.2-2.2 9.9-1.8 3.7.4 7.6-1 11.5-1.6 1.1-.2 2.3-.3 3.4-.5.1.6.3 1.3.4 2zM430.1 270.6c1.8.1 3.5-.1 4.8.5 1.5.7 3.4 2 3.7 3.3 1.3 6.7 1.9 13.4 3 20.1.4 2.1 1.8 4.1 2.3 6.2.2.9-.9 2.1-1.3 3.2-.9-.7-2.4-1.2-2.5-2-1.8-10.6-5.2-20.6-10-30.2-.2-.1-.1-.5 0-1.1zM367.7 370.4c-5.2.6-10.4 1.1-15.7 1.7-.7-8.2 4.6-14.5 10.4-12.4-.1.2-.1.7-.3.7-1.7.7-3.4 1.4-5.1 2 1.4 1.4 2.5 3.2 4.1 4.3 1.9 1.3 4.2 2 6.4 2.9.1.3.2.6.2.8zM394.2 428.2c3.2-.3 6.4-.7 9.7-1V426c-6.8.5-13.7 1-20.5 1.5 0-.5-.1-.9-.1-1.4 8.9-.9 17.7-1.9 26.6-2.8l.3.9c-1.3.6-2.5 1.2-3.8 1.9.1.2.1.4.2.6h15v1.8h-27c-.2-.1-.3-.2-.4-.3zM419.3 407.9h28.6c-5.1 4.5-17.1 5.4-28.6 1.5v-1.5zM445.1 271.8c1.4 10.1 2.7 20.1 4.1 30.4-3.4-1.7-7.8-26.7-5.6-30.3.5 0 1-.1 1.5-.1zM412.1 276c2-5.9 6.5-6.9 11.6-5.9 1.6.3 2.9 2.2 4.3 3.3-.2.5-.4 1.1-.6 1.6-5 .4-9.9.7-15.3 1zM360 310.9c-3.2-2.7-6.5-5.5-10-8.4 3.8-3.4 6.2 2.8 9.5 2l.6 7.8c0-.5 0-.9-.1-1.4zM363.8 380.6c-4.4.4-8.9.8-14.1 1.2.2-1.5.5-3.1.7-4.8 1.4.3 2.8.5 4.2.8 3.1.6 6.1 1.2 9.2 1.8v1zM367.9 408.8c6.5 1.5 13 3 19.5 4.4-.1.4-.2.9-.3 1.3-6.7-.7-13.6-.6-19.2-5.7zM459.8 383.9c-2 .1-3.3.1-3.9.2-1-3-1.9-5.5-3-8.5.5-.3 1.6-.9 3.6-2 1.1 3.5 2.1 6.5 3.3 10.3zM414.2 414.9c-5.7 7.1-5.7 7.1-8.8 3.8 1.6-.8 4.2-1.3 4.5-2.4.7-2.9 1.8-2.9 4.3-1.4zM335.6 208.5c-1.4 3.1-2.9 6.2-4.4 9.6-2.6-4.9-2-6.6 4.4-9.6zM362.4 419.3l-9.8-4.9c5.7-2.2 8.1-1 9.8 4.9zM384.7 386c4.8.3 9.7.6 14.5.8v1.2h-14.6c0-.7.1-1.3.1-2zM312.7 413.8c4.5-.5 9-1 13.5-1.6.1.5.1 1.1.2 1.6-4.5.5-9.1 1-13.6 1.4-.1-.5-.1-.9-.1-1.4zM264.3 216.5c-2.1 4.2-4.1 9.4-7.2 13.9-2.9 4.1-7.3 2.7-14-2.6-5.4-4.3-11-8.3-16.6-12.2-6.4-4.5-13.2-8.6-19.2-13.5-5.4-4.5-9.7-10.2-14.8-15-4.6-4.3-9.5-8.3-14.5-12.1-2.8-2.1-6-4-9.2-5.2-5.8-2-8.7-6.8-12.3-11-6.3-7.3 2.3-18.5 9.6-19.7 13.4-2.1 26 .7 38.9 4 8.3 2.1 15 6.7 22.3 10.3 3.9 1.9 7.2 5.7 10.2 9 8.9 9.6 16.3 20.3 21.2 32.4 2.5 6.4 3.5 13.5 5.6 21.7zM222 195.1c-.3.4-.6.8-.9 1.3l27.9 21 .9-1.2c-9.3-7.1-18.6-14.1-27.9-21.1zm33.4 31.8c-.1-1.6.2-3.1-.3-3.6-3.6-3.2-8.2-4.6-9.5-3.4 3 2.1 6 4.3 9.8 7zM198.2 404.2c.8-2.2 1.6-4.3 2.3-6.5.4.2.9.3 1.3.5-.6 1.6-1.1 3.2-1.7 4.9.4.2.7.4 1.1.6 1.6-3.1 3.2-6.2 4.7-9.3.4.1.7.1 1.1.2-.9 4.3-1.6 8.7-2.8 13-1.2 4.3-2.9 8.5-4.4 12.7.5.2 1 .3 1.5.5 1.8-5 3.9-9.8 5.2-14.9 1.4-5.4 2.1-10.9 3.2-16.6 4.7-1.1 9.7-2.3 15.4-3.6.4 9.5 2.2 18.4-2.1 27-1.6 3.1-1.3 7.5-5.5 8.8-1.3.4-2.8.3-4.1.4.1-1.2-.1-2.6.4-3.7 4.2-9 5.2-18.4 5-28.1-.4-.1-.8-.1-1.2-.2-.5 4.2-.5 8.5-1.5 12.6-1.8 7.1-4.3 14.1-6.5 21.1-.2.6-1.1 1-1.8 1.3-7.4 3.3-15.2 6.6-23.1 4.9-4.9-1.1-9-5.6-13.4-8.6-.3-.2-.3-.9-.6-1.2-4-5.5-3.5-7 2.9-9.3 7.3-2.6 14.6-5.1 22.5-7.5-5.7 4.3-11.4 8.6-17.1 13 .3.4.7.9 1 1.3 3.7-3 7.5-5.9 11.2-8.9l.6.6c-2.9 4.5-5.8 8.9-8.7 13.4.3.3.7.6 1 .9 1.1-1.3 2.3-2.5 3.1-3.9 3.1-4.8 6.1-9.8 9.2-14.6.4-.6 1.2-.8 1.8-1.2-2.2 5.2-4.5 10.3-6.7 15.5.3.2.7.3 1 .5 2.4-4.4 4.8-8.7 7-13.1.3-.3-.8-1.6-1.3-2.5zM152.4 451c-6.3-1.2-12.7-1.9-18.7-3.8-5.4-1.7-10.8-4.1-15.4-7.2-5.4-3.7-10.7-8-14.8-13-6.5-8-11.6-17-14.4-27.1-1.1-3.9-1.4-8-1.7-12.1-.1-1.1.7-2.9 1.6-3.4.8-.4 2.8.3 3.4 1.1 5.5 6.7 10.6 13.4 10.9 22.9.2 4.7 2.6 9.4 4.3 14 .2.6 2.1 1.2 2.8.8 3.2-1.6 5.6-.6 8 1.6 5.8 5.4 11.5 11 17.8 15.8 3.6 2.8 8.4 4.1 12.6 6.2 1.4.7 2.8 1.5 4.2 2.2-.3.7-.4 1.3-.6 2zM207.9 282.7c-7.8 2.5-15.8 4.4-23.3 7.6-7.6 3.3-15.3 5.4-23.3 6.7-3.9.7-5.4-1-4.5-4.8 1-4.4 2.6-8.6 3.4-13 .6-3.4 2.5-4 5.4-3.8 4.5.4 9.1.5 13.6 1 9.5.9 18.9.8 28.3-1.7 3.8-1 4.9 2.2 5.2 5.2.4 3.4-1.5 4.5-4.5 4.1 0-.5-.1-.9-.3-1.3z" fill="#fff"/>
  <path d="M231 421c-2.8 1-5.6 2-8.5 2.9-.2-.3-.5-.6-.7-.8 2.4-2.3 4.8-4.6 7.7-7.4-1.6.1-2.7.1-2.6.1.5-10.6 1-21.1 1.6-31.9 5-1.1 6.3-.4 6.9 5.1.9 8 1.7 16 2 24 .3 9.8-4.3 18.3-8.2 26.9-.6 1.4-2 3.1-3.4 3.6-3.2 1-6.7 1.3-10.1 1.9.1-2.8.1-5.7.3-8.5.5-5.7 3.1-9.3 9.4-10 2.3-.3 4.2-3 6.3-4.6-.1-.4-.4-.8-.7-1.3zM161.1 440.8c-2.5 8.1-4 6-9.2 4.2-12.4-4.3-22.5-12.1-30.6-22.1-5.1-6.2-8.8-13.6-12.9-20.6-.5-.8.1-2.3.2-3.5 1.5.2 3.6-.2 4.3.6 3.7 4.4 7 9.1 10.5 13.7 6 8 11.8 16.3 21.1 20.9 5.2 2.8 10.9 4.6 16.6 6.8zM234.1 377.1c-1.4-1.1-2.8-2.1-4.2-3.2-.3.2-.7.5-1 .7.9 1.6 1.8 3.3 2.8 5-4.1 5.4-5.9-2.2-9.6-1.9.4 1 .8 1.7.9 2.5.2 1.4.3 2.8.4 4.2-1.8-.7-3.8-1-5.2-2.2-1.2-1-1.6-2.9-2.4-4.4-.4.1-.8.3-1.2.4.2 1.3.6 2.6.6 3.8-.1 1.4-.5 2.8-.8 4.2-1.5-.4-4-.3-4.4-1.2-2.8-5.3-5.2-10.9-7.6-16.4 9.2-1.8 17.2-3.4 25.4-5-.2 4.3 2.4 7.2 6.4 9.3.9.5 1 2.4 1.4 3.7-.6.2-1 .3-1.5.5zM158 166.5c-16.7-1-30.6-25.5-23.1-41.3 7.8 13.9 15.4 27.5 23.1 41.3zM118.6 341.7c1.4.9 2.5 1.2 3 1.9.9 1.1 2.1 2.5 2.1 3.7.1 3-.5 6-.8 9-.4 3.8 1.2 5.9 6 5.8-3.1 3.1-5.6 5.5-8.6 8.6-.1-3.1-.2-5.4-.3-7.6-.4 0-.8-.1-1.2-.1-.3 1.8-.5 3.6-1 5.3-.3 1-1.1 1.8-1.7 2.7-.8-.6-2.3-1.2-2.2-1.7.2-2.6.1-7 1.4-7.6 7.3-3 4.3-8.6 4.5-13.5-2.6 3.1.3 8.4-4.9 11.5.1-6.6-1-12.7 3.7-18zM136.7 289.8c-.6-8 .8-14 6.8-17.8 1.9-1.2 4.8-.9 7.2-1.2-.1 2.6-.2 5.3-.3 7.9H149c-.5-1-1-1.9-1.9-3.8-3.5 5.1-6.7 9.6-10.4 14.9zM199.9 362.2c9.9-1.5 19.7-3 29.1-4.4-1.9 4.6-25 8.6-29.1 4.4zM110.3 350.1c.9.1 1.8.1 2.9.2-1.1 5-2.2 9.8-3.2 14.6-.7-.1-1.4-.3-2.1-.4.5-3.1 1-6.3 1.5-9.4.3-1.7.7-3.4 1.1-5.1l-.2.1zM106.4 407.7c1.1 3.6 2.2 7.2 3.3 10.9l-1.8.6c-1.2-3.5-2.4-7.1-3.5-10.6.7-.3 1.3-.6 2-.9zM157.9 270.3c1.1 1 2.3 2 3.4 3-1.4.9-2.7 1.9-4.1 2.8-.2-1.7-.5-3.3-.7-5 .4-.2.9-.5 1.4-.8z" fill="#fff"/>
  <path d="M126.2 353c1.2 2.1 3.4 4.1-.3 7.2-.4-2.3-.9-4.6-1.3-6.9.5-.1 1.1-.2 1.6-.3z" fill="#fff"/>
  <path d="M359 226.8c14.3-2.7 29.3-.2 44-2.9 1.5 13.7-7 21.8-18.5 22.7-6.2.5-12.7-.1-17.6-4.6-2.3-2.1-3.2-5.6-4.7-8.5-1-2-1.9-4-3.2-6.7zM426.7 182.5c.8.5 1.4 1 2.2 1.5.4-.8.7-1.5 1.7-3.5.5 5.5.9 9.8 1.3 14 .4 0 .9 0 1.3.1 1.1-1.6 2.1-3.2 3.9-5.8.2 2.9.6 4.6.2 6.1-.4 1.8-1.6 3.4-2.4 5-1.1-.9-2.1-2-3.3-2.6-6.5-3.2-5-9.1-4.9-14.8zM378.4 208.1c-1.6.2-3.2.5-4.7.7 0 4.4.3 4.6 6.1 5.9-1.4.6-3 2-4.2 1.7-3.1-.7-5.9-5.6-4.7-7.7 1.8-3.5 4.6-2.8 7.5-.6zM388.1 204.9c1.8 2.1 4.1 4.2 1 6.8-.4.4-2.7-.6-3.2-1.5-1.5-2.4-1.1-4.6 2.2-5.3zM362.6 213.8c-3.4-3.5-3.3-4.6.2-7.8 2.9 2.4 2.9 4.3-.2 7.8zM419.2 181.7c-1-3.8-2-7.6-3-11.5 3 .1 4.5 4.5 4.3 11.1-.4.2-.9.3-1.3.4zM398.2 395.8c4.8.7 9.5 1.3 14.3 2l-.3 2.1c-4.8-.5-9.5-1.1-14.3-1.6.2-.9.2-1.7.3-2.5zM222 195.1c9.3 7 18.5 14 27.8 21.1l-.9 1.2-27.9-21c.4-.5.7-.9 1-1.3zM255.4 226.9c-3.8-2.7-6.8-4.8-9.8-6.9 1.4-1.3 6 .2 9.5 3.4.5.4.2 1.9.3 3.5zM198.2 404.2c.5.9 1.7 2.2 1.4 2.7-2.2 4.5-4.6 8.8-7 13.1-.3-.2-.7-.3-1-.5 2.2-5.2 4.5-10.3 6.7-15.5 0 .1-.1.2-.1.2z"/>
  <text transform="translate(115.82 48.122)"><tspan x="0" y="0" font-family="Peanuts" font-size="28.204">YOU&apos;LL NEVER BELIEVE THIS, I KNOW,</tspan><tspan x="0" y="33.8" font-family="Peanuts" font-size="28.204">BUT I WAS HOPING YOU&apos;D COME OVER..</tspan></text>
</svg>
