<svg xmlns="http://www.w3.org/2000/svg" viewBox="0 0 595.3 473.4" xml:space="preserve">
  <path fill="#fff" d="M0 0h595.3v472.3H0z"/>
  <path d="M511.6 0h81.6c.3 1.9.9 3.9.9 5.8.1 25.1.1 50.2 0 75.3-.1 22.8-.4 45.7-.5 68.5-.1 13.4.2 26.9.2 40.3-.1 15.2-.4 30.5-.5 45.7-.2 25.7-.2 51.5-.3 77.2l-.3 139.4v20c-12 0-22.9.1-33.9 0-6.3-.1-12.7-.9-19-.8-16.4.2-32.7.7-49.1.9-7.3.1-14.6-.7-21.9-.6-13.6.1-27.2.6-40.9.7-10.5 0-21-.7-31.5-.7-10.7 0-21.4.7-32.1.7-23.6.1-47.2-.1-70.8-.1-52.7 0-105.3.1-158 .2-43.1 0-86.3 0-129.4.1-3.8 0-5.4-.9-5.3-5 .4-11.7.2-23.2.2-34.8v-95.7c0-24.7-.1-49.3 0-74 0-24 .2-48 .3-72 0-45 0-89.9.1-134.9 0-5.4.8-10.8 1-16.2.3-8.9.4-18 .6-27V0h476.4c1.2.3 2.3 1 3.5 1 8.4.1 16.8.1 25.1 0 1.2 0 2.4-.7 3.6-1zm-85.1 455.8c-.6.5-1.2 1.4-1.8 1.4-8.9.8-17.8 1.4-26.8 2.1-13.8 1.1-27.7 2.3-40.8 3.3-1.3-.9-2.2-1.8-3.3-2.2-7.5-2.4-15.1-4.7-22.6-7-1.2-.4-2.6-1-3.8-.9-12.4 1-24.9 2-37.3 3.2-13.4 1.3-26.7 2.9-40.1 4.2-3.2.3-6.5.4-9.7.5 0-.6 0-1.2-.1-1.7l54.3-5.7c0-.5-.1-.9-.1-1.4-8 .6-16.1 1.2-24.1 1.9-8.1.8-16.1 1.7-24.2 2.6-8.1.9-16.3 2-24.4 2.8-7.3.7-14.6 3.1-21.9 3.2-.1-1-.2-1.9-.3-2.9 41.7-4.4 83.4-8.9 125.1-13.3-4.3-1.5-8.9-2.6-13.4-2.4-11.2.7-22.4 2-33.6 3-6.7.6-13.4 1-20 1.7-8.9 1-17.8 2.2-26.7 3.5-11.1 1.6-22.2 3.4-33.3 4.9-5 .7-10 .9-15.1 1.3-.1-.6-.1-1.2-.2-1.7 2.2-.4 4.4-.9 6.6-1.3l18.3-3c6.1-.6 12.2-1 18.3-1.8 11.1-1.4 22.1-3.4 33.2-4.4 14-1.2 28.1-1.6 42.1-2.4 2.7-.2 5.5-.7 8.2-1.1v-1.8c-1.8-.3-3.7-1.1-5.5-.9-9.8.9-19.6 2.1-29.5 2.9-13.9 1.2-27.8 2.1-41.8 3.1-.6 0-1.3-1.1-1.9-1.7 4.5-.7 9.1-1.6 13.6-1.9 12.2-.9 24.4-1.6 36.6-2.5 7.6-.5 15.2-1.1 23.2-1.7-.5-6.2 3.3-8.2 8.6-8.7 3.1-.3 6.2-.8 9.4-1 3.6-.2 7.3 0 11.1 0 .2-.6.6-1.8.7-2.3 2.2-.6 5-.7 5.1-1.4.7-3.3.7-6.8 1.1-10.8-1.3 1-2.1 1.7-3.1 2.3-3.6 2.3-6.4 5.2-11.4 5.3-12 .2-21.6-4.4-29.7-12.8-7.7-8.1-8.2-12.4-3.2-22.6 2.8-5.7 6.1-11.2 5.6-18.2-.3-4.4 0-9.7 2.1-13.4 3.4-6 2.2-11.8 1.6-17.8-.7-8 1.5-12.7 7.5-15.6 7.7-3.7 14.3-2.7 20 2.6 3.9 3.7 8.2 7.1 12.9 11.2 1.3-2.3 2.6-3.6 2.4-4.7-.9-7.9 2.4-14.8 5-21.8 1.3-3.6-1.2-11.3-4.1-12-4.3-1-8.8-1.8-12.8-3.6-4.3-1.9-8.1-4.8-12.6-7.5 7.3-5.8 16-7.5 21.5-15.2-2.8-.7-4.8-1.6-6.9-1.8-7.3-.5-14.7-.6-22-1.1-2.1-.1-4.2-1.1-5.4-1.5 0-3.8.9-6.9-.2-8.9-1.7-3-2.8-5.8-.4-8.1 1.7-1.6 4.7-1.8 8.3-3.1 1.9-4.3 1.3-5.3-4.5-6.6-3-.7-6.1-1.9-8.6-3.7-5.6-3.9-8-9.8-7-16.4 1-6.8 6.6-8.6 12.3-9.9 2.4-.5 4.9-.7 7.4-1.1 1.6-.3 3.1-.8 4.6-1.2l-.3-1.2h-7.2c14.6-5.9 29.5-10.8 42.1-20.2-11.8-8.9-20.2-20.5-24.5-34.7-2.3-7.4-3.6-15.4-4-23.1-.4-7.4 0-15.2 1.8-22.3 2.5-9.6 6.7-18.8 10.2-28.2 1.6-4.3 3-8.8 5.2-12.8 2.5-4.4 5.8-8.3 8.7-12.4l22.5-32.1c.4-.5.9-1 1.5-1.3 4-2.4 6-10.4 3.2-13.9-.7-.8-2.2-1.3-3.4-1.3-10.1 0-20.3 0-30.4.1-10 .2-20.1.7-30.1.7-17.4-.1-34.8-.5-52.2-.7-8.2-.1-16.5.5-24.7.4-9.3-.1-18.6-.4-27.9-1-4.6-.3-5.7 1.6-5.6 5.8.3 11.3.1 22.7.1 34.5 3.3 0 7.3.4 11.3-.1 4-.5 6.1 2.2 6.5 4.8.5 4-.2 8.2-1.1 12.2-1.1 4.4-4.6 4.5-8.5 3.8-4.8-.9-9.7-1.2-15.5-1.8.5 7.3 1.7 13.8 1 20.2-.5 4.7 4.9 11.1-3 14.5-.6.2-.7 2.1-.6 3.2.4 4.3-2.1 5.8-5.7 5.7-3.6-.1-7.3-.9-10.9-.9-16 .2-32.1.7-48.1.9-13 .2-26 .1-39 .1-27.4 0-54.7.1-82.1.1-3.5 0-6.4-.1-5.2 5.2.9 3.7.6 7.7.6 11.6.2 5.7-.7 10.9-.5 16 .1 3.3.5 8.5 2.5 9.5 6.3 3.1 13.3 4.7 20.1 6.6 8.9 2.5 18 4.5 26.8 7.2 6.6 2 7.9 8.3 9.8 13.8.4 1.2-.6 3.2-1.5 4.4-4.5 6.2-11.2 9-18.3 10.8-6.6 1.7-13.4 3-19.4 4.3-.2 3-.2 5.3-.6 7.5-.6 4.4-2.3 8.7-2 13 .6 11.1 2 22.2 3 33.3.3 3.2 0 6.5.2 9.7 1 14.3 2.2 28.7 3 43 .6 9.1.9 18.3 1.1 27.4.1 3.4 1.5 5 4.9 4.8 7.4-.4 14.7-.9 22.1-1.2 6-.3 11.9-.7 17.9-.7 4.4 0 7.7 4.1 6.8 7.4-1.8 6.6-3.5 13.3-4.9 20-1.1 5.7-.7 6 5.3 5.3.6-.1 1.3.4 1.9.4 6.2-.1 12.4-.3 18.6-.4.8 0 1.8.3 2.5.7.2.1.2 1.5 0 1.6-.7.4-1.7.6-2.5.6H75.7c-.5 3.8-.1 5.1 3.5 4.9 8.9-.5 17.8-.3 26.7-.2 1.9 0 3.9.9 5.8 1.4-12.6 1.5-25 2.1-37.4 2.4-.9 0-2.6-1.7-2.7-2.7-.6-10.4-.4-20.7 3.5-30.6 2.2-5.6 1.5-6.7-4.6-6.8-5.2 0-10.4.3-15.6.3-8.9.1-17.7 0-26.8 0 0 7.4 1.3 13.7-.3 19.1-1.9 6.4-1.7 12.2-.7 18.4 1.2 7.1-5.3 12.2-12.3 9.9-.9-.3-1.8-.7-2.7-.7-5-.2-6-2-5.4-7.2.6-5.7.4-11.5.5-17.2 0-4.7-.1-9.5-.3-14.2-.2-3.3-.6-6.7-1-10-.7 0-1.4.1-2.1.1v50.3c4 .6 7.3 1.4 10.5 1.5 3.3.1 6.6-.9 9.8-.9 9.8 0 10.2.1 11.9 9.9.9-1.9 1.7-3.7 2.6-5.6.4.3.7.6 1.1.9v2.5c.4.2.9.4 1.3.6 2.1-4 5.4-7.8 5.8-11.9.4-4.3 1.4-4.7 4.9-3.8 5.4-9.1 8.6-19.7 17.9-26-1.1 8.6-9 13-11.5 21.3-2.3 7.6-9.4 13.7-13.9 20.8-4.3 6.8-7.9 14-13.3 20 .4-2.1 1.6-3.6 2.4-5.3.4-.9.7-2.9.4-3-4.5-1.8-1.3-4.8-.9-7.4-4.1.5-7.2 7.6-5.8 13.2 1.5-1.9 2.9-3.5 4.3-5.2.3 1.6-.2 2.5-.9 3.3-3.3 3.4-4.6 7.3-4.4 12.3.3 8.8-.3 17.7-.4 26.6 0 3.4.3 6.8.5 10.2.2 3.1-2.9 6.1-5.9 6.1-5.3-.1-10.7 0-16.6 0 .2 1.9.4 4.2 4 4.2 19.2 0 38.4-.1 57.6 0 14.3.1 28.5.3 42.8.5 7.4.1 14.8.5 22.2.4 9-.1 18-.9 26.9-.9 11.6 0 23.2.6 34.8.6 13.6 0 27.3-.3 40.9-.4 5.5 0 10.9.5 16.4.4 8.7-.1 17.5-.6 26.2-.8 13.1-.3 26.2 2 39.4-2.1 9.3-2.9 19.7-2.5 29.5-3.5 2.6-.3 5.2-.4 7.8-.6 0 .6.1 1.2.1 1.8-11.1 1.3-22.2 2.6-33.3 4 .9.9 1.9 1.2 2.9 1.2 3.4 0 6.8-.4 10.2-.3 7.6.2 15.2.6 22.8.7 1.1 0 2.2-.8 3.3-1.5 1.3-.8 2.4-2.3 3.7-2.4 10.6-1.2 21.2-2.2 31.9-3 2.9-.2 5.9.6 8.9 1l.1-.1c-1 .6-1.9 1.7-2.9 1.7-11.1.7-22.2 1.3-33.3 2-1.9.1-3.8.6-5.7.9.1.1.1.2.2.4h157.5c.1-.6.2-1.1.2-1.7-1.4-.5-3.1-.8-4.3-1.6-13.6-9.7-27.2-19.5-40.8-29.3-2.9-2.1-6-3.9-8.9-6-5.9-4.3-11.6-8.9-17.7-12.8-3.6-2.3-8.1-3.4-11.9-5.5-5.7-3.3-11.1-7.1-16.6-10.7-1.1-.7-1.9-2-3.8-4.1 9.5.5 13.4 8.9 21.3 10.5v-71.9c0-17.9-.2-35.8-.2-53.7 0-3 .9-5.9.8-8.9-.3-11.5-.8-23-1.1-34.6-.2-6.3.1-12.7-.4-19-.1-1.3-2.6-3.2-4.2-3.4-1.7-.2-5.1 1-5.2 2-.6 3.5-1.2 7.8.3 10.6 5.4 9.9 2.8 19.6-1.2 28.3-6.2 13.6-17.4 22.8-30.6 29.9-4.6 2.4-8 7.1-11.7 11.1-.6.6 0 2.6.5 3.8 3.5 8 7.6 15.8 10.6 23.9 3.8 10.7 5.6 22 11.3 32.2 3.8 6.8 6.1 14.5 9.1 21.8-3.4 4.4-1.7 9.2-1.6 14.1.2 8.1-1.8 16.2-3 24.3-.1 1-.3 2.7-.8 2.8-2.8 1-5.8 2.5-8.5 2.2-4.6-.6-5.4 1.9-5.7 5.2-.3 2.8-1 5.8-.4 8.4.8 3.5.2 8.4 5.7 9.4-1.5 3.5.7 5.6 3.5 6.3 2.8.7 5.8.3 8.8.1 11-.9 22-2 33-2.9 1.1-.1 2.2.4 3.2.6-15.3 3.3-30.9 2.6-45.9 6.5 3.1.7 6.2.9 9.2.7 5-.4 10-1 15-1.4zm36.3-207.6c.6 0 1.1.1 1.2 0 6.1-8.4 10.3-17.5 9.9-28.3-.1-1.7.8-4.6 1.8-4.9 3.5-1 7.3-.9 10.9-1.5 15.4-2.6 31-4.7 46.2-8.1 11.7-2.6 23-6.8 34.4-10.7 7.3-2.5 14.4-5.6 21.4-8.8 1.4-.6 2.5-3.2 2.5-5 .1-5.1-.8-10.2-.7-15.3 0-6.5.8-13 .8-19.6.1-13.6-.1-27.3 0-40.9.1-17.7.5-35.5.4-53.2 0-3.7-.6-7.7-2.3-11-4.8-9.6-9.8-19-15.6-28.1-2.1-3.3-3.2-8.7-8.5-8.9-15.8-.4-31.6-.7-47.4-.7-10.7 0-21.4.6-32.1.6-11.5 0-23-.6-34.5-.7-13.3-.1-26.6 0-39.9.2-5.5.1-12-.9-16.4 1.6-6.5 3.6-12.3 9.2-17.1 15.1-8.3 10.1-16.1 20.7-23.3 31.6-11.7 17.8-19.3 37.3-23.5 58.3-3 15.1-2.4 29.7 3.4 43.8 5.9 14.4 15 26.4 29.3 33.5 2.3 1.2 4.4 2.8 7.7 5-10.3-.1-19.2-2.6-27.7 1 0 .5.1 1 .1 1.4 1.8-.1 3.6-.3 5.4-.4l.3 1.2c-4.9 1.9-9.7 3.7-14.7 5.6.4.8.9 1.9 2 4-4.3-1.3-7.6-2.3-10.8-3.4 1.2 2.8 6.3 1.6 4.3 6.4-1.6-.3-3.1-.9-4.4-.7-5 1-10 2-14.8 3.6-4.6 1.5-11.2 1.3-11.7 8-.9 11.8.3 13.3 10.1 16.6 1.4.5 2.9.8 4.2 1.3 1.9-3.5 1.4-5.8-.6-8.1-.8-.9-1.3-3.1-.7-3.9 2.4-3.7 5.3-7 8-10.5.2 6.1-8.6 11.6-1 17.6-.7.7-1.5 1.5-2.3 2.2.2.3.5.5.7.8 1.6-.9 3.2-1.7 4.7-2.6-3.8 4.8-5 9.2-1.4 14.5 1 1.5.5 3.9.8 5.9-2.4-1.1-3.4-2.6-4.7-3.1-1.4-.5-3.2-.2-4.8-.1-1.1.1-2.9 0-3.1.5-.5 1.2-.2 2.8-.2 4.2 1.1-.1 2.3-.3 3.4-.4.6-.1 1.1-.1 2.1-.1-1.9 3.2-3.6 5.9-5.9 9.9 6.7.5 12.2 1 17.6 1.2 6.6.2 13.6-1.3 19.2 6.4-6.2 4.6-12.3 9.2-19.3 14.4 3.4 1.4 6.3 2.8 9.3 3.9 4 1.5 8.4 2.2 12.1 4.2 2 1 3.3 3.8 4.2 6 1 2.6 1.1 5.4 1.7 8.7 7.5-1.8 14.5-3.4 21.4-5.4 1.4-.4 2.3-2.5 3.3-3.8l7.8-10.5c.9-1.2 2.1-2.3 4.2-4.6-4 .2-6.4.3-8.6.5.7-2.1 1.3-4.1 1.7-5.2 8.4-4.9 16.5-9.5 24.6-14.2.1.2.3.3.4.5-3.2 3.5-6.3 7-9.5 10.4-.2-.2-.5-.4-.7-.6.3-.8.6-1.7.9-2.5-.2-.3-.5-.5-.7-.8-3.5 2.9-7 5.8-10.5 8.6.3.4.7.9 1 1.3 2.3-1.4 4.6-2.9 6.9-4.3l.3.6c-1.3 1.6-2.7 3.3-4.8 5.8 14.1-7.4 25.1-16.3 30.6-29.9 4.4-10.8 2.3-35.8-2.4-39.2.4 2.6.7 5 1.2 8.5-6.9-10.3-13-19.5-19.4-29-.5 1.2-.9 2-1.3 2.9-7.1-3.4-11.9-11.1-20.9-10.8.9 1.9 1.7 3.5 2.5 5.1-.3.4-.7.7-1 1.1-5.8-2.5-11.6-4.9-17.4-7.4.1-.6.2-1.1.4-1.7 1.2 0 2.6-.5 3.4.1 3.5 2.3 6.5 1.2 10.3.2 3.9-1 8.4.1 13.8.4 1.3-2.2 3.8-1.8 6.5 1.3 3.4 3.6 7 7 10.9 10.8.8-.4 2.7-1.4 5-2.6.2 3.1.3 5.5.5 8.9 1.4-2 2.1-3.1 2.9-4.3.3 2-.2 3.7-.9 5.3-1.3 3.5-.8 6.1 3.5 6.8 5 .9 10 2.1 15.1 2.7 7.6.9 15.2 1.1 22.8 2.3 2.1.3 5.1 2.4 5.5 4.2 1.1 5.6 1.6 11.5 1.6 17.2.5 3.8-.8 7.4-1.6 11.1zm-10.5 13.5c-.4-.2-.8-.4-1.3-.7.5-1 .8-2.2 1.6-3 1.2-1.4 2.9-2.3 4-3.7 6.7-9.3 7.5-19.7 4.8-30.5-.8-3.3-2.7-6.1-7.4-5.4-2.7.4-5.6-.4-8.4-.7-2.6-.3-4.2.5-4.2 3.5-.1 5.8-.5 11.7-.4 17.5.3 20.1.8 40.1 1.1 60.2.2 13.3.7 26.5.6 39.8-.1 22.3-.4 44.5-.8 66.8-.1 3.3.9 5.2 3.7 6.8 4.5 2.5 9.1 5.1 13.3 8.2 11 8 21.6 16.3 32.6 24.3 7.9 5.8 16.1 11.2 24.2 16.6 6.6 4.4 13.1 9 22.1 6.3 2.9-.9 6.4.6 9.6.6 6.4.1 12.8 0 19.2.1 6.3.1 12.6.5 18.9.3 1.2 0 4.3.8 3.9-3.3-.7-7.7-.4-15.5-.3-23.2.2-10.1.8-20.2.8-30.3 0-13-.6-26-.5-39.1.2-18 1.1-36 1.3-53.9.1-11.3-.9-22.5-.9-33.8 0-11.2.5-22.4.7-33.6.2-8.1.2-16.1.3-24.2l.3-27.1V188c-18.1 10.1-36.5 15.2-55 20.9 11.5 1.1 23.1 2.2 34.8 3.3.5-4.8 1-9.1 1.4-13.4h1.2c0 2.1-.1 4.3 0 6.4.6 10 .6 10-9 9.3H563c-8.3-.9-16.6-2-24.9-2.7-4.1-.4-8.3-.7-12.4-.2-5.3.6-10.4 2.2-15.7 3.2-11 2-22.1 3.8-33.2 5.8-1.3 17.5-10.2 30.9-24.5 41.1zM4.1 64.3c.1 1.5.4 2.9.4 4.3l-.6 23.3c-.1 3.1-1.2 7.7.3 9 2 1.7 6.2.9 9.4.9 49.7 0 99.4-.1 149-.1 3.1 0 6.1 0 9.2-.1 6.4-.1 12.8-.2 19.5-.3V64.2c-62.6.1-124.7.1-187.2.1zM125.3 38h-1.7V3.4c-4.4-.4-7.7-.9-11-1-.9 0-2.7 1.3-2.7 2.1 0 5.1.7 10.1.6 15.2-.1 6.1-.7 12.2-1 18.3-.6 0-1.1 0-1.7-.1V22.3c0-5.6.1-11.2-.2-16.8-.1-1.1-1.7-2.1-2.6-3.1-.5 1-1.5 2-1.5 3-.3 10.3-.5 20.6-.8 31 0 1.1-.5 2.2-.7 3.4-1.1-1.6-1.5-3.2-1.5-4.7l.3-28.7c0-2.8-.5-4.1-3.9-3.7-3.9.6-7.9.6-11.7.1-3.2-.4-3.7.8-3.7 3.4.1 6.2 0 12.4 0 18.6V38h-1.4c-2.7-5.7-1.5-11.8-1.3-17.8.1-5.7 0-11.4 0-17h-13c-.5 9.8-1 19.2-1.5 28.7-.5 0-1-.1-1.4-.1V3.2H52.1c.4 9.1.9 18 1.1 26.8.2 8.5 0 8.5 8.7 9.2.3 0 .7.1 1 .1 5.3.6 10.7 1.8 16 1.5 2-.1 6.5.5 6.6-3.9.2-5 0-10.1.2-15.2.2-3.9.8-7.8 1.2-11.7 1.8.7 2.4 1.3 2.4 1.8-.7 8.1-1.6 16.1-2.2 24.2-.2 2.5 0 5.7 3.6 5.6 4.6-.1 9.4 2.3 14-.9 1.1-.8 3.2-.4 4.7-.2 1.4.2 2.7 1.5 4.1 1.5 8.5.3 17.1.5 25.6.7 3.8.1 5.7-2.9 4.7-6.9-.9-3.7-1.6-7.5-2.6-12.7 1.8 1.7 2.6 2.5 3.3 3.2.3-.2.6-.3 1-.5-.7-1.5-1.5-3.1-2.2-4.6-.3.2-.6.3-.9.5v-19c-4.8 0-9.8.4-14.6-.1-3.3-.4-2.9.7-2.8 3.1.4 10.9.3 21.6.3 32.3zm211.8 299.8c.2-.7.3-1.4.5-2.1-3.9-1.9-7.7-4.6-11.8-5.5-3.2-.7-8.1-.2-10 1.9-8.4 9.3-12.2 20.8-13.8 33.2-.8 6.5-.3 13.3-5.6 19-3.8 4.1-5.7 10.8-2.1 15.9 8.3 11.8 19.6 19.3 34.9 17 7.2-1.1 15.9-8.4 16.1-14.8.3-11.4-.8-22.8-1.3-33.4-4.8-1.1-8.3-1.8-11.7-2.6-3.6-.9-9.4-10.2-8.8-14 .1-.8.4-1.6.3-2.3-.9-7.5 2.9-11.8 10.4-11.8.9 0 1.9-.3 2.9-.5zM217.5 45.9H80.9c.7.9 1.2 1.6 1.9 2.4-22.6 1.9-45 3.7-67.4 5.6-.1-.7-.1-1.4-.2-2.1 20.7-1.6 41.4-3.2 63.6-4.9-1.9-.9-2.4-1.4-2.9-1.4h-28c-11.4 0-22.9.2-34.3 0-8.9-.2-8.5-.4-9.2 8.2-.3 4.6 1.3 5.1 5.1 5 25.2-.5 50.4-.9 75.6-1.1 7.9-.1 15.8.5 23.6.6 5.9.1 11.9-.3 17.9-.3 9.3.1 18.5.4 27.8.4 11.5 0 22.9-.5 34.4-.6 8.5-.1 17 .2 25.5.2 1 0 2.9-.9 3-1.5.3-3.4.2-6.7.2-10.5zM17.2 211.3c-3.3-1.7-5.1-1.2-5.2 2.8-.3 12.1-.8 24.1-1 36.2-.4 22-.5 44-.9 66-.2 11.1-1 22.2-1.1 33.2-.1 7.3 2.4 9.9 9.8 11.3.8.1 1.5.4 3.1.7 1.3-4.5 3.3-8.7 3.7-13.2.5-5.5-.3-11.1-.6-16.6-.8-14.9-1.6-29.7-2.4-44.6-.6-11.5-1.1-23-2-34.5-.9-13.8-2.2-27.6-3.4-41.3zm-12.8-45h12c5.3 0 10.5-.1 15.8.1.7 0 1.4 1.3 2.2 2-.7.6-1.4 1.8-2.2 1.8-7.8.1-15.7.5-23.5-.3-3.8-.4-4.4.6-4.5 3.7-.2 4.7-.6 9.4-.9 14.1-.3 3.6 2.6 3.5 4.7 3.6 4.1 0 8.3-.3 12.5-.7 12.1-1.2 24-2.9 34.7-9.3 2-1.2 5.4-3.8 5.1-4.7-1.2-3.5-3-8.2-5.8-9.4-8.7-3.7-17.9-6.2-27-8.8-7.7-2.2-15.4-4-24.1-6.2.2 4.3.5 8.8 1 14.1zM42.3 4.2c-3.9 1.3-7.4-2.1-12.3-.7-5.7 1.6-12.4 0-18.6-.8-4.3-.5-6 2-6.2 5.1-.4 8.4-.2 16.8-.2 25.1 0 7.6.9 8.6 8.5 8.4 1.7 0 3.5-.9 5.2-1.2 1.4-.2 3.1-.8 4.2-.2 6.2 3.3 12-.5 18-.6.5 0 1.3-1.4 1.3-2.2.1-10.7.1-21.5.1-32.9zM23 431.6h.2c0-3.5-.2-7 0-10.5.4-5.9 1.4-11.8 1.6-17.6 0-1.1-2.1-3.2-3.4-3.3-4.3-.4-8.8.3-13-.3-3.9-.5-4.5.9-4.5 4.2-.1 10.2-.4 20.5-.6 30.7-.1 7.2-.4 14.5-.2 21.7 0 1.3 1.5 3.7 2.5 3.8 4.8.4 9.6.4 14.3.1 1.1-.1 2.9-2.1 2.9-3.2.3-8.7.2-17.1.2-25.6zm302.9-85.1c3.7-.4 6.5-.7 10.3-1.1-2.8 5-12.4 3-9.3 11.5 3.2-1.5 6.5-2.9 10.4-4.7.4 5.7-8.7 4.7-5 11.2 2.2-1.1 4.3-2.1 7.2-3.6-.4 1.7-1.1 2.9-.7 3.4.5.8 1.7 1.2 2.7 1.7 2.3-3.9 4.9-1.7 7.2-.2 6.5 4.3 12.7 9 19.4 13 7.3 4.5 10.4 2.8 14.7-3.8 4.4-6.9 3.5-9.4-3.6-13.4-.4-.2-1-.4-1.3-.7-3.8-4.5-7.5-8-14.6-7.1-3.6.4-7.6-4.1-11.5-6.1-3.9-2-8-4.4-12.2-5-4.6-.6-10-1.4-13.7 4.9zM149.4 2.8c-.5 4.1-1 7.3-1.2 10.6-.5 8.8-.9 17.6-1.2 26.4-.1 2.7.9 3.6 4 3.2 5.4-.7 11-.6 16.5-.7 2.9 0 5.8.2 8.7.3V3.2c-3.2-.3-5.2-.9-6.9-.5-1.2.3-3 1.9-3.1 2.9-.2 6.3.2 12.6 0 18.9-.2 4.9-.9 9.7-1.4 14.6-.7-.1-1.4-.1-2.1-.2.6-11.9 1.1-23.8 1.7-36.1h-15zm30.5.4h-1.5c0 12.5-.1 25.1.2 37.6 0 .8 2.3 2.2 3.6 2.3 4.4.3 8.8-.1 13.2.1 3.6.2 4.1-1.7 4.1-4.7.2-10.7.7-21.3.8-32 0-1.2-1.6-3.4-2.5-3.5-5.2-.2-10.3 0-16.3 0 .6 10.9 1.1 20.9 1.5 30.9 0 .8-1.2 1.6-1.8 2.4-.4-.2-.9-.4-1.3-.6V3.2zM5.1 330.6c.5-.1 1.1-.2 1.6-.4.1-1.5.2-2.9.2-4.4.1-11.1.2-22.2.4-33.2.3-16.9.8-33.7 1.3-50.6.2-9.1.6-18.2.8-27.3 0-1.6-.2-3.3-.6-4.9-.7-3.2-1.8-6.4-2.5-9.6-.4-1.8-.4-3.7-.5-5.5-.5 0-1.1-.1-1.6-.1-.3 1.5-.9 3.1-.9 4.6-.1 8.3 0 16.5-.1 24.8-.1 8-.7 16-.6 24.1.2 13.7.9 27.3 1.1 41 .2 12.6.1 25.1.2 37.7.1 1.2.8 2.5 1.2 3.8zm394.1 123.1c.2-.6.3-1.3.5-1.9-2.3-1-4.6-3.1-6.8-2.9-8.5.6-16.9 1.2-25.1-1.6-1.7-.6-4-2.3-5-1.8-5.8 3.6-10.2 1.4-15.4-1.8-2.8-1.7-7.7 0-11.7.6-1.5.2-2.9 1.6-4.3 2.4 1.4 1.5 2.6 3.9 4.3 4.2 9.8 2.1 19.7 4.8 29.6 5.1 11.3.5 22.6-1.4 33.9-2.3zm-7.1-29.7c-7.2-.6-14.7-.4-21.7-2.2-5.3-1.4-6.7.9-7.8 4.6-1.5 5.4-.1 7.9 4.8 8.9 7.3 1.4 14.6 2.5 22.2 3.8.9-5.3 1.8-10.3 2.5-15.1zM572.5 4.2c6.4 10.9 12.6 21.4 18.9 32v-32h-18.9zM336.1 439.5c-1.6-2.1-3.1-4.4-5-6.4-.6-.7-1.8-1.2-2.7-1.2-5 .1-9.9.1-14.8.7-1.5.2-2.9 1.9-4.3 3 1.3 1.3 2.5 3.5 4.1 3.7 7.3 1.2 14.8 5.3 22.7.2zm9-28.3c-4.9 7.7-4.8 10.9.4 13.6 4.4 2.3 8.9 4.4 13.5 6.7.8-2.4 1.2-4.5 2.1-6.1 2-3.5 1.2-4.5-2.8-5.5-5.2-1.2-11.4-1.6-13.2-8.7zM32.6 394.3c-3-6.5-19.5-8.9-29.1-5.3.3 1.8.5 3.7.8 5.3h28.3zm358.3-61.2c2.4-6.6-2.2-6.7-5-7.5-5.6-1.6-12-5.5-17-.4-4.6 4.7-9.3 4-14.5 3.4-1.5-.2-3-1-4.4-.8-1.3.2-2.5 1.3-3.7 2.1 6.2 1.4 11.5 1.8 16.8 2.2 2.8.2 6.2 1.7 7.1-3.2.2-1.1 3.4-2.5 4.8-2.2 3.5.8 6.9 2.5 10.3 3.9 1.8.6 3.6 1.5 5.6 2.5zm-85.1 8.2c2.7-3.8 5.1-6.7 7-9.9 3-5.3 7.4-5.9 12.6-4.6 1.5.4 2.9 1.1 4.8 1.9-4-8.2-11.3-7.7-20.2-4.4-5.9 2.2-7 6.9-4.2 17zm103.1 40.4c-10.4 2.3-20.2 5.1-30.3 6.5-5.4.8-11.3-.4-16.8-1.4-3-.5-5.8-2.5-9.7-4.4 7.1 11.8 47.7 10.6 56.8-.7zm-21.8-67.2c-6.7 1.5-13 3.4-19.5 4.3-6.4.9-12.8.9-19.3 1.3v2c3.3.5 6.8.5 10 1.5 4.5 1.4 7.9-.2 11.6-2.2 6-3.3 12.2-2.3 19-.6-.7-2.3-1.2-4.2-1.8-6.3zm-4.8-11.2c-8.8 4.7-17 8.7-26.7 7.7-1.6-.2-3.5 1.5-5.2 2.3.2.5.3 1.1.5 1.6 11.5-1.3 23-2.5 35.3-3.9-1.5-2.8-2.7-5.1-3.9-7.7zm5.8 56.2c2.4-2.1 2.6-3.9-.4-6.3-4.5-3.6-8.5-7.7-12.8-11.5-1.4-1.2-2.9-2.3-4.4-3.4-.5.3-1.1.6-1.6.9.8 3 .7 7 2.7 8.8 4.9 4.3 10.8 7.6 16.5 11.5zM9.2 377c2.9.8 5.3 1.6 7.8 2.3 3 .9 4.7.5 3.3-3.2-.3-.7-.2-1.6-.2-2.5-.3-8.1-.3-8.2-8.1-6.8-1 .2-2.6 1.3-2.7 2.1-.4 2.8-.1 5.6-.1 8.1zM362 438.7c8.6 6.3 17.8 7.5 27 8.3.8.1 1.8-2.1 2.7-3.3-1.2-.8-2.4-2.2-3.7-2.4-8.2-.9-16.5-1.7-26-2.6zm46.7-61c-.1-.8-.1-1.6-.2-2.4-1.6-.1-3.6-.9-4.9-.3-6.7 3.5-13.7 3.4-20.7 2.2-1.9 2.4-3.6 4.7-5.8 7.5 11.2-2.5 21.4-4.7 31.6-7zM44.3 25.7c0 5.1-.2 9.7.1 14.4.1 1.2 1.9 3.2 2.6 3.1 1.5-.3 4.1-1.8 4-2.7-.2-5.3-1-10.6-1.5-15.9-2 .4-3.5.7-5.2 1.1zM404.5 365c-6.6 1.7-14.5-1.4-18.8 7.6 7.1-.6 13.6-1.1 20.7-1.7-.9-2.6-1.4-4.3-1.9-5.9zm-33.8-32.3c6.5 4.6 12.4 8.8 18.3 13 .3-.4.6-.7.9-1.1-4.4-4.8-8.6-9.8-13.4-14.2-3.1-2.8-5.3-1.1-5.8 2.3zM8.2 201.3c3.1.4 6 1.3 8.8 1.1 1.2-.1 2.9-2.1 3.2-3.5.3-1.2-.7-3.5-1.7-4-4.7-2.5-9.1.1-10.3 6.4zm330.9 132.8-1.2 2.1c2.8 1.1 5.6 2.7 8.6 3.2 3.3.6 6.8-.1 10.1.3 3.5.4 7 1.3 10.6 2-.5-5.7-14.7-7.5-22.7-3.5-1.8-1.4-3.6-2.8-5.4-4.1zM46.1 20.7l1.5.9c.9-1 2.5-2 2.6-3.1.3-4.1.3-8.3.1-12.5-.2-3.3-2.3-3.3-4.2-2.6v17.3zm325.3 365.2c.2-.6.3-1.3.5-1.9-3.8-1.7-7.5-3.7-11.5-5.1-2.1-.8-4.6-.6-6.9-.8 1.9 1.4 3.7 3.4 5.8 4.2 4 1.6 8.1 2.5 12.1 3.6zm19.8-26.1c.3.6.6 1.1.9 1.7 3.5.4 6.9.9 11.8 1.5-2-3.2-3.2-5.2-4.7-7.7-2.9 1.6-5.4 3.1-8 4.5zm-.5-354.9c0-.5-.1-1-.1-1.5-2.5 0-5.9-1-7.3.3-1.5 1.3-1.1 4.7-1.5 7.2.4.3.9.6 1.3.9 2.5-2.2 5.1-4.5 7.6-6.9zm-63.1 446c0-.7 0-1.5-.1-2.2-6.9.5-13.8.9-20.7 1.4 0 .3.1.6.1.8h20.7zm28.8-14.2c.5-.8.9-1.6 1.4-2.4-5.1-2.5-10.3-5-15.4-7.5-.3.6-.7 1.3-1 1.9 5 2.7 10 5.4 15 8zm47.7-32.2c5-.1 6.2-3.3 3.2-11.8-1 3.9-2.1 7.8-3.2 11.8zm-38.9-55.2c.2-.5.3-1 .5-1.5-4.1-1.4-8.2-2.8-12.3-4.1-.2.4-.3.8-.5 1.2 4.1 1.4 6.8 6.3 12.3 4.4zm31.4 41c.2.5.3.9.5 1.4 3.8-.5 7.7-1 12.2-1.6-1-1.2-2.1-3.1-2.8-3-3.4.8-6.6 2.1-9.9 3.2zM147.1 3.3h-1.9c-.3 5.1-.6 10.2-1 15.3h1.6c.5-5.1.9-10.2 1.3-15.3zM393.3 344c.7-.6 1.4-1.2 2-1.9-1.4-1.7-2.8-3.5-4.2-5.2-.5.9-1.7 2.2-1.4 2.7 1 1.7 2.4 3 3.6 4.4z"/>
  <path d="M3 0v13c-.2 9-.3 18.1-.6 27.1-.2 5.4-1 10.8-1 16.2-.1 45 0 89.9-.1 134.9 0 24-.2 48-.3 72v169.7c0 11.5.2 23.1-.1 34.6-.1 4.2 1.4 5.1 5.3 5 43.1-.1 86.3-.1 129.4-.1 52.7 0 105.3-.1 158-.2 23.6 0 47.2.2 70.8.1 10.7 0 21.4-.7 32.1-.7 10.5 0 21 .7 31.5.7 13.6 0 27.2-.6 40.9-.7 7.3 0 14.6.7 21.9.6 16.4-.2 32.7-.7 49.1-.9 6.3-.1 12.6.7 19 .8 10.9.1 21.8 0 33.9 0v-20l.3-139.4c.1-25.7.1-51.5.3-77.2.1-15.2.5-30.5.5-45.7.1-13.4-.2-26.9-.2-40.3.1-22.8.4-45.7.5-68.5.1-25.1 0-50.2 0-75.3 0-1.9-.6-3.9-.9-5.8.7.3 1.8.6 1.9 1 .3 1.1.1 2.3.1 3.5v468.9H.1C0 315.6 0 157.8 0 0h3z" fill="#fff"/>
  <path d="M511.6 0c-1.2.3-2.4 1-3.6 1-8.4.1-16.8.1-25.1 0-1.2 0-2.4-.6-3.5-1h32.2zM402.6 463.6c-3-.4-6-1.2-8.9-1-10.6.8-21.3 1.8-31.9 3-1.3.1-2.4 1.7-3.7 2.4-1 .6-2.2 1.5-3.3 1.5-7.6-.1-15.2-.6-22.8-.7-3.4-.1-6.8.3-10.2.3-1 0-2-.3-2.9-1.2 11.1-1.3 22.2-2.6 33.3-4 0-.6-.1-1.2-.1-1.8-2.6.2-5.2.3-7.8.6-9.9 1-20.2.6-29.5 3.5-13.3 4.1-26.3 1.8-39.4 2.1-8.7.2-17.5.7-26.2.8-5.5.1-10.9-.4-16.4-.4-13.6.1-27.3.4-40.9.4-11.6 0-23.2-.6-34.8-.6-9 0-18 .8-26.9.9-7.4.1-14.8-.3-22.2-.4-14.3-.2-28.5-.4-42.8-.5-19.2-.1-38.4 0-57.6 0-3.6 0-3.7-2.2-4-4.2 5.9 0 11.2-.1 16.6 0 3.1.1 6.1-3 5.9-6.1-.2-3.4-.6-6.8-.5-10.2.1-8.9.8-17.7.4-26.6-.2-5 1.1-8.8 4.4-12.3.7-.7 1.2-1.7.9-3.3-1.4 1.7-2.8 3.4-4.3 5.2-1.4-5.6 1.6-12.7 5.8-13.2-.4 2.5-3.6 5.6.9 7.4.2.1 0 2.1-.4 3-.9 1.7-2.1 3.3-2.4 5.3 5.5-6 9.1-13.2 13.3-20 4.4-7.1 11.6-13.2 13.9-20.8 2.5-8.3 10.4-12.6 11.5-21.3-9.2 6.3-12.5 17-17.9 26-3.5-1-4.5-.5-4.9 3.8-.3 4.1-3.7 7.9-5.8 11.9-.4-.2-.9-.4-1.3-.6V390c-.4-.3-.7-.6-1.1-.9-.9 1.9-1.7 3.7-2.6 5.6-1.6-9.8-2.1-9.9-11.9-9.9-3.3 0-6.6.9-9.8.9-3.3-.1-6.5-.9-10.5-1.5v-50.3c.7 0 1.4-.1 2.1-.1.3 3.3.8 6.7 1 10 .2 4.7.3 9.4.3 14.2 0 5.7.2 11.5-.5 17.2-.6 5.2.4 6.9 5.4 7.2.9 0 1.8.4 2.7.7 7 2.3 13.5-2.7 12.3-9.9-1-6.2-1.2-12.1.7-18.4 1.6-5.4.3-11.7.3-19.1h26.8c5.2 0 10.4-.4 15.6-.3 6.1 0 6.8 1.2 4.6 6.8-3.9 9.9-4.1 20.2-3.5 30.6.1 1 1.8 2.7 2.7 2.7 12.4-.3 24.8-.8 37.4-2.4-1.9-.5-3.8-1.4-5.8-1.4-8.9-.1-17.8-.3-26.7.2-3.6.2-4-1-3.5-4.9h24.8c.8 0 1.8-.2 2.5-.6.2-.1.3-1.5 0-1.6-.7-.4-1.7-.7-2.5-.7-6.2.1-12.4.3-18.6.4-.6 0-1.3-.5-1.9-.4-6 .7-6.4.4-5.3-5.3 1.3-6.7 3.1-13.4 4.9-20 .9-3.3-2.4-7.4-6.8-7.4-6 0-11.9.4-17.9.7-7.4.4-14.7.8-22.1 1.2-3.4.2-4.8-1.5-4.9-4.8-.3-9.1-.5-18.3-1.1-27.4-.9-14.4-2.1-28.7-3-43-.2-3.2.1-6.5-.2-9.7-1-11.1-2.4-22.2-3-33.3-.2-4.3 1.4-8.7 2-13 .3-2.2.3-4.4.6-7.5 6-1.3 12.7-2.6 19.4-4.3 7.1-1.8 13.8-4.5 18.3-10.8.9-1.2 1.9-3.3 1.5-4.4-1.9-5.5-3.2-11.8-9.8-13.8-8.9-2.7-17.9-4.7-26.8-7.2-6.8-1.9-13.8-3.5-20.1-6.6-2-1-2.4-6.2-2.5-9.5-.2-5 .7-10.2.8-15.4.1-3.9.3-7.9-.6-11.6-1.2-5.2 1.7-5.2 5.2-5.2 27.4 0 54.7-.1 82.1-.1 13 0 26 .1 39-.1 16-.2 32.1-.7 48.1-.9 3.6 0 7.3.8 10.9.9 3.6.1 6.1-1.4 5.7-5.7-.1-1.1 0-3 .6-3.2 7.9-3.4 2.5-9.7 3-14.5.6-6.3-.6-12.9-1-20.2 5.8.7 10.7 1 15.5 1.8 3.9.7 7.5.6 8.5-3.8 1-3.9 1.6-8.2 1.1-12.2-.3-2.6-2.5-5.3-6.5-4.8-3.9.5-8 .1-11.3.1 0-11.8.2-23.2-.1-34.5-.1-4.3.9-6.1 5.6-5.8 9.3.6 18.6.9 27.9 1 8.2.1 16.5-.5 24.7-.4 17.4.1 34.8.6 52.2.7 10 0 20.1-.5 30.1-.7 10.1-.2 20.3-.2 30.4-.1 1.1 0 2.7.5 3.4 1.3 2.8 3.5.8 11.5-3.2 13.9-.6.3-1.1.8-1.5 1.3l-22.5 32.1c-2.9 4.1-6.2 8-8.7 12.4-2.2 4-3.6 8.5-5.2 12.8-3.5 9.4-7.7 18.6-10.2 28.2-1.8 7.1-2.2 14.9-1.8 22.3.4 7.8 1.7 15.7 4 23.1 4.4 14.1 12.8 25.7 24.5 34.7-12.5 9.4-27.4 14.3-42.1 20.2h7.2l.3 1.2c-1.5.4-3.1.9-4.6 1.2-2.4.4-5 .5-7.4 1.1-5.7 1.3-11.3 3.1-12.3 9.9-.9 6.7 1.5 12.5 7 16.4 2.5 1.8 5.6 3 8.6 3.7 5.8 1.4 6.4 2.3 4.5 6.6-3.6 1.2-6.6 1.5-8.3 3.1-2.4 2.3-1.3 5.1.4 8.1 1.1 1.9.2 5.1.2 8.9 1.2.3 3.2 1.3 5.4 1.5 7.3.5 14.7.6 22 1.1 2.1.1 4.1 1 6.9 1.8-5.5 7.7-14.3 9.4-21.5 15.2 4.5 2.7 8.3 5.6 12.6 7.5 4 1.8 8.5 2.5 12.8 3.6 2.9.7 5.4 8.4 4.1 12-2.6 7-5.9 13.9-5 21.8.1 1.1-1.2 2.4-2.4 4.7-4.7-4.1-9-7.5-12.9-11.2-5.7-5.4-12.3-6.4-20-2.6-6.1 2.9-8.3 7.7-7.5 15.6.5 6 1.8 11.8-1.6 17.8-2.1 3.7-2.4 9-2.1 13.4.5 7-2.8 12.4-5.6 18.2-5 10.2-4.5 14.5 3.2 22.6 8.1 8.4 17.7 13 29.7 12.8 5-.1 7.9-3 11.4-5.3.9-.6 1.8-1.3 3.1-2.3-.3 4-.3 7.5-1.1 10.8-.2.7-2.9.8-5.1 1.4-.1.4-.5 1.6-.7 2.3-3.9 0-7.5-.1-11.1 0-3.1.1-6.2.7-9.4 1-5.3.4-9 2.5-8.6 8.7-7.9.6-15.6 1.1-23.2 1.7-12.2.8-24.4 1.5-36.6 2.5-4.6.4-9.1 1.3-13.6 1.9l.1.1c1.6-1.5 3.2-3 5.1-4.8-4.4-7.6-12-9.4-19.1-10.6-1.1-5.7-2.2-10.9-3.2-16.2-.5-2.5-.9-5.1-1.5-8.9-4.4-3.2-4-3.1-.9-10 1.2-2.8.1-6.6 0-9.9 0-1.3-.2-2.7-.3-4 1 1.1 2.6 2.1 3 3.4 1.3 4.1 2.2 8.4 3.2 12.8 6.2-3.8 10.4-12.2 9.5-17.5-.4-2.1-1-4.3-.9-6.4.3-4.4-2.3-5.9-5.9-6.6-2.6-.5-5.3-.5-7.8-1.2-1.4-.4-2.5-1.6-3.8-2.5 5.5-.6 12-3.7 12.2-6.9.3-5.1.3-10.3-.2-15.4-1.1-10.1-10.3-15.4-14.5-23.7-.1-.3-.5-.5-.8-.6-6-2.8-8.6-8-9-14.1-.3-4.2-1.8-6-5.7-6.4-1.3-.1-2.5-.4-3.8-.6.1-.6.1-.8.2-.9 1-.6 2-1.2 3.1-1.7 13.6-7.1 24.8-16.5 29.5-31.9 1-3.3 2.8-6.4 3.9-9.6 1-2.9 2.6-6.3 2-9-1.7-7.7-4.1-15.3-6.9-22.6-4.8-12.7-11.4-24.1-22.7-32.5-9.5-7-20-11-31.5-11.6-9-.5-17.9.3-27.1 2.5-21.8 5.1-37.9 23.8-40.5 45.6-.3 2.1-.8 4.2-.7 6.3 0 2.4.5 4.9 1 8.6-5.9-3.8-8-1.4-9.3 2.7-.6 1.9-1.5 3.7-1.7 5.7-.9 7.9 4.2 13 12.2 12.6.9 0 2.2 1.3 2.8 2.3 2.8 4.7 5 9.9 8.3 14.3 6.4 8.4 14.8 14.6 25 18.8-6.8 3.2-8.9 6.7-6.5 12 1.6 3.6.6 5.2-1.2 8.5-6.6 12.4-13 25.2-18 38.3-3.5 9.2.1 14.3 9.1 17.9l2 1c-3.5 2.1-6.6 3.9-9.6 5.9-6.9 4.3-16.5 6.7-13 18.4.1.4-.6.9-.5 1.3.5 1.8.6 4.6 1.7 5.1 3 1.3 6.5 1.7 9.8 2.3.3 0 1.2-1.3 1.1-2-1.4-8.5 5.5-11.7 10.3-16.2.7-.6 2-.6 3-.8 0 1 .1 2 0 3-.2 1.3-1.3 2.8-1 3.7 2 4.7 5.3 9 2.3 14.5-.2.4.7 1.4 1 2.2 1.9 4.5 2.3 8.9-.9 13.1-2.3 3-4.8 5.9-6.9 8.5 2.5 3.1 4.4 5.4 6.5 7.9-6.8 6.8 2.4 8.2 6.1 12.4-6.2.7-11.7 1.3-17.1 2-.1-.5-.2-1-.3-1.6 4-.5 8-1.1 12.3-1.7-1.4-2.1-5.2.5-4.8-3.8.1-.9-3.1-3.1-4.7-3.1-5.5-.1-11.1.1-16.6.8-11.2 1.4-22.4 3.2-33.6 5-4.9.8-9.6 2.1-14.4 3.3-.6.2-1 1.3-2 2.6 4.9-1 8.9-1.8 13-2.6v-.1c-.6 1.1-1.2 2.3-2.3 4.3 17.5-3.7 34.6-6.5 51.8-7.8.1.4.1.9.2 1.3-9 1.3-18 2.5-27 3.8l.3 1.8c8.7-1.2 17.4-2.4 26.2-3.6l.3 1.8c-5.5.9-11.1 1.7-16.6 2.6.1.4.1.9.2 1.3 13.7 1 26.9-5.6 40.7-3.6-5.1 1.1-10.1 2.3-15.2 3.4.1.5.2 1.1.3 1.6 4.8-.8 9.7-1.7 14.5-2.3 2-.3 4.2-.4 6 .2 6.5 1.9 12.8 4.2 19.7 1.3 3.8-1.6 7.8-3.4 11.7-3.4 9.6.1 18.7-4.4 28.4-2.7 2.4.4 4.8.4 7.2.6l-.1-.1-18.3 3c-2.2.4-4.4.9-6.6 1.3.1.6.1 1.2.2 1.7 5-.4 10.1-.6 15.1-1.3 11.1-1.5 22.2-3.3 33.3-4.9 8.9-1.3 17.8-2.5 26.7-3.5 6.7-.8 13.3-1.1 20-1.7 11.2-1 22.4-2.4 33.6-3 4.5-.3 9.1.9 13.4 2.4-41.7 4.4-83.4 8.9-125.1 13.3.1 1 .2 1.9.3 2.9 7.4-.1 14.6-2.5 21.9-3.2 8.2-.8 16.3-1.9 24.4-2.8 8-.9 16.1-1.9 24.2-2.6 8-.8 16-1.3 24.1-1.9 0 .5.1.9.1 1.4l-54.3 5.7c0 .6 0 1.2.1 1.7 3.2-.2 6.5-.2 9.7-.5 13.4-1.4 26.7-2.9 40.1-4.2 12.4-1.2 24.8-2.2 37.3-3.2 1.2-.1 2.6.5 3.8.9 7.5 2.3 15.1 4.6 22.6 7 1.1.4 2 1.3 3.3 2.2 13.1-1.1 26.9-2.2 40.8-3.3 8.9-.7 17.9-1.4 26.8-2.1.6-.1 1.2-1 1.8-1.5 2.2.2 4.3.8 6.4.6 4.5-.5 9-1.4 13.6-2 2.4-.3 5-.2 7.4-.2 0-.5 0-1 .1-1.5-.7-.4-1.4-1.2-2-1.1-7.2.9-14.3 1.8-21.4 2.9-1.4.2-2.7 1-4.1 1.5-5 .4-10.1 1-15.1 1.3-3 .2-6.1 0-9.2-.7 15-3.9 30.6-3.2 45.9-6.5-1.1-.2-2.2-.7-3.2-.6-11 .9-22 2-33 2.9-2.9.2-6 .6-8.8-.1-2.7-.7-4.9-2.7-3.5-6.3-5.5-1-4.8-5.8-5.7-9.4-.6-2.6.1-5.6.4-8.4.4-3.3 1.2-5.8 5.7-5.2 2.7.3 5.7-1.2 8.5-2.2.5-.2.7-1.8.8-2.8 1.1-8.1 3.1-16.2 3-24.3-.1-5-1.8-9.7 1.6-14.1-3-7.3-5.2-15-9.1-21.8-5.7-10.2-7.4-21.5-11.3-32.2-2.9-8.2-7.1-15.9-10.6-23.9-.5-1.1-1-3.2-.5-3.8 3.7-3.9 7.1-8.6 11.7-11.1 13.3-7 24.4-16.3 30.6-29.9 4-8.7 6.6-18.4 1.2-28.3-1.5-2.8-.9-7.1-.3-10.6.2-1 3.5-2.2 5.2-2 1.6.2 4.1 2.1 4.2 3.4.5 6.3.2 12.7.4 19 .3 11.5.8 23 1.1 34.6.1 3-.8 5.9-.8 8.9 0 17.9.1 35.8.2 53.7v71.9c-7.9-1.7-11.8-10.1-21.3-10.5 1.9 2.1 2.7 3.3 3.8 4.1 5.5 3.7 10.9 7.4 16.6 10.7 3.8 2.2 8.2 3.2 11.9 5.5 6.1 4 11.8 8.6 17.7 12.8 2.9 2.1 6 3.9 8.9 6 13.6 9.7 27.2 19.6 40.8 29.3 1.2.9 2.8 1.1 4.3 1.6-.1.6-.2 1.1-.2 1.7H361c-.1-.1-.1-.2-.2-.4 1.9-.3 3.8-.8 5.7-.9 11.1-.7 22.2-1.2 33.3-2 1-.1 1.9-1.1 2.9-1.8 3.4 0 6.8.2 10.1-.1 11.4-1 22.7-2.1 35.7-3.4-1.9-1.4-2.7-2.5-3.4-2.5-2.2.1-4.5.8-6.7 1.1-9.5 1-19 1.8-28.5 2.9-2.5 0-4.9 1.1-7.3 1.8zm-172.8-92.9c0 .8.1 1.7.1 2.5 21-.2 42 .7 62.9-2.5h-63zm65-6.7c-.1-.3-.1-.5-.2-.8h-68.9c-.2.6-.4 1.3-.6 1.9 1.1.6 2.1 1.7 3.2 1.7 7.5-.3 15.1-1 22.6-1.1 9.3-.1 18.7.5 28 .3 5.4-.1 10.7-1.3 15.9-2zM29.1 456.2c4.6-9.4 8.7-17.8 12.8-26.1 4.1-8.3 8.2-16.6 12.5-24.7 4.2-7.9 8.6-15.7 12.9-23.5l-1.2-.6C56 395 28.4 450 29.1 456.2zm373.5-170.1v64.2c3.3-3.7 2.6-56.4 0-64.2zm-286 152.2c-.1-.4-.2-.8-.2-1.2-23.3 2.2-46.3 5.9-68.8 12.6l69-11.4zm149 22.5.3 2.4c21.4-2 42.8-4 64.2-5.9 0-.5-.1-1.1-.1-1.6-21.5 1.7-43 3.4-64.4 5.1zm30.2 2.1c.1.6.1 1.2.2 1.7 14.6-1.2 29.2-2.4 43.7-3.5 0-.6-.1-1.1-.1-1.7-14.7.6-29.3 1.6-43.8 3.5zM53.9 441.6l.3 2.1c13.4-2.7 26.7-5.4 40.1-8.1-.1-.7-.3-1.4-.4-2.1-13.4 2.7-26.7 5.4-40 8.1zm14-97.8c-.5-.4-1-.8-1.4-1.3-9 10.4-18.1 20.9-27.1 31.3.4.4.9.7 1.3 1.1 9-10.3 18.1-20.7 27.2-31.1zm341.2 104.9h21c-5.7-2.6-18.6-2.3-21 0z" fill="#fff"/>
  <path d="M452.3 261.7c14.2-10.2 23.2-23.6 24.8-41.2 11.2-1.9 22.2-3.8 33.2-5.8 5.2-.9 10.4-2.6 15.7-3.2 4.1-.5 8.3-.2 12.4.2 8.3.8 16.6 1.8 24.9 2.7.5.1 1 0 1.5 0 9.6.7 9.6.7 9-9.3-.1-2.1 0-4.3 0-6.4h-1.2c-.5 4.3-.9 8.7-1.4 13.4-11.8-1.1-23.3-2.2-34.8-3.3 18.5-5.7 36.9-10.8 55-20.9v12.2l-.3 27.1c-.1 8.1-.1 16.1-.3 24.2-.2 11.2-.8 22.4-.7 33.6 0 11.3 1 22.5.9 33.8-.2 18-1.1 36-1.3 53.9-.2 13 .5 26 .5 39.1 0 10.1-.7 20.2-.8 30.3-.1 7.7-.5 15.5.3 23.2.4 4.1-2.8 3.3-3.9 3.3-6.3.2-12.6-.3-18.9-.3-6.4-.1-12.8.1-19.2-.1-3.2-.1-6.7-1.5-9.6-.6-8.9 2.7-15.4-2-22.1-6.3-8.2-5.4-16.3-10.9-24.2-16.6-11-8-21.6-16.3-32.6-24.3-4.2-3.1-8.7-5.7-13.3-8.2-2.8-1.6-3.8-3.5-3.7-6.8.4-22.3.7-44.5.8-66.8 0-13.3-.4-26.5-.6-39.8-.4-20.1-.8-40.1-1.1-60.2-.1-5.8.3-11.7.4-17.5 0-3 1.6-3.8 4.2-3.5 2.8.3 5.7 1.2 8.4.7 4.6-.8 6.6 2 7.4 5.4 2.6 10.7 1.8 21.2-4.8 30.5-1 1.4-2.8 2.4-4 3.7-.7.8-1.1 2-1.6 3 .2.4.6.6 1 .8zM572 395.5c-9.7-4.7-18.2-9.1-26.9-13.1-11-5.1-22.1-10-33.1-15-10.2-4.7-20.2-9.7-30.5-14.1-3.2-1.4-4-3.5-4.1-6.4-.1-5.8-.1-11.6-.1-17.4.1-11.9.5-23.7.4-35.6-.1-5.7-1.9-11.4-1.2-17 .4-3.7-.2-5.7-3.1-8.1-.2 1.2-.3 1.9-.3 2.5-.3 22.1-.6 44.1-.8 66.2-.1 4.5.5 9.2-.4 13.5-.7 3.3.1 5 2.6 6.5 2.8 1.7 5.7 3.4 8.7 4.9 20.8 10.4 41.6 21 62.5 31.2 8.2 4 16.7 7.4 25.1 11 2.5 1 5.4-1.7 5.1-4.4-.7-7.7-1.5-15.3-1.7-23-.2-8.5.3-17.1.3-25.7.2-21 .2-42.1.4-63.1 0-4.7-2.7-5.9-6.5-6.5-9.8-1.6-19.7-2.8-29.4-4.9-12.4-2.6-24.6-6.1-37-8.9-8-1.8-16.1-2.9-24.1-4.2-.8-.1-1.7.6-2.6 1 0 .5-.1.9-.1 1.4 5.6 1.2 11.1 2.4 16.7 3.5 7.6 1.5 15.3 2.3 22.7 4.3 16.4 4.6 32.8 8.7 49.9 9.8 5.7.4 7.3 2.1 7.3 7.8 0 5.6.1 11.2.1 16.9 0 19.6.1 39.3.1 58.9v28zM4.1 64.3h187.3v37.1c-6.7.1-13.1.2-19.5.3-3.1 0-6.1 0-9.2.1-49.7 0-99.4.1-149 .1-3.2 0-7.5.8-9.4-.9-1.6-1.3-.4-5.9-.3-9 .2-7.8.5-15.5.6-23.3 0-1.5-.3-2.9-.5-4.4zM95.5 90c-2.8 2.6-1.2 3.3 1.3 3.1 3.5-.3 7.1-1 10.6-1.3 9.8-.8 19.6-1.3 29.3-2.2 12.6-1.2 25.2-2.8 37.8-3.8 3.5-.3 5.1-1.4 5.5-5.6-11.2.8-22 1.5-32.9 2.3.1.7.2 1.4.2 2.1 1.6-.3 3.2-.7 4.8-.9 1.8-.2 3.5 0 5.3 0v1.5c-5.6.4-11.2.9-16.9 1.3 0-.3-.1-.6-.1-.9 1-.6 2.1-1.1 3.1-1.7-5.7-.2-11.2.2-16.6.8-8.7.9-17.3 2.1-26 2.9-9.6.9-19.2 1.3-28.7 2.1-1.9.2-3.7 1.2-5.5 1.8.1.4.2.7.4 1.1 9.4-.9 18.7-1.7 28.4-2.6zm-82.3-3.2.3 2.4C49.8 84 86.1 79 122.3 73.9c-.1-.7-.2-1.4-.3-2.2-36.2 5-72.5 10.1-108.8 15.1zm148.1-10c-.2-.5-.4-.9-.5-1.4-34.1 3.7-68.1 7.4-102.2 11 0 .6.1 1.2.1 1.7 1 .1 2.1.5 3.1.4l24-3c5.9-.7 11.8-1.4 17.7-1.9 7.6-.6 15-1.8 22.5-2.9 10-1.4 20.2-1 30.3-1.6 1.7.1 3.3-1.4 5-2.3zm-65.7-4.2c-.1-.7-.2-1.4-.3-2.2-18 2.7-36 5.3-54 8l.3 2.1c18.1-2.6 36.1-5.2 54-7.9zM22 78c0-.4.1-.9.1-1.3-2.5 0-5.3-.6-7.5.2-2.5.9-7-.8-7.5 4 5.1-1 10-2 14.9-2.9zM125.3 38c0-10.7.1-21.4-.1-32-.1-2.5-.5-3.5 2.8-3.1 4.8.5 9.8.1 14.6.1v19c.3-.2.6-.3.9-.5.7 1.5 1.5 3.1 2.2 4.6-.3.2-.6.3-1 .5-.7-.7-1.5-1.4-3.3-3.2 1 5.1 1.7 8.9 2.6 12.7 1 4-.9 6.9-4.7 6.9-8.5-.2-17.1-.3-25.6-.7-1.4-.1-2.7-1.3-4.1-1.5-1.6-.2-3.6-.6-4.7.2-4.6 3.2-9.4.8-14 .9-3.5.1-3.7-3.1-3.6-5.6.6-8.1 1.5-16.1 2.2-24.2 0-.5-.6-1.1-2.4-1.8-.4 3.9-1.1 7.8-1.2 11.7-.2 5 0 10.1-.2 15.2-.3 4.3-4.7 3.7-6.7 3.8-5.3.2-10.6-.9-16-1.5-.3 0-.7-.1-1-.1-8.6-.7-8.5-.7-8.7-9.2-.2-8.8-.7-17.7-1.1-26.8H63V32c.5 0 1 .1 1.4.1.5-9.5 1-18.9 1.5-28.7h13c0 5.6.1 11.3 0 17-.2 6-1.4 12.1 1.3 17.8h1.4V6.4c0-2.6.5-3.9 3.7-3.4 3.8.5 7.8.6 11.5 0 3.4-.5 4 .9 3.9 3.7-.2 9.6-.3 19.1-.3 28.7 0 1.5.4 3.1 1.5 4.7.3-1.1.7-2.2.7-3.4.3-10.3.5-20.6.8-31 0-1 1-2 1.5-3 .9 1 2.6 2 2.6 3.1.3 5.6.1 11.2.2 16.8v15.6c.6 0 1.1 0 1.7.1.4-6.1 1-12.2 1-18.3.1-5-.6-10.1-.6-15.2 0-.7 1.8-2.1 2.7-2.1 3.3 0 6.5.5 11 1v34.6c.6-.3 1.2-.3 1.8-.3zM337.1 337.8c-1 .2-2 .5-3 .5-7.5 0-11.3 4.3-10.4 11.8.1.7-.2 1.5-.3 2.3-.6 3.7 5.2 13 8.8 14 3.4.9 6.9 1.6 11.7 2.6.5 10.7 1.5 22.1 1.3 33.4-.1 6.4-8.9 13.7-16.1 14.8-15.4 2.3-26.6-5.2-34.9-17-3.5-5-1.7-11.8 2.1-15.9 5.4-5.7 4.8-12.5 5.6-19 1.6-12.4 5.3-23.9 13.8-33.2 1.9-2.1 6.9-2.6 10-1.9 4.1.9 7.9 3.6 11.8 5.5-.1.7-.2 1.4-.4 2.1zm-4.1 70.9c.7 0 1.5.1 2.2.1.8-7.4 1.6-14.9 2.5-22.3-.9-.1-1.7-.2-2.6-.3-.8 7.6-1.4 15.1-2.1 22.5zm-28.9-34.8c1.3.8 2.6 1.6 5 3.1h-5.9l-.6 1.8c1.9.7 3.9 1.4 5.8 2.1.6-2.3 2.2-4.9 1.6-6.8-.8-2.6-3.4-3.4-5.9-.2zM217.5 45.9c0 3.9.2 7.2-.1 10.4-.1.6-1.9 1.5-3 1.5-8.5 0-17-.2-25.5-.2-11.5.1-22.9.5-34.4.6-9.3 0-18.5-.4-27.8-.4-5.9 0-11.9.3-17.9.3-7.9-.1-15.8-.6-23.6-.6-25.2.2-50.4.6-75.6 1.1-3.8.1-5.5-.4-5.1-5 .6-8.7.2-8.4 9.2-8.2 11.4.3 22.9 0 34.3 0h28c.5 0 1 .5 2.9 1.4-22.2 1.7-42.9 3.3-63.6 4.9.1.7.1 1.4.2 2.1 22.4-1.8 44.7-3.7 67.4-5.6-.7-.8-1.2-1.5-1.9-2.4 45.3.1 90.6.1 136.5.1zm-69 2.8c-20.9-2.5-93.6 2.8-98.8 6.6 6-.3 12-1.3 18-1.8 13.9-1.2 27.9-2.3 41.9-3.1 11.3-.6 22.7-.7 34-1.1 1.6-.1 3.3-.4 4.9-.6zM17.2 211.3c1.2 13.8 2.5 27.6 3.5 41.4.8 11.5 1.3 23 2 34.5.8 14.9 1.6 29.7 2.4 44.6.3 5.5 1 11.1.6 16.6-.4 4.4-2.3 8.7-3.7 13.2-1.6-.4-2.4-.6-3.1-.7-7.4-1.4-9.9-4-9.8-11.3.1-11.1.9-22.2 1.1-33.2.4-22 .5-44 .9-66 .2-12.1.7-24.1 1-36.2.1-4.1 1.8-4.7 5.1-2.9zM4.4 166.3c-.4-5.4-.8-9.8-1.2-14.3 8.6 2.2 16.4 4 24.1 6.2 9.1 2.6 18.4 5.1 27 8.8 2.9 1.2 4.6 6 5.8 9.4.3.9-3.1 3.5-5.1 4.7-10.7 6.3-22.6 8.1-34.7 9.3-4.1.4-8.3.8-12.5.7-2.1 0-4.9 0-4.7-3.6.4-4.7.7-9.4.9-14.1.1-3.1.7-4.1 4.5-3.7 7.8.8 15.6.4 23.5.3.7 0 1.5-1.2 2.2-1.8-.7-.7-1.4-1.9-2.2-2-5.3-.2-10.5-.1-15.8-.1-3.7.2-7.6.2-11.8.2zm39 7.8c-.1-.7-.3-1.4-.4-2.2-4.1.8-8.2 2.1-12.4 2.3-4.8.2-9.7-.7-14.5-.7-3.3 0-6.5.9-9.8 1.3.1.5.1.9.2 1.4 12.5.9 24.9 1.4 36.9-2.1zM42.3 4.2c0 11.4 0 22.2-.1 33 0 .8-.9 2.2-1.3 2.2-6 .1-11.8 3.9-18 .6-1.1-.6-2.8 0-4.2.2-1.8.3-3.5 1.2-5.2 1.2-7.6.1-8.5-.9-8.5-8.5 0-8.4-.2-16.7.2-25.1.1-3.1 1.8-5.6 6.2-5.1 6.2.8 12.9 2.4 18.6.8 4.9-1.4 8.4 2 12.3.7zM29.9 36c3.5-5.2 2.9-25.2 0-26.6V36zm-15.8-4.2h1.4c1.1-8.7.5-17.5.3-26.3h-1.7v26.3zm10.5-13.3c-1.3 5-2.4 10 0 15.7V18.5zM23 431.6c0 8.5.1 16.9-.1 25.4 0 1.2-1.8 3.2-2.9 3.2-4.8.4-9.6.4-14.3-.1-1-.1-2.5-2.5-2.5-3.8-.1-7.2.1-14.5.2-21.7.2-10.2.5-20.5.6-30.7 0-3.3.6-4.7 4.5-4.2 4.3.6 8.7-.1 13 .3 1.3.1 3.4 2.2 3.4 3.3-.2 5.9-1.2 11.8-1.6 17.6-.3 3.5 0 7 0 10.5-.2.2-.2.2-.3.2z" fill="#fff"/>
  <path d="M325.9 346.5c3.7-6.3 9.1-5.5 13.5-4.9 4.2.5 8.2 3 12.2 5s8 6.5 11.5 6.1c7.1-.8 10.8 2.6 14.6 7.1.3.4.9.5 1.3.7 7.1 4.1 8 6.6 3.6 13.4-4.2 6.6-7.4 8.3-14.7 3.8-6.6-4.1-12.9-8.8-19.4-13-2.3-1.5-4.9-3.8-7.2.2-.9-.6-2.1-.9-2.7-1.7-.3-.5.3-1.7.7-3.4-2.9 1.4-5 2.5-7.2 3.6-3.7-6.5 5.4-5.4 5-11.2-4 1.8-7.2 3.3-10.4 4.7-3.1-8.5 6.5-6.5 9.3-11.5-3.7.4-6.4.7-10.1 1.1zM149.4 2.8h15c-.6 12.3-1.1 24.2-1.7 36.1.7.1 1.4.1 2.1.2.5-4.9 1.2-9.7 1.4-14.6.2-6.3-.2-12.6 0-18.9 0-1.1 1.8-2.6 3.1-2.9 1.7-.4 3.7.2 6.9.5v39.4c-2.9-.1-5.8-.4-8.7-.3-5.5.1-11.1 0-16.5.7-3.1.4-4.1-.5-4-3.2.3-8.8.7-17.6 1.2-26.4.3-3.3.8-6.5 1.2-10.6zM179.9 3.2v32.5c.4.2.9.4 1.3.6.6-.8 1.8-1.7 1.8-2.4-.4-10-.9-20-1.5-30.9 5.9 0 11.1-.2 16.2.2 1 .1 2.5 2.3 2.5 3.5-.1 10.7-.6 21.3-.8 32-.1 3-.5 4.8-4.1 4.7-4.4-.2-8.8.2-13.2-.1-1.3-.1-3.6-1.5-3.6-2.3-.2-12.5-.2-25.1-.2-37.6.6-.2 1.1-.2 1.6-.2zM5.1 330.6c-.4-1.3-1.1-2.6-1.1-3.9-.1-12.6 0-25.1-.2-37.7-.2-13.7-.9-27.3-1.1-41-.1-8 .5-16 .6-24.1.1-8.3 0-16.5.1-24.8 0-1.5.6-3.1.9-4.6.5 0 1.1.1 1.6.1.2 1.8.2 3.7.5 5.5.7 3.2 1.7 6.4 2.5 9.6.4 1.6.6 3.3.6 4.9-.2 9.1-.6 18.2-.8 27.3-.4 16.9-.9 33.7-1.3 50.6-.2 11.1-.3 22.2-.4 33.2 0 1.5-.2 2.9-.2 4.4-.7.2-1.2.4-1.7.5zM399.2 453.7c-11.3.9-22.7 2.8-33.9 2.4-9.9-.3-19.8-3-29.6-5.1-1.7-.3-2.9-2.8-4.3-4.2 1.4-.8 2.8-2.2 4.3-2.4 3.9-.6 8.9-2.3 11.7-.6 5.3 3.2 9.6 5.3 15.4 1.8.9-.6 3.3 1.2 5 1.8 8.2 2.8 16.6 2.2 25.1 1.6 2.2-.2 4.6 1.9 6.8 2.9-.1.5-.3 1.2-.5 1.8zM392.1 424c-.8 4.8-1.6 9.8-2.4 15.1-7.6-1.3-14.9-2.4-22.2-3.8-4.9-.9-6.3-3.4-4.8-8.9 1-3.8 2.5-6 7.8-4.6 6.9 1.8 14.5 1.6 21.6 2.2zM572.5 4.2h18.9v32c-6.3-10.6-12.5-21.1-18.9-32zM230.6 444.1c.6.6 1.3 1.7 1.9 1.7 13.9-.9 27.9-1.9 41.8-3.1 9.8-.8 19.6-2.1 29.5-2.9 1.8-.2 3.7.6 5.5.9v1.8c-2.7.4-5.5.9-8.2 1.1-14 .8-28.1 1.2-42.1 2.4-11.1 1-22.1 3-33.2 4.4-6.1.8-12.2 1.2-18.3 1.8l.1.1c2.9-.9 5.9-1.7 8.8-2.7 4.8-1.7 9.6-3.6 14.3-5.3l-.1-.2zM336.1 439.5c-7.8 5.1-15.3 1-22.8-.2-1.5-.2-2.7-2.4-4.1-3.7 1.4-1 2.8-2.8 4.3-3 4.9-.6 9.9-.6 14.8-.7.9 0 2.1.5 2.7 1.2 1.9 2 3.5 4.3 5.1 6.4zM345.1 411.2c1.7 7.1 8 7.5 13.2 8.7 4 .9 4.8 1.9 2.8 5.5-1 1.7-1.3 3.7-2.1 6.1-4.6-2.3-9.1-4.4-13.5-6.7-5.2-2.7-5.3-5.9-.4-13.6zM32.6 394.3H4.3c-.2-1.6-.5-3.4-.8-5.3 9.6-3.6 26.1-1.2 29.1 5.3zM390.9 333.1c-2-.9-3.8-1.9-5.6-2.6-3.4-1.4-6.7-3.1-10.3-3.9-1.4-.3-4.6 1.1-4.8 2.2-.9 4.9-4.3 3.4-7.1 3.2-5.3-.3-10.6-.8-16.8-2.2 1.2-.7 2.4-1.9 3.7-2.1 1.4-.2 2.9.6 4.4.8 5.2.6 9.9 1.3 14.5-3.4 5-5.1 11.4-1.1 17 .4 2.8.9 7.3 1 5 7.6zM305.8 341.3c-2.8-10.1-1.7-14.8 4.2-17 8.8-3.2 16.2-3.8 20.2 4.4-1.9-.8-3.3-1.6-4.8-1.9-5.2-1.2-9.6-.6-12.6 4.6-1.8 3.3-4.3 6.2-7 9.9zM408.9 381.7c-9.1 11.3-49.6 12.5-56.7.8 3.9 1.8 6.6 3.8 9.7 4.4 5.5 1 11.4 2.2 16.8 1.4 10-1.6 19.8-4.3 30.2-6.6z" fill="#fff"/>
  <path d="M387.1 314.5c.6 2.1 1.2 4 1.8 6.3-6.7-1.7-13-2.7-19 .6-3.7 2.1-7.1 3.7-11.6 2.2-3.2-1-6.7-1.1-10-1.5v-2c6.4-.4 12.9-.4 19.3-1.3s12.8-2.8 19.5-4.3zM382.3 303.3c1.3 2.6 2.4 4.9 3.8 7.7-12.2 1.3-23.7 2.6-35.3 3.9-.2-.5-.3-1.1-.5-1.6 1.7-.8 3.6-2.5 5.2-2.3 9.8 1 17.9-3 26.8-7.7zM388.1 359.5c-5.8-3.9-11.6-7.2-16.5-11.6-1.9-1.7-1.8-5.8-2.7-8.8.5-.3 1.1-.6 1.6-.9 1.5 1.1 3 2.2 4.4 3.4 4.3 3.8 8.3 7.9 12.8 11.5 3.1 2.6 2.9 4.4.4 6.4zM9.2 377c0-2.5-.2-5.4.1-8.1.1-.8 1.7-1.9 2.7-2.1 7.8-1.3 7.8-1.3 8.1 6.8 0 .8-.1 1.7.2 2.5 1.4 3.7-.4 4.1-3.3 3.2-2.5-.7-5-1.4-7.8-2.3zM362 438.7c9.4.9 17.8 1.7 26.1 2.7 1.3.2 2.4 1.6 3.7 2.4-.9 1.1-1.9 3.4-2.7 3.3-9.3-.9-18.4-2.1-27.1-8.4zM408.7 377.7c-10.2 2.2-20.4 4.5-31.5 6.9 2.1-2.7 3.9-5 5.8-7.5 7 1.2 14 1.4 20.7-2.2 1.2-.6 3.2.2 4.9.3 0 .9 0 1.7.1 2.5zM44.3 25.7c1.7-.4 3.2-.7 5.2-1.1.6 5.3 1.4 10.6 1.5 15.9 0 .9-2.5 2.4-4 2.7-.7.1-2.5-1.9-2.6-3.1-.3-4.7-.1-9.3-.1-14.4zM404.5 365c.5 1.6 1 3.3 1.9 5.9-7.1.6-13.6 1.1-20.7 1.7 4.3-9 12.2-5.9 18.8-7.6zM370.7 332.7c.5-3.4 2.7-5.1 5.8-2.3 4.8 4.4 9 9.4 13.4 14.2-.3.4-.6.7-.9 1.1-5.9-4.2-11.8-8.4-18.3-13zM8.2 201.3c1.2-6.3 5.6-8.8 10.3-6.4 1.1.5 2 2.8 1.7 4-.4 1.4-2 3.4-3.2 3.5-2.8.1-5.7-.7-8.8-1.1zM339.1 334.1c1.8 1.4 3.6 2.7 5.4 4.1 8-4 22.2-2.2 22.7 3.5-3.6-.7-7.1-1.6-10.6-2-3.3-.3-6.8.3-10.1-.3-3-.5-5.7-2.1-8.6-3.2l1.2-2.1zM46.1 20.7V3.5c1.9-.7 4-.7 4.2 2.6.2 4.1.2 8.3-.1 12.5-.1 1.1-1.7 2.1-2.6 3.1-.5-.4-1-.7-1.5-1zM371.4 385.9c-4-1.2-8.2-2-12.1-3.6-2.2-.8-3.9-2.8-5.8-4.2 2.3.2 4.8 0 6.9.8 3.9 1.4 7.7 3.4 11.5 5.1-.1.7-.3 1.3-.5 1.9zM391.2 359.8c2.5-1.4 5.1-2.9 7.9-4.5 1.5 2.4 2.7 4.4 4.7 7.7-4.8-.6-8.3-1-11.8-1.5-.2-.5-.5-1.1-.8-1.7zM390.7 4.9c-2.6 2.3-5.1 4.6-7.7 6.9-.4-.3-.9-.6-1.3-.9.4-2.5.1-5.9 1.5-7.2 1.5-1.2 4.8-.3 7.3-.3.1.6.2 1.1.2 1.5zM327.6 450.9h-20.7c0-.3-.1-.6-.1-.8 6.9-.5 13.8-.9 20.7-1.4.1.7.1 1.4.1 2.2zM356.4 436.7c-5-2.7-10-5.3-15-8 .3-.6.7-1.3 1-1.9 5.1 2.5 10.3 5 15.4 7.5-.5.8-.9 1.6-1.4 2.4zM404.1 404.5c1.1-4 2.2-7.9 3.2-11.8 3 8.5 1.8 11.7-3.2 11.8zM365.2 349.3c-5.6 2-8.2-3-12.3-4.4.2-.4.3-.8.5-1.2 4.1 1.4 8.2 2.8 12.3 4.1-.1.4-.3.9-.5 1.5zM396.6 390.3c3.3-1.1 6.5-2.4 9.9-3.2.6-.1 1.7 1.8 2.8 3-4.5.6-8.4 1.1-12.2 1.6-.2-.5-.4-.9-.5-1.4zM147.1 3.3c-.4 5.1-.8 10.2-1.3 15.3h-1.6c.3-5.1.6-10.2 1-15.3h1.9zM393.3 344c-1.2-1.4-2.6-2.7-3.5-4.3-.3-.5.9-1.8 1.4-2.7 1.4 1.7 2.8 3.5 4.2 5.2l-2.1 1.8z" fill="#fff"/>
  <path d="M230.7 444.3c-4.8 1.8-9.5 3.6-14.3 5.3-2.9 1-5.9 1.8-8.8 2.7-2.4-.2-4.9-.2-7.2-.6-9.7-1.7-18.8 2.8-28.4 2.7-3.9 0-8 1.8-11.7 3.4-6.9 2.9-13.2.5-19.7-1.3-1.9-.5-4-.4-6-.2-4.9.6-9.7 1.5-14.5 2.3-.1-.5-.2-1.1-.3-1.6 5.1-1.1 10.1-2.3 15.2-3.4-13.8-1.9-27 4.6-40.7 3.6-.1-.4-.1-.9-.2-1.3 5.5-.9 11.1-1.7 16.6-2.6l-.3-1.8c-8.7 1.2-17.4 2.4-26.2 3.6l-.3-1.8c9-1.3 18-2.5 27-3.8-.1-.4-.1-.9-.2-1.3-17.2 1.3-34.2 4.1-51.8 7.8 1.1-2.1 1.7-3.2 2.3-4.3 3.5 2.8 6.8.2 10.1-.4 6.2-1.1 12.4-2.3 18.5-3.5-.1-.6-.2-1.1-.3-1.7-9.4 1.9-18.9 3.7-28.3 5.6-4 .8-8.1 1.6-13 2.6 1-1.3 1.3-2.5 2-2.6 4.8-1.2 9.6-2.5 14.4-3.3 11.2-1.8 22.4-3.5 33.6-5 5.5-.7 11.1-1 16.6-.8 1.7 0 4.8 2.2 4.7 3.1-.5 4.3 3.4 1.7 4.8 3.8-4.2.6-8.3 1.1-12.3 1.7.1.5.2 1 .3 1.6 5.4-.6 10.9-1.2 17.1-2-3.8-4.2-12.9-5.6-6.1-12.4-2.1-2.5-4-4.8-6.5-7.9 2.1-2.6 4.6-5.5 6.9-8.5 3.2-4.1 2.8-8.6.9-13.1-.3-.8-1.3-1.8-1-2.2 2.9-5.5-.4-9.8-2.3-14.5-.4-.9.7-2.4 1-3.7.2-1 0-2 0-3-1 .3-2.3.2-3 .8-4.9 4.5-11.7 7.7-10.3 16.2.1.6-.9 2-1.1 2-3.3-.6-6.7-1-9.8-2.3-1.1-.5-1.2-3.3-1.7-5.1-.1-.4.6-1 .5-1.3-3.5-11.7 6.1-14.1 13-18.4 3-1.9 6.1-3.7 9.6-5.9-1.2-.6-1.6-.9-2-1-9-3.6-12.6-8.7-9.1-17.9 5-13.2 11.3-25.9 18-38.3 1.7-3.2 2.8-4.9 1.2-8.5-2.4-5.3-.3-8.8 6.5-12-10.2-4.2-18.5-10.4-25-18.8-3.3-4.3-5.5-9.5-8.3-14.3-.6-1-1.9-2.4-2.8-2.3-8 .3-13-4.7-12.2-12.6.2-1.9 1.1-3.8 1.7-5.7 1.3-4.1 3.4-6.5 9.3-2.7-.5-3.7-1-6.2-1-8.6 0-2.1.5-4.2.7-6.3 2.7-21.8 18.7-40.5 40.5-45.6 9.2-2.1 18.1-2.9 27.1-2.5 11.5.6 22 4.6 31.5 11.6 11.3 8.4 17.9 19.8 22.7 32.5 2.8 7.4 5.2 14.9 6.9 22.6.6 2.7-1 6.1-2 9-1.1 3.3-2.8 6.3-3.9 9.6-4.7 15.4-15.9 24.8-29.5 31.9-1 .5-2 1.1-3.1 1.7-.1.1-.1.3-.2.9 1.3.2 2.5.5 3.8.6 3.9.4 5.5 2.2 5.7 6.4.4 6.1 2.9 11.3 9 14.1.3.1.7.3.8.6 4.3 8.2 13.4 13.6 14.5 23.7.6 5.1.6 10.3.2 15.4-.2 3.2-6.7 6.3-12.2 6.9 1.3.9 2.4 2.1 3.8 2.5 2.5.7 5.2.7 7.8 1.2 3.6.7 6.2 2.3 5.9 6.6-.1 2.1.5 4.2.9 6.4 1 5.3-3.3 13.7-9.5 17.5-1.1-4.5-2-8.7-3.2-12.8-.4-1.3-2-2.3-3-3.4.1 1.3.3 2.7.3 4 .1 3.3 1.2 7.2 0 9.9-3 6.9-3.4 6.8.9 10 .6 3.8 1 6.4 1.5 8.9 1 5.3 2.1 10.5 3.2 16.2 7.1 1.1 14.7 3 19.1 10.6-2.1 1.8-3.7 3.3-5.3 4.8zM97.6 238.1c-2.9 1-6.5 1.1-7.8 2.9-4 5.5.3 13.5 7.1 13.7 3.2.1 4.3 1.3 5.7 4 3 5.8 6.5 11.5 10.8 16.4 9 10.2 20.9 16 34.2 17.6 13.4 1.7 26.9 3.1 40-3.5 12.4-6.1 21.5-14 27.1-27.2 5.5-12.9 5.9-25.5 1.4-37.8-4.9-13.2-9.9-26.6-23.2-34.8-9.9-6.1-19.7-10.1-31.6-10.9-12.7-.9-24.4.8-35.8 5.7-12.1 5.2-20.3 14.8-23.8 27.3-2.4 9-2.9 18.5-4.1 26.6zm59.7 182.8c2.5-.5 3.9-.7 5.3-.9 9.4-1.4 12.9-6.5 10.8-15.8-1.4-6.3 1.3-16.5 6.2-21.5-.5 2-.8 3.2-1.2 4.4-1.5 5.2-3.5 10.3-2.2 16 .9 3.7 1.9 7.8-1.1 11.4-.8.9-.6 3.3.1 4.4.4.7 2.6.6 4 .4 8.7-1.1 17.4-2.4 26.1-3.5 2-.3 4.1-.2 5.7-.3-1-3.7-1.9-6.9-3.1-10.9-2.1-.7-2.1-2.9-1-6.1 1.3-4 2.1-8.3 2.2-12.5.1-3.7-1.1-7.4-1.7-11.1-.7-4.7-1.5-9.4-2.3-15-4.8 4.6-8.9 3.4-12.5.1-5-4.7-10.2-1.4-15.4-1.3 1.4 8.6 5.2 16.5-.5 24.1-1.2-7.4-2.3-14.3-3.5-21.6-1.6.7-2.7.8-3 1.4-2.4 4.3-6.6 4.8-10.8 4.9-3 .1-6.1-.4-9.2-.3-1 0-2 .9-3 1.3 1 .5 1.9 1.3 2.9 1.5 1.6.2 3.2-.1 4.8-.2.1.6.1 1.2.2 1.8-5.1 1-10.1 2-15.3 3.1.5-1 .8-1.8 1.3-2.8-5.3-.2-10.1-.5-16.1-.8 0 5.6.9 11.2-.2 16.4-1.4 6.1 2.1 10.1 4.4 14.9-3.4 2-3.3 4.9-2 7.7 2.1 4.6 3 9.1-2.4 14 16.6.7 26.8-7.7 35.8-18.6.4.6.9 1.1 1.3 1.7-5 4.9-10 9.7-15.1 14.6.2.4.4.8.7 1.2 5.2-2.9 10.4-5.7 16.6-9.1-2.7 2.6-4.4 4.4-6.8 7zm6.8-90.2c2.4-4.1-7-18.7-12-21.5-3.5 1.6-6 3.4-8.7 3.9-5 .8-6.5 2.2-5.7 7.2.1.6-.3 1.2-.6 2.6-2.7-3.3-4.9-6.1-7.1-8.9-6 4.8-18.3 31.5-17.8 38.6 5.9-9.1 11.6-17.8 17.4-26.7-.2 3.5-.4 7.3-.5 10.6 6.8.7 13.3 1.5 19.7 2.2 1.2-2.5 2.1-6.5 4.6-8.9 2.9-2.8 7.2-4.4 10.7.9zm18.2 2.6c-2.4 2.7-4.9 4.4-4.8 5.8.1 1.7 2.6 3.1 4.6 5.2-1 .9-2.4 2.1-4.1 3.5 1.1.6 1.8 1.3 2.7 1.5 2.8.7 5.8 1.2 8.6 2 8 2.3 10.9.1 11.1-8.4.1-5.4.2-10.7-5.5-13.7-2.2-9.4-10.2-10.1-17.5-11.8-2.6-.6-5.6-.7-6.3 3.4 3.9.9 7.5 1.6 11.1 2.4.1.7.1 1.4.2 2.1-2.6.7-5.1 1.7-7.7 1.9-3.9.2-6.1 1.3-5.3 6.1h12.9zM170 352c2-.4 3.5-.8 5-1.1.2-.5.4-1.1.6-1.6-3.4-2.1-6.8-4.2-10.1-6.2.3-.5.5-.9.8-1.4 2.7.2 5.5.3 8.9.5-4.8-7.2-7.6-7.3-12.8-2-1.4 1.4-3.5 2.1-5.4 3.2-1.9-3.4-1-5 1.6-6.6 1.2-.8 1.6-3.1 2-4.7.1-.3-1.9-1.6-2.7-1.5-3.1.6-5.2 2.3-6 5.6-.6 2.5-1.7 4.8-2.6 7.2-.4 1-1.4 2-1.4 3-.1 5.6-.1 11.3-.1 18.3 6.1-1.1 11.4-1.9 16.6-3.2 1.5-.4 2.6-3.4 3.8-3.4 6.8-.1 3.2-3.3 1.8-6.1zm11.5 92.9c-3-5.8-9.1-8.6-14.5-7.3-8.1 1.9-15.1 7.5-24.1 6.2-2.7-.4-4.9-.9-6.3-4.1-.3-.6-1.2-1.4-1.8-1.4-3.3.2-6.6.6-9.9.9-.2.5-.3 1-.5 1.6 6.1 5.2 13.9 7.4 21.1 10 12.7 4.3 24.5.7 36-5.9zm-57.6-88.7c-.4-.1-.8-.1-1.2-.2-.3-1.2-.6-2.3-1.1-4.7-1.4 3.6-2.3 6-3.2 8.3-.7-.3-1.4-.7-2.1-1 2.7-5.6 5.4-11.3 8-16.9-.5-.2-.9-.5-1.4-.7-3.8 7.2-7.6 14.4-11.6 21.9 7.6 5.7 16.6 2.8 24.5 3.6 1.4-5.5 2.9-10.2 3.9-15.1.6-2.8 1.4-6.2.5-8.6-.5-1.3-4.7-1.1-7.1-1.6-1.2-.3-2.4-.6-3.8-1-1.9 5.7-3.7 10.9-5.4 16zm50.5 69.9c-2.3-6.4-2.7-6.2-8-4.9-8.5 2-17.3 3.2-25.9 4.9-2.9.5-5.8 1.2-9.6 2.1-1.6-.3-4.3-1.2-7.2-1.4-1.2-.1-3.1 1-3.6 2.1-.5 1 .2 2.9 1 4 2 2.4 12.7 4.1 15.4 3 2.8-1.1 5.6-2.1 8.5-2.6 4.8-1 9.8-1.3 14.6-2.5 5-1.3 9.7-3.1 14.8-4.7zm6.3 7.3c.2 2.3-.1 3.9.6 4.6 6.3 6.9 14.7 8.3 23.2 7.4 8.4-.9 16.7-3.4 25-5.2-1.2-6.4-13.3-9.7-18.1-5.7-7.6 6.5-12.9 7-23 1.7 4.2-1.6 7.8-3 11.4-4.4-.2-.5-.4-1-.6-1.6-4.9 1.9-9.8 3.8-15.1 5.9-.4-.2-1.4-1-3.4-2.7zm23.2-103c2.2 7.8 6 15.2.2 22.8-.5.7-.3 2.8.3 3.5 2.7 2.8 12.6.4 13-3.4.6-5.2 0-10.5-.2-16.8-8.5 4.1-7.4-6.6-13.3-6.1zm-7.5-10.9c3.3 8.9 3.3 8.9 9.2 3-2-2.2-3.9-4.4-5.9-6.5-.7-.7-2-1.9-2.5-1.6-4.7 1.8-6.4-1.7-8.7-4.4-1.9-2.2-4.1-4.2-6.2-6.3-.5.2-1.1.4-1.6.6-.6 3.2-2.6 8.8-1.7 9.3 5 2.8 10.6 4.4 16 6.3.2.1.7-.2 1.4-.4zm-72.2 52.1c-1.6-.3-2.5-.8-2.9-.5-4.5 3.1-8.8 6.8-13.5 9.6-6.2 3.6-7.3 9.9-2.2 15 5.4-4.8 10.8-9.5 16.8-14.8-3.3 1.1-6.1 2.1-8.9 3.1-.4-.4-.8-.7-1.3-1.1 1.2-1.5 2.9-4.4 3.4-4.2 4.9 2.1 6.2-.2 6.4-4.5.1-.8 1.1-1.4 2.2-2.6zm18.9-73c8.5 3.6 18.9 2.5 24.9 12.1 2-4.8 4.9-7.3 9.9-8.3 4.5-.9 5.3-3 4.8-6.6-12.8 4.7-26.1 4.3-39.6 2.8zm33.1 123c-.1.8-.2 1.7-.3 2.5 1.8.6 3.5 1.7 5.3 1.8 17.5.4 27.8-2 30.2-7.6-12 1.1-23.6 2.2-35.2 3.3zm-46.4-123.4c-.4.6-.7 1.1-1.1 1.7 1.3 3.6 2.5 7.3 3.8 10.9.9 2.4 2.3 2.7 4.7 1.7 2.7-1.1 5.7-1.5 8.5-2.3 1.1-.3 2.1-1 3.2-1.5-5.1-3-9.6-5.9-14.2-8.5-1.5-.9-3.2-1.4-4.9-2zm37.5 17.2c-1.1-2.2-2.1-4.3-3.9-7.7-1.6 3.2-3.8 5.6-3.2 6.7 2 4.2 4.8 8.1 8 13 .4-1.9.7-2.4.6-2.8-2.1-6.1-1.6-7.1 4.1-9.7 1.2-.5 1.7-2.6 2.5-4-.6-.4-1.1-.8-1.7-1.2-2.3 2.1-4.6 4.1-6.4 5.7zm56.7 54.5c-4-.7-6.5-1.2-9-1.5-1.2-.1-3.5.3-3.5.4.1 2.6.3 5.2.8 7.8 0 .2 2.7.4 3.7-.2 2.3-1.6 4.5-3.6 8-6.5zm-39.9-68.5c3.5 3.4 6.6 6.3 10.6 10.2-1.2-5.4-2.2-9.5-3.2-13.8-2.9 1.4-5.2 2.5-7.4 3.6zm-42.5 65.8c3.4-1.9 4.8-19.2 2.7-23.4-1 8.4-1.9 15.9-2.7 23.4zm78.9 21.7c3.4-2.3 4.1-5.4 1.6-13.5-1.4 1.7-3 3.7-3.2 5.8-.1 2.5 1 5 1.6 7.7zm-29.2 39.9h-14.6c4.3 3 12 2.7 14.6 0zm-92.1-29.4c1.6.4 3.4.8 5.6 1.3-1.8-3.9-3.4-7.4-5-10.9-.2.1-.4.2-.7.2.1 3.1.1 6.2.1 9.4zm49-95.3c4.2 2 7.4 3.6 10.6 5.1 1.2-3-2.5-5.3-10.6-5.1z"/>
  <path d="M229.8 370.7h63c-20.9 3.3-41.9 2.3-62.9 2.5 0-.8 0-1.7-.1-2.5zM294.8 364c-5.3.7-10.5 1.9-15.8 2-9.3.2-18.7-.4-28-.3-7.5.1-15.1.8-22.6 1.1-1 0-2.1-1.1-3.2-1.7.2-.6.4-1.3.6-1.9h68.9c0 .3.1.5.1.8zM29.1 456.2c-.6-6.2 27-61.1 37-75l1.2.6c-4.3 7.8-8.8 15.6-12.9 23.5-4.4 8.1-8.4 16.4-12.5 24.7-4.2 8.4-8.2 16.8-12.8 26.2zM402.6 286.1c2.7 7.9 3.3 60.5 0 64.2v-64.2zM116.6 438.3c-23 3.8-46 7.6-69.1 11.4C70 443 93 439.3 116.3 437.1c.2.4.3.8.3 1.2zM265.6 460.8c21.4-1.7 42.9-3.4 64.3-5.2 0 .5.1 1.1.1 1.6-21.4 2-42.8 4-64.2 5.9 0-.7-.1-1.5-.2-2.3zM402.6 463.6c2.4-.7 4.8-1.9 7.3-2.2 9.5-1.1 19-1.9 28.5-2.9 2.2-.2 4.5-.9 6.7-1.1.7 0 1.5 1.1 3.4 2.5-13 1.2-24.3 2.4-35.7 3.4-3.3.3-6.7.1-10.1.1 0 .1-.1.2-.1.2zM295.8 462.9c14.5-1.9 29.1-2.8 43.8-3.5 0 .6.1 1.1.1 1.7-14.6 1.2-29.2 2.4-43.7 3.5-.1-.6-.1-1.2-.2-1.7zM53.9 441.6l39.9-8.1c.1.7.3 1.4.4 2.1-13.4 2.7-26.7 5.4-40.1 8.1 0-.7-.1-1.4-.2-2.1zM67.9 343.8c-9.1 10.4-18.2 20.8-27.3 31.1-.4-.4-.9-.7-1.3-1.1 9-10.4 18.1-20.9 27.1-31.3.5.5 1 .9 1.5 1.3zM426.5 455.8c1.4-.5 2.7-1.2 4.1-1.5 7.1-1.1 14.3-2 21.4-2.9.6-.1 1.3.7 2 1.1 0 .5 0 1-.1 1.5-2.5.1-5-.1-7.4.2-4.5.6-9 1.5-13.6 2-2 .4-4.2-.2-6.4-.4zM409.1 448.7c2.4-2.3 15.3-2.6 21 0h-21zM359.9 239.5c2-3.2 8-5.5 11.6-3.8 4.2 1.9 5.8 6.2 3.5 11.4-1.5 3.4-3.6 6.8-6.3 9.3-2.4 2.3-5.6 2.1-8.3-2.5 7.5 1.7 11.4-1.7 12.4-7.6.4-2.3-1.7-6.4-3.6-7.2-2.7-1.1-6.3.2-9.3.4zM375.6 255.6c9.4 2.9 8.2 9.3 5.5 16.4.6-.1 1.1-.1 1.7-.2.8-1.5 1.6-2.9 2.4-4.4.3 0 .7.1 1 .1-.3 2.6-.6 5.3-.9 7.9-4.5.8-8.6-3.7-6.4-7.7 2.7-4.9 2.1-7.8-2.7-10.2-.3-.1-.3-.8-.6-1.9zM354.7 239.9c-.8-1.2-1.6-2.4-2.4-3.5 2.1-2.7 4-5.2 5.9-7.7-1.6 3.5 3.3 8.8-3.5 11.2zM346.4 228c-1-3.1-1.8-5.3-2.5-7.5 4.2 2 5.8 5.8 3.4 8.7-3.1 3.9-4.2-2.1-6.9-2.1.2-.4.3-.9.5-1.3 1.5.6 2.9 1.2 5.5 2.2zM320.7 221.3c3.2 2.4 6.5 4.7 9.9 7.3-4.4 1.6-6.4.5-10.9-5.6.4-.6.7-1.1 1-1.7zM333.3 220.2c5.7 3.7 6.3 8 2.5 10.8-.7-3.3-1.6-6.9-2.5-10.8zM572 395.5v-28c0-19.6-.1-39.3-.1-58.9 0-5.6 0-11.2-.1-16.9 0-5.6-1.5-7.4-7.3-7.8-17.1-1-33.5-5.2-49.9-9.8-7.4-2.1-15.1-2.9-22.7-4.3-5.6-1.1-11.1-2.3-16.7-3.5 0-.5.1-.9.1-1.4.9-.3 1.8-1.1 2.6-1 8.1 1.3 16.2 2.4 24.1 4.2 12.4 2.7 24.6 6.2 37 8.9 9.7 2.1 19.6 3.3 29.4 4.9 3.8.6 6.6 1.9 6.5 6.5-.2 21-.2 42.1-.4 63.1-.1 8.6-.6 17.1-.3 25.7.2 7.7 1.1 15.3 1.7 23 .2 2.7-2.7 5.4-5.1 4.4-8.4-3.6-16.9-7-25.1-11-20.9-10.2-41.7-20.7-62.5-31.2-3-1.5-5.8-3.2-8.7-4.9-2.5-1.5-3.3-3.2-2.6-6.5.9-4.3.3-9 .4-13.5.3-22.1.5-44.2.8-66.2 0-.6.2-1.3.3-2.5 2.9 2.4 3.5 4.4 3.1 8.1-.6 5.5 1.2 11.3 1.2 17 .1 11.9-.3 23.7-.4 35.6-.1 5.8-.1 11.6.1 17.4.1 2.8.9 5 4.1 6.4 10.3 4.4 20.3 9.4 30.5 14.1 11 5.1 22.1 9.9 33.1 15 8.7 4.1 17.2 8.4 26.9 13.1zM479.1 355l-.6 1.2c1.1.7 2.1 1.5 3.2 2.1 13.3 6.7 26.7 13.3 40 19.9 12.2 6.1 24.3 12.3 36.6 18.2 4.2 2 8.8 3.2 13.2 4.7.3-.7.5-1.4.8-2.1-31.1-14.7-62.1-29.3-93.2-44zM95.5 90c-9.8.9-19.1 1.8-28.4 2.7-.1-.4-.2-.7-.4-1.1 1.8-.6 3.6-1.6 5.5-1.8 9.6-.8 19.2-1.3 28.7-2.1 8.7-.8 17.3-2 26-2.9 5.4-.6 10.8-1 16.6-.8-1 .6-2.1 1.1-3.1 1.7 0 .3.1.6.1.9 5.6-.4 11.2-.9 16.9-1.3v-1.5c-1.8 0-3.6-.1-5.3 0-1.6.1-3.2.6-4.8.9-.1-.7-.2-1.4-.2-2.1 10.9-.8 21.7-1.5 32.9-2.3-.4 4.2-2 5.3-5.5 5.6-12.6 1-25.2 2.7-37.8 3.8-9.8.9-19.6 1.4-29.3 2.2-3.5.3-7.1 1-10.6 1.3-2.5 0-4-.7-1.3-3.2zM13.2 86.8c36.3-5 72.6-10 108.8-15.1.1.7.2 1.4.3 2.2C86.1 79 49.8 84 13.5 89.1c-.1-.7-.2-1.5-.3-2.3zM161.3 76.8c-1.7.9-3.3 2.3-5 2.4-10.1.6-20.3.2-30.3 1.6-7.5 1-14.9 2.3-22.5 2.9-5.9.5-11.8 1.2-17.7 1.9l-24 3c-1 .1-2.1-.2-3.1-.4 0-.6-.1-1.2-.1-1.7 34.1-3.7 68.1-7.4 102.2-11 .1.4.3.9.5 1.3zM95.6 72.6c-18 2.7-36 5.3-54 8l-.3-2.1c18-2.7 36-5.3 54-8l.3 2.1zM22 78c-4.9.9-9.7 1.9-14.8 2.9.4-4.8 4.9-3.1 7.5-4 2.2-.8 5-.2 7.5-.2-.1.4-.2.9-.2 1.3zM333 408.7c.7-7.5 1.4-15 2.1-22.4.9.1 1.7.2 2.6.3-.8 7.4-1.6 14.9-2.5 22.3-.8-.1-1.5-.1-2.2-.2zM304.1 373.9c2.5-3.2 5.1-2.5 6 .1.6 1.9-1 4.5-1.6 6.8-1.9-.7-3.9-1.4-5.8-2.1l.6-1.8h5.9c-2.5-1.4-3.8-2.2-5.1-3zM148.5 48.7c-1.6.2-3.3.6-4.9.6-11.3.4-22.7.5-34 1.1-14 .8-27.9 1.9-41.9 3.1-6 .5-12 1.5-18 1.8 5.2-3.8 77.9-9.1 98.8-6.6zM43.4 174.1c-12.1 3.6-24.5 3.1-36.9 2.2-.1-.5-.1-.9-.2-1.4 3.3-.5 6.5-1.3 9.8-1.3 4.8 0 9.7.9 14.5.7 4.2-.2 8.3-1.5 12.4-2.3.2.6.3 1.3.4 2.1zM29.9 36V9.4c2.9 1.4 3.5 21.4 0 26.6zM14.1 31.8V5.5h1.7c.1 8.8.8 17.6-.3 26.3h-1.4zM24.6 18.5v15.7c-2.4-5.7-1.2-10.7 0-15.7z"/>
  <path d="M97.6 238.1c1.2-8.1 1.7-17.5 4.2-26.4 3.5-12.5 11.7-22.1 23.8-27.3 11.4-4.9 23.1-6.6 35.8-5.7 11.9.8 21.7 4.8 31.6 10.9 13.3 8.2 18.4 21.7 23.2 34.8 4.5 12.3 4.1 24.9-1.4 37.8-5.7 13.2-14.7 21.1-27.1 27.2-13.2 6.5-26.6 5.2-40 3.5-13.3-1.7-25.2-7.4-34.2-17.6-4.3-4.9-7.8-10.6-10.8-16.4-1.5-2.8-2.5-4-5.7-4-6.8-.2-11-8.2-7.1-13.7 1.2-2 4.8-2.1 7.7-3.1zm51-4.4c-.3-.4-.6-.8-1-1.2-1.7 1.1-3.4 2.2-5 3.4-.8.6-1.4 1.6-2.1 2.4 1 .8 1.8 2 2.9 2.2 4.6.7 9.4.6 14 1.6 9 2 17.7 1.4 26.2-1.6 4.8-1.6 9.1-4.1 10.8-9.4 1.7-5.3-2.1-10.9-6.9-10.1 7.7 9.5 6.9 12.2-4.9 16.7-.9.4-1.8 1-2.7 1.2-4.6.7-9.2 1.3-13.8 2 0-.4-.1-.8-.1-1.3 1.3-1 2.7-2 4-3-.1-.5-.3-1.1-.4-1.6-8.4-.8-16.1 9.6-26.3 1.6 2-1 3.6-2 5.3-2.9zm15.4 45.5v-.3c4 0 8 .1 12.1-.1 1-.1 1.9-1.2 2.8-1.9-1-.7-1.9-1.9-3-2-3-.3-6.4-.9-9.1.1-4.9 1.8-8.1.9-11.4-3.1-1-1.2-4.4-.7-6.5-.4-.6.1-1.6 3.1-1.2 3.6 1.5 1.6 3.5 3.5 5.5 3.8 3.5.8 7.2.3 10.8.3zm.1-23.9c-.7 6.2 2.6 7.6 5.8 8.4 4.6 1.1 10.5-2.9 10.9-7.1.3-3.5-.6-6.5-3.8-7.9-.3 3.9.8 8.3-1 10.3-3.8 4.5-7.6.2-11.9-3.7zm-4.5-1.4c-1.9-1.3-3.1-2.2-4.4-3.1-.9 1.5-2.1 2.8-2.6 4.4-.2.7 1 1.9 1.5 2.9 1.6-1.2 3.2-2.4 5.5-4.2zm32.6 1c-3.5-4.9-5.8-3-8 .4 1.1 1.3 2.2 2.5 3.7 4.3 1.6-1.9 2.9-3.2 4.3-4.7zM157.3 420.9c2.4-2.6 4.1-4.4 6.5-7-6.2 3.4-11.4 6.2-16.6 9.1-.2-.4-.4-.8-.7-1.2 5-4.9 10-9.7 15.1-14.6-.4-.6-.9-1.1-1.3-1.7-9 10.9-19.2 19.4-35.8 18.6 5.5-5 4.5-9.4 2.4-14-1.3-2.9-1.4-5.8 2-7.7-2.3-4.8-5.7-8.8-4.4-14.9 1.2-5.2.2-10.8.2-16.4 6.1.3 10.9.5 16.1.8-.5 1-.8 1.8-1.3 2.8 5.2-1 10.2-2.1 15.3-3.1-.1-.6-.1-1.2-.2-1.8-1.6.1-3.2.4-4.8.2-1-.1-1.9-1-2.9-1.5 1-.5 2-1.3 3-1.3 3.1 0 6.1.4 9.2.3 4.2-.1 8.4-.6 10.8-4.9.3-.6 1.4-.7 3-1.4 1.2 7.3 2.3 14.2 3.5 21.6 5.8-7.6 1.9-15.5.5-24.1 5.3 0 10.4-3.3 15.4 1.3 3.6 3.3 7.7 4.6 12.5-.1.9 5.6 1.6 10.3 2.3 15 .6 3.7 1.8 7.4 1.7 11.1-.1 4.2-1 8.5-2.2 12.5-1 3.2-1.1 5.4 1 6.1 1.1 4.1 2 7.2 3.1 10.9-1.6.1-3.6 0-5.7.3-8.7 1.1-17.4 2.4-26.1 3.5-1.4.2-3.6.3-4-.4-.7-1.1-.9-3.5-.1-4.4 3-3.7 2-7.7 1.1-11.4-1.3-5.8.7-10.8 2.2-16 .3-1.2.7-2.5 1.2-4.4-4.9 5-7.6 15.2-6.2 21.5 2.1 9.3-1.4 14.4-10.8 15.8-1.1.2-2.5.5-5 .9zm-4.6-20.8c-3.2 2.7-6.1 5.8-9.5 7.9-3.2 2-6.9 3.1-11.3 5 8 1.7 19.8-6.2 20.8-12.9zm36.2-18c5.5 3.4 10.5 6.3 16.3 9.9-2.6-5.5-12.1-11.2-16.3-9.9zm12-9.7c-7.3-7.7-14.1-9.8-15.2-5.9 5.2 1.9 10.2 3.9 15.2 5.9zM164.1 330.7c-3.5-5.3-7.8-3.6-10.8-.8-2.5 2.4-3.4 6.4-4.6 8.9-6.3-.7-12.9-1.4-19.7-2.2.2-3.4.4-7.1.5-10.6-5.8 8.9-11.4 17.6-17.4 26.7-.5-7.1 11.8-33.8 17.8-38.6 2.2 2.8 4.5 5.6 7.1 8.9.3-1.4.7-2 .6-2.6-.8-5 .7-6.5 5.7-7.2 2.7-.4 5.2-2.2 8.7-3.9 5.1 2.7 14.5 17.3 12.1 21.4zM182.3 333.3h-12.9c-.9-4.8 1.4-5.9 5.3-6.1 2.6-.1 5.1-1.2 7.7-1.9-.1-.7-.1-1.4-.2-2.1-3.6-.8-7.2-1.6-11.1-2.4.7-4.1 3.7-4 6.3-3.4 7.3 1.7 15.3 2.5 17.5 11.8 5.7 3 5.6 8.3 5.5 13.7-.1 8.5-3 10.7-11.1 8.4-2.8-.8-5.7-1.3-8.6-2-.9-.2-1.6-.9-2.7-1.5 1.7-1.4 3.1-2.7 4.1-3.5-2-2.1-4.5-3.5-4.6-5.2-.2-1.4 2.4-3.1 4.8-5.8z" fill="#fff"/>
  <path d="M170 352c1.4 2.8 5 6-1.7 6.1-1.3 0-2.4 3-3.8 3.4-5.2 1.3-10.4 2.1-16.6 3.2 0-7-.1-12.7.1-18.3 0-1 1-2 1.4-3 .9-2.4 2-4.7 2.6-7.2.8-3.3 2.9-5.1 6-5.6.8-.2 2.8 1.2 2.7 1.5-.4 1.7-.8 4-2 4.7-2.6 1.7-3.5 3.3-1.6 6.6 1.9-1.1 4-1.8 5.4-3.2 5.2-5.3 8-5.2 12.8 2-3.4-.2-6.2-.4-8.9-.5-.3.5-.5.9-.8 1.4 3.4 2.1 6.8 4.2 10.1 6.2-.2.5-.4 1.1-.6 1.6-1.5.3-3.1.6-5.1 1.1zM181.5 444.9c-11.5 6.5-23.4 10.2-35.9 5.8-7.2-2.5-15.1-4.8-21.1-10 .2-.5.3-1 .5-1.6 3.3-.3 6.6-.8 9.9-.9.6 0 1.5.8 1.8 1.4 1.4 3.3 3.5 3.7 6.3 4.1 9 1.3 16-4.3 24.1-6.2 5.3-1.1 11.4 1.6 14.4 7.4zM123.9 356.2c1.8-5.2 3.5-10.3 5.4-15.9 1.3.4 2.5.7 3.8 1 2.5.5 6.7.3 7.1 1.6 1 2.4.1 5.8-.5 8.6-1 4.8-2.5 9.6-3.9 15.1-7.9-.8-16.9 2.1-24.5-3.6 4-7.6 7.8-14.8 11.6-21.9.5.2.9.5 1.4.7-2.7 5.6-5.4 11.3-8 16.9.7.3 1.4.7 2.1 1 .9-2.4 1.8-4.7 3.2-8.3.6 2.4.9 3.6 1.1 4.7.4 0 .8.1 1.2.1zM174.4 426.1c-5.1 1.6-9.8 3.4-14.7 4.6-4.8 1.1-9.8 1.5-14.6 2.5-2.9.6-5.8 1.5-8.5 2.6s-13.4-.6-15.4-3c-.8-1-1.5-3-1-4 .5-1.1 2.4-2.2 3.6-2.1 2.8.2 5.6 1 7.2 1.4 3.8-.8 6.7-1.5 9.6-2.1 8.6-1.6 17.3-2.9 25.9-4.9 5.3-1.2 5.7-1.4 7.9 5zM180.7 433.4c2.1 1.7 3.1 2.5 3.4 2.8 5.3-2.1 10.2-4 15.1-5.9.2.5.4 1 .6 1.6-3.6 1.4-7.1 2.7-11.4 4.4 10.1 5.3 15.4 4.8 23-1.7 4.8-4.1 16.9-.8 18.1 5.7-8.3 1.8-16.6 4.3-25 5.2-8.5.9-17-.5-23.2-7.4-.7-.8-.4-2.4-.6-4.7zM203.9 330.4c5.9-.5 4.8 10.2 13.3 6 .1 6.3.8 11.6.2 16.8-.5 3.8-10.3 6.2-13 3.4-.6-.7-.8-2.7-.3-3.5 5.7-7.5 1.9-14.9-.2-22.7zM196.4 319.5c-.6.2-1.2.5-1.5.4-5.4-1.9-11.1-3.5-16-6.3-.9-.5 1.1-6.1 1.7-9.3.5-.2 1.1-.4 1.6-.6 2.1 2.1 4.3 4 6.2 6.3 2.3 2.7 4.1 6.2 8.7 4.4.6-.2 1.8.9 2.5 1.6 2 2.1 3.9 4.3 5.9 6.5-5.9 5.9-5.9 5.9-9.1-3zM124.2 371.6c-1.1 1.2-2.1 1.8-2.1 2.5-.3 4.3-1.5 6.6-6.4 4.5-.4-.2-2.2 2.7-3.4 4.2.4.4.8.7 1.3 1.1 2.8-1 5.6-1.9 8.9-3.1-6.1 5.3-11.4 10.1-16.8 14.8-5.1-5-4.1-11.3 2.2-15 4.7-2.8 9-6.4 13.5-9.6.2-.3 1.2.3 2.8.6zM143.1 298.6c13.5 1.5 26.8 1.9 39.6-2.8.5 3.6-.3 5.8-4.8 6.6-5 .9-7.9 3.5-9.9 8.3-6-9.6-16.4-8.5-24.9-12.1zM176.2 421.6c11.6-1.1 23.1-2.2 35.1-3.3-2.4 5.6-12.7 8-30.2 7.6-1.8 0-3.5-1.2-5.3-1.8.2-.8.3-1.7.4-2.5zM129.8 298.2c1.6.6 3.4 1 4.9 1.9 4.6 2.6 9.2 5.5 14.2 8.5-1.1.5-2.1 1.2-3.2 1.5-2.8.8-5.8 1.2-8.5 2.3-2.4 1-3.8.7-4.7-1.7-1.3-3.6-2.5-7.3-3.8-10.9.4-.5.8-1 1.1-1.6z" fill="#fff"/>
  <path d="M167.3 315.4c1.8-1.6 4.1-3.7 6.4-5.7.6.4 1.1.8 1.7 1.2-.8 1.4-1.3 3.5-2.5 4-5.7 2.6-6.3 3.6-4.1 9.7.1.4-.2.9-.6 2.8-3.1-4.9-6-8.8-8-13-.5-1.1 1.6-3.5 3.2-6.7 1.8 3.5 2.8 5.5 3.9 7.7zM224 369.9c-3.5 2.9-5.6 4.9-8.1 6.5-.9.6-3.6.4-3.7.2-.5-2.6-.7-5.2-.8-7.8 0-.1 2.3-.5 3.5-.4 2.6.3 5.1.8 9.1 1.5zM184.1 301.4c2.3-1.1 4.5-2.2 7.4-3.6 1 4.3 1.9 8.4 3.2 13.8-4-3.9-7.1-6.8-10.6-10.2zM141.6 367.2c.8-7.5 1.7-15 2.7-23.4 2.1 4.2.7 21.5-2.7 23.4zM61 451.7c9.4-1.9 18.9-3.7 28.3-5.6.1.6.2 1.1.3 1.7-6.2 1.2-12.3 2.5-18.5 3.5-3.4.5-6.7 3.2-10.1.4-.1-.1 0 0 0 0zM220.5 388.9c-.6-2.8-1.7-5.3-1.5-7.7.1-2.1 1.7-4.1 3.2-5.8 2.4 8.1 1.8 11.3-1.7 13.5zM191.3 428.8c-2.6 2.7-10.3 3.1-14.6 0h14.6zM99.2 399.4v-9.3c.2-.1.4-.2.7-.2 1.6 3.5 3.2 7 5 10.9-2.3-.6-4.1-1.1-5.7-1.4zM148.2 304.1c8.1-.2 11.8 2 10.6 5.1-3.2-1.5-6.4-3-10.6-5.1zM479.1 355c31 14.7 62 29.3 93.1 44-.3.7-.5 1.4-.8 2.1-4.4-1.6-9-2.7-13.2-4.7-12.3-5.9-24.4-12.1-36.6-18.2-13.3-6.6-26.7-13.3-40-19.9-1.1-.6-2.1-1.4-3.2-2.1.3-.4.5-.8.7-1.2z" fill="#fff"/>
  <path d="M148.6 233.7c-1.7.9-3.4 1.8-5.5 3 10.2 8 17.9-2.4 26.3-1.6.1.5.3 1.1.4 1.6-1.3 1-2.7 2-4 3 0 .4.1.8.1 1.3 4.6-.6 9.2-1.2 13.8-2 1-.2 1.8-.8 2.7-1.2 11.8-4.4 12.6-7.2 4.9-16.7 4.8-.8 8.6 4.8 6.9 10.1-1.7 5.4-6 7.8-10.8 9.4-8.6 3-17.3 3.5-26.2 1.6-4.5-1-9.3-.9-14-1.6-1-.1-1.9-1.4-2.9-2.2.7-.8 1.2-1.8 2.1-2.4 1.6-1.2 3.3-2.3 5-3.4.6.3.9.7 1.2 1.1zM164 279.2c-3.6 0-7.3.4-10.8-.2-2-.4-4-2.2-5.5-3.8-.4-.5.6-3.5 1.2-3.6 2.2-.3 5.6-.8 6.5.4 3.3 4 6.5 4.9 11.4 3.1 2.7-1 6.1-.4 9.1-.1 1 .1 2 1.3 3 2-.9.6-1.8 1.8-2.8 1.9-4 .2-8 .1-12.1.1v.2zM164.1 255.3c4.2 3.9 8 8.1 11.9 3.7 1.8-2 .7-6.5 1-10.3 3.2 1.4 4.1 4.5 3.8 7.9-.4 4.1-6.3 8.1-10.9 7.1-3.1-.7-6.4-2.2-5.8-8.4zM159.6 253.9c-2.3 1.8-3.9 3-5.5 4.3-.5-1-1.7-2.1-1.5-2.9.5-1.6 1.7-3 2.6-4.4 1.2.8 2.5 1.7 4.4 3zM192.2 254.9c-1.4 1.5-2.7 2.8-4.4 4.7-1.5-1.8-2.5-3-3.7-4.3 2.3-3.4 4.6-5.4 8.1-.4zM152.7 400.1c-1 6.7-12.9 14.6-20.8 12.9 4.4-1.9 8.2-3 11.3-5 3.5-2.1 6.3-5.1 9.5-7.9zM188.9 382.1c4.2-1.4 13.7 4.3 16.3 9.9-5.8-3.5-10.8-6.5-16.3-9.9zM200.9 372.4c-5-2-10.1-3.9-15.2-5.9 1.1-3.9 7.9-1.8 15.2 5.9z"/>
  <text transform="translate(396.317 43.288)"><tspan x="0" y="0" font-family="Peanuts" font-size="27">I WANT YOU</tspan><tspan x="-27.1" y="32.4" font-family="Peanuts" font-size="27">TO SEE ALL THE</tspan><tspan x="-29" y="64.8" font-family="Peanuts" font-size="27">NICE CHRISTMAS</tspan><tspan x="-27.7" y="97.2" font-family="Peanuts" font-size="27">PRESENTS I GOT,</tspan><tspan x="-20.8" y="129.6" font-family="Peanuts" font-size="27">CHARLIE BROWN</tspan></text>
</svg>
